<?xml version="1.0" encoding="UTF-8" standalone="no"?>
<!DOCTYPE svg PUBLIC "-//W3C//DTD SVG 1.1//EN"
 "http://www.w3.org/Graphics/SVG/1.1/DTD/svg11.dtd">
<!-- Generated by graphviz version 2.36.0 (20140111.2315)
 -->
<!-- Title: /home/travis/build/AliceO2Group/AliceO2/Framework/Core/include/Framework/ErrorContext.h Pages: 1 -->
<svg width="1782pt" height="342pt"
 viewBox="0.00 0.00 1781.70 342.00" xmlns="http://www.w3.org/2000/svg" xmlns:xlink="http://www.w3.org/1999/xlink">
<g id="graph0" class="graph" transform="scale(1 1) rotate(0) translate(4 338)">
<title>/home/travis/build/AliceO2Group/AliceO2/Framework/Core/include/Framework/ErrorContext.h</title>
<!-- Node1 -->
<g id="node1" class="node"><title>Node1</title>
<polygon fill="#bfbfbf" stroke="black" points="1368.2,-281 1368.2,-333 1503.2,-333 1503.2,-281 1368.2,-281"/>
<text text-anchor="start" x="1376.2" y="-321" font-family="Helvetica,sans-Serif" font-size="10.00">/home/travis/build</text>
<text text-anchor="start" x="1376.2" y="-310" font-family="Helvetica,sans-Serif" font-size="10.00">/AliceO2Group/AliceO2</text>
<text text-anchor="start" x="1376.2" y="-299" font-family="Helvetica,sans-Serif" font-size="10.00">/Framework/Core/include</text>
<text text-anchor="middle" x="1435.7" y="-288" font-family="Helvetica,sans-Serif" font-size="10.00">/Framework/ErrorContext.h</text>
</g>
<!-- Node2 -->
<g id="node2" class="node"><title>Node2</title>
<g id="a_node2"><a xlink:href="../../d6/d5c/InputRecord_8h.html" target="_top" xlink:title="Framework/InputRecord.h">
<polygon fill="none" stroke="black" points="953.696,-224.5 953.696,-243.5 1083.7,-243.5 1083.7,-224.5 953.696,-224.5"/>
<text text-anchor="middle" x="1018.7" y="-231.5" font-family="Helvetica,sans-Serif" font-size="10.00">Framework/InputRecord.h</text>
</a>
</g>
</g>
<!-- Node1&#45;&gt;Node2 -->
<g id="edge1" class="edge"><title>Node1&#45;&gt;Node2</title>
<path fill="none" stroke="midnightblue" d="M1367.77,-294.435C1287.59,-280.784 1155.51,-258.295 1078.87,-245.246"/>
<polygon fill="midnightblue" stroke="midnightblue" points="1079.34,-241.775 1068.89,-243.547 1078.16,-248.676 1079.34,-241.775"/>
</g>
<!-- Node35 -->
<g id="node35" class="node"><title>Node35</title>
<polygon fill="none" stroke="#bfbfbf" points="1428.2,-168.5 1428.2,-187.5 1487.2,-187.5 1487.2,-168.5 1428.2,-168.5"/>
<text text-anchor="middle" x="1457.7" y="-175.5" font-family="Helvetica,sans-Serif" font-size="10.00">exception</text>
</g>
<!-- Node1&#45;&gt;Node35 -->
<g id="edge58" class="edge"><title>Node1&#45;&gt;Node35</title>
<path fill="none" stroke="midnightblue" d="M1440.04,-280.909C1444.29,-256.409 1450.65,-219.69 1454.46,-197.664"/>
<polygon fill="midnightblue" stroke="midnightblue" points="1457.94,-198.079 1456.2,-187.628 1451.05,-196.884 1457.94,-198.079"/>
</g>
<!-- Node36 -->
<g id="node36" class="node"><title>Node36</title>
<g id="a_node36"><a xlink:href="../../d8/d17/ServiceRegistry_8h.html" target="_top" xlink:title="Framework/ServiceRegistry.h">
<polygon fill="none" stroke="black" points="1463.7,-224.5 1463.7,-243.5 1609.7,-243.5 1609.7,-224.5 1463.7,-224.5"/>
<text text-anchor="middle" x="1536.7" y="-231.5" font-family="Helvetica,sans-Serif" font-size="10.00">Framework/ServiceRegistry.h</text>
</a>
</g>
</g>
<!-- Node1&#45;&gt;Node36 -->
<g id="edge51" class="edge"><title>Node1&#45;&gt;Node36</title>
<path fill="none" stroke="midnightblue" d="M1471.3,-280.968C1486.26,-270.458 1503.12,-258.603 1515.98,-249.565"/>
<polygon fill="midnightblue" stroke="midnightblue" points="1518,-252.424 1524.16,-243.81 1513.97,-246.697 1518,-252.424"/>
</g>
<!-- Node3 -->
<g id="node3" class="node"><title>Node3</title>
<g id="a_node3"><a xlink:href="../../d5/dfb/DataRef_8h.html" target="_top" xlink:title="Framework/DataRef.h">
<polygon fill="none" stroke="black" points="26.1958,-112.5 26.1958,-131.5 139.196,-131.5 139.196,-112.5 26.1958,-112.5"/>
<text text-anchor="middle" x="82.6958" y="-119.5" font-family="Helvetica,sans-Serif" font-size="10.00">Framework/DataRef.h</text>
</a>
</g>
</g>
<!-- Node2&#45;&gt;Node3 -->
<g id="edge2" class="edge"><title>Node2&#45;&gt;Node3</title>
<path fill="none" stroke="midnightblue" d="M953.319,-229.458C850.093,-223.46 643.143,-209.784 468.696,-188 349.226,-173.081 210.243,-147.68 135.976,-133.451"/>
<polygon fill="midnightblue" stroke="midnightblue" points="136.416,-129.972 125.934,-131.52 135.093,-136.846 136.416,-129.972"/>
</g>
<!-- Node4 -->
<g id="node4" class="node"><title>Node4</title>
<g id="a_node4"><a xlink:href="../../d5/db8/DataRefUtils_8h.html" target="_top" xlink:title="Framework/DataRefUtils.h">
<polygon fill="none" stroke="black" points="477.696,-168.5 477.696,-187.5 611.696,-187.5 611.696,-168.5 477.696,-168.5"/>
<text text-anchor="middle" x="544.696" y="-175.5" font-family="Helvetica,sans-Serif" font-size="10.00">Framework/DataRefUtils.h</text>
</a>
</g>
</g>
<!-- Node2&#45;&gt;Node4 -->
<g id="edge3" class="edge"><title>Node2&#45;&gt;Node4</title>
<path fill="none" stroke="midnightblue" d="M953.286,-225.548C866.63,-215.676 714.01,-198.289 621.832,-187.788"/>
<polygon fill="midnightblue" stroke="midnightblue" points="622.058,-184.291 611.726,-186.636 621.266,-191.246 622.058,-184.291"/>
</g>
<!-- Node7 -->
<g id="node7" class="node"><title>Node7</title>
<polygon fill="none" stroke="#bfbfbf" points="1011.7,-0.5 1011.7,-19.5 1063.7,-19.5 1063.7,-0.5 1011.7,-0.5"/>
<text text-anchor="middle" x="1037.7" y="-7.5" font-family="Helvetica,sans-Serif" font-size="10.00">memory</text>
</g>
<!-- Node2&#45;&gt;Node7 -->
<g id="edge49" class="edge"><title>Node2&#45;&gt;Node7</title>
<path fill="none" stroke="midnightblue" d="M1019.44,-224.297C1022.24,-191.633 1032.14,-75.8661 1036.07,-29.9573"/>
<polygon fill="midnightblue" stroke="midnightblue" points="1039.57,-30.1458 1036.94,-19.8837 1032.6,-29.5488 1039.57,-30.1458"/>
</g>
<!-- Node8 -->
<g id="node8" class="node"><title>Node8</title>
<polygon fill="none" stroke="#bfbfbf" points="1093.2,-0.5 1093.2,-19.5 1142.2,-19.5 1142.2,-0.5 1093.2,-0.5"/>
<text text-anchor="middle" x="1117.7" y="-7.5" font-family="Helvetica,sans-Serif" font-size="10.00">cassert</text>
</g>
<!-- Node2&#45;&gt;Node8 -->
<g id="edge47" class="edge"><title>Node2&#45;&gt;Node8</title>
<path fill="none" stroke="midnightblue" d="M1022.58,-224.297C1037.24,-191.425 1089.43,-74.3911 1109.63,-29.0904"/>
<polygon fill="midnightblue" stroke="midnightblue" points="1112.86,-30.4423 1113.73,-19.8837 1106.46,-27.5913 1112.86,-30.4423"/>
</g>
<!-- Node9 -->
<g id="node9" class="node"><title>Node9</title>
<polygon fill="none" stroke="#bfbfbf" points="1416.7,-0.5 1416.7,-19.5 1462.7,-19.5 1462.7,-0.5 1416.7,-0.5"/>
<text text-anchor="middle" x="1439.7" y="-7.5" font-family="Helvetica,sans-Serif" font-size="10.00">cstring</text>
</g>
<!-- Node2&#45;&gt;Node9 -->
<g id="edge46" class="edge"><title>Node2&#45;&gt;Node9</title>
<path fill="none" stroke="midnightblue" d="M1083.91,-233.821C1157.02,-232.703 1278,-224.668 1374.7,-188 1413.93,-173.123 1508.52,-113.816 1526.7,-76 1539.79,-48.7476 1502.34,-30.1312 1472.53,-20.0256"/>
<polygon fill="midnightblue" stroke="midnightblue" points="1473.39,-16.6257 1462.8,-16.9246 1471.26,-23.2954 1473.39,-16.6257"/>
</g>
<!-- Node11 -->
<g id="node11" class="node"><title>Node11</title>
<g id="a_node11"><a xlink:href="../../d8/d3c/TMessageSerializer_8h.html" target="_top" xlink:title="Framework/TMessageSerializer.h">
<polygon fill="none" stroke="black" points="668.196,-112.5 668.196,-131.5 831.196,-131.5 831.196,-112.5 668.196,-112.5"/>
<text text-anchor="middle" x="749.696" y="-119.5" font-family="Helvetica,sans-Serif" font-size="10.00">Framework/TMessageSerializer.h</text>
</a>
</g>
</g>
<!-- Node2&#45;&gt;Node11 -->
<g id="edge41" class="edge"><title>Node2&#45;&gt;Node11</title>
<path fill="none" stroke="midnightblue" d="M997.588,-224.368C950.249,-205.01 835.444,-158.065 780.282,-135.507"/>
<polygon fill="midnightblue" stroke="midnightblue" points="781.287,-132.137 770.706,-131.591 778.637,-138.616 781.287,-132.137"/>
</g>
<!-- Node12 -->
<g id="node12" class="node"><title>Node12</title>
<polygon fill="none" stroke="#bfbfbf" points="245.196,-56.5 245.196,-75.5 372.196,-75.5 372.196,-56.5 245.196,-56.5"/>
<text text-anchor="middle" x="308.696" y="-63.5" font-family="Helvetica,sans-Serif" font-size="10.00">fairmq/FairMQMessage.h</text>
</g>
<!-- Node2&#45;&gt;Node12 -->
<g id="edge40" class="edge"><title>Node2&#45;&gt;Node12</title>
<path fill="none" stroke="midnightblue" d="M987.929,-224.5C955.333,-215.483 902.369,-200.802 856.696,-188 768.638,-163.317 746.099,-158.911 658.696,-132 631.831,-123.728 626.014,-118.623 598.696,-112 558.676,-102.298 453.57,-86.9062 381.53,-76.8787"/>
<polygon fill="midnightblue" stroke="midnightblue" points="381.981,-73.4077 371.594,-75.5005 381.019,-80.3413 381.981,-73.4077"/>
</g>
<!-- Node21 -->
<g id="node21" class="node"><title>Node21</title>
<g id="a_node21"><a xlink:href="../../d0/d95/TypeTraits_8h.html" target="_top" xlink:title="Framework/TypeTraits.h">
<polygon fill="none" stroke="black" points="65.1958,-56.5 65.1958,-75.5 188.196,-75.5 188.196,-56.5 65.1958,-56.5"/>
<text text-anchor="middle" x="126.696" y="-63.5" font-family="Helvetica,sans-Serif" font-size="10.00">Framework/TypeTraits.h</text>
</a>
</g>
</g>
<!-- Node2&#45;&gt;Node21 -->
<g id="edge39" class="edge"><title>Node2&#45;&gt;Node21</title>
<path fill="none" stroke="midnightblue" d="M953.366,-231.565C740.494,-226.203 77.0626,-203.81 16.6958,-132 -4.66201,-106.594 36.5258,-88.681 74.4413,-78.1816"/>
<polygon fill="midnightblue" stroke="midnightblue" points="75.698,-81.4703 84.4806,-75.5444 73.9194,-74.7 75.698,-81.4703"/>
</g>
<!-- Node22 -->
<g id="node22" class="node"><title>Node22</title>
<polygon fill="none" stroke="#bfbfbf" points="558.696,-0.5 558.696,-19.5 620.696,-19.5 620.696,-0.5 558.696,-0.5"/>
<text text-anchor="middle" x="589.696" y="-7.5" font-family="Helvetica,sans-Serif" font-size="10.00">type_traits</text>
</g>
<!-- Node2&#45;&gt;Node22 -->
<g id="edge50" class="edge"><title>Node2&#45;&gt;Node22</title>
<path fill="none" stroke="midnightblue" d="M1017.95,-224.486C1014.87,-195.232 1000.42,-98.313 941.696,-56 892.791,-20.765 712.999,-13.1034 630.977,-11.449"/>
<polygon fill="midnightblue" stroke="midnightblue" points="630.836,-7.94602 620.775,-11.2643 630.71,-14.9449 630.836,-7.94602"/>
</g>
<!-- Node23 -->
<g id="node23" class="node"><title>Node23</title>
<polygon fill="none" stroke="#bfbfbf" points="21.6958,-0.5 21.6958,-19.5 65.6958,-19.5 65.6958,-0.5 21.6958,-0.5"/>
<text text-anchor="middle" x="43.6958" y="-7.5" font-family="Helvetica,sans-Serif" font-size="10.00">vector</text>
</g>
<!-- Node2&#45;&gt;Node23 -->
<g id="edge45" class="edge"><title>Node2&#45;&gt;Node23</title>
<path fill="none" stroke="midnightblue" d="M953.686,-233.303C774.205,-233.578 274.659,-230.398 116.696,-188 64.0936,-173.881 36.0751,-178.486 7.6958,-132 -12.861,-98.3276 13.2894,-52.1849 30.6271,-27.7565"/>
<polygon fill="midnightblue" stroke="midnightblue" points="33.5826,-29.6467 36.7246,-19.5285 27.9586,-25.4789 33.5826,-29.6467"/>
</g>
<!-- Node24 -->
<g id="node24" class="node"><title>Node24</title>
<polygon fill="none" stroke="#bfbfbf" points="904.696,-112.5 904.696,-131.5 960.696,-131.5 960.696,-112.5 904.696,-112.5"/>
<text text-anchor="middle" x="932.696" y="-119.5" font-family="Helvetica,sans-Serif" font-size="10.00">TClass.h</text>
</g>
<!-- Node2&#45;&gt;Node24 -->
<g id="edge42" class="edge"><title>Node2&#45;&gt;Node24</title>
<path fill="none" stroke="midnightblue" d="M1011.95,-224.368C997.692,-206.135 964.301,-163.426 945.733,-139.675"/>
<polygon fill="midnightblue" stroke="midnightblue" points="948.329,-137.314 939.413,-131.591 942.815,-141.625 948.329,-137.314"/>
</g>
<!-- Node28 -->
<g id="node28" class="node"><title>Node28</title>
<g id="a_node28"><a xlink:href="../../d5/d19/InputRoute_8h.html" target="_top" xlink:title="Framework/InputRoute.h">
<polygon fill="none" stroke="black" points="1208.2,-168.5 1208.2,-187.5 1333.2,-187.5 1333.2,-168.5 1208.2,-168.5"/>
<text text-anchor="middle" x="1270.7" y="-175.5" font-family="Helvetica,sans-Serif" font-size="10.00">Framework/InputRoute.h</text>
</a>
</g>
</g>
<!-- Node2&#45;&gt;Node28 -->
<g id="edge31" class="edge"><title>Node2&#45;&gt;Node28</title>
<path fill="none" stroke="midnightblue" d="M1058.63,-224.444C1102.59,-215.023 1173.32,-199.866 1220.88,-189.675"/>
<polygon fill="midnightblue" stroke="midnightblue" points="1221.91,-193.034 1230.95,-187.516 1220.44,-186.189 1221.91,-193.034"/>
</g>
<!-- Node30 -->
<g id="node30" class="node"><title>Node30</title>
<polygon fill="none" stroke="#bfbfbf" points="1477.2,-56.5 1477.2,-75.5 1518.2,-75.5 1518.2,-56.5 1477.2,-56.5"/>
<text text-anchor="middle" x="1497.7" y="-63.5" font-family="Helvetica,sans-Serif" font-size="10.00">string</text>
</g>
<!-- Node2&#45;&gt;Node30 -->
<g id="edge44" class="edge"><title>Node2&#45;&gt;Node30</title>
<path fill="none" stroke="midnightblue" d="M1083.8,-233.655C1150.94,-232.14 1257.44,-223.529 1341.7,-188 1400.94,-163.016 1457.13,-109.674 1482.92,-82.9501"/>
<polygon fill="midnightblue" stroke="midnightblue" points="1485.58,-85.2355 1489.92,-75.572 1480.5,-80.4176 1485.58,-85.2355"/>
</g>
<!-- Node34 -->
<g id="node34" class="node"><title>Node34</title>
<polygon fill="none" stroke="#bfbfbf" points="1104.2,-168.5 1104.2,-187.5 1151.2,-187.5 1151.2,-168.5 1104.2,-168.5"/>
<text text-anchor="middle" x="1127.7" y="-175.5" font-family="Helvetica,sans-Serif" font-size="10.00">iterator</text>
</g>
<!-- Node2&#45;&gt;Node34 -->
<g id="edge43" class="edge"><title>Node2&#45;&gt;Node34</title>
<path fill="none" stroke="midnightblue" d="M1036.21,-224.324C1053.77,-215.625 1081.03,-202.12 1101.23,-192.113"/>
<polygon fill="midnightblue" stroke="midnightblue" points="1102.82,-195.23 1110.23,-187.655 1099.71,-188.958 1102.82,-195.23"/>
</g>
<!-- Node2&#45;&gt;Node35 -->
<g id="edge48" class="edge"><title>Node2&#45;&gt;Node35</title>
<path fill="none" stroke="midnightblue" d="M1083.94,-227.348C1162.45,-220.136 1298.16,-206.361 1413.7,-188 1415.14,-187.771 1416.61,-187.526 1418.09,-187.271"/>
<polygon fill="midnightblue" stroke="midnightblue" points="1418.74,-190.711 1427.94,-185.457 1417.47,-183.826 1418.74,-190.711"/>
</g>
<!-- Node4&#45;&gt;Node3 -->
<g id="edge4" class="edge"><title>Node4&#45;&gt;Node3</title>
<path fill="none" stroke="midnightblue" d="M477.553,-169.901C400.72,-161.662 270.833,-147.384 149.607,-132.217"/>
<polygon fill="midnightblue" stroke="midnightblue" points="149.763,-128.709 139.405,-130.936 148.891,-135.655 149.763,-128.709"/>
</g>
<!-- Node5 -->
<g id="node5" class="node"><title>Node5</title>
<g id="a_node5"><a xlink:href="../../dc/dcd/DataHeader_8h.html" target="_top" xlink:title="Headers/DataHeader.h">
<polygon fill="none" stroke="black" points="1142.2,-56.5 1142.2,-75.5 1259.2,-75.5 1259.2,-56.5 1142.2,-56.5"/>
<text text-anchor="middle" x="1200.7" y="-63.5" font-family="Helvetica,sans-Serif" font-size="10.00">Headers/DataHeader.h</text>
</a>
</g>
</g>
<!-- Node4&#45;&gt;Node5 -->
<g id="edge5" class="edge"><title>Node4&#45;&gt;Node5</title>
<path fill="none" stroke="midnightblue" d="M612.034,-173.343C696.098,-167.979 844.015,-155.908 968.696,-132 1039.92,-118.342 1121.09,-93.3678 1166.06,-78.6714"/>
<polygon fill="midnightblue" stroke="midnightblue" points="1167.22,-81.9749 1175.62,-75.5227 1165.03,-75.3261 1167.22,-81.9749"/>
</g>
<!-- Node4&#45;&gt;Node11 -->
<g id="edge11" class="edge"><title>Node4&#45;&gt;Node11</title>
<path fill="none" stroke="midnightblue" d="M577.179,-168.444C612.416,-159.162 668.8,-144.309 707.455,-134.127"/>
<polygon fill="midnightblue" stroke="midnightblue" points="708.586,-137.448 717.365,-131.516 706.803,-130.679 708.586,-137.448"/>
</g>
<!-- Node20 -->
<g id="node20" class="node"><title>Node20</title>
<g id="a_node20"><a xlink:href="../../d1/d53/SerializationMethods_8h.html" target="_top" xlink:title="Type wrappers for enfording a specific serialization method. ">
<polygon fill="none" stroke="black" points="157.196,-112.5 157.196,-131.5 324.196,-131.5 324.196,-112.5 157.196,-112.5"/>
<text text-anchor="middle" x="240.696" y="-119.5" font-family="Helvetica,sans-Serif" font-size="10.00">Framework/SerializationMethods.h</text>
</a>
</g>
</g>
<!-- Node4&#45;&gt;Node20 -->
<g id="edge21" class="edge"><title>Node4&#45;&gt;Node20</title>
<path fill="none" stroke="midnightblue" d="M496.526,-168.444C442.827,-158.905 356.01,-143.483 298.641,-133.293"/>
<polygon fill="midnightblue" stroke="midnightblue" points="299.098,-129.819 288.64,-131.516 297.874,-136.712 299.098,-129.819"/>
</g>
<!-- Node4&#45;&gt;Node21 -->
<g id="edge25" class="edge"><title>Node4&#45;&gt;Node21</title>
<path fill="none" stroke="midnightblue" d="M500.193,-168.465C464.501,-160.917 413.479,-148.534 370.696,-132 352.894,-125.12 350.625,-118.54 332.696,-112 288.31,-95.8094 236.32,-84.5063 195.675,-77.2777"/>
<polygon fill="midnightblue" stroke="midnightblue" points="196.048,-73.7903 185.597,-75.5272 194.85,-80.687 196.048,-73.7903"/>
</g>
<!-- Node4&#45;&gt;Node22 -->
<g id="edge29" class="edge"><title>Node4&#45;&gt;Node22</title>
<path fill="none" stroke="midnightblue" d="M555.887,-168.464C571.862,-155.281 597.605,-129.651 581.696,-112 529.939,-54.579 287.452,-133.421 235.696,-76 229.745,-69.3974 229.82,-62.6699 235.696,-56 256.131,-32.8031 459.895,-18.4231 548.692,-13.2126"/>
<polygon fill="midnightblue" stroke="midnightblue" points="548.898,-16.7066 558.68,-12.6368 548.495,-9.71819 548.898,-16.7066"/>
</g>
<!-- Node4&#45;&gt;Node24 -->
<g id="edge26" class="edge"><title>Node4&#45;&gt;Node24</title>
<path fill="none" stroke="midnightblue" d="M606.176,-168.444C687.105,-157.18 826.973,-137.714 894.298,-128.344"/>
<polygon fill="midnightblue" stroke="midnightblue" points="895.039,-131.775 904.461,-126.93 894.074,-124.842 895.039,-131.775"/>
</g>
<!-- Node25 -->
<g id="node25" class="node"><title>Node25</title>
<polygon fill="none" stroke="#bfbfbf" points="380.196,-112.5 380.196,-131.5 439.196,-131.5 439.196,-112.5 380.196,-112.5"/>
<text text-anchor="middle" x="409.696" y="-119.5" font-family="Helvetica,sans-Serif" font-size="10.00">stdexcept</text>
</g>
<!-- Node4&#45;&gt;Node25 -->
<g id="edge27" class="edge"><title>Node4&#45;&gt;Node25</title>
<path fill="none" stroke="midnightblue" d="M523.305,-168.444C500.989,-159.517 465.793,-145.439 440.488,-135.317"/>
<polygon fill="midnightblue" stroke="midnightblue" points="441.572,-131.981 430.987,-131.516 438.972,-138.48 441.572,-131.981"/>
</g>
<!-- Node26 -->
<g id="node26" class="node"><title>Node26</title>
<polygon fill="none" stroke="#bfbfbf" points="457.696,-112.5 457.696,-131.5 509.696,-131.5 509.696,-112.5 457.696,-112.5"/>
<text text-anchor="middle" x="483.696" y="-119.5" font-family="Helvetica,sans-Serif" font-size="10.00">sstream</text>
</g>
<!-- Node4&#45;&gt;Node26 -->
<g id="edge28" class="edge"><title>Node4&#45;&gt;Node26</title>
<path fill="none" stroke="midnightblue" d="M534.895,-168.324C525.878,-160.341 512.29,-148.313 501.378,-138.653"/>
<polygon fill="midnightblue" stroke="midnightblue" points="503.482,-135.842 493.675,-131.834 498.843,-141.083 503.482,-135.842"/>
</g>
<!-- Node27 -->
<g id="node27" class="node"><title>Node27</title>
<polygon fill="none" stroke="#bfbfbf" points="528.196,-112.5 528.196,-131.5 573.196,-131.5 573.196,-112.5 528.196,-112.5"/>
<text text-anchor="middle" x="550.696" y="-119.5" font-family="Helvetica,sans-Serif" font-size="10.00">gsl/gsl</text>
</g>
<!-- Node4&#45;&gt;Node27 -->
<g id="edge30" class="edge"><title>Node4&#45;&gt;Node27</title>
<path fill="none" stroke="midnightblue" d="M545.687,-168.083C546.482,-160.927 547.625,-150.635 548.619,-141.691"/>
<polygon fill="midnightblue" stroke="midnightblue" points="552.098,-142.076 549.723,-131.751 545.14,-141.303 552.098,-142.076"/>
</g>
<!-- Node6 -->
<g id="node6" class="node"><title>Node6</title>
<polygon fill="none" stroke="#bfbfbf" points="1242.7,-0.5 1242.7,-19.5 1288.7,-19.5 1288.7,-0.5 1242.7,-0.5"/>
<text text-anchor="middle" x="1265.7" y="-7.5" font-family="Helvetica,sans-Serif" font-size="10.00">cstdint</text>
</g>
<!-- Node5&#45;&gt;Node6 -->
<g id="edge6" class="edge"><title>Node5&#45;&gt;Node6</title>
<path fill="none" stroke="midnightblue" d="M1211.14,-56.324C1220.84,-48.2631 1235.51,-36.0765 1247.2,-26.3695"/>
<polygon fill="midnightblue" stroke="midnightblue" points="1249.61,-28.9163 1255.06,-19.8339 1245.13,-23.532 1249.61,-28.9163"/>
</g>
<!-- Node5&#45;&gt;Node7 -->
<g id="edge7" class="edge"><title>Node5&#45;&gt;Node7</title>
<path fill="none" stroke="midnightblue" d="M1174.87,-56.4435C1147.45,-47.3591 1103.92,-32.9388 1073.26,-22.7831"/>
<polygon fill="midnightblue" stroke="midnightblue" points="1074,-19.3389 1063.4,-19.5164 1071.79,-25.9837 1074,-19.3389"/>
</g>
<!-- Node5&#45;&gt;Node8 -->
<g id="edge8" class="edge"><title>Node5&#45;&gt;Node8</title>
<path fill="none" stroke="midnightblue" d="M1187.36,-56.324C1174.53,-47.979 1154.91,-35.2122 1139.76,-25.3524"/>
<polygon fill="midnightblue" stroke="midnightblue" points="1141.29,-22.1742 1131,-19.6545 1137.47,-28.0417 1141.29,-22.1742"/>
</g>
<!-- Node5&#45;&gt;Node9 -->
<g id="edge9" class="edge"><title>Node5&#45;&gt;Node9</title>
<path fill="none" stroke="midnightblue" d="M1238.57,-56.4435C1284.87,-45.9813 1362.5,-28.442 1406.54,-18.4902"/>
<polygon fill="midnightblue" stroke="midnightblue" points="1407.47,-21.8685 1416.46,-16.2506 1405.93,-15.0406 1407.47,-21.8685"/>
</g>
<!-- Node10 -->
<g id="node10" class="node"><title>Node10</title>
<polygon fill="none" stroke="#bfbfbf" points="1168.7,-0.5 1168.7,-19.5 1224.7,-19.5 1224.7,-0.5 1168.7,-0.5"/>
<text text-anchor="middle" x="1196.7" y="-7.5" font-family="Helvetica,sans-Serif" font-size="10.00">algorithm</text>
</g>
<!-- Node5&#45;&gt;Node10 -->
<g id="edge10" class="edge"><title>Node5&#45;&gt;Node10</title>
<path fill="none" stroke="midnightblue" d="M1200.04,-56.083C1199.51,-49.0059 1198.76,-38.8611 1198.1,-29.9865"/>
<polygon fill="midnightblue" stroke="midnightblue" points="1201.57,-29.4652 1197.34,-19.7511 1194.59,-29.9823 1201.57,-29.4652"/>
</g>
<!-- Node11&#45;&gt;Node7 -->
<g id="edge19" class="edge"><title>Node11&#45;&gt;Node7</title>
<path fill="none" stroke="midnightblue" d="M811.186,-112.466C849.79,-105.696 899.984,-94.2632 941.696,-76 971.301,-63.0374 1001.54,-40.7638 1019.96,-25.9592"/>
<polygon fill="midnightblue" stroke="midnightblue" points="1022.26,-28.5992 1027.78,-19.554 1017.83,-23.1846 1022.26,-28.5992"/>
</g>
<!-- Node11&#45;&gt;Node12 -->
<g id="edge12" class="edge"><title>Node11&#45;&gt;Node12</title>
<path fill="none" stroke="midnightblue" d="M679.292,-112.478C607.282,-103.747 491.867,-89.7132 382.519,-76.2225"/>
<polygon fill="midnightblue" stroke="midnightblue" points="382.651,-72.7123 372.298,-74.9608 381.794,-79.6595 382.651,-72.7123"/>
</g>
<!-- Node13 -->
<g id="node13" class="node"><title>Node13</title>
<polygon fill="none" stroke="#bfbfbf" points="605.196,-56.5 605.196,-75.5 652.196,-75.5 652.196,-56.5 605.196,-56.5"/>
<text text-anchor="middle" x="628.696" y="-63.5" font-family="Helvetica,sans-Serif" font-size="10.00">TList.h</text>
</g>
<!-- Node11&#45;&gt;Node13 -->
<g id="edge13" class="edge"><title>Node11&#45;&gt;Node13</title>
<path fill="none" stroke="midnightblue" d="M730.523,-112.444C710.787,-103.636 679.811,-89.8116 657.202,-79.722"/>
<polygon fill="midnightblue" stroke="midnightblue" points="658.337,-76.3957 647.779,-75.5164 655.484,-82.788 658.337,-76.3957"/>
</g>
<!-- Node14 -->
<g id="node14" class="node"><title>Node14</title>
<polygon fill="none" stroke="#bfbfbf" points="670.196,-56.5 670.196,-75.5 741.196,-75.5 741.196,-56.5 670.196,-56.5"/>
<text text-anchor="middle" x="705.696" y="-63.5" font-family="Helvetica,sans-Serif" font-size="10.00">TMessage.h</text>
</g>
<!-- Node11&#45;&gt;Node14 -->
<g id="edge14" class="edge"><title>Node11&#45;&gt;Node14</title>
<path fill="none" stroke="midnightblue" d="M742.43,-112.083C736.151,-104.377 726.908,-93.0333 719.265,-83.6531"/>
<polygon fill="midnightblue" stroke="midnightblue" points="721.856,-81.2926 712.826,-75.7511 716.43,-85.7143 721.856,-81.2926"/>
</g>
<!-- Node15 -->
<g id="node15" class="node"><title>Node15</title>
<polygon fill="none" stroke="#bfbfbf" points="759.196,-56.5 759.196,-75.5 828.196,-75.5 828.196,-56.5 759.196,-56.5"/>
<text text-anchor="middle" x="793.696" y="-63.5" font-family="Helvetica,sans-Serif" font-size="10.00">TObjArray.h</text>
</g>
<!-- Node11&#45;&gt;Node15 -->
<g id="edge15" class="edge"><title>Node11&#45;&gt;Node15</title>
<path fill="none" stroke="midnightblue" d="M756.962,-112.083C763.241,-104.377 772.483,-93.0333 780.127,-83.6531"/>
<polygon fill="midnightblue" stroke="midnightblue" points="782.962,-85.7143 786.565,-75.7511 777.535,-81.2926 782.962,-85.7143"/>
</g>
<!-- Node16 -->
<g id="node16" class="node"><title>Node16</title>
<polygon fill="none" stroke="#bfbfbf" points="846.196,-56.5 846.196,-75.5 933.196,-75.5 933.196,-56.5 846.196,-56.5"/>
<text text-anchor="middle" x="889.696" y="-63.5" font-family="Helvetica,sans-Serif" font-size="10.00">TStreamerInfo.h</text>
</g>
<!-- Node11&#45;&gt;Node16 -->
<g id="edge16" class="edge"><title>Node11&#45;&gt;Node16</title>
<path fill="none" stroke="midnightblue" d="M771.879,-112.444C795.124,-103.478 831.845,-89.314 858.111,-79.1827"/>
<polygon fill="midnightblue" stroke="midnightblue" points="859.546,-82.3807 867.616,-75.5164 857.027,-75.8497 859.546,-82.3807"/>
</g>
<!-- Node17 -->
<g id="node17" class="node"><title>Node17</title>
<polygon fill="none" stroke="#bfbfbf" points="390.196,-56.5 390.196,-75.5 453.196,-75.5 453.196,-56.5 390.196,-56.5"/>
<text text-anchor="middle" x="421.696" y="-63.5" font-family="Helvetica,sans-Serif" font-size="10.00">gsl/gsl_util</text>
</g>
<!-- Node11&#45;&gt;Node17 -->
<g id="edge17" class="edge"><title>Node11&#45;&gt;Node17</title>
<path fill="none" stroke="midnightblue" d="M687.412,-112.485C631.225,-104.527 546.094,-91.7867 463.58,-76.2693"/>
<polygon fill="midnightblue" stroke="midnightblue" points="464.01,-72.7885 453.533,-74.3633 462.705,-79.6658 464.01,-72.7885"/>
</g>
<!-- Node18 -->
<g id="node18" class="node"><title>Node18</title>
<polygon fill="none" stroke="#bfbfbf" points="471.196,-56.5 471.196,-75.5 524.196,-75.5 524.196,-56.5 471.196,-56.5"/>
<text text-anchor="middle" x="497.696" y="-63.5" font-family="Helvetica,sans-Serif" font-size="10.00">gsl/span</text>
</g>
<!-- Node11&#45;&gt;Node18 -->
<g id="edge18" class="edge"><title>Node11&#45;&gt;Node18</title>
<path fill="none" stroke="midnightblue" d="M706.145,-112.453C664.576,-104.178 599.946,-91.0073 534.488,-76.1095"/>
<polygon fill="midnightblue" stroke="midnightblue" points="534.933,-72.6208 524.404,-73.802 533.371,-79.4444 534.933,-72.6208"/>
</g>
<!-- Node19 -->
<g id="node19" class="node"><title>Node19</title>
<polygon fill="none" stroke="#bfbfbf" points="542.696,-56.5 542.696,-75.5 586.696,-75.5 586.696,-56.5 542.696,-56.5"/>
<text text-anchor="middle" x="564.696" y="-63.5" font-family="Helvetica,sans-Serif" font-size="10.00">mutex</text>
</g>
<!-- Node11&#45;&gt;Node19 -->
<g id="edge20" class="edge"><title>Node11&#45;&gt;Node19</title>
<path fill="none" stroke="midnightblue" d="M720.382,-112.444C686.628,-102.591 631.371,-86.4621 596.572,-76.3044"/>
<polygon fill="midnightblue" stroke="midnightblue" points="597.485,-72.9249 586.905,-73.4826 595.524,-79.6445 597.485,-72.9249"/>
</g>
<!-- Node20&#45;&gt;Node21 -->
<g id="edge22" class="edge"><title>Node20&#45;&gt;Node21</title>
<path fill="none" stroke="midnightblue" d="M222.632,-112.444C204.121,-103.675 175.115,-89.9355 153.84,-79.8579"/>
<polygon fill="midnightblue" stroke="midnightblue" points="155.211,-76.6343 144.675,-75.5164 152.214,-82.9604 155.211,-76.6343"/>
</g>
<!-- Node21&#45;&gt;Node22 -->
<g id="edge23" class="edge"><title>Node21&#45;&gt;Node22</title>
<path fill="none" stroke="midnightblue" d="M188.496,-57.6705C193.301,-57.104 198.077,-56.542 202.696,-56 328.577,-41.2279 477.518,-23.9716 548.32,-15.7821"/>
<polygon fill="midnightblue" stroke="midnightblue" points="549.06,-19.2199 558.592,-14.5942 548.256,-12.2663 549.06,-19.2199"/>
</g>
<!-- Node21&#45;&gt;Node23 -->
<g id="edge24" class="edge"><title>Node21&#45;&gt;Node23</title>
<path fill="none" stroke="midnightblue" d="M113.36,-56.324C100.534,-47.979 80.9108,-35.2122 65.756,-25.3524"/>
<polygon fill="midnightblue" stroke="midnightblue" points="67.289,-22.1742 56.9981,-19.6545 63.4715,-28.0417 67.289,-22.1742"/>
</g>
<!-- Node29 -->
<g id="node29" class="node"><title>Node29</title>
<g id="a_node29"><a xlink:href="../../d5/d3f/InputSpec_8h.html" target="_top" xlink:title="Framework/InputSpec.h">
<polygon fill="none" stroke="black" points="1247.2,-112.5 1247.2,-131.5 1368.2,-131.5 1368.2,-112.5 1247.2,-112.5"/>
<text text-anchor="middle" x="1307.7" y="-119.5" font-family="Helvetica,sans-Serif" font-size="10.00">Framework/InputSpec.h</text>
</a>
</g>
</g>
<!-- Node28&#45;&gt;Node29 -->
<g id="edge32" class="edge"><title>Node28&#45;&gt;Node29</title>
<path fill="none" stroke="midnightblue" d="M1276.81,-168.083C1281.98,-160.534 1289.54,-149.495 1295.89,-140.23"/>
<polygon fill="midnightblue" stroke="midnightblue" points="1298.93,-141.979 1301.7,-131.751 1293.16,-138.022 1298.93,-141.979"/>
</g>
<!-- Node28&#45;&gt;Node30 -->
<g id="edge38" class="edge"><title>Node28&#45;&gt;Node30</title>
<path fill="none" stroke="midnightblue" d="M1292.47,-168.435C1314.09,-159.777 1348.03,-145.747 1376.7,-132 1411.05,-115.522 1449.66,-94.2906 1473.83,-80.6595"/>
<polygon fill="midnightblue" stroke="midnightblue" points="1475.67,-83.6379 1482.65,-75.6619 1472.22,-77.5481 1475.67,-83.6379"/>
</g>
<!-- Node33 -->
<g id="node33" class="node"><title>Node33</title>
<polygon fill="none" stroke="#bfbfbf" points="1180.2,-112.5 1180.2,-131.5 1229.2,-131.5 1229.2,-112.5 1180.2,-112.5"/>
<text text-anchor="middle" x="1204.7" y="-119.5" font-family="Helvetica,sans-Serif" font-size="10.00">cstddef</text>
</g>
<!-- Node28&#45;&gt;Node33 -->
<g id="edge37" class="edge"><title>Node28&#45;&gt;Node33</title>
<path fill="none" stroke="midnightblue" d="M1260.09,-168.324C1250.24,-160.263 1235.34,-148.077 1223.48,-138.369"/>
<polygon fill="midnightblue" stroke="midnightblue" points="1225.45,-135.457 1215.49,-131.834 1221.02,-140.875 1225.45,-135.457"/>
</g>
<!-- Node29&#45;&gt;Node5 -->
<g id="edge36" class="edge"><title>Node29&#45;&gt;Node5</title>
<path fill="none" stroke="midnightblue" d="M1290.5,-112.324C1273.34,-103.664 1246.75,-90.2424 1226.95,-80.249"/>
<polygon fill="midnightblue" stroke="midnightblue" points="1228.35,-77.0354 1217.84,-75.6545 1225.2,-83.2847 1228.35,-77.0354"/>
</g>
<!-- Node29&#45;&gt;Node30 -->
<g id="edge33" class="edge"><title>Node29&#45;&gt;Node30</title>
<path fill="none" stroke="midnightblue" d="M1338.71,-112.448C1369.03,-104.051 1416.72,-90.7407 1467.25,-76.092"/>
<polygon fill="midnightblue" stroke="midnightblue" points="1468.43,-79.3955 1477.05,-73.244 1466.47,-72.6736 1468.43,-79.3955"/>
</g>
<!-- Node31 -->
<g id="node31" class="node"><title>Node31</title>
<polygon fill="none" stroke="#bfbfbf" points="1277.7,-56.5 1277.7,-75.5 1329.7,-75.5 1329.7,-56.5 1277.7,-56.5"/>
<text text-anchor="middle" x="1303.7" y="-63.5" font-family="Helvetica,sans-Serif" font-size="10.00">ostream</text>
</g>
<!-- Node29&#45;&gt;Node31 -->
<g id="edge34" class="edge"><title>Node29&#45;&gt;Node31</title>
<path fill="none" stroke="midnightblue" d="M1307.04,-112.083C1306.51,-105.006 1305.76,-94.8611 1305.1,-85.9865"/>
<polygon fill="midnightblue" stroke="midnightblue" points="1308.57,-85.4652 1304.34,-75.7511 1301.59,-85.9823 1308.57,-85.4652"/>
</g>
<!-- Node32 -->
<g id="node32" class="node"><title>Node32</title>
<g id="a_node32"><a xlink:href="../../dc/dca/Lifetime_8h.html" target="_top" xlink:title="Framework/Lifetime.h">
<polygon fill="none" stroke="black" points="1348.2,-56.5 1348.2,-75.5 1459.2,-75.5 1459.2,-56.5 1348.2,-56.5"/>
<text text-anchor="middle" x="1403.7" y="-63.5" font-family="Helvetica,sans-Serif" font-size="10.00">Framework/Lifetime.h</text>
</a>
</g>
</g>
<!-- Node29&#45;&gt;Node32 -->
<g id="edge35" class="edge"><title>Node29&#45;&gt;Node32</title>
<path fill="none" stroke="midnightblue" d="M1323.12,-112.324C1338.24,-103.822 1361.51,-90.7288 1379.17,-80.7975"/>
<polygon fill="midnightblue" stroke="midnightblue" points="1381.31,-83.6077 1388.31,-75.6545 1377.88,-77.5066 1381.31,-83.6077"/>
</g>
<!-- Node36&#45;&gt;Node22 -->
<g id="edge55" class="edge"><title>Node36&#45;&gt;Node22</title>
<path fill="none" stroke="midnightblue" d="M1463.66,-231.323C1393.95,-227.866 1286.78,-217.661 1198.7,-188 1170.59,-178.535 994.867,-65.2744 966.696,-56 849.376,-17.376 701.821,-11.185 631.147,-10.6411"/>
<polygon fill="midnightblue" stroke="midnightblue" points="630.9,-7.14009 620.885,-10.5983 630.871,-14.14 630.9,-7.14009"/>
</g>
<!-- Node36&#45;&gt;Node30 -->
<g id="edge54" class="edge"><title>Node36&#45;&gt;Node30</title>
<path fill="none" stroke="midnightblue" d="M1534.6,-224.075C1528.46,-197.945 1510.43,-121.211 1502.06,-85.577"/>
<polygon fill="midnightblue" stroke="midnightblue" points="1505.4,-84.5025 1499.71,-75.5681 1498.59,-86.1036 1505.4,-84.5025"/>
</g>
<!-- Node36&#45;&gt;Node35 -->
<g id="edge52" class="edge"><title>Node36&#45;&gt;Node35</title>
<path fill="none" stroke="midnightblue" d="M1524,-224.324C1511.79,-215.979 1493.12,-203.212 1478.69,-193.352"/>
<polygon fill="midnightblue" stroke="midnightblue" points="1480.59,-190.408 1470.36,-187.655 1476.64,-196.187 1480.59,-190.408"/>
</g>
<!-- Node37 -->
<g id="node37" class="node"><title>Node37</title>
<polygon fill="none" stroke="#bfbfbf" points="1544.2,-168.5 1544.2,-187.5 1603.2,-187.5 1603.2,-168.5 1544.2,-168.5"/>
<text text-anchor="middle" x="1573.7" y="-175.5" font-family="Helvetica,sans-Serif" font-size="10.00">functional</text>
</g>
<!-- Node36&#45;&gt;Node37 -->
<g id="edge53" class="edge"><title>Node36&#45;&gt;Node37</title>
<path fill="none" stroke="midnightblue" d="M1542.81,-224.083C1547.98,-216.534 1555.54,-205.495 1561.89,-196.23"/>
<polygon fill="midnightblue" stroke="midnightblue" points="1564.93,-197.979 1567.7,-187.751 1559.16,-194.022 1564.93,-197.979"/>
</g>
<!-- Node38 -->
<g id="node38" class="node"><title>Node38</title>
<polygon fill="none" stroke="#bfbfbf" points="1621.2,-168.5 1621.2,-187.5 1672.2,-187.5 1672.2,-168.5 1621.2,-168.5"/>
<text text-anchor="middle" x="1646.7" y="-175.5" font-family="Helvetica,sans-Serif" font-size="10.00">typeinfo</text>
</g>
<!-- Node36&#45;&gt;Node38 -->
<g id="edge56" class="edge"><title>Node36&#45;&gt;Node38</title>
<path fill="none" stroke="midnightblue" d="M1554.37,-224.324C1572.09,-215.625 1599.6,-202.12 1619.98,-192.113"/>
<polygon fill="midnightblue" stroke="midnightblue" points="1621.63,-195.203 1629.07,-187.655 1618.55,-188.919 1621.63,-195.203"/>
</g>
<!-- Node39 -->
<g id="node39" class="node"><title>Node39</title>
<polygon fill="none" stroke="#bfbfbf" points="1690.2,-168.5 1690.2,-187.5 1773.2,-187.5 1773.2,-168.5 1690.2,-168.5"/>
<text text-anchor="middle" x="1731.7" y="-175.5" font-family="Helvetica,sans-Serif" font-size="10.00">unordered_map</text>
</g>
<!-- Node36&#45;&gt;Node39 -->
<g id="edge57" class="edge"><title>Node36&#45;&gt;Node39</title>
<path fill="none" stroke="midnightblue" d="M1567.59,-224.444C1600.97,-215.201 1654.29,-200.436 1691.04,-190.257"/>
<polygon fill="midnightblue" stroke="midnightblue" points="1692.24,-193.558 1700.94,-187.516 1690.37,-186.812 1692.24,-193.558"/>
</g>
</g>
</svg>
