<?xml version="1.0" encoding="UTF-8" standalone="no"?>
<!DOCTYPE svg PUBLIC "-//W3C//DTD SVG 1.1//EN"
 "http://www.w3.org/Graphics/SVG/1.1/DTD/svg11.dtd">
<!-- Generated by graphviz version 2.36.0 (20140111.2315)
 -->
<!-- Title: o2::DataFlow::HeartbeatSampler Pages: 1 -->
<svg width="334pt" height="378pt"
 viewBox="0.00 0.00 334.00 378.00" xmlns="http://www.w3.org/2000/svg" xmlns:xlink="http://www.w3.org/1999/xlink">
<g id="graph0" class="graph" transform="scale(1 1) rotate(0) translate(4 374)">
<title>o2::DataFlow::HeartbeatSampler</title>
<!-- Node1 -->
<g id="node1" class="node"><title>Node1</title>
<polygon fill="#bfbfbf" stroke="black" points="88,-1 88,-91 248,-91 248,-1 88,-1"/>
<text text-anchor="middle" x="168" y="-79" font-family="Helvetica,sans-Serif" font-size="10.00">o2::DataFlow::HeartbeatSampler</text>
<polyline fill="none" stroke="black" points="88,-72 248,-72 "/>
<text text-anchor="middle" x="168" y="-60" font-family="Helvetica,sans-Serif" font-size="10.00"> </text>
<polyline fill="none" stroke="black" points="88,-53 248,-53 "/>
<text text-anchor="start" x="96" y="-41" font-family="Helvetica,sans-Serif" font-size="10.00">+ HeartbeatSampler()</text>
<text text-anchor="start" x="96" y="-30" font-family="Helvetica,sans-Serif" font-size="10.00">+ ~HeartbeatSampler()</text>
<text text-anchor="start" x="96" y="-19" font-family="Helvetica,sans-Serif" font-size="10.00"># InitTask()</text>
<text text-anchor="start" x="96" y="-8" font-family="Helvetica,sans-Serif" font-size="10.00"># ConditionalRun()</text>
</g>
<!-- Node2 -->
<g id="node2" class="node"><title>Node2</title>
<g id="a_node2"><a xlink:href="../../da/df6/classo2_1_1Base_1_1O2Device.html" target="_top" xlink:title="{o2::Base::O2Device\n||+ ~O2Device()\l+ GetMonitoring()\l+ Init()\l+ AddMessage()\l+ ForEach()\l}">
<polygon fill="none" stroke="black" points="49.5,-150.5 49.5,-251.5 154.5,-251.5 154.5,-150.5 49.5,-150.5"/>
<text text-anchor="middle" x="102" y="-239.5" font-family="Helvetica,sans-Serif" font-size="10.00">o2::Base::O2Device</text>
<polyline fill="none" stroke="black" points="49.5,-232.5 154.5,-232.5 "/>
<text text-anchor="middle" x="102" y="-220.5" font-family="Helvetica,sans-Serif" font-size="10.00"> </text>
<polyline fill="none" stroke="black" points="49.5,-213.5 154.5,-213.5 "/>
<text text-anchor="start" x="57.5" y="-201.5" font-family="Helvetica,sans-Serif" font-size="10.00">+ ~O2Device()</text>
<text text-anchor="start" x="57.5" y="-190.5" font-family="Helvetica,sans-Serif" font-size="10.00">+ GetMonitoring()</text>
<text text-anchor="start" x="57.5" y="-179.5" font-family="Helvetica,sans-Serif" font-size="10.00">+ Init()</text>
<text text-anchor="start" x="57.5" y="-168.5" font-family="Helvetica,sans-Serif" font-size="10.00">+ AddMessage()</text>
<text text-anchor="start" x="57.5" y="-157.5" font-family="Helvetica,sans-Serif" font-size="10.00">+ ForEach()</text>
</a>
</g>
</g>
<!-- Node2&#45;&gt;Node1 -->
<g id="edge1" class="edge"><title>Node2&#45;&gt;Node1</title>
<path fill="none" stroke="midnightblue" d="M127.564,-140.739C134.702,-124.191 142.33,-106.509 149.015,-91.011"/>
<polygon fill="none" stroke="midnightblue" points="124.176,-139.757 123.428,-150.325 130.603,-142.53 124.176,-139.757"/>
</g>
<!-- Node3 -->
<g id="node3" class="node"><title>Node3</title>
<g id="a_node3"><a xlink:href="../../db/dfe/classFairMQDevice.html" target="_top" xlink:title="{FairMQDevice\n||}">
<polygon fill="none" stroke="black" points="0,-306.5 0,-363.5 80,-363.5 80,-306.5 0,-306.5"/>
<text text-anchor="middle" x="40" y="-351.5" font-family="Helvetica,sans-Serif" font-size="10.00">FairMQDevice</text>
<polyline fill="none" stroke="black" points="0,-344.5 80,-344.5 "/>
<text text-anchor="middle" x="40" y="-332.5" font-family="Helvetica,sans-Serif" font-size="10.00"> </text>
<polyline fill="none" stroke="black" points="0,-325.5 80,-325.5 "/>
<text text-anchor="middle" x="40" y="-313.5" font-family="Helvetica,sans-Serif" font-size="10.00"> </text>
</a>
</g>
</g>
<!-- Node3&#45;&gt;Node2 -->
<g id="edge2" class="edge"><title>Node3&#45;&gt;Node2</title>
<path fill="none" stroke="midnightblue" d="M57.3962,-296.963C64.0172,-282.867 71.6709,-266.572 78.7488,-251.503"/>
<polygon fill="none" stroke="midnightblue" points="54.0807,-295.789 52.9972,-306.328 60.4166,-298.765 54.0807,-295.789"/>
</g>
<!-- Node4 -->
<g id="node4" class="node"><title>Node4</title>
<polygon fill="none" stroke="#bfbfbf" points="98,-301 98,-369 230,-369 230,-301 98,-301"/>
<text text-anchor="start" x="106" y="-357" font-family="Helvetica,sans-Serif" font-size="10.00">unique_ptr&lt; o2::monitoring</text>
<text text-anchor="middle" x="164" y="-346" font-family="Helvetica,sans-Serif" font-size="10.00">::Monitoring &gt;</text>
<polyline fill="none" stroke="#bfbfbf" points="98,-339 230,-339 "/>
<text text-anchor="middle" x="164" y="-327" font-family="Helvetica,sans-Serif" font-size="10.00"> </text>
<polyline fill="none" stroke="#bfbfbf" points="98,-320 230,-320 "/>
<text text-anchor="middle" x="164" y="-308" font-family="Helvetica,sans-Serif" font-size="10.00"> </text>
</g>
<!-- Node4&#45;&gt;Node2 -->
<g id="edge3" class="edge"><title>Node4&#45;&gt;Node2</title>
<path fill="none" stroke="#404040" d="M148.355,-300.691C142.89,-289.056 136.573,-275.607 130.395,-262.454"/>
<polygon fill="none" stroke="#404040" points="130.362,-262.383 124.19,-258.653 125.26,-251.522 131.432,-255.252 130.362,-262.383"/>
<text text-anchor="middle" x="166.5" y="-273.5" font-family="Helvetica,sans-Serif" font-size="10.00"> +monitoring</text>
</g>
<!-- Node5 -->
<g id="node5" class="node"><title>Node5</title>
<polygon fill="none" stroke="#bfbfbf" points="172.5,-172.5 172.5,-229.5 207.5,-229.5 207.5,-172.5 172.5,-172.5"/>
<text text-anchor="middle" x="190" y="-217.5" font-family="Helvetica,sans-Serif" font-size="10.00">char</text>
<polyline fill="none" stroke="#bfbfbf" points="172.5,-210.5 207.5,-210.5 "/>
<text text-anchor="middle" x="190" y="-198.5" font-family="Helvetica,sans-Serif" font-size="10.00"> </text>
<polyline fill="none" stroke="#bfbfbf" points="172.5,-191.5 207.5,-191.5 "/>
<text text-anchor="middle" x="190" y="-179.5" font-family="Helvetica,sans-Serif" font-size="10.00"> </text>
</g>
<!-- Node5&#45;&gt;Node1 -->
<g id="edge4" class="edge"><title>Node5&#45;&gt;Node1</title>
<path fill="none" stroke="#404040" d="M186.016,-172.293C183.243,-153.007 179.449,-126.619 176.057,-103.034"/>
<polygon fill="none" stroke="#404040" points="176.036,-102.886 171.223,-97.5161 174.328,-91.0078 179.141,-96.3774 176.036,-102.886"/>
<text text-anchor="middle" x="252.5" y="-124" font-family="Helvetica,sans-Serif" font-size="10.00"> +OptionKeyOutputChannelName</text>
<text text-anchor="middle" x="252.5" y="-113" font-family="Helvetica,sans-Serif" font-size="10.00">+OptionKeyPeriod</text>
</g>
</g>
</svg>
