<?xml version="1.0" encoding="UTF-8" standalone="no"?>
<!DOCTYPE svg PUBLIC "-//W3C//DTD SVG 1.1//EN"
 "http://www.w3.org/Graphics/SVG/1.1/DTD/svg11.dtd">
<!-- Generated by graphviz version 2.36.0 (20140111.2315)
 -->
<!-- Title: o2::header::NameHeader&lt; N &gt; Pages: 1 -->
<svg width="897pt" height="976pt"
 viewBox="0.00 0.00 897.22 976.00" xmlns="http://www.w3.org/2000/svg" xmlns:xlink="http://www.w3.org/1999/xlink">
<g id="graph0" class="graph" transform="scale(1 1) rotate(0) translate(4 972)">
<title>o2::header::NameHeader&lt; N &gt;</title>
<!-- Node1 -->
<g id="node1" class="node"><title>Node1</title>
<polygon fill="#bfbfbf" stroke="black" points="495.218,-1 495.218,-113 647.218,-113 647.218,-1 495.218,-1"/>
<text text-anchor="middle" x="571.218" y="-101" font-family="Helvetica,sans-Serif" font-size="10.00">o2::header::NameHeader&lt; N &gt;</text>
<polyline fill="none" stroke="black" points="495.218,-94 647.218,-94 "/>
<text text-anchor="middle" x="571.218" y="-82" font-family="Helvetica,sans-Serif" font-size="10.00"> </text>
<polyline fill="none" stroke="black" points="495.218,-75 647.218,-75 "/>
<text text-anchor="start" x="503.218" y="-63" font-family="Helvetica,sans-Serif" font-size="10.00">+ NameHeader()</text>
<text text-anchor="start" x="503.218" y="-52" font-family="Helvetica,sans-Serif" font-size="10.00">+ NameHeader()</text>
<text text-anchor="start" x="503.218" y="-41" font-family="Helvetica,sans-Serif" font-size="10.00">+ getName()</text>
<text text-anchor="start" x="503.218" y="-30" font-family="Helvetica,sans-Serif" font-size="10.00">+ getNameLength()</text>
<text text-anchor="start" x="503.218" y="-19" font-family="Helvetica,sans-Serif" font-size="10.00">+ sHeaderType()</text>
<text text-anchor="start" x="503.218" y="-8" font-family="Helvetica,sans-Serif" font-size="10.00">+ sHeaderType()</text>
</g>
<!-- Node2 -->
<g id="node2" class="node"><title>Node2</title>
<g id="a_node2"><a xlink:href="../../d8/dbd/structo2_1_1header_1_1BaseHeader.html" target="_top" xlink:title="the base header struct Every header type must begin (i.e. derive) with this. Don&#39;t use this struct di...">
<polygon fill="none" stroke="black" points="510.218,-152.5 510.218,-275.5 632.218,-275.5 632.218,-152.5 510.218,-152.5"/>
<text text-anchor="middle" x="571.218" y="-263.5" font-family="Helvetica,sans-Serif" font-size="10.00">o2::header::BaseHeader</text>
<polyline fill="none" stroke="black" points="510.218,-256.5 632.218,-256.5 "/>
<text text-anchor="middle" x="571.218" y="-244.5" font-family="Helvetica,sans-Serif" font-size="10.00"> </text>
<polyline fill="none" stroke="black" points="510.218,-237.5 632.218,-237.5 "/>
<text text-anchor="start" x="518.218" y="-225.5" font-family="Helvetica,sans-Serif" font-size="10.00">+ BaseHeader()</text>
<text text-anchor="start" x="518.218" y="-214.5" font-family="Helvetica,sans-Serif" font-size="10.00">+ BaseHeader()</text>
<text text-anchor="start" x="518.218" y="-203.5" font-family="Helvetica,sans-Serif" font-size="10.00">+ BaseHeader()</text>
<text text-anchor="start" x="518.218" y="-192.5" font-family="Helvetica,sans-Serif" font-size="10.00">+ size()</text>
<text text-anchor="start" x="518.218" y="-181.5" font-family="Helvetica,sans-Serif" font-size="10.00">+ data()</text>
<text text-anchor="start" x="518.218" y="-170.5" font-family="Helvetica,sans-Serif" font-size="10.00">+ next()</text>
<text text-anchor="start" x="518.218" y="-159.5" font-family="Helvetica,sans-Serif" font-size="10.00">+ get()</text>
</a>
</g>
</g>
<!-- Node2&#45;&gt;Node1 -->
<g id="edge1" class="edge"><title>Node2&#45;&gt;Node1</title>
<path fill="none" stroke="midnightblue" d="M571.218,-142.111C571.218,-132.371 571.218,-122.49 571.218,-113.09"/>
<polygon fill="none" stroke="midnightblue" points="567.718,-142.185 571.218,-152.185 574.718,-142.185 567.718,-142.185"/>
</g>
<!-- Node3 -->
<g id="node3" class="node"><title>Node3</title>
<g id="a_node3"><a xlink:href="../../d9/db3/structo2_1_1header_1_1Descriptor.html" target="_top" xlink:title="{o2::header::Descriptor\l\&lt; gSizeHeaderDescriptionString \&gt;\n||+ Descriptor()\l+ Descriptor()\l+ Descriptor()\l+ Descriptor()\l+ operator=()\l+ operator ItgType()\l+ runtimeInit()\l+ operator==()\l+ operator==()\l+ operator!=()\l+ operator!=()\l+ print()\l}">
<polygon fill="none" stroke="black" points="488.218,-400.5 488.218,-589.5 654.218,-589.5 654.218,-400.5 488.218,-400.5"/>
<text text-anchor="start" x="496.218" y="-577.5" font-family="Helvetica,sans-Serif" font-size="10.00">o2::header::Descriptor</text>
<text text-anchor="middle" x="571.218" y="-566.5" font-family="Helvetica,sans-Serif" font-size="10.00">&lt; gSizeHeaderDescriptionString &gt;</text>
<polyline fill="none" stroke="black" points="488.218,-559.5 654.218,-559.5 "/>
<text text-anchor="middle" x="571.218" y="-547.5" font-family="Helvetica,sans-Serif" font-size="10.00"> </text>
<polyline fill="none" stroke="black" points="488.218,-540.5 654.218,-540.5 "/>
<text text-anchor="start" x="496.218" y="-528.5" font-family="Helvetica,sans-Serif" font-size="10.00">+ Descriptor()</text>
<text text-anchor="start" x="496.218" y="-517.5" font-family="Helvetica,sans-Serif" font-size="10.00">+ Descriptor()</text>
<text text-anchor="start" x="496.218" y="-506.5" font-family="Helvetica,sans-Serif" font-size="10.00">+ Descriptor()</text>
<text text-anchor="start" x="496.218" y="-495.5" font-family="Helvetica,sans-Serif" font-size="10.00">+ Descriptor()</text>
<text text-anchor="start" x="496.218" y="-484.5" font-family="Helvetica,sans-Serif" font-size="10.00">+ operator=()</text>
<text text-anchor="start" x="496.218" y="-473.5" font-family="Helvetica,sans-Serif" font-size="10.00">+ operator ItgType()</text>
<text text-anchor="start" x="496.218" y="-462.5" font-family="Helvetica,sans-Serif" font-size="10.00">+ runtimeInit()</text>
<text text-anchor="start" x="496.218" y="-451.5" font-family="Helvetica,sans-Serif" font-size="10.00">+ operator==()</text>
<text text-anchor="start" x="496.218" y="-440.5" font-family="Helvetica,sans-Serif" font-size="10.00">+ operator==()</text>
<text text-anchor="start" x="496.218" y="-429.5" font-family="Helvetica,sans-Serif" font-size="10.00">+ operator!=()</text>
<text text-anchor="start" x="496.218" y="-418.5" font-family="Helvetica,sans-Serif" font-size="10.00">+ operator!=()</text>
<text text-anchor="start" x="496.218" y="-407.5" font-family="Helvetica,sans-Serif" font-size="10.00">+ print()</text>
</a>
</g>
</g>
<!-- Node3&#45;&gt;Node2 -->
<g id="edge2" class="edge"><title>Node3&#45;&gt;Node2</title>
<path fill="none" stroke="#404040" d="M571.218,-400.321C571.218,-363.663 571.218,-322.257 571.218,-287.895"/>
<polygon fill="none" stroke="#404040" points="571.218,-287.576 567.218,-281.576 571.218,-275.576 575.218,-281.576 571.218,-287.576"/>
<text text-anchor="middle" x="599.718" y="-335.5" font-family="Helvetica,sans-Serif" font-size="10.00"> +description</text>
</g>
<!-- Node4 -->
<g id="node4" class="node"><title>Node4</title>
<polygon fill="none" stroke="#bfbfbf" points="223.218,-909.5 223.218,-966.5 261.218,-966.5 261.218,-909.5 223.218,-909.5"/>
<text text-anchor="middle" x="242.218" y="-954.5" font-family="Helvetica,sans-Serif" font-size="10.00">Type</text>
<polyline fill="none" stroke="#bfbfbf" points="223.218,-947.5 261.218,-947.5 "/>
<text text-anchor="middle" x="242.218" y="-935.5" font-family="Helvetica,sans-Serif" font-size="10.00"> </text>
<polyline fill="none" stroke="#bfbfbf" points="223.218,-928.5 261.218,-928.5 "/>
<text text-anchor="middle" x="242.218" y="-916.5" font-family="Helvetica,sans-Serif" font-size="10.00"> </text>
</g>
<!-- Node4&#45;&gt;Node3 -->
<g id="edge3" class="edge"><title>Node4&#45;&gt;Node3</title>
<path fill="none" stroke="#404040" d="M261.553,-929.503C278.624,-923.102 304.291,-914.004 327.218,-908 369.634,-896.892 394.224,-921.984 424.218,-890 498.317,-810.983 381.583,-729.258 453.218,-648 475.03,-623.257 500.916,-652.303 525.218,-630 534.188,-621.767 541.409,-611.709 547.222,-600.838"/>
<polygon fill="none" stroke="#404040" points="547.365,-600.542 546.369,-593.4 552.578,-589.733 553.574,-596.875 547.365,-600.542"/>
<text text-anchor="middle" x="463.218" y="-740.5" font-family="Helvetica,sans-Serif" font-size="10.00"> +itg</text>
</g>
<!-- Node8 -->
<g id="node8" class="node"><title>Node8</title>
<g id="a_node8"><a xlink:href="../../d9/db3/structo2_1_1header_1_1Descriptor.html" target="_top" xlink:title="{o2::header::Descriptor\l\&lt; N, PrinterPolicy \&gt;\n||+ Descriptor()\l+ Descriptor()\l+ Descriptor()\l+ operator=()\l+ operator ItgType()\l+ Descriptor()\l+ runtimeInit()\l+ operator==()\l+ operator!=()\l+ operator==()\l+ operator!=()\l+ print()\l}">
<polygon fill="none" stroke="black" points="201.718,-648.5 201.718,-837.5 314.718,-837.5 314.718,-648.5 201.718,-648.5"/>
<text text-anchor="start" x="209.718" y="-825.5" font-family="Helvetica,sans-Serif" font-size="10.00">o2::header::Descriptor</text>
<text text-anchor="middle" x="258.218" y="-814.5" font-family="Helvetica,sans-Serif" font-size="10.00">&lt; N, PrinterPolicy &gt;</text>
<polyline fill="none" stroke="black" points="201.718,-807.5 314.718,-807.5 "/>
<text text-anchor="middle" x="258.218" y="-795.5" font-family="Helvetica,sans-Serif" font-size="10.00"> </text>
<polyline fill="none" stroke="black" points="201.718,-788.5 314.718,-788.5 "/>
<text text-anchor="start" x="209.718" y="-776.5" font-family="Helvetica,sans-Serif" font-size="10.00">+ Descriptor()</text>
<text text-anchor="start" x="209.718" y="-765.5" font-family="Helvetica,sans-Serif" font-size="10.00">+ Descriptor()</text>
<text text-anchor="start" x="209.718" y="-754.5" font-family="Helvetica,sans-Serif" font-size="10.00">+ Descriptor()</text>
<text text-anchor="start" x="209.718" y="-743.5" font-family="Helvetica,sans-Serif" font-size="10.00">+ operator=()</text>
<text text-anchor="start" x="209.718" y="-732.5" font-family="Helvetica,sans-Serif" font-size="10.00">+ operator ItgType()</text>
<text text-anchor="start" x="209.718" y="-721.5" font-family="Helvetica,sans-Serif" font-size="10.00">+ Descriptor()</text>
<text text-anchor="start" x="209.718" y="-710.5" font-family="Helvetica,sans-Serif" font-size="10.00">+ runtimeInit()</text>
<text text-anchor="start" x="209.718" y="-699.5" font-family="Helvetica,sans-Serif" font-size="10.00">+ operator==()</text>
<text text-anchor="start" x="209.718" y="-688.5" font-family="Helvetica,sans-Serif" font-size="10.00">+ operator!=()</text>
<text text-anchor="start" x="209.718" y="-677.5" font-family="Helvetica,sans-Serif" font-size="10.00">+ operator==()</text>
<text text-anchor="start" x="209.718" y="-666.5" font-family="Helvetica,sans-Serif" font-size="10.00">+ operator!=()</text>
<text text-anchor="start" x="209.718" y="-655.5" font-family="Helvetica,sans-Serif" font-size="10.00">+ print()</text>
</a>
</g>
</g>
<!-- Node4&#45;&gt;Node8 -->
<g id="edge8" class="edge"><title>Node4&#45;&gt;Node8</title>
<path fill="none" stroke="#404040" d="M241.733,-909.223C241.668,-893.572 241.93,-873.673 243.218,-856 243.367,-853.949 243.53,-851.877 243.704,-849.791"/>
<polygon fill="none" stroke="#404040" points="243.715,-849.667 240.283,-843.325 244.818,-837.718 248.25,-844.061 243.715,-849.667"/>
<text text-anchor="middle" x="253.218" y="-870.5" font-family="Helvetica,sans-Serif" font-size="10.00"> +itg</text>
</g>
<!-- Node10 -->
<g id="node10" class="node"><title>Node10</title>
<g id="a_node10"><a xlink:href="../../d9/db3/structo2_1_1header_1_1Descriptor.html" target="_top" xlink:title="{o2::header::Descriptor\l\&lt; gSizeSerializationMethodString \&gt;\n||+ Descriptor()\l+ Descriptor()\l+ Descriptor()\l+ Descriptor()\l+ operator=()\l+ operator ItgType()\l+ runtimeInit()\l+ operator==()\l+ operator==()\l+ operator!=()\l+ operator!=()\l+ print()\l}">
<polygon fill="none" stroke="black" points="167.218,-400.5 167.218,-589.5 337.218,-589.5 337.218,-400.5 167.218,-400.5"/>
<text text-anchor="start" x="175.218" y="-577.5" font-family="Helvetica,sans-Serif" font-size="10.00">o2::header::Descriptor</text>
<text text-anchor="middle" x="252.218" y="-566.5" font-family="Helvetica,sans-Serif" font-size="10.00">&lt; gSizeSerializationMethodString &gt;</text>
<polyline fill="none" stroke="black" points="167.218,-559.5 337.218,-559.5 "/>
<text text-anchor="middle" x="252.218" y="-547.5" font-family="Helvetica,sans-Serif" font-size="10.00"> </text>
<polyline fill="none" stroke="black" points="167.218,-540.5 337.218,-540.5 "/>
<text text-anchor="start" x="175.218" y="-528.5" font-family="Helvetica,sans-Serif" font-size="10.00">+ Descriptor()</text>
<text text-anchor="start" x="175.218" y="-517.5" font-family="Helvetica,sans-Serif" font-size="10.00">+ Descriptor()</text>
<text text-anchor="start" x="175.218" y="-506.5" font-family="Helvetica,sans-Serif" font-size="10.00">+ Descriptor()</text>
<text text-anchor="start" x="175.218" y="-495.5" font-family="Helvetica,sans-Serif" font-size="10.00">+ Descriptor()</text>
<text text-anchor="start" x="175.218" y="-484.5" font-family="Helvetica,sans-Serif" font-size="10.00">+ operator=()</text>
<text text-anchor="start" x="175.218" y="-473.5" font-family="Helvetica,sans-Serif" font-size="10.00">+ operator ItgType()</text>
<text text-anchor="start" x="175.218" y="-462.5" font-family="Helvetica,sans-Serif" font-size="10.00">+ runtimeInit()</text>
<text text-anchor="start" x="175.218" y="-451.5" font-family="Helvetica,sans-Serif" font-size="10.00">+ operator==()</text>
<text text-anchor="start" x="175.218" y="-440.5" font-family="Helvetica,sans-Serif" font-size="10.00">+ operator==()</text>
<text text-anchor="start" x="175.218" y="-429.5" font-family="Helvetica,sans-Serif" font-size="10.00">+ operator!=()</text>
<text text-anchor="start" x="175.218" y="-418.5" font-family="Helvetica,sans-Serif" font-size="10.00">+ operator!=()</text>
<text text-anchor="start" x="175.218" y="-407.5" font-family="Helvetica,sans-Serif" font-size="10.00">+ print()</text>
</a>
</g>
</g>
<!-- Node4&#45;&gt;Node10 -->
<g id="edge17" class="edge"><title>Node4&#45;&gt;Node10</title>
<path fill="none" stroke="#404040" d="M223.05,-928.667C207.86,-920.972 187.533,-908.004 177.218,-890 153.558,-848.707 139.81,-779.155 172.218,-648 176.132,-632.159 182.028,-616.145 188.879,-600.757"/>
<polygon fill="none" stroke="#404040" points="188.971,-600.558 187.869,-593.432 194.023,-589.673 195.125,-596.8 188.971,-600.558"/>
<text text-anchor="middle" x="182.218" y="-740.5" font-family="Helvetica,sans-Serif" font-size="10.00"> +itg</text>
</g>
<!-- Node5 -->
<g id="node5" class="node"><title>Node5</title>
<polygon fill="none" stroke="#bfbfbf" points="627.718,-909 627.718,-967 656.718,-967 656.718,-909 627.718,-909"/>
<polyline fill="none" stroke="#bfbfbf" points="627.718,-947 656.718,-947 "/>
<text text-anchor="middle" x="642.218" y="-935" font-family="Helvetica,sans-Serif" font-size="10.00"> </text>
<polyline fill="none" stroke="#bfbfbf" points="627.718,-928 656.718,-928 "/>
<text text-anchor="middle" x="642.218" y="-916" font-family="Helvetica,sans-Serif" font-size="10.00"> </text>
</g>
<!-- Node5&#45;&gt;Node2 -->
<g id="edge12" class="edge"><title>Node5&#45;&gt;Node2</title>
<path fill="none" stroke="#404040" d="M650.617,-908.71C655.994,-889.072 662.462,-862.194 665.218,-838 669.261,-802.495 665.148,-413.102 663.218,-400 656.063,-351.44 654.492,-337.739 632.218,-294 630.842,-291.298 629.369,-288.596 627.818,-285.907"/>
<polygon fill="none" stroke="#404040" points="627.782,-285.848 621.232,-282.832 621.498,-275.625 628.048,-278.642 627.782,-285.848"/>
<text text-anchor="middle" x="682.718" y="-616.5" font-family="Helvetica,sans-Serif" font-size="10.00"> +@11</text>
</g>
<!-- Node5&#45;&gt;Node2 -->
<g id="edge14" class="edge"><title>Node5&#45;&gt;Node2</title>
<path fill="none" stroke="#404040" d="M656.963,-918.848C662.963,-910.53 669.377,-900.252 673.218,-890 681.399,-868.163 677.436,-861.153 680.218,-838 692.469,-736.045 707.869,-710.533 702.218,-608 697.099,-515.133 692.12,-492.109 679.218,-400 672.589,-352.676 684.516,-335.721 661.218,-294 655.858,-284.402 648.873,-275.399 641.162,-267.154"/>
<polygon fill="none" stroke="#404040" points="641.023,-267.014 633.955,-265.587 632.554,-258.513 639.622,-259.94 641.023,-267.014"/>
<text text-anchor="middle" x="718.718" y="-616.5" font-family="Helvetica,sans-Serif" font-size="10.00"> +@13</text>
</g>
<!-- Node5&#45;&gt;Node3 -->
<g id="edge4" class="edge"><title>Node5&#45;&gt;Node3</title>
<path fill="none" stroke="#404040" d="M640.93,-908.923C637.86,-851.671 628.39,-717.594 603.218,-608 602.722,-605.84 602.209,-603.659 601.683,-601.464"/>
<polygon fill="none" stroke="#404040" points="601.634,-601.265 596.309,-596.402 598.749,-589.617 604.074,-594.479 601.634,-601.265"/>
<text text-anchor="middle" x="648.718" y="-740.5" font-family="Helvetica,sans-Serif" font-size="10.00"> +@9</text>
</g>
<!-- Node5&#45;&gt;Node8 -->
<g id="edge9" class="edge"><title>Node5&#45;&gt;Node8</title>
<path fill="none" stroke="#404040" d="M627.419,-935.526C579.915,-930.172 428.596,-908.217 329.218,-838 327.495,-836.783 325.796,-835.511 324.122,-834.192"/>
<polygon fill="none" stroke="#404040" points="323.89,-833.992 316.735,-833.1 314.805,-826.152 321.961,-827.044 323.89,-833.992"/>
<text text-anchor="middle" x="436.718" y="-870.5" font-family="Helvetica,sans-Serif" font-size="10.00"> +@9</text>
</g>
<!-- Node5&#45;&gt;Node10 -->
<g id="edge18" class="edge"><title>Node5&#45;&gt;Node10</title>
<path fill="none" stroke="#404040" d="M627.715,-917.672C614.129,-898.505 594.428,-867.771 584.218,-838 550.12,-738.58 620.782,-659.604 529.218,-608 458.791,-568.309 421.462,-624.214 348.218,-590 348.102,-589.946 347.987,-589.892 347.871,-589.837"/>
<polygon fill="none" stroke="#404040" points="347.909,-589.858 340.735,-590.586 337.303,-584.244 344.477,-583.515 347.909,-589.858"/>
<text text-anchor="middle" x="596.718" y="-740.5" font-family="Helvetica,sans-Serif" font-size="10.00"> +@9</text>
</g>
<!-- Node6 -->
<g id="node6" class="node"><title>Node6</title>
<polygon fill="none" stroke="#bfbfbf" points="60.7178,-909.5 60.7178,-966.5 95.7178,-966.5 95.7178,-909.5 60.7178,-909.5"/>
<text text-anchor="middle" x="78.2178" y="-954.5" font-family="Helvetica,sans-Serif" font-size="10.00">char</text>
<polyline fill="none" stroke="#bfbfbf" points="60.7178,-947.5 95.7178,-947.5 "/>
<text text-anchor="middle" x="78.2178" y="-935.5" font-family="Helvetica,sans-Serif" font-size="10.00"> </text>
<polyline fill="none" stroke="#bfbfbf" points="60.7178,-928.5 95.7178,-928.5 "/>
<text text-anchor="middle" x="78.2178" y="-916.5" font-family="Helvetica,sans-Serif" font-size="10.00"> </text>
</g>
<!-- Node6&#45;&gt;Node2 -->
<g id="edge15" class="edge"><title>Node6&#45;&gt;Node2</title>
<path fill="none" stroke="#404040" d="M60.4702,-911.418C56.3444,-904.671 52.2715,-897.245 49.2178,-890 39.9648,-868.048 40.481,-861.438 36.2178,-838 17.8249,-736.882 -18.7443,-706.003 12.2178,-608 46.2429,-500.302 70.8394,-471.565 158.218,-400 173.614,-387.39 184.164,-395.016 199.218,-382 234.106,-351.834 216.902,-321.106 254.218,-294 326.296,-241.644 429.26,-223.795 498.076,-217.818"/>
<polygon fill="none" stroke="#404040" points="498.126,-217.815 503.791,-213.352 510.088,-216.865 504.424,-221.327 498.126,-217.815"/>
<text text-anchor="middle" x="42.7178" y="-616.5" font-family="Helvetica,sans-Serif" font-size="10.00"> +magicString</text>
</g>
<!-- Node6&#45;&gt;Node3 -->
<g id="edge5" class="edge"><title>Node6&#45;&gt;Node3</title>
<path fill="none" stroke="#404040" d="M79.8861,-909.378C84.2323,-845.415 97.7478,-689.43 128.218,-648 193.102,-559.777 405.689,-607.415 476.515,-591.364"/>
<polygon fill="none" stroke="#404040" points="476.623,-591.328 481.073,-585.654 488.022,-587.578 483.573,-593.253 476.623,-591.328"/>
<text text-anchor="middle" x="138.718" y="-740.5" font-family="Helvetica,sans-Serif" font-size="10.00"> +str</text>
</g>
<!-- Node6&#45;&gt;Node8 -->
<g id="edge10" class="edge"><title>Node6&#45;&gt;Node8</title>
<path fill="none" stroke="#404040" d="M95.7558,-922.826C118.099,-904.386 157.392,-870.654 187.218,-838 189.405,-835.605 191.594,-833.146 193.776,-830.64"/>
<polygon fill="none" stroke="#404040" points="193.862,-830.54 194.697,-823.377 201.629,-821.393 200.794,-828.556 193.862,-830.54"/>
<text text-anchor="middle" x="178.718" y="-870.5" font-family="Helvetica,sans-Serif" font-size="10.00"> +str</text>
</g>
<!-- Node6&#45;&gt;Node10 -->
<g id="edge19" class="edge"><title>Node6&#45;&gt;Node10</title>
<path fill="none" stroke="#404040" d="M67.7944,-909.415C49.2323,-855.417 16.5604,-733.575 63.2178,-648 85.9973,-606.22 115.8,-619.4 153.218,-590 154.645,-588.879 156.075,-587.741 157.506,-586.588"/>
<polygon fill="none" stroke="#404040" points="157.711,-586.419 159.792,-579.515 166.966,-578.781 164.884,-585.685 157.711,-586.419"/>
<text text-anchor="middle" x="73.7178" y="-740.5" font-family="Helvetica,sans-Serif" font-size="10.00"> +str</text>
</g>
<!-- Node7 -->
<g id="node7" class="node"><title>Node7</title>
<polygon fill="none" stroke="#bfbfbf" points="336.718,-909.5 336.718,-966.5 365.718,-966.5 365.718,-909.5 336.718,-909.5"/>
<text text-anchor="middle" x="351.218" y="-954.5" font-family="Helvetica,sans-Serif" font-size="10.00">int</text>
<polyline fill="none" stroke="#bfbfbf" points="336.718,-947.5 365.718,-947.5 "/>
<text text-anchor="middle" x="351.218" y="-935.5" font-family="Helvetica,sans-Serif" font-size="10.00"> </text>
<polyline fill="none" stroke="#bfbfbf" points="336.718,-928.5 365.718,-928.5 "/>
<text text-anchor="middle" x="351.218" y="-916.5" font-family="Helvetica,sans-Serif" font-size="10.00"> </text>
</g>
<!-- Node7&#45;&gt;Node3 -->
<g id="edge6" class="edge"><title>Node7&#45;&gt;Node3</title>
<path fill="none" stroke="#404040" d="M365.734,-934.42C387.894,-929.695 429.927,-917.491 452.218,-890 521.749,-804.25 436.353,-731.804 508.218,-648 522.24,-631.648 539.978,-646.992 553.218,-630 559.821,-621.525 564.639,-611.796 568.098,-601.533"/>
<polygon fill="none" stroke="#404040" points="568.165,-601.3 565.96,-594.434 571.449,-589.758 573.654,-596.624 568.165,-601.3"/>
<text text-anchor="middle" x="533.718" y="-751.5" font-family="Helvetica,sans-Serif" font-size="10.00"> +arraySize</text>
<text text-anchor="middle" x="533.718" y="-740.5" font-family="Helvetica,sans-Serif" font-size="10.00">+size</text>
<text text-anchor="middle" x="533.718" y="-729.5" font-family="Helvetica,sans-Serif" font-size="10.00">+bitcount</text>
</g>
<!-- Node7&#45;&gt;Node8 -->
<g id="edge11" class="edge"><title>Node7&#45;&gt;Node8</title>
<path fill="none" stroke="#404040" d="M336.543,-930.479C321.429,-922.965 298.412,-909.146 286.218,-890 278.419,-877.755 272.695,-863.842 268.512,-849.586"/>
<polygon fill="none" stroke="#404040" points="268.401,-849.164 263.006,-844.379 265.348,-837.559 270.743,-842.344 268.401,-849.164"/>
<text text-anchor="middle" x="311.718" y="-881.5" font-family="Helvetica,sans-Serif" font-size="10.00"> +arraySize</text>
<text text-anchor="middle" x="311.718" y="-870.5" font-family="Helvetica,sans-Serif" font-size="10.00">+size</text>
<text text-anchor="middle" x="311.718" y="-859.5" font-family="Helvetica,sans-Serif" font-size="10.00">+bitcount</text>
</g>
<!-- Node7&#45;&gt;Node10 -->
<g id="edge20" class="edge"><title>Node7&#45;&gt;Node10</title>
<path fill="none" stroke="#404040" d="M354.994,-909.104C361.745,-851.059 371.888,-713.885 334.218,-608 333.366,-605.605 332.445,-603.218 331.462,-600.841"/>
<polygon fill="none" stroke="#404040" points="331.412,-600.73 325.285,-596.927 326.438,-589.809 332.565,-593.612 331.412,-600.73"/>
<text text-anchor="middle" x="387.718" y="-751.5" font-family="Helvetica,sans-Serif" font-size="10.00"> +arraySize</text>
<text text-anchor="middle" x="387.718" y="-740.5" font-family="Helvetica,sans-Serif" font-size="10.00">+size</text>
<text text-anchor="middle" x="387.718" y="-729.5" font-family="Helvetica,sans-Serif" font-size="10.00">+bitcount</text>
</g>
<!-- Node8&#45;&gt;Node1 -->
<g id="edge24" class="edge"><title>Node8&#45;&gt;Node1</title>
<path fill="none" stroke="#404040" d="M201.572,-656.031C179.018,-621.779 158.301,-590.275 158.218,-590 120.176,-464.064 91.1269,-407.75 157.218,-294 227.112,-173.704 383.824,-109.615 483.134,-79.7983"/>
<polygon fill="none" stroke="#404040" points="483.436,-79.7096 488.067,-74.1819 494.951,-76.3305 490.32,-81.8582 483.436,-79.7096"/>
<text text-anchor="middle" x="205.718" y="-341" font-family="Helvetica,sans-Serif" font-size="10.00"> +sHeaderType</text>
<text text-anchor="middle" x="205.718" y="-330" font-family="Helvetica,sans-Serif" font-size="10.00">+sSerializationMethod</text>
</g>
<!-- Node8&#45;&gt;Node2 -->
<g id="edge22" class="edge"><title>Node8&#45;&gt;Node2</title>
<path fill="none" stroke="#404040" d="M314.85,-672.102C323.721,-658.706 331.996,-644.362 338.218,-630 379.591,-534.501 333.083,-491.748 382.218,-400 410.674,-346.865 459.644,-299.577 500.607,-266.113"/>
<polygon fill="none" stroke="#404040" points="500.667,-266.065 502.838,-259.189 510.02,-258.548 507.849,-265.424 500.667,-266.065"/>
<text text-anchor="middle" x="430.718" y="-498" font-family="Helvetica,sans-Serif" font-size="10.00"> +sHeaderType</text>
<text text-anchor="middle" x="430.718" y="-487" font-family="Helvetica,sans-Serif" font-size="10.00">+sSerializationMethod</text>
</g>
<!-- Node8&#45;&gt;Node3 -->
<g id="edge7" class="edge"><title>Node8&#45;&gt;Node3</title>
<path fill="none" stroke="orange" d="M322.778,-652.928C324.886,-651.207 327.033,-649.56 329.218,-648 350.15,-633.054 362.154,-643.218 384.218,-630 396.353,-622.73 394.892,-614.94 407.218,-608 434.085,-592.872 447.4,-605.216 474.218,-590 478.909,-587.338 483.54,-584.396 488.084,-581.246"/>
<polygon fill="orange" stroke="orange" points="320.043,-650.673 314.847,-659.906 324.667,-655.928 320.043,-650.673"/>
<text text-anchor="start" x="407.218" y="-622" font-family="Helvetica,sans-Serif" font-size="10.00"> &lt; gSizeHeaderDescription</text>
<text text-anchor="middle" x="466.218" y="-611" font-family="Helvetica,sans-Serif" font-size="10.00">String &gt;</text>
</g>
<!-- Node8&#45;&gt;Node10 -->
<g id="edge21" class="edge"><title>Node8&#45;&gt;Node10</title>
<path fill="none" stroke="orange" d="M213.159,-638.619C212.444,-635.735 211.793,-632.859 211.218,-630 208.577,-616.883 208.963,-603.216 211.198,-589.843"/>
<polygon fill="orange" stroke="orange" points="209.828,-639.709 215.829,-648.441 216.583,-637.873 209.828,-639.709"/>
<text text-anchor="start" x="211.218" y="-622" font-family="Helvetica,sans-Serif" font-size="10.00"> &lt; gSizeSerializationMethod</text>
<text text-anchor="middle" x="272.718" y="-611" font-family="Helvetica,sans-Serif" font-size="10.00">String &gt;</text>
</g>
<!-- Node9 -->
<g id="node9" class="node"><title>Node9</title>
<polygon fill="none" stroke="#bfbfbf" points="801.718,-466.5 801.718,-523.5 852.718,-523.5 852.718,-466.5 801.718,-466.5"/>
<text text-anchor="middle" x="827.218" y="-511.5" font-family="Helvetica,sans-Serif" font-size="10.00">uint32_t</text>
<polyline fill="none" stroke="#bfbfbf" points="801.718,-504.5 852.718,-504.5 "/>
<text text-anchor="middle" x="827.218" y="-492.5" font-family="Helvetica,sans-Serif" font-size="10.00"> </text>
<polyline fill="none" stroke="#bfbfbf" points="801.718,-485.5 852.718,-485.5 "/>
<text text-anchor="middle" x="827.218" y="-473.5" font-family="Helvetica,sans-Serif" font-size="10.00"> </text>
</g>
<!-- Node9&#45;&gt;Node1 -->
<g id="edge23" class="edge"><title>Node9&#45;&gt;Node1</title>
<path fill="none" stroke="#404040" d="M839.225,-466.341C854.689,-426.342 876.619,-350.912 850.218,-294 810.811,-209.052 724.095,-143.606 657.726,-103.414"/>
<polygon fill="none" stroke="#404040" points="657.569,-103.321 650.367,-103.688 647.259,-97.1808 654.461,-96.8139 657.569,-103.321"/>
<text text-anchor="middle" x="865.218" y="-211.5" font-family="Helvetica,sans-Serif" font-size="10.00"> +sVersion</text>
</g>
<!-- Node9&#45;&gt;Node2 -->
<g id="edge13" class="edge"><title>Node9&#45;&gt;Node2</title>
<path fill="none" stroke="#404040" d="M810.958,-466.227C798.483,-444.017 781.535,-411.776 770.218,-382 755.856,-344.212 773.33,-324.86 747.218,-294 720.977,-262.989 680.095,-243.63 644.334,-231.843"/>
<polygon fill="none" stroke="#404040" points="643.887,-231.704 636.968,-233.735 632.432,-228.13 639.351,-226.098 643.887,-231.704"/>
<text text-anchor="middle" x="810.218" y="-374" font-family="Helvetica,sans-Serif" font-size="10.00"> +headerVersion</text>
<text text-anchor="middle" x="810.218" y="-363" font-family="Helvetica,sans-Serif" font-size="10.00">+headerSize</text>
<text text-anchor="middle" x="810.218" y="-352" font-family="Helvetica,sans-Serif" font-size="10.00">+sMagicString</text>
<text text-anchor="middle" x="810.218" y="-341" font-family="Helvetica,sans-Serif" font-size="10.00">+flagsNextHeader</text>
<text text-anchor="middle" x="810.218" y="-330" font-family="Helvetica,sans-Serif" font-size="10.00">+magicStringInt</text>
<text text-anchor="middle" x="810.218" y="-319" font-family="Helvetica,sans-Serif" font-size="10.00">+flagsUnused</text>
<text text-anchor="middle" x="810.218" y="-308" font-family="Helvetica,sans-Serif" font-size="10.00">+flags</text>
<text text-anchor="middle" x="810.218" y="-297" font-family="Helvetica,sans-Serif" font-size="10.00">+sVersion</text>
</g>
<!-- Node10&#45;&gt;Node2 -->
<g id="edge16" class="edge"><title>Node10&#45;&gt;Node2</title>
<path fill="none" stroke="#404040" d="M253.83,-400.317C259.118,-363.031 271.409,-322.343 298.218,-294 349.712,-239.56 436.192,-221.909 498.022,-216.557"/>
<polygon fill="none" stroke="#404040" points="498.077,-216.553 503.756,-212.11 510.042,-215.644 504.363,-220.087 498.077,-216.553"/>
<text text-anchor="middle" x="328.718" y="-335.5" font-family="Helvetica,sans-Serif" font-size="10.00"> +serialization</text>
</g>
</g>
</svg>
