<?xml version="1.0" encoding="UTF-8" standalone="no"?>
<!DOCTYPE svg PUBLIC "-//W3C//DTD SVG 1.1//EN"
 "http://www.w3.org/Graphics/SVG/1.1/DTD/svg11.dtd">
<!-- Generated by graphviz version 2.36.0 (20140111.2315)
 -->
<!-- Title: o2::header::DataIdentifier Pages: 1 -->
<!--zoomable 738 -->
<svg id="main" version="1.1" xmlns="http://www.w3.org/2000/svg" xmlns:xlink="http://www.w3.org/1999/xlink" xml:space="preserve" onload="init(evt)">
<style type="text/css"><![CDATA[
.edge:hover path { stroke: red; }
.edge:hover polygon { stroke: red; fill: red; }
]]></style>
<script type="text/javascript"><![CDATA[
var edges = document.getElementsByTagName('g');
if (edges && edges.length) {
  for (var i=0;i<edges.length;i++) {
    if (edges[i].id.substr(0,4)=='edge') {
      edges[i].setAttribute('class','edge');
    }
  }
}
]]></script>
        <defs>
                <circle id="rim" cx="0" cy="0" r="7"/>
                <circle id="rim2" cx="0" cy="0" r="3.5"/>
                <g id="zoomPlus">
                        <use xlink:href="#rim" fill="#404040">
                                <set attributeName="fill" to="#808080" begin="zoomplus.mouseover" end="zoomplus.mouseout"/>
                        </use>
                        <path d="M-4,0h8M0,-4v8" fill="none" stroke="white" stroke-width="1.5" pointer-events="none"/>
                </g>
                <g id="zoomMin">
                        <use xlink:href="#rim" fill="#404040">
                                <set attributeName="fill" to="#808080" begin="zoomminus.mouseover" end="zoomminus.mouseout"/>
                        </use>
                        <path d="M-4,0h8" fill="none" stroke="white" stroke-width="1.5" pointer-events="none"/>
                </g>
                <g id="dirArrow">
                        <path fill="none" stroke="white" stroke-width="1.5" d="M0,-3.0v7 M-2.5,-0.5L0,-3.0L2.5,-0.5"/>
                </g>
               <g id="resetDef">
                       <use xlink:href="#rim2" fill="#404040">
                               <set attributeName="fill" to="#808080" begin="reset.mouseover" end="reset.mouseout"/>
                       </use>
               </g>
        </defs>

<script type="text/javascript">
var viewWidth = 616;
var viewHeight = 738;
var sectionId = 'dynsection-0';
</script>
<script xlink:href="../../svgpan.js"/>
<svg id="graph" class="graph">
<g id="viewport">
<title>o2::header::DataIdentifier</title>
<!-- Node1 -->
<g id="node1" class="node"><title>Node1</title>
<polygon fill="#bfbfbf" stroke="black" points="183.203,-0.5 183.203,-101.5 310.203,-101.5 310.203,-0.5 183.203,-0.5"/>
<text text-anchor="middle" x="246.703" y="-89.5" font-family="Helvetica,sans-Serif" font-size="10.00">o2::header::DataIdentifier</text>
<polyline fill="none" stroke="black" points="183.203,-82.5 310.203,-82.5 "/>
<text text-anchor="middle" x="246.703" y="-70.5" font-family="Helvetica,sans-Serif" font-size="10.00"> </text>
<polyline fill="none" stroke="black" points="183.203,-63.5 310.203,-63.5 "/>
<text text-anchor="start" x="191.203" y="-51.5" font-family="Helvetica,sans-Serif" font-size="10.00">+ DataIdentifier()</text>
<text text-anchor="start" x="191.203" y="-40.5" font-family="Helvetica,sans-Serif" font-size="10.00">+ DataIdentifier()</text>
<text text-anchor="start" x="191.203" y="-29.5" font-family="Helvetica,sans-Serif" font-size="10.00">+ DataIdentifier()</text>
<text text-anchor="start" x="191.203" y="-18.5" font-family="Helvetica,sans-Serif" font-size="10.00">+ operator==()</text>
<text text-anchor="start" x="191.203" y="-7.5" font-family="Helvetica,sans-Serif" font-size="10.00">+ print()</text>
</g>
<!-- Node2 -->
<g id="node2" class="node"><title>Node2</title>
<g id="a_node2"><a xlink:href="../../d9/db3/structo2_1_1header_1_1Descriptor.html" target="_top" xlink:title="{o2::header::Descriptor\l\&lt; gSizeDataOriginString,\l printDataOrigin \&gt;\n||+ Descriptor()\l+ Descriptor()\l+ Descriptor()\l+ Descriptor()\l+ operator=()\l+ operator ItgType()\l+ runtimeInit()\l+ operator==()\l+ operator==()\l+ operator!=()\l+ operator!=()\l+ print()\l}">
<polygon fill="none" stroke="black" points="49.2025,-151 49.2025,-351 174.203,-351 174.203,-151 49.2025,-151"/>
<text text-anchor="start" x="57.2025" y="-339" font-family="Helvetica,sans-Serif" font-size="10.00">o2::header::Descriptor</text>
<text text-anchor="start" x="57.2025" y="-328" font-family="Helvetica,sans-Serif" font-size="10.00">&lt; gSizeDataOriginString,</text>
<text text-anchor="middle" x="111.703" y="-317" font-family="Helvetica,sans-Serif" font-size="10.00"> printDataOrigin &gt;</text>
<polyline fill="none" stroke="black" points="49.2025,-310 174.203,-310 "/>
<text text-anchor="middle" x="111.703" y="-298" font-family="Helvetica,sans-Serif" font-size="10.00"> </text>
<polyline fill="none" stroke="black" points="49.2025,-291 174.203,-291 "/>
<text text-anchor="start" x="57.2025" y="-279" font-family="Helvetica,sans-Serif" font-size="10.00">+ Descriptor()</text>
<text text-anchor="start" x="57.2025" y="-268" font-family="Helvetica,sans-Serif" font-size="10.00">+ Descriptor()</text>
<text text-anchor="start" x="57.2025" y="-257" font-family="Helvetica,sans-Serif" font-size="10.00">+ Descriptor()</text>
<text text-anchor="start" x="57.2025" y="-246" font-family="Helvetica,sans-Serif" font-size="10.00">+ Descriptor()</text>
<text text-anchor="start" x="57.2025" y="-235" font-family="Helvetica,sans-Serif" font-size="10.00">+ operator=()</text>
<text text-anchor="start" x="57.2025" y="-224" font-family="Helvetica,sans-Serif" font-size="10.00">+ operator ItgType()</text>
<text text-anchor="start" x="57.2025" y="-213" font-family="Helvetica,sans-Serif" font-size="10.00">+ runtimeInit()</text>
<text text-anchor="start" x="57.2025" y="-202" font-family="Helvetica,sans-Serif" font-size="10.00">+ operator==()</text>
<text text-anchor="start" x="57.2025" y="-191" font-family="Helvetica,sans-Serif" font-size="10.00">+ operator==()</text>
<text text-anchor="start" x="57.2025" y="-180" font-family="Helvetica,sans-Serif" font-size="10.00">+ operator!=()</text>
<text text-anchor="start" x="57.2025" y="-169" font-family="Helvetica,sans-Serif" font-size="10.00">+ operator!=()</text>
<text text-anchor="start" x="57.2025" y="-158" font-family="Helvetica,sans-Serif" font-size="10.00">+ print()</text>
</a>
</g>
</g>
<!-- Node2&#45;&gt;Node1 -->
<g id="edge1" class="edge"><title>Node2&#45;&gt;Node1</title>
<path fill="none" stroke="#404040" d="M174.263,-158.245C185.078,-142.382 196.064,-126.27 206.101,-111.549"/>
<polygon fill="none" stroke="#404040" points="206.124,-111.515 206.199,-104.304 212.884,-101.6 212.809,-108.811 206.124,-111.515"/>
<text text-anchor="middle" x="226.703" y="-123.5" font-family="Helvetica,sans-Serif" font-size="10.00"> +dataOrigin</text>
</g>
<!-- Node3 -->
<g id="node3" class="node"><title>Node3</title>
<polygon fill="none" stroke="#bfbfbf" points="64.7025,-671.5 64.7025,-728.5 102.703,-728.5 102.703,-671.5 64.7025,-671.5"/>
<text text-anchor="middle" x="83.7025" y="-716.5" font-family="Helvetica,sans-Serif" font-size="10.00">Type</text>
<polyline fill="none" stroke="#bfbfbf" points="64.7025,-709.5 102.703,-709.5 "/>
<text text-anchor="middle" x="83.7025" y="-697.5" font-family="Helvetica,sans-Serif" font-size="10.00"> </text>
<polyline fill="none" stroke="#bfbfbf" points="64.7025,-690.5 102.703,-690.5 "/>
<text text-anchor="middle" x="83.7025" y="-678.5" font-family="Helvetica,sans-Serif" font-size="10.00"> </text>
</g>
<!-- Node3&#45;&gt;Node2 -->
<g id="edge2" class="edge"><title>Node3&#45;&gt;Node2</title>
<path fill="none" stroke="#404040" d="M64.6954,-678.508C48.6471,-659.703 26.8611,-630.249 17.7025,-600 -6.76813,-519.179 -4.68665,-491.422 17.7025,-410 23.4148,-389.226 32.6499,-368.423 43.1529,-349.05"/>
<polygon fill="none" stroke="#404040" points="43.2321,-348.909 42.6797,-341.719 49.104,-338.443 49.6565,-345.633 43.2321,-348.909"/>
<text text-anchor="middle" x="27.7025" y="-502.5" font-family="Helvetica,sans-Serif" font-size="10.00"> +itg</text>
</g>
<!-- Node7 -->
<g id="node7" class="node"><title>Node7</title>
<g id="a_node7"><a xlink:href="../../d9/db3/structo2_1_1header_1_1Descriptor.html" target="_top" xlink:title="{o2::header::Descriptor\l\&lt; N, PrinterPolicy \&gt;\n||+ Descriptor()\l+ Descriptor()\l+ Descriptor()\l+ operator=()\l+ operator ItgType()\l+ Descriptor()\l+ runtimeInit()\l+ operator==()\l+ operator!=()\l+ operator==()\l+ operator!=()\l+ print()\l}">
<polygon fill="none" stroke="black" points="220.203,-410.5 220.203,-599.5 333.203,-599.5 333.203,-410.5 220.203,-410.5"/>
<text text-anchor="start" x="228.203" y="-587.5" font-family="Helvetica,sans-Serif" font-size="10.00">o2::header::Descriptor</text>
<text text-anchor="middle" x="276.703" y="-576.5" font-family="Helvetica,sans-Serif" font-size="10.00">&lt; N, PrinterPolicy &gt;</text>
<polyline fill="none" stroke="black" points="220.203,-569.5 333.203,-569.5 "/>
<text text-anchor="middle" x="276.703" y="-557.5" font-family="Helvetica,sans-Serif" font-size="10.00"> </text>
<polyline fill="none" stroke="black" points="220.203,-550.5 333.203,-550.5 "/>
<text text-anchor="start" x="228.203" y="-538.5" font-family="Helvetica,sans-Serif" font-size="10.00">+ Descriptor()</text>
<text text-anchor="start" x="228.203" y="-527.5" font-family="Helvetica,sans-Serif" font-size="10.00">+ Descriptor()</text>
<text text-anchor="start" x="228.203" y="-516.5" font-family="Helvetica,sans-Serif" font-size="10.00">+ Descriptor()</text>
<text text-anchor="start" x="228.203" y="-505.5" font-family="Helvetica,sans-Serif" font-size="10.00">+ operator=()</text>
<text text-anchor="start" x="228.203" y="-494.5" font-family="Helvetica,sans-Serif" font-size="10.00">+ operator ItgType()</text>
<text text-anchor="start" x="228.203" y="-483.5" font-family="Helvetica,sans-Serif" font-size="10.00">+ Descriptor()</text>
<text text-anchor="start" x="228.203" y="-472.5" font-family="Helvetica,sans-Serif" font-size="10.00">+ runtimeInit()</text>
<text text-anchor="start" x="228.203" y="-461.5" font-family="Helvetica,sans-Serif" font-size="10.00">+ operator==()</text>
<text text-anchor="start" x="228.203" y="-450.5" font-family="Helvetica,sans-Serif" font-size="10.00">+ operator!=()</text>
<text text-anchor="start" x="228.203" y="-439.5" font-family="Helvetica,sans-Serif" font-size="10.00">+ operator==()</text>
<text text-anchor="start" x="228.203" y="-428.5" font-family="Helvetica,sans-Serif" font-size="10.00">+ operator!=()</text>
<text text-anchor="start" x="228.203" y="-417.5" font-family="Helvetica,sans-Serif" font-size="10.00">+ print()</text>
</a>
</g>
</g>
<!-- Node3&#45;&gt;Node7 -->
<g id="edge7" class="edge"><title>Node3&#45;&gt;Node7</title>
<path fill="none" stroke="#404040" d="M102.746,-682.001C121.803,-665.215 152.167,-639.072 179.703,-618 190.864,-609.459 195.561,-609.73 205.703,-600 207.681,-598.102 209.647,-596.145 211.596,-594.14"/>
<polygon fill="none" stroke="#404040" points="211.85,-593.866 213.008,-586.749 220.024,-585.08 218.866,-592.198 211.85,-593.866"/>
<text text-anchor="middle" x="189.703" y="-632.5" font-family="Helvetica,sans-Serif" font-size="10.00"> +itg</text>
</g>
<!-- Node8 -->
<g id="node8" class="node"><title>Node8</title>
<g id="a_node8"><a xlink:href="../../d9/db3/structo2_1_1header_1_1Descriptor.html" target="_top" xlink:title="{o2::header::Descriptor\l\&lt; gSizeDataDescriptionString,\l printDataDescription \&gt;\n||+ Descriptor()\l+ Descriptor()\l+ Descriptor()\l+ Descriptor()\l+ operator=()\l+ operator ItgType()\l+ runtimeInit()\l+ operator==()\l+ operator==()\l+ operator!=()\l+ operator!=()\l+ print()\l}">
<polygon fill="none" stroke="black" points="250.203,-151 250.203,-351 399.203,-351 399.203,-151 250.203,-151"/>
<text text-anchor="start" x="258.203" y="-339" font-family="Helvetica,sans-Serif" font-size="10.00">o2::header::Descriptor</text>
<text text-anchor="start" x="258.203" y="-328" font-family="Helvetica,sans-Serif" font-size="10.00">&lt; gSizeDataDescriptionString,</text>
<text text-anchor="middle" x="324.703" y="-317" font-family="Helvetica,sans-Serif" font-size="10.00"> printDataDescription &gt;</text>
<polyline fill="none" stroke="black" points="250.203,-310 399.203,-310 "/>
<text text-anchor="middle" x="324.703" y="-298" font-family="Helvetica,sans-Serif" font-size="10.00"> </text>
<polyline fill="none" stroke="black" points="250.203,-291 399.203,-291 "/>
<text text-anchor="start" x="258.203" y="-279" font-family="Helvetica,sans-Serif" font-size="10.00">+ Descriptor()</text>
<text text-anchor="start" x="258.203" y="-268" font-family="Helvetica,sans-Serif" font-size="10.00">+ Descriptor()</text>
<text text-anchor="start" x="258.203" y="-257" font-family="Helvetica,sans-Serif" font-size="10.00">+ Descriptor()</text>
<text text-anchor="start" x="258.203" y="-246" font-family="Helvetica,sans-Serif" font-size="10.00">+ Descriptor()</text>
<text text-anchor="start" x="258.203" y="-235" font-family="Helvetica,sans-Serif" font-size="10.00">+ operator=()</text>
<text text-anchor="start" x="258.203" y="-224" font-family="Helvetica,sans-Serif" font-size="10.00">+ operator ItgType()</text>
<text text-anchor="start" x="258.203" y="-213" font-family="Helvetica,sans-Serif" font-size="10.00">+ runtimeInit()</text>
<text text-anchor="start" x="258.203" y="-202" font-family="Helvetica,sans-Serif" font-size="10.00">+ operator==()</text>
<text text-anchor="start" x="258.203" y="-191" font-family="Helvetica,sans-Serif" font-size="10.00">+ operator==()</text>
<text text-anchor="start" x="258.203" y="-180" font-family="Helvetica,sans-Serif" font-size="10.00">+ operator!=()</text>
<text text-anchor="start" x="258.203" y="-169" font-family="Helvetica,sans-Serif" font-size="10.00">+ operator!=()</text>
<text text-anchor="start" x="258.203" y="-158" font-family="Helvetica,sans-Serif" font-size="10.00">+ print()</text>
</a>
</g>
</g>
<!-- Node3&#45;&gt;Node8 -->
<g id="edge12" class="edge"><title>Node3&#45;&gt;Node8</title>
<path fill="none" stroke="#404040" d="M87.6714,-671.453C97.7645,-602.994 124.872,-429.257 142.703,-410 162.487,-388.632 181.222,-407.771 205.703,-392 215.036,-385.987 228.092,-372.893 242.156,-357.014"/>
<polygon fill="none" stroke="#404040" points="242.18,-356.986 243.1,-349.834 250.056,-347.932 249.136,-355.085 242.18,-356.986"/>
<text text-anchor="middle" x="152.703" y="-502.5" font-family="Helvetica,sans-Serif" font-size="10.00"> +itg</text>
</g>
<!-- Node4 -->
<g id="node4" class="node"><title>Node4</title>
<polygon fill="none" stroke="#bfbfbf" points="162.203,-671 162.203,-729 191.203,-729 191.203,-671 162.203,-671"/>
<polyline fill="none" stroke="#bfbfbf" points="162.203,-709 191.203,-709 "/>
<text text-anchor="middle" x="176.703" y="-697" font-family="Helvetica,sans-Serif" font-size="10.00"> </text>
<polyline fill="none" stroke="#bfbfbf" points="162.203,-690 191.203,-690 "/>
<text text-anchor="middle" x="176.703" y="-678" font-family="Helvetica,sans-Serif" font-size="10.00"> </text>
</g>
<!-- Node4&#45;&gt;Node2 -->
<g id="edge3" class="edge"><title>Node4&#45;&gt;Node2</title>
<path fill="none" stroke="#404040" d="M169.618,-670.896C163.806,-653.328 153.843,-631.544 137.703,-618 115.067,-599.007 91.5449,-623.553 73.7025,-600 23.017,-533.093 38.081,-437.09 62.7036,-362.86"/>
<polygon fill="none" stroke="#404040" points="62.8305,-362.49 60.9967,-355.516 66.7289,-351.141 68.5628,-358.115 62.8305,-362.49"/>
<text text-anchor="middle" x="86.2025" y="-502.5" font-family="Helvetica,sans-Serif" font-size="10.00"> +@9</text>
</g>
<!-- Node4&#45;&gt;Node7 -->
<g id="edge8" class="edge"><title>Node4&#45;&gt;Node7</title>
<path fill="none" stroke="#404040" d="M191.243,-670.936C199.754,-654.51 211.089,-632.633 222.714,-610.198"/>
<polygon fill="none" stroke="#404040" points="222.728,-610.171 221.937,-603.004 228.248,-599.516 229.04,-606.684 222.728,-610.171"/>
<text text-anchor="middle" x="231.203" y="-632.5" font-family="Helvetica,sans-Serif" font-size="10.00"> +@9</text>
</g>
<!-- Node4&#45;&gt;Node8 -->
<g id="edge13" class="edge"><title>Node4&#45;&gt;Node8</title>
<path fill="none" stroke="#404040" d="M173.748,-670.873C167.587,-606.553 156.252,-451.115 185.703,-410 198.97,-391.478 215.938,-406.266 233.703,-392 244.827,-383.066 255.038,-372.393 264.275,-360.979"/>
<polygon fill="none" stroke="#404040" points="264.465,-360.733 264.97,-353.539 271.804,-351.239 271.299,-358.432 264.465,-360.733"/>
<text text-anchor="middle" x="198.203" y="-502.5" font-family="Helvetica,sans-Serif" font-size="10.00"> +@9</text>
</g>
<!-- Node5 -->
<g id="node5" class="node"><title>Node5</title>
<polygon fill="none" stroke="#bfbfbf" points="352.203,-671.5 352.203,-728.5 387.203,-728.5 387.203,-671.5 352.203,-671.5"/>
<text text-anchor="middle" x="369.703" y="-716.5" font-family="Helvetica,sans-Serif" font-size="10.00">char</text>
<polyline fill="none" stroke="#bfbfbf" points="352.203,-709.5 387.203,-709.5 "/>
<text text-anchor="middle" x="369.703" y="-697.5" font-family="Helvetica,sans-Serif" font-size="10.00"> </text>
<polyline fill="none" stroke="#bfbfbf" points="352.203,-690.5 387.203,-690.5 "/>
<text text-anchor="middle" x="369.703" y="-678.5" font-family="Helvetica,sans-Serif" font-size="10.00"> </text>
</g>
<!-- Node5&#45;&gt;Node2 -->
<g id="edge4" class="edge"><title>Node5&#45;&gt;Node2</title>
<path fill="none" stroke="#404040" d="M374.835,-671.24C383.407,-616.405 394.862,-492.382 341.703,-410 334.686,-399.126 251.453,-359.204 240.703,-352 221.846,-339.365 202.159,-324.846 184.009,-310.859"/>
<polygon fill="none" stroke="#404040" points="183.862,-310.745 176.67,-310.223 174.385,-303.383 181.577,-303.905 183.862,-310.745"/>
<text text-anchor="middle" x="393.203" y="-502.5" font-family="Helvetica,sans-Serif" font-size="10.00"> +str</text>
</g>
<!-- Node5&#45;&gt;Node7 -->
<g id="edge9" class="edge"><title>Node5&#45;&gt;Node7</title>
<path fill="none" stroke="#404040" d="M351.977,-697.226C326.695,-693.637 281.088,-682.99 260.703,-652 252.765,-639.934 249.124,-626.06 248.265,-611.769"/>
<polygon fill="none" stroke="#404040" points="248.265,-611.696 244.215,-605.73 248.165,-599.697 252.215,-605.663 248.265,-611.696"/>
<text text-anchor="middle" x="271.203" y="-632.5" font-family="Helvetica,sans-Serif" font-size="10.00"> +str</text>
</g>
<!-- Node5&#45;&gt;Node8 -->
<g id="edge14" class="edge"><title>Node5&#45;&gt;Node8</title>
<path fill="none" stroke="#404040" d="M387.636,-683.23C419.195,-655.467 481.384,-600.706 481.703,-600 516.403,-523.015 512.493,-488.631 481.703,-410 466.88,-372.147 437.756,-338.739 408.576,-312.508"/>
<polygon fill="none" stroke="#404040" points="408.568,-312.5 401.418,-311.562 399.534,-304.601 406.684,-305.54 408.568,-312.5"/>
<text text-anchor="middle" x="516.203" y="-502.5" font-family="Helvetica,sans-Serif" font-size="10.00"> +str</text>
</g>
<!-- Node6 -->
<g id="node6" class="node"><title>Node6</title>
<polygon fill="none" stroke="#bfbfbf" points="412.203,-671.5 412.203,-728.5 441.203,-728.5 441.203,-671.5 412.203,-671.5"/>
<text text-anchor="middle" x="426.703" y="-716.5" font-family="Helvetica,sans-Serif" font-size="10.00">int</text>
<polyline fill="none" stroke="#bfbfbf" points="412.203,-709.5 441.203,-709.5 "/>
<text text-anchor="middle" x="426.703" y="-697.5" font-family="Helvetica,sans-Serif" font-size="10.00"> </text>
<polyline fill="none" stroke="#bfbfbf" points="412.203,-690.5 441.203,-690.5 "/>
<text text-anchor="middle" x="426.703" y="-678.5" font-family="Helvetica,sans-Serif" font-size="10.00"> </text>
</g>
<!-- Node6&#45;&gt;Node2 -->
<g id="edge5" class="edge"><title>Node6&#45;&gt;Node2</title>
<path fill="none" stroke="#404040" d="M426.358,-671.298C425.26,-602.889 420.897,-430.029 404.703,-410 386.93,-388.019 369.466,-403.631 343.703,-392 326.957,-384.44 325.553,-377.323 308.703,-370 280.03,-357.539 268.728,-365.854 240.703,-352 221.091,-342.305 201.576,-329.363 183.883,-316.014"/>
<polygon fill="none" stroke="#404040" points="183.748,-315.91 176.554,-315.408 174.251,-308.574 181.445,-309.077 183.748,-315.91"/>
<text text-anchor="middle" x="450.203" y="-513.5" font-family="Helvetica,sans-Serif" font-size="10.00"> +arraySize</text>
<text text-anchor="middle" x="450.203" y="-502.5" font-family="Helvetica,sans-Serif" font-size="10.00">+size</text>
<text text-anchor="middle" x="450.203" y="-491.5" font-family="Helvetica,sans-Serif" font-size="10.00">+bitcount</text>
</g>
<!-- Node6&#45;&gt;Node7 -->
<g id="edge10" class="edge"><title>Node6&#45;&gt;Node7</title>
<path fill="none" stroke="#404040" d="M411.948,-683.691C407.021,-679.001 401.343,-674.022 395.703,-670 381.782,-660.073 374.034,-663.844 361.703,-652 348.984,-639.784 337.551,-625.253 327.501,-610.168"/>
<polygon fill="none" stroke="#404040" points="327.241,-609.761 320.636,-606.868 320.766,-599.658 327.371,-602.551 327.241,-609.761"/>
<text text-anchor="middle" x="387.203" y="-643.5" font-family="Helvetica,sans-Serif" font-size="10.00"> +arraySize</text>
<text text-anchor="middle" x="387.203" y="-632.5" font-family="Helvetica,sans-Serif" font-size="10.00">+size</text>
<text text-anchor="middle" x="387.203" y="-621.5" font-family="Helvetica,sans-Serif" font-size="10.00">+bitcount</text>
</g>
<!-- Node6&#45;&gt;Node8 -->
<g id="edge15" class="edge"><title>Node6&#45;&gt;Node8</title>
<path fill="none" stroke="#404040" d="M441.293,-690.638C465.308,-675.921 512.335,-642.844 530.703,-600 563.976,-522.387 566.907,-486.29 530.703,-410 506.097,-358.151 455.005,-318.792 409.862,-292.325"/>
<polygon fill="none" stroke="#404040" points="409.859,-292.323 402.665,-292.823 399.436,-286.375 406.63,-285.875 409.859,-292.323"/>
<text text-anchor="middle" x="582.203" y="-513.5" font-family="Helvetica,sans-Serif" font-size="10.00"> +arraySize</text>
<text text-anchor="middle" x="582.203" y="-502.5" font-family="Helvetica,sans-Serif" font-size="10.00">+size</text>
<text text-anchor="middle" x="582.203" y="-491.5" font-family="Helvetica,sans-Serif" font-size="10.00">+bitcount</text>
</g>
<!-- Node7&#45;&gt;Node2 -->
<g id="edge6" class="edge"><title>Node7&#45;&gt;Node2</title>
<path fill="none" stroke="orange" d="M212.06,-414.569C209.981,-412.966 207.862,-411.439 205.703,-410 178.971,-392.187 157.468,-415.626 135.703,-392 125.176,-380.574 118.377,-366.293 114.108,-351.254"/>
<polygon fill="orange" stroke="orange" points="209.955,-417.372 219.871,-421.103 214.447,-412.003 209.955,-417.372"/>
<text text-anchor="start" x="135.703" y="-384" font-family="Helvetica,sans-Serif" font-size="10.00"> &lt; gSizeDataOriginString,</text>
<text text-anchor="middle" x="191.703" y="-373" font-family="Helvetica,sans-Serif" font-size="10.00"> printDataOrigin &gt;</text>
</g>
<!-- Node7&#45;&gt;Node8 -->
<g id="edge16" class="edge"><title>Node7&#45;&gt;Node8</title>
<path fill="none" stroke="orange" d="M299.104,-400.189C299.648,-397.432 300.182,-394.699 300.703,-392 303.247,-378.803 305.795,-364.88 308.231,-351.138"/>
<polygon fill="orange" stroke="orange" points="295.62,-399.761 297.089,-410.253 302.484,-401.135 295.62,-399.761"/>
<text text-anchor="start" x="304.703" y="-384" font-family="Helvetica,sans-Serif" font-size="10.00"> &lt; gSizeDataDescriptionString,</text>
<text text-anchor="middle" x="372.703" y="-373" font-family="Helvetica,sans-Serif" font-size="10.00"> printDataDescription &gt;</text>
</g>
<!-- Node8&#45;&gt;Node1 -->
<g id="edge11" class="edge"><title>Node8&#45;&gt;Node1</title>
<path fill="none" stroke="#404040" d="M285.588,-150.71C280.49,-137.767 275.394,-124.831 270.649,-112.787"/>
<polygon fill="none" stroke="#404040" points="270.617,-112.706 264.696,-108.59 266.219,-101.541 272.14,-105.658 270.617,-112.706"/>
<text text-anchor="middle" x="315.703" y="-123.5" font-family="Helvetica,sans-Serif" font-size="10.00"> +dataDescription</text>
</g>
</g>
</svg>
        <g id="navigator" transform="translate(0 0)" fill="#404254">
                <rect fill="#f2f5e9" fill-opacity="0.5" stroke="#606060" stroke-width=".5" x="0" y="0" width="60" height="60"/>
                <use id="zoomplus" xlink:href="#zoomPlus" x="17" y="9" onmousedown="handleZoom(evt,'in')"/>
                <use id="zoomminus" xlink:href="#zoomMin" x="42" y="9" onmousedown="handleZoom(evt,'out')"/>
                <use id="reset" xlink:href="#resetDef" x="30" y="36" onmousedown="handleReset()"/>
                <g id="arrowUp" xlink:href="#dirArrow" transform="translate(30 24)" onmousedown="handlePan(0,-1)">
                  <use xlink:href="#rim" fill="#404040">
                        <set attributeName="fill" to="#808080" begin="arrowUp.mouseover" end="arrowUp.mouseout"/>
                  </use>
                  <path fill="none" stroke="white" stroke-width="1.5" d="M0,-3.0v7 M-2.5,-0.5L0,-3.0L2.5,-0.5"/>
                </g>
                <g id="arrowRight" xlink:href="#dirArrow" transform="rotate(90) translate(36 -43)" onmousedown="handlePan(1,0)">
                  <use xlink:href="#rim" fill="#404040">
                        <set attributeName="fill" to="#808080" begin="arrowRight.mouseover" end="arrowRight.mouseout"/>
                  </use>
                  <path fill="none" stroke="white" stroke-width="1.5" d="M0,-3.0v7 M-2.5,-0.5L0,-3.0L2.5,-0.5"/>
                </g>
                <g id="arrowDown" xlink:href="#dirArrow" transform="rotate(180) translate(-30 -48)" onmousedown="handlePan(0,1)">
                  <use xlink:href="#rim" fill="#404040">
                        <set attributeName="fill" to="#808080" begin="arrowDown.mouseover" end="arrowDown.mouseout"/>
                  </use>
                  <path fill="none" stroke="white" stroke-width="1.5" d="M0,-3.0v7 M-2.5,-0.5L0,-3.0L2.5,-0.5"/>
                </g>
                <g id="arrowLeft" xlink:href="#dirArrow" transform="rotate(270) translate(-36 17)" onmousedown="handlePan(-1,0)">
                  <use xlink:href="#rim" fill="#404040">
                        <set attributeName="fill" to="#808080" begin="arrowLeft.mouseover" end="arrowLeft.mouseout"/>
                  </use>
                  <path fill="none" stroke="white" stroke-width="1.5" d="M0,-3.0v7 M-2.5,-0.5L0,-3.0L2.5,-0.5"/>
                </g>
        </g>
        <svg viewBox="0 0 15 15" width="100%" height="30px" preserveAspectRatio="xMaxYMin meet">
         <g id="arrow_out" transform="scale(0.3 0.3)">
          <a xlink:href="structo2_1_1header_1_1DataIdentifier__coll__graph_org.svg" target="_base">
           <rect id="button" ry="5" rx="5" y="6" x="6" height="38" width="38"
                fill="#f2f5e9" fill-opacity="0.5" stroke="#606060" stroke-width="1.0"/>
           <path id="arrow"
             d="M 11.500037,31.436501 C 11.940474,20.09759 22.043105,11.32322 32.158766,21.979434 L 37.068811,17.246167 C 37.068811,17.246167 37.088388,32 37.088388,32 L 22.160133,31.978069 C 22.160133,31.978069 26.997745,27.140456 26.997745,27.140456 C 18.528582,18.264221 13.291696,25.230495 11.500037,31.436501 z"
             style="fill:#404040;"/>
          </a>
         </g>
        </svg>
</svg>
