<?xml version="1.0" encoding="UTF-8" standalone="no"?>
<!DOCTYPE svg PUBLIC "-//W3C//DTD SVG 1.1//EN"
 "http://www.w3.org/Graphics/SVG/1.1/DTD/svg11.dtd">
<!-- Generated by graphviz version 2.36.0 (20140111.2315)
 -->
<!-- Title: /home/travis/build/AliceO2Group/AliceO2/Utilities/Publishers/src/DataPublisherDevice.cxx Pages: 1 -->
<svg width="958pt" height="298pt"
 viewBox="0.00 0.00 958.00 298.00" xmlns="http://www.w3.org/2000/svg" xmlns:xlink="http://www.w3.org/1999/xlink">
<g id="graph0" class="graph" transform="scale(1 1) rotate(0) translate(4 294)">
<title>/home/travis/build/AliceO2Group/AliceO2/Utilities/Publishers/src/DataPublisherDevice.cxx</title>
<!-- Node1 -->
<g id="node1" class="node"><title>Node1</title>
<polygon fill="#bfbfbf" stroke="black" points="593.5,-237 593.5,-289 740.5,-289 740.5,-237 593.5,-237"/>
<text text-anchor="start" x="601.5" y="-277" font-family="Helvetica,sans-Serif" font-size="10.00">/home/travis/build</text>
<text text-anchor="start" x="601.5" y="-266" font-family="Helvetica,sans-Serif" font-size="10.00">/AliceO2Group/AliceO2</text>
<text text-anchor="start" x="601.5" y="-255" font-family="Helvetica,sans-Serif" font-size="10.00">/Utilities/Publishers</text>
<text text-anchor="middle" x="667" y="-244" font-family="Helvetica,sans-Serif" font-size="10.00">/src/DataPublisherDevice.cxx</text>
</g>
<!-- Node2 -->
<g id="node2" class="node"><title>Node2</title>
<g id="a_node2"><a xlink:href="../../d8/d9b/DataPublisherDevice_8h.html" target="_top" xlink:title="Utility device for data publishing. ">
<polygon fill="none" stroke="black" points="603.5,-169 603.5,-199 730.5,-199 730.5,-169 603.5,-169"/>
<text text-anchor="start" x="611.5" y="-187" font-family="Helvetica,sans-Serif" font-size="10.00">Publishers/DataPublisher</text>
<text text-anchor="middle" x="667" y="-176" font-family="Helvetica,sans-Serif" font-size="10.00">Device.h</text>
</a>
</g>
</g>
<!-- Node1&#45;&gt;Node2 -->
<g id="edge1" class="edge"><title>Node1&#45;&gt;Node2</title>
<path fill="none" stroke="midnightblue" d="M667,-236.787C667,-228.029 667,-218.225 667,-209.523"/>
<polygon fill="midnightblue" stroke="midnightblue" points="670.5,-209.252 667,-199.252 663.5,-209.252 670.5,-209.252"/>
</g>
<!-- Node3 -->
<g id="node3" class="node"><title>Node3</title>
<g id="a_node3"><a xlink:href="../../dc/dcd/DataHeader_8h.html" target="_top" xlink:title="Headers/DataHeader.h">
<polygon fill="none" stroke="black" points="517.5,-56.5 517.5,-75.5 634.5,-75.5 634.5,-56.5 517.5,-56.5"/>
<text text-anchor="middle" x="576" y="-63.5" font-family="Helvetica,sans-Serif" font-size="10.00">Headers/DataHeader.h</text>
</a>
</g>
</g>
<!-- Node1&#45;&gt;Node3 -->
<g id="edge21" class="edge"><title>Node1&#45;&gt;Node3</title>
<path fill="none" stroke="midnightblue" d="M627.223,-236.94C614.608,-226.986 601.901,-214.441 594,-200 573.94,-163.333 573.154,-112.753 574.481,-85.7585"/>
<polygon fill="midnightblue" stroke="midnightblue" points="577.976,-85.9481 575.129,-75.743 570.99,-85.4961 577.976,-85.9481"/>
</g>
<!-- Node9 -->
<g id="node9" class="node"><title>Node9</title>
<g id="a_node9"><a xlink:href="../../d2/d09/HeartbeatFrame_8h.html" target="_top" xlink:title="Headers/HeartbeatFrame.h">
<polygon fill="none" stroke="black" points="691.5,-112.5 691.5,-131.5 826.5,-131.5 826.5,-112.5 691.5,-112.5"/>
<text text-anchor="middle" x="759" y="-119.5" font-family="Helvetica,sans-Serif" font-size="10.00">Headers/HeartbeatFrame.h</text>
</a>
</g>
</g>
<!-- Node1&#45;&gt;Node9 -->
<g id="edge22" class="edge"><title>Node1&#45;&gt;Node9</title>
<path fill="none" stroke="midnightblue" d="M704.535,-236.89C717.127,-226.776 730.192,-214.142 739,-200 750.153,-182.092 755.117,-158.14 757.307,-141.733"/>
<polygon fill="midnightblue" stroke="midnightblue" points="760.791,-142.074 758.422,-131.747 753.834,-141.297 760.791,-142.074"/>
</g>
<!-- Node15 -->
<g id="node15" class="node"><title>Node15</title>
<polygon fill="none" stroke="#bfbfbf" points="0,-56.5 0,-75.5 146,-75.5 146,-56.5 0,-56.5"/>
<text text-anchor="middle" x="73" y="-63.5" font-family="Helvetica,sans-Serif" font-size="10.00">options/FairMQProgOptions.h</text>
</g>
<!-- Node1&#45;&gt;Node15 -->
<g id="edge25" class="edge"><title>Node1&#45;&gt;Node15</title>
<path fill="none" stroke="midnightblue" d="M593.27,-237.796C464.665,-195.577 203.967,-109.994 108.805,-78.754"/>
<polygon fill="midnightblue" stroke="midnightblue" points="109.669,-75.354 99.0759,-75.5603 107.485,-82.0048 109.669,-75.354"/>
</g>
<!-- Node18 -->
<g id="node18" class="node"><title>Node18</title>
<g id="a_node18"><a xlink:href="../../d2/d1b/SubframeMetadata_8h.html" target="_top" xlink:title="Headers/SubframeMetadata.h">
<polygon fill="none" stroke="black" points="803.5,-174.5 803.5,-193.5 950.5,-193.5 950.5,-174.5 803.5,-174.5"/>
<text text-anchor="middle" x="877" y="-181.5" font-family="Helvetica,sans-Serif" font-size="10.00">Headers/SubframeMetadata.h</text>
</a>
</g>
</g>
<!-- Node1&#45;&gt;Node18 -->
<g id="edge23" class="edge"><title>Node1&#45;&gt;Node18</title>
<path fill="none" stroke="midnightblue" d="M735.471,-236.894C771.874,-223.546 814.969,-207.745 843.961,-197.114"/>
<polygon fill="midnightblue" stroke="midnightblue" points="845.409,-200.311 853.593,-193.583 842.999,-193.739 845.409,-200.311"/>
</g>
<!-- Node2&#45;&gt;Node3 -->
<g id="edge2" class="edge"><title>Node2&#45;&gt;Node3</title>
<path fill="none" stroke="midnightblue" d="M655.842,-168.776C638.998,-147.306 607.145,-106.701 589.182,-83.8034"/>
<polygon fill="midnightblue" stroke="midnightblue" points="591.757,-81.4146 582.83,-75.707 586.249,-85.7352 591.757,-81.4146"/>
</g>
<!-- Node7 -->
<g id="node7" class="node"><title>Node7</title>
<polygon fill="none" stroke="#bfbfbf" points="663,-0.5 663,-19.5 709,-19.5 709,-0.5 663,-0.5"/>
<text text-anchor="middle" x="686" y="-7.5" font-family="Helvetica,sans-Serif" font-size="10.00">cstring</text>
</g>
<!-- Node2&#45;&gt;Node7 -->
<g id="edge19" class="edge"><title>Node2&#45;&gt;Node7</title>
<path fill="none" stroke="midnightblue" d="M668.555,-168.925C671.963,-138.073 680.092,-64.4842 683.928,-29.7549"/>
<polygon fill="midnightblue" stroke="midnightblue" points="687.432,-29.9085 685.052,-19.5847 680.475,-29.1399 687.432,-29.9085"/>
</g>
<!-- Node2&#45;&gt;Node9 -->
<g id="edge8" class="edge"><title>Node2&#45;&gt;Node9</title>
<path fill="none" stroke="midnightblue" d="M688.803,-168.781C703.5,-159.196 722.804,-146.606 737.448,-137.056"/>
<polygon fill="midnightblue" stroke="midnightblue" points="739.417,-139.95 745.881,-131.556 735.593,-134.087 739.417,-139.95"/>
</g>
<!-- Node12 -->
<g id="node12" class="node"><title>Node12</title>
<polygon fill="none" stroke="#bfbfbf" points="833,-56.5 833,-75.5 877,-75.5 877,-56.5 833,-56.5"/>
<text text-anchor="middle" x="855" y="-63.5" font-family="Helvetica,sans-Serif" font-size="10.00">vector</text>
</g>
<!-- Node2&#45;&gt;Node12 -->
<g id="edge20" class="edge"><title>Node2&#45;&gt;Node12</title>
<path fill="none" stroke="midnightblue" d="M730.681,-178.083C765.688,-172.186 807.468,-159.429 835,-132 847.144,-119.902 851.946,-100.619 853.828,-86.1927"/>
<polygon fill="midnightblue" stroke="midnightblue" points="857.345,-86.1778 854.796,-75.8942 850.376,-85.5228 857.345,-86.1778"/>
</g>
<!-- Node13 -->
<g id="node13" class="node"><title>Node13</title>
<g id="a_node13"><a xlink:href="../../d2/dee/O2Device_8h.html" target="_top" xlink:title="O2Device/O2Device.h">
<polygon fill="none" stroke="black" points="351.5,-112.5 351.5,-131.5 466.5,-131.5 466.5,-112.5 351.5,-112.5"/>
<text text-anchor="middle" x="409" y="-119.5" font-family="Helvetica,sans-Serif" font-size="10.00">O2Device/O2Device.h</text>
</a>
</g>
</g>
<!-- Node2&#45;&gt;Node13 -->
<g id="edge13" class="edge"><title>Node2&#45;&gt;Node13</title>
<path fill="none" stroke="midnightblue" d="M606.51,-168.933C560.319,-158.19 497.617,-143.609 455.356,-133.78"/>
<polygon fill="midnightblue" stroke="midnightblue" points="456.137,-130.369 445.605,-131.513 454.552,-137.187 456.137,-130.369"/>
</g>
<!-- Node4 -->
<g id="node4" class="node"><title>Node4</title>
<polygon fill="none" stroke="#bfbfbf" points="599,-0.5 599,-19.5 645,-19.5 645,-0.5 599,-0.5"/>
<text text-anchor="middle" x="622" y="-7.5" font-family="Helvetica,sans-Serif" font-size="10.00">cstdint</text>
</g>
<!-- Node3&#45;&gt;Node4 -->
<g id="edge3" class="edge"><title>Node3&#45;&gt;Node4</title>
<path fill="none" stroke="midnightblue" d="M583.596,-56.083C590.227,-48.2982 600.021,-36.8015 608.058,-27.3665"/>
<polygon fill="midnightblue" stroke="midnightblue" points="610.725,-29.6332 614.545,-19.7511 605.396,-25.0939 610.725,-29.6332"/>
</g>
<!-- Node5 -->
<g id="node5" class="node"><title>Node5</title>
<polygon fill="none" stroke="#bfbfbf" points="387,-0.5 387,-19.5 439,-19.5 439,-0.5 387,-0.5"/>
<text text-anchor="middle" x="413" y="-7.5" font-family="Helvetica,sans-Serif" font-size="10.00">memory</text>
</g>
<!-- Node3&#45;&gt;Node5 -->
<g id="edge4" class="edge"><title>Node3&#45;&gt;Node5</title>
<path fill="none" stroke="midnightblue" d="M550.172,-56.4435C522.751,-47.3591 479.223,-32.9388 448.568,-22.7831"/>
<polygon fill="midnightblue" stroke="midnightblue" points="449.3,-19.3389 438.707,-19.5164 447.099,-25.9837 449.3,-19.3389"/>
</g>
<!-- Node6 -->
<g id="node6" class="node"><title>Node6</title>
<polygon fill="none" stroke="#bfbfbf" points="457.5,-0.5 457.5,-19.5 506.5,-19.5 506.5,-0.5 457.5,-0.5"/>
<text text-anchor="middle" x="482" y="-7.5" font-family="Helvetica,sans-Serif" font-size="10.00">cassert</text>
</g>
<!-- Node3&#45;&gt;Node6 -->
<g id="edge5" class="edge"><title>Node3&#45;&gt;Node6</title>
<path fill="none" stroke="midnightblue" d="M560.897,-56.324C546.097,-47.8215 523.306,-34.7288 506.018,-24.7975"/>
<polygon fill="midnightblue" stroke="midnightblue" points="507.48,-21.6009 497.065,-19.6545 503.993,-27.6707 507.48,-21.6009"/>
</g>
<!-- Node3&#45;&gt;Node7 -->
<g id="edge6" class="edge"><title>Node3&#45;&gt;Node7</title>
<path fill="none" stroke="midnightblue" d="M593.673,-56.324C611.394,-47.6247 638.903,-34.1202 659.288,-24.113"/>
<polygon fill="midnightblue" stroke="midnightblue" points="660.936,-27.2031 668.37,-19.6545 657.851,-20.9195 660.936,-27.2031"/>
</g>
<!-- Node8 -->
<g id="node8" class="node"><title>Node8</title>
<polygon fill="none" stroke="#bfbfbf" points="525,-0.5 525,-19.5 581,-19.5 581,-0.5 525,-0.5"/>
<text text-anchor="middle" x="553" y="-7.5" font-family="Helvetica,sans-Serif" font-size="10.00">algorithm</text>
</g>
<!-- Node3&#45;&gt;Node8 -->
<g id="edge7" class="edge"><title>Node3&#45;&gt;Node8</title>
<path fill="none" stroke="midnightblue" d="M572.202,-56.083C569.087,-48.77 564.577,-38.1814 560.711,-29.1034"/>
<polygon fill="midnightblue" stroke="midnightblue" points="563.866,-27.5798 556.727,-19.7511 557.426,-30.3229 563.866,-27.5798"/>
</g>
<!-- Node9&#45;&gt;Node3 -->
<g id="edge9" class="edge"><title>Node9&#45;&gt;Node3</title>
<path fill="none" stroke="midnightblue" d="M730.003,-112.444C698.815,-103.241 649.07,-88.5617 614.592,-78.3879"/>
<polygon fill="midnightblue" stroke="midnightblue" points="615.443,-74.9898 604.861,-75.5164 613.462,-81.7036 615.443,-74.9898"/>
</g>
<!-- Node10 -->
<g id="node10" class="node"><title>Node10</title>
<polygon fill="none" stroke="#bfbfbf" points="697.5,-56.5 697.5,-75.5 756.5,-75.5 756.5,-56.5 697.5,-56.5"/>
<text text-anchor="middle" x="727" y="-63.5" font-family="Helvetica,sans-Serif" font-size="10.00">functional</text>
</g>
<!-- Node9&#45;&gt;Node10 -->
<g id="edge10" class="edge"><title>Node9&#45;&gt;Node10</title>
<path fill="none" stroke="midnightblue" d="M753.716,-112.083C749.289,-104.613 742.837,-93.7244 737.382,-84.5199"/>
<polygon fill="midnightblue" stroke="midnightblue" points="740.295,-82.5697 732.186,-75.7511 734.273,-86.1383 740.295,-82.5697"/>
</g>
<!-- Node11 -->
<g id="node11" class="node"><title>Node11</title>
<polygon fill="none" stroke="#bfbfbf" points="774.5,-56.5 774.5,-75.5 809.5,-75.5 809.5,-56.5 774.5,-56.5"/>
<text text-anchor="middle" x="792" y="-63.5" font-family="Helvetica,sans-Serif" font-size="10.00">map</text>
</g>
<!-- Node9&#45;&gt;Node11 -->
<g id="edge11" class="edge"><title>Node9&#45;&gt;Node11</title>
<path fill="none" stroke="midnightblue" d="M764.449,-112.083C769.014,-104.613 775.668,-93.7244 781.293,-84.5199"/>
<polygon fill="midnightblue" stroke="midnightblue" points="784.424,-86.109 786.652,-75.7511 778.451,-82.4588 784.424,-86.109"/>
</g>
<!-- Node9&#45;&gt;Node12 -->
<g id="edge12" class="edge"><title>Node9&#45;&gt;Node12</title>
<path fill="none" stroke="midnightblue" d="M774.424,-112.324C789.54,-103.822 812.815,-90.7288 830.471,-80.7975"/>
<polygon fill="midnightblue" stroke="midnightblue" points="832.614,-83.6077 839.614,-75.6545 829.183,-77.5066 832.614,-83.6077"/>
</g>
<!-- Node13&#45;&gt;Node3 -->
<g id="edge16" class="edge"><title>Node13&#45;&gt;Node3</title>
<path fill="none" stroke="midnightblue" d="M435.462,-112.444C463.678,-103.32 508.54,-88.8133 539.968,-78.6509"/>
<polygon fill="midnightblue" stroke="midnightblue" points="541.224,-81.9234 549.662,-75.5164 539.07,-75.263 541.224,-81.9234"/>
</g>
<!-- Node14 -->
<g id="node14" class="node"><title>Node14</title>
<polygon fill="none" stroke="#bfbfbf" points="411,-56.5 411,-75.5 499,-75.5 499,-56.5 411,-56.5"/>
<text text-anchor="middle" x="455" y="-63.5" font-family="Helvetica,sans-Serif" font-size="10.00">FairMQDevice.h</text>
</g>
<!-- Node13&#45;&gt;Node14 -->
<g id="edge14" class="edge"><title>Node13&#45;&gt;Node14</title>
<path fill="none" stroke="midnightblue" d="M416.596,-112.083C423.227,-104.298 433.021,-92.8015 441.058,-83.3665"/>
<polygon fill="midnightblue" stroke="midnightblue" points="443.725,-85.6332 447.545,-75.7511 438.396,-81.0939 443.725,-85.6332"/>
</g>
<!-- Node13&#45;&gt;Node15 -->
<g id="edge15" class="edge"><title>Node13&#45;&gt;Node15</title>
<path fill="none" stroke="midnightblue" d="M355.76,-112.444C296.04,-102.846 199.259,-87.2916 135.868,-77.1037"/>
<polygon fill="midnightblue" stroke="midnightblue" points="136.42,-73.6476 125.991,-75.5164 135.309,-80.559 136.42,-73.6476"/>
</g>
<!-- Node16 -->
<g id="node16" class="node"><title>Node16</title>
<polygon fill="none" stroke="#bfbfbf" points="164.5,-56.5 164.5,-75.5 315.5,-75.5 315.5,-56.5 164.5,-56.5"/>
<text text-anchor="middle" x="240" y="-63.5" font-family="Helvetica,sans-Serif" font-size="10.00">Monitoring/MonitoringFactory.h</text>
</g>
<!-- Node13&#45;&gt;Node16 -->
<g id="edge17" class="edge"><title>Node13&#45;&gt;Node16</title>
<path fill="none" stroke="midnightblue" d="M382.221,-112.444C353.667,-103.32 308.267,-88.8133 276.463,-78.6509"/>
<polygon fill="midnightblue" stroke="midnightblue" points="277.244,-75.2262 266.653,-75.5164 275.114,-81.8941 277.244,-75.2262"/>
</g>
<!-- Node17 -->
<g id="node17" class="node"><title>Node17</title>
<polygon fill="none" stroke="#bfbfbf" points="333.5,-56.5 333.5,-75.5 392.5,-75.5 392.5,-56.5 333.5,-56.5"/>
<text text-anchor="middle" x="363" y="-63.5" font-family="Helvetica,sans-Serif" font-size="10.00">stdexcept</text>
</g>
<!-- Node13&#45;&gt;Node17 -->
<g id="edge18" class="edge"><title>Node13&#45;&gt;Node17</title>
<path fill="none" stroke="midnightblue" d="M401.404,-112.083C394.773,-104.298 384.979,-92.8015 376.942,-83.3665"/>
<polygon fill="midnightblue" stroke="midnightblue" points="379.604,-81.0939 370.455,-75.7511 374.275,-85.6332 379.604,-81.0939"/>
</g>
<!-- Node18&#45;&gt;Node12 -->
<g id="edge24" class="edge"><title>Node18&#45;&gt;Node12</title>
<path fill="none" stroke="midnightblue" d="M876.544,-174.171C875.725,-160.659 873.638,-134.094 869,-112 867.13,-103.092 864.241,-93.4278 861.573,-85.3472"/>
<polygon fill="midnightblue" stroke="midnightblue" points="864.861,-84.148 858.295,-75.8333 858.243,-86.428 864.861,-84.148"/>
</g>
</g>
</svg>
