<?xml version="1.0" encoding="UTF-8" standalone="no"?>
<!DOCTYPE svg PUBLIC "-//W3C//DTD SVG 1.1//EN"
 "http://www.w3.org/Graphics/SVG/1.1/DTD/svg11.dtd">
<!-- Generated by graphviz version 2.36.0 (20140111.2315)
 -->
<!-- Title: /home/travis/build/AliceO2Group/AliceO2/Detectors/TPC/base/include/TPCBase/CalDet.h Pages: 1 -->
<svg width="2350pt" height="452pt"
 viewBox="0.00 0.00 2350.00 452.00" xmlns="http://www.w3.org/2000/svg" xmlns:xlink="http://www.w3.org/1999/xlink">
<g id="graph0" class="graph" transform="scale(1 1) rotate(0) translate(4 448)">
<title>/home/travis/build/AliceO2Group/AliceO2/Detectors/TPC/base/include/TPCBase/CalDet.h</title>
<!-- Node1 -->
<g id="node1" class="node"><title>Node1</title>
<polygon fill="#bfbfbf" stroke="black" points="801.5,-391 801.5,-443 944.5,-443 944.5,-391 801.5,-391"/>
<text text-anchor="start" x="809.5" y="-431" font-family="Helvetica,sans-Serif" font-size="10.00">/home/travis/build</text>
<text text-anchor="start" x="809.5" y="-420" font-family="Helvetica,sans-Serif" font-size="10.00">/AliceO2Group/AliceO2</text>
<text text-anchor="start" x="809.5" y="-409" font-family="Helvetica,sans-Serif" font-size="10.00">/Detectors/TPC/base/include</text>
<text text-anchor="middle" x="873" y="-398" font-family="Helvetica,sans-Serif" font-size="10.00">/TPCBase/CalDet.h</text>
</g>
<!-- Node2 -->
<g id="node2" class="node"><title>Node2</title>
<g id="a_node2"><a xlink:href="../../dc/df2/CDBInterface_8h.html" target="_top" xlink:title="Simple interface to the CDB manager. ">
<polygon fill="none" stroke="black" points="40.5,-296 40.5,-348 183.5,-348 183.5,-296 40.5,-296"/>
<text text-anchor="start" x="48.5" y="-336" font-family="Helvetica,sans-Serif" font-size="10.00">/home/travis/build</text>
<text text-anchor="start" x="48.5" y="-325" font-family="Helvetica,sans-Serif" font-size="10.00">/AliceO2Group/AliceO2</text>
<text text-anchor="start" x="48.5" y="-314" font-family="Helvetica,sans-Serif" font-size="10.00">/Detectors/TPC/base/include</text>
<text text-anchor="middle" x="112" y="-303" font-family="Helvetica,sans-Serif" font-size="10.00">/TPCBase/CDBInterface.h</text>
</a>
</g>
</g>
<!-- Node1&#45;&gt;Node2 -->
<g id="edge1" class="edge"><title>Node1&#45;&gt;Node2</title>
<path fill="none" stroke="midnightblue" d="M791.014,-415.155C662.938,-412.344 408.272,-400.752 198,-354 190.718,-352.381 183.212,-350.312 175.808,-348.012"/>
<polygon fill="midnightblue" stroke="midnightblue" points="791.067,-418.657 801.138,-415.364 791.212,-411.658 791.067,-418.657"/>
</g>
<!-- Node4 -->
<g id="node4" class="node"><title>Node4</title>
<g id="a_node4"><a xlink:href="../../d1/d8a/testTPCCDBInterface_8cxx.html" target="_top" xlink:title="/home/travis/build\l/AliceO2Group/AliceO2\l/Detectors/TPC/base/test\l/testTPCCDBInterface.cxx">
<polygon fill="none" stroke="black" points="144.5,-196 144.5,-248 279.5,-248 279.5,-196 144.5,-196"/>
<text text-anchor="start" x="152.5" y="-236" font-family="Helvetica,sans-Serif" font-size="10.00">/home/travis/build</text>
<text text-anchor="start" x="152.5" y="-225" font-family="Helvetica,sans-Serif" font-size="10.00">/AliceO2Group/AliceO2</text>
<text text-anchor="start" x="152.5" y="-214" font-family="Helvetica,sans-Serif" font-size="10.00">/Detectors/TPC/base/test</text>
<text text-anchor="middle" x="212" y="-203" font-family="Helvetica,sans-Serif" font-size="10.00">/testTPCCDBInterface.cxx</text>
</a>
</g>
</g>
<!-- Node1&#45;&gt;Node4 -->
<g id="edge7" class="edge"><title>Node1&#45;&gt;Node4</title>
<path fill="none" stroke="midnightblue" d="M791.251,-413.651C627.353,-408.155 270.792,-391.936 231,-354 202.64,-326.963 203.628,-277.832 207.452,-248.029"/>
<polygon fill="midnightblue" stroke="midnightblue" points="791.178,-417.151 801.288,-413.982 791.409,-410.154 791.178,-417.151"/>
</g>
<!-- Node5 -->
<g id="node5" class="node"><title>Node5</title>
<g id="a_node5"><a xlink:href="../../d7/db5/CalDet_8cxx.html" target="_top" xlink:title="/home/travis/build\l/AliceO2Group/AliceO2\l/Detectors/TPC/base/src\l/CalDet.cxx">
<polygon fill="none" stroke="black" points="240,-296 240,-348 366,-348 366,-296 240,-296"/>
<text text-anchor="start" x="248" y="-336" font-family="Helvetica,sans-Serif" font-size="10.00">/home/travis/build</text>
<text text-anchor="start" x="248" y="-325" font-family="Helvetica,sans-Serif" font-size="10.00">/AliceO2Group/AliceO2</text>
<text text-anchor="start" x="248" y="-314" font-family="Helvetica,sans-Serif" font-size="10.00">/Detectors/TPC/base/src</text>
<text text-anchor="middle" x="303" y="-303" font-family="Helvetica,sans-Serif" font-size="10.00">/CalDet.cxx</text>
</a>
</g>
</g>
<!-- Node1&#45;&gt;Node5 -->
<g id="edge4" class="edge"><title>Node1&#45;&gt;Node5</title>
<path fill="none" stroke="midnightblue" d="M791.249,-412.892C691.451,-407.493 518.27,-392.914 375,-354 368.959,-352.359 362.764,-350.307 356.665,-348.044"/>
<polygon fill="midnightblue" stroke="midnightblue" points="791.098,-416.389 801.268,-413.417 791.464,-409.399 791.098,-416.389"/>
</g>
<!-- Node6 -->
<g id="node6" class="node"><title>Node6</title>
<g id="a_node6"><a xlink:href="../../dd/d5f/Painter_8cxx.html" target="_top" xlink:title="/home/travis/build\l/AliceO2Group/AliceO2\l/Detectors/TPC/base/src\l/Painter.cxx">
<polygon fill="none" stroke="black" points="384,-296 384,-348 510,-348 510,-296 384,-296"/>
<text text-anchor="start" x="392" y="-336" font-family="Helvetica,sans-Serif" font-size="10.00">/home/travis/build</text>
<text text-anchor="start" x="392" y="-325" font-family="Helvetica,sans-Serif" font-size="10.00">/AliceO2Group/AliceO2</text>
<text text-anchor="start" x="392" y="-314" font-family="Helvetica,sans-Serif" font-size="10.00">/Detectors/TPC/base/src</text>
<text text-anchor="middle" x="447" y="-303" font-family="Helvetica,sans-Serif" font-size="10.00">/Painter.cxx</text>
</a>
</g>
</g>
<!-- Node1&#45;&gt;Node6 -->
<g id="edge5" class="edge"><title>Node1&#45;&gt;Node6</title>
<path fill="none" stroke="midnightblue" d="M791.354,-407.189C718.791,-398.069 610.365,-381.262 519,-354 513.262,-352.288 507.369,-350.248 501.545,-348.045"/>
<polygon fill="midnightblue" stroke="midnightblue" points="790.996,-410.671 801.35,-408.425 791.855,-403.724 790.996,-410.671"/>
</g>
<!-- Node7 -->
<g id="node7" class="node"><title>Node7</title>
<g id="a_node7"><a xlink:href="../../d4/d43/testTPCCalDet_8cxx.html" target="_top" xlink:title="/home/travis/build\l/AliceO2Group/AliceO2\l/Detectors/TPC/base/test\l/testTPCCalDet.cxx">
<polygon fill="none" stroke="black" points="528.5,-296 528.5,-348 657.5,-348 657.5,-296 528.5,-296"/>
<text text-anchor="start" x="536.5" y="-336" font-family="Helvetica,sans-Serif" font-size="10.00">/home/travis/build</text>
<text text-anchor="start" x="536.5" y="-325" font-family="Helvetica,sans-Serif" font-size="10.00">/AliceO2Group/AliceO2</text>
<text text-anchor="start" x="536.5" y="-314" font-family="Helvetica,sans-Serif" font-size="10.00">/Detectors/TPC/base/test</text>
<text text-anchor="middle" x="593" y="-303" font-family="Helvetica,sans-Serif" font-size="10.00">/testTPCCalDet.cxx</text>
</a>
</g>
</g>
<!-- Node1&#45;&gt;Node7 -->
<g id="edge6" class="edge"><title>Node1&#45;&gt;Node7</title>
<path fill="none" stroke="midnightblue" d="M791.735,-392.441C754.963,-381.394 711.078,-367.673 672,-354 666.715,-352.151 661.259,-350.168 655.798,-348.131"/>
<polygon fill="midnightblue" stroke="midnightblue" points="790.83,-395.823 801.414,-395.336 792.836,-389.117 790.83,-395.823"/>
</g>
<!-- Node8 -->
<g id="node8" class="node"><title>Node8</title>
<g id="a_node8"><a xlink:href="../../da/df1/CalibPedestal_8h.html" target="_top" xlink:title="/home/travis/build\l/AliceO2Group/AliceO2\l/Detectors/TPC/calibration\l/include/TPCCalibration/CalibPedestal.h">
<polygon fill="none" stroke="black" points="1067,-96 1067,-148 1259,-148 1259,-96 1067,-96"/>
<text text-anchor="start" x="1075" y="-136" font-family="Helvetica,sans-Serif" font-size="10.00">/home/travis/build</text>
<text text-anchor="start" x="1075" y="-125" font-family="Helvetica,sans-Serif" font-size="10.00">/AliceO2Group/AliceO2</text>
<text text-anchor="start" x="1075" y="-114" font-family="Helvetica,sans-Serif" font-size="10.00">/Detectors/TPC/calibration</text>
<text text-anchor="middle" x="1163" y="-103" font-family="Helvetica,sans-Serif" font-size="10.00">/include/TPCCalibration/CalibPedestal.h</text>
</a>
</g>
</g>
<!-- Node1&#45;&gt;Node8 -->
<g id="edge8" class="edge"><title>Node1&#45;&gt;Node8</title>
<path fill="none" stroke="midnightblue" d="M955.184,-415.81C1067.75,-410.564 1266.46,-382.389 1359,-254 1375.63,-230.925 1375.54,-213.139 1359,-190 1355.29,-184.817 1295.6,-164.832 1243.06,-148.026"/>
<polygon fill="midnightblue" stroke="midnightblue" points="954.745,-412.325 944.899,-416.237 955.035,-419.319 954.745,-412.325"/>
</g>
<!-- Node10 -->
<g id="node10" class="node"><title>Node10</title>
<g id="a_node10"><a xlink:href="../../d2/d5d/CalibPulser_8h.html" target="_top" xlink:title="/home/travis/build\l/AliceO2Group/AliceO2\l/Detectors/TPC/calibration\l/include/TPCCalibration/CalibPulser.h">
<polygon fill="none" stroke="black" points="1277,-96 1277,-148 1459,-148 1459,-96 1277,-96"/>
<text text-anchor="start" x="1285" y="-136" font-family="Helvetica,sans-Serif" font-size="10.00">/home/travis/build</text>
<text text-anchor="start" x="1285" y="-125" font-family="Helvetica,sans-Serif" font-size="10.00">/AliceO2Group/AliceO2</text>
<text text-anchor="start" x="1285" y="-114" font-family="Helvetica,sans-Serif" font-size="10.00">/Detectors/TPC/calibration</text>
<text text-anchor="middle" x="1368" y="-103" font-family="Helvetica,sans-Serif" font-size="10.00">/include/TPCCalibration/CalibPulser.h</text>
</a>
</g>
</g>
<!-- Node1&#45;&gt;Node10 -->
<g id="edge10" class="edge"><title>Node1&#45;&gt;Node10</title>
<path fill="none" stroke="midnightblue" d="M954.708,-411.088C1061.27,-403.497 1240.85,-386.299 1298,-354 1348.04,-325.72 1360.65,-308.12 1380,-254 1392.53,-218.947 1384.24,-175.423 1376.56,-148.426"/>
<polygon fill="midnightblue" stroke="midnightblue" points="954.361,-407.604 944.63,-411.793 954.85,-414.587 954.361,-407.604"/>
</g>
<!-- Node12 -->
<g id="node12" class="node"><title>Node12</title>
<g id="a_node12"><a xlink:href="../../d2/d9a/CalibTreeDump_8cxx.html" target="_top" xlink:title="/home/travis/build\l/AliceO2Group/AliceO2\l/Detectors/TPC/calibration\l/src/CalibTreeDump.cxx">
<polygon fill="none" stroke="black" points="1873.5,-296 1873.5,-348 2006.5,-348 2006.5,-296 1873.5,-296"/>
<text text-anchor="start" x="1881.5" y="-336" font-family="Helvetica,sans-Serif" font-size="10.00">/home/travis/build</text>
<text text-anchor="start" x="1881.5" y="-325" font-family="Helvetica,sans-Serif" font-size="10.00">/AliceO2Group/AliceO2</text>
<text text-anchor="start" x="1881.5" y="-314" font-family="Helvetica,sans-Serif" font-size="10.00">/Detectors/TPC/calibration</text>
<text text-anchor="middle" x="1940" y="-303" font-family="Helvetica,sans-Serif" font-size="10.00">/src/CalibTreeDump.cxx</text>
</a>
</g>
</g>
<!-- Node1&#45;&gt;Node12 -->
<g id="edge12" class="edge"><title>Node1&#45;&gt;Node12</title>
<path fill="none" stroke="midnightblue" d="M954.605,-414.242C1159.37,-409.293 1690.81,-392.984 1863,-354 1869.75,-352.473 1876.67,-350.428 1883.47,-348.114"/>
<polygon fill="midnightblue" stroke="midnightblue" points="954.431,-410.745 944.517,-414.483 954.598,-417.743 954.431,-410.745"/>
</g>
<!-- Node13 -->
<g id="node13" class="node"><title>Node13</title>
<g id="a_node13"><a xlink:href="../../db/dc3/SimpleEventDisplay_8h.html" target="_top" xlink:title="/home/travis/build\l/AliceO2Group/AliceO2\l/Detectors/TPC/monitor\l/include/TPCMonitor/SimpleEvent\lDisplay.h">
<polygon fill="none" stroke="black" points="1667,-90.5 1667,-153.5 1831,-153.5 1831,-90.5 1667,-90.5"/>
<text text-anchor="start" x="1675" y="-141.5" font-family="Helvetica,sans-Serif" font-size="10.00">/home/travis/build</text>
<text text-anchor="start" x="1675" y="-130.5" font-family="Helvetica,sans-Serif" font-size="10.00">/AliceO2Group/AliceO2</text>
<text text-anchor="start" x="1675" y="-119.5" font-family="Helvetica,sans-Serif" font-size="10.00">/Detectors/TPC/monitor</text>
<text text-anchor="start" x="1675" y="-108.5" font-family="Helvetica,sans-Serif" font-size="10.00">/include/TPCMonitor/SimpleEvent</text>
<text text-anchor="middle" x="1749" y="-97.5" font-family="Helvetica,sans-Serif" font-size="10.00">Display.h</text>
</a>
</g>
</g>
<!-- Node1&#45;&gt;Node13 -->
<g id="edge13" class="edge"><title>Node1&#45;&gt;Node13</title>
<path fill="none" stroke="midnightblue" d="M954.671,-414.78C1143.91,-411.213 1600.32,-398.089 1653,-354 1710.79,-305.638 1662.36,-257.425 1696,-190 1702.42,-177.127 1711.59,-164.39 1720.49,-153.535"/>
<polygon fill="midnightblue" stroke="midnightblue" points="954.435,-411.283 944.501,-414.967 954.564,-418.282 954.435,-411.283"/>
</g>
<!-- Node14 -->
<g id="node14" class="node"><title>Node14</title>
<g id="a_node14"><a xlink:href="../../d7/dd4/RunSimpleEventDisplay_8C.html" target="_top" xlink:title="/home/travis/build\l/AliceO2Group/AliceO2\l/Detectors/TPC/monitor\l/macro/RunSimpleEventDisplay.C">
<polygon fill="none" stroke="black" points="1555.5,-1 1555.5,-53 1722.5,-53 1722.5,-1 1555.5,-1"/>
<text text-anchor="start" x="1563.5" y="-41" font-family="Helvetica,sans-Serif" font-size="10.00">/home/travis/build</text>
<text text-anchor="start" x="1563.5" y="-30" font-family="Helvetica,sans-Serif" font-size="10.00">/AliceO2Group/AliceO2</text>
<text text-anchor="start" x="1563.5" y="-19" font-family="Helvetica,sans-Serif" font-size="10.00">/Detectors/TPC/monitor</text>
<text text-anchor="middle" x="1639" y="-8" font-family="Helvetica,sans-Serif" font-size="10.00">/macro/RunSimpleEventDisplay.C</text>
</a>
</g>
</g>
<!-- Node1&#45;&gt;Node14 -->
<g id="edge16" class="edge"><title>Node1&#45;&gt;Node14</title>
<path fill="none" stroke="midnightblue" d="M954.675,-411.159C1131.37,-398.766 1539.69,-359.125 1620,-254 1665.54,-194.394 1653.82,-98.3523 1644.85,-53.1077"/>
<polygon fill="midnightblue" stroke="midnightblue" points="954.386,-407.67 944.651,-411.85 954.868,-414.654 954.386,-407.67"/>
</g>
<!-- Node16 -->
<g id="node16" class="node"><title>Node16</title>
<g id="a_node16"><a xlink:href="../../d2/df8/BoxClusterer_8h.html" target="_top" xlink:title="Class for TPC cluster finding. ">
<polygon fill="none" stroke="black" points="714,-290.5 714,-353.5 864,-353.5 864,-290.5 714,-290.5"/>
<text text-anchor="start" x="722" y="-341.5" font-family="Helvetica,sans-Serif" font-size="10.00">/home/travis/build</text>
<text text-anchor="start" x="722" y="-330.5" font-family="Helvetica,sans-Serif" font-size="10.00">/AliceO2Group/AliceO2</text>
<text text-anchor="start" x="722" y="-319.5" font-family="Helvetica,sans-Serif" font-size="10.00">/Detectors/TPC/reconstruction</text>
<text text-anchor="start" x="722" y="-308.5" font-family="Helvetica,sans-Serif" font-size="10.00">/include/TPCReconstruction</text>
<text text-anchor="middle" x="789" y="-297.5" font-family="Helvetica,sans-Serif" font-size="10.00">/BoxClusterer.h</text>
</a>
</g>
</g>
<!-- Node1&#45;&gt;Node16 -->
<g id="edge17" class="edge"><title>Node1&#45;&gt;Node16</title>
<path fill="none" stroke="midnightblue" d="M843.303,-383.121C834.65,-373.541 825.233,-363.115 816.708,-353.677"/>
<polygon fill="midnightblue" stroke="midnightblue" points="840.746,-385.512 850.047,-390.587 845.941,-380.82 840.746,-385.512"/>
</g>
<!-- Node21 -->
<g id="node21" class="node"><title>Node21</title>
<g id="a_node21"><a xlink:href="../../d5/db8/RawClusterFinder_8C.html" target="_top" xlink:title="/home/travis/build\l/AliceO2Group/AliceO2\l/Detectors/TPC/reconstruction\l/macro/RawClusterFinder.C">
<polygon fill="none" stroke="black" points="573,-96 573,-148 723,-148 723,-96 573,-96"/>
<text text-anchor="start" x="581" y="-136" font-family="Helvetica,sans-Serif" font-size="10.00">/home/travis/build</text>
<text text-anchor="start" x="581" y="-125" font-family="Helvetica,sans-Serif" font-size="10.00">/AliceO2Group/AliceO2</text>
<text text-anchor="start" x="581" y="-114" font-family="Helvetica,sans-Serif" font-size="10.00">/Detectors/TPC/reconstruction</text>
<text text-anchor="middle" x="648" y="-103" font-family="Helvetica,sans-Serif" font-size="10.00">/macro/RawClusterFinder.C</text>
</a>
</g>
</g>
<!-- Node1&#45;&gt;Node21 -->
<g id="edge42" class="edge"><title>Node1&#45;&gt;Node21</title>
<path fill="none" stroke="midnightblue" d="M791.475,-397.925C761.952,-388.445 729.804,-374.41 705,-354 679.279,-332.835 693.477,-308.83 666,-290 591.499,-238.943 523.932,-323.29 466,-254 447.755,-232.178 449.728,-213.33 466,-190 490.077,-155.479 534.034,-138.696 572.716,-130.559"/>
<polygon fill="midnightblue" stroke="midnightblue" points="790.785,-401.375 801.372,-400.968 792.843,-394.684 790.785,-401.375"/>
</g>
<!-- Node24 -->
<g id="node24" class="node"><title>Node24</title>
<g id="a_node24"><a xlink:href="../../de/df6/HwClusterer_8h.html" target="_top" xlink:title="Class for TPC HW cluster finding. ">
<polygon fill="none" stroke="black" points="882,-290.5 882,-353.5 1032,-353.5 1032,-290.5 882,-290.5"/>
<text text-anchor="start" x="890" y="-341.5" font-family="Helvetica,sans-Serif" font-size="10.00">/home/travis/build</text>
<text text-anchor="start" x="890" y="-330.5" font-family="Helvetica,sans-Serif" font-size="10.00">/AliceO2Group/AliceO2</text>
<text text-anchor="start" x="890" y="-319.5" font-family="Helvetica,sans-Serif" font-size="10.00">/Detectors/TPC/reconstruction</text>
<text text-anchor="start" x="890" y="-308.5" font-family="Helvetica,sans-Serif" font-size="10.00">/include/TPCReconstruction</text>
<text text-anchor="middle" x="957" y="-297.5" font-family="Helvetica,sans-Serif" font-size="10.00">/HwClusterer.h</text>
</a>
</g>
</g>
<!-- Node1&#45;&gt;Node24 -->
<g id="edge25" class="edge"><title>Node1&#45;&gt;Node24</title>
<path fill="none" stroke="midnightblue" d="M902.697,-383.121C911.35,-373.541 920.767,-363.115 929.292,-353.677"/>
<polygon fill="midnightblue" stroke="midnightblue" points="900.059,-380.82 895.953,-390.587 905.254,-385.512 900.059,-380.82"/>
</g>
<!-- Node28 -->
<g id="node28" class="node"><title>Node28</title>
<g id="a_node28"><a xlink:href="../../d3/d11/RawReader_8h.html" target="_top" xlink:title="/home/travis/build\l/AliceO2Group/AliceO2\l/Detectors/TPC/reconstruction\l/include/TPCReconstruction\l/RawReader.h">
<polygon fill="none" stroke="black" points="1705,-290.5 1705,-353.5 1855,-353.5 1855,-290.5 1705,-290.5"/>
<text text-anchor="start" x="1713" y="-341.5" font-family="Helvetica,sans-Serif" font-size="10.00">/home/travis/build</text>
<text text-anchor="start" x="1713" y="-330.5" font-family="Helvetica,sans-Serif" font-size="10.00">/AliceO2Group/AliceO2</text>
<text text-anchor="start" x="1713" y="-319.5" font-family="Helvetica,sans-Serif" font-size="10.00">/Detectors/TPC/reconstruction</text>
<text text-anchor="start" x="1713" y="-308.5" font-family="Helvetica,sans-Serif" font-size="10.00">/include/TPCReconstruction</text>
<text text-anchor="middle" x="1780" y="-297.5" font-family="Helvetica,sans-Serif" font-size="10.00">/RawReader.h</text>
</a>
</g>
</g>
<!-- Node1&#45;&gt;Node28 -->
<g id="edge31" class="edge"><title>Node1&#45;&gt;Node28</title>
<path fill="none" stroke="midnightblue" d="M955.103,-416.768C1103.6,-416.617 1426,-409.213 1691,-354 1695.49,-353.066 1700.05,-351.965 1704.63,-350.745"/>
<polygon fill="midnightblue" stroke="midnightblue" points="954.716,-413.268 944.715,-416.767 954.715,-420.268 954.716,-413.268"/>
</g>
<!-- Node3 -->
<g id="node3" class="node"><title>Node3</title>
<g id="a_node3"><a xlink:href="../../dc/d71/CDBInterface_8cxx.html" target="_top" xlink:title="/home/travis/build\l/AliceO2Group/AliceO2\l/Detectors/TPC/base/src\l/CDBInterface.cxx">
<polygon fill="none" stroke="black" points="0,-196 0,-248 126,-248 126,-196 0,-196"/>
<text text-anchor="start" x="8" y="-236" font-family="Helvetica,sans-Serif" font-size="10.00">/home/travis/build</text>
<text text-anchor="start" x="8" y="-225" font-family="Helvetica,sans-Serif" font-size="10.00">/AliceO2Group/AliceO2</text>
<text text-anchor="start" x="8" y="-214" font-family="Helvetica,sans-Serif" font-size="10.00">/Detectors/TPC/base/src</text>
<text text-anchor="middle" x="63" y="-203" font-family="Helvetica,sans-Serif" font-size="10.00">/CDBInterface.cxx</text>
</a>
</g>
</g>
<!-- Node2&#45;&gt;Node3 -->
<g id="edge2" class="edge"><title>Node2&#45;&gt;Node3</title>
<path fill="none" stroke="midnightblue" d="M94.909,-286.818C88.5506,-274.101 81.4571,-259.914 75.576,-248.152"/>
<polygon fill="midnightblue" stroke="midnightblue" points="91.7786,-288.384 99.3813,-295.763 98.0396,-285.253 91.7786,-288.384"/>
</g>
<!-- Node2&#45;&gt;Node4 -->
<g id="edge3" class="edge"><title>Node2&#45;&gt;Node4</title>
<path fill="none" stroke="midnightblue" d="M145.001,-288.659C158.445,-275.484 173.75,-260.485 186.335,-248.152"/>
<polygon fill="midnightblue" stroke="midnightblue" points="142.445,-286.263 137.752,-295.763 147.344,-291.263 142.445,-286.263"/>
</g>
<!-- Node9 -->
<g id="node9" class="node"><title>Node9</title>
<g id="a_node9"><a xlink:href="../../d6/d99/CalibPedestal_8cxx.html" target="_top" xlink:title="/home/travis/build\l/AliceO2Group/AliceO2\l/Detectors/TPC/calibration\l/src/CalibPedestal.cxx">
<polygon fill="none" stroke="black" points="1096.5,-1 1096.5,-53 1229.5,-53 1229.5,-1 1096.5,-1"/>
<text text-anchor="start" x="1104.5" y="-41" font-family="Helvetica,sans-Serif" font-size="10.00">/home/travis/build</text>
<text text-anchor="start" x="1104.5" y="-30" font-family="Helvetica,sans-Serif" font-size="10.00">/AliceO2Group/AliceO2</text>
<text text-anchor="start" x="1104.5" y="-19" font-family="Helvetica,sans-Serif" font-size="10.00">/Detectors/TPC/calibration</text>
<text text-anchor="middle" x="1163" y="-8" font-family="Helvetica,sans-Serif" font-size="10.00">/src/CalibPedestal.cxx</text>
</a>
</g>
</g>
<!-- Node8&#45;&gt;Node9 -->
<g id="edge9" class="edge"><title>Node8&#45;&gt;Node9</title>
<path fill="none" stroke="midnightblue" d="M1163,-85.5493C1163,-74.7221 1163,-63.0464 1163,-53.0599"/>
<polygon fill="midnightblue" stroke="midnightblue" points="1159.5,-85.5873 1163,-95.5873 1166.5,-85.5874 1159.5,-85.5873"/>
</g>
<!-- Node11 -->
<g id="node11" class="node"><title>Node11</title>
<g id="a_node11"><a xlink:href="../../d4/ddc/CalibPulser_8cxx.html" target="_top" xlink:title="/home/travis/build\l/AliceO2Group/AliceO2\l/Detectors/TPC/calibration\l/src/CalibPulser.cxx">
<polygon fill="none" stroke="black" points="1301.5,-1 1301.5,-53 1434.5,-53 1434.5,-1 1301.5,-1"/>
<text text-anchor="start" x="1309.5" y="-41" font-family="Helvetica,sans-Serif" font-size="10.00">/home/travis/build</text>
<text text-anchor="start" x="1309.5" y="-30" font-family="Helvetica,sans-Serif" font-size="10.00">/AliceO2Group/AliceO2</text>
<text text-anchor="start" x="1309.5" y="-19" font-family="Helvetica,sans-Serif" font-size="10.00">/Detectors/TPC/calibration</text>
<text text-anchor="middle" x="1368" y="-8" font-family="Helvetica,sans-Serif" font-size="10.00">/src/CalibPulser.cxx</text>
</a>
</g>
</g>
<!-- Node10&#45;&gt;Node11 -->
<g id="edge11" class="edge"><title>Node10&#45;&gt;Node11</title>
<path fill="none" stroke="midnightblue" d="M1368,-85.5493C1368,-74.7221 1368,-63.0464 1368,-53.0599"/>
<polygon fill="midnightblue" stroke="midnightblue" points="1364.5,-85.5873 1368,-95.5873 1371.5,-85.5874 1364.5,-85.5873"/>
</g>
<!-- Node13&#45;&gt;Node14 -->
<g id="edge14" class="edge"><title>Node13&#45;&gt;Node14</title>
<path fill="none" stroke="midnightblue" d="M1704.83,-83.6542C1692.68,-73.3858 1679.8,-62.4973 1668.69,-53.1001"/>
<polygon fill="midnightblue" stroke="midnightblue" points="1702.78,-86.507 1712.68,-90.2906 1707.3,-81.1615 1702.78,-86.507"/>
</g>
<!-- Node15 -->
<g id="node15" class="node"><title>Node15</title>
<g id="a_node15"><a xlink:href="../../d9/df5/SimpleEventDisplay_8cxx.html" target="_top" xlink:title="/home/travis/build\l/AliceO2Group/AliceO2\l/Detectors/TPC/monitor\l/src/SimpleEventDisplay.cxx">
<polygon fill="none" stroke="black" points="1740.5,-1 1740.5,-53 1883.5,-53 1883.5,-1 1740.5,-1"/>
<text text-anchor="start" x="1748.5" y="-41" font-family="Helvetica,sans-Serif" font-size="10.00">/home/travis/build</text>
<text text-anchor="start" x="1748.5" y="-30" font-family="Helvetica,sans-Serif" font-size="10.00">/AliceO2Group/AliceO2</text>
<text text-anchor="start" x="1748.5" y="-19" font-family="Helvetica,sans-Serif" font-size="10.00">/Detectors/TPC/monitor</text>
<text text-anchor="middle" x="1812" y="-8" font-family="Helvetica,sans-Serif" font-size="10.00">/src/SimpleEventDisplay.cxx</text>
</a>
</g>
</g>
<!-- Node13&#45;&gt;Node15 -->
<g id="edge15" class="edge"><title>Node13&#45;&gt;Node15</title>
<path fill="none" stroke="midnightblue" d="M1775.5,-81.8882C1782.09,-72.1463 1788.99,-61.9603 1795,-53.1001"/>
<polygon fill="midnightblue" stroke="midnightblue" points="1772.51,-80.0484 1769.8,-90.2906 1778.31,-83.9744 1772.51,-80.0484"/>
</g>
<!-- Node17 -->
<g id="node17" class="node"><title>Node17</title>
<g id="a_node17"><a xlink:href="../../de/d64/TPC_2reconstruction_2include_2TPCReconstruction_2ClustererTask_8h.html" target="_top" xlink:title="/home/travis/build\l/AliceO2Group/AliceO2\l/Detectors/TPC/reconstruction\l/include/TPCReconstruction\l/ClustererTask.h">
<polygon fill="none" stroke="black" points="719,-190.5 719,-253.5 869,-253.5 869,-190.5 719,-190.5"/>
<text text-anchor="start" x="727" y="-241.5" font-family="Helvetica,sans-Serif" font-size="10.00">/home/travis/build</text>
<text text-anchor="start" x="727" y="-230.5" font-family="Helvetica,sans-Serif" font-size="10.00">/AliceO2Group/AliceO2</text>
<text text-anchor="start" x="727" y="-219.5" font-family="Helvetica,sans-Serif" font-size="10.00">/Detectors/TPC/reconstruction</text>
<text text-anchor="start" x="727" y="-208.5" font-family="Helvetica,sans-Serif" font-size="10.00">/include/TPCReconstruction</text>
<text text-anchor="middle" x="794" y="-197.5" font-family="Helvetica,sans-Serif" font-size="10.00">/ClustererTask.h</text>
</a>
</g>
</g>
<!-- Node16&#45;&gt;Node17 -->
<g id="edge18" class="edge"><title>Node16&#45;&gt;Node17</title>
<path fill="none" stroke="midnightblue" d="M791.087,-280.099C791.539,-271.238 792.009,-262.015 792.437,-253.63"/>
<polygon fill="midnightblue" stroke="midnightblue" points="787.582,-280.096 790.568,-290.261 794.573,-280.452 787.582,-280.096"/>
</g>
<!-- Node16&#45;&gt;Node21 -->
<g id="edge22" class="edge"><title>Node16&#45;&gt;Node21</title>
<path fill="none" stroke="midnightblue" d="M709.381,-284.713C697.075,-276.144 685.614,-265.946 677,-254 654.247,-222.448 648.838,-176.314 647.828,-148.05"/>
<polygon fill="midnightblue" stroke="midnightblue" points="707.732,-287.818 718.011,-290.387 711.577,-281.969 707.732,-287.818"/>
</g>
<!-- Node23 -->
<g id="node23" class="node"><title>Node23</title>
<g id="a_node23"><a xlink:href="../../da/d67/BoxClusterer_8cxx.html" target="_top" xlink:title="/home/travis/build\l/AliceO2Group/AliceO2\l/Detectors/TPC/reconstruction\l/src/BoxClusterer.cxx">
<polygon fill="none" stroke="black" points="475,-196 475,-248 625,-248 625,-196 475,-196"/>
<text text-anchor="start" x="483" y="-236" font-family="Helvetica,sans-Serif" font-size="10.00">/home/travis/build</text>
<text text-anchor="start" x="483" y="-225" font-family="Helvetica,sans-Serif" font-size="10.00">/AliceO2Group/AliceO2</text>
<text text-anchor="start" x="483" y="-214" font-family="Helvetica,sans-Serif" font-size="10.00">/Detectors/TPC/reconstruction</text>
<text text-anchor="middle" x="550" y="-203" font-family="Helvetica,sans-Serif" font-size="10.00">/src/BoxClusterer.cxx</text>
</a>
</g>
</g>
<!-- Node16&#45;&gt;Node23 -->
<g id="edge24" class="edge"><title>Node16&#45;&gt;Node23</title>
<path fill="none" stroke="midnightblue" d="M704.908,-286.519C674.055,-273.868 639.739,-259.797 611.264,-248.121"/>
<polygon fill="midnightblue" stroke="midnightblue" points="703.782,-289.84 714.362,-290.395 706.437,-283.363 703.782,-289.84"/>
</g>
<!-- Node18 -->
<g id="node18" class="node"><title>Node18</title>
<g id="a_node18"><a xlink:href="../../d8/d0f/TPC_2reconstruction_2src_2ClustererTask_8cxx.html" target="_top" xlink:title="/home/travis/build\l/AliceO2Group/AliceO2\l/Detectors/TPC/reconstruction\l/src/ClustererTask.cxx">
<polygon fill="none" stroke="black" points="877,-96 877,-148 1027,-148 1027,-96 877,-96"/>
<text text-anchor="start" x="885" y="-136" font-family="Helvetica,sans-Serif" font-size="10.00">/home/travis/build</text>
<text text-anchor="start" x="885" y="-125" font-family="Helvetica,sans-Serif" font-size="10.00">/AliceO2Group/AliceO2</text>
<text text-anchor="start" x="885" y="-114" font-family="Helvetica,sans-Serif" font-size="10.00">/Detectors/TPC/reconstruction</text>
<text text-anchor="middle" x="952" y="-103" font-family="Helvetica,sans-Serif" font-size="10.00">/src/ClustererTask.cxx</text>
</a>
</g>
</g>
<!-- Node17&#45;&gt;Node18 -->
<g id="edge19" class="edge"><title>Node17&#45;&gt;Node18</title>
<path fill="none" stroke="midnightblue" d="M852.186,-184.91C871.936,-172.66 893.555,-159.251 911.608,-148.054"/>
<polygon fill="midnightblue" stroke="midnightblue" points="850.212,-182.016 843.559,-190.261 853.902,-187.964 850.212,-182.016"/>
</g>
<!-- Node19 -->
<g id="node19" class="node"><title>Node19</title>
<g id="a_node19"><a xlink:href="../../df/d9b/run__clus__tpc_8C.html" target="_top" xlink:title="/home/travis/build\l/AliceO2Group/AliceO2\l/macro/run_clus_tpc.C">
<polygon fill="none" stroke="black" points="741,-101.5 741,-142.5 859,-142.5 859,-101.5 741,-101.5"/>
<text text-anchor="start" x="749" y="-130.5" font-family="Helvetica,sans-Serif" font-size="10.00">/home/travis/build</text>
<text text-anchor="start" x="749" y="-119.5" font-family="Helvetica,sans-Serif" font-size="10.00">/AliceO2Group/AliceO2</text>
<text text-anchor="middle" x="800" y="-108.5" font-family="Helvetica,sans-Serif" font-size="10.00">/macro/run_clus_tpc.C</text>
</a>
</g>
</g>
<!-- Node17&#45;&gt;Node19 -->
<g id="edge20" class="edge"><title>Node17&#45;&gt;Node19</title>
<path fill="none" stroke="midnightblue" d="M796.506,-180.074C797.302,-167.072 798.145,-153.29 798.804,-142.527"/>
<polygon fill="midnightblue" stroke="midnightblue" points="793,-180.066 795.882,-190.261 799.987,-180.494 793,-180.066"/>
</g>
<!-- Node20 -->
<g id="node20" class="node"><title>Node20</title>
<g id="a_node20"><a xlink:href="../../d3/d56/runTPC_8cxx.html" target="_top" xlink:title="/home/travis/build\l/AliceO2Group/AliceO2\l/run/runTPC.cxx">
<polygon fill="none" stroke="black" points="742,-6.5 742,-47.5 860,-47.5 860,-6.5 742,-6.5"/>
<text text-anchor="start" x="750" y="-35.5" font-family="Helvetica,sans-Serif" font-size="10.00">/home/travis/build</text>
<text text-anchor="start" x="750" y="-24.5" font-family="Helvetica,sans-Serif" font-size="10.00">/AliceO2Group/AliceO2</text>
<text text-anchor="middle" x="801" y="-13.5" font-family="Helvetica,sans-Serif" font-size="10.00">/run/runTPC.cxx</text>
</a>
</g>
</g>
<!-- Node19&#45;&gt;Node20 -->
<g id="edge21" class="edge"><title>Node19&#45;&gt;Node20</title>
<path fill="none" stroke="midnightblue" d="M800.323,-90.9916C800.475,-76.8048 800.653,-60.2651 800.788,-47.6945"/>
<polygon fill="midnightblue" stroke="midnightblue" points="796.82,-91.24 800.212,-101.277 803.819,-91.3153 796.82,-91.24"/>
</g>
<!-- Node22 -->
<g id="node22" class="node"><title>Node22</title>
<g id="a_node22"><a xlink:href="../../df/da0/runRawClusterFinder_8C.html" target="_top" xlink:title="/home/travis/build\l/AliceO2Group/AliceO2\l/Detectors/TPC/reconstruction\l/macro/runRawClusterFinder.C">
<polygon fill="none" stroke="black" points="572,-1 572,-53 724,-53 724,-1 572,-1"/>
<text text-anchor="start" x="580" y="-41" font-family="Helvetica,sans-Serif" font-size="10.00">/home/travis/build</text>
<text text-anchor="start" x="580" y="-30" font-family="Helvetica,sans-Serif" font-size="10.00">/AliceO2Group/AliceO2</text>
<text text-anchor="start" x="580" y="-19" font-family="Helvetica,sans-Serif" font-size="10.00">/Detectors/TPC/reconstruction</text>
<text text-anchor="middle" x="648" y="-8" font-family="Helvetica,sans-Serif" font-size="10.00">/macro/runRawClusterFinder.C</text>
</a>
</g>
</g>
<!-- Node21&#45;&gt;Node22 -->
<g id="edge23" class="edge"><title>Node21&#45;&gt;Node22</title>
<path fill="none" stroke="midnightblue" d="M648,-85.5493C648,-74.7221 648,-63.0464 648,-53.0599"/>
<polygon fill="midnightblue" stroke="midnightblue" points="644.5,-85.5873 648,-95.5873 651.5,-85.5874 644.5,-85.5873"/>
</g>
<!-- Node24&#45;&gt;Node17 -->
<g id="edge26" class="edge"><title>Node24&#45;&gt;Node17</title>
<path fill="none" stroke="midnightblue" d="M897.065,-284.966C879.95,-274.676 861.468,-263.564 844.946,-253.63"/>
<polygon fill="midnightblue" stroke="midnightblue" points="895.499,-288.108 905.873,-290.261 899.106,-282.109 895.499,-288.108"/>
</g>
<!-- Node24&#45;&gt;Node21 -->
<g id="edge27" class="edge"><title>Node24&#45;&gt;Node21</title>
<path fill="none" stroke="midnightblue" d="M872.297,-290.087C872.198,-290.058 872.099,-290.029 872,-290 801.202,-269.32 767.642,-300.016 710,-254 705.502,-250.409 675.753,-185.011 659.152,-148.005"/>
<polygon fill="midnightblue" stroke="midnightblue" points="871.041,-293.363 881.627,-292.93 873.081,-286.667 871.041,-293.363"/>
</g>
<!-- Node25 -->
<g id="node25" class="node"><title>Node25</title>
<g id="a_node25"><a xlink:href="../../dc/dc3/testClustererData_8C.html" target="_top" xlink:title="/home/travis/build\l/AliceO2Group/AliceO2\l/Detectors/TPC/reconstruction\l/macro/testClustererData.C">
<polygon fill="none" stroke="black" points="1033,-196 1033,-248 1183,-248 1183,-196 1033,-196"/>
<text text-anchor="start" x="1041" y="-236" font-family="Helvetica,sans-Serif" font-size="10.00">/home/travis/build</text>
<text text-anchor="start" x="1041" y="-225" font-family="Helvetica,sans-Serif" font-size="10.00">/AliceO2Group/AliceO2</text>
<text text-anchor="start" x="1041" y="-214" font-family="Helvetica,sans-Serif" font-size="10.00">/Detectors/TPC/reconstruction</text>
<text text-anchor="middle" x="1108" y="-203" font-family="Helvetica,sans-Serif" font-size="10.00">/macro/testClustererData.C</text>
</a>
</g>
</g>
<!-- Node24&#45;&gt;Node25 -->
<g id="edge28" class="edge"><title>Node24&#45;&gt;Node25</title>
<path fill="none" stroke="midnightblue" d="M1012.86,-284.745C1031.67,-272.54 1052.22,-259.2 1069.4,-248.054"/>
<polygon fill="midnightblue" stroke="midnightblue" points="1010.85,-281.881 1004.36,-290.261 1014.66,-287.753 1010.85,-281.881"/>
</g>
<!-- Node26 -->
<g id="node26" class="node"><title>Node26</title>
<g id="a_node26"><a xlink:href="../../d4/d6c/HwClusterer_8cxx.html" target="_top" xlink:title="/home/travis/build\l/AliceO2Group/AliceO2\l/Detectors/TPC/reconstruction\l/src/HwClusterer.cxx">
<polygon fill="none" stroke="black" points="1201,-196 1201,-248 1351,-248 1351,-196 1201,-196"/>
<text text-anchor="start" x="1209" y="-236" font-family="Helvetica,sans-Serif" font-size="10.00">/home/travis/build</text>
<text text-anchor="start" x="1209" y="-225" font-family="Helvetica,sans-Serif" font-size="10.00">/AliceO2Group/AliceO2</text>
<text text-anchor="start" x="1209" y="-214" font-family="Helvetica,sans-Serif" font-size="10.00">/Detectors/TPC/reconstruction</text>
<text text-anchor="middle" x="1276" y="-203" font-family="Helvetica,sans-Serif" font-size="10.00">/src/HwClusterer.cxx</text>
</a>
</g>
</g>
<!-- Node24&#45;&gt;Node26 -->
<g id="edge29" class="edge"><title>Node24&#45;&gt;Node26</title>
<path fill="none" stroke="midnightblue" d="M1042.15,-298.182C1086.72,-285.846 1142.06,-269.91 1191,-254 1196.68,-252.155 1202.54,-250.174 1208.41,-248.139"/>
<polygon fill="midnightblue" stroke="midnightblue" points="1040.94,-294.885 1032.23,-300.918 1042.8,-301.633 1040.94,-294.885"/>
</g>
<!-- Node27 -->
<g id="node27" class="node"><title>Node27</title>
<g id="a_node27"><a xlink:href="../../d8/dce/ClustererSpec_8cxx.html" target="_top" xlink:title="spec definition for a TPC clusterer process ">
<polygon fill="none" stroke="black" points="887,-196 887,-248 1015,-248 1015,-196 887,-196"/>
<text text-anchor="start" x="895" y="-236" font-family="Helvetica,sans-Serif" font-size="10.00">/home/travis/build</text>
<text text-anchor="start" x="895" y="-225" font-family="Helvetica,sans-Serif" font-size="10.00">/AliceO2Group/AliceO2</text>
<text text-anchor="start" x="895" y="-214" font-family="Helvetica,sans-Serif" font-size="10.00">/Detectors/TPC/workflow</text>
<text text-anchor="middle" x="951" y="-203" font-family="Helvetica,sans-Serif" font-size="10.00">/src/ClustererSpec.cxx</text>
</a>
</g>
</g>
<!-- Node24&#45;&gt;Node27 -->
<g id="edge30" class="edge"><title>Node24&#45;&gt;Node27</title>
<path fill="none" stroke="midnightblue" d="M954.495,-280.079C953.829,-269.21 953.13,-257.794 952.534,-248.054"/>
<polygon fill="midnightblue" stroke="midnightblue" points="951.013,-280.494 955.118,-290.261 958,-280.066 951.013,-280.494"/>
</g>
<!-- Node29 -->
<g id="node29" class="node"><title>Node29</title>
<g id="a_node29"><a xlink:href="../../d7/dd7/CalibRawBase_8h.html" target="_top" xlink:title="/home/travis/build\l/AliceO2Group/AliceO2\l/Detectors/TPC/calibration\l/include/TPCCalibration/CalibRaw\lBase.h">
<polygon fill="none" stroke="black" points="1445,-190.5 1445,-253.5 1611,-253.5 1611,-190.5 1445,-190.5"/>
<text text-anchor="start" x="1453" y="-241.5" font-family="Helvetica,sans-Serif" font-size="10.00">/home/travis/build</text>
<text text-anchor="start" x="1453" y="-230.5" font-family="Helvetica,sans-Serif" font-size="10.00">/AliceO2Group/AliceO2</text>
<text text-anchor="start" x="1453" y="-219.5" font-family="Helvetica,sans-Serif" font-size="10.00">/Detectors/TPC/calibration</text>
<text text-anchor="start" x="1453" y="-208.5" font-family="Helvetica,sans-Serif" font-size="10.00">/include/TPCCalibration/CalibRaw</text>
<text text-anchor="middle" x="1528" y="-197.5" font-family="Helvetica,sans-Serif" font-size="10.00">Base.h</text>
</a>
</g>
</g>
<!-- Node28&#45;&gt;Node29 -->
<g id="edge32" class="edge"><title>Node28&#45;&gt;Node29</title>
<path fill="none" stroke="midnightblue" d="M1695.18,-288.014C1666.62,-276.908 1634.89,-264.569 1606.82,-253.651"/>
<polygon fill="midnightblue" stroke="midnightblue" points="1694.14,-291.367 1704.73,-291.73 1696.68,-284.843 1694.14,-291.367"/>
</g>
<!-- Node31 -->
<g id="node31" class="node"><title>Node31</title>
<g id="a_node31"><a xlink:href="../../d1/db0/RunCompareMode3_8C.html" target="_top" xlink:title="/home/travis/build\l/AliceO2Group/AliceO2\l/Detectors/TPC/monitor\l/macro/RunCompareMode3.C">
<polygon fill="none" stroke="black" points="2195.5,-196 2195.5,-248 2342.5,-248 2342.5,-196 2195.5,-196"/>
<text text-anchor="start" x="2203.5" y="-236" font-family="Helvetica,sans-Serif" font-size="10.00">/home/travis/build</text>
<text text-anchor="start" x="2203.5" y="-225" font-family="Helvetica,sans-Serif" font-size="10.00">/AliceO2Group/AliceO2</text>
<text text-anchor="start" x="2203.5" y="-214" font-family="Helvetica,sans-Serif" font-size="10.00">/Detectors/TPC/monitor</text>
<text text-anchor="middle" x="2269" y="-203" font-family="Helvetica,sans-Serif" font-size="10.00">/macro/RunCompareMode3.C</text>
</a>
</g>
</g>
<!-- Node28&#45;&gt;Node31 -->
<g id="edge38" class="edge"><title>Node28&#45;&gt;Node31</title>
<path fill="none" stroke="midnightblue" d="M1864.7,-290.071C1864.8,-290.047 1864.9,-290.024 1865,-290 2004.32,-257.25 2045.74,-287.016 2185,-254 2191.96,-252.35 2199.13,-250.293 2206.21,-248.027"/>
<polygon fill="midnightblue" stroke="midnightblue" points="1864.07,-286.618 1855.26,-292.5 1865.82,-293.397 1864.07,-286.618"/>
</g>
<!-- Node32 -->
<g id="node32" class="node"><title>Node32</title>
<g id="a_node32"><a xlink:href="../../db/d55/RunFindAdcError_8C.html" target="_top" xlink:title="/home/travis/build\l/AliceO2Group/AliceO2\l/Detectors/TPC/monitor\l/macro/RunFindAdcError.C">
<polygon fill="none" stroke="black" points="1705.5,-196 1705.5,-248 1840.5,-248 1840.5,-196 1705.5,-196"/>
<text text-anchor="start" x="1713.5" y="-236" font-family="Helvetica,sans-Serif" font-size="10.00">/home/travis/build</text>
<text text-anchor="start" x="1713.5" y="-225" font-family="Helvetica,sans-Serif" font-size="10.00">/AliceO2Group/AliceO2</text>
<text text-anchor="start" x="1713.5" y="-214" font-family="Helvetica,sans-Serif" font-size="10.00">/Detectors/TPC/monitor</text>
<text text-anchor="middle" x="1773" y="-203" font-family="Helvetica,sans-Serif" font-size="10.00">/macro/RunFindAdcError.C</text>
</a>
</g>
</g>
<!-- Node28&#45;&gt;Node32 -->
<g id="edge39" class="edge"><title>Node28&#45;&gt;Node32</title>
<path fill="none" stroke="midnightblue" d="M1777.08,-280.079C1776.3,-269.21 1775.49,-257.794 1774.79,-248.054"/>
<polygon fill="midnightblue" stroke="midnightblue" points="1773.6,-280.536 1777.8,-290.261 1780.58,-280.037 1773.6,-280.536"/>
</g>
<!-- Node33 -->
<g id="node33" class="node"><title>Node33</title>
<g id="a_node33"><a xlink:href="../../d0/db1/readRawData_8cxx.html" target="_top" xlink:title="/home/travis/build\l/AliceO2Group/AliceO2\l/Detectors/TPC/reconstruction\l/run/readRawData.cxx">
<polygon fill="none" stroke="black" points="1859,-196 1859,-248 2009,-248 2009,-196 1859,-196"/>
<text text-anchor="start" x="1867" y="-236" font-family="Helvetica,sans-Serif" font-size="10.00">/home/travis/build</text>
<text text-anchor="start" x="1867" y="-225" font-family="Helvetica,sans-Serif" font-size="10.00">/AliceO2Group/AliceO2</text>
<text text-anchor="start" x="1867" y="-214" font-family="Helvetica,sans-Serif" font-size="10.00">/Detectors/TPC/reconstruction</text>
<text text-anchor="middle" x="1934" y="-203" font-family="Helvetica,sans-Serif" font-size="10.00">/run/readRawData.cxx</text>
</a>
</g>
</g>
<!-- Node28&#45;&gt;Node33 -->
<g id="edge40" class="edge"><title>Node28&#45;&gt;Node33</title>
<path fill="none" stroke="midnightblue" d="M1836.97,-284.745C1856.15,-272.54 1877.11,-259.2 1894.63,-248.054"/>
<polygon fill="midnightblue" stroke="midnightblue" points="1834.86,-281.939 1828.3,-290.261 1838.62,-287.845 1834.86,-281.939"/>
</g>
<!-- Node34 -->
<g id="node34" class="node"><title>Node34</title>
<g id="a_node34"><a xlink:href="../../d4/ddf/RawReader_8cxx.html" target="_top" xlink:title="/home/travis/build\l/AliceO2Group/AliceO2\l/Detectors/TPC/reconstruction\l/src/RawReader.cxx">
<polygon fill="none" stroke="black" points="2027,-196 2027,-248 2177,-248 2177,-196 2027,-196"/>
<text text-anchor="start" x="2035" y="-236" font-family="Helvetica,sans-Serif" font-size="10.00">/home/travis/build</text>
<text text-anchor="start" x="2035" y="-225" font-family="Helvetica,sans-Serif" font-size="10.00">/AliceO2Group/AliceO2</text>
<text text-anchor="start" x="2035" y="-214" font-family="Helvetica,sans-Serif" font-size="10.00">/Detectors/TPC/reconstruction</text>
<text text-anchor="middle" x="2102" y="-203" font-family="Helvetica,sans-Serif" font-size="10.00">/src/RawReader.cxx</text>
</a>
</g>
</g>
<!-- Node28&#45;&gt;Node34 -->
<g id="edge41" class="edge"><title>Node28&#45;&gt;Node34</title>
<path fill="none" stroke="midnightblue" d="M1864.7,-290.089C1864.8,-290.059 1864.9,-290.03 1865,-290 1931.5,-270.072 1950.5,-273.928 2017,-254 2023.02,-252.196 2029.23,-250.2 2035.43,-248.114"/>
<polygon fill="midnightblue" stroke="midnightblue" points="1863.9,-286.674 1855.39,-292.985 1865.98,-293.358 1863.9,-286.674"/>
</g>
<!-- Node29&#45;&gt;Node8 -->
<g id="edge33" class="edge"><title>Node29&#45;&gt;Node8</title>
<path fill="none" stroke="midnightblue" d="M1435.19,-197.92C1385.49,-185.349 1323.28,-169.279 1268,-154 1261.13,-152.101 1254.02,-150.094 1246.89,-148.05"/>
<polygon fill="midnightblue" stroke="midnightblue" points="1434.41,-201.331 1444.96,-200.386 1436.12,-194.544 1434.41,-201.331"/>
</g>
<!-- Node29&#45;&gt;Node10 -->
<g id="edge34" class="edge"><title>Node29&#45;&gt;Node10</title>
<path fill="none" stroke="midnightblue" d="M1469.08,-184.91C1449.08,-172.66 1427.18,-159.251 1408.9,-148.054"/>
<polygon fill="midnightblue" stroke="midnightblue" points="1467.46,-188.023 1477.81,-190.261 1471.11,-182.053 1467.46,-188.023"/>
</g>
<!-- Node29&#45;&gt;Node13 -->
<g id="edge36" class="edge"><title>Node29&#45;&gt;Node13</title>
<path fill="none" stroke="midnightblue" d="M1606.46,-186.206C1630.51,-175.543 1656.77,-163.898 1680.13,-153.541"/>
<polygon fill="midnightblue" stroke="midnightblue" points="1604.74,-183.142 1597.02,-190.395 1607.58,-189.541 1604.74,-183.142"/>
</g>
<!-- Node29&#45;&gt;Node21 -->
<g id="edge37" class="edge"><title>Node29&#45;&gt;Node21</title>
<path fill="none" stroke="midnightblue" d="M1434.89,-201.783C1410.31,-197.296 1383.73,-192.966 1359,-190 1081.86,-156.756 1005.26,-210.943 732,-154 724.695,-152.478 717.177,-150.437 709.782,-148.125"/>
<polygon fill="midnightblue" stroke="midnightblue" points="1434.46,-205.263 1444.93,-203.643 1435.74,-198.38 1434.46,-205.263"/>
</g>
<!-- Node30 -->
<g id="node30" class="node"><title>Node30</title>
<g id="a_node30"><a xlink:href="../../d9/d74/CalibRawBase_8cxx.html" target="_top" xlink:title="/home/travis/build\l/AliceO2Group/AliceO2\l/Detectors/TPC/calibration\l/src/CalibRawBase.cxx">
<polygon fill="none" stroke="black" points="1477.5,-96 1477.5,-148 1610.5,-148 1610.5,-96 1477.5,-96"/>
<text text-anchor="start" x="1485.5" y="-136" font-family="Helvetica,sans-Serif" font-size="10.00">/home/travis/build</text>
<text text-anchor="start" x="1485.5" y="-125" font-family="Helvetica,sans-Serif" font-size="10.00">/AliceO2Group/AliceO2</text>
<text text-anchor="start" x="1485.5" y="-114" font-family="Helvetica,sans-Serif" font-size="10.00">/Detectors/TPC/calibration</text>
<text text-anchor="middle" x="1544" y="-103" font-family="Helvetica,sans-Serif" font-size="10.00">/src/CalibRawBase.cxx</text>
</a>
</g>
</g>
<!-- Node29&#45;&gt;Node30 -->
<g id="edge35" class="edge"><title>Node29&#45;&gt;Node30</title>
<path fill="none" stroke="midnightblue" d="M1534.68,-180.079C1536.46,-169.21 1538.32,-157.794 1539.91,-148.054"/>
<polygon fill="midnightblue" stroke="midnightblue" points="1531.18,-179.828 1533.02,-190.261 1538.08,-180.956 1531.18,-179.828"/>
</g>
</g>
</svg>
