<?xml version="1.0" encoding="UTF-8" standalone="no"?>
<!DOCTYPE svg PUBLIC "-//W3C//DTD SVG 1.1//EN"
 "http://www.w3.org/Graphics/SVG/1.1/DTD/svg11.dtd">
<!-- Generated by graphviz version 2.36.0 (20140111.2315)
 -->
<!-- Title: /home/travis/build/AliceO2Group/AliceO2/Framework/Core/src/InputRecord.cxx Pages: 1 -->
<!--zoomable 330 -->
<svg id="main" version="1.1" xmlns="http://www.w3.org/2000/svg" xmlns:xlink="http://www.w3.org/1999/xlink" xml:space="preserve" onload="init(evt)">
<style type="text/css"><![CDATA[
.edge:hover path { stroke: red; }
.edge:hover polygon { stroke: red; fill: red; }
]]></style>
<script type="text/javascript"><![CDATA[
var edges = document.getElementsByTagName('g');
if (edges && edges.length) {
  for (var i=0;i<edges.length;i++) {
    if (edges[i].id.substr(0,4)=='edge') {
      edges[i].setAttribute('class','edge');
    }
  }
}
]]></script>
        <defs>
                <circle id="rim" cx="0" cy="0" r="7"/>
                <circle id="rim2" cx="0" cy="0" r="3.5"/>
                <g id="zoomPlus">
                        <use xlink:href="#rim" fill="#404040">
                                <set attributeName="fill" to="#808080" begin="zoomplus.mouseover" end="zoomplus.mouseout"/>
                        </use>
                        <path d="M-4,0h8M0,-4v8" fill="none" stroke="white" stroke-width="1.5" pointer-events="none"/>
                </g>
                <g id="zoomMin">
                        <use xlink:href="#rim" fill="#404040">
                                <set attributeName="fill" to="#808080" begin="zoomminus.mouseover" end="zoomminus.mouseout"/>
                        </use>
                        <path d="M-4,0h8" fill="none" stroke="white" stroke-width="1.5" pointer-events="none"/>
                </g>
                <g id="dirArrow">
                        <path fill="none" stroke="white" stroke-width="1.5" d="M0,-3.0v7 M-2.5,-0.5L0,-3.0L2.5,-0.5"/>
                </g>
               <g id="resetDef">
                       <use xlink:href="#rim2" fill="#404040">
                               <set attributeName="fill" to="#808080" begin="reset.mouseover" end="reset.mouseout"/>
                       </use>
               </g>
        </defs>

<script type="text/javascript">
var viewWidth = 1757;
var viewHeight = 330;
var sectionId = 'dynsection-0';
</script>
<script xlink:href="../../svgpan.js"/>
<svg id="graph" class="graph">
<g id="viewport">
<title>/home/travis/build/AliceO2Group/AliceO2/Framework/Core/src/InputRecord.cxx</title>
<!-- Node1 -->
<g id="node1" class="node"><title>Node1</title>
<polygon fill="#bfbfbf" stroke="black" points="177,-280.5 177,-321.5 361,-321.5 361,-280.5 177,-280.5"/>
<text text-anchor="start" x="185" y="-309.5" font-family="Helvetica,sans-Serif" font-size="10.00">/home/travis/build</text>
<text text-anchor="start" x="185" y="-298.5" font-family="Helvetica,sans-Serif" font-size="10.00">/AliceO2Group/AliceO2</text>
<text text-anchor="middle" x="269" y="-287.5" font-family="Helvetica,sans-Serif" font-size="10.00">/Framework/Core/src/InputRecord.cxx</text>
</g>
<!-- Node2 -->
<g id="node2" class="node"><title>Node2</title>
<g id="a_node2"><a xlink:href="../../d6/d5c/InputRecord_8h.html" target="_top" xlink:title="Framework/InputRecord.h">
<polygon fill="none" stroke="black" points="935,-224.5 935,-243.5 1065,-243.5 1065,-224.5 935,-224.5"/>
<text text-anchor="middle" x="1000" y="-231.5" font-family="Helvetica,sans-Serif" font-size="10.00">Framework/InputRecord.h</text>
</a>
</g>
</g>
<!-- Node1&#45;&gt;Node2 -->
<g id="edge1" class="edge"><title>Node1&#45;&gt;Node2</title>
<path fill="none" stroke="midnightblue" d="M361.211,-291.801C507.475,-278.795 789.877,-253.684 924.742,-241.692"/>
<polygon fill="midnightblue" stroke="midnightblue" points="925.327,-245.154 934.977,-240.782 924.707,-238.181 925.327,-245.154"/>
</g>
<!-- Node8 -->
<g id="node8" class="node"><title>Node8</title>
<polygon fill="none" stroke="#bfbfbf" points="13.5,-0.5 13.5,-19.5 62.5,-19.5 62.5,-0.5 13.5,-0.5"/>
<text text-anchor="middle" x="38" y="-7.5" font-family="Helvetica,sans-Serif" font-size="10.00">cassert</text>
</g>
<!-- Node1&#45;&gt;Node8 -->
<g id="edge53" class="edge"><title>Node1&#45;&gt;Node8</title>
<path fill="none" stroke="midnightblue" d="M176.802,-295.469C98.9317,-286.077 0,-258.501 0,-179 0,-179 0,-179 0,-121 0,-86.8131 16.6005,-49.7639 27.8573,-28.5707"/>
<polygon fill="midnightblue" stroke="midnightblue" points="30.9473,-30.2151 32.7163,-19.769 24.8191,-26.832 30.9473,-30.2151"/>
</g>
<!-- Node12 -->
<g id="node12" class="node"><title>Node12</title>
<polygon fill="none" stroke="#bfbfbf" points="497.5,-56.5 497.5,-75.5 624.5,-75.5 624.5,-56.5 497.5,-56.5"/>
<text text-anchor="middle" x="561" y="-63.5" font-family="Helvetica,sans-Serif" font-size="10.00">fairmq/FairMQMessage.h</text>
</g>
<!-- Node1&#45;&gt;Node12 -->
<g id="edge52" class="edge"><title>Node1&#45;&gt;Node12</title>
<path fill="none" stroke="midnightblue" d="M296.001,-280.428C326.126,-258.426 376.134,-221.402 418,-188 464.108,-151.214 516.661,-105.817 543.383,-82.475"/>
<polygon fill="midnightblue" stroke="midnightblue" points="545.891,-84.9306 551.11,-75.7102 541.281,-79.6636 545.891,-84.9306"/>
</g>
<!-- Node29 -->
<g id="node29" class="node"><title>Node29</title>
<g id="a_node29"><a xlink:href="../../d5/d3f/InputSpec_8h.html" target="_top" xlink:title="Framework/InputSpec.h">
<polygon fill="none" stroke="black" points="172.5,-112.5 172.5,-131.5 293.5,-131.5 293.5,-112.5 172.5,-112.5"/>
<text text-anchor="middle" x="233" y="-119.5" font-family="Helvetica,sans-Serif" font-size="10.00">Framework/InputSpec.h</text>
</a>
</g>
</g>
<!-- Node1&#45;&gt;Node29 -->
<g id="edge51" class="edge"><title>Node1&#45;&gt;Node29</title>
<path fill="none" stroke="midnightblue" d="M265.01,-280.382C258.003,-245.932 243.585,-175.042 236.751,-141.442"/>
<polygon fill="midnightblue" stroke="midnightblue" points="240.169,-140.686 234.746,-131.584 233.309,-142.081 240.169,-140.686"/>
</g>
<!-- Node3 -->
<g id="node3" class="node"><title>Node3</title>
<g id="a_node3"><a xlink:href="../../d5/dfb/DataRef_8h.html" target="_top" xlink:title="Framework/DataRef.h">
<polygon fill="none" stroke="black" points="1602.5,-112.5 1602.5,-131.5 1715.5,-131.5 1715.5,-112.5 1602.5,-112.5"/>
<text text-anchor="middle" x="1659" y="-119.5" font-family="Helvetica,sans-Serif" font-size="10.00">Framework/DataRef.h</text>
</a>
</g>
</g>
<!-- Node2&#45;&gt;Node3 -->
<g id="edge2" class="edge"><title>Node2&#45;&gt;Node3</title>
<path fill="none" stroke="midnightblue" d="M1065.22,-227.755C1142.25,-221.018 1274.05,-207.782 1386,-188 1469.38,-173.266 1565.38,-148.579 1618.43,-134.244"/>
<polygon fill="midnightblue" stroke="midnightblue" points="1619.4,-137.606 1628.13,-131.607 1617.56,-130.851 1619.4,-137.606"/>
</g>
<!-- Node4 -->
<g id="node4" class="node"><title>Node4</title>
<g id="a_node4"><a xlink:href="../../d5/db8/DataRefUtils_8h.html" target="_top" xlink:title="Framework/DataRefUtils.h">
<polygon fill="none" stroke="black" points="1063,-168.5 1063,-187.5 1197,-187.5 1197,-168.5 1063,-168.5"/>
<text text-anchor="middle" x="1130" y="-175.5" font-family="Helvetica,sans-Serif" font-size="10.00">Framework/DataRefUtils.h</text>
</a>
</g>
</g>
<!-- Node2&#45;&gt;Node4 -->
<g id="edge3" class="edge"><title>Node2&#45;&gt;Node4</title>
<path fill="none" stroke="midnightblue" d="M1020.6,-224.444C1041.99,-215.557 1075.68,-201.563 1100.02,-191.451"/>
<polygon fill="midnightblue" stroke="midnightblue" points="1101.61,-194.585 1109.5,-187.516 1098.92,-188.12 1101.61,-194.585"/>
</g>
<!-- Node7 -->
<g id="node7" class="node"><title>Node7</title>
<polygon fill="none" stroke="#bfbfbf" points="627,-0.5 627,-19.5 679,-19.5 679,-0.5 627,-0.5"/>
<text text-anchor="middle" x="653" y="-7.5" font-family="Helvetica,sans-Serif" font-size="10.00">memory</text>
</g>
<!-- Node2&#45;&gt;Node7 -->
<g id="edge49" class="edge"><title>Node2&#45;&gt;Node7</title>
<path fill="none" stroke="midnightblue" d="M957.741,-224.472C887.853,-208.154 748.346,-165.84 672,-76 660.946,-62.9927 656.319,-43.8323 654.385,-29.6818"/>
<polygon fill="midnightblue" stroke="midnightblue" points="657.854,-29.2054 653.339,-19.6208 650.892,-29.9291 657.854,-29.2054"/>
</g>
<!-- Node2&#45;&gt;Node8 -->
<g id="edge47" class="edge"><title>Node2&#45;&gt;Node8</title>
<path fill="none" stroke="midnightblue" d="M934.886,-233.644C769.046,-234.601 334.25,-232.642 198,-188 154.656,-173.799 143.792,-164.705 112,-132 81.377,-100.498 57.4949,-54.1324 45.8322,-28.9233"/>
<polygon fill="midnightblue" stroke="midnightblue" points="49.0215,-27.4815 41.7218,-19.8026 42.6396,-30.3576 49.0215,-27.4815"/>
</g>
<!-- Node9 -->
<g id="node9" class="node"><title>Node9</title>
<polygon fill="none" stroke="#bfbfbf" points="207,-0.5 207,-19.5 253,-19.5 253,-0.5 207,-0.5"/>
<text text-anchor="middle" x="230" y="-7.5" font-family="Helvetica,sans-Serif" font-size="10.00">cstring</text>
</g>
<!-- Node2&#45;&gt;Node9 -->
<g id="edge46" class="edge"><title>Node2&#45;&gt;Node9</title>
<path fill="none" stroke="midnightblue" d="M934.968,-232.28C781.116,-230.044 398.454,-221.214 275,-188 184.013,-163.521 135.213,-161.21 95,-76 74.9158,-33.4419 150.635,-18.573 196.784,-13.5118"/>
<polygon fill="midnightblue" stroke="midnightblue" points="197.366,-16.9713 206.97,-12.4992 196.673,-10.0056 197.366,-16.9713"/>
</g>
<!-- Node11 -->
<g id="node11" class="node"><title>Node11</title>
<g id="a_node11"><a xlink:href="../../d8/d3c/TMessageSerializer_8h.html" target="_top" xlink:title="Framework/TMessageSerializer.h">
<polygon fill="none" stroke="black" points="836.5,-112.5 836.5,-131.5 999.5,-131.5 999.5,-112.5 836.5,-112.5"/>
<text text-anchor="middle" x="918" y="-119.5" font-family="Helvetica,sans-Serif" font-size="10.00">Framework/TMessageSerializer.h</text>
</a>
</g>
</g>
<!-- Node2&#45;&gt;Node11 -->
<g id="edge41" class="edge"><title>Node2&#45;&gt;Node11</title>
<path fill="none" stroke="midnightblue" d="M993.566,-224.368C979.973,-206.135 948.136,-163.426 930.431,-139.675"/>
<polygon fill="midnightblue" stroke="midnightblue" points="933.187,-137.517 924.405,-131.591 927.575,-141.701 933.187,-137.517"/>
</g>
<!-- Node2&#45;&gt;Node12 -->
<g id="edge40" class="edge"><title>Node2&#45;&gt;Node12</title>
<path fill="none" stroke="midnightblue" d="M934.658,-231.399C844.286,-228.096 686.859,-218.08 639,-188 600.33,-163.696 577.122,-112.433 567.006,-85.0842"/>
<polygon fill="midnightblue" stroke="midnightblue" points="570.283,-83.8498 563.665,-75.5762 563.679,-86.171 570.283,-83.8498"/>
</g>
<!-- Node21 -->
<g id="node21" class="node"><title>Node21</title>
<g id="a_node21"><a xlink:href="../../d0/d95/TypeTraits_8h.html" target="_top" xlink:title="Framework/TypeTraits.h">
<polygon fill="none" stroke="black" points="1438.5,-56.5 1438.5,-75.5 1561.5,-75.5 1561.5,-56.5 1438.5,-56.5"/>
<text text-anchor="middle" x="1500" y="-63.5" font-family="Helvetica,sans-Serif" font-size="10.00">Framework/TypeTraits.h</text>
</a>
</g>
</g>
<!-- Node2&#45;&gt;Node21 -->
<g id="edge39" class="edge"><title>Node2&#45;&gt;Node21</title>
<path fill="none" stroke="midnightblue" d="M1065.16,-228.881C1235.25,-217.449 1682.42,-182.789 1724,-132 1729.63,-125.122 1729.63,-118.877 1724,-112 1704.94,-88.733 1629.86,-77.2408 1571.82,-71.7377"/>
<polygon fill="midnightblue" stroke="midnightblue" points="1571.84,-68.2253 1561.56,-70.81 1571.21,-75.1968 1571.84,-68.2253"/>
</g>
<!-- Node22 -->
<g id="node22" class="node"><title>Node22</title>
<polygon fill="none" stroke="#bfbfbf" points="1297,-0.5 1297,-19.5 1359,-19.5 1359,-0.5 1297,-0.5"/>
<text text-anchor="middle" x="1328" y="-7.5" font-family="Helvetica,sans-Serif" font-size="10.00">type_traits</text>
</g>
<!-- Node2&#45;&gt;Node22 -->
<g id="edge50" class="edge"><title>Node2&#45;&gt;Node22</title>
<path fill="none" stroke="midnightblue" d="M1000.58,-224.331C1002.56,-201.87 1011.15,-141.491 1047,-112 1117.43,-54.0698 1166.2,-114.216 1249,-76 1274.31,-64.3189 1298.28,-42.5318 1313.04,-27.4193"/>
<polygon fill="midnightblue" stroke="midnightblue" points="1315.9,-29.4833 1320.24,-19.8167 1310.82,-24.6691 1315.9,-29.4833"/>
</g>
<!-- Node23 -->
<g id="node23" class="node"><title>Node23</title>
<polygon fill="none" stroke="#bfbfbf" points="1619,-0.5 1619,-19.5 1663,-19.5 1663,-0.5 1619,-0.5"/>
<text text-anchor="middle" x="1641" y="-7.5" font-family="Helvetica,sans-Serif" font-size="10.00">vector</text>
</g>
<!-- Node2&#45;&gt;Node23 -->
<g id="edge45" class="edge"><title>Node2&#45;&gt;Node23</title>
<path fill="none" stroke="midnightblue" d="M1065.09,-233.162C1172.59,-232.265 1393.49,-225.486 1576,-188 1651.86,-172.419 1695.89,-194.947 1741,-132 1770.2,-91.2599 1705.83,-46.6059 1667.27,-24.6884"/>
<polygon fill="midnightblue" stroke="midnightblue" points="1668.54,-21.3917 1658.09,-19.6222 1665.15,-27.5197 1668.54,-21.3917"/>
</g>
<!-- Node24 -->
<g id="node24" class="node"><title>Node24</title>
<polygon fill="none" stroke="#bfbfbf" points="1528,-112.5 1528,-131.5 1584,-131.5 1584,-112.5 1528,-112.5"/>
<text text-anchor="middle" x="1556" y="-119.5" font-family="Helvetica,sans-Serif" font-size="10.00">TClass.h</text>
</g>
<!-- Node2&#45;&gt;Node24 -->
<g id="edge42" class="edge"><title>Node2&#45;&gt;Node24</title>
<path fill="none" stroke="midnightblue" d="M1058.9,-224.473C1100.76,-217.374 1157.85,-205.563 1206,-188 1223.93,-181.46 1225.83,-173.85 1244,-168 1354.2,-132.509 1387.56,-149.518 1502,-132 1507.15,-131.211 1512.58,-130.347 1517.92,-129.477"/>
<polygon fill="midnightblue" stroke="midnightblue" points="1518.7,-132.895 1528,-127.812 1517.56,-125.989 1518.7,-132.895"/>
</g>
<!-- Node28 -->
<g id="node28" class="node"><title>Node28</title>
<g id="a_node28"><a xlink:href="../../d5/d19/InputRoute_8h.html" target="_top" xlink:title="Framework/InputRoute.h">
<polygon fill="none" stroke="black" points="284.5,-168.5 284.5,-187.5 409.5,-187.5 409.5,-168.5 284.5,-168.5"/>
<text text-anchor="middle" x="347" y="-175.5" font-family="Helvetica,sans-Serif" font-size="10.00">Framework/InputRoute.h</text>
</a>
</g>
</g>
<!-- Node2&#45;&gt;Node28 -->
<g id="edge31" class="edge"><title>Node2&#45;&gt;Node28</title>
<path fill="none" stroke="midnightblue" d="M934.7,-227.6C812.048,-217.457 548.074,-195.628 419.858,-185.025"/>
<polygon fill="midnightblue" stroke="midnightblue" points="420,-181.525 409.745,-184.189 419.423,-188.501 420,-181.525"/>
</g>
<!-- Node30 -->
<g id="node30" class="node"><title>Node30</title>
<polygon fill="none" stroke="#bfbfbf" points="303.5,-56.5 303.5,-75.5 344.5,-75.5 344.5,-56.5 303.5,-56.5"/>
<text text-anchor="middle" x="324" y="-63.5" font-family="Helvetica,sans-Serif" font-size="10.00">string</text>
</g>
<!-- Node2&#45;&gt;Node30 -->
<g id="edge44" class="edge"><title>Node2&#45;&gt;Node30</title>
<path fill="none" stroke="midnightblue" d="M934.777,-231.035C856.832,-227.411 723.015,-217.129 612,-188 510.445,-161.353 397.786,-105.811 348.895,-80.3153"/>
<polygon fill="midnightblue" stroke="midnightblue" points="350.469,-77.1888 339.989,-75.6342 347.212,-83.385 350.469,-77.1888"/>
</g>
<!-- Node34 -->
<g id="node34" class="node"><title>Node34</title>
<polygon fill="none" stroke="#bfbfbf" points="1253.5,-168.5 1253.5,-187.5 1300.5,-187.5 1300.5,-168.5 1253.5,-168.5"/>
<text text-anchor="middle" x="1277" y="-175.5" font-family="Helvetica,sans-Serif" font-size="10.00">iterator</text>
</g>
<!-- Node2&#45;&gt;Node34 -->
<g id="edge43" class="edge"><title>Node2&#45;&gt;Node34</title>
<path fill="none" stroke="midnightblue" d="M1049.11,-224.441C1097.52,-215.843 1173.54,-201.907 1239,-188 1240.45,-187.692 1241.93,-187.371 1243.43,-187.041"/>
<polygon fill="midnightblue" stroke="midnightblue" points="1244.35,-190.42 1253.32,-184.787 1242.79,-183.595 1244.35,-190.42"/>
</g>
<!-- Node35 -->
<g id="node35" class="node"><title>Node35</title>
<polygon fill="none" stroke="#bfbfbf" points="1318.5,-168.5 1318.5,-187.5 1377.5,-187.5 1377.5,-168.5 1318.5,-168.5"/>
<text text-anchor="middle" x="1348" y="-175.5" font-family="Helvetica,sans-Serif" font-size="10.00">exception</text>
</g>
<!-- Node2&#45;&gt;Node35 -->
<g id="edge48" class="edge"><title>Node2&#45;&gt;Node35</title>
<path fill="none" stroke="midnightblue" d="M1065.06,-225.104C1125.51,-217.411 1218.22,-204.7 1308.14,-188.024"/>
<polygon fill="midnightblue" stroke="midnightblue" points="1309.06,-191.414 1318.24,-186.132 1307.77,-184.534 1309.06,-191.414"/>
</g>
<!-- Node4&#45;&gt;Node3 -->
<g id="edge4" class="edge"><title>Node4&#45;&gt;Node3</title>
<path fill="none" stroke="midnightblue" d="M1197.03,-171.243C1286.99,-163.34 1451.71,-148.25 1592,-132 1592.11,-131.988 1592.21,-131.975 1592.32,-131.963"/>
<polygon fill="midnightblue" stroke="midnightblue" points="1592.85,-135.425 1602.36,-130.756 1592.01,-128.475 1592.85,-135.425"/>
</g>
<!-- Node5 -->
<g id="node5" class="node"><title>Node5</title>
<g id="a_node5"><a xlink:href="../../dc/dcd/DataHeader_8h.html" target="_top" xlink:title="Headers/DataHeader.h">
<polygon fill="none" stroke="black" points="362.5,-56.5 362.5,-75.5 479.5,-75.5 479.5,-56.5 362.5,-56.5"/>
<text text-anchor="middle" x="421" y="-63.5" font-family="Helvetica,sans-Serif" font-size="10.00">Headers/DataHeader.h</text>
</a>
</g>
</g>
<!-- Node4&#45;&gt;Node5 -->
<g id="edge5" class="edge"><title>Node4&#45;&gt;Node5</title>
<path fill="none" stroke="midnightblue" d="M1071.32,-168.486C1010.26,-159.579 911.883,-145.098 827,-132 705.3,-113.221 563.262,-90.2361 483.556,-77.2402"/>
<polygon fill="midnightblue" stroke="midnightblue" points="483.637,-73.7073 473.204,-75.5514 482.51,-80.616 483.637,-73.7073"/>
</g>
<!-- Node4&#45;&gt;Node11 -->
<g id="edge11" class="edge"><title>Node4&#45;&gt;Node11</title>
<path fill="none" stroke="midnightblue" d="M1096.41,-168.444C1059.81,-159.122 1001.16,-144.183 961.174,-133.997"/>
<polygon fill="midnightblue" stroke="midnightblue" points="961.989,-130.593 951.435,-131.516 960.261,-137.377 961.989,-130.593"/>
</g>
<!-- Node20 -->
<g id="node20" class="node"><title>Node20</title>
<g id="a_node20"><a xlink:href="../../d1/d53/SerializationMethods_8h.html" target="_top" xlink:title="Type wrappers for enfording a specific serialization method. ">
<polygon fill="none" stroke="black" points="1157.5,-112.5 1157.5,-131.5 1324.5,-131.5 1324.5,-112.5 1157.5,-112.5"/>
<text text-anchor="middle" x="1241" y="-119.5" font-family="Helvetica,sans-Serif" font-size="10.00">Framework/SerializationMethods.h</text>
</a>
</g>
</g>
<!-- Node4&#45;&gt;Node20 -->
<g id="edge21" class="edge"><title>Node4&#45;&gt;Node20</title>
<path fill="none" stroke="midnightblue" d="M1147.83,-168.324C1165.72,-159.625 1193.48,-146.12 1214.05,-136.113"/>
<polygon fill="midnightblue" stroke="midnightblue" points="1215.75,-139.177 1223.21,-131.655 1212.69,-132.882 1215.75,-139.177"/>
</g>
<!-- Node4&#45;&gt;Node21 -->
<g id="edge25" class="edge"><title>Node4&#45;&gt;Node21</title>
<path fill="none" stroke="midnightblue" d="M1197.22,-169.318C1297.62,-157.713 1475.64,-136.577 1481,-132 1494.25,-120.681 1498.53,-100.68 1499.78,-85.8446"/>
<polygon fill="midnightblue" stroke="midnightblue" points="1503.28,-85.8868 1500.24,-75.736 1496.29,-85.564 1503.28,-85.8868"/>
</g>
<!-- Node4&#45;&gt;Node22 -->
<g id="edge29" class="edge"><title>Node4&#45;&gt;Node22</title>
<path fill="none" stroke="midnightblue" d="M1129.77,-168.457C1129.9,-154.551 1132.27,-127.063 1148,-112 1199.39,-62.7878 1250.6,-123.023 1304,-76 1317.38,-64.2172 1323.31,-44.2893 1325.94,-29.5978"/>
<polygon fill="midnightblue" stroke="midnightblue" points="1329.41,-30.0002 1327.36,-19.6054 1322.48,-29.0091 1329.41,-30.0002"/>
</g>
<!-- Node4&#45;&gt;Node24 -->
<g id="edge26" class="edge"><title>Node4&#45;&gt;Node24</title>
<path fill="none" stroke="midnightblue" d="M1197.22,-169.472C1298.99,-158.023 1483.58,-137.03 1514,-132 1515.24,-131.795 1516.5,-131.577 1517.77,-131.35"/>
<polygon fill="midnightblue" stroke="midnightblue" points="1518.44,-134.786 1527.6,-129.465 1517.12,-127.912 1518.44,-134.786"/>
</g>
<!-- Node25 -->
<g id="node25" class="node"><title>Node25</title>
<polygon fill="none" stroke="#bfbfbf" points="1342.5,-112.5 1342.5,-131.5 1401.5,-131.5 1401.5,-112.5 1342.5,-112.5"/>
<text text-anchor="middle" x="1372" y="-119.5" font-family="Helvetica,sans-Serif" font-size="10.00">stdexcept</text>
</g>
<!-- Node4&#45;&gt;Node25 -->
<g id="edge27" class="edge"><title>Node4&#45;&gt;Node25</title>
<path fill="none" stroke="midnightblue" d="M1168.94,-168.473C1207.74,-159.952 1269.31,-146.371 1332.11,-132.187"/>
<polygon fill="midnightblue" stroke="midnightblue" points="1333.21,-135.525 1342.2,-129.906 1331.67,-128.698 1333.21,-135.525"/>
</g>
<!-- Node26 -->
<g id="node26" class="node"><title>Node26</title>
<polygon fill="none" stroke="#bfbfbf" points="1420,-112.5 1420,-131.5 1472,-131.5 1472,-112.5 1420,-112.5"/>
<text text-anchor="middle" x="1446" y="-119.5" font-family="Helvetica,sans-Serif" font-size="10.00">sstream</text>
</g>
<!-- Node4&#45;&gt;Node26 -->
<g id="edge28" class="edge"><title>Node4&#45;&gt;Node26</title>
<path fill="none" stroke="midnightblue" d="M1192.83,-168.472C1247.54,-160.69 1329.16,-148.221 1409.88,-131.862"/>
<polygon fill="midnightblue" stroke="midnightblue" points="1410.62,-135.283 1419.71,-129.848 1409.21,-128.425 1410.62,-135.283"/>
</g>
<!-- Node27 -->
<g id="node27" class="node"><title>Node27</title>
<polygon fill="none" stroke="#bfbfbf" points="1056.5,-112.5 1056.5,-131.5 1101.5,-131.5 1101.5,-112.5 1056.5,-112.5"/>
<text text-anchor="middle" x="1079" y="-119.5" font-family="Helvetica,sans-Serif" font-size="10.00">gsl/gsl</text>
</g>
<!-- Node4&#45;&gt;Node27 -->
<g id="edge30" class="edge"><title>Node4&#45;&gt;Node27</title>
<path fill="none" stroke="midnightblue" d="M1121.58,-168.083C1114.15,-160.22 1103.15,-148.569 1094.19,-139.081"/>
<polygon fill="midnightblue" stroke="midnightblue" points="1096.68,-136.618 1087.26,-131.751 1091.59,-141.424 1096.68,-136.618"/>
</g>
<!-- Node6 -->
<g id="node6" class="node"><title>Node6</title>
<polygon fill="none" stroke="#bfbfbf" points="363,-0.5 363,-19.5 409,-19.5 409,-0.5 363,-0.5"/>
<text text-anchor="middle" x="386" y="-7.5" font-family="Helvetica,sans-Serif" font-size="10.00">cstdint</text>
</g>
<!-- Node5&#45;&gt;Node6 -->
<g id="edge6" class="edge"><title>Node5&#45;&gt;Node6</title>
<path fill="none" stroke="midnightblue" d="M415.22,-56.083C410.328,-48.5341 403.173,-37.4948 397.167,-28.2298"/>
<polygon fill="midnightblue" stroke="midnightblue" points="400.048,-26.239 391.672,-19.7511 394.174,-30.0463 400.048,-26.239"/>
</g>
<!-- Node5&#45;&gt;Node7 -->
<g id="edge7" class="edge"><title>Node5&#45;&gt;Node7</title>
<path fill="none" stroke="midnightblue" d="M457.761,-56.4435C501.409,-46.2842 573.727,-29.4515 617.026,-19.3732"/>
<polygon fill="midnightblue" stroke="midnightblue" points="617.905,-22.7624 626.851,-17.0865 616.318,-15.9446 617.905,-22.7624"/>
</g>
<!-- Node5&#45;&gt;Node8 -->
<g id="edge8" class="edge"><title>Node5&#45;&gt;Node8</title>
<path fill="none" stroke="midnightblue" d="M362.414,-56.7398C281.624,-45.3491 138.558,-25.1778 72.812,-15.9082"/>
<polygon fill="midnightblue" stroke="midnightblue" points="72.9655,-12.3953 62.5748,-14.4648 71.9882,-19.3268 72.9655,-12.3953"/>
</g>
<!-- Node5&#45;&gt;Node9 -->
<g id="edge9" class="edge"><title>Node5&#45;&gt;Node9</title>
<path fill="none" stroke="midnightblue" d="M390.735,-56.4435C355.982,-46.6181 299.151,-30.5506 263.206,-20.3882"/>
<polygon fill="midnightblue" stroke="midnightblue" points="263.789,-16.9157 253.214,-17.5631 261.884,-23.6517 263.789,-16.9157"/>
</g>
<!-- Node10 -->
<g id="node10" class="node"><title>Node10</title>
<polygon fill="none" stroke="#bfbfbf" points="427,-0.5 427,-19.5 483,-19.5 483,-0.5 427,-0.5"/>
<text text-anchor="middle" x="455" y="-7.5" font-family="Helvetica,sans-Serif" font-size="10.00">algorithm</text>
</g>
<!-- Node5&#45;&gt;Node10 -->
<g id="edge10" class="edge"><title>Node5&#45;&gt;Node10</title>
<path fill="none" stroke="midnightblue" d="M426.614,-56.083C431.367,-48.5341 438.318,-37.4948 444.152,-28.2298"/>
<polygon fill="midnightblue" stroke="midnightblue" points="447.124,-30.0783 449.49,-19.7511 441.2,-26.3486 447.124,-30.0783"/>
</g>
<!-- Node11&#45;&gt;Node7 -->
<g id="edge19" class="edge"><title>Node11&#45;&gt;Node7</title>
<path fill="none" stroke="midnightblue" d="M995.125,-112.489C1085.57,-102.135 1224.26,-84.9335 1232,-76 1237.82,-69.2836 1238.04,-62.5244 1232,-56 1195.15,-16.176 810.916,-11.5077 689.535,-11.0305"/>
<polygon fill="midnightblue" stroke="midnightblue" points="689.291,-7.52978 679.28,-10.9979 689.269,-14.5297 689.291,-7.52978"/>
</g>
<!-- Node11&#45;&gt;Node12 -->
<g id="edge12" class="edge"><title>Node11&#45;&gt;Node12</title>
<path fill="none" stroke="midnightblue" d="M861.432,-112.444C797.849,-102.826 694.727,-87.2275 627.381,-77.0409"/>
<polygon fill="midnightblue" stroke="midnightblue" points="627.714,-73.5515 617.303,-75.5164 626.667,-80.4727 627.714,-73.5515"/>
</g>
<!-- Node13 -->
<g id="node13" class="node"><title>Node13</title>
<polygon fill="none" stroke="#bfbfbf" points="681.5,-56.5 681.5,-75.5 728.5,-75.5 728.5,-56.5 681.5,-56.5"/>
<text text-anchor="middle" x="705" y="-63.5" font-family="Helvetica,sans-Serif" font-size="10.00">TList.h</text>
</g>
<!-- Node11&#45;&gt;Node13 -->
<g id="edge13" class="edge"><title>Node11&#45;&gt;Node13</title>
<path fill="none" stroke="midnightblue" d="M882.201,-112.441C847.699,-104.116 793.782,-90.9098 738.678,-76.393"/>
<polygon fill="midnightblue" stroke="midnightblue" points="739.306,-72.9388 728.744,-73.7648 737.516,-79.706 739.306,-72.9388"/>
</g>
<!-- Node14 -->
<g id="node14" class="node"><title>Node14</title>
<polygon fill="none" stroke="#bfbfbf" points="746.5,-56.5 746.5,-75.5 817.5,-75.5 817.5,-56.5 746.5,-56.5"/>
<text text-anchor="middle" x="782" y="-63.5" font-family="Helvetica,sans-Serif" font-size="10.00">TMessage.h</text>
</g>
<!-- Node11&#45;&gt;Node14 -->
<g id="edge14" class="edge"><title>Node11&#45;&gt;Node14</title>
<path fill="none" stroke="midnightblue" d="M896.45,-112.444C873.969,-103.517 838.512,-89.4387 813.02,-79.3168"/>
<polygon fill="midnightblue" stroke="midnightblue" points="814.035,-75.9539 803.449,-75.5164 811.451,-82.4598 814.035,-75.9539"/>
</g>
<!-- Node15 -->
<g id="node15" class="node"><title>Node15</title>
<polygon fill="none" stroke="#bfbfbf" points="835.5,-56.5 835.5,-75.5 904.5,-75.5 904.5,-56.5 835.5,-56.5"/>
<text text-anchor="middle" x="870" y="-63.5" font-family="Helvetica,sans-Serif" font-size="10.00">TObjArray.h</text>
</g>
<!-- Node11&#45;&gt;Node15 -->
<g id="edge15" class="edge"><title>Node11&#45;&gt;Node15</title>
<path fill="none" stroke="midnightblue" d="M910.074,-112.083C903.154,-104.298 892.935,-92.8015 884.548,-83.3665"/>
<polygon fill="midnightblue" stroke="midnightblue" points="887.038,-80.8999 877.779,-75.7511 881.806,-85.5505 887.038,-80.8999"/>
</g>
<!-- Node16 -->
<g id="node16" class="node"><title>Node16</title>
<polygon fill="none" stroke="#bfbfbf" points="922.5,-56.5 922.5,-75.5 1009.5,-75.5 1009.5,-56.5 922.5,-56.5"/>
<text text-anchor="middle" x="966" y="-63.5" font-family="Helvetica,sans-Serif" font-size="10.00">TStreamerInfo.h</text>
</g>
<!-- Node11&#45;&gt;Node16 -->
<g id="edge16" class="edge"><title>Node11&#45;&gt;Node16</title>
<path fill="none" stroke="midnightblue" d="M925.926,-112.083C932.846,-104.298 943.065,-92.8015 951.452,-83.3665"/>
<polygon fill="midnightblue" stroke="midnightblue" points="954.194,-85.5505 958.221,-75.7511 948.962,-80.8999 954.194,-85.5505"/>
</g>
<!-- Node17 -->
<g id="node17" class="node"><title>Node17</title>
<polygon fill="none" stroke="#bfbfbf" points="1027.5,-56.5 1027.5,-75.5 1090.5,-75.5 1090.5,-56.5 1027.5,-56.5"/>
<text text-anchor="middle" x="1059" y="-63.5" font-family="Helvetica,sans-Serif" font-size="10.00">gsl/gsl_util</text>
</g>
<!-- Node11&#45;&gt;Node17 -->
<g id="edge17" class="edge"><title>Node11&#45;&gt;Node17</title>
<path fill="none" stroke="midnightblue" d="M940.342,-112.444C963.753,-103.478 1000.74,-89.314 1027.19,-79.1827"/>
<polygon fill="midnightblue" stroke="midnightblue" points="1028.68,-82.3615 1036.76,-75.5164 1026.17,-75.8245 1028.68,-82.3615"/>
</g>
<!-- Node18 -->
<g id="node18" class="node"><title>Node18</title>
<polygon fill="none" stroke="#bfbfbf" points="1108.5,-56.5 1108.5,-75.5 1161.5,-75.5 1161.5,-56.5 1108.5,-56.5"/>
<text text-anchor="middle" x="1135" y="-63.5" font-family="Helvetica,sans-Serif" font-size="10.00">gsl/span</text>
</g>
<!-- Node11&#45;&gt;Node18 -->
<g id="edge18" class="edge"><title>Node11&#45;&gt;Node18</title>
<path fill="none" stroke="midnightblue" d="M952.365,-112.47C986.785,-103.924 1041.54,-90.3195 1098.38,-76.1516"/>
<polygon fill="midnightblue" stroke="midnightblue" points="1099.41,-79.503 1108.26,-73.6879 1097.71,-72.7109 1099.41,-79.503"/>
</g>
<!-- Node19 -->
<g id="node19" class="node"><title>Node19</title>
<polygon fill="none" stroke="#bfbfbf" points="1180,-56.5 1180,-75.5 1224,-75.5 1224,-56.5 1180,-56.5"/>
<text text-anchor="middle" x="1202" y="-63.5" font-family="Helvetica,sans-Serif" font-size="10.00">mutex</text>
</g>
<!-- Node11&#45;&gt;Node19 -->
<g id="edge20" class="edge"><title>Node11&#45;&gt;Node19</title>
<path fill="none" stroke="midnightblue" d="M974.867,-112.469C1023.95,-104.737 1096.91,-92.3691 1169.87,-75.827"/>
<polygon fill="midnightblue" stroke="midnightblue" points="1170.73,-79.2206 1179.69,-73.5736 1169.16,-72.3977 1170.73,-79.2206"/>
</g>
<!-- Node20&#45;&gt;Node21 -->
<g id="edge22" class="edge"><title>Node20&#45;&gt;Node21</title>
<path fill="none" stroke="midnightblue" d="M1282.04,-112.444C1327.32,-103.004 1400.23,-87.802 1449.11,-77.6111"/>
<polygon fill="midnightblue" stroke="midnightblue" points="1450.08,-80.9839 1459.15,-75.5164 1448.65,-74.1312 1450.08,-80.9839"/>
</g>
<!-- Node21&#45;&gt;Node22 -->
<g id="edge23" class="edge"><title>Node21&#45;&gt;Node22</title>
<path fill="none" stroke="midnightblue" d="M1472.75,-56.4435C1443.56,-47.2801 1397.08,-32.6876 1364.69,-22.5192"/>
<polygon fill="midnightblue" stroke="midnightblue" points="1365.72,-19.1726 1355.13,-19.5164 1363.62,-25.8512 1365.72,-19.1726"/>
</g>
<!-- Node21&#45;&gt;Node23 -->
<g id="edge24" class="edge"><title>Node21&#45;&gt;Node23</title>
<path fill="none" stroke="midnightblue" d="M1522.34,-56.4435C1545.75,-47.4776 1582.74,-33.314 1609.19,-23.1827"/>
<polygon fill="midnightblue" stroke="midnightblue" points="1610.68,-26.3615 1618.76,-19.5164 1608.17,-19.8245 1610.68,-26.3615"/>
</g>
<!-- Node28&#45;&gt;Node29 -->
<g id="edge32" class="edge"><title>Node28&#45;&gt;Node29</title>
<path fill="none" stroke="midnightblue" d="M328.936,-168.444C310.425,-159.675 281.419,-145.935 260.145,-135.858"/>
<polygon fill="midnightblue" stroke="midnightblue" points="261.515,-132.634 250.979,-131.516 258.518,-138.96 261.515,-132.634"/>
</g>
<!-- Node28&#45;&gt;Node30 -->
<g id="edge38" class="edge"><title>Node28&#45;&gt;Node30</title>
<path fill="none" stroke="midnightblue" d="M345.195,-168.368C341.484,-150.617 332.921,-109.666 327.889,-85.5974"/>
<polygon fill="midnightblue" stroke="midnightblue" points="331.269,-84.6634 325.796,-75.5914 324.417,-86.0961 331.269,-84.6634"/>
</g>
<!-- Node33 -->
<g id="node33" class="node"><title>Node33</title>
<polygon fill="none" stroke="#bfbfbf" points="352.5,-112.5 352.5,-131.5 401.5,-131.5 401.5,-112.5 352.5,-112.5"/>
<text text-anchor="middle" x="377" y="-119.5" font-family="Helvetica,sans-Serif" font-size="10.00">cstddef</text>
</g>
<!-- Node28&#45;&gt;Node33 -->
<g id="edge37" class="edge"><title>Node28&#45;&gt;Node33</title>
<path fill="none" stroke="midnightblue" d="M351.954,-168.083C356.104,-160.613 362.153,-149.724 367.267,-140.52"/>
<polygon fill="midnightblue" stroke="midnightblue" points="370.341,-142.192 372.138,-131.751 364.222,-138.793 370.341,-142.192"/>
</g>
<!-- Node29&#45;&gt;Node5 -->
<g id="edge36" class="edge"><title>Node29&#45;&gt;Node5</title>
<path fill="none" stroke="midnightblue" d="M262.789,-112.444C294.829,-103.241 345.933,-88.5617 381.353,-78.3879"/>
<polygon fill="midnightblue" stroke="midnightblue" points="382.705,-81.6412 391.35,-75.5164 380.773,-74.9132 382.705,-81.6412"/>
</g>
<!-- Node29&#45;&gt;Node30 -->
<g id="edge33" class="edge"><title>Node29&#45;&gt;Node30</title>
<path fill="none" stroke="midnightblue" d="M247.621,-112.324C261.949,-103.822 284.013,-90.7288 300.749,-80.7975"/>
<polygon fill="midnightblue" stroke="midnightblue" points="302.602,-83.7677 309.416,-75.6545 299.03,-77.7478 302.602,-83.7677"/>
</g>
<!-- Node31 -->
<g id="node31" class="node"><title>Node31</title>
<polygon fill="none" stroke="#bfbfbf" points="104,-56.5 104,-75.5 156,-75.5 156,-56.5 104,-56.5"/>
<text text-anchor="middle" x="130" y="-63.5" font-family="Helvetica,sans-Serif" font-size="10.00">ostream</text>
</g>
<!-- Node29&#45;&gt;Node31 -->
<g id="edge34" class="edge"><title>Node29&#45;&gt;Node31</title>
<path fill="none" stroke="midnightblue" d="M216.451,-112.324C200.008,-103.703 174.565,-90.3643 155.532,-80.3855"/>
<polygon fill="midnightblue" stroke="midnightblue" points="156.989,-77.198 146.508,-75.6545 153.739,-83.3977 156.989,-77.198"/>
</g>
<!-- Node32 -->
<g id="node32" class="node"><title>Node32</title>
<g id="a_node32"><a xlink:href="../../dc/dca/Lifetime_8h.html" target="_top" xlink:title="Framework/Lifetime.h">
<polygon fill="none" stroke="black" points="174.5,-56.5 174.5,-75.5 285.5,-75.5 285.5,-56.5 174.5,-56.5"/>
<text text-anchor="middle" x="230" y="-63.5" font-family="Helvetica,sans-Serif" font-size="10.00">Framework/Lifetime.h</text>
</a>
</g>
</g>
<!-- Node29&#45;&gt;Node32 -->
<g id="edge35" class="edge"><title>Node29&#45;&gt;Node32</title>
<path fill="none" stroke="midnightblue" d="M232.505,-112.083C232.111,-105.006 231.548,-94.8611 231.055,-85.9865"/>
<polygon fill="midnightblue" stroke="midnightblue" points="234.536,-85.5415 230.486,-75.7511 227.546,-85.9299 234.536,-85.5415"/>
</g>
</g>
</svg>
        <g id="navigator" transform="translate(0 0)" fill="#404254">
                <rect fill="#f2f5e9" fill-opacity="0.5" stroke="#606060" stroke-width=".5" x="0" y="0" width="60" height="60"/>
                <use id="zoomplus" xlink:href="#zoomPlus" x="17" y="9" onmousedown="handleZoom(evt,'in')"/>
                <use id="zoomminus" xlink:href="#zoomMin" x="42" y="9" onmousedown="handleZoom(evt,'out')"/>
                <use id="reset" xlink:href="#resetDef" x="30" y="36" onmousedown="handleReset()"/>
                <g id="arrowUp" xlink:href="#dirArrow" transform="translate(30 24)" onmousedown="handlePan(0,-1)">
                  <use xlink:href="#rim" fill="#404040">
                        <set attributeName="fill" to="#808080" begin="arrowUp.mouseover" end="arrowUp.mouseout"/>
                  </use>
                  <path fill="none" stroke="white" stroke-width="1.5" d="M0,-3.0v7 M-2.5,-0.5L0,-3.0L2.5,-0.5"/>
                </g>
                <g id="arrowRight" xlink:href="#dirArrow" transform="rotate(90) translate(36 -43)" onmousedown="handlePan(1,0)">
                  <use xlink:href="#rim" fill="#404040">
                        <set attributeName="fill" to="#808080" begin="arrowRight.mouseover" end="arrowRight.mouseout"/>
                  </use>
                  <path fill="none" stroke="white" stroke-width="1.5" d="M0,-3.0v7 M-2.5,-0.5L0,-3.0L2.5,-0.5"/>
                </g>
                <g id="arrowDown" xlink:href="#dirArrow" transform="rotate(180) translate(-30 -48)" onmousedown="handlePan(0,1)">
                  <use xlink:href="#rim" fill="#404040">
                        <set attributeName="fill" to="#808080" begin="arrowDown.mouseover" end="arrowDown.mouseout"/>
                  </use>
                  <path fill="none" stroke="white" stroke-width="1.5" d="M0,-3.0v7 M-2.5,-0.5L0,-3.0L2.5,-0.5"/>
                </g>
                <g id="arrowLeft" xlink:href="#dirArrow" transform="rotate(270) translate(-36 17)" onmousedown="handlePan(-1,0)">
                  <use xlink:href="#rim" fill="#404040">
                        <set attributeName="fill" to="#808080" begin="arrowLeft.mouseover" end="arrowLeft.mouseout"/>
                  </use>
                  <path fill="none" stroke="white" stroke-width="1.5" d="M0,-3.0v7 M-2.5,-0.5L0,-3.0L2.5,-0.5"/>
                </g>
        </g>
        <svg viewBox="0 0 15 15" width="100%" height="30px" preserveAspectRatio="xMaxYMin meet">
         <g id="arrow_out" transform="scale(0.3 0.3)">
          <a xlink:href="InputRecord_8cxx__incl_org.svg" target="_base">
           <rect id="button" ry="5" rx="5" y="6" x="6" height="38" width="38"
                fill="#f2f5e9" fill-opacity="0.5" stroke="#606060" stroke-width="1.0"/>
           <path id="arrow"
             d="M 11.500037,31.436501 C 11.940474,20.09759 22.043105,11.32322 32.158766,21.979434 L 37.068811,17.246167 C 37.068811,17.246167 37.088388,32 37.088388,32 L 22.160133,31.978069 C 22.160133,31.978069 26.997745,27.140456 26.997745,27.140456 C 18.528582,18.264221 13.291696,25.230495 11.500037,31.436501 z"
             style="fill:#404040;"/>
          </a>
         </g>
        </svg>
</svg>
