<?xml version="1.0" encoding="UTF-8" standalone="no"?>
<!DOCTYPE svg PUBLIC "-//W3C//DTD SVG 1.1//EN"
 "http://www.w3.org/Graphics/SVG/1.1/DTD/svg11.dtd">
<!-- Generated by graphviz version 2.36.0 (20140111.2315)
 -->
<!-- Title: o2::header::HeartbeatFrameEnvelope Pages: 1 -->
<svg width="1605pt" height="952pt"
 viewBox="0.00 0.00 1605.37 952.00" xmlns="http://www.w3.org/2000/svg" xmlns:xlink="http://www.w3.org/1999/xlink">
<g id="graph0" class="graph" transform="scale(1 1) rotate(0) translate(4 948)">
<title>o2::header::HeartbeatFrameEnvelope</title>
<!-- Node1 -->
<g id="node1" class="node"><title>Node1</title>
<polygon fill="#bfbfbf" stroke="black" points="814.179,-0.5 814.179,-79.5 957.179,-79.5 957.179,-0.5 814.179,-0.5"/>
<text text-anchor="start" x="822.179" y="-67.5" font-family="Helvetica,sans-Serif" font-size="10.00">o2::header::HeartbeatFrame</text>
<text text-anchor="middle" x="885.679" y="-56.5" font-family="Helvetica,sans-Serif" font-size="10.00">Envelope</text>
<polyline fill="none" stroke="black" points="814.179,-49.5 957.179,-49.5 "/>
<text text-anchor="middle" x="885.679" y="-37.5" font-family="Helvetica,sans-Serif" font-size="10.00"> </text>
<polyline fill="none" stroke="black" points="814.179,-30.5 957.179,-30.5 "/>
<text text-anchor="start" x="822.179" y="-18.5" font-family="Helvetica,sans-Serif" font-size="10.00">+ HeartbeatFrameEnvelope()</text>
<text text-anchor="start" x="822.179" y="-7.5" font-family="Helvetica,sans-Serif" font-size="10.00">+ HeartbeatFrameEnvelope()</text>
</g>
<!-- Node2 -->
<g id="node2" class="node"><title>Node2</title>
<g id="a_node2"><a xlink:href="../../d8/dbd/structo2_1_1header_1_1BaseHeader.html" target="_top" xlink:title="the base header struct Every header type must begin (i.e. derive) with this. Don&#39;t use this struct di...">
<polygon fill="none" stroke="black" points="629.679,-128.5 629.679,-251.5 751.679,-251.5 751.679,-128.5 629.679,-128.5"/>
<text text-anchor="middle" x="690.679" y="-239.5" font-family="Helvetica,sans-Serif" font-size="10.00">o2::header::BaseHeader</text>
<polyline fill="none" stroke="black" points="629.679,-232.5 751.679,-232.5 "/>
<text text-anchor="middle" x="690.679" y="-220.5" font-family="Helvetica,sans-Serif" font-size="10.00"> </text>
<polyline fill="none" stroke="black" points="629.679,-213.5 751.679,-213.5 "/>
<text text-anchor="start" x="637.679" y="-201.5" font-family="Helvetica,sans-Serif" font-size="10.00">+ BaseHeader()</text>
<text text-anchor="start" x="637.679" y="-190.5" font-family="Helvetica,sans-Serif" font-size="10.00">+ BaseHeader()</text>
<text text-anchor="start" x="637.679" y="-179.5" font-family="Helvetica,sans-Serif" font-size="10.00">+ BaseHeader()</text>
<text text-anchor="start" x="637.679" y="-168.5" font-family="Helvetica,sans-Serif" font-size="10.00">+ size()</text>
<text text-anchor="start" x="637.679" y="-157.5" font-family="Helvetica,sans-Serif" font-size="10.00">+ data()</text>
<text text-anchor="start" x="637.679" y="-146.5" font-family="Helvetica,sans-Serif" font-size="10.00">+ next()</text>
<text text-anchor="start" x="637.679" y="-135.5" font-family="Helvetica,sans-Serif" font-size="10.00">+ get()</text>
</a>
</g>
</g>
<!-- Node2&#45;&gt;Node1 -->
<g id="edge1" class="edge"><title>Node2&#45;&gt;Node1</title>
<path fill="none" stroke="midnightblue" d="M760.098,-136.313C784.765,-117.591 812.053,-96.8802 834.874,-79.56"/>
<polygon fill="none" stroke="midnightblue" points="757.693,-133.744 751.843,-142.578 761.925,-139.32 757.693,-133.744"/>
</g>
<!-- Node3 -->
<g id="node3" class="node"><title>Node3</title>
<g id="a_node3"><a xlink:href="../../d9/db3/structo2_1_1header_1_1Descriptor.html" target="_top" xlink:title="{o2::header::Descriptor\l\&lt; gSizeHeaderDescriptionString \&gt;\n||+ Descriptor()\l+ Descriptor()\l+ Descriptor()\l+ Descriptor()\l+ operator=()\l+ operator ItgType()\l+ runtimeInit()\l+ operator==()\l+ operator==()\l+ operator!=()\l+ operator!=()\l+ print()\l}">
<polygon fill="none" stroke="black" points="432.679,-376.5 432.679,-565.5 598.679,-565.5 598.679,-376.5 432.679,-376.5"/>
<text text-anchor="start" x="440.679" y="-553.5" font-family="Helvetica,sans-Serif" font-size="10.00">o2::header::Descriptor</text>
<text text-anchor="middle" x="515.679" y="-542.5" font-family="Helvetica,sans-Serif" font-size="10.00">&lt; gSizeHeaderDescriptionString &gt;</text>
<polyline fill="none" stroke="black" points="432.679,-535.5 598.679,-535.5 "/>
<text text-anchor="middle" x="515.679" y="-523.5" font-family="Helvetica,sans-Serif" font-size="10.00"> </text>
<polyline fill="none" stroke="black" points="432.679,-516.5 598.679,-516.5 "/>
<text text-anchor="start" x="440.679" y="-504.5" font-family="Helvetica,sans-Serif" font-size="10.00">+ Descriptor()</text>
<text text-anchor="start" x="440.679" y="-493.5" font-family="Helvetica,sans-Serif" font-size="10.00">+ Descriptor()</text>
<text text-anchor="start" x="440.679" y="-482.5" font-family="Helvetica,sans-Serif" font-size="10.00">+ Descriptor()</text>
<text text-anchor="start" x="440.679" y="-471.5" font-family="Helvetica,sans-Serif" font-size="10.00">+ Descriptor()</text>
<text text-anchor="start" x="440.679" y="-460.5" font-family="Helvetica,sans-Serif" font-size="10.00">+ operator=()</text>
<text text-anchor="start" x="440.679" y="-449.5" font-family="Helvetica,sans-Serif" font-size="10.00">+ operator ItgType()</text>
<text text-anchor="start" x="440.679" y="-438.5" font-family="Helvetica,sans-Serif" font-size="10.00">+ runtimeInit()</text>
<text text-anchor="start" x="440.679" y="-427.5" font-family="Helvetica,sans-Serif" font-size="10.00">+ operator==()</text>
<text text-anchor="start" x="440.679" y="-416.5" font-family="Helvetica,sans-Serif" font-size="10.00">+ operator==()</text>
<text text-anchor="start" x="440.679" y="-405.5" font-family="Helvetica,sans-Serif" font-size="10.00">+ operator!=()</text>
<text text-anchor="start" x="440.679" y="-394.5" font-family="Helvetica,sans-Serif" font-size="10.00">+ operator!=()</text>
<text text-anchor="start" x="440.679" y="-383.5" font-family="Helvetica,sans-Serif" font-size="10.00">+ print()</text>
</a>
</g>
</g>
<!-- Node3&#45;&gt;Node2 -->
<g id="edge2" class="edge"><title>Node3&#45;&gt;Node2</title>
<path fill="none" stroke="#404040" d="M531.255,-376.274C540.491,-340.573 555.011,-301.048 577.679,-270 588.852,-254.696 603.92,-241.303 619.406,-230.102"/>
<polygon fill="none" stroke="#404040" points="619.73,-229.878 622.395,-223.178 629.606,-223.061 626.941,-229.761 619.73,-229.878"/>
<text text-anchor="middle" x="606.179" y="-311.5" font-family="Helvetica,sans-Serif" font-size="10.00"> +description</text>
</g>
<!-- Node4 -->
<g id="node4" class="node"><title>Node4</title>
<polygon fill="none" stroke="#bfbfbf" points="275.679,-885.5 275.679,-942.5 313.679,-942.5 313.679,-885.5 275.679,-885.5"/>
<text text-anchor="middle" x="294.679" y="-930.5" font-family="Helvetica,sans-Serif" font-size="10.00">Type</text>
<polyline fill="none" stroke="#bfbfbf" points="275.679,-923.5 313.679,-923.5 "/>
<text text-anchor="middle" x="294.679" y="-911.5" font-family="Helvetica,sans-Serif" font-size="10.00"> </text>
<polyline fill="none" stroke="#bfbfbf" points="275.679,-904.5 313.679,-904.5 "/>
<text text-anchor="middle" x="294.679" y="-892.5" font-family="Helvetica,sans-Serif" font-size="10.00"> </text>
</g>
<!-- Node4&#45;&gt;Node3 -->
<g id="edge3" class="edge"><title>Node4&#45;&gt;Node3</title>
<path fill="none" stroke="#404040" d="M313.824,-888.629C328.188,-869.325 347.412,-841.173 359.679,-814 395.703,-734.205 356.529,-691.996 411.679,-624 422.698,-610.415 434.307,-618.366 446.679,-606 455.515,-597.169 463.455,-586.971 470.526,-576.223"/>
<polygon fill="none" stroke="#404040" points="470.69,-575.96 470.471,-568.752 477.04,-565.777 477.259,-572.985 470.69,-575.96"/>
<text text-anchor="middle" x="421.679" y="-716.5" font-family="Helvetica,sans-Serif" font-size="10.00"> +itg</text>
</g>
<!-- Node8 -->
<g id="node8" class="node"><title>Node8</title>
<g id="a_node8"><a xlink:href="../../d9/db3/structo2_1_1header_1_1Descriptor.html" target="_top" xlink:title="{o2::header::Descriptor\l\&lt; N, PrinterPolicy \&gt;\n||+ Descriptor()\l+ Descriptor()\l+ Descriptor()\l+ operator=()\l+ operator ItgType()\l+ Descriptor()\l+ runtimeInit()\l+ operator==()\l+ operator!=()\l+ operator==()\l+ operator!=()\l+ print()\l}">
<polygon fill="none" stroke="black" points="238.179,-624.5 238.179,-813.5 351.179,-813.5 351.179,-624.5 238.179,-624.5"/>
<text text-anchor="start" x="246.179" y="-801.5" font-family="Helvetica,sans-Serif" font-size="10.00">o2::header::Descriptor</text>
<text text-anchor="middle" x="294.679" y="-790.5" font-family="Helvetica,sans-Serif" font-size="10.00">&lt; N, PrinterPolicy &gt;</text>
<polyline fill="none" stroke="black" points="238.179,-783.5 351.179,-783.5 "/>
<text text-anchor="middle" x="294.679" y="-771.5" font-family="Helvetica,sans-Serif" font-size="10.00"> </text>
<polyline fill="none" stroke="black" points="238.179,-764.5 351.179,-764.5 "/>
<text text-anchor="start" x="246.179" y="-752.5" font-family="Helvetica,sans-Serif" font-size="10.00">+ Descriptor()</text>
<text text-anchor="start" x="246.179" y="-741.5" font-family="Helvetica,sans-Serif" font-size="10.00">+ Descriptor()</text>
<text text-anchor="start" x="246.179" y="-730.5" font-family="Helvetica,sans-Serif" font-size="10.00">+ Descriptor()</text>
<text text-anchor="start" x="246.179" y="-719.5" font-family="Helvetica,sans-Serif" font-size="10.00">+ operator=()</text>
<text text-anchor="start" x="246.179" y="-708.5" font-family="Helvetica,sans-Serif" font-size="10.00">+ operator ItgType()</text>
<text text-anchor="start" x="246.179" y="-697.5" font-family="Helvetica,sans-Serif" font-size="10.00">+ Descriptor()</text>
<text text-anchor="start" x="246.179" y="-686.5" font-family="Helvetica,sans-Serif" font-size="10.00">+ runtimeInit()</text>
<text text-anchor="start" x="246.179" y="-675.5" font-family="Helvetica,sans-Serif" font-size="10.00">+ operator==()</text>
<text text-anchor="start" x="246.179" y="-664.5" font-family="Helvetica,sans-Serif" font-size="10.00">+ operator!=()</text>
<text text-anchor="start" x="246.179" y="-653.5" font-family="Helvetica,sans-Serif" font-size="10.00">+ operator==()</text>
<text text-anchor="start" x="246.179" y="-642.5" font-family="Helvetica,sans-Serif" font-size="10.00">+ operator!=()</text>
<text text-anchor="start" x="246.179" y="-631.5" font-family="Helvetica,sans-Serif" font-size="10.00">+ print()</text>
</a>
</g>
</g>
<!-- Node4&#45;&gt;Node8 -->
<g id="edge8" class="edge"><title>Node4&#45;&gt;Node8</title>
<path fill="none" stroke="#404040" d="M294.679,-885.348C294.679,-869.342 294.679,-848.063 294.679,-826.114"/>
<polygon fill="none" stroke="#404040" points="294.679,-825.881 290.679,-819.881 294.679,-813.881 298.679,-819.881 294.679,-825.881"/>
<text text-anchor="middle" x="304.679" y="-846.5" font-family="Helvetica,sans-Serif" font-size="10.00"> +itg</text>
</g>
<!-- Node10 -->
<g id="node10" class="node"><title>Node10</title>
<g id="a_node10"><a xlink:href="../../d9/db3/structo2_1_1header_1_1Descriptor.html" target="_top" xlink:title="{o2::header::Descriptor\l\&lt; gSizeSerializationMethodString \&gt;\n||+ Descriptor()\l+ Descriptor()\l+ Descriptor()\l+ Descriptor()\l+ operator=()\l+ operator ItgType()\l+ runtimeInit()\l+ operator==()\l+ operator==()\l+ operator!=()\l+ operator!=()\l+ print()\l}">
<polygon fill="none" stroke="black" points="79.6789,-376.5 79.6789,-565.5 249.679,-565.5 249.679,-376.5 79.6789,-376.5"/>
<text text-anchor="start" x="87.6789" y="-553.5" font-family="Helvetica,sans-Serif" font-size="10.00">o2::header::Descriptor</text>
<text text-anchor="middle" x="164.679" y="-542.5" font-family="Helvetica,sans-Serif" font-size="10.00">&lt; gSizeSerializationMethodString &gt;</text>
<polyline fill="none" stroke="black" points="79.6789,-535.5 249.679,-535.5 "/>
<text text-anchor="middle" x="164.679" y="-523.5" font-family="Helvetica,sans-Serif" font-size="10.00"> </text>
<polyline fill="none" stroke="black" points="79.6789,-516.5 249.679,-516.5 "/>
<text text-anchor="start" x="87.6789" y="-504.5" font-family="Helvetica,sans-Serif" font-size="10.00">+ Descriptor()</text>
<text text-anchor="start" x="87.6789" y="-493.5" font-family="Helvetica,sans-Serif" font-size="10.00">+ Descriptor()</text>
<text text-anchor="start" x="87.6789" y="-482.5" font-family="Helvetica,sans-Serif" font-size="10.00">+ Descriptor()</text>
<text text-anchor="start" x="87.6789" y="-471.5" font-family="Helvetica,sans-Serif" font-size="10.00">+ Descriptor()</text>
<text text-anchor="start" x="87.6789" y="-460.5" font-family="Helvetica,sans-Serif" font-size="10.00">+ operator=()</text>
<text text-anchor="start" x="87.6789" y="-449.5" font-family="Helvetica,sans-Serif" font-size="10.00">+ operator ItgType()</text>
<text text-anchor="start" x="87.6789" y="-438.5" font-family="Helvetica,sans-Serif" font-size="10.00">+ runtimeInit()</text>
<text text-anchor="start" x="87.6789" y="-427.5" font-family="Helvetica,sans-Serif" font-size="10.00">+ operator==()</text>
<text text-anchor="start" x="87.6789" y="-416.5" font-family="Helvetica,sans-Serif" font-size="10.00">+ operator==()</text>
<text text-anchor="start" x="87.6789" y="-405.5" font-family="Helvetica,sans-Serif" font-size="10.00">+ operator!=()</text>
<text text-anchor="start" x="87.6789" y="-394.5" font-family="Helvetica,sans-Serif" font-size="10.00">+ operator!=()</text>
<text text-anchor="start" x="87.6789" y="-383.5" font-family="Helvetica,sans-Serif" font-size="10.00">+ print()</text>
</a>
</g>
</g>
<!-- Node4&#45;&gt;Node10 -->
<g id="edge17" class="edge"><title>Node4&#45;&gt;Node10</title>
<path fill="none" stroke="#404040" d="M283.082,-885.147C274.011,-866.979 259.584,-844.411 239.679,-832 191.304,-801.837 150.055,-857.047 112.679,-814 56.7816,-749.622 78.8698,-651.474 109.64,-576.807"/>
<polygon fill="none" stroke="#404040" points="109.75,-576.548 108.412,-569.462 114.439,-565.501 115.777,-572.587 109.75,-576.548"/>
<text text-anchor="middle" x="122.679" y="-716.5" font-family="Helvetica,sans-Serif" font-size="10.00"> +itg</text>
</g>
<!-- Node5 -->
<g id="node5" class="node"><title>Node5</title>
<polygon fill="none" stroke="#bfbfbf" points="718.179,-885 718.179,-943 747.179,-943 747.179,-885 718.179,-885"/>
<polyline fill="none" stroke="#bfbfbf" points="718.179,-923 747.179,-923 "/>
<text text-anchor="middle" x="732.679" y="-911" font-family="Helvetica,sans-Serif" font-size="10.00"> </text>
<polyline fill="none" stroke="#bfbfbf" points="718.179,-904 747.179,-904 "/>
<text text-anchor="middle" x="732.679" y="-892" font-family="Helvetica,sans-Serif" font-size="10.00"> </text>
</g>
<!-- Node5&#45;&gt;Node2 -->
<g id="edge12" class="edge"><title>Node5&#45;&gt;Node2</title>
<path fill="none" stroke="#404040" d="M742.142,-884.911C743.911,-878.742 745.555,-872.199 746.679,-866 793.923,-605.355 829.227,-520.698 743.679,-270 742.866,-267.619 741.963,-265.241 740.982,-262.875"/>
<polygon fill="none" stroke="#404040" points="740.945,-262.796 734.786,-259.046 735.88,-251.918 742.039,-255.668 740.945,-262.796"/>
<text text-anchor="middle" x="809.179" y="-592.5" font-family="Helvetica,sans-Serif" font-size="10.00"> +@11</text>
</g>
<!-- Node5&#45;&gt;Node2 -->
<g id="edge14" class="edge"><title>Node5&#45;&gt;Node2</title>
<path fill="none" stroke="#404040" d="M731.032,-884.697C725,-781.002 703.989,-419.805 694.911,-263.743"/>
<polygon fill="none" stroke="#404040" points="694.897,-263.504 690.555,-257.747 694.2,-251.525 698.542,-257.282 694.897,-263.504"/>
<text text-anchor="middle" x="730.179" y="-592.5" font-family="Helvetica,sans-Serif" font-size="10.00"> +@13</text>
</g>
<!-- Node5&#45;&gt;Node3 -->
<g id="edge4" class="edge"><title>Node5&#45;&gt;Node3</title>
<path fill="none" stroke="#404040" d="M718.775,-884.743C688.81,-823.847 616.843,-677.59 567.159,-576.62"/>
<polygon fill="none" stroke="#404040" points="567.118,-576.536 560.879,-572.919 561.819,-565.769 568.057,-569.387 567.118,-576.536"/>
<text text-anchor="middle" x="696.179" y="-716.5" font-family="Helvetica,sans-Serif" font-size="10.00"> +@9</text>
</g>
<!-- Node5&#45;&gt;Node8 -->
<g id="edge9" class="edge"><title>Node5&#45;&gt;Node8</title>
<path fill="none" stroke="#404040" d="M718.04,-909.555C687.13,-902.203 613.004,-884.16 551.679,-866 505.86,-852.432 495.66,-845.008 449.679,-832 415.861,-822.433 402.569,-832.486 372.679,-814 368.536,-811.438 364.509,-808.579 360.61,-805.497"/>
<polygon fill="none" stroke="#404040" points="360.299,-805.23 353.14,-804.361 351.19,-797.418 358.348,-798.288 360.299,-805.23"/>
<text text-anchor="middle" x="564.179" y="-846.5" font-family="Helvetica,sans-Serif" font-size="10.00"> +@9</text>
</g>
<!-- Node5&#45;&gt;Node10 -->
<g id="edge18" class="edge"><title>Node5&#45;&gt;Node10</title>
<path fill="none" stroke="#404040" d="M718.114,-904.09C691.085,-887.864 630.967,-853.218 576.679,-832 548.36,-820.932 530.496,-837.06 510.679,-814 482.976,-781.764 500.811,-664.736 488.679,-624 483.006,-604.951 485.036,-595.293 468.679,-584 436.143,-561.538 328.55,-580.27 291.679,-566 281.046,-561.885 270.519,-556.629 260.342,-550.71"/>
<polygon fill="none" stroke="#404040" points="260.118,-550.573 252.913,-550.862 249.875,-544.322 257.08,-544.033 260.118,-550.573"/>
<text text-anchor="middle" x="523.179" y="-716.5" font-family="Helvetica,sans-Serif" font-size="10.00"> +@9</text>
</g>
<!-- Node11 -->
<g id="node11" class="node"><title>Node11</title>
<g id="a_node11"><a xlink:href="../../dd/da3/structo2_1_1header_1_1HeartbeatHeader.html" target="_top" xlink:title="{o2::header::HeartbeatHeader\n||+ operator bool()\l+ operator\&lt;()\l+ operator uint64_t()\l}">
<polygon fill="none" stroke="black" points="952.179,-150.5 952.179,-229.5 1095.18,-229.5 1095.18,-150.5 952.179,-150.5"/>
<text text-anchor="middle" x="1023.68" y="-217.5" font-family="Helvetica,sans-Serif" font-size="10.00">o2::header::HeartbeatHeader</text>
<polyline fill="none" stroke="black" points="952.179,-210.5 1095.18,-210.5 "/>
<text text-anchor="middle" x="1023.68" y="-198.5" font-family="Helvetica,sans-Serif" font-size="10.00"> </text>
<polyline fill="none" stroke="black" points="952.179,-191.5 1095.18,-191.5 "/>
<text text-anchor="start" x="960.179" y="-179.5" font-family="Helvetica,sans-Serif" font-size="10.00">+ operator bool()</text>
<text text-anchor="start" x="960.179" y="-168.5" font-family="Helvetica,sans-Serif" font-size="10.00">+ operator&lt;()</text>
<text text-anchor="start" x="960.179" y="-157.5" font-family="Helvetica,sans-Serif" font-size="10.00">+ operator uint64_t()</text>
</a>
</g>
</g>
<!-- Node5&#45;&gt;Node11 -->
<g id="edge28" class="edge"><title>Node5&#45;&gt;Node11</title>
<path fill="none" stroke="#404040" d="M747.216,-893.509C784.376,-842.63 883.241,-700.41 930.679,-566 975.107,-440.116 938.468,-396.307 981.679,-270 985.04,-260.176 989.509,-250.096 994.279,-240.564"/>
<polygon fill="none" stroke="#404040" points="994.411,-240.31 993.644,-233.14 999.967,-229.674 1000.73,-236.844 994.411,-240.31"/>
<text text-anchor="middle" x="939.179" y="-592.5" font-family="Helvetica,sans-Serif" font-size="10.00"> +@17</text>
</g>
<!-- Node15 -->
<g id="node15" class="node"><title>Node15</title>
<g id="a_node15"><a xlink:href="../../d1/dfe/structo2_1_1header_1_1HeartbeatTrailer.html" target="_top" xlink:title="{o2::header::HeartbeatTrailer\n||+ operator bool()\l+ operator uint64_t()\l}">
<polygon fill="none" stroke="black" points="1282.68,-156 1282.68,-224 1420.68,-224 1420.68,-156 1282.68,-156"/>
<text text-anchor="middle" x="1351.68" y="-212" font-family="Helvetica,sans-Serif" font-size="10.00">o2::header::HeartbeatTrailer</text>
<polyline fill="none" stroke="black" points="1282.68,-205 1420.68,-205 "/>
<text text-anchor="middle" x="1351.68" y="-193" font-family="Helvetica,sans-Serif" font-size="10.00"> </text>
<polyline fill="none" stroke="black" points="1282.68,-186 1420.68,-186 "/>
<text text-anchor="start" x="1290.68" y="-174" font-family="Helvetica,sans-Serif" font-size="10.00">+ operator bool()</text>
<text text-anchor="start" x="1290.68" y="-163" font-family="Helvetica,sans-Serif" font-size="10.00">+ operator uint64_t()</text>
</a>
</g>
</g>
<!-- Node5&#45;&gt;Node15 -->
<g id="edge35" class="edge"><title>Node5&#45;&gt;Node15</title>
<path fill="none" stroke="#404040" d="M747.229,-909.932C829.002,-892 1235.82,-793.605 1464.68,-566 1563.14,-468.08 1643.98,-383.99 1564.68,-270 1535.05,-227.409 1479.63,-207.729 1432.74,-198.661"/>
<polygon fill="none" stroke="#404040" points="1432.53,-198.624 1425.93,-201.513 1420.72,-196.526 1427.32,-193.636 1432.53,-198.624"/>
<text text-anchor="middle" x="1455.18" y="-592.5" font-family="Helvetica,sans-Serif" font-size="10.00"> +@21</text>
</g>
<!-- Node6 -->
<g id="node6" class="node"><title>Node6</title>
<polygon fill="none" stroke="#bfbfbf" points="495.179,-885.5 495.179,-942.5 530.179,-942.5 530.179,-885.5 495.179,-885.5"/>
<text text-anchor="middle" x="512.679" y="-930.5" font-family="Helvetica,sans-Serif" font-size="10.00">char</text>
<polyline fill="none" stroke="#bfbfbf" points="495.179,-923.5 530.179,-923.5 "/>
<text text-anchor="middle" x="512.679" y="-911.5" font-family="Helvetica,sans-Serif" font-size="10.00"> </text>
<polyline fill="none" stroke="#bfbfbf" points="495.179,-904.5 530.179,-904.5 "/>
<text text-anchor="middle" x="512.679" y="-892.5" font-family="Helvetica,sans-Serif" font-size="10.00"> </text>
</g>
<!-- Node6&#45;&gt;Node2 -->
<g id="edge15" class="edge"><title>Node6&#45;&gt;Node2</title>
<path fill="none" stroke="#404040" d="M530.312,-907.952C564.249,-897.168 637.916,-868.326 667.679,-814 708.253,-739.942 701.045,-701.573 667.679,-624 663.083,-613.314 653.275,-616.686 648.679,-606 600.258,-493.427 634.204,-348.346 662.781,-262.923"/>
<polygon fill="none" stroke="#404040" points="662.794,-262.884 660.952,-255.913 666.679,-251.531 668.521,-258.503 662.794,-262.884"/>
<text text-anchor="middle" x="679.179" y="-592.5" font-family="Helvetica,sans-Serif" font-size="10.00"> +magicString</text>
</g>
<!-- Node6&#45;&gt;Node3 -->
<g id="edge5" class="edge"><title>Node6&#45;&gt;Node3</title>
<path fill="none" stroke="#404040" d="M530.348,-897.433C538.521,-889.043 547.36,-877.968 551.679,-866 556.808,-851.786 552.114,-847.105 551.679,-832 549.011,-739.44 549.579,-716.067 539.679,-624 538.079,-609.119 536.03,-593.471 533.805,-578.105"/>
<polygon fill="none" stroke="#404040" points="533.749,-577.733 528.912,-572.385 531.988,-565.863 536.825,-571.211 533.749,-577.733"/>
<text text-anchor="middle" x="562.179" y="-716.5" font-family="Helvetica,sans-Serif" font-size="10.00"> +str</text>
</g>
<!-- Node6&#45;&gt;Node8 -->
<g id="edge10" class="edge"><title>Node6&#45;&gt;Node8</title>
<path fill="none" stroke="#404040" d="M494.915,-905.402C476.471,-897.093 447.219,-882.711 424.679,-866 401.181,-848.579 378.77,-826.34 359.378,-804.501"/>
<polygon fill="none" stroke="#404040" points="359.141,-804.228 352.183,-802.333 351.257,-795.181 358.215,-797.077 359.141,-804.228"/>
<text text-anchor="middle" x="435.179" y="-846.5" font-family="Helvetica,sans-Serif" font-size="10.00"> +str</text>
</g>
<!-- Node6&#45;&gt;Node10 -->
<g id="edge19" class="edge"><title>Node6&#45;&gt;Node10</title>
<path fill="none" stroke="#404040" d="M494.78,-896.353C486.972,-888.021 478.511,-877.311 473.679,-866 464.539,-844.606 469.87,-837.161 467.679,-814 465.265,-788.489 468.552,-602.363 450.679,-584 422.948,-555.51 309.165,-581.793 272.679,-566 268.559,-564.217 264.482,-562.217 260.463,-560.04"/>
<polygon fill="none" stroke="#404040" points="260.325,-559.959 253.126,-560.377 249.972,-553.892 257.171,-553.475 260.325,-559.959"/>
<text text-anchor="middle" x="478.179" y="-716.5" font-family="Helvetica,sans-Serif" font-size="10.00"> +str</text>
</g>
<!-- Node7 -->
<g id="node7" class="node"><title>Node7</title>
<polygon fill="none" stroke="#bfbfbf" points="140.179,-885.5 140.179,-942.5 169.179,-942.5 169.179,-885.5 140.179,-885.5"/>
<text text-anchor="middle" x="154.679" y="-930.5" font-family="Helvetica,sans-Serif" font-size="10.00">int</text>
<polyline fill="none" stroke="#bfbfbf" points="140.179,-923.5 169.179,-923.5 "/>
<text text-anchor="middle" x="154.679" y="-911.5" font-family="Helvetica,sans-Serif" font-size="10.00"> </text>
<polyline fill="none" stroke="#bfbfbf" points="140.179,-904.5 169.179,-904.5 "/>
<text text-anchor="middle" x="154.679" y="-892.5" font-family="Helvetica,sans-Serif" font-size="10.00"> </text>
</g>
<!-- Node7&#45;&gt;Node3 -->
<g id="edge6" class="edge"><title>Node7&#45;&gt;Node3</title>
<path fill="none" stroke="#404040" d="M151.678,-885.475C143.781,-810.328 124.384,-605.803 144.679,-584 163.73,-563.534 369.591,-576.06 395.679,-566 404.719,-562.514 413.629,-558.102 422.259,-553.101"/>
<polygon fill="none" stroke="#404040" points="422.411,-553.008 425.432,-546.46 432.638,-546.731 429.617,-553.278 422.411,-553.008"/>
<text text-anchor="middle" x="170.179" y="-727.5" font-family="Helvetica,sans-Serif" font-size="10.00"> +arraySize</text>
<text text-anchor="middle" x="170.179" y="-716.5" font-family="Helvetica,sans-Serif" font-size="10.00">+size</text>
<text text-anchor="middle" x="170.179" y="-705.5" font-family="Helvetica,sans-Serif" font-size="10.00">+bitcount</text>
</g>
<!-- Node7&#45;&gt;Node8 -->
<g id="edge11" class="edge"><title>Node7&#45;&gt;Node8</title>
<path fill="none" stroke="#404040" d="M169.397,-892.71C184.157,-872.362 207.921,-839.602 230.805,-808.054"/>
<polygon fill="none" stroke="#404040" points="230.822,-808.031 231.107,-800.826 237.868,-798.318 237.583,-805.523 230.822,-808.031"/>
<text text-anchor="middle" x="238.179" y="-857.5" font-family="Helvetica,sans-Serif" font-size="10.00"> +arraySize</text>
<text text-anchor="middle" x="238.179" y="-846.5" font-family="Helvetica,sans-Serif" font-size="10.00">+size</text>
<text text-anchor="middle" x="238.179" y="-835.5" font-family="Helvetica,sans-Serif" font-size="10.00">+bitcount</text>
</g>
<!-- Node7&#45;&gt;Node10 -->
<g id="edge20" class="edge"><title>Node7&#45;&gt;Node10</title>
<path fill="none" stroke="#404040" d="M139.907,-907.036C111.493,-894.647 49.9004,-863.121 25.6789,-814 -11.6671,-738.263 -4.88716,-702.718 25.6789,-624 35.8155,-597.895 52.7579,-573.537 71.3937,-552.301"/>
<polygon fill="none" stroke="#404040" points="71.4086,-552.284 72.4757,-545.153 79.4692,-543.395 78.4022,-550.526 71.4086,-552.284"/>
<text text-anchor="middle" x="51.1789" y="-727.5" font-family="Helvetica,sans-Serif" font-size="10.00"> +arraySize</text>
<text text-anchor="middle" x="51.1789" y="-716.5" font-family="Helvetica,sans-Serif" font-size="10.00">+size</text>
<text text-anchor="middle" x="51.1789" y="-705.5" font-family="Helvetica,sans-Serif" font-size="10.00">+bitcount</text>
</g>
<!-- Node8&#45;&gt;Node1 -->
<g id="edge36" class="edge"><title>Node8&#45;&gt;Node1</title>
<path fill="none" stroke="#404040" d="M238.013,-653.677C226.159,-642.709 213.145,-632.222 199.679,-624 177.728,-610.596 168.309,-616.156 144.679,-606 110.331,-591.238 89.8242,-598.112 70.6789,-566 3.30844,-453.001 -7.7271,-374.127 72.6789,-270 162.788,-153.308 612.952,-78.6451 801.937,-51.9828"/>
<polygon fill="none" stroke="#404040" points="802.116,-51.9578 807.504,-47.1654 814,-50.296 808.612,-55.0884 802.116,-51.9578"/>
<text text-anchor="middle" x="121.179" y="-317" font-family="Helvetica,sans-Serif" font-size="10.00"> +sHeaderType</text>
<text text-anchor="middle" x="121.179" y="-306" font-family="Helvetica,sans-Serif" font-size="10.00">+sSerializationMethod</text>
</g>
<!-- Node8&#45;&gt;Node2 -->
<g id="edge22" class="edge"><title>Node8&#45;&gt;Node2</title>
<path fill="none" stroke="#404040" d="M293.548,-624.412C294.233,-537.309 300.17,-415.215 326.679,-376 394.17,-276.159 532.546,-227.338 617.898,-205.804"/>
<polygon fill="none" stroke="#404040" points="617.921,-205.798 622.797,-200.486 629.576,-202.944 624.7,-208.256 617.921,-205.798"/>
<text text-anchor="middle" x="375.179" y="-474" font-family="Helvetica,sans-Serif" font-size="10.00"> +sHeaderType</text>
<text text-anchor="middle" x="375.179" y="-463" font-family="Helvetica,sans-Serif" font-size="10.00">+sSerializationMethod</text>
</g>
<!-- Node8&#45;&gt;Node3 -->
<g id="edge7" class="edge"><title>Node8&#45;&gt;Node3</title>
<path fill="none" stroke="orange" d="M308.437,-615.058C313.39,-603.56 319.969,-592.832 328.679,-584 350.329,-562.046 368.098,-579.785 395.679,-566 408.225,-559.73 420.72,-552.026 432.647,-543.753"/>
<polygon fill="orange" stroke="orange" points="305.158,-613.834 304.803,-624.423 311.684,-616.366 305.158,-613.834"/>
<text text-anchor="start" x="328.679" y="-598" font-family="Helvetica,sans-Serif" font-size="10.00"> &lt; gSizeHeaderDescription</text>
<text text-anchor="middle" x="387.679" y="-587" font-family="Helvetica,sans-Serif" font-size="10.00">String &gt;</text>
</g>
<!-- Node8&#45;&gt;Node10 -->
<g id="edge21" class="edge"><title>Node8&#45;&gt;Node10</title>
<path fill="none" stroke="orange" d="M230.327,-640C223.717,-634.155 216.801,-628.712 209.679,-624 189.282,-610.507 171.865,-625.922 157.679,-606 149.234,-594.14 145.329,-580.084 144.252,-565.611"/>
<polygon fill="orange" stroke="orange" points="228.216,-642.816 237.938,-647.027 232.965,-637.672 228.216,-642.816"/>
<text text-anchor="start" x="157.679" y="-598" font-family="Helvetica,sans-Serif" font-size="10.00"> &lt; gSizeSerializationMethod</text>
<text text-anchor="middle" x="219.179" y="-587" font-family="Helvetica,sans-Serif" font-size="10.00">String &gt;</text>
</g>
<!-- Node9 -->
<g id="node9" class="node"><title>Node9</title>
<polygon fill="none" stroke="#bfbfbf" points="871.179,-442.5 871.179,-499.5 922.179,-499.5 922.179,-442.5 871.179,-442.5"/>
<text text-anchor="middle" x="896.679" y="-487.5" font-family="Helvetica,sans-Serif" font-size="10.00">uint32_t</text>
<polyline fill="none" stroke="#bfbfbf" points="871.179,-480.5 922.179,-480.5 "/>
<text text-anchor="middle" x="896.679" y="-468.5" font-family="Helvetica,sans-Serif" font-size="10.00"> </text>
<polyline fill="none" stroke="#bfbfbf" points="871.179,-461.5 922.179,-461.5 "/>
<text text-anchor="middle" x="896.679" y="-449.5" font-family="Helvetica,sans-Serif" font-size="10.00"> </text>
</g>
<!-- Node9&#45;&gt;Node1 -->
<g id="edge29" class="edge"><title>Node9&#45;&gt;Node1</title>
<path fill="none" stroke="#404040" d="M895.966,-442.183C894.147,-371.25 889.315,-182.814 886.979,-91.717"/>
<polygon fill="none" stroke="#404040" points="886.975,-91.5273 882.822,-85.6318 886.667,-79.5312 890.819,-85.4267 886.975,-91.5273"/>
<text text-anchor="middle" x="915.679" y="-187.5" font-family="Helvetica,sans-Serif" font-size="10.00"> +sVersion</text>
</g>
<!-- Node9&#45;&gt;Node2 -->
<g id="edge13" class="edge"><title>Node9&#45;&gt;Node2</title>
<path fill="none" stroke="#404040" d="M870.789,-449.142C846.812,-428.459 811.902,-394.634 791.679,-358 772.142,-322.609 788.672,-305.135 768.679,-270 765.979,-265.255 762.921,-260.592 759.618,-256.052"/>
<polygon fill="none" stroke="#404040" points="759.414,-255.79 752.571,-253.516 752.038,-246.325 758.881,-248.599 759.414,-255.79"/>
<text text-anchor="middle" x="831.679" y="-350" font-family="Helvetica,sans-Serif" font-size="10.00"> +headerVersion</text>
<text text-anchor="middle" x="831.679" y="-339" font-family="Helvetica,sans-Serif" font-size="10.00">+headerSize</text>
<text text-anchor="middle" x="831.679" y="-328" font-family="Helvetica,sans-Serif" font-size="10.00">+sMagicString</text>
<text text-anchor="middle" x="831.679" y="-317" font-family="Helvetica,sans-Serif" font-size="10.00">+flagsNextHeader</text>
<text text-anchor="middle" x="831.679" y="-306" font-family="Helvetica,sans-Serif" font-size="10.00">+magicStringInt</text>
<text text-anchor="middle" x="831.679" y="-295" font-family="Helvetica,sans-Serif" font-size="10.00">+flagsUnused</text>
<text text-anchor="middle" x="831.679" y="-284" font-family="Helvetica,sans-Serif" font-size="10.00">+flags</text>
<text text-anchor="middle" x="831.679" y="-273" font-family="Helvetica,sans-Serif" font-size="10.00">+sVersion</text>
</g>
<!-- Node9&#45;&gt;Node11 -->
<g id="edge24" class="edge"><title>Node9&#45;&gt;Node11</title>
<path fill="none" stroke="#404040" d="M897.21,-442.349C898.56,-394.539 903.286,-298.774 919.679,-270 922.548,-264.963 939.722,-251.344 959.313,-236.802"/>
<polygon fill="none" stroke="#404040" points="959.406,-236.734 961.869,-229.956 969.072,-229.623 966.609,-236.401 959.406,-236.734"/>
<text text-anchor="middle" x="933.679" y="-311.5" font-family="Helvetica,sans-Serif" font-size="10.00"> +orbit</text>
</g>
<!-- Node9&#45;&gt;Node15 -->
<g id="edge31" class="edge"><title>Node9&#45;&gt;Node15</title>
<path fill="none" stroke="#404040" d="M922.44,-459.463C958.633,-443.268 1023.88,-408.718 1057.68,-358 1079.87,-324.704 1049.35,-299.226 1076.68,-270 1090.27,-255.47 1194.51,-228.194 1270.65,-209.811"/>
<polygon fill="none" stroke="#404040" points="1270.94,-209.741 1275.84,-204.451 1282.61,-206.94 1277.71,-212.23 1270.94,-209.741"/>
<text text-anchor="middle" x="1104.18" y="-317" font-family="Helvetica,sans-Serif" font-size="10.00"> +status</text>
<text text-anchor="middle" x="1104.18" y="-306" font-family="Helvetica,sans-Serif" font-size="10.00">+dataLength</text>
</g>
<!-- Node10&#45;&gt;Node2 -->
<g id="edge16" class="edge"><title>Node10&#45;&gt;Node2</title>
<path fill="none" stroke="#404040" d="M168.979,-376.488C175.598,-338.314 189.874,-296.905 219.679,-270 276.967,-218.286 500.006,-200.008 617.436,-193.884"/>
<polygon fill="none" stroke="#404040" points="617.509,-193.881 623.301,-189.585 629.494,-193.279 623.702,-197.575 617.509,-193.881"/>
<text text-anchor="middle" x="250.179" y="-311.5" font-family="Helvetica,sans-Serif" font-size="10.00"> +serialization</text>
</g>
<!-- Node11&#45;&gt;Node1 -->
<g id="edge23" class="edge"><title>Node11&#45;&gt;Node1</title>
<path fill="none" stroke="#404040" d="M987.421,-150.115C969.831,-131.25 948.546,-108.422 930,-88.5326"/>
<polygon fill="none" stroke="#404040" points="929.878,-88.4022 922.861,-86.7417 921.695,-79.6256 928.712,-81.286 929.878,-88.4022"/>
<text text-anchor="middle" x="966.179" y="-101.5" font-family="Helvetica,sans-Serif" font-size="10.00"> +header</text>
</g>
<!-- Node12 -->
<g id="node12" class="node"><title>Node12</title>
<polygon fill="none" stroke="#bfbfbf" points="1131.18,-442.5 1131.18,-499.5 1182.18,-499.5 1182.18,-442.5 1131.18,-442.5"/>
<text text-anchor="middle" x="1156.68" y="-487.5" font-family="Helvetica,sans-Serif" font-size="10.00">uint64_t</text>
<polyline fill="none" stroke="#bfbfbf" points="1131.18,-480.5 1182.18,-480.5 "/>
<text text-anchor="middle" x="1156.68" y="-468.5" font-family="Helvetica,sans-Serif" font-size="10.00"> </text>
<polyline fill="none" stroke="#bfbfbf" points="1131.18,-461.5 1182.18,-461.5 "/>
<text text-anchor="middle" x="1156.68" y="-449.5" font-family="Helvetica,sans-Serif" font-size="10.00"> </text>
</g>
<!-- Node12&#45;&gt;Node11 -->
<g id="edge25" class="edge"><title>Node12&#45;&gt;Node11</title>
<path fill="none" stroke="#404040" d="M1130.98,-460.981C1093.26,-446.178 1024.3,-412.773 995.679,-358 976.72,-321.716 986.673,-275.49 999.693,-240.876"/>
<polygon fill="none" stroke="#404040" points="999.74,-240.758 998.25,-233.703 1004.19,-229.613 1005.68,-236.669 999.74,-240.758"/>
<text text-anchor="middle" x="1026.68" y="-311.5" font-family="Helvetica,sans-Serif" font-size="10.00"> +headerWord</text>
</g>
<!-- Node12&#45;&gt;Node15 -->
<g id="edge32" class="edge"><title>Node12&#45;&gt;Node15</title>
<path fill="none" stroke="#404040" d="M1174.51,-442.241C1187.99,-422.482 1207.7,-395.997 1228.68,-376 1238.85,-366.304 1246.62,-369.516 1254.68,-358 1277.85,-324.876 1258.15,-305.395 1277.68,-270 1284.91,-256.888 1294.81,-244.284 1305.02,-233.143"/>
<polygon fill="none" stroke="#404040" points="1305.32,-232.826 1306.58,-225.724 1313.61,-224.149 1312.36,-231.251 1305.32,-232.826"/>
<text text-anchor="middle" x="1306.18" y="-311.5" font-family="Helvetica,sans-Serif" font-size="10.00"> +trailerWord</text>
</g>
<!-- Node13 -->
<g id="node13" class="node"><title>Node13</title>
<polygon fill="none" stroke="#bfbfbf" points="1405.18,-442.5 1405.18,-499.5 1456.18,-499.5 1456.18,-442.5 1405.18,-442.5"/>
<text text-anchor="middle" x="1430.68" y="-487.5" font-family="Helvetica,sans-Serif" font-size="10.00">uint16_t</text>
<polyline fill="none" stroke="#bfbfbf" points="1405.18,-480.5 1456.18,-480.5 "/>
<text text-anchor="middle" x="1430.68" y="-468.5" font-family="Helvetica,sans-Serif" font-size="10.00"> </text>
<polyline fill="none" stroke="#bfbfbf" points="1405.18,-461.5 1456.18,-461.5 "/>
<text text-anchor="middle" x="1430.68" y="-449.5" font-family="Helvetica,sans-Serif" font-size="10.00"> </text>
</g>
<!-- Node13&#45;&gt;Node11 -->
<g id="edge26" class="edge"><title>Node13&#45;&gt;Node11</title>
<path fill="none" stroke="#404040" d="M1407.09,-442.359C1389.82,-420.735 1367.14,-389.197 1353.68,-358 1337.82,-321.264 1362.46,-298.799 1334.68,-270 1330.62,-265.787 1197.74,-233.032 1107.01,-211.043"/>
<polygon fill="none" stroke="#404040" points="1107,-211.041 1100.23,-213.517 1095.34,-208.217 1102.11,-205.741 1107,-211.041"/>
<text text-anchor="middle" x="1377.18" y="-317" font-family="Helvetica,sans-Serif" font-size="10.00"> +reserved</text>
<text text-anchor="middle" x="1377.18" y="-306" font-family="Helvetica,sans-Serif" font-size="10.00">+bcid</text>
</g>
<!-- Node13&#45;&gt;Node15 -->
<g id="edge33" class="edge"><title>Node13&#45;&gt;Node15</title>
<path fill="none" stroke="#404040" d="M1450.1,-442.453C1475.83,-402.264 1514.43,-326.231 1482.68,-270 1471.11,-249.519 1451.87,-233.754 1431.65,-221.893"/>
<polygon fill="none" stroke="#404040" points="1431.53,-221.829 1424.35,-222.44 1421.02,-216.043 1428.21,-215.432 1431.53,-221.829"/>
<text text-anchor="middle" x="1527.18" y="-328" font-family="Helvetica,sans-Serif" font-size="10.00"> +hbfTruncated</text>
<text text-anchor="middle" x="1527.18" y="-317" font-family="Helvetica,sans-Serif" font-size="10.00">+hbfStatus</text>
<text text-anchor="middle" x="1527.18" y="-306" font-family="Helvetica,sans-Serif" font-size="10.00">+trailerLength</text>
<text text-anchor="middle" x="1527.18" y="-295" font-family="Helvetica,sans-Serif" font-size="10.00">+hbAccept</text>
</g>
<!-- Node14 -->
<g id="node14" class="node"><title>Node14</title>
<polygon fill="none" stroke="#bfbfbf" points="1237.68,-442.5 1237.68,-499.5 1283.68,-499.5 1283.68,-442.5 1237.68,-442.5"/>
<text text-anchor="middle" x="1260.68" y="-487.5" font-family="Helvetica,sans-Serif" font-size="10.00">uint8_t</text>
<polyline fill="none" stroke="#bfbfbf" points="1237.68,-480.5 1283.68,-480.5 "/>
<text text-anchor="middle" x="1260.68" y="-468.5" font-family="Helvetica,sans-Serif" font-size="10.00"> </text>
<polyline fill="none" stroke="#bfbfbf" points="1237.68,-461.5 1283.68,-461.5 "/>
<text text-anchor="middle" x="1260.68" y="-449.5" font-family="Helvetica,sans-Serif" font-size="10.00"> </text>
</g>
<!-- Node14&#45;&gt;Node11 -->
<g id="edge27" class="edge"><title>Node14&#45;&gt;Node11</title>
<path fill="none" stroke="#404040" d="M1244.84,-442.144C1232.21,-421.823 1212.99,-394.682 1190.68,-376 1176.96,-364.515 1165.65,-372.133 1154.68,-358 1130.15,-326.388 1157.76,-303.368 1135.68,-270 1127.49,-257.63 1116.65,-246.6 1104.94,-236.991"/>
<polygon fill="none" stroke="#404040" points="1104.87,-236.942 1097.68,-236.428 1095.39,-229.591 1102.58,-230.105 1104.87,-236.942"/>
<text text-anchor="middle" x="1202.68" y="-328" font-family="Helvetica,sans-Serif" font-size="10.00"> +triggerType</text>
<text text-anchor="middle" x="1202.68" y="-317" font-family="Helvetica,sans-Serif" font-size="10.00">+headerLength</text>
<text text-anchor="middle" x="1202.68" y="-306" font-family="Helvetica,sans-Serif" font-size="10.00">+blockType</text>
<text text-anchor="middle" x="1202.68" y="-295" font-family="Helvetica,sans-Serif" font-size="10.00">+reservedTriggerType</text>
</g>
<!-- Node14&#45;&gt;Node15 -->
<g id="edge34" class="edge"><title>Node14&#45;&gt;Node15</title>
<path fill="none" stroke="#404040" d="M1283.75,-460.185C1317.6,-444.353 1379.42,-409.639 1404.68,-358 1421.86,-322.866 1416.07,-307.416 1404.68,-270 1400.89,-257.547 1394.41,-245.275 1387.25,-234.251"/>
<polygon fill="none" stroke="#404040" points="1387.07,-233.979 1380.37,-231.31 1380.26,-224.1 1386.95,-226.769 1387.07,-233.979"/>
<text text-anchor="middle" x="1442.18" y="-311.5" font-family="Helvetica,sans-Serif" font-size="10.00"> +blockType</text>
</g>
<!-- Node15&#45;&gt;Node1 -->
<g id="edge30" class="edge"><title>Node15&#45;&gt;Node1</title>
<path fill="none" stroke="#404040" d="M1282.67,-167.082C1199.05,-140.526 1058.28,-95.818 968.784,-67.3937"/>
<polygon fill="none" stroke="#404040" points="968.756,-67.3852 961.827,-69.3813 957.319,-63.7527 964.249,-61.7566 968.756,-67.3852"/>
<text text-anchor="middle" x="1108.68" y="-101.5" font-family="Helvetica,sans-Serif" font-size="10.00"> +trailer</text>
</g>
</g>
</svg>
