<?xml version="1.0" encoding="UTF-8" standalone="no"?>
<!DOCTYPE svg PUBLIC "-//W3C//DTD SVG 1.1//EN"
 "http://www.w3.org/Graphics/SVG/1.1/DTD/svg11.dtd">
<!-- Generated by graphviz version 2.36.0 (20140111.2315)
 -->
<!-- Title: /home/travis/build/AliceO2Group/AliceO2/Framework/Core/src/BoostOptionsRetriever.cxx Pages: 1 -->
<svg width="762pt" height="286pt"
 viewBox="0.00 0.00 762.09 286.00" xmlns="http://www.w3.org/2000/svg" xmlns:xlink="http://www.w3.org/1999/xlink">
<g id="graph0" class="graph" transform="scale(1 1) rotate(0) translate(4 282)">
<title>/home/travis/build/AliceO2Group/AliceO2/Framework/Core/src/BoostOptionsRetriever.cxx</title>
<!-- Node1 -->
<g id="node1" class="node"><title>Node1</title>
<polygon fill="#bfbfbf" stroke="black" points="390.5,-225 390.5,-277 561.5,-277 561.5,-225 390.5,-225"/>
<text text-anchor="start" x="398.5" y="-265" font-family="Helvetica,sans-Serif" font-size="10.00">/home/travis/build</text>
<text text-anchor="start" x="398.5" y="-254" font-family="Helvetica,sans-Serif" font-size="10.00">/AliceO2Group/AliceO2</text>
<text text-anchor="start" x="398.5" y="-243" font-family="Helvetica,sans-Serif" font-size="10.00">/Framework/Core/src/BoostOptions</text>
<text text-anchor="middle" x="476" y="-232" font-family="Helvetica,sans-Serif" font-size="10.00">Retriever.cxx</text>
</g>
<!-- Node2 -->
<g id="node2" class="node"><title>Node2</title>
<g id="a_node2"><a xlink:href="../../d3/d7e/BoostOptionsRetriever_8h.html" target="_top" xlink:title="Framework/BoostOptionsRetriever.h">
<polygon fill="none" stroke="black" points="388,-168.5 388,-187.5 564,-187.5 564,-168.5 388,-168.5"/>
<text text-anchor="middle" x="476" y="-175.5" font-family="Helvetica,sans-Serif" font-size="10.00">Framework/BoostOptionsRetriever.h</text>
</a>
</g>
</g>
<!-- Node1&#45;&gt;Node2 -->
<g id="edge1" class="edge"><title>Node1&#45;&gt;Node2</title>
<path fill="none" stroke="midnightblue" d="M476,-224.768C476,-215.89 476,-206.074 476,-197.816"/>
<polygon fill="midnightblue" stroke="midnightblue" points="479.5,-197.757 476,-187.757 472.5,-197.757 479.5,-197.757"/>
</g>
<!-- Node3 -->
<g id="node3" class="node"><title>Node3</title>
<g id="a_node3"><a xlink:href="../../d0/d1c/ConfigParamSpec_8h.html" target="_top" xlink:title="Framework/ConfigParamSpec.h">
<polygon fill="none" stroke="black" points="153,-112.5 153,-131.5 309,-131.5 309,-112.5 153,-112.5"/>
<text text-anchor="middle" x="231" y="-119.5" font-family="Helvetica,sans-Serif" font-size="10.00">Framework/ConfigParamSpec.h</text>
</a>
</g>
</g>
<!-- Node1&#45;&gt;Node3 -->
<g id="edge18" class="edge"><title>Node1&#45;&gt;Node3</title>
<path fill="none" stroke="midnightblue" d="M404.363,-224.902C378.155,-214.706 348.654,-202.017 323,-188 296.01,-173.254 267.461,-152.095 249.455,-137.968"/>
<polygon fill="midnightblue" stroke="midnightblue" points="251.521,-135.139 241.515,-131.656 247.165,-140.619 251.521,-135.139"/>
</g>
<!-- Node4 -->
<g id="node4" class="node"><title>Node4</title>
<polygon fill="none" stroke="#bfbfbf" points="335.5,-56.5 335.5,-75.5 376.5,-75.5 376.5,-56.5 335.5,-56.5"/>
<text text-anchor="middle" x="356" y="-63.5" font-family="Helvetica,sans-Serif" font-size="10.00">string</text>
</g>
<!-- Node1&#45;&gt;Node4 -->
<g id="edge20" class="edge"><title>Node1&#45;&gt;Node4</title>
<path fill="none" stroke="midnightblue" d="M420.014,-224.86C404.564,-215.385 389.25,-203.145 379,-188 357.902,-156.825 354.945,-111.309 355.155,-85.9159"/>
<polygon fill="midnightblue" stroke="midnightblue" points="358.657,-85.8773 355.421,-75.7889 351.66,-85.6935 358.657,-85.8773"/>
</g>
<!-- Node14 -->
<g id="node14" class="node"><title>Node14</title>
<polygon fill="none" stroke="#bfbfbf" points="555,-56.5 555,-75.5 599,-75.5 599,-56.5 555,-56.5"/>
<text text-anchor="middle" x="577" y="-63.5" font-family="Helvetica,sans-Serif" font-size="10.00">vector</text>
</g>
<!-- Node1&#45;&gt;Node14 -->
<g id="edge21" class="edge"><title>Node1&#45;&gt;Node14</title>
<path fill="none" stroke="midnightblue" d="M561.643,-237.952C624.945,-224.072 706.98,-194.509 748,-132 781.546,-80.8805 667.93,-69.8871 609.519,-67.5783"/>
<polygon fill="midnightblue" stroke="midnightblue" points="609.413,-64.073 599.303,-67.2406 609.182,-71.0692 609.413,-64.073"/>
</g>
<!-- Node15 -->
<g id="node15" class="node"><title>Node15</title>
<polygon fill="none" stroke="#bfbfbf" points="605,-112.5 605,-131.5 739,-131.5 739,-112.5 605,-112.5"/>
<text text-anchor="middle" x="672" y="-119.5" font-family="Helvetica,sans-Serif" font-size="10.00">boost/program_options.hpp</text>
</g>
<!-- Node1&#45;&gt;Node15 -->
<g id="edge19" class="edge"><title>Node1&#45;&gt;Node15</title>
<path fill="none" stroke="midnightblue" d="M514.786,-224.987C532.275,-213.699 553.185,-200.191 572,-188 598.975,-170.523 630.003,-150.342 650.252,-137.162"/>
<polygon fill="midnightblue" stroke="midnightblue" points="652.273,-140.023 658.744,-131.634 648.454,-134.157 652.273,-140.023"/>
</g>
<!-- Node2&#45;&gt;Node3 -->
<g id="edge2" class="edge"><title>Node2&#45;&gt;Node3</title>
<path fill="none" stroke="midnightblue" d="M437.179,-168.444C394.439,-159.023 325.668,-143.866 279.434,-133.675"/>
<polygon fill="midnightblue" stroke="midnightblue" points="280.158,-130.251 269.639,-131.516 278.652,-137.087 280.158,-130.251"/>
</g>
<!-- Node2&#45;&gt;Node4 -->
<g id="edge16" class="edge"><title>Node2&#45;&gt;Node4</title>
<path fill="none" stroke="midnightblue" d="M453.002,-168.374C435.272,-160.847 410.99,-148.536 394,-132 380.265,-118.632 369.798,-99.2544 363.361,-85.1362"/>
<polygon fill="midnightblue" stroke="midnightblue" points="366.404,-83.3541 359.237,-75.5519 359.974,-86.121 366.404,-83.3541"/>
</g>
<!-- Node13 -->
<g id="node13" class="node"><title>Node13</title>
<g id="a_node13"><a xlink:href="../../df/d72/ParamRetriever_8h.html" target="_top" xlink:title="Framework/ParamRetriever.h">
<polygon fill="none" stroke="black" points="403.5,-112.5 403.5,-131.5 548.5,-131.5 548.5,-112.5 403.5,-112.5"/>
<text text-anchor="middle" x="476" y="-119.5" font-family="Helvetica,sans-Serif" font-size="10.00">Framework/ParamRetriever.h</text>
</a>
</g>
</g>
<!-- Node2&#45;&gt;Node13 -->
<g id="edge12" class="edge"><title>Node2&#45;&gt;Node13</title>
<path fill="none" stroke="midnightblue" d="M476,-168.083C476,-161.006 476,-150.861 476,-141.986"/>
<polygon fill="midnightblue" stroke="midnightblue" points="479.5,-141.751 476,-131.751 472.5,-141.751 479.5,-141.751"/>
</g>
<!-- Node2&#45;&gt;Node14 -->
<g id="edge17" class="edge"><title>Node2&#45;&gt;Node14</title>
<path fill="none" stroke="midnightblue" d="M502.087,-168.432C519.924,-161.315 542.819,-149.497 557,-132 567.793,-118.683 572.777,-99.5639 575.069,-85.5076"/>
<polygon fill="midnightblue" stroke="midnightblue" points="578.548,-85.9003 576.39,-75.5276 571.608,-84.9819 578.548,-85.9003"/>
</g>
<!-- Node2&#45;&gt;Node15 -->
<g id="edge15" class="edge"><title>Node2&#45;&gt;Node15</title>
<path fill="none" stroke="midnightblue" d="M507.057,-168.444C540.603,-159.201 594.197,-144.436 631.141,-134.257"/>
<polygon fill="midnightblue" stroke="midnightblue" points="632.377,-137.547 641.089,-131.516 630.518,-130.798 632.377,-137.547"/>
</g>
<!-- Node3&#45;&gt;Node4 -->
<g id="edge3" class="edge"><title>Node3&#45;&gt;Node4</title>
<path fill="none" stroke="midnightblue" d="M250.807,-112.444C271.287,-103.596 303.483,-89.6875 326.865,-79.5865"/>
<polygon fill="midnightblue" stroke="midnightblue" points="328.494,-82.6953 336.286,-75.5164 325.718,-76.2692 328.494,-82.6953"/>
</g>
<!-- Node5 -->
<g id="node5" class="node"><title>Node5</title>
<g id="a_node5"><a xlink:href="../../de/d56/Variant_8h.html" target="_top" xlink:title="Framework/Variant.h">
<polygon fill="none" stroke="black" points="177.5,-56.5 177.5,-75.5 284.5,-75.5 284.5,-56.5 177.5,-56.5"/>
<text text-anchor="middle" x="231" y="-63.5" font-family="Helvetica,sans-Serif" font-size="10.00">Framework/Variant.h</text>
</a>
</g>
</g>
<!-- Node3&#45;&gt;Node5 -->
<g id="edge4" class="edge"><title>Node3&#45;&gt;Node5</title>
<path fill="none" stroke="midnightblue" d="M231,-112.083C231,-105.006 231,-94.8611 231,-85.9865"/>
<polygon fill="midnightblue" stroke="midnightblue" points="234.5,-85.751 231,-75.7511 227.5,-85.7511 234.5,-85.751"/>
</g>
<!-- Node6 -->
<g id="node6" class="node"><title>Node6</title>
<polygon fill="none" stroke="#bfbfbf" points="0,-0.5 0,-19.5 62,-19.5 62,-0.5 0,-0.5"/>
<text text-anchor="middle" x="31" y="-7.5" font-family="Helvetica,sans-Serif" font-size="10.00">type_traits</text>
</g>
<!-- Node5&#45;&gt;Node6 -->
<g id="edge5" class="edge"><title>Node5&#45;&gt;Node6</title>
<path fill="none" stroke="midnightblue" d="M199.309,-56.4435C164.831,-47.1343 109.599,-32.2218 71.8787,-22.0372"/>
<polygon fill="midnightblue" stroke="midnightblue" points="72.7798,-18.6553 62.2131,-19.4275 70.955,-25.4133 72.7798,-18.6553"/>
</g>
<!-- Node7 -->
<g id="node7" class="node"><title>Node7</title>
<polygon fill="none" stroke="#bfbfbf" points="80,-0.5 80,-19.5 126,-19.5 126,-0.5 80,-0.5"/>
<text text-anchor="middle" x="103" y="-7.5" font-family="Helvetica,sans-Serif" font-size="10.00">cstring</text>
</g>
<!-- Node5&#45;&gt;Node7 -->
<g id="edge6" class="edge"><title>Node5&#45;&gt;Node7</title>
<path fill="none" stroke="midnightblue" d="M210.718,-56.4435C189.653,-47.5566 156.483,-33.5632 132.514,-23.4514"/>
<polygon fill="midnightblue" stroke="midnightblue" points="133.761,-20.1787 123.187,-19.5164 131.04,-26.6283 133.761,-20.1787"/>
</g>
<!-- Node8 -->
<g id="node8" class="node"><title>Node8</title>
<polygon fill="none" stroke="#bfbfbf" points="144,-0.5 144,-19.5 190,-19.5 190,-0.5 144,-0.5"/>
<text text-anchor="middle" x="167" y="-7.5" font-family="Helvetica,sans-Serif" font-size="10.00">cstdint</text>
</g>
<!-- Node5&#45;&gt;Node8 -->
<g id="edge7" class="edge"><title>Node5&#45;&gt;Node8</title>
<path fill="none" stroke="midnightblue" d="M220.717,-56.324C211.164,-48.2631 196.72,-36.0765 185.216,-26.3695"/>
<polygon fill="midnightblue" stroke="midnightblue" points="187.37,-23.6076 177.47,-19.8339 182.856,-28.9577 187.37,-23.6076"/>
</g>
<!-- Node9 -->
<g id="node9" class="node"><title>Node9</title>
<polygon fill="none" stroke="#bfbfbf" points="208.5,-0.5 208.5,-19.5 253.5,-19.5 253.5,-0.5 208.5,-0.5"/>
<text text-anchor="middle" x="231" y="-7.5" font-family="Helvetica,sans-Serif" font-size="10.00">cstdlib</text>
</g>
<!-- Node5&#45;&gt;Node9 -->
<g id="edge8" class="edge"><title>Node5&#45;&gt;Node9</title>
<path fill="none" stroke="midnightblue" d="M231,-56.083C231,-49.0059 231,-38.8611 231,-29.9865"/>
<polygon fill="midnightblue" stroke="midnightblue" points="234.5,-29.751 231,-19.7511 227.5,-29.7511 234.5,-29.751"/>
</g>
<!-- Node10 -->
<g id="node10" class="node"><title>Node10</title>
<polygon fill="none" stroke="#bfbfbf" points="271.5,-0.5 271.5,-19.5 330.5,-19.5 330.5,-0.5 271.5,-0.5"/>
<text text-anchor="middle" x="301" y="-7.5" font-family="Helvetica,sans-Serif" font-size="10.00">stdexcept</text>
</g>
<!-- Node5&#45;&gt;Node10 -->
<g id="edge9" class="edge"><title>Node5&#45;&gt;Node10</title>
<path fill="none" stroke="midnightblue" d="M242.247,-56.324C252.797,-48.1849 268.801,-35.8395 281.442,-26.0874"/>
<polygon fill="midnightblue" stroke="midnightblue" points="283.769,-28.7132 289.549,-19.8339 279.493,-23.1707 283.769,-28.7132"/>
</g>
<!-- Node11 -->
<g id="node11" class="node"><title>Node11</title>
<polygon fill="none" stroke="#bfbfbf" points="348.5,-0.5 348.5,-19.5 393.5,-19.5 393.5,-0.5 348.5,-0.5"/>
<text text-anchor="middle" x="371" y="-7.5" font-family="Helvetica,sans-Serif" font-size="10.00">iosfwd</text>
</g>
<!-- Node5&#45;&gt;Node11 -->
<g id="edge10" class="edge"><title>Node5&#45;&gt;Node11</title>
<path fill="none" stroke="midnightblue" d="M253.183,-56.4435C276.428,-47.4776 313.149,-33.314 339.415,-23.1827"/>
<polygon fill="midnightblue" stroke="midnightblue" points="340.85,-26.3807 348.92,-19.5164 338.331,-19.8497 340.85,-26.3807"/>
</g>
<!-- Node12 -->
<g id="node12" class="node"><title>Node12</title>
<polygon fill="none" stroke="#bfbfbf" points="411.5,-0.5 411.5,-19.5 484.5,-19.5 484.5,-0.5 411.5,-0.5"/>
<text text-anchor="middle" x="448" y="-7.5" font-family="Helvetica,sans-Serif" font-size="10.00">initializer_list</text>
</g>
<!-- Node5&#45;&gt;Node12 -->
<g id="edge11" class="edge"><title>Node5&#45;&gt;Node12</title>
<path fill="none" stroke="midnightblue" d="M265.384,-56.4435C302.922,-47.1024 363.131,-32.1194 404.067,-21.9326"/>
<polygon fill="midnightblue" stroke="midnightblue" points="404.918,-25.3278 413.777,-19.5164 403.227,-18.5349 404.918,-25.3278"/>
</g>
<!-- Node13&#45;&gt;Node4 -->
<g id="edge13" class="edge"><title>Node13&#45;&gt;Node4</title>
<path fill="none" stroke="midnightblue" d="M456.986,-112.444C437.412,-103.636 406.692,-89.8116 384.271,-79.722"/>
<polygon fill="midnightblue" stroke="midnightblue" points="385.481,-76.4284 374.925,-75.5164 382.608,-82.8119 385.481,-76.4284"/>
</g>
<!-- Node13&#45;&gt;Node14 -->
<g id="edge14" class="edge"><title>Node13&#45;&gt;Node14</title>
<path fill="none" stroke="midnightblue" d="M492.227,-112.324C508.351,-103.703 533.3,-90.3643 551.964,-80.3855"/>
<polygon fill="midnightblue" stroke="midnightblue" points="553.644,-83.456 560.813,-75.6545 550.344,-77.283 553.644,-83.456"/>
</g>
</g>
</svg>
