<?xml version="1.0" encoding="UTF-8" standalone="no"?>
<!DOCTYPE svg PUBLIC "-//W3C//DTD SVG 1.1//EN"
 "http://www.w3.org/Graphics/SVG/1.1/DTD/svg11.dtd">
<!-- Generated by graphviz version 2.36.0 (20140111.2315)
 -->
<!-- Title: /home/travis/build/AliceO2Group/AliceO2/DataFormats/Detectors/MUON/MID/include/DataFormatsMID/Cluster2D.h Pages: 1 -->
<!--zoomable 342 -->
<svg id="main" version="1.1" xmlns="http://www.w3.org/2000/svg" xmlns:xlink="http://www.w3.org/1999/xlink" xml:space="preserve" onload="init(evt)">
<style type="text/css"><![CDATA[
.edge:hover path { stroke: red; }
.edge:hover polygon { stroke: red; fill: red; }
]]></style>
<script type="text/javascript"><![CDATA[
var edges = document.getElementsByTagName('g');
if (edges && edges.length) {
  for (var i=0;i<edges.length;i++) {
    if (edges[i].id.substr(0,4)=='edge') {
      edges[i].setAttribute('class','edge');
    }
  }
}
]]></script>
        <defs>
                <circle id="rim" cx="0" cy="0" r="7"/>
                <circle id="rim2" cx="0" cy="0" r="3.5"/>
                <g id="zoomPlus">
                        <use xlink:href="#rim" fill="#404040">
                                <set attributeName="fill" to="#808080" begin="zoomplus.mouseover" end="zoomplus.mouseout"/>
                        </use>
                        <path d="M-4,0h8M0,-4v8" fill="none" stroke="white" stroke-width="1.5" pointer-events="none"/>
                </g>
                <g id="zoomMin">
                        <use xlink:href="#rim" fill="#404040">
                                <set attributeName="fill" to="#808080" begin="zoomminus.mouseover" end="zoomminus.mouseout"/>
                        </use>
                        <path d="M-4,0h8" fill="none" stroke="white" stroke-width="1.5" pointer-events="none"/>
                </g>
                <g id="dirArrow">
                        <path fill="none" stroke="white" stroke-width="1.5" d="M0,-3.0v7 M-2.5,-0.5L0,-3.0L2.5,-0.5"/>
                </g>
               <g id="resetDef">
                       <use xlink:href="#rim2" fill="#404040">
                               <set attributeName="fill" to="#808080" begin="reset.mouseover" end="reset.mouseout"/>
                       </use>
               </g>
        </defs>

<script type="text/javascript">
var viewWidth = 1426;
var viewHeight = 342;
var sectionId = 'dynsection-1';
</script>
<script xlink:href="../../svgpan.js"/>
<svg id="graph" class="graph">
<g id="viewport">
<title>/home/travis/build/AliceO2Group/AliceO2/DataFormats/Detectors/MUON/MID/include/DataFormatsMID/Cluster2D.h</title>
<!-- Node1 -->
<g id="node1" class="node"><title>Node1</title>
<polygon fill="#bfbfbf" stroke="black" points="1016.5,-270.5 1016.5,-333.5 1201.5,-333.5 1201.5,-270.5 1016.5,-270.5"/>
<text text-anchor="start" x="1024.5" y="-321.5" font-family="Helvetica,sans-Serif" font-size="10.00">/home/travis/build</text>
<text text-anchor="start" x="1024.5" y="-310.5" font-family="Helvetica,sans-Serif" font-size="10.00">/AliceO2Group/AliceO2</text>
<text text-anchor="start" x="1024.5" y="-299.5" font-family="Helvetica,sans-Serif" font-size="10.00">/DataFormats/Detectors</text>
<text text-anchor="start" x="1024.5" y="-288.5" font-family="Helvetica,sans-Serif" font-size="10.00">/MUON/MID/include/DataFormatsMID</text>
<text text-anchor="middle" x="1109" y="-277.5" font-family="Helvetica,sans-Serif" font-size="10.00">/Cluster2D.h</text>
</g>
<!-- Node2 -->
<g id="node2" class="node"><title>Node2</title>
<g id="a_node2"><a xlink:href="../../d5/d53/Clusterizer_8h.html" target="_top" xlink:title="Cluster reconstruction algorithm for MID. ">
<polygon fill="none" stroke="black" points="365.5,-181 365.5,-233 530.5,-233 530.5,-181 365.5,-181"/>
<text text-anchor="start" x="373.5" y="-221" font-family="Helvetica,sans-Serif" font-size="10.00">/home/travis/build</text>
<text text-anchor="start" x="373.5" y="-210" font-family="Helvetica,sans-Serif" font-size="10.00">/AliceO2Group/AliceO2</text>
<text text-anchor="start" x="373.5" y="-199" font-family="Helvetica,sans-Serif" font-size="10.00">/Detectors/MUON/MID/Clustering</text>
<text text-anchor="middle" x="448" y="-188" font-family="Helvetica,sans-Serif" font-size="10.00">/src/Clusterizer.h</text>
</a>
</g>
</g>
<!-- Node1&#45;&gt;Node2 -->
<g id="edge1" class="edge"><title>Node1&#45;&gt;Node2</title>
<path fill="none" stroke="midnightblue" d="M1006.35,-286.557C875.316,-268.122 651.198,-236.589 530.604,-219.622"/>
<polygon fill="midnightblue" stroke="midnightblue" points="1006,-290.043 1016.39,-287.971 1006.98,-283.112 1006,-290.043"/>
</g>
<!-- Node9 -->
<g id="node9" class="node"><title>Node9</title>
<g id="a_node9"><a xlink:href="../../d6/d51/MUON_2MID_2Tracking_2src_2Tracker_8h.html" target="_top" xlink:title="Track reconstruction algorithm for MID. ">
<polygon fill="none" stroke="black" points="977,-181 977,-233 1135,-233 1135,-181 977,-181"/>
<text text-anchor="start" x="985" y="-221" font-family="Helvetica,sans-Serif" font-size="10.00">/home/travis/build</text>
<text text-anchor="start" x="985" y="-210" font-family="Helvetica,sans-Serif" font-size="10.00">/AliceO2Group/AliceO2</text>
<text text-anchor="start" x="985" y="-199" font-family="Helvetica,sans-Serif" font-size="10.00">/Detectors/MUON/MID/Tracking</text>
<text text-anchor="middle" x="1056" y="-188" font-family="Helvetica,sans-Serif" font-size="10.00">/src/Tracker.h</text>
</a>
</g>
</g>
<!-- Node1&#45;&gt;Node9 -->
<g id="edge8" class="edge"><title>Node1&#45;&gt;Node9</title>
<path fill="none" stroke="midnightblue" d="M1086.54,-261.593C1081.04,-251.941 1075.3,-241.871 1070.3,-233.1"/>
<polygon fill="midnightblue" stroke="midnightblue" points="1083.51,-263.335 1091.5,-270.291 1089.59,-259.869 1083.51,-263.335"/>
</g>
<!-- Node14 -->
<g id="node14" class="node"><title>Node14</title>
<g id="a_node14"><a xlink:href="../../d0/db9/bench__Tracker_8cxx.html" target="_top" xlink:title="Benchmark tracker device for MID. ">
<polygon fill="none" stroke="black" points="1084,-91 1084,-143 1242,-143 1242,-91 1084,-91"/>
<text text-anchor="start" x="1092" y="-131" font-family="Helvetica,sans-Serif" font-size="10.00">/home/travis/build</text>
<text text-anchor="start" x="1092" y="-120" font-family="Helvetica,sans-Serif" font-size="10.00">/AliceO2Group/AliceO2</text>
<text text-anchor="start" x="1092" y="-109" font-family="Helvetica,sans-Serif" font-size="10.00">/Detectors/MUON/MID/Tracking</text>
<text text-anchor="middle" x="1163" y="-98" font-family="Helvetica,sans-Serif" font-size="10.00">/test/bench_Tracker.cxx</text>
</a>
</g>
</g>
<!-- Node1&#45;&gt;Node14 -->
<g id="edge15" class="edge"><title>Node1&#45;&gt;Node14</title>
<path fill="none" stroke="midnightblue" d="M1131.47,-261.529C1135.82,-252.682 1139.95,-243.189 1143,-234 1153.03,-203.74 1158.27,-167.284 1160.82,-143.42"/>
<polygon fill="midnightblue" stroke="midnightblue" points="1128.34,-259.977 1126.92,-270.476 1134.57,-263.155 1128.34,-259.977"/>
</g>
<!-- Node15 -->
<g id="node15" class="node"><title>Node15</title>
<g id="a_node15"><a xlink:href="../../da/de0/testTracker_8cxx.html" target="_top" xlink:title="Test tracking device for MID. ">
<polygon fill="none" stroke="black" points="1260,-91 1260,-143 1418,-143 1418,-91 1260,-91"/>
<text text-anchor="start" x="1268" y="-131" font-family="Helvetica,sans-Serif" font-size="10.00">/home/travis/build</text>
<text text-anchor="start" x="1268" y="-120" font-family="Helvetica,sans-Serif" font-size="10.00">/AliceO2Group/AliceO2</text>
<text text-anchor="start" x="1268" y="-109" font-family="Helvetica,sans-Serif" font-size="10.00">/Detectors/MUON/MID/Tracking</text>
<text text-anchor="middle" x="1339" y="-98" font-family="Helvetica,sans-Serif" font-size="10.00">/test/testTracker.cxx</text>
</a>
</g>
</g>
<!-- Node1&#45;&gt;Node15 -->
<g id="edge16" class="edge"><title>Node1&#45;&gt;Node15</title>
<path fill="none" stroke="midnightblue" d="M1155.39,-264.092C1200.59,-228.126 1268.09,-174.42 1307.42,-143.13"/>
<polygon fill="midnightblue" stroke="midnightblue" points="1153.14,-261.405 1147.5,-270.37 1157.5,-266.883 1153.14,-261.405"/>
</g>
<!-- Node3 -->
<g id="node3" class="node"><title>Node3</title>
<g id="a_node3"><a xlink:href="../../d9/dd5/Clusterizer_8cxx.html" target="_top" xlink:title="Implementation of the cluster reconstruction algorithm for MID. ">
<polygon fill="none" stroke="black" points="-0.5,-91 -0.5,-143 164.5,-143 164.5,-91 -0.5,-91"/>
<text text-anchor="start" x="7.5" y="-131" font-family="Helvetica,sans-Serif" font-size="10.00">/home/travis/build</text>
<text text-anchor="start" x="7.5" y="-120" font-family="Helvetica,sans-Serif" font-size="10.00">/AliceO2Group/AliceO2</text>
<text text-anchor="start" x="7.5" y="-109" font-family="Helvetica,sans-Serif" font-size="10.00">/Detectors/MUON/MID/Clustering</text>
<text text-anchor="middle" x="82" y="-98" font-family="Helvetica,sans-Serif" font-size="10.00">/src/Clusterizer.cxx</text>
</a>
</g>
</g>
<!-- Node2&#45;&gt;Node3 -->
<g id="edge2" class="edge"><title>Node2&#45;&gt;Node3</title>
<path fill="none" stroke="midnightblue" d="M355.471,-186.505C301.975,-174.894 233.489,-159.447 173,-144 170.294,-143.309 167.545,-142.595 164.773,-141.864"/>
<polygon fill="midnightblue" stroke="midnightblue" points="354.765,-189.934 365.28,-188.628 356.246,-183.092 354.765,-189.934"/>
</g>
<!-- Node4 -->
<g id="node4" class="node"><title>Node4</title>
<g id="a_node4"><a xlink:href="../../d8/de7/ClusterizerDevice_8h.html" target="_top" xlink:title="Cluster reconstruction device for MID. ">
<polygon fill="none" stroke="black" points="182.5,-91 182.5,-143 347.5,-143 347.5,-91 182.5,-91"/>
<text text-anchor="start" x="190.5" y="-131" font-family="Helvetica,sans-Serif" font-size="10.00">/home/travis/build</text>
<text text-anchor="start" x="190.5" y="-120" font-family="Helvetica,sans-Serif" font-size="10.00">/AliceO2Group/AliceO2</text>
<text text-anchor="start" x="190.5" y="-109" font-family="Helvetica,sans-Serif" font-size="10.00">/Detectors/MUON/MID/Clustering</text>
<text text-anchor="middle" x="265" y="-98" font-family="Helvetica,sans-Serif" font-size="10.00">/src/ClusterizerDevice.h</text>
</a>
</g>
</g>
<!-- Node2&#45;&gt;Node4 -->
<g id="edge3" class="edge"><title>Node2&#45;&gt;Node4</title>
<path fill="none" stroke="midnightblue" d="M386.432,-176.394C363.935,-165.576 338.726,-153.453 317.132,-143.069"/>
<polygon fill="midnightblue" stroke="midnightblue" points="385.031,-179.603 395.56,-180.783 388.064,-173.295 385.031,-179.603"/>
</g>
<!-- Node7 -->
<g id="node7" class="node"><title>Node7</title>
<g id="a_node7"><a xlink:href="../../d2/d12/bench__Clusterizer_8cxx.html" target="_top" xlink:title="Benchmark clustering device for MID. ">
<polygon fill="none" stroke="black" points="365.5,-91 365.5,-143 530.5,-143 530.5,-91 365.5,-91"/>
<text text-anchor="start" x="373.5" y="-131" font-family="Helvetica,sans-Serif" font-size="10.00">/home/travis/build</text>
<text text-anchor="start" x="373.5" y="-120" font-family="Helvetica,sans-Serif" font-size="10.00">/AliceO2Group/AliceO2</text>
<text text-anchor="start" x="373.5" y="-109" font-family="Helvetica,sans-Serif" font-size="10.00">/Detectors/MUON/MID/Clustering</text>
<text text-anchor="middle" x="448" y="-98" font-family="Helvetica,sans-Serif" font-size="10.00">/test/bench_Clusterizer.cxx</text>
</a>
</g>
</g>
<!-- Node2&#45;&gt;Node7 -->
<g id="edge6" class="edge"><title>Node2&#45;&gt;Node7</title>
<path fill="none" stroke="midnightblue" d="M448,-170.489C448,-161.309 448,-151.616 448,-143.092"/>
<polygon fill="midnightblue" stroke="midnightblue" points="444.5,-170.547 448,-180.547 451.5,-170.547 444.5,-170.547"/>
</g>
<!-- Node8 -->
<g id="node8" class="node"><title>Node8</title>
<g id="a_node8"><a xlink:href="../../d6/dee/testClusterizer_8cxx.html" target="_top" xlink:title="Test clustering device for MID. ">
<polygon fill="none" stroke="black" points="548.5,-91 548.5,-143 713.5,-143 713.5,-91 548.5,-91"/>
<text text-anchor="start" x="556.5" y="-131" font-family="Helvetica,sans-Serif" font-size="10.00">/home/travis/build</text>
<text text-anchor="start" x="556.5" y="-120" font-family="Helvetica,sans-Serif" font-size="10.00">/AliceO2Group/AliceO2</text>
<text text-anchor="start" x="556.5" y="-109" font-family="Helvetica,sans-Serif" font-size="10.00">/Detectors/MUON/MID/Clustering</text>
<text text-anchor="middle" x="631" y="-98" font-family="Helvetica,sans-Serif" font-size="10.00">/test/testClusterizer.cxx</text>
</a>
</g>
</g>
<!-- Node2&#45;&gt;Node8 -->
<g id="edge7" class="edge"><title>Node2&#45;&gt;Node8</title>
<path fill="none" stroke="midnightblue" d="M509.568,-176.394C532.065,-165.576 557.274,-153.453 578.868,-143.069"/>
<polygon fill="midnightblue" stroke="midnightblue" points="507.936,-173.295 500.44,-180.783 510.969,-179.603 507.936,-173.295"/>
</g>
<!-- Node5 -->
<g id="node5" class="node"><title>Node5</title>
<g id="a_node5"><a xlink:href="../../d7/dc5/ClusterizerDevice_8cxx.html" target="_top" xlink:title="Implementation of the cluster reconstruction device for MID. ">
<polygon fill="none" stroke="black" points="91.5,-1 91.5,-53 256.5,-53 256.5,-1 91.5,-1"/>
<text text-anchor="start" x="99.5" y="-41" font-family="Helvetica,sans-Serif" font-size="10.00">/home/travis/build</text>
<text text-anchor="start" x="99.5" y="-30" font-family="Helvetica,sans-Serif" font-size="10.00">/AliceO2Group/AliceO2</text>
<text text-anchor="start" x="99.5" y="-19" font-family="Helvetica,sans-Serif" font-size="10.00">/Detectors/MUON/MID/Clustering</text>
<text text-anchor="middle" x="174" y="-8" font-family="Helvetica,sans-Serif" font-size="10.00">/src/ClusterizerDevice.cxx</text>
</a>
</g>
</g>
<!-- Node4&#45;&gt;Node5 -->
<g id="edge4" class="edge"><title>Node4&#45;&gt;Node5</title>
<path fill="none" stroke="midnightblue" d="M231.32,-83.4308C220.955,-73.4069 209.71,-62.5325 199.948,-53.0921"/>
<polygon fill="midnightblue" stroke="midnightblue" points="229.057,-86.1112 238.679,-90.5468 233.923,-81.0791 229.057,-86.1112"/>
</g>
<!-- Node6 -->
<g id="node6" class="node"><title>Node6</title>
<g id="a_node6"><a xlink:href="../../d8/d5f/runMIDClusterizer_8cxx.html" target="_top" xlink:title="A simple program to reconstruct MID clusters. ">
<polygon fill="none" stroke="black" points="274.5,-1 274.5,-53 439.5,-53 439.5,-1 274.5,-1"/>
<text text-anchor="start" x="282.5" y="-41" font-family="Helvetica,sans-Serif" font-size="10.00">/home/travis/build</text>
<text text-anchor="start" x="282.5" y="-30" font-family="Helvetica,sans-Serif" font-size="10.00">/AliceO2Group/AliceO2</text>
<text text-anchor="start" x="282.5" y="-19" font-family="Helvetica,sans-Serif" font-size="10.00">/Detectors/MUON/MID/Clustering</text>
<text text-anchor="middle" x="357" y="-8" font-family="Helvetica,sans-Serif" font-size="10.00">/src/runMIDClusterizer.cxx</text>
</a>
</g>
</g>
<!-- Node4&#45;&gt;Node6 -->
<g id="edge5" class="edge"><title>Node4&#45;&gt;Node6</title>
<path fill="none" stroke="midnightblue" d="M299.05,-83.4308C309.529,-73.4069 320.898,-62.5325 330.767,-53.0921"/>
<polygon fill="midnightblue" stroke="midnightblue" points="296.417,-81.1052 291.61,-90.5468 301.256,-86.1638 296.417,-81.1052"/>
</g>
<!-- Node10 -->
<g id="node10" class="node"><title>Node10</title>
<g id="a_node10"><a xlink:href="../../d8/da3/TrackerDevice_8h.html" target="_top" xlink:title="Track reconstruction device for MID. ">
<polygon fill="none" stroke="black" points="732,-91 732,-143 890,-143 890,-91 732,-91"/>
<text text-anchor="start" x="740" y="-131" font-family="Helvetica,sans-Serif" font-size="10.00">/home/travis/build</text>
<text text-anchor="start" x="740" y="-120" font-family="Helvetica,sans-Serif" font-size="10.00">/AliceO2Group/AliceO2</text>
<text text-anchor="start" x="740" y="-109" font-family="Helvetica,sans-Serif" font-size="10.00">/Detectors/MUON/MID/Tracking</text>
<text text-anchor="middle" x="811" y="-98" font-family="Helvetica,sans-Serif" font-size="10.00">/src/TrackerDevice.h</text>
</a>
</g>
</g>
<!-- Node9&#45;&gt;Node10 -->
<g id="edge9" class="edge"><title>Node9&#45;&gt;Node10</title>
<path fill="none" stroke="midnightblue" d="M976.697,-177.516C945.866,-166.442 910.848,-153.864 880.972,-143.133"/>
<polygon fill="midnightblue" stroke="midnightblue" points="975.526,-180.814 986.121,-180.901 977.893,-174.226 975.526,-180.814"/>
</g>
<!-- Node13 -->
<g id="node13" class="node"><title>Node13</title>
<g id="a_node13"><a xlink:href="../../de/dbc/MUON_2MID_2Tracking_2src_2Tracker_8cxx.html" target="_top" xlink:title="Implementation of the tracker algorithm for the MID. ">
<polygon fill="none" stroke="black" points="908,-91 908,-143 1066,-143 1066,-91 908,-91"/>
<text text-anchor="start" x="916" y="-131" font-family="Helvetica,sans-Serif" font-size="10.00">/home/travis/build</text>
<text text-anchor="start" x="916" y="-120" font-family="Helvetica,sans-Serif" font-size="10.00">/AliceO2Group/AliceO2</text>
<text text-anchor="start" x="916" y="-109" font-family="Helvetica,sans-Serif" font-size="10.00">/Detectors/MUON/MID/Tracking</text>
<text text-anchor="middle" x="987" y="-98" font-family="Helvetica,sans-Serif" font-size="10.00">/src/Tracker.cxx</text>
</a>
</g>
</g>
<!-- Node9&#45;&gt;Node13 -->
<g id="edge12" class="edge"><title>Node9&#45;&gt;Node13</title>
<path fill="none" stroke="midnightblue" d="M1029.77,-172.553C1022.11,-162.775 1013.86,-152.258 1006.67,-143.092"/>
<polygon fill="midnightblue" stroke="midnightblue" points="1027.12,-174.837 1036.04,-180.547 1032.63,-170.518 1027.12,-174.837"/>
</g>
<!-- Node9&#45;&gt;Node14 -->
<g id="edge13" class="edge"><title>Node9&#45;&gt;Node14</title>
<path fill="none" stroke="midnightblue" d="M1094.61,-174.242C1107.02,-164.042 1120.58,-152.887 1132.33,-143.221"/>
<polygon fill="midnightblue" stroke="midnightblue" points="1092.16,-171.727 1086.66,-180.783 1096.61,-177.134 1092.16,-171.727"/>
</g>
<!-- Node9&#45;&gt;Node15 -->
<g id="edge14" class="edge"><title>Node9&#45;&gt;Node15</title>
<path fill="none" stroke="midnightblue" d="M1144.93,-178.345C1181.75,-166.899 1224.09,-153.732 1259.81,-142.624"/>
<polygon fill="midnightblue" stroke="midnightblue" points="1143.72,-175.059 1135.21,-181.37 1145.8,-181.743 1143.72,-175.059"/>
</g>
<!-- Node11 -->
<g id="node11" class="node"><title>Node11</title>
<g id="a_node11"><a xlink:href="../../dc/df2/runMIDTracking_8cxx.html" target="_top" xlink:title="/home/travis/build\l/AliceO2Group/AliceO2\l/Detectors/MUON/MID/Tracking\l/src/runMIDTracking.cxx">
<polygon fill="none" stroke="black" points="644,-1 644,-53 802,-53 802,-1 644,-1"/>
<text text-anchor="start" x="652" y="-41" font-family="Helvetica,sans-Serif" font-size="10.00">/home/travis/build</text>
<text text-anchor="start" x="652" y="-30" font-family="Helvetica,sans-Serif" font-size="10.00">/AliceO2Group/AliceO2</text>
<text text-anchor="start" x="652" y="-19" font-family="Helvetica,sans-Serif" font-size="10.00">/Detectors/MUON/MID/Tracking</text>
<text text-anchor="middle" x="723" y="-8" font-family="Helvetica,sans-Serif" font-size="10.00">/src/runMIDTracking.cxx</text>
</a>
</g>
</g>
<!-- Node10&#45;&gt;Node11 -->
<g id="edge10" class="edge"><title>Node10&#45;&gt;Node11</title>
<path fill="none" stroke="midnightblue" d="M778.431,-83.4308C768.407,-73.4069 757.533,-62.5325 748.092,-53.0921"/>
<polygon fill="midnightblue" stroke="midnightblue" points="776.001,-85.9505 785.547,-90.5468 780.951,-81.0008 776.001,-85.9505"/>
</g>
<!-- Node12 -->
<g id="node12" class="node"><title>Node12</title>
<g id="a_node12"><a xlink:href="../../d7/d46/TrackerDevice_8cxx.html" target="_top" xlink:title="Implementation of tracker device for the MID. ">
<polygon fill="none" stroke="black" points="820,-1 820,-53 978,-53 978,-1 820,-1"/>
<text text-anchor="start" x="828" y="-41" font-family="Helvetica,sans-Serif" font-size="10.00">/home/travis/build</text>
<text text-anchor="start" x="828" y="-30" font-family="Helvetica,sans-Serif" font-size="10.00">/AliceO2Group/AliceO2</text>
<text text-anchor="start" x="828" y="-19" font-family="Helvetica,sans-Serif" font-size="10.00">/Detectors/MUON/MID/Tracking</text>
<text text-anchor="middle" x="899" y="-8" font-family="Helvetica,sans-Serif" font-size="10.00">/src/TrackerDevice.cxx</text>
</a>
</g>
</g>
<!-- Node10&#45;&gt;Node12 -->
<g id="edge11" class="edge"><title>Node10&#45;&gt;Node12</title>
<path fill="none" stroke="midnightblue" d="M843.569,-83.4308C853.593,-73.4069 864.467,-62.5325 873.908,-53.0921"/>
<polygon fill="midnightblue" stroke="midnightblue" points="841.049,-81.0008 836.453,-90.5468 845.999,-85.9505 841.049,-81.0008"/>
</g>
</g>
</svg>
        <g id="navigator" transform="translate(0 0)" fill="#404254">
                <rect fill="#f2f5e9" fill-opacity="0.5" stroke="#606060" stroke-width=".5" x="0" y="0" width="60" height="60"/>
                <use id="zoomplus" xlink:href="#zoomPlus" x="17" y="9" onmousedown="handleZoom(evt,'in')"/>
                <use id="zoomminus" xlink:href="#zoomMin" x="42" y="9" onmousedown="handleZoom(evt,'out')"/>
                <use id="reset" xlink:href="#resetDef" x="30" y="36" onmousedown="handleReset()"/>
                <g id="arrowUp" xlink:href="#dirArrow" transform="translate(30 24)" onmousedown="handlePan(0,-1)">
                  <use xlink:href="#rim" fill="#404040">
                        <set attributeName="fill" to="#808080" begin="arrowUp.mouseover" end="arrowUp.mouseout"/>
                  </use>
                  <path fill="none" stroke="white" stroke-width="1.5" d="M0,-3.0v7 M-2.5,-0.5L0,-3.0L2.5,-0.5"/>
                </g>
                <g id="arrowRight" xlink:href="#dirArrow" transform="rotate(90) translate(36 -43)" onmousedown="handlePan(1,0)">
                  <use xlink:href="#rim" fill="#404040">
                        <set attributeName="fill" to="#808080" begin="arrowRight.mouseover" end="arrowRight.mouseout"/>
                  </use>
                  <path fill="none" stroke="white" stroke-width="1.5" d="M0,-3.0v7 M-2.5,-0.5L0,-3.0L2.5,-0.5"/>
                </g>
                <g id="arrowDown" xlink:href="#dirArrow" transform="rotate(180) translate(-30 -48)" onmousedown="handlePan(0,1)">
                  <use xlink:href="#rim" fill="#404040">
                        <set attributeName="fill" to="#808080" begin="arrowDown.mouseover" end="arrowDown.mouseout"/>
                  </use>
                  <path fill="none" stroke="white" stroke-width="1.5" d="M0,-3.0v7 M-2.5,-0.5L0,-3.0L2.5,-0.5"/>
                </g>
                <g id="arrowLeft" xlink:href="#dirArrow" transform="rotate(270) translate(-36 17)" onmousedown="handlePan(-1,0)">
                  <use xlink:href="#rim" fill="#404040">
                        <set attributeName="fill" to="#808080" begin="arrowLeft.mouseover" end="arrowLeft.mouseout"/>
                  </use>
                  <path fill="none" stroke="white" stroke-width="1.5" d="M0,-3.0v7 M-2.5,-0.5L0,-3.0L2.5,-0.5"/>
                </g>
        </g>
        <svg viewBox="0 0 15 15" width="100%" height="30px" preserveAspectRatio="xMaxYMin meet">
         <g id="arrow_out" transform="scale(0.3 0.3)">
          <a xlink:href="Cluster2D_8h__dep__incl_org.svg" target="_base">
           <rect id="button" ry="5" rx="5" y="6" x="6" height="38" width="38"
                fill="#f2f5e9" fill-opacity="0.5" stroke="#606060" stroke-width="1.0"/>
           <path id="arrow"
             d="M 11.500037,31.436501 C 11.940474,20.09759 22.043105,11.32322 32.158766,21.979434 L 37.068811,17.246167 C 37.068811,17.246167 37.088388,32 37.088388,32 L 22.160133,31.978069 C 22.160133,31.978069 26.997745,27.140456 26.997745,27.140456 C 18.528582,18.264221 13.291696,25.230495 11.500037,31.436501 z"
             style="fill:#404040;"/>
          </a>
         </g>
        </svg>
</svg>
