<?xml version="1.0" encoding="UTF-8" standalone="no"?>
<!DOCTYPE svg PUBLIC "-//W3C//DTD SVG 1.1//EN"
 "http://www.w3.org/Graphics/SVG/1.1/DTD/svg11.dtd">
<!-- Generated by graphviz version 2.36.0 (20140111.2315)
 -->
<!-- Title: /home/travis/build/AliceO2Group/AliceO2/Utilities/DataFlow/src/TimeframeWriterDevice.cxx Pages: 1 -->
<!--zoomable 298 -->
<svg id="main" version="1.1" xmlns="http://www.w3.org/2000/svg" xmlns:xlink="http://www.w3.org/1999/xlink" xml:space="preserve" onload="init(evt)">
<style type="text/css"><![CDATA[
.edge:hover path { stroke: red; }
.edge:hover polygon { stroke: red; fill: red; }
]]></style>
<script type="text/javascript"><![CDATA[
var edges = document.getElementsByTagName('g');
if (edges && edges.length) {
  for (var i=0;i<edges.length;i++) {
    if (edges[i].id.substr(0,4)=='edge') {
      edges[i].setAttribute('class','edge');
    }
  }
}
]]></script>
        <defs>
                <circle id="rim" cx="0" cy="0" r="7"/>
                <circle id="rim2" cx="0" cy="0" r="3.5"/>
                <g id="zoomPlus">
                        <use xlink:href="#rim" fill="#404040">
                                <set attributeName="fill" to="#808080" begin="zoomplus.mouseover" end="zoomplus.mouseout"/>
                        </use>
                        <path d="M-4,0h8M0,-4v8" fill="none" stroke="white" stroke-width="1.5" pointer-events="none"/>
                </g>
                <g id="zoomMin">
                        <use xlink:href="#rim" fill="#404040">
                                <set attributeName="fill" to="#808080" begin="zoomminus.mouseover" end="zoomminus.mouseout"/>
                        </use>
                        <path d="M-4,0h8" fill="none" stroke="white" stroke-width="1.5" pointer-events="none"/>
                </g>
                <g id="dirArrow">
                        <path fill="none" stroke="white" stroke-width="1.5" d="M0,-3.0v7 M-2.5,-0.5L0,-3.0L2.5,-0.5"/>
                </g>
               <g id="resetDef">
                       <use xlink:href="#rim2" fill="#404040">
                               <set attributeName="fill" to="#808080" begin="reset.mouseover" end="reset.mouseout"/>
                       </use>
               </g>
        </defs>

<script type="text/javascript">
var viewWidth = 1284;
var viewHeight = 298;
var sectionId = 'dynsection-0';
</script>
<script xlink:href="../../svgpan.js"/>
<svg id="graph" class="graph">
<g id="viewport">
<title>/home/travis/build/AliceO2Group/AliceO2/Utilities/DataFlow/src/TimeframeWriterDevice.cxx</title>
<!-- Node1 -->
<g id="node1" class="node"><title>Node1</title>
<polygon fill="#bfbfbf" stroke="black" points="530,-237 530,-289 672,-289 672,-237 530,-237"/>
<text text-anchor="start" x="538" y="-277" font-family="Helvetica,sans-Serif" font-size="10.00">/home/travis/build</text>
<text text-anchor="start" x="538" y="-266" font-family="Helvetica,sans-Serif" font-size="10.00">/AliceO2Group/AliceO2</text>
<text text-anchor="start" x="538" y="-255" font-family="Helvetica,sans-Serif" font-size="10.00">/Utilities/DataFlow/src</text>
<text text-anchor="middle" x="601" y="-244" font-family="Helvetica,sans-Serif" font-size="10.00">/TimeframeWriterDevice.cxx</text>
</g>
<!-- Node2 -->
<g id="node2" class="node"><title>Node2</title>
<polygon fill="none" stroke="#bfbfbf" points="301,-174.5 301,-193.5 345,-193.5 345,-174.5 301,-174.5"/>
<text text-anchor="middle" x="323" y="-181.5" font-family="Helvetica,sans-Serif" font-size="10.00">thread</text>
</g>
<!-- Node1&#45;&gt;Node2 -->
<g id="edge1" class="edge"><title>Node1&#45;&gt;Node2</title>
<path fill="none" stroke="midnightblue" d="M529.848,-248.187C479.864,-237.51 411.869,-221.012 354,-200 352.145,-199.327 350.254,-198.578 348.366,-197.784"/>
<polygon fill="midnightblue" stroke="midnightblue" points="349.691,-194.541 339.14,-193.581 346.789,-200.912 349.691,-194.541"/>
</g>
<!-- Node3 -->
<g id="node3" class="node"><title>Node3</title>
<polygon fill="none" stroke="#bfbfbf" points="652,-56.5 652,-75.5 698,-75.5 698,-56.5 652,-56.5"/>
<text text-anchor="middle" x="675" y="-63.5" font-family="Helvetica,sans-Serif" font-size="10.00">chrono</text>
</g>
<!-- Node1&#45;&gt;Node3 -->
<g id="edge2" class="edge"><title>Node1&#45;&gt;Node3</title>
<path fill="none" stroke="midnightblue" d="M598.994,-236.927C597.643,-205.675 599.165,-151.563 621,-112 627.979,-99.3541 640.048,-88.7825 651.008,-81.0703"/>
<polygon fill="midnightblue" stroke="midnightblue" points="653.017,-83.9379 659.442,-75.5132 649.166,-78.0927 653.017,-83.9379"/>
</g>
<!-- Node4 -->
<g id="node4" class="node"><title>Node4</title>
<g id="a_node4"><a xlink:href="../../dd/dcc/TimeframeWriterDevice_8h.html" target="_top" xlink:title="DataFlow/TimeframeWriter\lDevice.h">
<polygon fill="none" stroke="black" points="363,-169 363,-199 497,-199 497,-169 363,-169"/>
<text text-anchor="start" x="371" y="-187" font-family="Helvetica,sans-Serif" font-size="10.00">DataFlow/TimeframeWriter</text>
<text text-anchor="middle" x="430" y="-176" font-family="Helvetica,sans-Serif" font-size="10.00">Device.h</text>
</a>
</g>
</g>
<!-- Node1&#45;&gt;Node4 -->
<g id="edge3" class="edge"><title>Node1&#45;&gt;Node4</title>
<path fill="none" stroke="midnightblue" d="M545.008,-236.787C520.633,-225.811 492.61,-213.193 470.329,-203.16"/>
<polygon fill="midnightblue" stroke="midnightblue" points="471.714,-199.945 461.159,-199.031 468.84,-206.328 471.714,-199.945"/>
</g>
<!-- Node7 -->
<g id="node7" class="node"><title>Node7</title>
<polygon fill="none" stroke="#bfbfbf" points="352,-56.5 352,-75.5 498,-75.5 498,-56.5 352,-56.5"/>
<text text-anchor="middle" x="425" y="-63.5" font-family="Helvetica,sans-Serif" font-size="10.00">options/FairMQProgOptions.h</text>
</g>
<!-- Node1&#45;&gt;Node7 -->
<g id="edge30" class="edge"><title>Node1&#45;&gt;Node7</title>
<path fill="none" stroke="midnightblue" d="M578.351,-236.906C541.72,-196.32 470.476,-117.385 439.721,-83.3102"/>
<polygon fill="midnightblue" stroke="midnightblue" points="442.118,-80.7426 432.82,-75.6642 436.922,-85.4327 442.118,-80.7426"/>
</g>
<!-- Node8 -->
<g id="node8" class="node"><title>Node8</title>
<g id="a_node8"><a xlink:href="../../dc/dcd/DataHeader_8h.html" target="_top" xlink:title="Headers/DataHeader.h">
<polygon fill="none" stroke="black" points="516.5,-56.5 516.5,-75.5 633.5,-75.5 633.5,-56.5 516.5,-56.5"/>
<text text-anchor="middle" x="575" y="-63.5" font-family="Helvetica,sans-Serif" font-size="10.00">Headers/DataHeader.h</text>
</a>
</g>
</g>
<!-- Node1&#45;&gt;Node8 -->
<g id="edge29" class="edge"><title>Node1&#45;&gt;Node8</title>
<path fill="none" stroke="midnightblue" d="M594.517,-236.807C591.84,-225.602 588.921,-212.209 587,-200 580.658,-159.683 577.364,-111.923 575.925,-86.0209"/>
<polygon fill="midnightblue" stroke="midnightblue" points="579.406,-85.5674 575.39,-75.7633 572.415,-85.932 579.406,-85.5674"/>
</g>
<!-- Node17 -->
<g id="node17" class="node"><title>Node17</title>
<g id="a_node17"><a xlink:href="../../dd/ddb/TimeframeParser_8h.html" target="_top" xlink:title="DataFlow/TimeframeParser.h">
<polygon fill="none" stroke="black" points="841.5,-174.5 841.5,-193.5 986.5,-193.5 986.5,-174.5 841.5,-174.5"/>
<text text-anchor="middle" x="914" y="-181.5" font-family="Helvetica,sans-Serif" font-size="10.00">DataFlow/TimeframeParser.h</text>
</a>
</g>
</g>
<!-- Node1&#45;&gt;Node17 -->
<g id="edge16" class="edge"><title>Node1&#45;&gt;Node17</title>
<path fill="none" stroke="midnightblue" d="M672.025,-244.528C732.729,-229.594 818.185,-208.571 869.621,-195.918"/>
<polygon fill="midnightblue" stroke="midnightblue" points="870.563,-199.29 879.437,-193.503 868.89,-192.493 870.563,-199.29"/>
</g>
<!-- Node20 -->
<g id="node20" class="node"><title>Node20</title>
<g id="a_node20"><a xlink:href="../../de/dfa/TimeFrame_8h.html" target="_top" xlink:title="TimeFrame/TimeFrame.h">
<polygon fill="none" stroke="black" points="651.5,-174.5 651.5,-193.5 778.5,-193.5 778.5,-174.5 651.5,-174.5"/>
<text text-anchor="middle" x="715" y="-181.5" font-family="Helvetica,sans-Serif" font-size="10.00">TimeFrame/TimeFrame.h</text>
</a>
</g>
</g>
<!-- Node1&#45;&gt;Node20 -->
<g id="edge19" class="edge"><title>Node1&#45;&gt;Node20</title>
<path fill="none" stroke="midnightblue" d="M638.328,-236.787C656.784,-224.321 678.376,-209.737 693.936,-199.228"/>
<polygon fill="midnightblue" stroke="midnightblue" points="696.002,-202.055 702.33,-193.558 692.084,-196.255 696.002,-202.055"/>
</g>
<!-- Node25 -->
<g id="node25" class="node"><title>Node25</title>
<g id="a_node25"><a xlink:href="../../d2/d1b/SubframeMetadata_8h.html" target="_top" xlink:title="Headers/SubframeMetadata.h">
<polygon fill="none" stroke="black" points="1004.5,-174.5 1004.5,-193.5 1151.5,-193.5 1151.5,-174.5 1004.5,-174.5"/>
<text text-anchor="middle" x="1078" y="-181.5" font-family="Helvetica,sans-Serif" font-size="10.00">Headers/SubframeMetadata.h</text>
</a>
</g>
</g>
<!-- Node1&#45;&gt;Node25 -->
<g id="edge27" class="edge"><title>Node1&#45;&gt;Node25</title>
<path fill="none" stroke="midnightblue" d="M672.256,-251.285C751.233,-239.293 882.344,-219.041 995,-200 1003.71,-198.528 1012.92,-196.918 1021.91,-195.315"/>
<polygon fill="midnightblue" stroke="midnightblue" points="1022.71,-198.728 1031.94,-193.517 1021.47,-191.838 1022.71,-198.728"/>
</g>
<!-- Node27 -->
<g id="node27" class="node"><title>Node27</title>
<polygon fill="none" stroke="#bfbfbf" points="1169.5,-174.5 1169.5,-193.5 1276.5,-193.5 1276.5,-174.5 1169.5,-174.5"/>
<text text-anchor="middle" x="1223" y="-181.5" font-family="Helvetica,sans-Serif" font-size="10.00">boost/filesystem.hpp</text>
</g>
<!-- Node1&#45;&gt;Node27 -->
<g id="edge31" class="edge"><title>Node1&#45;&gt;Node27</title>
<path fill="none" stroke="midnightblue" d="M672.432,-256.913C779.107,-248.677 986.116,-230.225 1160,-200 1166.7,-198.836 1173.75,-197.385 1180.61,-195.847"/>
<polygon fill="midnightblue" stroke="midnightblue" points="1181.51,-199.23 1190.46,-193.556 1179.93,-192.412 1181.51,-199.23"/>
</g>
<!-- Node5 -->
<g id="node5" class="node"><title>Node5</title>
<g id="a_node5"><a xlink:href="../../d2/dee/O2Device_8h.html" target="_top" xlink:title="O2Device/O2Device.h">
<polygon fill="none" stroke="black" points="245.5,-112.5 245.5,-131.5 360.5,-131.5 360.5,-112.5 245.5,-112.5"/>
<text text-anchor="middle" x="303" y="-119.5" font-family="Helvetica,sans-Serif" font-size="10.00">O2Device/O2Device.h</text>
</a>
</g>
</g>
<!-- Node4&#45;&gt;Node5 -->
<g id="edge4" class="edge"><title>Node4&#45;&gt;Node5</title>
<path fill="none" stroke="midnightblue" d="M400.224,-168.933C379.085,-158.946 350.921,-145.64 330.348,-135.92"/>
<polygon fill="midnightblue" stroke="midnightblue" points="331.74,-132.707 321.203,-131.6 328.75,-139.036 331.74,-132.707"/>
</g>
<!-- Node16 -->
<g id="node16" class="node"><title>Node16</title>
<polygon fill="none" stroke="#bfbfbf" points="405,-112.5 405,-131.5 455,-131.5 455,-112.5 405,-112.5"/>
<text text-anchor="middle" x="430" y="-119.5" font-family="Helvetica,sans-Serif" font-size="10.00">fstream</text>
</g>
<!-- Node4&#45;&gt;Node16 -->
<g id="edge15" class="edge"><title>Node4&#45;&gt;Node16</title>
<path fill="none" stroke="midnightblue" d="M430,-168.781C430,-160.781 430,-150.689 430,-142.017"/>
<polygon fill="midnightblue" stroke="midnightblue" points="433.5,-141.73 430,-131.731 426.5,-141.731 433.5,-141.73"/>
</g>
<!-- Node6 -->
<g id="node6" class="node"><title>Node6</title>
<polygon fill="none" stroke="#bfbfbf" points="246,-56.5 246,-75.5 334,-75.5 334,-56.5 246,-56.5"/>
<text text-anchor="middle" x="290" y="-63.5" font-family="Helvetica,sans-Serif" font-size="10.00">FairMQDevice.h</text>
</g>
<!-- Node5&#45;&gt;Node6 -->
<g id="edge5" class="edge"><title>Node5&#45;&gt;Node6</title>
<path fill="none" stroke="midnightblue" d="M300.853,-112.083C299.131,-104.927 296.653,-94.6353 294.5,-85.6911"/>
<polygon fill="midnightblue" stroke="midnightblue" points="297.85,-84.6541 292.107,-75.7511 291.045,-86.2925 297.85,-84.6541"/>
</g>
<!-- Node5&#45;&gt;Node7 -->
<g id="edge6" class="edge"><title>Node5&#45;&gt;Node7</title>
<path fill="none" stroke="midnightblue" d="M322.331,-112.444C342.32,-103.596 373.743,-89.6875 396.564,-79.5865"/>
<polygon fill="midnightblue" stroke="midnightblue" points="398.032,-82.7645 405.759,-75.5164 395.198,-76.3635 398.032,-82.7645"/>
</g>
<!-- Node5&#45;&gt;Node8 -->
<g id="edge7" class="edge"><title>Node5&#45;&gt;Node8</title>
<path fill="none" stroke="midnightblue" d="M346.099,-112.444C393.847,-102.964 470.861,-87.6747 522.194,-77.4835"/>
<polygon fill="midnightblue" stroke="midnightblue" points="522.975,-80.8968 532.102,-75.5164 521.612,-74.0308 522.975,-80.8968"/>
</g>
<!-- Node14 -->
<g id="node14" class="node"><title>Node14</title>
<polygon fill="none" stroke="#bfbfbf" points="-0.5,-56.5 -0.5,-75.5 150.5,-75.5 150.5,-56.5 -0.5,-56.5"/>
<text text-anchor="middle" x="75" y="-63.5" font-family="Helvetica,sans-Serif" font-size="10.00">Monitoring/MonitoringFactory.h</text>
</g>
<!-- Node5&#45;&gt;Node14 -->
<g id="edge13" class="edge"><title>Node5&#45;&gt;Node14</title>
<path fill="none" stroke="midnightblue" d="M266.873,-112.444C227.349,-103.083 163.903,-88.0561 120.887,-77.868"/>
<polygon fill="midnightblue" stroke="midnightblue" points="121.496,-74.4154 110.958,-75.5164 119.882,-81.2269 121.496,-74.4154"/>
</g>
<!-- Node15 -->
<g id="node15" class="node"><title>Node15</title>
<polygon fill="none" stroke="#bfbfbf" points="168.5,-56.5 168.5,-75.5 227.5,-75.5 227.5,-56.5 168.5,-56.5"/>
<text text-anchor="middle" x="198" y="-63.5" font-family="Helvetica,sans-Serif" font-size="10.00">stdexcept</text>
</g>
<!-- Node5&#45;&gt;Node15 -->
<g id="edge14" class="edge"><title>Node5&#45;&gt;Node15</title>
<path fill="none" stroke="midnightblue" d="M286.13,-112.324C269.291,-103.664 243.193,-90.2424 223.762,-80.249"/>
<polygon fill="midnightblue" stroke="midnightblue" points="225.322,-77.1155 214.828,-75.6545 222.12,-83.3405 225.322,-77.1155"/>
</g>
<!-- Node9 -->
<g id="node9" class="node"><title>Node9</title>
<polygon fill="none" stroke="#bfbfbf" points="490,-0.5 490,-19.5 536,-19.5 536,-0.5 490,-0.5"/>
<text text-anchor="middle" x="513" y="-7.5" font-family="Helvetica,sans-Serif" font-size="10.00">cstdint</text>
</g>
<!-- Node8&#45;&gt;Node9 -->
<g id="edge8" class="edge"><title>Node8&#45;&gt;Node9</title>
<path fill="none" stroke="midnightblue" d="M565.039,-56.324C555.873,-48.3414 542.063,-36.3128 530.972,-26.6529"/>
<polygon fill="midnightblue" stroke="midnightblue" points="532.982,-23.7624 523.143,-19.8339 528.385,-29.041 532.982,-23.7624"/>
</g>
<!-- Node10 -->
<g id="node10" class="node"><title>Node10</title>
<polygon fill="none" stroke="#bfbfbf" points="554,-0.5 554,-19.5 606,-19.5 606,-0.5 554,-0.5"/>
<text text-anchor="middle" x="580" y="-7.5" font-family="Helvetica,sans-Serif" font-size="10.00">memory</text>
</g>
<!-- Node8&#45;&gt;Node10 -->
<g id="edge9" class="edge"><title>Node8&#45;&gt;Node10</title>
<path fill="none" stroke="midnightblue" d="M575.826,-56.083C576.481,-49.0059 577.42,-38.8611 578.242,-29.9865"/>
<polygon fill="midnightblue" stroke="midnightblue" points="581.753,-30.0312 579.19,-19.7511 574.783,-29.3858 581.753,-30.0312"/>
</g>
<!-- Node11 -->
<g id="node11" class="node"><title>Node11</title>
<polygon fill="none" stroke="#bfbfbf" points="692.5,-0.5 692.5,-19.5 741.5,-19.5 741.5,-0.5 692.5,-0.5"/>
<text text-anchor="middle" x="717" y="-7.5" font-family="Helvetica,sans-Serif" font-size="10.00">cassert</text>
</g>
<!-- Node8&#45;&gt;Node11 -->
<g id="edge10" class="edge"><title>Node8&#45;&gt;Node11</title>
<path fill="none" stroke="midnightblue" d="M597.5,-56.4435C621.077,-47.4776 658.322,-33.314 684.964,-23.1827"/>
<polygon fill="midnightblue" stroke="midnightblue" points="686.502,-26.3424 694.605,-19.5164 684.014,-19.7995 686.502,-26.3424"/>
</g>
<!-- Node12 -->
<g id="node12" class="node"><title>Node12</title>
<polygon fill="none" stroke="#bfbfbf" points="624,-0.5 624,-19.5 670,-19.5 670,-0.5 624,-0.5"/>
<text text-anchor="middle" x="647" y="-7.5" font-family="Helvetica,sans-Serif" font-size="10.00">cstring</text>
</g>
<!-- Node8&#45;&gt;Node12 -->
<g id="edge11" class="edge"><title>Node8&#45;&gt;Node12</title>
<path fill="none" stroke="midnightblue" d="M586.568,-56.324C597.42,-48.1849 613.881,-35.8395 626.883,-26.0874"/>
<polygon fill="midnightblue" stroke="midnightblue" points="629.321,-28.6339 635.221,-19.8339 625.121,-23.0339 629.321,-28.6339"/>
</g>
<!-- Node13 -->
<g id="node13" class="node"><title>Node13</title>
<polygon fill="none" stroke="#bfbfbf" points="416,-0.5 416,-19.5 472,-19.5 472,-0.5 416,-0.5"/>
<text text-anchor="middle" x="444" y="-7.5" font-family="Helvetica,sans-Serif" font-size="10.00">algorithm</text>
</g>
<!-- Node8&#45;&gt;Node13 -->
<g id="edge12" class="edge"><title>Node8&#45;&gt;Node13</title>
<path fill="none" stroke="midnightblue" d="M554.243,-56.4435C532.684,-47.5566 498.737,-33.5632 474.206,-23.4514"/>
<polygon fill="midnightblue" stroke="midnightblue" points="475.239,-20.0917 464.66,-19.5164 472.572,-26.5634 475.239,-20.0917"/>
</g>
<!-- Node18 -->
<g id="node18" class="node"><title>Node18</title>
<polygon fill="none" stroke="#bfbfbf" points="1015.5,-112.5 1015.5,-131.5 1060.5,-131.5 1060.5,-112.5 1015.5,-112.5"/>
<text text-anchor="middle" x="1038" y="-119.5" font-family="Helvetica,sans-Serif" font-size="10.00">iosfwd</text>
</g>
<!-- Node17&#45;&gt;Node18 -->
<g id="edge17" class="edge"><title>Node17&#45;&gt;Node18</title>
<path fill="none" stroke="midnightblue" d="M931.766,-174.403C952.484,-164.379 986.952,-147.701 1010.99,-136.07"/>
<polygon fill="midnightblue" stroke="midnightblue" points="1012.79,-139.087 1020.27,-131.581 1009.74,-132.786 1012.79,-139.087"/>
</g>
<!-- Node19 -->
<g id="node19" class="node"><title>Node19</title>
<polygon fill="none" stroke="#bfbfbf" points="938.5,-112.5 938.5,-131.5 997.5,-131.5 997.5,-112.5 938.5,-112.5"/>
<text text-anchor="middle" x="968" y="-119.5" font-family="Helvetica,sans-Serif" font-size="10.00">functional</text>
</g>
<!-- Node17&#45;&gt;Node19 -->
<g id="edge18" class="edge"><title>Node17&#45;&gt;Node19</title>
<path fill="none" stroke="midnightblue" d="M921.737,-174.403C929.997,-165.225 943.277,-150.47 953.494,-139.117"/>
<polygon fill="midnightblue" stroke="midnightblue" points="956.189,-141.355 960.277,-131.581 950.986,-136.672 956.189,-141.355"/>
</g>
<!-- Node21 -->
<g id="node21" class="node"><title>Node21</title>
<polygon fill="none" stroke="#bfbfbf" points="763,-112.5 763,-131.5 843,-131.5 843,-112.5 763,-112.5"/>
<text text-anchor="middle" x="803" y="-119.5" font-family="Helvetica,sans-Serif" font-size="10.00">FairMQParts.h</text>
</g>
<!-- Node20&#45;&gt;Node21 -->
<g id="edge20" class="edge"><title>Node20&#45;&gt;Node21</title>
<path fill="none" stroke="midnightblue" d="M727.608,-174.403C741.723,-164.78 764.831,-149.024 781.749,-137.489"/>
<polygon fill="midnightblue" stroke="midnightblue" points="784.125,-140.106 790.415,-131.581 780.181,-134.322 784.125,-140.106"/>
</g>
<!-- Node22 -->
<g id="node22" class="node"><title>Node22</title>
<polygon fill="none" stroke="#bfbfbf" points="861.5,-112.5 861.5,-131.5 920.5,-131.5 920.5,-112.5 861.5,-112.5"/>
<text text-anchor="middle" x="891" y="-119.5" font-family="Helvetica,sans-Serif" font-size="10.00">TObject.h</text>
</g>
<!-- Node20&#45;&gt;Node22 -->
<g id="edge21" class="edge"><title>Node20&#45;&gt;Node22</title>
<path fill="none" stroke="midnightblue" d="M740.217,-174.403C770.668,-164.022 822.049,-146.506 856.243,-134.849"/>
<polygon fill="midnightblue" stroke="midnightblue" points="857.495,-138.12 865.83,-131.581 855.236,-131.495 857.495,-138.12"/>
</g>
<!-- Node23 -->
<g id="node23" class="node"><title>Node23</title>
<g id="a_node23"><a xlink:href="../../d6/d90/Headers_2include_2Headers_2TimeStamp_8h.html" target="_top" xlink:title="Headers/TimeStamp.h">
<polygon fill="none" stroke="black" points="629.5,-112.5 629.5,-131.5 744.5,-131.5 744.5,-112.5 629.5,-112.5"/>
<text text-anchor="middle" x="687" y="-119.5" font-family="Helvetica,sans-Serif" font-size="10.00">Headers/TimeStamp.h</text>
</a>
</g>
</g>
<!-- Node20&#45;&gt;Node23 -->
<g id="edge22" class="edge"><title>Node20&#45;&gt;Node23</title>
<path fill="none" stroke="midnightblue" d="M710.988,-174.403C706.913,-165.671 700.482,-151.889 695.304,-140.794"/>
<polygon fill="midnightblue" stroke="midnightblue" points="698.405,-139.162 691.004,-131.581 692.062,-142.123 698.405,-139.162"/>
</g>
<!-- Node23&#45;&gt;Node3 -->
<g id="edge24" class="edge"><title>Node23&#45;&gt;Node3</title>
<path fill="none" stroke="midnightblue" d="M685.018,-112.083C683.428,-104.927 681.141,-94.6353 679.154,-85.6911"/>
<polygon fill="midnightblue" stroke="midnightblue" points="682.531,-84.7537 676.945,-75.7511 675.697,-86.2722 682.531,-84.7537"/>
</g>
<!-- Node23&#45;&gt;Node8 -->
<g id="edge23" class="edge"><title>Node23&#45;&gt;Node8</title>
<path fill="none" stroke="midnightblue" d="M669.005,-112.324C650.962,-103.625 622.953,-90.1202 602.197,-80.113"/>
<polygon fill="midnightblue" stroke="midnightblue" points="603.478,-76.8449 592.95,-75.6545 600.438,-83.1502 603.478,-76.8449"/>
</g>
<!-- Node23&#45;&gt;Node11 -->
<g id="edge25" class="edge"><title>Node23&#45;&gt;Node11</title>
<path fill="none" stroke="midnightblue" d="M691.703,-112.299C696.299,-103.422 703.148,-89.1255 707,-76 711.476,-60.7479 714.041,-42.8613 715.45,-29.7164"/>
<polygon fill="midnightblue" stroke="midnightblue" points="718.952,-29.8559 716.409,-19.5708 711.983,-29.1968 718.952,-29.8559"/>
</g>
<!-- Node24 -->
<g id="node24" class="node"><title>Node24</title>
<polygon fill="none" stroke="#bfbfbf" points="754,-56.5 754,-75.5 816,-75.5 816,-56.5 754,-56.5"/>
<text text-anchor="middle" x="785" y="-63.5" font-family="Helvetica,sans-Serif" font-size="10.00">type_traits</text>
</g>
<!-- Node23&#45;&gt;Node24 -->
<g id="edge26" class="edge"><title>Node23&#45;&gt;Node24</title>
<path fill="none" stroke="midnightblue" d="M702.745,-112.324C718.319,-103.743 742.377,-90.486 760.459,-80.5224"/>
<polygon fill="midnightblue" stroke="midnightblue" points="762.224,-83.546 769.294,-75.6545 758.846,-77.4152 762.224,-83.546"/>
</g>
<!-- Node26 -->
<g id="node26" class="node"><title>Node26</title>
<polygon fill="none" stroke="#bfbfbf" points="1079,-112.5 1079,-131.5 1123,-131.5 1123,-112.5 1079,-112.5"/>
<text text-anchor="middle" x="1101" y="-119.5" font-family="Helvetica,sans-Serif" font-size="10.00">vector</text>
</g>
<!-- Node25&#45;&gt;Node26 -->
<g id="edge28" class="edge"><title>Node25&#45;&gt;Node26</title>
<path fill="none" stroke="midnightblue" d="M1081.3,-174.403C1084.61,-165.76 1089.82,-152.17 1094.05,-141.134"/>
<polygon fill="midnightblue" stroke="midnightblue" points="1097.4,-142.171 1097.71,-131.581 1090.86,-139.665 1097.4,-142.171"/>
</g>
</g>
</svg>
        <g id="navigator" transform="translate(0 0)" fill="#404254">
                <rect fill="#f2f5e9" fill-opacity="0.5" stroke="#606060" stroke-width=".5" x="0" y="0" width="60" height="60"/>
                <use id="zoomplus" xlink:href="#zoomPlus" x="17" y="9" onmousedown="handleZoom(evt,'in')"/>
                <use id="zoomminus" xlink:href="#zoomMin" x="42" y="9" onmousedown="handleZoom(evt,'out')"/>
                <use id="reset" xlink:href="#resetDef" x="30" y="36" onmousedown="handleReset()"/>
                <g id="arrowUp" xlink:href="#dirArrow" transform="translate(30 24)" onmousedown="handlePan(0,-1)">
                  <use xlink:href="#rim" fill="#404040">
                        <set attributeName="fill" to="#808080" begin="arrowUp.mouseover" end="arrowUp.mouseout"/>
                  </use>
                  <path fill="none" stroke="white" stroke-width="1.5" d="M0,-3.0v7 M-2.5,-0.5L0,-3.0L2.5,-0.5"/>
                </g>
                <g id="arrowRight" xlink:href="#dirArrow" transform="rotate(90) translate(36 -43)" onmousedown="handlePan(1,0)">
                  <use xlink:href="#rim" fill="#404040">
                        <set attributeName="fill" to="#808080" begin="arrowRight.mouseover" end="arrowRight.mouseout"/>
                  </use>
                  <path fill="none" stroke="white" stroke-width="1.5" d="M0,-3.0v7 M-2.5,-0.5L0,-3.0L2.5,-0.5"/>
                </g>
                <g id="arrowDown" xlink:href="#dirArrow" transform="rotate(180) translate(-30 -48)" onmousedown="handlePan(0,1)">
                  <use xlink:href="#rim" fill="#404040">
                        <set attributeName="fill" to="#808080" begin="arrowDown.mouseover" end="arrowDown.mouseout"/>
                  </use>
                  <path fill="none" stroke="white" stroke-width="1.5" d="M0,-3.0v7 M-2.5,-0.5L0,-3.0L2.5,-0.5"/>
                </g>
                <g id="arrowLeft" xlink:href="#dirArrow" transform="rotate(270) translate(-36 17)" onmousedown="handlePan(-1,0)">
                  <use xlink:href="#rim" fill="#404040">
                        <set attributeName="fill" to="#808080" begin="arrowLeft.mouseover" end="arrowLeft.mouseout"/>
                  </use>
                  <path fill="none" stroke="white" stroke-width="1.5" d="M0,-3.0v7 M-2.5,-0.5L0,-3.0L2.5,-0.5"/>
                </g>
        </g>
        <svg viewBox="0 0 15 15" width="100%" height="30px" preserveAspectRatio="xMaxYMin meet">
         <g id="arrow_out" transform="scale(0.3 0.3)">
          <a xlink:href="TimeframeWriterDevice_8cxx__incl_org.svg" target="_base">
           <rect id="button" ry="5" rx="5" y="6" x="6" height="38" width="38"
                fill="#f2f5e9" fill-opacity="0.5" stroke="#606060" stroke-width="1.0"/>
           <path id="arrow"
             d="M 11.500037,31.436501 C 11.940474,20.09759 22.043105,11.32322 32.158766,21.979434 L 37.068811,17.246167 C 37.068811,17.246167 37.088388,32 37.088388,32 L 22.160133,31.978069 C 22.160133,31.978069 26.997745,27.140456 26.997745,27.140456 C 18.528582,18.264221 13.291696,25.230495 11.500037,31.436501 z"
             style="fill:#404040;"/>
          </a>
         </g>
        </svg>
</svg>
