<?xml version="1.0" encoding="UTF-8" standalone="no"?>
<!DOCTYPE svg PUBLIC "-//W3C//DTD SVG 1.1//EN"
 "http://www.w3.org/Graphics/SVG/1.1/DTD/svg11.dtd">
<!-- Generated by graphviz version 2.36.0 (20140111.2315)
 -->
<!-- Title: /home/travis/build/AliceO2Group/AliceO2/Framework/Core/include/Framework/DataProcessingHeader.h Pages: 1 -->
<!--zoomable 152 -->
<svg id="main" version="1.1" xmlns="http://www.w3.org/2000/svg" xmlns:xlink="http://www.w3.org/1999/xlink" xml:space="preserve" onload="init(evt)">
<style type="text/css"><![CDATA[
.edge:hover path { stroke: red; }
.edge:hover polygon { stroke: red; fill: red; }
]]></style>
<script type="text/javascript"><![CDATA[
var edges = document.getElementsByTagName('g');
if (edges && edges.length) {
  for (var i=0;i<edges.length;i++) {
    if (edges[i].id.substr(0,4)=='edge') {
      edges[i].setAttribute('class','edge');
    }
  }
}
]]></script>
        <defs>
                <circle id="rim" cx="0" cy="0" r="7"/>
                <circle id="rim2" cx="0" cy="0" r="3.5"/>
                <g id="zoomPlus">
                        <use xlink:href="#rim" fill="#404040">
                                <set attributeName="fill" to="#808080" begin="zoomplus.mouseover" end="zoomplus.mouseout"/>
                        </use>
                        <path d="M-4,0h8M0,-4v8" fill="none" stroke="white" stroke-width="1.5" pointer-events="none"/>
                </g>
                <g id="zoomMin">
                        <use xlink:href="#rim" fill="#404040">
                                <set attributeName="fill" to="#808080" begin="zoomminus.mouseover" end="zoomminus.mouseout"/>
                        </use>
                        <path d="M-4,0h8" fill="none" stroke="white" stroke-width="1.5" pointer-events="none"/>
                </g>
                <g id="dirArrow">
                        <path fill="none" stroke="white" stroke-width="1.5" d="M0,-3.0v7 M-2.5,-0.5L0,-3.0L2.5,-0.5"/>
                </g>
               <g id="resetDef">
                       <use xlink:href="#rim2" fill="#404040">
                               <set attributeName="fill" to="#808080" begin="reset.mouseover" end="reset.mouseout"/>
                       </use>
               </g>
        </defs>

<script type="text/javascript">
var viewWidth = 1818;
var viewHeight = 152;
var sectionId = 'dynsection-1';
</script>
<script xlink:href="../../svgpan.js"/>
<svg id="graph" class="graph">
<g id="viewport">
<title>/home/travis/build/AliceO2Group/AliceO2/Framework/Core/include/Framework/DataProcessingHeader.h</title>
<!-- Node1 -->
<g id="node1" class="node"><title>Node1</title>
<polygon fill="#bfbfbf" stroke="black" points="890.5,-91 890.5,-143 1071.5,-143 1071.5,-91 890.5,-91"/>
<text text-anchor="start" x="898.5" y="-131" font-family="Helvetica,sans-Serif" font-size="10.00">/home/travis/build</text>
<text text-anchor="start" x="898.5" y="-120" font-family="Helvetica,sans-Serif" font-size="10.00">/AliceO2Group/AliceO2</text>
<text text-anchor="start" x="898.5" y="-109" font-family="Helvetica,sans-Serif" font-size="10.00">/Framework/Core/include</text>
<text text-anchor="middle" x="981" y="-98" font-family="Helvetica,sans-Serif" font-size="10.00">/Framework/DataProcessingHeader.h</text>
</g>
<!-- Node2 -->
<g id="node2" class="node"><title>Node2</title>
<g id="a_node2"><a xlink:href="../../db/d9d/DataAllocator_8cxx.html" target="_top" xlink:title="/home/travis/build\l/AliceO2Group/AliceO2\l/Framework/Core/src/DataAllocator.cxx">
<polygon fill="none" stroke="black" points="0,-6.5 0,-47.5 190,-47.5 190,-6.5 0,-6.5"/>
<text text-anchor="start" x="8" y="-35.5" font-family="Helvetica,sans-Serif" font-size="10.00">/home/travis/build</text>
<text text-anchor="start" x="8" y="-24.5" font-family="Helvetica,sans-Serif" font-size="10.00">/AliceO2Group/AliceO2</text>
<text text-anchor="middle" x="95" y="-13.5" font-family="Helvetica,sans-Serif" font-size="10.00">/Framework/Core/src/DataAllocator.cxx</text>
</a>
</g>
</g>
<!-- Node1&#45;&gt;Node2 -->
<g id="edge1" class="edge"><title>Node1&#45;&gt;Node2</title>
<path fill="none" stroke="midnightblue" d="M880.317,-113.35C730.787,-108.213 441.573,-93.6563 199,-54 188.439,-52.2734 177.375,-50.0108 166.567,-47.54"/>
<polygon fill="midnightblue" stroke="midnightblue" points="880.288,-116.851 890.4,-113.689 880.524,-109.855 880.288,-116.851"/>
</g>
<!-- Node3 -->
<g id="node3" class="node"><title>Node3</title>
<g id="a_node3"><a xlink:href="../../db/dac/DataProcessingDevice_8cxx.html" target="_top" xlink:title="/home/travis/build\l/AliceO2Group/AliceO2\l/Framework/Core/src/DataProcessing\lDevice.cxx">
<polygon fill="none" stroke="black" points="208,-1 208,-53 390,-53 390,-1 208,-1"/>
<text text-anchor="start" x="216" y="-41" font-family="Helvetica,sans-Serif" font-size="10.00">/home/travis/build</text>
<text text-anchor="start" x="216" y="-30" font-family="Helvetica,sans-Serif" font-size="10.00">/AliceO2Group/AliceO2</text>
<text text-anchor="start" x="216" y="-19" font-family="Helvetica,sans-Serif" font-size="10.00">/Framework/Core/src/DataProcessing</text>
<text text-anchor="middle" x="299" y="-8" font-family="Helvetica,sans-Serif" font-size="10.00">Device.cxx</text>
</a>
</g>
</g>
<!-- Node1&#45;&gt;Node3 -->
<g id="edge2" class="edge"><title>Node1&#45;&gt;Node3</title>
<path fill="none" stroke="midnightblue" d="M880.446,-109.833C763.913,-101.638 566.438,-84.5117 399,-54 396.088,-53.4694 393.136,-52.8992 390.161,-52.2966"/>
<polygon fill="midnightblue" stroke="midnightblue" points="880.207,-113.325 890.426,-110.527 880.693,-106.342 880.207,-113.325"/>
</g>
<!-- Node4 -->
<g id="node4" class="node"><title>Node4</title>
<g id="a_node4"><a xlink:href="../../d8/d4b/DataProcessingHeader_8cxx.html" target="_top" xlink:title="/home/travis/build\l/AliceO2Group/AliceO2\l/Framework/Core/src/DataProcessing\lHeader.cxx">
<polygon fill="none" stroke="black" points="408,-1 408,-53 590,-53 590,-1 408,-1"/>
<text text-anchor="start" x="416" y="-41" font-family="Helvetica,sans-Serif" font-size="10.00">/home/travis/build</text>
<text text-anchor="start" x="416" y="-30" font-family="Helvetica,sans-Serif" font-size="10.00">/AliceO2Group/AliceO2</text>
<text text-anchor="start" x="416" y="-19" font-family="Helvetica,sans-Serif" font-size="10.00">/Framework/Core/src/DataProcessing</text>
<text text-anchor="middle" x="499" y="-8" font-family="Helvetica,sans-Serif" font-size="10.00">Header.cxx</text>
</a>
</g>
</g>
<!-- Node1&#45;&gt;Node4 -->
<g id="edge3" class="edge"><title>Node1&#45;&gt;Node4</title>
<path fill="none" stroke="midnightblue" d="M880.042,-102.242C802.755,-91.0765 693.693,-73.9491 599,-54 596.104,-53.3898 593.165,-52.7503 590.202,-52.0878"/>
<polygon fill="midnightblue" stroke="midnightblue" points="879.859,-105.752 890.255,-103.71 880.855,-98.8233 879.859,-105.752"/>
</g>
<!-- Node5 -->
<g id="node5" class="node"><title>Node5</title>
<g id="a_node5"><a xlink:href="../../d1/d57/DataRelayer_8cxx.html" target="_top" xlink:title="/home/travis/build\l/AliceO2Group/AliceO2\l/Framework/Core/src/DataRelayer.cxx">
<polygon fill="none" stroke="black" points="608.5,-6.5 608.5,-47.5 793.5,-47.5 793.5,-6.5 608.5,-6.5"/>
<text text-anchor="start" x="616.5" y="-35.5" font-family="Helvetica,sans-Serif" font-size="10.00">/home/travis/build</text>
<text text-anchor="start" x="616.5" y="-24.5" font-family="Helvetica,sans-Serif" font-size="10.00">/AliceO2Group/AliceO2</text>
<text text-anchor="middle" x="701" y="-13.5" font-family="Helvetica,sans-Serif" font-size="10.00">/Framework/Core/src/DataRelayer.cxx</text>
</a>
</g>
</g>
<!-- Node1&#45;&gt;Node5 -->
<g id="edge4" class="edge"><title>Node1&#45;&gt;Node5</title>
<path fill="none" stroke="midnightblue" d="M891.498,-87.8707C849.667,-74.724 800.892,-59.3945 763.168,-47.5384"/>
<polygon fill="midnightblue" stroke="midnightblue" points="890.549,-91.2411 901.138,-90.9005 892.647,-84.5632 890.549,-91.2411"/>
</g>
<!-- Node6 -->
<g id="node6" class="node"><title>Node6</title>
<g id="a_node6"><a xlink:href="../../d0/d9f/DataSourceDevice_8cxx.html" target="_top" xlink:title="/home/travis/build\l/AliceO2Group/AliceO2\l/Framework/Core/src/DataSource\lDevice.cxx">
<polygon fill="none" stroke="black" points="812,-1 812,-53 976,-53 976,-1 812,-1"/>
<text text-anchor="start" x="820" y="-41" font-family="Helvetica,sans-Serif" font-size="10.00">/home/travis/build</text>
<text text-anchor="start" x="820" y="-30" font-family="Helvetica,sans-Serif" font-size="10.00">/AliceO2Group/AliceO2</text>
<text text-anchor="start" x="820" y="-19" font-family="Helvetica,sans-Serif" font-size="10.00">/Framework/Core/src/DataSource</text>
<text text-anchor="middle" x="894" y="-8" font-family="Helvetica,sans-Serif" font-size="10.00">Device.cxx</text>
</a>
</g>
</g>
<!-- Node1&#45;&gt;Node6 -->
<g id="edge5" class="edge"><title>Node1&#45;&gt;Node6</title>
<path fill="none" stroke="midnightblue" d="M948.801,-83.4308C938.891,-73.4069 928.14,-62.5325 918.807,-53.0921"/>
<polygon fill="midnightblue" stroke="midnightblue" points="946.316,-85.8961 955.836,-90.5468 951.294,-80.9747 946.316,-85.8961"/>
</g>
<!-- Node7 -->
<g id="node7" class="node"><title>Node7</title>
<g id="a_node7"><a xlink:href="../../dc/df3/ExternalFairMQDeviceProxy_8cxx.html" target="_top" xlink:title="/home/travis/build\l/AliceO2Group/AliceO2\l/Framework/Core/src/External\lFairMQDeviceProxy.cxx">
<polygon fill="none" stroke="black" points="994,-1 994,-53 1142,-53 1142,-1 994,-1"/>
<text text-anchor="start" x="1002" y="-41" font-family="Helvetica,sans-Serif" font-size="10.00">/home/travis/build</text>
<text text-anchor="start" x="1002" y="-30" font-family="Helvetica,sans-Serif" font-size="10.00">/AliceO2Group/AliceO2</text>
<text text-anchor="start" x="1002" y="-19" font-family="Helvetica,sans-Serif" font-size="10.00">/Framework/Core/src/External</text>
<text text-anchor="middle" x="1068" y="-8" font-family="Helvetica,sans-Serif" font-size="10.00">FairMQDeviceProxy.cxx</text>
</a>
</g>
</g>
<!-- Node1&#45;&gt;Node7 -->
<g id="edge6" class="edge"><title>Node1&#45;&gt;Node7</title>
<path fill="none" stroke="midnightblue" d="M1013.2,-83.4308C1023.11,-73.4069 1033.86,-62.5325 1043.19,-53.0921"/>
<polygon fill="midnightblue" stroke="midnightblue" points="1010.71,-80.9747 1006.16,-90.5468 1015.68,-85.8961 1010.71,-80.9747"/>
</g>
<!-- Node8 -->
<g id="node8" class="node"><title>Node8</title>
<g id="a_node8"><a xlink:href="../../dc/d6d/test__DataRelayer_8cxx.html" target="_top" xlink:title="/home/travis/build\l/AliceO2Group/AliceO2\l/Framework/Core/test/test\l_DataRelayer.cxx">
<polygon fill="none" stroke="black" points="1160.5,-1 1160.5,-53 1291.5,-53 1291.5,-1 1160.5,-1"/>
<text text-anchor="start" x="1168.5" y="-41" font-family="Helvetica,sans-Serif" font-size="10.00">/home/travis/build</text>
<text text-anchor="start" x="1168.5" y="-30" font-family="Helvetica,sans-Serif" font-size="10.00">/AliceO2Group/AliceO2</text>
<text text-anchor="start" x="1168.5" y="-19" font-family="Helvetica,sans-Serif" font-size="10.00">/Framework/Core/test/test</text>
<text text-anchor="middle" x="1226" y="-8" font-family="Helvetica,sans-Serif" font-size="10.00">_DataRelayer.cxx</text>
</a>
</g>
</g>
<!-- Node1&#45;&gt;Node8 -->
<g id="edge7" class="edge"><title>Node1&#45;&gt;Node8</title>
<path fill="none" stroke="midnightblue" d="M1060.3,-87.5176C1092.59,-75.9186 1129.48,-62.6696 1160.24,-51.621"/>
<polygon fill="midnightblue" stroke="midnightblue" points="1059.11,-84.2261 1050.88,-90.9005 1061.47,-90.814 1059.11,-84.2261"/>
</g>
<!-- Node9 -->
<g id="node9" class="node"><title>Node9</title>
<g id="a_node9"><a xlink:href="../../d1/de8/test__DataSampling_8cxx.html" target="_top" xlink:title="/home/travis/build\l/AliceO2Group/AliceO2\l/Framework/Core/test/test\l_DataSampling.cxx">
<polygon fill="none" stroke="black" points="1309.5,-1 1309.5,-53 1440.5,-53 1440.5,-1 1309.5,-1"/>
<text text-anchor="start" x="1317.5" y="-41" font-family="Helvetica,sans-Serif" font-size="10.00">/home/travis/build</text>
<text text-anchor="start" x="1317.5" y="-30" font-family="Helvetica,sans-Serif" font-size="10.00">/AliceO2Group/AliceO2</text>
<text text-anchor="start" x="1317.5" y="-19" font-family="Helvetica,sans-Serif" font-size="10.00">/Framework/Core/test/test</text>
<text text-anchor="middle" x="1375" y="-8" font-family="Helvetica,sans-Serif" font-size="10.00">_DataSampling.cxx</text>
</a>
</g>
</g>
<!-- Node1&#45;&gt;Node9 -->
<g id="edge8" class="edge"><title>Node1&#45;&gt;Node9</title>
<path fill="none" stroke="midnightblue" d="M1081.81,-100.174C1145,-89.3284 1227.86,-73.4101 1300,-54 1303.06,-53.1765 1306.18,-52.2911 1309.31,-51.3615"/>
<polygon fill="midnightblue" stroke="midnightblue" points="1081.12,-96.7423 1071.84,-101.871 1082.29,-103.643 1081.12,-96.7423"/>
</g>
<!-- Node10 -->
<g id="node10" class="node"><title>Node10</title>
<g id="a_node10"><a xlink:href="../../df/dc1/test__InputRecord_8cxx.html" target="_top" xlink:title="/home/travis/build\l/AliceO2Group/AliceO2\l/Framework/Core/test/test\l_InputRecord.cxx">
<polygon fill="none" stroke="black" points="1458.5,-1 1458.5,-53 1589.5,-53 1589.5,-1 1458.5,-1"/>
<text text-anchor="start" x="1466.5" y="-41" font-family="Helvetica,sans-Serif" font-size="10.00">/home/travis/build</text>
<text text-anchor="start" x="1466.5" y="-30" font-family="Helvetica,sans-Serif" font-size="10.00">/AliceO2Group/AliceO2</text>
<text text-anchor="start" x="1466.5" y="-19" font-family="Helvetica,sans-Serif" font-size="10.00">/Framework/Core/test/test</text>
<text text-anchor="middle" x="1524" y="-8" font-family="Helvetica,sans-Serif" font-size="10.00">_InputRecord.cxx</text>
</a>
</g>
</g>
<!-- Node1&#45;&gt;Node10 -->
<g id="edge9" class="edge"><title>Node1&#45;&gt;Node10</title>
<path fill="none" stroke="midnightblue" d="M1081.93,-108.556C1177.45,-100.123 1324.35,-83.5431 1449,-54 1452.08,-53.269 1455.22,-52.4596 1458.37,-51.5916"/>
<polygon fill="midnightblue" stroke="midnightblue" points="1081.36,-105.093 1071.7,-109.446 1081.97,-112.067 1081.36,-105.093"/>
</g>
<!-- Node11 -->
<g id="node11" class="node"><title>Node11</title>
<g id="a_node11"><a xlink:href="../../d5/d63/DPLBroadcaster_8cxx.html" target="_top" xlink:title="Implementation of generic DPL broadcaster, v0.1. ">
<polygon fill="none" stroke="black" points="1608,-6.5 1608,-47.5 1810,-47.5 1810,-6.5 1608,-6.5"/>
<text text-anchor="start" x="1616" y="-35.5" font-family="Helvetica,sans-Serif" font-size="10.00">/home/travis/build</text>
<text text-anchor="start" x="1616" y="-24.5" font-family="Helvetica,sans-Serif" font-size="10.00">/AliceO2Group/AliceO2</text>
<text text-anchor="middle" x="1709" y="-13.5" font-family="Helvetica,sans-Serif" font-size="10.00">/Framework/Utils/src/DPLBroadcaster.cxx</text>
</a>
</g>
</g>
<!-- Node1&#45;&gt;Node11 -->
<g id="edge10" class="edge"><title>Node1&#45;&gt;Node11</title>
<path fill="none" stroke="midnightblue" d="M1081.79,-109.909C1204.39,-101.571 1417.37,-84.0989 1598,-54 1608.84,-52.1944 1620.19,-49.9497 1631.33,-47.5412"/>
<polygon fill="midnightblue" stroke="midnightblue" points="1081.41,-106.426 1071.66,-110.59 1081.88,-113.411 1081.41,-106.426"/>
</g>
</g>
</svg>
        <g id="navigator" transform="translate(0 0)" fill="#404254">
                <rect fill="#f2f5e9" fill-opacity="0.5" stroke="#606060" stroke-width=".5" x="0" y="0" width="60" height="60"/>
                <use id="zoomplus" xlink:href="#zoomPlus" x="17" y="9" onmousedown="handleZoom(evt,'in')"/>
                <use id="zoomminus" xlink:href="#zoomMin" x="42" y="9" onmousedown="handleZoom(evt,'out')"/>
                <use id="reset" xlink:href="#resetDef" x="30" y="36" onmousedown="handleReset()"/>
                <g id="arrowUp" xlink:href="#dirArrow" transform="translate(30 24)" onmousedown="handlePan(0,-1)">
                  <use xlink:href="#rim" fill="#404040">
                        <set attributeName="fill" to="#808080" begin="arrowUp.mouseover" end="arrowUp.mouseout"/>
                  </use>
                  <path fill="none" stroke="white" stroke-width="1.5" d="M0,-3.0v7 M-2.5,-0.5L0,-3.0L2.5,-0.5"/>
                </g>
                <g id="arrowRight" xlink:href="#dirArrow" transform="rotate(90) translate(36 -43)" onmousedown="handlePan(1,0)">
                  <use xlink:href="#rim" fill="#404040">
                        <set attributeName="fill" to="#808080" begin="arrowRight.mouseover" end="arrowRight.mouseout"/>
                  </use>
                  <path fill="none" stroke="white" stroke-width="1.5" d="M0,-3.0v7 M-2.5,-0.5L0,-3.0L2.5,-0.5"/>
                </g>
                <g id="arrowDown" xlink:href="#dirArrow" transform="rotate(180) translate(-30 -48)" onmousedown="handlePan(0,1)">
                  <use xlink:href="#rim" fill="#404040">
                        <set attributeName="fill" to="#808080" begin="arrowDown.mouseover" end="arrowDown.mouseout"/>
                  </use>
                  <path fill="none" stroke="white" stroke-width="1.5" d="M0,-3.0v7 M-2.5,-0.5L0,-3.0L2.5,-0.5"/>
                </g>
                <g id="arrowLeft" xlink:href="#dirArrow" transform="rotate(270) translate(-36 17)" onmousedown="handlePan(-1,0)">
                  <use xlink:href="#rim" fill="#404040">
                        <set attributeName="fill" to="#808080" begin="arrowLeft.mouseover" end="arrowLeft.mouseout"/>
                  </use>
                  <path fill="none" stroke="white" stroke-width="1.5" d="M0,-3.0v7 M-2.5,-0.5L0,-3.0L2.5,-0.5"/>
                </g>
        </g>
        <svg viewBox="0 0 15 15" width="100%" height="30px" preserveAspectRatio="xMaxYMin meet">
         <g id="arrow_out" transform="scale(0.3 0.3)">
          <a xlink:href="DataProcessingHeader_8h__dep__incl_org.svg" target="_base">
           <rect id="button" ry="5" rx="5" y="6" x="6" height="38" width="38"
                fill="#f2f5e9" fill-opacity="0.5" stroke="#606060" stroke-width="1.0"/>
           <path id="arrow"
             d="M 11.500037,31.436501 C 11.940474,20.09759 22.043105,11.32322 32.158766,21.979434 L 37.068811,17.246167 C 37.068811,17.246167 37.088388,32 37.088388,32 L 22.160133,31.978069 C 22.160133,31.978069 26.997745,27.140456 26.997745,27.140456 C 18.528582,18.264221 13.291696,25.230495 11.500037,31.436501 z"
             style="fill:#404040;"/>
          </a>
         </g>
        </svg>
</svg>
