<?xml version="1.0" encoding="UTF-8" standalone="no"?>
<!DOCTYPE svg PUBLIC "-//W3C//DTD SVG 1.1//EN"
 "http://www.w3.org/Graphics/SVG/1.1/DTD/svg11.dtd">
<!-- Generated by graphviz version 2.36.0 (20140111.2315)
 -->
<!-- Title: /home/travis/build/AliceO2Group/AliceO2/Framework/Core/src/StreamOperators.cxx Pages: 1 -->
<svg width="520pt" height="218pt"
 viewBox="0.00 0.00 520.00 218.00" xmlns="http://www.w3.org/2000/svg" xmlns:xlink="http://www.w3.org/1999/xlink">
<g id="graph0" class="graph" transform="scale(1 1) rotate(0) translate(4 214)">
<title>/home/travis/build/AliceO2Group/AliceO2/Framework/Core/src/StreamOperators.cxx</title>
<!-- Node1 -->
<g id="node1" class="node"><title>Node1</title>
<polygon fill="#bfbfbf" stroke="black" points="-0.5,-168.5 -0.5,-209.5 204.5,-209.5 204.5,-168.5 -0.5,-168.5"/>
<text text-anchor="start" x="7.5" y="-197.5" font-family="Helvetica,sans-Serif" font-size="10.00">/home/travis/build</text>
<text text-anchor="start" x="7.5" y="-186.5" font-family="Helvetica,sans-Serif" font-size="10.00">/AliceO2Group/AliceO2</text>
<text text-anchor="middle" x="102" y="-175.5" font-family="Helvetica,sans-Serif" font-size="10.00">/Framework/Core/src/StreamOperators.cxx</text>
</g>
<!-- Node2 -->
<g id="node2" class="node"><title>Node2</title>
<polygon fill="none" stroke="#bfbfbf" points="32,-56.5 32,-75.5 84,-75.5 84,-56.5 32,-56.5"/>
<text text-anchor="middle" x="58" y="-63.5" font-family="Helvetica,sans-Serif" font-size="10.00">ostream</text>
</g>
<!-- Node1&#45;&gt;Node2 -->
<g id="edge1" class="edge"><title>Node1&#45;&gt;Node2</title>
<path fill="none" stroke="midnightblue" d="M92.4253,-168.314C87.4645,-157.7 81.5168,-144.292 77,-132 71.2977,-116.481 66.1269,-98.3983 62.6244,-85.251"/>
<polygon fill="midnightblue" stroke="midnightblue" points="66.0017,-84.3313 60.0995,-75.5327 59.2266,-86.0915 66.0017,-84.3313"/>
</g>
<!-- Node3 -->
<g id="node3" class="node"><title>Node3</title>
<g id="a_node3"><a xlink:href="../../d5/d3f/InputSpec_8h.html" target="_top" xlink:title="Framework/InputSpec.h">
<polygon fill="none" stroke="black" points="86.5,-112.5 86.5,-131.5 207.5,-131.5 207.5,-112.5 86.5,-112.5"/>
<text text-anchor="middle" x="147" y="-119.5" font-family="Helvetica,sans-Serif" font-size="10.00">Framework/InputSpec.h</text>
</a>
</g>
</g>
<!-- Node1&#45;&gt;Node3 -->
<g id="edge2" class="edge"><title>Node1&#45;&gt;Node3</title>
<path fill="none" stroke="midnightblue" d="M115.501,-168.498C121.804,-159.395 129.234,-148.662 135.294,-139.908"/>
<polygon fill="midnightblue" stroke="midnightblue" points="138.195,-141.867 141.01,-131.652 132.44,-137.882 138.195,-141.867"/>
</g>
<!-- Node3&#45;&gt;Node2 -->
<g id="edge4" class="edge"><title>Node3&#45;&gt;Node2</title>
<path fill="none" stroke="midnightblue" d="M132.701,-112.324C118.817,-103.9 97.5076,-90.9709 81.1963,-81.0741"/>
<polygon fill="midnightblue" stroke="midnightblue" points="82.6289,-77.8495 72.2639,-75.6545 78.9978,-83.8341 82.6289,-77.8495"/>
</g>
<!-- Node4 -->
<g id="node4" class="node"><title>Node4</title>
<polygon fill="none" stroke="#bfbfbf" points="102.5,-56.5 102.5,-75.5 143.5,-75.5 143.5,-56.5 102.5,-56.5"/>
<text text-anchor="middle" x="123" y="-63.5" font-family="Helvetica,sans-Serif" font-size="10.00">string</text>
</g>
<!-- Node3&#45;&gt;Node4 -->
<g id="edge3" class="edge"><title>Node3&#45;&gt;Node4</title>
<path fill="none" stroke="midnightblue" d="M143.037,-112.083C139.787,-104.77 135.081,-94.1814 131.046,-85.1034"/>
<polygon fill="midnightblue" stroke="midnightblue" points="134.149,-83.4677 126.889,-75.7511 127.752,-86.3107 134.149,-83.4677"/>
</g>
<!-- Node5 -->
<g id="node5" class="node"><title>Node5</title>
<g id="a_node5"><a xlink:href="../../dc/dca/Lifetime_8h.html" target="_top" xlink:title="Framework/Lifetime.h">
<polygon fill="none" stroke="black" points="161.5,-56.5 161.5,-75.5 272.5,-75.5 272.5,-56.5 161.5,-56.5"/>
<text text-anchor="middle" x="217" y="-63.5" font-family="Helvetica,sans-Serif" font-size="10.00">Framework/Lifetime.h</text>
</a>
</g>
</g>
<!-- Node3&#45;&gt;Node5 -->
<g id="edge5" class="edge"><title>Node3&#45;&gt;Node5</title>
<path fill="none" stroke="midnightblue" d="M158.247,-112.324C168.797,-104.185 184.801,-91.8395 197.442,-82.0874"/>
<polygon fill="midnightblue" stroke="midnightblue" points="199.769,-84.7132 205.549,-75.8339 195.493,-79.1707 199.769,-84.7132"/>
</g>
<!-- Node6 -->
<g id="node6" class="node"><title>Node6</title>
<g id="a_node6"><a xlink:href="../../dc/dcd/DataHeader_8h.html" target="_top" xlink:title="Headers/DataHeader.h">
<polygon fill="none" stroke="black" points="290.5,-56.5 290.5,-75.5 407.5,-75.5 407.5,-56.5 290.5,-56.5"/>
<text text-anchor="middle" x="349" y="-63.5" font-family="Helvetica,sans-Serif" font-size="10.00">Headers/DataHeader.h</text>
</a>
</g>
</g>
<!-- Node3&#45;&gt;Node6 -->
<g id="edge6" class="edge"><title>Node3&#45;&gt;Node6</title>
<path fill="none" stroke="midnightblue" d="M179.008,-112.444C213.729,-103.162 269.288,-88.3093 307.377,-78.127"/>
<polygon fill="midnightblue" stroke="midnightblue" points="308.385,-81.4803 317.142,-75.5164 306.578,-74.7178 308.385,-81.4803"/>
</g>
<!-- Node7 -->
<g id="node7" class="node"><title>Node7</title>
<polygon fill="none" stroke="#bfbfbf" points="190,-0.5 190,-19.5 236,-19.5 236,-0.5 190,-0.5"/>
<text text-anchor="middle" x="213" y="-7.5" font-family="Helvetica,sans-Serif" font-size="10.00">cstdint</text>
</g>
<!-- Node6&#45;&gt;Node7 -->
<g id="edge7" class="edge"><title>Node6&#45;&gt;Node7</title>
<path fill="none" stroke="midnightblue" d="M327.45,-56.4435C304.969,-47.5171 269.512,-33.4387 244.02,-23.3168"/>
<polygon fill="midnightblue" stroke="midnightblue" points="245.035,-19.9539 234.449,-19.5164 242.451,-26.4598 245.035,-19.9539"/>
</g>
<!-- Node8 -->
<g id="node8" class="node"><title>Node8</title>
<polygon fill="none" stroke="#bfbfbf" points="254,-0.5 254,-19.5 306,-19.5 306,-0.5 254,-0.5"/>
<text text-anchor="middle" x="280" y="-7.5" font-family="Helvetica,sans-Serif" font-size="10.00">memory</text>
</g>
<!-- Node6&#45;&gt;Node8 -->
<g id="edge8" class="edge"><title>Node6&#45;&gt;Node8</title>
<path fill="none" stroke="midnightblue" d="M337.914,-56.324C327.514,-48.1849 311.739,-35.8395 299.278,-26.0874"/>
<polygon fill="midnightblue" stroke="midnightblue" points="301.32,-23.2407 291.288,-19.8339 297.006,-28.7533 301.32,-23.2407"/>
</g>
<!-- Node9 -->
<g id="node9" class="node"><title>Node9</title>
<polygon fill="none" stroke="#bfbfbf" points="324.5,-0.5 324.5,-19.5 373.5,-19.5 373.5,-0.5 324.5,-0.5"/>
<text text-anchor="middle" x="349" y="-7.5" font-family="Helvetica,sans-Serif" font-size="10.00">cassert</text>
</g>
<!-- Node6&#45;&gt;Node9 -->
<g id="edge9" class="edge"><title>Node6&#45;&gt;Node9</title>
<path fill="none" stroke="midnightblue" d="M349,-56.083C349,-49.0059 349,-38.8611 349,-29.9865"/>
<polygon fill="midnightblue" stroke="midnightblue" points="352.5,-29.751 349,-19.7511 345.5,-29.7511 352.5,-29.751"/>
</g>
<!-- Node10 -->
<g id="node10" class="node"><title>Node10</title>
<polygon fill="none" stroke="#bfbfbf" points="392,-0.5 392,-19.5 438,-19.5 438,-0.5 392,-0.5"/>
<text text-anchor="middle" x="415" y="-7.5" font-family="Helvetica,sans-Serif" font-size="10.00">cstring</text>
</g>
<!-- Node6&#45;&gt;Node10 -->
<g id="edge10" class="edge"><title>Node6&#45;&gt;Node10</title>
<path fill="none" stroke="midnightblue" d="M359.604,-56.324C369.456,-48.2631 384.351,-36.0765 396.215,-26.3695"/>
<polygon fill="midnightblue" stroke="midnightblue" points="398.68,-28.8752 404.203,-19.8339 394.247,-23.4575 398.68,-28.8752"/>
</g>
<!-- Node11 -->
<g id="node11" class="node"><title>Node11</title>
<polygon fill="none" stroke="#bfbfbf" points="456,-0.5 456,-19.5 512,-19.5 512,-0.5 456,-0.5"/>
<text text-anchor="middle" x="484" y="-7.5" font-family="Helvetica,sans-Serif" font-size="10.00">algorithm</text>
</g>
<!-- Node6&#45;&gt;Node11 -->
<g id="edge11" class="edge"><title>Node6&#45;&gt;Node11</title>
<path fill="none" stroke="midnightblue" d="M370.391,-56.4435C392.707,-47.5171 427.903,-33.4387 453.208,-23.3168"/>
<polygon fill="midnightblue" stroke="midnightblue" points="454.724,-26.4801 462.709,-19.5164 452.124,-19.9807 454.724,-26.4801"/>
</g>
</g>
</svg>
