<?xml version="1.0" encoding="UTF-8" standalone="no"?>
<!DOCTYPE svg PUBLIC "-//W3C//DTD SVG 1.1//EN"
 "http://www.w3.org/Graphics/SVG/1.1/DTD/svg11.dtd">
<!-- Generated by graphviz version 2.36.0 (20140111.2315)
 -->
<!-- Title: /home/travis/build/AliceO2Group/AliceO2/DataFormats/Detectors/TPC/include/DataFormatsTPC/Cluster.h Pages: 1 -->
<svg width="2515pt" height="440pt"
 viewBox="0.00 0.00 2515.00 440.00" xmlns="http://www.w3.org/2000/svg" xmlns:xlink="http://www.w3.org/1999/xlink">
<g id="graph0" class="graph" transform="scale(1 1) rotate(0) translate(4 436)">
<title>/home/travis/build/AliceO2Group/AliceO2/DataFormats/Detectors/TPC/include/DataFormatsTPC/Cluster.h</title>
<!-- Node1 -->
<g id="node1" class="node"><title>Node1</title>
<polygon fill="#bfbfbf" stroke="black" points="1356,-368.5 1356,-431.5 1510,-431.5 1510,-368.5 1356,-368.5"/>
<text text-anchor="start" x="1364" y="-419.5" font-family="Helvetica,sans-Serif" font-size="10.00">/home/travis/build</text>
<text text-anchor="start" x="1364" y="-408.5" font-family="Helvetica,sans-Serif" font-size="10.00">/AliceO2Group/AliceO2</text>
<text text-anchor="start" x="1364" y="-397.5" font-family="Helvetica,sans-Serif" font-size="10.00">/DataFormats/Detectors</text>
<text text-anchor="start" x="1364" y="-386.5" font-family="Helvetica,sans-Serif" font-size="10.00">/TPC/include/DataFormatsTPC</text>
<text text-anchor="middle" x="1433" y="-375.5" font-family="Helvetica,sans-Serif" font-size="10.00">/Cluster.h</text>
</g>
<!-- Node2 -->
<g id="node2" class="node"><title>Node2</title>
<g id="a_node2"><a xlink:href="../../d5/dc9/TrackTPC_8h.html" target="_top" xlink:title="/home/travis/build\l/AliceO2Group/AliceO2\l/DataFormats/Detectors\l/TPC/include/DataFormatsTPC\l/TrackTPC.h">
<polygon fill="none" stroke="black" points="1251,-268.5 1251,-331.5 1405,-331.5 1405,-268.5 1251,-268.5"/>
<text text-anchor="start" x="1259" y="-319.5" font-family="Helvetica,sans-Serif" font-size="10.00">/home/travis/build</text>
<text text-anchor="start" x="1259" y="-308.5" font-family="Helvetica,sans-Serif" font-size="10.00">/AliceO2Group/AliceO2</text>
<text text-anchor="start" x="1259" y="-297.5" font-family="Helvetica,sans-Serif" font-size="10.00">/DataFormats/Detectors</text>
<text text-anchor="start" x="1259" y="-286.5" font-family="Helvetica,sans-Serif" font-size="10.00">/TPC/include/DataFormatsTPC</text>
<text text-anchor="middle" x="1328" y="-275.5" font-family="Helvetica,sans-Serif" font-size="10.00">/TrackTPC.h</text>
</a>
</g>
</g>
<!-- Node1&#45;&gt;Node2 -->
<g id="edge1" class="edge"><title>Node1&#45;&gt;Node2</title>
<path fill="none" stroke="midnightblue" d="M1392.56,-361.259C1382.06,-351.456 1370.88,-341.017 1360.82,-331.63"/>
<polygon fill="midnightblue" stroke="midnightblue" points="1390.37,-363.997 1400.07,-368.261 1395.14,-358.879 1390.37,-363.997"/>
</g>
<!-- Node7 -->
<g id="node7" class="node"><title>Node7</title>
<g id="a_node7"><a xlink:href="../../df/d30/TPCCATracking_8h.html" target="_top" xlink:title="Decoder to convert TPC ClusterHardware to ClusterNative. ">
<polygon fill="none" stroke="black" points="1098,-168.5 1098,-231.5 1248,-231.5 1248,-168.5 1098,-168.5"/>
<text text-anchor="start" x="1106" y="-219.5" font-family="Helvetica,sans-Serif" font-size="10.00">/home/travis/build</text>
<text text-anchor="start" x="1106" y="-208.5" font-family="Helvetica,sans-Serif" font-size="10.00">/AliceO2Group/AliceO2</text>
<text text-anchor="start" x="1106" y="-197.5" font-family="Helvetica,sans-Serif" font-size="10.00">/Detectors/TPC/reconstruction</text>
<text text-anchor="start" x="1106" y="-186.5" font-family="Helvetica,sans-Serif" font-size="10.00">/include/TPCReconstruction</text>
<text text-anchor="middle" x="1173" y="-175.5" font-family="Helvetica,sans-Serif" font-size="10.00">/TPCCATracking.h</text>
</a>
</g>
</g>
<!-- Node1&#45;&gt;Node7 -->
<g id="edge36" class="edge"><title>Node1&#45;&gt;Node7</title>
<path fill="none" stroke="midnightblue" d="M1345.75,-383.029C1310.43,-373.076 1271.19,-357.174 1242,-332 1211.05,-305.307 1191.93,-261.237 1181.88,-231.673"/>
<polygon fill="midnightblue" stroke="midnightblue" points="1345.03,-386.46 1355.6,-385.682 1346.85,-379.701 1345.03,-386.46"/>
</g>
<!-- Node8 -->
<g id="node8" class="node"><title>Node8</title>
<g id="a_node8"><a xlink:href="../../d1/d27/runCATracking_8C.html" target="_top" xlink:title="/home/travis/build\l/AliceO2Group/AliceO2\l/Detectors/TPC/reconstruction\l/macro/runCATracking.C">
<polygon fill="none" stroke="black" points="749,-79 749,-131 899,-131 899,-79 749,-79"/>
<text text-anchor="start" x="757" y="-119" font-family="Helvetica,sans-Serif" font-size="10.00">/home/travis/build</text>
<text text-anchor="start" x="757" y="-108" font-family="Helvetica,sans-Serif" font-size="10.00">/AliceO2Group/AliceO2</text>
<text text-anchor="start" x="757" y="-97" font-family="Helvetica,sans-Serif" font-size="10.00">/Detectors/TPC/reconstruction</text>
<text text-anchor="middle" x="824" y="-86" font-family="Helvetica,sans-Serif" font-size="10.00">/macro/runCATracking.C</text>
</a>
</g>
</g>
<!-- Node1&#45;&gt;Node8 -->
<g id="edge41" class="edge"><title>Node1&#45;&gt;Node8</title>
<path fill="none" stroke="midnightblue" d="M1345.95,-381.695C1299.56,-370.732 1242.27,-354.357 1194,-332 1121.97,-298.635 1098.72,-291.35 1046,-232 1024.75,-208.074 1037.36,-188.76 1013,-168 1008.3,-163.996 949.88,-145.119 899.219,-129.235"/>
<polygon fill="midnightblue" stroke="midnightblue" points="1345.44,-385.17 1355.97,-384.021 1347.02,-378.352 1345.44,-385.17"/>
</g>
<!-- Node14 -->
<g id="node14" class="node"><title>Node14</title>
<g id="a_node14"><a xlink:href="../../d9/d90/convertTracks_8C.html" target="_top" xlink:title="/home/travis/build\l/AliceO2Group/AliceO2\l/Detectors/TPC/reconstruction\l/macro/convertTracks.C">
<polygon fill="none" stroke="black" points="1854,-174 1854,-226 2004,-226 2004,-174 1854,-174"/>
<text text-anchor="start" x="1862" y="-214" font-family="Helvetica,sans-Serif" font-size="10.00">/home/travis/build</text>
<text text-anchor="start" x="1862" y="-203" font-family="Helvetica,sans-Serif" font-size="10.00">/AliceO2Group/AliceO2</text>
<text text-anchor="start" x="1862" y="-192" font-family="Helvetica,sans-Serif" font-size="10.00">/Detectors/TPC/reconstruction</text>
<text text-anchor="middle" x="1929" y="-181" font-family="Helvetica,sans-Serif" font-size="10.00">/macro/convertTracks.C</text>
</a>
</g>
</g>
<!-- Node1&#45;&gt;Node14 -->
<g id="edge37" class="edge"><title>Node1&#45;&gt;Node14</title>
<path fill="none" stroke="midnightblue" d="M1428.65,-358.361C1427.94,-328.887 1432.51,-290.41 1457,-268 1520.88,-209.544 1760.55,-251.153 1845,-232 1852.13,-230.384 1859.47,-228.316 1866.7,-226.018"/>
<polygon fill="midnightblue" stroke="midnightblue" points="1425.15,-358.535 1429.1,-368.369 1432.15,-358.223 1425.15,-358.535"/>
</g>
<!-- Node15 -->
<g id="node15" class="node"><title>Node15</title>
<g id="a_node15"><a xlink:href="../../d6/dee/dEdxRes_8C.html" target="_top" xlink:title="/home/travis/build\l/AliceO2Group/AliceO2\l/Detectors/TPC/reconstruction\l/macro/dEdxRes.C">
<polygon fill="none" stroke="black" points="2022,-174 2022,-226 2172,-226 2172,-174 2022,-174"/>
<text text-anchor="start" x="2030" y="-214" font-family="Helvetica,sans-Serif" font-size="10.00">/home/travis/build</text>
<text text-anchor="start" x="2030" y="-203" font-family="Helvetica,sans-Serif" font-size="10.00">/AliceO2Group/AliceO2</text>
<text text-anchor="start" x="2030" y="-192" font-family="Helvetica,sans-Serif" font-size="10.00">/Detectors/TPC/reconstruction</text>
<text text-anchor="middle" x="2097" y="-181" font-family="Helvetica,sans-Serif" font-size="10.00">/macro/dEdxRes.C</text>
</a>
</g>
</g>
<!-- Node1&#45;&gt;Node15 -->
<g id="edge38" class="edge"><title>Node1&#45;&gt;Node15</title>
<path fill="none" stroke="midnightblue" d="M1447,-358.567C1459.75,-324.272 1478.97,-278.945 1495,-268 1590.11,-203.054 1899.35,-255.965 2012,-232 2019.37,-230.431 2026.97,-228.361 2034.45,-226.032"/>
<polygon fill="midnightblue" stroke="midnightblue" points="1443.56,-357.763 1443.42,-368.357 1450.14,-360.166 1443.56,-357.763"/>
</g>
<!-- Node16 -->
<g id="node16" class="node"><title>Node16</title>
<g id="a_node16"><a xlink:href="../../d5/db8/RawClusterFinder_8C.html" target="_top" xlink:title="/home/travis/build\l/AliceO2Group/AliceO2\l/Detectors/TPC/reconstruction\l/macro/RawClusterFinder.C">
<polygon fill="none" stroke="black" points="372,-174 372,-226 522,-226 522,-174 372,-174"/>
<text text-anchor="start" x="380" y="-214" font-family="Helvetica,sans-Serif" font-size="10.00">/home/travis/build</text>
<text text-anchor="start" x="380" y="-203" font-family="Helvetica,sans-Serif" font-size="10.00">/AliceO2Group/AliceO2</text>
<text text-anchor="start" x="380" y="-192" font-family="Helvetica,sans-Serif" font-size="10.00">/Detectors/TPC/reconstruction</text>
<text text-anchor="middle" x="447" y="-181" font-family="Helvetica,sans-Serif" font-size="10.00">/macro/RawClusterFinder.C</text>
</a>
</g>
</g>
<!-- Node1&#45;&gt;Node16 -->
<g id="edge39" class="edge"><title>Node1&#45;&gt;Node16</title>
<path fill="none" stroke="midnightblue" d="M1345.59,-397.397C1166.28,-393.181 762.877,-378.66 634,-332 569.521,-308.655 506.79,-257.037 472.891,-226.02"/>
<polygon fill="midnightblue" stroke="midnightblue" points="1345.7,-400.901 1355.77,-397.631 1345.86,-393.902 1345.7,-400.901"/>
</g>
<!-- Node18 -->
<g id="node18" class="node"><title>Node18</title>
<g id="a_node18"><a xlink:href="../../db/d60/testTracks_8C.html" target="_top" xlink:title="/home/travis/build\l/AliceO2Group/AliceO2\l/Detectors/TPC/reconstruction\l/macro/testTracks.C">
<polygon fill="none" stroke="black" points="2190,-174 2190,-226 2340,-226 2340,-174 2190,-174"/>
<text text-anchor="start" x="2198" y="-214" font-family="Helvetica,sans-Serif" font-size="10.00">/home/travis/build</text>
<text text-anchor="start" x="2198" y="-203" font-family="Helvetica,sans-Serif" font-size="10.00">/AliceO2Group/AliceO2</text>
<text text-anchor="start" x="2198" y="-192" font-family="Helvetica,sans-Serif" font-size="10.00">/Detectors/TPC/reconstruction</text>
<text text-anchor="middle" x="2265" y="-181" font-family="Helvetica,sans-Serif" font-size="10.00">/macro/testTracks.C</text>
</a>
</g>
</g>
<!-- Node1&#45;&gt;Node18 -->
<g id="edge42" class="edge"><title>Node1&#45;&gt;Node18</title>
<path fill="none" stroke="midnightblue" d="M1468.47,-360.538C1476.23,-351.445 1484.17,-341.596 1491,-332 1510.06,-305.237 1500,-285.198 1528,-268 1589.82,-230.022 2108.93,-246.588 2180,-232 2187.39,-230.484 2194.99,-228.447 2202.47,-226.137"/>
<polygon fill="midnightblue" stroke="midnightblue" points="1465.63,-358.464 1461.72,-368.309 1470.92,-363.054 1465.63,-358.464"/>
</g>
<!-- Node20 -->
<g id="node20" class="node"><title>Node20</title>
<g id="a_node20"><a xlink:href="../../d2/db9/DataFormats_2Detectors_2TPC_2src_2Cluster_8cxx.html" target="_top" xlink:title="/home/travis/build\l/AliceO2Group/AliceO2\l/DataFormats/Detectors\l/TPC/src/Cluster.cxx">
<polygon fill="none" stroke="black" points="1537,-274 1537,-326 1659,-326 1659,-274 1537,-274"/>
<text text-anchor="start" x="1545" y="-314" font-family="Helvetica,sans-Serif" font-size="10.00">/home/travis/build</text>
<text text-anchor="start" x="1545" y="-303" font-family="Helvetica,sans-Serif" font-size="10.00">/AliceO2Group/AliceO2</text>
<text text-anchor="start" x="1545" y="-292" font-family="Helvetica,sans-Serif" font-size="10.00">/DataFormats/Detectors</text>
<text text-anchor="middle" x="1598" y="-281" font-family="Helvetica,sans-Serif" font-size="10.00">/TPC/src/Cluster.cxx</text>
</a>
</g>
</g>
<!-- Node1&#45;&gt;Node20 -->
<g id="edge22" class="edge"><title>Node1&#45;&gt;Node20</title>
<path fill="none" stroke="midnightblue" d="M1493.49,-363.075C1514.19,-350.78 1536.88,-337.301 1555.82,-326.054"/>
<polygon fill="midnightblue" stroke="midnightblue" points="1491.56,-360.145 1484.75,-368.261 1495.14,-366.164 1491.56,-360.145"/>
</g>
<!-- Node21 -->
<g id="node21" class="node"><title>Node21</title>
<g id="a_node21"><a xlink:href="../../d2/df8/BoxClusterer_8h.html" target="_top" xlink:title="Class for TPC cluster finding. ">
<polygon fill="none" stroke="black" points="305,-268.5 305,-331.5 455,-331.5 455,-268.5 305,-268.5"/>
<text text-anchor="start" x="313" y="-319.5" font-family="Helvetica,sans-Serif" font-size="10.00">/home/travis/build</text>
<text text-anchor="start" x="313" y="-308.5" font-family="Helvetica,sans-Serif" font-size="10.00">/AliceO2Group/AliceO2</text>
<text text-anchor="start" x="313" y="-297.5" font-family="Helvetica,sans-Serif" font-size="10.00">/Detectors/TPC/reconstruction</text>
<text text-anchor="start" x="313" y="-286.5" font-family="Helvetica,sans-Serif" font-size="10.00">/include/TPCReconstruction</text>
<text text-anchor="middle" x="380" y="-275.5" font-family="Helvetica,sans-Serif" font-size="10.00">/BoxClusterer.h</text>
</a>
</g>
</g>
<!-- Node1&#45;&gt;Node21 -->
<g id="edge23" class="edge"><title>Node1&#45;&gt;Node21</title>
<path fill="none" stroke="midnightblue" d="M1345.6,-397.921C1179.83,-394.726 808.787,-382.076 501,-332 486.017,-329.562 470.181,-326.14 455.079,-322.454"/>
<polygon fill="midnightblue" stroke="midnightblue" points="1345.68,-401.423 1355.74,-398.109 1345.81,-394.424 1345.68,-401.423"/>
</g>
<!-- Node23 -->
<g id="node23" class="node"><title>Node23</title>
<g id="a_node23"><a xlink:href="../../d8/d0f/TPC_2reconstruction_2src_2ClustererTask_8cxx.html" target="_top" xlink:title="/home/travis/build\l/AliceO2Group/AliceO2\l/Detectors/TPC/reconstruction\l/src/ClustererTask.cxx">
<polygon fill="none" stroke="black" points="0,-79 0,-131 150,-131 150,-79 0,-79"/>
<text text-anchor="start" x="8" y="-119" font-family="Helvetica,sans-Serif" font-size="10.00">/home/travis/build</text>
<text text-anchor="start" x="8" y="-108" font-family="Helvetica,sans-Serif" font-size="10.00">/AliceO2Group/AliceO2</text>
<text text-anchor="start" x="8" y="-97" font-family="Helvetica,sans-Serif" font-size="10.00">/Detectors/TPC/reconstruction</text>
<text text-anchor="middle" x="75" y="-86" font-family="Helvetica,sans-Serif" font-size="10.00">/src/ClustererTask.cxx</text>
</a>
</g>
</g>
<!-- Node1&#45;&gt;Node23 -->
<g id="edge44" class="edge"><title>Node1&#45;&gt;Node23</title>
<path fill="none" stroke="midnightblue" d="M1345.74,-397.202C1115.61,-391.925 496.2,-374.125 296,-332 171.184,-305.737 99.801,-336.732 27,-232 10.7648,-208.644 17.7988,-194.915 27,-168 31.6236,-154.475 40.5293,-141.615 49.4267,-131.149"/>
<polygon fill="midnightblue" stroke="midnightblue" points="1345.66,-400.701 1355.74,-397.429 1345.82,-393.702 1345.66,-400.701"/>
</g>
<!-- Node26 -->
<g id="node26" class="node"><title>Node26</title>
<g id="a_node26"><a xlink:href="../../de/df6/HwClusterer_8h.html" target="_top" xlink:title="Class for TPC HW cluster finding. ">
<polygon fill="none" stroke="black" points="643,-268.5 643,-331.5 793,-331.5 793,-268.5 643,-268.5"/>
<text text-anchor="start" x="651" y="-319.5" font-family="Helvetica,sans-Serif" font-size="10.00">/home/travis/build</text>
<text text-anchor="start" x="651" y="-308.5" font-family="Helvetica,sans-Serif" font-size="10.00">/AliceO2Group/AliceO2</text>
<text text-anchor="start" x="651" y="-297.5" font-family="Helvetica,sans-Serif" font-size="10.00">/Detectors/TPC/reconstruction</text>
<text text-anchor="start" x="651" y="-286.5" font-family="Helvetica,sans-Serif" font-size="10.00">/include/TPCReconstruction</text>
<text text-anchor="middle" x="718" y="-275.5" font-family="Helvetica,sans-Serif" font-size="10.00">/HwClusterer.h</text>
</a>
</g>
</g>
<!-- Node1&#45;&gt;Node26 -->
<g id="edge30" class="edge"><title>Node1&#45;&gt;Node26</title>
<path fill="none" stroke="midnightblue" d="M1345.85,-387.055C1204.28,-367.651 926.762,-329.614 793.259,-311.315"/>
<polygon fill="midnightblue" stroke="midnightblue" points="1345.42,-390.529 1355.8,-388.419 1346.37,-383.594 1345.42,-390.529"/>
</g>
<!-- Node29 -->
<g id="node29" class="node"><title>Node29</title>
<g id="a_node29"><a xlink:href="../../d8/dce/ClustererSpec_8cxx.html" target="_top" xlink:title="spec definition for a TPC clusterer process ">
<polygon fill="none" stroke="black" points="876,-174 876,-226 1004,-226 1004,-174 876,-174"/>
<text text-anchor="start" x="884" y="-214" font-family="Helvetica,sans-Serif" font-size="10.00">/home/travis/build</text>
<text text-anchor="start" x="884" y="-203" font-family="Helvetica,sans-Serif" font-size="10.00">/AliceO2Group/AliceO2</text>
<text text-anchor="start" x="884" y="-192" font-family="Helvetica,sans-Serif" font-size="10.00">/Detectors/TPC/workflow</text>
<text text-anchor="middle" x="940" y="-181" font-family="Helvetica,sans-Serif" font-size="10.00">/src/ClustererSpec.cxx</text>
</a>
</g>
</g>
<!-- Node1&#45;&gt;Node29 -->
<g id="edge47" class="edge"><title>Node1&#45;&gt;Node29</title>
<path fill="none" stroke="midnightblue" d="M1345.85,-393.55C1240.27,-385.489 1070.04,-367.369 1018,-332 980.455,-306.484 958.208,-256.363 947.613,-226.056"/>
<polygon fill="midnightblue" stroke="midnightblue" points="1345.63,-397.043 1355.86,-394.299 1346.15,-390.062 1345.63,-397.043"/>
</g>
<!-- Node30 -->
<g id="node30" class="node"><title>Node30</title>
<g id="a_node30"><a xlink:href="../../d4/d0e/readClusterMCtruth_8C.html" target="_top" xlink:title="/home/travis/build\l/AliceO2Group/AliceO2\l/Detectors/TPC/reconstruction\l/macro/readClusterMCtruth.C">
<polygon fill="none" stroke="black" points="1677,-274 1677,-326 1827,-326 1827,-274 1677,-274"/>
<text text-anchor="start" x="1685" y="-314" font-family="Helvetica,sans-Serif" font-size="10.00">/home/travis/build</text>
<text text-anchor="start" x="1685" y="-303" font-family="Helvetica,sans-Serif" font-size="10.00">/AliceO2Group/AliceO2</text>
<text text-anchor="start" x="1685" y="-292" font-family="Helvetica,sans-Serif" font-size="10.00">/Detectors/TPC/reconstruction</text>
<text text-anchor="middle" x="1752" y="-281" font-family="Helvetica,sans-Serif" font-size="10.00">/macro/readClusterMCtruth.C</text>
</a>
</g>
</g>
<!-- Node1&#45;&gt;Node30 -->
<g id="edge40" class="edge"><title>Node1&#45;&gt;Node30</title>
<path fill="none" stroke="midnightblue" d="M1520.09,-375.864C1564.59,-363.616 1619.45,-347.855 1668,-332 1673.76,-330.118 1679.72,-328.09 1685.68,-326.004"/>
<polygon fill="midnightblue" stroke="midnightblue" points="1518.9,-372.562 1510.18,-378.582 1520.75,-379.313 1518.9,-372.562"/>
</g>
<!-- Node31 -->
<g id="node31" class="node"><title>Node31</title>
<g id="a_node31"><a xlink:href="../../dc/dab/ClusterContainer_8cxx.html" target="_top" xlink:title="/home/travis/build\l/AliceO2Group/AliceO2\l/Detectors/TPC/reconstruction\l/src/ClusterContainer.cxx">
<polygon fill="none" stroke="black" points="1845,-274 1845,-326 1995,-326 1995,-274 1845,-274"/>
<text text-anchor="start" x="1853" y="-314" font-family="Helvetica,sans-Serif" font-size="10.00">/home/travis/build</text>
<text text-anchor="start" x="1853" y="-303" font-family="Helvetica,sans-Serif" font-size="10.00">/AliceO2Group/AliceO2</text>
<text text-anchor="start" x="1853" y="-292" font-family="Helvetica,sans-Serif" font-size="10.00">/Detectors/TPC/reconstruction</text>
<text text-anchor="middle" x="1920" y="-281" font-family="Helvetica,sans-Serif" font-size="10.00">/src/ClusterContainer.cxx</text>
</a>
</g>
</g>
<!-- Node1&#45;&gt;Node31 -->
<g id="edge43" class="edge"><title>Node1&#45;&gt;Node31</title>
<path fill="none" stroke="midnightblue" d="M1520.25,-389.18C1602.34,-378.833 1728.26,-360.101 1835,-332 1841.53,-330.28 1848.27,-328.264 1854.95,-326.099"/>
<polygon fill="midnightblue" stroke="midnightblue" points="1519.7,-385.721 1510.21,-390.431 1520.56,-392.667 1519.7,-385.721"/>
</g>
<!-- Node32 -->
<g id="node32" class="node"><title>Node32</title>
<g id="a_node32"><a xlink:href="../../d6/dc6/HwClusterFinder_8cxx.html" target="_top" xlink:title="/home/travis/build\l/AliceO2Group/AliceO2\l/Detectors/TPC/reconstruction\l/src/HwClusterFinder.cxx">
<polygon fill="none" stroke="black" points="2013,-274 2013,-326 2163,-326 2163,-274 2013,-274"/>
<text text-anchor="start" x="2021" y="-314" font-family="Helvetica,sans-Serif" font-size="10.00">/home/travis/build</text>
<text text-anchor="start" x="2021" y="-303" font-family="Helvetica,sans-Serif" font-size="10.00">/AliceO2Group/AliceO2</text>
<text text-anchor="start" x="2021" y="-292" font-family="Helvetica,sans-Serif" font-size="10.00">/Detectors/TPC/reconstruction</text>
<text text-anchor="middle" x="2088" y="-281" font-family="Helvetica,sans-Serif" font-size="10.00">/src/HwClusterFinder.cxx</text>
</a>
</g>
</g>
<!-- Node1&#45;&gt;Node32 -->
<g id="edge45" class="edge"><title>Node1&#45;&gt;Node32</title>
<path fill="none" stroke="midnightblue" d="M1520.35,-395.047C1633.16,-388.51 1834.97,-371.94 2003,-332 2009.88,-330.365 2016.96,-328.348 2023.97,-326.132"/>
<polygon fill="midnightblue" stroke="midnightblue" points="1519.84,-391.571 1510.05,-395.63 1520.23,-398.559 1519.84,-391.571"/>
</g>
<!-- Node33 -->
<g id="node33" class="node"><title>Node33</title>
<g id="a_node33"><a xlink:href="../../da/d65/ClusterConverterSpec_8cxx.html" target="_top" xlink:title="Processor spec for converter of TPC clusters to HW cluster raw data. ">
<polygon fill="none" stroke="black" points="2181,-274 2181,-326 2333,-326 2333,-274 2181,-274"/>
<text text-anchor="start" x="2189" y="-314" font-family="Helvetica,sans-Serif" font-size="10.00">/home/travis/build</text>
<text text-anchor="start" x="2189" y="-303" font-family="Helvetica,sans-Serif" font-size="10.00">/AliceO2Group/AliceO2</text>
<text text-anchor="start" x="2189" y="-292" font-family="Helvetica,sans-Serif" font-size="10.00">/Detectors/TPC/workflow</text>
<text text-anchor="middle" x="2257" y="-281" font-family="Helvetica,sans-Serif" font-size="10.00">/src/ClusterConverterSpec.cxx</text>
</a>
</g>
</g>
<!-- Node1&#45;&gt;Node33 -->
<g id="edge46" class="edge"><title>Node1&#45;&gt;Node33</title>
<path fill="none" stroke="midnightblue" d="M1520.41,-398.246C1659.69,-395.446 1939.87,-383.261 2171,-332 2178.28,-330.385 2185.79,-328.318 2193.19,-326.019"/>
<polygon fill="midnightblue" stroke="midnightblue" points="1520.15,-394.75 1510.22,-398.439 1520.28,-401.749 1520.15,-394.75"/>
</g>
<!-- Node34 -->
<g id="node34" class="node"><title>Node34</title>
<g id="a_node34"><a xlink:href="../../d7/d3d/convertClusterToClusterHardware_8C.html" target="_top" xlink:title="/home/travis/build\l/AliceO2Group/AliceO2\l/macro/convertClusterToCluster\lHardware.C">
<polygon fill="none" stroke="black" points="2351,-274 2351,-326 2507,-326 2507,-274 2351,-274"/>
<text text-anchor="start" x="2359" y="-314" font-family="Helvetica,sans-Serif" font-size="10.00">/home/travis/build</text>
<text text-anchor="start" x="2359" y="-303" font-family="Helvetica,sans-Serif" font-size="10.00">/AliceO2Group/AliceO2</text>
<text text-anchor="start" x="2359" y="-292" font-family="Helvetica,sans-Serif" font-size="10.00">/macro/convertClusterToCluster</text>
<text text-anchor="middle" x="2429" y="-281" font-family="Helvetica,sans-Serif" font-size="10.00">Hardware.C</text>
</a>
</g>
</g>
<!-- Node1&#45;&gt;Node34 -->
<g id="edge48" class="edge"><title>Node1&#45;&gt;Node34</title>
<path fill="none" stroke="midnightblue" d="M1520.29,-395.556C1716.36,-387.334 2186.66,-364.775 2342,-332 2349.37,-330.444 2356.97,-328.415 2364.47,-326.138"/>
<polygon fill="midnightblue" stroke="midnightblue" points="1519.88,-392.07 1510.03,-395.983 1520.17,-399.064 1519.88,-392.07"/>
</g>
<!-- Node3 -->
<g id="node3" class="node"><title>Node3</title>
<g id="a_node3"><a xlink:href="../../d6/da8/TrackTPC_8cxx.html" target="_top" xlink:title="Implementation of the TPC track. ">
<polygon fill="none" stroke="black" points="1266.5,-174 1266.5,-226 1389.5,-226 1389.5,-174 1266.5,-174"/>
<text text-anchor="start" x="1274.5" y="-214" font-family="Helvetica,sans-Serif" font-size="10.00">/home/travis/build</text>
<text text-anchor="start" x="1274.5" y="-203" font-family="Helvetica,sans-Serif" font-size="10.00">/AliceO2Group/AliceO2</text>
<text text-anchor="start" x="1274.5" y="-192" font-family="Helvetica,sans-Serif" font-size="10.00">/DataFormats/Detectors</text>
<text text-anchor="middle" x="1328" y="-181" font-family="Helvetica,sans-Serif" font-size="10.00">/TPC/src/TrackTPC.cxx</text>
</a>
</g>
</g>
<!-- Node2&#45;&gt;Node3 -->
<g id="edge2" class="edge"><title>Node2&#45;&gt;Node3</title>
<path fill="none" stroke="midnightblue" d="M1328,-258.079C1328,-247.21 1328,-235.794 1328,-226.054"/>
<polygon fill="midnightblue" stroke="midnightblue" points="1324.5,-258.261 1328,-268.261 1331.5,-258.261 1324.5,-258.261"/>
</g>
<!-- Node4 -->
<g id="node4" class="node"><title>Node4</title>
<g id="a_node4"><a xlink:href="../../d3/dac/MatchTPCITS_8h.html" target="_top" xlink:title="Class to perform TPC ITS matching. ">
<polygon fill="none" stroke="black" points="1484.5,-174 1484.5,-226 1677.5,-226 1677.5,-174 1484.5,-174"/>
<text text-anchor="start" x="1492.5" y="-214" font-family="Helvetica,sans-Serif" font-size="10.00">/home/travis/build</text>
<text text-anchor="start" x="1492.5" y="-203" font-family="Helvetica,sans-Serif" font-size="10.00">/AliceO2Group/AliceO2</text>
<text text-anchor="start" x="1492.5" y="-192" font-family="Helvetica,sans-Serif" font-size="10.00">/Detectors/GlobalTracking</text>
<text text-anchor="middle" x="1581" y="-181" font-family="Helvetica,sans-Serif" font-size="10.00">/include/GlobalTracking/MatchTPCITS.h</text>
</a>
</g>
</g>
<!-- Node2&#45;&gt;Node4 -->
<g id="edge3" class="edge"><title>Node2&#45;&gt;Node4</title>
<path fill="none" stroke="midnightblue" d="M1414.98,-265.309C1448.15,-252.461 1485.35,-238.051 1516.11,-226.134"/>
<polygon fill="midnightblue" stroke="midnightblue" points="1413.34,-262.188 1405.28,-269.064 1415.87,-268.716 1413.34,-262.188"/>
</g>
<!-- Node2&#45;&gt;Node7 -->
<g id="edge6" class="edge"><title>Node2&#45;&gt;Node7</title>
<path fill="none" stroke="midnightblue" d="M1270.56,-262.682C1254.41,-252.472 1237.01,-241.473 1221.45,-231.63"/>
<polygon fill="midnightblue" stroke="midnightblue" points="1269.06,-265.875 1279.38,-268.261 1272.8,-259.959 1269.06,-265.875"/>
</g>
<!-- Node2&#45;&gt;Node8 -->
<g id="edge17" class="edge"><title>Node2&#45;&gt;Node8</title>
<path fill="none" stroke="midnightblue" d="M1240.84,-289.536C1192.48,-280.808 1133.33,-264.069 1089,-232 1061.23,-211.915 1073.95,-187.833 1046,-168 994.308,-131.316 968.958,-149.375 908,-132 905.064,-131.163 902.074,-130.298 899.056,-129.415"/>
<polygon fill="midnightblue" stroke="midnightblue" points="1240.54,-293.035 1250.99,-291.279 1241.73,-286.137 1240.54,-293.035"/>
</g>
<!-- Node11 -->
<g id="node11" class="node"><title>Node11</title>
<g id="a_node11"><a xlink:href="../../d7/d83/testTPCCATracking_8cxx.html" target="_top" xlink:title="This task tests the TPC CA Tracking library. ">
<polygon fill="none" stroke="black" points="1231,-79 1231,-131 1381,-131 1381,-79 1231,-79"/>
<text text-anchor="start" x="1239" y="-119" font-family="Helvetica,sans-Serif" font-size="10.00">/home/travis/build</text>
<text text-anchor="start" x="1239" y="-108" font-family="Helvetica,sans-Serif" font-size="10.00">/AliceO2Group/AliceO2</text>
<text text-anchor="start" x="1239" y="-97" font-family="Helvetica,sans-Serif" font-size="10.00">/Detectors/TPC/reconstruction</text>
<text text-anchor="middle" x="1306" y="-86" font-family="Helvetica,sans-Serif" font-size="10.00">/test/testTPCCATracking.cxx</text>
</a>
</g>
</g>
<!-- Node2&#45;&gt;Node11 -->
<g id="edge19" class="edge"><title>Node2&#45;&gt;Node11</title>
<path fill="none" stroke="midnightblue" d="M1378.24,-261.004C1386.29,-252.416 1393.45,-242.649 1398,-232 1409.17,-205.841 1411.36,-193.112 1398,-168 1389.86,-152.696 1376.07,-140.49 1361.61,-131.095"/>
<polygon fill="midnightblue" stroke="midnightblue" points="1375.6,-258.7 1370.99,-268.241 1380.54,-263.654 1375.6,-258.7"/>
</g>
<!-- Node13 -->
<g id="node13" class="node"><title>Node13</title>
<g id="a_node13"><a xlink:href="../../d1/df0/runCATrackingClusterNative_8C.html" target="_top" xlink:title="/home/travis/build\l/AliceO2Group/AliceO2\l/macro/runCATrackingClusterNative.C">
<polygon fill="none" stroke="black" points="1398.5,-84.5 1398.5,-125.5 1583.5,-125.5 1583.5,-84.5 1398.5,-84.5"/>
<text text-anchor="start" x="1406.5" y="-113.5" font-family="Helvetica,sans-Serif" font-size="10.00">/home/travis/build</text>
<text text-anchor="start" x="1406.5" y="-102.5" font-family="Helvetica,sans-Serif" font-size="10.00">/AliceO2Group/AliceO2</text>
<text text-anchor="middle" x="1491" y="-91.5" font-family="Helvetica,sans-Serif" font-size="10.00">/macro/runCATrackingClusterNative.C</text>
</a>
</g>
</g>
<!-- Node2&#45;&gt;Node13 -->
<g id="edge21" class="edge"><title>Node2&#45;&gt;Node13</title>
<path fill="none" stroke="midnightblue" d="M1383.82,-262.321C1395.53,-253.212 1407.27,-242.907 1417,-232 1446.55,-198.867 1470.28,-152.153 1482.34,-125.909"/>
<polygon fill="midnightblue" stroke="midnightblue" points="1381.61,-259.607 1375.74,-268.429 1385.83,-265.192 1381.61,-259.607"/>
</g>
<!-- Node2&#45;&gt;Node14 -->
<g id="edge13" class="edge"><title>Node2&#45;&gt;Node14</title>
<path fill="none" stroke="midnightblue" d="M1415.12,-268.845C1416.42,-268.551 1417.71,-268.269 1419,-268 1604.98,-229.075 1659.53,-273.266 1845,-232 1852.13,-230.413 1859.48,-228.364 1866.71,-226.076"/>
<polygon fill="midnightblue" stroke="midnightblue" points="1413.96,-265.525 1405.09,-271.31 1415.63,-272.323 1413.96,-265.525"/>
</g>
<!-- Node2&#45;&gt;Node15 -->
<g id="edge14" class="edge"><title>Node2&#45;&gt;Node15</title>
<path fill="none" stroke="midnightblue" d="M1415.35,-275.88C1429.21,-272.829 1443.44,-270.054 1457,-268 1701.4,-230.986 1770.1,-282.862 2012,-232 2019.38,-230.449 2026.98,-228.389 2034.46,-226.067"/>
<polygon fill="midnightblue" stroke="midnightblue" points="1414.32,-272.524 1405.34,-278.143 1415.87,-279.351 1414.32,-272.524"/>
</g>
<!-- Node2&#45;&gt;Node16 -->
<g id="edge15" class="edge"><title>Node2&#45;&gt;Node16</title>
<path fill="none" stroke="midnightblue" d="M1240.6,-294.63C1062.72,-285.248 664.217,-261.609 531,-232 523.868,-230.415 516.523,-228.367 509.285,-226.079"/>
<polygon fill="midnightblue" stroke="midnightblue" points="1240.53,-298.131 1250.7,-295.16 1240.9,-291.141 1240.53,-298.131"/>
</g>
<!-- Node2&#45;&gt;Node18 -->
<g id="edge18" class="edge"><title>Node2&#45;&gt;Node18</title>
<path fill="none" stroke="midnightblue" d="M1415.07,-280.607C1440.71,-275.796 1468.89,-271.096 1495,-268 1797.74,-232.102 1881.28,-292.899 2180,-232 2187.54,-230.463 2195.31,-228.378 2202.94,-226.012"/>
<polygon fill="midnightblue" stroke="midnightblue" points="1414.17,-277.215 1405,-282.525 1415.48,-284.091 1414.17,-277.215"/>
</g>
<!-- Node19 -->
<g id="node19" class="node"><title>Node19</title>
<g id="a_node19"><a xlink:href="../../d7/d0c/RootFileWriterSpec_8cxx.html" target="_top" xlink:title="Processor spec for a ROOT file writer. ">
<polygon fill="none" stroke="black" points="1696,-174 1696,-226 1836,-226 1836,-174 1696,-174"/>
<text text-anchor="start" x="1704" y="-214" font-family="Helvetica,sans-Serif" font-size="10.00">/home/travis/build</text>
<text text-anchor="start" x="1704" y="-203" font-family="Helvetica,sans-Serif" font-size="10.00">/AliceO2Group/AliceO2</text>
<text text-anchor="start" x="1704" y="-192" font-family="Helvetica,sans-Serif" font-size="10.00">/Detectors/TPC/workflow</text>
<text text-anchor="middle" x="1766" y="-181" font-family="Helvetica,sans-Serif" font-size="10.00">/src/RootFileWriterSpec.cxx</text>
</a>
</g>
</g>
<!-- Node2&#45;&gt;Node19 -->
<g id="edge20" class="edge"><title>Node2&#45;&gt;Node19</title>
<path fill="none" stroke="midnightblue" d="M1415.14,-268.935C1416.43,-268.613 1417.72,-268.301 1419,-268 1535.56,-240.565 1570.04,-261.839 1686,-232 1692.49,-230.33 1699.17,-228.289 1705.78,-226.059"/>
<polygon fill="midnightblue" stroke="midnightblue" points="1413.92,-265.638 1405.15,-271.579 1415.71,-272.405 1413.92,-265.638"/>
</g>
<!-- Node5 -->
<g id="node5" class="node"><title>Node5</title>
<g id="a_node5"><a xlink:href="../../dc/d59/MatchTPCITS_8cxx.html" target="_top" xlink:title="/home/travis/build\l/AliceO2Group/AliceO2\l/Detectors/GlobalTracking\l/src/MatchTPCITS.cxx">
<polygon fill="none" stroke="black" points="1766.5,-79 1766.5,-131 1897.5,-131 1897.5,-79 1766.5,-79"/>
<text text-anchor="start" x="1774.5" y="-119" font-family="Helvetica,sans-Serif" font-size="10.00">/home/travis/build</text>
<text text-anchor="start" x="1774.5" y="-108" font-family="Helvetica,sans-Serif" font-size="10.00">/AliceO2Group/AliceO2</text>
<text text-anchor="start" x="1774.5" y="-97" font-family="Helvetica,sans-Serif" font-size="10.00">/Detectors/GlobalTracking</text>
<text text-anchor="middle" x="1832" y="-86" font-family="Helvetica,sans-Serif" font-size="10.00">/src/MatchTPCITS.cxx</text>
</a>
</g>
</g>
<!-- Node4&#45;&gt;Node5 -->
<g id="edge4" class="edge"><title>Node4&#45;&gt;Node5</title>
<path fill="none" stroke="midnightblue" d="M1658.2,-170.395C1692.85,-157.556 1733.3,-142.569 1766.45,-130.286"/>
<polygon fill="midnightblue" stroke="midnightblue" points="1656.75,-167.199 1648.59,-173.955 1659.19,-173.763 1656.75,-167.199"/>
</g>
<!-- Node6 -->
<g id="node6" class="node"><title>Node6</title>
<g id="a_node6"><a xlink:href="../../d9/d84/run__match__TPCITS_8C.html" target="_top" xlink:title="/home/travis/build\l/AliceO2Group/AliceO2\l/macro/run_match_TPCITS.C">
<polygon fill="none" stroke="black" points="1601.5,-84.5 1601.5,-125.5 1748.5,-125.5 1748.5,-84.5 1601.5,-84.5"/>
<text text-anchor="start" x="1609.5" y="-113.5" font-family="Helvetica,sans-Serif" font-size="10.00">/home/travis/build</text>
<text text-anchor="start" x="1609.5" y="-102.5" font-family="Helvetica,sans-Serif" font-size="10.00">/AliceO2Group/AliceO2</text>
<text text-anchor="middle" x="1675" y="-91.5" font-family="Helvetica,sans-Serif" font-size="10.00">/macro/run_match_TPCITS.C</text>
</a>
</g>
</g>
<!-- Node4&#45;&gt;Node6 -->
<g id="edge5" class="edge"><title>Node4&#45;&gt;Node6</title>
<path fill="none" stroke="midnightblue" d="M1614.06,-166.287C1627.73,-152.772 1643.11,-137.548 1655.01,-125.78"/>
<polygon fill="midnightblue" stroke="midnightblue" points="1611.33,-164.066 1606.69,-173.587 1616.26,-169.042 1611.33,-164.066"/>
</g>
<!-- Node7&#45;&gt;Node8 -->
<g id="edge7" class="edge"><title>Node7&#45;&gt;Node8</title>
<path fill="none" stroke="midnightblue" d="M1088.32,-169.212C1086.87,-168.798 1085.43,-168.393 1084,-168 1007.02,-146.822 985.341,-151.828 908,-132 905.042,-131.242 902.034,-130.443 899.002,-129.616"/>
<polygon fill="midnightblue" stroke="midnightblue" points="1087.38,-172.583 1097.96,-172.072 1089.37,-165.872 1087.38,-172.583"/>
</g>
<!-- Node10 -->
<g id="node10" class="node"><title>Node10</title>
<g id="a_node10"><a xlink:href="../../d8/ded/TPCCATracking_8cxx.html" target="_top" xlink:title="/home/travis/build\l/AliceO2Group/AliceO2\l/Detectors/TPC/reconstruction\l/src/TPCCATracking.cxx">
<polygon fill="none" stroke="black" points="1063,-79 1063,-131 1213,-131 1213,-79 1063,-79"/>
<text text-anchor="start" x="1071" y="-119" font-family="Helvetica,sans-Serif" font-size="10.00">/home/travis/build</text>
<text text-anchor="start" x="1071" y="-108" font-family="Helvetica,sans-Serif" font-size="10.00">/AliceO2Group/AliceO2</text>
<text text-anchor="start" x="1071" y="-97" font-family="Helvetica,sans-Serif" font-size="10.00">/Detectors/TPC/reconstruction</text>
<text text-anchor="middle" x="1138" y="-86" font-family="Helvetica,sans-Serif" font-size="10.00">/src/TPCCATracking.cxx</text>
</a>
</g>
</g>
<!-- Node7&#45;&gt;Node10 -->
<g id="edge9" class="edge"><title>Node7&#45;&gt;Node10</title>
<path fill="none" stroke="midnightblue" d="M1157.84,-158.705C1154.31,-149.325 1150.65,-139.602 1147.45,-131.1"/>
<polygon fill="midnightblue" stroke="midnightblue" points="1154.64,-160.164 1161.44,-168.291 1161.2,-157.699 1154.64,-160.164"/>
</g>
<!-- Node7&#45;&gt;Node11 -->
<g id="edge10" class="edge"><title>Node7&#45;&gt;Node11</title>
<path fill="none" stroke="midnightblue" d="M1225.15,-162.533C1240.2,-152.009 1256.28,-140.766 1270.1,-131.1"/>
<polygon fill="midnightblue" stroke="midnightblue" points="1223.11,-159.692 1216.92,-168.291 1227.12,-165.428 1223.11,-159.692"/>
</g>
<!-- Node12 -->
<g id="node12" class="node"><title>Node12</title>
<g id="a_node12"><a xlink:href="../../da/d78/CATrackerSpec_8cxx.html" target="_top" xlink:title="Processor spec for running TPC CA tracking. ">
<polygon fill="none" stroke="black" points="917,-79 917,-131 1045,-131 1045,-79 917,-79"/>
<text text-anchor="start" x="925" y="-119" font-family="Helvetica,sans-Serif" font-size="10.00">/home/travis/build</text>
<text text-anchor="start" x="925" y="-108" font-family="Helvetica,sans-Serif" font-size="10.00">/AliceO2Group/AliceO2</text>
<text text-anchor="start" x="925" y="-97" font-family="Helvetica,sans-Serif" font-size="10.00">/Detectors/TPC/workflow</text>
<text text-anchor="middle" x="981" y="-86" font-family="Helvetica,sans-Serif" font-size="10.00">/src/CATrackerSpec.cxx</text>
</a>
</g>
</g>
<!-- Node7&#45;&gt;Node12 -->
<g id="edge11" class="edge"><title>Node7&#45;&gt;Node12</title>
<path fill="none" stroke="midnightblue" d="M1100.64,-163.95C1078.02,-152.995 1053.54,-141.136 1032.65,-131.017"/>
<polygon fill="midnightblue" stroke="midnightblue" points="1099.34,-167.21 1109.87,-168.42 1102.39,-160.91 1099.34,-167.21"/>
</g>
<!-- Node7&#45;&gt;Node13 -->
<g id="edge12" class="edge"><title>Node7&#45;&gt;Node13</title>
<path fill="none" stroke="midnightblue" d="M1258.13,-167.77C1297.52,-155.803 1362.27,-138.854 1414.14,-125.53"/>
<polygon fill="midnightblue" stroke="midnightblue" points="1256.95,-164.47 1248.44,-170.777 1259.03,-171.155 1256.95,-164.47"/>
</g>
<!-- Node9 -->
<g id="node9" class="node"><title>Node9</title>
<g id="a_node9"><a xlink:href="../../d3/d56/runTPC_8cxx.html" target="_top" xlink:title="/home/travis/build\l/AliceO2Group/AliceO2\l/run/runTPC.cxx">
<polygon fill="none" stroke="black" points="499,-0.5 499,-41.5 617,-41.5 617,-0.5 499,-0.5"/>
<text text-anchor="start" x="507" y="-29.5" font-family="Helvetica,sans-Serif" font-size="10.00">/home/travis/build</text>
<text text-anchor="start" x="507" y="-18.5" font-family="Helvetica,sans-Serif" font-size="10.00">/AliceO2Group/AliceO2</text>
<text text-anchor="middle" x="558" y="-7.5" font-family="Helvetica,sans-Serif" font-size="10.00">/run/runTPC.cxx</text>
</a>
</g>
</g>
<!-- Node8&#45;&gt;Node9 -->
<g id="edge8" class="edge"><title>Node8&#45;&gt;Node9</title>
<path fill="none" stroke="midnightblue" d="M739.174,-77.8505C699.505,-65.6218 653.225,-51.3552 617.37,-40.3021"/>
<polygon fill="midnightblue" stroke="midnightblue" points="738.254,-81.2296 748.842,-80.8309 740.317,-74.5402 738.254,-81.2296"/>
</g>
<!-- Node17 -->
<g id="node17" class="node"><title>Node17</title>
<g id="a_node17"><a xlink:href="../../df/da0/runRawClusterFinder_8C.html" target="_top" xlink:title="/home/travis/build\l/AliceO2Group/AliceO2\l/Detectors/TPC/reconstruction\l/macro/runRawClusterFinder.C">
<polygon fill="none" stroke="black" points="371,-79 371,-131 523,-131 523,-79 371,-79"/>
<text text-anchor="start" x="379" y="-119" font-family="Helvetica,sans-Serif" font-size="10.00">/home/travis/build</text>
<text text-anchor="start" x="379" y="-108" font-family="Helvetica,sans-Serif" font-size="10.00">/AliceO2Group/AliceO2</text>
<text text-anchor="start" x="379" y="-97" font-family="Helvetica,sans-Serif" font-size="10.00">/Detectors/TPC/reconstruction</text>
<text text-anchor="middle" x="447" y="-86" font-family="Helvetica,sans-Serif" font-size="10.00">/macro/runRawClusterFinder.C</text>
</a>
</g>
</g>
<!-- Node16&#45;&gt;Node17 -->
<g id="edge16" class="edge"><title>Node16&#45;&gt;Node17</title>
<path fill="none" stroke="midnightblue" d="M447,-163.549C447,-152.722 447,-141.046 447,-131.06"/>
<polygon fill="midnightblue" stroke="midnightblue" points="443.5,-163.587 447,-173.587 450.5,-163.587 443.5,-163.587"/>
</g>
<!-- Node21&#45;&gt;Node16 -->
<g id="edge28" class="edge"><title>Node21&#45;&gt;Node16</title>
<path fill="none" stroke="midnightblue" d="M406.83,-259.755C414.6,-248.391 422.869,-236.297 429.872,-226.054"/>
<polygon fill="midnightblue" stroke="midnightblue" points="403.77,-258.031 401.015,-268.261 409.549,-261.981 403.77,-258.031"/>
</g>
<!-- Node22 -->
<g id="node22" class="node"><title>Node22</title>
<g id="a_node22"><a xlink:href="../../de/d64/TPC_2reconstruction_2include_2TPCReconstruction_2ClustererTask_8h.html" target="_top" xlink:title="/home/travis/build\l/AliceO2Group/AliceO2\l/Detectors/TPC/reconstruction\l/include/TPCReconstruction\l/ClustererTask.h">
<polygon fill="none" stroke="black" points="204,-168.5 204,-231.5 354,-231.5 354,-168.5 204,-168.5"/>
<text text-anchor="start" x="212" y="-219.5" font-family="Helvetica,sans-Serif" font-size="10.00">/home/travis/build</text>
<text text-anchor="start" x="212" y="-208.5" font-family="Helvetica,sans-Serif" font-size="10.00">/AliceO2Group/AliceO2</text>
<text text-anchor="start" x="212" y="-197.5" font-family="Helvetica,sans-Serif" font-size="10.00">/Detectors/TPC/reconstruction</text>
<text text-anchor="start" x="212" y="-186.5" font-family="Helvetica,sans-Serif" font-size="10.00">/include/TPCReconstruction</text>
<text text-anchor="middle" x="279" y="-175.5" font-family="Helvetica,sans-Serif" font-size="10.00">/ClustererTask.h</text>
</a>
</g>
</g>
<!-- Node21&#45;&gt;Node22 -->
<g id="edge24" class="edge"><title>Node21&#45;&gt;Node22</title>
<path fill="none" stroke="midnightblue" d="M341.104,-261.259C331.001,-251.456 320.242,-241.017 310.568,-231.63"/>
<polygon fill="midnightblue" stroke="midnightblue" points="338.706,-263.809 348.32,-268.261 343.581,-258.785 338.706,-263.809"/>
</g>
<!-- Node25 -->
<g id="node25" class="node"><title>Node25</title>
<g id="a_node25"><a xlink:href="../../da/d67/BoxClusterer_8cxx.html" target="_top" xlink:title="/home/travis/build\l/AliceO2Group/AliceO2\l/Detectors/TPC/reconstruction\l/src/BoxClusterer.cxx">
<polygon fill="none" stroke="black" points="36,-174 36,-226 186,-226 186,-174 36,-174"/>
<text text-anchor="start" x="44" y="-214" font-family="Helvetica,sans-Serif" font-size="10.00">/home/travis/build</text>
<text text-anchor="start" x="44" y="-203" font-family="Helvetica,sans-Serif" font-size="10.00">/AliceO2Group/AliceO2</text>
<text text-anchor="start" x="44" y="-192" font-family="Helvetica,sans-Serif" font-size="10.00">/Detectors/TPC/reconstruction</text>
<text text-anchor="middle" x="111" y="-181" font-family="Helvetica,sans-Serif" font-size="10.00">/src/BoxClusterer.cxx</text>
</a>
</g>
</g>
<!-- Node21&#45;&gt;Node25 -->
<g id="edge29" class="edge"><title>Node21&#45;&gt;Node25</title>
<path fill="none" stroke="midnightblue" d="M295.187,-268.406C263.707,-257.019 227.709,-243.959 195,-232 189.744,-230.078 184.305,-228.084 178.839,-226.076"/>
<polygon fill="midnightblue" stroke="midnightblue" points="294.209,-271.774 304.803,-271.883 296.589,-265.191 294.209,-271.774"/>
</g>
<!-- Node22&#45;&gt;Node23 -->
<g id="edge25" class="edge"><title>Node22&#45;&gt;Node23</title>
<path fill="none" stroke="midnightblue" d="M202.756,-164.242C178.549,-153.206 152.27,-141.226 129.876,-131.017"/>
<polygon fill="midnightblue" stroke="midnightblue" points="201.369,-167.456 211.92,-168.42 204.273,-161.087 201.369,-167.456"/>
</g>
<!-- Node24 -->
<g id="node24" class="node"><title>Node24</title>
<g id="a_node24"><a xlink:href="../../df/d9b/run__clus__tpc_8C.html" target="_top" xlink:title="/home/travis/build\l/AliceO2Group/AliceO2\l/macro/run_clus_tpc.C">
<polygon fill="none" stroke="black" points="227,-84.5 227,-125.5 345,-125.5 345,-84.5 227,-84.5"/>
<text text-anchor="start" x="235" y="-113.5" font-family="Helvetica,sans-Serif" font-size="10.00">/home/travis/build</text>
<text text-anchor="start" x="235" y="-102.5" font-family="Helvetica,sans-Serif" font-size="10.00">/AliceO2Group/AliceO2</text>
<text text-anchor="middle" x="286" y="-91.5" font-family="Helvetica,sans-Serif" font-size="10.00">/macro/run_clus_tpc.C</text>
</a>
</g>
</g>
<!-- Node22&#45;&gt;Node24 -->
<g id="edge26" class="edge"><title>Node22&#45;&gt;Node24</title>
<path fill="none" stroke="midnightblue" d="M282.078,-158.112C282.929,-146.807 283.813,-135.052 284.527,-125.575"/>
<polygon fill="midnightblue" stroke="midnightblue" points="278.572,-158.056 281.311,-168.291 285.552,-158.582 278.572,-158.056"/>
</g>
<!-- Node24&#45;&gt;Node9 -->
<g id="edge27" class="edge"><title>Node24&#45;&gt;Node9</title>
<path fill="none" stroke="midnightblue" d="M351.945,-81.2109C355.34,-80.1093 358.707,-79.033 362,-78 407.586,-63.7006 459.599,-48.9095 498.583,-38.1218"/>
<polygon fill="midnightblue" stroke="midnightblue" points="350.745,-77.9207 342.337,-84.3672 352.93,-84.571 350.745,-77.9207"/>
</g>
<!-- Node26&#45;&gt;Node16 -->
<g id="edge32" class="edge"><title>Node26&#45;&gt;Node16</title>
<path fill="none" stroke="midnightblue" d="M633.096,-268.772C601.073,-257.321 564.336,-244.123 531,-232 525.741,-230.087 520.3,-228.1 514.832,-226.096"/>
<polygon fill="midnightblue" stroke="midnightblue" points="632.279,-272.197 642.874,-272.267 634.635,-265.605 632.279,-272.197"/>
</g>
<!-- Node26&#45;&gt;Node22 -->
<g id="edge31" class="edge"><title>Node26&#45;&gt;Node22</title>
<path fill="none" stroke="midnightblue" d="M632.716,-287.002C560.23,-275.833 453.783,-257.129 363,-232 360.154,-231.212 357.267,-230.37 354.362,-229.487"/>
<polygon fill="midnightblue" stroke="midnightblue" points="632.3,-290.479 642.714,-288.528 633.357,-283.559 632.3,-290.479"/>
</g>
<!-- Node27 -->
<g id="node27" class="node"><title>Node27</title>
<g id="a_node27"><a xlink:href="../../dc/dc3/testClustererData_8C.html" target="_top" xlink:title="/home/travis/build\l/AliceO2Group/AliceO2\l/Detectors/TPC/reconstruction\l/macro/testClustererData.C">
<polygon fill="none" stroke="black" points="540,-174 540,-226 690,-226 690,-174 540,-174"/>
<text text-anchor="start" x="548" y="-214" font-family="Helvetica,sans-Serif" font-size="10.00">/home/travis/build</text>
<text text-anchor="start" x="548" y="-203" font-family="Helvetica,sans-Serif" font-size="10.00">/AliceO2Group/AliceO2</text>
<text text-anchor="start" x="548" y="-192" font-family="Helvetica,sans-Serif" font-size="10.00">/Detectors/TPC/reconstruction</text>
<text text-anchor="middle" x="615" y="-181" font-family="Helvetica,sans-Serif" font-size="10.00">/macro/testClustererData.C</text>
</a>
</g>
</g>
<!-- Node26&#45;&gt;Node27 -->
<g id="edge33" class="edge"><title>Node26&#45;&gt;Node27</title>
<path fill="none" stroke="midnightblue" d="M678.155,-261.089C665.809,-249.342 652.52,-236.698 641.332,-226.054"/>
<polygon fill="midnightblue" stroke="midnightblue" points="676.035,-263.904 685.693,-268.261 680.861,-258.832 676.035,-263.904"/>
</g>
<!-- Node28 -->
<g id="node28" class="node"><title>Node28</title>
<g id="a_node28"><a xlink:href="../../d4/d6c/HwClusterer_8cxx.html" target="_top" xlink:title="/home/travis/build\l/AliceO2Group/AliceO2\l/Detectors/TPC/reconstruction\l/src/HwClusterer.cxx">
<polygon fill="none" stroke="black" points="708,-174 708,-226 858,-226 858,-174 708,-174"/>
<text text-anchor="start" x="716" y="-214" font-family="Helvetica,sans-Serif" font-size="10.00">/home/travis/build</text>
<text text-anchor="start" x="716" y="-203" font-family="Helvetica,sans-Serif" font-size="10.00">/AliceO2Group/AliceO2</text>
<text text-anchor="start" x="716" y="-192" font-family="Helvetica,sans-Serif" font-size="10.00">/Detectors/TPC/reconstruction</text>
<text text-anchor="middle" x="783" y="-181" font-family="Helvetica,sans-Serif" font-size="10.00">/src/HwClusterer.cxx</text>
</a>
</g>
</g>
<!-- Node26&#45;&gt;Node28 -->
<g id="edge34" class="edge"><title>Node26&#45;&gt;Node28</title>
<path fill="none" stroke="midnightblue" d="M744.03,-259.755C751.567,-248.391 759.589,-236.297 766.383,-226.054"/>
<polygon fill="midnightblue" stroke="midnightblue" points="740.999,-257.993 738.388,-268.261 746.832,-261.862 740.999,-257.993"/>
</g>
<!-- Node26&#45;&gt;Node29 -->
<g id="edge35" class="edge"><title>Node26&#45;&gt;Node29</title>
<path fill="none" stroke="midnightblue" d="M796.481,-264.355C825.044,-251.746 856.758,-237.747 883.094,-226.121"/>
<polygon fill="midnightblue" stroke="midnightblue" points="795.064,-261.155 787.329,-268.395 797.891,-267.559 795.064,-261.155"/>
</g>
</g>
</svg>
