<?xml version="1.0" encoding="UTF-8" standalone="no"?>
<!DOCTYPE svg PUBLIC "-//W3C//DTD SVG 1.1//EN"
 "http://www.w3.org/Graphics/SVG/1.1/DTD/svg11.dtd">
<!-- Generated by graphviz version 2.36.0 (20140111.2315)
 -->
<!-- Title: /home/travis/build/AliceO2Group/AliceO2/DataFormats/Detectors/TPC/include/DataFormatsTPC/TrackTPC.h Pages: 1 -->
<svg width="2772pt" height="480pt"
 viewBox="0.00 0.00 2772.30 480.00" xmlns="http://www.w3.org/2000/svg" xmlns:xlink="http://www.w3.org/1999/xlink">
<g id="graph0" class="graph" transform="scale(1 1) rotate(0) translate(4 476)">
<title>/home/travis/build/AliceO2Group/AliceO2/DataFormats/Detectors/TPC/include/DataFormatsTPC/TrackTPC.h</title>
<!-- Node1 -->
<g id="node1" class="node"><title>Node1</title>
<polygon fill="#bfbfbf" stroke="black" points="1714,-408.5 1714,-471.5 1868,-471.5 1868,-408.5 1714,-408.5"/>
<text text-anchor="start" x="1722" y="-459.5" font-family="Helvetica,sans-Serif" font-size="10.00">/home/travis/build</text>
<text text-anchor="start" x="1722" y="-448.5" font-family="Helvetica,sans-Serif" font-size="10.00">/AliceO2Group/AliceO2</text>
<text text-anchor="start" x="1722" y="-437.5" font-family="Helvetica,sans-Serif" font-size="10.00">/DataFormats/Detectors</text>
<text text-anchor="start" x="1722" y="-426.5" font-family="Helvetica,sans-Serif" font-size="10.00">/TPC/include/DataFormatsTPC</text>
<text text-anchor="middle" x="1791" y="-415.5" font-family="Helvetica,sans-Serif" font-size="10.00">/TrackTPC.h</text>
</g>
<!-- Node2 -->
<g id="node2" class="node"><title>Node2</title>
<g id="a_node2"><a xlink:href="../../d7/d8b/DataFormats_2Reconstruction_2include_2ReconstructionDataFormats_2Track_8h.html" target="_top" xlink:title="ReconstructionDataFormats\l/Track.h">
<polygon fill="none" stroke="black" points="363,-341 363,-371 503,-371 503,-341 363,-341"/>
<text text-anchor="start" x="371" y="-359" font-family="Helvetica,sans-Serif" font-size="10.00">ReconstructionDataFormats</text>
<text text-anchor="middle" x="433" y="-348" font-family="Helvetica,sans-Serif" font-size="10.00">/Track.h</text>
</a>
</g>
</g>
<!-- Node1&#45;&gt;Node2 -->
<g id="edge1" class="edge"><title>Node1&#45;&gt;Node2</title>
<path fill="none" stroke="midnightblue" d="M1713.6,-434.327C1475.5,-419.949 755.396,-376.467 513.351,-361.852"/>
<polygon fill="midnightblue" stroke="midnightblue" points="513.413,-358.349 503.22,-361.24 512.991,-365.337 513.413,-358.349"/>
</g>
<!-- Node36 -->
<g id="node36" class="node"><title>Node36</title>
<g id="a_node36"><a xlink:href="../../de/dcd/ClusterNative_8h.html" target="_top" xlink:title="Class of a TPC cluster in TPC&#45;native coordinates (row, time) ">
<polygon fill="none" stroke="black" points="2296.5,-210.5 2296.5,-229.5 2461.5,-229.5 2461.5,-210.5 2296.5,-210.5"/>
<text text-anchor="middle" x="2379" y="-217.5" font-family="Helvetica,sans-Serif" font-size="10.00">DataFormatsTPC/ClusterNative.h</text>
</a>
</g>
</g>
<!-- Node1&#45;&gt;Node36 -->
<g id="edge49" class="edge"><title>Node1&#45;&gt;Node36</title>
<path fill="none" stroke="midnightblue" d="M1868.17,-410.388C1998.21,-362.177 2255.67,-266.723 2346.42,-233.08"/>
<polygon fill="midnightblue" stroke="midnightblue" points="2347.74,-236.321 2355.9,-229.563 2345.31,-229.757 2347.74,-236.321"/>
</g>
<!-- Node41 -->
<g id="node41" class="node"><title>Node41</title>
<g id="a_node41"><a xlink:href="../../d1/d73/Defs_8h.html" target="_top" xlink:title="Common definitions for 2D coordinates. ">
<polygon fill="none" stroke="black" points="1282,-210.5 1282,-229.5 1408,-229.5 1408,-210.5 1282,-210.5"/>
<text text-anchor="middle" x="1345" y="-217.5" font-family="Helvetica,sans-Serif" font-size="10.00">DataFormatsTPC/Defs.h</text>
</a>
</g>
</g>
<!-- Node1&#45;&gt;Node41 -->
<g id="edge57" class="edge"><title>Node1&#45;&gt;Node41</title>
<path fill="none" stroke="midnightblue" d="M1728.52,-408.458C1629.6,-360.11 1441.06,-267.951 1371.57,-233.988"/>
<polygon fill="midnightblue" stroke="midnightblue" points="1373.1,-230.839 1362.58,-229.592 1370.03,-237.128 1373.1,-230.839"/>
</g>
<!-- Node42 -->
<g id="node42" class="node"><title>Node42</title>
<g id="a_node42"><a xlink:href="../../dc/ddf/DataFormats_2Detectors_2TPC_2include_2DataFormatsTPC_2Cluster_8h.html" target="_top" xlink:title="DataFormatsTPC/Cluster.h">
<polygon fill="none" stroke="black" points="1908.5,-210.5 1908.5,-229.5 2045.5,-229.5 2045.5,-210.5 1908.5,-210.5"/>
<text text-anchor="middle" x="1977" y="-217.5" font-family="Helvetica,sans-Serif" font-size="10.00">DataFormatsTPC/Cluster.h</text>
</a>
</g>
</g>
<!-- Node1&#45;&gt;Node42 -->
<g id="edge61" class="edge"><title>Node1&#45;&gt;Node42</title>
<path fill="none" stroke="midnightblue" d="M1817.25,-408.228C1857.3,-361.289 1932.26,-273.441 1963.15,-237.235"/>
<polygon fill="midnightblue" stroke="midnightblue" points="1965.86,-239.45 1969.69,-229.571 1960.53,-234.907 1965.86,-239.45"/>
</g>
<!-- Node3 -->
<g id="node3" class="node"><title>Node3</title>
<polygon fill="none" stroke="#bfbfbf" points="1976,-74.5 1976,-93.5 2032,-93.5 2032,-74.5 1976,-74.5"/>
<text text-anchor="middle" x="2004" y="-81.5" font-family="Helvetica,sans-Serif" font-size="10.00">Rtypes.h</text>
</g>
<!-- Node2&#45;&gt;Node3 -->
<g id="edge2" class="edge"><title>Node2&#45;&gt;Node3</title>
<path fill="none" stroke="midnightblue" d="M503.13,-352.093C684.517,-343.648 1183.43,-314.532 1591,-236 1699.02,-215.186 1726.06,-206.814 1829,-168 1858.06,-157.044 1936.27,-118.695 1977.59,-98.1813"/>
<polygon fill="midnightblue" stroke="midnightblue" points="1979.38,-101.202 1986.78,-93.6149 1976.26,-94.9341 1979.38,-101.202"/>
</g>
<!-- Node4 -->
<g id="node4" class="node"><title>Node4</title>
<polygon fill="none" stroke="#bfbfbf" points="712,-278.5 712,-297.5 768,-297.5 768,-278.5 712,-278.5"/>
<text text-anchor="middle" x="740" y="-285.5" font-family="Helvetica,sans-Serif" font-size="10.00">algorithm</text>
</g>
<!-- Node2&#45;&gt;Node4 -->
<g id="edge3" class="edge"><title>Node2&#45;&gt;Node4</title>
<path fill="none" stroke="midnightblue" d="M503.266,-345.639C558.294,-337.375 636.409,-323.576 703,-304 705.805,-303.175 708.691,-302.215 711.554,-301.186"/>
<polygon fill="midnightblue" stroke="midnightblue" points="712.983,-304.387 721.053,-297.522 710.464,-297.856 712.983,-304.387"/>
</g>
<!-- Node5 -->
<g id="node5" class="node"><title>Node5</title>
<polygon fill="none" stroke="#bfbfbf" points="597,-6.5 597,-25.5 635,-25.5 635,-6.5 597,-6.5"/>
<text text-anchor="middle" x="616" y="-13.5" font-family="Helvetica,sans-Serif" font-size="10.00">array</text>
</g>
<!-- Node2&#45;&gt;Node5 -->
<g id="edge4" class="edge"><title>Node2&#45;&gt;Node5</title>
<path fill="none" stroke="midnightblue" d="M433.537,-340.845C435.737,-286.001 444.77,-89.4892 462,-68 492.257,-30.2649 551.222,-20.2069 586.763,-17.6739"/>
<polygon fill="midnightblue" stroke="midnightblue" points="587.192,-21.1556 596.982,-17.1071 586.804,-14.1664 587.192,-21.1556"/>
</g>
<!-- Node6 -->
<g id="node6" class="node"><title>Node6</title>
<polygon fill="none" stroke="#bfbfbf" points="-0.5,-278.5 -0.5,-297.5 40.5,-297.5 40.5,-278.5 -0.5,-278.5"/>
<text text-anchor="middle" x="20" y="-285.5" font-family="Helvetica,sans-Serif" font-size="10.00">cfloat</text>
</g>
<!-- Node2&#45;&gt;Node6 -->
<g id="edge5" class="edge"><title>Node2&#45;&gt;Node6</title>
<path fill="none" stroke="midnightblue" d="M362.892,-351.227C286.137,-345.791 159.999,-333.003 55,-304 52.3436,-303.266 49.6242,-302.374 46.9328,-301.394"/>
<polygon fill="midnightblue" stroke="midnightblue" points="48.054,-298.072 37.4702,-297.587 45.4414,-304.566 48.054,-298.072"/>
</g>
<!-- Node7 -->
<g id="node7" class="node"><title>Node7</title>
<polygon fill="none" stroke="#bfbfbf" points="348,-6.5 348,-25.5 392,-25.5 392,-6.5 348,-6.5"/>
<text text-anchor="middle" x="370" y="-13.5" font-family="Helvetica,sans-Serif" font-size="10.00">cmath</text>
</g>
<!-- Node2&#45;&gt;Node7 -->
<g id="edge6" class="edge"><title>Node2&#45;&gt;Node7</title>
<path fill="none" stroke="midnightblue" d="M362.917,-348.655C300.069,-341.519 214.144,-327.709 190,-304 162.999,-277.485 171,-258.843 171,-221 171,-221 171,-221 171,-151 171,-71.4024 281.897,-35.9707 338.12,-23.122"/>
<polygon fill="midnightblue" stroke="midnightblue" points="338.918,-26.5303 347.943,-20.9802 337.427,-19.691 338.918,-26.5303"/>
</g>
<!-- Node8 -->
<g id="node8" class="node"><title>Node8</title>
<polygon fill="none" stroke="#bfbfbf" points="97,-278.5 97,-297.5 143,-297.5 143,-278.5 97,-278.5"/>
<text text-anchor="middle" x="120" y="-285.5" font-family="Helvetica,sans-Serif" font-size="10.00">cstring</text>
</g>
<!-- Node2&#45;&gt;Node8 -->
<g id="edge7" class="edge"><title>Node2&#45;&gt;Node8</title>
<path fill="none" stroke="midnightblue" d="M362.898,-346.05C306.56,-337.904 225.762,-324.066 157,-304 154.193,-303.181 151.306,-302.224 148.442,-301.198"/>
<polygon fill="midnightblue" stroke="midnightblue" points="149.532,-297.867 138.942,-297.537 147.015,-304.399 149.532,-297.867"/>
</g>
<!-- Node9 -->
<g id="node9" class="node"><title>Node9</title>
<polygon fill="none" stroke="#bfbfbf" points="471.5,-74.5 471.5,-93.5 516.5,-93.5 516.5,-74.5 471.5,-74.5"/>
<text text-anchor="middle" x="494" y="-81.5" font-family="Helvetica,sans-Serif" font-size="10.00">iosfwd</text>
</g>
<!-- Node2&#45;&gt;Node9 -->
<g id="edge8" class="edge"><title>Node2&#45;&gt;Node9</title>
<path fill="none" stroke="midnightblue" d="M436.194,-340.864C446.404,-295.671 478.256,-154.689 489.782,-103.668"/>
<polygon fill="midnightblue" stroke="midnightblue" points="493.241,-104.241 492.031,-93.7155 486.413,-102.698 493.241,-104.241"/>
</g>
<!-- Node10 -->
<g id="node10" class="node"><title>Node10</title>
<polygon fill="none" stroke="#bfbfbf" points="199.5,-278.5 199.5,-297.5 282.5,-297.5 282.5,-278.5 199.5,-278.5"/>
<text text-anchor="middle" x="241" y="-285.5" font-family="Helvetica,sans-Serif" font-size="10.00">Math/SMatrix.h</text>
</g>
<!-- Node2&#45;&gt;Node10 -->
<g id="edge9" class="edge"><title>Node2&#45;&gt;Node10</title>
<path fill="none" stroke="midnightblue" d="M391.811,-340.841C357.161,-328.93 308.183,-312.094 275.549,-300.876"/>
<polygon fill="midnightblue" stroke="midnightblue" points="276.575,-297.528 265.98,-297.587 274.299,-304.148 276.575,-297.528"/>
</g>
<!-- Node11 -->
<g id="node11" class="node"><title>Node11</title>
<polygon fill="none" stroke="#bfbfbf" points="300.5,-278.5 300.5,-297.5 385.5,-297.5 385.5,-278.5 300.5,-278.5"/>
<text text-anchor="middle" x="343" y="-285.5" font-family="Helvetica,sans-Serif" font-size="10.00">Math/SVector.h</text>
</g>
<!-- Node2&#45;&gt;Node11 -->
<g id="edge10" class="edge"><title>Node2&#45;&gt;Node11</title>
<path fill="none" stroke="midnightblue" d="M413.471,-340.679C398.518,-329.713 377.97,-314.645 362.921,-303.609"/>
<polygon fill="midnightblue" stroke="midnightblue" points="364.913,-300.729 354.779,-297.638 360.773,-306.374 364.913,-300.729"/>
</g>
<!-- Node12 -->
<g id="node12" class="node"><title>Node12</title>
<g id="a_node12"><a xlink:href="../../d6/d84/MathConstants_8h.html" target="_top" xlink:title="useful math constants ">
<polygon fill="none" stroke="black" points="65.5,-6.5 65.5,-25.5 244.5,-25.5 244.5,-6.5 65.5,-6.5"/>
<text text-anchor="middle" x="155" y="-13.5" font-family="Helvetica,sans-Serif" font-size="10.00">CommonConstants/MathConstants.h</text>
</a>
</g>
</g>
<!-- Node2&#45;&gt;Node12 -->
<g id="edge11" class="edge"><title>Node2&#45;&gt;Node12</title>
<path fill="none" stroke="midnightblue" d="M362.923,-353.716C273.834,-350.593 126.898,-339.967 88,-304 60.2144,-278.308 69,-258.843 69,-221 69,-221 69,-221 69,-151 69,-101.363 111.313,-55.4309 136.579,-32.4282"/>
<polygon fill="midnightblue" stroke="midnightblue" points="138.922,-35.0285 144.108,-25.7898 134.292,-29.7779 138.922,-35.0285"/>
</g>
<!-- Node13 -->
<g id="node13" class="node"><title>Node13</title>
<g id="a_node13"><a xlink:href="../../dd/d76/Cartesian3D_8h.html" target="_top" xlink:title="MathUtils/Cartesian3D.h">
<polygon fill="none" stroke="black" points="1282.5,-142.5 1282.5,-161.5 1407.5,-161.5 1407.5,-142.5 1282.5,-142.5"/>
<text text-anchor="middle" x="1345" y="-149.5" font-family="Helvetica,sans-Serif" font-size="10.00">MathUtils/Cartesian3D.h</text>
</a>
</g>
</g>
<!-- Node2&#45;&gt;Node13 -->
<g id="edge12" class="edge"><title>Node2&#45;&gt;Node13</title>
<path fill="none" stroke="midnightblue" d="M503.037,-346.915C572.642,-338.334 682.252,-323.346 776,-304 978.64,-262.183 1216.62,-192.072 1307.32,-164.569"/>
<polygon fill="midnightblue" stroke="midnightblue" points="1308.59,-167.841 1317.14,-161.583 1306.56,-161.144 1308.59,-167.841"/>
</g>
<!-- Node23 -->
<g id="node23" class="node"><title>Node23</title>
<g id="a_node23"><a xlink:href="../../d9/d52/Common_2MathUtils_2include_2MathUtils_2Utils_8h.html" target="_top" xlink:title="MathUtils/Utils.h">
<polygon fill="none" stroke="black" points="325,-74.5 325,-93.5 415,-93.5 415,-74.5 325,-74.5"/>
<text text-anchor="middle" x="370" y="-81.5" font-family="Helvetica,sans-Serif" font-size="10.00">MathUtils/Utils.h</text>
</a>
</g>
</g>
<!-- Node2&#45;&gt;Node23 -->
<g id="edge24" class="edge"><title>Node2&#45;&gt;Node23</title>
<path fill="none" stroke="midnightblue" d="M429.702,-340.864C419.157,-295.671 386.261,-154.689 374.356,-103.668"/>
<polygon fill="midnightblue" stroke="midnightblue" points="377.714,-102.659 372.034,-93.7155 370.898,-104.249 377.714,-102.659"/>
</g>
<!-- Node24 -->
<g id="node24" class="node"><title>Node24</title>
<g id="a_node24"><a xlink:href="../../d4/de2/BaseCluster_8h.html" target="_top" xlink:title="ReconstructionDataFormats\l/BaseCluster.h">
<polygon fill="none" stroke="black" points="554,-273 554,-303 694,-303 694,-273 554,-273"/>
<text text-anchor="start" x="562" y="-291" font-family="Helvetica,sans-Serif" font-size="10.00">ReconstructionDataFormats</text>
<text text-anchor="middle" x="624" y="-280" font-family="Helvetica,sans-Serif" font-size="10.00">/BaseCluster.h</text>
</a>
</g>
</g>
<!-- Node2&#45;&gt;Node24 -->
<g id="edge28" class="edge"><title>Node2&#45;&gt;Node24</title>
<path fill="none" stroke="midnightblue" d="M473.974,-340.841C503.152,-330.759 542.543,-317.147 573.64,-306.402"/>
<polygon fill="midnightblue" stroke="midnightblue" points="575.113,-309.596 583.422,-303.022 572.827,-302.98 575.113,-309.596"/>
</g>
<!-- Node13&#45;&gt;Node3 -->
<g id="edge18" class="edge"><title>Node13&#45;&gt;Node3</title>
<path fill="none" stroke="midnightblue" d="M1407.67,-148.274C1543.64,-141.968 1861.99,-124.974 1967,-100 1970.07,-99.2698 1973.22,-98.3249 1976.32,-97.2647"/>
<polygon fill="midnightblue" stroke="midnightblue" points="1977.82,-100.439 1985.92,-93.607 1975.33,-93.8981 1977.82,-100.439"/>
</g>
<!-- Node13&#45;&gt;Node9 -->
<g id="edge20" class="edge"><title>Node13&#45;&gt;Node9</title>
<path fill="none" stroke="midnightblue" d="M1282.42,-148.504C1103.42,-141.169 597.479,-119.001 525,-100 522.658,-99.3859 520.281,-98.5908 517.938,-97.6871"/>
<polygon fill="midnightblue" stroke="midnightblue" points="519.243,-94.4363 508.685,-93.5482 516.384,-100.826 519.243,-94.4363"/>
</g>
<!-- Node14 -->
<g id="node14" class="node"><title>Node14</title>
<polygon fill="none" stroke="#bfbfbf" points="1625.5,-69 1625.5,-99 1776.5,-99 1776.5,-69 1625.5,-69"/>
<text text-anchor="start" x="1633.5" y="-87" font-family="Helvetica,sans-Serif" font-size="10.00">Math/GenVector/Displacement</text>
<text text-anchor="middle" x="1701" y="-76" font-family="Helvetica,sans-Serif" font-size="10.00">Vector3D.h</text>
</g>
<!-- Node13&#45;&gt;Node14 -->
<g id="edge13" class="edge"><title>Node13&#45;&gt;Node14</title>
<path fill="none" stroke="midnightblue" d="M1391.18,-142.439C1447.75,-131.951 1544.74,-113.969 1615.16,-100.914"/>
<polygon fill="midnightblue" stroke="midnightblue" points="1616.16,-104.289 1625.35,-99.0247 1614.88,-97.4063 1616.16,-104.289"/>
</g>
<!-- Node15 -->
<g id="node15" class="node"><title>Node15</title>
<polygon fill="none" stroke="#bfbfbf" points="818,-74.5 818,-93.5 994,-93.5 994,-74.5 818,-74.5"/>
<text text-anchor="middle" x="906" y="-81.5" font-family="Helvetica,sans-Serif" font-size="10.00">Math/GenVector/PositionVector3D.h</text>
</g>
<!-- Node13&#45;&gt;Node15 -->
<g id="edge14" class="edge"><title>Node13&#45;&gt;Node15</title>
<path fill="none" stroke="midnightblue" d="M1286.72,-142.468C1218.46,-132.445 1101.99,-115.245 1002,-100 991.701,-98.4297 980.783,-96.744 970.145,-95.09"/>
<polygon fill="midnightblue" stroke="midnightblue" points="970.481,-91.6001 960.061,-93.5187 969.403,-98.5166 970.481,-91.6001"/>
</g>
<!-- Node16 -->
<g id="node16" class="node"><title>Node16</title>
<polygon fill="none" stroke="#bfbfbf" points="1011.5,-74.5 1011.5,-93.5 1160.5,-93.5 1160.5,-74.5 1011.5,-74.5"/>
<text text-anchor="middle" x="1086" y="-81.5" font-family="Helvetica,sans-Serif" font-size="10.00">Math/GenVector/Rotation3D.h</text>
</g>
<!-- Node13&#45;&gt;Node16 -->
<g id="edge15" class="edge"><title>Node13&#45;&gt;Node16</title>
<path fill="none" stroke="midnightblue" d="M1311.41,-142.439C1264.83,-130.57 1180.58,-109.103 1129.33,-96.0406"/>
<polygon fill="midnightblue" stroke="midnightblue" points="1130.09,-92.6233 1119.53,-93.5455 1128.36,-99.4066 1130.09,-92.6233"/>
</g>
<!-- Node17 -->
<g id="node17" class="node"><title>Node17</title>
<polygon fill="none" stroke="#bfbfbf" points="1179,-74.5 1179,-93.5 1335,-93.5 1335,-74.5 1179,-74.5"/>
<text text-anchor="middle" x="1257" y="-81.5" font-family="Helvetica,sans-Serif" font-size="10.00">Math/GenVector/Transform3D.h</text>
</g>
<!-- Node13&#45;&gt;Node17 -->
<g id="edge16" class="edge"><title>Node13&#45;&gt;Node17</title>
<path fill="none" stroke="midnightblue" d="M1333.5,-142.372C1319.13,-131.6 1294.34,-113.002 1276.88,-99.9065"/>
<polygon fill="midnightblue" stroke="midnightblue" points="1278.61,-96.8305 1268.51,-93.6305 1274.41,-102.431 1278.61,-96.8305"/>
</g>
<!-- Node18 -->
<g id="node18" class="node"><title>Node18</title>
<polygon fill="none" stroke="#bfbfbf" points="1353,-74.5 1353,-93.5 1513,-93.5 1513,-74.5 1353,-74.5"/>
<text text-anchor="middle" x="1433" y="-81.5" font-family="Helvetica,sans-Serif" font-size="10.00">Math/GenVector/Translation3D.h</text>
</g>
<!-- Node13&#45;&gt;Node18 -->
<g id="edge17" class="edge"><title>Node13&#45;&gt;Node18</title>
<path fill="none" stroke="midnightblue" d="M1356.5,-142.372C1370.87,-131.6 1395.66,-113.002 1413.12,-99.9065"/>
<polygon fill="midnightblue" stroke="midnightblue" points="1415.59,-102.431 1421.49,-93.6305 1411.39,-96.8305 1415.59,-102.431"/>
</g>
<!-- Node19 -->
<g id="node19" class="node"><title>Node19</title>
<polygon fill="none" stroke="#bfbfbf" points="1531,-74.5 1531,-93.5 1607,-93.5 1607,-74.5 1531,-74.5"/>
<text text-anchor="middle" x="1569" y="-81.5" font-family="Helvetica,sans-Serif" font-size="10.00">TGeoMatrix.h</text>
</g>
<!-- Node13&#45;&gt;Node19 -->
<g id="edge19" class="edge"><title>Node13&#45;&gt;Node19</title>
<path fill="none" stroke="midnightblue" d="M1375.77,-142.419C1411.14,-132.49 1470.9,-115.514 1522,-100 1525.57,-98.9161 1529.29,-97.7668 1533,-96.6057"/>
<polygon fill="midnightblue" stroke="midnightblue" points="1534.21,-99.8922 1542.69,-93.5413 1532.1,-93.2175 1534.21,-99.8922"/>
</g>
<!-- Node20 -->
<g id="node20" class="node"><title>Node20</title>
<g id="a_node20"><a xlink:href="../../d2/dd0/Cartesian2D_8h.html" target="_top" xlink:title="MathUtils/Cartesian2D.h">
<polygon fill="none" stroke="black" points="1833.5,-74.5 1833.5,-93.5 1958.5,-93.5 1958.5,-74.5 1833.5,-74.5"/>
<text text-anchor="middle" x="1896" y="-81.5" font-family="Helvetica,sans-Serif" font-size="10.00">MathUtils/Cartesian2D.h</text>
</a>
</g>
</g>
<!-- Node13&#45;&gt;Node20 -->
<g id="edge21" class="edge"><title>Node13&#45;&gt;Node20</title>
<path fill="none" stroke="midnightblue" d="M1407.71,-144.109C1493.1,-134.64 1650.71,-116.855 1785,-100 1797.76,-98.3983 1811.34,-96.623 1824.46,-94.8706"/>
<polygon fill="midnightblue" stroke="midnightblue" points="1824.93,-98.3382 1834.38,-93.5384 1824,-91.4004 1824.93,-98.3382"/>
</g>
<!-- Node21 -->
<g id="node21" class="node"><title>Node21</title>
<polygon fill="none" stroke="#bfbfbf" points="1911.5,-1 1911.5,-31 2062.5,-31 2062.5,-1 1911.5,-1"/>
<text text-anchor="start" x="1919.5" y="-19" font-family="Helvetica,sans-Serif" font-size="10.00">Math/GenVector/Displacement</text>
<text text-anchor="middle" x="1987" y="-8" font-family="Helvetica,sans-Serif" font-size="10.00">Vector2D.h</text>
</g>
<!-- Node20&#45;&gt;Node21 -->
<g id="edge22" class="edge"><title>Node20&#45;&gt;Node21</title>
<path fill="none" stroke="midnightblue" d="M1907.9,-74.3717C1920.78,-65.0286 1941.78,-49.7966 1958.91,-37.375"/>
<polygon fill="midnightblue" stroke="midnightblue" points="1961.41,-39.8859 1967.45,-31.1815 1957.3,-34.2194 1961.41,-39.8859"/>
</g>
<!-- Node22 -->
<g id="node22" class="node"><title>Node22</title>
<polygon fill="none" stroke="#bfbfbf" points="1717,-6.5 1717,-25.5 1893,-25.5 1893,-6.5 1717,-6.5"/>
<text text-anchor="middle" x="1805" y="-13.5" font-family="Helvetica,sans-Serif" font-size="10.00">Math/GenVector/PositionVector2D.h</text>
</g>
<!-- Node20&#45;&gt;Node22 -->
<g id="edge23" class="edge"><title>Node20&#45;&gt;Node22</title>
<path fill="none" stroke="midnightblue" d="M1884.1,-74.3717C1869.12,-63.5015 1843.14,-44.6602 1825.06,-31.5474"/>
<polygon fill="midnightblue" stroke="midnightblue" points="1827.05,-28.6684 1816.9,-25.6305 1822.94,-34.3349 1827.05,-28.6684"/>
</g>
<!-- Node23&#45;&gt;Node5 -->
<g id="edge25" class="edge"><title>Node23&#45;&gt;Node5</title>
<path fill="none" stroke="midnightblue" d="M401.908,-74.4393C450.132,-61.5012 540.857,-37.1603 587.186,-24.7307"/>
<polygon fill="midnightblue" stroke="midnightblue" points="588.146,-28.0968 596.898,-22.125 586.332,-21.3359 588.146,-28.0968"/>
</g>
<!-- Node23&#45;&gt;Node7 -->
<g id="edge26" class="edge"><title>Node23&#45;&gt;Node7</title>
<path fill="none" stroke="midnightblue" d="M370,-74.3717C370,-64.6426 370,-48.528 370,-35.8504"/>
<polygon fill="midnightblue" stroke="midnightblue" points="373.5,-35.8411 370,-25.8411 366.5,-35.8412 373.5,-35.8411"/>
</g>
<!-- Node23&#45;&gt;Node12 -->
<g id="edge27" class="edge"><title>Node23&#45;&gt;Node12</title>
<path fill="none" stroke="midnightblue" d="M341.893,-74.3717C303.641,-62.6292 235.087,-41.5849 192.489,-28.5083"/>
<polygon fill="midnightblue" stroke="midnightblue" points="193.361,-25.1147 182.774,-25.5259 191.306,-31.8065 193.361,-25.1147"/>
</g>
<!-- Node24&#45;&gt;Node9 -->
<g id="edge33" class="edge"><title>Node24&#45;&gt;Node9</title>
<path fill="none" stroke="midnightblue" d="M606.182,-272.947C594.846,-263.381 580.398,-249.962 570,-236 537.526,-192.396 512.254,-132.828 500.765,-103.233"/>
<polygon fill="midnightblue" stroke="midnightblue" points="503.993,-101.875 497.168,-93.7714 497.45,-104.362 503.993,-101.875"/>
</g>
<!-- Node24&#45;&gt;Node13 -->
<g id="edge48" class="edge"><title>Node24&#45;&gt;Node13</title>
<path fill="none" stroke="midnightblue" d="M694.209,-273.654C697.179,-273.095 700.119,-272.541 703,-272 919.342,-231.364 1176.87,-183.905 1288.63,-163.356"/>
<polygon fill="midnightblue" stroke="midnightblue" points="1289.46,-166.761 1298.66,-161.511 1288.19,-159.877 1289.46,-166.761"/>
</g>
<!-- Node25 -->
<g id="node25" class="node"><title>Node25</title>
<polygon fill="none" stroke="#bfbfbf" points="594.5,-210.5 594.5,-229.5 653.5,-229.5 653.5,-210.5 594.5,-210.5"/>
<text text-anchor="middle" x="624" y="-217.5" font-family="Helvetica,sans-Serif" font-size="10.00">TObject.h</text>
</g>
<!-- Node24&#45;&gt;Node25 -->
<g id="edge29" class="edge"><title>Node24&#45;&gt;Node25</title>
<path fill="none" stroke="midnightblue" d="M624,-272.679C624,-263.101 624,-250.394 624,-239.977"/>
<polygon fill="midnightblue" stroke="midnightblue" points="627.5,-239.828 624,-229.828 620.5,-239.828 627.5,-239.828"/>
</g>
<!-- Node26 -->
<g id="node26" class="node"><title>Node26</title>
<polygon fill="none" stroke="#bfbfbf" points="534.5,-74.5 534.5,-93.5 575.5,-93.5 575.5,-74.5 534.5,-74.5"/>
<text text-anchor="middle" x="555" y="-81.5" font-family="Helvetica,sans-Serif" font-size="10.00">bitset</text>
</g>
<!-- Node24&#45;&gt;Node26 -->
<g id="edge30" class="edge"><title>Node24&#45;&gt;Node26</title>
<path fill="none" stroke="midnightblue" d="M610.441,-272.993C601.86,-263.344 591.243,-249.814 585,-236 564.787,-191.277 558.136,-133.023 555.991,-103.659"/>
<polygon fill="midnightblue" stroke="midnightblue" points="559.479,-103.351 555.354,-93.592 552.493,-103.793 559.479,-103.351"/>
</g>
<!-- Node27 -->
<g id="node27" class="node"><title>Node27</title>
<polygon fill="none" stroke="#bfbfbf" points="672,-210.5 672,-229.5 722,-229.5 722,-210.5 672,-210.5"/>
<text text-anchor="middle" x="697" y="-217.5" font-family="Helvetica,sans-Serif" font-size="10.00">iomanip</text>
</g>
<!-- Node24&#45;&gt;Node27 -->
<g id="edge31" class="edge"><title>Node24&#45;&gt;Node27</title>
<path fill="none" stroke="midnightblue" d="M639.84,-272.679C651.56,-262.082 667.518,-247.655 679.595,-236.736"/>
<polygon fill="midnightblue" stroke="midnightblue" points="682.165,-239.131 687.235,-229.828 677.47,-233.939 682.165,-239.131"/>
</g>
<!-- Node28 -->
<g id="node28" class="node"><title>Node28</title>
<polygon fill="none" stroke="#bfbfbf" points="740.5,-210.5 740.5,-229.5 769.5,-229.5 769.5,-210.5 740.5,-210.5"/>
<text text-anchor="middle" x="755" y="-217.5" font-family="Helvetica,sans-Serif" font-size="10.00">ios</text>
</g>
<!-- Node24&#45;&gt;Node28 -->
<g id="edge32" class="edge"><title>Node24&#45;&gt;Node28</title>
<path fill="none" stroke="midnightblue" d="M655.843,-272.974C677.376,-263.211 706.281,-249.558 731,-236 731.679,-235.628 732.364,-235.245 733.054,-234.853"/>
<polygon fill="midnightblue" stroke="midnightblue" points="735.172,-237.665 741.957,-229.527 731.579,-231.658 735.172,-237.665"/>
</g>
<!-- Node29 -->
<g id="node29" class="node"><title>Node29</title>
<g id="a_node29"><a xlink:href="../../d4/d20/DetMatrixCache_8h.html" target="_top" xlink:title="DetectorsCommonDataFormats\l/DetMatrixCache.h">
<polygon fill="none" stroke="black" points="1426,-205 1426,-235 1582,-235 1582,-205 1426,-205"/>
<text text-anchor="start" x="1434" y="-223" font-family="Helvetica,sans-Serif" font-size="10.00">DetectorsCommonDataFormats</text>
<text text-anchor="middle" x="1504" y="-212" font-family="Helvetica,sans-Serif" font-size="10.00">/DetMatrixCache.h</text>
</a>
</g>
</g>
<!-- Node24&#45;&gt;Node29 -->
<g id="edge34" class="edge"><title>Node24&#45;&gt;Node29</title>
<path fill="none" stroke="midnightblue" d="M694.134,-273.166C697.124,-272.74 700.089,-272.348 703,-272 1015.1,-234.681 1099.4,-270.275 1415.43,-236.077"/>
<polygon fill="midnightblue" stroke="midnightblue" points="1416.25,-239.508 1425.81,-234.938 1415.49,-232.55 1416.25,-239.508"/>
</g>
<!-- Node29&#45;&gt;Node3 -->
<g id="edge47" class="edge"><title>Node29&#45;&gt;Node3</title>
<path fill="none" stroke="midnightblue" d="M1582.21,-213.822C1641.31,-207.859 1723.49,-195.114 1791,-168 1814.79,-158.444 1815.71,-146.714 1839,-136 1892.69,-111.306 1911.09,-119.131 1967,-100 1969.56,-99.1256 1972.19,-98.1698 1974.82,-97.1777"/>
<polygon fill="midnightblue" stroke="midnightblue" points="1976.15,-100.416 1984.18,-93.506 1973.6,-93.8992 1976.15,-100.416"/>
</g>
<!-- Node29&#45;&gt;Node5 -->
<g id="edge36" class="edge"><title>Node29&#45;&gt;Node5</title>
<path fill="none" stroke="midnightblue" d="M1582.26,-205.93C1687.47,-185.282 1853.84,-139.91 1785,-68 1744.37,-25.554 822.023,-18.1729 645.172,-17.1464"/>
<polygon fill="midnightblue" stroke="midnightblue" points="645.078,-13.6459 635.059,-17.09 645.039,-20.6458 645.078,-13.6459"/>
</g>
<!-- Node29&#45;&gt;Node13 -->
<g id="edge46" class="edge"><title>Node29&#45;&gt;Node13</title>
<path fill="none" stroke="midnightblue" d="M1469.89,-204.841C1441.77,-193.169 1402.26,-176.768 1375.25,-165.558"/>
<polygon fill="midnightblue" stroke="midnightblue" points="1376.49,-162.283 1365.92,-161.682 1373.81,-168.748 1376.49,-162.283"/>
</g>
<!-- Node30 -->
<g id="node30" class="node"><title>Node30</title>
<polygon fill="none" stroke="#bfbfbf" points="632.5,-142.5 632.5,-161.5 703.5,-161.5 703.5,-142.5 632.5,-142.5"/>
<text text-anchor="middle" x="668" y="-149.5" font-family="Helvetica,sans-Serif" font-size="10.00">FairLogger.h</text>
</g>
<!-- Node29&#45;&gt;Node30 -->
<g id="edge35" class="edge"><title>Node29&#45;&gt;Node30</title>
<path fill="none" stroke="midnightblue" d="M1425.81,-205.064C1422.84,-204.679 1419.89,-204.322 1417,-204 1105.63,-169.322 1020.87,-226.068 713,-168 708.509,-167.153 703.85,-165.968 699.307,-164.632"/>
<polygon fill="midnightblue" stroke="midnightblue" points="700.249,-161.258 689.658,-161.537 698.111,-167.924 700.249,-161.258"/>
</g>
<!-- Node31 -->
<g id="node31" class="node"><title>Node31</title>
<polygon fill="none" stroke="#bfbfbf" points="2107,-142.5 2107,-161.5 2151,-161.5 2151,-142.5 2107,-142.5"/>
<text text-anchor="middle" x="2129" y="-149.5" font-family="Helvetica,sans-Serif" font-size="10.00">vector</text>
</g>
<!-- Node29&#45;&gt;Node31 -->
<g id="edge37" class="edge"><title>Node29&#45;&gt;Node31</title>
<path fill="none" stroke="midnightblue" d="M1582.09,-215.822C1720.43,-209.608 2002.94,-194.121 2098,-168 2100.2,-167.395 2102.44,-166.637 2104.64,-165.784"/>
<polygon fill="midnightblue" stroke="midnightblue" points="2106.27,-168.893 2113.98,-161.629 2103.42,-162.498 2106.27,-168.893"/>
</g>
<!-- Node32 -->
<g id="node32" class="node"><title>Node32</title>
<g id="a_node32"><a xlink:href="../../d6/d31/DetID_8h.html" target="_top" xlink:title="DetectorsCommonDataFormats\l/DetID.h">
<polygon fill="none" stroke="black" points="722,-137 722,-167 878,-167 878,-137 722,-137"/>
<text text-anchor="start" x="730" y="-155" font-family="Helvetica,sans-Serif" font-size="10.00">DetectorsCommonDataFormats</text>
<text text-anchor="middle" x="800" y="-144" font-family="Helvetica,sans-Serif" font-size="10.00">/DetID.h</text>
</a>
</g>
</g>
<!-- Node29&#45;&gt;Node32 -->
<g id="edge38" class="edge"><title>Node29&#45;&gt;Node32</title>
<path fill="none" stroke="midnightblue" d="M1425.79,-205.181C1422.83,-204.763 1419.89,-204.368 1417,-204 1229.48,-180.131 1008.4,-164.988 888.383,-157.846"/>
<polygon fill="midnightblue" stroke="midnightblue" points="888.339,-154.338 878.15,-157.242 887.926,-161.325 888.339,-154.338"/>
</g>
<!-- Node32&#45;&gt;Node3 -->
<g id="edge39" class="edge"><title>Node32&#45;&gt;Node3</title>
<path fill="none" stroke="midnightblue" d="M878.315,-148.311C1131.38,-139.524 1913.9,-111.563 1967,-100 1970.25,-99.2921 1973.58,-98.3223 1976.85,-97.2137"/>
<polygon fill="midnightblue" stroke="midnightblue" points="1978.23,-100.433 1986.33,-93.5947 1975.74,-93.8938 1978.23,-100.433"/>
</g>
<!-- Node32&#45;&gt;Node5 -->
<g id="edge40" class="edge"><title>Node32&#45;&gt;Node5</title>
<path fill="none" stroke="midnightblue" d="M798.661,-136.947C796.178,-118.621 789.215,-86.7021 770,-68 735.854,-34.7644 679.577,-23.1834 645.336,-19.1509"/>
<polygon fill="midnightblue" stroke="midnightblue" points="645.356,-15.6344 635.049,-18.089 644.637,-22.5974 645.356,-15.6344"/>
</g>
<!-- Node32&#45;&gt;Node23 -->
<g id="edge45" class="edge"><title>Node32&#45;&gt;Node23</title>
<path fill="none" stroke="midnightblue" d="M721.807,-137.564C718.495,-137.029 715.215,-136.505 712,-136 601.105,-118.567 572.957,-117.033 462,-100 450.128,-98.1776 437.407,-96.1511 425.327,-94.192"/>
<polygon fill="midnightblue" stroke="midnightblue" points="425.797,-90.7224 415.364,-92.5682 424.671,-97.6312 425.797,-90.7224"/>
</g>
<!-- Node32&#45;&gt;Node26 -->
<g id="edge41" class="edge"><title>Node32&#45;&gt;Node26</title>
<path fill="none" stroke="midnightblue" d="M747.742,-136.922C698.357,-123.618 625.967,-104.118 585.415,-93.1933"/>
<polygon fill="midnightblue" stroke="midnightblue" points="586.151,-89.7669 575.584,-90.5452 584.33,-96.526 586.151,-89.7669"/>
</g>
<!-- Node33 -->
<g id="node33" class="node"><title>Node33</title>
<polygon fill="none" stroke="#bfbfbf" points="712.5,-74.5 712.5,-93.5 761.5,-93.5 761.5,-74.5 712.5,-74.5"/>
<text text-anchor="middle" x="737" y="-81.5" font-family="Helvetica,sans-Serif" font-size="10.00">cassert</text>
</g>
<!-- Node32&#45;&gt;Node33 -->
<g id="edge42" class="edge"><title>Node32&#45;&gt;Node33</title>
<path fill="none" stroke="midnightblue" d="M786.33,-136.679C776.41,-126.286 762.971,-112.208 752.626,-101.37"/>
<polygon fill="midnightblue" stroke="midnightblue" points="754.864,-98.6452 745.427,-93.8283 749.8,-103.479 754.864,-98.6452"/>
</g>
<!-- Node34 -->
<g id="node34" class="node"><title>Node34</title>
<polygon fill="none" stroke="#bfbfbf" points="2649,-74.5 2649,-93.5 2695,-93.5 2695,-74.5 2649,-74.5"/>
<text text-anchor="middle" x="2672" y="-81.5" font-family="Helvetica,sans-Serif" font-size="10.00">cstdint</text>
</g>
<!-- Node32&#45;&gt;Node34 -->
<g id="edge43" class="edge"><title>Node32&#45;&gt;Node34</title>
<path fill="none" stroke="midnightblue" d="M878.054,-148.248C1200.43,-136.882 2421.47,-93.8328 2638.81,-86.1702"/>
<polygon fill="midnightblue" stroke="midnightblue" points="2639.08,-89.663 2648.95,-85.8127 2638.83,-82.6673 2639.08,-89.663"/>
</g>
<!-- Node35 -->
<g id="node35" class="node"><title>Node35</title>
<polygon fill="none" stroke="#bfbfbf" points="632,-74.5 632,-93.5 694,-93.5 694,-74.5 632,-74.5"/>
<text text-anchor="middle" x="663" y="-81.5" font-family="Helvetica,sans-Serif" font-size="10.00">type_traits</text>
</g>
<!-- Node32&#45;&gt;Node35 -->
<g id="edge44" class="edge"><title>Node32&#45;&gt;Node35</title>
<path fill="none" stroke="midnightblue" d="M770.61,-136.841C746.807,-125.374 713.528,-109.342 690.303,-98.1532"/>
<polygon fill="midnightblue" stroke="midnightblue" points="691.55,-94.8689 681.021,-93.6819 688.511,-101.175 691.55,-94.8689"/>
</g>
<!-- Node36&#45;&gt;Node31 -->
<g id="edge51" class="edge"><title>Node36&#45;&gt;Node31</title>
<path fill="none" stroke="midnightblue" d="M2329.25,-210.428C2284.51,-202.002 2217.37,-187.564 2161,-168 2159.09,-167.336 2157.14,-166.594 2155.19,-165.805"/>
<polygon fill="midnightblue" stroke="midnightblue" points="2156.23,-162.439 2145.67,-161.614 2153.41,-168.846 2156.23,-162.439"/>
</g>
<!-- Node36&#45;&gt;Node34 -->
<g id="edge50" class="edge"><title>Node36&#45;&gt;Node34</title>
<path fill="none" stroke="midnightblue" d="M2461.72,-213.581C2567.33,-205.804 2738.8,-189.959 2758,-168 2767.36,-157.294 2765.04,-148.358 2758,-136 2746.61,-116 2723.94,-103.036 2704.74,-95.1848"/>
<polygon fill="midnightblue" stroke="midnightblue" points="2705.97,-91.9067 2695.38,-91.6341 2703.49,-98.452 2705.97,-91.9067"/>
</g>
<!-- Node37 -->
<g id="node37" class="node"><title>Node37</title>
<polygon fill="none" stroke="#bfbfbf" points="2282.5,-142.5 2282.5,-161.5 2331.5,-161.5 2331.5,-142.5 2282.5,-142.5"/>
<text text-anchor="middle" x="2307" y="-149.5" font-family="Helvetica,sans-Serif" font-size="10.00">cstddef</text>
</g>
<!-- Node36&#45;&gt;Node37 -->
<g id="edge52" class="edge"><title>Node36&#45;&gt;Node37</title>
<path fill="none" stroke="midnightblue" d="M2369.59,-210.372C2358.12,-199.856 2338.51,-181.882 2324.29,-168.85"/>
<polygon fill="midnightblue" stroke="midnightblue" points="2326.38,-166.018 2316.64,-161.841 2321.65,-171.178 2326.38,-166.018"/>
</g>
<!-- Node38 -->
<g id="node38" class="node"><title>Node38</title>
<polygon fill="none" stroke="#bfbfbf" points="2349.5,-142.5 2349.5,-161.5 2408.5,-161.5 2408.5,-142.5 2349.5,-142.5"/>
<text text-anchor="middle" x="2379" y="-149.5" font-family="Helvetica,sans-Serif" font-size="10.00">stdexcept</text>
</g>
<!-- Node36&#45;&gt;Node38 -->
<g id="edge53" class="edge"><title>Node36&#45;&gt;Node38</title>
<path fill="none" stroke="midnightblue" d="M2379,-210.372C2379,-200.643 2379,-184.528 2379,-171.85"/>
<polygon fill="midnightblue" stroke="midnightblue" points="2382.5,-171.841 2379,-161.841 2375.5,-171.841 2382.5,-171.841"/>
</g>
<!-- Node39 -->
<g id="node39" class="node"><title>Node39</title>
<g id="a_node39"><a xlink:href="../../d0/dda/DataFormats_2Detectors_2TPC_2include_2DataFormatsTPC_2Constants_8h.html" target="_top" xlink:title="DataFormatsTPC/Constants.h">
<polygon fill="none" stroke="black" points="2426,-142.5 2426,-161.5 2576,-161.5 2576,-142.5 2426,-142.5"/>
<text text-anchor="middle" x="2501" y="-149.5" font-family="Helvetica,sans-Serif" font-size="10.00">DataFormatsTPC/Constants.h</text>
</a>
</g>
</g>
<!-- Node36&#45;&gt;Node39 -->
<g id="edge54" class="edge"><title>Node36&#45;&gt;Node39</title>
<path fill="none" stroke="midnightblue" d="M2394.95,-210.372C2415.59,-199.205 2451.78,-179.627 2476.07,-166.488"/>
<polygon fill="midnightblue" stroke="midnightblue" points="2477.92,-169.467 2485.05,-161.63 2474.59,-163.31 2477.92,-169.467"/>
</g>
<!-- Node40 -->
<g id="node40" class="node"><title>Node40</title>
<g id="a_node40"><a xlink:href="../../d8/dc8/ClusterGroupAttribute_8h.html" target="_top" xlink:title="Meta data for a group describing it by sector number and global padrow. ">
<polygon fill="none" stroke="black" points="2594.5,-137 2594.5,-167 2749.5,-167 2749.5,-137 2594.5,-137"/>
<text text-anchor="start" x="2602.5" y="-155" font-family="Helvetica,sans-Serif" font-size="10.00">DataFormatsTPC/ClusterGroup</text>
<text text-anchor="middle" x="2672" y="-144" font-family="Helvetica,sans-Serif" font-size="10.00">Attribute.h</text>
</a>
</g>
</g>
<!-- Node36&#45;&gt;Node40 -->
<g id="edge55" class="edge"><title>Node36&#45;&gt;Node40</title>
<path fill="none" stroke="midnightblue" d="M2417,-210.439C2463.18,-200.037 2542.09,-182.263 2599.92,-169.236"/>
<polygon fill="midnightblue" stroke="midnightblue" points="2600.75,-172.637 2609.74,-167.025 2599.21,-165.808 2600.75,-172.637"/>
</g>
<!-- Node40&#45;&gt;Node34 -->
<g id="edge56" class="edge"><title>Node40&#45;&gt;Node34</title>
<path fill="none" stroke="midnightblue" d="M2672,-136.679C2672,-127.101 2672,-114.394 2672,-103.977"/>
<polygon fill="midnightblue" stroke="midnightblue" points="2675.5,-103.828 2672,-93.8283 2668.5,-103.828 2675.5,-103.828"/>
</g>
<!-- Node41&#45;&gt;Node7 -->
<g id="edge58" class="edge"><title>Node41&#45;&gt;Node7</title>
<path fill="none" stroke="midnightblue" d="M1281.83,-218.352C1115.64,-216.118 675.395,-206.583 623,-168 584.587,-139.713 619.976,-99.3282 584,-68 557.053,-44.5347 455.176,-28.1261 402.297,-20.9942"/>
<polygon fill="midnightblue" stroke="midnightblue" points="402.477,-17.4878 392.106,-19.653 401.564,-24.428 402.477,-17.4878"/>
</g>
<!-- Node41&#45;&gt;Node13 -->
<g id="edge60" class="edge"><title>Node41&#45;&gt;Node13</title>
<path fill="none" stroke="midnightblue" d="M1345,-210.372C1345,-200.643 1345,-184.528 1345,-171.85"/>
<polygon fill="midnightblue" stroke="midnightblue" points="1348.5,-171.841 1345,-161.841 1341.5,-171.841 1348.5,-171.841"/>
</g>
<!-- Node41&#45;&gt;Node20 -->
<g id="edge59" class="edge"><title>Node41&#45;&gt;Node20</title>
<path fill="none" stroke="midnightblue" d="M1380.31,-210.414C1476.72,-186.967 1744.38,-121.873 1851.17,-95.903"/>
<polygon fill="midnightblue" stroke="midnightblue" points="1852.1,-99.2787 1860.99,-93.5146 1850.44,-92.4769 1852.1,-99.2787"/>
</g>
<!-- Node42&#45;&gt;Node3 -->
<g id="edge62" class="edge"><title>Node42&#45;&gt;Node3</title>
<path fill="none" stroke="midnightblue" d="M1957.7,-210.445C1941.64,-202.156 1919.87,-187.909 1910,-168 1903.68,-155.257 1902.73,-148.222 1910,-136 1917.17,-123.957 1948.57,-108.383 1973.13,-97.6299"/>
<polygon fill="midnightblue" stroke="midnightblue" points="1974.67,-100.78 1982.48,-93.6221 1971.91,-94.3462 1974.67,-100.78"/>
</g>
<!-- Node43 -->
<g id="node43" class="node"><title>Node43</title>
<g id="a_node43"><a xlink:href="../../df/d5d/common_2include_2CommonDataFormat_2TimeStamp_8h.html" target="_top" xlink:title="CommonDataFormat/TimeStamp.h">
<polygon fill="none" stroke="black" points="1919,-142.5 1919,-161.5 2089,-161.5 2089,-142.5 1919,-142.5"/>
<text text-anchor="middle" x="2004" y="-149.5" font-family="Helvetica,sans-Serif" font-size="10.00">CommonDataFormat/TimeStamp.h</text>
</a>
</g>
</g>
<!-- Node42&#45;&gt;Node43 -->
<g id="edge63" class="edge"><title>Node42&#45;&gt;Node43</title>
<path fill="none" stroke="midnightblue" d="M1980.53,-210.372C1984.55,-200.544 1991.24,-184.202 1996.45,-171.467"/>
<polygon fill="midnightblue" stroke="midnightblue" points="1999.84,-172.422 2000.38,-161.841 1993.36,-169.771 1999.84,-172.422"/>
</g>
<!-- Node44 -->
<g id="node44" class="node"><title>Node44</title>
<polygon fill="none" stroke="#bfbfbf" points="2169.5,-137 2169.5,-167 2264.5,-167 2264.5,-137 2169.5,-137"/>
<text text-anchor="start" x="2177.5" y="-155" font-family="Helvetica,sans-Serif" font-size="10.00">boost/serialization</text>
<text text-anchor="middle" x="2217" y="-144" font-family="Helvetica,sans-Serif" font-size="10.00">/base_object.hpp</text>
</g>
<!-- Node42&#45;&gt;Node44 -->
<g id="edge65" class="edge"><title>Node42&#45;&gt;Node44</title>
<path fill="none" stroke="midnightblue" d="M2008.38,-210.372C2046.69,-199.835 2112.24,-181.809 2159.65,-168.77"/>
<polygon fill="midnightblue" stroke="midnightblue" points="2160.77,-172.094 2169.48,-166.068 2158.91,-165.345 2160.77,-172.094"/>
</g>
<!-- Node43&#45;&gt;Node3 -->
<g id="edge64" class="edge"><title>Node43&#45;&gt;Node3</title>
<path fill="none" stroke="midnightblue" d="M2004,-142.372C2004,-132.643 2004,-116.528 2004,-103.85"/>
<polygon fill="midnightblue" stroke="midnightblue" points="2007.5,-103.841 2004,-93.8411 2000.5,-103.841 2007.5,-103.841"/>
</g>
</g>
</svg>
