<?xml version="1.0" encoding="UTF-8" standalone="no"?>
<!DOCTYPE svg PUBLIC "-//W3C//DTD SVG 1.1//EN"
 "http://www.w3.org/Graphics/SVG/1.1/DTD/svg11.dtd">
<!-- Generated by graphviz version 2.36.0 (20140111.2315)
 -->
<!-- Title: o2::framework::OutputSpec Pages: 1 -->
<!--zoomable 334 -->
<svg id="main" version="1.1" xmlns="http://www.w3.org/2000/svg" xmlns:xlink="http://www.w3.org/1999/xlink" xml:space="preserve" onload="init(evt)">
<style type="text/css"><![CDATA[
.edge:hover path { stroke: red; }
.edge:hover polygon { stroke: red; fill: red; }
]]></style>
<script type="text/javascript"><![CDATA[
var edges = document.getElementsByTagName('g');
if (edges && edges.length) {
  for (var i=0;i<edges.length;i++) {
    if (edges[i].id.substr(0,4)=='edge') {
      edges[i].setAttribute('class','edge');
    }
  }
}
]]></script>
        <defs>
                <circle id="rim" cx="0" cy="0" r="7"/>
                <circle id="rim2" cx="0" cy="0" r="3.5"/>
                <g id="zoomPlus">
                        <use xlink:href="#rim" fill="#404040">
                                <set attributeName="fill" to="#808080" begin="zoomplus.mouseover" end="zoomplus.mouseout"/>
                        </use>
                        <path d="M-4,0h8M0,-4v8" fill="none" stroke="white" stroke-width="1.5" pointer-events="none"/>
                </g>
                <g id="zoomMin">
                        <use xlink:href="#rim" fill="#404040">
                                <set attributeName="fill" to="#808080" begin="zoomminus.mouseover" end="zoomminus.mouseout"/>
                        </use>
                        <path d="M-4,0h8" fill="none" stroke="white" stroke-width="1.5" pointer-events="none"/>
                </g>
                <g id="dirArrow">
                        <path fill="none" stroke="white" stroke-width="1.5" d="M0,-3.0v7 M-2.5,-0.5L0,-3.0L2.5,-0.5"/>
                </g>
               <g id="resetDef">
                       <use xlink:href="#rim2" fill="#404040">
                               <set attributeName="fill" to="#808080" begin="reset.mouseover" end="reset.mouseout"/>
                       </use>
               </g>
        </defs>

<script type="text/javascript">
var viewWidth = 654;
var viewHeight = 334;
var sectionId = 'dynsection-0';
</script>
<script xlink:href="../../svgpan.js"/>
<svg id="graph" class="graph">
<g id="viewport">
<title>o2::framework::OutputSpec</title>
<!-- Node1 -->
<g id="node1" class="node"><title>Node1</title>
<polygon fill="#bfbfbf" stroke="black" points="199.5,-0.5 199.5,-101.5 336.5,-101.5 336.5,-0.5 199.5,-0.5"/>
<text text-anchor="middle" x="268" y="-89.5" font-family="Helvetica,sans-Serif" font-size="10.00">o2::framework::OutputSpec</text>
<polyline fill="none" stroke="black" points="199.5,-82.5 336.5,-82.5 "/>
<text text-anchor="middle" x="268" y="-70.5" font-family="Helvetica,sans-Serif" font-size="10.00"> </text>
<polyline fill="none" stroke="black" points="199.5,-63.5 336.5,-63.5 "/>
<text text-anchor="start" x="207.5" y="-51.5" font-family="Helvetica,sans-Serif" font-size="10.00">+ OutputSpec()</text>
<text text-anchor="start" x="207.5" y="-40.5" font-family="Helvetica,sans-Serif" font-size="10.00">+ OutputSpec()</text>
<text text-anchor="start" x="207.5" y="-29.5" font-family="Helvetica,sans-Serif" font-size="10.00">+ OutputSpec()</text>
<text text-anchor="start" x="207.5" y="-18.5" font-family="Helvetica,sans-Serif" font-size="10.00">+ OutputSpec()</text>
<text text-anchor="start" x="207.5" y="-7.5" font-family="Helvetica,sans-Serif" font-size="10.00">+ operator==()</text>
</g>
<!-- Node2 -->
<g id="node2" class="node"><title>Node2</title>
<polygon fill="none" stroke="#bfbfbf" points="-0.5,-156.5 -0.5,-213.5 50.5,-213.5 50.5,-156.5 -0.5,-156.5"/>
<text text-anchor="middle" x="25" y="-201.5" font-family="Helvetica,sans-Serif" font-size="10.00">uint64_t</text>
<polyline fill="none" stroke="#bfbfbf" points="-0.5,-194.5 50.5,-194.5 "/>
<text text-anchor="middle" x="25" y="-182.5" font-family="Helvetica,sans-Serif" font-size="10.00"> </text>
<polyline fill="none" stroke="#bfbfbf" points="-0.5,-175.5 50.5,-175.5 "/>
<text text-anchor="middle" x="25" y="-163.5" font-family="Helvetica,sans-Serif" font-size="10.00"> </text>
</g>
<!-- Node2&#45;&gt;Node1 -->
<g id="edge1" class="edge"><title>Node2&#45;&gt;Node1</title>
<path fill="none" stroke="#404040" d="M50.5482,-157.377C53.6136,-154.737 56.7962,-152.218 60,-150 99.5985,-122.582 148.075,-99.2396 188.264,-82.2216"/>
<polygon fill="none" stroke="#404040" points="188.29,-82.2107 192.288,-76.2092 199.366,-77.5912 195.368,-83.5927 188.29,-82.2107"/>
<text text-anchor="middle" x="133" y="-123.5" font-family="Helvetica,sans-Serif" font-size="10.00"> +subSpec</text>
</g>
<!-- Node3 -->
<g id="node3" class="node"><title>Node3</title>
<polygon fill="none" stroke="#bfbfbf" points="69,-151 69,-219 211,-219 211,-151 69,-151"/>
<text text-anchor="start" x="77" y="-207" font-family="Helvetica,sans-Serif" font-size="10.00">Descriptor&lt; gSizeDataOrigin</text>
<text text-anchor="middle" x="140" y="-196" font-family="Helvetica,sans-Serif" font-size="10.00">String, printDataOrigin &gt;</text>
<polyline fill="none" stroke="#bfbfbf" points="69,-189 211,-189 "/>
<text text-anchor="middle" x="140" y="-177" font-family="Helvetica,sans-Serif" font-size="10.00"> </text>
<polyline fill="none" stroke="#bfbfbf" points="69,-170 211,-170 "/>
<text text-anchor="middle" x="140" y="-158" font-family="Helvetica,sans-Serif" font-size="10.00"> </text>
</g>
<!-- Node3&#45;&gt;Node1 -->
<g id="edge2" class="edge"><title>Node3&#45;&gt;Node1</title>
<path fill="none" stroke="#404040" d="M172.3,-150.691C184.147,-138.474 197.932,-124.258 211.289,-110.484"/>
<polygon fill="none" stroke="#404040" points="211.625,-110.136 212.931,-103.044 219.979,-101.522 218.674,-108.614 211.625,-110.136"/>
<text text-anchor="middle" x="217.5" y="-123.5" font-family="Helvetica,sans-Serif" font-size="10.00"> +origin</text>
</g>
<!-- Node4 -->
<g id="node4" class="node"><title>Node4</title>
<polygon fill="none" stroke="#bfbfbf" points="229,-156.5 229,-213.5 307,-213.5 307,-156.5 229,-156.5"/>
<text text-anchor="middle" x="268" y="-201.5" font-family="Helvetica,sans-Serif" font-size="10.00">enum Lifetime</text>
<polyline fill="none" stroke="#bfbfbf" points="229,-194.5 307,-194.5 "/>
<text text-anchor="middle" x="268" y="-182.5" font-family="Helvetica,sans-Serif" font-size="10.00"> </text>
<polyline fill="none" stroke="#bfbfbf" points="229,-175.5 307,-175.5 "/>
<text text-anchor="middle" x="268" y="-163.5" font-family="Helvetica,sans-Serif" font-size="10.00"> </text>
</g>
<!-- Node4&#45;&gt;Node1 -->
<g id="edge3" class="edge"><title>Node4&#45;&gt;Node1</title>
<path fill="none" stroke="#404040" d="M268,-156.328C268,-143.926 268,-128.759 268,-113.873"/>
<polygon fill="none" stroke="#404040" points="268,-113.503 264,-107.503 268,-101.503 272,-107.502 268,-113.503"/>
<text text-anchor="middle" x="288.5" y="-123.5" font-family="Helvetica,sans-Serif" font-size="10.00"> +lifetime</text>
</g>
<!-- Node5 -->
<g id="node5" class="node"><title>Node5</title>
<polygon fill="none" stroke="#bfbfbf" points="325,-151 325,-219 491,-219 491,-151 325,-151"/>
<text text-anchor="start" x="333" y="-207" font-family="Helvetica,sans-Serif" font-size="10.00">Descriptor&lt; gSizeDataDescription</text>
<text text-anchor="middle" x="408" y="-196" font-family="Helvetica,sans-Serif" font-size="10.00">String, printDataDescription &gt;</text>
<polyline fill="none" stroke="#bfbfbf" points="325,-189 491,-189 "/>
<text text-anchor="middle" x="408" y="-177" font-family="Helvetica,sans-Serif" font-size="10.00"> </text>
<polyline fill="none" stroke="#bfbfbf" points="325,-170 491,-170 "/>
<text text-anchor="middle" x="408" y="-158" font-family="Helvetica,sans-Serif" font-size="10.00"> </text>
</g>
<!-- Node5&#45;&gt;Node1 -->
<g id="edge4" class="edge"><title>Node5&#45;&gt;Node1</title>
<path fill="none" stroke="#404040" d="M372.672,-150.691C359.591,-138.357 344.349,-123.987 329.611,-110.09"/>
<polygon fill="none" stroke="#404040" points="329.254,-109.754 322.144,-108.548 320.523,-101.522 327.633,-102.727 329.254,-109.754"/>
<text text-anchor="middle" x="378.5" y="-123.5" font-family="Helvetica,sans-Serif" font-size="10.00"> +description</text>
</g>
<!-- Node6 -->
<g id="node6" class="node"><title>Node6</title>
<g id="a_node6"><a xlink:href="../../de/d1b/structo2_1_1framework_1_1OutputLabel.html" target="_top" xlink:title="{o2::framework::OutputLabel\n||}">
<polygon fill="none" stroke="black" points="509.5,-156.5 509.5,-213.5 646.5,-213.5 646.5,-156.5 509.5,-156.5"/>
<text text-anchor="middle" x="578" y="-201.5" font-family="Helvetica,sans-Serif" font-size="10.00">o2::framework::OutputLabel</text>
<polyline fill="none" stroke="black" points="509.5,-194.5 646.5,-194.5 "/>
<text text-anchor="middle" x="578" y="-182.5" font-family="Helvetica,sans-Serif" font-size="10.00"> </text>
<polyline fill="none" stroke="black" points="509.5,-175.5 646.5,-175.5 "/>
<text text-anchor="middle" x="578" y="-163.5" font-family="Helvetica,sans-Serif" font-size="10.00"> </text>
</a>
</g>
</g>
<!-- Node6&#45;&gt;Node1 -->
<g id="edge5" class="edge"><title>Node6&#45;&gt;Node1</title>
<path fill="none" stroke="#404040" d="M515.021,-156.475C509.942,-154.277 504.887,-152.097 500,-150 449.439,-128.302 392.529,-104.257 347.728,-85.4143"/>
<polygon fill="none" stroke="#404040" points="347.672,-85.3909 340.591,-86.7531 336.61,-80.7405 343.691,-79.3783 347.672,-85.3909"/>
<text text-anchor="middle" x="475" y="-123.5" font-family="Helvetica,sans-Serif" font-size="10.00"> +binding</text>
</g>
<!-- Node7 -->
<g id="node7" class="node"><title>Node7</title>
<polygon fill="none" stroke="#bfbfbf" points="563.5,-268.5 563.5,-325.5 592.5,-325.5 592.5,-268.5 563.5,-268.5"/>
<text text-anchor="middle" x="578" y="-313.5" font-family="Helvetica,sans-Serif" font-size="10.00">int</text>
<polyline fill="none" stroke="#bfbfbf" points="563.5,-306.5 592.5,-306.5 "/>
<text text-anchor="middle" x="578" y="-294.5" font-family="Helvetica,sans-Serif" font-size="10.00"> </text>
<polyline fill="none" stroke="#bfbfbf" points="563.5,-287.5 592.5,-287.5 "/>
<text text-anchor="middle" x="578" y="-275.5" font-family="Helvetica,sans-Serif" font-size="10.00"> </text>
</g>
<!-- Node7&#45;&gt;Node6 -->
<g id="edge6" class="edge"><title>Node7&#45;&gt;Node6</title>
<path fill="none" stroke="#404040" d="M578,-268.242C578,-255.475 578,-240.088 578,-226.094"/>
<polygon fill="none" stroke="#404040" points="578,-225.749 574,-219.749 578,-213.749 582,-219.749 578,-225.749"/>
<text text-anchor="middle" x="594.5" y="-241.5" font-family="Helvetica,sans-Serif" font-size="10.00"> +value</text>
</g>
</g>
</svg>
        <g id="navigator" transform="translate(0 0)" fill="#404254">
                <rect fill="#f2f5e9" fill-opacity="0.5" stroke="#606060" stroke-width=".5" x="0" y="0" width="60" height="60"/>
                <use id="zoomplus" xlink:href="#zoomPlus" x="17" y="9" onmousedown="handleZoom(evt,'in')"/>
                <use id="zoomminus" xlink:href="#zoomMin" x="42" y="9" onmousedown="handleZoom(evt,'out')"/>
                <use id="reset" xlink:href="#resetDef" x="30" y="36" onmousedown="handleReset()"/>
                <g id="arrowUp" xlink:href="#dirArrow" transform="translate(30 24)" onmousedown="handlePan(0,-1)">
                  <use xlink:href="#rim" fill="#404040">
                        <set attributeName="fill" to="#808080" begin="arrowUp.mouseover" end="arrowUp.mouseout"/>
                  </use>
                  <path fill="none" stroke="white" stroke-width="1.5" d="M0,-3.0v7 M-2.5,-0.5L0,-3.0L2.5,-0.5"/>
                </g>
                <g id="arrowRight" xlink:href="#dirArrow" transform="rotate(90) translate(36 -43)" onmousedown="handlePan(1,0)">
                  <use xlink:href="#rim" fill="#404040">
                        <set attributeName="fill" to="#808080" begin="arrowRight.mouseover" end="arrowRight.mouseout"/>
                  </use>
                  <path fill="none" stroke="white" stroke-width="1.5" d="M0,-3.0v7 M-2.5,-0.5L0,-3.0L2.5,-0.5"/>
                </g>
                <g id="arrowDown" xlink:href="#dirArrow" transform="rotate(180) translate(-30 -48)" onmousedown="handlePan(0,1)">
                  <use xlink:href="#rim" fill="#404040">
                        <set attributeName="fill" to="#808080" begin="arrowDown.mouseover" end="arrowDown.mouseout"/>
                  </use>
                  <path fill="none" stroke="white" stroke-width="1.5" d="M0,-3.0v7 M-2.5,-0.5L0,-3.0L2.5,-0.5"/>
                </g>
                <g id="arrowLeft" xlink:href="#dirArrow" transform="rotate(270) translate(-36 17)" onmousedown="handlePan(-1,0)">
                  <use xlink:href="#rim" fill="#404040">
                        <set attributeName="fill" to="#808080" begin="arrowLeft.mouseover" end="arrowLeft.mouseout"/>
                  </use>
                  <path fill="none" stroke="white" stroke-width="1.5" d="M0,-3.0v7 M-2.5,-0.5L0,-3.0L2.5,-0.5"/>
                </g>
        </g>
        <svg viewBox="0 0 15 15" width="100%" height="30px" preserveAspectRatio="xMaxYMin meet">
         <g id="arrow_out" transform="scale(0.3 0.3)">
          <a xlink:href="structo2_1_1framework_1_1OutputSpec__coll__graph_org.svg" target="_base">
           <rect id="button" ry="5" rx="5" y="6" x="6" height="38" width="38"
                fill="#f2f5e9" fill-opacity="0.5" stroke="#606060" stroke-width="1.0"/>
           <path id="arrow"
             d="M 11.500037,31.436501 C 11.940474,20.09759 22.043105,11.32322 32.158766,21.979434 L 37.068811,17.246167 C 37.068811,17.246167 37.088388,32 37.088388,32 L 22.160133,31.978069 C 22.160133,31.978069 26.997745,27.140456 26.997745,27.140456 C 18.528582,18.264221 13.291696,25.230495 11.500037,31.436501 z"
             style="fill:#404040;"/>
          </a>
         </g>
        </svg>
</svg>
