<?xml version="1.0" encoding="UTF-8" standalone="no"?>
<!DOCTYPE svg PUBLIC "-//W3C//DTD SVG 1.1//EN"
 "http://www.w3.org/Graphics/SVG/1.1/DTD/svg11.dtd">
<!-- Generated by graphviz version 2.36.0 (20140111.2315)
 -->
<!-- Title: o2::framework::OutputSpec Pages: 1 -->
<svg width="654pt" height="334pt"
 viewBox="0.00 0.00 654.00 334.00" xmlns="http://www.w3.org/2000/svg" xmlns:xlink="http://www.w3.org/1999/xlink">
<g id="graph0" class="graph" transform="scale(1 1) rotate(0) translate(4 330)">
<title>o2::framework::OutputSpec</title>
<!-- Node1 -->
<g id="node1" class="node"><title>Node1</title>
<polygon fill="#bfbfbf" stroke="black" points="199.5,-0.5 199.5,-101.5 336.5,-101.5 336.5,-0.5 199.5,-0.5"/>
<text text-anchor="middle" x="268" y="-89.5" font-family="Helvetica,sans-Serif" font-size="10.00">o2::framework::OutputSpec</text>
<polyline fill="none" stroke="black" points="199.5,-82.5 336.5,-82.5 "/>
<text text-anchor="middle" x="268" y="-70.5" font-family="Helvetica,sans-Serif" font-size="10.00"> </text>
<polyline fill="none" stroke="black" points="199.5,-63.5 336.5,-63.5 "/>
<text text-anchor="start" x="207.5" y="-51.5" font-family="Helvetica,sans-Serif" font-size="10.00">+ OutputSpec()</text>
<text text-anchor="start" x="207.5" y="-40.5" font-family="Helvetica,sans-Serif" font-size="10.00">+ OutputSpec()</text>
<text text-anchor="start" x="207.5" y="-29.5" font-family="Helvetica,sans-Serif" font-size="10.00">+ OutputSpec()</text>
<text text-anchor="start" x="207.5" y="-18.5" font-family="Helvetica,sans-Serif" font-size="10.00">+ OutputSpec()</text>
<text text-anchor="start" x="207.5" y="-7.5" font-family="Helvetica,sans-Serif" font-size="10.00">+ operator==()</text>
</g>
<!-- Node2 -->
<g id="node2" class="node"><title>Node2</title>
<polygon fill="none" stroke="#bfbfbf" points="-0.5,-156.5 -0.5,-213.5 50.5,-213.5 50.5,-156.5 -0.5,-156.5"/>
<text text-anchor="middle" x="25" y="-201.5" font-family="Helvetica,sans-Serif" font-size="10.00">uint64_t</text>
<polyline fill="none" stroke="#bfbfbf" points="-0.5,-194.5 50.5,-194.5 "/>
<text text-anchor="middle" x="25" y="-182.5" font-family="Helvetica,sans-Serif" font-size="10.00"> </text>
<polyline fill="none" stroke="#bfbfbf" points="-0.5,-175.5 50.5,-175.5 "/>
<text text-anchor="middle" x="25" y="-163.5" font-family="Helvetica,sans-Serif" font-size="10.00"> </text>
</g>
<!-- Node2&#45;&gt;Node1 -->
<g id="edge1" class="edge"><title>Node2&#45;&gt;Node1</title>
<path fill="none" stroke="#404040" d="M50.5482,-157.377C53.6136,-154.737 56.7962,-152.218 60,-150 99.5985,-122.582 148.075,-99.2396 188.264,-82.2216"/>
<polygon fill="none" stroke="#404040" points="188.29,-82.2107 192.288,-76.2092 199.366,-77.5912 195.368,-83.5927 188.29,-82.2107"/>
<text text-anchor="middle" x="133" y="-123.5" font-family="Helvetica,sans-Serif" font-size="10.00"> +subSpec</text>
</g>
<!-- Node3 -->
<g id="node3" class="node"><title>Node3</title>
<polygon fill="none" stroke="#bfbfbf" points="69,-151 69,-219 211,-219 211,-151 69,-151"/>
<text text-anchor="start" x="77" y="-207" font-family="Helvetica,sans-Serif" font-size="10.00">Descriptor&lt; gSizeDataOrigin</text>
<text text-anchor="middle" x="140" y="-196" font-family="Helvetica,sans-Serif" font-size="10.00">String, printDataOrigin &gt;</text>
<polyline fill="none" stroke="#bfbfbf" points="69,-189 211,-189 "/>
<text text-anchor="middle" x="140" y="-177" font-family="Helvetica,sans-Serif" font-size="10.00"> </text>
<polyline fill="none" stroke="#bfbfbf" points="69,-170 211,-170 "/>
<text text-anchor="middle" x="140" y="-158" font-family="Helvetica,sans-Serif" font-size="10.00"> </text>
</g>
<!-- Node3&#45;&gt;Node1 -->
<g id="edge2" class="edge"><title>Node3&#45;&gt;Node1</title>
<path fill="none" stroke="#404040" d="M172.3,-150.691C184.147,-138.474 197.932,-124.258 211.289,-110.484"/>
<polygon fill="none" stroke="#404040" points="211.625,-110.136 212.931,-103.044 219.979,-101.522 218.674,-108.614 211.625,-110.136"/>
<text text-anchor="middle" x="217.5" y="-123.5" font-family="Helvetica,sans-Serif" font-size="10.00"> +origin</text>
</g>
<!-- Node4 -->
<g id="node4" class="node"><title>Node4</title>
<polygon fill="none" stroke="#bfbfbf" points="229,-156.5 229,-213.5 307,-213.5 307,-156.5 229,-156.5"/>
<text text-anchor="middle" x="268" y="-201.5" font-family="Helvetica,sans-Serif" font-size="10.00">enum Lifetime</text>
<polyline fill="none" stroke="#bfbfbf" points="229,-194.5 307,-194.5 "/>
<text text-anchor="middle" x="268" y="-182.5" font-family="Helvetica,sans-Serif" font-size="10.00"> </text>
<polyline fill="none" stroke="#bfbfbf" points="229,-175.5 307,-175.5 "/>
<text text-anchor="middle" x="268" y="-163.5" font-family="Helvetica,sans-Serif" font-size="10.00"> </text>
</g>
<!-- Node4&#45;&gt;Node1 -->
<g id="edge3" class="edge"><title>Node4&#45;&gt;Node1</title>
<path fill="none" stroke="#404040" d="M268,-156.328C268,-143.926 268,-128.759 268,-113.873"/>
<polygon fill="none" stroke="#404040" points="268,-113.503 264,-107.503 268,-101.503 272,-107.502 268,-113.503"/>
<text text-anchor="middle" x="288.5" y="-123.5" font-family="Helvetica,sans-Serif" font-size="10.00"> +lifetime</text>
</g>
<!-- Node5 -->
<g id="node5" class="node"><title>Node5</title>
<polygon fill="none" stroke="#bfbfbf" points="325,-151 325,-219 491,-219 491,-151 325,-151"/>
<text text-anchor="start" x="333" y="-207" font-family="Helvetica,sans-Serif" font-size="10.00">Descriptor&lt; gSizeDataDescription</text>
<text text-anchor="middle" x="408" y="-196" font-family="Helvetica,sans-Serif" font-size="10.00">String, printDataDescription &gt;</text>
<polyline fill="none" stroke="#bfbfbf" points="325,-189 491,-189 "/>
<text text-anchor="middle" x="408" y="-177" font-family="Helvetica,sans-Serif" font-size="10.00"> </text>
<polyline fill="none" stroke="#bfbfbf" points="325,-170 491,-170 "/>
<text text-anchor="middle" x="408" y="-158" font-family="Helvetica,sans-Serif" font-size="10.00"> </text>
</g>
<!-- Node5&#45;&gt;Node1 -->
<g id="edge4" class="edge"><title>Node5&#45;&gt;Node1</title>
<path fill="none" stroke="#404040" d="M372.672,-150.691C359.591,-138.357 344.349,-123.987 329.611,-110.09"/>
<polygon fill="none" stroke="#404040" points="329.254,-109.754 322.144,-108.548 320.523,-101.522 327.633,-102.727 329.254,-109.754"/>
<text text-anchor="middle" x="378.5" y="-123.5" font-family="Helvetica,sans-Serif" font-size="10.00"> +description</text>
</g>
<!-- Node6 -->
<g id="node6" class="node"><title>Node6</title>
<g id="a_node6"><a xlink:href="../../de/d1b/structo2_1_1framework_1_1OutputLabel.html" target="_top" xlink:title="{o2::framework::OutputLabel\n||}">
<polygon fill="none" stroke="black" points="509.5,-156.5 509.5,-213.5 646.5,-213.5 646.5,-156.5 509.5,-156.5"/>
<text text-anchor="middle" x="578" y="-201.5" font-family="Helvetica,sans-Serif" font-size="10.00">o2::framework::OutputLabel</text>
<polyline fill="none" stroke="black" points="509.5,-194.5 646.5,-194.5 "/>
<text text-anchor="middle" x="578" y="-182.5" font-family="Helvetica,sans-Serif" font-size="10.00"> </text>
<polyline fill="none" stroke="black" points="509.5,-175.5 646.5,-175.5 "/>
<text text-anchor="middle" x="578" y="-163.5" font-family="Helvetica,sans-Serif" font-size="10.00"> </text>
</a>
</g>
</g>
<!-- Node6&#45;&gt;Node1 -->
<g id="edge5" class="edge"><title>Node6&#45;&gt;Node1</title>
<path fill="none" stroke="#404040" d="M515.021,-156.475C509.942,-154.277 504.887,-152.097 500,-150 449.439,-128.302 392.529,-104.257 347.728,-85.4143"/>
<polygon fill="none" stroke="#404040" points="347.672,-85.3909 340.591,-86.7531 336.61,-80.7405 343.691,-79.3783 347.672,-85.3909"/>
<text text-anchor="middle" x="475" y="-123.5" font-family="Helvetica,sans-Serif" font-size="10.00"> +binding</text>
</g>
<!-- Node7 -->
<g id="node7" class="node"><title>Node7</title>
<polygon fill="none" stroke="#bfbfbf" points="563.5,-268.5 563.5,-325.5 592.5,-325.5 592.5,-268.5 563.5,-268.5"/>
<text text-anchor="middle" x="578" y="-313.5" font-family="Helvetica,sans-Serif" font-size="10.00">int</text>
<polyline fill="none" stroke="#bfbfbf" points="563.5,-306.5 592.5,-306.5 "/>
<text text-anchor="middle" x="578" y="-294.5" font-family="Helvetica,sans-Serif" font-size="10.00"> </text>
<polyline fill="none" stroke="#bfbfbf" points="563.5,-287.5 592.5,-287.5 "/>
<text text-anchor="middle" x="578" y="-275.5" font-family="Helvetica,sans-Serif" font-size="10.00"> </text>
</g>
<!-- Node7&#45;&gt;Node6 -->
<g id="edge6" class="edge"><title>Node7&#45;&gt;Node6</title>
<path fill="none" stroke="#404040" d="M578,-268.242C578,-255.475 578,-240.088 578,-226.094"/>
<polygon fill="none" stroke="#404040" points="578,-225.749 574,-219.749 578,-213.749 582,-219.749 578,-225.749"/>
<text text-anchor="middle" x="594.5" y="-241.5" font-family="Helvetica,sans-Serif" font-size="10.00"> +value</text>
</g>
</g>
</svg>
