<?xml version="1.0" encoding="UTF-8" standalone="no"?>
<!DOCTYPE svg PUBLIC "-//W3C//DTD SVG 1.1//EN"
 "http://www.w3.org/Graphics/SVG/1.1/DTD/svg11.dtd">
<!-- Generated by graphviz version 2.36.0 (20140111.2315)
 -->
<!-- Title: /home/travis/build/AliceO2Group/AliceO2/run/o2sim.cxx Pages: 1 -->
<!--zoomable 354 -->
<svg id="main" version="1.1" xmlns="http://www.w3.org/2000/svg" xmlns:xlink="http://www.w3.org/1999/xlink" xml:space="preserve" onload="init(evt)">
<style type="text/css"><![CDATA[
.edge:hover path { stroke: red; }
.edge:hover polygon { stroke: red; fill: red; }
]]></style>
<script type="text/javascript"><![CDATA[
var edges = document.getElementsByTagName('g');
if (edges && edges.length) {
  for (var i=0;i<edges.length;i++) {
    if (edges[i].id.substr(0,4)=='edge') {
      edges[i].setAttribute('class','edge');
    }
  }
}
]]></script>
        <defs>
                <circle id="rim" cx="0" cy="0" r="7"/>
                <circle id="rim2" cx="0" cy="0" r="3.5"/>
                <g id="zoomPlus">
                        <use xlink:href="#rim" fill="#404040">
                                <set attributeName="fill" to="#808080" begin="zoomplus.mouseover" end="zoomplus.mouseout"/>
                        </use>
                        <path d="M-4,0h8M0,-4v8" fill="none" stroke="white" stroke-width="1.5" pointer-events="none"/>
                </g>
                <g id="zoomMin">
                        <use xlink:href="#rim" fill="#404040">
                                <set attributeName="fill" to="#808080" begin="zoomminus.mouseover" end="zoomminus.mouseout"/>
                        </use>
                        <path d="M-4,0h8" fill="none" stroke="white" stroke-width="1.5" pointer-events="none"/>
                </g>
                <g id="dirArrow">
                        <path fill="none" stroke="white" stroke-width="1.5" d="M0,-3.0v7 M-2.5,-0.5L0,-3.0L2.5,-0.5"/>
                </g>
               <g id="resetDef">
                       <use xlink:href="#rim2" fill="#404040">
                               <set attributeName="fill" to="#808080" begin="reset.mouseover" end="reset.mouseout"/>
                       </use>
               </g>
        </defs>

<script type="text/javascript">
var viewWidth = 1615;
var viewHeight = 354;
var sectionId = 'dynsection-0';
</script>
<script xlink:href="../../svgpan.js"/>
<svg id="graph" class="graph">
<g id="viewport">
<title>/home/travis/build/AliceO2Group/AliceO2/run/o2sim.cxx</title>
<!-- Node1 -->
<g id="node1" class="node"><title>Node1</title>
<polygon fill="#bfbfbf" stroke="black" points="530,-304.5 530,-345.5 648,-345.5 648,-304.5 530,-304.5"/>
<text text-anchor="start" x="538" y="-333.5" font-family="Helvetica,sans-Serif" font-size="10.00">/home/travis/build</text>
<text text-anchor="start" x="538" y="-322.5" font-family="Helvetica,sans-Serif" font-size="10.00">/AliceO2Group/AliceO2</text>
<text text-anchor="middle" x="589" y="-311.5" font-family="Helvetica,sans-Serif" font-size="10.00">/run/o2sim.cxx</text>
</g>
<!-- Node2 -->
<g id="node2" class="node"><title>Node2</title>
<g id="a_node2"><a xlink:href="../../dc/d6b/o2sim_8C.html" target="_top" xlink:title="../macro/o2sim.C">
<polygon fill="none" stroke="black" points="745,-248.5 745,-267.5 837,-267.5 837,-248.5 745,-248.5"/>
<text text-anchor="middle" x="791" y="-255.5" font-family="Helvetica,sans-Serif" font-size="10.00">../macro/o2sim.C</text>
</a>
</g>
</g>
<!-- Node1&#45;&gt;Node2 -->
<g id="edge1" class="edge"><title>Node1&#45;&gt;Node2</title>
<path fill="none" stroke="midnightblue" d="M648.242,-304.937C682.711,-293.845 725.056,-280.22 754.64,-270.7"/>
<polygon fill="midnightblue" stroke="midnightblue" points="756.091,-273.91 764.538,-267.515 753.947,-267.246 756.091,-273.91"/>
</g>
<!-- Node16 -->
<g id="node16" class="node"><title>Node16</title>
<g id="a_node16"><a xlink:href="../../d4/dee/SimConfig_8h.html" target="_top" xlink:title="SimConfig/SimConfig.h">
<polygon fill="none" stroke="black" points="-0.5,-186.5 -0.5,-205.5 118.5,-205.5 118.5,-186.5 -0.5,-186.5"/>
<text text-anchor="middle" x="59" y="-193.5" font-family="Helvetica,sans-Serif" font-size="10.00">SimConfig/SimConfig.h</text>
</a>
</g>
</g>
<!-- Node1&#45;&gt;Node16 -->
<g id="edge42" class="edge"><title>Node1&#45;&gt;Node16</title>
<path fill="none" stroke="midnightblue" d="M529.745,-309.801C423.019,-284.227 200.683,-230.95 104.721,-207.956"/>
<polygon fill="midnightblue" stroke="midnightblue" points="105.286,-204.492 94.7461,-205.566 103.655,-211.3 105.286,-204.492"/>
</g>
<!-- Node3 -->
<g id="node3" class="node"><title>Node3</title>
<polygon fill="none" stroke="#bfbfbf" points="1513.5,-186.5 1513.5,-205.5 1606.5,-205.5 1606.5,-186.5 1513.5,-186.5"/>
<text text-anchor="middle" x="1560" y="-193.5" font-family="Helvetica,sans-Serif" font-size="10.00">build_geometry.C</text>
</g>
<!-- Node2&#45;&gt;Node3 -->
<g id="edge2" class="edge"><title>Node2&#45;&gt;Node3</title>
<path fill="none" stroke="midnightblue" d="M837.234,-257.247C951.292,-257.171 1254.92,-252.803 1504,-212 1510.04,-211.01 1516.38,-209.643 1522.53,-208.134"/>
<polygon fill="midnightblue" stroke="midnightblue" points="1523.82,-211.414 1532.61,-205.502 1522.05,-204.641 1523.82,-211.414"/>
</g>
<!-- Node4 -->
<g id="node4" class="node"><title>Node4</title>
<polygon fill="none" stroke="#bfbfbf" points="136.5,-186.5 136.5,-205.5 237.5,-205.5 237.5,-186.5 136.5,-186.5"/>
<text text-anchor="middle" x="187" y="-193.5" font-family="Helvetica,sans-Serif" font-size="10.00">FairBoxGenerator.h</text>
</g>
<!-- Node2&#45;&gt;Node4 -->
<g id="edge3" class="edge"><title>Node2&#45;&gt;Node4</title>
<path fill="none" stroke="midnightblue" d="M744.839,-255.709C650.655,-252.52 429.791,-242.204 247,-212 240.535,-210.932 233.742,-209.52 227.145,-207.99"/>
<polygon fill="midnightblue" stroke="midnightblue" points="227.56,-204.489 217.016,-205.52 225.902,-211.289 227.56,-204.489"/>
</g>
<!-- Node5 -->
<g id="node5" class="node"><title>Node5</title>
<polygon fill="none" stroke="#bfbfbf" points="256,-186.5 256,-205.5 374,-205.5 374,-186.5 256,-186.5"/>
<text text-anchor="middle" x="315" y="-193.5" font-family="Helvetica,sans-Serif" font-size="10.00">FairPrimaryGenerator.h</text>
</g>
<!-- Node2&#45;&gt;Node5 -->
<g id="edge4" class="edge"><title>Node2&#45;&gt;Node5</title>
<path fill="none" stroke="midnightblue" d="M744.89,-253.536C669.062,-247.478 513.43,-233.515 383,-212 375.536,-210.769 367.657,-209.243 360.013,-207.641"/>
<polygon fill="midnightblue" stroke="midnightblue" points="360.668,-204.201 350.154,-205.508 359.188,-211.043 360.668,-204.201"/>
</g>
<!-- Node6 -->
<g id="node6" class="node"><title>Node6</title>
<g id="a_node6"><a xlink:href="../../de/daf/GeneratorFromFile_8h.html" target="_top" xlink:title="Generators/GeneratorFrom\lFile.h">
<polygon fill="none" stroke="black" points="392.5,-181 392.5,-211 525.5,-211 525.5,-181 392.5,-181"/>
<text text-anchor="start" x="400.5" y="-199" font-family="Helvetica,sans-Serif" font-size="10.00">Generators/GeneratorFrom</text>
<text text-anchor="middle" x="459" y="-188" font-family="Helvetica,sans-Serif" font-size="10.00">File.h</text>
</a>
</g>
</g>
<!-- Node2&#45;&gt;Node6 -->
<g id="edge5" class="edge"><title>Node2&#45;&gt;Node6</title>
<path fill="none" stroke="midnightblue" d="M744.7,-249.16C695.489,-240.761 615.126,-226.854 535.873,-212.141"/>
<polygon fill="midnightblue" stroke="midnightblue" points="536.185,-208.639 525.713,-210.249 534.903,-215.52 536.185,-208.639"/>
</g>
<!-- Node8 -->
<g id="node8" class="node"><title>Node8</title>
<g id="a_node8"><a xlink:href="../../d6/df5/Pythia8Generator_8h.html" target="_top" xlink:title="Generators/Pythia8Generator.h">
<polygon fill="none" stroke="black" points="544,-186.5 544,-205.5 696,-205.5 696,-186.5 544,-186.5"/>
<text text-anchor="middle" x="620" y="-193.5" font-family="Helvetica,sans-Serif" font-size="10.00">Generators/Pythia8Generator.h</text>
</a>
</g>
</g>
<!-- Node2&#45;&gt;Node8 -->
<g id="edge7" class="edge"><title>Node2&#45;&gt;Node8</title>
<path fill="none" stroke="midnightblue" d="M766.5,-248.403C737.04,-238.067 687.421,-220.656 654.198,-208.999"/>
<polygon fill="midnightblue" stroke="midnightblue" points="655.05,-205.589 644.455,-205.581 652.732,-212.194 655.05,-205.589"/>
</g>
<!-- Node15 -->
<g id="node15" class="node"><title>Node15</title>
<g id="a_node15"><a xlink:href="../../de/d73/PDG_8h.html" target="_top" xlink:title="Generators/PDG.h">
<polygon fill="none" stroke="black" points="718,-118.5 718,-137.5 816,-137.5 816,-118.5 718,-118.5"/>
<text text-anchor="middle" x="767" y="-125.5" font-family="Helvetica,sans-Serif" font-size="10.00">Generators/PDG.h</text>
</a>
</g>
</g>
<!-- Node2&#45;&gt;Node15 -->
<g id="edge15" class="edge"><title>Node2&#45;&gt;Node15</title>
<path fill="none" stroke="midnightblue" d="M776.63,-248.33C765.12,-240.469 749.811,-227.722 743,-212 733.629,-190.369 744.808,-164.017 754.838,-146.892"/>
<polygon fill="midnightblue" stroke="midnightblue" points="758.082,-148.308 760.447,-137.98 752.158,-144.579 758.082,-148.308"/>
</g>
<!-- Node2&#45;&gt;Node16 -->
<g id="edge17" class="edge"><title>Node2&#45;&gt;Node16</title>
<path fill="none" stroke="midnightblue" d="M744.866,-256.242C636.501,-253.947 357.461,-245.039 127,-212 119.175,-210.878 110.91,-209.351 102.942,-207.698"/>
<polygon fill="midnightblue" stroke="midnightblue" points="103.576,-204.254 93.0619,-205.559 102.095,-211.096 103.576,-204.254"/>
</g>
<!-- Node17 -->
<g id="node17" class="node"><title>Node17</title>
<polygon fill="none" stroke="#bfbfbf" points="752.5,-186.5 752.5,-205.5 829.5,-205.5 829.5,-186.5 752.5,-186.5"/>
<text text-anchor="middle" x="791" y="-193.5" font-family="Helvetica,sans-Serif" font-size="10.00">TStopwatch.h</text>
</g>
<!-- Node2&#45;&gt;Node17 -->
<g id="edge19" class="edge"><title>Node2&#45;&gt;Node17</title>
<path fill="none" stroke="midnightblue" d="M791,-248.403C791,-239.938 791,-226.728 791,-215.82"/>
<polygon fill="midnightblue" stroke="midnightblue" points="794.5,-215.581 791,-205.581 787.5,-215.581 794.5,-215.581"/>
</g>
<!-- Node18 -->
<g id="node18" class="node"><title>Node18</title>
<polygon fill="none" stroke="#bfbfbf" points="848,-186.5 848,-205.5 900,-205.5 900,-186.5 848,-186.5"/>
<text text-anchor="middle" x="874" y="-193.5" font-family="Helvetica,sans-Serif" font-size="10.00">memory</text>
</g>
<!-- Node2&#45;&gt;Node18 -->
<g id="edge20" class="edge"><title>Node2&#45;&gt;Node18</title>
<path fill="none" stroke="midnightblue" d="M802.892,-248.403C816.205,-238.78 838,-223.024 853.957,-211.489"/>
<polygon fill="midnightblue" stroke="midnightblue" points="856.076,-214.276 862.13,-205.581 851.975,-208.603 856.076,-214.276"/>
</g>
<!-- Node19 -->
<g id="node19" class="node"><title>Node19</title>
<g id="a_node19"><a xlink:href="../../de/d28/GRPObject_8h.html" target="_top" xlink:title="Header of the General Run Parameters object. ">
<polygon fill="none" stroke="black" points="918,-181 918,-211 1042,-211 1042,-181 918,-181"/>
<text text-anchor="start" x="926" y="-199" font-family="Helvetica,sans-Serif" font-size="10.00">DataFormatsParameters</text>
<text text-anchor="middle" x="980" y="-188" font-family="Helvetica,sans-Serif" font-size="10.00">/GRPObject.h</text>
</a>
</g>
</g>
<!-- Node2&#45;&gt;Node19 -->
<g id="edge21" class="edge"><title>Node2&#45;&gt;Node19</title>
<path fill="none" stroke="midnightblue" d="M818.079,-248.403C846.162,-239.488 890.82,-225.311 926.13,-214.101"/>
<polygon fill="midnightblue" stroke="midnightblue" points="927.348,-217.387 935.82,-211.025 925.23,-210.715 927.348,-217.387"/>
</g>
<!-- Node32 -->
<g id="node32" class="node"><title>Node32</title>
<polygon fill="none" stroke="#bfbfbf" points="1060.5,-186.5 1060.5,-205.5 1161.5,-205.5 1161.5,-186.5 1060.5,-186.5"/>
<text text-anchor="middle" x="1111" y="-193.5" font-family="Helvetica,sans-Serif" font-size="10.00">FairParRootFileIo.h</text>
</g>
<!-- Node2&#45;&gt;Node32 -->
<g id="edge38" class="edge"><title>Node2&#45;&gt;Node32</title>
<path fill="none" stroke="midnightblue" d="M837.032,-249.987C888.961,-241.847 975.85,-227.539 1050,-212 1055.88,-210.768 1062.06,-209.371 1068.13,-207.938"/>
<polygon fill="midnightblue" stroke="midnightblue" points="1069.27,-211.262 1078.17,-205.514 1067.63,-204.457 1069.27,-211.262"/>
</g>
<!-- Node33 -->
<g id="node33" class="node"><title>Node33</title>
<polygon fill="none" stroke="#bfbfbf" points="1180,-186.5 1180,-205.5 1272,-205.5 1272,-186.5 1180,-186.5"/>
<text text-anchor="middle" x="1226" y="-193.5" font-family="Helvetica,sans-Serif" font-size="10.00">FairSystemInfo.h</text>
</g>
<!-- Node2&#45;&gt;Node33 -->
<g id="edge39" class="edge"><title>Node2&#45;&gt;Node33</title>
<path fill="none" stroke="midnightblue" d="M837.124,-253.671C908.809,-248.016 1051.09,-234.863 1170,-212 1175.76,-210.892 1181.8,-209.511 1187.7,-208.039"/>
<polygon fill="midnightblue" stroke="midnightblue" points="1188.61,-211.417 1197.41,-205.506 1186.85,-204.644 1188.61,-211.417"/>
</g>
<!-- Node34 -->
<g id="node34" class="node"><title>Node34</title>
<polygon fill="none" stroke="#bfbfbf" points="1290,-186.5 1290,-205.5 1364,-205.5 1364,-186.5 1290,-186.5"/>
<text text-anchor="middle" x="1327" y="-193.5" font-family="Helvetica,sans-Serif" font-size="10.00">TVirtualMC.h</text>
</g>
<!-- Node2&#45;&gt;Node34 -->
<g id="edge40" class="edge"><title>Node2&#45;&gt;Node34</title>
<path fill="none" stroke="midnightblue" d="M837.101,-256.19C924.547,-253.901 1120.15,-245.175 1281,-212 1285.47,-211.078 1290.12,-209.871 1294.66,-208.543"/>
<polygon fill="midnightblue" stroke="midnightblue" points="1295.85,-211.838 1304.34,-205.502 1293.75,-205.159 1295.85,-211.838"/>
</g>
<!-- Node35 -->
<g id="node35" class="node"><title>Node35</title>
<g id="a_node35"><a xlink:href="../../df/d35/SimSetup_8h.html" target="_top" xlink:title="SimSetup/SimSetup.h">
<polygon fill="none" stroke="black" points="1382.5,-186.5 1382.5,-205.5 1495.5,-205.5 1495.5,-186.5 1382.5,-186.5"/>
<text text-anchor="middle" x="1439" y="-193.5" font-family="Helvetica,sans-Serif" font-size="10.00">SimSetup/SimSetup.h</text>
</a>
</g>
</g>
<!-- Node2&#45;&gt;Node35 -->
<g id="edge41" class="edge"><title>Node2&#45;&gt;Node35</title>
<path fill="none" stroke="midnightblue" d="M837.283,-255.72C936.156,-252.483 1175.1,-241.974 1373,-212 1380.51,-210.862 1388.44,-209.342 1396.1,-207.705"/>
<polygon fill="midnightblue" stroke="midnightblue" points="1396.94,-211.102 1405.94,-205.509 1395.42,-204.27 1396.94,-211.102"/>
</g>
<!-- Node7 -->
<g id="node7" class="node"><title>Node7</title>
<polygon fill="none" stroke="#bfbfbf" points="93,-118.5 93,-137.5 177,-137.5 177,-118.5 93,-118.5"/>
<text text-anchor="middle" x="135" y="-125.5" font-family="Helvetica,sans-Serif" font-size="10.00">FairGenerator.h</text>
</g>
<!-- Node6&#45;&gt;Node7 -->
<g id="edge6" class="edge"><title>Node6&#45;&gt;Node7</title>
<path fill="none" stroke="midnightblue" d="M392.282,-181.777C389.145,-181.172 386.039,-180.578 383,-180 295.56,-163.382 272.592,-164.586 186,-144 181.362,-142.897 176.519,-141.629 171.743,-140.307"/>
<polygon fill="midnightblue" stroke="midnightblue" points="172.697,-136.939 162.12,-137.552 170.771,-143.669 172.697,-136.939"/>
</g>
<!-- Node8&#45;&gt;Node7 -->
<g id="edge9" class="edge"><title>Node8&#45;&gt;Node7</title>
<path fill="none" stroke="midnightblue" d="M574.568,-186.467C561.501,-184.178 547.211,-181.833 534,-180 379.984,-158.628 338.558,-174.063 186,-144 180.924,-143 175.625,-141.718 170.444,-140.326"/>
<polygon fill="midnightblue" stroke="midnightblue" points="171.294,-136.929 160.717,-137.559 169.378,-143.662 171.294,-136.929"/>
</g>
<!-- Node9 -->
<g id="node9" class="node"><title>Node9</title>
<polygon fill="none" stroke="#bfbfbf" points="463.5,-118.5 463.5,-137.5 554.5,-137.5 554.5,-118.5 463.5,-118.5"/>
<text text-anchor="middle" x="509" y="-125.5" font-family="Helvetica,sans-Serif" font-size="10.00">Pythia8/Basics.h</text>
</g>
<!-- Node8&#45;&gt;Node9 -->
<g id="edge8" class="edge"><title>Node8&#45;&gt;Node9</title>
<path fill="none" stroke="midnightblue" d="M605.489,-186.372C586.875,-175.304 554.363,-155.972 532.273,-142.838"/>
<polygon fill="midnightblue" stroke="midnightblue" points="533.899,-139.733 523.515,-137.63 530.321,-145.75 533.899,-139.733"/>
</g>
<!-- Node10 -->
<g id="node10" class="node"><title>Node10</title>
<polygon fill="none" stroke="#bfbfbf" points="572.5,-118.5 572.5,-137.5 661.5,-137.5 661.5,-118.5 572.5,-118.5"/>
<text text-anchor="middle" x="617" y="-125.5" font-family="Helvetica,sans-Serif" font-size="10.00">Pythia8/Pythia.h</text>
</g>
<!-- Node8&#45;&gt;Node10 -->
<g id="edge10" class="edge"><title>Node8&#45;&gt;Node10</title>
<path fill="none" stroke="midnightblue" d="M619.608,-186.372C619.166,-176.643 618.433,-160.528 617.857,-147.85"/>
<polygon fill="midnightblue" stroke="midnightblue" points="621.352,-147.672 617.402,-137.841 614.36,-147.99 621.352,-147.672"/>
</g>
<!-- Node11 -->
<g id="node11" class="node"><title>Node11</title>
<polygon fill="none" stroke="#bfbfbf" points="739,-56.5 739,-75.5 795,-75.5 795,-56.5 739,-56.5"/>
<text text-anchor="middle" x="767" y="-63.5" font-family="Helvetica,sans-Serif" font-size="10.00">Rtypes.h</text>
</g>
<!-- Node8&#45;&gt;Node11 -->
<g id="edge11" class="edge"><title>Node8&#45;&gt;Node11</title>
<path fill="none" stroke="midnightblue" d="M628.601,-186.483C644.213,-171.136 678.432,-138.02 709,-112 721.374,-101.467 735.809,-90.264 747.183,-81.6705"/>
<polygon fill="midnightblue" stroke="midnightblue" points="749.297,-84.4605 755.199,-75.6622 745.098,-78.8592 749.297,-84.4605"/>
</g>
<!-- Node12 -->
<g id="node12" class="node"><title>Node12</title>
<polygon fill="none" stroke="#bfbfbf" points="195,-118.5 195,-137.5 263,-137.5 263,-118.5 195,-118.5"/>
<text text-anchor="middle" x="229" y="-125.5" font-family="Helvetica,sans-Serif" font-size="10.00">TRandom.h</text>
</g>
<!-- Node8&#45;&gt;Node12 -->
<g id="edge12" class="edge"><title>Node8&#45;&gt;Node12</title>
<path fill="none" stroke="midnightblue" d="M572.737,-186.44C560.162,-184.25 546.579,-181.961 534,-180 417.864,-161.899 386.278,-171.493 272,-144 268.325,-143.116 264.522,-142.039 260.768,-140.871"/>
<polygon fill="midnightblue" stroke="midnightblue" points="261.66,-137.479 251.066,-137.642 259.449,-144.121 261.66,-137.479"/>
</g>
<!-- Node13 -->
<g id="node13" class="node"><title>Node13</title>
<polygon fill="none" stroke="#bfbfbf" points="281.5,-118.5 281.5,-137.5 354.5,-137.5 354.5,-118.5 281.5,-118.5"/>
<text text-anchor="middle" x="318" y="-125.5" font-family="Helvetica,sans-Serif" font-size="10.00">TRandom1.h</text>
</g>
<!-- Node8&#45;&gt;Node13 -->
<g id="edge13" class="edge"><title>Node8&#45;&gt;Node13</title>
<path fill="none" stroke="midnightblue" d="M573.333,-186.469C510.486,-174.855 402.026,-154.333 363,-144 359.169,-142.986 355.188,-141.823 351.249,-140.603"/>
<polygon fill="midnightblue" stroke="midnightblue" points="352.244,-137.246 341.652,-137.505 350.094,-143.908 352.244,-137.246"/>
</g>
<!-- Node14 -->
<g id="node14" class="node"><title>Node14</title>
<polygon fill="none" stroke="#bfbfbf" points="372.5,-118.5 372.5,-137.5 445.5,-137.5 445.5,-118.5 372.5,-118.5"/>
<text text-anchor="middle" x="409" y="-125.5" font-family="Helvetica,sans-Serif" font-size="10.00">TRandom3.h</text>
</g>
<!-- Node8&#45;&gt;Node14 -->
<g id="edge14" class="edge"><title>Node8&#45;&gt;Node14</title>
<path fill="none" stroke="midnightblue" d="M591.443,-186.451C558.318,-176.482 502.094,-159.401 454,-144 450.684,-142.938 447.236,-141.818 443.79,-140.687"/>
<polygon fill="midnightblue" stroke="midnightblue" points="444.787,-137.331 434.194,-137.515 442.59,-143.977 444.787,-137.331"/>
</g>
<!-- Node15&#45;&gt;Node11 -->
<g id="edge16" class="edge"><title>Node15&#45;&gt;Node11</title>
<path fill="none" stroke="midnightblue" d="M767,-118.403C767,-109.938 767,-96.7283 767,-85.8199"/>
<polygon fill="midnightblue" stroke="midnightblue" points="770.5,-85.5806 767,-75.5806 763.5,-85.5806 770.5,-85.5806"/>
</g>
<!-- Node16&#45;&gt;Node11 -->
<g id="edge18" class="edge"><title>Node16&#45;&gt;Node11</title>
<path fill="none" stroke="midnightblue" d="M58.6722,-186.485C58.5253,-169.261 60.917,-130.363 84,-112 134.535,-71.7979 591.649,-67.4232 728.477,-67.0185"/>
<polygon fill="midnightblue" stroke="midnightblue" points="728.883,-70.5176 738.874,-66.9937 728.866,-63.5176 728.883,-70.5176"/>
</g>
<!-- Node19&#45;&gt;Node11 -->
<g id="edge22" class="edge"><title>Node19&#45;&gt;Node11</title>
<path fill="none" stroke="midnightblue" d="M1042.2,-180.938C1090.26,-169.445 1149.79,-153.582 1157,-144 1165.55,-132.636 1166.46,-122.617 1157,-112 1133.83,-86.0027 899.093,-72.8343 805.359,-68.5803"/>
<polygon fill="midnightblue" stroke="midnightblue" points="805.315,-65.075 795.17,-68.128 805.005,-72.0682 805.315,-65.075"/>
</g>
<!-- Node20 -->
<g id="node20" class="node"><title>Node20</title>
<polygon fill="none" stroke="#bfbfbf" points="1383,-56.5 1383,-75.5 1429,-75.5 1429,-56.5 1383,-56.5"/>
<text text-anchor="middle" x="1406" y="-63.5" font-family="Helvetica,sans-Serif" font-size="10.00">cstdint</text>
</g>
<!-- Node19&#45;&gt;Node20 -->
<g id="edge23" class="edge"><title>Node19&#45;&gt;Node20</title>
<path fill="none" stroke="midnightblue" d="M1042.28,-181.492C1045.22,-180.964 1048.14,-180.463 1051,-180 1121.2,-168.637 1311.03,-185.194 1369,-144 1388.22,-130.341 1397.84,-103.945 1402.37,-85.9039"/>
<polygon fill="midnightblue" stroke="midnightblue" points="1405.83,-86.4582 1404.57,-75.9386 1399,-84.9477 1405.83,-86.4582"/>
</g>
<!-- Node21 -->
<g id="node21" class="node"><title>Node21</title>
<polygon fill="none" stroke="#bfbfbf" points="1416.5,-118.5 1416.5,-137.5 1457.5,-137.5 1457.5,-118.5 1416.5,-118.5"/>
<text text-anchor="middle" x="1437" y="-125.5" font-family="Helvetica,sans-Serif" font-size="10.00">ctime</text>
</g>
<!-- Node19&#45;&gt;Node21 -->
<g id="edge24" class="edge"><title>Node19&#45;&gt;Node21</title>
<path fill="none" stroke="midnightblue" d="M1042.27,-181.455C1045.22,-180.936 1048.14,-180.448 1051,-180 1205.93,-155.758 1250.2,-183.337 1402,-144 1404.82,-143.269 1407.71,-142.346 1410.55,-141.317"/>
<polygon fill="midnightblue" stroke="midnightblue" points="1411.95,-144.528 1419.92,-137.545 1409.33,-138.034 1411.95,-144.528"/>
</g>
<!-- Node22 -->
<g id="node22" class="node"><title>Node22</title>
<g id="a_node22"><a xlink:href="../../d4/dc6/LHCConstants_8h.html" target="_top" xlink:title="Header to collect LHC related constants. ">
<polygon fill="none" stroke="black" points="834,-118.5 834,-137.5 1012,-137.5 1012,-118.5 834,-118.5"/>
<text text-anchor="middle" x="923" y="-125.5" font-family="Helvetica,sans-Serif" font-size="10.00">CommonConstants/LHCConstants.h</text>
</a>
</g>
</g>
<!-- Node19&#45;&gt;Node22 -->
<g id="edge25" class="edge"><title>Node19&#45;&gt;Node22</title>
<path fill="none" stroke="midnightblue" d="M967.632,-180.679C958.744,-170.388 946.736,-156.484 937.414,-145.69"/>
<polygon fill="midnightblue" stroke="midnightblue" points="939.81,-143.109 930.624,-137.828 934.512,-147.684 939.81,-143.109"/>
</g>
<!-- Node23 -->
<g id="node23" class="node"><title>Node23</title>
<g id="a_node23"><a xlink:href="../../da/d58/Units_8h.html" target="_top" xlink:title="Header to collect definitions for different units. ">
<polygon fill="none" stroke="black" points="1030,-118.5 1030,-137.5 1148,-137.5 1148,-118.5 1030,-118.5"/>
<text text-anchor="middle" x="1089" y="-125.5" font-family="Helvetica,sans-Serif" font-size="10.00">CommonTypes/Units.h</text>
</a>
</g>
</g>
<!-- Node19&#45;&gt;Node23 -->
<g id="edge26" class="edge"><title>Node19&#45;&gt;Node23</title>
<path fill="none" stroke="midnightblue" d="M1003.38,-180.841C1021.9,-169.63 1047.62,-154.056 1066.03,-142.91"/>
<polygon fill="midnightblue" stroke="midnightblue" points="1067.92,-145.855 1074.66,-137.682 1064.29,-139.868 1067.92,-145.855"/>
</g>
<!-- Node24 -->
<g id="node24" class="node"><title>Node24</title>
<g id="a_node24"><a xlink:href="../../d6/d31/DetID_8h.html" target="_top" xlink:title="DetectorsCommonDataFormats\l/DetID.h">
<polygon fill="none" stroke="black" points="1204,-113 1204,-143 1360,-143 1360,-113 1204,-113"/>
<text text-anchor="start" x="1212" y="-131" font-family="Helvetica,sans-Serif" font-size="10.00">DetectorsCommonDataFormats</text>
<text text-anchor="middle" x="1282" y="-120" font-family="Helvetica,sans-Serif" font-size="10.00">/DetID.h</text>
</a>
</g>
</g>
<!-- Node19&#45;&gt;Node24 -->
<g id="edge27" class="edge"><title>Node19&#45;&gt;Node24</title>
<path fill="none" stroke="midnightblue" d="M1042.21,-181.405C1090.29,-170.898 1156.99,-156.32 1207.84,-145.207"/>
<polygon fill="midnightblue" stroke="midnightblue" points="1208.77,-148.587 1217.79,-143.033 1207.27,-141.749 1208.77,-148.587"/>
</g>
<!-- Node24&#45;&gt;Node11 -->
<g id="edge28" class="edge"><title>Node24&#45;&gt;Node11</title>
<path fill="none" stroke="midnightblue" d="M1203.75,-113.938C1199.1,-113.256 1194.49,-112.604 1190,-112 1048.56,-92.9611 879.621,-77.0238 805.295,-70.3543"/>
<polygon fill="midnightblue" stroke="midnightblue" points="805.302,-66.8411 795.03,-69.4383 804.679,-73.8134 805.302,-66.8411"/>
</g>
<!-- Node24&#45;&gt;Node20 -->
<g id="edge32" class="edge"><title>Node24&#45;&gt;Node20</title>
<path fill="none" stroke="midnightblue" d="M1311.07,-112.933C1331.62,-102.991 1358.96,-89.7601 1379.02,-80.0526"/>
<polygon fill="midnightblue" stroke="midnightblue" points="1380.75,-83.1063 1388.23,-75.6 1377.7,-76.8051 1380.75,-83.1063"/>
</g>
<!-- Node25 -->
<g id="node25" class="node"><title>Node25</title>
<polygon fill="none" stroke="#bfbfbf" points="1363,-0.5 1363,-19.5 1401,-19.5 1401,-0.5 1363,-0.5"/>
<text text-anchor="middle" x="1382" y="-7.5" font-family="Helvetica,sans-Serif" font-size="10.00">array</text>
</g>
<!-- Node24&#45;&gt;Node25 -->
<g id="edge29" class="edge"><title>Node24&#45;&gt;Node25</title>
<path fill="none" stroke="midnightblue" d="M1298.89,-112.617C1309.98,-102.809 1324.5,-89.2434 1336,-76 1349.13,-60.8787 1362.13,-42.0604 1370.94,-28.5693"/>
<polygon fill="midnightblue" stroke="midnightblue" points="1374.1,-30.1222 1376.56,-19.8163 1368.21,-26.3404 1374.1,-30.1222"/>
</g>
<!-- Node26 -->
<g id="node26" class="node"><title>Node26</title>
<polygon fill="none" stroke="#bfbfbf" points="1030.5,-56.5 1030.5,-75.5 1071.5,-75.5 1071.5,-56.5 1030.5,-56.5"/>
<text text-anchor="middle" x="1051" y="-63.5" font-family="Helvetica,sans-Serif" font-size="10.00">bitset</text>
</g>
<!-- Node24&#45;&gt;Node26 -->
<g id="edge30" class="edge"><title>Node24&#45;&gt;Node26</title>
<path fill="none" stroke="midnightblue" d="M1223,-112.987C1184.97,-103.751 1134.24,-91.0562 1081.44,-76.306"/>
<polygon fill="midnightblue" stroke="midnightblue" points="1082.13,-72.8651 1071.55,-73.5283 1080.23,-79.6039 1082.13,-72.8651"/>
</g>
<!-- Node27 -->
<g id="node27" class="node"><title>Node27</title>
<polygon fill="none" stroke="#bfbfbf" points="1089.5,-56.5 1089.5,-75.5 1138.5,-75.5 1138.5,-56.5 1089.5,-56.5"/>
<text text-anchor="middle" x="1114" y="-63.5" font-family="Helvetica,sans-Serif" font-size="10.00">cassert</text>
</g>
<!-- Node24&#45;&gt;Node27 -->
<g id="edge31" class="edge"><title>Node24&#45;&gt;Node27</title>
<path fill="none" stroke="midnightblue" d="M1242.61,-112.933C1213.76,-102.629 1175.02,-88.7935 1147.62,-79.0079"/>
<polygon fill="midnightblue" stroke="midnightblue" points="1148.67,-75.6674 1138.08,-75.6 1146.32,-82.2596 1148.67,-75.6674"/>
</g>
<!-- Node28 -->
<g id="node28" class="node"><title>Node28</title>
<polygon fill="none" stroke="#bfbfbf" points="1157,-56.5 1157,-75.5 1219,-75.5 1219,-56.5 1157,-56.5"/>
<text text-anchor="middle" x="1188" y="-63.5" font-family="Helvetica,sans-Serif" font-size="10.00">type_traits</text>
</g>
<!-- Node24&#45;&gt;Node28 -->
<g id="edge33" class="edge"><title>Node24&#45;&gt;Node28</title>
<path fill="none" stroke="midnightblue" d="M1259.72,-112.781C1244.71,-103.196 1224.98,-90.6062 1210.02,-81.0555"/>
<polygon fill="midnightblue" stroke="midnightblue" points="1211.72,-77.9859 1201.4,-75.5557 1207.95,-83.8863 1211.72,-77.9859"/>
</g>
<!-- Node29 -->
<g id="node29" class="node"><title>Node29</title>
<g id="a_node29"><a xlink:href="../../d9/d52/Common_2MathUtils_2include_2MathUtils_2Utils_8h.html" target="_top" xlink:title="MathUtils/Utils.h">
<polygon fill="none" stroke="black" points="1237,-56.5 1237,-75.5 1327,-75.5 1327,-56.5 1237,-56.5"/>
<text text-anchor="middle" x="1282" y="-63.5" font-family="Helvetica,sans-Serif" font-size="10.00">MathUtils/Utils.h</text>
</a>
</g>
</g>
<!-- Node24&#45;&gt;Node29 -->
<g id="edge34" class="edge"><title>Node24&#45;&gt;Node29</title>
<path fill="none" stroke="midnightblue" d="M1282,-112.781C1282,-104.781 1282,-94.6887 1282,-86.0168"/>
<polygon fill="midnightblue" stroke="midnightblue" points="1285.5,-85.7305 1282,-75.7305 1278.5,-85.7306 1285.5,-85.7305"/>
</g>
<!-- Node29&#45;&gt;Node25 -->
<g id="edge35" class="edge"><title>Node29&#45;&gt;Node25</title>
<path fill="none" stroke="midnightblue" d="M1298.07,-56.324C1313.96,-47.7428 1338.51,-34.486 1356.96,-24.5224"/>
<polygon fill="midnightblue" stroke="midnightblue" points="1358.84,-27.4857 1365.97,-19.6545 1355.51,-21.3264 1358.84,-27.4857"/>
</g>
<!-- Node30 -->
<g id="node30" class="node"><title>Node30</title>
<polygon fill="none" stroke="#bfbfbf" points="1103,-0.5 1103,-19.5 1147,-19.5 1147,-0.5 1103,-0.5"/>
<text text-anchor="middle" x="1125" y="-7.5" font-family="Helvetica,sans-Serif" font-size="10.00">cmath</text>
</g>
<!-- Node29&#45;&gt;Node30 -->
<g id="edge36" class="edge"><title>Node29&#45;&gt;Node30</title>
<path fill="none" stroke="midnightblue" d="M1257.12,-56.4435C1229.93,-47.0919 1186.31,-32.0859 1156.69,-21.8984"/>
<polygon fill="midnightblue" stroke="midnightblue" points="1157.82,-18.5862 1147.22,-18.6433 1155.54,-25.2056 1157.82,-18.5862"/>
</g>
<!-- Node31 -->
<g id="node31" class="node"><title>Node31</title>
<g id="a_node31"><a xlink:href="../../d6/d84/MathConstants_8h.html" target="_top" xlink:title="useful math constants ">
<polygon fill="none" stroke="black" points="1165.5,-0.5 1165.5,-19.5 1344.5,-19.5 1344.5,-0.5 1165.5,-0.5"/>
<text text-anchor="middle" x="1255" y="-7.5" font-family="Helvetica,sans-Serif" font-size="10.00">CommonConstants/MathConstants.h</text>
</a>
</g>
</g>
<!-- Node29&#45;&gt;Node31 -->
<g id="edge37" class="edge"><title>Node29&#45;&gt;Node31</title>
<path fill="none" stroke="midnightblue" d="M1277.54,-56.083C1273.85,-48.6913 1268.48,-37.9533 1263.91,-28.8111"/>
<polygon fill="midnightblue" stroke="midnightblue" points="1266.98,-27.1301 1259.38,-19.7511 1260.72,-30.2606 1266.98,-27.1301"/>
</g>
</g>
</svg>
        <g id="navigator" transform="translate(0 0)" fill="#404254">
                <rect fill="#f2f5e9" fill-opacity="0.5" stroke="#606060" stroke-width=".5" x="0" y="0" width="60" height="60"/>
                <use id="zoomplus" xlink:href="#zoomPlus" x="17" y="9" onmousedown="handleZoom(evt,'in')"/>
                <use id="zoomminus" xlink:href="#zoomMin" x="42" y="9" onmousedown="handleZoom(evt,'out')"/>
                <use id="reset" xlink:href="#resetDef" x="30" y="36" onmousedown="handleReset()"/>
                <g id="arrowUp" xlink:href="#dirArrow" transform="translate(30 24)" onmousedown="handlePan(0,-1)">
                  <use xlink:href="#rim" fill="#404040">
                        <set attributeName="fill" to="#808080" begin="arrowUp.mouseover" end="arrowUp.mouseout"/>
                  </use>
                  <path fill="none" stroke="white" stroke-width="1.5" d="M0,-3.0v7 M-2.5,-0.5L0,-3.0L2.5,-0.5"/>
                </g>
                <g id="arrowRight" xlink:href="#dirArrow" transform="rotate(90) translate(36 -43)" onmousedown="handlePan(1,0)">
                  <use xlink:href="#rim" fill="#404040">
                        <set attributeName="fill" to="#808080" begin="arrowRight.mouseover" end="arrowRight.mouseout"/>
                  </use>
                  <path fill="none" stroke="white" stroke-width="1.5" d="M0,-3.0v7 M-2.5,-0.5L0,-3.0L2.5,-0.5"/>
                </g>
                <g id="arrowDown" xlink:href="#dirArrow" transform="rotate(180) translate(-30 -48)" onmousedown="handlePan(0,1)">
                  <use xlink:href="#rim" fill="#404040">
                        <set attributeName="fill" to="#808080" begin="arrowDown.mouseover" end="arrowDown.mouseout"/>
                  </use>
                  <path fill="none" stroke="white" stroke-width="1.5" d="M0,-3.0v7 M-2.5,-0.5L0,-3.0L2.5,-0.5"/>
                </g>
                <g id="arrowLeft" xlink:href="#dirArrow" transform="rotate(270) translate(-36 17)" onmousedown="handlePan(-1,0)">
                  <use xlink:href="#rim" fill="#404040">
                        <set attributeName="fill" to="#808080" begin="arrowLeft.mouseover" end="arrowLeft.mouseout"/>
                  </use>
                  <path fill="none" stroke="white" stroke-width="1.5" d="M0,-3.0v7 M-2.5,-0.5L0,-3.0L2.5,-0.5"/>
                </g>
        </g>
        <svg viewBox="0 0 15 15" width="100%" height="30px" preserveAspectRatio="xMaxYMin meet">
         <g id="arrow_out" transform="scale(0.3 0.3)">
          <a xlink:href="o2sim_8cxx__incl_org.svg" target="_base">
           <rect id="button" ry="5" rx="5" y="6" x="6" height="38" width="38"
                fill="#f2f5e9" fill-opacity="0.5" stroke="#606060" stroke-width="1.0"/>
           <path id="arrow"
             d="M 11.500037,31.436501 C 11.940474,20.09759 22.043105,11.32322 32.158766,21.979434 L 37.068811,17.246167 C 37.068811,17.246167 37.088388,32 37.088388,32 L 22.160133,31.978069 C 22.160133,31.978069 26.997745,27.140456 26.997745,27.140456 C 18.528582,18.264221 13.291696,25.230495 11.500037,31.436501 z"
             style="fill:#404040;"/>
          </a>
         </g>
        </svg>
</svg>
