<?xml version="1.0" encoding="UTF-8" standalone="no"?>
<!DOCTYPE svg PUBLIC "-//W3C//DTD SVG 1.1//EN"
 "http://www.w3.org/Graphics/SVG/1.1/DTD/svg11.dtd">
<!-- Generated by graphviz version 2.36.0 (20140111.2315)
 -->
<!-- Title: /home/travis/build/AliceO2Group/AliceO2/Detectors/ITSMFT/MFT/simulation/include/MFTSimulation/DigitizerTask.h Pages: 1 -->
<!--zoomable 468 -->
<svg id="main" version="1.1" xmlns="http://www.w3.org/2000/svg" xmlns:xlink="http://www.w3.org/1999/xlink" xml:space="preserve" onload="init(evt)">
<style type="text/css"><![CDATA[
.edge:hover path { stroke: red; }
.edge:hover polygon { stroke: red; fill: red; }
]]></style>
<script type="text/javascript"><![CDATA[
var edges = document.getElementsByTagName('g');
if (edges && edges.length) {
  for (var i=0;i<edges.length;i++) {
    if (edges[i].id.substr(0,4)=='edge') {
      edges[i].setAttribute('class','edge');
    }
  }
}
]]></script>
        <defs>
                <circle id="rim" cx="0" cy="0" r="7"/>
                <circle id="rim2" cx="0" cy="0" r="3.5"/>
                <g id="zoomPlus">
                        <use xlink:href="#rim" fill="#404040">
                                <set attributeName="fill" to="#808080" begin="zoomplus.mouseover" end="zoomplus.mouseout"/>
                        </use>
                        <path d="M-4,0h8M0,-4v8" fill="none" stroke="white" stroke-width="1.5" pointer-events="none"/>
                </g>
                <g id="zoomMin">
                        <use xlink:href="#rim" fill="#404040">
                                <set attributeName="fill" to="#808080" begin="zoomminus.mouseover" end="zoomminus.mouseout"/>
                        </use>
                        <path d="M-4,0h8" fill="none" stroke="white" stroke-width="1.5" pointer-events="none"/>
                </g>
                <g id="dirArrow">
                        <path fill="none" stroke="white" stroke-width="1.5" d="M0,-3.0v7 M-2.5,-0.5L0,-3.0L2.5,-0.5"/>
                </g>
               <g id="resetDef">
                       <use xlink:href="#rim2" fill="#404040">
                               <set attributeName="fill" to="#808080" begin="reset.mouseover" end="reset.mouseout"/>
                       </use>
               </g>
        </defs>

<script type="text/javascript">
var viewWidth = 2322;
var viewHeight = 468;
var sectionId = 'dynsection-0';
</script>
<script xlink:href="../../svgpan.js"/>
<svg id="graph" class="graph">
<g id="viewport">
<title>/home/travis/build/AliceO2Group/AliceO2/Detectors/ITSMFT/MFT/simulation/include/MFTSimulation/DigitizerTask.h</title>
<!-- Node1 -->
<g id="node1" class="node"><title>Node1</title>
<polygon fill="#bfbfbf" stroke="black" points="1701.5,-396.5 1701.5,-459.5 1868.5,-459.5 1868.5,-396.5 1701.5,-396.5"/>
<text text-anchor="start" x="1709.5" y="-447.5" font-family="Helvetica,sans-Serif" font-size="10.00">/home/travis/build</text>
<text text-anchor="start" x="1709.5" y="-436.5" font-family="Helvetica,sans-Serif" font-size="10.00">/AliceO2Group/AliceO2</text>
<text text-anchor="start" x="1709.5" y="-425.5" font-family="Helvetica,sans-Serif" font-size="10.00">/Detectors/ITSMFT/MFT</text>
<text text-anchor="start" x="1709.5" y="-414.5" font-family="Helvetica,sans-Serif" font-size="10.00">/simulation/include/MFTSimulation</text>
<text text-anchor="middle" x="1785" y="-403.5" font-family="Helvetica,sans-Serif" font-size="10.00">/DigitizerTask.h</text>
</g>
<!-- Node2 -->
<g id="node2" class="node"><title>Node2</title>
<polygon fill="none" stroke="#bfbfbf" points="1569.5,-340.5 1569.5,-359.5 1612.5,-359.5 1612.5,-340.5 1569.5,-340.5"/>
<text text-anchor="middle" x="1591" y="-347.5" font-family="Helvetica,sans-Serif" font-size="10.00">cstdio</text>
</g>
<!-- Node1&#45;&gt;Node2 -->
<g id="edge1" class="edge"><title>Node1&#45;&gt;Node2</title>
<path fill="none" stroke="midnightblue" d="M1706.93,-396.416C1677.22,-384.775 1645.03,-372.168 1622.13,-363.197"/>
<polygon fill="midnightblue" stroke="midnightblue" points="1623.2,-359.857 1612.62,-359.468 1620.65,-366.374 1623.2,-359.857"/>
</g>
<!-- Node3 -->
<g id="node3" class="node"><title>Node3</title>
<polygon fill="none" stroke="#bfbfbf" points="1630.5,-340.5 1630.5,-359.5 1693.5,-359.5 1693.5,-340.5 1630.5,-340.5"/>
<text text-anchor="middle" x="1662" y="-347.5" font-family="Helvetica,sans-Serif" font-size="10.00">FairTask.h</text>
</g>
<!-- Node1&#45;&gt;Node3 -->
<g id="edge2" class="edge"><title>Node1&#45;&gt;Node3</title>
<path fill="none" stroke="midnightblue" d="M1735.33,-396.307C1717.71,-385.425 1698.76,-373.713 1684.53,-364.923"/>
<polygon fill="midnightblue" stroke="midnightblue" points="1686.28,-361.886 1675.93,-359.607 1682.6,-367.841 1686.28,-361.886"/>
</g>
<!-- Node4 -->
<g id="node4" class="node"><title>Node4</title>
<polygon fill="none" stroke="#bfbfbf" points="1894,-6.5 1894,-25.5 1950,-25.5 1950,-6.5 1894,-6.5"/>
<text text-anchor="middle" x="1922" y="-13.5" font-family="Helvetica,sans-Serif" font-size="10.00">Rtypes.h</text>
</g>
<!-- Node1&#45;&gt;Node4 -->
<g id="edge3" class="edge"><title>Node1&#45;&gt;Node4</title>
<path fill="none" stroke="midnightblue" d="M1868.53,-422.461C2017.6,-412.058 2314,-379.939 2314,-289 2314,-289 2314,-289 2314,-151 2314,-110.791 2309.96,-92.3956 2278,-68 2228.78,-30.4324 2042.13,-20.4635 1960.55,-17.8788"/>
<polygon fill="midnightblue" stroke="midnightblue" points="1960.32,-14.3705 1950.22,-17.5734 1960.11,-21.3674 1960.32,-14.3705"/>
</g>
<!-- Node5 -->
<g id="node5" class="node"><title>Node5</title>
<g id="a_node5"><a xlink:href="../../df/d29/DigiParams_8h.html" target="_top" xlink:title="Simulation parameters for the ALIPIDE chip. ">
<polygon fill="none" stroke="black" points="2007.5,-278.5 2007.5,-297.5 2168.5,-297.5 2168.5,-278.5 2007.5,-278.5"/>
<text text-anchor="middle" x="2088" y="-285.5" font-family="Helvetica,sans-Serif" font-size="10.00">ITSMFTSimulation/DigiParams.h</text>
</a>
</g>
</g>
<!-- Node1&#45;&gt;Node5 -->
<g id="edge4" class="edge"><title>Node1&#45;&gt;Node5</title>
<path fill="none" stroke="midnightblue" d="M1852.25,-396.373C1917.35,-366.72 2012.9,-323.203 2059.85,-301.82"/>
<polygon fill="midnightblue" stroke="midnightblue" points="2061.45,-304.937 2069.1,-297.606 2058.55,-298.566 2061.45,-304.937"/>
</g>
<!-- Node6 -->
<g id="node6" class="node"><title>Node6</title>
<g id="a_node6"><a xlink:href="../../d7/d9c/ITSMFT_2common_2simulation_2include_2ITSMFTSimulation_2Digitizer_8h.html" target="_top" xlink:title="ITSMFTSimulation/Digitizer.h">
<polygon fill="none" stroke="black" points="1712,-340.5 1712,-359.5 1858,-359.5 1858,-340.5 1712,-340.5"/>
<text text-anchor="middle" x="1785" y="-347.5" font-family="Helvetica,sans-Serif" font-size="10.00">ITSMFTSimulation/Digitizer.h</text>
</a>
</g>
</g>
<!-- Node1&#45;&gt;Node6 -->
<g id="edge6" class="edge"><title>Node1&#45;&gt;Node6</title>
<path fill="none" stroke="midnightblue" d="M1785,-396.088C1785,-387.15 1785,-377.669 1785,-369.719"/>
<polygon fill="midnightblue" stroke="midnightblue" points="1788.5,-369.718 1785,-359.718 1781.5,-369.718 1788.5,-369.718"/>
</g>
<!-- Node5&#45;&gt;Node4 -->
<g id="edge5" class="edge"><title>Node5&#45;&gt;Node4</title>
<path fill="none" stroke="midnightblue" d="M2104.04,-278.393C2157.81,-248.496 2324.61,-146.678 2257,-68 2219.07,-23.8563 2039.64,-17.484 1960.11,-16.8662"/>
<polygon fill="midnightblue" stroke="midnightblue" points="1960.04,-13.366 1950.02,-16.8149 1960.01,-20.3659 1960.04,-13.366"/>
</g>
<!-- Node6&#45;&gt;Node4 -->
<g id="edge9" class="edge"><title>Node6&#45;&gt;Node4</title>
<path fill="none" stroke="midnightblue" d="M1779.22,-340.27C1759.41,-309.15 1698.03,-201.986 1746,-136 1776.5,-94.0501 1814.49,-129.712 1857,-100 1881.67,-82.7574 1901.47,-53.4184 1912.47,-34.6384"/>
<polygon fill="midnightblue" stroke="midnightblue" points="1915.67,-36.0973 1917.53,-25.6676 1909.57,-32.6588 1915.67,-36.0973"/>
</g>
<!-- Node6&#45;&gt;Node5 -->
<g id="edge44" class="edge"><title>Node6&#45;&gt;Node5</title>
<path fill="none" stroke="midnightblue" d="M1828.09,-340.467C1882.61,-329.671 1976.47,-311.086 2035.23,-299.45"/>
<polygon fill="midnightblue" stroke="midnightblue" points="2035.93,-302.879 2045.06,-297.503 2034.57,-296.013 2035.93,-302.879"/>
</g>
<!-- Node7 -->
<g id="node7" class="node"><title>Node7</title>
<polygon fill="none" stroke="#bfbfbf" points="1092,-142.5 1092,-161.5 1136,-161.5 1136,-142.5 1092,-142.5"/>
<text text-anchor="middle" x="1114" y="-149.5" font-family="Helvetica,sans-Serif" font-size="10.00">vector</text>
</g>
<!-- Node6&#45;&gt;Node7 -->
<g id="edge7" class="edge"><title>Node6&#45;&gt;Node7</title>
<path fill="none" stroke="midnightblue" d="M1770.44,-340.373C1755.73,-331.554 1732.48,-317.301 1713,-304 1693.33,-290.565 1691.7,-281.829 1670,-272 1645.53,-260.916 1260.59,-182.624 1145.96,-159.448"/>
<polygon fill="midnightblue" stroke="midnightblue" points="1146.53,-155.993 1136.04,-157.443 1145.15,-162.854 1146.53,-155.993"/>
</g>
<!-- Node8 -->
<g id="node8" class="node"><title>Node8</title>
<polygon fill="none" stroke="#bfbfbf" points="1609,-278.5 1609,-297.5 1661,-297.5 1661,-278.5 1609,-278.5"/>
<text text-anchor="middle" x="1635" y="-285.5" font-family="Helvetica,sans-Serif" font-size="10.00">memory</text>
</g>
<!-- Node6&#45;&gt;Node8 -->
<g id="edge8" class="edge"><title>Node6&#45;&gt;Node8</title>
<path fill="none" stroke="midnightblue" d="M1763.51,-340.403C1737.89,-330.156 1694.89,-312.956 1665.76,-301.302"/>
<polygon fill="midnightblue" stroke="midnightblue" points="1667.04,-298.045 1656.45,-297.581 1664.44,-304.544 1667.04,-298.045"/>
</g>
<!-- Node9 -->
<g id="node9" class="node"><title>Node9</title>
<polygon fill="none" stroke="#bfbfbf" points="2119.5,-142.5 2119.5,-161.5 2178.5,-161.5 2178.5,-142.5 2119.5,-142.5"/>
<text text-anchor="middle" x="2149" y="-149.5" font-family="Helvetica,sans-Serif" font-size="10.00">TObject.h</text>
</g>
<!-- Node6&#45;&gt;Node9 -->
<g id="edge10" class="edge"><title>Node6&#45;&gt;Node9</title>
<path fill="none" stroke="midnightblue" d="M1820.31,-340.487C1849.05,-332.877 1890.23,-320.399 1924,-304 2006.27,-264.047 2093.35,-197.69 2130.48,-168.075"/>
<polygon fill="midnightblue" stroke="midnightblue" points="2132.82,-170.687 2138.42,-161.694 2128.44,-165.23 2132.82,-170.687"/>
</g>
<!-- Node10 -->
<g id="node10" class="node"><title>Node10</title>
<g id="a_node10"><a xlink:href="../../d7/d9e/SimulationAlpide_8h.html" target="_top" xlink:title="Simulation of the ALIPIDE chip response. ">
<polygon fill="none" stroke="black" points="1768.5,-273 1768.5,-303 1915.5,-303 1915.5,-273 1768.5,-273"/>
<text text-anchor="start" x="1776.5" y="-291" font-family="Helvetica,sans-Serif" font-size="10.00">ITSMFTSimulation/Simulation</text>
<text text-anchor="middle" x="1842" y="-280" font-family="Helvetica,sans-Serif" font-size="10.00">Alpide.h</text>
</a>
</g>
</g>
<!-- Node6&#45;&gt;Node10 -->
<g id="edge11" class="edge"><title>Node6&#45;&gt;Node10</title>
<path fill="none" stroke="midnightblue" d="M1793.17,-340.403C1800.53,-332.657 1811.66,-320.938 1821.44,-310.645"/>
<polygon fill="midnightblue" stroke="midnightblue" points="1824.22,-312.801 1828.57,-303.141 1819.14,-307.98 1824.22,-312.801"/>
</g>
<!-- Node11 -->
<g id="node11" class="node"><title>Node11</title>
<g id="a_node11"><a xlink:href="../../dc/d1a/AlpideSimResponse_8h.html" target="_top" xlink:title="Definition of the ITSMFT Alpide simulated response parametrization. ">
<polygon fill="none" stroke="black" points="968,-205 968,-235 1114,-235 1114,-205 968,-205"/>
<text text-anchor="start" x="976" y="-223" font-family="Helvetica,sans-Serif" font-size="10.00">ITSMFTSimulation/AlpideSim</text>
<text text-anchor="middle" x="1041" y="-212" font-family="Helvetica,sans-Serif" font-size="10.00">Response.h</text>
</a>
</g>
</g>
<!-- Node6&#45;&gt;Node11 -->
<g id="edge43" class="edge"><title>Node6&#45;&gt;Node11</title>
<path fill="none" stroke="midnightblue" d="M1735.32,-340.453C1609.95,-318.884 1279.7,-262.067 1124.21,-235.315"/>
<polygon fill="midnightblue" stroke="midnightblue" points="1124.67,-231.844 1114.22,-233.598 1123.48,-238.742 1124.67,-231.844"/>
</g>
<!-- Node32 -->
<g id="node32" class="node"><title>Node32</title>
<g id="a_node32"><a xlink:href="../../d0/d2d/common_2base_2include_2ITSMFTBase_2GeometryTGeo_8h.html" target="_top" xlink:title="ITSMFTBase/GeometryTGeo.h">
<polygon fill="none" stroke="black" points="660.5,-278.5 660.5,-297.5 813.5,-297.5 813.5,-278.5 660.5,-278.5"/>
<text text-anchor="middle" x="737" y="-285.5" font-family="Helvetica,sans-Serif" font-size="10.00">ITSMFTBase/GeometryTGeo.h</text>
</a>
</g>
</g>
<!-- Node6&#45;&gt;Node32 -->
<g id="edge45" class="edge"><title>Node6&#45;&gt;Node32</title>
<path fill="none" stroke="midnightblue" d="M1711.7,-340.83C1708.42,-340.535 1705.18,-340.256 1702,-340 1378.54,-313.936 992.978,-298.143 823.809,-291.98"/>
<polygon fill="midnightblue" stroke="midnightblue" points="823.835,-288.479 813.715,-291.614 823.582,-295.474 823.835,-288.479"/>
</g>
<!-- Node10&#45;&gt;Node9 -->
<g id="edge12" class="edge"><title>Node10&#45;&gt;Node9</title>
<path fill="none" stroke="midnightblue" d="M1865.05,-272.923C1881.19,-262.915 1903.15,-248.996 1922,-236 1941.61,-222.477 1943.46,-214.181 1965,-204 2025.03,-175.623 2046.67,-187.957 2110,-168 2112.79,-167.121 2115.67,-166.147 2118.54,-165.13"/>
<polygon fill="midnightblue" stroke="midnightblue" points="2119.96,-168.335 2128.12,-161.578 2117.53,-161.772 2119.96,-168.335"/>
</g>
<!-- Node10&#45;&gt;Node11 -->
<g id="edge13" class="edge"><title>Node10&#45;&gt;Node11</title>
<path fill="none" stroke="midnightblue" d="M1768.35,-280.478C1737.91,-277.808 1702.26,-274.714 1670,-272 1474.54,-255.553 1244.84,-237.167 1124.38,-227.598"/>
<polygon fill="midnightblue" stroke="midnightblue" points="1124.38,-224.087 1114.13,-226.784 1123.82,-231.065 1124.38,-224.087"/>
</g>
<!-- Node14 -->
<g id="node14" class="node"><title>Node14</title>
<g id="a_node14"><a xlink:href="../../d9/d55/Chip_8h.html" target="_top" xlink:title="ITSMFTSimulation/Chip.h">
<polygon fill="none" stroke="black" points="1783,-210.5 1783,-229.5 1913,-229.5 1913,-210.5 1783,-210.5"/>
<text text-anchor="middle" x="1848" y="-217.5" font-family="Helvetica,sans-Serif" font-size="10.00">ITSMFTSimulation/Chip.h</text>
</a>
</g>
</g>
<!-- Node10&#45;&gt;Node14 -->
<g id="edge18" class="edge"><title>Node10&#45;&gt;Node14</title>
<path fill="none" stroke="midnightblue" d="M1843.3,-272.679C1844.17,-263.101 1845.33,-250.394 1846.27,-239.977"/>
<polygon fill="midnightblue" stroke="midnightblue" points="1849.78,-240.104 1847.2,-229.828 1842.81,-239.47 1849.78,-240.104"/>
</g>
<!-- Node11&#45;&gt;Node4 -->
<g id="edge17" class="edge"><title>Node11&#45;&gt;Node4</title>
<path fill="none" stroke="midnightblue" d="M970.28,-204.962C873.687,-182.889 719.446,-135.512 784,-68 822.836,-27.3843 1689.98,-18.6867 1883.81,-17.2476"/>
<polygon fill="midnightblue" stroke="midnightblue" points="1883.84,-20.7476 1893.81,-17.1754 1883.79,-13.7478 1883.84,-20.7476"/>
</g>
<!-- Node11&#45;&gt;Node7 -->
<g id="edge16" class="edge"><title>Node11&#45;&gt;Node7</title>
<path fill="none" stroke="midnightblue" d="M1056.84,-204.679C1068.56,-194.082 1084.52,-179.655 1096.59,-168.736"/>
<polygon fill="midnightblue" stroke="midnightblue" points="1099.16,-171.131 1104.24,-161.828 1094.47,-165.939 1099.16,-171.131"/>
</g>
<!-- Node12 -->
<g id="node12" class="node"><title>Node12</title>
<polygon fill="none" stroke="#bfbfbf" points="425,-6.5 425,-25.5 463,-25.5 463,-6.5 425,-6.5"/>
<text text-anchor="middle" x="444" y="-13.5" font-family="Helvetica,sans-Serif" font-size="10.00">array</text>
</g>
<!-- Node11&#45;&gt;Node12 -->
<g id="edge14" class="edge"><title>Node11&#45;&gt;Node12</title>
<path fill="none" stroke="midnightblue" d="M967.806,-215.291C907.56,-210.115 820.996,-197.712 751,-168 728.742,-158.552 729.152,-145.695 707,-136 631.862,-103.113 598.218,-138.882 526,-100 521.932,-97.8096 481.997,-56.5675 459.396,-33.0611"/>
<polygon fill="midnightblue" stroke="midnightblue" points="461.663,-30.3684 452.212,-25.5794 456.614,-35.2167 461.663,-30.3684"/>
</g>
<!-- Node13 -->
<g id="node13" class="node"><title>Node13</title>
<polygon fill="none" stroke="#bfbfbf" points="657.5,-142.5 657.5,-161.5 698.5,-161.5 698.5,-142.5 657.5,-142.5"/>
<text text-anchor="middle" x="678" y="-149.5" font-family="Helvetica,sans-Serif" font-size="10.00">string</text>
</g>
<!-- Node11&#45;&gt;Node13 -->
<g id="edge15" class="edge"><title>Node11&#45;&gt;Node13</title>
<path fill="none" stroke="midnightblue" d="M967.887,-212.926C900.659,-206.102 798.718,-192.609 713,-168 710.351,-167.24 707.637,-166.329 704.949,-165.337"/>
<polygon fill="midnightblue" stroke="midnightblue" points="706.074,-162.017 695.491,-161.514 703.45,-168.507 706.074,-162.017"/>
</g>
<!-- Node14&#45;&gt;Node7 -->
<g id="edge29" class="edge"><title>Node14&#45;&gt;Node7</title>
<path fill="none" stroke="midnightblue" d="M1782.72,-211.784C1757.79,-209.15 1729.1,-206.265 1703,-204 1475.3,-184.238 1416.56,-198.187 1190,-168 1175.45,-166.061 1159.48,-163.048 1145.96,-160.229"/>
<polygon fill="midnightblue" stroke="midnightblue" points="1146.67,-156.802 1136.16,-158.133 1145.21,-163.647 1146.67,-156.802"/>
</g>
<!-- Node14&#45;&gt;Node9 -->
<g id="edge25" class="edge"><title>Node14&#45;&gt;Node9</title>
<path fill="none" stroke="midnightblue" d="M1892.86,-210.479C1964.95,-196.756 2099.6,-170.986 2110,-168 2112.97,-167.146 2116.04,-166.161 2119.08,-165.112"/>
<polygon fill="midnightblue" stroke="midnightblue" points="2120.4,-168.354 2128.58,-161.624 2117.99,-161.782 2120.4,-168.354"/>
</g>
<!-- Node15 -->
<g id="node15" class="node"><title>Node15</title>
<g id="a_node15"><a xlink:href="../../d0/d06/ITSMFT_2common_2base_2include_2ITSMFTBase_2Digit_8h.html" target="_top" xlink:title="ITSMFTBase/Digit.h">
<polygon fill="none" stroke="black" points="1994.5,-142.5 1994.5,-161.5 2101.5,-161.5 2101.5,-142.5 1994.5,-142.5"/>
<text text-anchor="middle" x="2048" y="-149.5" font-family="Helvetica,sans-Serif" font-size="10.00">ITSMFTBase/Digit.h</text>
</a>
</g>
</g>
<!-- Node14&#45;&gt;Node15 -->
<g id="edge19" class="edge"><title>Node14&#45;&gt;Node15</title>
<path fill="none" stroke="midnightblue" d="M1874.15,-210.372C1909.58,-198.679 1972.96,-177.762 2012.62,-164.674"/>
<polygon fill="midnightblue" stroke="midnightblue" points="2013.76,-167.983 2022.16,-161.526 2011.57,-161.336 2013.76,-167.983"/>
</g>
<!-- Node16 -->
<g id="node16" class="node"><title>Node16</title>
<g id="a_node16"><a xlink:href="../../d7/dcd/MCCompLabel_8h.html" target="_top" xlink:title="SimulationDataFormat\l/MCCompLabel.h">
<polygon fill="none" stroke="black" points="1908,-69 1908,-99 2022,-99 2022,-69 1908,-69"/>
<text text-anchor="start" x="1916" y="-87" font-family="Helvetica,sans-Serif" font-size="10.00">SimulationDataFormat</text>
<text text-anchor="middle" x="1965" y="-76" font-family="Helvetica,sans-Serif" font-size="10.00">/MCCompLabel.h</text>
</a>
</g>
</g>
<!-- Node14&#45;&gt;Node16 -->
<g id="edge42" class="edge"><title>Node14&#45;&gt;Node16</title>
<path fill="none" stroke="midnightblue" d="M1879.08,-210.487C1901.01,-202.884 1929.34,-189.549 1946,-168 1958.95,-151.243 1963.36,-127.247 1964.73,-109.363"/>
<polygon fill="midnightblue" stroke="midnightblue" points="1968.23,-109.298 1965.24,-99.1359 1961.24,-108.949 1968.23,-109.298"/>
</g>
<!-- Node18 -->
<g id="node18" class="node"><title>Node18</title>
<polygon fill="none" stroke="#bfbfbf" points="1825.5,-142.5 1825.5,-161.5 1884.5,-161.5 1884.5,-142.5 1825.5,-142.5"/>
<text text-anchor="middle" x="1855" y="-149.5" font-family="Helvetica,sans-Serif" font-size="10.00">exception</text>
</g>
<!-- Node14&#45;&gt;Node18 -->
<g id="edge26" class="edge"><title>Node14&#45;&gt;Node18</title>
<path fill="none" stroke="midnightblue" d="M1848.92,-210.372C1849.95,-200.643 1851.66,-184.528 1853,-171.85"/>
<polygon fill="midnightblue" stroke="midnightblue" points="1856.49,-172.155 1854.06,-161.841 1849.53,-171.416 1856.49,-172.155"/>
</g>
<!-- Node19 -->
<g id="node19" class="node"><title>Node19</title>
<polygon fill="none" stroke="#bfbfbf" points="1902.5,-142.5 1902.5,-161.5 1937.5,-161.5 1937.5,-142.5 1902.5,-142.5"/>
<text text-anchor="middle" x="1920" y="-149.5" font-family="Helvetica,sans-Serif" font-size="10.00">map</text>
</g>
<!-- Node14&#45;&gt;Node19 -->
<g id="edge27" class="edge"><title>Node14&#45;&gt;Node19</title>
<path fill="none" stroke="midnightblue" d="M1857.41,-210.372C1868.88,-199.856 1888.49,-181.882 1902.71,-168.85"/>
<polygon fill="midnightblue" stroke="midnightblue" points="1905.35,-171.178 1910.36,-161.841 1900.62,-166.018 1905.35,-171.178"/>
</g>
<!-- Node20 -->
<g id="node20" class="node"><title>Node20</title>
<polygon fill="none" stroke="#bfbfbf" points="1755,-142.5 1755,-161.5 1807,-161.5 1807,-142.5 1755,-142.5"/>
<text text-anchor="middle" x="1781" y="-149.5" font-family="Helvetica,sans-Serif" font-size="10.00">sstream</text>
</g>
<!-- Node14&#45;&gt;Node20 -->
<g id="edge28" class="edge"><title>Node14&#45;&gt;Node20</title>
<path fill="none" stroke="midnightblue" d="M1839.24,-210.372C1828.67,-199.955 1810.66,-182.217 1797.46,-169.216"/>
<polygon fill="midnightblue" stroke="midnightblue" points="1799.56,-166.365 1789.98,-161.841 1794.64,-171.352 1799.56,-166.365"/>
</g>
<!-- Node21 -->
<g id="node21" class="node"><title>Node21</title>
<g id="a_node21"><a xlink:href="../../dd/d76/Cartesian3D_8h.html" target="_top" xlink:title="MathUtils/Cartesian3D.h">
<polygon fill="none" stroke="black" points="1199.5,-142.5 1199.5,-161.5 1324.5,-161.5 1324.5,-142.5 1199.5,-142.5"/>
<text text-anchor="middle" x="1262" y="-149.5" font-family="Helvetica,sans-Serif" font-size="10.00">MathUtils/Cartesian3D.h</text>
</a>
</g>
</g>
<!-- Node14&#45;&gt;Node21 -->
<g id="edge30" class="edge"><title>Node14&#45;&gt;Node21</title>
<path fill="none" stroke="midnightblue" d="M1782.77,-211.653C1672.43,-199.226 1449.77,-174.149 1334.63,-161.18"/>
<polygon fill="midnightblue" stroke="midnightblue" points="1334.84,-157.681 1324.51,-160.04 1334.05,-164.637 1334.84,-157.681"/>
</g>
<!-- Node15&#45;&gt;Node4 -->
<g id="edge20" class="edge"><title>Node15&#45;&gt;Node4</title>
<path fill="none" stroke="midnightblue" d="M2048.62,-142.19C2049.3,-125.777 2048.48,-90.178 2031,-68 2013.46,-45.7477 1983.91,-32.759 1960,-25.4641"/>
<polygon fill="midnightblue" stroke="midnightblue" points="1960.72,-22.0318 1950.15,-22.6759 1958.82,-28.7672 1960.72,-22.0318"/>
</g>
<!-- Node15&#45;&gt;Node16 -->
<g id="edge21" class="edge"><title>Node15&#45;&gt;Node16</title>
<path fill="none" stroke="midnightblue" d="M2037.15,-142.372C2025.51,-133.114 2006.6,-118.076 1991.05,-105.718"/>
<polygon fill="midnightblue" stroke="midnightblue" points="1992.84,-102.666 1982.83,-99.1815 1988.48,-108.145 1992.84,-102.666"/>
</g>
<!-- Node17 -->
<g id="node17" class="node"><title>Node17</title>
<g id="a_node17"><a xlink:href="../../df/d5d/common_2include_2CommonDataFormat_2TimeStamp_8h.html" target="_top" xlink:title="CommonDataFormat/TimeStamp.h">
<polygon fill="none" stroke="black" points="2078,-74.5 2078,-93.5 2248,-93.5 2248,-74.5 2078,-74.5"/>
<text text-anchor="middle" x="2163" y="-81.5" font-family="Helvetica,sans-Serif" font-size="10.00">CommonDataFormat/TimeStamp.h</text>
</a>
</g>
</g>
<!-- Node15&#45;&gt;Node17 -->
<g id="edge23" class="edge"><title>Node15&#45;&gt;Node17</title>
<path fill="none" stroke="midnightblue" d="M2063.03,-142.372C2082.41,-131.254 2116.3,-111.8 2139.19,-98.6624"/>
<polygon fill="midnightblue" stroke="midnightblue" points="2141.03,-101.644 2147.96,-93.6305 2137.55,-95.5725 2141.03,-101.644"/>
</g>
<!-- Node16&#45;&gt;Node4 -->
<g id="edge22" class="edge"><title>Node16&#45;&gt;Node4</title>
<path fill="none" stroke="midnightblue" d="M1955.67,-68.679C1949.1,-58.5919 1940.26,-45.033 1933.29,-34.3345"/>
<polygon fill="midnightblue" stroke="midnightblue" points="1936.14,-32.2963 1927.75,-25.8283 1930.28,-36.1175 1936.14,-32.2963"/>
</g>
<!-- Node17&#45;&gt;Node4 -->
<g id="edge24" class="edge"><title>Node17&#45;&gt;Node4</title>
<path fill="none" stroke="midnightblue" d="M2131.49,-74.3717C2087.39,-62.2945 2007.36,-40.3775 1960.01,-27.4098"/>
<polygon fill="midnightblue" stroke="midnightblue" points="1960.71,-23.973 1950.14,-24.7073 1958.86,-30.7244 1960.71,-23.973"/>
</g>
<!-- Node21&#45;&gt;Node4 -->
<g id="edge36" class="edge"><title>Node21&#45;&gt;Node4</title>
<path fill="none" stroke="midnightblue" d="M1324.94,-149.985C1451.95,-147.176 1734.4,-136.856 1823,-100 1832.48,-96.0553 1879.08,-55.2611 1904.83,-32.3708"/>
<polygon fill="midnightblue" stroke="midnightblue" points="1907.24,-34.9048 1912.38,-25.6375 1902.59,-29.6798 1907.24,-34.9048"/>
</g>
<!-- Node22 -->
<g id="node22" class="node"><title>Node22</title>
<polygon fill="none" stroke="#bfbfbf" points="1302.5,-69 1302.5,-99 1453.5,-99 1453.5,-69 1302.5,-69"/>
<text text-anchor="start" x="1310.5" y="-87" font-family="Helvetica,sans-Serif" font-size="10.00">Math/GenVector/Displacement</text>
<text text-anchor="middle" x="1378" y="-76" font-family="Helvetica,sans-Serif" font-size="10.00">Vector3D.h</text>
</g>
<!-- Node21&#45;&gt;Node22 -->
<g id="edge31" class="edge"><title>Node21&#45;&gt;Node22</title>
<path fill="none" stroke="midnightblue" d="M1277.16,-142.372C1294.11,-132.729 1322.09,-116.812 1344.28,-104.187"/>
<polygon fill="midnightblue" stroke="midnightblue" points="1346.11,-107.169 1353.08,-99.1815 1342.65,-101.085 1346.11,-107.169"/>
</g>
<!-- Node23 -->
<g id="node23" class="node"><title>Node23</title>
<polygon fill="none" stroke="#bfbfbf" points="1472,-74.5 1472,-93.5 1648,-93.5 1648,-74.5 1472,-74.5"/>
<text text-anchor="middle" x="1560" y="-81.5" font-family="Helvetica,sans-Serif" font-size="10.00">Math/GenVector/PositionVector3D.h</text>
</g>
<!-- Node21&#45;&gt;Node23 -->
<g id="edge32" class="edge"><title>Node21&#45;&gt;Node23</title>
<path fill="none" stroke="midnightblue" d="M1300.65,-142.439C1354.69,-130.471 1452.79,-108.744 1511.62,-95.7158"/>
<polygon fill="midnightblue" stroke="midnightblue" points="1512.41,-99.1252 1521.42,-93.5455 1510.9,-92.2908 1512.41,-99.1252"/>
</g>
<!-- Node24 -->
<g id="node24" class="node"><title>Node24</title>
<polygon fill="none" stroke="#bfbfbf" points="1665.5,-74.5 1665.5,-93.5 1814.5,-93.5 1814.5,-74.5 1665.5,-74.5"/>
<text text-anchor="middle" x="1740" y="-81.5" font-family="Helvetica,sans-Serif" font-size="10.00">Math/GenVector/Rotation3D.h</text>
</g>
<!-- Node21&#45;&gt;Node24 -->
<g id="edge33" class="edge"><title>Node21&#45;&gt;Node24</title>
<path fill="none" stroke="midnightblue" d="M1324.57,-143.84C1402.39,-134.719 1539.26,-117.968 1656,-100 1665.14,-98.5933 1674.82,-96.9807 1684.22,-95.3464"/>
<polygon fill="midnightblue" stroke="midnightblue" points="1685.05,-98.7551 1694.29,-93.5731 1683.84,-91.8612 1685.05,-98.7551"/>
</g>
<!-- Node25 -->
<g id="node25" class="node"><title>Node25</title>
<polygon fill="none" stroke="#bfbfbf" points="793,-74.5 793,-93.5 949,-93.5 949,-74.5 793,-74.5"/>
<text text-anchor="middle" x="871" y="-81.5" font-family="Helvetica,sans-Serif" font-size="10.00">Math/GenVector/Transform3D.h</text>
</g>
<!-- Node21&#45;&gt;Node25 -->
<g id="edge34" class="edge"><title>Node21&#45;&gt;Node25</title>
<path fill="none" stroke="midnightblue" d="M1210.89,-142.498C1150.47,-132.431 1046.9,-115.12 958,-100 949.012,-98.4712 939.504,-96.843 930.202,-95.2442"/>
<polygon fill="midnightblue" stroke="midnightblue" points="930.673,-91.7739 920.224,-93.5268 929.486,-98.6724 930.673,-91.7739"/>
</g>
<!-- Node26 -->
<g id="node26" class="node"><title>Node26</title>
<polygon fill="none" stroke="#bfbfbf" points="967,-74.5 967,-93.5 1127,-93.5 1127,-74.5 967,-74.5"/>
<text text-anchor="middle" x="1047" y="-81.5" font-family="Helvetica,sans-Serif" font-size="10.00">Math/GenVector/Translation3D.h</text>
</g>
<!-- Node21&#45;&gt;Node26 -->
<g id="edge35" class="edge"><title>Node21&#45;&gt;Node26</title>
<path fill="none" stroke="midnightblue" d="M1233.89,-142.372C1195.64,-130.629 1127.09,-109.585 1084.49,-96.5083"/>
<polygon fill="midnightblue" stroke="midnightblue" points="1085.36,-93.1147 1074.77,-93.5259 1083.31,-99.8065 1085.36,-93.1147"/>
</g>
<!-- Node27 -->
<g id="node27" class="node"><title>Node27</title>
<polygon fill="none" stroke="#bfbfbf" points="1145,-74.5 1145,-93.5 1221,-93.5 1221,-74.5 1145,-74.5"/>
<text text-anchor="middle" x="1183" y="-81.5" font-family="Helvetica,sans-Serif" font-size="10.00">TGeoMatrix.h</text>
</g>
<!-- Node21&#45;&gt;Node27 -->
<g id="edge37" class="edge"><title>Node21&#45;&gt;Node27</title>
<path fill="none" stroke="midnightblue" d="M1251.67,-142.372C1238.9,-131.699 1216.93,-113.343 1201.28,-100.268"/>
<polygon fill="midnightblue" stroke="midnightblue" points="1203.25,-97.3559 1193.33,-93.6305 1198.76,-102.728 1203.25,-97.3559"/>
</g>
<!-- Node28 -->
<g id="node28" class="node"><title>Node28</title>
<polygon fill="none" stroke="#bfbfbf" points="1239.5,-74.5 1239.5,-93.5 1284.5,-93.5 1284.5,-74.5 1239.5,-74.5"/>
<text text-anchor="middle" x="1262" y="-81.5" font-family="Helvetica,sans-Serif" font-size="10.00">iosfwd</text>
</g>
<!-- Node21&#45;&gt;Node28 -->
<g id="edge38" class="edge"><title>Node21&#45;&gt;Node28</title>
<path fill="none" stroke="midnightblue" d="M1262,-142.372C1262,-132.643 1262,-116.528 1262,-103.85"/>
<polygon fill="midnightblue" stroke="midnightblue" points="1265.5,-103.841 1262,-93.8411 1258.5,-103.841 1265.5,-103.841"/>
</g>
<!-- Node29 -->
<g id="node29" class="node"><title>Node29</title>
<g id="a_node29"><a xlink:href="../../d2/dd0/Cartesian2D_8h.html" target="_top" xlink:title="MathUtils/Cartesian2D.h">
<polygon fill="none" stroke="black" points="535.5,-74.5 535.5,-93.5 660.5,-93.5 660.5,-74.5 535.5,-74.5"/>
<text text-anchor="middle" x="598" y="-81.5" font-family="Helvetica,sans-Serif" font-size="10.00">MathUtils/Cartesian2D.h</text>
</a>
</g>
</g>
<!-- Node21&#45;&gt;Node29 -->
<g id="edge39" class="edge"><title>Node21&#45;&gt;Node29</title>
<path fill="none" stroke="midnightblue" d="M1199.28,-142.632C1181.43,-140.359 1161.96,-137.98 1144,-136 974.803,-117.349 775.613,-99.8732 670.858,-91.0287"/>
<polygon fill="midnightblue" stroke="midnightblue" points="670.97,-87.5259 660.712,-90.1741 670.383,-94.5012 670.97,-87.5259"/>
</g>
<!-- Node30 -->
<g id="node30" class="node"><title>Node30</title>
<polygon fill="none" stroke="#bfbfbf" points="495.5,-1 495.5,-31 646.5,-31 646.5,-1 495.5,-1"/>
<text text-anchor="start" x="503.5" y="-19" font-family="Helvetica,sans-Serif" font-size="10.00">Math/GenVector/Displacement</text>
<text text-anchor="middle" x="571" y="-8" font-family="Helvetica,sans-Serif" font-size="10.00">Vector2D.h</text>
</g>
<!-- Node29&#45;&gt;Node30 -->
<g id="edge40" class="edge"><title>Node29&#45;&gt;Node30</title>
<path fill="none" stroke="midnightblue" d="M594.47,-74.3717C590.964,-65.8 585.429,-52.2719 580.615,-40.5045"/>
<polygon fill="midnightblue" stroke="midnightblue" points="583.827,-39.1117 576.802,-31.1815 577.348,-41.7622 583.827,-39.1117"/>
</g>
<!-- Node31 -->
<g id="node31" class="node"><title>Node31</title>
<polygon fill="none" stroke="#bfbfbf" points="665,-6.5 665,-25.5 841,-25.5 841,-6.5 665,-6.5"/>
<text text-anchor="middle" x="753" y="-13.5" font-family="Helvetica,sans-Serif" font-size="10.00">Math/GenVector/PositionVector2D.h</text>
</g>
<!-- Node29&#45;&gt;Node31 -->
<g id="edge41" class="edge"><title>Node29&#45;&gt;Node31</title>
<path fill="none" stroke="midnightblue" d="M618.264,-74.3717C645.068,-62.958 692.512,-42.7562 723.35,-29.6252"/>
<polygon fill="midnightblue" stroke="midnightblue" points="724.902,-32.7684 732.731,-25.6305 722.16,-26.328 724.902,-32.7684"/>
</g>
<!-- Node32&#45;&gt;Node13 -->
<g id="edge47" class="edge"><title>Node32&#45;&gt;Node13</title>
<path fill="none" stroke="midnightblue" d="M733.129,-278.208C723.585,-256.532 698.774,-200.181 685.943,-171.041"/>
<polygon fill="midnightblue" stroke="midnightblue" points="689.042,-169.392 681.809,-161.65 682.635,-172.213 689.042,-169.392"/>
</g>
<!-- Node33 -->
<g id="node33" class="node"><title>Node33</title>
<polygon fill="none" stroke="#bfbfbf" points="734.5,-210.5 734.5,-229.5 803.5,-229.5 803.5,-210.5 734.5,-210.5"/>
<text text-anchor="middle" x="769" y="-217.5" font-family="Helvetica,sans-Serif" font-size="10.00">TObjArray.h</text>
</g>
<!-- Node32&#45;&gt;Node33 -->
<g id="edge46" class="edge"><title>Node32&#45;&gt;Node33</title>
<path fill="none" stroke="midnightblue" d="M741.183,-278.372C745.996,-268.446 754.031,-251.874 760.231,-239.086"/>
<polygon fill="midnightblue" stroke="midnightblue" points="763.5,-240.366 764.713,-229.841 757.201,-237.312 763.5,-240.366"/>
</g>
<!-- Node34 -->
<g id="node34" class="node"><title>Node34</title>
<g id="a_node34"><a xlink:href="../../d4/d20/DetMatrixCache_8h.html" target="_top" xlink:title="DetectorsCommonDataFormats\l/DetMatrixCache.h">
<polygon fill="none" stroke="black" points="522,-205 522,-235 678,-235 678,-205 522,-205"/>
<text text-anchor="start" x="530" y="-223" font-family="Helvetica,sans-Serif" font-size="10.00">DetectorsCommonDataFormats</text>
<text text-anchor="middle" x="600" y="-212" font-family="Helvetica,sans-Serif" font-size="10.00">/DetMatrixCache.h</text>
</a>
</g>
</g>
<!-- Node32&#45;&gt;Node34 -->
<g id="edge48" class="edge"><title>Node32&#45;&gt;Node34</title>
<path fill="none" stroke="midnightblue" d="M719.09,-278.372C698.742,-268.569 664.937,-252.283 638.532,-239.563"/>
<polygon fill="midnightblue" stroke="midnightblue" points="639.705,-236.243 629.177,-235.056 636.667,-242.55 639.705,-236.243"/>
</g>
<!-- Node34&#45;&gt;Node4 -->
<g id="edge64" class="edge"><title>Node34&#45;&gt;Node4</title>
<path fill="none" stroke="midnightblue" d="M605.451,-204.912C612.89,-187.123 627.659,-156.385 648,-136 653.31,-130.678 757.786,-70.1157 765,-68 874.241,-35.9638 1695.73,-20.6955 1883.75,-17.6001"/>
<polygon fill="midnightblue" stroke="midnightblue" points="1884.03,-21.0961 1893.97,-17.4336 1883.92,-14.097 1884.03,-21.0961"/>
</g>
<!-- Node34&#45;&gt;Node7 -->
<g id="edge51" class="edge"><title>Node34&#45;&gt;Node7</title>
<path fill="none" stroke="midnightblue" d="M678.066,-208.976C792.831,-194.24 1002.11,-167.368 1081.91,-157.12"/>
<polygon fill="midnightblue" stroke="midnightblue" points="1082.39,-160.588 1091.86,-155.843 1081.5,-153.645 1082.39,-160.588"/>
</g>
<!-- Node34&#45;&gt;Node12 -->
<g id="edge50" class="edge"><title>Node34&#45;&gt;Node12</title>
<path fill="none" stroke="midnightblue" d="M585.488,-204.784C563.915,-183.247 522.741,-140.55 493,-100 477.281,-78.5691 462.206,-51.7819 453.026,-34.534"/>
<polygon fill="midnightblue" stroke="midnightblue" points="456.083,-32.8273 448.342,-25.5937 449.883,-36.0759 456.083,-32.8273"/>
</g>
<!-- Node34&#45;&gt;Node21 -->
<g id="edge63" class="edge"><title>Node34&#45;&gt;Node21</title>
<path fill="none" stroke="midnightblue" d="M678.304,-209.193C693.77,-207.372 709.889,-205.555 725,-204 910.926,-184.863 958.142,-187.789 1144,-168 1158.6,-166.446 1174.19,-164.598 1189.1,-162.739"/>
<polygon fill="midnightblue" stroke="midnightblue" points="1189.8,-166.178 1199.29,-161.454 1188.93,-159.233 1189.8,-166.178"/>
</g>
<!-- Node35 -->
<g id="node35" class="node"><title>Node35</title>
<polygon fill="none" stroke="#bfbfbf" points="195.5,-142.5 195.5,-161.5 266.5,-161.5 266.5,-142.5 195.5,-142.5"/>
<text text-anchor="middle" x="231" y="-149.5" font-family="Helvetica,sans-Serif" font-size="10.00">FairLogger.h</text>
</g>
<!-- Node34&#45;&gt;Node35 -->
<g id="edge49" class="edge"><title>Node34&#45;&gt;Node35</title>
<path fill="none" stroke="midnightblue" d="M521.708,-210.366C455.637,-202.203 358.849,-188.181 276,-168 272.062,-167.041 267.975,-165.896 263.941,-164.672"/>
<polygon fill="midnightblue" stroke="midnightblue" points="264.733,-161.25 254.142,-161.529 262.595,-167.916 264.733,-161.25"/>
</g>
<!-- Node36 -->
<g id="node36" class="node"><title>Node36</title>
<g id="a_node36"><a xlink:href="../../d6/d31/DetID_8h.html" target="_top" xlink:title="DetectorsCommonDataFormats\l/DetID.h">
<polygon fill="none" stroke="black" points="285,-137 285,-167 441,-167 441,-137 285,-137"/>
<text text-anchor="start" x="293" y="-155" font-family="Helvetica,sans-Serif" font-size="10.00">DetectorsCommonDataFormats</text>
<text text-anchor="middle" x="363" y="-144" font-family="Helvetica,sans-Serif" font-size="10.00">/DetID.h</text>
</a>
</g>
</g>
<!-- Node34&#45;&gt;Node36 -->
<g id="edge52" class="edge"><title>Node34&#45;&gt;Node36</title>
<path fill="none" stroke="midnightblue" d="M549.448,-204.922C512.477,-194.627 462.179,-180.619 423.141,-169.748"/>
<polygon fill="midnightblue" stroke="midnightblue" points="424.046,-166.367 413.474,-167.056 422.169,-173.111 424.046,-166.367"/>
</g>
<!-- Node36&#45;&gt;Node4 -->
<g id="edge53" class="edge"><title>Node36&#45;&gt;Node4</title>
<path fill="none" stroke="midnightblue" d="M441.182,-147.883C504.701,-143.048 595.489,-130.818 669,-100 691.3,-90.6512 690.168,-75.9607 713,-68 825.616,-28.7356 1689.73,-19.0006 1883.51,-17.3022"/>
<polygon fill="midnightblue" stroke="midnightblue" points="1883.81,-20.7999 1893.78,-17.2144 1883.75,-13.8002 1883.81,-20.7999"/>
</g>
<!-- Node36&#45;&gt;Node12 -->
<g id="edge54" class="edge"><title>Node36&#45;&gt;Node12</title>
<path fill="none" stroke="midnightblue" d="M379.76,-136.75C390.156,-127.204 403.167,-113.881 412,-100 424.99,-79.5855 434.066,-53.0693 439.153,-35.5672"/>
<polygon fill="midnightblue" stroke="midnightblue" points="442.639,-36.0928 441.921,-25.5222 435.89,-34.2331 442.639,-36.0928"/>
</g>
<!-- Node37 -->
<g id="node37" class="node"><title>Node37</title>
<polygon fill="none" stroke="#bfbfbf" points="230.5,-74.5 230.5,-93.5 271.5,-93.5 271.5,-74.5 230.5,-74.5"/>
<text text-anchor="middle" x="251" y="-81.5" font-family="Helvetica,sans-Serif" font-size="10.00">bitset</text>
</g>
<!-- Node36&#45;&gt;Node37 -->
<g id="edge55" class="edge"><title>Node36&#45;&gt;Node37</title>
<path fill="none" stroke="midnightblue" d="M338.973,-136.841C319.948,-125.63 293.519,-110.056 274.604,-98.9096"/>
<polygon fill="midnightblue" stroke="midnightblue" points="276.125,-95.7435 265.733,-93.6819 272.571,-101.774 276.125,-95.7435"/>
</g>
<!-- Node38 -->
<g id="node38" class="node"><title>Node38</title>
<polygon fill="none" stroke="#bfbfbf" points="289.5,-74.5 289.5,-93.5 338.5,-93.5 338.5,-74.5 289.5,-74.5"/>
<text text-anchor="middle" x="314" y="-81.5" font-family="Helvetica,sans-Serif" font-size="10.00">cassert</text>
</g>
<!-- Node36&#45;&gt;Node38 -->
<g id="edge56" class="edge"><title>Node36&#45;&gt;Node38</title>
<path fill="none" stroke="midnightblue" d="M352.368,-136.679C344.803,-126.49 334.609,-112.759 326.63,-102.011"/>
<polygon fill="midnightblue" stroke="midnightblue" points="329.326,-99.7711 320.554,-93.8283 323.705,-103.944 329.326,-99.7711"/>
</g>
<!-- Node39 -->
<g id="node39" class="node"><title>Node39</title>
<polygon fill="none" stroke="#bfbfbf" points="357,-74.5 357,-93.5 403,-93.5 403,-74.5 357,-74.5"/>
<text text-anchor="middle" x="380" y="-81.5" font-family="Helvetica,sans-Serif" font-size="10.00">cstdint</text>
</g>
<!-- Node36&#45;&gt;Node39 -->
<g id="edge57" class="edge"><title>Node36&#45;&gt;Node39</title>
<path fill="none" stroke="midnightblue" d="M366.689,-136.679C369.182,-126.999 372.499,-114.123 375.198,-103.645"/>
<polygon fill="midnightblue" stroke="midnightblue" points="378.621,-104.385 377.726,-93.8283 371.842,-102.639 378.621,-104.385"/>
</g>
<!-- Node40 -->
<g id="node40" class="node"><title>Node40</title>
<polygon fill="none" stroke="#bfbfbf" points="150,-74.5 150,-93.5 212,-93.5 212,-74.5 150,-74.5"/>
<text text-anchor="middle" x="181" y="-81.5" font-family="Helvetica,sans-Serif" font-size="10.00">type_traits</text>
</g>
<!-- Node36&#45;&gt;Node40 -->
<g id="edge58" class="edge"><title>Node36&#45;&gt;Node40</title>
<path fill="none" stroke="midnightblue" d="M323.466,-136.968C294.948,-126.805 255.549,-112.682 221,-100 218.476,-99.0736 215.865,-98.1088 213.242,-97.135"/>
<polygon fill="midnightblue" stroke="midnightblue" points="214.417,-93.8379 203.825,-93.622 211.971,-100.396 214.417,-93.8379"/>
</g>
<!-- Node41 -->
<g id="node41" class="node"><title>Node41</title>
<g id="a_node41"><a xlink:href="../../d9/d52/Common_2MathUtils_2include_2MathUtils_2Utils_8h.html" target="_top" xlink:title="MathUtils/Utils.h">
<polygon fill="none" stroke="black" points="42,-74.5 42,-93.5 132,-93.5 132,-74.5 42,-74.5"/>
<text text-anchor="middle" x="87" y="-81.5" font-family="Helvetica,sans-Serif" font-size="10.00">MathUtils/Utils.h</text>
</a>
</g>
</g>
<!-- Node36&#45;&gt;Node41 -->
<g id="edge59" class="edge"><title>Node36&#45;&gt;Node41</title>
<path fill="none" stroke="midnightblue" d="M298.215,-136.926C253.839,-127.088 193.707,-113.367 141,-100 136.352,-98.8212 131.493,-97.5404 126.675,-96.2405"/>
<polygon fill="midnightblue" stroke="midnightblue" points="127.496,-92.8366 116.927,-93.5722 125.648,-99.5882 127.496,-92.8366"/>
</g>
<!-- Node41&#45;&gt;Node12 -->
<g id="edge60" class="edge"><title>Node41&#45;&gt;Node12</title>
<path fill="none" stroke="midnightblue" d="M115.726,-74.4225C123.853,-72.1589 132.737,-69.8378 141,-68 240.587,-45.8506 360.486,-28.3317 414.767,-20.8866"/>
<polygon fill="midnightblue" stroke="midnightblue" points="415.285,-24.3484 424.722,-19.5335 414.342,-17.4122 415.285,-24.3484"/>
</g>
<!-- Node42 -->
<g id="node42" class="node"><title>Node42</title>
<polygon fill="none" stroke="#bfbfbf" points="0,-6.5 0,-25.5 44,-25.5 44,-6.5 0,-6.5"/>
<text text-anchor="middle" x="22" y="-13.5" font-family="Helvetica,sans-Serif" font-size="10.00">cmath</text>
</g>
<!-- Node41&#45;&gt;Node42 -->
<g id="edge61" class="edge"><title>Node41&#45;&gt;Node42</title>
<path fill="none" stroke="midnightblue" d="M78.5024,-74.3717C68.2433,-63.9547 50.7746,-46.2173 37.9705,-33.2162"/>
<polygon fill="midnightblue" stroke="midnightblue" points="40.2178,-30.5101 30.7072,-25.8411 35.2304,-35.4219 40.2178,-30.5101"/>
</g>
<!-- Node43 -->
<g id="node43" class="node"><title>Node43</title>
<g id="a_node43"><a xlink:href="../../d6/d84/MathConstants_8h.html" target="_top" xlink:title="useful math constants ">
<polygon fill="none" stroke="black" points="62.5,-6.5 62.5,-25.5 241.5,-25.5 241.5,-6.5 62.5,-6.5"/>
<text text-anchor="middle" x="152" y="-13.5" font-family="Helvetica,sans-Serif" font-size="10.00">CommonConstants/MathConstants.h</text>
</a>
</g>
</g>
<!-- Node41&#45;&gt;Node43 -->
<g id="edge62" class="edge"><title>Node41&#45;&gt;Node43</title>
<path fill="none" stroke="midnightblue" d="M95.4976,-74.3717C105.757,-63.9547 123.225,-46.2173 136.029,-33.2162"/>
<polygon fill="midnightblue" stroke="midnightblue" points="138.77,-35.4219 143.293,-25.8411 133.782,-30.5101 138.77,-35.4219"/>
</g>
</g>
</svg>
        <g id="navigator" transform="translate(0 0)" fill="#404254">
                <rect fill="#f2f5e9" fill-opacity="0.5" stroke="#606060" stroke-width=".5" x="0" y="0" width="60" height="60"/>
                <use id="zoomplus" xlink:href="#zoomPlus" x="17" y="9" onmousedown="handleZoom(evt,'in')"/>
                <use id="zoomminus" xlink:href="#zoomMin" x="42" y="9" onmousedown="handleZoom(evt,'out')"/>
                <use id="reset" xlink:href="#resetDef" x="30" y="36" onmousedown="handleReset()"/>
                <g id="arrowUp" xlink:href="#dirArrow" transform="translate(30 24)" onmousedown="handlePan(0,-1)">
                  <use xlink:href="#rim" fill="#404040">
                        <set attributeName="fill" to="#808080" begin="arrowUp.mouseover" end="arrowUp.mouseout"/>
                  </use>
                  <path fill="none" stroke="white" stroke-width="1.5" d="M0,-3.0v7 M-2.5,-0.5L0,-3.0L2.5,-0.5"/>
                </g>
                <g id="arrowRight" xlink:href="#dirArrow" transform="rotate(90) translate(36 -43)" onmousedown="handlePan(1,0)">
                  <use xlink:href="#rim" fill="#404040">
                        <set attributeName="fill" to="#808080" begin="arrowRight.mouseover" end="arrowRight.mouseout"/>
                  </use>
                  <path fill="none" stroke="white" stroke-width="1.5" d="M0,-3.0v7 M-2.5,-0.5L0,-3.0L2.5,-0.5"/>
                </g>
                <g id="arrowDown" xlink:href="#dirArrow" transform="rotate(180) translate(-30 -48)" onmousedown="handlePan(0,1)">
                  <use xlink:href="#rim" fill="#404040">
                        <set attributeName="fill" to="#808080" begin="arrowDown.mouseover" end="arrowDown.mouseout"/>
                  </use>
                  <path fill="none" stroke="white" stroke-width="1.5" d="M0,-3.0v7 M-2.5,-0.5L0,-3.0L2.5,-0.5"/>
                </g>
                <g id="arrowLeft" xlink:href="#dirArrow" transform="rotate(270) translate(-36 17)" onmousedown="handlePan(-1,0)">
                  <use xlink:href="#rim" fill="#404040">
                        <set attributeName="fill" to="#808080" begin="arrowLeft.mouseover" end="arrowLeft.mouseout"/>
                  </use>
                  <path fill="none" stroke="white" stroke-width="1.5" d="M0,-3.0v7 M-2.5,-0.5L0,-3.0L2.5,-0.5"/>
                </g>
        </g>
        <svg viewBox="0 0 15 15" width="100%" height="30px" preserveAspectRatio="xMaxYMin meet">
         <g id="arrow_out" transform="scale(0.3 0.3)">
          <a xlink:href="ITSMFT_2MFT_2simulation_2include_2MFTSimulation_2DigitizerTask_8h__incl_org.svg" target="_base">
           <rect id="button" ry="5" rx="5" y="6" x="6" height="38" width="38"
                fill="#f2f5e9" fill-opacity="0.5" stroke="#606060" stroke-width="1.0"/>
           <path id="arrow"
             d="M 11.500037,31.436501 C 11.940474,20.09759 22.043105,11.32322 32.158766,21.979434 L 37.068811,17.246167 C 37.068811,17.246167 37.088388,32 37.088388,32 L 22.160133,31.978069 C 22.160133,31.978069 26.997745,27.140456 26.997745,27.140456 C 18.528582,18.264221 13.291696,25.230495 11.500037,31.436501 z"
             style="fill:#404040;"/>
          </a>
         </g>
        </svg>
</svg>
