<?xml version="1.0" encoding="UTF-8" standalone="no"?>
<!DOCTYPE svg PUBLIC "-//W3C//DTD SVG 1.1//EN"
 "http://www.w3.org/Graphics/SVG/1.1/DTD/svg11.dtd">
<!-- Generated by graphviz version 2.36.0 (20140111.2315)
 -->
<!-- Title: /home/travis/build/AliceO2Group/AliceO2/Framework/TestWorkflows/src Pages: 1 -->
<svg width="289pt" height="295pt"
 viewBox="0.00 0.00 288.89 295.00" xmlns="http://www.w3.org/2000/svg" xmlns:xlink="http://www.w3.org/1999/xlink">
<g id="graph0" class="graph" transform="scale(1 1) rotate(0) translate(4 291)">
<title>/home/travis/build/AliceO2Group/AliceO2/Framework/TestWorkflows/src</title>
<g id="clust1" class="cluster"><title>clusterdir_a8f73827fca2a0188d35dc47dc5b0ea3</title>
<g id="a_clust1"><a xlink:href="dir_a8f73827fca2a0188d35dc47dc5b0ea3.html" target="_top" xlink:title="TestWorkflows">
<polygon fill="#ddddee" stroke="black" points="135,-208 135,-279 218,-279 218,-208 135,-208"/>
<text text-anchor="middle" x="176.5" y="-267" font-family="Helvetica,sans-Serif" font-size="10.00">TestWorkflows</text>
</a>
</g>
</g>
<!-- dir_80c3b7d4c168c9aa75dd1ba81b9fa387 -->
<g id="node1" class="node"><title>dir_80c3b7d4c168c9aa75dd1ba81b9fa387</title>
<g id="a_node1"><a xlink:href="dir_80c3b7d4c168c9aa75dd1ba81b9fa387.html" target="_top" xlink:title="src">
<polygon fill="#eeeeff" stroke="black" points="203,-252 149,-252 149,-216 203,-216 203,-252"/>
<text text-anchor="middle" x="176" y="-231.5" font-family="Helvetica,sans-Serif" font-size="10.00">src</text>
</a>
</g>
</g>
<!-- dir_0b342c6c6b7d2278121a0bb9c4985063 -->
<g id="node2" class="node"><title>dir_0b342c6c6b7d2278121a0bb9c4985063</title>
<g id="a_node2"><a xlink:href="dir_0b342c6c6b7d2278121a0bb9c4985063.html" target="_top" xlink:title="Generators">
<polygon fill="none" stroke="red" points="64.25,-108 -0.25,-108 -0.25,-72 64.25,-72 64.25,-108"/>
<text text-anchor="middle" x="32" y="-87.5" font-family="Helvetica,sans-Serif" font-size="10.00">Generators</text>
</a>
</g>
</g>
<!-- dir_80c3b7d4c168c9aa75dd1ba81b9fa387&#45;&gt;dir_0b342c6c6b7d2278121a0bb9c4985063 -->
<g id="edge1" class="edge"><title>dir_80c3b7d4c168c9aa75dd1ba81b9fa387&#45;&gt;dir_0b342c6c6b7d2278121a0bb9c4985063</title>
<path fill="none" stroke="black" d="M157.696,-215.965C146.685,-205.647 132.439,-192.17 120,-180 97.9835,-158.46 73.3682,-133.487 55.7821,-115.486"/>
<polygon fill="black" stroke="black" points="58.1916,-112.944 48.7037,-108.229 53.1806,-117.832 58.1916,-112.944"/>
<g id="a_edge1&#45;headlabel"><a xlink:href="dir_000351_000367.html" target="_top" xlink:title="1">
<text text-anchor="middle" x="62.734" y="-111.035" font-family="Helvetica,sans-Serif" font-size="10.00">1</text>
</a>
</g>
</g>
<!-- dir_4ab6b4cc6a7edbff49100e9123df213f -->
<g id="node3" class="node"><title>dir_4ab6b4cc6a7edbff49100e9123df213f</title>
<g id="a_node3"><a xlink:href="dir_4ab6b4cc6a7edbff49100e9123df213f.html" target="_top" xlink:title="Common">
<polygon fill="none" stroke="red" points="138.5,-108 83.5,-108 83.5,-72 138.5,-72 138.5,-108"/>
<text text-anchor="middle" x="111" y="-87.5" font-family="Helvetica,sans-Serif" font-size="10.00">Common</text>
</a>
</g>
</g>
<!-- dir_80c3b7d4c168c9aa75dd1ba81b9fa387&#45;&gt;dir_4ab6b4cc6a7edbff49100e9123df213f -->
<g id="edge2" class="edge"><title>dir_80c3b7d4c168c9aa75dd1ba81b9fa387&#45;&gt;dir_4ab6b4cc6a7edbff49100e9123df213f</title>
<path fill="none" stroke="black" d="M160.98,-215.861C152.929,-205.943 143.381,-192.903 137,-180 127.217,-160.219 120.455,-136.1 116.285,-117.963"/>
<polygon fill="black" stroke="black" points="119.674,-117.079 114.126,-108.053 112.835,-118.569 119.674,-117.079"/>
<g id="a_edge2&#45;headlabel"><a xlink:href="dir_000351_000016.html" target="_top" xlink:title="2">
<text text-anchor="middle" x="123.214" y="-117.486" font-family="Helvetica,sans-Serif" font-size="10.00">2</text>
</a>
</g>
</g>
<!-- dir_9f165b2481dacfe69aa54d326bd5cd47 -->
<g id="node4" class="node"><title>dir_9f165b2481dacfe69aa54d326bd5cd47</title>
<g id="a_node4"><a xlink:href="dir_9f165b2481dacfe69aa54d326bd5cd47.html" target="_top" xlink:title="Core">
<polygon fill="none" stroke="red" points="267,-108 213,-108 213,-72 267,-72 267,-108"/>
<text text-anchor="middle" x="240" y="-87.5" font-family="Helvetica,sans-Serif" font-size="10.00">Core</text>
</a>
</g>
</g>
<!-- dir_80c3b7d4c168c9aa75dd1ba81b9fa387&#45;&gt;dir_9f165b2481dacfe69aa54d326bd5cd47 -->
<g id="edge3" class="edge"><title>dir_80c3b7d4c168c9aa75dd1ba81b9fa387&#45;&gt;dir_9f165b2481dacfe69aa54d326bd5cd47</title>
<path fill="none" stroke="black" d="M190.614,-215.801C198.452,-205.866 207.755,-192.826 214,-180 223.661,-160.159 230.431,-136.045 234.636,-117.924"/>
<polygon fill="black" stroke="black" points="238.083,-118.544 236.818,-108.025 231.247,-117.038 238.083,-118.544"/>
<g id="a_edge3&#45;headlabel"><a xlink:href="dir_000351_000353.html" target="_top" xlink:title="55">
<text text-anchor="middle" x="240.082" y="-120.166" font-family="Helvetica,sans-Serif" font-size="10.00">55</text>
</a>
</g>
</g>
<!-- dir_051dca18e802f8e9474f2e30d29c04e0 -->
<g id="node5" class="node"><title>dir_051dca18e802f8e9474f2e30d29c04e0</title>
<g id="a_node5"><a xlink:href="dir_051dca18e802f8e9474f2e30d29c04e0.html" target="_top" xlink:title="Detectors">
<polygon fill="none" stroke="red" points="205.25,-180 146.75,-180 146.75,-144 205.25,-144 205.25,-180"/>
<text text-anchor="middle" x="176" y="-159.5" font-family="Helvetica,sans-Serif" font-size="10.00">Detectors</text>
</a>
</g>
</g>
<!-- dir_80c3b7d4c168c9aa75dd1ba81b9fa387&#45;&gt;dir_051dca18e802f8e9474f2e30d29c04e0 -->
<g id="edge4" class="edge"><title>dir_80c3b7d4c168c9aa75dd1ba81b9fa387&#45;&gt;dir_051dca18e802f8e9474f2e30d29c04e0</title>
<path fill="none" stroke="black" d="M176,-215.697C176,-207.983 176,-198.712 176,-190.112"/>
<polygon fill="black" stroke="black" points="179.5,-190.104 176,-180.104 172.5,-190.104 179.5,-190.104"/>
<g id="a_edge4&#45;headlabel"><a xlink:href="dir_000351_000028.html" target="_top" xlink:title="4">
<text text-anchor="middle" x="182.339" y="-191.199" font-family="Helvetica,sans-Serif" font-size="10.00">4</text>
</a>
</g>
</g>
<!-- dir_2171f7ec022c5423887b07c69b2f5b48 -->
<g id="node6" class="node"><title>dir_2171f7ec022c5423887b07c69b2f5b48</title>
<g id="a_node6"><a xlink:href="dir_2171f7ec022c5423887b07c69b2f5b48.html" target="_top" xlink:title="DataFormats">
<polygon fill="none" stroke="red" points="213,-36 139,-36 139,-0 213,-0 213,-36"/>
<text text-anchor="middle" x="176" y="-15.5" font-family="Helvetica,sans-Serif" font-size="10.00">DataFormats</text>
</a>
</g>
</g>
<!-- dir_80c3b7d4c168c9aa75dd1ba81b9fa387&#45;&gt;dir_2171f7ec022c5423887b07c69b2f5b48 -->
<g id="edge5" class="edge"><title>dir_80c3b7d4c168c9aa75dd1ba81b9fa387&#45;&gt;dir_2171f7ec022c5423887b07c69b2f5b48</title>
<path fill="none" stroke="black" d="M198.338,-215.862C210.11,-206.145 224.287,-193.294 235,-180 258.106,-151.327 266.575,-143.598 276,-108 280.095,-92.5329 284.25,-85.7092 276,-72 264.28,-52.5247 242.733,-39.8281 222.633,-31.7606"/>
<polygon fill="black" stroke="black" points="223.83,-28.4716 213.237,-28.2674 221.391,-35.0328 223.83,-28.4716"/>
<g id="a_edge5&#45;headlabel"><a xlink:href="dir_000351_000056.html" target="_top" xlink:title="2">
<text text-anchor="middle" x="228.189" y="-24.5628" font-family="Helvetica,sans-Serif" font-size="10.00">2</text>
</a>
</g>
</g>
<!-- dir_4ab6b4cc6a7edbff49100e9123df213f&#45;&gt;dir_2171f7ec022c5423887b07c69b2f5b48 -->
<g id="edge6" class="edge"><title>dir_4ab6b4cc6a7edbff49100e9123df213f&#45;&gt;dir_2171f7ec022c5423887b07c69b2f5b48</title>
<path fill="none" stroke="black" d="M121.152,-71.6966C128.219,-63.135 137.767,-52.6562 146.97,-43.3045"/>
<polygon fill="black" stroke="black" points="149.592,-45.6336 154.222,-36.1043 144.66,-40.6659 149.592,-45.6336"/>
<g id="a_edge6&#45;headlabel"><a xlink:href="dir_000016_000056.html" target="_top" xlink:title="1">
<text text-anchor="middle" x="149.041" y="-47.681" font-family="Helvetica,sans-Serif" font-size="10.00">1</text>
</a>
</g>
</g>
<!-- dir_9f165b2481dacfe69aa54d326bd5cd47&#45;&gt;dir_2171f7ec022c5423887b07c69b2f5b48 -->
<g id="edge7" class="edge"><title>dir_9f165b2481dacfe69aa54d326bd5cd47&#45;&gt;dir_2171f7ec022c5423887b07c69b2f5b48</title>
<path fill="none" stroke="black" d="M224.18,-71.6966C216.43,-63.2198 206.961,-52.8636 198.476,-43.5826"/>
<polygon fill="black" stroke="black" points="200.969,-41.1229 191.638,-36.1043 195.803,-45.8464 200.969,-41.1229"/>
<g id="a_edge7&#45;headlabel"><a xlink:href="dir_000353_000056.html" target="_top" xlink:title="18">
<text text-anchor="middle" x="205.49" y="-39.36" font-family="Helvetica,sans-Serif" font-size="10.00">18</text>
</a>
</g>
</g>
<!-- dir_051dca18e802f8e9474f2e30d29c04e0&#45;&gt;dir_0b342c6c6b7d2278121a0bb9c4985063 -->
<g id="edge8" class="edge"><title>dir_051dca18e802f8e9474f2e30d29c04e0&#45;&gt;dir_0b342c6c6b7d2278121a0bb9c4985063</title>
<path fill="none" stroke="black" d="M146.512,-146.666C125.446,-136.425 96.8159,-122.508 73.4533,-111.151"/>
<polygon fill="black" stroke="black" points="74.9819,-108.002 64.4581,-106.778 71.9216,-114.298 74.9819,-108.002"/>
<g id="a_edge8&#45;headlabel"><a xlink:href="dir_000028_000367.html" target="_top" xlink:title="1">
<text text-anchor="middle" x="79.4561" y="-104.52" font-family="Helvetica,sans-Serif" font-size="10.00">1</text>
</a>
</g>
</g>
<!-- dir_051dca18e802f8e9474f2e30d29c04e0&#45;&gt;dir_4ab6b4cc6a7edbff49100e9123df213f -->
<g id="edge9" class="edge"><title>dir_051dca18e802f8e9474f2e30d29c04e0&#45;&gt;dir_4ab6b4cc6a7edbff49100e9123df213f</title>
<path fill="none" stroke="black" d="M159.933,-143.697C152.061,-135.22 142.445,-124.864 133.827,-115.583"/>
<polygon fill="black" stroke="black" points="136.252,-113.051 126.883,-108.104 131.122,-117.814 136.252,-113.051"/>
<g id="a_edge9&#45;headlabel"><a xlink:href="dir_000028_000016.html" target="_top" xlink:title="59">
<text text-anchor="middle" x="140.778" y="-111.253" font-family="Helvetica,sans-Serif" font-size="10.00">59</text>
</a>
</g>
</g>
<!-- dir_051dca18e802f8e9474f2e30d29c04e0&#45;&gt;dir_9f165b2481dacfe69aa54d326bd5cd47 -->
<g id="edge10" class="edge"><title>dir_051dca18e802f8e9474f2e30d29c04e0&#45;&gt;dir_9f165b2481dacfe69aa54d326bd5cd47</title>
<path fill="none" stroke="black" d="M191.82,-143.697C199.57,-135.22 209.039,-124.864 217.524,-115.583"/>
<polygon fill="black" stroke="black" points="220.197,-117.846 224.362,-108.104 215.031,-113.123 220.197,-117.846"/>
<g id="a_edge10&#45;headlabel"><a xlink:href="dir_000028_000353.html" target="_top" xlink:title="14">
<text text-anchor="middle" x="219.867" y="-119.915" font-family="Helvetica,sans-Serif" font-size="10.00">14</text>
</a>
</g>
</g>
<!-- dir_051dca18e802f8e9474f2e30d29c04e0&#45;&gt;dir_2171f7ec022c5423887b07c69b2f5b48 -->
<g id="edge11" class="edge"><title>dir_051dca18e802f8e9474f2e30d29c04e0&#45;&gt;dir_2171f7ec022c5423887b07c69b2f5b48</title>
<path fill="none" stroke="black" d="M171.416,-143.871C168.857,-119.67 168.566,-75.2108 170.541,-46.3932"/>
<polygon fill="black" stroke="black" points="174.049,-46.45 171.409,-36.1893 167.074,-45.8566 174.049,-46.45"/>
<g id="a_edge11&#45;headlabel"><a xlink:href="dir_000028_000056.html" target="_top" xlink:title="225">
<text text-anchor="middle" x="176.573" y="-47.7723" font-family="Helvetica,sans-Serif" font-size="10.00">225</text>
</a>
</g>
</g>
<!-- dir_2171f7ec022c5423887b07c69b2f5b48&#45;&gt;dir_4ab6b4cc6a7edbff49100e9123df213f -->
<g id="edge12" class="edge"><title>dir_2171f7ec022c5423887b07c69b2f5b48&#45;&gt;dir_4ab6b4cc6a7edbff49100e9123df213f</title>
<path fill="none" stroke="black" d="M166.012,-36.1043C158.984,-44.636 149.453,-55.1084 140.245,-64.4775"/>
<polygon fill="black" stroke="black" points="137.607,-62.1641 132.983,-71.6966 142.543,-67.1283 137.607,-62.1641"/>
<g id="a_edge12&#45;headlabel"><a xlink:href="dir_000056_000016.html" target="_top" xlink:title="18">
<text text-anchor="middle" x="138.155" y="-55.1163" font-family="Helvetica,sans-Serif" font-size="10.00">18</text>
</a>
</g>
</g>
<!-- dir_2171f7ec022c5423887b07c69b2f5b48&#45;&gt;dir_051dca18e802f8e9474f2e30d29c04e0 -->
<g id="edge13" class="edge"><title>dir_2171f7ec022c5423887b07c69b2f5b48&#45;&gt;dir_051dca18e802f8e9474f2e30d29c04e0</title>
<path fill="none" stroke="black" d="M180.591,-36.1893C183.145,-60.4244 183.433,-104.888 181.454,-133.679"/>
<polygon fill="black" stroke="black" points="177.947,-133.61 180.584,-143.871 184.922,-134.205 177.947,-133.61"/>
<g id="a_edge13&#45;headlabel"><a xlink:href="dir_000056_000028.html" target="_top" xlink:title="1">
<text text-anchor="middle" x="175.424" y="-127.287" font-family="Helvetica,sans-Serif" font-size="10.00">1</text>
</a>
</g>
</g>
</g>
</svg>
