<?xml version="1.0" encoding="UTF-8" standalone="no"?>
<!DOCTYPE svg PUBLIC "-//W3C//DTD SVG 1.1//EN"
 "http://www.w3.org/Graphics/SVG/1.1/DTD/svg11.dtd">
<!-- Generated by graphviz version 2.36.0 (20140111.2315)
 -->
<!-- Title: /home/travis/build/AliceO2Group/AliceO2/DataFormats/Detectors/ITSMFT Pages: 1 -->
<svg width="254pt" height="303pt"
 viewBox="0.00 0.00 254.00 303.00" xmlns="http://www.w3.org/2000/svg" xmlns:xlink="http://www.w3.org/1999/xlink">
<g id="graph0" class="graph" transform="scale(1 1) rotate(0) translate(4 299)">
<title>/home/travis/build/AliceO2Group/AliceO2/DataFormats/Detectors/ITSMFT</title>
<g id="clust1" class="cluster"><title>clusterdir_2801adc79bf3c286b1b479858d2cade4</title>
<g id="a_clust1"><a xlink:href="dir_2801adc79bf3c286b1b479858d2cade4.html" target="_top" xlink:title="Detectors">
<polygon fill="#ddddee" stroke="black" points="8,-128 8,-287 238,-287 238,-128 8,-128"/>
<text text-anchor="middle" x="123" y="-275" font-family="Helvetica,sans-Serif" font-size="10.00">Detectors</text>
</a>
</g>
</g>
<g id="clust2" class="cluster"><title>clusterdir_ff53c4a4c37940dfaa1ef75e68c4ec2e</title>
<g id="a_clust2"><a xlink:href="dir_ff53c4a4c37940dfaa1ef75e68c4ec2e.html" target="_top">
<polygon fill="#eeeeff" stroke="black" points="16,-136 16,-260 230,-260 230,-136 16,-136"/>
</a>
</g>
</g>
<!-- dir_ff53c4a4c37940dfaa1ef75e68c4ec2e -->
<g id="node1" class="node"><title>dir_ff53c4a4c37940dfaa1ef75e68c4ec2e</title>
<text text-anchor="middle" x="195" y="-231.5" font-family="Helvetica,sans-Serif" font-size="10.00">ITSMFT</text>
</g>
<!-- dir_a24d6d0829ce59989bf769e9c553cbcc -->
<g id="node2" class="node"><title>dir_a24d6d0829ce59989bf769e9c553cbcc</title>
<g id="a_node2"><a xlink:href="dir_a24d6d0829ce59989bf769e9c553cbcc.html" target="_top" xlink:title="common">
<polygon fill="white" stroke="red" points="78,-180 24,-180 24,-144 78,-144 78,-180"/>
<text text-anchor="middle" x="51" y="-159.5" font-family="Helvetica,sans-Serif" font-size="10.00">common</text>
</a>
</g>
</g>
<!-- dir_d269712cc31e133b892a3b3f6424741a -->
<g id="node5" class="node"><title>dir_d269712cc31e133b892a3b3f6424741a</title>
<g id="a_node5"><a xlink:href="dir_d269712cc31e133b892a3b3f6424741a.html" target="_top" xlink:title="Reconstruction">
<polygon fill="none" stroke="red" points="217.25,-108 134.75,-108 134.75,-72 217.25,-72 217.25,-108"/>
<text text-anchor="middle" x="176" y="-87.5" font-family="Helvetica,sans-Serif" font-size="10.00">Reconstruction</text>
</a>
</g>
</g>
<!-- dir_a24d6d0829ce59989bf769e9c553cbcc&#45;&gt;dir_d269712cc31e133b892a3b3f6424741a -->
<g id="edge9" class="edge"><title>dir_a24d6d0829ce59989bf769e9c553cbcc&#45;&gt;dir_d269712cc31e133b892a3b3f6424741a</title>
<path fill="none" stroke="black" d="M78.1231,-145.811C95.2315,-136.23 117.613,-123.697 136.655,-113.033"/>
<polygon fill="black" stroke="black" points="138.402,-116.067 145.417,-108.127 134.981,-109.959 138.402,-116.067"/>
<g id="a_edge9&#45;headlabel"><a xlink:href="dir_000073_000095.html" target="_top" xlink:title="1">
<text text-anchor="middle" x="136.653" y="-117.8" font-family="Helvetica,sans-Serif" font-size="10.00">1</text>
</a>
</g>
</g>
<!-- dir_279659ddc9854b304a1ef4f4a176eeda -->
<g id="node3" class="node"><title>dir_279659ddc9854b304a1ef4f4a176eeda</title>
<g id="a_node3"><a xlink:href="dir_279659ddc9854b304a1ef4f4a176eeda.html" target="_top" xlink:title="ITS">
<polygon fill="white" stroke="red" points="78,-252 24,-252 24,-216 78,-216 78,-252"/>
<text text-anchor="middle" x="51" y="-231.5" font-family="Helvetica,sans-Serif" font-size="10.00">ITS</text>
</a>
</g>
</g>
<!-- dir_279659ddc9854b304a1ef4f4a176eeda&#45;&gt;dir_a24d6d0829ce59989bf769e9c553cbcc -->
<g id="edge8" class="edge"><title>dir_279659ddc9854b304a1ef4f4a176eeda&#45;&gt;dir_a24d6d0829ce59989bf769e9c553cbcc</title>
<path fill="none" stroke="black" d="M51,-215.697C51,-207.983 51,-198.712 51,-190.112"/>
<polygon fill="black" stroke="black" points="54.5001,-190.104 51,-180.104 47.5001,-190.104 54.5001,-190.104"/>
<g id="a_edge8&#45;headlabel"><a xlink:href="dir_000083_000073.html" target="_top" xlink:title="1">
<text text-anchor="middle" x="57.3393" y="-191.199" font-family="Helvetica,sans-Serif" font-size="10.00">1</text>
</a>
</g>
</g>
<!-- dir_279659ddc9854b304a1ef4f4a176eeda&#45;&gt;dir_d269712cc31e133b892a3b3f6424741a -->
<g id="edge6" class="edge"><title>dir_279659ddc9854b304a1ef4f4a176eeda&#45;&gt;dir_d269712cc31e133b892a3b3f6424741a</title>
<path fill="none" stroke="black" d="M77.7248,-215.837C91.3392,-206.3 107.592,-193.625 120,-180 137.351,-160.949 152.593,-135.849 162.777,-117.162"/>
<polygon fill="black" stroke="black" points="165.884,-118.773 167.491,-108.3 159.704,-115.485 165.884,-118.773"/>
<g id="a_edge6&#45;headlabel"><a xlink:href="dir_000083_000095.html" target="_top" xlink:title="1">
<text text-anchor="middle" x="166.703" y="-120.78" font-family="Helvetica,sans-Serif" font-size="10.00">1</text>
</a>
</g>
</g>
<!-- dir_4ab6b4cc6a7edbff49100e9123df213f -->
<g id="node6" class="node"><title>dir_4ab6b4cc6a7edbff49100e9123df213f</title>
<g id="a_node6"><a xlink:href="dir_4ab6b4cc6a7edbff49100e9123df213f.html" target="_top" xlink:title="Common">
<polygon fill="none" stroke="red" points="203.5,-36 148.5,-36 148.5,-0 203.5,-0 203.5,-36"/>
<text text-anchor="middle" x="176" y="-15.5" font-family="Helvetica,sans-Serif" font-size="10.00">Common</text>
</a>
</g>
</g>
<!-- dir_279659ddc9854b304a1ef4f4a176eeda&#45;&gt;dir_4ab6b4cc6a7edbff49100e9123df213f -->
<g id="edge7" class="edge"><title>dir_279659ddc9854b304a1ef4f4a176eeda&#45;&gt;dir_4ab6b4cc6a7edbff49100e9123df213f</title>
<path fill="none" stroke="black" d="M64.5356,-215.558C71.8644,-205.546 80.684,-192.512 87,-180 109.931,-134.575 98.3059,-115.32 125,-72 131.373,-61.6578 140.052,-51.6831 148.444,-43.231"/>
<polygon fill="black" stroke="black" points="150.93,-45.6954 155.679,-36.2243 146.06,-40.6669 150.93,-45.6954"/>
<g id="a_edge7&#45;headlabel"><a xlink:href="dir_000083_000016.html" target="_top" xlink:title="1">
<text text-anchor="middle" x="150.323" y="-47.7357" font-family="Helvetica,sans-Serif" font-size="10.00">1</text>
</a>
</g>
</g>
<!-- dir_25272d395c0fdb531d4aff346d96238f -->
<g id="node4" class="node"><title>dir_25272d395c0fdb531d4aff346d96238f</title>
<g id="a_node4"><a xlink:href="dir_25272d395c0fdb531d4aff346d96238f.html" target="_top" xlink:title="MFT">
<polygon fill="white" stroke="red" points="150,-252 96,-252 96,-216 150,-216 150,-252"/>
<text text-anchor="middle" x="123" y="-231.5" font-family="Helvetica,sans-Serif" font-size="10.00">MFT</text>
</a>
</g>
</g>
<!-- dir_25272d395c0fdb531d4aff346d96238f&#45;&gt;dir_a24d6d0829ce59989bf769e9c553cbcc -->
<g id="edge5" class="edge"><title>dir_25272d395c0fdb531d4aff346d96238f&#45;&gt;dir_a24d6d0829ce59989bf769e9c553cbcc</title>
<path fill="none" stroke="black" d="M105.202,-215.697C96.396,-207.135 85.6179,-196.656 75.9989,-187.304"/>
<polygon fill="black" stroke="black" points="78.2028,-184.566 68.593,-180.104 73.3232,-189.585 78.2028,-184.566"/>
<g id="a_edge5&#45;headlabel"><a xlink:href="dir_000087_000073.html" target="_top" xlink:title="1">
<text text-anchor="middle" x="82.7593" y="-182.536" font-family="Helvetica,sans-Serif" font-size="10.00">1</text>
</a>
</g>
</g>
<!-- dir_25272d395c0fdb531d4aff346d96238f&#45;&gt;dir_d269712cc31e133b892a3b3f6424741a -->
<g id="edge3" class="edge"><title>dir_25272d395c0fdb531d4aff346d96238f&#45;&gt;dir_d269712cc31e133b892a3b3f6424741a</title>
<path fill="none" stroke="black" d="M136.808,-215.814C144.136,-205.882 152.697,-192.842 158,-180 166.16,-160.239 170.726,-136.437 173.216,-118.422"/>
<polygon fill="black" stroke="black" points="176.713,-118.657 174.482,-108.3 169.768,-117.788 176.713,-118.657"/>
<g id="a_edge3&#45;headlabel"><a xlink:href="dir_000087_000095.html" target="_top" xlink:title="1">
<text text-anchor="middle" x="179.085" y="-120.076" font-family="Helvetica,sans-Serif" font-size="10.00">1</text>
</a>
</g>
</g>
<!-- dir_25272d395c0fdb531d4aff346d96238f&#45;&gt;dir_4ab6b4cc6a7edbff49100e9123df213f -->
<g id="edge4" class="edge"><title>dir_25272d395c0fdb531d4aff346d96238f&#45;&gt;dir_4ab6b4cc6a7edbff49100e9123df213f</title>
<path fill="none" stroke="black" d="M145.447,-215.67C171.421,-193.907 212.369,-153.819 226,-108 230.562,-92.6643 231.907,-86.8696 226,-72 221.709,-61.1991 214.058,-51.3244 206.012,-43.1022"/>
<polygon fill="black" stroke="black" points="208.25,-40.4006 198.596,-36.0367 203.422,-45.4687 208.25,-40.4006"/>
<g id="a_edge4&#45;headlabel"><a xlink:href="dir_000087_000016.html" target="_top" xlink:title="1">
<text text-anchor="middle" x="212.811" y="-38.3245" font-family="Helvetica,sans-Serif" font-size="10.00">1</text>
</a>
</g>
</g>
<!-- dir_d269712cc31e133b892a3b3f6424741a&#45;&gt;dir_4ab6b4cc6a7edbff49100e9123df213f -->
<g id="edge1" class="edge"><title>dir_d269712cc31e133b892a3b3f6424741a&#45;&gt;dir_4ab6b4cc6a7edbff49100e9123df213f</title>
<path fill="none" stroke="black" d="M170.084,-71.6966C169.289,-63.9827 169.062,-54.7125 169.405,-46.1124"/>
<polygon fill="black" stroke="black" points="172.898,-46.3243 170.105,-36.1043 165.915,-45.8356 172.898,-46.3243"/>
<g id="a_edge1&#45;headlabel"><a xlink:href="dir_000095_000016.html" target="_top" xlink:title="5">
<text text-anchor="middle" x="175.48" y="-47.6083" font-family="Helvetica,sans-Serif" font-size="10.00">5</text>
</a>
</g>
</g>
<!-- dir_4ab6b4cc6a7edbff49100e9123df213f&#45;&gt;dir_d269712cc31e133b892a3b3f6424741a -->
<g id="edge2" class="edge"><title>dir_4ab6b4cc6a7edbff49100e9123df213f&#45;&gt;dir_d269712cc31e133b892a3b3f6424741a</title>
<path fill="none" stroke="black" d="M181.895,-36.1043C182.701,-43.7913 182.937,-53.0537 182.604,-61.6651"/>
<polygon fill="black" stroke="black" points="179.109,-61.4805 181.916,-71.6966 186.092,-61.9597 179.109,-61.4805"/>
<g id="a_edge2&#45;headlabel"><a xlink:href="dir_000016_000095.html" target="_top" xlink:title="1">
<text text-anchor="middle" x="176.522" y="-55.2" font-family="Helvetica,sans-Serif" font-size="10.00">1</text>
</a>
</g>
</g>
</g>
</svg>
