<?xml version="1.0" encoding="UTF-8" standalone="no"?>
<!DOCTYPE svg PUBLIC "-//W3C//DTD SVG 1.1//EN"
 "http://www.w3.org/Graphics/SVG/1.1/DTD/svg11.dtd">
<!-- Generated by graphviz version 2.36.0 (20140111.2315)
 -->
<!-- Title: /home/travis/build/AliceO2Group/AliceO2/Framework Pages: 1 -->
<!--zoomable 276 -->
<svg id="main" version="1.1" xmlns="http://www.w3.org/2000/svg" xmlns:xlink="http://www.w3.org/1999/xlink" xml:space="preserve" onload="init(evt)">
<style type="text/css"><![CDATA[
.edge:hover path { stroke: red; }
.edge:hover polygon { stroke: red; fill: red; }
]]></style>
<script type="text/javascript"><![CDATA[
var edges = document.getElementsByTagName('g');
if (edges && edges.length) {
  for (var i=0;i<edges.length;i++) {
    if (edges[i].id.substr(0,4)=='edge') {
      edges[i].setAttribute('class','edge');
    }
  }
}
]]></script>
        <defs>
                <circle id="rim" cx="0" cy="0" r="7"/>
                <circle id="rim2" cx="0" cy="0" r="3.5"/>
                <g id="zoomPlus">
                        <use xlink:href="#rim" fill="#404040">
                                <set attributeName="fill" to="#808080" begin="zoomplus.mouseover" end="zoomplus.mouseout"/>
                        </use>
                        <path d="M-4,0h8M0,-4v8" fill="none" stroke="white" stroke-width="1.5" pointer-events="none"/>
                </g>
                <g id="zoomMin">
                        <use xlink:href="#rim" fill="#404040">
                                <set attributeName="fill" to="#808080" begin="zoomminus.mouseover" end="zoomminus.mouseout"/>
                        </use>
                        <path d="M-4,0h8" fill="none" stroke="white" stroke-width="1.5" pointer-events="none"/>
                </g>
                <g id="dirArrow">
                        <path fill="none" stroke="white" stroke-width="1.5" d="M0,-3.0v7 M-2.5,-0.5L0,-3.0L2.5,-0.5"/>
                </g>
               <g id="resetDef">
                       <use xlink:href="#rim2" fill="#404040">
                               <set attributeName="fill" to="#808080" begin="reset.mouseover" end="reset.mouseout"/>
                       </use>
               </g>
        </defs>

<script type="text/javascript">
var viewWidth = 552;
var viewHeight = 276;
var sectionId = 'dynsection-0';
</script>
<script xlink:href="svgpan.js"/>
<svg id="graph" class="graph">
<g id="viewport">
<title>/home/travis/build/AliceO2Group/AliceO2/Framework</title>
<g id="clust1" class="cluster"><title>clusterdir_bcbb2cf9a3d3d83e5515c82071a07177</title>
<g id="a_clust1"><a xlink:href="dir_bcbb2cf9a3d3d83e5515c82071a07177.html" target="_top">
<polygon fill="#eeeeff" stroke="black" points="8,-64 8,-260 348,-260 348,-64 8,-64"/>
</a>
</g>
</g>
<!-- dir_bcbb2cf9a3d3d83e5515c82071a07177 -->
<g id="node1" class="node"><title>dir_bcbb2cf9a3d3d83e5515c82071a07177</title>
<text text-anchor="middle" x="307" y="-231.5" font-family="Helvetica,sans-Serif" font-size="10.00">Framework</text>
</g>
<!-- dir_b315c7ac2f7d253010ed820f5520e66b -->
<g id="node2" class="node"><title>dir_b315c7ac2f7d253010ed820f5520e66b</title>
<g id="a_node2"><a xlink:href="dir_b315c7ac2f7d253010ed820f5520e66b.html" target="_top" xlink:title="ArrowTests">
<polygon fill="white" stroke="red" points="256.25,-252 189.75,-252 189.75,-216 256.25,-216 256.25,-252"/>
<text text-anchor="middle" x="223" y="-231.5" font-family="Helvetica,sans-Serif" font-size="10.00">ArrowTests</text>
</a>
</g>
</g>
<!-- dir_9f165b2481dacfe69aa54d326bd5cd47 -->
<g id="node3" class="node"><title>dir_9f165b2481dacfe69aa54d326bd5cd47</title>
<g id="a_node3"><a xlink:href="dir_9f165b2481dacfe69aa54d326bd5cd47.html" target="_top" xlink:title="Core">
<polygon fill="white" stroke="red" points="157,-180 103,-180 103,-144 157,-144 157,-180"/>
<text text-anchor="middle" x="130" y="-159.5" font-family="Helvetica,sans-Serif" font-size="10.00">Core</text>
</a>
</g>
</g>
<!-- dir_f0af9df59806ed8bcb6931e6b1774828 -->
<g id="node4" class="node"><title>dir_f0af9df59806ed8bcb6931e6b1774828</title>
<g id="a_node4"><a xlink:href="dir_f0af9df59806ed8bcb6931e6b1774828.html" target="_top" xlink:title="DebugGUI">
<polygon fill="white" stroke="red" points="161.25,-108 98.75,-108 98.75,-72 161.25,-72 161.25,-108"/>
<text text-anchor="middle" x="130" y="-87.5" font-family="Helvetica,sans-Serif" font-size="10.00">DebugGUI</text>
</a>
</g>
</g>
<!-- dir_9f165b2481dacfe69aa54d326bd5cd47&#45;&gt;dir_f0af9df59806ed8bcb6931e6b1774828 -->
<g id="edge7" class="edge"><title>dir_9f165b2481dacfe69aa54d326bd5cd47&#45;&gt;dir_f0af9df59806ed8bcb6931e6b1774828</title>
<path fill="none" stroke="black" d="M130,-143.697C130,-135.983 130,-126.712 130,-118.112"/>
<polygon fill="black" stroke="black" points="133.5,-118.104 130,-108.104 126.5,-118.104 133.5,-118.104"/>
<g id="a_edge7&#45;headlabel"><a xlink:href="dir_000353_000358.html" target="_top" xlink:title="3">
<text text-anchor="middle" x="136.339" y="-119.199" font-family="Helvetica,sans-Serif" font-size="10.00">3</text>
</a>
</g>
</g>
<!-- dir_2171f7ec022c5423887b07c69b2f5b48 -->
<g id="node10" class="node"><title>dir_2171f7ec022c5423887b07c69b2f5b48</title>
<g id="a_node10"><a xlink:href="dir_2171f7ec022c5423887b07c69b2f5b48.html" target="_top" xlink:title="DataFormats">
<polygon fill="none" stroke="red" points="430,-180 356,-180 356,-144 430,-144 430,-180"/>
<text text-anchor="middle" x="393" y="-159.5" font-family="Helvetica,sans-Serif" font-size="10.00">DataFormats</text>
</a>
</g>
</g>
<!-- dir_9f165b2481dacfe69aa54d326bd5cd47&#45;&gt;dir_2171f7ec022c5423887b07c69b2f5b48 -->
<g id="edge8" class="edge"><title>dir_9f165b2481dacfe69aa54d326bd5cd47&#45;&gt;dir_2171f7ec022c5423887b07c69b2f5b48</title>
<path fill="none" stroke="black" d="M157.225,-162C220.023,-162 282.822,-162 345.621,-162"/>
<polygon fill="black" stroke="black" points="345.7,-165.5 355.7,-162 345.7,-158.5 345.7,-165.5"/>
<g id="a_edge8&#45;headlabel"><a xlink:href="dir_000353_000056.html" target="_top" xlink:title="18">
<text text-anchor="middle" x="342.105" y="-165.839" font-family="Helvetica,sans-Serif" font-size="10.00">18</text>
</a>
</g>
</g>
<!-- dir_a8f73827fca2a0188d35dc47dc5b0ea3 -->
<g id="node5" class="node"><title>dir_a8f73827fca2a0188d35dc47dc5b0ea3</title>
<g id="a_node5"><a xlink:href="dir_a8f73827fca2a0188d35dc47dc5b0ea3.html" target="_top" xlink:title="TestWorkflows">
<polygon fill="white" stroke="red" points="171.25,-252 88.75,-252 88.75,-216 171.25,-216 171.25,-252"/>
<text text-anchor="middle" x="130" y="-231.5" font-family="Helvetica,sans-Serif" font-size="10.00">TestWorkflows</text>
</a>
</g>
</g>
<!-- dir_a8f73827fca2a0188d35dc47dc5b0ea3&#45;&gt;dir_9f165b2481dacfe69aa54d326bd5cd47 -->
<g id="edge3" class="edge"><title>dir_a8f73827fca2a0188d35dc47dc5b0ea3&#45;&gt;dir_9f165b2481dacfe69aa54d326bd5cd47</title>
<path fill="none" stroke="black" d="M130,-215.697C130,-207.983 130,-198.712 130,-190.112"/>
<polygon fill="black" stroke="black" points="133.5,-190.104 130,-180.104 126.5,-190.104 133.5,-190.104"/>
<g id="a_edge3&#45;headlabel"><a xlink:href="dir_000350_000353.html" target="_top" xlink:title="58">
<text text-anchor="middle" x="136.339" y="-191.199" font-family="Helvetica,sans-Serif" font-size="10.00">58</text>
</a>
</g>
</g>
<!-- dir_0b342c6c6b7d2278121a0bb9c4985063 -->
<g id="node7" class="node"><title>dir_0b342c6c6b7d2278121a0bb9c4985063</title>
<g id="a_node7"><a xlink:href="dir_0b342c6c6b7d2278121a0bb9c4985063.html" target="_top" xlink:title="Generators">
<polygon fill="none" stroke="red" points="544.25,-36 479.75,-36 479.75,-0 544.25,-0 544.25,-36"/>
<text text-anchor="middle" x="512" y="-15.5" font-family="Helvetica,sans-Serif" font-size="10.00">Generators</text>
</a>
</g>
</g>
<!-- dir_a8f73827fca2a0188d35dc47dc5b0ea3&#45;&gt;dir_0b342c6c6b7d2278121a0bb9c4985063 -->
<g id="edge1" class="edge"><title>dir_a8f73827fca2a0188d35dc47dc5b0ea3&#45;&gt;dir_0b342c6c6b7d2278121a0bb9c4985063</title>
<path fill="none" stroke="black" d="M171.278,-218.213C174.21,-217.395 177.138,-216.646 180,-216 247.437,-200.788 438.61,-227.328 489,-180 525.184,-146.015 522.516,-82.7741 517.294,-46.4902"/>
<polygon fill="black" stroke="black" points="520.676,-45.4745 515.632,-36.1573 513.765,-46.5863 520.676,-45.4745"/>
<g id="a_edge1&#45;headlabel"><a xlink:href="dir_000350_000367.html" target="_top" xlink:title="1">
<text text-anchor="middle" x="524.05" y="-46.0725" font-family="Helvetica,sans-Serif" font-size="10.00">1</text>
</a>
</g>
</g>
<!-- dir_4ab6b4cc6a7edbff49100e9123df213f -->
<g id="node8" class="node"><title>dir_4ab6b4cc6a7edbff49100e9123df213f</title>
<g id="a_node8"><a xlink:href="dir_4ab6b4cc6a7edbff49100e9123df213f.html" target="_top" xlink:title="Common">
<polygon fill="none" stroke="red" points="435.5,-36 380.5,-36 380.5,-0 435.5,-0 435.5,-36"/>
<text text-anchor="middle" x="408" y="-15.5" font-family="Helvetica,sans-Serif" font-size="10.00">Common</text>
</a>
</g>
</g>
<!-- dir_a8f73827fca2a0188d35dc47dc5b0ea3&#45;&gt;dir_4ab6b4cc6a7edbff49100e9123df213f -->
<g id="edge2" class="edge"><title>dir_a8f73827fca2a0188d35dc47dc5b0ea3&#45;&gt;dir_4ab6b4cc6a7edbff49100e9123df213f</title>
<path fill="none" stroke="black" d="M171.287,-218.252C174.217,-217.425 177.142,-216.663 180,-216 241.114,-201.832 412.583,-221.076 460,-180 499.543,-145.746 505.361,-109.758 480,-64 472.336,-50.1725 458.457,-40.0328 444.915,-32.9178"/>
<polygon fill="black" stroke="black" points="446.202,-29.6531 435.674,-28.4671 443.165,-35.9598 446.202,-29.6531"/>
<g id="a_edge2&#45;headlabel"><a xlink:href="dir_000350_000016.html" target="_top" xlink:title="2">
<text text-anchor="middle" x="450.673" y="-26.1548" font-family="Helvetica,sans-Serif" font-size="10.00">2</text>
</a>
</g>
</g>
<!-- dir_051dca18e802f8e9474f2e30d29c04e0 -->
<g id="node9" class="node"><title>dir_051dca18e802f8e9474f2e30d29c04e0</title>
<g id="a_node9"><a xlink:href="dir_051dca18e802f8e9474f2e30d29c04e0.html" target="_top" xlink:title="Detectors">
<polygon fill="none" stroke="red" points="471.25,-108 412.75,-108 412.75,-72 471.25,-72 471.25,-108"/>
<text text-anchor="middle" x="442" y="-87.5" font-family="Helvetica,sans-Serif" font-size="10.00">Detectors</text>
</a>
</g>
</g>
<!-- dir_a8f73827fca2a0188d35dc47dc5b0ea3&#45;&gt;dir_051dca18e802f8e9474f2e30d29c04e0 -->
<g id="edge4" class="edge"><title>dir_a8f73827fca2a0188d35dc47dc5b0ea3&#45;&gt;dir_051dca18e802f8e9474f2e30d29c04e0</title>
<path fill="none" stroke="black" d="M171.295,-218.286C174.223,-217.451 177.145,-216.677 180,-216 236.54,-202.587 400.111,-223.177 439,-180 453.822,-163.544 452.995,-137.636 449.392,-118.007"/>
<polygon fill="black" stroke="black" points="452.789,-117.158 447.255,-108.124 445.947,-118.638 452.789,-117.158"/>
<g id="a_edge4&#45;headlabel"><a xlink:href="dir_000350_000028.html" target="_top" xlink:title="4">
<text text-anchor="middle" x="456.324" y="-117.571" font-family="Helvetica,sans-Serif" font-size="10.00">4</text>
</a>
</g>
</g>
<!-- dir_a8f73827fca2a0188d35dc47dc5b0ea3&#45;&gt;dir_2171f7ec022c5423887b07c69b2f5b48 -->
<g id="edge5" class="edge"><title>dir_a8f73827fca2a0188d35dc47dc5b0ea3&#45;&gt;dir_2171f7ec022c5423887b07c69b2f5b48</title>
<path fill="none" stroke="black" d="M171.351,-218.509C174.266,-217.62 177.17,-216.774 180,-216 252.096,-196.277 275.387,-202.451 345.79,-181.798"/>
<polygon fill="black" stroke="black" points="347.003,-185.088 355.566,-178.849 344.982,-178.386 347.003,-185.088"/>
<g id="a_edge5&#45;headlabel"><a xlink:href="dir_000350_000056.html" target="_top" xlink:title="2">
<text text-anchor="middle" x="344.382" y="-186.344" font-family="Helvetica,sans-Serif" font-size="10.00">2</text>
</a>
</g>
</g>
<!-- dir_86f64936653d09622c529b3cc7c8edcd -->
<g id="node6" class="node"><title>dir_86f64936653d09622c529b3cc7c8edcd</title>
<g id="a_node6"><a xlink:href="dir_86f64936653d09622c529b3cc7c8edcd.html" target="_top" xlink:title="Utils">
<polygon fill="white" stroke="red" points="70,-252 16,-252 16,-216 70,-216 70,-252"/>
<text text-anchor="middle" x="43" y="-231.5" font-family="Helvetica,sans-Serif" font-size="10.00">Utils</text>
</a>
</g>
</g>
<!-- dir_86f64936653d09622c529b3cc7c8edcd&#45;&gt;dir_9f165b2481dacfe69aa54d326bd5cd47 -->
<g id="edge13" class="edge"><title>dir_86f64936653d09622c529b3cc7c8edcd&#45;&gt;dir_9f165b2481dacfe69aa54d326bd5cd47</title>
<path fill="none" stroke="black" d="M64.5056,-215.697C75.4625,-206.881 88.9459,-196.032 100.825,-186.474"/>
<polygon fill="black" stroke="black" points="103.145,-189.1 108.742,-180.104 98.7565,-183.646 103.145,-189.1"/>
<g id="a_edge13&#45;headlabel"><a xlink:href="dir_000038_000353.html" target="_top" xlink:title="24">
<text text-anchor="middle" x="102.124" y="-191.066" font-family="Helvetica,sans-Serif" font-size="10.00">24</text>
</a>
</g>
</g>
<!-- dir_86f64936653d09622c529b3cc7c8edcd&#45;&gt;dir_2171f7ec022c5423887b07c69b2f5b48 -->
<g id="edge14" class="edge"><title>dir_86f64936653d09622c529b3cc7c8edcd&#45;&gt;dir_2171f7ec022c5423887b07c69b2f5b48</title>
<path fill="none" stroke="black" d="M70.1727,-219.1C73.1043,-217.924 76.0825,-216.858 79,-216 193.197,-182.401 231.691,-210.103 345.794,-181.514"/>
<polygon fill="black" stroke="black" points="346.801,-184.869 355.6,-178.967 345.041,-178.094 346.801,-184.869"/>
<g id="a_edge14&#45;headlabel"><a xlink:href="dir_000038_000056.html" target="_top" xlink:title="1">
<text text-anchor="middle" x="344.036" y="-186.02" font-family="Helvetica,sans-Serif" font-size="10.00">1</text>
</a>
</g>
</g>
<!-- dir_4ab6b4cc6a7edbff49100e9123df213f&#45;&gt;dir_2171f7ec022c5423887b07c69b2f5b48 -->
<g id="edge6" class="edge"><title>dir_4ab6b4cc6a7edbff49100e9123df213f&#45;&gt;dir_2171f7ec022c5423887b07c69b2f5b48</title>
<path fill="none" stroke="black" d="M414.187,-36.0913C414.127,-44.4959 412.988,-54.7773 412,-64 409.475,-87.5771 406.719,-114.391 403.268,-133.843"/>
<polygon fill="black" stroke="black" points="399.8,-133.333 401.275,-143.824 406.665,-134.703 399.8,-133.333"/>
<g id="a_edge6&#45;headlabel"><a xlink:href="dir_000016_000056.html" target="_top" xlink:title="1">
<text text-anchor="middle" x="397.72" y="-126.752" font-family="Helvetica,sans-Serif" font-size="10.00">1</text>
</a>
</g>
</g>
<!-- dir_051dca18e802f8e9474f2e30d29c04e0&#45;&gt;dir_9f165b2481dacfe69aa54d326bd5cd47 -->
<g id="edge11" class="edge"><title>dir_051dca18e802f8e9474f2e30d29c04e0&#45;&gt;dir_9f165b2481dacfe69aa54d326bd5cd47</title>
<path fill="none" stroke="black" d="M412.431,-97.634C355.242,-110.465 229.607,-138.652 166.991,-152.701"/>
<polygon fill="black" stroke="black" points="166.133,-149.306 157.142,-154.91 167.666,-156.136 166.133,-149.306"/>
<g id="a_edge11&#45;headlabel"><a xlink:href="dir_000028_000353.html" target="_top" xlink:title="14">
<text text-anchor="middle" x="169.019" y="-143.249" font-family="Helvetica,sans-Serif" font-size="10.00">14</text>
</a>
</g>
</g>
<!-- dir_051dca18e802f8e9474f2e30d29c04e0&#45;&gt;dir_0b342c6c6b7d2278121a0bb9c4985063 -->
<g id="edge9" class="edge"><title>dir_051dca18e802f8e9474f2e30d29c04e0&#45;&gt;dir_0b342c6c6b7d2278121a0bb9c4985063</title>
<path fill="none" stroke="black" d="M459.303,-71.6966C467.865,-63.135 478.344,-52.6562 487.696,-43.3045"/>
<polygon fill="black" stroke="black" points="490.299,-45.6503 494.896,-36.1043 485.35,-40.7005 490.299,-45.6503"/>
<g id="a_edge9&#45;headlabel"><a xlink:href="dir_000028_000367.html" target="_top" xlink:title="1">
<text text-anchor="middle" x="489.765" y="-47.6997" font-family="Helvetica,sans-Serif" font-size="10.00">1</text>
</a>
</g>
</g>
<!-- dir_051dca18e802f8e9474f2e30d29c04e0&#45;&gt;dir_4ab6b4cc6a7edbff49100e9123df213f -->
<g id="edge10" class="edge"><title>dir_051dca18e802f8e9474f2e30d29c04e0&#45;&gt;dir_4ab6b4cc6a7edbff49100e9123df213f</title>
<path fill="none" stroke="black" d="M433.596,-71.6966C429.725,-63.7284 425.048,-54.0995 420.757,-45.2641"/>
<polygon fill="black" stroke="black" points="423.825,-43.5702 416.308,-36.1043 417.529,-46.6286 423.825,-43.5702"/>
<g id="a_edge10&#45;headlabel"><a xlink:href="dir_000028_000016.html" target="_top" xlink:title="59">
<text text-anchor="middle" x="427.95" y="-43.0631" font-family="Helvetica,sans-Serif" font-size="10.00">59</text>
</a>
</g>
</g>
<!-- dir_051dca18e802f8e9474f2e30d29c04e0&#45;&gt;dir_2171f7ec022c5423887b07c69b2f5b48 -->
<g id="edge12" class="edge"><title>dir_051dca18e802f8e9474f2e30d29c04e0&#45;&gt;dir_2171f7ec022c5423887b07c69b2f5b48</title>
<path fill="none" stroke="black" d="M435.922,-108.104C430.995,-116.383 424.128,-126.488 417.269,-135.64"/>
<polygon fill="black" stroke="black" points="414.385,-133.648 411.028,-143.697 419.919,-137.934 414.385,-133.648"/>
<g id="a_edge12&#45;headlabel"><a xlink:href="dir_000028_000056.html" target="_top" xlink:title="225">
<text text-anchor="middle" x="414.342" y="-126.567" font-family="Helvetica,sans-Serif" font-size="10.00">225</text>
</a>
</g>
</g>
<!-- dir_2171f7ec022c5423887b07c69b2f5b48&#45;&gt;dir_4ab6b4cc6a7edbff49100e9123df213f -->
<g id="edge15" class="edge"><title>dir_2171f7ec022c5423887b07c69b2f5b48&#45;&gt;dir_4ab6b4cc6a7edbff49100e9123df213f</title>
<path fill="none" stroke="black" d="M388.183,-143.824C387.691,-124.433 391.007,-91.9432 394,-64 394.617,-58.2358 395.294,-52.058 396.16,-46.1834"/>
<polygon fill="black" stroke="black" points="399.649,-46.549 397.95,-36.0913 392.757,-45.3261 399.649,-46.549"/>
<g id="a_edge15&#45;headlabel"><a xlink:href="dir_000056_000016.html" target="_top" xlink:title="18">
<text text-anchor="middle" x="401.817" y="-48.0843" font-family="Helvetica,sans-Serif" font-size="10.00">18</text>
</a>
</g>
</g>
<!-- dir_2171f7ec022c5423887b07c69b2f5b48&#45;&gt;dir_051dca18e802f8e9474f2e30d29c04e0 -->
<g id="edge16" class="edge"><title>dir_2171f7ec022c5423887b07c69b2f5b48&#45;&gt;dir_051dca18e802f8e9474f2e30d29c04e0</title>
<path fill="none" stroke="black" d="M399.197,-143.697C404.155,-135.389 411.037,-125.277 417.895,-116.141"/>
<polygon fill="black" stroke="black" points="420.766,-118.15 424.132,-108.104 415.236,-113.859 420.766,-118.15"/>
<g id="a_edge16&#45;headlabel"><a xlink:href="dir_000056_000028.html" target="_top" xlink:title="1">
<text text-anchor="middle" x="420.805" y="-120.231" font-family="Helvetica,sans-Serif" font-size="10.00">1</text>
</a>
</g>
</g>
</g>
</svg>
        <g id="navigator" transform="translate(0 0)" fill="#404254">
                <rect fill="#f2f5e9" fill-opacity="0.5" stroke="#606060" stroke-width=".5" x="0" y="0" width="60" height="60"/>
                <use id="zoomplus" xlink:href="#zoomPlus" x="17" y="9" onmousedown="handleZoom(evt,'in')"/>
                <use id="zoomminus" xlink:href="#zoomMin" x="42" y="9" onmousedown="handleZoom(evt,'out')"/>
                <use id="reset" xlink:href="#resetDef" x="30" y="36" onmousedown="handleReset()"/>
                <g id="arrowUp" xlink:href="#dirArrow" transform="translate(30 24)" onmousedown="handlePan(0,-1)">
                  <use xlink:href="#rim" fill="#404040">
                        <set attributeName="fill" to="#808080" begin="arrowUp.mouseover" end="arrowUp.mouseout"/>
                  </use>
                  <path fill="none" stroke="white" stroke-width="1.5" d="M0,-3.0v7 M-2.5,-0.5L0,-3.0L2.5,-0.5"/>
                </g>
                <g id="arrowRight" xlink:href="#dirArrow" transform="rotate(90) translate(36 -43)" onmousedown="handlePan(1,0)">
                  <use xlink:href="#rim" fill="#404040">
                        <set attributeName="fill" to="#808080" begin="arrowRight.mouseover" end="arrowRight.mouseout"/>
                  </use>
                  <path fill="none" stroke="white" stroke-width="1.5" d="M0,-3.0v7 M-2.5,-0.5L0,-3.0L2.5,-0.5"/>
                </g>
                <g id="arrowDown" xlink:href="#dirArrow" transform="rotate(180) translate(-30 -48)" onmousedown="handlePan(0,1)">
                  <use xlink:href="#rim" fill="#404040">
                        <set attributeName="fill" to="#808080" begin="arrowDown.mouseover" end="arrowDown.mouseout"/>
                  </use>
                  <path fill="none" stroke="white" stroke-width="1.5" d="M0,-3.0v7 M-2.5,-0.5L0,-3.0L2.5,-0.5"/>
                </g>
                <g id="arrowLeft" xlink:href="#dirArrow" transform="rotate(270) translate(-36 17)" onmousedown="handlePan(-1,0)">
                  <use xlink:href="#rim" fill="#404040">
                        <set attributeName="fill" to="#808080" begin="arrowLeft.mouseover" end="arrowLeft.mouseout"/>
                  </use>
                  <path fill="none" stroke="white" stroke-width="1.5" d="M0,-3.0v7 M-2.5,-0.5L0,-3.0L2.5,-0.5"/>
                </g>
        </g>
        <svg viewBox="0 0 15 15" width="100%" height="30px" preserveAspectRatio="xMaxYMin meet">
         <g id="arrow_out" transform="scale(0.3 0.3)">
          <a xlink:href="dir_bcbb2cf9a3d3d83e5515c82071a07177_dep_org.svg" target="_base">
           <rect id="button" ry="5" rx="5" y="6" x="6" height="38" width="38"
                fill="#f2f5e9" fill-opacity="0.5" stroke="#606060" stroke-width="1.0"/>
           <path id="arrow"
             d="M 11.500037,31.436501 C 11.940474,20.09759 22.043105,11.32322 32.158766,21.979434 L 37.068811,17.246167 C 37.068811,17.246167 37.088388,32 37.088388,32 L 22.160133,31.978069 C 22.160133,31.978069 26.997745,27.140456 26.997745,27.140456 C 18.528582,18.264221 13.291696,25.230495 11.500037,31.436501 z"
             style="fill:#404040;"/>
          </a>
         </g>
        </svg>
</svg>
