<?xml version="1.0" encoding="UTF-8" standalone="no"?>
<!DOCTYPE svg PUBLIC "-//W3C//DTD SVG 1.1//EN"
 "http://www.w3.org/Graphics/SVG/1.1/DTD/svg11.dtd">
<!-- Generated by graphviz version 2.36.0 (20140111.2315)
 -->
<!-- Title: /home/travis/build/AliceO2Group/AliceO2/Detectors/TPC Pages: 1 -->
<!--zoomable 519 -->
<svg id="main" version="1.1" xmlns="http://www.w3.org/2000/svg" xmlns:xlink="http://www.w3.org/1999/xlink" xml:space="preserve" onload="init(evt)">
<style type="text/css"><![CDATA[
.edge:hover path { stroke: red; }
.edge:hover polygon { stroke: red; fill: red; }
]]></style>
<script type="text/javascript"><![CDATA[
var edges = document.getElementsByTagName('g');
if (edges && edges.length) {
  for (var i=0;i<edges.length;i++) {
    if (edges[i].id.substr(0,4)=='edge') {
      edges[i].setAttribute('class','edge');
    }
  }
}
]]></script>
        <defs>
                <circle id="rim" cx="0" cy="0" r="7"/>
                <circle id="rim2" cx="0" cy="0" r="3.5"/>
                <g id="zoomPlus">
                        <use xlink:href="#rim" fill="#404040">
                                <set attributeName="fill" to="#808080" begin="zoomplus.mouseover" end="zoomplus.mouseout"/>
                        </use>
                        <path d="M-4,0h8M0,-4v8" fill="none" stroke="white" stroke-width="1.5" pointer-events="none"/>
                </g>
                <g id="zoomMin">
                        <use xlink:href="#rim" fill="#404040">
                                <set attributeName="fill" to="#808080" begin="zoomminus.mouseover" end="zoomminus.mouseout"/>
                        </use>
                        <path d="M-4,0h8" fill="none" stroke="white" stroke-width="1.5" pointer-events="none"/>
                </g>
                <g id="dirArrow">
                        <path fill="none" stroke="white" stroke-width="1.5" d="M0,-3.0v7 M-2.5,-0.5L0,-3.0L2.5,-0.5"/>
                </g>
               <g id="resetDef">
                       <use xlink:href="#rim2" fill="#404040">
                               <set attributeName="fill" to="#808080" begin="reset.mouseover" end="reset.mouseout"/>
                       </use>
               </g>
        </defs>

<script type="text/javascript">
var viewWidth = 523;
var viewHeight = 519;
var sectionId = 'dynsection-0';
</script>
<script xlink:href="svgpan.js"/>
<svg id="graph" class="graph">
<g id="viewport">
<title>/home/travis/build/AliceO2Group/AliceO2/Detectors/TPC</title>
<g id="clust1" class="cluster"><title>clusterdir_051dca18e802f8e9474f2e30d29c04e0</title>
<g id="a_clust1"><a xlink:href="dir_051dca18e802f8e9474f2e30d29c04e0.html" target="_top" xlink:title="Detectors">
<polygon fill="#ddddee" stroke="black" points="8,-128 8,-503 216,-503 216,-128 8,-128"/>
<text text-anchor="middle" x="112" y="-491" font-family="Helvetica,sans-Serif" font-size="10.00">Detectors</text>
</a>
</g>
</g>
<g id="clust2" class="cluster"><title>clusterdir_a597e8e061b11201a1dff411feb10d0b</title>
<g id="a_clust2"><a xlink:href="dir_a597e8e061b11201a1dff411feb10d0b.html" target="_top">
<polygon fill="#eeeeff" stroke="black" points="16,-136 16,-476 208,-476 208,-136 16,-136"/>
</a>
</g>
</g>
<!-- dir_a597e8e061b11201a1dff411feb10d0b -->
<g id="node1" class="node"><title>dir_a597e8e061b11201a1dff411feb10d0b</title>
<text text-anchor="middle" x="159" y="-447.5" font-family="Helvetica,sans-Serif" font-size="10.00">TPC</text>
</g>
<!-- dir_677b030cc750909e4cd27413873678d8 -->
<g id="node2" class="node"><title>dir_677b030cc750909e4cd27413873678d8</title>
<g id="a_node2"><a xlink:href="dir_677b030cc750909e4cd27413873678d8.html" target="_top" xlink:title="base">
<polygon fill="white" stroke="red" points="179,-180 125,-180 125,-144 179,-144 179,-180"/>
<text text-anchor="middle" x="152" y="-159.5" font-family="Helvetica,sans-Serif" font-size="10.00">base</text>
</a>
</g>
</g>
<!-- dir_6af676bf18881990e4083e191d0e63e0 -->
<g id="node10" class="node"><title>dir_6af676bf18881990e4083e191d0e63e0</title>
<g id="a_node10"><a xlink:href="dir_6af676bf18881990e4083e191d0e63e0.html" target="_top" xlink:title="CCDB">
<polygon fill="none" stroke="red" points="179,-108 125,-108 125,-72 179,-72 179,-108"/>
<text text-anchor="middle" x="152" y="-87.5" font-family="Helvetica,sans-Serif" font-size="10.00">CCDB</text>
</a>
</g>
</g>
<!-- dir_677b030cc750909e4cd27413873678d8&#45;&gt;dir_6af676bf18881990e4083e191d0e63e0 -->
<g id="edge19" class="edge"><title>dir_677b030cc750909e4cd27413873678d8&#45;&gt;dir_6af676bf18881990e4083e191d0e63e0</title>
<path fill="none" stroke="black" d="M152,-143.697C152,-135.983 152,-126.712 152,-118.112"/>
<polygon fill="black" stroke="black" points="155.5,-118.104 152,-108.104 148.5,-118.104 155.5,-118.104"/>
<g id="a_edge19&#45;headlabel"><a xlink:href="dir_000197_000004.html" target="_top" xlink:title="4">
<text text-anchor="middle" x="158.339" y="-119.199" font-family="Helvetica,sans-Serif" font-size="10.00">4</text>
</a>
</g>
</g>
<!-- dir_2171f7ec022c5423887b07c69b2f5b48 -->
<g id="node14" class="node"><title>dir_2171f7ec022c5423887b07c69b2f5b48</title>
<g id="a_node14"><a xlink:href="dir_2171f7ec022c5423887b07c69b2f5b48.html" target="_top" xlink:title="DataFormats">
<polygon fill="none" stroke="red" points="362,-180 288,-180 288,-144 362,-144 362,-180"/>
<text text-anchor="middle" x="325" y="-159.5" font-family="Helvetica,sans-Serif" font-size="10.00">DataFormats</text>
</a>
</g>
</g>
<!-- dir_677b030cc750909e4cd27413873678d8&#45;&gt;dir_2171f7ec022c5423887b07c69b2f5b48 -->
<g id="edge20" class="edge"><title>dir_677b030cc750909e4cd27413873678d8&#45;&gt;dir_2171f7ec022c5423887b07c69b2f5b48</title>
<path fill="none" stroke="black" d="M179.031,-162C211.93,-162 244.829,-162 277.728,-162"/>
<polygon fill="black" stroke="black" points="277.938,-165.5 287.938,-162 277.938,-158.5 277.938,-165.5"/>
<g id="a_edge20&#45;headlabel"><a xlink:href="dir_000197_000056.html" target="_top" xlink:title="13">
<text text-anchor="middle" x="274.343" y="-165.839" font-family="Helvetica,sans-Serif" font-size="10.00">13</text>
</a>
</g>
</g>
<!-- dir_4995562033b321477cfe3c34a14a5189 -->
<g id="node3" class="node"><title>dir_4995562033b321477cfe3c34a14a5189</title>
<g id="a_node3"><a xlink:href="dir_4995562033b321477cfe3c34a14a5189.html" target="_top" xlink:title="calibration">
<polygon fill="white" stroke="red" points="125.25,-396 64.75,-396 64.75,-360 125.25,-360 125.25,-396"/>
<text text-anchor="middle" x="95" y="-375.5" font-family="Helvetica,sans-Serif" font-size="10.00">calibration</text>
</a>
</g>
</g>
<!-- dir_4995562033b321477cfe3c34a14a5189&#45;&gt;dir_677b030cc750909e4cd27413873678d8 -->
<g id="edge10" class="edge"><title>dir_4995562033b321477cfe3c34a14a5189&#45;&gt;dir_677b030cc750909e4cd27413873678d8</title>
<path fill="none" stroke="black" d="M77.2669,-359.599C68.7614,-349.998 59.4675,-337.336 55,-324 49.9175,-308.829 51.5883,-303.632 55,-288 62.506,-253.609 66.5723,-243.928 88,-216 96.4675,-204.964 107.636,-194.722 118.269,-186.243"/>
<polygon fill="black" stroke="black" points="120.444,-188.985 126.243,-180.118 116.18,-183.434 120.444,-188.985"/>
<g id="a_edge10&#45;headlabel"><a xlink:href="dir_000292_000197.html" target="_top" xlink:title="10">
<text text-anchor="middle" x="119.323" y="-190.926" font-family="Helvetica,sans-Serif" font-size="10.00">10</text>
</a>
</g>
</g>
<!-- dir_a5de047958dd458e809773c6ffaa8478 -->
<g id="node5" class="node"><title>dir_a5de047958dd458e809773c6ffaa8478</title>
<g id="a_node5"><a xlink:href="dir_a5de047958dd458e809773c6ffaa8478.html" target="_top" xlink:title="reconstruction">
<polygon fill="white" stroke="red" points="142,-324 64,-324 64,-288 142,-288 142,-324"/>
<text text-anchor="middle" x="103" y="-303.5" font-family="Helvetica,sans-Serif" font-size="10.00">reconstruction</text>
</a>
</g>
</g>
<!-- dir_4995562033b321477cfe3c34a14a5189&#45;&gt;dir_a5de047958dd458e809773c6ffaa8478 -->
<g id="edge12" class="edge"><title>dir_4995562033b321477cfe3c34a14a5189&#45;&gt;dir_a5de047958dd458e809773c6ffaa8478</title>
<path fill="none" stroke="black" d="M91.0618,-359.697C91.1477,-351.983 91.9806,-342.712 93.3062,-334.112"/>
<polygon fill="black" stroke="black" points="96.7801,-334.573 95.1502,-324.104 89.896,-333.305 96.7801,-334.573"/>
<g id="a_edge12&#45;headlabel"><a xlink:href="dir_000292_000234.html" target="_top" xlink:title="3">
<text text-anchor="middle" x="98.9211" y="-336.123" font-family="Helvetica,sans-Serif" font-size="10.00">3</text>
</a>
</g>
</g>
<!-- dir_4ab6b4cc6a7edbff49100e9123df213f -->
<g id="node9" class="node"><title>dir_4ab6b4cc6a7edbff49100e9123df213f</title>
<g id="a_node9"><a xlink:href="dir_4ab6b4cc6a7edbff49100e9123df213f.html" target="_top" xlink:title="Common">
<polygon fill="none" stroke="red" points="379.5,-36 324.5,-36 324.5,-0 379.5,-0 379.5,-36"/>
<text text-anchor="middle" x="352" y="-15.5" font-family="Helvetica,sans-Serif" font-size="10.00">Common</text>
</a>
</g>
</g>
<!-- dir_4995562033b321477cfe3c34a14a5189&#45;&gt;dir_4ab6b4cc6a7edbff49100e9123df213f -->
<g id="edge11" class="edge"><title>dir_4995562033b321477cfe3c34a14a5189&#45;&gt;dir_4ab6b4cc6a7edbff49100e9123df213f</title>
<path fill="none" stroke="black" d="M125.275,-363.146C128.516,-361.961 131.799,-360.881 135,-360 299.349,-314.79 424.233,-403.163 503,-252 545.056,-171.288 442.941,-82.8909 386.439,-42.0477"/>
<polygon fill="black" stroke="black" points="388.303,-39.0787 378.123,-36.1411 384.249,-44.7855 388.303,-39.0787"/>
<g id="a_edge11&#45;headlabel"><a xlink:href="dir_000292_000016.html" target="_top" xlink:title="3">
<text text-anchor="middle" x="392.878" y="-36.3456" font-family="Helvetica,sans-Serif" font-size="10.00">3</text>
</a>
</g>
</g>
<!-- dir_4995562033b321477cfe3c34a14a5189&#45;&gt;dir_2171f7ec022c5423887b07c69b2f5b48 -->
<g id="edge13" class="edge"><title>dir_4995562033b321477cfe3c34a14a5189&#45;&gt;dir_2171f7ec022c5423887b07c69b2f5b48</title>
<path fill="none" stroke="black" d="M125.371,-363.465C128.594,-362.217 131.846,-361.036 135,-360 200.961,-338.345 237.929,-373.109 287,-324 322.598,-288.375 327.257,-226.011 326.66,-190.257"/>
<polygon fill="black" stroke="black" points="330.153,-189.957 326.335,-180.074 323.156,-190.181 330.153,-189.957"/>
<g id="a_edge13&#45;headlabel"><a xlink:href="dir_000292_000056.html" target="_top" xlink:title="3">
<text text-anchor="middle" x="333.105" y="-190.959" font-family="Helvetica,sans-Serif" font-size="10.00">3</text>
</a>
</g>
</g>
<!-- dir_c8aedc994017b243e124cedd663b3bbb -->
<g id="node4" class="node"><title>dir_c8aedc994017b243e124cedd663b3bbb</title>
<g id="a_node4"><a xlink:href="dir_c8aedc994017b243e124cedd663b3bbb.html" target="_top" xlink:title="monitor">
<polygon fill="white" stroke="red" points="100,-468 46,-468 46,-432 100,-432 100,-468"/>
<text text-anchor="middle" x="73" y="-447.5" font-family="Helvetica,sans-Serif" font-size="10.00">monitor</text>
</a>
</g>
</g>
<!-- dir_c8aedc994017b243e124cedd663b3bbb&#45;&gt;dir_677b030cc750909e4cd27413873678d8 -->
<g id="edge30" class="edge"><title>dir_c8aedc994017b243e124cedd663b3bbb&#45;&gt;dir_677b030cc750909e4cd27413873678d8</title>
<path fill="none" stroke="black" d="M62.3749,-431.556C56.9021,-421.543 50.8021,-408.509 48,-396 30.4595,-317.699 15.6831,-281.525 62,-216 75.0727,-197.506 96.8123,-184.442 115.65,-175.912"/>
<polygon fill="black" stroke="black" points="117.067,-179.113 124.894,-171.973 114.322,-172.674 117.067,-179.113"/>
<g id="a_edge30&#45;headlabel"><a xlink:href="dir_000297_000197.html" target="_top" xlink:title="11">
<text text-anchor="middle" x="114.873" y="-180.634" font-family="Helvetica,sans-Serif" font-size="10.00">11</text>
</a>
</g>
</g>
<!-- dir_c8aedc994017b243e124cedd663b3bbb&#45;&gt;dir_4995562033b321477cfe3c34a14a5189 -->
<g id="edge29" class="edge"><title>dir_c8aedc994017b243e124cedd663b3bbb&#45;&gt;dir_4995562033b321477cfe3c34a14a5189</title>
<path fill="none" stroke="black" d="M78.4382,-431.697C80.8892,-423.898 83.8402,-414.509 86.568,-405.829"/>
<polygon fill="black" stroke="black" points="89.965,-406.694 89.6244,-396.104 83.287,-404.595 89.965,-406.694"/>
<g id="a_edge29&#45;headlabel"><a xlink:href="dir_000297_000292.html" target="_top" xlink:title="1">
<text text-anchor="middle" x="91.596" y="-408.474" font-family="Helvetica,sans-Serif" font-size="10.00">1</text>
</a>
</g>
</g>
<!-- dir_c8aedc994017b243e124cedd663b3bbb&#45;&gt;dir_a5de047958dd458e809773c6ffaa8478 -->
<g id="edge31" class="edge"><title>dir_c8aedc994017b243e124cedd663b3bbb&#45;&gt;dir_a5de047958dd458e809773c6ffaa8478</title>
<path fill="none" stroke="black" d="M63.9398,-431.789C55.5816,-413.501 45.7568,-383.976 55,-360 59.1028,-349.358 66.4431,-339.528 74.1686,-331.298"/>
<polygon fill="black" stroke="black" points="76.6699,-333.747 81.29,-324.213 71.7325,-328.785 76.6699,-333.747"/>
<g id="a_edge31&#45;headlabel"><a xlink:href="dir_000297_000234.html" target="_top" xlink:title="2">
<text text-anchor="middle" x="76.1244" y="-335.795" font-family="Helvetica,sans-Serif" font-size="10.00">2</text>
</a>
</g>
</g>
<!-- dir_c8aedc994017b243e124cedd663b3bbb&#45;&gt;dir_2171f7ec022c5423887b07c69b2f5b48 -->
<g id="edge32" class="edge"><title>dir_c8aedc994017b243e124cedd663b3bbb&#45;&gt;dir_2171f7ec022c5423887b07c69b2f5b48</title>
<path fill="none" stroke="black" d="M100.22,-439.653C107.603,-437.143 115.601,-434.447 123,-432 271.926,-382.752 335.723,-420.991 459,-324 499.734,-291.951 533.982,-257.551 503,-216 487.288,-194.928 419.393,-179.2 372.154,-170.555"/>
<polygon fill="black" stroke="black" points="372.577,-167.075 362.118,-168.767 371.35,-173.967 372.577,-167.075"/>
<g id="a_edge32&#45;headlabel"><a xlink:href="dir_000297_000056.html" target="_top" xlink:title="1">
<text text-anchor="middle" x="376.614" y="-162.41" font-family="Helvetica,sans-Serif" font-size="10.00">1</text>
</a>
</g>
</g>
<!-- dir_a5de047958dd458e809773c6ffaa8478&#45;&gt;dir_677b030cc750909e4cd27413873678d8 -->
<g id="edge24" class="edge"><title>dir_a5de047958dd458e809773c6ffaa8478&#45;&gt;dir_677b030cc750909e4cd27413873678d8</title>
<path fill="none" stroke="black" d="M97.3825,-287.835C92.3208,-269.325 87.0639,-239.374 97,-216 101.735,-204.862 110.084,-194.93 118.868,-186.759"/>
<polygon fill="black" stroke="black" points="121.352,-189.238 126.62,-180.045 116.77,-183.946 121.352,-189.238"/>
<g id="a_edge24&#45;headlabel"><a xlink:href="dir_000234_000197.html" target="_top" xlink:title="38">
<text text-anchor="middle" x="120.494" y="-191.237" font-family="Helvetica,sans-Serif" font-size="10.00">38</text>
</a>
</g>
</g>
<!-- dir_a5de047958dd458e809773c6ffaa8478&#45;&gt;dir_4995562033b321477cfe3c34a14a5189 -->
<g id="edge23" class="edge"><title>dir_a5de047958dd458e809773c6ffaa8478&#45;&gt;dir_4995562033b321477cfe3c34a14a5189</title>
<path fill="none" stroke="black" d="M106.94,-324.104C106.867,-331.791 106.045,-341.054 104.728,-349.665"/>
<polygon fill="black" stroke="black" points="101.25,-349.23 102.893,-359.697 108.135,-350.49 101.25,-349.23"/>
<g id="a_edge23&#45;headlabel"><a xlink:href="dir_000234_000292.html" target="_top" xlink:title="1">
<text text-anchor="middle" x="99.1033" y="-342.683" font-family="Helvetica,sans-Serif" font-size="10.00">1</text>
</a>
</g>
</g>
<!-- dir_7f309bec8670bb3fb666e7e061b24659 -->
<g id="node6" class="node"><title>dir_7f309bec8670bb3fb666e7e061b24659</title>
<g id="a_node6"><a xlink:href="dir_7f309bec8670bb3fb666e7e061b24659.html" target="_top" xlink:title="simulation">
<polygon fill="white" stroke="red" points="182.25,-252 121.75,-252 121.75,-216 182.25,-216 182.25,-252"/>
<text text-anchor="middle" x="152" y="-231.5" font-family="Helvetica,sans-Serif" font-size="10.00">simulation</text>
</a>
</g>
</g>
<!-- dir_a5de047958dd458e809773c6ffaa8478&#45;&gt;dir_7f309bec8670bb3fb666e7e061b24659 -->
<g id="edge22" class="edge"><title>dir_a5de047958dd458e809773c6ffaa8478&#45;&gt;dir_7f309bec8670bb3fb666e7e061b24659</title>
<path fill="none" stroke="black" d="M115.112,-287.697C120.868,-279.474 127.862,-269.483 134.206,-260.421"/>
<polygon fill="black" stroke="black" points="137.16,-262.304 140.027,-252.104 131.425,-258.29 137.16,-262.304"/>
<g id="a_edge22&#45;headlabel"><a xlink:href="dir_000234_000173.html" target="_top" xlink:title="1">
<text text-anchor="middle" x="137.424" y="-264.377" font-family="Helvetica,sans-Serif" font-size="10.00">1</text>
</a>
</g>
</g>
<!-- dir_a5de047958dd458e809773c6ffaa8478&#45;&gt;dir_2171f7ec022c5423887b07c69b2f5b48 -->
<g id="edge25" class="edge"><title>dir_a5de047958dd458e809773c6ffaa8478&#45;&gt;dir_2171f7ec022c5423887b07c69b2f5b48</title>
<path fill="none" stroke="black" d="M132.13,-287.894C149.366,-277.664 171.559,-264.302 191,-252 225.711,-230.035 264.769,-203.931 291.721,-185.695"/>
<polygon fill="black" stroke="black" points="293.712,-188.574 300.026,-180.066 289.784,-182.779 293.712,-188.574"/>
<g id="a_edge25&#45;headlabel"><a xlink:href="dir_000234_000056.html" target="_top" xlink:title="51">
<text text-anchor="middle" x="292.33" y="-190.441" font-family="Helvetica,sans-Serif" font-size="10.00">51</text>
</a>
</g>
</g>
<!-- dir_7f309bec8670bb3fb666e7e061b24659&#45;&gt;dir_677b030cc750909e4cd27413873678d8 -->
<g id="edge2" class="edge"><title>dir_7f309bec8670bb3fb666e7e061b24659&#45;&gt;dir_677b030cc750909e4cd27413873678d8</title>
<path fill="none" stroke="black" d="M152,-215.697C152,-207.983 152,-198.712 152,-190.112"/>
<polygon fill="black" stroke="black" points="155.5,-190.104 152,-180.104 148.5,-190.104 155.5,-190.104"/>
<g id="a_edge2&#45;headlabel"><a xlink:href="dir_000173_000197.html" target="_top" xlink:title="38">
<text text-anchor="middle" x="158.339" y="-191.199" font-family="Helvetica,sans-Serif" font-size="10.00">38</text>
</a>
</g>
</g>
<!-- dir_40b4a122691869ee86baf7f2711ed718 -->
<g id="node8" class="node"><title>dir_40b4a122691869ee86baf7f2711ed718</title>
<g id="a_node8"><a xlink:href="dir_40b4a122691869ee86baf7f2711ed718.html" target="_top" xlink:title="Steer">
<polygon fill="none" stroke="red" points="278,-324 224,-324 224,-288 278,-288 278,-324"/>
<text text-anchor="middle" x="251" y="-303.5" font-family="Helvetica,sans-Serif" font-size="10.00">Steer</text>
</a>
</g>
</g>
<!-- dir_7f309bec8670bb3fb666e7e061b24659&#45;&gt;dir_40b4a122691869ee86baf7f2711ed718 -->
<g id="edge1" class="edge"><title>dir_7f309bec8670bb3fb666e7e061b24659&#45;&gt;dir_40b4a122691869ee86baf7f2711ed718</title>
<path fill="none" stroke="black" d="M170.325,-252.127C182.943,-261.762 199.949,-273.866 215.147,-284.062"/>
<polygon fill="black" stroke="black" points="213.568,-287.214 223.84,-289.811 217.43,-281.375 213.568,-287.214"/>
<g id="a_edge1&#45;headlabel"><a xlink:href="dir_000173_000372.html" target="_top" xlink:title="2">
<text text-anchor="middle" x="209.004" y="-285.099" font-family="Helvetica,sans-Serif" font-size="10.00">2</text>
</a>
</g>
</g>
<!-- dir_7f309bec8670bb3fb666e7e061b24659&#45;&gt;dir_4ab6b4cc6a7edbff49100e9123df213f -->
<g id="edge3" class="edge"><title>dir_7f309bec8670bb3fb666e7e061b24659&#45;&gt;dir_4ab6b4cc6a7edbff49100e9123df213f</title>
<path fill="none" stroke="black" d="M136.39,-215.774C128.627,-206.03 120.054,-193.184 116,-180 101.892,-134.12 86.0071,-109.476 116,-72 140.382,-41.5354 253.735,-27.3713 314.034,-21.8958"/>
<polygon fill="black" stroke="black" points="314.632,-25.357 324.29,-21.0019 314.024,-18.3835 314.632,-25.357"/>
<g id="a_edge3&#45;headlabel"><a xlink:href="dir_000173_000016.html" target="_top" xlink:title="1">
<text text-anchor="middle" x="311.298" y="-25.9976" font-family="Helvetica,sans-Serif" font-size="10.00">1</text>
</a>
</g>
</g>
<!-- dir_37c90836491b695b472bf98d1be8336b -->
<g id="node11" class="node"><title>dir_37c90836491b695b472bf98d1be8336b</title>
<g id="a_node11"><a xlink:href="dir_37c90836491b695b472bf98d1be8336b.html" target="_top" xlink:title="Base">
<polygon fill="none" stroke="red" points="315,-108 261,-108 261,-72 315,-72 315,-108"/>
<text text-anchor="middle" x="288" y="-87.5" font-family="Helvetica,sans-Serif" font-size="10.00">Base</text>
</a>
</g>
</g>
<!-- dir_7f309bec8670bb3fb666e7e061b24659&#45;&gt;dir_37c90836491b695b472bf98d1be8336b -->
<g id="edge4" class="edge"><title>dir_7f309bec8670bb3fb666e7e061b24659&#45;&gt;dir_37c90836491b695b472bf98d1be8336b</title>
<path fill="none" stroke="black" d="M168.405,-215.871C192.298,-190.924 236.809,-144.45 264.274,-115.773"/>
<polygon fill="black" stroke="black" points="267.148,-117.832 271.537,-108.189 262.092,-112.99 267.148,-117.832"/>
<g id="a_edge4&#45;headlabel"><a xlink:href="dir_000173_000144.html" target="_top" xlink:title="1">
<text text-anchor="middle" x="266.712" y="-119.892" font-family="Helvetica,sans-Serif" font-size="10.00">1</text>
</a>
</g>
</g>
<!-- dir_7f309bec8670bb3fb666e7e061b24659&#45;&gt;dir_2171f7ec022c5423887b07c69b2f5b48 -->
<g id="edge5" class="edge"><title>dir_7f309bec8670bb3fb666e7e061b24659&#45;&gt;dir_2171f7ec022c5423887b07c69b2f5b48</title>
<path fill="none" stroke="black" d="M182.531,-220.647C209.052,-209.915 247.875,-194.207 278.298,-181.897"/>
<polygon fill="black" stroke="black" points="279.898,-185.025 287.855,-178.03 277.272,-178.536 279.898,-185.025"/>
<g id="a_edge5&#45;headlabel"><a xlink:href="dir_000173_000056.html" target="_top" xlink:title="8">
<text text-anchor="middle" x="277.63" y="-186.505" font-family="Helvetica,sans-Serif" font-size="10.00">8</text>
</a>
</g>
</g>
<!-- dir_9cc61f72f781098a662027b321784562 -->
<g id="node7" class="node"><title>dir_9cc61f72f781098a662027b321784562</title>
<g id="a_node7"><a xlink:href="dir_9cc61f72f781098a662027b321784562.html" target="_top" xlink:title="workflow">
<polygon fill="white" stroke="red" points="199.5,-396 144.5,-396 144.5,-360 199.5,-360 199.5,-396"/>
<text text-anchor="middle" x="172" y="-375.5" font-family="Helvetica,sans-Serif" font-size="10.00">workflow</text>
</a>
</g>
</g>
<!-- dir_9cc61f72f781098a662027b321784562&#45;&gt;dir_677b030cc750909e4cd27413873678d8 -->
<g id="edge14" class="edge"><title>dir_9cc61f72f781098a662027b321784562&#45;&gt;dir_677b030cc750909e4cd27413873678d8</title>
<path fill="none" stroke="black" d="M170.933,-359.832C169.115,-341.054 164.21,-310.62 151,-288 139.105,-267.63 121.461,-273.609 112,-252 105.583,-237.343 106.918,-231.171 112,-216 115.351,-205.998 121.416,-196.376 127.828,-188.138"/>
<polygon fill="black" stroke="black" points="130.561,-190.326 134.267,-180.401 125.18,-185.848 130.561,-190.326"/>
<g id="a_edge14&#45;headlabel"><a xlink:href="dir_000308_000197.html" target="_top" xlink:title="1">
<text text-anchor="middle" x="130.444" y="-192.405" font-family="Helvetica,sans-Serif" font-size="10.00">1</text>
</a>
</g>
</g>
<!-- dir_9cc61f72f781098a662027b321784562&#45;&gt;dir_a5de047958dd458e809773c6ffaa8478 -->
<g id="edge15" class="edge"><title>dir_9cc61f72f781098a662027b321784562&#45;&gt;dir_a5de047958dd458e809773c6ffaa8478</title>
<path fill="none" stroke="black" d="M154.944,-359.697C146.505,-351.135 136.175,-340.656 126.957,-331.304"/>
<polygon fill="black" stroke="black" points="129.373,-328.769 119.86,-324.104 124.387,-333.683 129.373,-328.769"/>
<g id="a_edge15&#45;headlabel"><a xlink:href="dir_000308_000234.html" target="_top" xlink:title="3">
<text text-anchor="middle" x="133.918" y="-326.836" font-family="Helvetica,sans-Serif" font-size="10.00">3</text>
</a>
</g>
</g>
<!-- dir_8ba487e25de5ee77e05e9dce7582cb98 -->
<g id="node12" class="node"><title>dir_8ba487e25de5ee77e05e9dce7582cb98</title>
<g id="a_node12"><a xlink:href="dir_8ba487e25de5ee77e05e9dce7582cb98.html" target="_top" xlink:title="Algorithm">
<polygon fill="none" stroke="red" points="391.5,-324 334.5,-324 334.5,-288 391.5,-288 391.5,-324"/>
<text text-anchor="middle" x="363" y="-303.5" font-family="Helvetica,sans-Serif" font-size="10.00">Algorithm</text>
</a>
</g>
</g>
<!-- dir_9cc61f72f781098a662027b321784562&#45;&gt;dir_8ba487e25de5ee77e05e9dce7582cb98 -->
<g id="edge16" class="edge"><title>dir_9cc61f72f781098a662027b321784562&#45;&gt;dir_8ba487e25de5ee77e05e9dce7582cb98</title>
<path fill="none" stroke="black" d="M199.648,-367.402C229.453,-356.984 278.24,-339.727 320,-324 321.601,-323.397 323.234,-322.777 324.881,-322.146"/>
<polygon fill="black" stroke="black" points="326.309,-325.346 334.369,-318.469 323.78,-318.819 326.309,-325.346"/>
<g id="a_edge16&#45;headlabel"><a xlink:href="dir_000308_000000.html" target="_top" xlink:title="1">
<text text-anchor="middle" x="323.983" y="-326.792" font-family="Helvetica,sans-Serif" font-size="10.00">1</text>
</a>
</g>
</g>
<!-- dir_bcbb2cf9a3d3d83e5515c82071a07177 -->
<g id="node13" class="node"><title>dir_bcbb2cf9a3d3d83e5515c82071a07177</title>
<g id="a_node13"><a xlink:href="dir_bcbb2cf9a3d3d83e5515c82071a07177.html" target="_top" xlink:title="Framework">
<polygon fill="none" stroke="red" points="494.25,-252 429.75,-252 429.75,-216 494.25,-216 494.25,-252"/>
<text text-anchor="middle" x="462" y="-231.5" font-family="Helvetica,sans-Serif" font-size="10.00">Framework</text>
</a>
</g>
</g>
<!-- dir_9cc61f72f781098a662027b321784562&#45;&gt;dir_bcbb2cf9a3d3d83e5515c82071a07177 -->
<g id="edge17" class="edge"><title>dir_9cc61f72f781098a662027b321784562&#45;&gt;dir_bcbb2cf9a3d3d83e5515c82071a07177</title>
<path fill="none" stroke="black" d="M199.625,-374.92C259.698,-369.856 399.591,-354.967 434,-324 451.35,-308.386 458.039,-282.15 460.572,-262.198"/>
<polygon fill="black" stroke="black" points="464.065,-262.445 461.573,-252.147 457.099,-261.751 464.065,-262.445"/>
<g id="a_edge17&#45;headlabel"><a xlink:href="dir_000308_000037.html" target="_top" xlink:title="14">
<text text-anchor="middle" x="466.534" y="-263.803" font-family="Helvetica,sans-Serif" font-size="10.00">14</text>
</a>
</g>
</g>
<!-- dir_9cc61f72f781098a662027b321784562&#45;&gt;dir_2171f7ec022c5423887b07c69b2f5b48 -->
<g id="edge18" class="edge"><title>dir_9cc61f72f781098a662027b321784562&#45;&gt;dir_2171f7ec022c5423887b07c69b2f5b48</title>
<path fill="none" stroke="black" d="M199.621,-374.77C254.74,-369.686 375.231,-355.187 400,-324 433.964,-281.235 385.038,-220.585 351.656,-187.264"/>
<polygon fill="black" stroke="black" points="353.999,-184.659 344.392,-180.192 349.116,-189.675 353.999,-184.659"/>
<g id="a_edge18&#45;headlabel"><a xlink:href="dir_000308_000056.html" target="_top" xlink:title="24">
<text text-anchor="middle" x="358.555" y="-182.632" font-family="Helvetica,sans-Serif" font-size="10.00">24</text>
</a>
</g>
</g>
<!-- dir_40b4a122691869ee86baf7f2711ed718&#45;&gt;dir_677b030cc750909e4cd27413873678d8 -->
<g id="edge7" class="edge"><title>dir_40b4a122691869ee86baf7f2711ed718&#45;&gt;dir_677b030cc750909e4cd27413873678d8</title>
<path fill="none" stroke="black" d="M239.705,-287.795C227.796,-269.763 208.387,-240.678 191,-216 184.585,-206.895 177.399,-197.037 170.96,-188.321"/>
<polygon fill="black" stroke="black" points="173.597,-186 164.827,-180.056 167.975,-190.172 173.597,-186"/>
<g id="a_edge7&#45;headlabel"><a xlink:href="dir_000372_000197.html" target="_top" xlink:title="1">
<text text-anchor="middle" x="178.019" y="-184.695" font-family="Helvetica,sans-Serif" font-size="10.00">1</text>
</a>
</g>
</g>
<!-- dir_40b4a122691869ee86baf7f2711ed718&#45;&gt;dir_7f309bec8670bb3fb666e7e061b24659 -->
<g id="edge6" class="edge"><title>dir_40b4a122691869ee86baf7f2711ed718&#45;&gt;dir_7f309bec8670bb3fb666e7e061b24659</title>
<path fill="none" stroke="black" d="M232.444,-287.697C220.663,-278.711 205.123,-267.614 190.801,-257.924"/>
<polygon fill="black" stroke="black" points="192.345,-254.747 182.085,-252.104 188.458,-260.568 192.345,-254.747"/>
<g id="a_edge6&#45;headlabel"><a xlink:href="dir_000372_000173.html" target="_top" xlink:title="5">
<text text-anchor="middle" x="196.912" y="-251.882" font-family="Helvetica,sans-Serif" font-size="10.00">5</text>
</a>
</g>
</g>
<!-- dir_40b4a122691869ee86baf7f2711ed718&#45;&gt;dir_bcbb2cf9a3d3d83e5515c82071a07177 -->
<g id="edge8" class="edge"><title>dir_40b4a122691869ee86baf7f2711ed718&#45;&gt;dir_bcbb2cf9a3d3d83e5515c82071a07177</title>
<path fill="none" stroke="black" d="M278.153,-295.992C314.012,-284.096 377.536,-263.021 419.711,-249.029"/>
<polygon fill="black" stroke="black" points="421.029,-252.28 429.418,-245.809 418.825,-245.636 421.029,-252.28"/>
<g id="a_edge8&#45;headlabel"><a xlink:href="dir_000372_000037.html" target="_top" xlink:title="17">
<text text-anchor="middle" x="418.511" y="-253.607" font-family="Helvetica,sans-Serif" font-size="10.00">17</text>
</a>
</g>
</g>
<!-- dir_40b4a122691869ee86baf7f2711ed718&#45;&gt;dir_2171f7ec022c5423887b07c69b2f5b48 -->
<g id="edge9" class="edge"><title>dir_40b4a122691869ee86baf7f2711ed718&#45;&gt;dir_2171f7ec022c5423887b07c69b2f5b48</title>
<path fill="none" stroke="black" d="M259.926,-287.871C272.705,-263.35 296.321,-218.032 311.316,-189.259"/>
<polygon fill="black" stroke="black" points="314.525,-190.675 316.042,-180.189 308.317,-187.44 314.525,-190.675"/>
<g id="a_edge9&#45;headlabel"><a xlink:href="dir_000372_000056.html" target="_top" xlink:title="7">
<text text-anchor="middle" x="315.381" y="-192.675" font-family="Helvetica,sans-Serif" font-size="10.00">7</text>
</a>
</g>
</g>
<!-- dir_4ab6b4cc6a7edbff49100e9123df213f&#45;&gt;dir_2171f7ec022c5423887b07c69b2f5b48 -->
<g id="edge21" class="edge"><title>dir_4ab6b4cc6a7edbff49100e9123df213f&#45;&gt;dir_2171f7ec022c5423887b07c69b2f5b48</title>
<path fill="none" stroke="black" d="M353.323,-36.1893C351.26,-60.5311 343.03,-105.28 335.55,-134.059"/>
<polygon fill="black" stroke="black" points="332.129,-133.301 332.841,-143.871 338.876,-135.164 332.129,-133.301"/>
<g id="a_edge21&#45;headlabel"><a xlink:href="dir_000016_000056.html" target="_top" xlink:title="1">
<text text-anchor="middle" x="330.348" y="-126.58" font-family="Helvetica,sans-Serif" font-size="10.00">1</text>
</a>
</g>
</g>
<!-- dir_37c90836491b695b472bf98d1be8336b&#45;&gt;dir_4ab6b4cc6a7edbff49100e9123df213f -->
<g id="edge26" class="edge"><title>dir_37c90836491b695b472bf98d1be8336b&#45;&gt;dir_4ab6b4cc6a7edbff49100e9123df213f</title>
<path fill="none" stroke="black" d="M303.82,-71.6966C311.57,-63.2198 321.039,-52.8636 329.524,-43.5826"/>
<polygon fill="black" stroke="black" points="332.197,-45.8464 336.362,-36.1043 327.031,-41.1229 332.197,-45.8464"/>
<g id="a_edge26&#45;headlabel"><a xlink:href="dir_000144_000016.html" target="_top" xlink:title="5">
<text text-anchor="middle" x="331.867" y="-47.9151" font-family="Helvetica,sans-Serif" font-size="10.00">5</text>
</a>
</g>
</g>
<!-- dir_37c90836491b695b472bf98d1be8336b&#45;&gt;dir_2171f7ec022c5423887b07c69b2f5b48 -->
<g id="edge27" class="edge"><title>dir_37c90836491b695b472bf98d1be8336b&#45;&gt;dir_2171f7ec022c5423887b07c69b2f5b48</title>
<path fill="none" stroke="black" d="M302.936,-108.104C307.965,-116.045 313.275,-125.666 317.57,-134.515"/>
<polygon fill="black" stroke="black" points="314.427,-136.059 321.77,-143.697 320.793,-133.147 314.427,-136.059"/>
<g id="a_edge27&#45;headlabel"><a xlink:href="dir_000144_000056.html" target="_top" xlink:title="5">
<text text-anchor="middle" x="310.35" y="-131.471" font-family="Helvetica,sans-Serif" font-size="10.00">5</text>
</a>
</g>
</g>
<!-- dir_8ba487e25de5ee77e05e9dce7582cb98&#45;&gt;dir_2171f7ec022c5423887b07c69b2f5b48 -->
<g id="edge28" class="edge"><title>dir_8ba487e25de5ee77e05e9dce7582cb98&#45;&gt;dir_2171f7ec022c5423887b07c69b2f5b48</title>
<path fill="none" stroke="black" d="M358.416,-287.871C351.911,-263.564 339.937,-218.819 332.229,-190.013"/>
<polygon fill="black" stroke="black" points="335.566,-188.945 329.6,-180.189 328.804,-190.754 335.566,-188.945"/>
<g id="a_edge28&#45;headlabel"><a xlink:href="dir_000000_000056.html" target="_top" xlink:title="7">
<text text-anchor="middle" x="339.238" y="-189.183" font-family="Helvetica,sans-Serif" font-size="10.00">7</text>
</a>
</g>
</g>
<!-- dir_bcbb2cf9a3d3d83e5515c82071a07177&#45;&gt;dir_7f309bec8670bb3fb666e7e061b24659 -->
<g id="edge33" class="edge"><title>dir_bcbb2cf9a3d3d83e5515c82071a07177&#45;&gt;dir_7f309bec8670bb3fb666e7e061b24659</title>
<path fill="none" stroke="black" d="M429.493,-234C350.466,-234 271.44,-234 192.413,-234"/>
<polygon fill="black" stroke="black" points="192.273,-230.5 182.273,-234 192.273,-237.5 192.273,-230.5"/>
<g id="a_edge33&#45;headlabel"><a xlink:href="dir_000037_000173.html" target="_top" xlink:title="1">
<text text-anchor="middle" x="195.868" y="-225.161" font-family="Helvetica,sans-Serif" font-size="10.00">1</text>
</a>
</g>
</g>
<!-- dir_bcbb2cf9a3d3d83e5515c82071a07177&#45;&gt;dir_4ab6b4cc6a7edbff49100e9123df213f -->
<g id="edge34" class="edge"><title>dir_bcbb2cf9a3d3d83e5515c82071a07177&#45;&gt;dir_4ab6b4cc6a7edbff49100e9123df213f</title>
<path fill="none" stroke="black" d="M453.184,-215.849C433.996,-178.519 388.338,-89.6948 365.498,-45.2591"/>
<polygon fill="black" stroke="black" points="368.542,-43.5262 360.858,-36.2325 362.317,-46.7264 368.542,-43.5262"/>
<g id="a_edge34&#45;headlabel"><a xlink:href="dir_000037_000016.html" target="_top" xlink:title="2">
<text text-anchor="middle" x="372.711" y="-42.9252" font-family="Helvetica,sans-Serif" font-size="10.00">2</text>
</a>
</g>
</g>
<!-- dir_bcbb2cf9a3d3d83e5515c82071a07177&#45;&gt;dir_2171f7ec022c5423887b07c69b2f5b48 -->
<g id="edge35" class="edge"><title>dir_bcbb2cf9a3d3d83e5515c82071a07177&#45;&gt;dir_2171f7ec022c5423887b07c69b2f5b48</title>
<path fill="none" stroke="black" d="M429.533,-216.411C411.006,-206.945 387.563,-194.967 367.575,-184.754"/>
<polygon fill="black" stroke="black" points="369.162,-181.634 358.665,-180.201 365.977,-187.868 369.162,-181.634"/>
<g id="a_edge35&#45;headlabel"><a xlink:href="dir_000037_000056.html" target="_top" xlink:title="21">
<text text-anchor="middle" x="373.655" y="-178.241" font-family="Helvetica,sans-Serif" font-size="10.00">21</text>
</a>
</g>
</g>
<!-- dir_2171f7ec022c5423887b07c69b2f5b48&#45;&gt;dir_4ab6b4cc6a7edbff49100e9123df213f -->
<g id="edge36" class="edge"><title>dir_2171f7ec022c5423887b07c69b2f5b48&#45;&gt;dir_4ab6b4cc6a7edbff49100e9123df213f</title>
<path fill="none" stroke="black" d="M323.672,-143.871C325.725,-119.564 333.95,-74.8187 341.431,-46.0132"/>
<polygon fill="black" stroke="black" points="344.856,-46.76 344.141,-36.1893 338.108,-44.8986 344.856,-46.76"/>
<g id="a_edge36&#45;headlabel"><a xlink:href="dir_000056_000016.html" target="_top" xlink:title="18">
<text text-anchor="middle" x="346.637" y="-48.4801" font-family="Helvetica,sans-Serif" font-size="10.00">18</text>
</a>
</g>
</g>
<!-- dir_2171f7ec022c5423887b07c69b2f5b48&#45;&gt;dir_37c90836491b695b472bf98d1be8336b -->
<g id="edge37" class="edge"><title>dir_2171f7ec022c5423887b07c69b2f5b48&#45;&gt;dir_37c90836491b695b472bf98d1be8336b</title>
<path fill="none" stroke="black" d="M309.938,-143.697C304.905,-135.728 299.6,-126.1 295.323,-117.264"/>
<polygon fill="black" stroke="black" points="298.48,-115.751 291.146,-108.104 292.111,-118.655 298.48,-115.751"/>
<g id="a_edge37&#45;headlabel"><a xlink:href="dir_000056_000144.html" target="_top" xlink:title="1">
<text text-anchor="middle" x="302.554" y="-115.343" font-family="Helvetica,sans-Serif" font-size="10.00">1</text>
</a>
</g>
</g>
</g>
</svg>
        <g id="navigator" transform="translate(0 0)" fill="#404254">
                <rect fill="#f2f5e9" fill-opacity="0.5" stroke="#606060" stroke-width=".5" x="0" y="0" width="60" height="60"/>
                <use id="zoomplus" xlink:href="#zoomPlus" x="17" y="9" onmousedown="handleZoom(evt,'in')"/>
                <use id="zoomminus" xlink:href="#zoomMin" x="42" y="9" onmousedown="handleZoom(evt,'out')"/>
                <use id="reset" xlink:href="#resetDef" x="30" y="36" onmousedown="handleReset()"/>
                <g id="arrowUp" xlink:href="#dirArrow" transform="translate(30 24)" onmousedown="handlePan(0,-1)">
                  <use xlink:href="#rim" fill="#404040">
                        <set attributeName="fill" to="#808080" begin="arrowUp.mouseover" end="arrowUp.mouseout"/>
                  </use>
                  <path fill="none" stroke="white" stroke-width="1.5" d="M0,-3.0v7 M-2.5,-0.5L0,-3.0L2.5,-0.5"/>
                </g>
                <g id="arrowRight" xlink:href="#dirArrow" transform="rotate(90) translate(36 -43)" onmousedown="handlePan(1,0)">
                  <use xlink:href="#rim" fill="#404040">
                        <set attributeName="fill" to="#808080" begin="arrowRight.mouseover" end="arrowRight.mouseout"/>
                  </use>
                  <path fill="none" stroke="white" stroke-width="1.5" d="M0,-3.0v7 M-2.5,-0.5L0,-3.0L2.5,-0.5"/>
                </g>
                <g id="arrowDown" xlink:href="#dirArrow" transform="rotate(180) translate(-30 -48)" onmousedown="handlePan(0,1)">
                  <use xlink:href="#rim" fill="#404040">
                        <set attributeName="fill" to="#808080" begin="arrowDown.mouseover" end="arrowDown.mouseout"/>
                  </use>
                  <path fill="none" stroke="white" stroke-width="1.5" d="M0,-3.0v7 M-2.5,-0.5L0,-3.0L2.5,-0.5"/>
                </g>
                <g id="arrowLeft" xlink:href="#dirArrow" transform="rotate(270) translate(-36 17)" onmousedown="handlePan(-1,0)">
                  <use xlink:href="#rim" fill="#404040">
                        <set attributeName="fill" to="#808080" begin="arrowLeft.mouseover" end="arrowLeft.mouseout"/>
                  </use>
                  <path fill="none" stroke="white" stroke-width="1.5" d="M0,-3.0v7 M-2.5,-0.5L0,-3.0L2.5,-0.5"/>
                </g>
        </g>
        <svg viewBox="0 0 15 15" width="100%" height="30px" preserveAspectRatio="xMaxYMin meet">
         <g id="arrow_out" transform="scale(0.3 0.3)">
          <a xlink:href="dir_a597e8e061b11201a1dff411feb10d0b_dep_org.svg" target="_base">
           <rect id="button" ry="5" rx="5" y="6" x="6" height="38" width="38"
                fill="#f2f5e9" fill-opacity="0.5" stroke="#606060" stroke-width="1.0"/>
           <path id="arrow"
             d="M 11.500037,31.436501 C 11.940474,20.09759 22.043105,11.32322 32.158766,21.979434 L 37.068811,17.246167 C 37.068811,17.246167 37.088388,32 37.088388,32 L 22.160133,31.978069 C 22.160133,31.978069 26.997745,27.140456 26.997745,27.140456 C 18.528582,18.264221 13.291696,25.230495 11.500037,31.436501 z"
             style="fill:#404040;"/>
          </a>
         </g>
        </svg>
</svg>
