<?xml version="1.0" encoding="UTF-8" standalone="no"?>
<!DOCTYPE svg PUBLIC "-//W3C//DTD SVG 1.1//EN"
 "http://www.w3.org/Graphics/SVG/1.1/DTD/svg11.dtd">
<!-- Generated by graphviz version 2.36.0 (20140111.2315)
 -->
<!-- Title: /home/travis/build/AliceO2Group/AliceO2/Detectors/MUON/MID/Tracking Pages: 1 -->
<svg width="254pt" height="231pt"
 viewBox="0.00 0.00 254.00 231.00" xmlns="http://www.w3.org/2000/svg" xmlns:xlink="http://www.w3.org/1999/xlink">
<g id="graph0" class="graph" transform="scale(1 1) rotate(0) translate(4 227)">
<title>/home/travis/build/AliceO2Group/AliceO2/Detectors/MUON/MID/Tracking</title>
<g id="clust1" class="cluster"><title>clusterdir_9e24c537087392bd208449d0b48c466c</title>
<g id="a_clust1"><a xlink:href="dir_9e24c537087392bd208449d0b48c466c.html" target="_top" xlink:title="MID">
<polygon fill="#ddddee" stroke="black" points="8,-128 8,-215 238,-215 238,-128 8,-128"/>
<text text-anchor="middle" x="123" y="-203" font-family="Helvetica,sans-Serif" font-size="10.00">MID</text>
</a>
</g>
</g>
<g id="clust2" class="cluster"><title>clusterdir_c6781640d5720511e35c6e7f87460ee7</title>
<g id="a_clust2"><a xlink:href="dir_c6781640d5720511e35c6e7f87460ee7.html" target="_top">
<polygon fill="#eeeeff" stroke="black" points="16,-136 16,-188 230,-188 230,-136 16,-136"/>
</a>
</g>
</g>
<!-- dir_c6781640d5720511e35c6e7f87460ee7 -->
<g id="node1" class="node"><title>dir_c6781640d5720511e35c6e7f87460ee7</title>
<text text-anchor="middle" x="195" y="-159.5" font-family="Helvetica,sans-Serif" font-size="10.00">Tracking</text>
</g>
<!-- dir_ade668871a579e1e483b7ab12ac7b461 -->
<g id="node2" class="node"><title>dir_ade668871a579e1e483b7ab12ac7b461</title>
<g id="a_node2"><a xlink:href="dir_ade668871a579e1e483b7ab12ac7b461.html" target="_top" xlink:title="src">
<polygon fill="white" stroke="black" points="78,-180 24,-180 24,-144 78,-144 78,-180"/>
<text text-anchor="middle" x="51" y="-159.5" font-family="Helvetica,sans-Serif" font-size="10.00">src</text>
</a>
</g>
</g>
<!-- dir_b5547b1068d53f0f904ee5a2a84992af -->
<g id="node5" class="node"><title>dir_b5547b1068d53f0f904ee5a2a84992af</title>
<g id="a_node5"><a xlink:href="dir_b5547b1068d53f0f904ee5a2a84992af.html" target="_top" xlink:title="Base">
<polygon fill="none" stroke="red" points="78,-108 24,-108 24,-72 78,-72 78,-108"/>
<text text-anchor="middle" x="51" y="-87.5" font-family="Helvetica,sans-Serif" font-size="10.00">Base</text>
</a>
</g>
</g>
<!-- dir_ade668871a579e1e483b7ab12ac7b461&#45;&gt;dir_b5547b1068d53f0f904ee5a2a84992af -->
<g id="edge1" class="edge"><title>dir_ade668871a579e1e483b7ab12ac7b461&#45;&gt;dir_b5547b1068d53f0f904ee5a2a84992af</title>
<path fill="none" stroke="black" d="M51,-143.697C51,-135.983 51,-126.712 51,-118.112"/>
<polygon fill="black" stroke="black" points="54.5001,-118.104 51,-108.104 47.5001,-118.104 54.5001,-118.104"/>
<g id="a_edge1&#45;headlabel"><a xlink:href="dir_000245_000115.html" target="_top" xlink:title="3">
<text text-anchor="middle" x="57.3393" y="-119.199" font-family="Helvetica,sans-Serif" font-size="10.00">3</text>
</a>
</g>
</g>
<!-- dir_2171f7ec022c5423887b07c69b2f5b48 -->
<g id="node6" class="node"><title>dir_2171f7ec022c5423887b07c69b2f5b48</title>
<g id="a_node6"><a xlink:href="dir_2171f7ec022c5423887b07c69b2f5b48.html" target="_top" xlink:title="DataFormats">
<polygon fill="none" stroke="red" points="133,-36 59,-36 59,-0 133,-0 133,-36"/>
<text text-anchor="middle" x="96" y="-15.5" font-family="Helvetica,sans-Serif" font-size="10.00">DataFormats</text>
</a>
</g>
</g>
<!-- dir_ade668871a579e1e483b7ab12ac7b461&#45;&gt;dir_2171f7ec022c5423887b07c69b2f5b48 -->
<g id="edge2" class="edge"><title>dir_ade668871a579e1e483b7ab12ac7b461&#45;&gt;dir_2171f7ec022c5423887b07c69b2f5b48</title>
<path fill="none" stroke="black" d="M35.0826,-143.759C20.2059,-125.445 2.07767,-95.8981 15,-72 22.7373,-57.6909 36.204,-46.6253 49.9611,-38.3962"/>
<polygon fill="black" stroke="black" points="51.9375,-41.3024 58.9862,-33.3925 48.5433,-35.1804 51.9375,-41.3024"/>
<g id="a_edge2&#45;headlabel"><a xlink:href="dir_000245_000056.html" target="_top" xlink:title="3">
<text text-anchor="middle" x="50.1704" y="-43.0285" font-family="Helvetica,sans-Serif" font-size="10.00">3</text>
</a>
</g>
</g>
<!-- dir_1b6b243db8a70d54361b550199bab9ea -->
<g id="node3" class="node"><title>dir_1b6b243db8a70d54361b550199bab9ea</title>
<g id="a_node3"><a xlink:href="dir_1b6b243db8a70d54361b550199bab9ea.html" target="_top" xlink:title="test">
<polygon fill="white" stroke="black" points="150,-180 96,-180 96,-144 150,-144 150,-180"/>
<text text-anchor="middle" x="123" y="-159.5" font-family="Helvetica,sans-Serif" font-size="10.00">test</text>
</a>
</g>
</g>
<!-- dir_3ffb816f6d71c6665c34f0fe3ab9978a -->
<g id="node4" class="node"><title>dir_3ffb816f6d71c6665c34f0fe3ab9978a</title>
<g id="a_node4"><a xlink:href="dir_3ffb816f6d71c6665c34f0fe3ab9978a.html" target="_top" xlink:title="TestingSimTools">
<polygon fill="none" stroke="red" points="186,-108 96,-108 96,-72 186,-72 186,-108"/>
<text text-anchor="middle" x="141" y="-87.5" font-family="Helvetica,sans-Serif" font-size="10.00">TestingSimTools</text>
</a>
</g>
</g>
<!-- dir_1b6b243db8a70d54361b550199bab9ea&#45;&gt;dir_3ffb816f6d71c6665c34f0fe3ab9978a -->
<g id="edge3" class="edge"><title>dir_1b6b243db8a70d54361b550199bab9ea&#45;&gt;dir_3ffb816f6d71c6665c34f0fe3ab9978a</title>
<path fill="none" stroke="black" d="M127.449,-143.697C129.455,-135.898 131.869,-126.509 134.101,-117.829"/>
<polygon fill="black" stroke="black" points="137.501,-118.661 136.602,-108.104 130.722,-116.918 137.501,-118.661"/>
<g id="a_edge3&#45;headlabel"><a xlink:href="dir_000282_000278.html" target="_top" xlink:title="2">
<text text-anchor="middle" x="139.356" y="-120.349" font-family="Helvetica,sans-Serif" font-size="10.00">2</text>
</a>
</g>
</g>
<!-- dir_1b6b243db8a70d54361b550199bab9ea&#45;&gt;dir_b5547b1068d53f0f904ee5a2a84992af -->
<g id="edge4" class="edge"><title>dir_1b6b243db8a70d54361b550199bab9ea&#45;&gt;dir_b5547b1068d53f0f904ee5a2a84992af</title>
<path fill="none" stroke="black" d="M105.202,-143.697C96.396,-135.135 85.6179,-124.656 75.9989,-115.304"/>
<polygon fill="black" stroke="black" points="78.2028,-112.566 68.593,-108.104 73.3232,-117.585 78.2028,-112.566"/>
<g id="a_edge4&#45;headlabel"><a xlink:href="dir_000282_000115.html" target="_top" xlink:title="6">
<text text-anchor="middle" x="82.7593" y="-110.536" font-family="Helvetica,sans-Serif" font-size="10.00">6</text>
</a>
</g>
</g>
<!-- dir_1b6b243db8a70d54361b550199bab9ea&#45;&gt;dir_2171f7ec022c5423887b07c69b2f5b48 -->
<g id="edge5" class="edge"><title>dir_1b6b243db8a70d54361b550199bab9ea&#45;&gt;dir_2171f7ec022c5423887b07c69b2f5b48</title>
<path fill="none" stroke="black" d="M140.236,-143.679C145.963,-138.347 152.535,-132.66 159,-128 173.848,-117.298 185.718,-123.775 195,-108 203.114,-94.2101 203.221,-85.7264 195,-72 183.551,-52.8837 162.59,-40.2723 142.894,-32.1679"/>
<polygon fill="black" stroke="black" points="143.965,-28.8305 133.374,-28.5426 141.474,-35.3722 143.965,-28.8305"/>
<g id="a_edge5&#45;headlabel"><a xlink:href="dir_000282_000056.html" target="_top" xlink:title="4">
<text text-anchor="middle" x="148.335" y="-24.9562" font-family="Helvetica,sans-Serif" font-size="10.00">4</text>
</a>
</g>
</g>
<!-- dir_3ffb816f6d71c6665c34f0fe3ab9978a&#45;&gt;dir_2171f7ec022c5423887b07c69b2f5b48 -->
<g id="edge6" class="edge"><title>dir_3ffb816f6d71c6665c34f0fe3ab9978a&#45;&gt;dir_2171f7ec022c5423887b07c69b2f5b48</title>
<path fill="none" stroke="black" d="M129.876,-71.6966C124.645,-63.5589 118.3,-53.689 112.522,-44.7013"/>
<polygon fill="black" stroke="black" points="115.347,-42.6235 106.996,-36.1043 109.459,-46.4088 115.347,-42.6235"/>
<g id="a_edge6&#45;headlabel"><a xlink:href="dir_000278_000056.html" target="_top" xlink:title="1">
<text text-anchor="middle" x="119.679" y="-41.6118" font-family="Helvetica,sans-Serif" font-size="10.00">1</text>
</a>
</g>
</g>
<!-- dir_b5547b1068d53f0f904ee5a2a84992af&#45;&gt;dir_2171f7ec022c5423887b07c69b2f5b48 -->
<g id="edge7" class="edge"><title>dir_b5547b1068d53f0f904ee5a2a84992af&#45;&gt;dir_2171f7ec022c5423887b07c69b2f5b48</title>
<path fill="none" stroke="black" d="M62.1236,-71.6966C67.355,-63.5589 73.6999,-53.689 79.4778,-44.7013"/>
<polygon fill="black" stroke="black" points="82.5409,-46.4088 85.0044,-36.1043 76.6526,-42.6235 82.5409,-46.4088"/>
<g id="a_edge7&#45;headlabel"><a xlink:href="dir_000115_000056.html" target="_top" xlink:title="2">
<text text-anchor="middle" x="82.9854" y="-48.4678" font-family="Helvetica,sans-Serif" font-size="10.00">2</text>
</a>
</g>
</g>
</g>
</svg>
