<?xml version="1.0" encoding="UTF-8" standalone="no"?>
<!DOCTYPE svg PUBLIC "-//W3C//DTD SVG 1.1//EN"
 "http://www.w3.org/Graphics/SVG/1.1/DTD/svg11.dtd">
<!-- Generated by graphviz version 2.36.0 (20140111.2315)
 -->
<!-- Title: /home/travis/build/AliceO2Group/AliceO2/Detectors/MUON/MID/Tracking/test Pages: 1 -->
<svg width="186pt" height="223pt"
 viewBox="0.00 0.00 186.00 223.00" xmlns="http://www.w3.org/2000/svg" xmlns:xlink="http://www.w3.org/1999/xlink">
<g id="graph0" class="graph" transform="scale(1 1) rotate(0) translate(4 219)">
<title>/home/travis/build/AliceO2Group/AliceO2/Detectors/MUON/MID/Tracking/test</title>
<g id="clust1" class="cluster"><title>clusterdir_c6781640d5720511e35c6e7f87460ee7</title>
<g id="a_clust1"><a xlink:href="dir_c6781640d5720511e35c6e7f87460ee7.html" target="_top" xlink:title="Tracking">
<polygon fill="#ddddee" stroke="black" points="100,-136 100,-207 170,-207 170,-136 100,-136"/>
<text text-anchor="middle" x="135" y="-195" font-family="Helvetica,sans-Serif" font-size="10.00">Tracking</text>
</a>
</g>
</g>
<!-- dir_1b6b243db8a70d54361b550199bab9ea -->
<g id="node1" class="node"><title>dir_1b6b243db8a70d54361b550199bab9ea</title>
<g id="a_node1"><a xlink:href="dir_1b6b243db8a70d54361b550199bab9ea.html" target="_top" xlink:title="test">
<polygon fill="#eeeeff" stroke="black" points="162,-180 108,-180 108,-144 162,-144 162,-180"/>
<text text-anchor="middle" x="135" y="-159.5" font-family="Helvetica,sans-Serif" font-size="10.00">test</text>
</a>
</g>
</g>
<!-- dir_3ffb816f6d71c6665c34f0fe3ab9978a -->
<g id="node2" class="node"><title>dir_3ffb816f6d71c6665c34f0fe3ab9978a</title>
<g id="a_node2"><a xlink:href="dir_3ffb816f6d71c6665c34f0fe3ab9978a.html" target="_top" xlink:title="TestingSimTools">
<polygon fill="none" stroke="red" points="90,-108 0,-108 0,-72 90,-72 90,-108"/>
<text text-anchor="middle" x="45" y="-87.5" font-family="Helvetica,sans-Serif" font-size="10.00">TestingSimTools</text>
</a>
</g>
</g>
<!-- dir_1b6b243db8a70d54361b550199bab9ea&#45;&gt;dir_3ffb816f6d71c6665c34f0fe3ab9978a -->
<g id="edge1" class="edge"><title>dir_1b6b243db8a70d54361b550199bab9ea&#45;&gt;dir_3ffb816f6d71c6665c34f0fe3ab9978a</title>
<path fill="none" stroke="black" d="M112.753,-143.697C101.418,-134.881 87.4698,-124.032 75.1811,-114.474"/>
<polygon fill="black" stroke="black" points="77.0336,-111.481 66.9913,-108.104 72.736,-117.007 77.0336,-111.481"/>
<g id="a_edge1&#45;headlabel"><a xlink:href="dir_000282_000278.html" target="_top" xlink:title="2">
<text text-anchor="middle" x="81.6142" y="-108.947" font-family="Helvetica,sans-Serif" font-size="10.00">2</text>
</a>
</g>
</g>
<!-- dir_b5547b1068d53f0f904ee5a2a84992af -->
<g id="node3" class="node"><title>dir_b5547b1068d53f0f904ee5a2a84992af</title>
<g id="a_node3"><a xlink:href="dir_b5547b1068d53f0f904ee5a2a84992af.html" target="_top" xlink:title="Base">
<polygon fill="none" stroke="red" points="162,-108 108,-108 108,-72 162,-72 162,-108"/>
<text text-anchor="middle" x="135" y="-87.5" font-family="Helvetica,sans-Serif" font-size="10.00">Base</text>
</a>
</g>
</g>
<!-- dir_1b6b243db8a70d54361b550199bab9ea&#45;&gt;dir_b5547b1068d53f0f904ee5a2a84992af -->
<g id="edge2" class="edge"><title>dir_1b6b243db8a70d54361b550199bab9ea&#45;&gt;dir_b5547b1068d53f0f904ee5a2a84992af</title>
<path fill="none" stroke="black" d="M135,-143.697C135,-135.983 135,-126.712 135,-118.112"/>
<polygon fill="black" stroke="black" points="138.5,-118.104 135,-108.104 131.5,-118.104 138.5,-118.104"/>
<g id="a_edge2&#45;headlabel"><a xlink:href="dir_000282_000115.html" target="_top" xlink:title="6">
<text text-anchor="middle" x="141.339" y="-119.199" font-family="Helvetica,sans-Serif" font-size="10.00">6</text>
</a>
</g>
</g>
<!-- dir_2171f7ec022c5423887b07c69b2f5b48 -->
<g id="node4" class="node"><title>dir_2171f7ec022c5423887b07c69b2f5b48</title>
<g id="a_node4"><a xlink:href="dir_2171f7ec022c5423887b07c69b2f5b48.html" target="_top" xlink:title="DataFormats">
<polygon fill="none" stroke="red" points="172,-36 98,-36 98,-0 172,-0 172,-36"/>
<text text-anchor="middle" x="135" y="-15.5" font-family="Helvetica,sans-Serif" font-size="10.00">DataFormats</text>
</a>
</g>
</g>
<!-- dir_1b6b243db8a70d54361b550199bab9ea&#45;&gt;dir_2171f7ec022c5423887b07c69b2f5b48 -->
<g id="edge3" class="edge"><title>dir_1b6b243db8a70d54361b550199bab9ea&#45;&gt;dir_2171f7ec022c5423887b07c69b2f5b48</title>
<path fill="none" stroke="black" d="M150.61,-143.774C158.373,-134.03 166.946,-121.184 171,-108 175.703,-92.7067 175.703,-87.2933 171,-72 167.991,-62.2153 162.493,-52.6161 156.684,-44.3336"/>
<polygon fill="black" stroke="black" points="159.407,-42.1306 150.61,-36.2264 153.805,-46.3279 159.407,-42.1306"/>
<g id="a_edge3&#45;headlabel"><a xlink:href="dir_000282_000056.html" target="_top" xlink:title="4">
<text text-anchor="middle" x="163.835" y="-40.8048" font-family="Helvetica,sans-Serif" font-size="10.00">4</text>
</a>
</g>
</g>
<!-- dir_3ffb816f6d71c6665c34f0fe3ab9978a&#45;&gt;dir_2171f7ec022c5423887b07c69b2f5b48 -->
<g id="edge4" class="edge"><title>dir_3ffb816f6d71c6665c34f0fe3ab9978a&#45;&gt;dir_2171f7ec022c5423887b07c69b2f5b48</title>
<path fill="none" stroke="black" d="M67.2472,-71.6966C78.5819,-62.8807 92.5302,-52.0321 104.819,-42.4742"/>
<polygon fill="black" stroke="black" points="107.264,-45.0065 113.009,-36.1043 102.966,-39.481 107.264,-45.0065"/>
<g id="a_edge4&#45;headlabel"><a xlink:href="dir_000278_000056.html" target="_top" xlink:title="1">
<text text-anchor="middle" x="106.17" y="-46.9545" font-family="Helvetica,sans-Serif" font-size="10.00">1</text>
</a>
</g>
</g>
<!-- dir_b5547b1068d53f0f904ee5a2a84992af&#45;&gt;dir_2171f7ec022c5423887b07c69b2f5b48 -->
<g id="edge5" class="edge"><title>dir_b5547b1068d53f0f904ee5a2a84992af&#45;&gt;dir_2171f7ec022c5423887b07c69b2f5b48</title>
<path fill="none" stroke="black" d="M135,-71.6966C135,-63.9827 135,-54.7125 135,-46.1124"/>
<polygon fill="black" stroke="black" points="138.5,-46.1043 135,-36.1043 131.5,-46.1044 138.5,-46.1043"/>
<g id="a_edge5&#45;headlabel"><a xlink:href="dir_000115_000056.html" target="_top" xlink:title="2">
<text text-anchor="middle" x="141.339" y="-47.199" font-family="Helvetica,sans-Serif" font-size="10.00">2</text>
</a>
</g>
</g>
</g>
</svg>
