<?xml version="1.0" encoding="UTF-8" standalone="no"?>
<!DOCTYPE svg PUBLIC "-//W3C//DTD SVG 1.1//EN"
 "http://www.w3.org/Graphics/SVG/1.1/DTD/svg11.dtd">
<!-- Generated by graphviz version 2.36.0 (20140111.2315)
 -->
<!-- Title: /home/travis/build/AliceO2Group/AliceO2/Detectors/TPC/workflow Pages: 1 -->
<svg width="280pt" height="303pt"
 viewBox="0.00 0.00 279.81 303.00" xmlns="http://www.w3.org/2000/svg" xmlns:xlink="http://www.w3.org/1999/xlink">
<g id="graph0" class="graph" transform="scale(1 1) rotate(0) translate(4 299)">
<title>/home/travis/build/AliceO2Group/AliceO2/Detectors/TPC/workflow</title>
<g id="clust1" class="cluster"><title>clusterdir_a597e8e061b11201a1dff411feb10d0b</title>
<g id="a_clust1"><a xlink:href="dir_a597e8e061b11201a1dff411feb10d0b.html" target="_top" xlink:title="TPC">
<polygon fill="#ddddee" stroke="black" points="96.608,-200 96.608,-287 256.608,-287 256.608,-200 96.608,-200"/>
<text text-anchor="middle" x="176.608" y="-275" font-family="Helvetica,sans-Serif" font-size="10.00">TPC</text>
</a>
</g>
</g>
<g id="clust2" class="cluster"><title>clusterdir_9cc61f72f781098a662027b321784562</title>
<g id="a_clust2"><a xlink:href="dir_9cc61f72f781098a662027b321784562.html" target="_top">
<polygon fill="#eeeeff" stroke="black" points="104.608,-208 104.608,-260 248.608,-260 248.608,-208 104.608,-208"/>
</a>
</g>
</g>
<!-- dir_9cc61f72f781098a662027b321784562 -->
<g id="node1" class="node"><title>dir_9cc61f72f781098a662027b321784562</title>
<text text-anchor="middle" x="212.608" y="-231.5" font-family="Helvetica,sans-Serif" font-size="10.00">workflow</text>
</g>
<!-- dir_e9646061f272132c5cb2e771d1ee355f -->
<g id="node2" class="node"><title>dir_e9646061f272132c5cb2e771d1ee355f</title>
<g id="a_node2"><a xlink:href="dir_e9646061f272132c5cb2e771d1ee355f.html" target="_top" xlink:title="src">
<polygon fill="white" stroke="black" points="166.608,-252 112.608,-252 112.608,-216 166.608,-216 166.608,-252"/>
<text text-anchor="middle" x="139.608" y="-231.5" font-family="Helvetica,sans-Serif" font-size="10.00">src</text>
</a>
</g>
</g>
<!-- dir_677b030cc750909e4cd27413873678d8 -->
<g id="node3" class="node"><title>dir_677b030cc750909e4cd27413873678d8</title>
<g id="a_node3"><a xlink:href="dir_677b030cc750909e4cd27413873678d8.html" target="_top" xlink:title="base">
<polygon fill="none" stroke="red" points="76.608,-108 22.608,-108 22.608,-72 76.608,-72 76.608,-108"/>
<text text-anchor="middle" x="49.608" y="-87.5" font-family="Helvetica,sans-Serif" font-size="10.00">base</text>
</a>
</g>
</g>
<!-- dir_e9646061f272132c5cb2e771d1ee355f&#45;&gt;dir_677b030cc750909e4cd27413873678d8 -->
<g id="edge1" class="edge"><title>dir_e9646061f272132c5cb2e771d1ee355f&#45;&gt;dir_677b030cc750909e4cd27413873678d8</title>
<path fill="none" stroke="black" d="M112.497,-230.983C80.7647,-227.003 29.5194,-215.171 5.60799,-180 -8.29841,-159.545 7.21093,-134.057 23.5278,-115.606"/>
<polygon fill="black" stroke="black" points="26.2129,-117.859 30.4867,-108.164 21.1001,-113.078 26.2129,-117.859"/>
<g id="a_edge1&#45;headlabel"><a xlink:href="dir_000309_000197.html" target="_top" xlink:title="1">
<text text-anchor="middle" x="25.8316" y="-119.923" font-family="Helvetica,sans-Serif" font-size="10.00">1</text>
</a>
</g>
</g>
<!-- dir_a5de047958dd458e809773c6ffaa8478 -->
<g id="node4" class="node"><title>dir_a5de047958dd458e809773c6ffaa8478</title>
<g id="a_node4"><a xlink:href="dir_a5de047958dd458e809773c6ffaa8478.html" target="_top" xlink:title="reconstruction">
<polygon fill="none" stroke="red" points="92.608,-180 14.608,-180 14.608,-144 92.608,-144 92.608,-180"/>
<text text-anchor="middle" x="53.608" y="-159.5" font-family="Helvetica,sans-Serif" font-size="10.00">reconstruction</text>
</a>
</g>
</g>
<!-- dir_e9646061f272132c5cb2e771d1ee355f&#45;&gt;dir_a5de047958dd458e809773c6ffaa8478 -->
<g id="edge2" class="edge"><title>dir_e9646061f272132c5cb2e771d1ee355f&#45;&gt;dir_a5de047958dd458e809773c6ffaa8478</title>
<path fill="none" stroke="black" d="M118.35,-215.697C107.519,-206.881 94.1902,-196.032 82.4477,-186.474"/>
<polygon fill="black" stroke="black" points="84.587,-183.703 74.6219,-180.104 80.1681,-189.132 84.587,-183.703"/>
<g id="a_edge2&#45;headlabel"><a xlink:href="dir_000309_000234.html" target="_top" xlink:title="3">
<text text-anchor="middle" x="89.1672" y="-181.27" font-family="Helvetica,sans-Serif" font-size="10.00">3</text>
</a>
</g>
</g>
<!-- dir_8ba487e25de5ee77e05e9dce7582cb98 -->
<g id="node5" class="node"><title>dir_8ba487e25de5ee77e05e9dce7582cb98</title>
<g id="a_node5"><a xlink:href="dir_8ba487e25de5ee77e05e9dce7582cb98.html" target="_top" xlink:title="Algorithm">
<polygon fill="none" stroke="red" points="168.108,-180 111.108,-180 111.108,-144 168.108,-144 168.108,-180"/>
<text text-anchor="middle" x="139.608" y="-159.5" font-family="Helvetica,sans-Serif" font-size="10.00">Algorithm</text>
</a>
</g>
</g>
<!-- dir_e9646061f272132c5cb2e771d1ee355f&#45;&gt;dir_8ba487e25de5ee77e05e9dce7582cb98 -->
<g id="edge3" class="edge"><title>dir_e9646061f272132c5cb2e771d1ee355f&#45;&gt;dir_8ba487e25de5ee77e05e9dce7582cb98</title>
<path fill="none" stroke="black" d="M139.608,-215.697C139.608,-207.983 139.608,-198.712 139.608,-190.112"/>
<polygon fill="black" stroke="black" points="143.108,-190.104 139.608,-180.104 136.108,-190.104 143.108,-190.104"/>
<g id="a_edge3&#45;headlabel"><a xlink:href="dir_000309_000000.html" target="_top" xlink:title="1">
<text text-anchor="middle" x="145.947" y="-191.199" font-family="Helvetica,sans-Serif" font-size="10.00">1</text>
</a>
</g>
</g>
<!-- dir_bcbb2cf9a3d3d83e5515c82071a07177 -->
<g id="node6" class="node"><title>dir_bcbb2cf9a3d3d83e5515c82071a07177</title>
<g id="a_node6"><a xlink:href="dir_bcbb2cf9a3d3d83e5515c82071a07177.html" target="_top" xlink:title="Framework">
<polygon fill="none" stroke="red" points="251.858,-180 187.358,-180 187.358,-144 251.858,-144 251.858,-180"/>
<text text-anchor="middle" x="219.608" y="-159.5" font-family="Helvetica,sans-Serif" font-size="10.00">Framework</text>
</a>
</g>
</g>
<!-- dir_e9646061f272132c5cb2e771d1ee355f&#45;&gt;dir_bcbb2cf9a3d3d83e5515c82071a07177 -->
<g id="edge4" class="edge"><title>dir_e9646061f272132c5cb2e771d1ee355f&#45;&gt;dir_bcbb2cf9a3d3d83e5515c82071a07177</title>
<path fill="none" stroke="black" d="M158.155,-215.719C163.722,-210.608 169.874,-205.035 175.608,-200 180.53,-195.678 185.82,-191.141 190.965,-186.782"/>
<polygon fill="black" stroke="black" points="193.463,-189.255 198.859,-180.137 188.955,-183.9 193.463,-189.255"/>
<g id="a_edge4&#45;headlabel"><a xlink:href="dir_000309_000037.html" target="_top" xlink:title="14">
<text text-anchor="middle" x="192.542" y="-191.242" font-family="Helvetica,sans-Serif" font-size="10.00">14</text>
</a>
</g>
</g>
<!-- dir_2171f7ec022c5423887b07c69b2f5b48 -->
<g id="node7" class="node"><title>dir_2171f7ec022c5423887b07c69b2f5b48</title>
<g id="a_node7"><a xlink:href="dir_2171f7ec022c5423887b07c69b2f5b48.html" target="_top" xlink:title="DataFormats">
<polygon fill="none" stroke="red" points="179.608,-36 105.608,-36 105.608,-0 179.608,-0 179.608,-36"/>
<text text-anchor="middle" x="142.608" y="-15.5" font-family="Helvetica,sans-Serif" font-size="10.00">DataFormats</text>
</a>
</g>
</g>
<!-- dir_e9646061f272132c5cb2e771d1ee355f&#45;&gt;dir_2171f7ec022c5423887b07c69b2f5b48 -->
<g id="edge5" class="edge"><title>dir_e9646061f272132c5cb2e771d1ee355f&#45;&gt;dir_2171f7ec022c5423887b07c69b2f5b48</title>
<path fill="none" stroke="black" d="M154.718,-215.931C160.695,-210.104 167.963,-204.043 175.608,-200 209.914,-181.855 236.512,-210.423 260.608,-180 298.688,-131.92 227.716,-73.3683 180.277,-41.8045"/>
<polygon fill="black" stroke="black" points="182.014,-38.7588 171.724,-36.2335 178.193,-44.6242 182.014,-38.7588"/>
<g id="a_edge5&#45;headlabel"><a xlink:href="dir_000309_000056.html" target="_top" xlink:title="24">
<text text-anchor="middle" x="186.575" y="-35.8417" font-family="Helvetica,sans-Serif" font-size="10.00">24</text>
</a>
</g>
</g>
<!-- dir_677b030cc750909e4cd27413873678d8&#45;&gt;dir_2171f7ec022c5423887b07c69b2f5b48 -->
<g id="edge6" class="edge"><title>dir_677b030cc750909e4cd27413873678d8&#45;&gt;dir_2171f7ec022c5423887b07c69b2f5b48</title>
<path fill="none" stroke="black" d="M72.5968,-71.6966C84.4219,-62.796 99,-51.8232 111.787,-42.1989"/>
<polygon fill="black" stroke="black" points="113.999,-44.9145 119.884,-36.1043 109.789,-39.3217 113.999,-44.9145"/>
<g id="a_edge6&#45;headlabel"><a xlink:href="dir_000197_000056.html" target="_top" xlink:title="13">
<text text-anchor="middle" x="112.834" y="-46.8447" font-family="Helvetica,sans-Serif" font-size="10.00">13</text>
</a>
</g>
</g>
<!-- dir_a5de047958dd458e809773c6ffaa8478&#45;&gt;dir_677b030cc750909e4cd27413873678d8 -->
<g id="edge7" class="edge"><title>dir_a5de047958dd458e809773c6ffaa8478&#45;&gt;dir_677b030cc750909e4cd27413873678d8</title>
<path fill="none" stroke="black" d="M52.6192,-143.697C52.1784,-135.983 51.6487,-126.712 51.1573,-118.112"/>
<polygon fill="black" stroke="black" points="54.6503,-117.888 50.5854,-108.104 47.6617,-118.288 54.6503,-117.888"/>
<g id="a_edge7&#45;headlabel"><a xlink:href="dir_000234_000197.html" target="_top" xlink:title="38">
<text text-anchor="middle" x="57.6899" y="-118.815" font-family="Helvetica,sans-Serif" font-size="10.00">38</text>
</a>
</g>
</g>
<!-- dir_a5de047958dd458e809773c6ffaa8478&#45;&gt;dir_2171f7ec022c5423887b07c69b2f5b48 -->
<g id="edge8" class="edge"><title>dir_a5de047958dd458e809773c6ffaa8478&#45;&gt;dir_2171f7ec022c5423887b07c69b2f5b48</title>
<path fill="none" stroke="black" d="M64.3435,-143.871C79.7791,-119.244 108.363,-73.6377 126.385,-44.8845"/>
<polygon fill="black" stroke="black" points="129.489,-46.5213 131.834,-36.1893 123.558,-42.8038 129.489,-46.5213"/>
<g id="a_edge8&#45;headlabel"><a xlink:href="dir_000234_000056.html" target="_top" xlink:title="51">
<text text-anchor="middle" x="129.986" y="-48.575" font-family="Helvetica,sans-Serif" font-size="10.00">51</text>
</a>
</g>
</g>
<!-- dir_8ba487e25de5ee77e05e9dce7582cb98&#45;&gt;dir_2171f7ec022c5423887b07c69b2f5b48 -->
<g id="edge9" class="edge"><title>dir_8ba487e25de5ee77e05e9dce7582cb98&#45;&gt;dir_2171f7ec022c5423887b07c69b2f5b48</title>
<path fill="none" stroke="black" d="M139.97,-143.871C140.481,-119.67 141.42,-75.2108 142.029,-46.3932"/>
<polygon fill="black" stroke="black" points="145.533,-46.261 142.245,-36.1893 138.534,-46.1131 145.533,-46.261"/>
<g id="a_edge9&#45;headlabel"><a xlink:href="dir_000000_000056.html" target="_top" xlink:title="7">
<text text-anchor="middle" x="148.296" y="-47.4147" font-family="Helvetica,sans-Serif" font-size="10.00">7</text>
</a>
</g>
</g>
<!-- dir_bcbb2cf9a3d3d83e5515c82071a07177&#45;&gt;dir_2171f7ec022c5423887b07c69b2f5b48 -->
<g id="edge10" class="edge"><title>dir_bcbb2cf9a3d3d83e5515c82071a07177&#45;&gt;dir_2171f7ec022c5423887b07c69b2f5b48</title>
<path fill="none" stroke="black" d="M210.32,-143.871C197.023,-119.35 172.449,-74.0321 156.847,-45.2589"/>
<polygon fill="black" stroke="black" points="159.773,-43.3116 151.929,-36.1893 153.619,-46.6484 159.773,-43.3116"/>
<g id="a_edge10&#45;headlabel"><a xlink:href="dir_000037_000056.html" target="_top" xlink:title="21">
<text text-anchor="middle" x="163.982" y="-42.6181" font-family="Helvetica,sans-Serif" font-size="10.00">21</text>
</a>
</g>
</g>
</g>
</svg>
