<?xml version="1.0" encoding="UTF-8" standalone="no"?>
<!DOCTYPE svg PUBLIC "-//W3C//DTD SVG 1.1//EN"
 "http://www.w3.org/Graphics/SVG/1.1/DTD/svg11.dtd">
<!-- Generated by graphviz version 2.36.0 (20140111.2315)
 -->
<!-- Title: /home/travis/build/AliceO2Group/AliceO2/Framework/TestWorkflows Pages: 1 -->
<svg width="445pt" height="303pt"
 viewBox="0.00 0.00 445.00 303.00" xmlns="http://www.w3.org/2000/svg" xmlns:xlink="http://www.w3.org/1999/xlink">
<g id="graph0" class="graph" transform="scale(1 1) rotate(0) translate(4 299)">
<title>/home/travis/build/AliceO2Group/AliceO2/Framework/TestWorkflows</title>
<g id="clust1" class="cluster"><title>clusterdir_bcbb2cf9a3d3d83e5515c82071a07177</title>
<g id="a_clust1"><a xlink:href="dir_bcbb2cf9a3d3d83e5515c82071a07177.html" target="_top" xlink:title="Framework">
<polygon fill="#ddddee" stroke="black" points="169,-200 169,-287 429,-287 429,-200 169,-200"/>
<text text-anchor="middle" x="299" y="-275" font-family="Helvetica,sans-Serif" font-size="10.00">Framework</text>
</a>
</g>
</g>
<g id="clust2" class="cluster"><title>clusterdir_a8f73827fca2a0188d35dc47dc5b0ea3</title>
<g id="a_clust2"><a xlink:href="dir_a8f73827fca2a0188d35dc47dc5b0ea3.html" target="_top">
<polygon fill="#eeeeff" stroke="black" points="177,-208 177,-260 421,-260 421,-208 177,-208"/>
</a>
</g>
</g>
<!-- dir_a8f73827fca2a0188d35dc47dc5b0ea3 -->
<g id="node1" class="node"><title>dir_a8f73827fca2a0188d35dc47dc5b0ea3</title>
<text text-anchor="middle" x="371" y="-231.5" font-family="Helvetica,sans-Serif" font-size="10.00">TestWorkflows</text>
</g>
<!-- dir_80c3b7d4c168c9aa75dd1ba81b9fa387 -->
<g id="node2" class="node"><title>dir_80c3b7d4c168c9aa75dd1ba81b9fa387</title>
<g id="a_node2"><a xlink:href="dir_80c3b7d4c168c9aa75dd1ba81b9fa387.html" target="_top" xlink:title="src">
<polygon fill="white" stroke="black" points="239,-252 185,-252 185,-216 239,-216 239,-252"/>
<text text-anchor="middle" x="212" y="-231.5" font-family="Helvetica,sans-Serif" font-size="10.00">src</text>
</a>
</g>
</g>
<!-- dir_0b342c6c6b7d2278121a0bb9c4985063 -->
<g id="node4" class="node"><title>dir_0b342c6c6b7d2278121a0bb9c4985063</title>
<g id="a_node4"><a xlink:href="dir_0b342c6c6b7d2278121a0bb9c4985063.html" target="_top" xlink:title="Generators">
<polygon fill="none" stroke="red" points="195.25,-108 130.75,-108 130.75,-72 195.25,-72 195.25,-108"/>
<text text-anchor="middle" x="163" y="-87.5" font-family="Helvetica,sans-Serif" font-size="10.00">Generators</text>
</a>
</g>
</g>
<!-- dir_80c3b7d4c168c9aa75dd1ba81b9fa387&#45;&gt;dir_0b342c6c6b7d2278121a0bb9c4985063 -->
<g id="edge1" class="edge"><title>dir_80c3b7d4c168c9aa75dd1ba81b9fa387&#45;&gt;dir_0b342c6c6b7d2278121a0bb9c4985063</title>
<path fill="none" stroke="black" d="M206.089,-215.871C197.702,-191.564 182.261,-146.819 172.321,-118.013"/>
<polygon fill="black" stroke="black" points="175.502,-116.501 168.932,-108.189 168.885,-118.784 175.502,-116.501"/>
<g id="a_edge1&#45;headlabel"><a xlink:href="dir_000351_000367.html" target="_top" xlink:title="1">
<text text-anchor="middle" x="179.359" y="-116.472" font-family="Helvetica,sans-Serif" font-size="10.00">1</text>
</a>
</g>
</g>
<!-- dir_4ab6b4cc6a7edbff49100e9123df213f -->
<g id="node5" class="node"><title>dir_4ab6b4cc6a7edbff49100e9123df213f</title>
<g id="a_node5"><a xlink:href="dir_4ab6b4cc6a7edbff49100e9123df213f.html" target="_top" xlink:title="Common">
<polygon fill="none" stroke="red" points="55.5,-108 0.5,-108 0.5,-72 55.5,-72 55.5,-108"/>
<text text-anchor="middle" x="28" y="-87.5" font-family="Helvetica,sans-Serif" font-size="10.00">Common</text>
</a>
</g>
</g>
<!-- dir_80c3b7d4c168c9aa75dd1ba81b9fa387&#45;&gt;dir_4ab6b4cc6a7edbff49100e9123df213f -->
<g id="edge2" class="edge"><title>dir_80c3b7d4c168c9aa75dd1ba81b9fa387&#45;&gt;dir_4ab6b4cc6a7edbff49100e9123df213f</title>
<path fill="none" stroke="black" d="M184.971,-229.021C154.026,-223.195 103.44,-209.629 71,-180 52.765,-163.345 41.4429,-137.289 35.0241,-117.666"/>
<polygon fill="black" stroke="black" points="38.3647,-116.621 32.1038,-108.074 31.6682,-118.66 38.3647,-116.621"/>
<g id="a_edge2&#45;headlabel"><a xlink:href="dir_000351_000016.html" target="_top" xlink:title="2">
<text text-anchor="middle" x="42.1278" y="-116.733" font-family="Helvetica,sans-Serif" font-size="10.00">2</text>
</a>
</g>
</g>
<!-- dir_9f165b2481dacfe69aa54d326bd5cd47 -->
<g id="node6" class="node"><title>dir_9f165b2481dacfe69aa54d326bd5cd47</title>
<g id="a_node6"><a xlink:href="dir_9f165b2481dacfe69aa54d326bd5cd47.html" target="_top" xlink:title="Core">
<polygon fill="none" stroke="red" points="268,-108 214,-108 214,-72 268,-72 268,-108"/>
<text text-anchor="middle" x="241" y="-87.5" font-family="Helvetica,sans-Serif" font-size="10.00">Core</text>
</a>
</g>
</g>
<!-- dir_80c3b7d4c168c9aa75dd1ba81b9fa387&#45;&gt;dir_9f165b2481dacfe69aa54d326bd5cd47 -->
<g id="edge3" class="edge"><title>dir_80c3b7d4c168c9aa75dd1ba81b9fa387&#45;&gt;dir_9f165b2481dacfe69aa54d326bd5cd47</title>
<path fill="none" stroke="black" d="M215.498,-215.871C220.462,-191.564 229.6,-146.819 235.483,-118.013"/>
<polygon fill="black" stroke="black" points="238.918,-118.687 237.49,-108.189 232.059,-117.287 238.918,-118.687"/>
<g id="a_edge3&#45;headlabel"><a xlink:href="dir_000351_000353.html" target="_top" xlink:title="55">
<text text-anchor="middle" x="240.98" y="-120.277" font-family="Helvetica,sans-Serif" font-size="10.00">55</text>
</a>
</g>
</g>
<!-- dir_051dca18e802f8e9474f2e30d29c04e0 -->
<g id="node7" class="node"><title>dir_051dca18e802f8e9474f2e30d29c04e0</title>
<g id="a_node7"><a xlink:href="dir_051dca18e802f8e9474f2e30d29c04e0.html" target="_top" xlink:title="Detectors">
<polygon fill="none" stroke="red" points="139.25,-180 80.75,-180 80.75,-144 139.25,-144 139.25,-180"/>
<text text-anchor="middle" x="110" y="-159.5" font-family="Helvetica,sans-Serif" font-size="10.00">Detectors</text>
</a>
</g>
</g>
<!-- dir_80c3b7d4c168c9aa75dd1ba81b9fa387&#45;&gt;dir_051dca18e802f8e9474f2e30d29c04e0 -->
<g id="edge4" class="edge"><title>dir_80c3b7d4c168c9aa75dd1ba81b9fa387&#45;&gt;dir_051dca18e802f8e9474f2e30d29c04e0</title>
<path fill="none" stroke="black" d="M187.048,-215.876C173.958,-206.893 157.74,-195.763 143.564,-186.034"/>
<polygon fill="black" stroke="black" points="145.274,-182.962 135.048,-180.19 141.313,-188.734 145.274,-182.962"/>
<g id="a_edge4&#45;headlabel"><a xlink:href="dir_000351_000028.html" target="_top" xlink:title="4">
<text text-anchor="middle" x="149.844" y="-180.155" font-family="Helvetica,sans-Serif" font-size="10.00">4</text>
</a>
</g>
</g>
<!-- dir_2171f7ec022c5423887b07c69b2f5b48 -->
<g id="node8" class="node"><title>dir_2171f7ec022c5423887b07c69b2f5b48</title>
<g id="a_node8"><a xlink:href="dir_2171f7ec022c5423887b07c69b2f5b48.html" target="_top" xlink:title="DataFormats">
<polygon fill="none" stroke="red" points="130,-36 56,-36 56,-0 130,-0 130,-36"/>
<text text-anchor="middle" x="93" y="-15.5" font-family="Helvetica,sans-Serif" font-size="10.00">DataFormats</text>
</a>
</g>
</g>
<!-- dir_80c3b7d4c168c9aa75dd1ba81b9fa387&#45;&gt;dir_2171f7ec022c5423887b07c69b2f5b48 -->
<g id="edge5" class="edge"><title>dir_80c3b7d4c168c9aa75dd1ba81b9fa387&#45;&gt;dir_2171f7ec022c5423887b07c69b2f5b48</title>
<path fill="none" stroke="black" d="M229.601,-215.539C258.953,-184.281 311.44,-117.76 277,-72 260.53,-50.1163 189.029,-34.4459 140.165,-26.0568"/>
<polygon fill="black" stroke="black" points="140.549,-22.5726 130.109,-24.3776 139.396,-29.477 140.549,-22.5726"/>
<g id="a_edge5&#45;headlabel"><a xlink:href="dir_000351_000056.html" target="_top" xlink:title="2">
<text text-anchor="middle" x="144.562" y="-17.8641" font-family="Helvetica,sans-Serif" font-size="10.00">2</text>
</a>
</g>
</g>
<!-- dir_b6abd220a8a509af9882e60b4042c567 -->
<g id="node3" class="node"><title>dir_b6abd220a8a509af9882e60b4042c567</title>
<g id="a_node3"><a xlink:href="dir_b6abd220a8a509af9882e60b4042c567.html" target="_top" xlink:title="test">
<polygon fill="white" stroke="black" points="311,-252 257,-252 257,-216 311,-216 311,-252"/>
<text text-anchor="middle" x="284" y="-231.5" font-family="Helvetica,sans-Serif" font-size="10.00">test</text>
</a>
</g>
</g>
<!-- dir_b6abd220a8a509af9882e60b4042c567&#45;&gt;dir_9f165b2481dacfe69aa54d326bd5cd47 -->
<g id="edge12" class="edge"><title>dir_b6abd220a8a509af9882e60b4042c567&#45;&gt;dir_9f165b2481dacfe69aa54d326bd5cd47</title>
<path fill="none" stroke="black" d="M278.813,-215.871C271.452,-191.564 257.903,-146.819 249.18,-118.013"/>
<polygon fill="black" stroke="black" points="252.453,-116.746 246.205,-108.189 245.754,-118.774 252.453,-116.746"/>
<g id="a_edge12&#45;headlabel"><a xlink:href="dir_000364_000353.html" target="_top" xlink:title="3">
<text text-anchor="middle" x="256.212" y="-116.863" font-family="Helvetica,sans-Serif" font-size="10.00">3</text>
</a>
</g>
</g>
<!-- dir_4ab6b4cc6a7edbff49100e9123df213f&#45;&gt;dir_2171f7ec022c5423887b07c69b2f5b48 -->
<g id="edge6" class="edge"><title>dir_4ab6b4cc6a7edbff49100e9123df213f&#45;&gt;dir_2171f7ec022c5423887b07c69b2f5b48</title>
<path fill="none" stroke="black" d="M38.1517,-71.6966C45.2186,-63.135 54.7669,-52.6562 63.9699,-43.3045"/>
<polygon fill="black" stroke="black" points="66.5916,-45.6336 71.2224,-36.1043 61.6598,-40.6659 66.5916,-45.6336"/>
<g id="a_edge6&#45;headlabel"><a xlink:href="dir_000016_000056.html" target="_top" xlink:title="1">
<text text-anchor="middle" x="66.041" y="-47.681" font-family="Helvetica,sans-Serif" font-size="10.00">1</text>
</a>
</g>
</g>
<!-- dir_9f165b2481dacfe69aa54d326bd5cd47&#45;&gt;dir_2171f7ec022c5423887b07c69b2f5b48 -->
<g id="edge7" class="edge"><title>dir_9f165b2481dacfe69aa54d326bd5cd47&#45;&gt;dir_2171f7ec022c5423887b07c69b2f5b48</title>
<path fill="none" stroke="black" d="M213.855,-76.1609C192.765,-66.1864 163.052,-52.1326 138.365,-40.4564"/>
<polygon fill="black" stroke="black" points="139.715,-37.223 129.178,-36.1113 136.722,-43.551 139.715,-37.223"/>
<g id="a_edge7&#45;headlabel"><a xlink:href="dir_000353_000056.html" target="_top" xlink:title="18">
<text text-anchor="middle" x="144.178" y="-33.6932" font-family="Helvetica,sans-Serif" font-size="10.00">18</text>
</a>
</g>
</g>
<!-- dir_051dca18e802f8e9474f2e30d29c04e0&#45;&gt;dir_0b342c6c6b7d2278121a0bb9c4985063 -->
<g id="edge8" class="edge"><title>dir_051dca18e802f8e9474f2e30d29c04e0&#45;&gt;dir_0b342c6c6b7d2278121a0bb9c4985063</title>
<path fill="none" stroke="black" d="M123.101,-143.697C129.391,-135.389 137.047,-125.277 143.965,-116.141"/>
<polygon fill="black" stroke="black" points="146.804,-118.19 150.05,-108.104 141.223,-113.964 146.804,-118.19"/>
<g id="a_edge8&#45;headlabel"><a xlink:href="dir_000028_000367.html" target="_top" xlink:title="1">
<text text-anchor="middle" x="146.897" y="-120.269" font-family="Helvetica,sans-Serif" font-size="10.00">1</text>
</a>
</g>
</g>
<!-- dir_051dca18e802f8e9474f2e30d29c04e0&#45;&gt;dir_4ab6b4cc6a7edbff49100e9123df213f -->
<g id="edge9" class="edge"><title>dir_051dca18e802f8e9474f2e30d29c04e0&#45;&gt;dir_4ab6b4cc6a7edbff49100e9123df213f</title>
<path fill="none" stroke="black" d="M89.7303,-143.697C79.5024,-134.965 66.9389,-124.24 55.8218,-114.75"/>
<polygon fill="black" stroke="black" points="57.9146,-111.935 48.0365,-108.104 53.3697,-117.259 57.9146,-111.935"/>
<g id="a_edge9&#45;headlabel"><a xlink:href="dir_000028_000016.html" target="_top" xlink:title="59">
<text text-anchor="middle" x="62.4919" y="-109.609" font-family="Helvetica,sans-Serif" font-size="10.00">59</text>
</a>
</g>
</g>
<!-- dir_051dca18e802f8e9474f2e30d29c04e0&#45;&gt;dir_9f165b2481dacfe69aa54d326bd5cd47 -->
<g id="edge10" class="edge"><title>dir_051dca18e802f8e9474f2e30d29c04e0&#45;&gt;dir_9f165b2481dacfe69aa54d326bd5cd47</title>
<path fill="none" stroke="black" d="M139.399,-145.291C158.762,-134.944 184.247,-121.326 204.849,-110.317"/>
<polygon fill="black" stroke="black" points="206.761,-113.264 213.931,-105.464 203.462,-107.09 206.761,-113.264"/>
<g id="a_edge10&#45;headlabel"><a xlink:href="dir_000028_000353.html" target="_top" xlink:title="14">
<text text-anchor="middle" x="204.929" y="-114.962" font-family="Helvetica,sans-Serif" font-size="10.00">14</text>
</a>
</g>
</g>
<!-- dir_051dca18e802f8e9474f2e30d29c04e0&#45;&gt;dir_2171f7ec022c5423887b07c69b2f5b48 -->
<g id="edge11" class="edge"><title>dir_051dca18e802f8e9474f2e30d29c04e0&#45;&gt;dir_2171f7ec022c5423887b07c69b2f5b48</title>
<path fill="none" stroke="black" d="M103.365,-143.871C97.9092,-119.67 92.2951,-75.2108 90.8205,-46.3932"/>
<polygon fill="black" stroke="black" points="94.3112,-46.062 90.467,-36.1893 87.3154,-46.3045 94.3112,-46.062"/>
<g id="a_edge11&#45;headlabel"><a xlink:href="dir_000028_000056.html" target="_top" xlink:title="225">
<text text-anchor="middle" x="97.2732" y="-47.0562" font-family="Helvetica,sans-Serif" font-size="10.00">225</text>
</a>
</g>
</g>
<!-- dir_2171f7ec022c5423887b07c69b2f5b48&#45;&gt;dir_4ab6b4cc6a7edbff49100e9123df213f -->
<g id="edge13" class="edge"><title>dir_2171f7ec022c5423887b07c69b2f5b48&#45;&gt;dir_4ab6b4cc6a7edbff49100e9123df213f</title>
<path fill="none" stroke="black" d="M83.0124,-36.1043C75.9842,-44.636 66.4527,-55.1084 57.2445,-64.4775"/>
<polygon fill="black" stroke="black" points="54.6072,-62.1641 49.9831,-71.6966 59.5425,-67.1283 54.6072,-62.1641"/>
<g id="a_edge13&#45;headlabel"><a xlink:href="dir_000056_000016.html" target="_top" xlink:title="18">
<text text-anchor="middle" x="55.1546" y="-55.1163" font-family="Helvetica,sans-Serif" font-size="10.00">18</text>
</a>
</g>
</g>
<!-- dir_2171f7ec022c5423887b07c69b2f5b48&#45;&gt;dir_051dca18e802f8e9474f2e30d29c04e0 -->
<g id="edge14" class="edge"><title>dir_2171f7ec022c5423887b07c69b2f5b48&#45;&gt;dir_051dca18e802f8e9474f2e30d29c04e0</title>
<path fill="none" stroke="black" d="M99.6488,-36.1893C105.105,-60.4244 110.716,-104.888 112.183,-133.679"/>
<polygon fill="black" stroke="black" points="108.692,-133.998 112.534,-143.871 115.688,-133.757 108.692,-133.998"/>
<g id="a_edge14&#45;headlabel"><a xlink:href="dir_000056_000028.html" target="_top" xlink:title="1">
<text text-anchor="middle" x="105.731" y="-128.003" font-family="Helvetica,sans-Serif" font-size="10.00">1</text>
</a>
</g>
</g>
</g>
</svg>
