<?xml version="1.0" encoding="UTF-8" standalone="no"?>
<!DOCTYPE svg PUBLIC "-//W3C//DTD SVG 1.1//EN"
 "http://www.w3.org/Graphics/SVG/1.1/DTD/svg11.dtd">
<!-- Generated by graphviz version 2.36.0 (20140111.2315)
 -->
<!-- Title: /home/travis/build/AliceO2Group/AliceO2/Detectors/HMPID/simulation Pages: 1 -->
<svg width="204pt" height="303pt"
 viewBox="0.00 0.00 204.00 303.00" xmlns="http://www.w3.org/2000/svg" xmlns:xlink="http://www.w3.org/1999/xlink">
<g id="graph0" class="graph" transform="scale(1 1) rotate(0) translate(4 299)">
<title>/home/travis/build/AliceO2Group/AliceO2/Detectors/HMPID/simulation</title>
<g id="clust1" class="cluster"><title>clusterdir_c91fbefb38f56c1db7a8c31815b8a131</title>
<g id="a_clust1"><a xlink:href="dir_c91fbefb38f56c1db7a8c31815b8a131.html" target="_top" xlink:title="HMPID">
<polygon fill="#ddddee" stroke="black" points="22,-128 22,-287 188,-287 188,-128 22,-128"/>
<text text-anchor="middle" x="105" y="-275" font-family="Helvetica,sans-Serif" font-size="10.00">HMPID</text>
</a>
</g>
</g>
<g id="clust2" class="cluster"><title>clusterdir_500f0d71cadd529ffa10e3c2241cfe90</title>
<g id="a_clust2"><a xlink:href="dir_500f0d71cadd529ffa10e3c2241cfe90.html" target="_top">
<polygon fill="#eeeeff" stroke="black" points="30,-136 30,-260 180,-260 180,-136 30,-136"/>
</a>
</g>
</g>
<!-- dir_500f0d71cadd529ffa10e3c2241cfe90 -->
<g id="node1" class="node"><title>dir_500f0d71cadd529ffa10e3c2241cfe90</title>
<text text-anchor="middle" x="141" y="-231.5" font-family="Helvetica,sans-Serif" font-size="10.00">simulation</text>
</g>
<!-- dir_94519519beeff5880967868b09df99b1 -->
<g id="node2" class="node"><title>dir_94519519beeff5880967868b09df99b1</title>
<g id="a_node2"><a xlink:href="dir_94519519beeff5880967868b09df99b1.html" target="_top" xlink:title="include">
<polygon fill="white" stroke="red" points="119,-180 65,-180 65,-144 119,-144 119,-180"/>
<text text-anchor="middle" x="92" y="-159.5" font-family="Helvetica,sans-Serif" font-size="10.00">include</text>
</a>
</g>
</g>
<!-- dir_37c90836491b695b472bf98d1be8336b -->
<g id="node4" class="node"><title>dir_37c90836491b695b472bf98d1be8336b</title>
<g id="a_node4"><a xlink:href="dir_37c90836491b695b472bf98d1be8336b.html" target="_top" xlink:title="Base">
<polygon fill="none" stroke="red" points="64,-108 10,-108 10,-72 64,-72 64,-108"/>
<text text-anchor="middle" x="37" y="-87.5" font-family="Helvetica,sans-Serif" font-size="10.00">Base</text>
</a>
</g>
</g>
<!-- dir_94519519beeff5880967868b09df99b1&#45;&gt;dir_37c90836491b695b472bf98d1be8336b -->
<g id="edge1" class="edge"><title>dir_94519519beeff5880967868b09df99b1&#45;&gt;dir_37c90836491b695b472bf98d1be8336b</title>
<path fill="none" stroke="black" d="M78.4045,-143.697C71.8773,-135.389 63.932,-125.277 56.7534,-116.141"/>
<polygon fill="black" stroke="black" points="59.3695,-113.805 50.4391,-108.104 53.8653,-118.13 59.3695,-113.805"/>
<g id="a_edge1&#45;headlabel"><a xlink:href="dir_000156_000144.html" target="_top" xlink:title="1">
<text text-anchor="middle" x="63.8229" y="-112.377" font-family="Helvetica,sans-Serif" font-size="10.00">1</text>
</a>
</g>
</g>
<!-- dir_2171f7ec022c5423887b07c69b2f5b48 -->
<g id="node5" class="node"><title>dir_2171f7ec022c5423887b07c69b2f5b48</title>
<g id="a_node5"><a xlink:href="dir_2171f7ec022c5423887b07c69b2f5b48.html" target="_top" xlink:title="DataFormats">
<polygon fill="none" stroke="red" points="74,-36 0,-36 0,-0 74,-0 74,-36"/>
<text text-anchor="middle" x="37" y="-15.5" font-family="Helvetica,sans-Serif" font-size="10.00">DataFormats</text>
</a>
</g>
</g>
<!-- dir_94519519beeff5880967868b09df99b1&#45;&gt;dir_2171f7ec022c5423887b07c69b2f5b48 -->
<g id="edge2" class="edge"><title>dir_94519519beeff5880967868b09df99b1&#45;&gt;dir_2171f7ec022c5423887b07c69b2f5b48</title>
<path fill="none" stroke="black" d="M90.3028,-143.674C88.0495,-125.29 83.1116,-95.6852 73,-72 68.9158,-62.4333 63.0116,-52.7836 57.1621,-44.3881"/>
<polygon fill="black" stroke="black" points="59.8797,-42.1741 51.1647,-36.1492 54.2203,-46.2938 59.8797,-42.1741"/>
<g id="a_edge2&#45;headlabel"><a xlink:href="dir_000156_000056.html" target="_top" xlink:title="1">
<text text-anchor="middle" x="64.2906" y="-40.9093" font-family="Helvetica,sans-Serif" font-size="10.00">1</text>
</a>
</g>
</g>
<!-- dir_7dc08bbd5ba5ea4e51ff8bc5a113392a -->
<g id="node3" class="node"><title>dir_7dc08bbd5ba5ea4e51ff8bc5a113392a</title>
<g id="a_node3"><a xlink:href="dir_7dc08bbd5ba5ea4e51ff8bc5a113392a.html" target="_top" xlink:title="src">
<polygon fill="white" stroke="black" points="92,-252 38,-252 38,-216 92,-216 92,-252"/>
<text text-anchor="middle" x="65" y="-231.5" font-family="Helvetica,sans-Serif" font-size="10.00">src</text>
</a>
</g>
</g>
<!-- dir_7dc08bbd5ba5ea4e51ff8bc5a113392a&#45;&gt;dir_94519519beeff5880967868b09df99b1 -->
<g id="edge4" class="edge"><title>dir_7dc08bbd5ba5ea4e51ff8bc5a113392a&#45;&gt;dir_94519519beeff5880967868b09df99b1</title>
<path fill="none" stroke="black" d="M71.6742,-215.697C74.7149,-207.813 78.3827,-198.304 81.7607,-189.546"/>
<polygon fill="black" stroke="black" points="85.0693,-190.694 85.4026,-180.104 78.5383,-188.175 85.0693,-190.694"/>
<g id="a_edge4&#45;headlabel"><a xlink:href="dir_000183_000156.html" target="_top" xlink:title="1">
<text text-anchor="middle" x="86.4248" y="-192.569" font-family="Helvetica,sans-Serif" font-size="10.00">1</text>
</a>
</g>
</g>
<!-- dir_7dc08bbd5ba5ea4e51ff8bc5a113392a&#45;&gt;dir_37c90836491b695b472bf98d1be8336b -->
<g id="edge5" class="edge"><title>dir_7dc08bbd5ba5ea4e51ff8bc5a113392a&#45;&gt;dir_37c90836491b695b472bf98d1be8336b</title>
<path fill="none" stroke="black" d="M61.6225,-215.871C56.8294,-191.564 48.0065,-146.819 42.3266,-118.013"/>
<polygon fill="black" stroke="black" points="45.758,-117.323 40.3894,-108.189 38.8902,-118.677 45.758,-117.323"/>
<g id="a_edge5&#45;headlabel"><a xlink:href="dir_000183_000144.html" target="_top" xlink:title="1">
<text text-anchor="middle" x="49.2389" y="-117.801" font-family="Helvetica,sans-Serif" font-size="10.00">1</text>
</a>
</g>
</g>
<!-- dir_37c90836491b695b472bf98d1be8336b&#45;&gt;dir_2171f7ec022c5423887b07c69b2f5b48 -->
<g id="edge3" class="edge"><title>dir_37c90836491b695b472bf98d1be8336b&#45;&gt;dir_2171f7ec022c5423887b07c69b2f5b48</title>
<path fill="none" stroke="black" d="M31.0843,-71.6966C30.2886,-63.9827 30.0621,-54.7125 30.4047,-46.1124"/>
<polygon fill="black" stroke="black" points="33.8984,-46.3243 31.105,-36.1043 26.9154,-45.8356 33.8984,-46.3243"/>
<g id="a_edge3&#45;headlabel"><a xlink:href="dir_000144_000056.html" target="_top" xlink:title="5">
<text text-anchor="middle" x="36.4799" y="-47.6083" font-family="Helvetica,sans-Serif" font-size="10.00">5</text>
</a>
</g>
</g>
<!-- dir_2171f7ec022c5423887b07c69b2f5b48&#45;&gt;dir_37c90836491b695b472bf98d1be8336b -->
<g id="edge6" class="edge"><title>dir_2171f7ec022c5423887b07c69b2f5b48&#45;&gt;dir_37c90836491b695b472bf98d1be8336b</title>
<path fill="none" stroke="black" d="M42.895,-36.1043C43.7005,-43.7913 43.9369,-53.0537 43.604,-61.6651"/>
<polygon fill="black" stroke="black" points="40.1085,-61.4805 42.9157,-71.6966 47.0921,-61.9597 40.1085,-61.4805"/>
<g id="a_edge6&#45;headlabel"><a xlink:href="dir_000056_000144.html" target="_top" xlink:title="1">
<text text-anchor="middle" x="37.5219" y="-55.2" font-family="Helvetica,sans-Serif" font-size="10.00">1</text>
</a>
</g>
</g>
</g>
</svg>
