<?xml version="1.0" encoding="UTF-8" standalone="no"?>
<!DOCTYPE svg PUBLIC "-//W3C//DTD SVG 1.1//EN"
 "http://www.w3.org/Graphics/SVG/1.1/DTD/svg11.dtd">
<!-- Generated by graphviz version 2.36.0 (20140111.2315)
 -->
<!-- Title: /home/travis/build/AliceO2Group/AliceO2/Steer Pages: 1 -->
<svg width="440pt" height="220pt"
 viewBox="0.00 0.00 440.17 220.45" xmlns="http://www.w3.org/2000/svg" xmlns:xlink="http://www.w3.org/1999/xlink">
<g id="graph0" class="graph" transform="scale(1 1) rotate(0) translate(4 216.448)">
<title>/home/travis/build/AliceO2Group/AliceO2/Steer</title>
<g id="clust1" class="cluster"><title>clusterdir_40b4a122691869ee86baf7f2711ed718</title>
<g id="a_clust1"><a xlink:href="dir_40b4a122691869ee86baf7f2711ed718.html" target="_top">
<polygon fill="#eeeeff" stroke="black" points="8,-64 8,-188 334,-188 334,-64 8,-64"/>
</a>
</g>
</g>
<!-- dir_40b4a122691869ee86baf7f2711ed718 -->
<g id="node1" class="node"><title>dir_40b4a122691869ee86baf7f2711ed718</title>
<text text-anchor="middle" x="299" y="-159.5" font-family="Helvetica,sans-Serif" font-size="10.00">Steer</text>
</g>
<!-- dir_a195a20aec66d1e163ba7321e47c9d6e -->
<g id="node2" class="node"><title>dir_a195a20aec66d1e163ba7321e47c9d6e</title>
<g id="a_node2"><a xlink:href="dir_a195a20aec66d1e163ba7321e47c9d6e.html" target="_top" xlink:title="DigitizerWorkflow">
<polygon fill="white" stroke="red" points="254,-180 160,-180 160,-144 254,-144 254,-180"/>
<text text-anchor="middle" x="207" y="-159.5" font-family="Helvetica,sans-Serif" font-size="10.00">DigitizerWorkflow</text>
</a>
</g>
</g>
<!-- dir_a1435872ec32250c24e4b9798bc29a35 -->
<g id="node3" class="node"><title>dir_a1435872ec32250c24e4b9798bc29a35</title>
<g id="a_node3"><a xlink:href="dir_a1435872ec32250c24e4b9798bc29a35.html" target="_top" xlink:title="include">
<polygon fill="white" stroke="red" points="275,-108 221,-108 221,-72 275,-72 275,-108"/>
<text text-anchor="middle" x="248" y="-87.5" font-family="Helvetica,sans-Serif" font-size="10.00">include</text>
</a>
</g>
</g>
<!-- dir_a195a20aec66d1e163ba7321e47c9d6e&#45;&gt;dir_a1435872ec32250c24e4b9798bc29a35 -->
<g id="edge5" class="edge"><title>dir_a195a20aec66d1e163ba7321e47c9d6e&#45;&gt;dir_a1435872ec32250c24e4b9798bc29a35</title>
<path fill="none" stroke="black" d="M217.135,-143.697C221.852,-135.644 227.562,-125.894 232.782,-116.982"/>
<polygon fill="black" stroke="black" points="235.948,-118.502 237.982,-108.104 229.908,-114.964 235.948,-118.502"/>
<g id="a_edge5&#45;headlabel"><a xlink:href="dir_000373_000375.html" target="_top" xlink:title="4">
<text text-anchor="middle" x="236.581" y="-120.539" font-family="Helvetica,sans-Serif" font-size="10.00">4</text>
</a>
</g>
</g>
<!-- dir_051dca18e802f8e9474f2e30d29c04e0 -->
<g id="node6" class="node"><title>dir_051dca18e802f8e9474f2e30d29c04e0</title>
<g id="a_node6"><a xlink:href="dir_051dca18e802f8e9474f2e30d29c04e0.html" target="_top" xlink:title="Detectors">
<polygon fill="none" stroke="red" points="404.25,-180 345.75,-180 345.75,-144 404.25,-144 404.25,-180"/>
<text text-anchor="middle" x="375" y="-159.5" font-family="Helvetica,sans-Serif" font-size="10.00">Detectors</text>
</a>
</g>
</g>
<!-- dir_a195a20aec66d1e163ba7321e47c9d6e&#45;&gt;dir_051dca18e802f8e9474f2e30d29c04e0 -->
<g id="edge4" class="edge"><title>dir_a195a20aec66d1e163ba7321e47c9d6e&#45;&gt;dir_051dca18e802f8e9474f2e30d29c04e0</title>
<path fill="none" stroke="black" d="M226.993,-180.165C239.074,-189.886 255.324,-200.886 272,-206 296.22,-213.427 305.489,-215.434 329,-206 338.846,-202.049 347.776,-194.874 355.093,-187.448"/>
<polygon fill="black" stroke="black" points="357.69,-189.795 361.846,-180.049 352.52,-185.076 357.69,-189.795"/>
<g id="a_edge4&#45;headlabel"><a xlink:href="dir_000373_000028.html" target="_top" xlink:title="6">
<text text-anchor="middle" x="357.364" y="-191.864" font-family="Helvetica,sans-Serif" font-size="10.00">6</text>
</a>
</g>
</g>
<!-- dir_bcbb2cf9a3d3d83e5515c82071a07177 -->
<g id="node7" class="node"><title>dir_bcbb2cf9a3d3d83e5515c82071a07177</title>
<g id="a_node7"><a xlink:href="dir_bcbb2cf9a3d3d83e5515c82071a07177.html" target="_top" xlink:title="Framework">
<polygon fill="none" stroke="red" points="407.25,-108 342.75,-108 342.75,-72 407.25,-72 407.25,-108"/>
<text text-anchor="middle" x="375" y="-87.5" font-family="Helvetica,sans-Serif" font-size="10.00">Framework</text>
</a>
</g>
</g>
<!-- dir_a195a20aec66d1e163ba7321e47c9d6e&#45;&gt;dir_bcbb2cf9a3d3d83e5515c82071a07177 -->
<g id="edge6" class="edge"><title>dir_a195a20aec66d1e163ba7321e47c9d6e&#45;&gt;dir_bcbb2cf9a3d3d83e5515c82071a07177</title>
<path fill="none" stroke="black" d="M250.578,-143.954C273.764,-134.753 302.953,-122.963 333.004,-110.118"/>
<polygon fill="black" stroke="black" points="334.547,-113.265 342.352,-106.1 331.782,-106.834 334.547,-113.265"/>
<g id="a_edge6&#45;headlabel"><a xlink:href="dir_000373_000037.html" target="_top" xlink:title="17">
<text text-anchor="middle" x="332.366" y="-114.793" font-family="Helvetica,sans-Serif" font-size="10.00">17</text>
</a>
</g>
</g>
<!-- dir_2171f7ec022c5423887b07c69b2f5b48 -->
<g id="node8" class="node"><title>dir_2171f7ec022c5423887b07c69b2f5b48</title>
<g id="a_node8"><a xlink:href="dir_2171f7ec022c5423887b07c69b2f5b48.html" target="_top" xlink:title="DataFormats">
<polygon fill="none" stroke="red" points="285,-36 211,-36 211,-0 285,-0 285,-36"/>
<text text-anchor="middle" x="248" y="-15.5" font-family="Helvetica,sans-Serif" font-size="10.00">DataFormats</text>
</a>
</g>
</g>
<!-- dir_a195a20aec66d1e163ba7321e47c9d6e&#45;&gt;dir_2171f7ec022c5423887b07c69b2f5b48 -->
<g id="edge7" class="edge"><title>dir_a195a20aec66d1e163ba7321e47c9d6e&#45;&gt;dir_2171f7ec022c5423887b07c69b2f5b48</title>
<path fill="none" stroke="black" d="M204.799,-143.882C202.929,-123.981 201.938,-90.482 212,-64 214.687,-56.9272 218.929,-50.1061 223.571,-44.0053"/>
<polygon fill="black" stroke="black" points="226.369,-46.114 230.042,-36.1763 220.974,-41.6542 226.369,-46.114"/>
<g id="a_edge7&#45;headlabel"><a xlink:href="dir_000373_000056.html" target="_top" xlink:title="3">
<text text-anchor="middle" x="226.267" y="-48.1935" font-family="Helvetica,sans-Serif" font-size="10.00">3</text>
</a>
</g>
</g>
<!-- dir_a1435872ec32250c24e4b9798bc29a35&#45;&gt;dir_2171f7ec022c5423887b07c69b2f5b48 -->
<g id="edge8" class="edge"><title>dir_a1435872ec32250c24e4b9798bc29a35&#45;&gt;dir_2171f7ec022c5423887b07c69b2f5b48</title>
<path fill="none" stroke="black" d="M248,-71.6966C248,-63.9827 248,-54.7125 248,-46.1124"/>
<polygon fill="black" stroke="black" points="251.5,-46.1043 248,-36.1043 244.5,-46.1044 251.5,-46.1043"/>
<g id="a_edge8&#45;headlabel"><a xlink:href="dir_000375_000056.html" target="_top" xlink:title="2">
<text text-anchor="middle" x="254.339" y="-47.199" font-family="Helvetica,sans-Serif" font-size="10.00">2</text>
</a>
</g>
</g>
<!-- dir_1ae1fa476fa4d5193a25cdc506b38de2 -->
<g id="node4" class="node"><title>dir_1ae1fa476fa4d5193a25cdc506b38de2</title>
<g id="a_node4"><a xlink:href="dir_1ae1fa476fa4d5193a25cdc506b38de2.html" target="_top" xlink:title="src">
<polygon fill="white" stroke="black" points="70,-180 16,-180 16,-144 70,-144 70,-180"/>
<text text-anchor="middle" x="43" y="-159.5" font-family="Helvetica,sans-Serif" font-size="10.00">src</text>
</a>
</g>
</g>
<!-- dir_1ae1fa476fa4d5193a25cdc506b38de2&#45;&gt;dir_a1435872ec32250c24e4b9798bc29a35 -->
<g id="edge13" class="edge"><title>dir_1ae1fa476fa4d5193a25cdc506b38de2&#45;&gt;dir_a1435872ec32250c24e4b9798bc29a35</title>
<path fill="none" stroke="black" d="M70.3474,-147.611C73.245,-146.336 76.1674,-145.107 79,-144 123.705,-126.53 176.724,-110.66 211.298,-100.934"/>
<polygon fill="black" stroke="black" points="212.278,-104.294 220.971,-98.2375 210.399,-97.551 212.278,-104.294"/>
<g id="a_edge13&#45;headlabel"><a xlink:href="dir_000377_000375.html" target="_top" xlink:title="3">
<text text-anchor="middle" x="209.578" y="-105.494" font-family="Helvetica,sans-Serif" font-size="10.00">3</text>
</a>
</g>
</g>
<!-- dir_1ae1fa476fa4d5193a25cdc506b38de2&#45;&gt;dir_2171f7ec022c5423887b07c69b2f5b48 -->
<g id="edge14" class="edge"><title>dir_1ae1fa476fa4d5193a25cdc506b38de2&#45;&gt;dir_2171f7ec022c5423887b07c69b2f5b48</title>
<path fill="none" stroke="black" d="M60.6583,-143.78C82.3689,-123.178 120.912,-88.4142 158,-64 171.526,-55.0963 187.056,-46.7406 201.366,-39.7034"/>
<polygon fill="black" stroke="black" points="203.069,-42.7683 210.561,-35.2768 200.032,-36.4612 203.069,-42.7683"/>
<g id="a_edge14&#45;headlabel"><a xlink:href="dir_000377_000056.html" target="_top" xlink:title="1">
<text text-anchor="middle" x="201.062" y="-44.3858" font-family="Helvetica,sans-Serif" font-size="10.00">1</text>
</a>
</g>
</g>
<!-- dir_f13782f4c5058c6a54ef5ebfe220c937 -->
<g id="node5" class="node"><title>dir_f13782f4c5058c6a54ef5ebfe220c937</title>
<g id="a_node5"><a xlink:href="dir_f13782f4c5058c6a54ef5ebfe220c937.html" target="_top" xlink:title="test">
<polygon fill="white" stroke="black" points="142,-180 88,-180 88,-144 142,-144 142,-180"/>
<text text-anchor="middle" x="115" y="-159.5" font-family="Helvetica,sans-Serif" font-size="10.00">test</text>
</a>
</g>
</g>
<!-- dir_f13782f4c5058c6a54ef5ebfe220c937&#45;&gt;dir_a1435872ec32250c24e4b9798bc29a35 -->
<g id="edge9" class="edge"><title>dir_f13782f4c5058c6a54ef5ebfe220c937&#45;&gt;dir_a1435872ec32250c24e4b9798bc29a35</title>
<path fill="none" stroke="black" d="M142.235,-146.666C162.318,-136.096 189.844,-121.609 211.78,-110.063"/>
<polygon fill="black" stroke="black" points="213.582,-113.07 220.801,-105.315 210.322,-106.876 213.582,-113.07"/>
<g id="a_edge9&#45;headlabel"><a xlink:href="dir_000378_000375.html" target="_top" xlink:title="2">
<text text-anchor="middle" x="211.723" y="-114.757" font-family="Helvetica,sans-Serif" font-size="10.00">2</text>
</a>
</g>
</g>
<!-- dir_f13782f4c5058c6a54ef5ebfe220c937&#45;&gt;dir_2171f7ec022c5423887b07c69b2f5b48 -->
<g id="edge10" class="edge"><title>dir_f13782f4c5058c6a54ef5ebfe220c937&#45;&gt;dir_2171f7ec022c5423887b07c69b2f5b48</title>
<path fill="none" stroke="black" d="M129.252,-143.727C145.755,-123.969 174.007,-90.8813 200,-64 206.764,-57.0047 214.342,-49.6821 221.442,-43.0245"/>
<polygon fill="black" stroke="black" points="223.947,-45.4749 228.899,-36.1084 219.187,-40.3426 223.947,-45.4749"/>
<g id="a_edge10&#45;headlabel"><a xlink:href="dir_000378_000056.html" target="_top" xlink:title="1">
<text text-anchor="middle" x="223.243" y="-47.501" font-family="Helvetica,sans-Serif" font-size="10.00">1</text>
</a>
</g>
</g>
<!-- dir_051dca18e802f8e9474f2e30d29c04e0&#45;&gt;dir_a1435872ec32250c24e4b9798bc29a35 -->
<g id="edge1" class="edge"><title>dir_051dca18e802f8e9474f2e30d29c04e0&#45;&gt;dir_a1435872ec32250c24e4b9798bc29a35</title>
<path fill="none" stroke="black" d="M345.544,-144.765C327.2,-134.653 303.473,-121.576 284.014,-110.85"/>
<polygon fill="black" stroke="black" points="285.575,-107.714 275.128,-105.952 282.196,-113.845 285.575,-107.714"/>
<g id="a_edge1&#45;headlabel"><a xlink:href="dir_000028_000375.html" target="_top" xlink:title="2">
<text text-anchor="middle" x="290.094" y="-104.463" font-family="Helvetica,sans-Serif" font-size="10.00">2</text>
</a>
</g>
</g>
<!-- dir_051dca18e802f8e9474f2e30d29c04e0&#45;&gt;dir_bcbb2cf9a3d3d83e5515c82071a07177 -->
<g id="edge2" class="edge"><title>dir_051dca18e802f8e9474f2e30d29c04e0&#45;&gt;dir_bcbb2cf9a3d3d83e5515c82071a07177</title>
<path fill="none" stroke="black" d="M369.084,-143.697C368.289,-135.983 368.062,-126.712 368.405,-118.112"/>
<polygon fill="black" stroke="black" points="371.898,-118.324 369.105,-108.104 364.915,-117.836 371.898,-118.324"/>
<g id="a_edge2&#45;headlabel"><a xlink:href="dir_000028_000037.html" target="_top" xlink:title="14">
<text text-anchor="middle" x="374.48" y="-119.608" font-family="Helvetica,sans-Serif" font-size="10.00">14</text>
</a>
</g>
</g>
<!-- dir_051dca18e802f8e9474f2e30d29c04e0&#45;&gt;dir_2171f7ec022c5423887b07c69b2f5b48 -->
<g id="edge3" class="edge"><title>dir_051dca18e802f8e9474f2e30d29c04e0&#45;&gt;dir_2171f7ec022c5423887b07c69b2f5b48</title>
<path fill="none" stroke="black" d="M385.814,-143.862C401.633,-123.342 425.922,-88.6572 407,-64 393.075,-45.8536 336.788,-33.4246 295.025,-26.3015"/>
<polygon fill="black" stroke="black" points="295.46,-22.8259 285.023,-24.6475 294.318,-29.7322 295.46,-22.8259"/>
<g id="a_edge3&#45;headlabel"><a xlink:href="dir_000028_000056.html" target="_top" xlink:title="225">
<text text-anchor="middle" x="299.469" y="-18.111" font-family="Helvetica,sans-Serif" font-size="10.00">225</text>
</a>
</g>
</g>
<!-- dir_bcbb2cf9a3d3d83e5515c82071a07177&#45;&gt;dir_051dca18e802f8e9474f2e30d29c04e0 -->
<g id="edge11" class="edge"><title>dir_bcbb2cf9a3d3d83e5515c82071a07177&#45;&gt;dir_051dca18e802f8e9474f2e30d29c04e0</title>
<path fill="none" stroke="black" d="M380.895,-108.104C381.701,-115.791 381.937,-125.054 381.604,-133.665"/>
<polygon fill="black" stroke="black" points="378.109,-133.48 380.916,-143.697 385.092,-133.96 378.109,-133.48"/>
<g id="a_edge11&#45;headlabel"><a xlink:href="dir_000037_000028.html" target="_top" xlink:title="4">
<text text-anchor="middle" x="375.522" y="-127.2" font-family="Helvetica,sans-Serif" font-size="10.00">4</text>
</a>
</g>
</g>
<!-- dir_bcbb2cf9a3d3d83e5515c82071a07177&#45;&gt;dir_2171f7ec022c5423887b07c69b2f5b48 -->
<g id="edge12" class="edge"><title>dir_bcbb2cf9a3d3d83e5515c82071a07177&#45;&gt;dir_2171f7ec022c5423887b07c69b2f5b48</title>
<path fill="none" stroke="black" d="M350.609,-71.8675C346.46,-69.1424 342.15,-66.4254 338,-64 324.02,-55.8287 308.364,-47.675 294.079,-40.5975"/>
<polygon fill="black" stroke="black" points="295.441,-37.3674 284.921,-36.1125 292.362,-43.6541 295.441,-37.3674"/>
<g id="a_edge12&#45;headlabel"><a xlink:href="dir_000037_000056.html" target="_top" xlink:title="21">
<text text-anchor="middle" x="299.918" y="-33.8985" font-family="Helvetica,sans-Serif" font-size="10.00">21</text>
</a>
</g>
</g>
<!-- dir_2171f7ec022c5423887b07c69b2f5b48&#45;&gt;dir_051dca18e802f8e9474f2e30d29c04e0 -->
<g id="edge15" class="edge"><title>dir_2171f7ec022c5423887b07c69b2f5b48&#45;&gt;dir_051dca18e802f8e9474f2e30d29c04e0</title>
<path fill="none" stroke="black" d="M285.126,-22.8431C332.12,-28.9521 408.456,-42.441 425,-64 441.852,-85.9604 424.429,-115.874 405.517,-136.652"/>
<polygon fill="black" stroke="black" points="402.98,-134.241 398.543,-143.862 408.011,-139.108 402.98,-134.241"/>
<g id="a_edge15&#45;headlabel"><a xlink:href="dir_000056_000028.html" target="_top" xlink:title="1">
<text text-anchor="middle" x="403.438" y="-127.184" font-family="Helvetica,sans-Serif" font-size="10.00">1</text>
</a>
</g>
</g>
</g>
</svg>
