<?xml version="1.0" encoding="UTF-8" standalone="no"?>
<!DOCTYPE svg PUBLIC "-//W3C//DTD SVG 1.1//EN"
 "http://www.w3.org/Graphics/SVG/1.1/DTD/svg11.dtd">
<!-- Generated by graphviz version 2.36.0 (20140111.2315)
 -->
<!-- Title: /home/travis/build/AliceO2Group/AliceO2/Detectors/gconfig/src Pages: 1 -->
<svg width="226pt" height="151pt"
 viewBox="0.00 0.00 226.00 151.00" xmlns="http://www.w3.org/2000/svg" xmlns:xlink="http://www.w3.org/1999/xlink">
<g id="graph0" class="graph" transform="scale(1 1) rotate(0) translate(4 147)">
<title>/home/travis/build/AliceO2Group/AliceO2/Detectors/gconfig/src</title>
<g id="clust1" class="cluster"><title>clusterdir_fda58d415f46ed5554e220ec8997f6b0</title>
<g id="a_clust1"><a xlink:href="dir_fda58d415f46ed5554e220ec8997f6b0.html" target="_top" xlink:title="gconfig">
<polygon fill="#ddddee" stroke="black" points="64,-64 64,-135 134,-135 134,-64 64,-64"/>
<text text-anchor="middle" x="99" y="-123" font-family="Helvetica,sans-Serif" font-size="10.00">gconfig</text>
</a>
</g>
</g>
<!-- dir_c0beb4acc36ff406387963d5baa86235 -->
<g id="node1" class="node"><title>dir_c0beb4acc36ff406387963d5baa86235</title>
<g id="a_node1"><a xlink:href="dir_c0beb4acc36ff406387963d5baa86235.html" target="_top" xlink:title="src">
<polygon fill="#eeeeff" stroke="black" points="126,-108 72,-108 72,-72 126,-72 126,-108"/>
<text text-anchor="middle" x="99" y="-87.5" font-family="Helvetica,sans-Serif" font-size="10.00">src</text>
</a>
</g>
</g>
<!-- dir_b37385ac8c40ffd9e301f70e181b5ea7 -->
<g id="node2" class="node"><title>dir_b37385ac8c40ffd9e301f70e181b5ea7</title>
<g id="a_node2"><a xlink:href="dir_b37385ac8c40ffd9e301f70e181b5ea7.html" target="_top" xlink:title="include">
<polygon fill="none" stroke="red" points="54,-36 0,-36 0,-0 54,-0 54,-36"/>
<text text-anchor="middle" x="27" y="-15.5" font-family="Helvetica,sans-Serif" font-size="10.00">include</text>
</a>
</g>
</g>
<!-- dir_c0beb4acc36ff406387963d5baa86235&#45;&gt;dir_b37385ac8c40ffd9e301f70e181b5ea7 -->
<g id="edge1" class="edge"><title>dir_c0beb4acc36ff406387963d5baa86235&#45;&gt;dir_b37385ac8c40ffd9e301f70e181b5ea7</title>
<path fill="none" stroke="black" d="M81.2022,-71.6966C72.396,-63.135 61.6179,-52.6562 51.9989,-43.3045"/>
<polygon fill="black" stroke="black" points="54.2028,-40.5657 44.593,-36.1043 49.3232,-45.5846 54.2028,-40.5657"/>
<g id="a_edge1&#45;headlabel"><a xlink:href="dir_000222_000220.html" target="_top" xlink:title="2">
<text text-anchor="middle" x="58.7593" y="-38.5356" font-family="Helvetica,sans-Serif" font-size="10.00">2</text>
</a>
</g>
</g>
<!-- dir_f01815b857f9009bea48e2cb39492245 -->
<g id="node3" class="node"><title>dir_f01815b857f9009bea48e2cb39492245</title>
<g id="a_node3"><a xlink:href="dir_f01815b857f9009bea48e2cb39492245.html" target="_top" xlink:title="Passive">
<polygon fill="none" stroke="red" points="126,-36 72,-36 72,-0 126,-0 126,-36"/>
<text text-anchor="middle" x="99" y="-15.5" font-family="Helvetica,sans-Serif" font-size="10.00">Passive</text>
</a>
</g>
</g>
<!-- dir_c0beb4acc36ff406387963d5baa86235&#45;&gt;dir_f01815b857f9009bea48e2cb39492245 -->
<g id="edge2" class="edge"><title>dir_c0beb4acc36ff406387963d5baa86235&#45;&gt;dir_f01815b857f9009bea48e2cb39492245</title>
<path fill="none" stroke="black" d="M99,-71.6966C99,-63.9827 99,-54.7125 99,-46.1124"/>
<polygon fill="black" stroke="black" points="102.5,-46.1043 99,-36.1043 95.5001,-46.1044 102.5,-46.1043"/>
<g id="a_edge2&#45;headlabel"><a xlink:href="dir_000222_000283.html" target="_top" xlink:title="2">
<text text-anchor="middle" x="105.339" y="-47.199" font-family="Helvetica,sans-Serif" font-size="10.00">2</text>
</a>
</g>
</g>
<!-- dir_2171f7ec022c5423887b07c69b2f5b48 -->
<g id="node4" class="node"><title>dir_2171f7ec022c5423887b07c69b2f5b48</title>
<g id="a_node4"><a xlink:href="dir_2171f7ec022c5423887b07c69b2f5b48.html" target="_top" xlink:title="DataFormats">
<polygon fill="none" stroke="red" points="218,-36 144,-36 144,-0 218,-0 218,-36"/>
<text text-anchor="middle" x="181" y="-15.5" font-family="Helvetica,sans-Serif" font-size="10.00">DataFormats</text>
</a>
</g>
</g>
<!-- dir_c0beb4acc36ff406387963d5baa86235&#45;&gt;dir_2171f7ec022c5423887b07c69b2f5b48 -->
<g id="edge3" class="edge"><title>dir_c0beb4acc36ff406387963d5baa86235&#45;&gt;dir_2171f7ec022c5423887b07c69b2f5b48</title>
<path fill="none" stroke="black" d="M119.27,-71.6966C129.498,-62.9655 142.061,-52.2405 153.178,-42.7503"/>
<polygon fill="black" stroke="black" points="155.63,-45.259 160.963,-36.1043 151.085,-39.935 155.63,-45.259"/>
<g id="a_edge3&#45;headlabel"><a xlink:href="dir_000222_000056.html" target="_top" xlink:title="2">
<text text-anchor="middle" x="154.74" y="-47.2522" font-family="Helvetica,sans-Serif" font-size="10.00">2</text>
</a>
</g>
</g>
</g>
</svg>
