<?xml version="1.0" encoding="UTF-8" standalone="no"?>
<!DOCTYPE svg PUBLIC "-//W3C//DTD SVG 1.1//EN"
 "http://www.w3.org/Graphics/SVG/1.1/DTD/svg11.dtd">
<!-- Generated by graphviz version 2.36.0 (20140111.2315)
 -->
<!-- Title: /home/travis/build/AliceO2Group/AliceO2/Detectors/MUON Pages: 1 -->
<svg width="254pt" height="303pt"
 viewBox="0.00 0.00 254.00 303.00" xmlns="http://www.w3.org/2000/svg" xmlns:xlink="http://www.w3.org/1999/xlink">
<g id="graph0" class="graph" transform="scale(1 1) rotate(0) translate(4 299)">
<title>/home/travis/build/AliceO2Group/AliceO2/Detectors/MUON</title>
<g id="clust1" class="cluster"><title>clusterdir_051dca18e802f8e9474f2e30d29c04e0</title>
<g id="a_clust1"><a xlink:href="dir_051dca18e802f8e9474f2e30d29c04e0.html" target="_top" xlink:title="Detectors">
<polygon fill="#ddddee" stroke="black" points="8,-200 8,-287 238,-287 238,-200 8,-200"/>
<text text-anchor="middle" x="123" y="-275" font-family="Helvetica,sans-Serif" font-size="10.00">Detectors</text>
</a>
</g>
</g>
<g id="clust2" class="cluster"><title>clusterdir_1cc233fd3b1202b9dad36810b41b97af</title>
<g id="a_clust2"><a xlink:href="dir_1cc233fd3b1202b9dad36810b41b97af.html" target="_top">
<polygon fill="#eeeeff" stroke="black" points="16,-208 16,-260 230,-260 230,-208 16,-208"/>
</a>
</g>
</g>
<!-- dir_1cc233fd3b1202b9dad36810b41b97af -->
<g id="node1" class="node"><title>dir_1cc233fd3b1202b9dad36810b41b97af</title>
<text text-anchor="middle" x="195" y="-231.5" font-family="Helvetica,sans-Serif" font-size="10.00">MUON</text>
</g>
<!-- dir_061f7088060f41729027f6c2fce0273e -->
<g id="node2" class="node"><title>dir_061f7088060f41729027f6c2fce0273e</title>
<g id="a_node2"><a xlink:href="dir_061f7088060f41729027f6c2fce0273e.html" target="_top" xlink:title="MCH">
<polygon fill="white" stroke="red" points="78,-252 24,-252 24,-216 78,-216 78,-252"/>
<text text-anchor="middle" x="51" y="-231.5" font-family="Helvetica,sans-Serif" font-size="10.00">MCH</text>
</a>
</g>
</g>
<!-- dir_b05a5fa85f84bfc9013183c9d87f9a36 -->
<g id="node5" class="node"><title>dir_b05a5fa85f84bfc9013183c9d87f9a36</title>
<g id="a_node5"><a xlink:href="dir_b05a5fa85f84bfc9013183c9d87f9a36.html" target="_top" xlink:title="Utilities">
<polygon fill="none" stroke="red" points="78,-180 24,-180 24,-144 78,-144 78,-180"/>
<text text-anchor="middle" x="51" y="-159.5" font-family="Helvetica,sans-Serif" font-size="10.00">Utilities</text>
</a>
</g>
</g>
<!-- dir_061f7088060f41729027f6c2fce0273e&#45;&gt;dir_b05a5fa85f84bfc9013183c9d87f9a36 -->
<g id="edge5" class="edge"><title>dir_061f7088060f41729027f6c2fce0273e&#45;&gt;dir_b05a5fa85f84bfc9013183c9d87f9a36</title>
<path fill="none" stroke="black" d="M51,-215.697C51,-207.983 51,-198.712 51,-190.112"/>
<polygon fill="black" stroke="black" points="54.5001,-190.104 51,-180.104 47.5001,-190.104 54.5001,-190.104"/>
<g id="a_edge5&#45;headlabel"><a xlink:href="dir_000128_000340.html" target="_top" xlink:title="4">
<text text-anchor="middle" x="57.3393" y="-191.199" font-family="Helvetica,sans-Serif" font-size="10.00">4</text>
</a>
</g>
</g>
<!-- dir_9e24c537087392bd208449d0b48c466c -->
<g id="node3" class="node"><title>dir_9e24c537087392bd208449d0b48c466c</title>
<g id="a_node3"><a xlink:href="dir_9e24c537087392bd208449d0b48c466c.html" target="_top" xlink:title="MID">
<polygon fill="white" stroke="red" points="150,-252 96,-252 96,-216 150,-216 150,-252"/>
<text text-anchor="middle" x="123" y="-231.5" font-family="Helvetica,sans-Serif" font-size="10.00">MID</text>
</a>
</g>
</g>
<!-- dir_4ab6b4cc6a7edbff49100e9123df213f -->
<g id="node4" class="node"><title>dir_4ab6b4cc6a7edbff49100e9123df213f</title>
<g id="a_node4"><a xlink:href="dir_4ab6b4cc6a7edbff49100e9123df213f.html" target="_top" xlink:title="Common">
<polygon fill="none" stroke="red" points="106.5,-36 51.5,-36 51.5,-0 106.5,-0 106.5,-36"/>
<text text-anchor="middle" x="79" y="-15.5" font-family="Helvetica,sans-Serif" font-size="10.00">Common</text>
</a>
</g>
</g>
<!-- dir_9e24c537087392bd208449d0b48c466c&#45;&gt;dir_4ab6b4cc6a7edbff49100e9123df213f -->
<g id="edge1" class="edge"><title>dir_9e24c537087392bd208449d0b48c466c&#45;&gt;dir_4ab6b4cc6a7edbff49100e9123df213f</title>
<path fill="none" stroke="black" d="M127.137,-215.859C133.585,-185.661 143.483,-121.494 125,-72 121.124,-61.6206 114.197,-51.9274 106.876,-43.7427"/>
<polygon fill="black" stroke="black" points="109.269,-41.1816 99.8228,-36.3845 104.216,-46.0256 109.269,-41.1816"/>
<g id="a_edge1&#45;headlabel"><a xlink:href="dir_000114_000016.html" target="_top" xlink:title="3">
<text text-anchor="middle" x="113.806" y="-39.3118" font-family="Helvetica,sans-Serif" font-size="10.00">3</text>
</a>
</g>
</g>
<!-- dir_2171f7ec022c5423887b07c69b2f5b48 -->
<g id="node6" class="node"><title>dir_2171f7ec022c5423887b07c69b2f5b48</title>
<g id="a_node6"><a xlink:href="dir_2171f7ec022c5423887b07c69b2f5b48.html" target="_top" xlink:title="DataFormats">
<polygon fill="none" stroke="red" points="116,-108 42,-108 42,-72 116,-72 116,-108"/>
<text text-anchor="middle" x="79" y="-87.5" font-family="Helvetica,sans-Serif" font-size="10.00">DataFormats</text>
</a>
</g>
</g>
<!-- dir_9e24c537087392bd208449d0b48c466c&#45;&gt;dir_2171f7ec022c5423887b07c69b2f5b48 -->
<g id="edge2" class="edge"><title>dir_9e24c537087392bd208449d0b48c466c&#45;&gt;dir_2171f7ec022c5423887b07c69b2f5b48</title>
<path fill="none" stroke="black" d="M117.693,-215.871C110.161,-191.564 96.2959,-146.819 87.3703,-118.013"/>
<polygon fill="black" stroke="black" points="90.6293,-116.705 84.3263,-108.189 83.9429,-118.777 90.6293,-116.705"/>
<g id="a_edge2&#45;headlabel"><a xlink:href="dir_000114_000056.html" target="_top" xlink:title="14">
<text text-anchor="middle" x="94.4052" y="-116.799" font-family="Helvetica,sans-Serif" font-size="10.00">14</text>
</a>
</g>
</g>
<!-- dir_4ab6b4cc6a7edbff49100e9123df213f&#45;&gt;dir_2171f7ec022c5423887b07c69b2f5b48 -->
<g id="edge3" class="edge"><title>dir_4ab6b4cc6a7edbff49100e9123df213f&#45;&gt;dir_2171f7ec022c5423887b07c69b2f5b48</title>
<path fill="none" stroke="black" d="M84.895,-36.1043C85.7005,-43.7913 85.9369,-53.0537 85.604,-61.6651"/>
<polygon fill="black" stroke="black" points="82.1085,-61.4805 84.9157,-71.6966 89.0921,-61.9597 82.1085,-61.4805"/>
<g id="a_edge3&#45;headlabel"><a xlink:href="dir_000016_000056.html" target="_top" xlink:title="1">
<text text-anchor="middle" x="79.5219" y="-55.2" font-family="Helvetica,sans-Serif" font-size="10.00">1</text>
</a>
</g>
</g>
<!-- dir_b05a5fa85f84bfc9013183c9d87f9a36&#45;&gt;dir_2171f7ec022c5423887b07c69b2f5b48 -->
<g id="edge4" class="edge"><title>dir_b05a5fa85f84bfc9013183c9d87f9a36&#45;&gt;dir_2171f7ec022c5423887b07c69b2f5b48</title>
<path fill="none" stroke="black" d="M57.9214,-143.697C61.0747,-135.813 64.8783,-126.304 68.3814,-117.546"/>
<polygon fill="black" stroke="black" points="71.694,-118.689 72.1583,-108.104 65.1946,-116.089 71.694,-118.689"/>
<g id="a_edge4&#45;headlabel"><a xlink:href="dir_000340_000056.html" target="_top" xlink:title="45">
<text text-anchor="middle" x="72.9952" y="-120.581" font-family="Helvetica,sans-Serif" font-size="10.00">45</text>
</a>
</g>
</g>
<!-- dir_2171f7ec022c5423887b07c69b2f5b48&#45;&gt;dir_4ab6b4cc6a7edbff49100e9123df213f -->
<g id="edge6" class="edge"><title>dir_2171f7ec022c5423887b07c69b2f5b48&#45;&gt;dir_4ab6b4cc6a7edbff49100e9123df213f</title>
<path fill="none" stroke="black" d="M73.0843,-71.6966C72.2886,-63.9827 72.0621,-54.7125 72.4047,-46.1124"/>
<polygon fill="black" stroke="black" points="75.8984,-46.3243 73.105,-36.1043 68.9154,-45.8356 75.8984,-46.3243"/>
<g id="a_edge6&#45;headlabel"><a xlink:href="dir_000056_000016.html" target="_top" xlink:title="18">
<text text-anchor="middle" x="78.4799" y="-47.6083" font-family="Helvetica,sans-Serif" font-size="10.00">18</text>
</a>
</g>
</g>
</g>
</svg>
