<?xml version="1.0" encoding="UTF-8" standalone="no"?>
<!DOCTYPE svg PUBLIC "-//W3C//DTD SVG 1.1//EN"
 "http://www.w3.org/Graphics/SVG/1.1/DTD/svg11.dtd">
<!-- Generated by graphviz version 2.36.0 (20140111.2315)
 -->
<!-- Title: /home/travis/build/AliceO2Group/AliceO2/Detectors/TPC/simulation/include Pages: 1 -->
<svg width="266pt" height="322pt"
 viewBox="0.00 0.00 266.00 321.53" xmlns="http://www.w3.org/2000/svg" xmlns:xlink="http://www.w3.org/1999/xlink">
<g id="graph0" class="graph" transform="scale(1 1) rotate(0) translate(4 317.531)">
<title>/home/travis/build/AliceO2Group/AliceO2/Detectors/TPC/simulation/include</title>
<g id="clust1" class="cluster"><title>clusterdir_7f309bec8670bb3fb666e7e061b24659</title>
<g id="a_clust1"><a xlink:href="dir_7f309bec8670bb3fb666e7e061b24659.html" target="_top" xlink:title="simulation">
<polygon fill="#ddddee" stroke="black" points="8,-200 8,-287 196,-287 196,-200 8,-200"/>
<text text-anchor="middle" x="102" y="-275" font-family="Helvetica,sans-Serif" font-size="10.00">simulation</text>
</a>
</g>
</g>
<g id="clust2" class="cluster"><title>clusterdir_a3959ed40b1558172144f5e1a56e443f</title>
<g id="a_clust2"><a xlink:href="dir_a3959ed40b1558172144f5e1a56e443f.html" target="_top">
<polygon fill="#eeeeff" stroke="black" points="16,-208 16,-260 188,-260 188,-208 16,-208"/>
</a>
</g>
</g>
<!-- dir_a3959ed40b1558172144f5e1a56e443f -->
<g id="node1" class="node"><title>dir_a3959ed40b1558172144f5e1a56e443f</title>
<text text-anchor="middle" x="153" y="-231.5" font-family="Helvetica,sans-Serif" font-size="10.00">include</text>
</g>
<!-- dir_899d345f9fdaa752cfd282604b003f27 -->
<g id="node2" class="node"><title>dir_899d345f9fdaa752cfd282604b003f27</title>
<g id="a_node2"><a xlink:href="dir_899d345f9fdaa752cfd282604b003f27.html" target="_top" xlink:title="TPCSimulation">
<polygon fill="white" stroke="black" points="107.25,-252 24.75,-252 24.75,-216 107.25,-216 107.25,-252"/>
<text text-anchor="middle" x="66" y="-231.5" font-family="Helvetica,sans-Serif" font-size="10.00">TPCSimulation</text>
</a>
</g>
</g>
<!-- dir_40b4a122691869ee86baf7f2711ed718 -->
<g id="node3" class="node"><title>dir_40b4a122691869ee86baf7f2711ed718</title>
<g id="a_node3"><a xlink:href="dir_40b4a122691869ee86baf7f2711ed718.html" target="_top" xlink:title="Steer">
<polygon fill="none" stroke="red" points="258,-252 204,-252 204,-216 258,-216 258,-252"/>
<text text-anchor="middle" x="231" y="-231.5" font-family="Helvetica,sans-Serif" font-size="10.00">Steer</text>
</a>
</g>
</g>
<!-- dir_899d345f9fdaa752cfd282604b003f27&#45;&gt;dir_40b4a122691869ee86baf7f2711ed718 -->
<g id="edge6" class="edge"><title>dir_899d345f9fdaa752cfd282604b003f27&#45;&gt;dir_40b4a122691869ee86baf7f2711ed718</title>
<path fill="none" stroke="black" d="M75.29,-252.202C85.2166,-269.424 102.725,-294.196 126,-305 148.978,-315.666 160.626,-316.881 183,-305 200.303,-295.812 212.505,-277.292 220.276,-261.471"/>
<polygon fill="black" stroke="black" points="223.594,-262.629 224.548,-252.077 217.222,-259.731 223.594,-262.629"/>
<g id="a_edge6&#45;headlabel"><a xlink:href="dir_000175_000372.html" target="_top" xlink:title="2">
<text text-anchor="middle" x="224.691" y="-264.576" font-family="Helvetica,sans-Serif" font-size="10.00">2</text>
</a>
</g>
</g>
<!-- dir_677b030cc750909e4cd27413873678d8 -->
<g id="node4" class="node"><title>dir_677b030cc750909e4cd27413873678d8</title>
<g id="a_node4"><a xlink:href="dir_677b030cc750909e4cd27413873678d8.html" target="_top" xlink:title="base">
<polygon fill="none" stroke="red" points="186,-180 132,-180 132,-144 186,-144 186,-180"/>
<text text-anchor="middle" x="159" y="-159.5" font-family="Helvetica,sans-Serif" font-size="10.00">base</text>
</a>
</g>
</g>
<!-- dir_899d345f9fdaa752cfd282604b003f27&#45;&gt;dir_677b030cc750909e4cd27413873678d8 -->
<g id="edge7" class="edge"><title>dir_899d345f9fdaa752cfd282604b003f27&#45;&gt;dir_677b030cc750909e4cd27413873678d8</title>
<path fill="none" stroke="black" d="M88.9888,-215.697C100.814,-206.796 115.392,-195.823 128.179,-186.199"/>
<polygon fill="black" stroke="black" points="130.391,-188.915 136.276,-180.104 126.181,-183.322 130.391,-188.915"/>
<g id="a_edge7&#45;headlabel"><a xlink:href="dir_000175_000197.html" target="_top" xlink:title="19">
<text text-anchor="middle" x="129.226" y="-190.845" font-family="Helvetica,sans-Serif" font-size="10.00">19</text>
</a>
</g>
</g>
<!-- dir_37c90836491b695b472bf98d1be8336b -->
<g id="node5" class="node"><title>dir_37c90836491b695b472bf98d1be8336b</title>
<g id="a_node5"><a xlink:href="dir_37c90836491b695b472bf98d1be8336b.html" target="_top" xlink:title="Base">
<polygon fill="none" stroke="red" points="172,-36 118,-36 118,-0 172,-0 172,-36"/>
<text text-anchor="middle" x="145" y="-15.5" font-family="Helvetica,sans-Serif" font-size="10.00">Base</text>
</a>
</g>
</g>
<!-- dir_899d345f9fdaa752cfd282604b003f27&#45;&gt;dir_37c90836491b695b472bf98d1be8336b -->
<g id="edge8" class="edge"><title>dir_899d345f9fdaa752cfd282604b003f27&#45;&gt;dir_37c90836491b695b472bf98d1be8336b</title>
<path fill="none" stroke="black" d="M66.6935,-215.625C68.5199,-185.066 75.1325,-120.357 99,-72 103.985,-61.8991 111.37,-52.1814 118.77,-43.8876"/>
<polygon fill="black" stroke="black" points="121.5,-46.0928 125.791,-36.406 116.396,-41.3023 121.5,-46.0928"/>
<g id="a_edge8&#45;headlabel"><a xlink:href="dir_000175_000144.html" target="_top" xlink:title="1">
<text text-anchor="middle" x="121.11" y="-48.1568" font-family="Helvetica,sans-Serif" font-size="10.00">1</text>
</a>
</g>
</g>
<!-- dir_2171f7ec022c5423887b07c69b2f5b48 -->
<g id="node6" class="node"><title>dir_2171f7ec022c5423887b07c69b2f5b48</title>
<g id="a_node6"><a xlink:href="dir_2171f7ec022c5423887b07c69b2f5b48.html" target="_top" xlink:title="DataFormats">
<polygon fill="none" stroke="red" points="182,-108 108,-108 108,-72 182,-72 182,-108"/>
<text text-anchor="middle" x="145" y="-87.5" font-family="Helvetica,sans-Serif" font-size="10.00">DataFormats</text>
</a>
</g>
</g>
<!-- dir_899d345f9fdaa752cfd282604b003f27&#45;&gt;dir_2171f7ec022c5423887b07c69b2f5b48 -->
<g id="edge9" class="edge"><title>dir_899d345f9fdaa752cfd282604b003f27&#45;&gt;dir_2171f7ec022c5423887b07c69b2f5b48</title>
<path fill="none" stroke="black" d="M75.5292,-215.871C89.1713,-191.35 114.384,-146.032 130.391,-117.259"/>
<polygon fill="black" stroke="black" points="133.634,-118.63 135.437,-108.189 127.517,-115.226 133.634,-118.63"/>
<g id="a_edge9&#45;headlabel"><a xlink:href="dir_000175_000056.html" target="_top" xlink:title="6">
<text text-anchor="middle" x="134.367" y="-120.651" font-family="Helvetica,sans-Serif" font-size="10.00">6</text>
</a>
</g>
</g>
<!-- dir_40b4a122691869ee86baf7f2711ed718&#45;&gt;dir_899d345f9fdaa752cfd282604b003f27 -->
<g id="edge2" class="edge"><title>dir_40b4a122691869ee86baf7f2711ed718&#45;&gt;dir_899d345f9fdaa752cfd282604b003f27</title>
<path fill="none" stroke="black" d="M224.548,-252.077C217.35,-269.203 203.894,-293.905 183,-305 160.626,-316.881 148.978,-315.666 126,-305 106.362,-295.884 90.8289,-276.824 80.4915,-260.746"/>
<polygon fill="black" stroke="black" points="83.4798,-258.924 75.29,-252.202 77.5007,-262.564 83.4798,-258.924"/>
<g id="a_edge2&#45;headlabel"><a xlink:href="dir_000372_000175.html" target="_top" xlink:title="5">
<text text-anchor="middle" x="87.7742" y="-258.018" font-family="Helvetica,sans-Serif" font-size="10.00">5</text>
</a>
</g>
</g>
<!-- dir_40b4a122691869ee86baf7f2711ed718&#45;&gt;dir_677b030cc750909e4cd27413873678d8 -->
<g id="edge1" class="edge"><title>dir_40b4a122691869ee86baf7f2711ed718&#45;&gt;dir_677b030cc750909e4cd27413873678d8</title>
<path fill="none" stroke="black" d="M213.202,-215.697C204.396,-207.135 193.618,-196.656 183.999,-187.304"/>
<polygon fill="black" stroke="black" points="186.203,-184.566 176.593,-180.104 181.323,-189.585 186.203,-184.566"/>
<g id="a_edge1&#45;headlabel"><a xlink:href="dir_000372_000197.html" target="_top" xlink:title="1">
<text text-anchor="middle" x="190.759" y="-182.536" font-family="Helvetica,sans-Serif" font-size="10.00">1</text>
</a>
</g>
</g>
<!-- dir_40b4a122691869ee86baf7f2711ed718&#45;&gt;dir_2171f7ec022c5423887b07c69b2f5b48 -->
<g id="edge3" class="edge"><title>dir_40b4a122691869ee86baf7f2711ed718&#45;&gt;dir_2171f7ec022c5423887b07c69b2f5b48</title>
<path fill="none" stroke="black" d="M226.112,-215.693C220.382,-197.063 209.758,-167.008 195,-144 188.45,-133.788 179.79,-123.789 171.52,-115.277"/>
<polygon fill="black" stroke="black" points="173.975,-112.782 164.417,-108.211 169.038,-117.745 173.975,-112.782"/>
<g id="a_edge3&#45;headlabel"><a xlink:href="dir_000372_000056.html" target="_top" xlink:title="7">
<text text-anchor="middle" x="178.526" y="-110.803" font-family="Helvetica,sans-Serif" font-size="10.00">7</text>
</a>
</g>
</g>
<!-- dir_677b030cc750909e4cd27413873678d8&#45;&gt;dir_2171f7ec022c5423887b07c69b2f5b48 -->
<g id="edge4" class="edge"><title>dir_677b030cc750909e4cd27413873678d8&#45;&gt;dir_2171f7ec022c5423887b07c69b2f5b48</title>
<path fill="none" stroke="black" d="M155.539,-143.697C153.997,-135.983 152.142,-126.712 150.422,-118.112"/>
<polygon fill="black" stroke="black" points="153.814,-117.224 148.421,-108.104 146.95,-118.597 153.814,-117.224"/>
<g id="a_edge4&#45;headlabel"><a xlink:href="dir_000197_000056.html" target="_top" xlink:title="13">
<text text-anchor="middle" x="157.303" y="-117.692" font-family="Helvetica,sans-Serif" font-size="10.00">13</text>
</a>
</g>
</g>
<!-- dir_37c90836491b695b472bf98d1be8336b&#45;&gt;dir_2171f7ec022c5423887b07c69b2f5b48 -->
<g id="edge5" class="edge"><title>dir_37c90836491b695b472bf98d1be8336b&#45;&gt;dir_2171f7ec022c5423887b07c69b2f5b48</title>
<path fill="none" stroke="black" d="M150.895,-36.1043C151.701,-43.7913 151.937,-53.0537 151.604,-61.6651"/>
<polygon fill="black" stroke="black" points="148.109,-61.4805 150.916,-71.6966 155.092,-61.9597 148.109,-61.4805"/>
<g id="a_edge5&#45;headlabel"><a xlink:href="dir_000144_000056.html" target="_top" xlink:title="5">
<text text-anchor="middle" x="145.522" y="-55.2" font-family="Helvetica,sans-Serif" font-size="10.00">5</text>
</a>
</g>
</g>
<!-- dir_2171f7ec022c5423887b07c69b2f5b48&#45;&gt;dir_37c90836491b695b472bf98d1be8336b -->
<g id="edge10" class="edge"><title>dir_2171f7ec022c5423887b07c69b2f5b48&#45;&gt;dir_37c90836491b695b472bf98d1be8336b</title>
<path fill="none" stroke="black" d="M139.084,-71.6966C138.289,-63.9827 138.062,-54.7125 138.405,-46.1124"/>
<polygon fill="black" stroke="black" points="141.898,-46.3243 139.105,-36.1043 134.915,-45.8356 141.898,-46.3243"/>
<g id="a_edge10&#45;headlabel"><a xlink:href="dir_000056_000144.html" target="_top" xlink:title="1">
<text text-anchor="middle" x="144.48" y="-47.6083" font-family="Helvetica,sans-Serif" font-size="10.00">1</text>
</a>
</g>
</g>
</g>
</svg>
