<?xml version="1.0" encoding="UTF-8" standalone="no"?>
<!DOCTYPE svg PUBLIC "-//W3C//DTD SVG 1.1//EN"
 "http://www.w3.org/Graphics/SVG/1.1/DTD/svg11.dtd">
<!-- Generated by graphviz version 2.36.0 (20140111.2315)
 -->
<!-- Title: /home/travis/build/AliceO2Group/AliceO2/Framework/Utils Pages: 1 -->
<svg width="254pt" height="303pt"
 viewBox="0.00 0.00 254.00 303.00" xmlns="http://www.w3.org/2000/svg" xmlns:xlink="http://www.w3.org/1999/xlink">
<g id="graph0" class="graph" transform="scale(1 1) rotate(0) translate(4 299)">
<title>/home/travis/build/AliceO2Group/AliceO2/Framework/Utils</title>
<g id="clust1" class="cluster"><title>clusterdir_bcbb2cf9a3d3d83e5515c82071a07177</title>
<g id="a_clust1"><a xlink:href="dir_bcbb2cf9a3d3d83e5515c82071a07177.html" target="_top" xlink:title="Framework">
<polygon fill="#ddddee" stroke="black" points="8,-128 8,-287 238,-287 238,-128 8,-128"/>
<text text-anchor="middle" x="123" y="-275" font-family="Helvetica,sans-Serif" font-size="10.00">Framework</text>
</a>
</g>
</g>
<g id="clust2" class="cluster"><title>clusterdir_86f64936653d09622c529b3cc7c8edcd</title>
<g id="a_clust2"><a xlink:href="dir_86f64936653d09622c529b3cc7c8edcd.html" target="_top">
<polygon fill="#eeeeff" stroke="black" points="16,-136 16,-260 230,-260 230,-136 16,-136"/>
</a>
</g>
</g>
<!-- dir_86f64936653d09622c529b3cc7c8edcd -->
<g id="node1" class="node"><title>dir_86f64936653d09622c529b3cc7c8edcd</title>
<text text-anchor="middle" x="195" y="-231.5" font-family="Helvetica,sans-Serif" font-size="10.00">Utils</text>
</g>
<!-- dir_de9651cf711cd4bea71a7a8d6bfef94c -->
<g id="node2" class="node"><title>dir_de9651cf711cd4bea71a7a8d6bfef94c</title>
<g id="a_node2"><a xlink:href="dir_de9651cf711cd4bea71a7a8d6bfef94c.html" target="_top" xlink:title="include">
<polygon fill="white" stroke="red" points="78,-180 24,-180 24,-144 78,-144 78,-180"/>
<text text-anchor="middle" x="51" y="-159.5" font-family="Helvetica,sans-Serif" font-size="10.00">include</text>
</a>
</g>
</g>
<!-- dir_9f165b2481dacfe69aa54d326bd5cd47 -->
<g id="node5" class="node"><title>dir_9f165b2481dacfe69aa54d326bd5cd47</title>
<g id="a_node5"><a xlink:href="dir_9f165b2481dacfe69aa54d326bd5cd47.html" target="_top" xlink:title="Core">
<polygon fill="none" stroke="red" points="143,-108 89,-108 89,-72 143,-72 143,-108"/>
<text text-anchor="middle" x="116" y="-87.5" font-family="Helvetica,sans-Serif" font-size="10.00">Core</text>
</a>
</g>
</g>
<!-- dir_de9651cf711cd4bea71a7a8d6bfef94c&#45;&gt;dir_9f165b2481dacfe69aa54d326bd5cd47 -->
<g id="edge7" class="edge"><title>dir_de9651cf711cd4bea71a7a8d6bfef94c&#45;&gt;dir_9f165b2481dacfe69aa54d326bd5cd47</title>
<path fill="none" stroke="black" d="M67.0674,-143.697C74.9388,-135.22 84.5553,-124.864 93.1733,-115.583"/>
<polygon fill="black" stroke="black" points="95.8776,-117.814 100.117,-108.104 90.7481,-113.051 95.8776,-117.814"/>
<g id="a_edge7&#45;headlabel"><a xlink:href="dir_000039_000353.html" target="_top" xlink:title="1">
<text text-anchor="middle" x="95.5123" y="-119.88" font-family="Helvetica,sans-Serif" font-size="10.00">1</text>
</a>
</g>
</g>
<!-- dir_9d9deac5aa928bccabe3328cf9e31ff3 -->
<g id="node3" class="node"><title>dir_9d9deac5aa928bccabe3328cf9e31ff3</title>
<g id="a_node3"><a xlink:href="dir_9d9deac5aa928bccabe3328cf9e31ff3.html" target="_top" xlink:title="src">
<polygon fill="white" stroke="black" points="150,-252 96,-252 96,-216 150,-216 150,-252"/>
<text text-anchor="middle" x="123" y="-231.5" font-family="Helvetica,sans-Serif" font-size="10.00">src</text>
</a>
</g>
</g>
<!-- dir_9d9deac5aa928bccabe3328cf9e31ff3&#45;&gt;dir_de9651cf711cd4bea71a7a8d6bfef94c -->
<g id="edge2" class="edge"><title>dir_9d9deac5aa928bccabe3328cf9e31ff3&#45;&gt;dir_de9651cf711cd4bea71a7a8d6bfef94c</title>
<path fill="none" stroke="black" d="M105.202,-215.697C96.396,-207.135 85.6179,-196.656 75.9989,-187.304"/>
<polygon fill="black" stroke="black" points="78.2028,-184.566 68.593,-180.104 73.3232,-189.585 78.2028,-184.566"/>
<g id="a_edge2&#45;headlabel"><a xlink:href="dir_000365_000039.html" target="_top" xlink:title="5">
<text text-anchor="middle" x="82.7593" y="-182.536" font-family="Helvetica,sans-Serif" font-size="10.00">5</text>
</a>
</g>
</g>
<!-- dir_9d9deac5aa928bccabe3328cf9e31ff3&#45;&gt;dir_9f165b2481dacfe69aa54d326bd5cd47 -->
<g id="edge1" class="edge"><title>dir_9d9deac5aa928bccabe3328cf9e31ff3&#45;&gt;dir_9f165b2481dacfe69aa54d326bd5cd47</title>
<path fill="none" stroke="black" d="M122.926,-215.884C122.741,-195.084 122.11,-158.93 120,-128 119.787,-124.878 119.511,-121.612 119.204,-118.37"/>
<polygon fill="black" stroke="black" points="122.672,-117.877 118.156,-108.292 115.71,-118.601 122.672,-117.877"/>
<g id="a_edge1&#45;headlabel"><a xlink:href="dir_000365_000353.html" target="_top" xlink:title="5">
<text text-anchor="middle" x="125.868" y="-118.658" font-family="Helvetica,sans-Serif" font-size="10.00">5</text>
</a>
</g>
</g>
<!-- dir_2171f7ec022c5423887b07c69b2f5b48 -->
<g id="node6" class="node"><title>dir_2171f7ec022c5423887b07c69b2f5b48</title>
<g id="a_node6"><a xlink:href="dir_2171f7ec022c5423887b07c69b2f5b48.html" target="_top" xlink:title="DataFormats">
<polygon fill="none" stroke="red" points="191,-36 117,-36 117,-0 191,-0 191,-36"/>
<text text-anchor="middle" x="154" y="-15.5" font-family="Helvetica,sans-Serif" font-size="10.00">DataFormats</text>
</a>
</g>
</g>
<!-- dir_9d9deac5aa928bccabe3328cf9e31ff3&#45;&gt;dir_2171f7ec022c5423887b07c69b2f5b48 -->
<g id="edge3" class="edge"><title>dir_9d9deac5aa928bccabe3328cf9e31ff3&#45;&gt;dir_2171f7ec022c5423887b07c69b2f5b48</title>
<path fill="none" stroke="black" d="M127.311,-215.837C129.888,-205.473 133.197,-191.993 136,-180 143.461,-148.08 148.057,-140.543 152,-108 154.494,-87.4163 154.923,-63.9645 154.767,-46.3036"/>
<polygon fill="black" stroke="black" points="158.264,-46.0766 154.607,-36.1329 151.265,-46.1866 158.264,-46.0766"/>
<g id="a_edge3&#45;headlabel"><a xlink:href="dir_000365_000056.html" target="_top" xlink:title="1">
<text text-anchor="middle" x="161.159" y="-47.1262" font-family="Helvetica,sans-Serif" font-size="10.00">1</text>
</a>
</g>
</g>
<!-- dir_134f24c2e8183f3bd0d900e20fafb8e9 -->
<g id="node4" class="node"><title>dir_134f24c2e8183f3bd0d900e20fafb8e9</title>
<g id="a_node4"><a xlink:href="dir_134f24c2e8183f3bd0d900e20fafb8e9.html" target="_top" xlink:title="test">
<polygon fill="white" stroke="black" points="78,-252 24,-252 24,-216 78,-216 78,-252"/>
<text text-anchor="middle" x="51" y="-231.5" font-family="Helvetica,sans-Serif" font-size="10.00">test</text>
</a>
</g>
</g>
<!-- dir_134f24c2e8183f3bd0d900e20fafb8e9&#45;&gt;dir_de9651cf711cd4bea71a7a8d6bfef94c -->
<g id="edge5" class="edge"><title>dir_134f24c2e8183f3bd0d900e20fafb8e9&#45;&gt;dir_de9651cf711cd4bea71a7a8d6bfef94c</title>
<path fill="none" stroke="black" d="M51,-215.697C51,-207.983 51,-198.712 51,-190.112"/>
<polygon fill="black" stroke="black" points="54.5001,-190.104 51,-180.104 47.5001,-190.104 54.5001,-190.104"/>
<g id="a_edge5&#45;headlabel"><a xlink:href="dir_000366_000039.html" target="_top" xlink:title="2">
<text text-anchor="middle" x="57.3393" y="-191.199" font-family="Helvetica,sans-Serif" font-size="10.00">2</text>
</a>
</g>
</g>
<!-- dir_134f24c2e8183f3bd0d900e20fafb8e9&#45;&gt;dir_9f165b2481dacfe69aa54d326bd5cd47 -->
<g id="edge4" class="edge"><title>dir_134f24c2e8183f3bd0d900e20fafb8e9&#45;&gt;dir_9f165b2481dacfe69aa54d326bd5cd47</title>
<path fill="none" stroke="black" d="M64.6489,-215.614C72.013,-205.62 80.8304,-192.584 87,-180 96.7476,-160.118 104.334,-136.187 109.299,-118.15"/>
<polygon fill="black" stroke="black" points="112.734,-118.849 111.916,-108.286 105.969,-117.054 112.734,-118.849"/>
<g id="a_edge4&#45;headlabel"><a xlink:href="dir_000366_000353.html" target="_top" xlink:title="18">
<text text-anchor="middle" x="114.557" y="-120.552" font-family="Helvetica,sans-Serif" font-size="10.00">18</text>
</a>
</g>
</g>
<!-- dir_9f165b2481dacfe69aa54d326bd5cd47&#45;&gt;dir_2171f7ec022c5423887b07c69b2f5b48 -->
<g id="edge6" class="edge"><title>dir_9f165b2481dacfe69aa54d326bd5cd47&#45;&gt;dir_2171f7ec022c5423887b07c69b2f5b48</title>
<path fill="none" stroke="black" d="M125.393,-71.6966C129.765,-63.6436 135.057,-53.8945 139.895,-44.9824"/>
<polygon fill="black" stroke="black" points="143.02,-46.5627 144.715,-36.1043 136.868,-43.223 143.02,-46.5627"/>
<g id="a_edge6&#45;headlabel"><a xlink:href="dir_000353_000056.html" target="_top" xlink:title="18">
<text text-anchor="middle" x="143.8" y="-48.5764" font-family="Helvetica,sans-Serif" font-size="10.00">18</text>
</a>
</g>
</g>
</g>
</svg>
