<?xml version="1.0" encoding="UTF-8" standalone="no"?>
<!DOCTYPE svg PUBLIC "-//W3C//DTD SVG 1.1//EN"
 "http://www.w3.org/Graphics/SVG/1.1/DTD/svg11.dtd">
<!-- Generated by graphviz version 2.36.0 (20140111.2315)
 -->
<!-- Title: /home/travis/build/AliceO2Group/AliceO2/Detectors/TPC/simulation Pages: 1 -->
<svg width="406pt" height="447pt"
 viewBox="0.00 0.00 405.99 447.00" xmlns="http://www.w3.org/2000/svg" xmlns:xlink="http://www.w3.org/1999/xlink">
<g id="graph0" class="graph" transform="scale(1 1) rotate(0) translate(4 443)">
<title>/home/travis/build/AliceO2Group/AliceO2/Detectors/TPC/simulation</title>
<g id="clust1" class="cluster"><title>clusterdir_a597e8e061b11201a1dff411feb10d0b</title>
<g id="a_clust1"><a xlink:href="dir_a597e8e061b11201a1dff411feb10d0b.html" target="_top" xlink:title="TPC">
<polygon fill="#ddddee" stroke="black" points="79.9942,-272 79.9942,-431 389.994,-431 389.994,-272 79.9942,-272"/>
<text text-anchor="middle" x="234.994" y="-419" font-family="Helvetica,sans-Serif" font-size="10.00">TPC</text>
</a>
</g>
</g>
<g id="clust2" class="cluster"><title>clusterdir_7f309bec8670bb3fb666e7e061b24659</title>
<g id="a_clust2"><a xlink:href="dir_7f309bec8670bb3fb666e7e061b24659.html" target="_top">
<polygon fill="#eeeeff" stroke="black" points="87.9942,-280 87.9942,-404 381.994,-404 381.994,-280 87.9942,-280"/>
</a>
</g>
</g>
<!-- dir_7f309bec8670bb3fb666e7e061b24659 -->
<g id="node1" class="node"><title>dir_7f309bec8670bb3fb666e7e061b24659</title>
<text text-anchor="middle" x="342.994" y="-375.5" font-family="Helvetica,sans-Serif" font-size="10.00">simulation</text>
</g>
<!-- dir_a3959ed40b1558172144f5e1a56e443f -->
<g id="node2" class="node"><title>dir_a3959ed40b1558172144f5e1a56e443f</title>
<g id="a_node2"><a xlink:href="dir_a3959ed40b1558172144f5e1a56e443f.html" target="_top" xlink:title="include">
<polygon fill="white" stroke="red" points="219.994,-324 165.994,-324 165.994,-288 219.994,-288 219.994,-324"/>
<text text-anchor="middle" x="192.994" y="-303.5" font-family="Helvetica,sans-Serif" font-size="10.00">include</text>
</a>
</g>
</g>
<!-- dir_40b4a122691869ee86baf7f2711ed718 -->
<g id="node6" class="node"><title>dir_40b4a122691869ee86baf7f2711ed718</title>
<g id="a_node6"><a xlink:href="dir_40b4a122691869ee86baf7f2711ed718.html" target="_top" xlink:title="Steer">
<polygon fill="none" stroke="red" points="71.9942,-324 17.9942,-324 17.9942,-288 71.9942,-288 71.9942,-324"/>
<text text-anchor="middle" x="44.9942" y="-303.5" font-family="Helvetica,sans-Serif" font-size="10.00">Steer</text>
</a>
</g>
</g>
<!-- dir_a3959ed40b1558172144f5e1a56e443f&#45;&gt;dir_40b4a122691869ee86baf7f2711ed718 -->
<g id="edge12" class="edge"><title>dir_a3959ed40b1558172144f5e1a56e443f&#45;&gt;dir_40b4a122691869ee86baf7f2711ed718</title>
<path fill="none" stroke="black" d="M165.619,-306C137.875,-306 110.131,-306 82.3875,-306"/>
<polygon fill="black" stroke="black" points="82.1661,-302.5 72.166,-306 82.166,-309.5 82.1661,-302.5"/>
<g id="a_edge12&#45;headlabel"><a xlink:href="dir_000174_000372.html" target="_top" xlink:title="2">
<text text-anchor="middle" x="85.7607" y="-297.161" font-family="Helvetica,sans-Serif" font-size="10.00">2</text>
</a>
</g>
</g>
<!-- dir_677b030cc750909e4cd27413873678d8 -->
<g id="node7" class="node"><title>dir_677b030cc750909e4cd27413873678d8</title>
<g id="a_node7"><a xlink:href="dir_677b030cc750909e4cd27413873678d8.html" target="_top" xlink:title="base">
<polygon fill="none" stroke="red" points="126.994,-252 72.9942,-252 72.9942,-216 126.994,-216 126.994,-252"/>
<text text-anchor="middle" x="99.9942" y="-231.5" font-family="Helvetica,sans-Serif" font-size="10.00">base</text>
</a>
</g>
</g>
<!-- dir_a3959ed40b1558172144f5e1a56e443f&#45;&gt;dir_677b030cc750909e4cd27413873678d8 -->
<g id="edge13" class="edge"><title>dir_a3959ed40b1558172144f5e1a56e443f&#45;&gt;dir_677b030cc750909e4cd27413873678d8</title>
<path fill="none" stroke="black" d="M172.325,-287.97C165.876,-282.764 158.696,-277.074 151.994,-272 145.921,-267.402 139.36,-262.605 133.01,-258.047"/>
<polygon fill="black" stroke="black" points="134.725,-254.972 124.549,-252.023 130.665,-260.674 134.725,-254.972"/>
<g id="a_edge13&#45;headlabel"><a xlink:href="dir_000174_000197.html" target="_top" xlink:title="19">
<text text-anchor="middle" x="139.3" y="-252.244" font-family="Helvetica,sans-Serif" font-size="10.00">19</text>
</a>
</g>
</g>
<!-- dir_37c90836491b695b472bf98d1be8336b -->
<g id="node9" class="node"><title>dir_37c90836491b695b472bf98d1be8336b</title>
<g id="a_node9"><a xlink:href="dir_37c90836491b695b472bf98d1be8336b.html" target="_top" xlink:title="Base">
<polygon fill="none" stroke="red" points="204.994,-108 150.994,-108 150.994,-72 204.994,-72 204.994,-108"/>
<text text-anchor="middle" x="177.994" y="-87.5" font-family="Helvetica,sans-Serif" font-size="10.00">Base</text>
</a>
</g>
</g>
<!-- dir_a3959ed40b1558172144f5e1a56e443f&#45;&gt;dir_37c90836491b695b472bf98d1be8336b -->
<g id="edge14" class="edge"><title>dir_a3959ed40b1558172144f5e1a56e443f&#45;&gt;dir_37c90836491b695b472bf98d1be8336b</title>
<path fill="none" stroke="black" d="M191.792,-287.849C189.197,-250.832 183.054,-163.181 179.914,-118.386"/>
<polygon fill="black" stroke="black" points="183.393,-117.963 179.202,-108.232 176.41,-118.453 183.393,-117.963"/>
<g id="a_edge14&#45;headlabel"><a xlink:href="dir_000174_000144.html" target="_top" xlink:title="1">
<text text-anchor="middle" x="186.476" y="-118.851" font-family="Helvetica,sans-Serif" font-size="10.00">1</text>
</a>
</g>
</g>
<!-- dir_2171f7ec022c5423887b07c69b2f5b48 -->
<g id="node10" class="node"><title>dir_2171f7ec022c5423887b07c69b2f5b48</title>
<g id="a_node10"><a xlink:href="dir_2171f7ec022c5423887b07c69b2f5b48.html" target="_top" xlink:title="DataFormats">
<polygon fill="none" stroke="red" points="150.994,-180 76.9942,-180 76.9942,-144 150.994,-144 150.994,-180"/>
<text text-anchor="middle" x="113.994" y="-159.5" font-family="Helvetica,sans-Serif" font-size="10.00">DataFormats</text>
</a>
</g>
</g>
<!-- dir_a3959ed40b1558172144f5e1a56e443f&#45;&gt;dir_2171f7ec022c5423887b07c69b2f5b48 -->
<g id="edge15" class="edge"><title>dir_a3959ed40b1558172144f5e1a56e443f&#45;&gt;dir_2171f7ec022c5423887b07c69b2f5b48</title>
<path fill="none" stroke="black" d="M183.465,-287.871C169.823,-263.35 144.611,-218.032 128.603,-189.259"/>
<polygon fill="black" stroke="black" points="131.477,-187.226 123.557,-180.189 125.36,-190.63 131.477,-187.226"/>
<g id="a_edge15&#45;headlabel"><a xlink:href="dir_000174_000056.html" target="_top" xlink:title="6">
<text text-anchor="middle" x="135.706" y="-186.487" font-family="Helvetica,sans-Serif" font-size="10.00">6</text>
</a>
</g>
</g>
<!-- dir_8bfcd60464e4f3a200807f6c373e63aa -->
<g id="node3" class="node"><title>dir_8bfcd60464e4f3a200807f6c373e63aa</title>
<g id="a_node3"><a xlink:href="dir_8bfcd60464e4f3a200807f6c373e63aa.html" target="_top" xlink:title="macro">
<polygon fill="white" stroke="black" points="293.994,-396 239.994,-396 239.994,-360 293.994,-360 293.994,-396"/>
<text text-anchor="middle" x="266.994" y="-375.5" font-family="Helvetica,sans-Serif" font-size="10.00">macro</text>
</a>
</g>
</g>
<!-- dir_72815adbd439f00f784a5a4eca496fde -->
<g id="node4" class="node"><title>dir_72815adbd439f00f784a5a4eca496fde</title>
<g id="a_node4"><a xlink:href="dir_72815adbd439f00f784a5a4eca496fde.html" target="_top" xlink:title="src">
<polygon fill="white" stroke="black" points="149.994,-396 95.9942,-396 95.9942,-360 149.994,-360 149.994,-396"/>
<text text-anchor="middle" x="122.994" y="-375.5" font-family="Helvetica,sans-Serif" font-size="10.00">src</text>
</a>
</g>
</g>
<!-- dir_72815adbd439f00f784a5a4eca496fde&#45;&gt;dir_a3959ed40b1558172144f5e1a56e443f -->
<g id="edge6" class="edge"><title>dir_72815adbd439f00f784a5a4eca496fde&#45;&gt;dir_a3959ed40b1558172144f5e1a56e443f</title>
<path fill="none" stroke="black" d="M140.298,-359.697C148.859,-351.135 159.338,-340.656 168.69,-331.304"/>
<polygon fill="black" stroke="black" points="171.294,-333.65 175.89,-324.104 166.344,-328.701 171.294,-333.65"/>
<g id="a_edge6&#45;headlabel"><a xlink:href="dir_000188_000174.html" target="_top" xlink:title="25">
<text text-anchor="middle" x="170.76" y="-335.7" font-family="Helvetica,sans-Serif" font-size="10.00">25</text>
</a>
</g>
</g>
<!-- dir_72815adbd439f00f784a5a4eca496fde&#45;&gt;dir_677b030cc750909e4cd27413873678d8 -->
<g id="edge4" class="edge"><title>dir_72815adbd439f00f784a5a4eca496fde&#45;&gt;dir_677b030cc750909e4cd27413873678d8</title>
<path fill="none" stroke="black" d="M120.22,-359.871C116.3,-335.67 109.099,-291.211 104.431,-262.393"/>
<polygon fill="black" stroke="black" points="107.832,-261.501 102.778,-252.189 100.922,-262.62 107.832,-261.501"/>
<g id="a_edge4&#45;headlabel"><a xlink:href="dir_000188_000197.html" target="_top" xlink:title="14">
<text text-anchor="middle" x="111.21" y="-262.095" font-family="Helvetica,sans-Serif" font-size="10.00">14</text>
</a>
</g>
</g>
<!-- dir_4ab6b4cc6a7edbff49100e9123df213f -->
<g id="node8" class="node"><title>dir_4ab6b4cc6a7edbff49100e9123df213f</title>
<g id="a_node8"><a xlink:href="dir_4ab6b4cc6a7edbff49100e9123df213f.html" target="_top" xlink:title="Common">
<polygon fill="none" stroke="red" points="173.494,-36 118.494,-36 118.494,-0 173.494,-0 173.494,-36"/>
<text text-anchor="middle" x="145.994" y="-15.5" font-family="Helvetica,sans-Serif" font-size="10.00">Common</text>
</a>
</g>
</g>
<!-- dir_72815adbd439f00f784a5a4eca496fde&#45;&gt;dir_4ab6b4cc6a7edbff49100e9123df213f -->
<g id="edge5" class="edge"><title>dir_72815adbd439f00f784a5a4eca496fde&#45;&gt;dir_4ab6b4cc6a7edbff49100e9123df213f</title>
<path fill="none" stroke="black" d="M150.208,-364.117C180.722,-349.564 226.326,-327.447 228.994,-324 253.752,-292.016 247.994,-275.447 247.994,-235 247.994,-235 247.994,-235 247.994,-161 247.994,-118.656 239.174,-106.044 213.994,-72 205.328,-60.2829 193.417,-49.8118 181.983,-41.3339"/>
<polygon fill="black" stroke="black" points="183.976,-38.4565 173.796,-35.5237 179.925,-44.1652 183.976,-38.4565"/>
<g id="a_edge5&#45;headlabel"><a xlink:href="dir_000188_000016.html" target="_top" xlink:title="1">
<text text-anchor="middle" x="188.551" y="-35.7212" font-family="Helvetica,sans-Serif" font-size="10.00">1</text>
</a>
</g>
</g>
<!-- dir_72815adbd439f00f784a5a4eca496fde&#45;&gt;dir_2171f7ec022c5423887b07c69b2f5b48 -->
<g id="edge7" class="edge"><title>dir_72815adbd439f00f784a5a4eca496fde&#45;&gt;dir_2171f7ec022c5423887b07c69b2f5b48</title>
<path fill="none" stroke="black" d="M95.8622,-372.868C68.6098,-367.116 28.0092,-353.81 8.99417,-324 -22.4859,-274.649 38.4748,-217.337 79.9732,-186.146"/>
<polygon fill="black" stroke="black" points="82.2448,-188.82 88.2364,-180.082 78.1035,-183.177 82.2448,-188.82"/>
<g id="a_edge7&#45;headlabel"><a xlink:href="dir_000188_000056.html" target="_top" xlink:title="2">
<text text-anchor="middle" x="81.0265" y="-190.736" font-family="Helvetica,sans-Serif" font-size="10.00">2</text>
</a>
</g>
</g>
<!-- dir_ac3b77a1b17a4594b18b160ef67742fa -->
<g id="node5" class="node"><title>dir_ac3b77a1b17a4594b18b160ef67742fa</title>
<g id="a_node5"><a xlink:href="dir_ac3b77a1b17a4594b18b160ef67742fa.html" target="_top" xlink:title="test">
<polygon fill="white" stroke="black" points="221.994,-396 167.994,-396 167.994,-360 221.994,-360 221.994,-396"/>
<text text-anchor="middle" x="194.994" y="-375.5" font-family="Helvetica,sans-Serif" font-size="10.00">test</text>
</a>
</g>
</g>
<!-- dir_ac3b77a1b17a4594b18b160ef67742fa&#45;&gt;dir_a3959ed40b1558172144f5e1a56e443f -->
<g id="edge17" class="edge"><title>dir_ac3b77a1b17a4594b18b160ef67742fa&#45;&gt;dir_a3959ed40b1558172144f5e1a56e443f</title>
<path fill="none" stroke="black" d="M194.5,-359.697C194.279,-351.983 194.015,-342.712 193.769,-334.112"/>
<polygon fill="black" stroke="black" points="197.267,-334 193.483,-324.104 190.27,-334.2 197.267,-334"/>
<g id="a_edge17&#45;headlabel"><a xlink:href="dir_000307_000174.html" target="_top" xlink:title="8">
<text text-anchor="middle" x="200.208" y="-335.012" font-family="Helvetica,sans-Serif" font-size="10.00">8</text>
</a>
</g>
</g>
<!-- dir_ac3b77a1b17a4594b18b160ef67742fa&#45;&gt;dir_677b030cc750909e4cd27413873678d8 -->
<g id="edge16" class="edge"><title>dir_ac3b77a1b17a4594b18b160ef67742fa&#45;&gt;dir_677b030cc750909e4cd27413873678d8</title>
<path fill="none" stroke="black" d="M182.424,-359.987C174.899,-349.676 165.229,-336.199 156.994,-324 141.68,-301.313 138.776,-295.038 123.994,-272 121.668,-268.375 119.206,-264.557 116.779,-260.805"/>
<polygon fill="black" stroke="black" points="119.639,-258.782 111.263,-252.295 113.765,-262.59 119.639,-258.782"/>
<g id="a_edge16&#45;headlabel"><a xlink:href="dir_000307_000197.html" target="_top" xlink:title="5">
<text text-anchor="middle" x="123.977" y="-257.754" font-family="Helvetica,sans-Serif" font-size="10.00">5</text>
</a>
</g>
</g>
<!-- dir_40b4a122691869ee86baf7f2711ed718&#45;&gt;dir_a3959ed40b1558172144f5e1a56e443f -->
<g id="edge2" class="edge"><title>dir_40b4a122691869ee86baf7f2711ed718&#45;&gt;dir_a3959ed40b1558172144f5e1a56e443f</title>
<path fill="none" stroke="black" d="M72.166,-306C99.9099,-306 127.654,-306 155.398,-306"/>
<polygon fill="black" stroke="black" points="155.619,-309.5 165.619,-306 155.619,-302.5 155.619,-309.5"/>
<g id="a_edge2&#45;headlabel"><a xlink:href="dir_000372_000174.html" target="_top" xlink:title="5">
<text text-anchor="middle" x="152.024" y="-309.839" font-family="Helvetica,sans-Serif" font-size="10.00">5</text>
</a>
</g>
</g>
<!-- dir_40b4a122691869ee86baf7f2711ed718&#45;&gt;dir_677b030cc750909e4cd27413873678d8 -->
<g id="edge1" class="edge"><title>dir_40b4a122691869ee86baf7f2711ed718&#45;&gt;dir_677b030cc750909e4cd27413873678d8</title>
<path fill="none" stroke="black" d="M58.5897,-287.697C65.1168,-279.389 73.0622,-269.277 80.2408,-260.141"/>
<polygon fill="black" stroke="black" points="83.1289,-262.13 86.5551,-252.104 77.6247,-257.805 83.1289,-262.13"/>
<g id="a_edge1&#45;headlabel"><a xlink:href="dir_000372_000197.html" target="_top" xlink:title="1">
<text text-anchor="middle" x="83.1407" y="-264.211" font-family="Helvetica,sans-Serif" font-size="10.00">1</text>
</a>
</g>
</g>
<!-- dir_40b4a122691869ee86baf7f2711ed718&#45;&gt;dir_2171f7ec022c5423887b07c69b2f5b48 -->
<g id="edge3" class="edge"><title>dir_40b4a122691869ee86baf7f2711ed718&#45;&gt;dir_2171f7ec022c5423887b07c69b2f5b48</title>
<path fill="none" stroke="black" d="M45.9267,-287.668C47.542,-269.016 51.953,-238.944 63.9942,-216 69.485,-205.538 77.6254,-195.654 85.7509,-187.32"/>
<polygon fill="black" stroke="black" points="88.4114,-189.615 93.1325,-180.13 83.527,-184.6 88.4114,-189.615"/>
<g id="a_edge3&#45;headlabel"><a xlink:href="dir_000372_000056.html" target="_top" xlink:title="7">
<text text-anchor="middle" x="87.8177" y="-191.657" font-family="Helvetica,sans-Serif" font-size="10.00">7</text>
</a>
</g>
</g>
<!-- dir_677b030cc750909e4cd27413873678d8&#45;&gt;dir_2171f7ec022c5423887b07c69b2f5b48 -->
<g id="edge8" class="edge"><title>dir_677b030cc750909e4cd27413873678d8&#45;&gt;dir_2171f7ec022c5423887b07c69b2f5b48</title>
<path fill="none" stroke="black" d="M103.455,-215.697C104.998,-207.983 106.852,-198.712 108.572,-190.112"/>
<polygon fill="black" stroke="black" points="112.044,-190.597 110.573,-180.104 105.18,-189.224 112.044,-190.597"/>
<g id="a_edge8&#45;headlabel"><a xlink:href="dir_000197_000056.html" target="_top" xlink:title="13">
<text text-anchor="middle" x="114.123" y="-192.178" font-family="Helvetica,sans-Serif" font-size="10.00">13</text>
</a>
</g>
</g>
<!-- dir_4ab6b4cc6a7edbff49100e9123df213f&#45;&gt;dir_2171f7ec022c5423887b07c69b2f5b48 -->
<g id="edge9" class="edge"><title>dir_4ab6b4cc6a7edbff49100e9123df213f&#45;&gt;dir_2171f7ec022c5423887b07c69b2f5b48</title>
<path fill="none" stroke="black" d="M146.711,-36.1893C143.792,-60.5311 133.987,-105.28 125.493,-134.059"/>
<polygon fill="black" stroke="black" points="122.069,-133.283 122.439,-143.871 128.753,-135.364 122.069,-133.283"/>
<g id="a_edge9&#45;headlabel"><a xlink:href="dir_000016_000056.html" target="_top" xlink:title="1">
<text text-anchor="middle" x="120.426" y="-126.507" font-family="Helvetica,sans-Serif" font-size="10.00">1</text>
</a>
</g>
</g>
<!-- dir_37c90836491b695b472bf98d1be8336b&#45;&gt;dir_4ab6b4cc6a7edbff49100e9123df213f -->
<g id="edge10" class="edge"><title>dir_37c90836491b695b472bf98d1be8336b&#45;&gt;dir_4ab6b4cc6a7edbff49100e9123df213f</title>
<path fill="none" stroke="black" d="M170.084,-71.6966C166.441,-63.7284 162.04,-54.0995 158.001,-45.2641"/>
<polygon fill="black" stroke="black" points="161.154,-43.7439 153.813,-36.1043 154.788,-46.6543 161.154,-43.7439"/>
<g id="a_edge10&#45;headlabel"><a xlink:href="dir_000144_000016.html" target="_top" xlink:title="5">
<text text-anchor="middle" x="165.231" y="-43.3327" font-family="Helvetica,sans-Serif" font-size="10.00">5</text>
</a>
</g>
</g>
<!-- dir_37c90836491b695b472bf98d1be8336b&#45;&gt;dir_2171f7ec022c5423887b07c69b2f5b48 -->
<g id="edge11" class="edge"><title>dir_37c90836491b695b472bf98d1be8336b&#45;&gt;dir_2171f7ec022c5423887b07c69b2f5b48</title>
<path fill="none" stroke="black" d="M168.251,-108.104C161.345,-116.636 151.963,-127.108 142.888,-136.478"/>
<polygon fill="black" stroke="black" points="140.286,-134.131 135.73,-143.697 145.257,-139.06 140.286,-134.131"/>
<g id="a_edge11&#45;headlabel"><a xlink:href="dir_000144_000056.html" target="_top" xlink:title="5">
<text text-anchor="middle" x="140.801" y="-127.08" font-family="Helvetica,sans-Serif" font-size="10.00">5</text>
</a>
</g>
</g>
<!-- dir_2171f7ec022c5423887b07c69b2f5b48&#45;&gt;dir_4ab6b4cc6a7edbff49100e9123df213f -->
<g id="edge18" class="edge"><title>dir_2171f7ec022c5423887b07c69b2f5b48&#45;&gt;dir_4ab6b4cc6a7edbff49100e9123df213f</title>
<path fill="none" stroke="black" d="M113.27,-143.871C116.178,-119.564 125.978,-74.8187 134.474,-46.0132"/>
<polygon fill="black" stroke="black" points="137.902,-46.7776 137.53,-36.1893 131.217,-44.6985 137.902,-46.7776"/>
<g id="a_edge18&#45;headlabel"><a xlink:href="dir_000056_000016.html" target="_top" xlink:title="18">
<text text-anchor="middle" x="139.545" y="-48.5532" font-family="Helvetica,sans-Serif" font-size="10.00">18</text>
</a>
</g>
</g>
<!-- dir_2171f7ec022c5423887b07c69b2f5b48&#45;&gt;dir_37c90836491b695b472bf98d1be8336b -->
<g id="edge19" class="edge"><title>dir_2171f7ec022c5423887b07c69b2f5b48&#45;&gt;dir_37c90836491b695b472bf98d1be8336b</title>
<path fill="none" stroke="black" d="M123.899,-143.697C130.843,-135.135 140.242,-124.656 149.311,-115.304"/>
<polygon fill="black" stroke="black" points="151.898,-117.666 156.461,-108.104 146.931,-112.734 151.898,-117.666"/>
<g id="a_edge19&#45;headlabel"><a xlink:href="dir_000056_000144.html" target="_top" xlink:title="1">
<text text-anchor="middle" x="151.38" y="-119.718" font-family="Helvetica,sans-Serif" font-size="10.00">1</text>
</a>
</g>
</g>
</g>
</svg>
