<?xml version="1.0" encoding="UTF-8" standalone="no"?>
<!DOCTYPE svg PUBLIC "-//W3C//DTD SVG 1.1//EN"
 "http://www.w3.org/Graphics/SVG/1.1/DTD/svg11.dtd">
<!-- Generated by graphviz version 2.36.0 (20140111.2315)
 -->
<!-- Title: /home/travis/build/AliceO2Group/AliceO2/DataFormats/Detectors Pages: 1 -->
<svg width="467pt" height="329pt"
 viewBox="0.00 0.00 467.00 328.72" xmlns="http://www.w3.org/2000/svg" xmlns:xlink="http://www.w3.org/1999/xlink">
<g id="graph0" class="graph" transform="scale(1 1) rotate(0) translate(4 324.725)">
<title>/home/travis/build/AliceO2Group/AliceO2/DataFormats/Detectors</title>
<g id="clust1" class="cluster"><title>clusterdir_2171f7ec022c5423887b07c69b2f5b48</title>
<g id="a_clust1"><a xlink:href="dir_2171f7ec022c5423887b07c69b2f5b48.html" target="_top" xlink:title="DataFormats">
<polygon fill="#ddddee" stroke="black" points="69,-200 69,-287 451,-287 451,-200 69,-200"/>
<text text-anchor="middle" x="260" y="-275" font-family="Helvetica,sans-Serif" font-size="10.00">DataFormats</text>
</a>
</g>
</g>
<g id="clust2" class="cluster"><title>clusterdir_2801adc79bf3c286b1b479858d2cade4</title>
<g id="a_clust2"><a xlink:href="dir_2801adc79bf3c286b1b479858d2cade4.html" target="_top">
<polygon fill="#eeeeff" stroke="black" points="77,-208 77,-260 443,-260 443,-208 77,-208"/>
</a>
</g>
</g>
<!-- dir_2801adc79bf3c286b1b479858d2cade4 -->
<g id="node1" class="node"><title>dir_2801adc79bf3c286b1b479858d2cade4</title>
<text text-anchor="middle" x="405" y="-231.5" font-family="Helvetica,sans-Serif" font-size="10.00">Detectors</text>
</g>
<!-- dir_74593c7a91e03746ae2a516888bf9494 -->
<g id="node2" class="node"><title>dir_74593c7a91e03746ae2a516888bf9494</title>
<g id="a_node2"><a xlink:href="dir_74593c7a91e03746ae2a516888bf9494.html" target="_top" xlink:title="Common">
<polygon fill="white" stroke="red" points="284.5,-252 229.5,-252 229.5,-216 284.5,-216 284.5,-252"/>
<text text-anchor="middle" x="257" y="-231.5" font-family="Helvetica,sans-Serif" font-size="10.00">Common</text>
</a>
</g>
</g>
<!-- dir_4ab6b4cc6a7edbff49100e9123df213f -->
<g id="node7" class="node"><title>dir_4ab6b4cc6a7edbff49100e9123df213f</title>
<g id="a_node7"><a xlink:href="dir_4ab6b4cc6a7edbff49100e9123df213f.html" target="_top" xlink:title="Common">
<polygon fill="none" stroke="red" points="225.5,-180 170.5,-180 170.5,-144 225.5,-144 225.5,-180"/>
<text text-anchor="middle" x="198" y="-159.5" font-family="Helvetica,sans-Serif" font-size="10.00">Common</text>
</a>
</g>
</g>
<!-- dir_74593c7a91e03746ae2a516888bf9494&#45;&gt;dir_4ab6b4cc6a7edbff49100e9123df213f -->
<g id="edge14" class="edge"><title>dir_74593c7a91e03746ae2a516888bf9494&#45;&gt;dir_4ab6b4cc6a7edbff49100e9123df213f</title>
<path fill="none" stroke="black" d="M242.416,-215.697C235.342,-207.305 226.717,-197.07 218.955,-187.861"/>
<polygon fill="black" stroke="black" points="221.537,-185.495 212.417,-180.104 216.185,-190.006 221.537,-185.495"/>
<g id="a_edge14&#45;headlabel"><a xlink:href="dir_000067_000016.html" target="_top" xlink:title="3">
<text text-anchor="middle" x="226.025" y="-183.914" font-family="Helvetica,sans-Serif" font-size="10.00">3</text>
</a>
</g>
</g>
<!-- dir_ff53c4a4c37940dfaa1ef75e68c4ec2e -->
<g id="node3" class="node"><title>dir_ff53c4a4c37940dfaa1ef75e68c4ec2e</title>
<g id="a_node3"><a xlink:href="dir_ff53c4a4c37940dfaa1ef75e68c4ec2e.html" target="_top" xlink:title="ITSMFT">
<polygon fill="white" stroke="red" points="139,-252 85,-252 85,-216 139,-216 139,-252"/>
<text text-anchor="middle" x="112" y="-231.5" font-family="Helvetica,sans-Serif" font-size="10.00">ITSMFT</text>
</a>
</g>
</g>
<!-- dir_d269712cc31e133b892a3b3f6424741a -->
<g id="node6" class="node"><title>dir_d269712cc31e133b892a3b3f6424741a</title>
<g id="a_node6"><a xlink:href="dir_d269712cc31e133b892a3b3f6424741a.html" target="_top" xlink:title="Reconstruction">
<polygon fill="none" stroke="red" points="267.25,-108 184.75,-108 184.75,-72 267.25,-72 267.25,-108"/>
<text text-anchor="middle" x="226" y="-87.5" font-family="Helvetica,sans-Serif" font-size="10.00">Reconstruction</text>
</a>
</g>
</g>
<!-- dir_ff53c4a4c37940dfaa1ef75e68c4ec2e&#45;&gt;dir_d269712cc31e133b892a3b3f6424741a -->
<g id="edge6" class="edge"><title>dir_ff53c4a4c37940dfaa1ef75e68c4ec2e&#45;&gt;dir_d269712cc31e133b892a3b3f6424741a</title>
<path fill="none" stroke="black" d="M119.108,-215.731C127.394,-196.864 142.362,-166.353 161,-144 170.065,-133.128 181.619,-122.87 192.465,-114.327"/>
<polygon fill="black" stroke="black" points="194.738,-116.995 200.567,-108.147 190.493,-111.429 194.738,-116.995"/>
<g id="a_edge6&#45;headlabel"><a xlink:href="dir_000072_000095.html" target="_top" xlink:title="3">
<text text-anchor="middle" x="193.602" y="-118.932" font-family="Helvetica,sans-Serif" font-size="10.00">3</text>
</a>
</g>
</g>
<!-- dir_ff53c4a4c37940dfaa1ef75e68c4ec2e&#45;&gt;dir_4ab6b4cc6a7edbff49100e9123df213f -->
<g id="edge7" class="edge"><title>dir_ff53c4a4c37940dfaa1ef75e68c4ec2e&#45;&gt;dir_4ab6b4cc6a7edbff49100e9123df213f</title>
<path fill="none" stroke="black" d="M129.984,-215.832C135.64,-210.62 141.982,-204.962 148,-200 153.671,-195.324 159.861,-190.519 165.893,-185.985"/>
<polygon fill="black" stroke="black" points="168.008,-188.773 173.957,-180.006 163.839,-183.15 168.008,-188.773"/>
<g id="a_edge7&#45;headlabel"><a xlink:href="dir_000072_000016.html" target="_top" xlink:title="2">
<text text-anchor="middle" x="166.812" y="-190.695" font-family="Helvetica,sans-Serif" font-size="10.00">2</text>
</a>
</g>
</g>
<!-- dir_39a68910f3cfdc380c901647ab1550b8 -->
<g id="node4" class="node"><title>dir_39a68910f3cfdc380c901647ab1550b8</title>
<g id="a_node4"><a xlink:href="dir_39a68910f3cfdc380c901647ab1550b8.html" target="_top" xlink:title="MUON">
<polygon fill="white" stroke="red" points="211,-252 157,-252 157,-216 211,-216 211,-252"/>
<text text-anchor="middle" x="184" y="-231.5" font-family="Helvetica,sans-Serif" font-size="10.00">MUON</text>
</a>
</g>
</g>
<!-- dir_39a68910f3cfdc380c901647ab1550b8&#45;&gt;dir_4ab6b4cc6a7edbff49100e9123df213f -->
<g id="edge4" class="edge"><title>dir_39a68910f3cfdc380c901647ab1550b8&#45;&gt;dir_4ab6b4cc6a7edbff49100e9123df213f</title>
<path fill="none" stroke="black" d="M187.461,-215.697C189.003,-207.983 190.858,-198.712 192.578,-190.112"/>
<polygon fill="black" stroke="black" points="196.05,-190.597 194.579,-180.104 189.186,-189.224 196.05,-190.597"/>
<g id="a_edge4&#45;headlabel"><a xlink:href="dir_000091_000016.html" target="_top" xlink:title="2">
<text text-anchor="middle" x="198.129" y="-192.178" font-family="Helvetica,sans-Serif" font-size="10.00">2</text>
</a>
</g>
</g>
<!-- dir_87e4e27fa2128902da5e37b3e7ab3f52 -->
<g id="node5" class="node"><title>dir_87e4e27fa2128902da5e37b3e7ab3f52</title>
<g id="a_node5"><a xlink:href="dir_87e4e27fa2128902da5e37b3e7ab3f52.html" target="_top" xlink:title="TPC">
<polygon fill="white" stroke="red" points="357,-252 303,-252 303,-216 357,-216 357,-252"/>
<text text-anchor="middle" x="330" y="-231.5" font-family="Helvetica,sans-Serif" font-size="10.00">TPC</text>
</a>
</g>
</g>
<!-- dir_87e4e27fa2128902da5e37b3e7ab3f52&#45;&gt;dir_d269712cc31e133b892a3b3f6424741a -->
<g id="edge10" class="edge"><title>dir_87e4e27fa2128902da5e37b3e7ab3f52&#45;&gt;dir_d269712cc31e133b892a3b3f6424741a</title>
<path fill="none" stroke="black" d="M317.455,-215.871C299.34,-191.137 265.727,-145.242 244.685,-116.512"/>
<polygon fill="black" stroke="black" points="247.322,-114.189 238.589,-108.189 241.674,-118.325 247.322,-114.189"/>
<g id="a_edge10&#45;headlabel"><a xlink:href="dir_000076_000095.html" target="_top" xlink:title="1">
<text text-anchor="middle" x="251.736" y="-112.911" font-family="Helvetica,sans-Serif" font-size="10.00">1</text>
</a>
</g>
</g>
<!-- dir_87e4e27fa2128902da5e37b3e7ab3f52&#45;&gt;dir_4ab6b4cc6a7edbff49100e9123df213f -->
<g id="edge11" class="edge"><title>dir_87e4e27fa2128902da5e37b3e7ab3f52&#45;&gt;dir_4ab6b4cc6a7edbff49100e9123df213f</title>
<path fill="none" stroke="black" d="M313.334,-215.843C307.3,-210.277 300.192,-204.408 293,-200 275.174,-189.074 253.572,-180.354 235.474,-174.129"/>
<polygon fill="black" stroke="black" points="236.42,-170.755 225.826,-170.93 234.216,-177.4 236.42,-170.755"/>
<g id="a_edge11&#45;headlabel"><a xlink:href="dir_000076_000016.html" target="_top" xlink:title="2">
<text text-anchor="middle" x="240.725" y="-166.692" font-family="Helvetica,sans-Serif" font-size="10.00">2</text>
</a>
</g>
</g>
<!-- dir_047746f9f311f49446db9474b7431d0d -->
<g id="node8" class="node"><title>dir_047746f9f311f49446db9474b7431d0d</title>
<g id="a_node8"><a xlink:href="dir_047746f9f311f49446db9474b7431d0d.html" target="_top" xlink:title="simulation">
<polygon fill="none" stroke="red" points="60.25,-252 -0.25,-252 -0.25,-216 60.25,-216 60.25,-252"/>
<text text-anchor="middle" x="30" y="-231.5" font-family="Helvetica,sans-Serif" font-size="10.00">simulation</text>
</a>
</g>
</g>
<!-- dir_87e4e27fa2128902da5e37b3e7ab3f52&#45;&gt;dir_047746f9f311f49446db9474b7431d0d -->
<g id="edge12" class="edge"><title>dir_87e4e27fa2128902da5e37b3e7ab3f52&#45;&gt;dir_047746f9f311f49446db9474b7431d0d</title>
<path fill="none" stroke="black" d="M324.029,-252.052C317.293,-269.159 304.517,-293.846 284,-305 244.562,-326.44 122.035,-325.303 82,-305 63.8882,-295.815 50.5662,-277.029 41.9426,-261.087"/>
<polygon fill="black" stroke="black" points="45.0451,-259.466 37.4074,-252.123 38.7991,-262.626 45.0451,-259.466"/>
<g id="a_edge12&#45;headlabel"><a xlink:href="dir_000076_000134.html" target="_top" xlink:title="2">
<text text-anchor="middle" x="49.2013" y="-258.892" font-family="Helvetica,sans-Serif" font-size="10.00">2</text>
</a>
</g>
</g>
<!-- dir_7924ba4398ae4560cd37376e44666c6d -->
<g id="node9" class="node"><title>dir_7924ba4398ae4560cd37376e44666c6d</title>
<g id="a_node9"><a xlink:href="dir_7924ba4398ae4560cd37376e44666c6d.html" target="_top" xlink:title="common">
<polygon fill="none" stroke="red" points="305,-36 251,-36 251,-0 305,-0 305,-36"/>
<text text-anchor="middle" x="278" y="-15.5" font-family="Helvetica,sans-Serif" font-size="10.00">common</text>
</a>
</g>
</g>
<!-- dir_87e4e27fa2128902da5e37b3e7ab3f52&#45;&gt;dir_7924ba4398ae4560cd37376e44666c6d -->
<g id="edge13" class="edge"><title>dir_87e4e27fa2128902da5e37b3e7ab3f52&#45;&gt;dir_7924ba4398ae4560cd37376e44666c6d</title>
<path fill="none" stroke="black" d="M325.833,-215.849C316.819,-178.753 295.449,-90.8101 284.586,-46.1027"/>
<polygon fill="black" stroke="black" points="287.95,-45.1232 282.187,-36.2325 281.148,-46.7761 287.95,-45.1232"/>
<g id="a_edge13&#45;headlabel"><a xlink:href="dir_000076_000057.html" target="_top" xlink:title="1">
<text text-anchor="middle" x="291.557" y="-45.4458" font-family="Helvetica,sans-Serif" font-size="10.00">1</text>
</a>
</g>
</g>
<!-- dir_d269712cc31e133b892a3b3f6424741a&#45;&gt;dir_74593c7a91e03746ae2a516888bf9494 -->
<g id="edge2" class="edge"><title>dir_d269712cc31e133b892a3b3f6424741a&#45;&gt;dir_74593c7a91e03746ae2a516888bf9494</title>
<path fill="none" stroke="black" d="M229.753,-108.189C235.067,-132.531 244.836,-177.28 251.118,-206.059"/>
<polygon fill="black" stroke="black" points="247.708,-206.848 253.261,-215.871 254.547,-205.355 247.708,-206.848"/>
<g id="a_edge2&#45;headlabel"><a xlink:href="dir_000095_000067.html" target="_top" xlink:title="1">
<text text-anchor="middle" x="244.168" y="-201.442" font-family="Helvetica,sans-Serif" font-size="10.00">1</text>
</a>
</g>
</g>
<!-- dir_d269712cc31e133b892a3b3f6424741a&#45;&gt;dir_4ab6b4cc6a7edbff49100e9123df213f -->
<g id="edge1" class="edge"><title>dir_d269712cc31e133b892a3b3f6424741a&#45;&gt;dir_4ab6b4cc6a7edbff49100e9123df213f</title>
<path fill="none" stroke="black" d="M225.053,-108.104C222.709,-116.045 219.085,-125.666 215.163,-134.515"/>
<polygon fill="black" stroke="black" points="211.933,-133.159 210.837,-143.697 218.266,-136.142 211.933,-133.159"/>
<g id="a_edge1&#45;headlabel"><a xlink:href="dir_000095_000016.html" target="_top" xlink:title="5">
<text text-anchor="middle" x="210.897" y="-126.197" font-family="Helvetica,sans-Serif" font-size="10.00">5</text>
</a>
</g>
</g>
<!-- dir_d269712cc31e133b892a3b3f6424741a&#45;&gt;dir_7924ba4398ae4560cd37376e44666c6d -->
<g id="edge3" class="edge"><title>dir_d269712cc31e133b892a3b3f6424741a&#45;&gt;dir_7924ba4398ae4560cd37376e44666c6d</title>
<path fill="none" stroke="black" d="M238.854,-71.6966C245.025,-63.3893 252.537,-53.2771 259.324,-44.1407"/>
<polygon fill="black" stroke="black" points="262.14,-46.2189 265.294,-36.1043 256.521,-42.0446 262.14,-46.2189"/>
<g id="a_edge3&#45;headlabel"><a xlink:href="dir_000095_000057.html" target="_top" xlink:title="4">
<text text-anchor="middle" x="262.276" y="-48.2976" font-family="Helvetica,sans-Serif" font-size="10.00">4</text>
</a>
</g>
</g>
<!-- dir_4ab6b4cc6a7edbff49100e9123df213f&#45;&gt;dir_d269712cc31e133b892a3b3f6424741a -->
<g id="edge5" class="edge"><title>dir_4ab6b4cc6a7edbff49100e9123df213f&#45;&gt;dir_d269712cc31e133b892a3b3f6424741a</title>
<path fill="none" stroke="black" d="M199.006,-143.697C201.371,-135.728 205.008,-126.1 208.935,-117.264"/>
<polygon fill="black" stroke="black" points="212.155,-118.641 213.263,-108.104 205.826,-115.65 212.155,-118.641"/>
<g id="a_edge5&#45;headlabel"><a xlink:href="dir_000016_000095.html" target="_top" xlink:title="1">
<text text-anchor="middle" x="213.187" y="-120.604" font-family="Helvetica,sans-Serif" font-size="10.00">1</text>
</a>
</g>
</g>
<!-- dir_047746f9f311f49446db9474b7431d0d&#45;&gt;dir_74593c7a91e03746ae2a516888bf9494 -->
<g id="edge9" class="edge"><title>dir_047746f9f311f49446db9474b7431d0d&#45;&gt;dir_74593c7a91e03746ae2a516888bf9494</title>
<path fill="none" stroke="black" d="M37.4074,-252.123C45.5215,-269.285 60.3335,-294.012 82,-305 107.567,-317.966 185.815,-318.692 211,-305 227.991,-295.763 239.672,-277.245 247.012,-261.437"/>
<polygon fill="black" stroke="black" points="250.312,-262.622 251.029,-252.052 243.876,-259.868 250.312,-262.622"/>
<g id="a_edge9&#45;headlabel"><a xlink:href="dir_000134_000067.html" target="_top" xlink:title="4">
<text text-anchor="middle" x="251.507" y="-264.544" font-family="Helvetica,sans-Serif" font-size="10.00">4</text>
</a>
</g>
</g>
<!-- dir_047746f9f311f49446db9474b7431d0d&#45;&gt;dir_4ab6b4cc6a7edbff49100e9123df213f -->
<g id="edge8" class="edge"><title>dir_047746f9f311f49446db9474b7431d0d&#45;&gt;dir_4ab6b4cc6a7edbff49100e9123df213f</title>
<path fill="none" stroke="black" d="M49.1013,-215.931C56.2196,-210.241 64.6151,-204.272 73,-200 100.649,-185.914 134.538,-176.303 160.051,-170.414"/>
<polygon fill="black" stroke="black" points="161.076,-173.772 170.081,-168.19 159.561,-166.938 161.076,-173.772"/>
<g id="a_edge8&#45;headlabel"><a xlink:href="dir_000134_000016.html" target="_top" xlink:title="1">
<text text-anchor="middle" x="158.182" y="-174.822" font-family="Helvetica,sans-Serif" font-size="10.00">1</text>
</a>
</g>
</g>
</g>
</svg>
