<?xml version="1.0" encoding="UTF-8" standalone="no"?>
<!DOCTYPE svg PUBLIC "-//W3C//DTD SVG 1.1//EN"
 "http://www.w3.org/Graphics/SVG/1.1/DTD/svg11.dtd">
<!-- Generated by graphviz version 2.36.0 (20140111.2315)
 -->
<!-- Title: /home/travis/build/AliceO2Group/AliceO2/Utilities Pages: 1 -->
<!--zoomable 204 -->
<svg id="main" version="1.1" xmlns="http://www.w3.org/2000/svg" xmlns:xlink="http://www.w3.org/1999/xlink" xml:space="preserve" onload="init(evt)">
<style type="text/css"><![CDATA[
.edge:hover path { stroke: red; }
.edge:hover polygon { stroke: red; fill: red; }
]]></style>
<script type="text/javascript"><![CDATA[
var edges = document.getElementsByTagName('g');
if (edges && edges.length) {
  for (var i=0;i<edges.length;i++) {
    if (edges[i].id.substr(0,4)=='edge') {
      edges[i].setAttribute('class','edge');
    }
  }
}
]]></script>
        <defs>
                <circle id="rim" cx="0" cy="0" r="7"/>
                <circle id="rim2" cx="0" cy="0" r="3.5"/>
                <g id="zoomPlus">
                        <use xlink:href="#rim" fill="#404040">
                                <set attributeName="fill" to="#808080" begin="zoomplus.mouseover" end="zoomplus.mouseout"/>
                        </use>
                        <path d="M-4,0h8M0,-4v8" fill="none" stroke="white" stroke-width="1.5" pointer-events="none"/>
                </g>
                <g id="zoomMin">
                        <use xlink:href="#rim" fill="#404040">
                                <set attributeName="fill" to="#808080" begin="zoomminus.mouseover" end="zoomminus.mouseout"/>
                        </use>
                        <path d="M-4,0h8" fill="none" stroke="white" stroke-width="1.5" pointer-events="none"/>
                </g>
                <g id="dirArrow">
                        <path fill="none" stroke="white" stroke-width="1.5" d="M0,-3.0v7 M-2.5,-0.5L0,-3.0L2.5,-0.5"/>
                </g>
               <g id="resetDef">
                       <use xlink:href="#rim2" fill="#404040">
                               <set attributeName="fill" to="#808080" begin="reset.mouseover" end="reset.mouseout"/>
                       </use>
               </g>
        </defs>

<script type="text/javascript">
var viewWidth = 997;
var viewHeight = 204;
var sectionId = 'dynsection-0';
</script>
<script xlink:href="svgpan.js"/>
<svg id="graph" class="graph">
<g id="viewport">
<title>/home/travis/build/AliceO2Group/AliceO2/Utilities</title>
<g id="clust1" class="cluster"><title>clusterdir_b05a5fa85f84bfc9013183c9d87f9a36</title>
<g id="a_clust1"><a xlink:href="dir_b05a5fa85f84bfc9013183c9d87f9a36.html" target="_top">
<polygon fill="#eeeeff" stroke="black" points="8,-64 8,-188 821,-188 821,-64 8,-64"/>
</a>
</g>
</g>
<!-- dir_b05a5fa85f84bfc9013183c9d87f9a36 -->
<g id="node1" class="node"><title>dir_b05a5fa85f84bfc9013183c9d87f9a36</title>
<text text-anchor="middle" x="786" y="-159.5" font-family="Helvetica,sans-Serif" font-size="10.00">Utilities</text>
</g>
<!-- dir_89404594baeba009a250b72877027579 -->
<g id="node2" class="node"><title>dir_89404594baeba009a250b72877027579</title>
<g id="a_node2"><a xlink:href="dir_89404594baeba009a250b72877027579.html" target="_top" xlink:title="aliceHLTwrapper">
<polygon fill="white" stroke="red" points="303,-180 213,-180 213,-144 303,-144 303,-180"/>
<text text-anchor="middle" x="258" y="-159.5" font-family="Helvetica,sans-Serif" font-size="10.00">aliceHLTwrapper</text>
</a>
</g>
</g>
<!-- dir_2171f7ec022c5423887b07c69b2f5b48 -->
<g id="node13" class="node"><title>dir_2171f7ec022c5423887b07c69b2f5b48</title>
<g id="a_node13"><a xlink:href="dir_2171f7ec022c5423887b07c69b2f5b48.html" target="_top" xlink:title="DataFormats">
<polygon fill="none" stroke="red" points="528,-36 454,-36 454,-0 528,-0 528,-36"/>
<text text-anchor="middle" x="491" y="-15.5" font-family="Helvetica,sans-Serif" font-size="10.00">DataFormats</text>
</a>
</g>
</g>
<!-- dir_89404594baeba009a250b72877027579&#45;&gt;dir_2171f7ec022c5423887b07c69b2f5b48 -->
<g id="edge11" class="edge"><title>dir_89404594baeba009a250b72877027579&#45;&gt;dir_2171f7ec022c5423887b07c69b2f5b48</title>
<path fill="none" stroke="black" d="M303.062,-146.544C348.018,-132.021 411.11,-111.325 416,-108 440.489,-91.3501 461.519,-64.5955 475.025,-44.7623"/>
<polygon fill="black" stroke="black" points="478.091,-46.4702 480.686,-36.198 472.252,-42.6101 478.091,-46.4702"/>
<g id="a_edge11&#45;headlabel"><a xlink:href="dir_000379_000056.html" target="_top" xlink:title="4">
<text text-anchor="middle" x="478.478" y="-48.5345" font-family="Helvetica,sans-Serif" font-size="10.00">4</text>
</a>
</g>
</g>
<!-- dir_e739392ef12c0b48c71c218f1fc8a69d -->
<g id="node3" class="node"><title>dir_e739392ef12c0b48c71c218f1fc8a69d</title>
<g id="a_node3"><a xlink:href="dir_e739392ef12c0b48c71c218f1fc8a69d.html" target="_top" xlink:title="DataCompression">
<polygon fill="white" stroke="red" points="668.25,-180 573.75,-180 573.75,-144 668.25,-144 668.25,-180"/>
<text text-anchor="middle" x="621" y="-159.5" font-family="Helvetica,sans-Serif" font-size="10.00">DataCompression</text>
</a>
</g>
</g>
<!-- dir_8ba487e25de5ee77e05e9dce7582cb98 -->
<g id="node11" class="node"><title>dir_8ba487e25de5ee77e05e9dce7582cb98</title>
<g id="a_node11"><a xlink:href="dir_8ba487e25de5ee77e05e9dce7582cb98.html" target="_top" xlink:title="Algorithm">
<polygon fill="none" stroke="red" points="886.5,-108 829.5,-108 829.5,-72 886.5,-72 886.5,-108"/>
<text text-anchor="middle" x="858" y="-87.5" font-family="Helvetica,sans-Serif" font-size="10.00">Algorithm</text>
</a>
</g>
</g>
<!-- dir_e739392ef12c0b48c71c218f1fc8a69d&#45;&gt;dir_8ba487e25de5ee77e05e9dce7582cb98 -->
<g id="edge13" class="edge"><title>dir_e739392ef12c0b48c71c218f1fc8a69d&#45;&gt;dir_8ba487e25de5ee77e05e9dce7582cb98</title>
<path fill="none" stroke="black" d="M668.535,-146.631C671.733,-145.723 674.911,-144.838 678,-144 739.746,-127.243 760.026,-131.113 819.849,-109.742"/>
<polygon fill="black" stroke="black" points="821.202,-112.974 829.385,-106.245 818.791,-106.402 821.202,-112.974"/>
<g id="a_edge13&#45;headlabel"><a xlink:href="dir_000384_000000.html" target="_top" xlink:title="1">
<text text-anchor="middle" x="818.804" y="-114.377" font-family="Helvetica,sans-Serif" font-size="10.00">1</text>
</a>
</g>
</g>
<!-- dir_47364d143a6f2085f762c4e9d70a45c1 -->
<g id="node4" class="node"><title>dir_47364d143a6f2085f762c4e9d70a45c1</title>
<g id="a_node4"><a xlink:href="dir_47364d143a6f2085f762c4e9d70a45c1.html" target="_top" xlink:title="DataFlow">
<polygon fill="white" stroke="red" points="75.25,-180 16.75,-180 16.75,-144 75.25,-144 75.25,-180"/>
<text text-anchor="middle" x="46" y="-159.5" font-family="Helvetica,sans-Serif" font-size="10.00">DataFlow</text>
</a>
</g>
</g>
<!-- dir_f35ccb320b67f1c85d228c773db13bda -->
<g id="node7" class="node"><title>dir_f35ccb320b67f1c85d228c773db13bda</title>
<g id="a_node7"><a xlink:href="dir_f35ccb320b67f1c85d228c773db13bda.html" target="_top" xlink:title="O2Device">
<polygon fill="white" stroke="red" points="179.5,-108 120.5,-108 120.5,-72 179.5,-72 179.5,-108"/>
<text text-anchor="middle" x="150" y="-87.5" font-family="Helvetica,sans-Serif" font-size="10.00">O2Device</text>
</a>
</g>
</g>
<!-- dir_47364d143a6f2085f762c4e9d70a45c1&#45;&gt;dir_f35ccb320b67f1c85d228c773db13bda -->
<g id="edge3" class="edge"><title>dir_47364d143a6f2085f762c4e9d70a45c1&#45;&gt;dir_f35ccb320b67f1c85d228c773db13bda</title>
<path fill="none" stroke="black" d="M71.4413,-143.876C84.7874,-134.893 101.324,-123.763 115.778,-114.034"/>
<polygon fill="black" stroke="black" points="118.119,-116.677 124.461,-108.19 114.211,-110.87 118.119,-116.677"/>
<g id="a_edge3&#45;headlabel"><a xlink:href="dir_000341_000395.html" target="_top" xlink:title="6">
<text text-anchor="middle" x="116.723" y="-118.54" font-family="Helvetica,sans-Serif" font-size="10.00">6</text>
</a>
</g>
</g>
<!-- dir_47364d143a6f2085f762c4e9d70a45c1&#45;&gt;dir_2171f7ec022c5423887b07c69b2f5b48 -->
<g id="edge4" class="edge"><title>dir_47364d143a6f2085f762c4e9d70a45c1&#45;&gt;dir_2171f7ec022c5423887b07c69b2f5b48</title>
<path fill="none" stroke="black" d="M75.3342,-147.524C78.2456,-146.293 81.1699,-145.098 84,-144 110.404,-133.76 298.885,-72.1731 326,-64 365.547,-52.0797 410.836,-39.8267 443.949,-31.1224"/>
<polygon fill="black" stroke="black" points="445.027,-34.4581 453.814,-28.5393 443.254,-27.6864 445.027,-34.4581"/>
<g id="a_edge4&#45;headlabel"><a xlink:href="dir_000341_000056.html" target="_top" xlink:title="31">
<text text-anchor="middle" x="442.269" y="-35.6152" font-family="Helvetica,sans-Serif" font-size="10.00">31</text>
</a>
</g>
</g>
<!-- dir_0c219a87dc857607d01a5568196ad92e -->
<g id="node5" class="node"><title>dir_0c219a87dc857607d01a5568196ad92e</title>
<g id="a_node5"><a xlink:href="dir_0c219a87dc857607d01a5568196ad92e.html" target="_top" xlink:title="hough">
<polygon fill="white" stroke="black" points="475,-180 421,-180 421,-144 475,-144 475,-180"/>
<text text-anchor="middle" x="448" y="-159.5" font-family="Helvetica,sans-Serif" font-size="10.00">hough</text>
</a>
</g>
</g>
<!-- dir_7689f0333efaa52ae71a33d099d65f30 -->
<g id="node6" class="node"><title>dir_7689f0333efaa52ae71a33d099d65f30</title>
<g id="a_node6"><a xlink:href="dir_7689f0333efaa52ae71a33d099d65f30.html" target="_top" xlink:title="MCStepLogger">
<polygon fill="white" stroke="red" points="403,-180 321,-180 321,-144 403,-144 403,-180"/>
<text text-anchor="middle" x="362" y="-159.5" font-family="Helvetica,sans-Serif" font-size="10.00">MCStepLogger</text>
</a>
</g>
</g>
<!-- dir_f35ccb320b67f1c85d228c773db13bda&#45;&gt;dir_2171f7ec022c5423887b07c69b2f5b48 -->
<g id="edge10" class="edge"><title>dir_f35ccb320b67f1c85d228c773db13bda&#45;&gt;dir_2171f7ec022c5423887b07c69b2f5b48</title>
<path fill="none" stroke="black" d="M179.665,-82.9104C238.893,-70.7521 372.233,-43.3804 443.678,-28.7141"/>
<polygon fill="black" stroke="black" points="444.662,-32.0852 453.754,-26.6458 443.255,-25.2282 444.662,-32.0852"/>
<g id="a_edge10&#45;headlabel"><a xlink:href="dir_000395_000056.html" target="_top" xlink:title="1">
<text text-anchor="middle" x="441.712" y="-33.0892" font-family="Helvetica,sans-Serif" font-size="10.00">1</text>
</a>
</g>
</g>
<!-- dir_128e7457a060fa7b176dc57431c84710 -->
<g id="node8" class="node"><title>dir_128e7457a060fa7b176dc57431c84710</title>
<g id="a_node8"><a xlink:href="dir_128e7457a060fa7b176dc57431c84710.html" target="_top" xlink:title="O2MessageMonitor">
<polygon fill="white" stroke="red" points="194.25,-180 93.75,-180 93.75,-144 194.25,-144 194.25,-180"/>
<text text-anchor="middle" x="144" y="-159.5" font-family="Helvetica,sans-Serif" font-size="10.00">O2MessageMonitor</text>
</a>
</g>
</g>
<!-- dir_128e7457a060fa7b176dc57431c84710&#45;&gt;dir_f35ccb320b67f1c85d228c773db13bda -->
<g id="edge8" class="edge"><title>dir_128e7457a060fa7b176dc57431c84710&#45;&gt;dir_f35ccb320b67f1c85d228c773db13bda</title>
<path fill="none" stroke="black" d="M145.483,-143.697C146.144,-135.983 146.939,-126.712 147.676,-118.112"/>
<polygon fill="black" stroke="black" points="151.167,-118.367 148.534,-108.104 144.193,-117.769 151.167,-118.367"/>
<g id="a_edge8&#45;headlabel"><a xlink:href="dir_000399_000395.html" target="_top" xlink:title="1">
<text text-anchor="middle" x="153.689" y="-119.691" font-family="Helvetica,sans-Serif" font-size="10.00">1</text>
</a>
</g>
</g>
<!-- dir_128e7457a060fa7b176dc57431c84710&#45;&gt;dir_2171f7ec022c5423887b07c69b2f5b48 -->
<g id="edge9" class="edge"><title>dir_128e7457a060fa7b176dc57431c84710&#45;&gt;dir_2171f7ec022c5423887b07c69b2f5b48</title>
<path fill="none" stroke="black" d="M194.261,-146.646C245.928,-131.848 319.72,-110.574 326,-108 372.108,-89.0998 422.083,-60.9728 454.807,-41.4158"/>
<polygon fill="black" stroke="black" points="456.802,-44.3 463.562,-36.1418 453.19,-38.304 456.802,-44.3"/>
<g id="a_edge9&#45;headlabel"><a xlink:href="dir_000399_000056.html" target="_top" xlink:title="3">
<text text-anchor="middle" x="455.188" y="-46.0869" font-family="Helvetica,sans-Serif" font-size="10.00">3</text>
</a>
</g>
</g>
<!-- dir_5d0813f9033df95284de52361814c1a3 -->
<g id="node9" class="node"><title>dir_5d0813f9033df95284de52361814c1a3</title>
<g id="a_node9"><a xlink:href="dir_5d0813f9033df95284de52361814c1a3.html" target="_top" xlink:title="Publishers">
<polygon fill="white" stroke="red" points="554.5,-180 493.5,-180 493.5,-144 554.5,-144 554.5,-180"/>
<text text-anchor="middle" x="524" y="-159.5" font-family="Helvetica,sans-Serif" font-size="10.00">Publishers</text>
</a>
</g>
</g>
<!-- dir_5d0813f9033df95284de52361814c1a3&#45;&gt;dir_f35ccb320b67f1c85d228c773db13bda -->
<g id="edge1" class="edge"><title>dir_5d0813f9033df95284de52361814c1a3&#45;&gt;dir_f35ccb320b67f1c85d228c773db13bda</title>
<path fill="none" stroke="black" d="M493.262,-147.056C490.169,-145.92 487.046,-144.875 484,-144 380.244,-114.207 253.238,-99.8704 189.9,-94.1564"/>
<polygon fill="black" stroke="black" points="189.831,-90.637 179.563,-93.25 189.219,-97.6102 189.831,-90.637"/>
<g id="a_edge1&#45;headlabel"><a xlink:href="dir_000404_000395.html" target="_top" xlink:title="1">
<text text-anchor="middle" x="193.66" y="-85.6225" font-family="Helvetica,sans-Serif" font-size="10.00">1</text>
</a>
</g>
</g>
<!-- dir_5d0813f9033df95284de52361814c1a3&#45;&gt;dir_2171f7ec022c5423887b07c69b2f5b48 -->
<g id="edge2" class="edge"><title>dir_5d0813f9033df95284de52361814c1a3&#45;&gt;dir_2171f7ec022c5423887b07c69b2f5b48</title>
<path fill="none" stroke="black" d="M520.019,-143.871C514.37,-119.564 503.972,-74.8187 497.278,-46.0132"/>
<polygon fill="black" stroke="black" points="500.668,-45.1374 494.995,-36.1893 493.849,-46.722 500.668,-45.1374"/>
<g id="a_edge2&#45;headlabel"><a xlink:href="dir_000404_000056.html" target="_top" xlink:title="5">
<text text-anchor="middle" x="504.247" y="-45.496" font-family="Helvetica,sans-Serif" font-size="10.00">5</text>
</a>
</g>
</g>
<!-- dir_47a906a1cbf8a6449f7ddaf217b22a51 -->
<g id="node10" class="node"><title>dir_47a906a1cbf8a6449f7ddaf217b22a51</title>
<g id="a_node10"><a xlink:href="dir_47a906a1cbf8a6449f7ddaf217b22a51.html" target="_top" xlink:title="QC">
<polygon fill="white" stroke="red" points="741,-180 687,-180 687,-144 741,-144 741,-180"/>
<text text-anchor="middle" x="714" y="-159.5" font-family="Helvetica,sans-Serif" font-size="10.00">QC</text>
</a>
</g>
</g>
<!-- dir_bcbb2cf9a3d3d83e5515c82071a07177 -->
<g id="node12" class="node"><title>dir_bcbb2cf9a3d3d83e5515c82071a07177</title>
<g id="a_node12"><a xlink:href="dir_bcbb2cf9a3d3d83e5515c82071a07177.html" target="_top" xlink:title="Framework">
<polygon fill="none" stroke="red" points="970.25,-108 905.75,-108 905.75,-72 970.25,-72 970.25,-108"/>
<text text-anchor="middle" x="938" y="-87.5" font-family="Helvetica,sans-Serif" font-size="10.00">Framework</text>
</a>
</g>
</g>
<!-- dir_47a906a1cbf8a6449f7ddaf217b22a51&#45;&gt;dir_bcbb2cf9a3d3d83e5515c82071a07177 -->
<g id="edge6" class="edge"><title>dir_47a906a1cbf8a6449f7ddaf217b22a51&#45;&gt;dir_bcbb2cf9a3d3d83e5515c82071a07177</title>
<path fill="none" stroke="black" d="M741.281,-147.434C744.192,-146.193 747.135,-145.021 750,-144 812.549,-121.714 831.763,-128.251 895,-108 895.21,-107.933 895.421,-107.865 895.632,-107.796"/>
<polygon fill="black" stroke="black" points="896.991,-111.03 905.295,-104.45 894.7,-104.415 896.991,-111.03"/>
<g id="a_edge6&#45;headlabel"><a xlink:href="dir_000408_000037.html" target="_top" xlink:title="7">
<text text-anchor="middle" x="894.524" y="-112.389" font-family="Helvetica,sans-Serif" font-size="10.00">7</text>
</a>
</g>
</g>
<!-- dir_47a906a1cbf8a6449f7ddaf217b22a51&#45;&gt;dir_2171f7ec022c5423887b07c69b2f5b48 -->
<g id="edge7" class="edge"><title>dir_47a906a1cbf8a6449f7ddaf217b22a51&#45;&gt;dir_2171f7ec022c5423887b07c69b2f5b48</title>
<path fill="none" stroke="black" d="M741.195,-147.174C744.122,-145.984 747.093,-144.895 750,-144 799.235,-128.848 945.522,-147.152 979,-108 991.709,-93.1371 992.178,-78.4488 979,-64 949.643,-31.8111 654.885,-22.3239 538.198,-19.817"/>
<polygon fill="black" stroke="black" points="538.202,-16.3164 528.132,-19.6087 538.057,-23.3149 538.202,-16.3164"/>
<g id="a_edge7&#45;headlabel"><a xlink:href="dir_000408_000056.html" target="_top" xlink:title="1">
<text text-anchor="middle" x="541.855" y="-11.052" font-family="Helvetica,sans-Serif" font-size="10.00">1</text>
</a>
</g>
</g>
<!-- dir_8ba487e25de5ee77e05e9dce7582cb98&#45;&gt;dir_2171f7ec022c5423887b07c69b2f5b48 -->
<g id="edge5" class="edge"><title>dir_8ba487e25de5ee77e05e9dce7582cb98&#45;&gt;dir_2171f7ec022c5423887b07c69b2f5b48</title>
<path fill="none" stroke="black" d="M838.777,-71.8779C834.488,-68.8136 829.784,-65.9729 825,-64 774.139,-43.0262 617.766,-28.5835 538.344,-22.3946"/>
<polygon fill="black" stroke="black" points="538.367,-18.8862 528.128,-21.6111 537.831,-25.8657 538.367,-18.8862"/>
<g id="a_edge5&#45;headlabel"><a xlink:href="dir_000000_000056.html" target="_top" xlink:title="7">
<text text-anchor="middle" x="542.168" y="-13.83" font-family="Helvetica,sans-Serif" font-size="10.00">7</text>
</a>
</g>
</g>
<!-- dir_bcbb2cf9a3d3d83e5515c82071a07177&#45;&gt;dir_2171f7ec022c5423887b07c69b2f5b48 -->
<g id="edge12" class="edge"><title>dir_bcbb2cf9a3d3d83e5515c82071a07177&#45;&gt;dir_2171f7ec022c5423887b07c69b2f5b48</title>
<path fill="none" stroke="black" d="M912.441,-71.8402C906.889,-68.7786 900.904,-65.9486 895,-64 770.987,-23.0716 615.169,-17.8001 538.322,-18.0221"/>
<polygon fill="black" stroke="black" points="537.992,-14.524 528.014,-18.0867 538.036,-21.5239 537.992,-14.524"/>
<g id="a_edge12&#45;headlabel"><a xlink:href="dir_000037_000056.html" target="_top" xlink:title="21">
<text text-anchor="middle" x="541.568" y="-9.16234" font-family="Helvetica,sans-Serif" font-size="10.00">21</text>
</a>
</g>
</g>
</g>
</svg>
        <g id="navigator" transform="translate(0 0)" fill="#404254">
                <rect fill="#f2f5e9" fill-opacity="0.5" stroke="#606060" stroke-width=".5" x="0" y="0" width="60" height="60"/>
                <use id="zoomplus" xlink:href="#zoomPlus" x="17" y="9" onmousedown="handleZoom(evt,'in')"/>
                <use id="zoomminus" xlink:href="#zoomMin" x="42" y="9" onmousedown="handleZoom(evt,'out')"/>
                <use id="reset" xlink:href="#resetDef" x="30" y="36" onmousedown="handleReset()"/>
                <g id="arrowUp" xlink:href="#dirArrow" transform="translate(30 24)" onmousedown="handlePan(0,-1)">
                  <use xlink:href="#rim" fill="#404040">
                        <set attributeName="fill" to="#808080" begin="arrowUp.mouseover" end="arrowUp.mouseout"/>
                  </use>
                  <path fill="none" stroke="white" stroke-width="1.5" d="M0,-3.0v7 M-2.5,-0.5L0,-3.0L2.5,-0.5"/>
                </g>
                <g id="arrowRight" xlink:href="#dirArrow" transform="rotate(90) translate(36 -43)" onmousedown="handlePan(1,0)">
                  <use xlink:href="#rim" fill="#404040">
                        <set attributeName="fill" to="#808080" begin="arrowRight.mouseover" end="arrowRight.mouseout"/>
                  </use>
                  <path fill="none" stroke="white" stroke-width="1.5" d="M0,-3.0v7 M-2.5,-0.5L0,-3.0L2.5,-0.5"/>
                </g>
                <g id="arrowDown" xlink:href="#dirArrow" transform="rotate(180) translate(-30 -48)" onmousedown="handlePan(0,1)">
                  <use xlink:href="#rim" fill="#404040">
                        <set attributeName="fill" to="#808080" begin="arrowDown.mouseover" end="arrowDown.mouseout"/>
                  </use>
                  <path fill="none" stroke="white" stroke-width="1.5" d="M0,-3.0v7 M-2.5,-0.5L0,-3.0L2.5,-0.5"/>
                </g>
                <g id="arrowLeft" xlink:href="#dirArrow" transform="rotate(270) translate(-36 17)" onmousedown="handlePan(-1,0)">
                  <use xlink:href="#rim" fill="#404040">
                        <set attributeName="fill" to="#808080" begin="arrowLeft.mouseover" end="arrowLeft.mouseout"/>
                  </use>
                  <path fill="none" stroke="white" stroke-width="1.5" d="M0,-3.0v7 M-2.5,-0.5L0,-3.0L2.5,-0.5"/>
                </g>
        </g>
        <svg viewBox="0 0 15 15" width="100%" height="30px" preserveAspectRatio="xMaxYMin meet">
         <g id="arrow_out" transform="scale(0.3 0.3)">
          <a xlink:href="dir_b05a5fa85f84bfc9013183c9d87f9a36_dep_org.svg" target="_base">
           <rect id="button" ry="5" rx="5" y="6" x="6" height="38" width="38"
                fill="#f2f5e9" fill-opacity="0.5" stroke="#606060" stroke-width="1.0"/>
           <path id="arrow"
             d="M 11.500037,31.436501 C 11.940474,20.09759 22.043105,11.32322 32.158766,21.979434 L 37.068811,17.246167 C 37.068811,17.246167 37.088388,32 37.088388,32 L 22.160133,31.978069 C 22.160133,31.978069 26.997745,27.140456 26.997745,27.140456 C 18.528582,18.264221 13.291696,25.230495 11.500037,31.436501 z"
             style="fill:#404040;"/>
          </a>
         </g>
        </svg>
</svg>
