<?xml version="1.0" encoding="UTF-8" standalone="no"?>
<!DOCTYPE svg PUBLIC "-//W3C//DTD SVG 1.1//EN"
 "http://www.w3.org/Graphics/SVG/1.1/DTD/svg11.dtd">
<!-- Generated by graphviz version 2.36.0 (20140111.2315)
 -->
<!-- Title: /home/travis/build/AliceO2Group/AliceO2/Detectors/TPC/simulation/include/TPCSimulation Pages: 1 -->
<svg width="167pt" height="367pt"
 viewBox="0.00 0.00 167.00 367.00" xmlns="http://www.w3.org/2000/svg" xmlns:xlink="http://www.w3.org/1999/xlink">
<g id="graph0" class="graph" transform="scale(1 1) rotate(0) translate(4 363)">
<title>/home/travis/build/AliceO2Group/AliceO2/Detectors/TPC/simulation/include/TPCSimulation</title>
<g id="clust1" class="cluster"><title>clusterdir_a3959ed40b1558172144f5e1a56e443f</title>
<g id="a_clust1"><a xlink:href="dir_a3959ed40b1558172144f5e1a56e443f.html" target="_top" xlink:title="include">
<polygon fill="#ddddee" stroke="black" points="51,-280 51,-351 151,-351 151,-280 51,-280"/>
<text text-anchor="middle" x="101" y="-339" font-family="Helvetica,sans-Serif" font-size="10.00">include</text>
</a>
</g>
</g>
<!-- dir_899d345f9fdaa752cfd282604b003f27 -->
<g id="node1" class="node"><title>dir_899d345f9fdaa752cfd282604b003f27</title>
<g id="a_node1"><a xlink:href="dir_899d345f9fdaa752cfd282604b003f27.html" target="_top" xlink:title="TPCSimulation">
<polygon fill="#eeeeff" stroke="black" points="142.25,-324 59.75,-324 59.75,-288 142.25,-288 142.25,-324"/>
<text text-anchor="middle" x="101" y="-303.5" font-family="Helvetica,sans-Serif" font-size="10.00">TPCSimulation</text>
</a>
</g>
</g>
<!-- dir_40b4a122691869ee86baf7f2711ed718 -->
<g id="node2" class="node"><title>dir_40b4a122691869ee86baf7f2711ed718</title>
<g id="a_node2"><a xlink:href="dir_40b4a122691869ee86baf7f2711ed718.html" target="_top" xlink:title="Steer">
<polygon fill="none" stroke="red" points="54,-252 0,-252 0,-216 54,-216 54,-252"/>
<text text-anchor="middle" x="27" y="-231.5" font-family="Helvetica,sans-Serif" font-size="10.00">Steer</text>
</a>
</g>
</g>
<!-- dir_899d345f9fdaa752cfd282604b003f27&#45;&gt;dir_40b4a122691869ee86baf7f2711ed718 -->
<g id="edge5" class="edge"><title>dir_899d345f9fdaa752cfd282604b003f27&#45;&gt;dir_40b4a122691869ee86baf7f2711ed718</title>
<path fill="none" stroke="black" d="M82.7079,-287.697C73.5674,-279.05 62.3599,-268.449 52.4,-259.027"/>
<polygon fill="black" stroke="black" points="54.7516,-256.434 45.0817,-252.104 49.9412,-261.519 54.7516,-256.434"/>
<g id="a_edge5&#45;headlabel"><a xlink:href="dir_000175_000372.html" target="_top" xlink:title="2">
<text text-anchor="middle" x="59.3141" y="-254.341" font-family="Helvetica,sans-Serif" font-size="10.00">2</text>
</a>
</g>
</g>
<!-- dir_677b030cc750909e4cd27413873678d8 -->
<g id="node3" class="node"><title>dir_677b030cc750909e4cd27413873678d8</title>
<g id="a_node3"><a xlink:href="dir_677b030cc750909e4cd27413873678d8.html" target="_top" xlink:title="base">
<polygon fill="none" stroke="red" points="92,-180 38,-180 38,-144 92,-144 92,-180"/>
<text text-anchor="middle" x="65" y="-159.5" font-family="Helvetica,sans-Serif" font-size="10.00">base</text>
</a>
</g>
</g>
<!-- dir_899d345f9fdaa752cfd282604b003f27&#45;&gt;dir_677b030cc750909e4cd27413873678d8 -->
<g id="edge6" class="edge"><title>dir_899d345f9fdaa752cfd282604b003f27&#45;&gt;dir_677b030cc750909e4cd27413873678d8</title>
<path fill="none" stroke="black" d="M96.6576,-287.871C90.495,-263.564 79.1512,-218.819 71.8484,-190.013"/>
<polygon fill="black" stroke="black" points="75.2081,-189.022 69.3578,-180.189 68.4227,-190.743 75.2081,-189.022"/>
<g id="a_edge6&#45;headlabel"><a xlink:href="dir_000175_000197.html" target="_top" xlink:title="19">
<text text-anchor="middle" x="78.8435" y="-189.309" font-family="Helvetica,sans-Serif" font-size="10.00">19</text>
</a>
</g>
</g>
<!-- dir_37c90836491b695b472bf98d1be8336b -->
<g id="node4" class="node"><title>dir_37c90836491b695b472bf98d1be8336b</title>
<g id="a_node4"><a xlink:href="dir_37c90836491b695b472bf98d1be8336b.html" target="_top" xlink:title="Base">
<polygon fill="none" stroke="red" points="106,-36 52,-36 52,-0 106,-0 106,-36"/>
<text text-anchor="middle" x="79" y="-15.5" font-family="Helvetica,sans-Serif" font-size="10.00">Base</text>
</a>
</g>
</g>
<!-- dir_899d345f9fdaa752cfd282604b003f27&#45;&gt;dir_37c90836491b695b472bf98d1be8336b -->
<g id="edge7" class="edge"><title>dir_899d345f9fdaa752cfd282604b003f27&#45;&gt;dir_37c90836491b695b472bf98d1be8336b</title>
<path fill="none" stroke="black" d="M109.177,-287.764C113.569,-277.602 118.569,-264.352 121,-252 136.45,-173.486 152.994,-146.963 125,-72 121.124,-61.6206 114.197,-51.9274 106.876,-43.7427"/>
<polygon fill="black" stroke="black" points="109.269,-41.1816 99.8228,-36.3845 104.216,-46.0256 109.269,-41.1816"/>
<g id="a_edge7&#45;headlabel"><a xlink:href="dir_000175_000144.html" target="_top" xlink:title="1">
<text text-anchor="middle" x="113.806" y="-39.3118" font-family="Helvetica,sans-Serif" font-size="10.00">1</text>
</a>
</g>
</g>
<!-- dir_2171f7ec022c5423887b07c69b2f5b48 -->
<g id="node5" class="node"><title>dir_2171f7ec022c5423887b07c69b2f5b48</title>
<g id="a_node5"><a xlink:href="dir_2171f7ec022c5423887b07c69b2f5b48.html" target="_top" xlink:title="DataFormats">
<polygon fill="none" stroke="red" points="116,-108 42,-108 42,-72 116,-72 116,-108"/>
<text text-anchor="middle" x="79" y="-87.5" font-family="Helvetica,sans-Serif" font-size="10.00">DataFormats</text>
</a>
</g>
</g>
<!-- dir_899d345f9fdaa752cfd282604b003f27&#45;&gt;dir_2171f7ec022c5423887b07c69b2f5b48 -->
<g id="edge8" class="edge"><title>dir_899d345f9fdaa752cfd282604b003f27&#45;&gt;dir_2171f7ec022c5423887b07c69b2f5b48</title>
<path fill="none" stroke="black" d="M103.174,-287.864C106.457,-258.206 111.271,-195.535 101,-144 99.2085,-135.011 95.8633,-125.638 92.3126,-117.318"/>
<polygon fill="black" stroke="black" points="95.4559,-115.775 88.1306,-108.12 89.0836,-118.672 95.4559,-115.775"/>
<g id="a_edge8&#45;headlabel"><a xlink:href="dir_000175_000056.html" target="_top" xlink:title="6">
<text text-anchor="middle" x="99.5283" y="-115.372" font-family="Helvetica,sans-Serif" font-size="10.00">6</text>
</a>
</g>
</g>
<!-- dir_40b4a122691869ee86baf7f2711ed718&#45;&gt;dir_677b030cc750909e4cd27413873678d8 -->
<g id="edge1" class="edge"><title>dir_40b4a122691869ee86baf7f2711ed718&#45;&gt;dir_677b030cc750909e4cd27413873678d8</title>
<path fill="none" stroke="black" d="M36.3933,-215.697C40.7649,-207.644 46.0573,-197.894 50.8953,-188.982"/>
<polygon fill="black" stroke="black" points="54.0198,-190.563 55.7148,-180.104 47.8678,-187.223 54.0198,-190.563"/>
<g id="a_edge1&#45;headlabel"><a xlink:href="dir_000372_000197.html" target="_top" xlink:title="1">
<text text-anchor="middle" x="54.8002" y="-192.576" font-family="Helvetica,sans-Serif" font-size="10.00">1</text>
</a>
</g>
</g>
<!-- dir_40b4a122691869ee86baf7f2711ed718&#45;&gt;dir_2171f7ec022c5423887b07c69b2f5b48 -->
<g id="edge2" class="edge"><title>dir_40b4a122691869ee86baf7f2711ed718&#45;&gt;dir_2171f7ec022c5423887b07c69b2f5b48</title>
<path fill="none" stroke="black" d="M23.8613,-215.864C21.2635,-197.38 19.3782,-167.449 29,-144 33.4118,-133.248 41.0969,-123.387 49.1376,-115.163"/>
<polygon fill="black" stroke="black" points="51.7263,-117.53 56.5382,-108.091 46.8903,-112.469 51.7263,-117.53"/>
<g id="a_edge2&#45;headlabel"><a xlink:href="dir_000372_000056.html" target="_top" xlink:title="7">
<text text-anchor="middle" x="51.089" y="-119.566" font-family="Helvetica,sans-Serif" font-size="10.00">7</text>
</a>
</g>
</g>
<!-- dir_677b030cc750909e4cd27413873678d8&#45;&gt;dir_2171f7ec022c5423887b07c69b2f5b48 -->
<g id="edge3" class="edge"><title>dir_677b030cc750909e4cd27413873678d8&#45;&gt;dir_2171f7ec022c5423887b07c69b2f5b48</title>
<path fill="none" stroke="black" d="M68.4607,-143.697C70.0035,-135.983 71.8575,-126.712 73.5775,-118.112"/>
<polygon fill="black" stroke="black" points="77.0499,-118.597 75.5791,-108.104 70.1859,-117.224 77.0499,-118.597"/>
<g id="a_edge3&#45;headlabel"><a xlink:href="dir_000197_000056.html" target="_top" xlink:title="13">
<text text-anchor="middle" x="79.1292" y="-120.178" font-family="Helvetica,sans-Serif" font-size="10.00">13</text>
</a>
</g>
</g>
<!-- dir_37c90836491b695b472bf98d1be8336b&#45;&gt;dir_2171f7ec022c5423887b07c69b2f5b48 -->
<g id="edge4" class="edge"><title>dir_37c90836491b695b472bf98d1be8336b&#45;&gt;dir_2171f7ec022c5423887b07c69b2f5b48</title>
<path fill="none" stroke="black" d="M84.895,-36.1043C85.7005,-43.7913 85.9369,-53.0537 85.604,-61.6651"/>
<polygon fill="black" stroke="black" points="82.1085,-61.4805 84.9157,-71.6966 89.0921,-61.9597 82.1085,-61.4805"/>
<g id="a_edge4&#45;headlabel"><a xlink:href="dir_000144_000056.html" target="_top" xlink:title="5">
<text text-anchor="middle" x="79.5219" y="-55.2" font-family="Helvetica,sans-Serif" font-size="10.00">5</text>
</a>
</g>
</g>
<!-- dir_2171f7ec022c5423887b07c69b2f5b48&#45;&gt;dir_37c90836491b695b472bf98d1be8336b -->
<g id="edge9" class="edge"><title>dir_2171f7ec022c5423887b07c69b2f5b48&#45;&gt;dir_37c90836491b695b472bf98d1be8336b</title>
<path fill="none" stroke="black" d="M73.0843,-71.6966C72.2886,-63.9827 72.0621,-54.7125 72.4047,-46.1124"/>
<polygon fill="black" stroke="black" points="75.8984,-46.3243 73.105,-36.1043 68.9154,-45.8356 75.8984,-46.3243"/>
<g id="a_edge9&#45;headlabel"><a xlink:href="dir_000056_000144.html" target="_top" xlink:title="1">
<text text-anchor="middle" x="78.4799" y="-47.6083" font-family="Helvetica,sans-Serif" font-size="10.00">1</text>
</a>
</g>
</g>
</g>
</svg>
