<?xml version="1.0" encoding="UTF-8" standalone="no"?>
<!DOCTYPE svg PUBLIC "-//W3C//DTD SVG 1.1//EN"
 "http://www.w3.org/Graphics/SVG/1.1/DTD/svg11.dtd">
<!-- Generated by graphviz version 2.36.0 (20140111.2315)
 -->
<!-- Title: /home/travis/build/AliceO2Group/AliceO2/Detectors/gconfig Pages: 1 -->
<svg width="328pt" height="183pt"
 viewBox="0.00 0.00 328.00 183.00" xmlns="http://www.w3.org/2000/svg" xmlns:xlink="http://www.w3.org/1999/xlink">
<g id="graph0" class="graph" transform="scale(1 1) rotate(0) translate(4 179)">
<title>/home/travis/build/AliceO2Group/AliceO2/Detectors/gconfig</title>
<g id="clust1" class="cluster"><title>clusterdir_051dca18e802f8e9474f2e30d29c04e0</title>
<g id="a_clust1"><a xlink:href="dir_051dca18e802f8e9474f2e30d29c04e0.html" target="_top" xlink:title="Detectors">
<polygon fill="#ddddee" stroke="black" points="8,-8 8,-167 166,-167 166,-8 8,-8"/>
<text text-anchor="middle" x="87" y="-155" font-family="Helvetica,sans-Serif" font-size="10.00">Detectors</text>
</a>
</g>
</g>
<g id="clust2" class="cluster"><title>clusterdir_fda58d415f46ed5554e220ec8997f6b0</title>
<g id="a_clust2"><a xlink:href="dir_fda58d415f46ed5554e220ec8997f6b0.html" target="_top">
<polygon fill="#eeeeff" stroke="black" points="16,-16 16,-140 158,-140 158,-16 16,-16"/>
</a>
</g>
</g>
<!-- dir_fda58d415f46ed5554e220ec8997f6b0 -->
<g id="node1" class="node"><title>dir_fda58d415f46ed5554e220ec8997f6b0</title>
<text text-anchor="middle" x="123" y="-111.5" font-family="Helvetica,sans-Serif" font-size="10.00">gconfig</text>
</g>
<!-- dir_b37385ac8c40ffd9e301f70e181b5ea7 -->
<g id="node2" class="node"><title>dir_b37385ac8c40ffd9e301f70e181b5ea7</title>
<g id="a_node2"><a xlink:href="dir_b37385ac8c40ffd9e301f70e181b5ea7.html" target="_top" xlink:title="include">
<polygon fill="white" stroke="red" points="78,-60 24,-60 24,-24 78,-24 78,-60"/>
<text text-anchor="middle" x="51" y="-39.5" font-family="Helvetica,sans-Serif" font-size="10.00">include</text>
</a>
</g>
</g>
<!-- dir_c0beb4acc36ff406387963d5baa86235 -->
<g id="node3" class="node"><title>dir_c0beb4acc36ff406387963d5baa86235</title>
<g id="a_node3"><a xlink:href="dir_c0beb4acc36ff406387963d5baa86235.html" target="_top" xlink:title="src">
<polygon fill="white" stroke="black" points="78,-132 24,-132 24,-96 78,-96 78,-132"/>
<text text-anchor="middle" x="51" y="-111.5" font-family="Helvetica,sans-Serif" font-size="10.00">src</text>
</a>
</g>
</g>
<!-- dir_c0beb4acc36ff406387963d5baa86235&#45;&gt;dir_b37385ac8c40ffd9e301f70e181b5ea7 -->
<g id="edge1" class="edge"><title>dir_c0beb4acc36ff406387963d5baa86235&#45;&gt;dir_b37385ac8c40ffd9e301f70e181b5ea7</title>
<path fill="none" stroke="black" d="M51,-95.6966C51,-87.9827 51,-78.7125 51,-70.1124"/>
<polygon fill="black" stroke="black" points="54.5001,-70.1043 51,-60.1043 47.5001,-70.1044 54.5001,-70.1043"/>
<g id="a_edge1&#45;headlabel"><a xlink:href="dir_000222_000220.html" target="_top" xlink:title="2">
<text text-anchor="middle" x="57.3393" y="-71.199" font-family="Helvetica,sans-Serif" font-size="10.00">2</text>
</a>
</g>
</g>
<!-- dir_f01815b857f9009bea48e2cb39492245 -->
<g id="node4" class="node"><title>dir_f01815b857f9009bea48e2cb39492245</title>
<g id="a_node4"><a xlink:href="dir_f01815b857f9009bea48e2cb39492245.html" target="_top" xlink:title="Passive">
<polygon fill="none" stroke="red" points="228,-60 174,-60 174,-24 228,-24 228,-60"/>
<text text-anchor="middle" x="201" y="-39.5" font-family="Helvetica,sans-Serif" font-size="10.00">Passive</text>
</a>
</g>
</g>
<!-- dir_c0beb4acc36ff406387963d5baa86235&#45;&gt;dir_f01815b857f9009bea48e2cb39492245 -->
<g id="edge2" class="edge"><title>dir_c0beb4acc36ff406387963d5baa86235&#45;&gt;dir_f01815b857f9009bea48e2cb39492245</title>
<path fill="none" stroke="black" d="M78.1186,-100.173C81.1142,-98.7621 84.1209,-97.349 87,-96 112.94,-83.8454 142.247,-70.2226 164.65,-59.832"/>
<polygon fill="black" stroke="black" points="166.199,-62.9721 173.799,-55.5905 163.254,-56.6214 166.199,-62.9721"/>
<g id="a_edge2&#45;headlabel"><a xlink:href="dir_000222_000283.html" target="_top" xlink:title="2">
<text text-anchor="middle" x="164.132" y="-64.5599" font-family="Helvetica,sans-Serif" font-size="10.00">2</text>
</a>
</g>
</g>
<!-- dir_2171f7ec022c5423887b07c69b2f5b48 -->
<g id="node5" class="node"><title>dir_2171f7ec022c5423887b07c69b2f5b48</title>
<g id="a_node5"><a xlink:href="dir_2171f7ec022c5423887b07c69b2f5b48.html" target="_top" xlink:title="DataFormats">
<polygon fill="none" stroke="red" points="320,-60 246,-60 246,-24 320,-24 320,-60"/>
<text text-anchor="middle" x="283" y="-39.5" font-family="Helvetica,sans-Serif" font-size="10.00">DataFormats</text>
</a>
</g>
</g>
<!-- dir_c0beb4acc36ff406387963d5baa86235&#45;&gt;dir_2171f7ec022c5423887b07c69b2f5b48 -->
<g id="edge3" class="edge"><title>dir_c0beb4acc36ff406387963d5baa86235&#45;&gt;dir_2171f7ec022c5423887b07c69b2f5b48</title>
<path fill="none" stroke="black" d="M78.273,-99.4109C81.1851,-98.1742 84.1312,-97.0095 87,-96 148.767,-74.2644 169.534,-79.3777 236.244,-60.0133"/>
<polygon fill="black" stroke="black" points="237.388,-63.3246 245.971,-57.1131 235.388,-56.6164 237.388,-63.3246"/>
<g id="a_edge3&#45;headlabel"><a xlink:href="dir_000222_000056.html" target="_top" xlink:title="2">
<text text-anchor="middle" x="234.755" y="-64.5725" font-family="Helvetica,sans-Serif" font-size="10.00">2</text>
</a>
</g>
</g>
</g>
</svg>
