<?xml version="1.0" encoding="UTF-8" standalone="no"?>
<!DOCTYPE svg PUBLIC "-//W3C//DTD SVG 1.1//EN"
 "http://www.w3.org/Graphics/SVG/1.1/DTD/svg11.dtd">
<!-- Generated by graphviz version 2.36.0 (20140111.2315)
 -->
<!-- Title: Graphical Class Hierarchy Pages: 1 -->
<svg width="482pt" height="887pt"
 viewBox="0.00 0.00 482.00 887.00" xmlns="http://www.w3.org/2000/svg" xmlns:xlink="http://www.w3.org/1999/xlink">
<g id="graph0" class="graph" transform="scale(1 1) rotate(0) translate(4 883)">
<title>Graphical Class Hierarchy</title>
<!-- Node1 -->
<g id="node1" class="node"><title>Node1</title>
<g id="a_node1"><a xlink:href="db/dfe/classFairMQDevice.html" target="_top" xlink:title="FairMQDevice">
<polygon fill="none" stroke="black" points="0,-384.5 0,-403.5 80,-403.5 80,-384.5 0,-384.5"/>
<text text-anchor="middle" x="40" y="-391.5" font-family="Helvetica,sans-Serif" font-size="10.00">FairMQDevice</text>
</a>
</g>
</g>
<!-- Node2 -->
<g id="node2" class="node"><title>Node2</title>
<g id="a_node2"><a xlink:href="d7/dd9/classo2_1_1alice__hlt_1_1EventSampler.html" target="_top" xlink:title="o2::alice_hlt::EventSampler">
<polygon fill="none" stroke="black" points="125.5,-769.5 125.5,-788.5 262.5,-788.5 262.5,-769.5 125.5,-769.5"/>
<text text-anchor="middle" x="194" y="-776.5" font-family="Helvetica,sans-Serif" font-size="10.00">o2::alice_hlt::EventSampler</text>
</a>
</g>
</g>
<!-- Node1&#45;&gt;Node2 -->
<g id="edge1" class="edge"><title>Node1&#45;&gt;Node2</title>
<path fill="none" stroke="midnightblue" d="M42.3326,-413.858C47.3501,-482.658 67.3548,-709.379 116,-760 119.625,-763.773 123.871,-766.844 128.473,-769.339"/>
<polygon fill="midnightblue" stroke="midnightblue" points="45.8019,-413.298 41.6096,-403.568 38.8192,-413.789 45.8019,-413.298"/>
</g>
<!-- Node3 -->
<g id="node3" class="node"><title>Node3</title>
<g id="a_node3"><a xlink:href="d5/df3/classo2_1_1alice__hlt_1_1WrapperDevice.html" target="_top" xlink:title="o2::alice_hlt::WrapperDevice">
<polygon fill="none" stroke="black" points="122.5,-731.5 122.5,-750.5 265.5,-750.5 265.5,-731.5 122.5,-731.5"/>
<text text-anchor="middle" x="194" y="-738.5" font-family="Helvetica,sans-Serif" font-size="10.00">o2::alice_hlt::WrapperDevice</text>
</a>
</g>
</g>
<!-- Node1&#45;&gt;Node3 -->
<g id="edge2" class="edge"><title>Node1&#45;&gt;Node3</title>
<path fill="none" stroke="midnightblue" d="M42.8406,-413.837C49.1769,-477.854 72.1489,-677.391 116,-722 119.764,-725.829 124.169,-728.933 128.931,-731.443"/>
<polygon fill="midnightblue" stroke="midnightblue" points="46.2905,-413.148 41.8497,-403.529 39.3226,-413.818 46.2905,-413.148"/>
</g>
<!-- Node4 -->
<g id="node4" class="node"><title>Node4</title>
<g id="a_node4"><a xlink:href="da/df6/classo2_1_1Base_1_1O2Device.html" target="_top" xlink:title="o2::Base::O2Device">
<polygon fill="none" stroke="black" points="141.5,-693.5 141.5,-712.5 246.5,-712.5 246.5,-693.5 141.5,-693.5"/>
<text text-anchor="middle" x="194" y="-700.5" font-family="Helvetica,sans-Serif" font-size="10.00">o2::Base::O2Device</text>
</a>
</g>
</g>
<!-- Node1&#45;&gt;Node4 -->
<g id="edge3" class="edge"><title>Node1&#45;&gt;Node4</title>
<path fill="none" stroke="midnightblue" d="M43.4765,-413.815C51.2364,-472.767 76.9145,-645.348 116,-684 122.951,-690.874 131.969,-695.397 141.373,-698.343"/>
<polygon fill="midnightblue" stroke="midnightblue" points="46.9115,-413.085 42.1647,-403.613 39.9687,-413.977 46.9115,-413.085"/>
</g>
<!-- Node13 -->
<g id="node13" class="node"><title>Node13</title>
<g id="a_node13"><a xlink:href="d1/d6f/classo2_1_1CDB_1_1ConditionsMQClient.html" target="_top" xlink:title="o2::CDB::ConditionsMQClient">
<polygon fill="none" stroke="black" points="119.5,-655.5 119.5,-674.5 268.5,-674.5 268.5,-655.5 119.5,-655.5"/>
<text text-anchor="middle" x="194" y="-662.5" font-family="Helvetica,sans-Serif" font-size="10.00">o2::CDB::ConditionsMQClient</text>
</a>
</g>
</g>
<!-- Node1&#45;&gt;Node13 -->
<g id="edge12" class="edge"><title>Node1&#45;&gt;Node13</title>
<path fill="none" stroke="midnightblue" d="M40.6918,-413.862C41.0922,-461.324 49.0176,-582.116 116,-646 119.986,-649.801 124.606,-652.878 129.564,-655.365"/>
<polygon fill="midnightblue" stroke="midnightblue" points="44.1921,-413.699 40.7174,-403.69 37.1922,-413.682 44.1921,-413.699"/>
</g>
<!-- Node14 -->
<g id="node14" class="node"><title>Node14</title>
<g id="a_node14"><a xlink:href="df/d95/classo2_1_1Devices_1_1EPNReceiver.html" target="_top" xlink:title="Receives sub&#45;timeframes from the flpSenders and merges these into full timeframes. ">
<polygon fill="none" stroke="black" points="126.5,-617.5 126.5,-636.5 261.5,-636.5 261.5,-617.5 126.5,-617.5"/>
<text text-anchor="middle" x="194" y="-624.5" font-family="Helvetica,sans-Serif" font-size="10.00">o2::Devices::EPNReceiver</text>
</a>
</g>
</g>
<!-- Node1&#45;&gt;Node14 -->
<g id="edge13" class="edge"><title>Node1&#45;&gt;Node14</title>
<path fill="none" stroke="midnightblue" d="M42.0102,-413.847C45.2547,-455.923 58.8838,-554.513 116,-607 120.678,-611.299 126.161,-614.699 132.009,-617.384"/>
<polygon fill="midnightblue" stroke="midnightblue" points="45.497,-413.53 41.3541,-403.779 38.5118,-413.985 45.497,-413.53"/>
</g>
<!-- Node15 -->
<g id="node15" class="node"><title>Node15</title>
<g id="a_node15"><a xlink:href="d5/d70/classo2_1_1Devices_1_1EPNReceiverDevice.html" target="_top" xlink:title="Receives sub&#45;timeframes from the flpSenders and merges these into full timeframes. ">
<polygon fill="none" stroke="black" points="126.5,-568 126.5,-598 261.5,-598 261.5,-568 126.5,-568"/>
<text text-anchor="start" x="134.5" y="-586" font-family="Helvetica,sans-Serif" font-size="10.00">o2::Devices::EPNReceiver</text>
<text text-anchor="middle" x="194" y="-575" font-family="Helvetica,sans-Serif" font-size="10.00">Device</text>
</a>
</g>
</g>
<!-- Node1&#45;&gt;Node15 -->
<g id="edge14" class="edge"><title>Node1&#45;&gt;Node15</title>
<path fill="none" stroke="midnightblue" d="M44.6833,-413.909C52.0658,-448.249 71.9002,-518.7 116,-558 120.302,-561.834 125.201,-565.081 130.396,-567.831"/>
<polygon fill="midnightblue" stroke="midnightblue" points="48.0423,-412.86 42.6399,-403.746 41.1796,-414.239 48.0423,-412.86"/>
</g>
<!-- Node16 -->
<g id="node16" class="node"><title>Node16</title>
<g id="a_node16"><a xlink:href="da/d8b/classo2_1_1Devices_1_1FLPSender.html" target="_top" xlink:title="o2::Devices::FLPSender">
<polygon fill="none" stroke="black" points="132,-529.5 132,-548.5 256,-548.5 256,-529.5 132,-529.5"/>
<text text-anchor="middle" x="194" y="-536.5" font-family="Helvetica,sans-Serif" font-size="10.00">o2::Devices::FLPSender</text>
</a>
</g>
</g>
<!-- Node1&#45;&gt;Node16 -->
<g id="edge15" class="edge"><title>Node1&#45;&gt;Node16</title>
<path fill="none" stroke="midnightblue" d="M47.157,-413.463C57.0413,-441.452 79.1694,-492.698 116,-520 121.199,-523.854 127.084,-526.933 133.229,-529.392"/>
<polygon fill="midnightblue" stroke="midnightblue" points="50.3649,-412.021 43.8623,-403.656 43.7294,-414.25 50.3649,-412.021"/>
</g>
<!-- Node17 -->
<g id="node17" class="node"><title>Node17</title>
<g id="a_node17"><a xlink:href="d3/db6/classo2_1_1Devices_1_1FLPSenderDevice.html" target="_top" xlink:title="o2::Devices::FLPSenderDevice">
<polygon fill="none" stroke="black" points="116.5,-491.5 116.5,-510.5 271.5,-510.5 271.5,-491.5 116.5,-491.5"/>
<text text-anchor="middle" x="194" y="-498.5" font-family="Helvetica,sans-Serif" font-size="10.00">o2::Devices::FLPSenderDevice</text>
</a>
</g>
</g>
<!-- Node1&#45;&gt;Node17 -->
<g id="edge16" class="edge"><title>Node1&#45;&gt;Node17</title>
<path fill="none" stroke="midnightblue" d="M51.6394,-412.264C64.3619,-432.448 87.5475,-464.42 116,-482 122.325,-485.908 129.408,-489.013 136.648,-491.479"/>
<polygon fill="midnightblue" stroke="midnightblue" points="54.5935,-410.386 46.4028,-403.665 48.6149,-414.027 54.5935,-410.386"/>
</g>
<!-- Node18 -->
<g id="node18" class="node"><title>Node18</title>
<g id="a_node18"><a xlink:href="d9/dbe/classo2_1_1Devices_1_1FLPSyncSampler.html" target="_top" xlink:title="Publishes timeframes IDs for flpSenders (used only in test mode) ">
<polygon fill="none" stroke="black" points="118,-453.5 118,-472.5 270,-472.5 270,-453.5 118,-453.5"/>
<text text-anchor="middle" x="194" y="-460.5" font-family="Helvetica,sans-Serif" font-size="10.00">o2::Devices::FLPSyncSampler</text>
</a>
</g>
</g>
<!-- Node1&#45;&gt;Node18 -->
<g id="edge17" class="edge"><title>Node1&#45;&gt;Node18</title>
<path fill="none" stroke="midnightblue" d="M61.2491,-409.841C75.7795,-420.536 96.2104,-434.247 116,-443 125.473,-447.19 136.005,-450.642 146.162,-453.428"/>
<polygon fill="midnightblue" stroke="midnightblue" points="63.1158,-406.865 53.0228,-403.643 58.9033,-412.456 63.1158,-406.865"/>
</g>
<!-- Node19 -->
<g id="node19" class="node"><title>Node19</title>
<g id="a_node19"><a xlink:href="d4/d56/classo2_1_1framework_1_1DataProcessingDevice.html" target="_top" xlink:title="o2::framework::DataProcessing\lDevice">
<polygon fill="none" stroke="black" points="116.5,-404 116.5,-434 271.5,-434 271.5,-404 116.5,-404"/>
<text text-anchor="start" x="124.5" y="-422" font-family="Helvetica,sans-Serif" font-size="10.00">o2::framework::DataProcessing</text>
<text text-anchor="middle" x="194" y="-411" font-family="Helvetica,sans-Serif" font-size="10.00">Device</text>
</a>
</g>
</g>
<!-- Node1&#45;&gt;Node19 -->
<g id="edge18" class="edge"><title>Node1&#45;&gt;Node19</title>
<path fill="none" stroke="midnightblue" d="M90.1493,-402.084C98.5853,-403.471 107.528,-404.942 116.48,-406.414"/>
<polygon fill="midnightblue" stroke="midnightblue" points="90.5793,-398.608 80.1438,-400.438 89.4431,-405.515 90.5793,-398.608"/>
</g>
<!-- Node20 -->
<g id="node20" class="node"><title>Node20</title>
<g id="a_node20"><a xlink:href="de/d58/classo2_1_1framework_1_1DataSourceDevice.html" target="_top" xlink:title="o2::framework::DataSource\lDevice">
<polygon fill="none" stroke="black" points="125.5,-355 125.5,-385 262.5,-385 262.5,-355 125.5,-355"/>
<text text-anchor="start" x="133.5" y="-373" font-family="Helvetica,sans-Serif" font-size="10.00">o2::framework::DataSource</text>
<text text-anchor="middle" x="194" y="-362" font-family="Helvetica,sans-Serif" font-size="10.00">Device</text>
</a>
</g>
</g>
<!-- Node1&#45;&gt;Node20 -->
<g id="edge19" class="edge"><title>Node1&#45;&gt;Node20</title>
<path fill="none" stroke="midnightblue" d="M90.1734,-386.236C101.406,-384.462 113.535,-382.547 125.388,-380.676"/>
<polygon fill="midnightblue" stroke="midnightblue" points="89.4755,-382.803 80.1438,-387.819 90.5673,-389.717 89.4755,-382.803"/>
</g>
<!-- Node21 -->
<g id="node21" class="node"><title>Node21</title>
<g id="a_node21"><a xlink:href="d3/d75/classo2_1_1mch_1_1DumpDigits.html" target="_top" xlink:title="o2::mch::DumpDigits">
<polygon fill="none" stroke="black" points="139,-316.5 139,-335.5 249,-335.5 249,-316.5 139,-316.5"/>
<text text-anchor="middle" x="194" y="-323.5" font-family="Helvetica,sans-Serif" font-size="10.00">o2::mch::DumpDigits</text>
</a>
</g>
</g>
<!-- Node1&#45;&gt;Node21 -->
<g id="edge20" class="edge"><title>Node1&#45;&gt;Node21</title>
<path fill="none" stroke="midnightblue" d="M61.5592,-378.316C76.0952,-367.876 96.407,-354.556 116,-346 125.62,-341.799 136.314,-338.33 146.597,-335.528"/>
<polygon fill="midnightblue" stroke="midnightblue" points="59.2986,-375.633 53.3129,-384.375 63.4437,-381.274 59.2986,-375.633"/>
</g>
<!-- Node22 -->
<g id="node22" class="node"><title>Node22</title>
<g id="a_node22"><a xlink:href="d7/dc2/classo2_1_1mch_1_1PreClusterFinderDevice.html" target="_top" xlink:title="o2::mch::PreClusterFinder\lDevice">
<polygon fill="none" stroke="black" points="128.5,-267 128.5,-297 259.5,-297 259.5,-267 128.5,-267"/>
<text text-anchor="start" x="136.5" y="-285" font-family="Helvetica,sans-Serif" font-size="10.00">o2::mch::PreClusterFinder</text>
<text text-anchor="middle" x="194" y="-274" font-family="Helvetica,sans-Serif" font-size="10.00">Device</text>
</a>
</g>
</g>
<!-- Node1&#45;&gt;Node22 -->
<g id="edge21" class="edge"><title>Node1&#45;&gt;Node22</title>
<path fill="none" stroke="midnightblue" d="M52.3054,-375.741C65.3618,-356.091 88.5973,-325.215 116,-307 121.735,-303.188 128.096,-299.919 134.633,-297.125"/>
<polygon fill="midnightblue" stroke="midnightblue" points="49.2131,-374.078 46.74,-384.38 55.0978,-377.869 49.2131,-374.078"/>
</g>
<!-- Node23 -->
<g id="node23" class="node"><title>Node23</title>
<g id="a_node23"><a xlink:href="da/df0/classo2_1_1mid_1_1ClusterizerDevice.html" target="_top" xlink:title="Clusterizing device for MID. ">
<polygon fill="none" stroke="black" points="127.5,-228.5 127.5,-247.5 260.5,-247.5 260.5,-228.5 127.5,-228.5"/>
<text text-anchor="middle" x="194" y="-235.5" font-family="Helvetica,sans-Serif" font-size="10.00">o2::mid::ClusterizerDevice</text>
</a>
</g>
</g>
<!-- Node1&#45;&gt;Node23 -->
<g id="edge22" class="edge"><title>Node1&#45;&gt;Node23</title>
<path fill="none" stroke="midnightblue" d="M46.2421,-374.743C55.3415,-345.05 76.9339,-288.349 116,-258 121.563,-253.679 127.965,-250.285 134.651,-247.622"/>
<polygon fill="midnightblue" stroke="midnightblue" points="42.8765,-373.783 43.4457,-384.362 49.5982,-375.737 42.8765,-373.783"/>
</g>
<!-- Node24 -->
<g id="node24" class="node"><title>Node24</title>
<g id="a_node24"><a xlink:href="dd/d41/classo2_1_1mid_1_1TrackerDevice.html" target="_top" xlink:title="Tracking device for MID. ">
<polygon fill="none" stroke="black" points="134.5,-190.5 134.5,-209.5 253.5,-209.5 253.5,-190.5 134.5,-190.5"/>
<text text-anchor="middle" x="194" y="-197.5" font-family="Helvetica,sans-Serif" font-size="10.00">o2::mid::TrackerDevice</text>
</a>
</g>
</g>
<!-- Node1&#45;&gt;Node24 -->
<g id="edge23" class="edge"><title>Node1&#45;&gt;Node24</title>
<path fill="none" stroke="midnightblue" d="M43.7136,-373.956C49.7546,-337.405 67.797,-259.924 116,-219 121.353,-214.455 127.629,-210.967 134.248,-208.295"/>
<polygon fill="midnightblue" stroke="midnightblue" points="40.186,-373.876 42.1509,-384.287 47.1072,-374.923 40.186,-373.876"/>
</g>
<!-- Node25 -->
<g id="node25" class="node"><title>Node25</title>
<g id="a_node25"><a xlink:href="df/d14/classo2_1_1qc_1_1MergerDevice.html" target="_top" xlink:title="o2::qc::MergerDevice">
<polygon fill="none" stroke="black" points="139,-152.5 139,-171.5 249,-171.5 249,-152.5 139,-152.5"/>
<text text-anchor="middle" x="194" y="-159.5" font-family="Helvetica,sans-Serif" font-size="10.00">o2::qc::MergerDevice</text>
</a>
</g>
</g>
<!-- Node1&#45;&gt;Node25 -->
<g id="edge24" class="edge"><title>Node1&#45;&gt;Node25</title>
<path fill="none" stroke="midnightblue" d="M41.9608,-374.098C45.1098,-331.919 58.5646,-233.137 116,-181 122.423,-175.17 130.348,-171.058 138.646,-168.173"/>
<polygon fill="midnightblue" stroke="midnightblue" points="38.4606,-373.994 41.3286,-384.193 45.4469,-374.432 38.4606,-373.994"/>
</g>
<!-- Node26 -->
<g id="node26" class="node"><title>Node26</title>
<g id="a_node26"><a xlink:href="d1/d14/classo2_1_1qc_1_1ProducerDevice.html" target="_top" xlink:title="o2::qc::ProducerDevice">
<polygon fill="none" stroke="black" points="134.5,-114.5 134.5,-133.5 253.5,-133.5 253.5,-114.5 134.5,-114.5"/>
<text text-anchor="middle" x="194" y="-121.5" font-family="Helvetica,sans-Serif" font-size="10.00">o2::qc::ProducerDevice</text>
</a>
</g>
</g>
<!-- Node1&#45;&gt;Node26 -->
<g id="edge25" class="edge"><title>Node1&#45;&gt;Node26</title>
<path fill="none" stroke="midnightblue" d="M40.719,-374.215C41.1793,-326.937 49.2271,-206.614 116,-143 121.184,-138.061 127.439,-134.345 134.116,-131.558"/>
<polygon fill="midnightblue" stroke="midnightblue" points="37.2191,-374.351 40.7312,-384.347 44.219,-374.343 37.2191,-374.351"/>
</g>
<!-- Node27 -->
<g id="node27" class="node"><title>Node27</title>
<g id="a_node27"><a xlink:href="d9/dd9/classo2_1_1qc_1_1ViewerDevice.html" target="_top" xlink:title="o2::qc::ViewerDevice">
<polygon fill="none" stroke="black" points="139,-76.5 139,-95.5 249,-95.5 249,-76.5 139,-76.5"/>
<text text-anchor="middle" x="194" y="-83.5" font-family="Helvetica,sans-Serif" font-size="10.00">o2::qc::ViewerDevice</text>
</a>
</g>
</g>
<!-- Node1&#45;&gt;Node27 -->
<g id="edge26" class="edge"><title>Node1&#45;&gt;Node27</title>
<path fill="none" stroke="midnightblue" d="M43.4865,-374.253C51.2748,-315.502 77.0246,-143.511 116,-105 122.268,-98.8063 130.215,-94.522 138.609,-91.5794"/>
<polygon fill="midnightblue" stroke="midnightblue" points="39.9832,-374.053 42.1697,-384.42 46.9252,-374.952 39.9832,-374.053"/>
</g>
<!-- Node28 -->
<g id="node28" class="node"><title>Node28</title>
<g id="a_node28"><a xlink:href="d3/d79/classO2EPNex.html" target="_top" xlink:title="O2EPNex">
<polygon fill="none" stroke="black" points="163.5,-38.5 163.5,-57.5 224.5,-57.5 224.5,-38.5 163.5,-38.5"/>
<text text-anchor="middle" x="194" y="-45.5" font-family="Helvetica,sans-Serif" font-size="10.00">O2EPNex</text>
</a>
</g>
</g>
<!-- Node1&#45;&gt;Node28 -->
<g id="edge27" class="edge"><title>Node1&#45;&gt;Node28</title>
<path fill="none" stroke="midnightblue" d="M42.852,-374.198C49.2195,-310.348 72.2668,-111.459 116,-67 128.263,-54.5337 147.309,-49.7603 163.39,-48.115"/>
<polygon fill="midnightblue" stroke="midnightblue" points="39.366,-373.885 41.8846,-384.176 46.3334,-374.561 39.366,-373.885"/>
</g>
<!-- Node29 -->
<g id="node29" class="node"><title>Node29</title>
<g id="a_node29"><a xlink:href="d4/d82/classO2FLPex.html" target="_top" xlink:title="O2FLPex">
<polygon fill="none" stroke="black" points="165,-0.5 165,-19.5 223,-19.5 223,-0.5 165,-0.5"/>
<text text-anchor="middle" x="194" y="-7.5" font-family="Helvetica,sans-Serif" font-size="10.00">O2FLPex</text>
</a>
</g>
</g>
<!-- Node1&#45;&gt;Node29 -->
<g id="edge28" class="edge"><title>Node1&#45;&gt;Node29</title>
<path fill="none" stroke="midnightblue" d="M42.3407,-374.196C47.3853,-305.582 67.4688,-79.475 116,-29 128.502,-15.9977 148.371,-11.3272 164.795,-9.86612"/>
<polygon fill="midnightblue" stroke="midnightblue" points="38.8292,-374.235 41.6136,-384.458 45.8117,-374.73 38.8292,-374.235"/>
</g>
<!-- Node5 -->
<g id="node5" class="node"><title>Node5</title>
<g id="a_node5"><a xlink:href="d2/d4c/classo2_1_1DataFlow_1_1FakeTimeframeGeneratorDevice.html" target="_top" xlink:title="A device which writes to file the timeframes. ">
<polygon fill="none" stroke="black" points="316.5,-849 316.5,-879 465.5,-879 465.5,-849 316.5,-849"/>
<text text-anchor="start" x="324.5" y="-867" font-family="Helvetica,sans-Serif" font-size="10.00">o2::DataFlow::FakeTimeframe</text>
<text text-anchor="middle" x="391" y="-856" font-family="Helvetica,sans-Serif" font-size="10.00">GeneratorDevice</text>
</a>
</g>
</g>
<!-- Node4&#45;&gt;Node5 -->
<g id="edge4" class="edge"><title>Node4&#45;&gt;Node5</title>
<path fill="none" stroke="midnightblue" d="M256.165,-711.609C261.976,-714.259 267.403,-717.656 272,-722 311.544,-759.367 269.48,-800.579 308,-839 311.899,-842.889 316.384,-846.176 321.203,-848.954"/>
<polygon fill="midnightblue" stroke="midnightblue" points="257.374,-708.324 246.783,-708.031 254.88,-714.865 257.374,-708.324"/>
</g>
<!-- Node6 -->
<g id="node6" class="node"><title>Node6</title>
<g id="a_node6"><a xlink:href="d3/d5a/classo2_1_1DataFlow_1_1HeartbeatSampler.html" target="_top" xlink:title="A sampler for heartbeat triggers. ">
<polygon fill="none" stroke="black" points="311,-810.5 311,-829.5 471,-829.5 471,-810.5 311,-810.5"/>
<text text-anchor="middle" x="391" y="-817.5" font-family="Helvetica,sans-Serif" font-size="10.00">o2::DataFlow::HeartbeatSampler</text>
</a>
</g>
</g>
<!-- Node4&#45;&gt;Node6 -->
<g id="edge5" class="edge"><title>Node4&#45;&gt;Node6</title>
<path fill="none" stroke="midnightblue" d="M256.268,-712.539C261.938,-715.022 267.307,-718.125 272,-722 301.443,-746.308 278.524,-775.732 308,-800 313.204,-804.284 319.185,-807.675 325.496,-810.354"/>
<polygon fill="midnightblue" stroke="midnightblue" points="257.099,-709.115 246.506,-708.921 254.666,-715.678 257.099,-709.115"/>
</g>
<!-- Node7 -->
<g id="node7" class="node"><title>Node7</title>
<g id="a_node7"><a xlink:href="db/ded/classo2_1_1DataFlow_1_1SubframeBuilderDevice.html" target="_top" xlink:title="o2::DataFlow::SubframeBuilder\lDevice">
<polygon fill="none" stroke="black" points="314.5,-761 314.5,-791 467.5,-791 467.5,-761 314.5,-761"/>
<text text-anchor="start" x="322.5" y="-779" font-family="Helvetica,sans-Serif" font-size="10.00">o2::DataFlow::SubframeBuilder</text>
<text text-anchor="middle" x="391" y="-768" font-family="Helvetica,sans-Serif" font-size="10.00">Device</text>
</a>
</g>
</g>
<!-- Node4&#45;&gt;Node7 -->
<g id="edge6" class="edge"><title>Node4&#45;&gt;Node7</title>
<path fill="none" stroke="midnightblue" d="M256.408,-715.531C261.792,-717.41 267.065,-719.555 272,-722 290.41,-731.122 289.843,-741.385 308,-751 315.102,-754.761 322.857,-758.048 330.673,-760.893"/>
<polygon fill="midnightblue" stroke="midnightblue" points="257.234,-712.121 246.644,-712.429 255.115,-718.793 257.234,-712.121"/>
</g>
<!-- Node8 -->
<g id="node8" class="node"><title>Node8</title>
<g id="a_node8"><a xlink:href="d4/dea/classo2_1_1DataFlow_1_1TimeframeReaderDevice.html" target="_top" xlink:title="A device which writes to file the timeframes. ">
<polygon fill="none" stroke="black" points="311.5,-712 311.5,-742 470.5,-742 470.5,-712 311.5,-712"/>
<text text-anchor="start" x="319.5" y="-730" font-family="Helvetica,sans-Serif" font-size="10.00">o2::DataFlow::TimeframeReader</text>
<text text-anchor="middle" x="391" y="-719" font-family="Helvetica,sans-Serif" font-size="10.00">Device</text>
</a>
</g>
</g>
<!-- Node4&#45;&gt;Node8 -->
<g id="edge7" class="edge"><title>Node4&#45;&gt;Node8</title>
<path fill="none" stroke="midnightblue" d="M256.704,-710.594C273.997,-712.723 293.034,-715.066 311.175,-717.298"/>
<polygon fill="midnightblue" stroke="midnightblue" points="257.097,-707.116 246.744,-709.369 256.242,-714.064 257.097,-707.116"/>
</g>
<!-- Node9 -->
<g id="node9" class="node"><title>Node9</title>
<g id="a_node9"><a xlink:href="d8/d54/classo2_1_1DataFlow_1_1TimeframeValidatorDevice.html" target="_top" xlink:title="A validating device for time frame data (coming from EPN) ">
<polygon fill="none" stroke="black" points="308,-663 308,-693 474,-693 474,-663 308,-663"/>
<text text-anchor="start" x="316" y="-681" font-family="Helvetica,sans-Serif" font-size="10.00">o2::DataFlow::TimeframeValidator</text>
<text text-anchor="middle" x="391" y="-670" font-family="Helvetica,sans-Serif" font-size="10.00">Device</text>
</a>
</g>
</g>
<!-- Node4&#45;&gt;Node9 -->
<g id="edge8" class="edge"><title>Node4&#45;&gt;Node9</title>
<path fill="none" stroke="midnightblue" d="M257.101,-695.038C273.222,-692.972 290.837,-690.713 307.817,-688.536"/>
<polygon fill="midnightblue" stroke="midnightblue" points="256.218,-691.623 246.744,-696.366 257.108,-698.566 256.218,-691.623"/>
</g>
<!-- Node10 -->
<g id="node10" class="node"><title>Node10</title>
<g id="a_node10"><a xlink:href="d0/d3e/classo2_1_1DataFlow_1_1TimeframeWriterDevice.html" target="_top" xlink:title="A device which writes to file the timeframes. ">
<polygon fill="none" stroke="black" points="314,-614 314,-644 468,-644 468,-614 314,-614"/>
<text text-anchor="start" x="322" y="-632" font-family="Helvetica,sans-Serif" font-size="10.00">o2::DataFlow::TimeframeWriter</text>
<text text-anchor="middle" x="391" y="-621" font-family="Helvetica,sans-Serif" font-size="10.00">Device</text>
</a>
</g>
</g>
<!-- Node4&#45;&gt;Node10 -->
<g id="edge9" class="edge"><title>Node4&#45;&gt;Node10</title>
<path fill="none" stroke="midnightblue" d="M256.452,-690.556C261.827,-688.659 267.085,-686.486 272,-684 290.585,-674.599 289.676,-663.9 308,-654 314.94,-650.251 322.521,-646.982 330.18,-644.156"/>
<polygon fill="midnightblue" stroke="midnightblue" points="255.154,-687.297 246.699,-693.681 257.291,-693.963 255.154,-687.297"/>
</g>
<!-- Node11 -->
<g id="node11" class="node"><title>Node11</title>
<g id="a_node11"><a xlink:href="d7/dd8/classo2_1_1utilities_1_1DataPublisherDevice.html" target="_top" xlink:title="o2::utilities::DataPublisher\lDevice">
<polygon fill="none" stroke="black" points="325.5,-565 325.5,-595 456.5,-595 456.5,-565 325.5,-565"/>
<text text-anchor="start" x="333.5" y="-583" font-family="Helvetica,sans-Serif" font-size="10.00">o2::utilities::DataPublisher</text>
<text text-anchor="middle" x="391" y="-572" font-family="Helvetica,sans-Serif" font-size="10.00">Device</text>
</a>
</g>
</g>
<!-- Node4&#45;&gt;Node11 -->
<g id="edge10" class="edge"><title>Node4&#45;&gt;Node11</title>
<path fill="none" stroke="midnightblue" d="M256.287,-693.484C261.954,-690.997 267.316,-687.886 272,-684 301.695,-659.363 278.981,-630.43 308,-605 313.149,-600.488 319.095,-596.79 325.386,-593.76"/>
<polygon fill="midnightblue" stroke="midnightblue" points="254.686,-690.345 246.53,-697.107 257.123,-696.907 254.686,-690.345"/>
</g>
<!-- Node12 -->
<g id="node12" class="node"><title>Node12</title>
<g id="a_node12"><a xlink:href="de/d01/classO2MessageMonitor.html" target="_top" xlink:title="O2MessageMonitor">
<polygon fill="none" stroke="black" points="340.5,-526.5 340.5,-545.5 441.5,-545.5 441.5,-526.5 340.5,-526.5"/>
<text text-anchor="middle" x="391" y="-533.5" font-family="Helvetica,sans-Serif" font-size="10.00">O2MessageMonitor</text>
</a>
</g>
</g>
<!-- Node4&#45;&gt;Node12 -->
<g id="edge11" class="edge"><title>Node4&#45;&gt;Node12</title>
<path fill="none" stroke="midnightblue" d="M256.024,-694.617C261.909,-691.93 267.391,-688.463 272,-684 314.456,-642.892 265.489,-597.051 308,-556 316.749,-547.551 328.444,-542.479 340.256,-539.481"/>
<polygon fill="midnightblue" stroke="midnightblue" points="254.62,-691.406 246.514,-698.228 257.105,-697.951 254.62,-691.406"/>
</g>
</g>
</svg>
