<?xml version="1.0" encoding="UTF-8" standalone="no"?>
<!DOCTYPE svg PUBLIC "-//W3C//DTD SVG 1.1//EN"
 "http://www.w3.org/Graphics/SVG/1.1/DTD/svg11.dtd">
<!-- Generated by graphviz version 2.36.0 (20140111.2315)
 -->
<!-- Title: Graphical Class Hierarchy Pages: 1 -->
<svg width="460pt" height="750pt"
 viewBox="0.00 0.00 460.00 750.00" xmlns="http://www.w3.org/2000/svg" xmlns:xlink="http://www.w3.org/1999/xlink">
<g id="graph0" class="graph" transform="scale(1 1) rotate(0) translate(4 746)">
<title>Graphical Class Hierarchy</title>
<!-- Node1 -->
<g id="node1" class="node"><title>Node1</title>
<polygon fill="none" stroke="#bfbfbf" points="0.5,-361.5 0.5,-380.5 51.5,-380.5 51.5,-361.5 0.5,-361.5"/>
<text text-anchor="middle" x="26" y="-368.5" font-family="Helvetica,sans-Serif" font-size="10.00">TObject</text>
</g>
<!-- Node2 -->
<g id="node2" class="node"><title>Node2</title>
<g id="a_node2"><a xlink:href="da/d30/classo2_1_1BaseCluster.html" target="_top" xlink:title="o2::BaseCluster\&lt; float \&gt;">
<polygon fill="none" stroke="black" points="106,-722.5 106,-741.5 230,-741.5 230,-722.5 106,-722.5"/>
<text text-anchor="middle" x="168" y="-729.5" font-family="Helvetica,sans-Serif" font-size="10.00">o2::BaseCluster&lt; float &gt;</text>
</a>
</g>
</g>
<!-- Node1&#45;&gt;Node2 -->
<g id="edge1" class="edge"><title>Node1&#45;&gt;Node2</title>
<path fill="none" stroke="midnightblue" d="M27.7679,-390.797C30.7227,-456.492 43.521,-665.792 88,-713 92.9335,-718.236 99.0366,-722.14 105.648,-725.035"/>
<polygon fill="midnightblue" stroke="midnightblue" points="31.2555,-390.427 27.3374,-380.583 24.2617,-390.722 31.2555,-390.427"/>
</g>
<!-- Node4 -->
<g id="node4" class="node"><title>Node4</title>
<g id="a_node4"><a xlink:href="d2/da4/classo2_1_1Base_1_1GeometryManager.html" target="_top" xlink:title="o2::Base::GeometryManager">
<polygon fill="none" stroke="black" points="97,-684.5 97,-703.5 239,-703.5 239,-684.5 97,-684.5"/>
<text text-anchor="middle" x="168" y="-691.5" font-family="Helvetica,sans-Serif" font-size="10.00">o2::Base::GeometryManager</text>
</a>
</g>
</g>
<!-- Node1&#45;&gt;Node4 -->
<g id="edge3" class="edge"><title>Node1&#45;&gt;Node4</title>
<path fill="none" stroke="midnightblue" d="M28.2603,-390.938C32.5161,-451.847 48.3675,-633.832 88,-675 91.6199,-678.76 95.8436,-681.83 100.421,-684.331"/>
<polygon fill="midnightblue" stroke="midnightblue" points="31.7379,-390.485 27.5787,-380.741 24.7535,-390.952 31.7379,-390.485"/>
</g>
<!-- Node5 -->
<g id="node5" class="node"><title>Node5</title>
<g id="a_node5"><a xlink:href="da/d30/classo2_1_1BaseCluster.html" target="_top" xlink:title="o2::BaseCluster\&lt; T \&gt;">
<polygon fill="none" stroke="black" points="112.5,-646.5 112.5,-665.5 223.5,-665.5 223.5,-646.5 112.5,-646.5"/>
<text text-anchor="middle" x="168" y="-653.5" font-family="Helvetica,sans-Serif" font-size="10.00">o2::BaseCluster&lt; T &gt;</text>
</a>
</g>
</g>
<!-- Node1&#45;&gt;Node5 -->
<g id="edge4" class="edge"><title>Node1&#45;&gt;Node5</title>
<path fill="none" stroke="midnightblue" d="M28.8818,-390.947C34.5332,-446.597 53.1554,-601.784 88,-637 94.6475,-643.718 103.227,-648.222 112.271,-651.209"/>
<polygon fill="midnightblue" stroke="midnightblue" points="32.3324,-390.271 27.8716,-380.662 25.3659,-390.956 32.3324,-390.271"/>
</g>
<!-- Node6 -->
<g id="node6" class="node"><title>Node6</title>
<g id="a_node6"><a xlink:href="d8/dcd/classo2_1_1CDB_1_1Condition.html" target="_top" xlink:title="o2::CDB::Condition">
<polygon fill="none" stroke="black" points="117,-608.5 117,-627.5 219,-627.5 219,-608.5 117,-608.5"/>
<text text-anchor="middle" x="168" y="-615.5" font-family="Helvetica,sans-Serif" font-size="10.00">o2::CDB::Condition</text>
</a>
</g>
</g>
<!-- Node1&#45;&gt;Node6 -->
<g id="edge5" class="edge"><title>Node1&#45;&gt;Node6</title>
<path fill="none" stroke="midnightblue" d="M29.6661,-390.69C36.8003,-440.494 57.8545,-569.611 88,-599 95.8784,-606.681 106.29,-611.445 116.959,-614.357"/>
<polygon fill="midnightblue" stroke="midnightblue" points="33.1038,-390 28.2546,-380.581 26.171,-390.968 33.1038,-390"/>
</g>
<!-- Node7 -->
<g id="node7" class="node"><title>Node7</title>
<g id="a_node7"><a xlink:href="d7/dc9/classo2_1_1CDB_1_1ConditionId.html" target="_top" xlink:title="o2::CDB::ConditionId">
<polygon fill="none" stroke="black" points="113,-570.5 113,-589.5 223,-589.5 223,-570.5 113,-570.5"/>
<text text-anchor="middle" x="168" y="-577.5" font-family="Helvetica,sans-Serif" font-size="10.00">o2::CDB::ConditionId</text>
</a>
</g>
</g>
<!-- Node1&#45;&gt;Node7 -->
<g id="edge6" class="edge"><title>Node1&#45;&gt;Node7</title>
<path fill="none" stroke="midnightblue" d="M27.3336,-391.028C29.1125,-429.797 38.7511,-515.296 88,-561 94.9277,-567.429 103.64,-571.794 112.729,-574.736"/>
<polygon fill="midnightblue" stroke="midnightblue" points="30.8178,-390.475 26.9987,-380.592 23.8214,-390.699 30.8178,-390.475"/>
</g>
<!-- Node8 -->
<g id="node8" class="node"><title>Node8</title>
<g id="a_node8"><a xlink:href="d8/d14/classo2_1_1CDB_1_1ConditionMetaData.html" target="_top" xlink:title="o2::CDB::ConditionMetaData">
<polygon fill="none" stroke="black" points="95.5,-532.5 95.5,-551.5 240.5,-551.5 240.5,-532.5 95.5,-532.5"/>
<text text-anchor="middle" x="168" y="-539.5" font-family="Helvetica,sans-Serif" font-size="10.00">o2::CDB::ConditionMetaData</text>
</a>
</g>
</g>
<!-- Node1&#45;&gt;Node8 -->
<g id="edge7" class="edge"><title>Node1&#45;&gt;Node8</title>
<path fill="none" stroke="midnightblue" d="M29.1401,-390.62C33.769,-423.185 47.775,-488.244 88,-523 92.483,-526.874 97.6215,-529.987 103.08,-532.487"/>
<polygon fill="midnightblue" stroke="midnightblue" points="32.5947,-390.041 27.8662,-380.56 25.6502,-390.921 32.5947,-390.041"/>
</g>
<!-- Node9 -->
<g id="node9" class="node"><title>Node9</title>
<g id="a_node9"><a xlink:href="d6/dae/classo2_1_1CDB_1_1IdPath.html" target="_top" xlink:title="o2::CDB::IdPath">
<polygon fill="none" stroke="black" points="123.5,-494.5 123.5,-513.5 212.5,-513.5 212.5,-494.5 123.5,-494.5"/>
<text text-anchor="middle" x="168" y="-501.5" font-family="Helvetica,sans-Serif" font-size="10.00">o2::CDB::IdPath</text>
</a>
</g>
</g>
<!-- Node1&#45;&gt;Node9 -->
<g id="edge8" class="edge"><title>Node1&#45;&gt;Node9</title>
<path fill="none" stroke="midnightblue" d="M32.0048,-390.419C39.6521,-416.086 56.7579,-460.865 88,-485 98.047,-492.761 110.794,-497.414 123.1,-500.184"/>
<polygon fill="midnightblue" stroke="midnightblue" points="35.353,-389.396 29.2928,-380.706 28.6108,-391.278 35.353,-389.396"/>
</g>
<!-- Node10 -->
<g id="node10" class="node"><title>Node10</title>
<g id="a_node10"><a xlink:href="d5/dc9/classo2_1_1CDB_1_1IdRunRange.html" target="_top" xlink:title="o2::CDB::IdRunRange">
<polygon fill="none" stroke="black" points="110,-456.5 110,-475.5 226,-475.5 226,-456.5 110,-456.5"/>
<text text-anchor="middle" x="168" y="-463.5" font-family="Helvetica,sans-Serif" font-size="10.00">o2::CDB::IdRunRange</text>
</a>
</g>
</g>
<!-- Node1&#45;&gt;Node10 -->
<g id="edge9" class="edge"><title>Node1&#45;&gt;Node10</title>
<path fill="none" stroke="midnightblue" d="M36.9259,-389.383C47.3388,-406.885 65.3368,-432.625 88,-447 94.6709,-451.231 102.204,-454.52 109.902,-457.077"/>
<polygon fill="midnightblue" stroke="midnightblue" points="39.9314,-387.588 31.9399,-380.632 33.8493,-391.053 39.9314,-387.588"/>
</g>
<!-- Node11 -->
<g id="node11" class="node"><title>Node11</title>
<g id="a_node11"><a xlink:href="d2/d59/classo2_1_1CDB_1_1Manager.html" target="_top" xlink:title="o2::CDB::Manager">
<polygon fill="none" stroke="black" points="119,-418.5 119,-437.5 217,-437.5 217,-418.5 119,-418.5"/>
<text text-anchor="middle" x="168" y="-425.5" font-family="Helvetica,sans-Serif" font-size="10.00">o2::CDB::Manager</text>
</a>
</g>
</g>
<!-- Node1&#45;&gt;Node11 -->
<g id="edge10" class="edge"><title>Node1&#45;&gt;Node11</title>
<path fill="none" stroke="midnightblue" d="M48.2374,-386.594C59.5626,-394.285 74.0151,-403.144 88,-409 97.6286,-413.032 108.292,-416.321 118.587,-418.959"/>
<polygon fill="midnightblue" stroke="midnightblue" points="50.0939,-383.621 39.8939,-380.756 46.0807,-389.357 50.0939,-383.621"/>
</g>
<!-- Node12 -->
<g id="node12" class="node"><title>Node12</title>
<g id="a_node12"><a xlink:href="df/d3a/classo2_1_1CDB_1_1Storage.html" target="_top" xlink:title="o2::CDB::Storage">
<polygon fill="none" stroke="black" points="120.5,-380.5 120.5,-399.5 215.5,-399.5 215.5,-380.5 120.5,-380.5"/>
<text text-anchor="middle" x="168" y="-387.5" font-family="Helvetica,sans-Serif" font-size="10.00">o2::CDB::Storage</text>
</a>
</g>
</g>
<!-- Node1&#45;&gt;Node12 -->
<g id="edge11" class="edge"><title>Node1&#45;&gt;Node12</title>
<path fill="none" stroke="midnightblue" d="M61.6353,-375.701C79.3932,-378.111 101.269,-381.079 120.478,-383.686"/>
<polygon fill="midnightblue" stroke="midnightblue" points="62.0868,-372.23 51.7069,-374.353 61.1454,-379.166 62.0868,-372.23"/>
</g>
<!-- Node16 -->
<g id="node16" class="node"><title>Node16</title>
<g id="a_node16"><a xlink:href="dd/d3f/classo2_1_1CDB_1_1StorageFactory.html" target="_top" xlink:title="o2::CDB::StorageFactory">
<polygon fill="none" stroke="black" points="104,-342.5 104,-361.5 232,-361.5 232,-342.5 104,-342.5"/>
<text text-anchor="middle" x="168" y="-349.5" font-family="Helvetica,sans-Serif" font-size="10.00">o2::CDB::StorageFactory</text>
</a>
</g>
</g>
<!-- Node1&#45;&gt;Node16 -->
<g id="edge15" class="edge"><title>Node1&#45;&gt;Node16</title>
<path fill="none" stroke="midnightblue" d="M61.8371,-366.272C74.5464,-364.547 89.3448,-362.539 103.757,-360.583"/>
<polygon fill="midnightblue" stroke="midnightblue" points="61.1454,-362.834 51.7069,-367.647 62.0868,-369.77 61.1454,-362.834"/>
</g>
<!-- Node20 -->
<g id="node20" class="node"><title>Node20</title>
<g id="a_node20"><a xlink:href="d2/d64/classo2_1_1CDB_1_1StorageParameters.html" target="_top" xlink:title="o2::CDB::StorageParameters">
<polygon fill="none" stroke="black" points="95.5,-304.5 95.5,-323.5 240.5,-323.5 240.5,-304.5 95.5,-304.5"/>
<text text-anchor="middle" x="168" y="-311.5" font-family="Helvetica,sans-Serif" font-size="10.00">o2::CDB::StorageParameters</text>
</a>
</g>
</g>
<!-- Node1&#45;&gt;Node20 -->
<g id="edge19" class="edge"><title>Node1&#45;&gt;Node20</title>
<path fill="none" stroke="midnightblue" d="M48.2374,-355.406C59.5626,-347.715 74.0151,-338.856 88,-333 96.978,-329.24 106.855,-326.127 116.495,-323.585"/>
<polygon fill="midnightblue" stroke="midnightblue" points="46.0807,-352.643 39.8939,-361.244 50.0939,-358.379 46.0807,-352.643"/>
</g>
<!-- Node24 -->
<g id="node24" class="node"><title>Node24</title>
<g id="a_node24"><a xlink:href="d4/d8b/classo2_1_1CDB_1_1XmlHandler.html" target="_top" xlink:title="o2::CDB::XmlHandler">
<polygon fill="none" stroke="black" points="112,-266.5 112,-285.5 224,-285.5 224,-266.5 112,-266.5"/>
<text text-anchor="middle" x="168" y="-273.5" font-family="Helvetica,sans-Serif" font-size="10.00">o2::CDB::XmlHandler</text>
</a>
</g>
</g>
<!-- Node1&#45;&gt;Node24 -->
<g id="edge23" class="edge"><title>Node1&#45;&gt;Node24</title>
<path fill="none" stroke="midnightblue" d="M36.9259,-352.617C47.3388,-335.115 65.3368,-309.375 88,-295 95.2665,-290.391 103.556,-286.9 111.967,-284.255"/>
<polygon fill="midnightblue" stroke="midnightblue" points="33.8493,-350.947 31.9399,-361.368 39.9314,-354.412 33.8493,-350.947"/>
</g>
<!-- Node25 -->
<g id="node25" class="node"><title>Node25</title>
<g id="a_node25"><a xlink:href="d6/d00/classo2_1_1EMCAL_1_1Digitizer.html" target="_top" xlink:title="o2::EMCAL::Digitizer">
<polygon fill="none" stroke="black" points="113,-228.5 113,-247.5 223,-247.5 223,-228.5 113,-228.5"/>
<text text-anchor="middle" x="168" y="-235.5" font-family="Helvetica,sans-Serif" font-size="10.00">o2::EMCAL::Digitizer</text>
</a>
</g>
</g>
<!-- Node1&#45;&gt;Node25 -->
<g id="edge24" class="edge"><title>Node1&#45;&gt;Node25</title>
<path fill="none" stroke="midnightblue" d="M32.0048,-351.581C39.6521,-325.914 56.7579,-281.135 88,-257 95.2562,-251.395 103.921,-247.411 112.81,-244.586"/>
<polygon fill="midnightblue" stroke="midnightblue" points="28.6108,-350.722 29.2928,-361.294 35.353,-352.604 28.6108,-350.722"/>
</g>
<!-- Node26 -->
<g id="node26" class="node"><title>Node26</title>
<g id="a_node26"><a xlink:href="d6/d5b/classo2_1_1ITS_1_1V11Geometry.html" target="_top" xlink:title="o2::ITS::V11Geometry">
<polygon fill="none" stroke="black" points="110.5,-190.5 110.5,-209.5 225.5,-209.5 225.5,-190.5 110.5,-190.5"/>
<text text-anchor="middle" x="168" y="-197.5" font-family="Helvetica,sans-Serif" font-size="10.00">o2::ITS::V11Geometry</text>
</a>
</g>
</g>
<!-- Node1&#45;&gt;Node26 -->
<g id="edge25" class="edge"><title>Node1&#45;&gt;Node26</title>
<path fill="none" stroke="midnightblue" d="M29.1401,-351.38C33.769,-318.815 47.775,-253.756 88,-219 94.4043,-213.466 102.146,-209.483 110.247,-206.627"/>
<polygon fill="midnightblue" stroke="midnightblue" points="25.6502,-351.079 27.8662,-361.44 32.5947,-351.959 25.6502,-351.079"/>
</g>
<!-- Node29 -->
<g id="node29" class="node"><title>Node29</title>
<g id="a_node29"><a xlink:href="d9/d42/classo2_1_1ITSMFT_1_1ClusterShape.html" target="_top" xlink:title="o2::ITSMFT::ClusterShape">
<polygon fill="none" stroke="black" points="101,-152.5 101,-171.5 235,-171.5 235,-152.5 101,-152.5"/>
<text text-anchor="middle" x="168" y="-159.5" font-family="Helvetica,sans-Serif" font-size="10.00">o2::ITSMFT::ClusterShape</text>
</a>
</g>
</g>
<!-- Node1&#45;&gt;Node29 -->
<g id="edge28" class="edge"><title>Node1&#45;&gt;Node29</title>
<path fill="none" stroke="midnightblue" d="M27.3336,-350.972C29.1125,-312.203 38.7511,-226.704 88,-181 92.136,-177.162 96.9081,-174.059 102.017,-171.556"/>
<polygon fill="midnightblue" stroke="midnightblue" points="23.8214,-351.301 26.9987,-361.408 30.8178,-351.525 23.8214,-351.301"/>
</g>
<!-- Node30 -->
<g id="node30" class="node"><title>Node30</title>
<g id="a_node30"><a xlink:href="d8/d92/classo2_1_1ITSMFT_1_1Digitizer.html" target="_top" xlink:title="o2::ITSMFT::Digitizer">
<polygon fill="none" stroke="black" points="112.5,-114.5 112.5,-133.5 223.5,-133.5 223.5,-114.5 112.5,-114.5"/>
<text text-anchor="middle" x="168" y="-121.5" font-family="Helvetica,sans-Serif" font-size="10.00">o2::ITSMFT::Digitizer</text>
</a>
</g>
</g>
<!-- Node1&#45;&gt;Node30 -->
<g id="edge29" class="edge"><title>Node1&#45;&gt;Node30</title>
<path fill="none" stroke="midnightblue" d="M29.6661,-351.31C36.8003,-301.506 57.8545,-172.389 88,-143 94.7674,-136.402 103.404,-131.957 112.467,-128.989"/>
<polygon fill="midnightblue" stroke="midnightblue" points="26.171,-351.032 28.2546,-361.419 33.1038,-352 26.171,-351.032"/>
</g>
<!-- Node31 -->
<g id="node31" class="node"><title>Node31</title>
<g id="a_node31"><a xlink:href="dc/ddc/classo2_1_1ITSMFT_1_1SDigit.html" target="_top" xlink:title="o2::ITSMFT::SDigit">
<polygon fill="none" stroke="black" points="117,-76.5 117,-95.5 219,-95.5 219,-76.5 117,-76.5"/>
<text text-anchor="middle" x="168" y="-83.5" font-family="Helvetica,sans-Serif" font-size="10.00">o2::ITSMFT::SDigit</text>
</a>
</g>
</g>
<!-- Node1&#45;&gt;Node31 -->
<g id="edge30" class="edge"><title>Node1&#45;&gt;Node31</title>
<path fill="none" stroke="midnightblue" d="M28.8818,-351.053C34.5332,-295.403 53.1554,-140.216 88,-105 95.7389,-97.1786 106.096,-92.3595 116.757,-89.4393"/>
<polygon fill="midnightblue" stroke="midnightblue" points="25.3659,-351.044 27.8716,-361.338 32.3324,-351.729 25.3659,-351.044"/>
</g>
<!-- Node32 -->
<g id="node32" class="node"><title>Node32</title>
<g id="a_node32"><a xlink:href="d8/dc5/classo2_1_1ITSMFT_1_1SimuClusterShaper.html" target="_top" xlink:title="o2::ITSMFT::SimuClusterShaper">
<polygon fill="none" stroke="black" points="88,-38.5 88,-57.5 248,-57.5 248,-38.5 88,-38.5"/>
<text text-anchor="middle" x="168" y="-45.5" font-family="Helvetica,sans-Serif" font-size="10.00">o2::ITSMFT::SimuClusterShaper</text>
</a>
</g>
</g>
<!-- Node1&#45;&gt;Node32 -->
<g id="edge31" class="edge"><title>Node1&#45;&gt;Node32</title>
<path fill="none" stroke="midnightblue" d="M28.2603,-351.062C32.5161,-290.153 48.3675,-108.168 88,-67 91.6199,-63.2399 95.8436,-60.1698 100.421,-57.6688"/>
<polygon fill="midnightblue" stroke="midnightblue" points="24.7535,-351.048 27.5787,-361.259 31.7379,-351.515 24.7535,-351.048"/>
</g>
<!-- Node33 -->
<g id="node33" class="node"><title>Node33</title>
<g id="a_node33"><a xlink:href="d7/d2d/classo2_1_1TObjectWrapper.html" target="_top" xlink:title="o2::TObjectWrapper\&lt; T \&gt;">
<polygon fill="none" stroke="black" points="104,-0.5 104,-19.5 232,-19.5 232,-0.5 104,-0.5"/>
<text text-anchor="middle" x="168" y="-7.5" font-family="Helvetica,sans-Serif" font-size="10.00">o2::TObjectWrapper&lt; T &gt;</text>
</a>
</g>
</g>
<!-- Node1&#45;&gt;Node33 -->
<g id="edge32" class="edge"><title>Node1&#45;&gt;Node33</title>
<path fill="none" stroke="midnightblue" d="M27.7679,-351.203C30.7227,-285.508 43.521,-76.2083 88,-29 92.4498,-24.2771 97.8512,-20.6381 103.718,-17.8459"/>
<polygon fill="midnightblue" stroke="midnightblue" points="24.2617,-351.278 27.3374,-361.417 31.2555,-351.573 24.2617,-351.278"/>
</g>
<!-- Node3 -->
<g id="node3" class="node"><title>Node3</title>
<g id="a_node3"><a xlink:href="d1/d15/classo2_1_1ITSMFT_1_1Cluster.html" target="_top" xlink:title="Cluster class for the ITSMFT. ">
<polygon fill="none" stroke="black" points="314.5,-722.5 314.5,-741.5 421.5,-741.5 421.5,-722.5 314.5,-722.5"/>
<text text-anchor="middle" x="368" y="-729.5" font-family="Helvetica,sans-Serif" font-size="10.00">o2::ITSMFT::Cluster</text>
</a>
</g>
</g>
<!-- Node2&#45;&gt;Node3 -->
<g id="edge2" class="edge"><title>Node2&#45;&gt;Node3</title>
<path fill="none" stroke="midnightblue" d="M240.309,-732C264.704,-732 291.539,-732 314.207,-732"/>
<polygon fill="midnightblue" stroke="midnightblue" points="240.022,-728.5 230.022,-732 240.022,-735.5 240.022,-728.5"/>
</g>
<!-- Node13 -->
<g id="node13" class="node"><title>Node13</title>
<g id="a_node13"><a xlink:href="d2/d33/classo2_1_1CDB_1_1FileStorage.html" target="_top" xlink:title="o2::CDB::FileStorage">
<polygon fill="none" stroke="black" points="313,-532.5 313,-551.5 423,-551.5 423,-532.5 313,-532.5"/>
<text text-anchor="middle" x="368" y="-539.5" font-family="Helvetica,sans-Serif" font-size="10.00">o2::CDB::FileStorage</text>
</a>
</g>
</g>
<!-- Node12&#45;&gt;Node13 -->
<g id="edge12" class="edge"><title>Node12&#45;&gt;Node13</title>
<path fill="none" stroke="midnightblue" d="M225.127,-395.852C233.548,-398.78 241.554,-402.989 248,-409 286.86,-445.236 244.942,-486.978 284,-523 292.041,-530.416 302.369,-535.132 312.989,-538.09"/>
<polygon fill="midnightblue" stroke="midnightblue" points="226.085,-392.486 215.506,-393.063 224.136,-399.209 226.085,-392.486"/>
</g>
<!-- Node14 -->
<g id="node14" class="node"><title>Node14</title>
<g id="a_node14"><a xlink:href="dd/ddb/classo2_1_1CDB_1_1GridStorage.html" target="_top" xlink:title="o2::CDB::GridStorage">
<polygon fill="none" stroke="black" points="311.5,-494.5 311.5,-513.5 424.5,-513.5 424.5,-494.5 311.5,-494.5"/>
<text text-anchor="middle" x="368" y="-501.5" font-family="Helvetica,sans-Serif" font-size="10.00">o2::CDB::GridStorage</text>
</a>
</g>
</g>
<!-- Node12&#45;&gt;Node14 -->
<g id="edge13" class="edge"><title>Node12&#45;&gt;Node14</title>
<path fill="none" stroke="midnightblue" d="M225.31,-396.921C233.503,-399.736 241.39,-403.63 248,-409 277.01,-432.566 254.861,-461.594 284,-485 291.837,-491.295 301.367,-495.586 311.137,-498.494"/>
<polygon fill="midnightblue" stroke="midnightblue" points="226.19,-393.532 215.61,-394.088 224.227,-400.251 226.19,-393.532"/>
</g>
<!-- Node15 -->
<g id="node15" class="node"><title>Node15</title>
<g id="a_node15"><a xlink:href="d6/dba/classo2_1_1CDB_1_1LocalStorage.html" target="_top" xlink:title="o2::CDB::LocalStorage">
<polygon fill="none" stroke="black" points="309,-456.5 309,-475.5 427,-475.5 427,-456.5 309,-456.5"/>
<text text-anchor="middle" x="368" y="-463.5" font-family="Helvetica,sans-Serif" font-size="10.00">o2::CDB::LocalStorage</text>
</a>
</g>
</g>
<!-- Node12&#45;&gt;Node15 -->
<g id="edge14" class="edge"><title>Node12&#45;&gt;Node15</title>
<path fill="none" stroke="midnightblue" d="M225.687,-399.397C233.466,-401.885 241.131,-405.028 248,-409 268.14,-420.645 263.796,-435.466 284,-447 291.574,-451.324 300.066,-454.664 308.65,-457.244"/>
<polygon fill="midnightblue" stroke="midnightblue" points="226.401,-395.961 215.824,-396.584 224.481,-402.692 226.401,-395.961"/>
</g>
<!-- Node17 -->
<g id="node17" class="node"><title>Node17</title>
<g id="a_node17"><a xlink:href="d2/d56/classo2_1_1CDB_1_1FileStorageFactory.html" target="_top" xlink:title="o2::CDB::FileStorageFactory">
<polygon fill="none" stroke="black" points="296.5,-418.5 296.5,-437.5 439.5,-437.5 439.5,-418.5 296.5,-418.5"/>
<text text-anchor="middle" x="368" y="-425.5" font-family="Helvetica,sans-Serif" font-size="10.00">o2::CDB::FileStorageFactory</text>
</a>
</g>
</g>
<!-- Node16&#45;&gt;Node17 -->
<g id="edge16" class="edge"><title>Node16&#45;&gt;Node17</title>
<path fill="none" stroke="midnightblue" d="M235.711,-365.027C239.98,-366.774 244.117,-368.755 248,-371 268.14,-382.645 263.796,-397.466 284,-409 290.804,-412.884 298.348,-415.975 306.035,-418.433"/>
<polygon fill="midnightblue" stroke="midnightblue" points="236.8,-361.699 226.206,-361.564 234.403,-368.276 236.8,-361.699"/>
</g>
<!-- Node18 -->
<g id="node18" class="node"><title>Node18</title>
<g id="a_node18"><a xlink:href="dd/dcc/classo2_1_1CDB_1_1GridStorageFactory.html" target="_top" xlink:title="o2::CDB::GridStorageFactory">
<polygon fill="none" stroke="black" points="295,-380.5 295,-399.5 441,-399.5 441,-380.5 295,-380.5"/>
<text text-anchor="middle" x="368" y="-387.5" font-family="Helvetica,sans-Serif" font-size="10.00">o2::CDB::GridStorageFactory</text>
</a>
</g>
</g>
<!-- Node16&#45;&gt;Node18 -->
<g id="edge17" class="edge"><title>Node16&#45;&gt;Node18</title>
<path fill="none" stroke="midnightblue" d="M228.866,-363.489C257.117,-368.911 290.436,-375.306 317.271,-380.456"/>
<polygon fill="midnightblue" stroke="midnightblue" points="229.189,-359.988 218.708,-361.54 227.869,-366.862 229.189,-359.988"/>
</g>
<!-- Node19 -->
<g id="node19" class="node"><title>Node19</title>
<g id="a_node19"><a xlink:href="d4/d68/classo2_1_1CDB_1_1LocalStorageFactory.html" target="_top" xlink:title="o2::CDB::LocalStorageFactory">
<polygon fill="none" stroke="black" points="292.5,-342.5 292.5,-361.5 443.5,-361.5 443.5,-342.5 292.5,-342.5"/>
<text text-anchor="middle" x="368" y="-349.5" font-family="Helvetica,sans-Serif" font-size="10.00">o2::CDB::LocalStorageFactory</text>
</a>
</g>
</g>
<!-- Node16&#45;&gt;Node19 -->
<g id="edge18" class="edge"><title>Node16&#45;&gt;Node19</title>
<path fill="none" stroke="midnightblue" d="M242.22,-352C258.562,-352 275.911,-352 292.311,-352"/>
<polygon fill="midnightblue" stroke="midnightblue" points="242.193,-348.5 232.193,-352 242.193,-355.5 242.193,-348.5"/>
</g>
<!-- Node21 -->
<g id="node21" class="node"><title>Node21</title>
<g id="a_node21"><a xlink:href="d4/d3f/classo2_1_1CDB_1_1FileStorageParameters.html" target="_top" xlink:title="o2::CDB::FileStorageParameters">
<polygon fill="none" stroke="black" points="287.5,-304.5 287.5,-323.5 448.5,-323.5 448.5,-304.5 287.5,-304.5"/>
<text text-anchor="middle" x="368" y="-311.5" font-family="Helvetica,sans-Serif" font-size="10.00">o2::CDB::FileStorageParameters</text>
</a>
</g>
</g>
<!-- Node20&#45;&gt;Node21 -->
<g id="edge20" class="edge"><title>Node20&#45;&gt;Node21</title>
<path fill="none" stroke="midnightblue" d="M250.829,-314C262.931,-314 275.386,-314 287.441,-314"/>
<polygon fill="midnightblue" stroke="midnightblue" points="250.763,-310.5 240.762,-314 250.762,-317.5 250.763,-310.5"/>
</g>
<!-- Node22 -->
<g id="node22" class="node"><title>Node22</title>
<g id="a_node22"><a xlink:href="d7/dde/classo2_1_1CDB_1_1GridStorageParameters.html" target="_top" xlink:title="o2::CDB::GridStorageParameters">
<polygon fill="none" stroke="black" points="286.5,-266.5 286.5,-285.5 449.5,-285.5 449.5,-266.5 286.5,-266.5"/>
<text text-anchor="middle" x="368" y="-273.5" font-family="Helvetica,sans-Serif" font-size="10.00">o2::CDB::GridStorageParameters</text>
</a>
</g>
</g>
<!-- Node20&#45;&gt;Node22 -->
<g id="edge21" class="edge"><title>Node20&#45;&gt;Node22</title>
<path fill="none" stroke="midnightblue" d="M228.866,-302.511C257.117,-297.089 290.436,-290.694 317.271,-285.544"/>
<polygon fill="midnightblue" stroke="midnightblue" points="227.869,-299.138 218.708,-304.46 229.189,-306.012 227.869,-299.138"/>
</g>
<!-- Node23 -->
<g id="node23" class="node"><title>Node23</title>
<g id="a_node23"><a xlink:href="db/dab/classo2_1_1CDB_1_1LocalStorageParameters.html" target="_top" xlink:title="o2::CDB::LocalStorageParameters">
<polygon fill="none" stroke="black" points="284,-228.5 284,-247.5 452,-247.5 452,-228.5 284,-228.5"/>
<text text-anchor="middle" x="368" y="-235.5" font-family="Helvetica,sans-Serif" font-size="10.00">o2::CDB::LocalStorageParameters</text>
</a>
</g>
</g>
<!-- Node20&#45;&gt;Node23 -->
<g id="edge22" class="edge"><title>Node20&#45;&gt;Node23</title>
<path fill="none" stroke="midnightblue" d="M235.711,-300.973C239.98,-299.226 244.117,-297.245 248,-295 268.14,-283.355 263.796,-268.534 284,-257 290.804,-253.116 298.348,-250.025 306.035,-247.567"/>
<polygon fill="midnightblue" stroke="midnightblue" points="234.403,-297.724 226.206,-304.436 236.8,-304.301 234.403,-297.724"/>
</g>
<!-- Node27 -->
<g id="node27" class="node"><title>Node27</title>
<g id="a_node27"><a xlink:href="df/daf/classo2_1_1ITS_1_1V1Layer.html" target="_top" xlink:title="o2::ITS::V1Layer">
<polygon fill="none" stroke="black" points="322.5,-190.5 322.5,-209.5 413.5,-209.5 413.5,-190.5 322.5,-190.5"/>
<text text-anchor="middle" x="368" y="-197.5" font-family="Helvetica,sans-Serif" font-size="10.00">o2::ITS::V1Layer</text>
</a>
</g>
</g>
<!-- Node26&#45;&gt;Node27 -->
<g id="edge26" class="edge"><title>Node26&#45;&gt;Node27</title>
<path fill="none" stroke="midnightblue" d="M236.006,-200C264.413,-200 296.757,-200 322.198,-200"/>
<polygon fill="midnightblue" stroke="midnightblue" points="235.739,-196.5 225.739,-200 235.739,-203.5 235.739,-196.5"/>
</g>
<!-- Node28 -->
<g id="node28" class="node"><title>Node28</title>
<g id="a_node28"><a xlink:href="d5/de4/classo2_1_1ITS_1_1V3Layer.html" target="_top" xlink:title="o2::ITS::V3Layer">
<polygon fill="none" stroke="black" points="322.5,-152.5 322.5,-171.5 413.5,-171.5 413.5,-152.5 322.5,-152.5"/>
<text text-anchor="middle" x="368" y="-159.5" font-family="Helvetica,sans-Serif" font-size="10.00">o2::ITS::V3Layer</text>
</a>
</g>
</g>
<!-- Node26&#45;&gt;Node28 -->
<g id="edge27" class="edge"><title>Node26&#45;&gt;Node28</title>
<path fill="none" stroke="midnightblue" d="M228.674,-188.547C258.774,-182.771 294.665,-175.882 322.344,-170.57"/>
<polygon fill="midnightblue" stroke="midnightblue" points="227.869,-185.138 218.708,-190.46 229.189,-192.012 227.869,-185.138"/>
</g>
</g>
</svg>
