<?xml version="1.0" encoding="UTF-8" standalone="no"?>
<!DOCTYPE svg PUBLIC "-//W3C//DTD SVG 1.1//EN"
 "http://www.w3.org/Graphics/SVG/1.1/DTD/svg11.dtd">
<!-- Generated by graphviz version 2.36.0 (20140111.2315)
 -->
<!-- Title: Graphical Class Hierarchy Pages: 1 -->
<svg width="502pt" height="332pt"
 viewBox="0.00 0.00 502.00 332.00" xmlns="http://www.w3.org/2000/svg" xmlns:xlink="http://www.w3.org/1999/xlink">
<g id="graph0" class="graph" transform="scale(1 1) rotate(0) translate(4 328)">
<title>Graphical Class Hierarchy</title>
<!-- Node1 -->
<g id="node1" class="node"><title>Node1</title>
<g id="a_node1"><a xlink:href="d6/d0c/classFairDetector.html" target="_top" xlink:title="FairDetector">
<polygon fill="none" stroke="black" points="0.5,-109.5 0.5,-128.5 71.5,-128.5 71.5,-109.5 0.5,-109.5"/>
<text text-anchor="middle" x="36" y="-116.5" font-family="Helvetica,sans-Serif" font-size="10.00">FairDetector</text>
</a>
</g>
</g>
<!-- Node2 -->
<g id="node2" class="node"><title>Node2</title>
<g id="a_node2"><a xlink:href="d7/d02/classo2_1_1Base_1_1Detector.html" target="_top" xlink:title="o2::Base::Detector">
<polygon fill="none" stroke="black" points="108.5,-128.5 108.5,-147.5 207.5,-147.5 207.5,-128.5 108.5,-128.5"/>
<text text-anchor="middle" x="158" y="-135.5" font-family="Helvetica,sans-Serif" font-size="10.00">o2::Base::Detector</text>
</a>
</g>
</g>
<!-- Node1&#45;&gt;Node2 -->
<g id="edge1" class="edge"><title>Node1&#45;&gt;Node2</title>
<path fill="none" stroke="midnightblue" d="M81.5911,-126.06C90.2281,-127.428 99.322,-128.868 108.089,-130.256"/>
<polygon fill="midnightblue" stroke="midnightblue" points="82.1333,-122.603 71.709,-124.496 81.0386,-129.516 82.1333,-122.603"/>
</g>
<!-- Node14 -->
<g id="node14" class="node"><title>Node14</title>
<g id="a_node14"><a xlink:href="db/df6/classo2_1_1Passive_1_1Cave.html" target="_top" xlink:title="o2::Passive::Cave">
<polygon fill="none" stroke="black" points="109,-90.5 109,-109.5 207,-109.5 207,-90.5 109,-90.5"/>
<text text-anchor="middle" x="158" y="-97.5" font-family="Helvetica,sans-Serif" font-size="10.00">o2::Passive::Cave</text>
</a>
</g>
</g>
<!-- Node1&#45;&gt;Node14 -->
<g id="edge13" class="edge"><title>Node1&#45;&gt;Node14</title>
<path fill="none" stroke="midnightblue" d="M81.8385,-111.901C90.695,-110.498 100.023,-109.021 108.98,-107.603"/>
<polygon fill="midnightblue" stroke="midnightblue" points="81.0386,-108.484 71.709,-113.504 82.1333,-115.397 81.0386,-108.484"/>
</g>
<!-- Node3 -->
<g id="node3" class="node"><title>Node3</title>
<g id="a_node3"><a xlink:href="d4/d8a/classo2_1_1Base_1_1DetImpl.html" target="_top" xlink:title="o2::Base::DetImpl\&lt;\l Detector \&gt;">
<polygon fill="none" stroke="black" points="244,-147 244,-177 346,-177 346,-147 244,-147"/>
<text text-anchor="start" x="252" y="-165" font-family="Helvetica,sans-Serif" font-size="10.00">o2::Base::DetImpl&lt;</text>
<text text-anchor="middle" x="295" y="-154" font-family="Helvetica,sans-Serif" font-size="10.00"> Detector &gt;</text>
</a>
</g>
</g>
<!-- Node2&#45;&gt;Node3 -->
<g id="edge2" class="edge"><title>Node2&#45;&gt;Node3</title>
<path fill="none" stroke="midnightblue" d="M217.84,-148.46C226.553,-150.009 235.461,-151.593 243.971,-153.106"/>
<polygon fill="midnightblue" stroke="midnightblue" points="218.196,-144.969 207.738,-146.665 216.971,-151.861 218.196,-144.969"/>
</g>
<!-- Node13 -->
<g id="node13" class="node"><title>Node13</title>
<g id="a_node13"><a xlink:href="d4/d8a/classo2_1_1Base_1_1DetImpl.html" target="_top" xlink:title="o2::Base::DetImpl\&lt;\l Det \&gt;">
<polygon fill="none" stroke="black" points="244,-98 244,-128 346,-128 346,-98 244,-98"/>
<text text-anchor="start" x="252" y="-116" font-family="Helvetica,sans-Serif" font-size="10.00">o2::Base::DetImpl&lt;</text>
<text text-anchor="middle" x="295" y="-105" font-family="Helvetica,sans-Serif" font-size="10.00"> Det &gt;</text>
</a>
</g>
</g>
<!-- Node2&#45;&gt;Node13 -->
<g id="edge12" class="edge"><title>Node2&#45;&gt;Node13</title>
<path fill="none" stroke="midnightblue" d="M217.84,-127.104C226.553,-125.49 235.461,-123.841 243.971,-122.265"/>
<polygon fill="midnightblue" stroke="midnightblue" points="216.934,-123.712 207.738,-128.974 218.208,-130.595 216.934,-123.712"/>
</g>
<!-- Node4 -->
<g id="node4" class="node"><title>Node4</title>
<g id="a_node4"><a xlink:href="df/d30/classo2_1_1EMCAL_1_1Detector.html" target="_top" xlink:title="o2::EMCAL::Detector">
<polygon fill="none" stroke="black" points="382.5,-304.5 382.5,-323.5 493.5,-323.5 493.5,-304.5 382.5,-304.5"/>
<text text-anchor="middle" x="438" y="-311.5" font-family="Helvetica,sans-Serif" font-size="10.00">o2::EMCAL::Detector</text>
</a>
</g>
</g>
<!-- Node3&#45;&gt;Node4 -->
<g id="edge3" class="edge"><title>Node3&#45;&gt;Node4</title>
<path fill="none" stroke="midnightblue" d="M305.769,-186.345C318.87,-216.049 344.861,-265.895 382,-295 386.93,-298.863 392.698,-301.97 398.609,-304.46"/>
<polygon fill="midnightblue" stroke="midnightblue" points="308.968,-184.926 301.822,-177.103 302.531,-187.674 308.968,-184.926"/>
</g>
<!-- Node5 -->
<g id="node5" class="node"><title>Node5</title>
<g id="a_node5"><a xlink:href="d2/d64/classo2_1_1fit_1_1Detector.html" target="_top" xlink:title="o2::fit::Detector">
<polygon fill="none" stroke="black" points="395.5,-266.5 395.5,-285.5 480.5,-285.5 480.5,-266.5 395.5,-266.5"/>
<text text-anchor="middle" x="438" y="-273.5" font-family="Helvetica,sans-Serif" font-size="10.00">o2::fit::Detector</text>
</a>
</g>
</g>
<!-- Node3&#45;&gt;Node5 -->
<g id="edge4" class="edge"><title>Node3&#45;&gt;Node5</title>
<path fill="none" stroke="midnightblue" d="M311.727,-185.222C327.296,-206.599 352.961,-237.814 382,-257 387.732,-260.787 394.299,-263.902 400.854,-266.436"/>
<polygon fill="midnightblue" stroke="midnightblue" points="314.531,-183.126 305.884,-177.004 308.826,-187.182 314.531,-183.126"/>
</g>
<!-- Node6 -->
<g id="node6" class="node"><title>Node6</title>
<g id="a_node6"><a xlink:href="dc/daf/classo2_1_1hmpid_1_1Detector.html" target="_top" xlink:title="o2::hmpid::Detector">
<polygon fill="none" stroke="black" points="386.5,-228.5 386.5,-247.5 489.5,-247.5 489.5,-228.5 386.5,-228.5"/>
<text text-anchor="middle" x="438" y="-235.5" font-family="Helvetica,sans-Serif" font-size="10.00">o2::hmpid::Detector</text>
</a>
</g>
</g>
<!-- Node3&#45;&gt;Node6 -->
<g id="edge5" class="edge"><title>Node3&#45;&gt;Node6</title>
<path fill="none" stroke="midnightblue" d="M324.137,-183.277C340.428,-194.912 361.676,-208.957 382,-219 389.245,-222.58 397.334,-225.779 405.03,-228.484"/>
<polygon fill="midnightblue" stroke="midnightblue" points="325.782,-180.146 315.634,-177.102 321.669,-185.81 325.782,-180.146"/>
</g>
<!-- Node7 -->
<g id="node7" class="node"><title>Node7</title>
<g id="a_node7"><a xlink:href="d6/dd3/classo2_1_1ITS_1_1Detector.html" target="_top" xlink:title="o2::ITS::Detector">
<polygon fill="none" stroke="black" points="392,-190.5 392,-209.5 484,-209.5 484,-190.5 392,-190.5"/>
<text text-anchor="middle" x="438" y="-197.5" font-family="Helvetica,sans-Serif" font-size="10.00">o2::ITS::Detector</text>
</a>
</g>
</g>
<!-- Node3&#45;&gt;Node7 -->
<g id="edge6" class="edge"><title>Node3&#45;&gt;Node7</title>
<path fill="none" stroke="midnightblue" d="M356.171,-178.216C371.682,-182.397 387.875,-186.761 401.659,-190.475"/>
<polygon fill="midnightblue" stroke="midnightblue" points="356.675,-174.727 346.108,-175.504 354.853,-181.486 356.675,-174.727"/>
</g>
<!-- Node8 -->
<g id="node8" class="node"><title>Node8</title>
<g id="a_node8"><a xlink:href="dd/d98/classo2_1_1MFT_1_1Detector.html" target="_top" xlink:title="o2::MFT::Detector">
<polygon fill="none" stroke="black" points="389.5,-152.5 389.5,-171.5 486.5,-171.5 486.5,-152.5 389.5,-152.5"/>
<text text-anchor="middle" x="438" y="-159.5" font-family="Helvetica,sans-Serif" font-size="10.00">o2::MFT::Detector</text>
</a>
</g>
</g>
<!-- Node3&#45;&gt;Node8 -->
<g id="edge7" class="edge"><title>Node3&#45;&gt;Node8</title>
<path fill="none" stroke="midnightblue" d="M356.178,-162C367.286,-162 378.743,-162 389.414,-162"/>
<polygon fill="midnightblue" stroke="midnightblue" points="356.108,-158.5 346.108,-162 356.108,-165.5 356.108,-158.5"/>
</g>
<!-- Node9 -->
<g id="node9" class="node"><title>Node9</title>
<g id="a_node9"><a xlink:href="d0/d35/classo2_1_1phos_1_1Detector.html" target="_top" xlink:title="Detector class for the PHOS detector. ">
<polygon fill="none" stroke="black" points="389,-114.5 389,-133.5 487,-133.5 487,-114.5 389,-114.5"/>
<text text-anchor="middle" x="438" y="-121.5" font-family="Helvetica,sans-Serif" font-size="10.00">o2::phos::Detector</text>
</a>
</g>
</g>
<!-- Node3&#45;&gt;Node9 -->
<g id="edge8" class="edge"><title>Node3&#45;&gt;Node9</title>
<path fill="none" stroke="midnightblue" d="M356.171,-145.784C371.682,-141.603 387.875,-137.239 401.659,-133.525"/>
<polygon fill="midnightblue" stroke="midnightblue" points="354.853,-142.514 346.108,-148.496 356.675,-149.273 354.853,-142.514"/>
</g>
<!-- Node10 -->
<g id="node10" class="node"><title>Node10</title>
<g id="a_node10"><a xlink:href="db/d30/classo2_1_1tof_1_1Detector.html" target="_top" xlink:title="o2::tof::Detector">
<polygon fill="none" stroke="black" points="394,-76.5 394,-95.5 482,-95.5 482,-76.5 394,-76.5"/>
<text text-anchor="middle" x="438" y="-83.5" font-family="Helvetica,sans-Serif" font-size="10.00">o2::tof::Detector</text>
</a>
</g>
</g>
<!-- Node3&#45;&gt;Node10 -->
<g id="edge9" class="edge"><title>Node3&#45;&gt;Node10</title>
<path fill="none" stroke="midnightblue" d="M338.079,-141.994C340.806,-140.383 343.47,-138.713 346,-137 363.727,-124.998 363.526,-115.815 382,-105 388.364,-101.274 395.571,-98.1283 402.623,-95.5345"/>
<polygon fill="midnightblue" stroke="midnightblue" points="336.271,-138.995 329.243,-146.923 339.681,-145.108 336.271,-138.995"/>
</g>
<!-- Node11 -->
<g id="node11" class="node"><title>Node11</title>
<g id="a_node11"><a xlink:href="d3/dcb/classo2_1_1TPC_1_1Detector.html" target="_top" xlink:title="o2::TPC::Detector">
<polygon fill="none" stroke="black" points="389.5,-38.5 389.5,-57.5 486.5,-57.5 486.5,-38.5 389.5,-38.5"/>
<text text-anchor="middle" x="438" y="-45.5" font-family="Helvetica,sans-Serif" font-size="10.00">o2::TPC::Detector</text>
</a>
</g>
</g>
<!-- Node3&#45;&gt;Node11 -->
<g id="edge10" class="edge"><title>Node3&#45;&gt;Node11</title>
<path fill="none" stroke="midnightblue" d="M341.469,-141.03C343.058,-139.75 344.577,-138.407 346,-137 370.878,-112.403 355.565,-89.9152 382,-67 386.504,-63.0959 391.853,-59.9821 397.419,-57.5018"/>
<polygon fill="midnightblue" stroke="midnightblue" points="339.245,-138.313 333.048,-146.907 343.251,-144.054 339.245,-138.313"/>
</g>
<!-- Node12 -->
<g id="node12" class="node"><title>Node12</title>
<g id="a_node12"><a xlink:href="d5/da6/classo2_1_1trd_1_1Detector.html" target="_top" xlink:title="o2::trd::Detector">
<polygon fill="none" stroke="black" points="394,-0.5 394,-19.5 482,-19.5 482,-0.5 394,-0.5"/>
<text text-anchor="middle" x="438" y="-7.5" font-family="Helvetica,sans-Serif" font-size="10.00">o2::trd::Detector</text>
</a>
</g>
</g>
<!-- Node3&#45;&gt;Node12 -->
<g id="edge11" class="edge"><title>Node3&#45;&gt;Node12</title>
<path fill="none" stroke="midnightblue" d="M342.352,-140.75C343.642,-139.56 344.863,-138.311 346,-137 379.151,-98.7767 346.418,-64.971 382,-29 385.836,-25.1216 390.502,-22.0341 395.475,-19.5762"/>
<polygon fill="midnightblue" stroke="midnightblue" points="340.12,-138.052 334.35,-146.938 344.402,-143.59 340.12,-138.052"/>
</g>
</g>
</svg>
