<?xml version="1.0" encoding="UTF-8" standalone="no"?>
<!DOCTYPE svg PUBLIC "-//W3C//DTD SVG 1.1//EN"
 "http://www.w3.org/Graphics/SVG/1.1/DTD/svg11.dtd">
<!-- Generated by graphviz version 2.36.0 (20140111.2315)
 -->
<!-- Title: Graphical Class Hierarchy Pages: 1 -->
<svg width="244pt" height="446pt"
 viewBox="0.00 0.00 244.00 446.00" xmlns="http://www.w3.org/2000/svg" xmlns:xlink="http://www.w3.org/1999/xlink">
<g id="graph0" class="graph" transform="scale(1 1) rotate(0) translate(4 442)">
<title>Graphical Class Hierarchy</title>
<!-- Node1 -->
<g id="node1" class="node"><title>Node1</title>
<g id="a_node1"><a xlink:href="d2/d9e/classFairTask.html" target="_top" xlink:title="FairTask">
<polygon fill="none" stroke="black" points="0.5,-209.5 0.5,-228.5 55.5,-228.5 55.5,-209.5 0.5,-209.5"/>
<text text-anchor="middle" x="28" y="-216.5" font-family="Helvetica,sans-Serif" font-size="10.00">FairTask</text>
</a>
</g>
</g>
<!-- Node2 -->
<g id="node2" class="node"><title>Node2</title>
<g id="a_node2"><a xlink:href="de/d8a/classo2_1_1EMCAL_1_1DigitizerTask.html" target="_top" xlink:title="o2::EMCAL::DigitizerTask">
<polygon fill="none" stroke="black" points="98.5,-418.5 98.5,-437.5 229.5,-437.5 229.5,-418.5 98.5,-418.5"/>
<text text-anchor="middle" x="164" y="-425.5" font-family="Helvetica,sans-Serif" font-size="10.00">o2::EMCAL::DigitizerTask</text>
</a>
</g>
</g>
<!-- Node1&#45;&gt;Node2 -->
<g id="edge1" class="edge"><title>Node1&#45;&gt;Node2</title>
<path fill="none" stroke="midnightblue" d="M29.667,-238.934C32.0684,-277.538 42.965,-362.762 92,-409 96.0848,-412.852 100.863,-415.941 105.975,-418.416"/>
<polygon fill="midnightblue" stroke="midnightblue" points="33.1434,-238.362 29.1616,-228.544 26.1517,-238.703 33.1434,-238.362"/>
</g>
<!-- Node3 -->
<g id="node3" class="node"><title>Node3</title>
<g id="a_node3"><a xlink:href="db/df6/classo2_1_1ITS_1_1ClustererTask.html" target="_top" xlink:title="o2::ITS::ClustererTask">
<polygon fill="none" stroke="black" points="106,-380.5 106,-399.5 222,-399.5 222,-380.5 106,-380.5"/>
<text text-anchor="middle" x="164" y="-387.5" font-family="Helvetica,sans-Serif" font-size="10.00">o2::ITS::ClustererTask</text>
</a>
</g>
</g>
<!-- Node1&#45;&gt;Node3 -->
<g id="edge2" class="edge"><title>Node1&#45;&gt;Node3</title>
<path fill="none" stroke="midnightblue" d="M31.5118,-238.523C36.7363,-270.945 51.8379,-335.798 92,-371 96.4141,-374.869 101.534,-377.961 106.964,-380.43"/>
<polygon fill="midnightblue" stroke="midnightblue" points="34.9579,-237.9 30.0508,-228.51 28.0312,-238.91 34.9579,-237.9"/>
</g>
<!-- Node4 -->
<g id="node4" class="node"><title>Node4</title>
<g id="a_node4"><a xlink:href="d8/d68/classo2_1_1ITS_1_1CookedTrackerTask.html" target="_top" xlink:title="o2::ITS::CookedTrackerTask">
<polygon fill="none" stroke="black" points="92.5,-342.5 92.5,-361.5 235.5,-361.5 235.5,-342.5 92.5,-342.5"/>
<text text-anchor="middle" x="164" y="-349.5" font-family="Helvetica,sans-Serif" font-size="10.00">o2::ITS::CookedTrackerTask</text>
</a>
</g>
</g>
<!-- Node1&#45;&gt;Node4 -->
<g id="edge3" class="edge"><title>Node1&#45;&gt;Node4</title>
<path fill="none" stroke="midnightblue" d="M34.4448,-238.312C42.6546,-263.857 60.6724,-308.5 92,-333 96.9252,-336.852 102.566,-339.925 108.468,-342.377"/>
<polygon fill="midnightblue" stroke="midnightblue" points="37.766,-237.203 31.5166,-228.648 31.0668,-239.233 37.766,-237.203"/>
</g>
<!-- Node5 -->
<g id="node5" class="node"><title>Node5</title>
<g id="a_node5"><a xlink:href="de/d22/classo2_1_1ITS_1_1DigitizerTask.html" target="_top" xlink:title="o2::ITS::DigitizerTask">
<polygon fill="none" stroke="black" points="107.5,-304.5 107.5,-323.5 220.5,-323.5 220.5,-304.5 107.5,-304.5"/>
<text text-anchor="middle" x="164" y="-311.5" font-family="Helvetica,sans-Serif" font-size="10.00">o2::ITS::DigitizerTask</text>
</a>
</g>
</g>
<!-- Node1&#45;&gt;Node5 -->
<g id="edge4" class="edge"><title>Node1&#45;&gt;Node5</title>
<path fill="none" stroke="midnightblue" d="M39.4769,-237.254C50.4009,-254.659 69.1133,-280.328 92,-295 98.0157,-298.856 104.797,-301.935 111.721,-304.391"/>
<polygon fill="midnightblue" stroke="midnightblue" points="42.3937,-235.313 34.2322,-228.558 36.3993,-238.928 42.3937,-235.313"/>
</g>
<!-- Node6 -->
<g id="node6" class="node"><title>Node6</title>
<g id="a_node6"><a xlink:href="d6/df5/classo2_1_1ITS_1_1HitAnalysis.html" target="_top" xlink:title="o2::ITS::HitAnalysis">
<polygon fill="none" stroke="black" points="111.5,-266.5 111.5,-285.5 216.5,-285.5 216.5,-266.5 111.5,-266.5"/>
<text text-anchor="middle" x="164" y="-273.5" font-family="Helvetica,sans-Serif" font-size="10.00">o2::ITS::HitAnalysis</text>
</a>
</g>
</g>
<!-- Node1&#45;&gt;Node6 -->
<g id="edge5" class="edge"><title>Node1&#45;&gt;Node6</title>
<path fill="none" stroke="midnightblue" d="M51.0663,-234.413C62.7985,-242.056 77.7167,-250.925 92,-257 100.689,-260.695 110.288,-263.842 119.543,-266.448"/>
<polygon fill="midnightblue" stroke="midnightblue" points="52.671,-231.276 42.4133,-228.624 48.7784,-237.094 52.671,-231.276"/>
</g>
<!-- Node7 -->
<g id="node7" class="node"><title>Node7</title>
<g id="a_node7"><a xlink:href="db/d78/classo2_1_1ITS_1_1TrivialClustererTask.html" target="_top" xlink:title="o2::ITS::TrivialClustererTask">
<polygon fill="none" stroke="black" points="92.5,-228.5 92.5,-247.5 235.5,-247.5 235.5,-228.5 92.5,-228.5"/>
<text text-anchor="middle" x="164" y="-235.5" font-family="Helvetica,sans-Serif" font-size="10.00">o2::ITS::TrivialClustererTask</text>
</a>
</g>
</g>
<!-- Node1&#45;&gt;Node7 -->
<g id="edge6" class="edge"><title>Node1&#45;&gt;Node7</title>
<path fill="none" stroke="midnightblue" d="M65.8393,-224.223C75.1515,-225.544 85.446,-227.004 95.7485,-228.464"/>
<polygon fill="midnightblue" stroke="midnightblue" points="66.1872,-220.738 55.7948,-222.799 65.2044,-227.669 66.1872,-220.738"/>
</g>
<!-- Node8 -->
<g id="node8" class="node"><title>Node8</title>
<g id="a_node8"><a xlink:href="d7/d6d/classo2_1_1MFT_1_1ClustererTask.html" target="_top" xlink:title="o2::MFT::ClustererTask">
<polygon fill="none" stroke="black" points="103.5,-190.5 103.5,-209.5 224.5,-209.5 224.5,-190.5 103.5,-190.5"/>
<text text-anchor="middle" x="164" y="-197.5" font-family="Helvetica,sans-Serif" font-size="10.00">o2::MFT::ClustererTask</text>
</a>
</g>
</g>
<!-- Node1&#45;&gt;Node8 -->
<g id="edge7" class="edge"><title>Node1&#45;&gt;Node8</title>
<path fill="none" stroke="midnightblue" d="M65.9381,-213.763C77.5027,-212.123 90.5747,-210.269 103.292,-208.466"/>
<polygon fill="midnightblue" stroke="midnightblue" points="65.2044,-210.331 55.7948,-215.201 66.1872,-217.262 65.2044,-210.331"/>
</g>
<!-- Node9 -->
<g id="node9" class="node"><title>Node9</title>
<g id="a_node9"><a xlink:href="d0/d22/classo2_1_1MFT_1_1DigitizerTask.html" target="_top" xlink:title="o2::MFT::DigitizerTask">
<polygon fill="none" stroke="black" points="105.5,-152.5 105.5,-171.5 222.5,-171.5 222.5,-152.5 105.5,-152.5"/>
<text text-anchor="middle" x="164" y="-159.5" font-family="Helvetica,sans-Serif" font-size="10.00">o2::MFT::DigitizerTask</text>
</a>
</g>
</g>
<!-- Node1&#45;&gt;Node9 -->
<g id="edge8" class="edge"><title>Node1&#45;&gt;Node9</title>
<path fill="none" stroke="midnightblue" d="M51.0663,-203.587C62.7985,-195.944 77.7167,-187.075 92,-181 100.689,-177.305 110.288,-174.158 119.543,-171.552"/>
<polygon fill="midnightblue" stroke="midnightblue" points="48.7784,-200.906 42.4133,-209.376 52.671,-206.724 48.7784,-200.906"/>
</g>
<!-- Node10 -->
<g id="node10" class="node"><title>Node10</title>
<g id="a_node10"><a xlink:href="dc/d5b/classo2_1_1MFT_1_1TrackerTask.html" target="_top" xlink:title="o2::MFT::TrackerTask">
<polygon fill="none" stroke="black" points="107,-114.5 107,-133.5 221,-133.5 221,-114.5 107,-114.5"/>
<text text-anchor="middle" x="164" y="-121.5" font-family="Helvetica,sans-Serif" font-size="10.00">o2::MFT::TrackerTask</text>
</a>
</g>
</g>
<!-- Node1&#45;&gt;Node10 -->
<g id="edge9" class="edge"><title>Node1&#45;&gt;Node10</title>
<path fill="none" stroke="midnightblue" d="M39.4769,-200.746C50.4009,-183.341 69.1133,-157.672 92,-143 98.0157,-139.144 104.797,-136.065 111.721,-133.609"/>
<polygon fill="midnightblue" stroke="midnightblue" points="36.3993,-199.072 34.2322,-209.442 42.3937,-202.687 36.3993,-199.072"/>
</g>
<!-- Node11 -->
<g id="node11" class="node"><title>Node11</title>
<g id="a_node11"><a xlink:href="d0/dad/classo2_1_1tof_1_1DigitizerTask.html" target="_top" xlink:title="o2::tof::DigitizerTask">
<polygon fill="none" stroke="black" points="110,-76.5 110,-95.5 218,-95.5 218,-76.5 110,-76.5"/>
<text text-anchor="middle" x="164" y="-83.5" font-family="Helvetica,sans-Serif" font-size="10.00">o2::tof::DigitizerTask</text>
</a>
</g>
</g>
<!-- Node1&#45;&gt;Node11 -->
<g id="edge10" class="edge"><title>Node1&#45;&gt;Node11</title>
<path fill="none" stroke="midnightblue" d="M34.4448,-199.688C42.6546,-174.143 60.6724,-129.5 92,-105 97.3272,-100.834 103.492,-97.5783 109.919,-95.035"/>
<polygon fill="midnightblue" stroke="midnightblue" points="31.0668,-198.767 31.5166,-209.352 37.766,-200.797 31.0668,-198.767"/>
</g>
<!-- Node12 -->
<g id="node12" class="node"><title>Node12</title>
<g id="a_node12"><a xlink:href="db/df7/classo2_1_1TPC_1_1ClustererTask.html" target="_top" xlink:title="o2::TPC::ClustererTask">
<polygon fill="none" stroke="black" points="103.5,-38.5 103.5,-57.5 224.5,-57.5 224.5,-38.5 103.5,-38.5"/>
<text text-anchor="middle" x="164" y="-45.5" font-family="Helvetica,sans-Serif" font-size="10.00">o2::TPC::ClustererTask</text>
</a>
</g>
</g>
<!-- Node1&#45;&gt;Node12 -->
<g id="edge11" class="edge"><title>Node1&#45;&gt;Node12</title>
<path fill="none" stroke="midnightblue" d="M31.5118,-199.477C36.7363,-167.055 51.8379,-102.202 92,-67 96.4141,-63.1311 101.534,-60.0391 106.964,-57.5697"/>
<polygon fill="midnightblue" stroke="midnightblue" points="28.0312,-199.09 30.0508,-209.49 34.9579,-200.1 28.0312,-199.09"/>
</g>
<!-- Node13 -->
<g id="node13" class="node"><title>Node13</title>
<g id="a_node13"><a xlink:href="dd/d64/classo2_1_1TPC_1_1DigitizerTask.html" target="_top" xlink:title="o2::TPC::DigitizerTask">
<polygon fill="none" stroke="black" points="105.5,-0.5 105.5,-19.5 222.5,-19.5 222.5,-0.5 105.5,-0.5"/>
<text text-anchor="middle" x="164" y="-7.5" font-family="Helvetica,sans-Serif" font-size="10.00">o2::TPC::DigitizerTask</text>
</a>
</g>
</g>
<!-- Node1&#45;&gt;Node13 -->
<g id="edge12" class="edge"><title>Node1&#45;&gt;Node13</title>
<path fill="none" stroke="midnightblue" d="M29.667,-199.066C32.0684,-160.462 42.965,-75.2383 92,-29 96.0848,-25.1482 100.863,-22.0591 105.975,-19.5845"/>
<polygon fill="midnightblue" stroke="midnightblue" points="26.1517,-199.297 29.1616,-209.456 33.1434,-199.638 26.1517,-199.297"/>
</g>
</g>
</svg>
