<?xml version="1.0" encoding="UTF-8" standalone="no"?>
<!DOCTYPE svg PUBLIC "-//W3C//DTD SVG 1.1//EN"
 "http://www.w3.org/Graphics/SVG/1.1/DTD/svg11.dtd">
<!-- Generated by graphviz version 2.36.0 (20140111.2315)
 -->
<!-- Title: /home/travis/build/AliceO2Group/AliceO2/Utilities/Publishers/include/Publishers/DataPublisherDevice.h Pages: 1 -->
<!--zoomable 240 -->
<svg id="main" version="1.1" xmlns="http://www.w3.org/2000/svg" xmlns:xlink="http://www.w3.org/1999/xlink" xml:space="preserve" onload="init(evt)">
<style type="text/css"><![CDATA[
.edge:hover path { stroke: red; }
.edge:hover polygon { stroke: red; fill: red; }
]]></style>
<script type="text/javascript"><![CDATA[
var edges = document.getElementsByTagName('g');
if (edges && edges.length) {
  for (var i=0;i<edges.length;i++) {
    if (edges[i].id.substr(0,4)=='edge') {
      edges[i].setAttribute('class','edge');
    }
  }
}
]]></script>
        <defs>
                <circle id="rim" cx="0" cy="0" r="7"/>
                <circle id="rim2" cx="0" cy="0" r="3.5"/>
                <g id="zoomPlus">
                        <use xlink:href="#rim" fill="#404040">
                                <set attributeName="fill" to="#808080" begin="zoomplus.mouseover" end="zoomplus.mouseout"/>
                        </use>
                        <path d="M-4,0h8M0,-4v8" fill="none" stroke="white" stroke-width="1.5" pointer-events="none"/>
                </g>
                <g id="zoomMin">
                        <use xlink:href="#rim" fill="#404040">
                                <set attributeName="fill" to="#808080" begin="zoomminus.mouseover" end="zoomminus.mouseout"/>
                        </use>
                        <path d="M-4,0h8" fill="none" stroke="white" stroke-width="1.5" pointer-events="none"/>
                </g>
                <g id="dirArrow">
                        <path fill="none" stroke="white" stroke-width="1.5" d="M0,-3.0v7 M-2.5,-0.5L0,-3.0L2.5,-0.5"/>
                </g>
               <g id="resetDef">
                       <use xlink:href="#rim2" fill="#404040">
                               <set attributeName="fill" to="#808080" begin="reset.mouseover" end="reset.mouseout"/>
                       </use>
               </g>
        </defs>

<script type="text/javascript">
var viewWidth = 849;
var viewHeight = 240;
var sectionId = 'dynsection-0';
</script>
<script xlink:href="../../svgpan.js"/>
<svg id="graph" class="graph">
<g id="viewport">
<title>/home/travis/build/AliceO2Group/AliceO2/Utilities/Publishers/include/Publishers/DataPublisherDevice.h</title>
<!-- Node1 -->
<g id="node1" class="node"><title>Node1</title>
<polygon fill="#bfbfbf" stroke="black" points="129.433,-168.5 129.433,-231.5 293.433,-231.5 293.433,-168.5 129.433,-168.5"/>
<text text-anchor="start" x="137.433" y="-219.5" font-family="Helvetica,sans-Serif" font-size="10.00">/home/travis/build</text>
<text text-anchor="start" x="137.433" y="-208.5" font-family="Helvetica,sans-Serif" font-size="10.00">/AliceO2Group/AliceO2</text>
<text text-anchor="start" x="137.433" y="-197.5" font-family="Helvetica,sans-Serif" font-size="10.00">/Utilities/Publishers</text>
<text text-anchor="start" x="137.433" y="-186.5" font-family="Helvetica,sans-Serif" font-size="10.00">/include/Publishers/DataPublisher</text>
<text text-anchor="middle" x="211.433" y="-175.5" font-family="Helvetica,sans-Serif" font-size="10.00">Device.h</text>
</g>
<!-- Node2 -->
<g id="node2" class="node"><title>Node2</title>
<g id="a_node2"><a xlink:href="../../dc/dcd/DataHeader_8h.html" target="_top" xlink:title="Headers/DataHeader.h">
<polygon fill="none" stroke="black" points="207.933,-56.5 207.933,-75.5 324.933,-75.5 324.933,-56.5 207.933,-56.5"/>
<text text-anchor="middle" x="266.433" y="-63.5" font-family="Helvetica,sans-Serif" font-size="10.00">Headers/DataHeader.h</text>
</a>
</g>
</g>
<!-- Node1&#45;&gt;Node2 -->
<g id="edge1" class="edge"><title>Node1&#45;&gt;Node2</title>
<path fill="none" stroke="midnightblue" d="M224.189,-168.385C234.939,-142.584 249.957,-106.541 258.889,-85.1045"/>
<polygon fill="midnightblue" stroke="midnightblue" points="262.23,-86.1869 262.845,-75.61 255.768,-83.4946 262.23,-86.1869"/>
</g>
<!-- Node6 -->
<g id="node6" class="node"><title>Node6</title>
<polygon fill="none" stroke="#bfbfbf" points="34.4326,-0.5 34.4326,-19.5 80.4326,-19.5 80.4326,-0.5 34.4326,-0.5"/>
<text text-anchor="middle" x="57.4326" y="-7.5" font-family="Helvetica,sans-Serif" font-size="10.00">cstring</text>
</g>
<!-- Node1&#45;&gt;Node6 -->
<g id="edge18" class="edge"><title>Node1&#45;&gt;Node6</title>
<path fill="none" stroke="midnightblue" d="M129.218,-179.56C98.2712,-169.236 64.3365,-153.992 38.4326,-132 10.3602,-108.167 -9.8756,-89.4919 5.4326,-56 11.2099,-43.3602 22.4849,-32.911 33.0632,-25.2737"/>
<polygon fill="midnightblue" stroke="midnightblue" points="35.2814,-28.0009 41.6493,-19.5333 31.3908,-22.1817 35.2814,-28.0009"/>
</g>
<!-- Node8 -->
<g id="node8" class="node"><title>Node8</title>
<g id="a_node8"><a xlink:href="../../d2/d09/HeartbeatFrame_8h.html" target="_top" xlink:title="Headers/HeartbeatFrame.h">
<polygon fill="none" stroke="black" points="47.9326,-112.5 47.9326,-131.5 182.933,-131.5 182.933,-112.5 47.9326,-112.5"/>
<text text-anchor="middle" x="115.433" y="-119.5" font-family="Helvetica,sans-Serif" font-size="10.00">Headers/HeartbeatFrame.h</text>
</a>
</g>
</g>
<!-- Node1&#45;&gt;Node8 -->
<g id="edge7" class="edge"><title>Node1&#45;&gt;Node8</title>
<path fill="none" stroke="midnightblue" d="M172.662,-168.307C159.523,-157.905 145.424,-146.743 134.508,-138.102"/>
<polygon fill="midnightblue" stroke="midnightblue" points="136.528,-135.237 126.515,-131.774 132.183,-140.725 136.528,-135.237"/>
</g>
<!-- Node11 -->
<g id="node11" class="node"><title>Node11</title>
<polygon fill="none" stroke="#bfbfbf" points="145.433,-56.5 145.433,-75.5 189.433,-75.5 189.433,-56.5 145.433,-56.5"/>
<text text-anchor="middle" x="167.433" y="-63.5" font-family="Helvetica,sans-Serif" font-size="10.00">vector</text>
</g>
<!-- Node1&#45;&gt;Node11 -->
<g id="edge19" class="edge"><title>Node1&#45;&gt;Node11</title>
<path fill="none" stroke="midnightblue" d="M206.413,-168.225C203.148,-151.312 198.22,-130.145 191.433,-112 187.904,-102.567 182.773,-92.6321 178.16,-84.5039"/>
<polygon fill="midnightblue" stroke="midnightblue" points="181.027,-82.4762 172.932,-75.6405 174.998,-86.0322 181.027,-82.4762"/>
</g>
<!-- Node12 -->
<g id="node12" class="node"><title>Node12</title>
<g id="a_node12"><a xlink:href="../../d2/dee/O2Device_8h.html" target="_top" xlink:title="O2Device/O2Device.h">
<polygon fill="none" stroke="black" points="360.933,-112.5 360.933,-131.5 475.933,-131.5 475.933,-112.5 360.933,-112.5"/>
<text text-anchor="middle" x="418.433" y="-119.5" font-family="Helvetica,sans-Serif" font-size="10.00">O2Device/O2Device.h</text>
</a>
</g>
</g>
<!-- Node1&#45;&gt;Node12 -->
<g id="edge12" class="edge"><title>Node1&#45;&gt;Node12</title>
<path fill="none" stroke="midnightblue" d="M293.542,-168.854C325.685,-157.052 360.707,-144.194 385.462,-135.105"/>
<polygon fill="midnightblue" stroke="midnightblue" points="386.894,-138.308 395.075,-131.576 384.482,-131.737 386.894,-138.308"/>
</g>
<!-- Node3 -->
<g id="node3" class="node"><title>Node3</title>
<polygon fill="none" stroke="#bfbfbf" points="209.433,-0.5 209.433,-19.5 255.433,-19.5 255.433,-0.5 209.433,-0.5"/>
<text text-anchor="middle" x="232.433" y="-7.5" font-family="Helvetica,sans-Serif" font-size="10.00">cstdint</text>
</g>
<!-- Node2&#45;&gt;Node3 -->
<g id="edge2" class="edge"><title>Node2&#45;&gt;Node3</title>
<path fill="none" stroke="midnightblue" d="M260.818,-56.083C256.065,-48.5341 249.115,-37.4948 243.281,-28.2298"/>
<polygon fill="midnightblue" stroke="midnightblue" points="246.233,-26.3486 237.943,-19.7511 240.309,-30.0783 246.233,-26.3486"/>
</g>
<!-- Node4 -->
<g id="node4" class="node"><title>Node4</title>
<polygon fill="none" stroke="#bfbfbf" points="273.433,-0.5 273.433,-19.5 325.433,-19.5 325.433,-0.5 273.433,-0.5"/>
<text text-anchor="middle" x="299.433" y="-7.5" font-family="Helvetica,sans-Serif" font-size="10.00">memory</text>
</g>
<!-- Node2&#45;&gt;Node4 -->
<g id="edge3" class="edge"><title>Node2&#45;&gt;Node4</title>
<path fill="none" stroke="midnightblue" d="M271.882,-56.083C276.447,-48.6127 283.101,-37.7244 288.726,-28.5199"/>
<polygon fill="midnightblue" stroke="midnightblue" points="291.857,-30.109 294.085,-19.7511 285.884,-26.4588 291.857,-30.109"/>
</g>
<!-- Node5 -->
<g id="node5" class="node"><title>Node5</title>
<polygon fill="none" stroke="#bfbfbf" points="343.933,-0.5 343.933,-19.5 392.933,-19.5 392.933,-0.5 343.933,-0.5"/>
<text text-anchor="middle" x="368.433" y="-7.5" font-family="Helvetica,sans-Serif" font-size="10.00">cassert</text>
</g>
<!-- Node2&#45;&gt;Node5 -->
<g id="edge4" class="edge"><title>Node2&#45;&gt;Node5</title>
<path fill="none" stroke="midnightblue" d="M282.821,-56.324C299.104,-47.7034 324.3,-34.3643 343.149,-24.3855"/>
<polygon fill="midnightblue" stroke="midnightblue" points="344.885,-27.4267 352.085,-19.6545 341.61,-21.2402 344.885,-27.4267"/>
</g>
<!-- Node2&#45;&gt;Node6 -->
<g id="edge5" class="edge"><title>Node2&#45;&gt;Node6</title>
<path fill="none" stroke="midnightblue" d="M233.316,-56.4435C194.222,-46.3426 129.595,-29.6449 90.5156,-19.5478"/>
<polygon fill="midnightblue" stroke="midnightblue" points="91.245,-16.1214 80.6874,-17.0084 89.4939,-22.8988 91.245,-16.1214"/>
</g>
<!-- Node7 -->
<g id="node7" class="node"><title>Node7</title>
<polygon fill="none" stroke="#bfbfbf" points="135.433,-0.5 135.433,-19.5 191.433,-19.5 191.433,-0.5 135.433,-0.5"/>
<text text-anchor="middle" x="163.433" y="-7.5" font-family="Helvetica,sans-Serif" font-size="10.00">algorithm</text>
</g>
<!-- Node2&#45;&gt;Node7 -->
<g id="edge6" class="edge"><title>Node2&#45;&gt;Node7</title>
<path fill="none" stroke="midnightblue" d="M249.884,-56.324C233.441,-47.7034 207.998,-34.3643 188.964,-24.3855"/>
<polygon fill="midnightblue" stroke="midnightblue" points="190.422,-21.198 179.94,-19.6545 187.172,-27.3977 190.422,-21.198"/>
</g>
<!-- Node8&#45;&gt;Node2 -->
<g id="edge8" class="edge"><title>Node8&#45;&gt;Node2</title>
<path fill="none" stroke="midnightblue" d="M139.359,-112.444C164.651,-103.399 204.735,-89.064 233.112,-78.9158"/>
<polygon fill="midnightblue" stroke="midnightblue" points="234.381,-82.1794 242.618,-75.5164 232.024,-75.5882 234.381,-82.1794"/>
</g>
<!-- Node9 -->
<g id="node9" class="node"><title>Node9</title>
<polygon fill="none" stroke="#bfbfbf" points="14.9326,-56.5 14.9326,-75.5 73.9326,-75.5 73.9326,-56.5 14.9326,-56.5"/>
<text text-anchor="middle" x="44.4326" y="-63.5" font-family="Helvetica,sans-Serif" font-size="10.00">functional</text>
</g>
<!-- Node8&#45;&gt;Node9 -->
<g id="edge9" class="edge"><title>Node8&#45;&gt;Node9</title>
<path fill="none" stroke="midnightblue" d="M104.025,-112.324C93.3238,-104.185 77.0919,-91.8395 64.2698,-82.0874"/>
<polygon fill="midnightblue" stroke="midnightblue" points="66.1258,-79.1018 56.0475,-75.8339 61.8882,-84.6734 66.1258,-79.1018"/>
</g>
<!-- Node10 -->
<g id="node10" class="node"><title>Node10</title>
<polygon fill="none" stroke="#bfbfbf" points="91.9326,-56.5 91.9326,-75.5 126.933,-75.5 126.933,-56.5 91.9326,-56.5"/>
<text text-anchor="middle" x="109.433" y="-63.5" font-family="Helvetica,sans-Serif" font-size="10.00">map</text>
</g>
<!-- Node8&#45;&gt;Node10 -->
<g id="edge10" class="edge"><title>Node8&#45;&gt;Node10</title>
<path fill="none" stroke="midnightblue" d="M114.442,-112.083C113.647,-104.927 112.503,-94.6353 111.509,-85.6911"/>
<polygon fill="midnightblue" stroke="midnightblue" points="114.988,-85.3034 110.405,-75.7511 108.031,-86.0765 114.988,-85.3034"/>
</g>
<!-- Node8&#45;&gt;Node11 -->
<g id="edge11" class="edge"><title>Node8&#45;&gt;Node11</title>
<path fill="none" stroke="midnightblue" d="M124.019,-112.083C131.592,-104.22 142.811,-92.5688 151.947,-83.0813"/>
<polygon fill="midnightblue" stroke="midnightblue" points="154.59,-85.3821 159.006,-75.7511 149.548,-80.5266 154.59,-85.3821"/>
</g>
<!-- Node12&#45;&gt;Node2 -->
<g id="edge15" class="edge"><title>Node12&#45;&gt;Node2</title>
<path fill="none" stroke="midnightblue" d="M394.348,-112.444C368.888,-103.399 328.539,-89.064 299.974,-78.9158"/>
<polygon fill="midnightblue" stroke="midnightblue" points="300.999,-75.5661 290.405,-75.5164 298.656,-82.1622 300.999,-75.5661"/>
</g>
<!-- Node13 -->
<g id="node13" class="node"><title>Node13</title>
<polygon fill="none" stroke="#bfbfbf" points="420.433,-56.5 420.433,-75.5 508.433,-75.5 508.433,-56.5 420.433,-56.5"/>
<text text-anchor="middle" x="464.433" y="-63.5" font-family="Helvetica,sans-Serif" font-size="10.00">FairMQDevice.h</text>
</g>
<!-- Node12&#45;&gt;Node13 -->
<g id="edge13" class="edge"><title>Node12&#45;&gt;Node13</title>
<path fill="none" stroke="midnightblue" d="M426.029,-112.083C432.66,-104.298 442.454,-92.8015 450.491,-83.3665"/>
<polygon fill="midnightblue" stroke="midnightblue" points="453.158,-85.6332 456.978,-75.7511 447.829,-81.0939 453.158,-85.6332"/>
</g>
<!-- Node14 -->
<g id="node14" class="node"><title>Node14</title>
<polygon fill="none" stroke="#bfbfbf" points="526.433,-56.5 526.433,-75.5 672.433,-75.5 672.433,-56.5 526.433,-56.5"/>
<text text-anchor="middle" x="599.433" y="-63.5" font-family="Helvetica,sans-Serif" font-size="10.00">options/FairMQProgOptions.h</text>
</g>
<!-- Node12&#45;&gt;Node14 -->
<g id="edge14" class="edge"><title>Node12&#45;&gt;Node14</title>
<path fill="none" stroke="midnightblue" d="M447.113,-112.444C477.959,-103.241 527.161,-88.5617 561.262,-78.3879"/>
<polygon fill="midnightblue" stroke="midnightblue" points="562.305,-81.7293 570.887,-75.5164 560.304,-75.0215 562.305,-81.7293"/>
</g>
<!-- Node15 -->
<g id="node15" class="node"><title>Node15</title>
<polygon fill="none" stroke="#bfbfbf" points="690.933,-56.5 690.933,-75.5 841.933,-75.5 841.933,-56.5 690.933,-56.5"/>
<text text-anchor="middle" x="766.433" y="-63.5" font-family="Helvetica,sans-Serif" font-size="10.00">Monitoring/MonitoringFactory.h</text>
</g>
<!-- Node12&#45;&gt;Node15 -->
<g id="edge16" class="edge"><title>Node12&#45;&gt;Node15</title>
<path fill="none" stroke="midnightblue" d="M473.574,-112.444C535.427,-102.846 635.665,-87.2916 701.32,-77.1037"/>
<polygon fill="midnightblue" stroke="midnightblue" points="702.204,-80.5085 711.549,-75.5164 701.131,-73.5913 702.204,-80.5085"/>
</g>
<!-- Node16 -->
<g id="node16" class="node"><title>Node16</title>
<polygon fill="none" stroke="#bfbfbf" points="342.933,-56.5 342.933,-75.5 401.933,-75.5 401.933,-56.5 342.933,-56.5"/>
<text text-anchor="middle" x="372.433" y="-63.5" font-family="Helvetica,sans-Serif" font-size="10.00">stdexcept</text>
</g>
<!-- Node12&#45;&gt;Node16 -->
<g id="edge17" class="edge"><title>Node12&#45;&gt;Node16</title>
<path fill="none" stroke="midnightblue" d="M410.837,-112.083C404.205,-104.298 394.412,-92.8015 386.374,-83.3665"/>
<polygon fill="midnightblue" stroke="midnightblue" points="389.036,-81.0939 379.887,-75.7511 383.708,-85.6332 389.036,-81.0939"/>
</g>
</g>
</svg>
        <g id="navigator" transform="translate(0 0)" fill="#404254">
                <rect fill="#f2f5e9" fill-opacity="0.5" stroke="#606060" stroke-width=".5" x="0" y="0" width="60" height="60"/>
                <use id="zoomplus" xlink:href="#zoomPlus" x="17" y="9" onmousedown="handleZoom(evt,'in')"/>
                <use id="zoomminus" xlink:href="#zoomMin" x="42" y="9" onmousedown="handleZoom(evt,'out')"/>
                <use id="reset" xlink:href="#resetDef" x="30" y="36" onmousedown="handleReset()"/>
                <g id="arrowUp" xlink:href="#dirArrow" transform="translate(30 24)" onmousedown="handlePan(0,-1)">
                  <use xlink:href="#rim" fill="#404040">
                        <set attributeName="fill" to="#808080" begin="arrowUp.mouseover" end="arrowUp.mouseout"/>
                  </use>
                  <path fill="none" stroke="white" stroke-width="1.5" d="M0,-3.0v7 M-2.5,-0.5L0,-3.0L2.5,-0.5"/>
                </g>
                <g id="arrowRight" xlink:href="#dirArrow" transform="rotate(90) translate(36 -43)" onmousedown="handlePan(1,0)">
                  <use xlink:href="#rim" fill="#404040">
                        <set attributeName="fill" to="#808080" begin="arrowRight.mouseover" end="arrowRight.mouseout"/>
                  </use>
                  <path fill="none" stroke="white" stroke-width="1.5" d="M0,-3.0v7 M-2.5,-0.5L0,-3.0L2.5,-0.5"/>
                </g>
                <g id="arrowDown" xlink:href="#dirArrow" transform="rotate(180) translate(-30 -48)" onmousedown="handlePan(0,1)">
                  <use xlink:href="#rim" fill="#404040">
                        <set attributeName="fill" to="#808080" begin="arrowDown.mouseover" end="arrowDown.mouseout"/>
                  </use>
                  <path fill="none" stroke="white" stroke-width="1.5" d="M0,-3.0v7 M-2.5,-0.5L0,-3.0L2.5,-0.5"/>
                </g>
                <g id="arrowLeft" xlink:href="#dirArrow" transform="rotate(270) translate(-36 17)" onmousedown="handlePan(-1,0)">
                  <use xlink:href="#rim" fill="#404040">
                        <set attributeName="fill" to="#808080" begin="arrowLeft.mouseover" end="arrowLeft.mouseout"/>
                  </use>
                  <path fill="none" stroke="white" stroke-width="1.5" d="M0,-3.0v7 M-2.5,-0.5L0,-3.0L2.5,-0.5"/>
                </g>
        </g>
        <svg viewBox="0 0 15 15" width="100%" height="30px" preserveAspectRatio="xMaxYMin meet">
         <g id="arrow_out" transform="scale(0.3 0.3)">
          <a xlink:href="DataPublisherDevice_8h__incl_org.svg" target="_base">
           <rect id="button" ry="5" rx="5" y="6" x="6" height="38" width="38"
                fill="#f2f5e9" fill-opacity="0.5" stroke="#606060" stroke-width="1.0"/>
           <path id="arrow"
             d="M 11.500037,31.436501 C 11.940474,20.09759 22.043105,11.32322 32.158766,21.979434 L 37.068811,17.246167 C 37.068811,17.246167 37.088388,32 37.088388,32 L 22.160133,31.978069 C 22.160133,31.978069 26.997745,27.140456 26.997745,27.140456 C 18.528582,18.264221 13.291696,25.230495 11.500037,31.436501 z"
             style="fill:#404040;"/>
          </a>
         </g>
        </svg>
</svg>
