<?xml version="1.0" encoding="UTF-8" standalone="no"?>
<!DOCTYPE svg PUBLIC "-//W3C//DTD SVG 1.1//EN"
 "http://www.w3.org/Graphics/SVG/1.1/DTD/svg11.dtd">
<!-- Generated by graphviz version 2.36.0 (20140111.2315)
 -->
<!-- Title: /home/travis/build/AliceO2Group/AliceO2/Detectors/MUON/MID/Tracking/test/bench_Tracker.cxx Pages: 1 -->
<svg width="1452pt" height="402pt"
 viewBox="0.00 0.00 1452.00 402.00" xmlns="http://www.w3.org/2000/svg" xmlns:xlink="http://www.w3.org/1999/xlink">
<g id="graph0" class="graph" transform="scale(1 1) rotate(0) translate(4 398)">
<title>/home/travis/build/AliceO2Group/AliceO2/Detectors/MUON/MID/Tracking/test/bench_Tracker.cxx</title>
<!-- Node1 -->
<g id="node1" class="node"><title>Node1</title>
<polygon fill="#bfbfbf" stroke="black" points="348,-341 348,-393 506,-393 506,-341 348,-341"/>
<text text-anchor="start" x="356" y="-381" font-family="Helvetica,sans-Serif" font-size="10.00">/home/travis/build</text>
<text text-anchor="start" x="356" y="-370" font-family="Helvetica,sans-Serif" font-size="10.00">/AliceO2Group/AliceO2</text>
<text text-anchor="start" x="356" y="-359" font-family="Helvetica,sans-Serif" font-size="10.00">/Detectors/MUON/MID/Tracking</text>
<text text-anchor="middle" x="427" y="-348" font-family="Helvetica,sans-Serif" font-size="10.00">/test/bench_Tracker.cxx</text>
</g>
<!-- Node2 -->
<g id="node2" class="node"><title>Node2</title>
<polygon fill="none" stroke="#bfbfbf" points="0,-278.5 0,-297.5 124,-297.5 124,-278.5 0,-278.5"/>
<text text-anchor="middle" x="62" y="-285.5" font-family="Helvetica,sans-Serif" font-size="10.00">benchmark/benchmark.h</text>
</g>
<!-- Node1&#45;&gt;Node2 -->
<g id="edge1" class="edge"><title>Node1&#45;&gt;Node2</title>
<path fill="none" stroke="midnightblue" d="M347.762,-349.298C288.588,-336.823 205.732,-319.352 133,-304 126.374,-302.601 119.401,-301.129 112.518,-299.675"/>
<polygon fill="midnightblue" stroke="midnightblue" points="113.057,-296.212 102.549,-297.569 111.61,-303.061 113.057,-296.212"/>
</g>
<!-- Node3 -->
<g id="node3" class="node"><title>Node3</title>
<polygon fill="none" stroke="#bfbfbf" points="142,-278.5 142,-297.5 196,-297.5 196,-278.5 142,-278.5"/>
<text text-anchor="middle" x="169" y="-285.5" font-family="Helvetica,sans-Serif" font-size="10.00">iostream</text>
</g>
<!-- Node1&#45;&gt;Node3 -->
<g id="edge2" class="edge"><title>Node1&#45;&gt;Node3</title>
<path fill="none" stroke="midnightblue" d="M347.985,-344.906C306.66,-333.501 255.363,-318.757 210,-304 207.067,-303.046 204.031,-302.016 200.999,-300.959"/>
<polygon fill="midnightblue" stroke="midnightblue" points="202.049,-297.618 191.455,-297.548 199.693,-304.209 202.049,-297.618"/>
</g>
<!-- Node4 -->
<g id="node4" class="node"><title>Node4</title>
<polygon fill="none" stroke="#bfbfbf" points="361.5,-210.5 361.5,-229.5 410.5,-229.5 410.5,-210.5 361.5,-210.5"/>
<text text-anchor="middle" x="386" y="-217.5" font-family="Helvetica,sans-Serif" font-size="10.00">random</text>
</g>
<!-- Node1&#45;&gt;Node4 -->
<g id="edge3" class="edge"><title>Node1&#45;&gt;Node4</title>
<path fill="none" stroke="midnightblue" d="M417.898,-340.824C413.998,-329.623 409.536,-316.227 406,-304 399.71,-282.25 393.806,-256.906 390.066,-240"/>
<polygon fill="midnightblue" stroke="midnightblue" points="393.391,-238.819 387.845,-229.791 386.551,-240.307 393.391,-238.819"/>
</g>
<!-- Node5 -->
<g id="node5" class="node"><title>Node5</title>
<g id="a_node5"><a xlink:href="../../d6/d31/Cluster2D_8h.html" target="_top" xlink:title="Reconstructed cluster per RPC. ">
<polygon fill="none" stroke="black" points="825,-278.5 825,-297.5 973,-297.5 973,-278.5 825,-278.5"/>
<text text-anchor="middle" x="899" y="-285.5" font-family="Helvetica,sans-Serif" font-size="10.00">DataFormatsMID/Cluster2D.h</text>
</a>
</g>
</g>
<!-- Node1&#45;&gt;Node5 -->
<g id="edge4" class="edge"><title>Node1&#45;&gt;Node5</title>
<path fill="none" stroke="midnightblue" d="M506.002,-353.112C599.058,-337.931 751.714,-313.028 836.786,-299.149"/>
<polygon fill="midnightblue" stroke="midnightblue" points="837.511,-302.577 846.817,-297.513 836.384,-295.669 837.511,-302.577"/>
</g>
<!-- Node8 -->
<g id="node8" class="node"><title>Node8</title>
<g id="a_node8"><a xlink:href="../../d4/d54/DataFormats_2Detectors_2MUON_2MID_2include_2DataFormatsMID_2Track_8h.html" target="_top" xlink:title="Reconstructed MID track. ">
<polygon fill="none" stroke="black" points="599,-210.5 599,-229.5 727,-229.5 727,-210.5 599,-210.5"/>
<text text-anchor="middle" x="663" y="-217.5" font-family="Helvetica,sans-Serif" font-size="10.00">DataFormatsMID/Track.h</text>
</a>
</g>
</g>
<!-- Node1&#45;&gt;Node8 -->
<g id="edge7" class="edge"><title>Node1&#45;&gt;Node8</title>
<path fill="none" stroke="midnightblue" d="M470.094,-340.964C489.149,-329.788 511.775,-316.374 532,-304 570.659,-280.348 615.116,-251.915 641.033,-235.214"/>
<polygon fill="midnightblue" stroke="midnightblue" points="643.193,-237.986 649.697,-229.623 639.397,-232.104 643.193,-237.986"/>
</g>
<!-- Node25 -->
<g id="node25" class="node"><title>Node25</title>
<g id="a_node25"><a xlink:href="../../d4/d73/MID_2Base_2include_2MIDBase_2Mapping_8h.html" target="_top" xlink:title="Mapping for MID. ">
<polygon fill="none" stroke="black" points="252,-278.5 252,-297.5 358,-297.5 358,-278.5 252,-278.5"/>
<text text-anchor="middle" x="305" y="-285.5" font-family="Helvetica,sans-Serif" font-size="10.00">MIDBase/Mapping.h</text>
</a>
</g>
</g>
<!-- Node1&#45;&gt;Node25 -->
<g id="edge24" class="edge"><title>Node1&#45;&gt;Node25</title>
<path fill="none" stroke="midnightblue" d="M387.053,-340.787C367.117,-328.205 343.762,-313.464 327.078,-302.934"/>
<polygon fill="midnightblue" stroke="midnightblue" points="328.884,-299.935 318.559,-297.558 325.147,-305.855 328.884,-299.935"/>
</g>
<!-- Node27 -->
<g id="node27" class="node"><title>Node27</title>
<g id="a_node27"><a xlink:href="../../d7/d0a/MpArea_8h.html" target="_top" xlink:title="Mapping area for MID. ">
<polygon fill="none" stroke="black" points="139.5,-210.5 139.5,-229.5 242.5,-229.5 242.5,-210.5 139.5,-210.5"/>
<text text-anchor="middle" x="191" y="-217.5" font-family="Helvetica,sans-Serif" font-size="10.00">MIDBase/MpArea.h</text>
</a>
</g>
</g>
<!-- Node1&#45;&gt;Node27 -->
<g id="edge29" class="edge"><title>Node1&#45;&gt;Node27</title>
<path fill="none" stroke="midnightblue" d="M347.812,-351.907C312.955,-342.704 273.167,-327.805 243,-304 221.251,-286.838 206.123,-257.901 197.998,-239.129"/>
<polygon fill="midnightblue" stroke="midnightblue" points="201.145,-237.579 194.116,-229.651 194.667,-240.232 201.145,-237.579"/>
</g>
<!-- Node28 -->
<g id="node28" class="node"><title>Node28</title>
<g id="a_node28"><a xlink:href="../../d7/d40/HitFinder_8h.html" target="_top" xlink:title="Hit finder for MID. ">
<polygon fill="none" stroke="black" points="608.5,-278.5 608.5,-297.5 717.5,-297.5 717.5,-278.5 608.5,-278.5"/>
<text text-anchor="middle" x="663" y="-285.5" font-family="Helvetica,sans-Serif" font-size="10.00">MIDBase/HitFinder.h</text>
</a>
</g>
</g>
<!-- Node1&#45;&gt;Node28 -->
<g id="edge30" class="edge"><title>Node1&#45;&gt;Node28</title>
<path fill="none" stroke="midnightblue" d="M503.949,-340.894C545.395,-327.371 594.56,-311.33 627.142,-300.699"/>
<polygon fill="midnightblue" stroke="midnightblue" points="628.274,-304.012 636.695,-297.583 626.102,-297.357 628.274,-304.012"/>
</g>
<!-- Node31 -->
<g id="node31" class="node"><title>Node31</title>
<g id="a_node31"><a xlink:href="../../d3/d93/TrackGenerator_8h.html" target="_top" xlink:title="Fast track generator for MID. ">
<polygon fill="none" stroke="black" points="414.5,-273 414.5,-303 523.5,-303 523.5,-273 414.5,-273"/>
<text text-anchor="start" x="422.5" y="-291" font-family="Helvetica,sans-Serif" font-size="10.00">MIDTestingSimTools</text>
<text text-anchor="middle" x="469" y="-280" font-family="Helvetica,sans-Serif" font-size="10.00">/TrackGenerator.h</text>
</a>
</g>
</g>
<!-- Node1&#45;&gt;Node31 -->
<g id="edge38" class="edge"><title>Node1&#45;&gt;Node31</title>
<path fill="none" stroke="midnightblue" d="M440.752,-340.787C445.795,-331.542 451.473,-321.132 456.409,-312.083"/>
<polygon fill="midnightblue" stroke="midnightblue" points="459.51,-313.707 461.226,-303.252 453.365,-310.355 459.51,-313.707"/>
</g>
<!-- Node32 -->
<g id="node32" class="node"><title>Node32</title>
<polygon fill="none" stroke="#bfbfbf" points="991,-278.5 991,-297.5 1049,-297.5 1049,-278.5 991,-278.5"/>
<text text-anchor="middle" x="1020" y="-285.5" font-family="Helvetica,sans-Serif" font-size="10.00">Tracker.h</text>
</g>
<!-- Node1&#45;&gt;Node32 -->
<g id="edge43" class="edge"><title>Node1&#45;&gt;Node32</title>
<path fill="none" stroke="midnightblue" d="M506.281,-363.718C615.038,-359.107 815.93,-345.275 982,-304 985.067,-303.238 988.218,-302.286 991.331,-301.235"/>
<polygon fill="midnightblue" stroke="midnightblue" points="992.839,-304.408 1000.99,-297.643 990.399,-297.847 992.839,-304.408"/>
</g>
<!-- Node6 -->
<g id="node6" class="node"><title>Node6</title>
<polygon fill="none" stroke="#bfbfbf" points="1029.5,-205 1029.5,-235 1124.5,-235 1124.5,-205 1029.5,-205"/>
<text text-anchor="start" x="1037.5" y="-223" font-family="Helvetica,sans-Serif" font-size="10.00">boost/serialization</text>
<text text-anchor="middle" x="1077" y="-212" font-family="Helvetica,sans-Serif" font-size="10.00">/access.hpp</text>
</g>
<!-- Node5&#45;&gt;Node6 -->
<g id="edge5" class="edge"><title>Node5&#45;&gt;Node6</title>
<path fill="none" stroke="midnightblue" d="M922.27,-278.372C949.404,-268.311 994.953,-251.422 1029.62,-238.566"/>
<polygon fill="midnightblue" stroke="midnightblue" points="1030.93,-241.815 1039.09,-235.056 1028.5,-235.251 1030.93,-241.815"/>
</g>
<!-- Node7 -->
<g id="node7" class="node"><title>Node7</title>
<polygon fill="none" stroke="#bfbfbf" points="965,-210.5 965,-229.5 1011,-229.5 1011,-210.5 965,-210.5"/>
<text text-anchor="middle" x="988" y="-217.5" font-family="Helvetica,sans-Serif" font-size="10.00">cstdint</text>
</g>
<!-- Node5&#45;&gt;Node7 -->
<g id="edge6" class="edge"><title>Node5&#45;&gt;Node7</title>
<path fill="none" stroke="midnightblue" d="M910.635,-278.372C925.16,-267.6 950.24,-249.002 967.899,-235.906"/>
<polygon fill="midnightblue" stroke="midnightblue" points="970.414,-238.398 976.362,-229.63 966.245,-232.776 970.414,-238.398"/>
</g>
<!-- Node9 -->
<g id="node9" class="node"><title>Node9</title>
<polygon fill="none" stroke="#bfbfbf" points="432,-142.5 432,-161.5 470,-161.5 470,-142.5 432,-142.5"/>
<text text-anchor="middle" x="451" y="-149.5" font-family="Helvetica,sans-Serif" font-size="10.00">array</text>
</g>
<!-- Node8&#45;&gt;Node9 -->
<g id="edge8" class="edge"><title>Node8&#45;&gt;Node9</title>
<path fill="none" stroke="midnightblue" d="M635.285,-210.372C595.036,-197.841 520.763,-174.719 479.873,-161.989"/>
<polygon fill="midnightblue" stroke="midnightblue" points="480.826,-158.62 470.237,-158.989 478.745,-165.303 480.826,-158.62"/>
</g>
<!-- Node10 -->
<g id="node10" class="node"><title>Node10</title>
<polygon fill="none" stroke="#bfbfbf" points="625,-142.5 625,-161.5 677,-161.5 677,-142.5 625,-142.5"/>
<text text-anchor="middle" x="651" y="-149.5" font-family="Helvetica,sans-Serif" font-size="10.00">ostream</text>
</g>
<!-- Node8&#45;&gt;Node10 -->
<g id="edge9" class="edge"><title>Node8&#45;&gt;Node10</title>
<path fill="none" stroke="midnightblue" d="M661.431,-210.372C659.662,-200.643 656.732,-184.528 654.427,-171.85"/>
<polygon fill="midnightblue" stroke="midnightblue" points="657.84,-171.054 652.607,-161.841 650.953,-172.306 657.84,-171.054"/>
</g>
<!-- Node11 -->
<g id="node11" class="node"><title>Node11</title>
<polygon fill="none" stroke="#bfbfbf" points="695.5,-137 695.5,-167 792.5,-167 792.5,-137 695.5,-137"/>
<text text-anchor="start" x="703.5" y="-155" font-family="Helvetica,sans-Serif" font-size="10.00">boost/serialization</text>
<text text-anchor="middle" x="744" y="-144" font-family="Helvetica,sans-Serif" font-size="10.00">/split_member.hpp</text>
</g>
<!-- Node8&#45;&gt;Node11 -->
<g id="edge10" class="edge"><title>Node8&#45;&gt;Node11</title>
<path fill="none" stroke="midnightblue" d="M673.589,-210.372C684.951,-201.114 703.407,-186.076 718.574,-173.718"/>
<polygon fill="midnightblue" stroke="midnightblue" points="721.054,-176.212 726.595,-167.181 716.632,-170.785 721.054,-176.212"/>
</g>
<!-- Node12 -->
<g id="node12" class="node"><title>Node12</title>
<polygon fill="none" stroke="#bfbfbf" points="511.5,-137 511.5,-167 606.5,-167 606.5,-137 511.5,-137"/>
<text text-anchor="start" x="519.5" y="-155" font-family="Helvetica,sans-Serif" font-size="10.00">boost/serialization</text>
<text text-anchor="middle" x="559" y="-144" font-family="Helvetica,sans-Serif" font-size="10.00">/array.hpp</text>
</g>
<!-- Node8&#45;&gt;Node12 -->
<g id="edge11" class="edge"><title>Node8&#45;&gt;Node12</title>
<path fill="none" stroke="midnightblue" d="M649.404,-210.372C634.411,-200.857 609.796,-185.236 590.033,-172.694"/>
<polygon fill="midnightblue" stroke="midnightblue" points="591.665,-169.585 581.347,-167.181 587.914,-175.495 591.665,-169.585"/>
</g>
<!-- Node13 -->
<g id="node13" class="node"><title>Node13</title>
<g id="a_node13"><a xlink:href="../../dd/d76/Cartesian3D_8h.html" target="_top" xlink:title="MathUtils/Cartesian3D.h">
<polygon fill="none" stroke="black" points="810.5,-142.5 810.5,-161.5 935.5,-161.5 935.5,-142.5 810.5,-142.5"/>
<text text-anchor="middle" x="873" y="-149.5" font-family="Helvetica,sans-Serif" font-size="10.00">MathUtils/Cartesian3D.h</text>
</a>
</g>
</g>
<!-- Node8&#45;&gt;Node13 -->
<g id="edge12" class="edge"><title>Node8&#45;&gt;Node13</title>
<path fill="none" stroke="midnightblue" d="M690.454,-210.372C727.737,-198.654 794.493,-177.674 836.119,-164.591"/>
<polygon fill="midnightblue" stroke="midnightblue" points="837.382,-167.863 845.872,-161.526 835.283,-161.185 837.382,-167.863"/>
</g>
<!-- Node14 -->
<g id="node14" class="node"><title>Node14</title>
<polygon fill="none" stroke="#bfbfbf" points="88.5,-69 88.5,-99 239.5,-99 239.5,-69 88.5,-69"/>
<text text-anchor="start" x="96.5" y="-87" font-family="Helvetica,sans-Serif" font-size="10.00">Math/GenVector/Displacement</text>
<text text-anchor="middle" x="164" y="-76" font-family="Helvetica,sans-Serif" font-size="10.00">Vector3D.h</text>
</g>
<!-- Node13&#45;&gt;Node14 -->
<g id="edge13" class="edge"><title>Node13&#45;&gt;Node14</title>
<path fill="none" stroke="midnightblue" d="M836.913,-142.448C825.486,-140.019 812.766,-137.601 801,-136 560.722,-103.3 494.881,-128.692 250.217,-100.048"/>
<polygon fill="midnightblue" stroke="midnightblue" points="250.282,-96.5314 239.939,-98.8257 249.455,-103.482 250.282,-96.5314"/>
</g>
<!-- Node15 -->
<g id="node15" class="node"><title>Node15</title>
<polygon fill="none" stroke="#bfbfbf" points="258,-74.5 258,-93.5 434,-93.5 434,-74.5 258,-74.5"/>
<text text-anchor="middle" x="346" y="-81.5" font-family="Helvetica,sans-Serif" font-size="10.00">Math/GenVector/PositionVector3D.h</text>
</g>
<!-- Node13&#45;&gt;Node15 -->
<g id="edge14" class="edge"><title>Node13&#45;&gt;Node15</title>
<path fill="none" stroke="midnightblue" d="M835.766,-142.465C824.628,-140.122 812.358,-137.749 801,-136 642.95,-111.659 601.629,-120.226 443,-100 431.626,-98.5497 419.529,-96.8255 407.876,-95.0715"/>
<polygon fill="midnightblue" stroke="midnightblue" points="408.193,-91.5794 397.779,-93.5287 407.135,-98.4991 408.193,-91.5794"/>
</g>
<!-- Node16 -->
<g id="node16" class="node"><title>Node16</title>
<polygon fill="none" stroke="#bfbfbf" points="451.5,-74.5 451.5,-93.5 600.5,-93.5 600.5,-74.5 451.5,-74.5"/>
<text text-anchor="middle" x="526" y="-81.5" font-family="Helvetica,sans-Serif" font-size="10.00">Math/GenVector/Rotation3D.h</text>
</g>
<!-- Node13&#45;&gt;Node16 -->
<g id="edge15" class="edge"><title>Node13&#45;&gt;Node16</title>
<path fill="none" stroke="midnightblue" d="M832.667,-142.434C822.352,-140.288 811.273,-138.022 801,-136 726.099,-121.254 639.48,-105.385 583.784,-95.3343"/>
<polygon fill="midnightblue" stroke="midnightblue" points="584.216,-91.8559 573.754,-93.5268 582.974,-98.7449 584.216,-91.8559"/>
</g>
<!-- Node17 -->
<g id="node17" class="node"><title>Node17</title>
<polygon fill="none" stroke="#bfbfbf" points="619,-74.5 619,-93.5 775,-93.5 775,-74.5 619,-74.5"/>
<text text-anchor="middle" x="697" y="-81.5" font-family="Helvetica,sans-Serif" font-size="10.00">Math/GenVector/Transform3D.h</text>
</g>
<!-- Node13&#45;&gt;Node17 -->
<g id="edge16" class="edge"><title>Node13&#45;&gt;Node17</title>
<path fill="none" stroke="midnightblue" d="M849.991,-142.372C819.206,-130.827 764.447,-110.293 729.472,-97.1772"/>
<polygon fill="midnightblue" stroke="midnightblue" points="730.328,-93.76 719.736,-93.5259 727.87,-100.314 730.328,-93.76"/>
</g>
<!-- Node18 -->
<g id="node18" class="node"><title>Node18</title>
<polygon fill="none" stroke="#bfbfbf" points="793,-74.5 793,-93.5 953,-93.5 953,-74.5 793,-74.5"/>
<text text-anchor="middle" x="873" y="-81.5" font-family="Helvetica,sans-Serif" font-size="10.00">Math/GenVector/Translation3D.h</text>
</g>
<!-- Node13&#45;&gt;Node18 -->
<g id="edge17" class="edge"><title>Node13&#45;&gt;Node18</title>
<path fill="none" stroke="midnightblue" d="M873,-142.372C873,-132.643 873,-116.528 873,-103.85"/>
<polygon fill="midnightblue" stroke="midnightblue" points="876.5,-103.841 873,-93.8411 869.5,-103.841 876.5,-103.841"/>
</g>
<!-- Node19 -->
<g id="node19" class="node"><title>Node19</title>
<polygon fill="none" stroke="#bfbfbf" points="971,-74.5 971,-93.5 1027,-93.5 1027,-74.5 971,-74.5"/>
<text text-anchor="middle" x="999" y="-81.5" font-family="Helvetica,sans-Serif" font-size="10.00">Rtypes.h</text>
</g>
<!-- Node13&#45;&gt;Node19 -->
<g id="edge18" class="edge"><title>Node13&#45;&gt;Node19</title>
<path fill="none" stroke="midnightblue" d="M889.472,-142.372C910.885,-131.156 948.499,-111.453 973.583,-98.3136"/>
<polygon fill="midnightblue" stroke="midnightblue" points="975.289,-101.371 982.524,-93.6305 972.041,-95.1702 975.289,-101.371"/>
</g>
<!-- Node20 -->
<g id="node20" class="node"><title>Node20</title>
<polygon fill="none" stroke="#bfbfbf" points="1045,-74.5 1045,-93.5 1121,-93.5 1121,-74.5 1045,-74.5"/>
<text text-anchor="middle" x="1083" y="-81.5" font-family="Helvetica,sans-Serif" font-size="10.00">TGeoMatrix.h</text>
</g>
<!-- Node13&#45;&gt;Node20 -->
<g id="edge19" class="edge"><title>Node13&#45;&gt;Node20</title>
<path fill="none" stroke="midnightblue" d="M900.454,-142.372C937.737,-130.654 1004.49,-109.674 1046.12,-96.5912"/>
<polygon fill="midnightblue" stroke="midnightblue" points="1047.38,-99.8632 1055.87,-93.5259 1045.28,-93.1852 1047.38,-99.8632"/>
</g>
<!-- Node21 -->
<g id="node21" class="node"><title>Node21</title>
<polygon fill="none" stroke="#bfbfbf" points="1139.5,-74.5 1139.5,-93.5 1184.5,-93.5 1184.5,-74.5 1139.5,-74.5"/>
<text text-anchor="middle" x="1162" y="-81.5" font-family="Helvetica,sans-Serif" font-size="10.00">iosfwd</text>
</g>
<!-- Node13&#45;&gt;Node21 -->
<g id="edge20" class="edge"><title>Node13&#45;&gt;Node21</title>
<path fill="none" stroke="midnightblue" d="M935.616,-142.914C988.336,-135.083 1065.28,-121.241 1130,-100 1132.13,-99.3005 1134.31,-98.4948 1136.47,-97.6275"/>
<polygon fill="midnightblue" stroke="midnightblue" points="1137.96,-100.798 1145.7,-93.5696 1135.14,-94.3892 1137.96,-100.798"/>
</g>
<!-- Node22 -->
<g id="node22" class="node"><title>Node22</title>
<g id="a_node22"><a xlink:href="../../d2/dd0/Cartesian2D_8h.html" target="_top" xlink:title="MathUtils/Cartesian2D.h">
<polygon fill="none" stroke="black" points="1202.5,-74.5 1202.5,-93.5 1327.5,-93.5 1327.5,-74.5 1202.5,-74.5"/>
<text text-anchor="middle" x="1265" y="-81.5" font-family="Helvetica,sans-Serif" font-size="10.00">MathUtils/Cartesian2D.h</text>
</a>
</g>
</g>
<!-- Node13&#45;&gt;Node22 -->
<g id="edge21" class="edge"><title>Node13&#45;&gt;Node22</title>
<path fill="none" stroke="midnightblue" d="M931.828,-142.478C996.129,-132.964 1102.12,-116.699 1193,-100 1200.42,-98.6362 1208.25,-97.1026 1215.91,-95.5504"/>
<polygon fill="midnightblue" stroke="midnightblue" points="1216.74,-98.9537 1225.83,-93.5117 1215.33,-92.097 1216.74,-98.9537"/>
</g>
<!-- Node23 -->
<g id="node23" class="node"><title>Node23</title>
<polygon fill="none" stroke="#bfbfbf" points="1098.5,-1 1098.5,-31 1249.5,-31 1249.5,-1 1098.5,-1"/>
<text text-anchor="start" x="1106.5" y="-19" font-family="Helvetica,sans-Serif" font-size="10.00">Math/GenVector/Displacement</text>
<text text-anchor="middle" x="1174" y="-8" font-family="Helvetica,sans-Serif" font-size="10.00">Vector2D.h</text>
</g>
<!-- Node22&#45;&gt;Node23 -->
<g id="edge22" class="edge"><title>Node22&#45;&gt;Node23</title>
<path fill="none" stroke="midnightblue" d="M1253.1,-74.3717C1240.22,-65.0286 1219.22,-49.7966 1202.09,-37.375"/>
<polygon fill="midnightblue" stroke="midnightblue" points="1203.7,-34.2194 1193.55,-31.1815 1199.59,-39.8859 1203.7,-34.2194"/>
</g>
<!-- Node24 -->
<g id="node24" class="node"><title>Node24</title>
<polygon fill="none" stroke="#bfbfbf" points="1268,-6.5 1268,-25.5 1444,-25.5 1444,-6.5 1268,-6.5"/>
<text text-anchor="middle" x="1356" y="-13.5" font-family="Helvetica,sans-Serif" font-size="10.00">Math/GenVector/PositionVector2D.h</text>
</g>
<!-- Node22&#45;&gt;Node24 -->
<g id="edge23" class="edge"><title>Node22&#45;&gt;Node24</title>
<path fill="none" stroke="midnightblue" d="M1276.9,-74.3717C1291.88,-63.5015 1317.86,-44.6602 1335.94,-31.5474"/>
<polygon fill="midnightblue" stroke="midnightblue" points="1338.06,-34.3349 1344.1,-25.6305 1333.95,-28.6684 1338.06,-34.3349"/>
</g>
<!-- Node25&#45;&gt;Node9 -->
<g id="edge25" class="edge"><title>Node25&#45;&gt;Node9</title>
<path fill="none" stroke="midnightblue" d="M299.542,-278.285C290.133,-262.03 273.391,-226.684 290,-204 320.191,-162.768 383.902,-154.04 421.494,-152.669"/>
<polygon fill="midnightblue" stroke="midnightblue" points="421.881,-156.162 431.806,-152.454 421.735,-149.163 421.881,-156.162"/>
</g>
<!-- Node26 -->
<g id="node26" class="node"><title>Node26</title>
<polygon fill="none" stroke="#bfbfbf" points="299,-210.5 299,-229.5 343,-229.5 343,-210.5 299,-210.5"/>
<text text-anchor="middle" x="321" y="-217.5" font-family="Helvetica,sans-Serif" font-size="10.00">vector</text>
</g>
<!-- Node25&#45;&gt;Node26 -->
<g id="edge26" class="edge"><title>Node25&#45;&gt;Node26</title>
<path fill="none" stroke="midnightblue" d="M307.092,-278.372C309.45,-268.643 313.357,-252.528 316.43,-239.85"/>
<polygon fill="midnightblue" stroke="midnightblue" points="319.902,-240.384 318.857,-229.841 313.099,-238.735 319.902,-240.384"/>
</g>
<!-- Node25&#45;&gt;Node27 -->
<g id="edge27" class="edge"><title>Node25&#45;&gt;Node27</title>
<path fill="none" stroke="midnightblue" d="M290.096,-278.372C270.894,-267.254 237.29,-247.8 214.599,-234.662"/>
<polygon fill="midnightblue" stroke="midnightblue" points="216.315,-231.612 205.907,-229.63 212.808,-237.67 216.315,-231.612"/>
</g>
<!-- Node27&#45;&gt;Node9 -->
<g id="edge28" class="edge"><title>Node27&#45;&gt;Node9</title>
<path fill="none" stroke="midnightblue" d="M224.724,-210.439C276.184,-197.376 373.433,-172.69 421.948,-160.375"/>
<polygon fill="midnightblue" stroke="midnightblue" points="422.972,-163.726 431.803,-157.873 421.249,-156.941 422.972,-163.726"/>
</g>
<!-- Node28&#45;&gt;Node8 -->
<g id="edge32" class="edge"><title>Node28&#45;&gt;Node8</title>
<path fill="none" stroke="midnightblue" d="M663,-278.372C663,-268.643 663,-252.528 663,-239.85"/>
<polygon fill="midnightblue" stroke="midnightblue" points="666.5,-239.841 663,-229.841 659.5,-239.841 666.5,-239.841"/>
</g>
<!-- Node28&#45;&gt;Node13 -->
<g id="edge31" class="edge"><title>Node28&#45;&gt;Node13</title>
<path fill="none" stroke="midnightblue" d="M717.546,-279.799C788.612,-269.863 905.352,-251.428 918,-236 935.367,-214.815 910.88,-185.917 891.785,-168.405"/>
<polygon fill="midnightblue" stroke="midnightblue" points="893.899,-165.604 884.069,-161.653 889.289,-170.872 893.899,-165.604"/>
</g>
<!-- Node29 -->
<g id="node29" class="node"><title>Node29</title>
<g id="a_node29"><a xlink:href="../../de/d0c/GeometryTransformer_8h.html" target="_top" xlink:title="Geometry transformer for MID. ">
<polygon fill="none" stroke="black" points="745,-210.5 745,-229.5 909,-229.5 909,-210.5 745,-210.5"/>
<text text-anchor="middle" x="827" y="-217.5" font-family="Helvetica,sans-Serif" font-size="10.00">MIDBase/GeometryTransformer.h</text>
</a>
</g>
</g>
<!-- Node28&#45;&gt;Node29 -->
<g id="edge33" class="edge"><title>Node28&#45;&gt;Node29</title>
<path fill="none" stroke="midnightblue" d="M684.44,-278.372C713.003,-266.877 763.714,-246.469 796.321,-233.346"/>
<polygon fill="midnightblue" stroke="midnightblue" points="797.844,-236.506 805.814,-229.526 795.231,-230.012 797.844,-236.506"/>
</g>
<!-- Node30 -->
<g id="node30" class="node"><title>Node30</title>
<g id="a_node30"><a xlink:href="../../dd/df0/Detectors_2MUON_2MID_2Base_2include_2MIDBase_2Constants_8h.html" target="_top" xlink:title="Useful constants for MID. ">
<polygon fill="none" stroke="black" points="467,-210.5 467,-229.5 581,-229.5 581,-210.5 467,-210.5"/>
<text text-anchor="middle" x="524" y="-217.5" font-family="Helvetica,sans-Serif" font-size="10.00">MIDBase/Constants.h</text>
</a>
</g>
</g>
<!-- Node28&#45;&gt;Node30 -->
<g id="edge36" class="edge"><title>Node28&#45;&gt;Node30</title>
<path fill="none" stroke="midnightblue" d="M644.828,-278.372C620.999,-267.057 578.979,-247.105 551.311,-233.968"/>
<polygon fill="midnightblue" stroke="midnightblue" points="552.711,-230.758 542.176,-229.63 549.708,-237.081 552.711,-230.758"/>
</g>
<!-- Node29&#45;&gt;Node9 -->
<g id="edge34" class="edge"><title>Node29&#45;&gt;Node9</title>
<path fill="none" stroke="midnightblue" d="M775.52,-210.422C762.62,-208.297 748.807,-206.045 736,-204 632.526,-187.479 605.325,-190.567 503,-168 495.43,-166.331 487.339,-164.179 479.849,-162.03"/>
<polygon fill="midnightblue" stroke="midnightblue" points="480.694,-158.63 470.112,-159.146 478.706,-165.342 480.694,-158.63"/>
</g>
<!-- Node29&#45;&gt;Node13 -->
<g id="edge35" class="edge"><title>Node29&#45;&gt;Node13</title>
<path fill="none" stroke="midnightblue" d="M833.014,-210.372C840.069,-200.25 851.941,-183.215 860.921,-170.331"/>
<polygon fill="midnightblue" stroke="midnightblue" points="863.991,-172.046 866.838,-161.841 858.249,-168.044 863.991,-172.046"/>
</g>
<!-- Node30&#45;&gt;Node9 -->
<g id="edge37" class="edge"><title>Node30&#45;&gt;Node9</title>
<path fill="none" stroke="midnightblue" d="M514.457,-210.372C502.826,-199.856 482.945,-181.882 468.531,-168.85"/>
<polygon fill="midnightblue" stroke="midnightblue" points="470.544,-165.951 460.779,-161.841 465.849,-171.144 470.544,-165.951"/>
</g>
<!-- Node31&#45;&gt;Node4 -->
<g id="edge41" class="edge"><title>Node31&#45;&gt;Node4</title>
<path fill="none" stroke="midnightblue" d="M450.99,-272.679C437.408,-261.879 418.821,-247.098 405.002,-236.11"/>
<polygon fill="midnightblue" stroke="midnightblue" points="407.108,-233.313 397.102,-229.828 402.751,-238.792 407.108,-233.313"/>
</g>
<!-- Node31&#45;&gt;Node8 -->
<g id="edge42" class="edge"><title>Node31&#45;&gt;Node8</title>
<path fill="none" stroke="midnightblue" d="M510.618,-272.841C545.629,-260.93 595.117,-244.094 628.091,-232.876"/>
<polygon fill="midnightblue" stroke="midnightblue" points="629.42,-236.121 637.76,-229.587 627.166,-229.494 629.42,-236.121"/>
</g>
<!-- Node31&#45;&gt;Node9 -->
<g id="edge39" class="edge"><title>Node31&#45;&gt;Node9</title>
<path fill="none" stroke="midnightblue" d="M465.425,-272.801C462.988,-262.619 459.874,-248.542 458,-236 454.737,-214.153 452.875,-188.827 451.905,-171.952"/>
<polygon fill="midnightblue" stroke="midnightblue" points="455.39,-171.568 451.369,-161.766 448.399,-171.936 455.39,-171.568"/>
</g>
<!-- Node31&#45;&gt;Node26 -->
<g id="edge40" class="edge"><title>Node31&#45;&gt;Node26</title>
<path fill="none" stroke="midnightblue" d="M436.406,-272.92C413.106,-262.794 381.043,-248.735 353,-236 351.603,-235.366 350.174,-234.712 348.733,-234.05"/>
<polygon fill="midnightblue" stroke="midnightblue" points="349.785,-230.679 339.241,-229.643 346.837,-237.029 349.785,-230.679"/>
</g>
</g>
</svg>
