<?xml version="1.0" encoding="UTF-8" standalone="no"?>
<!DOCTYPE svg PUBLIC "-//W3C//DTD SVG 1.1//EN"
 "http://www.w3.org/Graphics/SVG/1.1/DTD/svg11.dtd">
<!-- Generated by graphviz version 2.36.0 (20140111.2315)
 -->
<!-- Title: /home/travis/build/AliceO2Group/AliceO2/CCDB/include/CCDB/Condition.h Pages: 1 -->
<svg width="1910pt" height="230pt"
 viewBox="0.00 0.00 1910.00 230.00" xmlns="http://www.w3.org/2000/svg" xmlns:xlink="http://www.w3.org/1999/xlink">
<g id="graph0" class="graph" transform="scale(1 1) rotate(0) translate(4 226)">
<title>/home/travis/build/AliceO2Group/AliceO2/CCDB/include/CCDB/Condition.h</title>
<!-- Node1 -->
<g id="node1" class="node"><title>Node1</title>
<polygon fill="#bfbfbf" stroke="black" points="816.5,-180.5 816.5,-221.5 983.5,-221.5 983.5,-180.5 816.5,-180.5"/>
<text text-anchor="start" x="824.5" y="-209.5" font-family="Helvetica,sans-Serif" font-size="10.00">/home/travis/build</text>
<text text-anchor="start" x="824.5" y="-198.5" font-family="Helvetica,sans-Serif" font-size="10.00">/AliceO2Group/AliceO2</text>
<text text-anchor="middle" x="900" y="-187.5" font-family="Helvetica,sans-Serif" font-size="10.00">/CCDB/include/CCDB/Condition.h</text>
</g>
<!-- Node2 -->
<g id="node2" class="node"><title>Node2</title>
<g id="a_node2"><a xlink:href="../../d4/de8/BackendOCDB_8cxx.html" target="_top" xlink:title="Implementation of the BackendOCDB class. ">
<polygon fill="none" stroke="black" points="-0.5,-96.5 -0.5,-137.5 154.5,-137.5 154.5,-96.5 -0.5,-96.5"/>
<text text-anchor="start" x="7.5" y="-125.5" font-family="Helvetica,sans-Serif" font-size="10.00">/home/travis/build</text>
<text text-anchor="start" x="7.5" y="-114.5" font-family="Helvetica,sans-Serif" font-size="10.00">/AliceO2Group/AliceO2</text>
<text text-anchor="middle" x="77" y="-103.5" font-family="Helvetica,sans-Serif" font-size="10.00">/CCDB/src/BackendOCDB.cxx</text>
</a>
</g>
</g>
<!-- Node1&#45;&gt;Node2 -->
<g id="edge1" class="edge"><title>Node1&#45;&gt;Node2</title>
<path fill="none" stroke="midnightblue" d="M806.158,-199.274C665.467,-196.746 392.03,-186.242 164,-144 155.01,-142.335 145.627,-140.089 136.492,-137.612"/>
<polygon fill="midnightblue" stroke="midnightblue" points="806.411,-202.779 816.469,-199.449 806.53,-195.78 806.411,-202.779"/>
</g>
<!-- Node3 -->
<g id="node3" class="node"><title>Node3</title>
<g id="a_node3"><a xlink:href="../../d2/d1c/Condition_8cxx.html" target="_top" xlink:title="/home/travis/build\l/AliceO2Group/AliceO2\l/CCDB/src/Condition.cxx">
<polygon fill="none" stroke="black" points="173,-96.5 173,-137.5 301,-137.5 301,-96.5 173,-96.5"/>
<text text-anchor="start" x="181" y="-125.5" font-family="Helvetica,sans-Serif" font-size="10.00">/home/travis/build</text>
<text text-anchor="start" x="181" y="-114.5" font-family="Helvetica,sans-Serif" font-size="10.00">/AliceO2Group/AliceO2</text>
<text text-anchor="middle" x="237" y="-103.5" font-family="Helvetica,sans-Serif" font-size="10.00">/CCDB/src/Condition.cxx</text>
</a>
</g>
</g>
<!-- Node1&#45;&gt;Node3 -->
<g id="edge2" class="edge"><title>Node1&#45;&gt;Node3</title>
<path fill="none" stroke="midnightblue" d="M806.399,-198.237C689.1,-194.406 482.512,-182.286 310,-144 302.382,-142.309 294.469,-140.05 286.786,-137.567"/>
<polygon fill="midnightblue" stroke="midnightblue" points="806.32,-201.736 816.425,-198.551 806.539,-194.739 806.32,-201.736"/>
</g>
<!-- Node4 -->
<g id="node4" class="node"><title>Node4</title>
<g id="a_node4"><a xlink:href="../../da/dd3/ConditionsMQServer_8cxx.html" target="_top" xlink:title="/home/travis/build\l/AliceO2Group/AliceO2\l/CCDB/src/ConditionsMQServer.cxx">
<polygon fill="none" stroke="black" points="319,-96.5 319,-137.5 497,-137.5 497,-96.5 319,-96.5"/>
<text text-anchor="start" x="327" y="-125.5" font-family="Helvetica,sans-Serif" font-size="10.00">/home/travis/build</text>
<text text-anchor="start" x="327" y="-114.5" font-family="Helvetica,sans-Serif" font-size="10.00">/AliceO2Group/AliceO2</text>
<text text-anchor="middle" x="408" y="-103.5" font-family="Helvetica,sans-Serif" font-size="10.00">/CCDB/src/ConditionsMQServer.cxx</text>
</a>
</g>
</g>
<!-- Node1&#45;&gt;Node4 -->
<g id="edge3" class="edge"><title>Node1&#45;&gt;Node4</title>
<path fill="none" stroke="midnightblue" d="M806.294,-189.73C726.345,-180.233 608.55,-164.499 507,-144 497.681,-142.119 487.933,-139.888 478.343,-137.537"/>
<polygon fill="midnightblue" stroke="midnightblue" points="805.999,-193.219 816.34,-190.914 806.819,-186.267 805.999,-193.219"/>
</g>
<!-- Node5 -->
<g id="node5" class="node"><title>Node5</title>
<g id="a_node5"><a xlink:href="../../d8/d9a/FileStorage_8cxx.html" target="_top" xlink:title="/home/travis/build\l/AliceO2Group/AliceO2\l/CCDB/src/FileStorage.cxx">
<polygon fill="none" stroke="black" points="515.5,-96.5 515.5,-137.5 652.5,-137.5 652.5,-96.5 515.5,-96.5"/>
<text text-anchor="start" x="523.5" y="-125.5" font-family="Helvetica,sans-Serif" font-size="10.00">/home/travis/build</text>
<text text-anchor="start" x="523.5" y="-114.5" font-family="Helvetica,sans-Serif" font-size="10.00">/AliceO2Group/AliceO2</text>
<text text-anchor="middle" x="584" y="-103.5" font-family="Helvetica,sans-Serif" font-size="10.00">/CCDB/src/FileStorage.cxx</text>
</a>
</g>
</g>
<!-- Node1&#45;&gt;Node5 -->
<g id="edge4" class="edge"><title>Node1&#45;&gt;Node5</title>
<path fill="none" stroke="midnightblue" d="M806.526,-180.066C762.445,-170.14 709.267,-157.409 662,-144 655.134,-142.052 647.974,-139.873 640.898,-137.628"/>
<polygon fill="midnightblue" stroke="midnightblue" points="805.842,-183.499 816.365,-182.269 807.372,-176.668 805.842,-183.499"/>
</g>
<!-- Node6 -->
<g id="node6" class="node"><title>Node6</title>
<g id="a_node6"><a xlink:href="../../d7/df1/GridStorage_8cxx.html" target="_top" xlink:title="/home/travis/build\l/AliceO2Group/AliceO2\l/CCDB/src/GridStorage.cxx">
<polygon fill="none" stroke="black" points="670.5,-96.5 670.5,-137.5 809.5,-137.5 809.5,-96.5 670.5,-96.5"/>
<text text-anchor="start" x="678.5" y="-125.5" font-family="Helvetica,sans-Serif" font-size="10.00">/home/travis/build</text>
<text text-anchor="start" x="678.5" y="-114.5" font-family="Helvetica,sans-Serif" font-size="10.00">/AliceO2Group/AliceO2</text>
<text text-anchor="middle" x="740" y="-103.5" font-family="Helvetica,sans-Serif" font-size="10.00">/CCDB/src/GridStorage.cxx</text>
</a>
</g>
</g>
<!-- Node1&#45;&gt;Node6 -->
<g id="edge5" class="edge"><title>Node1&#45;&gt;Node6</title>
<path fill="none" stroke="midnightblue" d="M852.511,-175.662C828.828,-163.524 800.563,-149.039 778.288,-137.623"/>
<polygon fill="midnightblue" stroke="midnightblue" points="851.18,-178.913 861.676,-180.359 854.373,-172.683 851.18,-178.913"/>
</g>
<!-- Node7 -->
<g id="node7" class="node"><title>Node7</title>
<g id="a_node7"><a xlink:href="../../da/d92/LocalStorage_8cxx.html" target="_top" xlink:title="/home/travis/build\l/AliceO2Group/AliceO2\l/CCDB/src/LocalStorage.cxx">
<polygon fill="none" stroke="black" points="828,-96.5 828,-137.5 972,-137.5 972,-96.5 828,-96.5"/>
<text text-anchor="start" x="836" y="-125.5" font-family="Helvetica,sans-Serif" font-size="10.00">/home/travis/build</text>
<text text-anchor="start" x="836" y="-114.5" font-family="Helvetica,sans-Serif" font-size="10.00">/AliceO2Group/AliceO2</text>
<text text-anchor="middle" x="900" y="-103.5" font-family="Helvetica,sans-Serif" font-size="10.00">/CCDB/src/LocalStorage.cxx</text>
</a>
</g>
</g>
<!-- Node1&#45;&gt;Node7 -->
<g id="edge6" class="edge"><title>Node1&#45;&gt;Node7</title>
<path fill="none" stroke="midnightblue" d="M900,-169.881C900,-159.133 900,-147.309 900,-137.667"/>
<polygon fill="midnightblue" stroke="midnightblue" points="896.5,-170.15 900,-180.15 903.5,-170.15 896.5,-170.15"/>
</g>
<!-- Node8 -->
<g id="node8" class="node"><title>Node8</title>
<g id="a_node8"><a xlink:href="../../d0/da4/Manager_8cxx.html" target="_top" xlink:title="/home/travis/build\l/AliceO2Group/AliceO2\l/CCDB/src/Manager.cxx">
<polygon fill="none" stroke="black" points="990.5,-96.5 990.5,-137.5 1115.5,-137.5 1115.5,-96.5 990.5,-96.5"/>
<text text-anchor="start" x="998.5" y="-125.5" font-family="Helvetica,sans-Serif" font-size="10.00">/home/travis/build</text>
<text text-anchor="start" x="998.5" y="-114.5" font-family="Helvetica,sans-Serif" font-size="10.00">/AliceO2Group/AliceO2</text>
<text text-anchor="middle" x="1053" y="-103.5" font-family="Helvetica,sans-Serif" font-size="10.00">/CCDB/src/Manager.cxx</text>
</a>
</g>
</g>
<!-- Node1&#45;&gt;Node8 -->
<g id="edge7" class="edge"><title>Node1&#45;&gt;Node8</title>
<path fill="none" stroke="midnightblue" d="M945.712,-175.501C968.298,-163.396 995.181,-148.988 1016.39,-137.623"/>
<polygon fill="midnightblue" stroke="midnightblue" points="943.808,-172.55 936.647,-180.359 947.115,-178.72 943.808,-172.55"/>
</g>
<!-- Node9 -->
<g id="node9" class="node"><title>Node9</title>
<g id="a_node9"><a xlink:href="../../db/d03/Storage_8cxx.html" target="_top" xlink:title="/home/travis/build\l/AliceO2Group/AliceO2\l/CCDB/src/Storage.cxx">
<polygon fill="none" stroke="black" points="1133.5,-96.5 1133.5,-137.5 1254.5,-137.5 1254.5,-96.5 1133.5,-96.5"/>
<text text-anchor="start" x="1141.5" y="-125.5" font-family="Helvetica,sans-Serif" font-size="10.00">/home/travis/build</text>
<text text-anchor="start" x="1141.5" y="-114.5" font-family="Helvetica,sans-Serif" font-size="10.00">/AliceO2Group/AliceO2</text>
<text text-anchor="middle" x="1194" y="-103.5" font-family="Helvetica,sans-Serif" font-size="10.00">/CCDB/src/Storage.cxx</text>
</a>
</g>
</g>
<!-- Node1&#45;&gt;Node9 -->
<g id="edge8" class="edge"><title>Node1&#45;&gt;Node9</title>
<path fill="none" stroke="midnightblue" d="M993.427,-179.086C1033.86,-169.407 1081.55,-157.146 1124,-144 1130.32,-142.044 1136.89,-139.836 1143.38,-137.553"/>
<polygon fill="midnightblue" stroke="midnightblue" points="992.501,-175.709 983.581,-181.426 994.12,-182.519 992.501,-175.709"/>
</g>
<!-- Node10 -->
<g id="node10" class="node"><title>Node10</title>
<g id="a_node10"><a xlink:href="../../d7/d65/testQueryServerStandalone_8cxx.html" target="_top" xlink:title="/home/travis/build\l/AliceO2Group/AliceO2\l/CCDB/test/testQueryServerStandalone.cxx">
<polygon fill="none" stroke="black" points="1273,-96.5 1273,-137.5 1483,-137.5 1483,-96.5 1273,-96.5"/>
<text text-anchor="start" x="1281" y="-125.5" font-family="Helvetica,sans-Serif" font-size="10.00">/home/travis/build</text>
<text text-anchor="start" x="1281" y="-114.5" font-family="Helvetica,sans-Serif" font-size="10.00">/AliceO2Group/AliceO2</text>
<text text-anchor="middle" x="1378" y="-103.5" font-family="Helvetica,sans-Serif" font-size="10.00">/CCDB/test/testQueryServerStandalone.cxx</text>
</a>
</g>
</g>
<!-- Node1&#45;&gt;Node10 -->
<g id="edge9" class="edge"><title>Node1&#45;&gt;Node10</title>
<path fill="none" stroke="midnightblue" d="M993.698,-187.364C1067.18,-177.017 1171.91,-161.303 1263,-144 1273.36,-142.033 1284.2,-139.805 1294.92,-137.501"/>
<polygon fill="midnightblue" stroke="midnightblue" points="992.959,-183.934 983.541,-188.789 993.931,-190.866 992.959,-183.934"/>
</g>
<!-- Node11 -->
<g id="node11" class="node"><title>Node11</title>
<g id="a_node11"><a xlink:href="../../d2/d37/testWriteReadAny_8cxx.html" target="_top" xlink:title="/home/travis/build\l/AliceO2Group/AliceO2\l/CCDB/test/testWriteReadAny.cxx">
<polygon fill="none" stroke="black" points="1501,-96.5 1501,-137.5 1671,-137.5 1671,-96.5 1501,-96.5"/>
<text text-anchor="start" x="1509" y="-125.5" font-family="Helvetica,sans-Serif" font-size="10.00">/home/travis/build</text>
<text text-anchor="start" x="1509" y="-114.5" font-family="Helvetica,sans-Serif" font-size="10.00">/AliceO2Group/AliceO2</text>
<text text-anchor="middle" x="1586" y="-103.5" font-family="Helvetica,sans-Serif" font-size="10.00">/CCDB/test/testWriteReadAny.cxx</text>
</a>
</g>
</g>
<!-- Node1&#45;&gt;Node11 -->
<g id="edge10" class="edge"><title>Node1&#45;&gt;Node11</title>
<path fill="none" stroke="midnightblue" d="M994.002,-196.203C1111.36,-190.297 1317.87,-176.06 1492,-144 1501.49,-142.252 1511.42,-139.994 1521.11,-137.539"/>
<polygon fill="midnightblue" stroke="midnightblue" points="993.786,-192.709 983.971,-196.698 994.131,-199.701 993.786,-192.709"/>
</g>
<!-- Node12 -->
<g id="node12" class="node"><title>Node12</title>
<g id="a_node12"><a xlink:href="../../dc/df2/CDBInterface_8h.html" target="_top" xlink:title="Simple interface to the CDB manager. ">
<polygon fill="none" stroke="black" points="1689.5,-91 1689.5,-143 1832.5,-143 1832.5,-91 1689.5,-91"/>
<text text-anchor="start" x="1697.5" y="-131" font-family="Helvetica,sans-Serif" font-size="10.00">/home/travis/build</text>
<text text-anchor="start" x="1697.5" y="-120" font-family="Helvetica,sans-Serif" font-size="10.00">/AliceO2Group/AliceO2</text>
<text text-anchor="start" x="1697.5" y="-109" font-family="Helvetica,sans-Serif" font-size="10.00">/Detectors/TPC/base/include</text>
<text text-anchor="middle" x="1761" y="-98" font-family="Helvetica,sans-Serif" font-size="10.00">/TPCBase/CDBInterface.h</text>
</a>
</g>
</g>
<!-- Node1&#45;&gt;Node12 -->
<g id="edge11" class="edge"><title>Node1&#45;&gt;Node12</title>
<path fill="none" stroke="midnightblue" d="M994.049,-200.453C1141.57,-199.555 1435.77,-191.258 1680,-144 1683.05,-143.411 1686.14,-142.743 1689.24,-142.014"/>
<polygon fill="midnightblue" stroke="midnightblue" points="993.665,-196.955 983.683,-200.506 993.701,-203.955 993.665,-196.955"/>
</g>
<!-- Node13 -->
<g id="node13" class="node"><title>Node13</title>
<g id="a_node13"><a xlink:href="../../dc/d71/CDBInterface_8cxx.html" target="_top" xlink:title="/home/travis/build\l/AliceO2Group/AliceO2\l/Detectors/TPC/base/src\l/CDBInterface.cxx">
<polygon fill="none" stroke="black" points="1623,-1 1623,-53 1749,-53 1749,-1 1623,-1"/>
<text text-anchor="start" x="1631" y="-41" font-family="Helvetica,sans-Serif" font-size="10.00">/home/travis/build</text>
<text text-anchor="start" x="1631" y="-30" font-family="Helvetica,sans-Serif" font-size="10.00">/AliceO2Group/AliceO2</text>
<text text-anchor="start" x="1631" y="-19" font-family="Helvetica,sans-Serif" font-size="10.00">/Detectors/TPC/base/src</text>
<text text-anchor="middle" x="1686" y="-8" font-family="Helvetica,sans-Serif" font-size="10.00">/CDBInterface.cxx</text>
</a>
</g>
</g>
<!-- Node12&#45;&gt;Node13 -->
<g id="edge12" class="edge"><title>Node12&#45;&gt;Node13</title>
<path fill="none" stroke="midnightblue" d="M1732.74,-82.8459C1724.34,-72.9851 1715.27,-62.3492 1707.39,-53.0921"/>
<polygon fill="midnightblue" stroke="midnightblue" points="1730.16,-85.2062 1739.31,-90.5468 1735.48,-80.6656 1730.16,-85.2062"/>
</g>
<!-- Node14 -->
<g id="node14" class="node"><title>Node14</title>
<g id="a_node14"><a xlink:href="../../d1/d8a/testTPCCDBInterface_8cxx.html" target="_top" xlink:title="/home/travis/build\l/AliceO2Group/AliceO2\l/Detectors/TPC/base/test\l/testTPCCDBInterface.cxx">
<polygon fill="none" stroke="black" points="1767.5,-1 1767.5,-53 1902.5,-53 1902.5,-1 1767.5,-1"/>
<text text-anchor="start" x="1775.5" y="-41" font-family="Helvetica,sans-Serif" font-size="10.00">/home/travis/build</text>
<text text-anchor="start" x="1775.5" y="-30" font-family="Helvetica,sans-Serif" font-size="10.00">/AliceO2Group/AliceO2</text>
<text text-anchor="start" x="1775.5" y="-19" font-family="Helvetica,sans-Serif" font-size="10.00">/Detectors/TPC/base/test</text>
<text text-anchor="middle" x="1835" y="-8" font-family="Helvetica,sans-Serif" font-size="10.00">/testTPCCDBInterface.cxx</text>
</a>
</g>
</g>
<!-- Node12&#45;&gt;Node14 -->
<g id="edge13" class="edge"><title>Node12&#45;&gt;Node14</title>
<path fill="none" stroke="midnightblue" d="M1788.88,-82.8459C1797.17,-72.9851 1806.12,-62.3492 1813.9,-53.0921"/>
<polygon fill="midnightblue" stroke="midnightblue" points="1786.16,-80.6405 1782.4,-90.5468 1791.52,-85.1457 1786.16,-80.6405"/>
</g>
</g>
</svg>
