<?xml version="1.0" encoding="UTF-8" standalone="no"?>
<!DOCTYPE svg PUBLIC "-//W3C//DTD SVG 1.1//EN"
 "http://www.w3.org/Graphics/SVG/1.1/DTD/svg11.dtd">
<!-- Generated by graphviz version 2.36.0 (20140111.2315)
 -->
<!-- Title: /home/travis/build/AliceO2Group/AliceO2/Detectors/ITSMFT/common/reconstruction/include/ITSMFTReconstruction/PixelReader.h Pages: 1 -->
<!--zoomable 362 -->
<svg id="main" version="1.1" xmlns="http://www.w3.org/2000/svg" xmlns:xlink="http://www.w3.org/1999/xlink" xml:space="preserve" onload="init(evt)">
<style type="text/css"><![CDATA[
.edge:hover path { stroke: red; }
.edge:hover polygon { stroke: red; fill: red; }
]]></style>
<script type="text/javascript"><![CDATA[
var edges = document.getElementsByTagName('g');
if (edges && edges.length) {
  for (var i=0;i<edges.length;i++) {
    if (edges[i].id.substr(0,4)=='edge') {
      edges[i].setAttribute('class','edge');
    }
  }
}
]]></script>
        <defs>
                <circle id="rim" cx="0" cy="0" r="7"/>
                <circle id="rim2" cx="0" cy="0" r="3.5"/>
                <g id="zoomPlus">
                        <use xlink:href="#rim" fill="#404040">
                                <set attributeName="fill" to="#808080" begin="zoomplus.mouseover" end="zoomplus.mouseout"/>
                        </use>
                        <path d="M-4,0h8M0,-4v8" fill="none" stroke="white" stroke-width="1.5" pointer-events="none"/>
                </g>
                <g id="zoomMin">
                        <use xlink:href="#rim" fill="#404040">
                                <set attributeName="fill" to="#808080" begin="zoomminus.mouseover" end="zoomminus.mouseout"/>
                        </use>
                        <path d="M-4,0h8" fill="none" stroke="white" stroke-width="1.5" pointer-events="none"/>
                </g>
                <g id="dirArrow">
                        <path fill="none" stroke="white" stroke-width="1.5" d="M0,-3.0v7 M-2.5,-0.5L0,-3.0L2.5,-0.5"/>
                </g>
               <g id="resetDef">
                       <use xlink:href="#rim2" fill="#404040">
                               <set attributeName="fill" to="#808080" begin="reset.mouseover" end="reset.mouseout"/>
                       </use>
               </g>
        </defs>

<script type="text/javascript">
var viewWidth = 712;
var viewHeight = 362;
var sectionId = 'dynsection-1';
</script>
<script xlink:href="../../svgpan.js"/>
<svg id="graph" class="graph">
<g id="viewport">
<title>/home/travis/build/AliceO2Group/AliceO2/Detectors/ITSMFT/common/reconstruction/include/ITSMFTReconstruction/PixelReader.h</title>
<!-- Node1 -->
<g id="node1" class="node"><title>Node1</title>
<polygon fill="#bfbfbf" stroke="black" points="305,-290.5 305,-353.5 491,-353.5 491,-290.5 305,-290.5"/>
<text text-anchor="start" x="313" y="-341.5" font-family="Helvetica,sans-Serif" font-size="10.00">/home/travis/build</text>
<text text-anchor="start" x="313" y="-330.5" font-family="Helvetica,sans-Serif" font-size="10.00">/AliceO2Group/AliceO2</text>
<text text-anchor="start" x="313" y="-319.5" font-family="Helvetica,sans-Serif" font-size="10.00">/Detectors/ITSMFT/common</text>
<text text-anchor="start" x="313" y="-308.5" font-family="Helvetica,sans-Serif" font-size="10.00">/reconstruction/include</text>
<text text-anchor="middle" x="398" y="-297.5" font-family="Helvetica,sans-Serif" font-size="10.00">/ITSMFTReconstruction/PixelReader.h</text>
</g>
<!-- Node2 -->
<g id="node2" class="node"><title>Node2</title>
<g id="a_node2"><a xlink:href="../../d6/d04/ITSMFT_2common_2reconstruction_2include_2ITSMFTReconstruction_2Clusterer_8h.html" target="_top" xlink:title="/home/travis/build\l/AliceO2Group/AliceO2\l/Detectors/ITSMFT/common\l/reconstruction/include\l/ITSMFTReconstruction/Clusterer.h">
<polygon fill="none" stroke="black" points="254.5,-190.5 254.5,-253.5 427.5,-253.5 427.5,-190.5 254.5,-190.5"/>
<text text-anchor="start" x="262.5" y="-241.5" font-family="Helvetica,sans-Serif" font-size="10.00">/home/travis/build</text>
<text text-anchor="start" x="262.5" y="-230.5" font-family="Helvetica,sans-Serif" font-size="10.00">/AliceO2Group/AliceO2</text>
<text text-anchor="start" x="262.5" y="-219.5" font-family="Helvetica,sans-Serif" font-size="10.00">/Detectors/ITSMFT/common</text>
<text text-anchor="start" x="262.5" y="-208.5" font-family="Helvetica,sans-Serif" font-size="10.00">/reconstruction/include</text>
<text text-anchor="middle" x="341" y="-197.5" font-family="Helvetica,sans-Serif" font-size="10.00">/ITSMFTReconstruction/Clusterer.h</text>
</a>
</g>
</g>
<!-- Node1&#45;&gt;Node2 -->
<g id="edge1" class="edge"><title>Node1&#45;&gt;Node2</title>
<path fill="none" stroke="midnightblue" d="M375.049,-281.54C369.642,-272.243 363.957,-262.47 358.815,-253.63"/>
<polygon fill="midnightblue" stroke="midnightblue" points="372.068,-283.377 380.121,-290.261 378.119,-279.857 372.068,-283.377"/>
</g>
<!-- Node4 -->
<g id="node4" class="node"><title>Node4</title>
<g id="a_node4"><a xlink:href="../../d6/d67/ITSMFT_2ITS_2reconstruction_2include_2ITSReconstruction_2ClustererTask_8h.html" target="_top" xlink:title="/home/travis/build\l/AliceO2Group/AliceO2\l/Detectors/ITSMFT/ITS\l/reconstruction/include\l/ITSReconstruction/ClustererTask.h">
<polygon fill="none" stroke="black" points="69,-90.5 69,-153.5 243,-153.5 243,-90.5 69,-90.5"/>
<text text-anchor="start" x="77" y="-141.5" font-family="Helvetica,sans-Serif" font-size="10.00">/home/travis/build</text>
<text text-anchor="start" x="77" y="-130.5" font-family="Helvetica,sans-Serif" font-size="10.00">/AliceO2Group/AliceO2</text>
<text text-anchor="start" x="77" y="-119.5" font-family="Helvetica,sans-Serif" font-size="10.00">/Detectors/ITSMFT/ITS</text>
<text text-anchor="start" x="77" y="-108.5" font-family="Helvetica,sans-Serif" font-size="10.00">/reconstruction/include</text>
<text text-anchor="middle" x="156" y="-97.5" font-family="Helvetica,sans-Serif" font-size="10.00">/ITSReconstruction/ClustererTask.h</text>
</a>
</g>
</g>
<!-- Node1&#45;&gt;Node4 -->
<g id="edge10" class="edge"><title>Node1&#45;&gt;Node4</title>
<path fill="none" stroke="midnightblue" d="M295.946,-285.944C277.911,-277.144 260.098,-266.547 245,-254 211.589,-226.234 185.518,-182.841 170.453,-153.687"/>
<polygon fill="midnightblue" stroke="midnightblue" points="294.846,-289.294 305.385,-290.383 297.825,-282.96 294.846,-289.294"/>
</g>
<!-- Node7 -->
<g id="node7" class="node"><title>Node7</title>
<g id="a_node7"><a xlink:href="../../db/d12/ITSMFT_2MFT_2reconstruction_2include_2MFTReconstruction_2ClustererTask_8h.html" target="_top" xlink:title="/home/travis/build\l/AliceO2Group/AliceO2\l/Detectors/ITSMFT/MFT\l/reconstruction/include\l/MFTReconstruction/ClustererTask.h">
<polygon fill="none" stroke="black" points="438.5,-90.5 438.5,-153.5 617.5,-153.5 617.5,-90.5 438.5,-90.5"/>
<text text-anchor="start" x="446.5" y="-141.5" font-family="Helvetica,sans-Serif" font-size="10.00">/home/travis/build</text>
<text text-anchor="start" x="446.5" y="-130.5" font-family="Helvetica,sans-Serif" font-size="10.00">/AliceO2Group/AliceO2</text>
<text text-anchor="start" x="446.5" y="-119.5" font-family="Helvetica,sans-Serif" font-size="10.00">/Detectors/ITSMFT/MFT</text>
<text text-anchor="start" x="446.5" y="-108.5" font-family="Helvetica,sans-Serif" font-size="10.00">/reconstruction/include</text>
<text text-anchor="middle" x="528" y="-97.5" font-family="Helvetica,sans-Serif" font-size="10.00">/MFTReconstruction/ClustererTask.h</text>
</a>
</g>
</g>
<!-- Node1&#45;&gt;Node7 -->
<g id="edge11" class="edge"><title>Node1&#45;&gt;Node7</title>
<path fill="none" stroke="midnightblue" d="M420.455,-281.436C438.89,-249.215 463.728,-206.465 475,-190 483.378,-177.762 493.298,-164.861 502.277,-153.683"/>
<polygon fill="midnightblue" stroke="midnightblue" points="417.362,-279.795 415.442,-290.214 423.44,-283.266 417.362,-279.795"/>
</g>
<!-- Node10 -->
<g id="node10" class="node"><title>Node10</title>
<g id="a_node10"><a xlink:href="../../d2/dff/PixelReader_8cxx.html" target="_top" xlink:title="Implementation of the ITS pixel reader class. ">
<polygon fill="none" stroke="black" points="484.5,-196 484.5,-248 657.5,-248 657.5,-196 484.5,-196"/>
<text text-anchor="start" x="492.5" y="-236" font-family="Helvetica,sans-Serif" font-size="10.00">/home/travis/build</text>
<text text-anchor="start" x="492.5" y="-225" font-family="Helvetica,sans-Serif" font-size="10.00">/AliceO2Group/AliceO2</text>
<text text-anchor="start" x="492.5" y="-214" font-family="Helvetica,sans-Serif" font-size="10.00">/Detectors/ITSMFT/common</text>
<text text-anchor="middle" x="571" y="-203" font-family="Helvetica,sans-Serif" font-size="10.00">/reconstruction/src/PixelReader.cxx</text>
</a>
</g>
</g>
<!-- Node1&#45;&gt;Node10 -->
<g id="edge9" class="edge"><title>Node1&#45;&gt;Node10</title>
<path fill="none" stroke="midnightblue" d="M461.129,-285.239C482.91,-272.9 506.829,-259.351 526.773,-248.054"/>
<polygon fill="midnightblue" stroke="midnightblue" points="459.239,-282.287 452.264,-290.261 462.69,-288.377 459.239,-282.287"/>
</g>
<!-- Node3 -->
<g id="node3" class="node"><title>Node3</title>
<g id="a_node3"><a xlink:href="../../d3/d41/Clusterer_8cxx.html" target="_top" xlink:title="Implementation of the ITS cluster finder. ">
<polygon fill="none" stroke="black" points="261.5,-96 261.5,-148 420.5,-148 420.5,-96 261.5,-96"/>
<text text-anchor="start" x="269.5" y="-136" font-family="Helvetica,sans-Serif" font-size="10.00">/home/travis/build</text>
<text text-anchor="start" x="269.5" y="-125" font-family="Helvetica,sans-Serif" font-size="10.00">/AliceO2Group/AliceO2</text>
<text text-anchor="start" x="269.5" y="-114" font-family="Helvetica,sans-Serif" font-size="10.00">/Detectors/ITSMFT/common</text>
<text text-anchor="middle" x="341" y="-103" font-family="Helvetica,sans-Serif" font-size="10.00">/reconstruction/src/Clusterer.cxx</text>
</a>
</g>
</g>
<!-- Node2&#45;&gt;Node3 -->
<g id="edge2" class="edge"><title>Node2&#45;&gt;Node3</title>
<path fill="none" stroke="midnightblue" d="M341,-180.079C341,-169.21 341,-157.794 341,-148.054"/>
<polygon fill="midnightblue" stroke="midnightblue" points="337.5,-180.261 341,-190.261 344.5,-180.261 337.5,-180.261"/>
</g>
<!-- Node2&#45;&gt;Node4 -->
<g id="edge3" class="edge"><title>Node2&#45;&gt;Node4</title>
<path fill="none" stroke="midnightblue" d="M274.247,-185.639C254.411,-175.131 232.859,-163.715 213.654,-153.541"/>
<polygon fill="midnightblue" stroke="midnightblue" points="272.751,-188.807 283.226,-190.395 276.027,-182.621 272.751,-188.807"/>
</g>
<!-- Node2&#45;&gt;Node7 -->
<g id="edge6" class="edge"><title>Node2&#45;&gt;Node7</title>
<path fill="none" stroke="midnightblue" d="M408.474,-185.639C428.525,-175.131 450.31,-163.715 469.723,-153.541"/>
<polygon fill="midnightblue" stroke="midnightblue" points="406.632,-182.653 399.399,-190.395 409.881,-188.853 406.632,-182.653"/>
</g>
<!-- Node5 -->
<g id="node5" class="node"><title>Node5</title>
<g id="a_node5"><a xlink:href="../../d8/d95/ITSMFT_2ITS_2reconstruction_2src_2ClustererTask_8cxx.html" target="_top" xlink:title="/home/travis/build\l/AliceO2Group/AliceO2\l/Detectors/ITSMFT/ITS\l/reconstruction/src/ClustererTask.cxx">
<polygon fill="none" stroke="black" points="-0.5,-1 -0.5,-53 180.5,-53 180.5,-1 -0.5,-1"/>
<text text-anchor="start" x="7.5" y="-41" font-family="Helvetica,sans-Serif" font-size="10.00">/home/travis/build</text>
<text text-anchor="start" x="7.5" y="-30" font-family="Helvetica,sans-Serif" font-size="10.00">/AliceO2Group/AliceO2</text>
<text text-anchor="start" x="7.5" y="-19" font-family="Helvetica,sans-Serif" font-size="10.00">/Detectors/ITSMFT/ITS</text>
<text text-anchor="middle" x="90" y="-8" font-family="Helvetica,sans-Serif" font-size="10.00">/reconstruction/src/ClustererTask.cxx</text>
</a>
</g>
</g>
<!-- Node4&#45;&gt;Node5 -->
<g id="edge4" class="edge"><title>Node4&#45;&gt;Node5</title>
<path fill="none" stroke="midnightblue" d="M128.243,-81.8882C121.33,-72.1463 114.101,-61.9603 107.813,-53.1001"/>
<polygon fill="midnightblue" stroke="midnightblue" points="125.564,-84.1611 134.206,-90.2906 131.273,-80.1099 125.564,-84.1611"/>
</g>
<!-- Node6 -->
<g id="node6" class="node"><title>Node6</title>
<g id="a_node6"><a xlink:href="../../d6/da1/run__clus__its_8C.html" target="_top" xlink:title="/home/travis/build\l/AliceO2Group/AliceO2\l/macro/run_clus_its.C">
<polygon fill="none" stroke="black" points="199,-6.5 199,-47.5 317,-47.5 317,-6.5 199,-6.5"/>
<text text-anchor="start" x="207" y="-35.5" font-family="Helvetica,sans-Serif" font-size="10.00">/home/travis/build</text>
<text text-anchor="start" x="207" y="-24.5" font-family="Helvetica,sans-Serif" font-size="10.00">/AliceO2Group/AliceO2</text>
<text text-anchor="middle" x="258" y="-13.5" font-family="Helvetica,sans-Serif" font-size="10.00">/macro/run_clus_its.C</text>
</a>
</g>
</g>
<!-- Node4&#45;&gt;Node6 -->
<g id="edge5" class="edge"><title>Node4&#45;&gt;Node6</title>
<path fill="none" stroke="midnightblue" d="M197.443,-83.2138C210.855,-70.9852 225.181,-57.9229 236.531,-47.5747"/>
<polygon fill="midnightblue" stroke="midnightblue" points="194.713,-80.9667 189.681,-90.2906 199.429,-86.1394 194.713,-80.9667"/>
</g>
<!-- Node8 -->
<g id="node8" class="node"><title>Node8</title>
<g id="a_node8"><a xlink:href="../../d9/d5e/ITSMFT_2MFT_2reconstruction_2src_2ClustererTask_8cxx.html" target="_top" xlink:title="/home/travis/build\l/AliceO2Group/AliceO2\l/Detectors/ITSMFT/MFT\l/reconstruction/src/ClustererTask.cxx">
<polygon fill="none" stroke="black" points="386.5,-1 386.5,-53 567.5,-53 567.5,-1 386.5,-1"/>
<text text-anchor="start" x="394.5" y="-41" font-family="Helvetica,sans-Serif" font-size="10.00">/home/travis/build</text>
<text text-anchor="start" x="394.5" y="-30" font-family="Helvetica,sans-Serif" font-size="10.00">/AliceO2Group/AliceO2</text>
<text text-anchor="start" x="394.5" y="-19" font-family="Helvetica,sans-Serif" font-size="10.00">/Detectors/ITSMFT/MFT</text>
<text text-anchor="middle" x="477" y="-8" font-family="Helvetica,sans-Serif" font-size="10.00">/reconstruction/src/ClustererTask.cxx</text>
</a>
</g>
</g>
<!-- Node7&#45;&gt;Node8 -->
<g id="edge7" class="edge"><title>Node7&#45;&gt;Node8</title>
<path fill="none" stroke="midnightblue" d="M506.228,-81.2973C500.984,-71.7353 495.525,-61.7814 490.765,-53.1001"/>
<polygon fill="midnightblue" stroke="midnightblue" points="503.282,-83.2054 511.159,-90.2906 509.42,-79.8395 503.282,-83.2054"/>
</g>
<!-- Node9 -->
<g id="node9" class="node"><title>Node9</title>
<g id="a_node9"><a xlink:href="../../d4/dfd/run__clus__mft_8C.html" target="_top" xlink:title="/home/travis/build\l/AliceO2Group/AliceO2\l/macro/run_clus_mft.C">
<polygon fill="none" stroke="black" points="586,-6.5 586,-47.5 704,-47.5 704,-6.5 586,-6.5"/>
<text text-anchor="start" x="594" y="-35.5" font-family="Helvetica,sans-Serif" font-size="10.00">/home/travis/build</text>
<text text-anchor="start" x="594" y="-24.5" font-family="Helvetica,sans-Serif" font-size="10.00">/AliceO2Group/AliceO2</text>
<text text-anchor="middle" x="645" y="-13.5" font-family="Helvetica,sans-Serif" font-size="10.00">/macro/run_clus_mft.C</text>
</a>
</g>
</g>
<!-- Node7&#45;&gt;Node9 -->
<g id="edge8" class="edge"><title>Node7&#45;&gt;Node9</title>
<path fill="none" stroke="midnightblue" d="M574.676,-83.8986C590.306,-71.4745 607.112,-58.1163 620.374,-47.5747"/>
<polygon fill="midnightblue" stroke="midnightblue" points="572.285,-81.3282 566.634,-90.2906 576.641,-86.808 572.285,-81.3282"/>
</g>
</g>
</svg>
        <g id="navigator" transform="translate(0 0)" fill="#404254">
                <rect fill="#f2f5e9" fill-opacity="0.5" stroke="#606060" stroke-width=".5" x="0" y="0" width="60" height="60"/>
                <use id="zoomplus" xlink:href="#zoomPlus" x="17" y="9" onmousedown="handleZoom(evt,'in')"/>
                <use id="zoomminus" xlink:href="#zoomMin" x="42" y="9" onmousedown="handleZoom(evt,'out')"/>
                <use id="reset" xlink:href="#resetDef" x="30" y="36" onmousedown="handleReset()"/>
                <g id="arrowUp" xlink:href="#dirArrow" transform="translate(30 24)" onmousedown="handlePan(0,-1)">
                  <use xlink:href="#rim" fill="#404040">
                        <set attributeName="fill" to="#808080" begin="arrowUp.mouseover" end="arrowUp.mouseout"/>
                  </use>
                  <path fill="none" stroke="white" stroke-width="1.5" d="M0,-3.0v7 M-2.5,-0.5L0,-3.0L2.5,-0.5"/>
                </g>
                <g id="arrowRight" xlink:href="#dirArrow" transform="rotate(90) translate(36 -43)" onmousedown="handlePan(1,0)">
                  <use xlink:href="#rim" fill="#404040">
                        <set attributeName="fill" to="#808080" begin="arrowRight.mouseover" end="arrowRight.mouseout"/>
                  </use>
                  <path fill="none" stroke="white" stroke-width="1.5" d="M0,-3.0v7 M-2.5,-0.5L0,-3.0L2.5,-0.5"/>
                </g>
                <g id="arrowDown" xlink:href="#dirArrow" transform="rotate(180) translate(-30 -48)" onmousedown="handlePan(0,1)">
                  <use xlink:href="#rim" fill="#404040">
                        <set attributeName="fill" to="#808080" begin="arrowDown.mouseover" end="arrowDown.mouseout"/>
                  </use>
                  <path fill="none" stroke="white" stroke-width="1.5" d="M0,-3.0v7 M-2.5,-0.5L0,-3.0L2.5,-0.5"/>
                </g>
                <g id="arrowLeft" xlink:href="#dirArrow" transform="rotate(270) translate(-36 17)" onmousedown="handlePan(-1,0)">
                  <use xlink:href="#rim" fill="#404040">
                        <set attributeName="fill" to="#808080" begin="arrowLeft.mouseover" end="arrowLeft.mouseout"/>
                  </use>
                  <path fill="none" stroke="white" stroke-width="1.5" d="M0,-3.0v7 M-2.5,-0.5L0,-3.0L2.5,-0.5"/>
                </g>
        </g>
        <svg viewBox="0 0 15 15" width="100%" height="30px" preserveAspectRatio="xMaxYMin meet">
         <g id="arrow_out" transform="scale(0.3 0.3)">
          <a xlink:href="PixelReader_8h__dep__incl_org.svg" target="_base">
           <rect id="button" ry="5" rx="5" y="6" x="6" height="38" width="38"
                fill="#f2f5e9" fill-opacity="0.5" stroke="#606060" stroke-width="1.0"/>
           <path id="arrow"
             d="M 11.500037,31.436501 C 11.940474,20.09759 22.043105,11.32322 32.158766,21.979434 L 37.068811,17.246167 C 37.068811,17.246167 37.088388,32 37.088388,32 L 22.160133,31.978069 C 22.160133,31.978069 26.997745,27.140456 26.997745,27.140456 C 18.528582,18.264221 13.291696,25.230495 11.500037,31.436501 z"
             style="fill:#404040;"/>
          </a>
         </g>
        </svg>
</svg>
