<?xml version="1.0" encoding="UTF-8" standalone="no"?>
<!DOCTYPE svg PUBLIC "-//W3C//DTD SVG 1.1//EN"
 "http://www.w3.org/Graphics/SVG/1.1/DTD/svg11.dtd">
<!-- Generated by graphviz version 2.36.0 (20140111.2315)
 -->
<!-- Title: /home/travis/build/AliceO2Group/AliceO2/Detectors/ITSMFT/common/reconstruction/src/TopologyFastSimulation.cxx Pages: 1 -->
<svg width="418pt" height="264pt"
 viewBox="0.00 0.00 418.00 264.00" xmlns="http://www.w3.org/2000/svg" xmlns:xlink="http://www.w3.org/1999/xlink">
<g id="graph0" class="graph" transform="scale(1 1) rotate(0) translate(4 260)">
<title>/home/travis/build/AliceO2Group/AliceO2/Detectors/ITSMFT/common/reconstruction/src/TopologyFastSimulation.cxx</title>
<!-- Node1 -->
<g id="node1" class="node"><title>Node1</title>
<polygon fill="#bfbfbf" stroke="black" points="112,-192.5 112,-255.5 272,-255.5 272,-192.5 112,-192.5"/>
<text text-anchor="start" x="120" y="-243.5" font-family="Helvetica,sans-Serif" font-size="10.00">/home/travis/build</text>
<text text-anchor="start" x="120" y="-232.5" font-family="Helvetica,sans-Serif" font-size="10.00">/AliceO2Group/AliceO2</text>
<text text-anchor="start" x="120" y="-221.5" font-family="Helvetica,sans-Serif" font-size="10.00">/Detectors/ITSMFT/common</text>
<text text-anchor="start" x="120" y="-210.5" font-family="Helvetica,sans-Serif" font-size="10.00">/reconstruction/src/TopologyFast</text>
<text text-anchor="middle" x="192" y="-199.5" font-family="Helvetica,sans-Serif" font-size="10.00">Simulation.cxx</text>
</g>
<!-- Node2 -->
<g id="node2" class="node"><title>Node2</title>
<g id="a_node2"><a xlink:href="../../d9/d45/TopologyFastSimulation_8h.html" target="_top" xlink:title="Definition of the TopologyFastSimulation class. ">
<polygon fill="none" stroke="black" points="69.5,-125 69.5,-155 202.5,-155 202.5,-125 69.5,-125"/>
<text text-anchor="start" x="77.5" y="-143" font-family="Helvetica,sans-Serif" font-size="10.00">ITSMFTReconstruction</text>
<text text-anchor="middle" x="136" y="-132" font-family="Helvetica,sans-Serif" font-size="10.00">/TopologyFastSimulation.h</text>
</a>
</g>
</g>
<!-- Node1&#45;&gt;Node2 -->
<g id="edge1" class="edge"><title>Node1&#45;&gt;Node2</title>
<path fill="none" stroke="midnightblue" d="M171.148,-192.466C164.617,-182.904 157.531,-172.528 151.444,-163.614"/>
<polygon fill="midnightblue" stroke="midnightblue" points="154.276,-161.556 145.746,-155.272 148.496,-165.504 154.276,-161.556"/>
</g>
<!-- Node11 -->
<g id="node11" class="node"><title>Node11</title>
<polygon fill="none" stroke="#bfbfbf" points="221,-130.5 221,-149.5 277,-149.5 277,-130.5 221,-130.5"/>
<text text-anchor="middle" x="249" y="-137.5" font-family="Helvetica,sans-Serif" font-size="10.00">algorithm</text>
</g>
<!-- Node1&#45;&gt;Node11 -->
<g id="edge10" class="edge"><title>Node1&#45;&gt;Node11</title>
<path fill="none" stroke="midnightblue" d="M213.225,-192.466C221.284,-180.872 230.175,-168.081 237.078,-158.151"/>
<polygon fill="midnightblue" stroke="midnightblue" points="240.16,-159.849 242.994,-149.64 234.413,-155.853 240.16,-159.849"/>
</g>
<!-- Node3 -->
<g id="node3" class="node"><title>Node3</title>
<polygon fill="none" stroke="#bfbfbf" points="52.5,-62.5 52.5,-81.5 101.5,-81.5 101.5,-62.5 52.5,-62.5"/>
<text text-anchor="middle" x="77" y="-69.5" font-family="Helvetica,sans-Serif" font-size="10.00">random</text>
</g>
<!-- Node2&#45;&gt;Node3 -->
<g id="edge2" class="edge"><title>Node2&#45;&gt;Node3</title>
<path fill="none" stroke="midnightblue" d="M123.198,-124.679C113.907,-114.286 101.322,-100.208 91.6338,-89.37"/>
<polygon fill="midnightblue" stroke="midnightblue" points="94.166,-86.9511 84.892,-81.8283 88.9473,-91.6163 94.166,-86.9511"/>
</g>
<!-- Node4 -->
<g id="node4" class="node"><title>Node4</title>
<g id="a_node4"><a xlink:href="../../d1/d08/TopologyDictionary_8h.html" target="_top" xlink:title="Definition of the ClusterTopology class. ">
<polygon fill="none" stroke="black" points="120,-57 120,-87 272,-87 272,-57 120,-57"/>
<text text-anchor="start" x="128" y="-75" font-family="Helvetica,sans-Serif" font-size="10.00">DataFormatsITSMFT/Topology</text>
<text text-anchor="middle" x="196" y="-64" font-family="Helvetica,sans-Serif" font-size="10.00">Dictionary.h</text>
</a>
</g>
</g>
<!-- Node2&#45;&gt;Node4 -->
<g id="edge3" class="edge"><title>Node2&#45;&gt;Node4</title>
<path fill="none" stroke="midnightblue" d="M149.019,-124.679C156.96,-115.944 167.268,-104.605 176.205,-94.7747"/>
<polygon fill="midnightblue" stroke="midnightblue" points="178.869,-97.0469 183.006,-87.2931 173.69,-92.3381 178.869,-97.0469"/>
</g>
<!-- Node5 -->
<g id="node5" class="node"><title>Node5</title>
<polygon fill="none" stroke="#bfbfbf" points="0,-0.5 0,-19.5 56,-19.5 56,-0.5 0,-0.5"/>
<text text-anchor="middle" x="28" y="-7.5" font-family="Helvetica,sans-Serif" font-size="10.00">Rtypes.h</text>
</g>
<!-- Node4&#45;&gt;Node5 -->
<g id="edge4" class="edge"><title>Node4&#45;&gt;Node5</title>
<path fill="none" stroke="midnightblue" d="M156.611,-56.9327C127.762,-46.6292 89.0218,-32.7935 61.6222,-23.0079"/>
<polygon fill="midnightblue" stroke="midnightblue" points="62.6747,-19.6674 52.0801,-19.6 60.3203,-26.2596 62.6747,-19.6674"/>
</g>
<!-- Node6 -->
<g id="node6" class="node"><title>Node6</title>
<polygon fill="none" stroke="#bfbfbf" points="74,-0.5 74,-19.5 124,-19.5 124,-0.5 74,-0.5"/>
<text text-anchor="middle" x="99" y="-7.5" font-family="Helvetica,sans-Serif" font-size="10.00">fstream</text>
</g>
<!-- Node4&#45;&gt;Node6 -->
<g id="edge5" class="edge"><title>Node4&#45;&gt;Node6</title>
<path fill="none" stroke="midnightblue" d="M173.012,-56.7808C157.517,-47.1958 137.163,-34.6062 121.723,-25.0555"/>
<polygon fill="midnightblue" stroke="midnightblue" points="123.177,-21.8397 112.832,-19.5557 119.495,-27.7929 123.177,-21.8397"/>
</g>
<!-- Node7 -->
<g id="node7" class="node"><title>Node7</title>
<polygon fill="none" stroke="#bfbfbf" points="142.5,-0.5 142.5,-19.5 187.5,-19.5 187.5,-0.5 142.5,-0.5"/>
<text text-anchor="middle" x="165" y="-7.5" font-family="Helvetica,sans-Serif" font-size="10.00">iosfwd</text>
</g>
<!-- Node4&#45;&gt;Node7 -->
<g id="edge6" class="edge"><title>Node4&#45;&gt;Node7</title>
<path fill="none" stroke="midnightblue" d="M188.653,-56.7808C184.335,-48.4217 178.835,-37.7773 174.226,-28.8565"/>
<polygon fill="midnightblue" stroke="midnightblue" points="177.211,-27.0082 169.511,-19.7305 170.992,-30.2214 177.211,-27.0082"/>
</g>
<!-- Node8 -->
<g id="node8" class="node"><title>Node8</title>
<polygon fill="none" stroke="#bfbfbf" points="205.5,-0.5 205.5,-19.5 246.5,-19.5 246.5,-0.5 205.5,-0.5"/>
<text text-anchor="middle" x="226" y="-7.5" font-family="Helvetica,sans-Serif" font-size="10.00">string</text>
</g>
<!-- Node4&#45;&gt;Node8 -->
<g id="edge7" class="edge"><title>Node4&#45;&gt;Node8</title>
<path fill="none" stroke="midnightblue" d="M203.11,-56.7808C207.289,-48.4217 212.611,-37.7773 217.072,-28.8565"/>
<polygon fill="midnightblue" stroke="midnightblue" points="220.293,-30.2401 221.635,-19.7305 214.032,-27.1095 220.293,-30.2401"/>
</g>
<!-- Node9 -->
<g id="node9" class="node"><title>Node9</title>
<polygon fill="none" stroke="#bfbfbf" points="264.5,-0.5 264.5,-19.5 347.5,-19.5 347.5,-0.5 264.5,-0.5"/>
<text text-anchor="middle" x="306" y="-7.5" font-family="Helvetica,sans-Serif" font-size="10.00">unordered_map</text>
</g>
<!-- Node4&#45;&gt;Node9 -->
<g id="edge8" class="edge"><title>Node4&#45;&gt;Node9</title>
<path fill="none" stroke="midnightblue" d="M221.79,-56.9327C239.686,-47.1715 263.393,-34.2401 281.093,-24.5856"/>
<polygon fill="midnightblue" stroke="midnightblue" points="283.13,-27.4612 290.233,-19.6 279.778,-21.316 283.13,-27.4612"/>
</g>
<!-- Node10 -->
<g id="node10" class="node"><title>Node10</title>
<polygon fill="none" stroke="#bfbfbf" points="366,-0.5 366,-19.5 410,-19.5 410,-0.5 366,-0.5"/>
<text text-anchor="middle" x="388" y="-7.5" font-family="Helvetica,sans-Serif" font-size="10.00">vector</text>
</g>
<!-- Node4&#45;&gt;Node10 -->
<g id="edge9" class="edge"><title>Node4&#45;&gt;Node10</title>
<path fill="none" stroke="midnightblue" d="M241.015,-56.9327C276.421,-45.8685 324.86,-30.7314 356.288,-20.9099"/>
<polygon fill="midnightblue" stroke="midnightblue" points="357.356,-24.2433 365.857,-17.9198 355.268,-17.562 357.356,-24.2433"/>
</g>
</g>
</svg>
