<?xml version="1.0" encoding="UTF-8" standalone="no"?>
<!DOCTYPE svg PUBLIC "-//W3C//DTD SVG 1.1//EN"
 "http://www.w3.org/Graphics/SVG/1.1/DTD/svg11.dtd">
<!-- Generated by graphviz version 2.36.0 (20140111.2315)
 -->
<!-- Title: /home/travis/build/AliceO2Group/AliceO2/Detectors/FIT/simulation/src/Detector.cxx Pages: 1 -->
<!--zoomable 378 -->
<svg id="main" version="1.1" xmlns="http://www.w3.org/2000/svg" xmlns:xlink="http://www.w3.org/1999/xlink" xml:space="preserve" onload="init(evt)">
<style type="text/css"><![CDATA[
.edge:hover path { stroke: red; }
.edge:hover polygon { stroke: red; fill: red; }
]]></style>
<script type="text/javascript"><![CDATA[
var edges = document.getElementsByTagName('g');
if (edges && edges.length) {
  for (var i=0;i<edges.length;i++) {
    if (edges[i].id.substr(0,4)=='edge') {
      edges[i].setAttribute('class','edge');
    }
  }
}
]]></script>
        <defs>
                <circle id="rim" cx="0" cy="0" r="7"/>
                <circle id="rim2" cx="0" cy="0" r="3.5"/>
                <g id="zoomPlus">
                        <use xlink:href="#rim" fill="#404040">
                                <set attributeName="fill" to="#808080" begin="zoomplus.mouseover" end="zoomplus.mouseout"/>
                        </use>
                        <path d="M-4,0h8M0,-4v8" fill="none" stroke="white" stroke-width="1.5" pointer-events="none"/>
                </g>
                <g id="zoomMin">
                        <use xlink:href="#rim" fill="#404040">
                                <set attributeName="fill" to="#808080" begin="zoomminus.mouseover" end="zoomminus.mouseout"/>
                        </use>
                        <path d="M-4,0h8" fill="none" stroke="white" stroke-width="1.5" pointer-events="none"/>
                </g>
                <g id="dirArrow">
                        <path fill="none" stroke="white" stroke-width="1.5" d="M0,-3.0v7 M-2.5,-0.5L0,-3.0L2.5,-0.5"/>
                </g>
               <g id="resetDef">
                       <use xlink:href="#rim2" fill="#404040">
                               <set attributeName="fill" to="#808080" begin="reset.mouseover" end="reset.mouseout"/>
                       </use>
               </g>
        </defs>

<script type="text/javascript">
var viewWidth = 1763;
var viewHeight = 378;
var sectionId = 'dynsection-0';
</script>
<script xlink:href="../../svgpan.js"/>
<svg id="graph" class="graph">
<g id="viewport">
<title>/home/travis/build/AliceO2Group/AliceO2/Detectors/FIT/simulation/src/Detector.cxx</title>
<!-- Node1 -->
<g id="node1" class="node"><title>Node1</title>
<polygon fill="#bfbfbf" stroke="black" points="683,-317 683,-369 811,-369 811,-317 683,-317"/>
<text text-anchor="start" x="691" y="-357" font-family="Helvetica,sans-Serif" font-size="10.00">/home/travis/build</text>
<text text-anchor="start" x="691" y="-346" font-family="Helvetica,sans-Serif" font-size="10.00">/AliceO2Group/AliceO2</text>
<text text-anchor="start" x="691" y="-335" font-family="Helvetica,sans-Serif" font-size="10.00">/Detectors/FIT/simulation</text>
<text text-anchor="middle" x="747" y="-324" font-family="Helvetica,sans-Serif" font-size="10.00">/src/Detector.cxx</text>
</g>
<!-- Node2 -->
<g id="node2" class="node"><title>Node2</title>
<polygon fill="none" stroke="#bfbfbf" points="242,-260.5 242,-279.5 328,-279.5 328,-260.5 242,-260.5"/>
<text text-anchor="middle" x="285" y="-267.5" font-family="Helvetica,sans-Serif" font-size="10.00">TGeoManager.h</text>
</g>
<!-- Node1&#45;&gt;Node2 -->
<g id="edge1" class="edge"><title>Node1&#45;&gt;Node2</title>
<path fill="none" stroke="midnightblue" d="M682.666,-332.704C603.927,-321.23 466.262,-300.855 338.113,-280.154"/>
<polygon fill="midnightblue" stroke="midnightblue" points="338.549,-276.679 328.118,-278.536 337.43,-283.589 338.549,-276.679"/>
</g>
<!-- Node3 -->
<g id="node3" class="node"><title>Node3</title>
<polygon fill="none" stroke="#bfbfbf" points="346.5,-260.5 346.5,-279.5 399.5,-279.5 399.5,-260.5 346.5,-260.5"/>
<text text-anchor="middle" x="373" y="-267.5" font-family="Helvetica,sans-Serif" font-size="10.00">TMath.h</text>
</g>
<!-- Node1&#45;&gt;Node3 -->
<g id="edge2" class="edge"><title>Node1&#45;&gt;Node3</title>
<path fill="none" stroke="midnightblue" d="M682.686,-331.632C616.502,-320.648 510.227,-302.138 409.726,-280.27"/>
<polygon fill="midnightblue" stroke="midnightblue" points="410.224,-276.797 399.706,-278.075 408.725,-283.634 410.224,-276.797"/>
</g>
<!-- Node4 -->
<g id="node4" class="node"><title>Node4</title>
<polygon fill="none" stroke="#bfbfbf" points="417.5,-260.5 417.5,-279.5 474.5,-279.5 474.5,-260.5 417.5,-260.5"/>
<text text-anchor="middle" x="446" y="-267.5" font-family="Helvetica,sans-Serif" font-size="10.00">TGraph.h</text>
</g>
<!-- Node1&#45;&gt;Node4 -->
<g id="edge3" class="edge"><title>Node1&#45;&gt;Node4</title>
<path fill="none" stroke="midnightblue" d="M682.954,-326.921C631.985,-314.917 558.55,-297.611 484.595,-280.139"/>
<polygon fill="midnightblue" stroke="midnightblue" points="485.17,-276.678 474.633,-277.785 483.56,-283.491 485.17,-276.678"/>
</g>
<!-- Node5 -->
<g id="node5" class="node"><title>Node5</title>
<polygon fill="none" stroke="#bfbfbf" points="493,-260.5 493,-279.5 549,-279.5 549,-260.5 493,-260.5"/>
<text text-anchor="middle" x="521" y="-267.5" font-family="Helvetica,sans-Serif" font-size="10.00">TString.h</text>
</g>
<!-- Node1&#45;&gt;Node5 -->
<g id="edge4" class="edge"><title>Node1&#45;&gt;Node5</title>
<path fill="none" stroke="midnightblue" d="M682.842,-321.844C642.514,-309.175 591.908,-293.276 558.123,-282.663"/>
<polygon fill="midnightblue" stroke="midnightblue" points="558.798,-279.206 548.208,-279.548 556.699,-285.884 558.798,-279.206"/>
</g>
<!-- Node6 -->
<g id="node6" class="node"><title>Node6</title>
<polygon fill="none" stroke="#bfbfbf" points="567.5,-260.5 567.5,-279.5 632.5,-279.5 632.5,-260.5 567.5,-260.5"/>
<text text-anchor="middle" x="600" y="-267.5" font-family="Helvetica,sans-Serif" font-size="10.00">TSystem.h</text>
</g>
<!-- Node1&#45;&gt;Node6 -->
<g id="edge5" class="edge"><title>Node1&#45;&gt;Node6</title>
<path fill="none" stroke="midnightblue" d="M695.173,-316.968C672.226,-305.885 646.183,-293.306 627.148,-284.112"/>
<polygon fill="midnightblue" stroke="midnightblue" points="628.413,-280.837 617.886,-279.639 625.369,-287.14 628.413,-280.837"/>
</g>
<!-- Node7 -->
<g id="node7" class="node"><title>Node7</title>
<polygon fill="none" stroke="#bfbfbf" points="651,-260.5 651,-279.5 725,-279.5 725,-260.5 651,-260.5"/>
<text text-anchor="middle" x="688" y="-267.5" font-family="Helvetica,sans-Serif" font-size="10.00">TVirtualMC.h</text>
</g>
<!-- Node1&#45;&gt;Node7 -->
<g id="edge6" class="edge"><title>Node1&#45;&gt;Node7</title>
<path fill="none" stroke="midnightblue" d="M726.033,-316.768C717.984,-307.083 709.008,-296.281 701.799,-287.605"/>
<polygon fill="midnightblue" stroke="midnightblue" points="704.36,-285.211 695.277,-279.757 698.976,-289.685 704.36,-285.211"/>
</g>
<!-- Node8 -->
<g id="node8" class="node"><title>Node8</title>
<polygon fill="none" stroke="#bfbfbf" points="885,-136.5 885,-155.5 985,-155.5 985,-136.5 885,-136.5"/>
<text text-anchor="middle" x="935" y="-143.5" font-family="Helvetica,sans-Serif" font-size="10.00">FairRootManager.h</text>
</g>
<!-- Node1&#45;&gt;Node8 -->
<g id="edge7" class="edge"><title>Node1&#45;&gt;Node8</title>
<path fill="none" stroke="midnightblue" d="M811.331,-327.746C839.803,-318.46 871.611,-303.541 893,-280 922.625,-247.395 931.355,-193.96 933.927,-165.769"/>
<polygon fill="midnightblue" stroke="midnightblue" points="937.426,-165.907 934.678,-155.675 930.445,-165.388 937.426,-165.907"/>
</g>
<!-- Node9 -->
<g id="node9" class="node"><title>Node9</title>
<polygon fill="none" stroke="#bfbfbf" points="963.5,-260.5 963.5,-279.5 1034.5,-279.5 1034.5,-260.5 963.5,-260.5"/>
<text text-anchor="middle" x="999" y="-267.5" font-family="Helvetica,sans-Serif" font-size="10.00">FairLogger.h</text>
</g>
<!-- Node1&#45;&gt;Node9 -->
<g id="edge8" class="edge"><title>Node1&#45;&gt;Node9</title>
<path fill="none" stroke="midnightblue" d="M811.242,-323.9C857.657,-310.823 918.925,-293.561 958.641,-282.371"/>
<polygon fill="midnightblue" stroke="midnightblue" points="959.823,-285.674 968.499,-279.594 957.925,-278.937 959.823,-285.674"/>
</g>
<!-- Node10 -->
<g id="node10" class="node"><title>Node10</title>
<polygon fill="none" stroke="#bfbfbf" points="1053,-260.5 1053,-279.5 1127,-279.5 1127,-260.5 1053,-260.5"/>
<text text-anchor="middle" x="1090" y="-267.5" font-family="Helvetica,sans-Serif" font-size="10.00">FairVolume.h</text>
</g>
<!-- Node1&#45;&gt;Node10 -->
<g id="edge9" class="edge"><title>Node1&#45;&gt;Node10</title>
<path fill="none" stroke="midnightblue" d="M811.113,-328.729C878.383,-314.804 982.537,-293.245 1042.7,-280.79"/>
<polygon fill="midnightblue" stroke="midnightblue" points="1043.61,-284.178 1052.69,-278.723 1042.19,-277.323 1043.61,-284.178"/>
</g>
<!-- Node11 -->
<g id="node11" class="node"><title>Node11</title>
<polygon fill="none" stroke="#bfbfbf" points="1145,-260.5 1145,-279.5 1197,-279.5 1197,-260.5 1145,-260.5"/>
<text text-anchor="middle" x="1171" y="-267.5" font-family="Helvetica,sans-Serif" font-size="10.00">sstream</text>
</g>
<!-- Node1&#45;&gt;Node11 -->
<g id="edge10" class="edge"><title>Node1&#45;&gt;Node11</title>
<path fill="none" stroke="midnightblue" d="M811.009,-333.671C886.261,-323.461 1015.06,-304.68 1134.63,-280.131"/>
<polygon fill="midnightblue" stroke="midnightblue" points="1135.61,-283.503 1144.69,-278.047 1134.19,-276.648 1135.61,-283.503"/>
</g>
<!-- Node12 -->
<g id="node12" class="node"><title>Node12</title>
<g id="a_node12"><a xlink:href="../../d1/db1/FIT_2base_2include_2FITBase_2Geometry_8h.html" target="_top" xlink:title="FITBase/Geometry.h">
<polygon fill="none" stroke="black" points="788,-198.5 788,-217.5 896,-217.5 896,-198.5 788,-198.5"/>
<text text-anchor="middle" x="842" y="-205.5" font-family="Helvetica,sans-Serif" font-size="10.00">FITBase/Geometry.h</text>
</a>
</g>
</g>
<!-- Node1&#45;&gt;Node12 -->
<g id="edge11" class="edge"><title>Node1&#45;&gt;Node12</title>
<path fill="none" stroke="midnightblue" d="M811.094,-327.573C836.448,-318.389 863.061,-303.598 878,-280 889.477,-261.871 873.793,-239.619 859.671,-224.911"/>
<polygon fill="midnightblue" stroke="midnightblue" points="861.771,-222.069 852.169,-217.591 856.882,-227.08 861.771,-222.069"/>
</g>
<!-- Node15 -->
<g id="node15" class="node"><title>Node15</title>
<g id="a_node15"><a xlink:href="../../de/d6b/FIT_2simulation_2include_2FITSimulation_2Detector_8h.html" target="_top" xlink:title="FITSimulation/Detector.h">
<polygon fill="none" stroke="black" points="743,-260.5 743,-279.5 869,-279.5 869,-260.5 743,-260.5"/>
<text text-anchor="middle" x="806" y="-267.5" font-family="Helvetica,sans-Serif" font-size="10.00">FITSimulation/Detector.h</text>
</a>
</g>
</g>
<!-- Node1&#45;&gt;Node15 -->
<g id="edge14" class="edge"><title>Node1&#45;&gt;Node15</title>
<path fill="none" stroke="midnightblue" d="M767.967,-316.768C776.016,-307.083 784.992,-296.281 792.201,-287.605"/>
<polygon fill="midnightblue" stroke="midnightblue" points="795.024,-289.685 798.723,-279.757 789.64,-285.211 795.024,-289.685"/>
</g>
<!-- Node13 -->
<g id="node13" class="node"><title>Node13</title>
<polygon fill="none" stroke="#bfbfbf" points="1308,-74.5 1308,-93.5 1364,-93.5 1364,-74.5 1308,-74.5"/>
<text text-anchor="middle" x="1336" y="-81.5" font-family="Helvetica,sans-Serif" font-size="10.00">Rtypes.h</text>
</g>
<!-- Node12&#45;&gt;Node13 -->
<g id="edge12" class="edge"><title>Node12&#45;&gt;Node13</title>
<path fill="none" stroke="midnightblue" d="M843.392,-198.273C846.353,-182.86 854.825,-151.031 876,-136 884.6,-129.895 1188.65,-99.4857 1297.62,-88.7559"/>
<polygon fill="midnightblue" stroke="midnightblue" points="1298.23,-92.2129 1307.84,-87.7511 1297.55,-85.2465 1298.23,-92.2129"/>
</g>
<!-- Node14 -->
<g id="node14" class="node"><title>Node14</title>
<polygon fill="none" stroke="#bfbfbf" points="763.5,-136.5 763.5,-155.5 828.5,-155.5 828.5,-136.5 763.5,-136.5"/>
<text text-anchor="middle" x="796" y="-143.5" font-family="Helvetica,sans-Serif" font-size="10.00">TVector3.h</text>
</g>
<!-- Node12&#45;&gt;Node14 -->
<g id="edge13" class="edge"><title>Node12&#45;&gt;Node14</title>
<path fill="none" stroke="midnightblue" d="M835.409,-198.403C828.509,-189.403 817.498,-175.041 808.866,-163.782"/>
<polygon fill="midnightblue" stroke="midnightblue" points="811.44,-161.387 802.578,-155.581 805.885,-165.646 811.44,-161.387"/>
</g>
<!-- Node15&#45;&gt;Node12 -->
<g id="edge42" class="edge"><title>Node15&#45;&gt;Node12</title>
<path fill="none" stroke="midnightblue" d="M811.158,-260.403C816.451,-251.582 824.835,-237.608 831.527,-226.455"/>
<polygon fill="midnightblue" stroke="midnightblue" points="834.708,-227.956 836.852,-217.581 828.705,-224.355 834.708,-227.956"/>
</g>
<!-- Node16 -->
<g id="node16" class="node"><title>Node16</title>
<g id="a_node16"><a xlink:href="../../d4/d25/BaseHits_8h.html" target="_top" xlink:title="SimulationDataFormat\l/BaseHits.h">
<polygon fill="none" stroke="black" points="636,-193 636,-223 750,-223 750,-193 636,-193"/>
<text text-anchor="start" x="644" y="-211" font-family="Helvetica,sans-Serif" font-size="10.00">SimulationDataFormat</text>
<text text-anchor="middle" x="693" y="-200" font-family="Helvetica,sans-Serif" font-size="10.00">/BaseHits.h</text>
</a>
</g>
</g>
<!-- Node15&#45;&gt;Node16 -->
<g id="edge15" class="edge"><title>Node15&#45;&gt;Node16</title>
<path fill="none" stroke="midnightblue" d="M789.81,-260.403C773.933,-251.974 749.197,-238.839 728.702,-227.957"/>
<polygon fill="midnightblue" stroke="midnightblue" points="730.105,-224.739 719.632,-223.141 726.823,-230.922 730.105,-224.739"/>
</g>
<!-- Node28 -->
<g id="node28" class="node"><title>Node28</title>
<g id="a_node28"><a xlink:href="../../d1/d3a/Base_2include_2DetectorsBase_2Detector_8h.html" target="_top" xlink:title="DetectorsBase/Detector.h">
<polygon fill="none" stroke="black" points="1238.5,-198.5 1238.5,-217.5 1369.5,-217.5 1369.5,-198.5 1238.5,-198.5"/>
<text text-anchor="middle" x="1304" y="-205.5" font-family="Helvetica,sans-Serif" font-size="10.00">DetectorsBase/Detector.h</text>
</a>
</g>
</g>
<!-- Node15&#45;&gt;Node28 -->
<g id="edge28" class="edge"><title>Node15&#45;&gt;Node28</title>
<path fill="none" stroke="midnightblue" d="M869.072,-261.401C960.579,-250.376 1129.92,-229.973 1228.13,-218.141"/>
<polygon fill="midnightblue" stroke="midnightblue" points="1228.77,-221.589 1238.28,-216.918 1227.93,-214.64 1228.77,-221.589"/>
</g>
<!-- Node17 -->
<g id="node17" class="node"><title>Node17</title>
<g id="a_node17"><a xlink:href="../../dd/d76/Cartesian3D_8h.html" target="_top" xlink:title="MathUtils/Cartesian3D.h">
<polygon fill="none" stroke="black" points="620.5,-136.5 620.5,-155.5 745.5,-155.5 745.5,-136.5 620.5,-136.5"/>
<text text-anchor="middle" x="683" y="-143.5" font-family="Helvetica,sans-Serif" font-size="10.00">MathUtils/Cartesian3D.h</text>
</a>
</g>
</g>
<!-- Node16&#45;&gt;Node17 -->
<g id="edge16" class="edge"><title>Node16&#45;&gt;Node17</title>
<path fill="none" stroke="midnightblue" d="M690.63,-192.781C689.282,-184.691 687.577,-174.462 686.121,-165.725"/>
<polygon fill="midnightblue" stroke="midnightblue" points="689.552,-165.019 684.455,-155.731 682.647,-166.17 689.552,-165.019"/>
</g>
<!-- Node17&#45;&gt;Node13 -->
<g id="edge22" class="edge"><title>Node17&#45;&gt;Node13</title>
<path fill="none" stroke="midnightblue" d="M745.812,-137.004C748.918,-136.654 751.993,-136.317 755,-136 940.436,-116.432 987.27,-116.544 1173,-100 1215.65,-96.2006 1264.57,-91.6767 1297.6,-88.5977"/>
<polygon fill="midnightblue" stroke="midnightblue" points="1298.1,-92.0659 1307.74,-87.6516 1297.45,-85.0962 1298.1,-92.0659"/>
</g>
<!-- Node18 -->
<g id="node18" class="node"><title>Node18</title>
<polygon fill="none" stroke="#bfbfbf" points="1013.5,-69 1013.5,-99 1164.5,-99 1164.5,-69 1013.5,-69"/>
<text text-anchor="start" x="1021.5" y="-87" font-family="Helvetica,sans-Serif" font-size="10.00">Math/GenVector/Displacement</text>
<text text-anchor="middle" x="1089" y="-76" font-family="Helvetica,sans-Serif" font-size="10.00">Vector3D.h</text>
</g>
<!-- Node17&#45;&gt;Node18 -->
<g id="edge17" class="edge"><title>Node17&#45;&gt;Node18</title>
<path fill="none" stroke="midnightblue" d="M745.535,-136.9C808.148,-128.638 907.506,-115.121 1003.59,-100.03"/>
<polygon fill="midnightblue" stroke="midnightblue" points="1004.15,-103.486 1013.48,-98.4701 1003.06,-96.5717 1004.15,-103.486"/>
</g>
<!-- Node19 -->
<g id="node19" class="node"><title>Node19</title>
<polygon fill="none" stroke="#bfbfbf" points="0,-74.5 0,-93.5 176,-93.5 176,-74.5 0,-74.5"/>
<text text-anchor="middle" x="88" y="-81.5" font-family="Helvetica,sans-Serif" font-size="10.00">Math/GenVector/PositionVector3D.h</text>
</g>
<!-- Node17&#45;&gt;Node19 -->
<g id="edge18" class="edge"><title>Node17&#45;&gt;Node19</title>
<path fill="none" stroke="midnightblue" d="M620.235,-140.657C525.516,-133.805 340.477,-119.26 184,-100 172.605,-98.5974 160.483,-96.8804 148.826,-95.1152"/>
<polygon fill="midnightblue" stroke="midnightblue" points="149.149,-91.6236 138.732,-93.5582 148.082,-98.5418 149.149,-91.6236"/>
</g>
<!-- Node20 -->
<g id="node20" class="node"><title>Node20</title>
<polygon fill="none" stroke="#bfbfbf" points="193.5,-74.5 193.5,-93.5 342.5,-93.5 342.5,-74.5 193.5,-74.5"/>
<text text-anchor="middle" x="268" y="-81.5" font-family="Helvetica,sans-Serif" font-size="10.00">Math/GenVector/Rotation3D.h</text>
</g>
<!-- Node17&#45;&gt;Node20 -->
<g id="edge19" class="edge"><title>Node17&#45;&gt;Node20</title>
<path fill="none" stroke="midnightblue" d="M620.355,-137.272C553.707,-128.865 445.24,-114.657 352,-100 342.865,-98.564 333.191,-96.9365 323.783,-95.2962"/>
<polygon fill="midnightblue" stroke="midnightblue" points="324.174,-91.8112 313.717,-93.5198 322.957,-98.7047 324.174,-91.8112"/>
</g>
<!-- Node21 -->
<g id="node21" class="node"><title>Node21</title>
<polygon fill="none" stroke="#bfbfbf" points="361,-74.5 361,-93.5 517,-93.5 517,-74.5 361,-74.5"/>
<text text-anchor="middle" x="439" y="-81.5" font-family="Helvetica,sans-Serif" font-size="10.00">Math/GenVector/Transform3D.h</text>
</g>
<!-- Node17&#45;&gt;Node21 -->
<g id="edge20" class="edge"><title>Node17&#45;&gt;Node21</title>
<path fill="none" stroke="midnightblue" d="M648.3,-136.467C605.03,-125.827 530.994,-107.622 483.568,-95.9593"/>
<polygon fill="midnightblue" stroke="midnightblue" points="484.127,-92.4926 473.58,-93.5034 482.455,-99.2901 484.127,-92.4926"/>
</g>
<!-- Node22 -->
<g id="node22" class="node"><title>Node22</title>
<polygon fill="none" stroke="#bfbfbf" points="535,-74.5 535,-93.5 695,-93.5 695,-74.5 535,-74.5"/>
<text text-anchor="middle" x="615" y="-81.5" font-family="Helvetica,sans-Serif" font-size="10.00">Math/GenVector/Translation3D.h</text>
</g>
<!-- Node17&#45;&gt;Node22 -->
<g id="edge21" class="edge"><title>Node17&#45;&gt;Node22</title>
<path fill="none" stroke="midnightblue" d="M673.257,-136.403C662.653,-127.047 645.481,-111.895 632.521,-100.46"/>
<polygon fill="midnightblue" stroke="midnightblue" points="634.539,-97.5724 624.725,-93.5806 629.907,-102.821 634.539,-97.5724"/>
</g>
<!-- Node23 -->
<g id="node23" class="node"><title>Node23</title>
<polygon fill="none" stroke="#bfbfbf" points="713,-74.5 713,-93.5 789,-93.5 789,-74.5 713,-74.5"/>
<text text-anchor="middle" x="751" y="-81.5" font-family="Helvetica,sans-Serif" font-size="10.00">TGeoMatrix.h</text>
</g>
<!-- Node17&#45;&gt;Node23 -->
<g id="edge23" class="edge"><title>Node17&#45;&gt;Node23</title>
<path fill="none" stroke="midnightblue" d="M692.743,-136.403C703.347,-127.047 720.519,-111.895 733.479,-100.46"/>
<polygon fill="midnightblue" stroke="midnightblue" points="736.093,-102.821 741.275,-93.5806 731.461,-97.5724 736.093,-102.821"/>
</g>
<!-- Node24 -->
<g id="node24" class="node"><title>Node24</title>
<polygon fill="none" stroke="#bfbfbf" points="807.5,-74.5 807.5,-93.5 852.5,-93.5 852.5,-74.5 807.5,-74.5"/>
<text text-anchor="middle" x="830" y="-81.5" font-family="Helvetica,sans-Serif" font-size="10.00">iosfwd</text>
</g>
<!-- Node17&#45;&gt;Node24 -->
<g id="edge24" class="edge"><title>Node17&#45;&gt;Node24</title>
<path fill="none" stroke="midnightblue" d="M706.09,-136.473C729.439,-127.731 766.481,-113.537 798,-100 799.589,-99.3175 801.216,-98.6034 802.854,-97.8731"/>
<polygon fill="midnightblue" stroke="midnightblue" points="804.517,-100.961 812.153,-93.6172 801.604,-94.596 804.517,-100.961"/>
</g>
<!-- Node25 -->
<g id="node25" class="node"><title>Node25</title>
<g id="a_node25"><a xlink:href="../../d2/dd0/Cartesian2D_8h.html" target="_top" xlink:title="MathUtils/Cartesian2D.h">
<polygon fill="none" stroke="black" points="870.5,-74.5 870.5,-93.5 995.5,-93.5 995.5,-74.5 870.5,-74.5"/>
<text text-anchor="middle" x="933" y="-81.5" font-family="Helvetica,sans-Serif" font-size="10.00">MathUtils/Cartesian2D.h</text>
</a>
</g>
</g>
<!-- Node17&#45;&gt;Node25 -->
<g id="edge25" class="edge"><title>Node17&#45;&gt;Node25</title>
<path fill="none" stroke="midnightblue" d="M718.553,-136.467C762.98,-125.805 839.062,-107.545 887.642,-95.886"/>
<polygon fill="midnightblue" stroke="midnightblue" points="888.662,-99.2405 897.569,-93.5034 887.029,-92.4338 888.662,-99.2405"/>
</g>
<!-- Node26 -->
<g id="node26" class="node"><title>Node26</title>
<polygon fill="none" stroke="#bfbfbf" points="766.5,-1 766.5,-31 917.5,-31 917.5,-1 766.5,-1"/>
<text text-anchor="start" x="774.5" y="-19" font-family="Helvetica,sans-Serif" font-size="10.00">Math/GenVector/Displacement</text>
<text text-anchor="middle" x="842" y="-8" font-family="Helvetica,sans-Serif" font-size="10.00">Vector2D.h</text>
</g>
<!-- Node25&#45;&gt;Node26 -->
<g id="edge26" class="edge"><title>Node25&#45;&gt;Node26</title>
<path fill="none" stroke="midnightblue" d="M921.103,-74.3717C908.221,-65.0286 887.22,-49.7966 870.093,-37.375"/>
<polygon fill="midnightblue" stroke="midnightblue" points="871.703,-34.2194 861.553,-31.1815 867.593,-39.8859 871.703,-34.2194"/>
</g>
<!-- Node27 -->
<g id="node27" class="node"><title>Node27</title>
<polygon fill="none" stroke="#bfbfbf" points="936,-6.5 936,-25.5 1112,-25.5 1112,-6.5 936,-6.5"/>
<text text-anchor="middle" x="1024" y="-13.5" font-family="Helvetica,sans-Serif" font-size="10.00">Math/GenVector/PositionVector2D.h</text>
</g>
<!-- Node25&#45;&gt;Node27 -->
<g id="edge27" class="edge"><title>Node25&#45;&gt;Node27</title>
<path fill="none" stroke="midnightblue" d="M944.897,-74.3717C959.884,-63.5015 985.862,-44.6602 1003.94,-31.5474"/>
<polygon fill="midnightblue" stroke="midnightblue" points="1006.06,-34.3349 1012.1,-25.6305 1001.95,-28.6684 1006.06,-34.3349"/>
</g>
<!-- Node28&#45;&gt;Node8 -->
<g id="edge33" class="edge"><title>Node28&#45;&gt;Node8</title>
<path fill="none" stroke="midnightblue" d="M1251.52,-198.467C1183.91,-187.474 1066.64,-168.404 995.391,-156.82"/>
<polygon fill="midnightblue" stroke="midnightblue" points="995.657,-153.317 985.225,-155.167 994.534,-160.226 995.657,-153.317"/>
</g>
<!-- Node28&#45;&gt;Node13 -->
<g id="edge37" class="edge"><title>Node28&#45;&gt;Node13</title>
<path fill="none" stroke="midnightblue" d="M1369.52,-198.994C1396.28,-192.136 1424.71,-179.448 1441,-156 1461.75,-126.139 1411.97,-105.247 1374.06,-94.1856"/>
<polygon fill="midnightblue" stroke="midnightblue" points="1374.82,-90.7623 1364.24,-91.4564 1372.94,-97.5066 1374.82,-90.7623"/>
</g>
<!-- Node29 -->
<g id="node29" class="node"><title>Node29</title>
<polygon fill="none" stroke="#bfbfbf" points="1609.5,-74.5 1609.5,-93.5 1644.5,-93.5 1644.5,-74.5 1609.5,-74.5"/>
<text text-anchor="middle" x="1627" y="-81.5" font-family="Helvetica,sans-Serif" font-size="10.00">map</text>
</g>
<!-- Node28&#45;&gt;Node29 -->
<g id="edge29" class="edge"><title>Node28&#45;&gt;Node29</title>
<path fill="none" stroke="midnightblue" d="M1369.54,-207.505C1462.56,-206.662 1625.76,-198.906 1663,-156 1677.35,-139.469 1660.16,-116.214 1644.97,-100.885"/>
<polygon fill="midnightblue" stroke="midnightblue" points="1647.04,-98.025 1637.38,-93.6681 1642.22,-103.097 1647.04,-98.025"/>
</g>
<!-- Node30 -->
<g id="node30" class="node"><title>Node30</title>
<polygon fill="none" stroke="#bfbfbf" points="1711,-136.5 1711,-155.5 1755,-155.5 1755,-136.5 1711,-136.5"/>
<text text-anchor="middle" x="1733" y="-143.5" font-family="Helvetica,sans-Serif" font-size="10.00">vector</text>
</g>
<!-- Node28&#45;&gt;Node30 -->
<g id="edge30" class="edge"><title>Node28&#45;&gt;Node30</title>
<path fill="none" stroke="midnightblue" d="M1369.73,-200.823C1448.08,-192.92 1582.75,-177.618 1697,-156 1698.25,-155.764 1699.51,-155.511 1700.79,-155.246"/>
<polygon fill="midnightblue" stroke="midnightblue" points="1701.64,-158.642 1710.62,-153.021 1700.09,-151.815 1701.64,-158.642"/>
</g>
<!-- Node31 -->
<g id="node31" class="node"><title>Node31</title>
<polygon fill="none" stroke="#bfbfbf" points="1003,-136.5 1003,-155.5 1055,-155.5 1055,-136.5 1003,-136.5"/>
<text text-anchor="middle" x="1029" y="-143.5" font-family="Helvetica,sans-Serif" font-size="10.00">memory</text>
</g>
<!-- Node28&#45;&gt;Node31 -->
<g id="edge31" class="edge"><title>Node28&#45;&gt;Node31</title>
<path fill="none" stroke="midnightblue" d="M1261.59,-198.414C1215.79,-189.039 1140.44,-173.317 1065.42,-156.03"/>
<polygon fill="midnightblue" stroke="midnightblue" points="1065.85,-152.537 1055.32,-153.692 1064.27,-159.357 1065.85,-152.537"/>
</g>
<!-- Node32 -->
<g id="node32" class="node"><title>Node32</title>
<polygon fill="none" stroke="#bfbfbf" points="1073.5,-136.5 1073.5,-155.5 1152.5,-155.5 1152.5,-136.5 1073.5,-136.5"/>
<text text-anchor="middle" x="1113" y="-143.5" font-family="Helvetica,sans-Serif" font-size="10.00">FairDetector.h</text>
</g>
<!-- Node28&#45;&gt;Node32 -->
<g id="edge32" class="edge"><title>Node28&#45;&gt;Node32</title>
<path fill="none" stroke="midnightblue" d="M1276.63,-198.403C1243.45,-187.978 1187.35,-170.356 1150.24,-158.699"/>
<polygon fill="midnightblue" stroke="midnightblue" points="1150.9,-155.239 1140.31,-155.581 1148.81,-161.917 1150.9,-155.239"/>
</g>
<!-- Node33 -->
<g id="node33" class="node"><title>Node33</title>
<g id="a_node33"><a xlink:href="../../d0/d9a/MaterialManager_8h.html" target="_top" xlink:title="DetectorsBase/MaterialManager.h">
<polygon fill="none" stroke="black" points="1489.5,-136.5 1489.5,-155.5 1654.5,-155.5 1654.5,-136.5 1489.5,-136.5"/>
<text text-anchor="middle" x="1572" y="-143.5" font-family="Helvetica,sans-Serif" font-size="10.00">DetectorsBase/MaterialManager.h</text>
</a>
</g>
</g>
<!-- Node28&#45;&gt;Node33 -->
<g id="edge34" class="edge"><title>Node28&#45;&gt;Node33</title>
<path fill="none" stroke="midnightblue" d="M1342.11,-198.467C1389.94,-187.76 1471.98,-169.392 1524.03,-157.74"/>
<polygon fill="midnightblue" stroke="midnightblue" points="1525.02,-161.104 1534.02,-155.503 1523.5,-154.273 1525.02,-161.104"/>
</g>
<!-- Node34 -->
<g id="node34" class="node"><title>Node34</title>
<polygon fill="none" stroke="#bfbfbf" points="1170.5,-136.5 1170.5,-155.5 1223.5,-155.5 1223.5,-136.5 1170.5,-136.5"/>
<text text-anchor="middle" x="1197" y="-143.5" font-family="Helvetica,sans-Serif" font-size="10.00">cxxabi.h</text>
</g>
<!-- Node28&#45;&gt;Node34 -->
<g id="edge38" class="edge"><title>Node28&#45;&gt;Node34</title>
<path fill="none" stroke="midnightblue" d="M1288.67,-198.403C1271.03,-188.512 1241.84,-172.144 1221.14,-160.538"/>
<polygon fill="midnightblue" stroke="midnightblue" points="1222.74,-157.419 1212.3,-155.581 1219.31,-163.524 1222.74,-157.419"/>
</g>
<!-- Node35 -->
<g id="node35" class="node"><title>Node35</title>
<polygon fill="none" stroke="#bfbfbf" points="1241.5,-136.5 1241.5,-155.5 1292.5,-155.5 1292.5,-136.5 1241.5,-136.5"/>
<text text-anchor="middle" x="1267" y="-143.5" font-family="Helvetica,sans-Serif" font-size="10.00">typeinfo</text>
</g>
<!-- Node28&#45;&gt;Node35 -->
<g id="edge39" class="edge"><title>Node28&#45;&gt;Node35</title>
<path fill="none" stroke="midnightblue" d="M1298.7,-198.403C1293.2,-189.493 1284.47,-175.325 1277.56,-164.118"/>
<polygon fill="midnightblue" stroke="midnightblue" points="1280.52,-162.255 1272.29,-155.581 1274.56,-165.929 1280.52,-162.255"/>
</g>
<!-- Node36 -->
<g id="node36" class="node"><title>Node36</title>
<polygon fill="none" stroke="#bfbfbf" points="1311,-136.5 1311,-155.5 1373,-155.5 1373,-136.5 1311,-136.5"/>
<text text-anchor="middle" x="1342" y="-143.5" font-family="Helvetica,sans-Serif" font-size="10.00">type_traits</text>
</g>
<!-- Node28&#45;&gt;Node36 -->
<g id="edge40" class="edge"><title>Node28&#45;&gt;Node36</title>
<path fill="none" stroke="midnightblue" d="M1309.44,-198.403C1315.09,-189.493 1324.06,-175.325 1331.16,-164.118"/>
<polygon fill="midnightblue" stroke="midnightblue" points="1334.17,-165.901 1336.57,-155.581 1328.26,-162.156 1334.17,-165.901"/>
</g>
<!-- Node37 -->
<g id="node37" class="node"><title>Node37</title>
<polygon fill="none" stroke="#bfbfbf" points="1391.5,-136.5 1391.5,-155.5 1432.5,-155.5 1432.5,-136.5 1391.5,-136.5"/>
<text text-anchor="middle" x="1412" y="-143.5" font-family="Helvetica,sans-Serif" font-size="10.00">string</text>
</g>
<!-- Node28&#45;&gt;Node37 -->
<g id="edge41" class="edge"><title>Node28&#45;&gt;Node37</title>
<path fill="none" stroke="midnightblue" d="M1319.47,-198.403C1337.28,-188.512 1366.74,-172.144 1387.63,-160.538"/>
<polygon fill="midnightblue" stroke="midnightblue" points="1389.51,-163.497 1396.55,-155.581 1386.11,-157.378 1389.51,-163.497"/>
</g>
<!-- Node33&#45;&gt;Node13 -->
<g id="edge35" class="edge"><title>Node33&#45;&gt;Node13</title>
<path fill="none" stroke="midnightblue" d="M1538.44,-136.467C1495.02,-125.428 1419.57,-106.246 1374.06,-94.6763"/>
<polygon fill="midnightblue" stroke="midnightblue" points="1374.83,-91.2606 1364.28,-92.1886 1373.1,-98.0448 1374.83,-91.2606"/>
</g>
<!-- Node33&#45;&gt;Node29 -->
<g id="edge36" class="edge"><title>Node33&#45;&gt;Node29</title>
<path fill="none" stroke="midnightblue" d="M1579.88,-136.403C1588.29,-127.225 1601.82,-112.47 1612.23,-101.117"/>
<polygon fill="midnightblue" stroke="midnightblue" points="1614.96,-103.317 1619.13,-93.5806 1609.8,-98.5871 1614.96,-103.317"/>
</g>
</g>
</svg>
        <g id="navigator" transform="translate(0 0)" fill="#404254">
                <rect fill="#f2f5e9" fill-opacity="0.5" stroke="#606060" stroke-width=".5" x="0" y="0" width="60" height="60"/>
                <use id="zoomplus" xlink:href="#zoomPlus" x="17" y="9" onmousedown="handleZoom(evt,'in')"/>
                <use id="zoomminus" xlink:href="#zoomMin" x="42" y="9" onmousedown="handleZoom(evt,'out')"/>
                <use id="reset" xlink:href="#resetDef" x="30" y="36" onmousedown="handleReset()"/>
                <g id="arrowUp" xlink:href="#dirArrow" transform="translate(30 24)" onmousedown="handlePan(0,-1)">
                  <use xlink:href="#rim" fill="#404040">
                        <set attributeName="fill" to="#808080" begin="arrowUp.mouseover" end="arrowUp.mouseout"/>
                  </use>
                  <path fill="none" stroke="white" stroke-width="1.5" d="M0,-3.0v7 M-2.5,-0.5L0,-3.0L2.5,-0.5"/>
                </g>
                <g id="arrowRight" xlink:href="#dirArrow" transform="rotate(90) translate(36 -43)" onmousedown="handlePan(1,0)">
                  <use xlink:href="#rim" fill="#404040">
                        <set attributeName="fill" to="#808080" begin="arrowRight.mouseover" end="arrowRight.mouseout"/>
                  </use>
                  <path fill="none" stroke="white" stroke-width="1.5" d="M0,-3.0v7 M-2.5,-0.5L0,-3.0L2.5,-0.5"/>
                </g>
                <g id="arrowDown" xlink:href="#dirArrow" transform="rotate(180) translate(-30 -48)" onmousedown="handlePan(0,1)">
                  <use xlink:href="#rim" fill="#404040">
                        <set attributeName="fill" to="#808080" begin="arrowDown.mouseover" end="arrowDown.mouseout"/>
                  </use>
                  <path fill="none" stroke="white" stroke-width="1.5" d="M0,-3.0v7 M-2.5,-0.5L0,-3.0L2.5,-0.5"/>
                </g>
                <g id="arrowLeft" xlink:href="#dirArrow" transform="rotate(270) translate(-36 17)" onmousedown="handlePan(-1,0)">
                  <use xlink:href="#rim" fill="#404040">
                        <set attributeName="fill" to="#808080" begin="arrowLeft.mouseover" end="arrowLeft.mouseout"/>
                  </use>
                  <path fill="none" stroke="white" stroke-width="1.5" d="M0,-3.0v7 M-2.5,-0.5L0,-3.0L2.5,-0.5"/>
                </g>
        </g>
        <svg viewBox="0 0 15 15" width="100%" height="30px" preserveAspectRatio="xMaxYMin meet">
         <g id="arrow_out" transform="scale(0.3 0.3)">
          <a xlink:href="FIT_2simulation_2src_2Detector_8cxx__incl_org.svg" target="_base">
           <rect id="button" ry="5" rx="5" y="6" x="6" height="38" width="38"
                fill="#f2f5e9" fill-opacity="0.5" stroke="#606060" stroke-width="1.0"/>
           <path id="arrow"
             d="M 11.500037,31.436501 C 11.940474,20.09759 22.043105,11.32322 32.158766,21.979434 L 37.068811,17.246167 C 37.068811,17.246167 37.088388,32 37.088388,32 L 22.160133,31.978069 C 22.160133,31.978069 26.997745,27.140456 26.997745,27.140456 C 18.528582,18.264221 13.291696,25.230495 11.500037,31.436501 z"
             style="fill:#404040;"/>
          </a>
         </g>
        </svg>
</svg>
