<?xml version="1.0" encoding="UTF-8" standalone="no"?>
<!DOCTYPE svg PUBLIC "-//W3C//DTD SVG 1.1//EN"
 "http://www.w3.org/Graphics/SVG/1.1/DTD/svg11.dtd">
<!-- Generated by graphviz version 2.36.0 (20140111.2315)
 -->
<!-- Title: /home/travis/build/AliceO2Group/AliceO2/Detectors/TPC/simulation/include/TPCSimulation/Detector.h Pages: 1 -->
<!--zoomable 378 -->
<svg id="main" version="1.1" xmlns="http://www.w3.org/2000/svg" xmlns:xlink="http://www.w3.org/1999/xlink" xml:space="preserve" onload="init(evt)">
<style type="text/css"><![CDATA[
.edge:hover path { stroke: red; }
.edge:hover polygon { stroke: red; fill: red; }
]]></style>
<script type="text/javascript"><![CDATA[
var edges = document.getElementsByTagName('g');
if (edges && edges.length) {
  for (var i=0;i<edges.length;i++) {
    if (edges[i].id.substr(0,4)=='edge') {
      edges[i].setAttribute('class','edge');
    }
  }
}
]]></script>
        <defs>
                <circle id="rim" cx="0" cy="0" r="7"/>
                <circle id="rim2" cx="0" cy="0" r="3.5"/>
                <g id="zoomPlus">
                        <use xlink:href="#rim" fill="#404040">
                                <set attributeName="fill" to="#808080" begin="zoomplus.mouseover" end="zoomplus.mouseout"/>
                        </use>
                        <path d="M-4,0h8M0,-4v8" fill="none" stroke="white" stroke-width="1.5" pointer-events="none"/>
                </g>
                <g id="zoomMin">
                        <use xlink:href="#rim" fill="#404040">
                                <set attributeName="fill" to="#808080" begin="zoomminus.mouseover" end="zoomminus.mouseout"/>
                        </use>
                        <path d="M-4,0h8" fill="none" stroke="white" stroke-width="1.5" pointer-events="none"/>
                </g>
                <g id="dirArrow">
                        <path fill="none" stroke="white" stroke-width="1.5" d="M0,-3.0v7 M-2.5,-0.5L0,-3.0L2.5,-0.5"/>
                </g>
               <g id="resetDef">
                       <use xlink:href="#rim2" fill="#404040">
                               <set attributeName="fill" to="#808080" begin="reset.mouseover" end="reset.mouseout"/>
                       </use>
               </g>
        </defs>

<script type="text/javascript">
var viewWidth = 1826;
var viewHeight = 378;
var sectionId = 'dynsection-0';
</script>
<script xlink:href="../../svgpan.js"/>
<svg id="graph" class="graph">
<g id="viewport">
<title>/home/travis/build/AliceO2Group/AliceO2/Detectors/TPC/simulation/include/TPCSimulation/Detector.h</title>
<!-- Node1 -->
<g id="node1" class="node"><title>Node1</title>
<polygon fill="#bfbfbf" stroke="black" points="1376,-317 1376,-369 1544,-369 1544,-317 1376,-317"/>
<text text-anchor="start" x="1384" y="-357" font-family="Helvetica,sans-Serif" font-size="10.00">/home/travis/build</text>
<text text-anchor="start" x="1384" y="-346" font-family="Helvetica,sans-Serif" font-size="10.00">/AliceO2Group/AliceO2</text>
<text text-anchor="start" x="1384" y="-335" font-family="Helvetica,sans-Serif" font-size="10.00">/Detectors/TPC/simulation</text>
<text text-anchor="middle" x="1460" y="-324" font-family="Helvetica,sans-Serif" font-size="10.00">/include/TPCSimulation/Detector.h</text>
</g>
<!-- Node2 -->
<g id="node2" class="node"><title>Node2</title>
<g id="a_node2"><a xlink:href="../../d1/d3a/Base_2include_2DetectorsBase_2Detector_8h.html" target="_top" xlink:title="DetectorsBase/Detector.h">
<polygon fill="none" stroke="black" points="1230.5,-260.5 1230.5,-279.5 1361.5,-279.5 1361.5,-260.5 1230.5,-260.5"/>
<text text-anchor="middle" x="1296" y="-267.5" font-family="Helvetica,sans-Serif" font-size="10.00">DetectorsBase/Detector.h</text>
</a>
</g>
</g>
<!-- Node1&#45;&gt;Node2 -->
<g id="edge1" class="edge"><title>Node1&#45;&gt;Node2</title>
<path fill="none" stroke="midnightblue" d="M1402.18,-316.968C1376.23,-305.732 1346.72,-292.96 1325.42,-283.735"/>
<polygon fill="midnightblue" stroke="midnightblue" points="1326.52,-280.4 1315.95,-279.639 1323.74,-286.824 1326.52,-280.4"/>
</g>
<!-- Node9 -->
<g id="node9" class="node"><title>Node9</title>
<polygon fill="none" stroke="#bfbfbf" points="1321,-74.5 1321,-93.5 1377,-93.5 1377,-74.5 1321,-74.5"/>
<text text-anchor="middle" x="1349" y="-81.5" font-family="Helvetica,sans-Serif" font-size="10.00">Rtypes.h</text>
</g>
<!-- Node1&#45;&gt;Node9 -->
<g id="edge15" class="edge"><title>Node1&#45;&gt;Node9</title>
<path fill="none" stroke="midnightblue" d="M1515.13,-316.908C1568.46,-288.995 1636.78,-241.301 1604,-192 1555.33,-118.795 1445.83,-95.5703 1387.41,-88.2796"/>
<polygon fill="midnightblue" stroke="midnightblue" points="1387.46,-84.7621 1377.13,-87.0952 1386.66,-91.7162 1387.46,-84.7621"/>
</g>
<!-- Node14 -->
<g id="node14" class="node"><title>Node14</title>
<polygon fill="none" stroke="#bfbfbf" points="1652,-260.5 1652,-279.5 1744,-279.5 1744,-260.5 1652,-260.5"/>
<text text-anchor="middle" x="1698" y="-267.5" font-family="Helvetica,sans-Serif" font-size="10.00">TLorentzVector.h</text>
</g>
<!-- Node1&#45;&gt;Node14 -->
<g id="edge16" class="edge"><title>Node1&#45;&gt;Node14</title>
<path fill="none" stroke="midnightblue" d="M1543.91,-316.968C1583.4,-305.188 1628.55,-291.718 1659.72,-282.419"/>
<polygon fill="midnightblue" stroke="midnightblue" points="1660.74,-285.767 1669.33,-279.554 1658.74,-279.059 1660.74,-285.767"/>
</g>
<!-- Node15 -->
<g id="node15" class="node"><title>Node15</title>
<polygon fill="none" stroke="#bfbfbf" points="1762,-260.5 1762,-279.5 1818,-279.5 1818,-260.5 1762,-260.5"/>
<text text-anchor="middle" x="1790" y="-267.5" font-family="Helvetica,sans-Serif" font-size="10.00">TString.h</text>
</g>
<!-- Node1&#45;&gt;Node15 -->
<g id="edge17" class="edge"><title>Node1&#45;&gt;Node15</title>
<path fill="none" stroke="midnightblue" d="M1544.13,-324.896C1600.26,-313.323 1675.94,-297.404 1751.56,-280.28"/>
<polygon fill="midnightblue" stroke="midnightblue" points="1752.76,-283.596 1761.74,-277.967 1751.21,-276.77 1752.76,-283.596"/>
</g>
<!-- Node16 -->
<g id="node16" class="node"><title>Node16</title>
<g id="a_node16"><a xlink:href="../../d4/de5/Point_8h.html" target="_top" xlink:title="Class for TPC Point. ">
<polygon fill="none" stroke="black" points="689,-260.5 689,-279.5 805,-279.5 805,-260.5 689,-260.5"/>
<text text-anchor="middle" x="747" y="-267.5" font-family="Helvetica,sans-Serif" font-size="10.00">TPCSimulation/Point.h</text>
</a>
</g>
</g>
<!-- Node1&#45;&gt;Node16 -->
<g id="edge18" class="edge"><title>Node1&#45;&gt;Node16</title>
<path fill="none" stroke="midnightblue" d="M1375.76,-333.612C1233.15,-319.41 946.874,-290.903 815.612,-277.832"/>
<polygon fill="midnightblue" stroke="midnightblue" points="815.593,-274.313 805.295,-276.805 814.899,-281.279 815.593,-274.313"/>
</g>
<!-- Node29 -->
<g id="node29" class="node"><title>Node29</title>
<g id="a_node29"><a xlink:href="../../d3/dd6/Sector_8h.html" target="_top" xlink:title="TPCBase/Sector.h">
<polygon fill="none" stroke="black" points="450.5,-260.5 450.5,-279.5 549.5,-279.5 549.5,-260.5 450.5,-260.5"/>
<text text-anchor="middle" x="500" y="-267.5" font-family="Helvetica,sans-Serif" font-size="10.00">TPCBase/Sector.h</text>
</a>
</g>
</g>
<!-- Node1&#45;&gt;Node29 -->
<g id="edge33" class="edge"><title>Node1&#45;&gt;Node29</title>
<path fill="none" stroke="midnightblue" d="M1375.65,-335.761C1185.04,-321.664 724.876,-287.631 560.017,-275.439"/>
<polygon fill="midnightblue" stroke="midnightblue" points="559.822,-271.915 549.591,-274.668 559.306,-278.896 559.822,-271.915"/>
</g>
<!-- Node3 -->
<g id="node3" class="node"><title>Node3</title>
<polygon fill="none" stroke="#bfbfbf" points="1243.5,-136.5 1243.5,-155.5 1278.5,-155.5 1278.5,-136.5 1243.5,-136.5"/>
<text text-anchor="middle" x="1261" y="-143.5" font-family="Helvetica,sans-Serif" font-size="10.00">map</text>
</g>
<!-- Node2&#45;&gt;Node3 -->
<g id="edge2" class="edge"><title>Node2&#45;&gt;Node3</title>
<path fill="none" stroke="midnightblue" d="M1317.48,-260.36C1332.39,-253.09 1351.11,-241.117 1360,-224 1366.55,-211.378 1367.7,-203.958 1360,-192 1344.4,-167.773 1312.21,-156.439 1288.76,-151.236"/>
<polygon fill="midnightblue" stroke="midnightblue" points="1289.18,-147.751 1278.69,-149.252 1287.83,-154.619 1289.18,-147.751"/>
</g>
<!-- Node4 -->
<g id="node4" class="node"><title>Node4</title>
<polygon fill="none" stroke="#bfbfbf" points="725,-198.5 725,-217.5 769,-217.5 769,-198.5 725,-198.5"/>
<text text-anchor="middle" x="747" y="-205.5" font-family="Helvetica,sans-Serif" font-size="10.00">vector</text>
</g>
<!-- Node2&#45;&gt;Node4 -->
<g id="edge3" class="edge"><title>Node2&#45;&gt;Node4</title>
<path fill="none" stroke="midnightblue" d="M1230.26,-266.26C1110.5,-260.778 861.441,-246.973 778,-224 775.799,-223.394 773.564,-222.635 771.356,-221.782"/>
<polygon fill="midnightblue" stroke="midnightblue" points="772.58,-218.496 762.021,-217.626 769.733,-224.891 772.58,-218.496"/>
</g>
<!-- Node5 -->
<g id="node5" class="node"><title>Node5</title>
<polygon fill="none" stroke="#bfbfbf" points="1446,-198.5 1446,-217.5 1498,-217.5 1498,-198.5 1446,-198.5"/>
<text text-anchor="middle" x="1472" y="-205.5" font-family="Helvetica,sans-Serif" font-size="10.00">memory</text>
</g>
<!-- Node2&#45;&gt;Node5 -->
<g id="edge4" class="edge"><title>Node2&#45;&gt;Node5</title>
<path fill="none" stroke="midnightblue" d="M1322.94,-260.429C1350.46,-251.596 1394.36,-237.28 1432,-224 1434.6,-223.083 1437.29,-222.117 1439.98,-221.134"/>
<polygon fill="midnightblue" stroke="midnightblue" points="1441.47,-224.316 1449.63,-217.565 1439.04,-217.751 1441.47,-224.316"/>
</g>
<!-- Node6 -->
<g id="node6" class="node"><title>Node6</title>
<polygon fill="none" stroke="#bfbfbf" points="1516.5,-198.5 1516.5,-217.5 1595.5,-217.5 1595.5,-198.5 1516.5,-198.5"/>
<text text-anchor="middle" x="1556" y="-205.5" font-family="Helvetica,sans-Serif" font-size="10.00">FairDetector.h</text>
</g>
<!-- Node2&#45;&gt;Node6 -->
<g id="edge5" class="edge"><title>Node2&#45;&gt;Node6</title>
<path fill="none" stroke="midnightblue" d="M1341.54,-260.476C1384.46,-252.163 1450.44,-238.659 1507,-224 1511.17,-222.92 1515.51,-221.713 1519.81,-220.465"/>
<polygon fill="midnightblue" stroke="midnightblue" points="1521.09,-223.735 1529.67,-217.52 1519.09,-217.027 1521.09,-223.735"/>
</g>
<!-- Node7 -->
<g id="node7" class="node"><title>Node7</title>
<polygon fill="none" stroke="#bfbfbf" points="971,-198.5 971,-217.5 1071,-217.5 1071,-198.5 971,-198.5"/>
<text text-anchor="middle" x="1021" y="-205.5" font-family="Helvetica,sans-Serif" font-size="10.00">FairRootManager.h</text>
</g>
<!-- Node2&#45;&gt;Node7 -->
<g id="edge6" class="edge"><title>Node2&#45;&gt;Node7</title>
<path fill="none" stroke="midnightblue" d="M1252.65,-260.439C1209.15,-251.728 1140.28,-237.609 1081,-224 1075.57,-222.754 1069.88,-221.397 1064.25,-220.025"/>
<polygon fill="midnightblue" stroke="midnightblue" points="1064.82,-216.559 1054.27,-217.56 1063.14,-223.355 1064.82,-216.559"/>
</g>
<!-- Node8 -->
<g id="node8" class="node"><title>Node8</title>
<g id="a_node8"><a xlink:href="../../d0/d9a/MaterialManager_8h.html" target="_top" xlink:title="DetectorsBase/MaterialManager.h">
<polygon fill="none" stroke="black" points="787.5,-198.5 787.5,-217.5 952.5,-217.5 952.5,-198.5 787.5,-198.5"/>
<text text-anchor="middle" x="870" y="-205.5" font-family="Helvetica,sans-Serif" font-size="10.00">DetectorsBase/MaterialManager.h</text>
</a>
</g>
</g>
<!-- Node2&#45;&gt;Node8 -->
<g id="edge7" class="edge"><title>Node2&#45;&gt;Node8</title>
<path fill="none" stroke="midnightblue" d="M1230.33,-260.698C1162.92,-252.048 1055.03,-237.848 962,-224 951.811,-222.483 941,-220.793 930.508,-219.11"/>
<polygon fill="midnightblue" stroke="midnightblue" points="931.006,-215.645 920.576,-217.504 929.889,-222.556 931.006,-215.645"/>
</g>
<!-- Node2&#45;&gt;Node9 -->
<g id="edge10" class="edge"><title>Node2&#45;&gt;Node9</title>
<path fill="none" stroke="midnightblue" d="M1326.25,-260.488C1344.13,-253.726 1365.3,-242.295 1376,-224 1398.88,-184.878 1374.8,-130.016 1359.54,-102.373"/>
<polygon fill="midnightblue" stroke="midnightblue" points="1362.44,-100.41 1354.41,-93.5 1356.38,-103.91 1362.44,-100.41"/>
</g>
<!-- Node10 -->
<g id="node10" class="node"><title>Node10</title>
<polygon fill="none" stroke="#bfbfbf" points="1089.5,-198.5 1089.5,-217.5 1142.5,-217.5 1142.5,-198.5 1089.5,-198.5"/>
<text text-anchor="middle" x="1116" y="-205.5" font-family="Helvetica,sans-Serif" font-size="10.00">cxxabi.h</text>
</g>
<!-- Node2&#45;&gt;Node10 -->
<g id="edge11" class="edge"><title>Node2&#45;&gt;Node10</title>
<path fill="none" stroke="midnightblue" d="M1265.95,-260.484C1236.63,-251.971 1190.89,-238.145 1152,-224 1149.75,-223.18 1147.42,-222.299 1145.1,-221.391"/>
<polygon fill="midnightblue" stroke="midnightblue" points="1146.26,-218.085 1135.68,-217.582 1143.64,-224.575 1146.26,-218.085"/>
</g>
<!-- Node11 -->
<g id="node11" class="node"><title>Node11</title>
<polygon fill="none" stroke="#bfbfbf" points="1160.5,-198.5 1160.5,-217.5 1211.5,-217.5 1211.5,-198.5 1160.5,-198.5"/>
<text text-anchor="middle" x="1186" y="-205.5" font-family="Helvetica,sans-Serif" font-size="10.00">typeinfo</text>
</g>
<!-- Node2&#45;&gt;Node11 -->
<g id="edge12" class="edge"><title>Node2&#45;&gt;Node11</title>
<path fill="none" stroke="midnightblue" d="M1280.24,-260.403C1262.02,-250.468 1231.83,-233.997 1210.53,-222.381"/>
<polygon fill="midnightblue" stroke="midnightblue" points="1212.19,-219.297 1201.73,-217.581 1208.83,-225.442 1212.19,-219.297"/>
</g>
<!-- Node12 -->
<g id="node12" class="node"><title>Node12</title>
<polygon fill="none" stroke="#bfbfbf" points="1230,-198.5 1230,-217.5 1292,-217.5 1292,-198.5 1230,-198.5"/>
<text text-anchor="middle" x="1261" y="-205.5" font-family="Helvetica,sans-Serif" font-size="10.00">type_traits</text>
</g>
<!-- Node2&#45;&gt;Node12 -->
<g id="edge13" class="edge"><title>Node2&#45;&gt;Node12</title>
<path fill="none" stroke="midnightblue" d="M1290.99,-260.403C1285.84,-251.582 1277.69,-237.608 1271.18,-226.455"/>
<polygon fill="midnightblue" stroke="midnightblue" points="1274.07,-224.455 1266.01,-217.581 1268.02,-227.982 1274.07,-224.455"/>
</g>
<!-- Node13 -->
<g id="node13" class="node"><title>Node13</title>
<polygon fill="none" stroke="#bfbfbf" points="1310.5,-198.5 1310.5,-217.5 1351.5,-217.5 1351.5,-198.5 1310.5,-198.5"/>
<text text-anchor="middle" x="1331" y="-205.5" font-family="Helvetica,sans-Serif" font-size="10.00">string</text>
</g>
<!-- Node2&#45;&gt;Node13 -->
<g id="edge14" class="edge"><title>Node2&#45;&gt;Node13</title>
<path fill="none" stroke="midnightblue" d="M1301.01,-260.403C1306.16,-251.582 1314.31,-237.608 1320.82,-226.455"/>
<polygon fill="midnightblue" stroke="midnightblue" points="1323.98,-227.982 1325.99,-217.581 1317.93,-224.455 1323.98,-227.982"/>
</g>
<!-- Node8&#45;&gt;Node3 -->
<g id="edge9" class="edge"><title>Node8&#45;&gt;Node3</title>
<path fill="none" stroke="midnightblue" d="M921.56,-198.479C934.739,-196.333 948.89,-194.055 962,-192 1061.95,-176.332 1180.87,-158.751 1233.55,-151.017"/>
<polygon fill="midnightblue" stroke="midnightblue" points="1234.08,-154.477 1243.46,-149.563 1233.06,-147.551 1234.08,-154.477"/>
</g>
<!-- Node8&#45;&gt;Node9 -->
<g id="edge8" class="edge"><title>Node8&#45;&gt;Node9</title>
<path fill="none" stroke="midnightblue" d="M903.682,-198.421C990.213,-176.382 1219.88,-117.886 1310.99,-94.6816"/>
<polygon fill="midnightblue" stroke="midnightblue" points="1312.06,-98.02 1320.89,-92.16 1310.33,-91.2366 1312.06,-98.02"/>
</g>
<!-- Node16&#45;&gt;Node4 -->
<g id="edge32" class="edge"><title>Node16&#45;&gt;Node4</title>
<path fill="none" stroke="midnightblue" d="M747,-260.403C747,-251.938 747,-238.728 747,-227.82"/>
<polygon fill="midnightblue" stroke="midnightblue" points="750.5,-227.581 747,-217.581 743.5,-227.581 750.5,-227.581"/>
</g>
<!-- Node17 -->
<g id="node17" class="node"><title>Node17</title>
<g id="a_node17"><a xlink:href="../../d4/d25/BaseHits_8h.html" target="_top" xlink:title="SimulationDataFormat\l/BaseHits.h">
<polygon fill="none" stroke="black" points="593,-193 593,-223 707,-223 707,-193 593,-193"/>
<text text-anchor="start" x="601" y="-211" font-family="Helvetica,sans-Serif" font-size="10.00">SimulationDataFormat</text>
<text text-anchor="middle" x="650" y="-200" font-family="Helvetica,sans-Serif" font-size="10.00">/BaseHits.h</text>
</a>
</g>
</g>
<!-- Node16&#45;&gt;Node17 -->
<g id="edge19" class="edge"><title>Node16&#45;&gt;Node17</title>
<path fill="none" stroke="midnightblue" d="M733.102,-260.403C719.719,-252.125 699.002,-239.311 681.602,-228.547"/>
<polygon fill="midnightblue" stroke="midnightblue" points="683.207,-225.425 672.861,-223.141 679.524,-231.378 683.207,-225.425"/>
</g>
<!-- Node18 -->
<g id="node18" class="node"><title>Node18</title>
<g id="a_node18"><a xlink:href="../../dd/d76/Cartesian3D_8h.html" target="_top" xlink:title="MathUtils/Cartesian3D.h">
<polygon fill="none" stroke="black" points="622.5,-136.5 622.5,-155.5 747.5,-155.5 747.5,-136.5 622.5,-136.5"/>
<text text-anchor="middle" x="685" y="-143.5" font-family="Helvetica,sans-Serif" font-size="10.00">MathUtils/Cartesian3D.h</text>
</a>
</g>
</g>
<!-- Node17&#45;&gt;Node18 -->
<g id="edge20" class="edge"><title>Node17&#45;&gt;Node18</title>
<path fill="none" stroke="midnightblue" d="M658.295,-192.781C663.223,-184.332 669.514,-173.548 674.751,-164.569"/>
<polygon fill="midnightblue" stroke="midnightblue" points="677.892,-166.132 679.907,-155.731 671.845,-162.605 677.892,-166.132"/>
</g>
<!-- Node18&#45;&gt;Node9 -->
<g id="edge26" class="edge"><title>Node18&#45;&gt;Node9</title>
<path fill="none" stroke="midnightblue" d="M747.825,-142.831C856.102,-138.51 1084.68,-126.831 1276,-100 1287.38,-98.4042 1299.65,-96.1103 1310.82,-93.7947"/>
<polygon fill="midnightblue" stroke="midnightblue" points="1311.67,-97.1929 1320.72,-91.6815 1310.21,-90.3472 1311.67,-97.1929"/>
</g>
<!-- Node19 -->
<g id="node19" class="node"><title>Node19</title>
<polygon fill="none" stroke="#bfbfbf" points="1116.5,-69 1116.5,-99 1267.5,-99 1267.5,-69 1116.5,-69"/>
<text text-anchor="start" x="1124.5" y="-87" font-family="Helvetica,sans-Serif" font-size="10.00">Math/GenVector/Displacement</text>
<text text-anchor="middle" x="1192" y="-76" font-family="Helvetica,sans-Serif" font-size="10.00">Vector3D.h</text>
</g>
<!-- Node18&#45;&gt;Node19 -->
<g id="edge21" class="edge"><title>Node18&#45;&gt;Node19</title>
<path fill="none" stroke="midnightblue" d="M747.727,-139.663C828.281,-132.507 972.614,-118.67 1106.47,-100.01"/>
<polygon fill="midnightblue" stroke="midnightblue" points="1107.08,-103.458 1116.5,-98.6001 1106.11,-96.5265 1107.08,-103.458"/>
</g>
<!-- Node20 -->
<g id="node20" class="node"><title>Node20</title>
<polygon fill="none" stroke="#bfbfbf" points="246,-74.5 246,-93.5 422,-93.5 422,-74.5 246,-74.5"/>
<text text-anchor="middle" x="334" y="-81.5" font-family="Helvetica,sans-Serif" font-size="10.00">Math/GenVector/PositionVector3D.h</text>
</g>
<!-- Node18&#45;&gt;Node20 -->
<g id="edge22" class="edge"><title>Node18&#45;&gt;Node20</title>
<path fill="none" stroke="midnightblue" d="M635.083,-136.467C571.534,-125.604 461.851,-106.855 393.872,-95.2346"/>
<polygon fill="midnightblue" stroke="midnightblue" points="394.192,-91.7385 383.745,-93.5034 393.012,-98.6384 394.192,-91.7385"/>
</g>
<!-- Node21 -->
<g id="node21" class="node"><title>Node21</title>
<polygon fill="none" stroke="#bfbfbf" points="439.5,-74.5 439.5,-93.5 588.5,-93.5 588.5,-74.5 439.5,-74.5"/>
<text text-anchor="middle" x="514" y="-81.5" font-family="Helvetica,sans-Serif" font-size="10.00">Math/GenVector/Rotation3D.h</text>
</g>
<!-- Node18&#45;&gt;Node21 -->
<g id="edge23" class="edge"><title>Node18&#45;&gt;Node21</title>
<path fill="none" stroke="midnightblue" d="M660.5,-136.403C631.04,-126.067 581.421,-108.656 548.198,-96.9994"/>
<polygon fill="midnightblue" stroke="midnightblue" points="549.05,-93.5889 538.455,-93.5806 546.732,-100.194 549.05,-93.5889"/>
</g>
<!-- Node22 -->
<g id="node22" class="node"><title>Node22</title>
<polygon fill="none" stroke="#bfbfbf" points="607,-74.5 607,-93.5 763,-93.5 763,-74.5 607,-74.5"/>
<text text-anchor="middle" x="685" y="-81.5" font-family="Helvetica,sans-Serif" font-size="10.00">Math/GenVector/Transform3D.h</text>
</g>
<!-- Node18&#45;&gt;Node22 -->
<g id="edge24" class="edge"><title>Node18&#45;&gt;Node22</title>
<path fill="none" stroke="midnightblue" d="M685,-136.403C685,-127.938 685,-114.728 685,-103.82"/>
<polygon fill="midnightblue" stroke="midnightblue" points="688.5,-103.581 685,-93.5806 681.5,-103.581 688.5,-103.581"/>
</g>
<!-- Node23 -->
<g id="node23" class="node"><title>Node23</title>
<polygon fill="none" stroke="#bfbfbf" points="781,-74.5 781,-93.5 941,-93.5 941,-74.5 781,-74.5"/>
<text text-anchor="middle" x="861" y="-81.5" font-family="Helvetica,sans-Serif" font-size="10.00">Math/GenVector/Translation3D.h</text>
</g>
<!-- Node18&#45;&gt;Node23 -->
<g id="edge25" class="edge"><title>Node18&#45;&gt;Node23</title>
<path fill="none" stroke="midnightblue" d="M710.217,-136.403C740.668,-126.022 792.049,-108.506 826.243,-96.849"/>
<polygon fill="midnightblue" stroke="midnightblue" points="827.495,-100.12 835.83,-93.5806 825.236,-93.4946 827.495,-100.12"/>
</g>
<!-- Node24 -->
<g id="node24" class="node"><title>Node24</title>
<polygon fill="none" stroke="#bfbfbf" points="959,-74.5 959,-93.5 1035,-93.5 1035,-74.5 959,-74.5"/>
<text text-anchor="middle" x="997" y="-81.5" font-family="Helvetica,sans-Serif" font-size="10.00">TGeoMatrix.h</text>
</g>
<!-- Node18&#45;&gt;Node24 -->
<g id="edge27" class="edge"><title>Node18&#45;&gt;Node24</title>
<path fill="none" stroke="midnightblue" d="M747.616,-136.903C801.636,-129.316 881.531,-116.652 950,-100 954.12,-98.9981 958.403,-97.8228 962.634,-96.5787"/>
<polygon fill="midnightblue" stroke="midnightblue" points="963.779,-99.8884 972.305,-93.5999 961.718,-93.1985 963.779,-99.8884"/>
</g>
<!-- Node25 -->
<g id="node25" class="node"><title>Node25</title>
<polygon fill="none" stroke="#bfbfbf" points="1053.5,-74.5 1053.5,-93.5 1098.5,-93.5 1098.5,-74.5 1053.5,-74.5"/>
<text text-anchor="middle" x="1076" y="-81.5" font-family="Helvetica,sans-Serif" font-size="10.00">iosfwd</text>
</g>
<!-- Node18&#45;&gt;Node25 -->
<g id="edge28" class="edge"><title>Node18&#45;&gt;Node25</title>
<path fill="none" stroke="midnightblue" d="M747.811,-143.064C820.429,-139.474 942.928,-129.23 1044,-100 1046.29,-99.3384 1048.62,-98.5327 1050.92,-97.6416"/>
<polygon fill="midnightblue" stroke="midnightblue" points="1052.33,-100.847 1060.1,-93.6499 1049.54,-94.4275 1052.33,-100.847"/>
</g>
<!-- Node26 -->
<g id="node26" class="node"><title>Node26</title>
<g id="a_node26"><a xlink:href="../../d2/dd0/Cartesian2D_8h.html" target="_top" xlink:title="MathUtils/Cartesian2D.h">
<polygon fill="none" stroke="black" points="103.5,-74.5 103.5,-93.5 228.5,-93.5 228.5,-74.5 103.5,-74.5"/>
<text text-anchor="middle" x="166" y="-81.5" font-family="Helvetica,sans-Serif" font-size="10.00">MathUtils/Cartesian2D.h</text>
</a>
</g>
</g>
<!-- Node18&#45;&gt;Node26 -->
<g id="edge29" class="edge"><title>Node18&#45;&gt;Node26</title>
<path fill="none" stroke="midnightblue" d="M622.401,-140.858C535.544,-134.624 373.719,-121.245 237,-100 229.122,-98.7758 220.8,-97.2403 212.736,-95.6222"/>
<polygon fill="midnightblue" stroke="midnightblue" points="213.213,-92.1468 202.711,-93.5456 211.793,-99.0013 213.213,-92.1468"/>
</g>
<!-- Node27 -->
<g id="node27" class="node"><title>Node27</title>
<polygon fill="none" stroke="#bfbfbf" points="-0.5,-1 -0.5,-31 150.5,-31 150.5,-1 -0.5,-1"/>
<text text-anchor="start" x="7.5" y="-19" font-family="Helvetica,sans-Serif" font-size="10.00">Math/GenVector/Displacement</text>
<text text-anchor="middle" x="75" y="-8" font-family="Helvetica,sans-Serif" font-size="10.00">Vector2D.h</text>
</g>
<!-- Node26&#45;&gt;Node27 -->
<g id="edge30" class="edge"><title>Node26&#45;&gt;Node27</title>
<path fill="none" stroke="midnightblue" d="M154.103,-74.3717C141.221,-65.0286 120.22,-49.7966 103.093,-37.375"/>
<polygon fill="midnightblue" stroke="midnightblue" points="104.703,-34.2194 94.5532,-31.1815 100.593,-39.8859 104.703,-34.2194"/>
</g>
<!-- Node28 -->
<g id="node28" class="node"><title>Node28</title>
<polygon fill="none" stroke="#bfbfbf" points="169,-6.5 169,-25.5 345,-25.5 345,-6.5 169,-6.5"/>
<text text-anchor="middle" x="257" y="-13.5" font-family="Helvetica,sans-Serif" font-size="10.00">Math/GenVector/PositionVector2D.h</text>
</g>
<!-- Node26&#45;&gt;Node28 -->
<g id="edge31" class="edge"><title>Node26&#45;&gt;Node28</title>
<path fill="none" stroke="midnightblue" d="M177.897,-74.3717C192.884,-63.5015 218.862,-44.6602 236.942,-31.5474"/>
<polygon fill="midnightblue" stroke="midnightblue" points="239.06,-34.3349 245.1,-25.6305 234.95,-28.6684 239.06,-34.3349"/>
</g>
<!-- Node30 -->
<g id="node30" class="node"><title>Node30</title>
<g id="a_node30"><a xlink:href="../../d0/dda/DataFormats_2Detectors_2TPC_2include_2DataFormatsTPC_2Constants_8h.html" target="_top" xlink:title="DataFormatsTPC/Constants.h">
<polygon fill="none" stroke="black" points="425,-198.5 425,-217.5 575,-217.5 575,-198.5 425,-198.5"/>
<text text-anchor="middle" x="500" y="-205.5" font-family="Helvetica,sans-Serif" font-size="10.00">DataFormatsTPC/Constants.h</text>
</a>
</g>
</g>
<!-- Node29&#45;&gt;Node30 -->
<g id="edge34" class="edge"><title>Node29&#45;&gt;Node30</title>
<path fill="none" stroke="midnightblue" d="M500,-260.403C500,-251.938 500,-238.728 500,-227.82"/>
<polygon fill="midnightblue" stroke="midnightblue" points="503.5,-227.581 500,-217.581 496.5,-227.581 503.5,-227.581"/>
</g>
<!-- Node31 -->
<g id="node31" class="node"><title>Node31</title>
<g id="a_node31"><a xlink:href="../../d1/d73/Defs_8h.html" target="_top" xlink:title="Common definitions for 2D coordinates. ">
<polygon fill="none" stroke="black" points="281,-198.5 281,-217.5 407,-217.5 407,-198.5 281,-198.5"/>
<text text-anchor="middle" x="344" y="-205.5" font-family="Helvetica,sans-Serif" font-size="10.00">DataFormatsTPC/Defs.h</text>
</a>
</g>
</g>
<!-- Node29&#45;&gt;Node31 -->
<g id="edge35" class="edge"><title>Node29&#45;&gt;Node31</title>
<path fill="none" stroke="midnightblue" d="M477.649,-260.403C451.005,-250.156 406.286,-232.956 375.986,-221.302"/>
<polygon fill="midnightblue" stroke="midnightblue" points="376.899,-217.904 366.31,-217.581 374.387,-224.437 376.899,-217.904"/>
</g>
<!-- Node31&#45;&gt;Node18 -->
<g id="edge38" class="edge"><title>Node31&#45;&gt;Node18</title>
<path fill="none" stroke="midnightblue" d="M383.556,-198.465C394.083,-196.274 405.459,-193.979 416,-192 485.659,-178.923 565.823,-165.754 620.393,-157.071"/>
<polygon fill="midnightblue" stroke="midnightblue" points="620.948,-160.527 630.276,-155.503 619.851,-153.613 620.948,-160.527"/>
</g>
<!-- Node31&#45;&gt;Node26 -->
<g id="edge37" class="edge"><title>Node31&#45;&gt;Node26</title>
<path fill="none" stroke="midnightblue" d="M331.483,-198.421C301.427,-177.821 224.898,-125.369 187.386,-99.6575"/>
<polygon fill="midnightblue" stroke="midnightblue" points="188.968,-96.4992 178.741,-93.7326 185.011,-102.273 188.968,-96.4992"/>
</g>
<!-- Node32 -->
<g id="node32" class="node"><title>Node32</title>
<polygon fill="none" stroke="#bfbfbf" points="322,-136.5 322,-155.5 366,-155.5 366,-136.5 322,-136.5"/>
<text text-anchor="middle" x="344" y="-143.5" font-family="Helvetica,sans-Serif" font-size="10.00">cmath</text>
</g>
<!-- Node31&#45;&gt;Node32 -->
<g id="edge36" class="edge"><title>Node31&#45;&gt;Node32</title>
<path fill="none" stroke="midnightblue" d="M344,-198.403C344,-189.938 344,-176.728 344,-165.82"/>
<polygon fill="midnightblue" stroke="midnightblue" points="347.5,-165.581 344,-155.581 340.5,-165.581 347.5,-165.581"/>
</g>
</g>
</svg>
        <g id="navigator" transform="translate(0 0)" fill="#404254">
                <rect fill="#f2f5e9" fill-opacity="0.5" stroke="#606060" stroke-width=".5" x="0" y="0" width="60" height="60"/>
                <use id="zoomplus" xlink:href="#zoomPlus" x="17" y="9" onmousedown="handleZoom(evt,'in')"/>
                <use id="zoomminus" xlink:href="#zoomMin" x="42" y="9" onmousedown="handleZoom(evt,'out')"/>
                <use id="reset" xlink:href="#resetDef" x="30" y="36" onmousedown="handleReset()"/>
                <g id="arrowUp" xlink:href="#dirArrow" transform="translate(30 24)" onmousedown="handlePan(0,-1)">
                  <use xlink:href="#rim" fill="#404040">
                        <set attributeName="fill" to="#808080" begin="arrowUp.mouseover" end="arrowUp.mouseout"/>
                  </use>
                  <path fill="none" stroke="white" stroke-width="1.5" d="M0,-3.0v7 M-2.5,-0.5L0,-3.0L2.5,-0.5"/>
                </g>
                <g id="arrowRight" xlink:href="#dirArrow" transform="rotate(90) translate(36 -43)" onmousedown="handlePan(1,0)">
                  <use xlink:href="#rim" fill="#404040">
                        <set attributeName="fill" to="#808080" begin="arrowRight.mouseover" end="arrowRight.mouseout"/>
                  </use>
                  <path fill="none" stroke="white" stroke-width="1.5" d="M0,-3.0v7 M-2.5,-0.5L0,-3.0L2.5,-0.5"/>
                </g>
                <g id="arrowDown" xlink:href="#dirArrow" transform="rotate(180) translate(-30 -48)" onmousedown="handlePan(0,1)">
                  <use xlink:href="#rim" fill="#404040">
                        <set attributeName="fill" to="#808080" begin="arrowDown.mouseover" end="arrowDown.mouseout"/>
                  </use>
                  <path fill="none" stroke="white" stroke-width="1.5" d="M0,-3.0v7 M-2.5,-0.5L0,-3.0L2.5,-0.5"/>
                </g>
                <g id="arrowLeft" xlink:href="#dirArrow" transform="rotate(270) translate(-36 17)" onmousedown="handlePan(-1,0)">
                  <use xlink:href="#rim" fill="#404040">
                        <set attributeName="fill" to="#808080" begin="arrowLeft.mouseover" end="arrowLeft.mouseout"/>
                  </use>
                  <path fill="none" stroke="white" stroke-width="1.5" d="M0,-3.0v7 M-2.5,-0.5L0,-3.0L2.5,-0.5"/>
                </g>
        </g>
        <svg viewBox="0 0 15 15" width="100%" height="30px" preserveAspectRatio="xMaxYMin meet">
         <g id="arrow_out" transform="scale(0.3 0.3)">
          <a xlink:href="TPC_2simulation_2include_2TPCSimulation_2Detector_8h__incl_org.svg" target="_base">
           <rect id="button" ry="5" rx="5" y="6" x="6" height="38" width="38"
                fill="#f2f5e9" fill-opacity="0.5" stroke="#606060" stroke-width="1.0"/>
           <path id="arrow"
             d="M 11.500037,31.436501 C 11.940474,20.09759 22.043105,11.32322 32.158766,21.979434 L 37.068811,17.246167 C 37.068811,17.246167 37.088388,32 37.088388,32 L 22.160133,31.978069 C 22.160133,31.978069 26.997745,27.140456 26.997745,27.140456 C 18.528582,18.264221 13.291696,25.230495 11.500037,31.436501 z"
             style="fill:#404040;"/>
          </a>
         </g>
        </svg>
</svg>
