<?xml version="1.0" encoding="UTF-8" standalone="no"?>
<!DOCTYPE svg PUBLIC "-//W3C//DTD SVG 1.1//EN"
 "http://www.w3.org/Graphics/SVG/1.1/DTD/svg11.dtd">
<!-- Generated by graphviz version 2.36.0 (20140111.2315)
 -->
<!-- Title: o2::framework::OutputRef Pages: 1 -->
<svg width="138pt" height="172pt"
 viewBox="0.00 0.00 138.00 172.00" xmlns="http://www.w3.org/2000/svg" xmlns:xlink="http://www.w3.org/1999/xlink">
<g id="graph0" class="graph" transform="scale(1 1) rotate(0) translate(4 168)">
<title>o2::framework::OutputRef</title>
<!-- Node1 -->
<g id="node1" class="node"><title>Node1</title>
<polygon fill="#bfbfbf" stroke="black" points="0,-0.5 0,-57.5 130,-57.5 130,-0.5 0,-0.5"/>
<text text-anchor="middle" x="65" y="-45.5" font-family="Helvetica,sans-Serif" font-size="10.00">o2::framework::OutputRef</text>
<polyline fill="none" stroke="black" points="0,-38.5 130,-38.5 "/>
<text text-anchor="middle" x="65" y="-26.5" font-family="Helvetica,sans-Serif" font-size="10.00"> </text>
<polyline fill="none" stroke="black" points="0,-19.5 130,-19.5 "/>
<text text-anchor="middle" x="65" y="-7.5" font-family="Helvetica,sans-Serif" font-size="10.00"> </text>
</g>
<!-- Node2 -->
<g id="node2" class="node"><title>Node2</title>
<polygon fill="none" stroke="#bfbfbf" points="4.5,-106.5 4.5,-163.5 55.5,-163.5 55.5,-106.5 4.5,-106.5"/>
<text text-anchor="middle" x="30" y="-151.5" font-family="Helvetica,sans-Serif" font-size="10.00">uint64_t</text>
<polyline fill="none" stroke="#bfbfbf" points="4.5,-144.5 55.5,-144.5 "/>
<text text-anchor="middle" x="30" y="-132.5" font-family="Helvetica,sans-Serif" font-size="10.00"> </text>
<polyline fill="none" stroke="#bfbfbf" points="4.5,-125.5 55.5,-125.5 "/>
<text text-anchor="middle" x="30" y="-113.5" font-family="Helvetica,sans-Serif" font-size="10.00"> </text>
</g>
<!-- Node2&#45;&gt;Node1 -->
<g id="edge1" class="edge"><title>Node2&#45;&gt;Node1</title>
<path fill="none" stroke="#404040" d="M27.0592,-106.261C26.9064,-96.4742 27.7664,-85.5377 31,-76 31.9147,-73.3019 33.0514,-70.6309 34.3488,-68.0148"/>
<polygon fill="none" stroke="#404040" points="34.3618,-67.9926 33.9453,-60.7935 40.4304,-57.6402 40.8469,-64.8393 34.3618,-67.9926"/>
<text text-anchor="middle" x="55" y="-79.5" font-family="Helvetica,sans-Serif" font-size="10.00"> +subSpec</text>
</g>
<!-- Node3 -->
<g id="node3" class="node"><title>Node3</title>
<polygon fill="none" stroke="#bfbfbf" points="86.5,-106.5 86.5,-163.5 115.5,-163.5 115.5,-106.5 86.5,-106.5"/>
<text text-anchor="middle" x="101" y="-151.5" font-family="Helvetica,sans-Serif" font-size="10.00">int</text>
<polyline fill="none" stroke="#bfbfbf" points="86.5,-144.5 115.5,-144.5 "/>
<text text-anchor="middle" x="101" y="-132.5" font-family="Helvetica,sans-Serif" font-size="10.00"> </text>
<polyline fill="none" stroke="#bfbfbf" points="86.5,-125.5 115.5,-125.5 "/>
<text text-anchor="middle" x="101" y="-113.5" font-family="Helvetica,sans-Serif" font-size="10.00"> </text>
</g>
<!-- Node3&#45;&gt;Node1 -->
<g id="edge2" class="edge"><title>Node3&#45;&gt;Node1</title>
<path fill="none" stroke="#404040" d="M91.4472,-106.403C87.5008,-95.0023 82.8538,-81.5777 78.565,-69.1879"/>
<polygon fill="none" stroke="#404040" points="78.5229,-69.0658 72.7802,-64.7044 74.5975,-57.726 80.3401,-62.0875 78.5229,-69.0658"/>
<text text-anchor="middle" x="100" y="-79.5" font-family="Helvetica,sans-Serif" font-size="10.00"> +label</text>
</g>
</g>
</svg>
