<?xml version="1.0" encoding="UTF-8" standalone="no"?>
<!DOCTYPE svg PUBLIC "-//W3C//DTD SVG 1.1//EN"
 "http://www.w3.org/Graphics/SVG/1.1/DTD/svg11.dtd">
<!-- Generated by graphviz version 2.36.0 (20140111.2315)
 -->
<!-- Title: O2MessageMonitor Pages: 1 -->
<svg width="130pt" height="354pt"
 viewBox="0.00 0.00 130.00 354.00" xmlns="http://www.w3.org/2000/svg" xmlns:xlink="http://www.w3.org/1999/xlink">
<g id="graph0" class="graph" transform="scale(1 1) rotate(0) translate(4 350)">
<title>O2MessageMonitor</title>
<!-- Node1 -->
<g id="node1" class="node"><title>Node1</title>
<polygon fill="#bfbfbf" stroke="black" points="0,-1 0,-113 122,-113 122,-1 0,-1"/>
<text text-anchor="middle" x="61" y="-101" font-family="Helvetica,sans-Serif" font-size="10.00">O2MessageMonitor</text>
<polyline fill="none" stroke="black" points="0,-94 122,-94 "/>
<text text-anchor="middle" x="61" y="-82" font-family="Helvetica,sans-Serif" font-size="10.00"> </text>
<polyline fill="none" stroke="black" points="0,-75 122,-75 "/>
<text text-anchor="start" x="8" y="-63" font-family="Helvetica,sans-Serif" font-size="10.00">+ O2MessageMonitor()</text>
<text text-anchor="start" x="8" y="-52" font-family="Helvetica,sans-Serif" font-size="10.00">+ ~O2MessageMonitor()</text>
<text text-anchor="start" x="8" y="-41" font-family="Helvetica,sans-Serif" font-size="10.00"># Run()</text>
<text text-anchor="start" x="8" y="-30" font-family="Helvetica,sans-Serif" font-size="10.00"># InitTask()</text>
<text text-anchor="start" x="8" y="-19" font-family="Helvetica,sans-Serif" font-size="10.00"># HandleData()</text>
<text text-anchor="start" x="8" y="-8" font-family="Helvetica,sans-Serif" font-size="10.00"># HandleO2frame()</text>
</g>
<!-- Node2 -->
<g id="node2" class="node"><title>Node2</title>
<g id="a_node2"><a xlink:href="../../da/df6/classo2_1_1Base_1_1O2Device.html" target="_top" xlink:title="{o2::Base::O2Device\n|+ monitoring\l|+ ~O2Device()\l+ GetMonitoring()\l+ Init()\l+ AddMessage()\l+ ForEach()\l}">
<polygon fill="none" stroke="black" points="8.5,-150.5 8.5,-251.5 113.5,-251.5 113.5,-150.5 8.5,-150.5"/>
<text text-anchor="middle" x="61" y="-239.5" font-family="Helvetica,sans-Serif" font-size="10.00">o2::Base::O2Device</text>
<polyline fill="none" stroke="black" points="8.5,-232.5 113.5,-232.5 "/>
<text text-anchor="start" x="16.5" y="-220.5" font-family="Helvetica,sans-Serif" font-size="10.00">+ monitoring</text>
<polyline fill="none" stroke="black" points="8.5,-213.5 113.5,-213.5 "/>
<text text-anchor="start" x="16.5" y="-201.5" font-family="Helvetica,sans-Serif" font-size="10.00">+ ~O2Device()</text>
<text text-anchor="start" x="16.5" y="-190.5" font-family="Helvetica,sans-Serif" font-size="10.00">+ GetMonitoring()</text>
<text text-anchor="start" x="16.5" y="-179.5" font-family="Helvetica,sans-Serif" font-size="10.00">+ Init()</text>
<text text-anchor="start" x="16.5" y="-168.5" font-family="Helvetica,sans-Serif" font-size="10.00">+ AddMessage()</text>
<text text-anchor="start" x="16.5" y="-157.5" font-family="Helvetica,sans-Serif" font-size="10.00">+ ForEach()</text>
</a>
</g>
</g>
<!-- Node2&#45;&gt;Node1 -->
<g id="edge1" class="edge"><title>Node2&#45;&gt;Node1</title>
<path fill="none" stroke="midnightblue" d="M61,-140.325C61,-131.337 61,-122.101 61,-113.212"/>
<polygon fill="none" stroke="midnightblue" points="57.5001,-140.335 61,-150.335 64.5001,-140.335 57.5001,-140.335"/>
</g>
<!-- Node3 -->
<g id="node3" class="node"><title>Node3</title>
<g id="a_node3"><a xlink:href="../../db/dfe/classFairMQDevice.html" target="_top" xlink:title="{FairMQDevice\n||}">
<polygon fill="none" stroke="black" points="21,-288.5 21,-345.5 101,-345.5 101,-288.5 21,-288.5"/>
<text text-anchor="middle" x="61" y="-333.5" font-family="Helvetica,sans-Serif" font-size="10.00">FairMQDevice</text>
<polyline fill="none" stroke="black" points="21,-326.5 101,-326.5 "/>
<text text-anchor="middle" x="61" y="-314.5" font-family="Helvetica,sans-Serif" font-size="10.00"> </text>
<polyline fill="none" stroke="black" points="21,-307.5 101,-307.5 "/>
<text text-anchor="middle" x="61" y="-295.5" font-family="Helvetica,sans-Serif" font-size="10.00"> </text>
</a>
</g>
</g>
<!-- Node3&#45;&gt;Node2 -->
<g id="edge2" class="edge"><title>Node3&#45;&gt;Node2</title>
<path fill="none" stroke="midnightblue" d="M61,-278.354C61,-269.796 61,-260.578 61,-251.608"/>
<polygon fill="none" stroke="midnightblue" points="57.5001,-278.404 61,-288.404 64.5001,-278.404 57.5001,-278.404"/>
</g>
</g>
</svg>
