<?xml version="1.0" encoding="UTF-8" standalone="no"?>
<!DOCTYPE svg PUBLIC "-//W3C//DTD SVG 1.1//EN"
 "http://www.w3.org/Graphics/SVG/1.1/DTD/svg11.dtd">
<!-- Generated by graphviz version 2.36.0 (20140111.2315)
 -->
<!-- Title: /home/travis/build/AliceO2Group/AliceO2/DataFormats/Detectors/ITSMFT/common/src/TopologyDictionary.cxx Pages: 1 -->
<svg width="418pt" height="186pt"
 viewBox="0.00 0.00 418.00 186.00" xmlns="http://www.w3.org/2000/svg" xmlns:xlink="http://www.w3.org/1999/xlink">
<g id="graph0" class="graph" transform="scale(1 1) rotate(0) translate(4 182)">
<title>/home/travis/build/AliceO2Group/AliceO2/DataFormats/Detectors/ITSMFT/common/src/TopologyDictionary.cxx</title>
<!-- Node1 -->
<g id="node1" class="node"><title>Node1</title>
<polygon fill="#bfbfbf" stroke="black" points="146,-125 146,-177 364,-177 364,-125 146,-125"/>
<text text-anchor="start" x="154" y="-165" font-family="Helvetica,sans-Serif" font-size="10.00">/home/travis/build</text>
<text text-anchor="start" x="154" y="-154" font-family="Helvetica,sans-Serif" font-size="10.00">/AliceO2Group/AliceO2</text>
<text text-anchor="start" x="154" y="-143" font-family="Helvetica,sans-Serif" font-size="10.00">/DataFormats/Detectors</text>
<text text-anchor="middle" x="255" y="-132" font-family="Helvetica,sans-Serif" font-size="10.00">/ITSMFT/common/src/TopologyDictionary.cxx</text>
</g>
<!-- Node2 -->
<g id="node2" class="node"><title>Node2</title>
<g id="a_node2"><a xlink:href="../../d1/d08/TopologyDictionary_8h.html" target="_top" xlink:title="Definition of the ClusterTopology class. ">
<polygon fill="none" stroke="black" points="119,-57 119,-87 271,-87 271,-57 119,-57"/>
<text text-anchor="start" x="127" y="-75" font-family="Helvetica,sans-Serif" font-size="10.00">DataFormatsITSMFT/Topology</text>
<text text-anchor="middle" x="195" y="-64" font-family="Helvetica,sans-Serif" font-size="10.00">Dictionary.h</text>
</a>
</g>
</g>
<!-- Node1&#45;&gt;Node2 -->
<g id="edge1" class="edge"><title>Node1&#45;&gt;Node2</title>
<path fill="none" stroke="midnightblue" d="M235.354,-124.787C227.922,-115.25 219.525,-104.474 212.322,-95.2303"/>
<polygon fill="midnightblue" stroke="midnightblue" points="215.013,-92.9888 206.105,-87.252 209.491,-97.2914 215.013,-92.9888"/>
</g>
<!-- Node9 -->
<g id="node9" class="node"><title>Node9</title>
<polygon fill="none" stroke="#bfbfbf" points="289,-62.5 289,-81.5 343,-81.5 343,-62.5 289,-62.5"/>
<text text-anchor="middle" x="316" y="-69.5" font-family="Helvetica,sans-Serif" font-size="10.00">iostream</text>
</g>
<!-- Node1&#45;&gt;Node9 -->
<g id="edge8" class="edge"><title>Node1&#45;&gt;Node9</title>
<path fill="none" stroke="midnightblue" d="M274.974,-124.787C284.111,-113.253 294.685,-99.9061 302.809,-89.6508"/>
<polygon fill="midnightblue" stroke="midnightblue" points="305.754,-91.5695 309.221,-81.5577 300.267,-87.2227 305.754,-91.5695"/>
</g>
<!-- Node3 -->
<g id="node3" class="node"><title>Node3</title>
<polygon fill="none" stroke="#bfbfbf" points="0,-0.5 0,-19.5 56,-19.5 56,-0.5 0,-0.5"/>
<text text-anchor="middle" x="28" y="-7.5" font-family="Helvetica,sans-Serif" font-size="10.00">Rtypes.h</text>
</g>
<!-- Node2&#45;&gt;Node3 -->
<g id="edge2" class="edge"><title>Node2&#45;&gt;Node3</title>
<path fill="none" stroke="midnightblue" d="M155.846,-56.9327C127.168,-46.6292 88.6586,-32.7935 61.4221,-23.0079"/>
<polygon fill="midnightblue" stroke="midnightblue" points="62.5312,-19.6874 51.9367,-19.6 60.1643,-26.2752 62.5312,-19.6874"/>
</g>
<!-- Node4 -->
<g id="node4" class="node"><title>Node4</title>
<polygon fill="none" stroke="#bfbfbf" points="74,-0.5 74,-19.5 124,-19.5 124,-0.5 74,-0.5"/>
<text text-anchor="middle" x="99" y="-7.5" font-family="Helvetica,sans-Serif" font-size="10.00">fstream</text>
</g>
<!-- Node2&#45;&gt;Node4 -->
<g id="edge3" class="edge"><title>Node2&#45;&gt;Node4</title>
<path fill="none" stroke="midnightblue" d="M172.249,-56.7808C156.913,-47.1958 136.77,-34.6062 121.489,-25.0555"/>
<polygon fill="midnightblue" stroke="midnightblue" points="123.024,-21.8877 112.689,-19.5557 119.314,-27.8237 123.024,-21.8877"/>
</g>
<!-- Node5 -->
<g id="node5" class="node"><title>Node5</title>
<polygon fill="none" stroke="#bfbfbf" points="142.5,-0.5 142.5,-19.5 187.5,-19.5 187.5,-0.5 142.5,-0.5"/>
<text text-anchor="middle" x="165" y="-7.5" font-family="Helvetica,sans-Serif" font-size="10.00">iosfwd</text>
</g>
<!-- Node2&#45;&gt;Node5 -->
<g id="edge4" class="edge"><title>Node2&#45;&gt;Node5</title>
<path fill="none" stroke="midnightblue" d="M187.89,-56.7808C183.711,-48.4217 178.389,-37.7773 173.928,-28.8565"/>
<polygon fill="midnightblue" stroke="midnightblue" points="176.968,-27.1095 169.365,-19.7305 170.707,-30.2401 176.968,-27.1095"/>
</g>
<!-- Node6 -->
<g id="node6" class="node"><title>Node6</title>
<polygon fill="none" stroke="#bfbfbf" points="205.5,-0.5 205.5,-19.5 246.5,-19.5 246.5,-0.5 205.5,-0.5"/>
<text text-anchor="middle" x="226" y="-7.5" font-family="Helvetica,sans-Serif" font-size="10.00">string</text>
</g>
<!-- Node2&#45;&gt;Node6 -->
<g id="edge5" class="edge"><title>Node2&#45;&gt;Node6</title>
<path fill="none" stroke="midnightblue" d="M202.347,-56.7808C206.665,-48.4217 212.165,-37.7773 216.774,-28.8565"/>
<polygon fill="midnightblue" stroke="midnightblue" points="220.008,-30.2214 221.489,-19.7305 213.789,-27.0082 220.008,-30.2214"/>
</g>
<!-- Node7 -->
<g id="node7" class="node"><title>Node7</title>
<polygon fill="none" stroke="#bfbfbf" points="264.5,-0.5 264.5,-19.5 347.5,-19.5 347.5,-0.5 264.5,-0.5"/>
<text text-anchor="middle" x="306" y="-7.5" font-family="Helvetica,sans-Serif" font-size="10.00">unordered_map</text>
</g>
<!-- Node2&#45;&gt;Node7 -->
<g id="edge6" class="edge"><title>Node2&#45;&gt;Node7</title>
<path fill="none" stroke="midnightblue" d="M221.025,-56.9327C239.083,-47.1715 263.006,-34.2401 280.867,-24.5856"/>
<polygon fill="midnightblue" stroke="midnightblue" points="282.957,-27.4342 290.09,-19.6 279.629,-21.2763 282.957,-27.4342"/>
</g>
<!-- Node8 -->
<g id="node8" class="node"><title>Node8</title>
<polygon fill="none" stroke="#bfbfbf" points="366,-0.5 366,-19.5 410,-19.5 410,-0.5 366,-0.5"/>
<text text-anchor="middle" x="388" y="-7.5" font-family="Helvetica,sans-Serif" font-size="10.00">vector</text>
</g>
<!-- Node2&#45;&gt;Node8 -->
<g id="edge7" class="edge"><title>Node2&#45;&gt;Node8</title>
<path fill="none" stroke="midnightblue" d="M240.25,-56.9327C275.94,-45.8373 324.806,-30.6458 356.39,-20.8268"/>
<polygon fill="midnightblue" stroke="midnightblue" points="357.489,-24.1506 365.999,-17.8396 355.411,-17.4661 357.489,-24.1506"/>
</g>
</g>
</svg>
