<?xml version="1.0" encoding="UTF-8" standalone="no"?>
<!DOCTYPE svg PUBLIC "-//W3C//DTD SVG 1.1//EN"
 "http://www.w3.org/Graphics/SVG/1.1/DTD/svg11.dtd">
<!-- Generated by graphviz version 2.36.0 (20140111.2315)
 -->
<!-- Title: o2::MCInteractionRecord Pages: 1 -->
<svg width="134pt" height="228pt"
 viewBox="0.00 0.00 134.00 228.00" xmlns="http://www.w3.org/2000/svg" xmlns:xlink="http://www.w3.org/1999/xlink">
<g id="graph0" class="graph" transform="scale(1 1) rotate(0) translate(4 224)">
<title>o2::MCInteractionRecord</title>
<!-- Node1 -->
<g id="node1" class="node"><title>Node1</title>
<polygon fill="#bfbfbf" stroke="black" points="0,-1 0,-91 126,-91 126,-1 0,-1"/>
<text text-anchor="middle" x="63" y="-79" font-family="Helvetica,sans-Serif" font-size="10.00">o2::MCInteractionRecord</text>
<polyline fill="none" stroke="black" points="0,-72 126,-72 "/>
<text text-anchor="middle" x="63" y="-60" font-family="Helvetica,sans-Serif" font-size="10.00"> </text>
<polyline fill="none" stroke="black" points="0,-53 126,-53 "/>
<text text-anchor="start" x="8" y="-41" font-family="Helvetica,sans-Serif" font-size="10.00">+ MCInteractionRecord()</text>
<text text-anchor="start" x="8" y="-30" font-family="Helvetica,sans-Serif" font-size="10.00">+ MCInteractionRecord()</text>
<text text-anchor="start" x="8" y="-19" font-family="Helvetica,sans-Serif" font-size="10.00">+ print()</text>
<text text-anchor="start" x="8" y="-8" font-family="Helvetica,sans-Serif" font-size="10.00">+ ClassDefNV()</text>
</g>
<!-- Node2 -->
<g id="node2" class="node"><title>Node2</title>
<g id="a_node2"><a xlink:href="../../df/de6/classdouble.html" target="_top" xlink:title="{double\n||}">
<polygon fill="none" stroke="black" points="7.5,-162.5 7.5,-219.5 52.5,-219.5 52.5,-162.5 7.5,-162.5"/>
<text text-anchor="middle" x="30" y="-207.5" font-family="Helvetica,sans-Serif" font-size="10.00">double</text>
<polyline fill="none" stroke="black" points="7.5,-200.5 52.5,-200.5 "/>
<text text-anchor="middle" x="30" y="-188.5" font-family="Helvetica,sans-Serif" font-size="10.00"> </text>
<polyline fill="none" stroke="black" points="7.5,-181.5 52.5,-181.5 "/>
<text text-anchor="middle" x="30" y="-169.5" font-family="Helvetica,sans-Serif" font-size="10.00"> </text>
</a>
</g>
</g>
<!-- Node2&#45;&gt;Node1 -->
<g id="edge1" class="edge"><title>Node2&#45;&gt;Node1</title>
<path fill="none" stroke="#404040" d="M27.2771,-162.21C26.5113,-146.64 26.8188,-126.995 31,-110 31.6068,-107.534 32.3247,-105.054 33.1318,-102.58"/>
<polygon fill="none" stroke="#404040" points="33.2267,-102.329 31.6111,-95.3016 37.477,-91.1073 39.0925,-98.1352 33.2267,-102.329"/>
<text text-anchor="middle" x="52.5" y="-124.5" font-family="Helvetica,sans-Serif" font-size="10.00"> +timeNS</text>
</g>
<!-- Node3 -->
<g id="node3" class="node"><title>Node3</title>
<polygon fill="none" stroke="#bfbfbf" points="81.5,-162.5 81.5,-219.5 110.5,-219.5 110.5,-162.5 81.5,-162.5"/>
<text text-anchor="middle" x="96" y="-207.5" font-family="Helvetica,sans-Serif" font-size="10.00">int</text>
<polyline fill="none" stroke="#bfbfbf" points="81.5,-200.5 110.5,-200.5 "/>
<text text-anchor="middle" x="96" y="-188.5" font-family="Helvetica,sans-Serif" font-size="10.00"> </text>
<polyline fill="none" stroke="#bfbfbf" points="81.5,-181.5 110.5,-181.5 "/>
<text text-anchor="middle" x="96" y="-169.5" font-family="Helvetica,sans-Serif" font-size="10.00"> </text>
</g>
<!-- Node3&#45;&gt;Node1 -->
<g id="edge2" class="edge"><title>Node3&#45;&gt;Node1</title>
<path fill="none" stroke="#404040" d="M89.6373,-162.428C85.7388,-145.535 80.6076,-123.3 75.8904,-102.858"/>
<polygon fill="none" stroke="#404040" points="75.8716,-102.776 70.6248,-97.8296 73.1732,-91.0837 78.4199,-96.0306 75.8716,-102.776"/>
<text text-anchor="middle" x="101.5" y="-135.5" font-family="Helvetica,sans-Serif" font-size="10.00"> +bc</text>
<text text-anchor="middle" x="101.5" y="-124.5" font-family="Helvetica,sans-Serif" font-size="10.00">+orbit</text>
<text text-anchor="middle" x="101.5" y="-113.5" font-family="Helvetica,sans-Serif" font-size="10.00">+period</text>
</g>
</g>
</svg>
