<?xml version="1.0" encoding="UTF-8" standalone="no"?>
<!DOCTYPE svg PUBLIC "-//W3C//DTD SVG 1.1//EN"
 "http://www.w3.org/Graphics/SVG/1.1/DTD/svg11.dtd">
<!-- Generated by graphviz version 2.36.0 (20140111.2315)
 -->
<!-- Title: /home/travis/build/AliceO2Group/AliceO2/Detectors/ITSMFT/ITS/reconstruction/include/ITSReconstruction/CA/IOUtils.h Pages: 1 -->
<svg width="1467pt" height="536pt"
 viewBox="0.00 0.00 1467.00 536.00" xmlns="http://www.w3.org/2000/svg" xmlns:xlink="http://www.w3.org/1999/xlink">
<g id="graph0" class="graph" transform="scale(1 1) rotate(0) translate(4 532)">
<title>/home/travis/build/AliceO2Group/AliceO2/Detectors/ITSMFT/ITS/reconstruction/include/ITSReconstruction/CA/IOUtils.h</title>
<!-- Node1 -->
<g id="node1" class="node"><title>Node1</title>
<polygon fill="#bfbfbf" stroke="black" points="152.5,-464.5 152.5,-527.5 313.5,-527.5 313.5,-464.5 152.5,-464.5"/>
<text text-anchor="start" x="160.5" y="-515.5" font-family="Helvetica,sans-Serif" font-size="10.00">/home/travis/build</text>
<text text-anchor="start" x="160.5" y="-504.5" font-family="Helvetica,sans-Serif" font-size="10.00">/AliceO2Group/AliceO2</text>
<text text-anchor="start" x="160.5" y="-493.5" font-family="Helvetica,sans-Serif" font-size="10.00">/Detectors/ITSMFT/ITS</text>
<text text-anchor="start" x="160.5" y="-482.5" font-family="Helvetica,sans-Serif" font-size="10.00">/reconstruction/include</text>
<text text-anchor="middle" x="233" y="-471.5" font-family="Helvetica,sans-Serif" font-size="10.00">/ITSReconstruction/CA/IOUtils.h</text>
</g>
<!-- Node2 -->
<g id="node2" class="node"><title>Node2</title>
<polygon fill="none" stroke="#bfbfbf" points="-0.5,-402.5 -0.5,-421.5 44.5,-421.5 44.5,-402.5 -0.5,-402.5"/>
<text text-anchor="middle" x="22" y="-409.5" font-family="Helvetica,sans-Serif" font-size="10.00">iosfwd</text>
</g>
<!-- Node1&#45;&gt;Node2 -->
<g id="edge1" class="edge"><title>Node1&#45;&gt;Node2</title>
<path fill="none" stroke="midnightblue" d="M152.164,-466.753C120.924,-455.358 85.0469,-441.681 53,-428 51.4122,-427.322 49.7883,-426.606 48.1564,-425.87"/>
<polygon fill="midnightblue" stroke="midnightblue" points="49.4626,-422.617 38.9222,-421.544 46.4933,-428.956 49.4626,-422.617"/>
</g>
<!-- Node3 -->
<g id="node3" class="node"><title>Node3</title>
<polygon fill="none" stroke="#bfbfbf" points="62.5,-402.5 62.5,-421.5 103.5,-421.5 103.5,-402.5 62.5,-402.5"/>
<text text-anchor="middle" x="83" y="-409.5" font-family="Helvetica,sans-Serif" font-size="10.00">string</text>
</g>
<!-- Node1&#45;&gt;Node3 -->
<g id="edge2" class="edge"><title>Node1&#45;&gt;Node3</title>
<path fill="none" stroke="midnightblue" d="M177.146,-464.466C153.203,-451.378 126.472,-436.764 107.628,-426.463"/>
<polygon fill="midnightblue" stroke="midnightblue" points="109.258,-423.365 98.8044,-421.64 105.9,-429.508 109.258,-423.365"/>
</g>
<!-- Node4 -->
<g id="node4" class="node"><title>Node4</title>
<polygon fill="none" stroke="#bfbfbf" points="121.5,-402.5 121.5,-421.5 204.5,-421.5 204.5,-402.5 121.5,-402.5"/>
<text text-anchor="middle" x="163" y="-409.5" font-family="Helvetica,sans-Serif" font-size="10.00">unordered_map</text>
</g>
<!-- Node1&#45;&gt;Node4 -->
<g id="edge3" class="edge"><title>Node1&#45;&gt;Node4</title>
<path fill="none" stroke="midnightblue" d="M206.935,-464.466C196.833,-452.633 185.667,-439.553 177.12,-429.541"/>
<polygon fill="midnightblue" stroke="midnightblue" points="179.53,-426.973 170.375,-421.64 174.206,-431.518 179.53,-426.973"/>
</g>
<!-- Node5 -->
<g id="node5" class="node"><title>Node5</title>
<polygon fill="none" stroke="#bfbfbf" points="392,-130.5 392,-149.5 436,-149.5 436,-130.5 392,-130.5"/>
<text text-anchor="middle" x="414" y="-137.5" font-family="Helvetica,sans-Serif" font-size="10.00">vector</text>
</g>
<!-- Node1&#45;&gt;Node5 -->
<g id="edge4" class="edge"><title>Node1&#45;&gt;Node5</title>
<path fill="none" stroke="midnightblue" d="M233,-464.261C233,-433.941 233,-386.276 233,-345 233,-345 233,-345 233,-275 233,-232.387 248.582,-219.658 281,-192 310.155,-167.127 352.749,-153.679 381.828,-146.938"/>
<polygon fill="midnightblue" stroke="midnightblue" points="382.854,-150.297 391.88,-144.749 381.365,-143.457 382.854,-150.297"/>
</g>
<!-- Node6 -->
<g id="node6" class="node"><title>Node6</title>
<g id="a_node6"><a xlink:href="../../d6/d8d/Event_8h.html" target="_top" xlink:title="ITSReconstruction/CA\l/Event.h">
<polygon fill="none" stroke="black" points="759,-397 759,-427 875,-427 875,-397 759,-397"/>
<text text-anchor="start" x="767" y="-415" font-family="Helvetica,sans-Serif" font-size="10.00">ITSReconstruction/CA</text>
<text text-anchor="middle" x="817" y="-404" font-family="Helvetica,sans-Serif" font-size="10.00">/Event.h</text>
</a>
</g>
</g>
<!-- Node1&#45;&gt;Node6 -->
<g id="edge5" class="edge"><title>Node1&#45;&gt;Node6</title>
<path fill="none" stroke="midnightblue" d="M313.59,-483.684C429.232,-467.447 640.223,-437.821 748.657,-422.596"/>
<polygon fill="midnightblue" stroke="midnightblue" points="749.408,-426.025 758.824,-421.169 748.435,-419.093 749.408,-426.025"/>
</g>
<!-- Node25 -->
<g id="node25" class="node"><title>Node25</title>
<g id="a_node25"><a xlink:href="../../d3/dc8/Label_8h.html" target="_top" xlink:title="ITSReconstruction/CA\l/Label.h">
<polygon fill="none" stroke="black" points="1343,-397 1343,-427 1459,-427 1459,-397 1343,-397"/>
<text text-anchor="start" x="1351" y="-415" font-family="Helvetica,sans-Serif" font-size="10.00">ITSReconstruction/CA</text>
<text text-anchor="middle" x="1401" y="-404" font-family="Helvetica,sans-Serif" font-size="10.00">/Label.h</text>
</a>
</g>
</g>
<!-- Node1&#45;&gt;Node25 -->
<g id="edge41" class="edge"><title>Node1&#45;&gt;Node25</title>
<path fill="none" stroke="midnightblue" d="M313.826,-494.043C495.87,-491.019 951.585,-478.581 1329,-428 1330.28,-427.828 1331.57,-427.647 1332.87,-427.456"/>
<polygon fill="midnightblue" stroke="midnightblue" points="1333.64,-430.878 1342.96,-425.841 1332.54,-423.966 1333.64,-430.878"/>
</g>
<!-- Node27 -->
<g id="node27" class="node"><title>Node27</title>
<g id="a_node27"><a xlink:href="../../db/d48/Road_8h.html" target="_top" xlink:title="ITSReconstruction/CA\l/Road.h">
<polygon fill="none" stroke="black" points="1003,-193 1003,-223 1119,-223 1119,-193 1003,-193"/>
<text text-anchor="start" x="1011" y="-211" font-family="Helvetica,sans-Serif" font-size="10.00">ITSReconstruction/CA</text>
<text text-anchor="middle" x="1061" y="-200" font-family="Helvetica,sans-Serif" font-size="10.00">/Road.h</text>
</a>
</g>
</g>
<!-- Node1&#45;&gt;Node27 -->
<g id="edge43" class="edge"><title>Node1&#45;&gt;Node27</title>
<path fill="none" stroke="midnightblue" d="M313.785,-494.578C545.669,-491.264 1202.69,-466.409 1295,-292 1329.95,-225.963 1210.29,-211.301 1129.37,-208.717"/>
<polygon fill="midnightblue" stroke="midnightblue" points="1129.31,-205.214 1119.22,-208.449 1129.12,-212.212 1129.31,-205.214"/>
</g>
<!-- Node6&#45;&gt;Node5 -->
<g id="edge7" class="edge"><title>Node6&#45;&gt;Node5</title>
<path fill="none" stroke="midnightblue" d="M758.868,-410.121C669.377,-407.574 503.616,-397.742 460,-360 400.939,-308.893 406.271,-203 411.283,-159.884"/>
<polygon fill="midnightblue" stroke="midnightblue" points="414.761,-160.279 412.573,-149.913 407.819,-159.381 414.761,-160.279"/>
</g>
<!-- Node7 -->
<g id="node7" class="node"><title>Node7</title>
<polygon fill="none" stroke="#bfbfbf" points="675,-0.5 675,-19.5 713,-19.5 713,-0.5 675,-0.5"/>
<text text-anchor="middle" x="694" y="-7.5" font-family="Helvetica,sans-Serif" font-size="10.00">array</text>
</g>
<!-- Node6&#45;&gt;Node7 -->
<g id="edge6" class="edge"><title>Node6&#45;&gt;Node7</title>
<path fill="none" stroke="midnightblue" d="M832.142,-396.753C841.978,-387.002 854.659,-373.45 864,-360 896.064,-313.835 968.234,-178.628 955,-124 946.997,-90.965 947.141,-76.4622 920,-56 889.292,-32.849 777.244,-19.0908 723.348,-13.6746"/>
<polygon fill="midnightblue" stroke="midnightblue" points="723.374,-10.1607 713.082,-12.6736 722.695,-17.1277 723.374,-10.1607"/>
</g>
<!-- Node8 -->
<g id="node8" class="node"><title>Node8</title>
<polygon fill="none" stroke="#bfbfbf" points="673,-130.5 673,-149.5 713,-149.5 713,-130.5 673,-130.5"/>
<text text-anchor="middle" x="693" y="-137.5" font-family="Helvetica,sans-Serif" font-size="10.00">utility</text>
</g>
<!-- Node6&#45;&gt;Node8 -->
<g id="edge8" class="edge"><title>Node6&#45;&gt;Node8</title>
<path fill="none" stroke="midnightblue" d="M811.807,-396.844C798.678,-361.528 762.454,-266.981 724,-192 718.113,-180.521 710.62,-168.145 704.476,-158.459"/>
<polygon fill="midnightblue" stroke="midnightblue" points="707.253,-156.308 698.89,-149.803 701.371,-160.104 707.253,-156.308"/>
</g>
<!-- Node9 -->
<g id="node9" class="node"><title>Node9</title>
<polygon fill="none" stroke="#bfbfbf" points="1174.5,-266.5 1174.5,-285.5 1223.5,-285.5 1223.5,-266.5 1174.5,-266.5"/>
<text text-anchor="middle" x="1199" y="-273.5" font-family="Helvetica,sans-Serif" font-size="10.00">cassert</text>
</g>
<!-- Node6&#45;&gt;Node9 -->
<g id="edge9" class="edge"><title>Node6&#45;&gt;Node9</title>
<path fill="none" stroke="midnightblue" d="M875.002,-405.949C951.716,-398.492 1082.1,-382.904 1124,-360 1152.57,-344.379 1175.89,-313.615 1188.58,-294.245"/>
<polygon fill="midnightblue" stroke="midnightblue" points="1191.7,-295.857 1194.08,-285.532 1185.78,-292.123 1191.7,-295.857"/>
</g>
<!-- Node10 -->
<g id="node10" class="node"><title>Node10</title>
<polygon fill="none" stroke="#bfbfbf" points="1241.5,-266.5 1241.5,-285.5 1286.5,-285.5 1286.5,-266.5 1241.5,-266.5"/>
<text text-anchor="middle" x="1264" y="-273.5" font-family="Helvetica,sans-Serif" font-size="10.00">gsl/gsl</text>
</g>
<!-- Node6&#45;&gt;Node10 -->
<g id="edge10" class="edge"><title>Node6&#45;&gt;Node10</title>
<path fill="none" stroke="midnightblue" d="M875.162,-410.995C944.655,-409.049 1063.17,-399.497 1156,-360 1193.48,-344.051 1229.42,-311.983 1248.93,-292.712"/>
<polygon fill="midnightblue" stroke="midnightblue" points="1251.47,-295.121 1256.01,-285.55 1246.49,-290.197 1251.47,-295.121"/>
</g>
<!-- Node11 -->
<g id="node11" class="node"><title>Node11</title>
<g id="a_node11"><a xlink:href="../../d5/d20/Detectors_2ITSMFT_2ITS_2reconstruction_2include_2ITSReconstruction_2CA_2Constants_8h.html" target="_top" xlink:title="ITSReconstruction/CA\l/Constants.h">
<polygon fill="none" stroke="black" points="831,-125 831,-155 947,-155 947,-125 831,-125"/>
<text text-anchor="start" x="839" y="-143" font-family="Helvetica,sans-Serif" font-size="10.00">ITSReconstruction/CA</text>
<text text-anchor="middle" x="889" y="-132" font-family="Helvetica,sans-Serif" font-size="10.00">/Constants.h</text>
</a>
</g>
</g>
<!-- Node6&#45;&gt;Node11 -->
<g id="edge11" class="edge"><title>Node6&#45;&gt;Node11</title>
<path fill="none" stroke="midnightblue" d="M823.767,-396.599C836.65,-369.453 865.924,-309.03 894,-260 903.435,-243.523 911.675,-242.225 917,-224 920.989,-210.349 920.533,-205.776 917,-192 914.494,-182.228 909.681,-172.318 904.744,-163.866"/>
<polygon fill="midnightblue" stroke="midnightblue" points="907.694,-161.983 899.44,-155.341 901.751,-165.681 907.694,-161.983"/>
</g>
<!-- Node14 -->
<g id="node14" class="node"><title>Node14</title>
<g id="a_node14"><a xlink:href="../../dc/dca/Layer_8h.html" target="_top" xlink:title="ITSReconstruction/CA\l/Layer.h">
<polygon fill="none" stroke="black" points="469,-329 469,-359 585,-359 585,-329 469,-329"/>
<text text-anchor="start" x="477" y="-347" font-family="Helvetica,sans-Serif" font-size="10.00">ITSReconstruction/CA</text>
<text text-anchor="middle" x="527" y="-336" font-family="Helvetica,sans-Serif" font-size="10.00">/Layer.h</text>
</a>
</g>
</g>
<!-- Node6&#45;&gt;Node14 -->
<g id="edge15" class="edge"><title>Node6&#45;&gt;Node14</title>
<path fill="none" stroke="midnightblue" d="M758.663,-397.723C711.468,-386.982 644.924,-371.838 595.257,-360.534"/>
<polygon fill="midnightblue" stroke="midnightblue" points="595.771,-357.062 585.244,-358.255 594.218,-363.887 595.771,-357.062"/>
</g>
<!-- Node19 -->
<g id="node19" class="node"><title>Node19</title>
<g id="a_node19"><a xlink:href="../../d7/dcd/MCCompLabel_8h.html" target="_top" xlink:title="SimulationDataFormat\l/MCCompLabel.h">
<polygon fill="none" stroke="black" points="261,-261 261,-291 375,-291 375,-261 261,-261"/>
<text text-anchor="start" x="269" y="-279" font-family="Helvetica,sans-Serif" font-size="10.00">SimulationDataFormat</text>
<text text-anchor="middle" x="318" y="-268" font-family="Helvetica,sans-Serif" font-size="10.00">/MCCompLabel.h</text>
</a>
</g>
</g>
<!-- Node6&#45;&gt;Node19 -->
<g id="edge34" class="edge"><title>Node6&#45;&gt;Node19</title>
<path fill="none" stroke="midnightblue" d="M758.826,-409.261C657.088,-405.373 451.695,-393.512 389,-360 363.446,-346.341 343.103,-319.418 330.854,-299.931"/>
<polygon fill="midnightblue" stroke="midnightblue" points="333.817,-298.068 325.654,-291.314 327.824,-301.684 333.817,-298.068"/>
</g>
<!-- Node21 -->
<g id="node21" class="node"><title>Node21</title>
<g id="a_node21"><a xlink:href="../../db/d14/MCTruthContainer_8h.html" target="_top" xlink:title="Definition of a container to keep Monte Carlo truth external to simulation objects. ">
<polygon fill="none" stroke="black" points="1001,-329 1001,-359 1115,-359 1115,-329 1001,-329"/>
<text text-anchor="start" x="1009" y="-347" font-family="Helvetica,sans-Serif" font-size="10.00">SimulationDataFormat</text>
<text text-anchor="middle" x="1058" y="-336" font-family="Helvetica,sans-Serif" font-size="10.00">/MCTruthContainer.h</text>
</a>
</g>
</g>
<!-- Node6&#45;&gt;Node21 -->
<g id="edge35" class="edge"><title>Node6&#45;&gt;Node21</title>
<path fill="none" stroke="midnightblue" d="M868.405,-396.922C906,-386.627 957.147,-372.619 996.844,-361.748"/>
<polygon fill="midnightblue" stroke="midnightblue" points="997.954,-365.073 1006.67,-359.056 996.105,-358.322 997.954,-365.073"/>
</g>
<!-- Node12 -->
<g id="node12" class="node"><title>Node12</title>
<polygon fill="none" stroke="#bfbfbf" points="866.5,-62.5 866.5,-81.5 911.5,-81.5 911.5,-62.5 866.5,-62.5"/>
<text text-anchor="middle" x="889" y="-69.5" font-family="Helvetica,sans-Serif" font-size="10.00">climits</text>
</g>
<!-- Node11&#45;&gt;Node12 -->
<g id="edge12" class="edge"><title>Node11&#45;&gt;Node12</title>
<path fill="none" stroke="midnightblue" d="M889,-124.679C889,-115.101 889,-102.394 889,-91.9766"/>
<polygon fill="midnightblue" stroke="midnightblue" points="892.5,-91.8283 889,-81.8283 885.5,-91.8283 892.5,-91.8283"/>
</g>
<!-- Node13 -->
<g id="node13" class="node"><title>Node13</title>
<g id="a_node13"><a xlink:href="../../df/d3d/Definitions_8h.html" target="_top" xlink:title="ITSReconstruction/CA\l/Definitions.h">
<polygon fill="none" stroke="black" points="504,-57 504,-87 620,-87 620,-57 504,-57"/>
<text text-anchor="start" x="512" y="-75" font-family="Helvetica,sans-Serif" font-size="10.00">ITSReconstruction/CA</text>
<text text-anchor="middle" x="562" y="-64" font-family="Helvetica,sans-Serif" font-size="10.00">/Definitions.h</text>
</a>
</g>
</g>
<!-- Node11&#45;&gt;Node13 -->
<g id="edge13" class="edge"><title>Node11&#45;&gt;Node13</title>
<path fill="none" stroke="midnightblue" d="M830.78,-126.066C827.473,-125.36 824.195,-124.667 821,-124 756.306,-110.497 682.313,-96.0237 630.026,-85.9579"/>
<polygon fill="midnightblue" stroke="midnightblue" points="630.676,-82.5189 620.195,-84.0681 629.354,-89.393 630.676,-82.5189"/>
</g>
<!-- Node13&#45;&gt;Node7 -->
<g id="edge14" class="edge"><title>Node13&#45;&gt;Node7</title>
<path fill="none" stroke="midnightblue" d="M592.948,-56.9327C615.019,-46.9004 644.458,-33.5193 665.865,-23.7888"/>
<polygon fill="midnightblue" stroke="midnightblue" points="667.425,-26.9244 675.08,-19.6 664.528,-20.5518 667.425,-26.9244"/>
</g>
<!-- Node14&#45;&gt;Node5 -->
<g id="edge16" class="edge"><title>Node14&#45;&gt;Node5</title>
<path fill="none" stroke="midnightblue" d="M504.206,-328.935C491.119,-319.831 475.292,-306.912 465,-292 435.873,-249.796 422.19,-189.563 416.855,-159.522"/>
<polygon fill="midnightblue" stroke="midnightblue" points="420.296,-158.878 415.204,-149.587 413.391,-160.026 420.296,-158.878"/>
</g>
<!-- Node14&#45;&gt;Node8 -->
<g id="edge17" class="edge"><title>Node14&#45;&gt;Node8</title>
<path fill="none" stroke="midnightblue" d="M572.38,-328.903C617.131,-312.136 682.305,-279.232 707,-224 716.385,-203.009 708.945,-176.467 701.817,-159.127"/>
<polygon fill="midnightblue" stroke="midnightblue" points="704.854,-157.347 697.572,-149.652 698.466,-160.209 704.854,-157.347"/>
</g>
<!-- Node14&#45;&gt;Node13 -->
<g id="edge31" class="edge"><title>Node14&#45;&gt;Node13</title>
<path fill="none" stroke="midnightblue" d="M516.192,-328.715C509.505,-318.949 501.541,-305.392 498,-292 494.364,-278.25 495.666,-274.029 498,-260 508.149,-199.001 535.724,-131.216 551.162,-96.4261"/>
<polygon fill="midnightblue" stroke="midnightblue" points="554.435,-97.6816 555.35,-87.1264 548.052,-94.807 554.435,-97.6816"/>
</g>
<!-- Node15 -->
<g id="node15" class="node"><title>Node15</title>
<g id="a_node15"><a xlink:href="../../d6/d7c/Detectors_2ITSMFT_2ITS_2reconstruction_2include_2ITSReconstruction_2CA_2Cluster_8h.html" target="_top" xlink:title="ITSReconstruction/CA\l/Cluster.h">
<polygon fill="none" stroke="black" points="507,-261 507,-291 623,-291 623,-261 507,-261"/>
<text text-anchor="start" x="515" y="-279" font-family="Helvetica,sans-Serif" font-size="10.00">ITSReconstruction/CA</text>
<text text-anchor="middle" x="565" y="-268" font-family="Helvetica,sans-Serif" font-size="10.00">/Cluster.h</text>
</a>
</g>
</g>
<!-- Node14&#45;&gt;Node15 -->
<g id="edge18" class="edge"><title>Node14&#45;&gt;Node15</title>
<path fill="none" stroke="midnightblue" d="M535.245,-328.679C540.026,-320.376 546.161,-309.721 551.616,-300.245"/>
<polygon fill="midnightblue" stroke="midnightblue" points="554.814,-301.706 556.771,-291.293 548.748,-298.213 554.814,-301.706"/>
</g>
<!-- Node14&#45;&gt;Node19 -->
<g id="edge32" class="edge"><title>Node14&#45;&gt;Node19</title>
<path fill="none" stroke="midnightblue" d="M482.421,-328.922C450.232,-318.757 406.587,-304.975 372.354,-294.164"/>
<polygon fill="midnightblue" stroke="midnightblue" points="373.101,-290.73 362.511,-291.056 370.993,-297.405 373.101,-290.73"/>
</g>
<!-- Node15&#45;&gt;Node7 -->
<g id="edge19" class="edge"><title>Node15&#45;&gt;Node7</title>
<path fill="none" stroke="midnightblue" d="M552.389,-260.825C520.648,-223.398 443.543,-120.392 495,-56 515.91,-29.8339 614.533,-17.7692 664.634,-13.2514"/>
<polygon fill="midnightblue" stroke="midnightblue" points="665.165,-16.7188 674.829,-12.3763 664.566,-9.74446 665.165,-16.7188"/>
</g>
<!-- Node15&#45;&gt;Node13 -->
<g id="edge20" class="edge"><title>Node15&#45;&gt;Node13</title>
<path fill="none" stroke="midnightblue" d="M564.789,-260.796C564.282,-226.677 562.992,-139.787 562.36,-97.2303"/>
<polygon fill="midnightblue" stroke="midnightblue" points="565.859,-97.1354 562.211,-87.1886 558.86,-97.2395 565.859,-97.1354"/>
</g>
<!-- Node16 -->
<g id="node16" class="node"><title>Node16</title>
<g id="a_node16"><a xlink:href="../../dc/d3e/MathUtils_8h.html" target="_top" xlink:title="ITSReconstruction/CA\l/MathUtils.h">
<polygon fill="none" stroke="black" points="793,-193 793,-223 909,-223 909,-193 793,-193"/>
<text text-anchor="start" x="801" y="-211" font-family="Helvetica,sans-Serif" font-size="10.00">ITSReconstruction/CA</text>
<text text-anchor="middle" x="851" y="-200" font-family="Helvetica,sans-Serif" font-size="10.00">/MathUtils.h</text>
</a>
</g>
</g>
<!-- Node15&#45;&gt;Node16 -->
<g id="edge21" class="edge"><title>Node15&#45;&gt;Node16</title>
<path fill="none" stroke="midnightblue" d="M623.221,-261.564C669.519,-250.88 734.372,-235.914 783.043,-224.682"/>
<polygon fill="midnightblue" stroke="midnightblue" points="783.904,-228.076 792.86,-222.417 782.329,-221.255 783.904,-228.076"/>
</g>
<!-- Node18 -->
<g id="node18" class="node"><title>Node18</title>
<g id="a_node18"><a xlink:href="../../d2/d0c/IndexTableUtils_8h.html" target="_top" xlink:title="ITSReconstruction/CA\l/IndexTableUtils.h">
<polygon fill="none" stroke="black" points="583,-193 583,-223 699,-223 699,-193 583,-193"/>
<text text-anchor="start" x="591" y="-211" font-family="Helvetica,sans-Serif" font-size="10.00">ITSReconstruction/CA</text>
<text text-anchor="middle" x="641" y="-200" font-family="Helvetica,sans-Serif" font-size="10.00">/IndexTableUtils.h</text>
</a>
</g>
</g>
<!-- Node15&#45;&gt;Node18 -->
<g id="edge25" class="edge"><title>Node15&#45;&gt;Node18</title>
<path fill="none" stroke="midnightblue" d="M581.491,-260.679C591.919,-251.623 605.57,-239.768 617.167,-229.697"/>
<polygon fill="midnightblue" stroke="midnightblue" points="619.547,-232.266 624.802,-223.066 614.957,-226.981 619.547,-232.266"/>
</g>
<!-- Node16&#45;&gt;Node7 -->
<g id="edge22" class="edge"><title>Node16&#45;&gt;Node7</title>
<path fill="none" stroke="midnightblue" d="M814.147,-192.867C795.975,-184.406 774.834,-172.13 760,-156 725.303,-118.271 706.253,-59.1783 698.38,-29.4258"/>
<polygon fill="midnightblue" stroke="midnightblue" points="701.733,-28.4096 695.9,-19.5652 694.945,-30.1169 701.733,-28.4096"/>
</g>
<!-- Node16&#45;&gt;Node11 -->
<g id="edge24" class="edge"><title>Node16&#45;&gt;Node11</title>
<path fill="none" stroke="midnightblue" d="M859.245,-192.679C864.026,-184.376 870.161,-173.721 875.616,-164.245"/>
<polygon fill="midnightblue" stroke="midnightblue" points="878.814,-165.706 880.771,-155.293 872.748,-162.213 878.814,-165.706"/>
</g>
<!-- Node17 -->
<g id="node17" class="node"><title>Node17</title>
<polygon fill="none" stroke="#bfbfbf" points="769,-130.5 769,-149.5 813,-149.5 813,-130.5 769,-130.5"/>
<text text-anchor="middle" x="791" y="-137.5" font-family="Helvetica,sans-Serif" font-size="10.00">cmath</text>
</g>
<!-- Node16&#45;&gt;Node17 -->
<g id="edge23" class="edge"><title>Node16&#45;&gt;Node17</title>
<path fill="none" stroke="midnightblue" d="M837.981,-192.679C828.533,-182.286 815.735,-168.208 805.882,-157.37"/>
<polygon fill="midnightblue" stroke="midnightblue" points="808.342,-154.873 799.026,-149.828 803.163,-159.582 808.342,-154.873"/>
</g>
<!-- Node18&#45;&gt;Node5 -->
<g id="edge28" class="edge"><title>Node18&#45;&gt;Node5</title>
<path fill="none" stroke="midnightblue" d="M592.581,-192.922C548.425,-180.084 484.419,-161.474 446.229,-150.371"/>
<polygon fill="midnightblue" stroke="midnightblue" points="446.76,-146.88 436.18,-147.449 444.805,-153.602 446.76,-146.88"/>
</g>
<!-- Node18&#45;&gt;Node7 -->
<g id="edge26" class="edge"><title>Node18&#45;&gt;Node7</title>
<path fill="none" stroke="midnightblue" d="M644.812,-192.904C654.207,-158.158 678.478,-68.4034 689.005,-29.4708"/>
<polygon fill="midnightblue" stroke="midnightblue" points="692.409,-30.2935 691.64,-19.7266 685.651,-28.4662 692.409,-30.2935"/>
</g>
<!-- Node18&#45;&gt;Node8 -->
<g id="edge27" class="edge"><title>Node18&#45;&gt;Node8</title>
<path fill="none" stroke="midnightblue" d="M652.283,-192.679C660.391,-182.388 671.346,-168.484 679.851,-157.69"/>
<polygon fill="midnightblue" stroke="midnightblue" points="682.605,-159.849 686.044,-149.828 677.106,-155.517 682.605,-159.849"/>
</g>
<!-- Node18&#45;&gt;Node11 -->
<g id="edge29" class="edge"><title>Node18&#45;&gt;Node11</title>
<path fill="none" stroke="midnightblue" d="M693.898,-192.922C732.667,-182.605 785.441,-168.56 826.327,-157.679"/>
<polygon fill="midnightblue" stroke="midnightblue" points="827.42,-161.01 836.183,-155.056 825.619,-154.246 827.42,-161.01"/>
</g>
<!-- Node18&#45;&gt;Node13 -->
<g id="edge30" class="edge"><title>Node18&#45;&gt;Node13</title>
<path fill="none" stroke="midnightblue" d="M632.546,-192.66C618.885,-169.488 591.84,-123.615 575.493,-95.8862"/>
<polygon fill="midnightblue" stroke="midnightblue" points="578.487,-94.0741 570.394,-87.2372 572.457,-97.6292 578.487,-94.0741"/>
</g>
<!-- Node20 -->
<g id="node20" class="node"><title>Node20</title>
<polygon fill="none" stroke="#bfbfbf" points="290,-198.5 290,-217.5 346,-217.5 346,-198.5 290,-198.5"/>
<text text-anchor="middle" x="318" y="-205.5" font-family="Helvetica,sans-Serif" font-size="10.00">Rtypes.h</text>
</g>
<!-- Node19&#45;&gt;Node20 -->
<g id="edge33" class="edge"><title>Node19&#45;&gt;Node20</title>
<path fill="none" stroke="midnightblue" d="M318,-260.679C318,-251.101 318,-238.394 318,-227.977"/>
<polygon fill="midnightblue" stroke="midnightblue" points="321.5,-227.828 318,-217.828 314.5,-227.828 321.5,-227.828"/>
</g>
<!-- Node21&#45;&gt;Node9 -->
<g id="edge37" class="edge"><title>Node21&#45;&gt;Node9</title>
<path fill="none" stroke="midnightblue" d="M1088.25,-328.841C1112.86,-317.323 1147.3,-301.199 1171.22,-290.004"/>
<polygon fill="midnightblue" stroke="midnightblue" points="1172.88,-293.091 1180.45,-285.682 1169.91,-286.751 1172.88,-293.091"/>
</g>
<!-- Node21&#45;&gt;Node10 -->
<g id="edge39" class="edge"><title>Node21&#45;&gt;Node10</title>
<path fill="none" stroke="midnightblue" d="M1113.96,-328.94C1148.43,-319.706 1193.28,-306.649 1232,-292 1233.85,-291.3 1235.74,-290.538 1237.64,-289.741"/>
<polygon fill="midnightblue" stroke="midnightblue" points="1239.23,-292.862 1246.94,-285.589 1236.38,-286.47 1239.23,-292.862"/>
</g>
<!-- Node22 -->
<g id="node22" class="node"><title>Node22</title>
<polygon fill="none" stroke="#bfbfbf" points="936,-266.5 936,-285.5 998,-285.5 998,-266.5 936,-266.5"/>
<text text-anchor="middle" x="967" y="-273.5" font-family="Helvetica,sans-Serif" font-size="10.00">TNamed.h</text>
</g>
<!-- Node21&#45;&gt;Node22 -->
<g id="edge36" class="edge"><title>Node21&#45;&gt;Node22</title>
<path fill="none" stroke="midnightblue" d="M1038.25,-328.679C1023.14,-317.713 1002.36,-302.645 987.142,-291.609"/>
<polygon fill="midnightblue" stroke="midnightblue" points="989.06,-288.676 978.91,-285.638 984.95,-294.342 989.06,-288.676"/>
</g>
<!-- Node23 -->
<g id="node23" class="node"><title>Node23</title>
<polygon fill="none" stroke="#bfbfbf" points="1016.5,-266.5 1016.5,-285.5 1075.5,-285.5 1075.5,-266.5 1016.5,-266.5"/>
<text text-anchor="middle" x="1046" y="-273.5" font-family="Helvetica,sans-Serif" font-size="10.00">stdexcept</text>
</g>
<!-- Node21&#45;&gt;Node23 -->
<g id="edge38" class="edge"><title>Node21&#45;&gt;Node23</title>
<path fill="none" stroke="midnightblue" d="M1055.4,-328.679C1053.65,-319.101 1051.34,-306.394 1049.45,-295.977"/>
<polygon fill="midnightblue" stroke="midnightblue" points="1052.84,-295.041 1047.61,-285.828 1045.95,-296.293 1052.84,-295.041"/>
</g>
<!-- Node24 -->
<g id="node24" class="node"><title>Node24</title>
<polygon fill="none" stroke="#bfbfbf" points="1094,-266.5 1094,-285.5 1156,-285.5 1156,-266.5 1094,-266.5"/>
<text text-anchor="middle" x="1125" y="-273.5" font-family="Helvetica,sans-Serif" font-size="10.00">type_traits</text>
</g>
<!-- Node21&#45;&gt;Node24 -->
<g id="edge40" class="edge"><title>Node21&#45;&gt;Node24</title>
<path fill="none" stroke="midnightblue" d="M1072.54,-328.679C1083.19,-318.184 1097.66,-303.932 1108.7,-293.052"/>
<polygon fill="midnightblue" stroke="midnightblue" points="1111.37,-295.339 1116.04,-285.828 1106.46,-290.353 1111.37,-295.339"/>
</g>
<!-- Node26 -->
<g id="node26" class="node"><title>Node26</title>
<polygon fill="none" stroke="#bfbfbf" points="1375,-334.5 1375,-353.5 1427,-353.5 1427,-334.5 1375,-334.5"/>
<text text-anchor="middle" x="1401" y="-341.5" font-family="Helvetica,sans-Serif" font-size="10.00">ostream</text>
</g>
<!-- Node25&#45;&gt;Node26 -->
<g id="edge42" class="edge"><title>Node25&#45;&gt;Node26</title>
<path fill="none" stroke="midnightblue" d="M1401,-396.679C1401,-387.101 1401,-374.394 1401,-363.977"/>
<polygon fill="midnightblue" stroke="midnightblue" points="1404.5,-363.828 1401,-353.828 1397.5,-363.828 1404.5,-363.828"/>
</g>
<!-- Node27&#45;&gt;Node7 -->
<g id="edge44" class="edge"><title>Node27&#45;&gt;Node7</title>
<path fill="none" stroke="midnightblue" d="M1058.78,-193C1053.17,-162.585 1035.41,-90.4511 989,-56 947.232,-24.9914 789.46,-14.9409 723.387,-12.0488"/>
<polygon fill="midnightblue" stroke="midnightblue" points="723.376,-8.54551 713.24,-11.63 723.088,-15.5396 723.376,-8.54551"/>
</g>
<!-- Node27&#45;&gt;Node11 -->
<g id="edge45" class="edge"><title>Node27&#45;&gt;Node11</title>
<path fill="none" stroke="midnightblue" d="M1024.1,-192.841C998.054,-182.846 962.967,-169.383 935.079,-158.682"/>
<polygon fill="midnightblue" stroke="midnightblue" points="936.132,-155.337 925.542,-155.022 933.624,-161.872 936.132,-155.337"/>
</g>
</g>
</svg>
