<?xml version="1.0" encoding="UTF-8" standalone="no"?>
<!DOCTYPE svg PUBLIC "-//W3C//DTD SVG 1.1//EN"
 "http://www.w3.org/Graphics/SVG/1.1/DTD/svg11.dtd">
<!-- Generated by graphviz version 2.36.0 (20140111.2315)
 -->
<!-- Title: /home/travis/build/AliceO2Group/AliceO2/Utilities/Publishers/src/runDataPublisherDevice.cxx Pages: 1 -->
<!--zoomable 298 -->
<svg id="main" version="1.1" xmlns="http://www.w3.org/2000/svg" xmlns:xlink="http://www.w3.org/1999/xlink" xml:space="preserve" onload="init(evt)">
<style type="text/css"><![CDATA[
.edge:hover path { stroke: red; }
.edge:hover polygon { stroke: red; fill: red; }
]]></style>
<script type="text/javascript"><![CDATA[
var edges = document.getElementsByTagName('g');
if (edges && edges.length) {
  for (var i=0;i<edges.length;i++) {
    if (edges[i].id.substr(0,4)=='edge') {
      edges[i].setAttribute('class','edge');
    }
  }
}
]]></script>
        <defs>
                <circle id="rim" cx="0" cy="0" r="7"/>
                <circle id="rim2" cx="0" cy="0" r="3.5"/>
                <g id="zoomPlus">
                        <use xlink:href="#rim" fill="#404040">
                                <set attributeName="fill" to="#808080" begin="zoomplus.mouseover" end="zoomplus.mouseout"/>
                        </use>
                        <path d="M-4,0h8M0,-4v8" fill="none" stroke="white" stroke-width="1.5" pointer-events="none"/>
                </g>
                <g id="zoomMin">
                        <use xlink:href="#rim" fill="#404040">
                                <set attributeName="fill" to="#808080" begin="zoomminus.mouseover" end="zoomminus.mouseout"/>
                        </use>
                        <path d="M-4,0h8" fill="none" stroke="white" stroke-width="1.5" pointer-events="none"/>
                </g>
                <g id="dirArrow">
                        <path fill="none" stroke="white" stroke-width="1.5" d="M0,-3.0v7 M-2.5,-0.5L0,-3.0L2.5,-0.5"/>
                </g>
               <g id="resetDef">
                       <use xlink:href="#rim2" fill="#404040">
                               <set attributeName="fill" to="#808080" begin="reset.mouseover" end="reset.mouseout"/>
                       </use>
               </g>
        </defs>

<script type="text/javascript">
var viewWidth = 849;
var viewHeight = 298;
var sectionId = 'dynsection-0';
</script>
<script xlink:href="../../svgpan.js"/>
<svg id="graph" class="graph">
<g id="viewport">
<title>/home/travis/build/AliceO2Group/AliceO2/Utilities/Publishers/src/runDataPublisherDevice.cxx</title>
<!-- Node1 -->
<g id="node1" class="node"><title>Node1</title>
<polygon fill="#bfbfbf" stroke="black" points="64.9928,-237 64.9928,-289 225.993,-289 225.993,-237 64.9928,-237"/>
<text text-anchor="start" x="72.9928" y="-277" font-family="Helvetica,sans-Serif" font-size="10.00">/home/travis/build</text>
<text text-anchor="start" x="72.9928" y="-266" font-family="Helvetica,sans-Serif" font-size="10.00">/AliceO2Group/AliceO2</text>
<text text-anchor="start" x="72.9928" y="-255" font-family="Helvetica,sans-Serif" font-size="10.00">/Utilities/Publishers</text>
<text text-anchor="middle" x="145.493" y="-244" font-family="Helvetica,sans-Serif" font-size="10.00">/src/runDataPublisherDevice.cxx</text>
</g>
<!-- Node2 -->
<g id="node2" class="node"><title>Node2</title>
<polygon fill="none" stroke="#bfbfbf" points="28.9928,-174.5 28.9928,-193.5 129.993,-193.5 129.993,-174.5 28.9928,-174.5"/>
<text text-anchor="middle" x="79.4928" y="-181.5" font-family="Helvetica,sans-Serif" font-size="10.00">runFairMQDevice.h</text>
</g>
<!-- Node1&#45;&gt;Node2 -->
<g id="edge1" class="edge"><title>Node1&#45;&gt;Node2</title>
<path fill="none" stroke="midnightblue" d="M123.882,-236.787C113.896,-225.137 102.324,-211.636 93.4993,-201.341"/>
<polygon fill="midnightblue" stroke="midnightblue" points="95.9933,-198.873 86.8279,-193.558 90.6785,-203.428 95.9933,-198.873"/>
</g>
<!-- Node3 -->
<g id="node3" class="node"><title>Node3</title>
<g id="a_node3"><a xlink:href="../../d8/d9b/DataPublisherDevice_8h.html" target="_top" xlink:title="Utility device for data publishing. ">
<polygon fill="none" stroke="black" points="147.993,-169 147.993,-199 274.993,-199 274.993,-169 147.993,-169"/>
<text text-anchor="start" x="155.993" y="-187" font-family="Helvetica,sans-Serif" font-size="10.00">Publishers/DataPublisher</text>
<text text-anchor="middle" x="211.493" y="-176" font-family="Helvetica,sans-Serif" font-size="10.00">Device.h</text>
</a>
</g>
</g>
<!-- Node1&#45;&gt;Node3 -->
<g id="edge2" class="edge"><title>Node1&#45;&gt;Node3</title>
<path fill="none" stroke="midnightblue" d="M167.104,-236.787C175.361,-227.153 184.704,-216.254 192.68,-206.948"/>
<polygon fill="midnightblue" stroke="midnightblue" points="195.426,-209.122 199.277,-199.252 190.111,-204.567 195.426,-209.122"/>
</g>
<!-- Node4 -->
<g id="node4" class="node"><title>Node4</title>
<g id="a_node4"><a xlink:href="../../dc/dcd/DataHeader_8h.html" target="_top" xlink:title="Headers/DataHeader.h">
<polygon fill="none" stroke="black" points="207.993,-56.5 207.993,-75.5 324.993,-75.5 324.993,-56.5 207.993,-56.5"/>
<text text-anchor="middle" x="266.493" y="-63.5" font-family="Helvetica,sans-Serif" font-size="10.00">Headers/DataHeader.h</text>
</a>
</g>
</g>
<!-- Node3&#45;&gt;Node4 -->
<g id="edge3" class="edge"><title>Node3&#45;&gt;Node4</title>
<path fill="none" stroke="midnightblue" d="M218.237,-168.776C228.237,-147.686 246.99,-108.132 257.941,-85.0356"/>
<polygon fill="midnightblue" stroke="midnightblue" points="261.243,-86.2423 262.364,-75.707 254.918,-83.2433 261.243,-86.2423"/>
</g>
<!-- Node8 -->
<g id="node8" class="node"><title>Node8</title>
<polygon fill="none" stroke="#bfbfbf" points="34.4928,-0.5 34.4928,-19.5 80.4928,-19.5 80.4928,-0.5 34.4928,-0.5"/>
<text text-anchor="middle" x="57.4928" y="-7.5" font-family="Helvetica,sans-Serif" font-size="10.00">cstring</text>
</g>
<!-- Node3&#45;&gt;Node8 -->
<g id="edge20" class="edge"><title>Node3&#45;&gt;Node8</title>
<path fill="none" stroke="midnightblue" d="M147.766,-169.38C105.894,-159.471 55.775,-145.482 38.4928,-132 9.45782,-109.35 -9.81544,-89.4919 5.49276,-56 11.2701,-43.3602 22.545,-32.911 33.1234,-25.2737"/>
<polygon fill="midnightblue" stroke="midnightblue" points="35.3415,-28.0009 41.7094,-19.5333 31.4509,-22.1817 35.3415,-28.0009"/>
</g>
<!-- Node10 -->
<g id="node10" class="node"><title>Node10</title>
<g id="a_node10"><a xlink:href="../../d2/d09/HeartbeatFrame_8h.html" target="_top" xlink:title="Headers/HeartbeatFrame.h">
<polygon fill="none" stroke="black" points="47.9928,-112.5 47.9928,-131.5 182.993,-131.5 182.993,-112.5 47.9928,-112.5"/>
<text text-anchor="middle" x="115.493" y="-119.5" font-family="Helvetica,sans-Serif" font-size="10.00">Headers/HeartbeatFrame.h</text>
</a>
</g>
</g>
<!-- Node3&#45;&gt;Node10 -->
<g id="edge9" class="edge"><title>Node3&#45;&gt;Node10</title>
<path fill="none" stroke="midnightblue" d="M188.742,-168.781C173.406,-159.196 153.263,-146.606 137.982,-137.056"/>
<polygon fill="midnightblue" stroke="midnightblue" points="139.517,-133.888 129.182,-131.556 135.807,-139.824 139.517,-133.888"/>
</g>
<!-- Node13 -->
<g id="node13" class="node"><title>Node13</title>
<polygon fill="none" stroke="#bfbfbf" points="145.493,-56.5 145.493,-75.5 189.493,-75.5 189.493,-56.5 145.493,-56.5"/>
<text text-anchor="middle" x="167.493" y="-63.5" font-family="Helvetica,sans-Serif" font-size="10.00">vector</text>
</g>
<!-- Node3&#45;&gt;Node13 -->
<g id="edge21" class="edge"><title>Node3&#45;&gt;Node13</title>
<path fill="none" stroke="midnightblue" d="M208.452,-168.827C205.111,-154.28 199.184,-131.13 191.493,-112 187.736,-102.655 182.579,-92.7305 178.008,-84.586"/>
<polygon fill="midnightblue" stroke="midnightblue" points="180.898,-82.5919 172.857,-75.6931 174.841,-86.1006 180.898,-82.5919"/>
</g>
<!-- Node14 -->
<g id="node14" class="node"><title>Node14</title>
<g id="a_node14"><a xlink:href="../../d2/dee/O2Device_8h.html" target="_top" xlink:title="O2Device/O2Device.h">
<polygon fill="none" stroke="black" points="360.993,-112.5 360.993,-131.5 475.993,-131.5 475.993,-112.5 360.993,-112.5"/>
<text text-anchor="middle" x="418.493" y="-119.5" font-family="Helvetica,sans-Serif" font-size="10.00">O2Device/O2Device.h</text>
</a>
</g>
</g>
<!-- Node3&#45;&gt;Node14 -->
<g id="edge14" class="edge"><title>Node3&#45;&gt;Node14</title>
<path fill="none" stroke="midnightblue" d="M260.025,-168.933C296.304,-158.417 345.276,-144.222 379.133,-134.409"/>
<polygon fill="midnightblue" stroke="midnightblue" points="380.494,-137.658 389.124,-131.513 378.545,-130.935 380.494,-137.658"/>
</g>
<!-- Node5 -->
<g id="node5" class="node"><title>Node5</title>
<polygon fill="none" stroke="#bfbfbf" points="209.493,-0.5 209.493,-19.5 255.493,-19.5 255.493,-0.5 209.493,-0.5"/>
<text text-anchor="middle" x="232.493" y="-7.5" font-family="Helvetica,sans-Serif" font-size="10.00">cstdint</text>
</g>
<!-- Node4&#45;&gt;Node5 -->
<g id="edge4" class="edge"><title>Node4&#45;&gt;Node5</title>
<path fill="none" stroke="midnightblue" d="M260.878,-56.083C256.125,-48.5341 249.175,-37.4948 243.341,-28.2298"/>
<polygon fill="midnightblue" stroke="midnightblue" points="246.293,-26.3486 238.003,-19.7511 240.369,-30.0783 246.293,-26.3486"/>
</g>
<!-- Node6 -->
<g id="node6" class="node"><title>Node6</title>
<polygon fill="none" stroke="#bfbfbf" points="273.493,-0.5 273.493,-19.5 325.493,-19.5 325.493,-0.5 273.493,-0.5"/>
<text text-anchor="middle" x="299.493" y="-7.5" font-family="Helvetica,sans-Serif" font-size="10.00">memory</text>
</g>
<!-- Node4&#45;&gt;Node6 -->
<g id="edge5" class="edge"><title>Node4&#45;&gt;Node6</title>
<path fill="none" stroke="midnightblue" d="M271.942,-56.083C276.507,-48.6127 283.161,-37.7244 288.786,-28.5199"/>
<polygon fill="midnightblue" stroke="midnightblue" points="291.917,-30.109 294.145,-19.7511 285.944,-26.4588 291.917,-30.109"/>
</g>
<!-- Node7 -->
<g id="node7" class="node"><title>Node7</title>
<polygon fill="none" stroke="#bfbfbf" points="343.993,-0.5 343.993,-19.5 392.993,-19.5 392.993,-0.5 343.993,-0.5"/>
<text text-anchor="middle" x="368.493" y="-7.5" font-family="Helvetica,sans-Serif" font-size="10.00">cassert</text>
</g>
<!-- Node4&#45;&gt;Node7 -->
<g id="edge6" class="edge"><title>Node4&#45;&gt;Node7</title>
<path fill="none" stroke="midnightblue" d="M282.881,-56.324C299.164,-47.7034 324.36,-34.3643 343.209,-24.3855"/>
<polygon fill="midnightblue" stroke="midnightblue" points="344.945,-27.4267 352.145,-19.6545 341.67,-21.2402 344.945,-27.4267"/>
</g>
<!-- Node4&#45;&gt;Node8 -->
<g id="edge7" class="edge"><title>Node4&#45;&gt;Node8</title>
<path fill="none" stroke="midnightblue" d="M233.376,-56.4435C194.282,-46.3426 129.655,-29.6449 90.5758,-19.5478"/>
<polygon fill="midnightblue" stroke="midnightblue" points="91.3052,-16.1214 80.7476,-17.0084 89.554,-22.8988 91.3052,-16.1214"/>
</g>
<!-- Node9 -->
<g id="node9" class="node"><title>Node9</title>
<polygon fill="none" stroke="#bfbfbf" points="135.493,-0.5 135.493,-19.5 191.493,-19.5 191.493,-0.5 135.493,-0.5"/>
<text text-anchor="middle" x="163.493" y="-7.5" font-family="Helvetica,sans-Serif" font-size="10.00">algorithm</text>
</g>
<!-- Node4&#45;&gt;Node9 -->
<g id="edge8" class="edge"><title>Node4&#45;&gt;Node9</title>
<path fill="none" stroke="midnightblue" d="M249.944,-56.324C233.501,-47.7034 208.058,-34.3643 189.024,-24.3855"/>
<polygon fill="midnightblue" stroke="midnightblue" points="190.482,-21.198 180,-19.6545 187.232,-27.3977 190.482,-21.198"/>
</g>
<!-- Node10&#45;&gt;Node4 -->
<g id="edge10" class="edge"><title>Node10&#45;&gt;Node4</title>
<path fill="none" stroke="midnightblue" d="M139.419,-112.444C164.711,-103.399 204.795,-89.064 233.173,-78.9158"/>
<polygon fill="midnightblue" stroke="midnightblue" points="234.441,-82.1794 242.678,-75.5164 232.084,-75.5882 234.441,-82.1794"/>
</g>
<!-- Node11 -->
<g id="node11" class="node"><title>Node11</title>
<polygon fill="none" stroke="#bfbfbf" points="14.9928,-56.5 14.9928,-75.5 73.9928,-75.5 73.9928,-56.5 14.9928,-56.5"/>
<text text-anchor="middle" x="44.4928" y="-63.5" font-family="Helvetica,sans-Serif" font-size="10.00">functional</text>
</g>
<!-- Node10&#45;&gt;Node11 -->
<g id="edge11" class="edge"><title>Node10&#45;&gt;Node11</title>
<path fill="none" stroke="midnightblue" d="M104.085,-112.324C93.384,-104.185 77.1521,-91.8395 64.3299,-82.0874"/>
<polygon fill="midnightblue" stroke="midnightblue" points="66.186,-79.1018 56.1077,-75.8339 61.9484,-84.6734 66.186,-79.1018"/>
</g>
<!-- Node12 -->
<g id="node12" class="node"><title>Node12</title>
<polygon fill="none" stroke="#bfbfbf" points="91.9928,-56.5 91.9928,-75.5 126.993,-75.5 126.993,-56.5 91.9928,-56.5"/>
<text text-anchor="middle" x="109.493" y="-63.5" font-family="Helvetica,sans-Serif" font-size="10.00">map</text>
</g>
<!-- Node10&#45;&gt;Node12 -->
<g id="edge12" class="edge"><title>Node10&#45;&gt;Node12</title>
<path fill="none" stroke="midnightblue" d="M114.502,-112.083C113.707,-104.927 112.563,-94.6353 111.57,-85.6911"/>
<polygon fill="midnightblue" stroke="midnightblue" points="115.048,-85.3034 110.465,-75.7511 108.091,-86.0765 115.048,-85.3034"/>
</g>
<!-- Node10&#45;&gt;Node13 -->
<g id="edge13" class="edge"><title>Node10&#45;&gt;Node13</title>
<path fill="none" stroke="midnightblue" d="M124.08,-112.083C131.652,-104.22 142.871,-92.5688 152.007,-83.0813"/>
<polygon fill="midnightblue" stroke="midnightblue" points="154.65,-85.3821 159.066,-75.7511 149.608,-80.5266 154.65,-85.3821"/>
</g>
<!-- Node14&#45;&gt;Node4 -->
<g id="edge17" class="edge"><title>Node14&#45;&gt;Node4</title>
<path fill="none" stroke="midnightblue" d="M394.408,-112.444C368.948,-103.399 328.599,-89.064 300.034,-78.9158"/>
<polygon fill="midnightblue" stroke="midnightblue" points="301.06,-75.5661 290.465,-75.5164 298.716,-82.1622 301.06,-75.5661"/>
</g>
<!-- Node15 -->
<g id="node15" class="node"><title>Node15</title>
<polygon fill="none" stroke="#bfbfbf" points="420.493,-56.5 420.493,-75.5 508.493,-75.5 508.493,-56.5 420.493,-56.5"/>
<text text-anchor="middle" x="464.493" y="-63.5" font-family="Helvetica,sans-Serif" font-size="10.00">FairMQDevice.h</text>
</g>
<!-- Node14&#45;&gt;Node15 -->
<g id="edge15" class="edge"><title>Node14&#45;&gt;Node15</title>
<path fill="none" stroke="midnightblue" d="M426.089,-112.083C432.72,-104.298 442.514,-92.8015 450.551,-83.3665"/>
<polygon fill="midnightblue" stroke="midnightblue" points="453.218,-85.6332 457.038,-75.7511 447.889,-81.0939 453.218,-85.6332"/>
</g>
<!-- Node16 -->
<g id="node16" class="node"><title>Node16</title>
<polygon fill="none" stroke="#bfbfbf" points="526.493,-56.5 526.493,-75.5 672.493,-75.5 672.493,-56.5 526.493,-56.5"/>
<text text-anchor="middle" x="599.493" y="-63.5" font-family="Helvetica,sans-Serif" font-size="10.00">options/FairMQProgOptions.h</text>
</g>
<!-- Node14&#45;&gt;Node16 -->
<g id="edge16" class="edge"><title>Node14&#45;&gt;Node16</title>
<path fill="none" stroke="midnightblue" d="M447.173,-112.444C478.02,-103.241 527.221,-88.5617 561.322,-78.3879"/>
<polygon fill="midnightblue" stroke="midnightblue" points="562.365,-81.7293 570.947,-75.5164 560.364,-75.0215 562.365,-81.7293"/>
</g>
<!-- Node17 -->
<g id="node17" class="node"><title>Node17</title>
<polygon fill="none" stroke="#bfbfbf" points="690.993,-56.5 690.993,-75.5 841.993,-75.5 841.993,-56.5 690.993,-56.5"/>
<text text-anchor="middle" x="766.493" y="-63.5" font-family="Helvetica,sans-Serif" font-size="10.00">Monitoring/MonitoringFactory.h</text>
</g>
<!-- Node14&#45;&gt;Node17 -->
<g id="edge18" class="edge"><title>Node14&#45;&gt;Node17</title>
<path fill="none" stroke="midnightblue" d="M473.634,-112.444C535.488,-102.846 635.725,-87.2916 701.38,-77.1037"/>
<polygon fill="midnightblue" stroke="midnightblue" points="702.264,-80.5085 711.609,-75.5164 701.191,-73.5913 702.264,-80.5085"/>
</g>
<!-- Node18 -->
<g id="node18" class="node"><title>Node18</title>
<polygon fill="none" stroke="#bfbfbf" points="342.993,-56.5 342.993,-75.5 401.993,-75.5 401.993,-56.5 342.993,-56.5"/>
<text text-anchor="middle" x="372.493" y="-63.5" font-family="Helvetica,sans-Serif" font-size="10.00">stdexcept</text>
</g>
<!-- Node14&#45;&gt;Node18 -->
<g id="edge19" class="edge"><title>Node14&#45;&gt;Node18</title>
<path fill="none" stroke="midnightblue" d="M410.897,-112.083C404.265,-104.298 394.472,-92.8015 386.435,-83.3665"/>
<polygon fill="midnightblue" stroke="midnightblue" points="389.096,-81.0939 379.947,-75.7511 383.768,-85.6332 389.096,-81.0939"/>
</g>
</g>
</svg>
        <g id="navigator" transform="translate(0 0)" fill="#404254">
                <rect fill="#f2f5e9" fill-opacity="0.5" stroke="#606060" stroke-width=".5" x="0" y="0" width="60" height="60"/>
                <use id="zoomplus" xlink:href="#zoomPlus" x="17" y="9" onmousedown="handleZoom(evt,'in')"/>
                <use id="zoomminus" xlink:href="#zoomMin" x="42" y="9" onmousedown="handleZoom(evt,'out')"/>
                <use id="reset" xlink:href="#resetDef" x="30" y="36" onmousedown="handleReset()"/>
                <g id="arrowUp" xlink:href="#dirArrow" transform="translate(30 24)" onmousedown="handlePan(0,-1)">
                  <use xlink:href="#rim" fill="#404040">
                        <set attributeName="fill" to="#808080" begin="arrowUp.mouseover" end="arrowUp.mouseout"/>
                  </use>
                  <path fill="none" stroke="white" stroke-width="1.5" d="M0,-3.0v7 M-2.5,-0.5L0,-3.0L2.5,-0.5"/>
                </g>
                <g id="arrowRight" xlink:href="#dirArrow" transform="rotate(90) translate(36 -43)" onmousedown="handlePan(1,0)">
                  <use xlink:href="#rim" fill="#404040">
                        <set attributeName="fill" to="#808080" begin="arrowRight.mouseover" end="arrowRight.mouseout"/>
                  </use>
                  <path fill="none" stroke="white" stroke-width="1.5" d="M0,-3.0v7 M-2.5,-0.5L0,-3.0L2.5,-0.5"/>
                </g>
                <g id="arrowDown" xlink:href="#dirArrow" transform="rotate(180) translate(-30 -48)" onmousedown="handlePan(0,1)">
                  <use xlink:href="#rim" fill="#404040">
                        <set attributeName="fill" to="#808080" begin="arrowDown.mouseover" end="arrowDown.mouseout"/>
                  </use>
                  <path fill="none" stroke="white" stroke-width="1.5" d="M0,-3.0v7 M-2.5,-0.5L0,-3.0L2.5,-0.5"/>
                </g>
                <g id="arrowLeft" xlink:href="#dirArrow" transform="rotate(270) translate(-36 17)" onmousedown="handlePan(-1,0)">
                  <use xlink:href="#rim" fill="#404040">
                        <set attributeName="fill" to="#808080" begin="arrowLeft.mouseover" end="arrowLeft.mouseout"/>
                  </use>
                  <path fill="none" stroke="white" stroke-width="1.5" d="M0,-3.0v7 M-2.5,-0.5L0,-3.0L2.5,-0.5"/>
                </g>
        </g>
        <svg viewBox="0 0 15 15" width="100%" height="30px" preserveAspectRatio="xMaxYMin meet">
         <g id="arrow_out" transform="scale(0.3 0.3)">
          <a xlink:href="runDataPublisherDevice_8cxx__incl_org.svg" target="_base">
           <rect id="button" ry="5" rx="5" y="6" x="6" height="38" width="38"
                fill="#f2f5e9" fill-opacity="0.5" stroke="#606060" stroke-width="1.0"/>
           <path id="arrow"
             d="M 11.500037,31.436501 C 11.940474,20.09759 22.043105,11.32322 32.158766,21.979434 L 37.068811,17.246167 C 37.068811,17.246167 37.088388,32 37.088388,32 L 22.160133,31.978069 C 22.160133,31.978069 26.997745,27.140456 26.997745,27.140456 C 18.528582,18.264221 13.291696,25.230495 11.500037,31.436501 z"
             style="fill:#404040;"/>
          </a>
         </g>
        </svg>
</svg>
