<?xml version="1.0" encoding="UTF-8" standalone="no"?>
<!DOCTYPE svg PUBLIC "-//W3C//DTD SVG 1.1//EN"
 "http://www.w3.org/Graphics/SVG/1.1/DTD/svg11.dtd">
<!-- Generated by graphviz version 2.36.0 (20140111.2315)
 -->
<!-- Title: o2::header::BaseHeader Pages: 1 -->
<!--zoomable 824 -->
<svg id="main" version="1.1" xmlns="http://www.w3.org/2000/svg" xmlns:xlink="http://www.w3.org/1999/xlink" xml:space="preserve" onload="init(evt)">
<style type="text/css"><![CDATA[
.edge:hover path { stroke: red; }
.edge:hover polygon { stroke: red; fill: red; }
]]></style>
<script type="text/javascript"><![CDATA[
var edges = document.getElementsByTagName('g');
if (edges && edges.length) {
  for (var i=0;i<edges.length;i++) {
    if (edges[i].id.substr(0,4)=='edge') {
      edges[i].setAttribute('class','edge');
    }
  }
}
]]></script>
        <defs>
                <circle id="rim" cx="0" cy="0" r="7"/>
                <circle id="rim2" cx="0" cy="0" r="3.5"/>
                <g id="zoomPlus">
                        <use xlink:href="#rim" fill="#404040">
                                <set attributeName="fill" to="#808080" begin="zoomplus.mouseover" end="zoomplus.mouseout"/>
                        </use>
                        <path d="M-4,0h8M0,-4v8" fill="none" stroke="white" stroke-width="1.5" pointer-events="none"/>
                </g>
                <g id="zoomMin">
                        <use xlink:href="#rim" fill="#404040">
                                <set attributeName="fill" to="#808080" begin="zoomminus.mouseover" end="zoomminus.mouseout"/>
                        </use>
                        <path d="M-4,0h8" fill="none" stroke="white" stroke-width="1.5" pointer-events="none"/>
                </g>
                <g id="dirArrow">
                        <path fill="none" stroke="white" stroke-width="1.5" d="M0,-3.0v7 M-2.5,-0.5L0,-3.0L2.5,-0.5"/>
                </g>
               <g id="resetDef">
                       <use xlink:href="#rim2" fill="#404040">
                               <set attributeName="fill" to="#808080" begin="reset.mouseover" end="reset.mouseout"/>
                       </use>
               </g>
        </defs>

<script type="text/javascript">
var viewWidth = 887;
var viewHeight = 824;
var sectionId = 'dynsection-1';
</script>
<script xlink:href="../../svgpan.js"/>
<svg id="graph" class="graph">
<g id="viewport">
<title>o2::header::BaseHeader</title>
<!-- Node1 -->
<g id="node1" class="node"><title>Node1</title>
<polygon fill="#bfbfbf" stroke="black" points="287.128,-0.5 287.128,-123.5 409.128,-123.5 409.128,-0.5 287.128,-0.5"/>
<text text-anchor="middle" x="348.128" y="-111.5" font-family="Helvetica,sans-Serif" font-size="10.00">o2::header::BaseHeader</text>
<polyline fill="none" stroke="black" points="287.128,-104.5 409.128,-104.5 "/>
<text text-anchor="middle" x="348.128" y="-92.5" font-family="Helvetica,sans-Serif" font-size="10.00"> </text>
<polyline fill="none" stroke="black" points="287.128,-85.5 409.128,-85.5 "/>
<text text-anchor="start" x="295.128" y="-73.5" font-family="Helvetica,sans-Serif" font-size="10.00">+ BaseHeader()</text>
<text text-anchor="start" x="295.128" y="-62.5" font-family="Helvetica,sans-Serif" font-size="10.00">+ BaseHeader()</text>
<text text-anchor="start" x="295.128" y="-51.5" font-family="Helvetica,sans-Serif" font-size="10.00">+ BaseHeader()</text>
<text text-anchor="start" x="295.128" y="-40.5" font-family="Helvetica,sans-Serif" font-size="10.00">+ size()</text>
<text text-anchor="start" x="295.128" y="-29.5" font-family="Helvetica,sans-Serif" font-size="10.00">+ data()</text>
<text text-anchor="start" x="295.128" y="-18.5" font-family="Helvetica,sans-Serif" font-size="10.00">+ next()</text>
<text text-anchor="start" x="295.128" y="-7.5" font-family="Helvetica,sans-Serif" font-size="10.00">+ get()</text>
</g>
<!-- Node2 -->
<g id="node2" class="node"><title>Node2</title>
<g id="a_node2"><a xlink:href="../../d9/db3/structo2_1_1header_1_1Descriptor.html" target="_top" xlink:title="{o2::header::Descriptor\l\&lt; gSizeHeaderDescriptionString \&gt;\n||+ Descriptor()\l+ Descriptor()\l+ Descriptor()\l+ Descriptor()\l+ operator=()\l+ operator ItgType()\l+ runtimeInit()\l+ operator==()\l+ operator==()\l+ operator!=()\l+ operator!=()\l+ print()\l}">
<polygon fill="none" stroke="black" points="463.128,-248.5 463.128,-437.5 629.128,-437.5 629.128,-248.5 463.128,-248.5"/>
<text text-anchor="start" x="471.128" y="-425.5" font-family="Helvetica,sans-Serif" font-size="10.00">o2::header::Descriptor</text>
<text text-anchor="middle" x="546.128" y="-414.5" font-family="Helvetica,sans-Serif" font-size="10.00">&lt; gSizeHeaderDescriptionString &gt;</text>
<polyline fill="none" stroke="black" points="463.128,-407.5 629.128,-407.5 "/>
<text text-anchor="middle" x="546.128" y="-395.5" font-family="Helvetica,sans-Serif" font-size="10.00"> </text>
<polyline fill="none" stroke="black" points="463.128,-388.5 629.128,-388.5 "/>
<text text-anchor="start" x="471.128" y="-376.5" font-family="Helvetica,sans-Serif" font-size="10.00">+ Descriptor()</text>
<text text-anchor="start" x="471.128" y="-365.5" font-family="Helvetica,sans-Serif" font-size="10.00">+ Descriptor()</text>
<text text-anchor="start" x="471.128" y="-354.5" font-family="Helvetica,sans-Serif" font-size="10.00">+ Descriptor()</text>
<text text-anchor="start" x="471.128" y="-343.5" font-family="Helvetica,sans-Serif" font-size="10.00">+ Descriptor()</text>
<text text-anchor="start" x="471.128" y="-332.5" font-family="Helvetica,sans-Serif" font-size="10.00">+ operator=()</text>
<text text-anchor="start" x="471.128" y="-321.5" font-family="Helvetica,sans-Serif" font-size="10.00">+ operator ItgType()</text>
<text text-anchor="start" x="471.128" y="-310.5" font-family="Helvetica,sans-Serif" font-size="10.00">+ runtimeInit()</text>
<text text-anchor="start" x="471.128" y="-299.5" font-family="Helvetica,sans-Serif" font-size="10.00">+ operator==()</text>
<text text-anchor="start" x="471.128" y="-288.5" font-family="Helvetica,sans-Serif" font-size="10.00">+ operator==()</text>
<text text-anchor="start" x="471.128" y="-277.5" font-family="Helvetica,sans-Serif" font-size="10.00">+ operator!=()</text>
<text text-anchor="start" x="471.128" y="-266.5" font-family="Helvetica,sans-Serif" font-size="10.00">+ operator!=()</text>
<text text-anchor="start" x="471.128" y="-255.5" font-family="Helvetica,sans-Serif" font-size="10.00">+ print()</text>
</a>
</g>
</g>
<!-- Node2&#45;&gt;Node1 -->
<g id="edge1" class="edge"><title>Node2&#45;&gt;Node1</title>
<path fill="none" stroke="#404040" d="M479.646,-248.321C453.061,-210.859 422.955,-168.438 398.263,-133.645"/>
<polygon fill="none" stroke="#404040" points="398.063,-133.363 391.328,-130.785 391.118,-123.576 397.852,-126.155 398.063,-133.363"/>
<text text-anchor="middle" x="493.628" y="-183.5" font-family="Helvetica,sans-Serif" font-size="10.00"> +description</text>
</g>
<!-- Node3 -->
<g id="node3" class="node"><title>Node3</title>
<polygon fill="none" stroke="#bfbfbf" points="509.128,-757.5 509.128,-814.5 547.128,-814.5 547.128,-757.5 509.128,-757.5"/>
<text text-anchor="middle" x="528.128" y="-802.5" font-family="Helvetica,sans-Serif" font-size="10.00">Type</text>
<polyline fill="none" stroke="#bfbfbf" points="509.128,-795.5 547.128,-795.5 "/>
<text text-anchor="middle" x="528.128" y="-783.5" font-family="Helvetica,sans-Serif" font-size="10.00"> </text>
<polyline fill="none" stroke="#bfbfbf" points="509.128,-776.5 547.128,-776.5 "/>
<text text-anchor="middle" x="528.128" y="-764.5" font-family="Helvetica,sans-Serif" font-size="10.00"> </text>
</g>
<!-- Node3&#45;&gt;Node2 -->
<g id="edge2" class="edge"><title>Node3&#45;&gt;Node2</title>
<path fill="none" stroke="#404040" d="M547.439,-777.548C563.956,-770.117 586.936,-757.049 599.128,-738 611.734,-718.306 605.345,-709.315 607.128,-686 613.567,-601.801 623.144,-578.912 607.128,-496 604.141,-480.538 599.592,-464.652 594.296,-449.249"/>
<polygon fill="none" stroke="#404040" points="594.162,-448.876 588.372,-444.578 590.114,-437.58 595.903,-441.879 594.162,-448.876"/>
<text text-anchor="middle" x="626.128" y="-588.5" font-family="Helvetica,sans-Serif" font-size="10.00"> +itg</text>
</g>
<!-- Node7 -->
<g id="node7" class="node"><title>Node7</title>
<g id="a_node7"><a xlink:href="../../d9/db3/structo2_1_1header_1_1Descriptor.html" target="_top" xlink:title="{o2::header::Descriptor\l\&lt; N, PrinterPolicy \&gt;\n||+ Descriptor()\l+ Descriptor()\l+ Descriptor()\l+ operator=()\l+ operator ItgType()\l+ Descriptor()\l+ runtimeInit()\l+ operator==()\l+ operator!=()\l+ operator==()\l+ operator!=()\l+ print()\l}">
<polygon fill="none" stroke="black" points="284.628,-496.5 284.628,-685.5 397.628,-685.5 397.628,-496.5 284.628,-496.5"/>
<text text-anchor="start" x="292.628" y="-673.5" font-family="Helvetica,sans-Serif" font-size="10.00">o2::header::Descriptor</text>
<text text-anchor="middle" x="341.128" y="-662.5" font-family="Helvetica,sans-Serif" font-size="10.00">&lt; N, PrinterPolicy &gt;</text>
<polyline fill="none" stroke="black" points="284.628,-655.5 397.628,-655.5 "/>
<text text-anchor="middle" x="341.128" y="-643.5" font-family="Helvetica,sans-Serif" font-size="10.00"> </text>
<polyline fill="none" stroke="black" points="284.628,-636.5 397.628,-636.5 "/>
<text text-anchor="start" x="292.628" y="-624.5" font-family="Helvetica,sans-Serif" font-size="10.00">+ Descriptor()</text>
<text text-anchor="start" x="292.628" y="-613.5" font-family="Helvetica,sans-Serif" font-size="10.00">+ Descriptor()</text>
<text text-anchor="start" x="292.628" y="-602.5" font-family="Helvetica,sans-Serif" font-size="10.00">+ Descriptor()</text>
<text text-anchor="start" x="292.628" y="-591.5" font-family="Helvetica,sans-Serif" font-size="10.00">+ operator=()</text>
<text text-anchor="start" x="292.628" y="-580.5" font-family="Helvetica,sans-Serif" font-size="10.00">+ operator ItgType()</text>
<text text-anchor="start" x="292.628" y="-569.5" font-family="Helvetica,sans-Serif" font-size="10.00">+ Descriptor()</text>
<text text-anchor="start" x="292.628" y="-558.5" font-family="Helvetica,sans-Serif" font-size="10.00">+ runtimeInit()</text>
<text text-anchor="start" x="292.628" y="-547.5" font-family="Helvetica,sans-Serif" font-size="10.00">+ operator==()</text>
<text text-anchor="start" x="292.628" y="-536.5" font-family="Helvetica,sans-Serif" font-size="10.00">+ operator!=()</text>
<text text-anchor="start" x="292.628" y="-525.5" font-family="Helvetica,sans-Serif" font-size="10.00">+ operator==()</text>
<text text-anchor="start" x="292.628" y="-514.5" font-family="Helvetica,sans-Serif" font-size="10.00">+ operator!=()</text>
<text text-anchor="start" x="292.628" y="-503.5" font-family="Helvetica,sans-Serif" font-size="10.00">+ print()</text>
</a>
</g>
</g>
<!-- Node3&#45;&gt;Node7 -->
<g id="edge7" class="edge"><title>Node3&#45;&gt;Node7</title>
<path fill="none" stroke="#404040" d="M508.943,-770.724C484.985,-752.442 443.355,-719.146 412.128,-686 410.042,-683.786 407.959,-681.511 405.885,-679.192"/>
<polygon fill="none" stroke="#404040" points="405.813,-679.109 398.859,-677.201 397.946,-670.048 404.9,-671.956 405.813,-679.109"/>
<text text-anchor="middle" x="477.128" y="-718.5" font-family="Helvetica,sans-Serif" font-size="10.00"> +itg</text>
</g>
<!-- Node9 -->
<g id="node9" class="node"><title>Node9</title>
<g id="a_node9"><a xlink:href="../../d9/db3/structo2_1_1header_1_1Descriptor.html" target="_top" xlink:title="{o2::header::Descriptor\l\&lt; gSizeSerializationMethodString \&gt;\n||+ Descriptor()\l+ Descriptor()\l+ Descriptor()\l+ Descriptor()\l+ operator=()\l+ operator ItgType()\l+ runtimeInit()\l+ operator==()\l+ operator==()\l+ operator!=()\l+ operator!=()\l+ print()\l}">
<polygon fill="none" stroke="black" points="109.128,-248.5 109.128,-437.5 279.128,-437.5 279.128,-248.5 109.128,-248.5"/>
<text text-anchor="start" x="117.128" y="-425.5" font-family="Helvetica,sans-Serif" font-size="10.00">o2::header::Descriptor</text>
<text text-anchor="middle" x="194.128" y="-414.5" font-family="Helvetica,sans-Serif" font-size="10.00">&lt; gSizeSerializationMethodString &gt;</text>
<polyline fill="none" stroke="black" points="109.128,-407.5 279.128,-407.5 "/>
<text text-anchor="middle" x="194.128" y="-395.5" font-family="Helvetica,sans-Serif" font-size="10.00"> </text>
<polyline fill="none" stroke="black" points="109.128,-388.5 279.128,-388.5 "/>
<text text-anchor="start" x="117.128" y="-376.5" font-family="Helvetica,sans-Serif" font-size="10.00">+ Descriptor()</text>
<text text-anchor="start" x="117.128" y="-365.5" font-family="Helvetica,sans-Serif" font-size="10.00">+ Descriptor()</text>
<text text-anchor="start" x="117.128" y="-354.5" font-family="Helvetica,sans-Serif" font-size="10.00">+ Descriptor()</text>
<text text-anchor="start" x="117.128" y="-343.5" font-family="Helvetica,sans-Serif" font-size="10.00">+ Descriptor()</text>
<text text-anchor="start" x="117.128" y="-332.5" font-family="Helvetica,sans-Serif" font-size="10.00">+ operator=()</text>
<text text-anchor="start" x="117.128" y="-321.5" font-family="Helvetica,sans-Serif" font-size="10.00">+ operator ItgType()</text>
<text text-anchor="start" x="117.128" y="-310.5" font-family="Helvetica,sans-Serif" font-size="10.00">+ runtimeInit()</text>
<text text-anchor="start" x="117.128" y="-299.5" font-family="Helvetica,sans-Serif" font-size="10.00">+ operator==()</text>
<text text-anchor="start" x="117.128" y="-288.5" font-family="Helvetica,sans-Serif" font-size="10.00">+ operator==()</text>
<text text-anchor="start" x="117.128" y="-277.5" font-family="Helvetica,sans-Serif" font-size="10.00">+ operator!=()</text>
<text text-anchor="start" x="117.128" y="-266.5" font-family="Helvetica,sans-Serif" font-size="10.00">+ operator!=()</text>
<text text-anchor="start" x="117.128" y="-255.5" font-family="Helvetica,sans-Serif" font-size="10.00">+ print()</text>
</a>
</g>
</g>
<!-- Node3&#45;&gt;Node9 -->
<g id="edge16" class="edge"><title>Node3&#45;&gt;Node9</title>
<path fill="none" stroke="#404040" d="M509.044,-782.398C473.915,-777.159 397.122,-763.593 337.128,-738 297.434,-721.067 279.549,-721.58 255.128,-686 206.395,-614.999 261.495,-569.809 217.128,-496 210.619,-485.172 200.581,-489.396 195.128,-478 190.881,-469.123 188.01,-459.52 186.176,-449.675"/>
<polygon fill="none" stroke="#404040" points="186.144,-449.455 181.329,-444.088 184.431,-437.578 189.247,-442.946 186.144,-449.455"/>
<text text-anchor="middle" x="265.128" y="-588.5" font-family="Helvetica,sans-Serif" font-size="10.00"> +itg</text>
</g>
<!-- Node4 -->
<g id="node4" class="node"><title>Node4</title>
<polygon fill="none" stroke="#bfbfbf" points="76.6281,-757 76.6281,-815 105.628,-815 105.628,-757 76.6281,-757"/>
<polyline fill="none" stroke="#bfbfbf" points="76.6281,-795 105.628,-795 "/>
<text text-anchor="middle" x="91.1281" y="-783" font-family="Helvetica,sans-Serif" font-size="10.00"> </text>
<polyline fill="none" stroke="#bfbfbf" points="76.6281,-776 105.628,-776 "/>
<text text-anchor="middle" x="91.1281" y="-764" font-family="Helvetica,sans-Serif" font-size="10.00"> </text>
</g>
<!-- Node4&#45;&gt;Node1 -->
<g id="edge11" class="edge"><title>Node4&#45;&gt;Node1</title>
<path fill="none" stroke="#404040" d="M83.1287,-756.809C61.0511,-673.082 6.84373,-420.955 100.128,-248 138.457,-176.936 217.275,-125.544 275.821,-95.2227"/>
<polygon fill="none" stroke="#404040" points="276.167,-95.0471 279.711,-88.767 286.871,-89.623 283.327,-95.9031 276.167,-95.0471"/>
<text text-anchor="middle" x="64.6281" y="-464.5" font-family="Helvetica,sans-Serif" font-size="10.00"> +@11</text>
</g>
<!-- Node4&#45;&gt;Node1 -->
<g id="edge13" class="edge"><title>Node4&#45;&gt;Node1</title>
<path fill="none" stroke="#404040" d="M76.615,-760.248C65.8683,-740.738 51.8103,-712.497 44.1281,-686 -10.0801,-499.031 -19.3957,-431.31 46.1281,-248 64.4986,-196.607 65.6819,-176.309 108.128,-142 156.056,-103.261 223.658,-83.2487 274.907,-73.0761"/>
<polygon fill="none" stroke="#404040" points="275.107,-73.0385 280.261,-67.9959 286.899,-70.8147 281.744,-75.8573 275.107,-73.0385"/>
<text text-anchor="middle" x="16.6281" y="-464.5" font-family="Helvetica,sans-Serif" font-size="10.00"> +@13</text>
</g>
<!-- Node4&#45;&gt;Node2 -->
<g id="edge3" class="edge"><title>Node4&#45;&gt;Node2</title>
<path fill="none" stroke="#404040" d="M105.671,-783.23C164.917,-775.96 385.446,-748.293 396.128,-738 474.528,-662.456 361.895,-577.461 434.128,-496 454.3,-473.251 477.947,-498.796 500.128,-478 509.01,-469.673 516.177,-459.556 521.96,-448.652"/>
<polygon fill="none" stroke="#404040" points="522.107,-448.345 521.094,-441.206 527.294,-437.524 528.308,-444.664 522.107,-448.345"/>
<text text-anchor="middle" x="446.628" y="-588.5" font-family="Helvetica,sans-Serif" font-size="10.00"> +@9</text>
</g>
<!-- Node4&#45;&gt;Node7 -->
<g id="edge8" class="edge"><title>Node4&#45;&gt;Node7</title>
<path fill="none" stroke="#404040" d="M106.054,-778.618C137.349,-764.786 211.224,-729.737 263.128,-686 267.461,-682.349 271.739,-678.436 275.927,-674.356"/>
<polygon fill="none" stroke="#404040" points="275.96,-674.322 277.323,-667.241 284.383,-665.776 283.02,-672.857 275.96,-674.322"/>
<text text-anchor="middle" x="250.628" y="-718.5" font-family="Helvetica,sans-Serif" font-size="10.00"> +@9</text>
</g>
<!-- Node4&#45;&gt;Node9 -->
<g id="edge17" class="edge"><title>Node4&#45;&gt;Node9</title>
<path fill="none" stroke="#404040" d="M88.1245,-756.767C83.4768,-704.179 77.7078,-588.204 105.128,-496 109.863,-480.079 116.595,-464.072 124.263,-448.731"/>
<polygon fill="none" stroke="#404040" points="124.467,-448.339 123.683,-441.17 129.998,-437.689 130.782,-444.858 124.467,-448.339"/>
<text text-anchor="middle" x="117.628" y="-588.5" font-family="Helvetica,sans-Serif" font-size="10.00"> +@9</text>
</g>
<!-- Node5 -->
<g id="node5" class="node"><title>Node5</title>
<polygon fill="none" stroke="#bfbfbf" points="657.628,-757.5 657.628,-814.5 692.628,-814.5 692.628,-757.5 657.628,-757.5"/>
<text text-anchor="middle" x="675.128" y="-802.5" font-family="Helvetica,sans-Serif" font-size="10.00">char</text>
<polyline fill="none" stroke="#bfbfbf" points="657.628,-795.5 692.628,-795.5 "/>
<text text-anchor="middle" x="675.128" y="-783.5" font-family="Helvetica,sans-Serif" font-size="10.00"> </text>
<polyline fill="none" stroke="#bfbfbf" points="657.628,-776.5 692.628,-776.5 "/>
<text text-anchor="middle" x="675.128" y="-764.5" font-family="Helvetica,sans-Serif" font-size="10.00"> </text>
</g>
<!-- Node5&#45;&gt;Node1 -->
<g id="edge14" class="edge"><title>Node5&#45;&gt;Node1</title>
<path fill="none" stroke="#404040" d="M684.651,-757.345C686.629,-751.034 688.58,-744.323 690.128,-738 695.707,-715.218 697.121,-709.369 699.128,-686 715.949,-490.176 736.987,-417.873 638.128,-248 590.254,-165.737 489.589,-114.198 420.419,-87.0123"/>
<polygon fill="none" stroke="#404040" points="420.378,-86.9966 413.343,-88.5814 409.175,-82.6973 416.21,-81.1125 420.378,-86.9966"/>
<text text-anchor="middle" x="743.628" y="-464.5" font-family="Helvetica,sans-Serif" font-size="10.00"> +magicString</text>
</g>
<!-- Node5&#45;&gt;Node2 -->
<g id="edge4" class="edge"><title>Node5&#45;&gt;Node2</title>
<path fill="none" stroke="#404040" d="M675.869,-757.355C676.402,-704.773 673.356,-587.44 640.128,-496 634.316,-480.007 626.681,-463.89 618.269,-448.436"/>
<polygon fill="none" stroke="#404040" points="618.204,-448.32 611.78,-445.043 612.334,-437.853 618.758,-441.13 618.204,-448.32"/>
<text text-anchor="middle" x="684.628" y="-588.5" font-family="Helvetica,sans-Serif" font-size="10.00"> +str</text>
</g>
<!-- Node5&#45;&gt;Node7 -->
<g id="edge9" class="edge"><title>Node5&#45;&gt;Node7</title>
<path fill="none" stroke="#404040" d="M657.554,-775.905C625.321,-759.535 554.256,-724.875 491.128,-704 456.938,-692.694 442.369,-705.553 412.128,-686 410.572,-684.994 409.036,-683.941 407.523,-682.846"/>
<polygon fill="none" stroke="#404040" points="407.199,-682.585 400.017,-681.937 397.853,-675.058 405.035,-675.706 407.199,-682.585"/>
<text text-anchor="middle" x="584.628" y="-718.5" font-family="Helvetica,sans-Serif" font-size="10.00"> +str</text>
</g>
<!-- Node5&#45;&gt;Node9 -->
<g id="edge18" class="edge"><title>Node5&#45;&gt;Node9</title>
<path fill="none" stroke="#404040" d="M657.333,-765.999C641.942,-749.573 619.086,-725.202 599.128,-704 591.586,-695.988 586.776,-695.974 582.128,-686 546.223,-608.946 603.316,-569.221 560.128,-496 508.755,-408.903 435.435,-471.786 340.128,-438 323.113,-431.968 306.07,-423.615 289.942,-414.356"/>
<polygon fill="none" stroke="#404040" points="289.807,-414.277 282.606,-414.657 279.485,-408.156 286.686,-407.776 289.807,-414.277"/>
<text text-anchor="middle" x="592.628" y="-588.5" font-family="Helvetica,sans-Serif" font-size="10.00"> +str</text>
</g>
<!-- Node6 -->
<g id="node6" class="node"><title>Node6</title>
<polygon fill="none" stroke="#bfbfbf" points="326.628,-757.5 326.628,-814.5 355.628,-814.5 355.628,-757.5 326.628,-757.5"/>
<text text-anchor="middle" x="341.128" y="-802.5" font-family="Helvetica,sans-Serif" font-size="10.00">int</text>
<polyline fill="none" stroke="#bfbfbf" points="326.628,-795.5 355.628,-795.5 "/>
<text text-anchor="middle" x="341.128" y="-783.5" font-family="Helvetica,sans-Serif" font-size="10.00"> </text>
<polyline fill="none" stroke="#bfbfbf" points="326.628,-776.5 355.628,-776.5 "/>
<text text-anchor="middle" x="341.128" y="-764.5" font-family="Helvetica,sans-Serif" font-size="10.00"> </text>
</g>
<!-- Node6&#45;&gt;Node2 -->
<g id="edge5" class="edge"><title>Node6&#45;&gt;Node2</title>
<path fill="none" stroke="#404040" d="M355.925,-782.605C379.023,-778.083 423.543,-766.095 448.128,-738 463.968,-719.899 456.963,-709.25 463.128,-686 485.396,-602.018 468.846,-572.982 509.128,-496 514.091,-486.516 520.559,-487.679 525.128,-478 529.391,-468.97 532.818,-459.254 535.568,-449.329"/>
<polygon fill="none" stroke="#404040" points="535.588,-449.25 533.161,-442.46 538.497,-437.608 540.923,-444.399 535.588,-449.25"/>
<text text-anchor="middle" x="534.628" y="-599.5" font-family="Helvetica,sans-Serif" font-size="10.00"> +arraySize</text>
<text text-anchor="middle" x="534.628" y="-588.5" font-family="Helvetica,sans-Serif" font-size="10.00">+size</text>
<text text-anchor="middle" x="534.628" y="-577.5" font-family="Helvetica,sans-Serif" font-size="10.00">+bitcount</text>
</g>
<!-- Node6&#45;&gt;Node7 -->
<g id="edge10" class="edge"><title>Node6&#45;&gt;Node7</title>
<path fill="none" stroke="#404040" d="M341.128,-757.348C341.128,-741.342 341.128,-720.063 341.128,-698.114"/>
<polygon fill="none" stroke="#404040" points="341.128,-697.881 337.128,-691.881 341.128,-685.881 345.128,-691.881 341.128,-697.881"/>
<text text-anchor="middle" x="366.628" y="-729.5" font-family="Helvetica,sans-Serif" font-size="10.00"> +arraySize</text>
<text text-anchor="middle" x="366.628" y="-718.5" font-family="Helvetica,sans-Serif" font-size="10.00">+size</text>
<text text-anchor="middle" x="366.628" y="-707.5" font-family="Helvetica,sans-Serif" font-size="10.00">+bitcount</text>
</g>
<!-- Node6&#45;&gt;Node9 -->
<g id="edge19" class="edge"><title>Node6&#45;&gt;Node9</title>
<path fill="none" stroke="#404040" d="M326.566,-782.543C290.082,-775.469 195.58,-751.217 166.128,-686 132.693,-611.964 142.822,-519.765 159.591,-449.759"/>
<polygon fill="none" stroke="#404040" points="159.659,-449.484 157.229,-442.695 162.561,-437.84 164.991,-444.629 159.659,-449.484"/>
<text text-anchor="middle" x="191.628" y="-599.5" font-family="Helvetica,sans-Serif" font-size="10.00"> +arraySize</text>
<text text-anchor="middle" x="191.628" y="-588.5" font-family="Helvetica,sans-Serif" font-size="10.00">+size</text>
<text text-anchor="middle" x="191.628" y="-577.5" font-family="Helvetica,sans-Serif" font-size="10.00">+bitcount</text>
</g>
<!-- Node7&#45;&gt;Node1 -->
<g id="edge21" class="edge"><title>Node7&#45;&gt;Node1</title>
<path fill="none" stroke="#404040" d="M342.371,-496.39C343.74,-393.353 345.911,-229.897 347.159,-135.938"/>
<polygon fill="none" stroke="#404040" points="347.162,-135.714 343.242,-129.661 347.322,-123.715 351.242,-129.767 347.162,-135.714"/>
<text text-anchor="middle" x="394.628" y="-346" font-family="Helvetica,sans-Serif" font-size="10.00"> +sHeaderType</text>
<text text-anchor="middle" x="394.628" y="-335" font-family="Helvetica,sans-Serif" font-size="10.00">+sSerializationMethod</text>
</g>
<!-- Node7&#45;&gt;Node2 -->
<g id="edge6" class="edge"><title>Node7&#45;&gt;Node2</title>
<path fill="none" stroke="orange" d="M360.509,-486.875C366.022,-475.407 373.085,-464.737 382.128,-456 404.303,-434.576 422.31,-453.216 449.128,-438 453.819,-435.338 458.45,-432.396 462.995,-429.246"/>
<polygon fill="orange" stroke="orange" points="357.221,-485.657 356.411,-496.221 363.632,-488.468 357.221,-485.657"/>
<text text-anchor="start" x="382.128" y="-470" font-family="Helvetica,sans-Serif" font-size="10.00"> &lt; gSizeHeaderDescription</text>
<text text-anchor="middle" x="441.128" y="-459" font-family="Helvetica,sans-Serif" font-size="10.00">String &gt;</text>
</g>
<!-- Node7&#45;&gt;Node9 -->
<g id="edge20" class="edge"><title>Node7&#45;&gt;Node9</title>
<path fill="none" stroke="orange" d="M277.117,-506.977C272.603,-503.024 267.931,-499.326 263.128,-496 243.022,-482.076 226.542,-496.988 211.128,-478 201.743,-466.439 195.968,-452.368 192.589,-437.745"/>
<polygon fill="orange" stroke="orange" points="274.838,-509.636 284.56,-513.847 279.586,-504.493 274.838,-509.636"/>
<text text-anchor="start" x="211.128" y="-470" font-family="Helvetica,sans-Serif" font-size="10.00"> &lt; gSizeSerializationMethod</text>
<text text-anchor="middle" x="272.628" y="-459" font-family="Helvetica,sans-Serif" font-size="10.00">String &gt;</text>
</g>
<!-- Node8 -->
<g id="node8" class="node"><title>Node8</title>
<polygon fill="none" stroke="#bfbfbf" points="772.628,-314.5 772.628,-371.5 823.628,-371.5 823.628,-314.5 772.628,-314.5"/>
<text text-anchor="middle" x="798.128" y="-359.5" font-family="Helvetica,sans-Serif" font-size="10.00">uint32_t</text>
<polyline fill="none" stroke="#bfbfbf" points="772.628,-352.5 823.628,-352.5 "/>
<text text-anchor="middle" x="798.128" y="-340.5" font-family="Helvetica,sans-Serif" font-size="10.00"> </text>
<polyline fill="none" stroke="#bfbfbf" points="772.628,-333.5 823.628,-333.5 "/>
<text text-anchor="middle" x="798.128" y="-321.5" font-family="Helvetica,sans-Serif" font-size="10.00"> </text>
</g>
<!-- Node8&#45;&gt;Node1 -->
<g id="edge12" class="edge"><title>Node8&#45;&gt;Node1</title>
<path fill="none" stroke="#404040" d="M801.387,-314.332C804.798,-271.144 804.361,-187.908 758.128,-142 711.618,-95.816 526.224,-75.4596 421.372,-67.4875"/>
<polygon fill="none" stroke="#404040" points="421.277,-67.4806 415,-71.0284 409.31,-66.5979 415.588,-63.0501 421.277,-67.4806"/>
<text text-anchor="middle" x="839.128" y="-222" font-family="Helvetica,sans-Serif" font-size="10.00"> +headerVersion</text>
<text text-anchor="middle" x="839.128" y="-211" font-family="Helvetica,sans-Serif" font-size="10.00">+headerSize</text>
<text text-anchor="middle" x="839.128" y="-200" font-family="Helvetica,sans-Serif" font-size="10.00">+sMagicString</text>
<text text-anchor="middle" x="839.128" y="-189" font-family="Helvetica,sans-Serif" font-size="10.00">+flagsNextHeader</text>
<text text-anchor="middle" x="839.128" y="-178" font-family="Helvetica,sans-Serif" font-size="10.00">+magicStringInt</text>
<text text-anchor="middle" x="839.128" y="-167" font-family="Helvetica,sans-Serif" font-size="10.00">+flagsUnused</text>
<text text-anchor="middle" x="839.128" y="-156" font-family="Helvetica,sans-Serif" font-size="10.00">+flags</text>
<text text-anchor="middle" x="839.128" y="-145" font-family="Helvetica,sans-Serif" font-size="10.00">+sVersion</text>
</g>
<!-- Node9&#45;&gt;Node1 -->
<g id="edge15" class="edge"><title>Node9&#45;&gt;Node1</title>
<path fill="none" stroke="#404040" d="M222.709,-248.32C235.458,-213.503 252.348,-174.576 273.128,-142 275.213,-138.731 277.445,-135.48 279.787,-132.263"/>
<polygon fill="none" stroke="#404040" points="279.795,-132.253 280.279,-125.058 287.107,-122.737 286.623,-129.932 279.795,-132.253"/>
<text text-anchor="middle" x="303.628" y="-183.5" font-family="Helvetica,sans-Serif" font-size="10.00"> +serialization</text>
</g>
</g>
</svg>
        <g id="navigator" transform="translate(0 0)" fill="#404254">
                <rect fill="#f2f5e9" fill-opacity="0.5" stroke="#606060" stroke-width=".5" x="0" y="0" width="60" height="60"/>
                <use id="zoomplus" xlink:href="#zoomPlus" x="17" y="9" onmousedown="handleZoom(evt,'in')"/>
                <use id="zoomminus" xlink:href="#zoomMin" x="42" y="9" onmousedown="handleZoom(evt,'out')"/>
                <use id="reset" xlink:href="#resetDef" x="30" y="36" onmousedown="handleReset()"/>
                <g id="arrowUp" xlink:href="#dirArrow" transform="translate(30 24)" onmousedown="handlePan(0,-1)">
                  <use xlink:href="#rim" fill="#404040">
                        <set attributeName="fill" to="#808080" begin="arrowUp.mouseover" end="arrowUp.mouseout"/>
                  </use>
                  <path fill="none" stroke="white" stroke-width="1.5" d="M0,-3.0v7 M-2.5,-0.5L0,-3.0L2.5,-0.5"/>
                </g>
                <g id="arrowRight" xlink:href="#dirArrow" transform="rotate(90) translate(36 -43)" onmousedown="handlePan(1,0)">
                  <use xlink:href="#rim" fill="#404040">
                        <set attributeName="fill" to="#808080" begin="arrowRight.mouseover" end="arrowRight.mouseout"/>
                  </use>
                  <path fill="none" stroke="white" stroke-width="1.5" d="M0,-3.0v7 M-2.5,-0.5L0,-3.0L2.5,-0.5"/>
                </g>
                <g id="arrowDown" xlink:href="#dirArrow" transform="rotate(180) translate(-30 -48)" onmousedown="handlePan(0,1)">
                  <use xlink:href="#rim" fill="#404040">
                        <set attributeName="fill" to="#808080" begin="arrowDown.mouseover" end="arrowDown.mouseout"/>
                  </use>
                  <path fill="none" stroke="white" stroke-width="1.5" d="M0,-3.0v7 M-2.5,-0.5L0,-3.0L2.5,-0.5"/>
                </g>
                <g id="arrowLeft" xlink:href="#dirArrow" transform="rotate(270) translate(-36 17)" onmousedown="handlePan(-1,0)">
                  <use xlink:href="#rim" fill="#404040">
                        <set attributeName="fill" to="#808080" begin="arrowLeft.mouseover" end="arrowLeft.mouseout"/>
                  </use>
                  <path fill="none" stroke="white" stroke-width="1.5" d="M0,-3.0v7 M-2.5,-0.5L0,-3.0L2.5,-0.5"/>
                </g>
        </g>
        <svg viewBox="0 0 15 15" width="100%" height="30px" preserveAspectRatio="xMaxYMin meet">
         <g id="arrow_out" transform="scale(0.3 0.3)">
          <a xlink:href="structo2_1_1header_1_1BaseHeader__coll__graph_org.svg" target="_base">
           <rect id="button" ry="5" rx="5" y="6" x="6" height="38" width="38"
                fill="#f2f5e9" fill-opacity="0.5" stroke="#606060" stroke-width="1.0"/>
           <path id="arrow"
             d="M 11.500037,31.436501 C 11.940474,20.09759 22.043105,11.32322 32.158766,21.979434 L 37.068811,17.246167 C 37.068811,17.246167 37.088388,32 37.088388,32 L 22.160133,31.978069 C 22.160133,31.978069 26.997745,27.140456 26.997745,27.140456 C 18.528582,18.264221 13.291696,25.230495 11.500037,31.436501 z"
             style="fill:#404040;"/>
          </a>
         </g>
        </svg>
</svg>
