<?xml version="1.0" encoding="UTF-8" standalone="no"?>
<!DOCTYPE svg PUBLIC "-//W3C//DTD SVG 1.1//EN"
 "http://www.w3.org/Graphics/SVG/1.1/DTD/svg11.dtd">
<!-- Generated by graphviz version 2.36.0 (20140111.2315)
 -->
<!-- Title: o2::DataFlow::StreamingState Pages: 1 -->
<svg width="1221pt" height="1156pt"
 viewBox="0.00 0.00 1221.47 1156.00" xmlns="http://www.w3.org/2000/svg" xmlns:xlink="http://www.w3.org/1999/xlink">
<g id="graph0" class="graph" transform="scale(1 1) rotate(0) translate(4 1152)">
<title>o2::DataFlow::StreamingState</title>
<!-- Node1 -->
<g id="node1" class="node"><title>Node1</title>
<polygon fill="#bfbfbf" stroke="black" points="556.968,-0.5 556.968,-57.5 705.968,-57.5 705.968,-0.5 556.968,-0.5"/>
<text text-anchor="middle" x="631.468" y="-45.5" font-family="Helvetica,sans-Serif" font-size="10.00">o2::DataFlow::StreamingState</text>
<polyline fill="none" stroke="black" points="556.968,-38.5 705.968,-38.5 "/>
<text text-anchor="middle" x="631.468" y="-26.5" font-family="Helvetica,sans-Serif" font-size="10.00"> </text>
<polyline fill="none" stroke="black" points="556.968,-19.5 705.968,-19.5 "/>
<text text-anchor="start" x="564.968" y="-7.5" font-family="Helvetica,sans-Serif" font-size="10.00">+ StreamingState()</text>
</g>
<!-- Node2 -->
<g id="node2" class="node"><title>Node2</title>
<polygon fill="none" stroke="#bfbfbf" points="464.968,-166.5 464.968,-223.5 537.968,-223.5 537.968,-166.5 464.968,-166.5"/>
<text text-anchor="middle" x="501.468" y="-211.5" font-family="Helvetica,sans-Serif" font-size="10.00">ParsingState</text>
<polyline fill="none" stroke="#bfbfbf" points="464.968,-204.5 537.968,-204.5 "/>
<text text-anchor="middle" x="501.468" y="-192.5" font-family="Helvetica,sans-Serif" font-size="10.00"> </text>
<polyline fill="none" stroke="#bfbfbf" points="464.968,-185.5 537.968,-185.5 "/>
<text text-anchor="middle" x="501.468" y="-173.5" font-family="Helvetica,sans-Serif" font-size="10.00"> </text>
</g>
<!-- Node2&#45;&gt;Node1 -->
<g id="edge1" class="edge"><title>Node2&#45;&gt;Node1</title>
<path fill="none" stroke="#404040" d="M502.22,-166.154C504.31,-140.113 511.137,-101.512 532.468,-76 536.542,-71.1269 541.247,-66.7414 546.346,-62.7992"/>
<polygon fill="none" stroke="#404040" points="546.695,-62.5589 549.368,-55.8615 556.579,-55.7531 553.906,-62.4505 546.695,-62.5589"/>
<text text-anchor="middle" x="547.968" y="-84.5" font-family="Helvetica,sans-Serif" font-size="10.00"> +state</text>
</g>
<!-- Node3 -->
<g id="node3" class="node"><title>Node3</title>
<polygon fill="none" stroke="#bfbfbf" points="555.968,-166.5 555.968,-223.5 590.968,-223.5 590.968,-166.5 555.968,-166.5"/>
<text text-anchor="middle" x="573.468" y="-211.5" font-family="Helvetica,sans-Serif" font-size="10.00">bool</text>
<polyline fill="none" stroke="#bfbfbf" points="555.968,-204.5 590.968,-204.5 "/>
<text text-anchor="middle" x="573.468" y="-192.5" font-family="Helvetica,sans-Serif" font-size="10.00"> </text>
<polyline fill="none" stroke="#bfbfbf" points="555.968,-185.5 590.968,-185.5 "/>
<text text-anchor="middle" x="573.468" y="-173.5" font-family="Helvetica,sans-Serif" font-size="10.00"> </text>
</g>
<!-- Node3&#45;&gt;Node1 -->
<g id="edge2" class="edge"><title>Node3&#45;&gt;Node1</title>
<path fill="none" stroke="#404040" d="M567.28,-166.258C563.168,-141.338 560.741,-104.407 574.468,-76 576.024,-72.7798 577.926,-69.7119 580.08,-66.8018"/>
<polygon fill="none" stroke="#404040" points="580.311,-66.5382 581.266,-59.3906 588.231,-57.523 587.276,-64.6707 580.311,-66.5382"/>
<text text-anchor="middle" x="621.468" y="-90" font-family="Helvetica,sans-Serif" font-size="10.00"> +hasDataHeader</text>
<text text-anchor="middle" x="621.468" y="-79" font-family="Helvetica,sans-Serif" font-size="10.00">+hasConcreteHeader</text>
</g>
<!-- Node4 -->
<g id="node4" class="node"><title>Node4</title>
<polygon fill="none" stroke="#bfbfbf" points="669.968,-166.5 669.968,-223.5 710.968,-223.5 710.968,-166.5 669.968,-166.5"/>
<text text-anchor="middle" x="690.468" y="-211.5" font-family="Helvetica,sans-Serif" font-size="10.00">void *</text>
<polyline fill="none" stroke="#bfbfbf" points="669.968,-204.5 710.968,-204.5 "/>
<text text-anchor="middle" x="690.468" y="-192.5" font-family="Helvetica,sans-Serif" font-size="10.00"> </text>
<polyline fill="none" stroke="#bfbfbf" points="669.968,-185.5 710.968,-185.5 "/>
<text text-anchor="middle" x="690.468" y="-173.5" font-family="Helvetica,sans-Serif" font-size="10.00"> </text>
</g>
<!-- Node4&#45;&gt;Node1 -->
<g id="edge3" class="edge"><title>Node4&#45;&gt;Node1</title>
<path fill="none" stroke="#404040" d="M689.117,-166.134C687.042,-141.461 681.784,-104.97 668.468,-76 667.195,-73.2296 665.717,-70.4819 664.101,-67.789"/>
<polygon fill="none" stroke="#404040" points="664.031,-67.6857 657.358,-64.9532 657.314,-57.7422 663.987,-60.4748 664.031,-67.6857"/>
<text text-anchor="middle" x="710.968" y="-90" font-family="Helvetica,sans-Serif" font-size="10.00"> +headerBuffer</text>
<text text-anchor="middle" x="710.968" y="-79" font-family="Helvetica,sans-Serif" font-size="10.00">+payloadBuffer</text>
</g>
<!-- Node5 -->
<g id="node5" class="node"><title>Node5</title>
<g id="a_node5"><a xlink:href="../../db/d87/structo2_1_1header_1_1DataHeader.html" target="_top" xlink:title="the main header struct ">
<polygon fill="none" stroke="black" points="728.968,-117 728.968,-273 849.968,-273 849.968,-117 728.968,-117"/>
<text text-anchor="middle" x="789.468" y="-261" font-family="Helvetica,sans-Serif" font-size="10.00">o2::header::DataHeader</text>
<polyline fill="none" stroke="black" points="728.968,-254 849.968,-254 "/>
<text text-anchor="middle" x="789.468" y="-242" font-family="Helvetica,sans-Serif" font-size="10.00"> </text>
<polyline fill="none" stroke="black" points="728.968,-235 849.968,-235 "/>
<text text-anchor="start" x="736.968" y="-223" font-family="Helvetica,sans-Serif" font-size="10.00">+ DataHeader()</text>
<text text-anchor="start" x="736.968" y="-212" font-family="Helvetica,sans-Serif" font-size="10.00">+ DataHeader()</text>
<text text-anchor="start" x="736.968" y="-201" font-family="Helvetica,sans-Serif" font-size="10.00">+ DataHeader()</text>
<text text-anchor="start" x="736.968" y="-190" font-family="Helvetica,sans-Serif" font-size="10.00">+ operator=()</text>
<text text-anchor="start" x="736.968" y="-179" font-family="Helvetica,sans-Serif" font-size="10.00">+ operator==()</text>
<text text-anchor="start" x="736.968" y="-168" font-family="Helvetica,sans-Serif" font-size="10.00">+ operator==()</text>
<text text-anchor="start" x="736.968" y="-157" font-family="Helvetica,sans-Serif" font-size="10.00">+ operator==()</text>
<text text-anchor="start" x="736.968" y="-146" font-family="Helvetica,sans-Serif" font-size="10.00">+ operator==()</text>
<text text-anchor="start" x="736.968" y="-135" font-family="Helvetica,sans-Serif" font-size="10.00">+ print()</text>
<text text-anchor="start" x="736.968" y="-124" font-family="Helvetica,sans-Serif" font-size="10.00">+ Get()</text>
</a>
</g>
</g>
<!-- Node5&#45;&gt;Node1 -->
<g id="edge4" class="edge"><title>Node5&#45;&gt;Node1</title>
<path fill="none" stroke="#404040" d="M773.382,-116.816C767.482,-101.919 759.436,-87.4175 748.468,-76 739.645,-66.8153 728.766,-59.4277 717.226,-53.4952"/>
<polygon fill="none" stroke="#404040" points="716.872,-53.3299 709.742,-54.4086 706.004,-48.242 713.134,-47.1633 716.872,-53.3299"/>
<text text-anchor="middle" x="774.468" y="-84.5" font-family="Helvetica,sans-Serif" font-size="10.00"> +dh</text>
</g>
<!-- Node6 -->
<g id="node6" class="node"><title>Node6</title>
<g id="a_node6"><a xlink:href="../../d8/dbd/structo2_1_1header_1_1BaseHeader.html" target="_top" xlink:title="the base header struct Every header type must begin (i.e. derive) with this. Don&#39;t use this struct di...">
<polygon fill="none" stroke="black" points="422.468,-332.5 422.468,-455.5 544.468,-455.5 544.468,-332.5 422.468,-332.5"/>
<text text-anchor="middle" x="483.468" y="-443.5" font-family="Helvetica,sans-Serif" font-size="10.00">o2::header::BaseHeader</text>
<polyline fill="none" stroke="black" points="422.468,-436.5 544.468,-436.5 "/>
<text text-anchor="middle" x="483.468" y="-424.5" font-family="Helvetica,sans-Serif" font-size="10.00"> </text>
<polyline fill="none" stroke="black" points="422.468,-417.5 544.468,-417.5 "/>
<text text-anchor="start" x="430.468" y="-405.5" font-family="Helvetica,sans-Serif" font-size="10.00">+ BaseHeader()</text>
<text text-anchor="start" x="430.468" y="-394.5" font-family="Helvetica,sans-Serif" font-size="10.00">+ BaseHeader()</text>
<text text-anchor="start" x="430.468" y="-383.5" font-family="Helvetica,sans-Serif" font-size="10.00">+ BaseHeader()</text>
<text text-anchor="start" x="430.468" y="-372.5" font-family="Helvetica,sans-Serif" font-size="10.00">+ size()</text>
<text text-anchor="start" x="430.468" y="-361.5" font-family="Helvetica,sans-Serif" font-size="10.00">+ data()</text>
<text text-anchor="start" x="430.468" y="-350.5" font-family="Helvetica,sans-Serif" font-size="10.00">+ next()</text>
<text text-anchor="start" x="430.468" y="-339.5" font-family="Helvetica,sans-Serif" font-size="10.00">+ get()</text>
</a>
</g>
</g>
<!-- Node6&#45;&gt;Node5 -->
<g id="edge5" class="edge"><title>Node6&#45;&gt;Node5</title>
<path fill="none" stroke="midnightblue" d="M553.769,-365.776C602.895,-344.854 668.546,-312.97 719.468,-274 722.647,-271.567 725.796,-268.977 728.898,-266.273"/>
<polygon fill="none" stroke="midnightblue" points="552.344,-362.578 544.485,-369.684 555.06,-369.03 552.344,-362.578"/>
</g>
<!-- Node7 -->
<g id="node7" class="node"><title>Node7</title>
<g id="a_node7"><a xlink:href="../../d9/db3/structo2_1_1header_1_1Descriptor.html" target="_top" xlink:title="{o2::header::Descriptor\l\&lt; gSizeHeaderDescriptionString \&gt;\n||+ Descriptor()\l+ Descriptor()\l+ Descriptor()\l+ Descriptor()\l+ operator=()\l+ operator ItgType()\l+ runtimeInit()\l+ operator==()\l+ operator==()\l+ operator!=()\l+ operator!=()\l+ print()\l}">
<polygon fill="none" stroke="black" points="487.468,-580.5 487.468,-769.5 653.468,-769.5 653.468,-580.5 487.468,-580.5"/>
<text text-anchor="start" x="495.468" y="-757.5" font-family="Helvetica,sans-Serif" font-size="10.00">o2::header::Descriptor</text>
<text text-anchor="middle" x="570.468" y="-746.5" font-family="Helvetica,sans-Serif" font-size="10.00">&lt; gSizeHeaderDescriptionString &gt;</text>
<polyline fill="none" stroke="black" points="487.468,-739.5 653.468,-739.5 "/>
<text text-anchor="middle" x="570.468" y="-727.5" font-family="Helvetica,sans-Serif" font-size="10.00"> </text>
<polyline fill="none" stroke="black" points="487.468,-720.5 653.468,-720.5 "/>
<text text-anchor="start" x="495.468" y="-708.5" font-family="Helvetica,sans-Serif" font-size="10.00">+ Descriptor()</text>
<text text-anchor="start" x="495.468" y="-697.5" font-family="Helvetica,sans-Serif" font-size="10.00">+ Descriptor()</text>
<text text-anchor="start" x="495.468" y="-686.5" font-family="Helvetica,sans-Serif" font-size="10.00">+ Descriptor()</text>
<text text-anchor="start" x="495.468" y="-675.5" font-family="Helvetica,sans-Serif" font-size="10.00">+ Descriptor()</text>
<text text-anchor="start" x="495.468" y="-664.5" font-family="Helvetica,sans-Serif" font-size="10.00">+ operator=()</text>
<text text-anchor="start" x="495.468" y="-653.5" font-family="Helvetica,sans-Serif" font-size="10.00">+ operator ItgType()</text>
<text text-anchor="start" x="495.468" y="-642.5" font-family="Helvetica,sans-Serif" font-size="10.00">+ runtimeInit()</text>
<text text-anchor="start" x="495.468" y="-631.5" font-family="Helvetica,sans-Serif" font-size="10.00">+ operator==()</text>
<text text-anchor="start" x="495.468" y="-620.5" font-family="Helvetica,sans-Serif" font-size="10.00">+ operator==()</text>
<text text-anchor="start" x="495.468" y="-609.5" font-family="Helvetica,sans-Serif" font-size="10.00">+ operator!=()</text>
<text text-anchor="start" x="495.468" y="-598.5" font-family="Helvetica,sans-Serif" font-size="10.00">+ operator!=()</text>
<text text-anchor="start" x="495.468" y="-587.5" font-family="Helvetica,sans-Serif" font-size="10.00">+ print()</text>
</a>
</g>
</g>
<!-- Node7&#45;&gt;Node6 -->
<g id="edge6" class="edge"><title>Node7&#45;&gt;Node6</title>
<path fill="none" stroke="#404040" d="M531.72,-580.233C529.517,-574.094 527.411,-567.979 525.468,-562 515.56,-531.513 506.584,-497.267 499.497,-467.76"/>
<polygon fill="none" stroke="#404040" points="499.443,-467.532 494.168,-462.616 496.678,-455.855 501.953,-460.772 499.443,-467.532"/>
<text text-anchor="middle" x="553.968" y="-515.5" font-family="Helvetica,sans-Serif" font-size="10.00"> +description</text>
</g>
<!-- Node8 -->
<g id="node8" class="node"><title>Node8</title>
<polygon fill="none" stroke="#bfbfbf" points="431.468,-1089.5 431.468,-1146.5 469.468,-1146.5 469.468,-1089.5 431.468,-1089.5"/>
<text text-anchor="middle" x="450.468" y="-1134.5" font-family="Helvetica,sans-Serif" font-size="10.00">Type</text>
<polyline fill="none" stroke="#bfbfbf" points="431.468,-1127.5 469.468,-1127.5 "/>
<text text-anchor="middle" x="450.468" y="-1115.5" font-family="Helvetica,sans-Serif" font-size="10.00"> </text>
<polyline fill="none" stroke="#bfbfbf" points="431.468,-1108.5 469.468,-1108.5 "/>
<text text-anchor="middle" x="450.468" y="-1096.5" font-family="Helvetica,sans-Serif" font-size="10.00"> </text>
</g>
<!-- Node8&#45;&gt;Node7 -->
<g id="edge7" class="edge"><title>Node8&#45;&gt;Node7</title>
<path fill="none" stroke="#404040" d="M469.694,-1093.19C484.298,-1073.97 503.798,-1045.66 515.468,-1018 549.088,-938.319 498.616,-891.37 557.468,-828 576.414,-807.6 600.849,-832.336 617.468,-810 623.85,-801.422 626.721,-791.905 627.087,-782.013"/>
<polygon fill="none" stroke="#404040" points="627.074,-781.778 622.724,-776.027 626.36,-769.8 630.71,-775.551 627.074,-781.778"/>
<text text-anchor="middle" x="567.468" y="-920.5" font-family="Helvetica,sans-Serif" font-size="10.00"> +itg</text>
</g>
<!-- Node12 -->
<g id="node12" class="node"><title>Node12</title>
<g id="a_node12"><a xlink:href="../../d9/db3/structo2_1_1header_1_1Descriptor.html" target="_top" xlink:title="{o2::header::Descriptor\l\&lt; N, PrinterPolicy \&gt;\n||+ Descriptor()\l+ Descriptor()\l+ Descriptor()\l+ operator=()\l+ operator ItgType()\l+ Descriptor()\l+ runtimeInit()\l+ operator==()\l+ operator!=()\l+ operator==()\l+ operator!=()\l+ print()\l}">
<polygon fill="none" stroke="black" points="393.968,-828.5 393.968,-1017.5 506.968,-1017.5 506.968,-828.5 393.968,-828.5"/>
<text text-anchor="start" x="401.968" y="-1005.5" font-family="Helvetica,sans-Serif" font-size="10.00">o2::header::Descriptor</text>
<text text-anchor="middle" x="450.468" y="-994.5" font-family="Helvetica,sans-Serif" font-size="10.00">&lt; N, PrinterPolicy &gt;</text>
<polyline fill="none" stroke="black" points="393.968,-987.5 506.968,-987.5 "/>
<text text-anchor="middle" x="450.468" y="-975.5" font-family="Helvetica,sans-Serif" font-size="10.00"> </text>
<polyline fill="none" stroke="black" points="393.968,-968.5 506.968,-968.5 "/>
<text text-anchor="start" x="401.968" y="-956.5" font-family="Helvetica,sans-Serif" font-size="10.00">+ Descriptor()</text>
<text text-anchor="start" x="401.968" y="-945.5" font-family="Helvetica,sans-Serif" font-size="10.00">+ Descriptor()</text>
<text text-anchor="start" x="401.968" y="-934.5" font-family="Helvetica,sans-Serif" font-size="10.00">+ Descriptor()</text>
<text text-anchor="start" x="401.968" y="-923.5" font-family="Helvetica,sans-Serif" font-size="10.00">+ operator=()</text>
<text text-anchor="start" x="401.968" y="-912.5" font-family="Helvetica,sans-Serif" font-size="10.00">+ operator ItgType()</text>
<text text-anchor="start" x="401.968" y="-901.5" font-family="Helvetica,sans-Serif" font-size="10.00">+ Descriptor()</text>
<text text-anchor="start" x="401.968" y="-890.5" font-family="Helvetica,sans-Serif" font-size="10.00">+ runtimeInit()</text>
<text text-anchor="start" x="401.968" y="-879.5" font-family="Helvetica,sans-Serif" font-size="10.00">+ operator==()</text>
<text text-anchor="start" x="401.968" y="-868.5" font-family="Helvetica,sans-Serif" font-size="10.00">+ operator!=()</text>
<text text-anchor="start" x="401.968" y="-857.5" font-family="Helvetica,sans-Serif" font-size="10.00">+ operator==()</text>
<text text-anchor="start" x="401.968" y="-846.5" font-family="Helvetica,sans-Serif" font-size="10.00">+ operator!=()</text>
<text text-anchor="start" x="401.968" y="-835.5" font-family="Helvetica,sans-Serif" font-size="10.00">+ print()</text>
</a>
</g>
</g>
<!-- Node8&#45;&gt;Node12 -->
<g id="edge12" class="edge"><title>Node8&#45;&gt;Node12</title>
<path fill="none" stroke="#404040" d="M450.468,-1089.35C450.468,-1073.34 450.468,-1052.06 450.468,-1030.11"/>
<polygon fill="none" stroke="#404040" points="450.468,-1029.88 446.468,-1023.88 450.468,-1017.88 454.468,-1023.88 450.468,-1029.88"/>
<text text-anchor="middle" x="460.468" y="-1050.5" font-family="Helvetica,sans-Serif" font-size="10.00"> +itg</text>
</g>
<!-- Node14 -->
<g id="node14" class="node"><title>Node14</title>
<g id="a_node14"><a xlink:href="../../d9/db3/structo2_1_1header_1_1Descriptor.html" target="_top" xlink:title="{o2::header::Descriptor\l\&lt; gSizeSerializationMethodString \&gt;\n||+ Descriptor()\l+ Descriptor()\l+ Descriptor()\l+ Descriptor()\l+ operator=()\l+ operator ItgType()\l+ runtimeInit()\l+ operator==()\l+ operator==()\l+ operator!=()\l+ operator!=()\l+ print()\l}">
<polygon fill="none" stroke="black" points="166.468,-580.5 166.468,-769.5 336.468,-769.5 336.468,-580.5 166.468,-580.5"/>
<text text-anchor="start" x="174.468" y="-757.5" font-family="Helvetica,sans-Serif" font-size="10.00">o2::header::Descriptor</text>
<text text-anchor="middle" x="251.468" y="-746.5" font-family="Helvetica,sans-Serif" font-size="10.00">&lt; gSizeSerializationMethodString &gt;</text>
<polyline fill="none" stroke="black" points="166.468,-739.5 336.468,-739.5 "/>
<text text-anchor="middle" x="251.468" y="-727.5" font-family="Helvetica,sans-Serif" font-size="10.00"> </text>
<polyline fill="none" stroke="black" points="166.468,-720.5 336.468,-720.5 "/>
<text text-anchor="start" x="174.468" y="-708.5" font-family="Helvetica,sans-Serif" font-size="10.00">+ Descriptor()</text>
<text text-anchor="start" x="174.468" y="-697.5" font-family="Helvetica,sans-Serif" font-size="10.00">+ Descriptor()</text>
<text text-anchor="start" x="174.468" y="-686.5" font-family="Helvetica,sans-Serif" font-size="10.00">+ Descriptor()</text>
<text text-anchor="start" x="174.468" y="-675.5" font-family="Helvetica,sans-Serif" font-size="10.00">+ Descriptor()</text>
<text text-anchor="start" x="174.468" y="-664.5" font-family="Helvetica,sans-Serif" font-size="10.00">+ operator=()</text>
<text text-anchor="start" x="174.468" y="-653.5" font-family="Helvetica,sans-Serif" font-size="10.00">+ operator ItgType()</text>
<text text-anchor="start" x="174.468" y="-642.5" font-family="Helvetica,sans-Serif" font-size="10.00">+ runtimeInit()</text>
<text text-anchor="start" x="174.468" y="-631.5" font-family="Helvetica,sans-Serif" font-size="10.00">+ operator==()</text>
<text text-anchor="start" x="174.468" y="-620.5" font-family="Helvetica,sans-Serif" font-size="10.00">+ operator==()</text>
<text text-anchor="start" x="174.468" y="-609.5" font-family="Helvetica,sans-Serif" font-size="10.00">+ operator!=()</text>
<text text-anchor="start" x="174.468" y="-598.5" font-family="Helvetica,sans-Serif" font-size="10.00">+ operator!=()</text>
<text text-anchor="start" x="174.468" y="-587.5" font-family="Helvetica,sans-Serif" font-size="10.00">+ print()</text>
</a>
</g>
</g>
<!-- Node8&#45;&gt;Node14 -->
<g id="edge21" class="edge"><title>Node8&#45;&gt;Node14</title>
<path fill="none" stroke="#404040" d="M431.311,-1112.24C394.819,-1102.04 315.99,-1074.28 282.468,-1018 240.361,-947.307 234.646,-853.435 238.321,-781.924"/>
<polygon fill="none" stroke="#404040" points="238.333,-781.725 234.698,-775.497 239.048,-769.746 242.683,-775.974 238.333,-781.725"/>
<text text-anchor="middle" x="292.468" y="-920.5" font-family="Helvetica,sans-Serif" font-size="10.00"> +itg</text>
</g>
<!-- Node9 -->
<g id="node9" class="node"><title>Node9</title>
<polygon fill="none" stroke="#bfbfbf" points="44.968,-1089 44.968,-1147 73.968,-1147 73.968,-1089 44.968,-1089"/>
<polyline fill="none" stroke="#bfbfbf" points="44.968,-1127 73.968,-1127 "/>
<text text-anchor="middle" x="59.468" y="-1115" font-family="Helvetica,sans-Serif" font-size="10.00"> </text>
<polyline fill="none" stroke="#bfbfbf" points="44.968,-1108 73.968,-1108 "/>
<text text-anchor="middle" x="59.468" y="-1096" font-family="Helvetica,sans-Serif" font-size="10.00"> </text>
</g>
<!-- Node9&#45;&gt;Node6 -->
<g id="edge16" class="edge"><title>Node9&#45;&gt;Node6</title>
<path fill="none" stroke="#404040" d="M50.5572,-1088.9C48.9219,-1082.73 47.4299,-1076.19 46.468,-1070 42.917,-1047.15 44.9125,-1041.12 44.468,-1018 42.8449,-933.571 31.2549,-911.404 44.468,-828 57.7013,-744.468 102.436,-655.393 157.468,-580 197.875,-524.642 207.443,-503.159 269.468,-474 325.804,-447.516 353.84,-479.474 410.729,-458.446"/>
<polygon fill="none" stroke="#404040" points="411.031,-458.32 415.024,-452.315 422.103,-453.691 418.11,-459.696 411.031,-458.32"/>
<text text-anchor="middle" x="68.968" y="-796.5" font-family="Helvetica,sans-Serif" font-size="10.00"> +@11</text>
</g>
<!-- Node9&#45;&gt;Node6 -->
<g id="edge18" class="edge"><title>Node9&#45;&gt;Node6</title>
<path fill="none" stroke="#404040" d="M46.654,-1088.83C44.2813,-1082.72 42.0546,-1076.23 40.468,-1070 34.723,-1047.46 36.9698,-1041.13 34.468,-1018 13.5117,-824.261 -39.9794,-750.452 54.468,-580 87.8424,-519.768 104.388,-501.616 167.468,-474 265.828,-430.938 311.877,-495.32 410.797,-458.388"/>
<polygon fill="none" stroke="#404040" points="411.025,-458.296 415.088,-452.338 422.15,-453.796 418.088,-459.754 411.025,-458.296"/>
<text text-anchor="middle" x="18.968" y="-796.5" font-family="Helvetica,sans-Serif" font-size="10.00"> +@13</text>
</g>
<!-- Node9&#45;&gt;Node7 -->
<g id="edge8" class="edge"><title>Node9&#45;&gt;Node7</title>
<path fill="none" stroke="#404040" d="M74.2206,-1110.25C101.433,-1096.93 159.149,-1064.48 185.468,-1018 227.408,-943.935 162.886,-899.237 209.468,-828 275.166,-727.529 364.92,-818.023 476.073,-772.536"/>
<polygon fill="none" stroke="#404040" points="476.298,-772.436 480.137,-766.332 487.248,-767.528 483.409,-773.632 476.298,-772.436"/>
<text text-anchor="middle" x="221.968" y="-920.5" font-family="Helvetica,sans-Serif" font-size="10.00"> +@9</text>
</g>
<!-- Node9&#45;&gt;Node12 -->
<g id="edge13" class="edge"><title>Node9&#45;&gt;Node12</title>
<path fill="none" stroke="#404040" d="M74.2033,-1112.72C135.315,-1094.91 366.259,-1027.27 379.468,-1018 381.194,-1016.79 382.897,-1015.52 384.574,-1014.21"/>
<polygon fill="none" stroke="#404040" points="384.804,-1014.01 386.749,-1007.07 393.906,-1006.19 391.962,-1013.13 384.804,-1014.01"/>
<text text-anchor="middle" x="339.968" y="-1050.5" font-family="Helvetica,sans-Serif" font-size="10.00"> +@9</text>
</g>
<!-- Node9&#45;&gt;Node14 -->
<g id="edge22" class="edge"><title>Node9&#45;&gt;Node14</title>
<path fill="none" stroke="#404040" d="M54.8523,-1088.93C47.3882,-1035.11 37.5089,-915.069 80.468,-828 97.7539,-792.965 126.999,-762.414 156.461,-738.073"/>
<polygon fill="none" stroke="#404040" points="156.667,-737.909 158.838,-731.032 166.02,-730.391 163.849,-737.268 156.667,-737.909"/>
<text text-anchor="middle" x="92.968" y="-920.5" font-family="Helvetica,sans-Serif" font-size="10.00"> +@9</text>
</g>
<!-- Node10 -->
<g id="node10" class="node"><title>Node10</title>
<polygon fill="none" stroke="#bfbfbf" points="612.968,-1089.5 612.968,-1146.5 647.968,-1146.5 647.968,-1089.5 612.968,-1089.5"/>
<text text-anchor="middle" x="630.468" y="-1134.5" font-family="Helvetica,sans-Serif" font-size="10.00">char</text>
<polyline fill="none" stroke="#bfbfbf" points="612.968,-1127.5 647.968,-1127.5 "/>
<text text-anchor="middle" x="630.468" y="-1115.5" font-family="Helvetica,sans-Serif" font-size="10.00"> </text>
<polyline fill="none" stroke="#bfbfbf" points="612.968,-1108.5 647.968,-1108.5 "/>
<text text-anchor="middle" x="630.468" y="-1096.5" font-family="Helvetica,sans-Serif" font-size="10.00"> </text>
</g>
<!-- Node10&#45;&gt;Node6 -->
<g id="edge19" class="edge"><title>Node10&#45;&gt;Node6</title>
<path fill="none" stroke="#404040" d="M648.177,-1092.85C661.018,-1073.66 677.187,-1045.56 683.468,-1018 694.294,-970.495 692.38,-618.46 662.468,-580 647.454,-560.695 627.542,-579.51 610.468,-562 581.814,-532.615 605.733,-507.812 582.468,-474 574.611,-462.581 564.621,-451.996 554.025,-442.526"/>
<polygon fill="none" stroke="#404040" points="553.732,-442.277 546.571,-441.433 544.595,-434.498 551.757,-435.342 553.732,-442.277"/>
<text text-anchor="middle" x="719.968" y="-796.5" font-family="Helvetica,sans-Serif" font-size="10.00"> +magicString</text>
</g>
<!-- Node10&#45;&gt;Node7 -->
<g id="edge9" class="edge"><title>Node10&#45;&gt;Node7</title>
<path fill="none" stroke="#404040" d="M637.24,-1089.41C650.11,-1031.93 674.117,-895.76 642.468,-788 641.796,-785.713 641.062,-783.428 640.271,-781.149"/>
<polygon fill="none" stroke="#404040" points="640.216,-781.009 634.316,-776.864 635.872,-769.823 641.773,-773.968 640.216,-781.009"/>
<text text-anchor="middle" x="668.968" y="-920.5" font-family="Helvetica,sans-Serif" font-size="10.00"> +str</text>
</g>
<!-- Node10&#45;&gt;Node12 -->
<g id="edge14" class="edge"><title>Node10&#45;&gt;Node12</title>
<path fill="none" stroke="#404040" d="M612.838,-1104.29C600.574,-1095.19 584.053,-1082.4 570.468,-1070 550.924,-1052.16 531.784,-1031.07 514.734,-1010.55"/>
<polygon fill="none" stroke="#404040" points="514.658,-1010.46 507.762,-1008.35 507.053,-1001.18 513.95,-1003.28 514.658,-1010.46"/>
<text text-anchor="middle" x="580.968" y="-1050.5" font-family="Helvetica,sans-Serif" font-size="10.00"> +str</text>
</g>
<!-- Node10&#45;&gt;Node14 -->
<g id="edge23" class="edge"><title>Node10&#45;&gt;Node14</title>
<path fill="none" stroke="#404040" d="M629.243,-1089.23C625.788,-1024.2 613.734,-864.774 577.468,-828 548.519,-798.645 526.035,-821.584 486.468,-810 460.805,-802.487 456.021,-795.881 430.468,-788 396.057,-777.386 383.254,-786.924 351.468,-770 349.891,-769.16 348.32,-768.289 346.757,-767.389"/>
<polygon fill="none" stroke="#404040" points="346.753,-767.386 339.546,-767.618 336.559,-761.055 343.767,-760.823 346.753,-767.386"/>
<text text-anchor="middle" x="634.968" y="-920.5" font-family="Helvetica,sans-Serif" font-size="10.00"> +str</text>
</g>
<!-- Node11 -->
<g id="node11" class="node"><title>Node11</title>
<polygon fill="none" stroke="#bfbfbf" points="309.968,-1089.5 309.968,-1146.5 338.968,-1146.5 338.968,-1089.5 309.968,-1089.5"/>
<text text-anchor="middle" x="324.468" y="-1134.5" font-family="Helvetica,sans-Serif" font-size="10.00">int</text>
<polyline fill="none" stroke="#bfbfbf" points="309.968,-1127.5 338.968,-1127.5 "/>
<text text-anchor="middle" x="324.468" y="-1115.5" font-family="Helvetica,sans-Serif" font-size="10.00"> </text>
<polyline fill="none" stroke="#bfbfbf" points="309.968,-1108.5 338.968,-1108.5 "/>
<text text-anchor="middle" x="324.468" y="-1096.5" font-family="Helvetica,sans-Serif" font-size="10.00"> </text>
</g>
<!-- Node11&#45;&gt;Node7 -->
<g id="edge10" class="edge"><title>Node11&#45;&gt;Node7</title>
<path fill="none" stroke="#404040" d="M324.867,-1089.04C325.368,-1025.78 324.2,-873.663 302.468,-828 297.469,-817.497 288.064,-820.686 283.468,-810 279.604,-801.018 276.873,-795.219 283.468,-788 311.137,-757.716 423.469,-784.653 475.646,-771.616"/>
<polygon fill="none" stroke="#404040" points="475.929,-771.516 480.255,-765.747 487.245,-767.521 482.919,-773.29 475.929,-771.516"/>
<text text-anchor="middle" x="349.968" y="-931.5" font-family="Helvetica,sans-Serif" font-size="10.00"> +arraySize</text>
<text text-anchor="middle" x="349.968" y="-920.5" font-family="Helvetica,sans-Serif" font-size="10.00">+size</text>
<text text-anchor="middle" x="349.968" y="-909.5" font-family="Helvetica,sans-Serif" font-size="10.00">+bitcount</text>
</g>
<!-- Node11&#45;&gt;Node12 -->
<g id="edge15" class="edge"><title>Node11&#45;&gt;Node12</title>
<path fill="none" stroke="#404040" d="M339.168,-1094.48C351.252,-1075.97 369.26,-1048.39 387.288,-1020.78"/>
<polygon fill="none" stroke="#404040" points="387.36,-1020.67 387.291,-1013.45 393.92,-1010.62 393.989,-1017.83 387.36,-1020.67"/>
<text text-anchor="middle" x="401.968" y="-1061.5" font-family="Helvetica,sans-Serif" font-size="10.00"> +arraySize</text>
<text text-anchor="middle" x="401.968" y="-1050.5" font-family="Helvetica,sans-Serif" font-size="10.00">+size</text>
<text text-anchor="middle" x="401.968" y="-1039.5" font-family="Helvetica,sans-Serif" font-size="10.00">+bitcount</text>
</g>
<!-- Node11&#45;&gt;Node14 -->
<g id="edge24" class="edge"><title>Node11&#45;&gt;Node14</title>
<path fill="none" stroke="#404040" d="M309.843,-1114.79C272.132,-1108.21 171.932,-1084.84 134.468,-1018 93.1789,-944.338 107.264,-907.942 134.468,-828 140.408,-810.544 149.253,-793.528 159.467,-777.579"/>
<polygon fill="none" stroke="#404040" points="159.695,-777.237 159.701,-770.026 166.36,-767.258 166.354,-774.469 159.695,-777.237"/>
<text text-anchor="middle" x="159.968" y="-931.5" font-family="Helvetica,sans-Serif" font-size="10.00"> +arraySize</text>
<text text-anchor="middle" x="159.968" y="-920.5" font-family="Helvetica,sans-Serif" font-size="10.00">+size</text>
<text text-anchor="middle" x="159.968" y="-909.5" font-family="Helvetica,sans-Serif" font-size="10.00">+bitcount</text>
</g>
<!-- Node12&#45;&gt;Node5 -->
<g id="edge32" class="edge"><title>Node12&#45;&gt;Node5</title>
<path fill="none" stroke="#404040" d="M507.153,-831.015C508.564,-829.964 510.002,-828.958 511.468,-828 552.941,-800.906 573.184,-821.081 621.468,-810 654.91,-802.325 662.343,-796.947 695.468,-788 728.145,-779.174 748.092,-796.244 769.468,-770 799.261,-733.421 795.935,-437.233 792.174,-285.262"/>
<polygon fill="none" stroke="#404040" points="792.174,-285.237 788.023,-279.34 791.869,-273.24 796.02,-279.137 792.174,-285.237"/>
<text text-anchor="middle" x="843.968" y="-521" font-family="Helvetica,sans-Serif" font-size="10.00"> +sHeaderType</text>
<text text-anchor="middle" x="843.968" y="-510" font-family="Helvetica,sans-Serif" font-size="10.00">+sSerializationMethod</text>
</g>
<!-- Node12&#45;&gt;Node6 -->
<g id="edge26" class="edge"><title>Node12&#45;&gt;Node6</title>
<path fill="none" stroke="#404040" d="M446.247,-828.379C442.202,-813.741 435.948,-799.634 426.468,-788 412.861,-771.302 393.544,-787.837 381.468,-770 334.126,-700.074 360.417,-661.779 381.468,-580 391.78,-539.938 412.806,-499.265 433.103,-466.296"/>
<polygon fill="none" stroke="#404040" points="433.268,-466.034 433.074,-458.825 439.653,-455.874 439.848,-463.082 433.268,-466.034"/>
<text text-anchor="middle" x="429.968" y="-678" font-family="Helvetica,sans-Serif" font-size="10.00"> +sHeaderType</text>
<text text-anchor="middle" x="429.968" y="-667" font-family="Helvetica,sans-Serif" font-size="10.00">+sSerializationMethod</text>
</g>
<!-- Node12&#45;&gt;Node7 -->
<g id="edge11" class="edge"><title>Node12&#45;&gt;Node7</title>
<path fill="none" stroke="orange" d="M485.573,-818.967C489.943,-808.374 494.599,-797.882 499.468,-788 502.47,-781.908 505.722,-775.732 509.128,-769.574"/>
<polygon fill="orange" stroke="orange" points="482.308,-817.706 481.808,-828.289 488.799,-820.327 482.308,-817.706"/>
<text text-anchor="start" x="499.468" y="-802" font-family="Helvetica,sans-Serif" font-size="10.00"> &lt; gSizeHeaderDescription</text>
<text text-anchor="middle" x="558.468" y="-791" font-family="Helvetica,sans-Serif" font-size="10.00">String &gt;</text>
</g>
<!-- Node12&#45;&gt;Node14 -->
<g id="edge25" class="edge"><title>Node12&#45;&gt;Node14</title>
<path fill="none" stroke="orange" d="M385.863,-832.513C383.773,-830.927 381.641,-829.418 379.468,-828 350.399,-809.028 329.643,-832.8 303.468,-810 290.955,-799.1 281.434,-784.821 274.195,-769.654"/>
<polygon fill="orange" stroke="orange" points="383.771,-835.324 393.711,-838.992 388.227,-829.926 383.771,-835.324"/>
<text text-anchor="start" x="303.468" y="-802" font-family="Helvetica,sans-Serif" font-size="10.00"> &lt; gSizeSerializationMethod</text>
<text text-anchor="middle" x="364.968" y="-791" font-family="Helvetica,sans-Serif" font-size="10.00">String &gt;</text>
</g>
<!-- Node13 -->
<g id="node13" class="node"><title>Node13</title>
<polygon fill="none" stroke="#bfbfbf" points="709.968,-646.5 709.968,-703.5 760.968,-703.5 760.968,-646.5 709.968,-646.5"/>
<text text-anchor="middle" x="735.468" y="-691.5" font-family="Helvetica,sans-Serif" font-size="10.00">uint32_t</text>
<polyline fill="none" stroke="#bfbfbf" points="709.968,-684.5 760.968,-684.5 "/>
<text text-anchor="middle" x="735.468" y="-672.5" font-family="Helvetica,sans-Serif" font-size="10.00"> </text>
<polyline fill="none" stroke="#bfbfbf" points="709.968,-665.5 760.968,-665.5 "/>
<text text-anchor="middle" x="735.468" y="-653.5" font-family="Helvetica,sans-Serif" font-size="10.00"> </text>
</g>
<!-- Node13&#45;&gt;Node5 -->
<g id="edge27" class="edge"><title>Node13&#45;&gt;Node5</title>
<path fill="none" stroke="#404040" d="M730.623,-646.106C721.329,-587.258 703.986,-446.403 728.468,-332 731.867,-316.117 737.266,-299.848 743.48,-284.336"/>
<polygon fill="none" stroke="#404040" points="743.509,-284.264 742.129,-277.187 748.132,-273.19 749.512,-280.268 743.509,-284.264"/>
<text text-anchor="middle" x="751.968" y="-397" font-family="Helvetica,sans-Serif" font-size="10.00"> +reserved</text>
<text text-anchor="middle" x="751.968" y="-386" font-family="Helvetica,sans-Serif" font-size="10.00">+sVersion</text>
</g>
<!-- Node13&#45;&gt;Node6 -->
<g id="edge17" class="edge"><title>Node13&#45;&gt;Node6</title>
<path fill="none" stroke="#404040" d="M730.448,-646.299C725.218,-625.236 714.947,-597.061 695.468,-580 672.918,-560.25 651.51,-583.35 630.468,-562 602.091,-533.209 631.271,-506.674 607.468,-474 593.9,-455.375 574.481,-440.062 555.025,-428.041"/>
<polygon fill="none" stroke="#404040" points="554.904,-427.97 547.704,-428.37 544.565,-421.878 551.765,-421.478 554.904,-427.97"/>
<text text-anchor="middle" x="670.468" y="-554" font-family="Helvetica,sans-Serif" font-size="10.00"> +headerVersion</text>
<text text-anchor="middle" x="670.468" y="-543" font-family="Helvetica,sans-Serif" font-size="10.00">+headerSize</text>
<text text-anchor="middle" x="670.468" y="-532" font-family="Helvetica,sans-Serif" font-size="10.00">+sMagicString</text>
<text text-anchor="middle" x="670.468" y="-521" font-family="Helvetica,sans-Serif" font-size="10.00">+flagsNextHeader</text>
<text text-anchor="middle" x="670.468" y="-510" font-family="Helvetica,sans-Serif" font-size="10.00">+magicStringInt</text>
<text text-anchor="middle" x="670.468" y="-499" font-family="Helvetica,sans-Serif" font-size="10.00">+flagsUnused</text>
<text text-anchor="middle" x="670.468" y="-488" font-family="Helvetica,sans-Serif" font-size="10.00">+flags</text>
<text text-anchor="middle" x="670.468" y="-477" font-family="Helvetica,sans-Serif" font-size="10.00">+sVersion</text>
</g>
<!-- Node14&#45;&gt;Node5 -->
<g id="edge31" class="edge"><title>Node14&#45;&gt;Node5</title>
<path fill="none" stroke="#404040" d="M231.764,-580.405C221.46,-503.231 221.861,-396.341 284.468,-332 350.021,-264.632 613.226,-315.565 717.812,-273.452"/>
<polygon fill="none" stroke="#404040" points="718.002,-273.364 721.76,-267.21 728.887,-268.313 725.128,-274.467 718.002,-273.364"/>
<text text-anchor="middle" x="348.968" y="-391.5" font-family="Helvetica,sans-Serif" font-size="10.00"> +payloadSerializationMethod</text>
</g>
<!-- Node14&#45;&gt;Node6 -->
<g id="edge20" class="edge"><title>Node14&#45;&gt;Node6</title>
<path fill="none" stroke="#404040" d="M268.28,-580.24C277.746,-532.141 289.275,-481.961 297.468,-474 326.723,-445.572 349.612,-471.196 387.468,-456 395.531,-452.763 403.659,-448.837 411.59,-444.554"/>
<polygon fill="none" stroke="#404040" points="411.812,-444.429 415.068,-437.994 422.259,-438.524 419.004,-444.959 411.812,-444.429"/>
<text text-anchor="middle" x="327.968" y="-515.5" font-family="Helvetica,sans-Serif" font-size="10.00"> +serialization</text>
</g>
<!-- Node15 -->
<g id="node15" class="node"><title>Node15</title>
<polygon fill="none" stroke="#bfbfbf" points="817.968,-365.5 817.968,-422.5 868.968,-422.5 868.968,-365.5 817.968,-365.5"/>
<text text-anchor="middle" x="843.468" y="-410.5" font-family="Helvetica,sans-Serif" font-size="10.00">uint64_t</text>
<polyline fill="none" stroke="#bfbfbf" points="817.968,-403.5 868.968,-403.5 "/>
<text text-anchor="middle" x="843.468" y="-391.5" font-family="Helvetica,sans-Serif" font-size="10.00"> </text>
<polyline fill="none" stroke="#bfbfbf" points="817.968,-384.5 868.968,-384.5 "/>
<text text-anchor="middle" x="843.468" y="-372.5" font-family="Helvetica,sans-Serif" font-size="10.00"> </text>
</g>
<!-- Node15&#45;&gt;Node5 -->
<g id="edge28" class="edge"><title>Node15&#45;&gt;Node5</title>
<path fill="none" stroke="#404040" d="M835.846,-365.193C830.096,-344.219 821.87,-314.206 813.937,-285.267"/>
<polygon fill="none" stroke="#404040" points="813.855,-284.966 808.411,-280.236 810.682,-273.392 816.126,-278.122 813.855,-284.966"/>
<text text-anchor="middle" x="860.968" y="-306" font-family="Helvetica,sans-Serif" font-size="10.00"> +payloadSize</text>
<text text-anchor="middle" x="860.968" y="-295" font-family="Helvetica,sans-Serif" font-size="10.00">+subSpecification</text>
</g>
<!-- Node16 -->
<g id="node16" class="node"><title>Node16</title>
<polygon fill="none" stroke="#bfbfbf" points="887.468,-360 887.468,-428 1029.47,-428 1029.47,-360 887.468,-360"/>
<text text-anchor="start" x="895.468" y="-416" font-family="Helvetica,sans-Serif" font-size="10.00">Descriptor&lt; gSizeDataOrigin</text>
<text text-anchor="middle" x="958.468" y="-405" font-family="Helvetica,sans-Serif" font-size="10.00">String, printDataOrigin &gt;</text>
<polyline fill="none" stroke="#bfbfbf" points="887.468,-398 1029.47,-398 "/>
<text text-anchor="middle" x="958.468" y="-386" font-family="Helvetica,sans-Serif" font-size="10.00"> </text>
<polyline fill="none" stroke="#bfbfbf" points="887.468,-379 1029.47,-379 "/>
<text text-anchor="middle" x="958.468" y="-367" font-family="Helvetica,sans-Serif" font-size="10.00"> </text>
</g>
<!-- Node16&#45;&gt;Node5 -->
<g id="edge29" class="edge"><title>Node16&#45;&gt;Node5</title>
<path fill="none" stroke="#404040" d="M944.609,-359.663C935.083,-338.971 921.16,-312.511 904.468,-292 891.431,-275.981 875.417,-260.662 859.526,-247.151"/>
<polygon fill="none" stroke="#404040" points="859.439,-247.079 852.268,-246.323 850.207,-239.412 857.378,-240.168 859.439,-247.079"/>
<text text-anchor="middle" x="946.468" y="-300.5" font-family="Helvetica,sans-Serif" font-size="10.00"> +dataOrigin</text>
</g>
<!-- Node17 -->
<g id="node17" class="node"><title>Node17</title>
<polygon fill="none" stroke="#bfbfbf" points="1047.47,-360 1047.47,-428 1213.47,-428 1213.47,-360 1047.47,-360"/>
<text text-anchor="start" x="1055.47" y="-416" font-family="Helvetica,sans-Serif" font-size="10.00">Descriptor&lt; gSizeDataDescription</text>
<text text-anchor="middle" x="1130.47" y="-405" font-family="Helvetica,sans-Serif" font-size="10.00">String, printDataDescription &gt;</text>
<polyline fill="none" stroke="#bfbfbf" points="1047.47,-398 1213.47,-398 "/>
<text text-anchor="middle" x="1130.47" y="-386" font-family="Helvetica,sans-Serif" font-size="10.00"> </text>
<polyline fill="none" stroke="#bfbfbf" points="1047.47,-379 1213.47,-379 "/>
<text text-anchor="middle" x="1130.47" y="-367" font-family="Helvetica,sans-Serif" font-size="10.00"> </text>
</g>
<!-- Node17&#45;&gt;Node5 -->
<g id="edge30" class="edge"><title>Node17&#45;&gt;Node5</title>
<path fill="none" stroke="#404040" d="M1080.36,-359.712C1066.78,-350.704 1052.07,-340.967 1038.47,-332 1011.4,-314.153 1005.5,-308.285 977.468,-292 939.703,-270.062 896.358,-247.746 860.812,-230.157"/>
<polygon fill="none" stroke="#404040" points="860.812,-230.157 853.662,-231.095 850.046,-224.856 857.196,-223.918 860.812,-230.157"/>
<text text-anchor="middle" x="1050.47" y="-300.5" font-family="Helvetica,sans-Serif" font-size="10.00"> +dataDescription</text>
</g>
</g>
</svg>
