<?xml version="1.0" encoding="UTF-8" standalone="no"?>
<!DOCTYPE svg PUBLIC "-//W3C//DTD SVG 1.1//EN"
 "http://www.w3.org/Graphics/SVG/1.1/DTD/svg11.dtd">
<!-- Generated by graphviz version 2.36.0 (20140111.2315)
 -->
<!-- Title: /home/travis/build/AliceO2Group/AliceO2/Steer/test/testHitProcessingManager.cxx Pages: 1 -->
<svg width="779pt" height="298pt"
 viewBox="0.00 0.00 779.27 298.00" xmlns="http://www.w3.org/2000/svg" xmlns:xlink="http://www.w3.org/1999/xlink">
<g id="graph0" class="graph" transform="scale(1 1) rotate(0) translate(4 294)">
<title>/home/travis/build/AliceO2Group/AliceO2/Steer/test/testHitProcessingManager.cxx</title>
<!-- Node1 -->
<g id="node1" class="node"><title>Node1</title>
<polygon fill="#bfbfbf" stroke="black" points="503.767,-237 503.767,-289 646.767,-289 646.767,-237 503.767,-237"/>
<text text-anchor="start" x="511.767" y="-277" font-family="Helvetica,sans-Serif" font-size="10.00">/home/travis/build</text>
<text text-anchor="start" x="511.767" y="-266" font-family="Helvetica,sans-Serif" font-size="10.00">/AliceO2Group/AliceO2</text>
<text text-anchor="start" x="511.767" y="-255" font-family="Helvetica,sans-Serif" font-size="10.00">/Steer/test/testHitProcessing</text>
<text text-anchor="middle" x="575.267" y="-244" font-family="Helvetica,sans-Serif" font-size="10.00">Manager.cxx</text>
</g>
<!-- Node2 -->
<g id="node2" class="node"><title>Node2</title>
<polygon fill="none" stroke="#bfbfbf" points="237.267,-180.5 237.267,-199.5 293.267,-199.5 293.267,-180.5 237.267,-180.5"/>
<text text-anchor="middle" x="265.267" y="-187.5" font-family="Helvetica,sans-Serif" font-size="10.00">algorithm</text>
</g>
<!-- Node1&#45;&gt;Node2 -->
<g id="edge1" class="edge"><title>Node1&#45;&gt;Node2</title>
<path fill="none" stroke="midnightblue" d="M503.635,-246.046C450.897,-234.228 377.177,-217.556 303.465,-200.257"/>
<polygon fill="midnightblue" stroke="midnightblue" points="304.074,-196.805 293.538,-197.924 302.472,-203.619 304.074,-196.805"/>
</g>
<!-- Node3 -->
<g id="node3" class="node"><title>Node3</title>
<polygon fill="none" stroke="#bfbfbf" points="311.767,-180.5 311.767,-199.5 430.767,-199.5 430.767,-180.5 311.767,-180.5"/>
<text text-anchor="middle" x="371.267" y="-187.5" font-family="Helvetica,sans-Serif" font-size="10.00">boost/test/unit_test.hpp</text>
</g>
<!-- Node1&#45;&gt;Node3 -->
<g id="edge2" class="edge"><title>Node1&#45;&gt;Node3</title>
<path fill="none" stroke="midnightblue" d="M503.631,-237.068C470.444,-225.518 432.539,-212.325 405.821,-203.026"/>
<polygon fill="midnightblue" stroke="midnightblue" points="406.757,-199.646 396.163,-199.665 404.456,-206.257 406.757,-199.646"/>
</g>
<!-- Node4 -->
<g id="node4" class="node"><title>Node4</title>
<g id="a_node4"><a xlink:href="../../dd/d40/HitProcessingManager_8h.html" target="_top" xlink:title="Steer/HitProcessingManager.h">
<polygon fill="none" stroke="black" points="449.267,-180.5 449.267,-199.5 599.267,-199.5 599.267,-180.5 449.267,-180.5"/>
<text text-anchor="middle" x="524.267" y="-187.5" font-family="Helvetica,sans-Serif" font-size="10.00">Steer/HitProcessingManager.h</text>
</a>
</g>
</g>
<!-- Node1&#45;&gt;Node4 -->
<g id="edge3" class="edge"><title>Node1&#45;&gt;Node4</title>
<path fill="none" stroke="midnightblue" d="M557.143,-236.768C550.33,-227.284 542.75,-216.731 536.586,-208.15"/>
<polygon fill="midnightblue" stroke="midnightblue" points="539.234,-205.837 530.557,-199.757 533.549,-209.921 539.234,-205.837"/>
</g>
<!-- Node14 -->
<g id="node14" class="node"><title>Node14</title>
<polygon fill="none" stroke="#bfbfbf" points="678.767,-124.5 678.767,-143.5 719.767,-143.5 719.767,-124.5 678.767,-124.5"/>
<text text-anchor="middle" x="699.267" y="-131.5" font-family="Helvetica,sans-Serif" font-size="10.00">string</text>
</g>
<!-- Node1&#45;&gt;Node14 -->
<g id="edge21" class="edge"><title>Node1&#45;&gt;Node14</title>
<path fill="none" stroke="midnightblue" d="M595.844,-236.805C609.805,-220.161 628.983,-198.153 647.267,-180 657.857,-169.485 670.503,-158.51 680.673,-150.031"/>
<polygon fill="midnightblue" stroke="midnightblue" points="683.037,-152.618 688.533,-143.56 678.588,-147.214 683.037,-152.618"/>
</g>
<!-- Node18 -->
<g id="node18" class="node"><title>Node18</title>
<polygon fill="none" stroke="#bfbfbf" points="655.767,-180.5 655.767,-199.5 702.767,-199.5 702.767,-180.5 655.767,-180.5"/>
<text text-anchor="middle" x="679.267" y="-187.5" font-family="Helvetica,sans-Serif" font-size="10.00">TFile.h</text>
</g>
<!-- Node1&#45;&gt;Node18 -->
<g id="edge19" class="edge"><title>Node1&#45;&gt;Node18</title>
<path fill="none" stroke="midnightblue" d="M611.934,-236.968C627.329,-226.458 644.693,-214.603 657.932,-205.565"/>
<polygon fill="midnightblue" stroke="midnightblue" points="660.077,-208.339 666.363,-199.81 656.131,-202.557 660.077,-208.339"/>
</g>
<!-- Node19 -->
<g id="node19" class="node"><title>Node19</title>
<polygon fill="none" stroke="#bfbfbf" points="721.267,-180.5 721.267,-199.5 771.267,-199.5 771.267,-180.5 721.267,-180.5"/>
<text text-anchor="middle" x="746.267" y="-187.5" font-family="Helvetica,sans-Serif" font-size="10.00">TTree.h</text>
</g>
<!-- Node1&#45;&gt;Node19 -->
<g id="edge20" class="edge"><title>Node1&#45;&gt;Node19</title>
<path fill="none" stroke="midnightblue" d="M635.555,-236.968C662.861,-225.63 693.935,-212.728 716.197,-203.485"/>
<polygon fill="midnightblue" stroke="midnightblue" points="717.567,-206.706 725.461,-199.639 714.883,-200.241 717.567,-206.706"/>
</g>
<!-- Node5 -->
<g id="node5" class="node"><title>Node5</title>
<g id="a_node5"><a xlink:href="../../df/dff/InteractionSampler_8h.html" target="_top" xlink:title="Steer/InteractionSampler.h">
<polygon fill="none" stroke="black" points="127.767,-124.5 127.767,-143.5 260.767,-143.5 260.767,-124.5 127.767,-124.5"/>
<text text-anchor="middle" x="194.267" y="-131.5" font-family="Helvetica,sans-Serif" font-size="10.00">Steer/InteractionSampler.h</text>
</a>
</g>
</g>
<!-- Node4&#45;&gt;Node5 -->
<g id="edge4" class="edge"><title>Node4&#45;&gt;Node5</title>
<path fill="none" stroke="midnightblue" d="M471.978,-180.444C413.444,-170.865 318.662,-155.356 256.397,-145.167"/>
<polygon fill="midnightblue" stroke="midnightblue" points="256.746,-141.677 246.312,-143.516 255.615,-148.585 256.746,-141.677"/>
</g>
<!-- Node10 -->
<g id="node10" class="node"><title>Node10</title>
<polygon fill="none" stroke="#bfbfbf" points="371.267,-62.5 371.267,-81.5 415.267,-81.5 415.267,-62.5 371.267,-62.5"/>
<text text-anchor="middle" x="393.267" y="-69.5" font-family="Helvetica,sans-Serif" font-size="10.00">vector</text>
</g>
<!-- Node4&#45;&gt;Node10 -->
<g id="edge15" class="edge"><title>Node4&#45;&gt;Node10</title>
<path fill="none" stroke="midnightblue" d="M465.396,-180.48C423.786,-173.113 373.202,-160.962 360.267,-144 347.332,-127.037 362.658,-104.189 376.456,-89.0466"/>
<polygon fill="midnightblue" stroke="midnightblue" points="379.317,-91.1243 383.776,-81.5131 374.297,-86.2464 379.317,-91.1243"/>
</g>
<!-- Node13 -->
<g id="node13" class="node"><title>Node13</title>
<polygon fill="none" stroke="#bfbfbf" points="369.267,-124.5 369.267,-143.5 455.267,-143.5 455.267,-124.5 369.267,-124.5"/>
<text text-anchor="middle" x="412.267" y="-131.5" font-family="Helvetica,sans-Serif" font-size="10.00">TGeoManager.h</text>
</g>
<!-- Node4&#45;&gt;Node13 -->
<g id="edge13" class="edge"><title>Node4&#45;&gt;Node13</title>
<path fill="none" stroke="midnightblue" d="M506.272,-180.324C488.229,-171.625 460.22,-158.12 439.464,-148.113"/>
<polygon fill="midnightblue" stroke="midnightblue" points="440.745,-144.845 430.217,-143.655 437.705,-151.15 440.745,-144.845"/>
</g>
<!-- Node4&#45;&gt;Node14 -->
<g id="edge14" class="edge"><title>Node4&#45;&gt;Node14</title>
<path fill="none" stroke="midnightblue" d="M551.996,-180.444C583.876,-170.606 636.033,-154.512 668.96,-144.352"/>
<polygon fill="midnightblue" stroke="midnightblue" points="669.994,-147.696 678.518,-141.403 667.93,-141.007 669.994,-147.696"/>
</g>
<!-- Node15 -->
<g id="node15" class="node"><title>Node15</title>
<polygon fill="none" stroke="#bfbfbf" points="473.767,-124.5 473.767,-143.5 508.767,-143.5 508.767,-124.5 473.767,-124.5"/>
<text text-anchor="middle" x="491.267" y="-131.5" font-family="Helvetica,sans-Serif" font-size="10.00">map</text>
</g>
<!-- Node4&#45;&gt;Node15 -->
<g id="edge16" class="edge"><title>Node4&#45;&gt;Node15</title>
<path fill="none" stroke="midnightblue" d="M518.818,-180.083C514.253,-172.613 507.599,-161.724 501.974,-152.52"/>
<polygon fill="midnightblue" stroke="midnightblue" points="504.816,-150.459 496.615,-143.751 498.843,-154.109 504.816,-150.459"/>
</g>
<!-- Node16 -->
<g id="node16" class="node"><title>Node16</title>
<polygon fill="none" stroke="#bfbfbf" points="526.767,-124.5 526.767,-143.5 585.767,-143.5 585.767,-124.5 526.767,-124.5"/>
<text text-anchor="middle" x="556.267" y="-131.5" font-family="Helvetica,sans-Serif" font-size="10.00">functional</text>
</g>
<!-- Node4&#45;&gt;Node16 -->
<g id="edge17" class="edge"><title>Node4&#45;&gt;Node16</title>
<path fill="none" stroke="midnightblue" d="M529.551,-180.083C533.978,-172.613 540.43,-161.724 545.885,-152.52"/>
<polygon fill="midnightblue" stroke="midnightblue" points="548.994,-154.138 551.081,-143.751 542.972,-150.57 548.994,-154.138"/>
</g>
<!-- Node17 -->
<g id="node17" class="node"><title>Node17</title>
<polygon fill="none" stroke="#bfbfbf" points="604.267,-124.5 604.267,-143.5 660.267,-143.5 660.267,-124.5 604.267,-124.5"/>
<text text-anchor="middle" x="632.267" y="-131.5" font-family="Helvetica,sans-Serif" font-size="10.00">TChain.h</text>
</g>
<!-- Node4&#45;&gt;Node17 -->
<g id="edge18" class="edge"><title>Node4&#45;&gt;Node17</title>
<path fill="none" stroke="midnightblue" d="M541.619,-180.324C558.939,-171.664 585.782,-158.242 605.769,-148.249"/>
<polygon fill="midnightblue" stroke="midnightblue" points="607.579,-151.257 614.958,-143.655 604.448,-144.996 607.579,-151.257"/>
</g>
<!-- Node6 -->
<g id="node6" class="node"><title>Node6</title>
<polygon fill="none" stroke="#bfbfbf" points="78.267,-0.5 78.267,-19.5 134.267,-19.5 134.267,-0.5 78.267,-0.5"/>
<text text-anchor="middle" x="106.267" y="-7.5" font-family="Helvetica,sans-Serif" font-size="10.00">Rtypes.h</text>
</g>
<!-- Node5&#45;&gt;Node6 -->
<g id="edge5" class="edge"><title>Node5&#45;&gt;Node6</title>
<path fill="none" stroke="midnightblue" d="M127.383,-125.73C79.649,-119.003 21.337,-107.103 6.267,-88 -2.54168,-76.834 -1.45525,-67.9431 6.267,-56 19.8925,-34.927 45.9981,-23.6245 68.1197,-17.6177"/>
<polygon fill="midnightblue" stroke="midnightblue" points="69.0622,-20.9904 77.9441,-15.2145 67.3989,-14.1909 69.0622,-20.9904"/>
</g>
<!-- Node7 -->
<g id="node7" class="node"><title>Node7</title>
<polygon fill="none" stroke="#bfbfbf" points="15.767,-62.5 15.767,-81.5 68.767,-81.5 68.767,-62.5 15.767,-62.5"/>
<text text-anchor="middle" x="42.267" y="-69.5" font-family="Helvetica,sans-Serif" font-size="10.00">TMath.h</text>
</g>
<!-- Node5&#45;&gt;Node7 -->
<g id="edge6" class="edge"><title>Node5&#45;&gt;Node7</title>
<path fill="none" stroke="midnightblue" d="M171.53,-124.37C148.095,-115.431 110.533,-100.978 78.267,-88 76.3825,-87.242 74.4453,-86.4557 72.4936,-85.658"/>
<polygon fill="midnightblue" stroke="midnightblue" points="73.3706,-82.2337 62.7916,-81.6548 70.7006,-88.7045 73.3706,-82.2337"/>
</g>
<!-- Node8 -->
<g id="node8" class="node"><title>Node8</title>
<polygon fill="none" stroke="#bfbfbf" points="87.267,-62.5 87.267,-81.5 155.267,-81.5 155.267,-62.5 87.267,-62.5"/>
<text text-anchor="middle" x="121.267" y="-69.5" font-family="Helvetica,sans-Serif" font-size="10.00">TRandom.h</text>
</g>
<!-- Node5&#45;&gt;Node8 -->
<g id="edge7" class="edge"><title>Node5&#45;&gt;Node8</title>
<path fill="none" stroke="midnightblue" d="M183.808,-124.403C172.316,-114.958 153.637,-99.6056 139.68,-88.1342"/>
<polygon fill="midnightblue" stroke="midnightblue" points="141.655,-85.2264 131.707,-81.5806 137.21,-90.6342 141.655,-85.2264"/>
</g>
<!-- Node9 -->
<g id="node9" class="node"><title>Node9</title>
<polygon fill="none" stroke="#bfbfbf" points="173.767,-62.5 173.767,-81.5 214.767,-81.5 214.767,-62.5 173.767,-62.5"/>
<text text-anchor="middle" x="194.267" y="-69.5" font-family="Helvetica,sans-Serif" font-size="10.00">bitset</text>
</g>
<!-- Node5&#45;&gt;Node9 -->
<g id="edge8" class="edge"><title>Node5&#45;&gt;Node9</title>
<path fill="none" stroke="midnightblue" d="M194.267,-124.403C194.267,-115.938 194.267,-102.728 194.267,-91.8199"/>
<polygon fill="midnightblue" stroke="midnightblue" points="197.767,-91.5806 194.267,-81.5806 190.767,-91.5806 197.767,-91.5806"/>
</g>
<!-- Node5&#45;&gt;Node10 -->
<g id="edge9" class="edge"><title>Node5&#45;&gt;Node10</title>
<path fill="none" stroke="midnightblue" d="M234.647,-124.445C269.099,-116.613 319.676,-103.846 362.267,-88 364.116,-87.312 366.004,-86.5521 367.889,-85.7503"/>
<polygon fill="midnightblue" stroke="midnightblue" points="369.472,-88.8749 377.109,-81.5308 366.559,-82.5098 369.472,-88.8749"/>
</g>
<!-- Node11 -->
<g id="node11" class="node"><title>Node11</title>
<g id="a_node11"><a xlink:href="../../d1/dbe/MCInteractionRecord_8h.html" target="_top" xlink:title="SimulationDataFormat\l/MCInteractionRecord.h">
<polygon fill="none" stroke="black" points="232.767,-57 232.767,-87 353.767,-87 353.767,-57 232.767,-57"/>
<text text-anchor="start" x="240.767" y="-75" font-family="Helvetica,sans-Serif" font-size="10.00">SimulationDataFormat</text>
<text text-anchor="middle" x="293.267" y="-64" font-family="Helvetica,sans-Serif" font-size="10.00">/MCInteractionRecord.h</text>
</a>
</g>
</g>
<!-- Node5&#45;&gt;Node11 -->
<g id="edge10" class="edge"><title>Node5&#45;&gt;Node11</title>
<path fill="none" stroke="midnightblue" d="M208.451,-124.403C222.11,-116.125 243.254,-103.311 261.014,-92.5474"/>
<polygon fill="midnightblue" stroke="midnightblue" points="263.197,-95.3171 269.935,-87.1408 259.569,-89.3307 263.197,-95.3171"/>
</g>
<!-- Node11&#45;&gt;Node6 -->
<g id="edge11" class="edge"><title>Node11&#45;&gt;Node6</title>
<path fill="none" stroke="midnightblue" d="M249.424,-56.9327C216.933,-46.5077 173.172,-32.4667 142.618,-22.6635"/>
<polygon fill="midnightblue" stroke="midnightblue" points="143.389,-19.2353 132.798,-19.5127 141.251,-25.9006 143.389,-19.2353"/>
</g>
<!-- Node12 -->
<g id="node12" class="node"><title>Node12</title>
<polygon fill="none" stroke="#bfbfbf" points="270.767,-0.5 270.767,-19.5 315.767,-19.5 315.767,-0.5 270.767,-0.5"/>
<text text-anchor="middle" x="293.267" y="-7.5" font-family="Helvetica,sans-Serif" font-size="10.00">iosfwd</text>
</g>
<!-- Node11&#45;&gt;Node12 -->
<g id="edge12" class="edge"><title>Node11&#45;&gt;Node12</title>
<path fill="none" stroke="midnightblue" d="M293.267,-56.7808C293.267,-48.7812 293.267,-38.6887 293.267,-30.0168"/>
<polygon fill="midnightblue" stroke="midnightblue" points="296.767,-29.7305 293.267,-19.7305 289.767,-29.7306 296.767,-29.7305"/>
</g>
</g>
</svg>
