<?xml version="1.0" encoding="UTF-8" standalone="no"?>
<!DOCTYPE svg PUBLIC "-//W3C//DTD SVG 1.1//EN"
 "http://www.w3.org/Graphics/SVG/1.1/DTD/svg11.dtd">
<!-- Generated by graphviz version 2.36.0 (20140111.2315)
 -->
<!-- Title: o2::utilities::DataPublisherDevice Pages: 1 -->
<svg width="370pt" height="454pt"
 viewBox="0.00 0.00 370.00 454.00" xmlns="http://www.w3.org/2000/svg" xmlns:xlink="http://www.w3.org/1999/xlink">
<g id="graph0" class="graph" transform="scale(1 1) rotate(0) translate(4 450)">
<title>o2::utilities::DataPublisherDevice</title>
<!-- Node1 -->
<g id="node1" class="node"><title>Node1</title>
<polygon fill="#bfbfbf" stroke="black" points="131.5,-0.5 131.5,-123.5 262.5,-123.5 262.5,-0.5 131.5,-0.5"/>
<text text-anchor="start" x="139.5" y="-111.5" font-family="Helvetica,sans-Serif" font-size="10.00">o2::utilities::DataPublisher</text>
<text text-anchor="middle" x="197" y="-100.5" font-family="Helvetica,sans-Serif" font-size="10.00">Device</text>
<polyline fill="none" stroke="black" points="131.5,-93.5 262.5,-93.5 "/>
<text text-anchor="middle" x="197" y="-81.5" font-family="Helvetica,sans-Serif" font-size="10.00"> </text>
<polyline fill="none" stroke="black" points="131.5,-74.5 262.5,-74.5 "/>
<text text-anchor="start" x="139.5" y="-62.5" font-family="Helvetica,sans-Serif" font-size="10.00">+ DataPublisherDevice()</text>
<text text-anchor="start" x="139.5" y="-51.5" font-family="Helvetica,sans-Serif" font-size="10.00">+ ~DataPublisherDevice()</text>
<text text-anchor="start" x="139.5" y="-40.5" font-family="Helvetica,sans-Serif" font-size="10.00"># InitTask()</text>
<text text-anchor="start" x="139.5" y="-29.5" font-family="Helvetica,sans-Serif" font-size="10.00"># HandleData()</text>
<text text-anchor="start" x="139.5" y="-18.5" font-family="Helvetica,sans-Serif" font-size="10.00"># HandleO2LogicalBlock()</text>
<text text-anchor="start" x="139.5" y="-7.5" font-family="Helvetica,sans-Serif" font-size="10.00"># AppendFile()</text>
</g>
<!-- Node2 -->
<g id="node2" class="node"><title>Node2</title>
<g id="a_node2"><a xlink:href="../../da/df6/classo2_1_1Base_1_1O2Device.html" target="_top" xlink:title="{o2::Base::O2Device\n||+ ~O2Device()\l+ GetMonitoring()\l+ Init()\l+ AddMessage()\l+ ForEach()\l}">
<polygon fill="none" stroke="black" points="49.5,-226.5 49.5,-327.5 154.5,-327.5 154.5,-226.5 49.5,-226.5"/>
<text text-anchor="middle" x="102" y="-315.5" font-family="Helvetica,sans-Serif" font-size="10.00">o2::Base::O2Device</text>
<polyline fill="none" stroke="black" points="49.5,-308.5 154.5,-308.5 "/>
<text text-anchor="middle" x="102" y="-296.5" font-family="Helvetica,sans-Serif" font-size="10.00"> </text>
<polyline fill="none" stroke="black" points="49.5,-289.5 154.5,-289.5 "/>
<text text-anchor="start" x="57.5" y="-277.5" font-family="Helvetica,sans-Serif" font-size="10.00">+ ~O2Device()</text>
<text text-anchor="start" x="57.5" y="-266.5" font-family="Helvetica,sans-Serif" font-size="10.00">+ GetMonitoring()</text>
<text text-anchor="start" x="57.5" y="-255.5" font-family="Helvetica,sans-Serif" font-size="10.00">+ Init()</text>
<text text-anchor="start" x="57.5" y="-244.5" font-family="Helvetica,sans-Serif" font-size="10.00">+ AddMessage()</text>
<text text-anchor="start" x="57.5" y="-233.5" font-family="Helvetica,sans-Serif" font-size="10.00">+ ForEach()</text>
</a>
</g>
</g>
<!-- Node2&#45;&gt;Node1 -->
<g id="edge1" class="edge"><title>Node2&#45;&gt;Node1</title>
<path fill="none" stroke="midnightblue" d="M128.259,-217.124C141.214,-188.079 156.822,-153.083 169.89,-123.784"/>
<polygon fill="none" stroke="midnightblue" points="125.03,-215.771 124.153,-226.33 131.423,-218.623 125.03,-215.771"/>
</g>
<!-- Node3 -->
<g id="node3" class="node"><title>Node3</title>
<g id="a_node3"><a xlink:href="../../db/dfe/classFairMQDevice.html" target="_top" xlink:title="{FairMQDevice\n||}">
<polygon fill="none" stroke="black" points="0,-382.5 0,-439.5 80,-439.5 80,-382.5 0,-382.5"/>
<text text-anchor="middle" x="40" y="-427.5" font-family="Helvetica,sans-Serif" font-size="10.00">FairMQDevice</text>
<polyline fill="none" stroke="black" points="0,-420.5 80,-420.5 "/>
<text text-anchor="middle" x="40" y="-408.5" font-family="Helvetica,sans-Serif" font-size="10.00"> </text>
<polyline fill="none" stroke="black" points="0,-401.5 80,-401.5 "/>
<text text-anchor="middle" x="40" y="-389.5" font-family="Helvetica,sans-Serif" font-size="10.00"> </text>
</a>
</g>
</g>
<!-- Node3&#45;&gt;Node2 -->
<g id="edge2" class="edge"><title>Node3&#45;&gt;Node2</title>
<path fill="none" stroke="midnightblue" d="M57.3962,-372.963C64.0172,-358.867 71.6709,-342.572 78.7488,-327.503"/>
<polygon fill="none" stroke="midnightblue" points="54.0807,-371.789 52.9972,-382.328 60.4166,-374.765 54.0807,-371.789"/>
</g>
<!-- Node4 -->
<g id="node4" class="node"><title>Node4</title>
<polygon fill="none" stroke="#bfbfbf" points="98,-377 98,-445 230,-445 230,-377 98,-377"/>
<text text-anchor="start" x="106" y="-433" font-family="Helvetica,sans-Serif" font-size="10.00">unique_ptr&lt; o2::monitoring</text>
<text text-anchor="middle" x="164" y="-422" font-family="Helvetica,sans-Serif" font-size="10.00">::Monitoring &gt;</text>
<polyline fill="none" stroke="#bfbfbf" points="98,-415 230,-415 "/>
<text text-anchor="middle" x="164" y="-403" font-family="Helvetica,sans-Serif" font-size="10.00"> </text>
<polyline fill="none" stroke="#bfbfbf" points="98,-396 230,-396 "/>
<text text-anchor="middle" x="164" y="-384" font-family="Helvetica,sans-Serif" font-size="10.00"> </text>
</g>
<!-- Node4&#45;&gt;Node2 -->
<g id="edge3" class="edge"><title>Node4&#45;&gt;Node2</title>
<path fill="none" stroke="#404040" d="M148.355,-376.691C142.89,-365.056 136.573,-351.607 130.395,-338.454"/>
<polygon fill="none" stroke="#404040" points="130.362,-338.383 124.19,-334.653 125.26,-327.522 131.432,-331.252 130.362,-338.383"/>
<text text-anchor="middle" x="166.5" y="-349.5" font-family="Helvetica,sans-Serif" font-size="10.00"> +monitoring</text>
</g>
<!-- Node5 -->
<g id="node5" class="node"><title>Node5</title>
<polygon fill="none" stroke="#bfbfbf" points="172.5,-243 172.5,-311 285.5,-311 285.5,-243 172.5,-243"/>
<text text-anchor="start" x="180.5" y="-299" font-family="Helvetica,sans-Serif" font-size="10.00">static constexpr const</text>
<text text-anchor="middle" x="229" y="-288" font-family="Helvetica,sans-Serif" font-size="10.00"> char *</text>
<polyline fill="none" stroke="#bfbfbf" points="172.5,-281 285.5,-281 "/>
<text text-anchor="middle" x="229" y="-269" font-family="Helvetica,sans-Serif" font-size="10.00"> </text>
<polyline fill="none" stroke="#bfbfbf" points="172.5,-262 285.5,-262 "/>
<text text-anchor="middle" x="229" y="-250" font-family="Helvetica,sans-Serif" font-size="10.00"> </text>
</g>
<!-- Node5&#45;&gt;Node1 -->
<g id="edge4" class="edge"><title>Node5&#45;&gt;Node1</title>
<path fill="none" stroke="#404040" d="M224,-242.719C219.72,-214.231 213.405,-172.196 207.958,-135.941"/>
<polygon fill="none" stroke="#404040" points="207.931,-135.762 203.084,-130.422 206.148,-123.895 210.996,-129.234 207.931,-135.762"/>
<text text-anchor="middle" x="290" y="-200" font-family="Helvetica,sans-Serif" font-size="10.00"> +OptionKeyFileName</text>
<text text-anchor="middle" x="290" y="-189" font-family="Helvetica,sans-Serif" font-size="10.00">+OptionKeySubspecification</text>
<text text-anchor="middle" x="290" y="-178" font-family="Helvetica,sans-Serif" font-size="10.00">+OptionKeyOutputChannelName</text>
<text text-anchor="middle" x="290" y="-167" font-family="Helvetica,sans-Serif" font-size="10.00">+OptionKeyDataOrigin</text>
<text text-anchor="middle" x="290" y="-156" font-family="Helvetica,sans-Serif" font-size="10.00">+OptionKeyDataDescription</text>
<text text-anchor="middle" x="290" y="-145" font-family="Helvetica,sans-Serif" font-size="10.00">+OptionKeyInputChannelName</text>
</g>
</g>
</svg>
