<?xml version="1.0" encoding="UTF-8" standalone="no"?>
<!DOCTYPE svg PUBLIC "-//W3C//DTD SVG 1.1//EN"
 "http://www.w3.org/Graphics/SVG/1.1/DTD/svg11.dtd">
<!-- Generated by graphviz version 2.36.0 (20140111.2315)
 -->
<!-- Title: o2::framework::DataProcessingHeader Pages: 1 -->
<!--zoomable 996 -->
<svg id="main" version="1.1" xmlns="http://www.w3.org/2000/svg" xmlns:xlink="http://www.w3.org/1999/xlink" xml:space="preserve" onload="init(evt)">
<style type="text/css"><![CDATA[
.edge:hover path { stroke: red; }
.edge:hover polygon { stroke: red; fill: red; }
]]></style>
<script type="text/javascript"><![CDATA[
var edges = document.getElementsByTagName('g');
if (edges && edges.length) {
  for (var i=0;i<edges.length;i++) {
    if (edges[i].id.substr(0,4)=='edge') {
      edges[i].setAttribute('class','edge');
    }
  }
}
]]></script>
        <defs>
                <circle id="rim" cx="0" cy="0" r="7"/>
                <circle id="rim2" cx="0" cy="0" r="3.5"/>
                <g id="zoomPlus">
                        <use xlink:href="#rim" fill="#404040">
                                <set attributeName="fill" to="#808080" begin="zoomplus.mouseover" end="zoomplus.mouseout"/>
                        </use>
                        <path d="M-4,0h8M0,-4v8" fill="none" stroke="white" stroke-width="1.5" pointer-events="none"/>
                </g>
                <g id="zoomMin">
                        <use xlink:href="#rim" fill="#404040">
                                <set attributeName="fill" to="#808080" begin="zoomminus.mouseover" end="zoomminus.mouseout"/>
                        </use>
                        <path d="M-4,0h8" fill="none" stroke="white" stroke-width="1.5" pointer-events="none"/>
                </g>
                <g id="dirArrow">
                        <path fill="none" stroke="white" stroke-width="1.5" d="M0,-3.0v7 M-2.5,-0.5L0,-3.0L2.5,-0.5"/>
                </g>
               <g id="resetDef">
                       <use xlink:href="#rim2" fill="#404040">
                               <set attributeName="fill" to="#808080" begin="reset.mouseover" end="reset.mouseout"/>
                       </use>
               </g>
        </defs>

<script type="text/javascript">
var viewWidth = 967;
var viewHeight = 996;
var sectionId = 'dynsection-1';
</script>
<script xlink:href="../../svgpan.js"/>
<svg id="graph" class="graph">
<g id="viewport">
<title>o2::framework::DataProcessingHeader</title>
<!-- Node1 -->
<g id="node1" class="node"><title>Node1</title>
<polygon fill="#bfbfbf" stroke="black" points="709.87,-1 709.87,-113 864.87,-113 864.87,-1 709.87,-1"/>
<text text-anchor="start" x="717.87" y="-101" font-family="Helvetica,sans-Serif" font-size="10.00">o2::framework::DataProcessing</text>
<text text-anchor="middle" x="787.37" y="-90" font-family="Helvetica,sans-Serif" font-size="10.00">Header</text>
<polyline fill="none" stroke="black" points="709.87,-83 864.87,-83 "/>
<text text-anchor="middle" x="787.37" y="-71" font-family="Helvetica,sans-Serif" font-size="10.00"> </text>
<polyline fill="none" stroke="black" points="709.87,-64 864.87,-64 "/>
<text text-anchor="start" x="717.87" y="-52" font-family="Helvetica,sans-Serif" font-size="10.00">+ DataProcessingHeader()</text>
<text text-anchor="start" x="717.87" y="-41" font-family="Helvetica,sans-Serif" font-size="10.00">+ DataProcessingHeader()</text>
<text text-anchor="start" x="717.87" y="-30" font-family="Helvetica,sans-Serif" font-size="10.00">+ DataProcessingHeader()</text>
<text text-anchor="start" x="717.87" y="-19" font-family="Helvetica,sans-Serif" font-size="10.00">+ DataProcessingHeader()</text>
<text text-anchor="start" x="717.87" y="-8" font-family="Helvetica,sans-Serif" font-size="10.00">+ Get()</text>
</g>
<!-- Node2 -->
<g id="node2" class="node"><title>Node2</title>
<g id="a_node2"><a xlink:href="../../d8/dbd/structo2_1_1header_1_1BaseHeader.html" target="_top" xlink:title="the base header struct Every header type must begin (i.e. derive) with this. Don&#39;t use this struct di...">
<polygon fill="none" stroke="black" points="566.37,-172.5 566.37,-295.5 688.37,-295.5 688.37,-172.5 566.37,-172.5"/>
<text text-anchor="middle" x="627.37" y="-283.5" font-family="Helvetica,sans-Serif" font-size="10.00">o2::header::BaseHeader</text>
<polyline fill="none" stroke="black" points="566.37,-276.5 688.37,-276.5 "/>
<text text-anchor="middle" x="627.37" y="-264.5" font-family="Helvetica,sans-Serif" font-size="10.00"> </text>
<polyline fill="none" stroke="black" points="566.37,-257.5 688.37,-257.5 "/>
<text text-anchor="start" x="574.37" y="-245.5" font-family="Helvetica,sans-Serif" font-size="10.00">+ BaseHeader()</text>
<text text-anchor="start" x="574.37" y="-234.5" font-family="Helvetica,sans-Serif" font-size="10.00">+ BaseHeader()</text>
<text text-anchor="start" x="574.37" y="-223.5" font-family="Helvetica,sans-Serif" font-size="10.00">+ BaseHeader()</text>
<text text-anchor="start" x="574.37" y="-212.5" font-family="Helvetica,sans-Serif" font-size="10.00">+ size()</text>
<text text-anchor="start" x="574.37" y="-201.5" font-family="Helvetica,sans-Serif" font-size="10.00">+ data()</text>
<text text-anchor="start" x="574.37" y="-190.5" font-family="Helvetica,sans-Serif" font-size="10.00">+ next()</text>
<text text-anchor="start" x="574.37" y="-179.5" font-family="Helvetica,sans-Serif" font-size="10.00">+ get()</text>
</a>
</g>
</g>
<!-- Node2&#45;&gt;Node1 -->
<g id="edge1" class="edge"><title>Node2&#45;&gt;Node1</title>
<path fill="none" stroke="midnightblue" d="M689.978,-164.523C705.584,-147.454 722.118,-129.369 737.046,-113.042"/>
<polygon fill="none" stroke="midnightblue" points="687.046,-162.543 682.881,-172.285 692.212,-167.266 687.046,-162.543"/>
</g>
<!-- Node3 -->
<g id="node3" class="node"><title>Node3</title>
<g id="a_node3"><a xlink:href="../../d9/db3/structo2_1_1header_1_1Descriptor.html" target="_top" xlink:title="{o2::header::Descriptor\l\&lt; gSizeHeaderDescriptionString \&gt;\n||+ Descriptor()\l+ Descriptor()\l+ Descriptor()\l+ Descriptor()\l+ operator=()\l+ operator ItgType()\l+ runtimeInit()\l+ operator==()\l+ operator==()\l+ operator!=()\l+ operator!=()\l+ print()\l}">
<polygon fill="none" stroke="black" points="488.37,-420.5 488.37,-609.5 654.37,-609.5 654.37,-420.5 488.37,-420.5"/>
<text text-anchor="start" x="496.37" y="-597.5" font-family="Helvetica,sans-Serif" font-size="10.00">o2::header::Descriptor</text>
<text text-anchor="middle" x="571.37" y="-586.5" font-family="Helvetica,sans-Serif" font-size="10.00">&lt; gSizeHeaderDescriptionString &gt;</text>
<polyline fill="none" stroke="black" points="488.37,-579.5 654.37,-579.5 "/>
<text text-anchor="middle" x="571.37" y="-567.5" font-family="Helvetica,sans-Serif" font-size="10.00"> </text>
<polyline fill="none" stroke="black" points="488.37,-560.5 654.37,-560.5 "/>
<text text-anchor="start" x="496.37" y="-548.5" font-family="Helvetica,sans-Serif" font-size="10.00">+ Descriptor()</text>
<text text-anchor="start" x="496.37" y="-537.5" font-family="Helvetica,sans-Serif" font-size="10.00">+ Descriptor()</text>
<text text-anchor="start" x="496.37" y="-526.5" font-family="Helvetica,sans-Serif" font-size="10.00">+ Descriptor()</text>
<text text-anchor="start" x="496.37" y="-515.5" font-family="Helvetica,sans-Serif" font-size="10.00">+ Descriptor()</text>
<text text-anchor="start" x="496.37" y="-504.5" font-family="Helvetica,sans-Serif" font-size="10.00">+ operator=()</text>
<text text-anchor="start" x="496.37" y="-493.5" font-family="Helvetica,sans-Serif" font-size="10.00">+ operator ItgType()</text>
<text text-anchor="start" x="496.37" y="-482.5" font-family="Helvetica,sans-Serif" font-size="10.00">+ runtimeInit()</text>
<text text-anchor="start" x="496.37" y="-471.5" font-family="Helvetica,sans-Serif" font-size="10.00">+ operator==()</text>
<text text-anchor="start" x="496.37" y="-460.5" font-family="Helvetica,sans-Serif" font-size="10.00">+ operator==()</text>
<text text-anchor="start" x="496.37" y="-449.5" font-family="Helvetica,sans-Serif" font-size="10.00">+ operator!=()</text>
<text text-anchor="start" x="496.37" y="-438.5" font-family="Helvetica,sans-Serif" font-size="10.00">+ operator!=()</text>
<text text-anchor="start" x="496.37" y="-427.5" font-family="Helvetica,sans-Serif" font-size="10.00">+ print()</text>
</a>
</g>
</g>
<!-- Node3&#45;&gt;Node2 -->
<g id="edge2" class="edge"><title>Node3&#45;&gt;Node2</title>
<path fill="none" stroke="#404040" d="M590.045,-420.382C596.752,-386.825 604.384,-348.714 611.37,-314 611.778,-311.972 612.193,-309.915 612.611,-307.839"/>
<polygon fill="none" stroke="#404040" points="612.665,-307.574 609.931,-300.901 615.039,-295.811 617.773,-302.484 612.665,-307.574"/>
<text text-anchor="middle" x="639.87" y="-355.5" font-family="Helvetica,sans-Serif" font-size="10.00"> +description</text>
</g>
<!-- Node4 -->
<g id="node4" class="node"><title>Node4</title>
<polygon fill="none" stroke="#bfbfbf" points="223.37,-929.5 223.37,-986.5 261.37,-986.5 261.37,-929.5 223.37,-929.5"/>
<text text-anchor="middle" x="242.37" y="-974.5" font-family="Helvetica,sans-Serif" font-size="10.00">Type</text>
<polyline fill="none" stroke="#bfbfbf" points="223.37,-967.5 261.37,-967.5 "/>
<text text-anchor="middle" x="242.37" y="-955.5" font-family="Helvetica,sans-Serif" font-size="10.00"> </text>
<polyline fill="none" stroke="#bfbfbf" points="223.37,-948.5 261.37,-948.5 "/>
<text text-anchor="middle" x="242.37" y="-936.5" font-family="Helvetica,sans-Serif" font-size="10.00"> </text>
</g>
<!-- Node4&#45;&gt;Node3 -->
<g id="edge3" class="edge"><title>Node4&#45;&gt;Node3</title>
<path fill="none" stroke="#404040" d="M261.706,-949.503C278.776,-943.102 304.443,-934.004 327.37,-928 369.787,-916.892 394.377,-941.984 424.37,-910 498.469,-830.983 381.736,-749.258 453.37,-668 475.183,-643.257 501.069,-672.303 525.37,-650 534.34,-641.767 541.561,-631.709 547.374,-620.838"/>
<polygon fill="none" stroke="#404040" points="547.517,-620.542 546.521,-613.4 552.731,-609.733 553.727,-616.875 547.517,-620.542"/>
<text text-anchor="middle" x="463.37" y="-760.5" font-family="Helvetica,sans-Serif" font-size="10.00"> +itg</text>
</g>
<!-- Node8 -->
<g id="node8" class="node"><title>Node8</title>
<g id="a_node8"><a xlink:href="../../d9/db3/structo2_1_1header_1_1Descriptor.html" target="_top" xlink:title="{o2::header::Descriptor\l\&lt; N, PrinterPolicy \&gt;\n||+ Descriptor()\l+ Descriptor()\l+ Descriptor()\l+ operator=()\l+ operator ItgType()\l+ Descriptor()\l+ runtimeInit()\l+ operator==()\l+ operator!=()\l+ operator==()\l+ operator!=()\l+ print()\l}">
<polygon fill="none" stroke="black" points="201.87,-668.5 201.87,-857.5 314.87,-857.5 314.87,-668.5 201.87,-668.5"/>
<text text-anchor="start" x="209.87" y="-845.5" font-family="Helvetica,sans-Serif" font-size="10.00">o2::header::Descriptor</text>
<text text-anchor="middle" x="258.37" y="-834.5" font-family="Helvetica,sans-Serif" font-size="10.00">&lt; N, PrinterPolicy &gt;</text>
<polyline fill="none" stroke="black" points="201.87,-827.5 314.87,-827.5 "/>
<text text-anchor="middle" x="258.37" y="-815.5" font-family="Helvetica,sans-Serif" font-size="10.00"> </text>
<polyline fill="none" stroke="black" points="201.87,-808.5 314.87,-808.5 "/>
<text text-anchor="start" x="209.87" y="-796.5" font-family="Helvetica,sans-Serif" font-size="10.00">+ Descriptor()</text>
<text text-anchor="start" x="209.87" y="-785.5" font-family="Helvetica,sans-Serif" font-size="10.00">+ Descriptor()</text>
<text text-anchor="start" x="209.87" y="-774.5" font-family="Helvetica,sans-Serif" font-size="10.00">+ Descriptor()</text>
<text text-anchor="start" x="209.87" y="-763.5" font-family="Helvetica,sans-Serif" font-size="10.00">+ operator=()</text>
<text text-anchor="start" x="209.87" y="-752.5" font-family="Helvetica,sans-Serif" font-size="10.00">+ operator ItgType()</text>
<text text-anchor="start" x="209.87" y="-741.5" font-family="Helvetica,sans-Serif" font-size="10.00">+ Descriptor()</text>
<text text-anchor="start" x="209.87" y="-730.5" font-family="Helvetica,sans-Serif" font-size="10.00">+ runtimeInit()</text>
<text text-anchor="start" x="209.87" y="-719.5" font-family="Helvetica,sans-Serif" font-size="10.00">+ operator==()</text>
<text text-anchor="start" x="209.87" y="-708.5" font-family="Helvetica,sans-Serif" font-size="10.00">+ operator!=()</text>
<text text-anchor="start" x="209.87" y="-697.5" font-family="Helvetica,sans-Serif" font-size="10.00">+ operator==()</text>
<text text-anchor="start" x="209.87" y="-686.5" font-family="Helvetica,sans-Serif" font-size="10.00">+ operator!=()</text>
<text text-anchor="start" x="209.87" y="-675.5" font-family="Helvetica,sans-Serif" font-size="10.00">+ print()</text>
</a>
</g>
</g>
<!-- Node4&#45;&gt;Node8 -->
<g id="edge8" class="edge"><title>Node4&#45;&gt;Node8</title>
<path fill="none" stroke="#404040" d="M241.886,-929.223C241.82,-913.572 242.082,-893.673 243.37,-876 243.52,-873.949 243.682,-871.877 243.856,-869.791"/>
<polygon fill="none" stroke="#404040" points="243.867,-869.667 240.436,-863.325 244.971,-857.718 248.402,-864.061 243.867,-869.667"/>
<text text-anchor="middle" x="253.37" y="-890.5" font-family="Helvetica,sans-Serif" font-size="10.00"> +itg</text>
</g>
<!-- Node10 -->
<g id="node10" class="node"><title>Node10</title>
<g id="a_node10"><a xlink:href="../../d9/db3/structo2_1_1header_1_1Descriptor.html" target="_top" xlink:title="{o2::header::Descriptor\l\&lt; gSizeSerializationMethodString \&gt;\n||+ Descriptor()\l+ Descriptor()\l+ Descriptor()\l+ Descriptor()\l+ operator=()\l+ operator ItgType()\l+ runtimeInit()\l+ operator==()\l+ operator==()\l+ operator!=()\l+ operator!=()\l+ print()\l}">
<polygon fill="none" stroke="black" points="167.37,-420.5 167.37,-609.5 337.37,-609.5 337.37,-420.5 167.37,-420.5"/>
<text text-anchor="start" x="175.37" y="-597.5" font-family="Helvetica,sans-Serif" font-size="10.00">o2::header::Descriptor</text>
<text text-anchor="middle" x="252.37" y="-586.5" font-family="Helvetica,sans-Serif" font-size="10.00">&lt; gSizeSerializationMethodString &gt;</text>
<polyline fill="none" stroke="black" points="167.37,-579.5 337.37,-579.5 "/>
<text text-anchor="middle" x="252.37" y="-567.5" font-family="Helvetica,sans-Serif" font-size="10.00"> </text>
<polyline fill="none" stroke="black" points="167.37,-560.5 337.37,-560.5 "/>
<text text-anchor="start" x="175.37" y="-548.5" font-family="Helvetica,sans-Serif" font-size="10.00">+ Descriptor()</text>
<text text-anchor="start" x="175.37" y="-537.5" font-family="Helvetica,sans-Serif" font-size="10.00">+ Descriptor()</text>
<text text-anchor="start" x="175.37" y="-526.5" font-family="Helvetica,sans-Serif" font-size="10.00">+ Descriptor()</text>
<text text-anchor="start" x="175.37" y="-515.5" font-family="Helvetica,sans-Serif" font-size="10.00">+ Descriptor()</text>
<text text-anchor="start" x="175.37" y="-504.5" font-family="Helvetica,sans-Serif" font-size="10.00">+ operator=()</text>
<text text-anchor="start" x="175.37" y="-493.5" font-family="Helvetica,sans-Serif" font-size="10.00">+ operator ItgType()</text>
<text text-anchor="start" x="175.37" y="-482.5" font-family="Helvetica,sans-Serif" font-size="10.00">+ runtimeInit()</text>
<text text-anchor="start" x="175.37" y="-471.5" font-family="Helvetica,sans-Serif" font-size="10.00">+ operator==()</text>
<text text-anchor="start" x="175.37" y="-460.5" font-family="Helvetica,sans-Serif" font-size="10.00">+ operator==()</text>
<text text-anchor="start" x="175.37" y="-449.5" font-family="Helvetica,sans-Serif" font-size="10.00">+ operator!=()</text>
<text text-anchor="start" x="175.37" y="-438.5" font-family="Helvetica,sans-Serif" font-size="10.00">+ operator!=()</text>
<text text-anchor="start" x="175.37" y="-427.5" font-family="Helvetica,sans-Serif" font-size="10.00">+ print()</text>
</a>
</g>
</g>
<!-- Node4&#45;&gt;Node10 -->
<g id="edge17" class="edge"><title>Node4&#45;&gt;Node10</title>
<path fill="none" stroke="#404040" d="M223.203,-948.667C208.013,-940.972 187.686,-928.004 177.37,-910 153.711,-868.707 139.963,-799.155 172.37,-668 176.284,-652.159 182.18,-636.145 189.032,-620.757"/>
<polygon fill="none" stroke="#404040" points="189.124,-620.558 188.021,-613.432 194.175,-609.673 195.278,-616.8 189.124,-620.558"/>
<text text-anchor="middle" x="182.37" y="-760.5" font-family="Helvetica,sans-Serif" font-size="10.00"> +itg</text>
</g>
<!-- Node5 -->
<g id="node5" class="node"><title>Node5</title>
<polygon fill="none" stroke="#bfbfbf" points="627.87,-929 627.87,-987 656.87,-987 656.87,-929 627.87,-929"/>
<polyline fill="none" stroke="#bfbfbf" points="627.87,-967 656.87,-967 "/>
<text text-anchor="middle" x="642.37" y="-955" font-family="Helvetica,sans-Serif" font-size="10.00"> </text>
<polyline fill="none" stroke="#bfbfbf" points="627.87,-948 656.87,-948 "/>
<text text-anchor="middle" x="642.37" y="-936" font-family="Helvetica,sans-Serif" font-size="10.00"> </text>
</g>
<!-- Node5&#45;&gt;Node2 -->
<g id="edge12" class="edge"><title>Node5&#45;&gt;Node2</title>
<path fill="none" stroke="#404040" d="M650.718,-928.704C656.073,-909.064 662.535,-882.185 665.37,-858 688.966,-656.707 667.704,-604.67 668.37,-402 668.499,-362.889 677.643,-351.996 668.37,-314 667.807,-311.692 667.164,-309.376 666.451,-307.062"/>
<polygon fill="none" stroke="#404040" points="666.379,-306.858 660.606,-302.537 662.374,-295.546 668.147,-299.867 666.379,-306.858"/>
<text text-anchor="middle" x="691.87" y="-636.5" font-family="Helvetica,sans-Serif" font-size="10.00"> +@11</text>
</g>
<!-- Node5&#45;&gt;Node2 -->
<g id="edge14" class="edge"><title>Node5&#45;&gt;Node2</title>
<path fill="none" stroke="#404040" d="M656.985,-938.219C662.815,-929.95 669.134,-919.883 673.37,-910 699.313,-849.474 705.749,-740.294 711.37,-650 720.677,-500.51 737.847,-454.286 685.37,-314 684.426,-311.475 683.376,-308.96 682.238,-306.464"/>
<polygon fill="none" stroke="#404040" points="682.181,-306.352 675.892,-302.823 676.731,-295.661 683.019,-299.19 682.181,-306.352"/>
<text text-anchor="middle" x="728.87" y="-636.5" font-family="Helvetica,sans-Serif" font-size="10.00"> +@13</text>
</g>
<!-- Node5&#45;&gt;Node3 -->
<g id="edge4" class="edge"><title>Node5&#45;&gt;Node3</title>
<path fill="none" stroke="#404040" d="M641.083,-928.923C638.013,-871.671 628.543,-737.594 603.37,-628 602.874,-625.84 602.362,-623.659 601.835,-621.464"/>
<polygon fill="none" stroke="#404040" points="601.786,-621.265 596.461,-616.402 598.902,-609.617 604.227,-614.479 601.786,-621.265"/>
<text text-anchor="middle" x="648.87" y="-760.5" font-family="Helvetica,sans-Serif" font-size="10.00"> +@9</text>
</g>
<!-- Node5&#45;&gt;Node8 -->
<g id="edge9" class="edge"><title>Node5&#45;&gt;Node8</title>
<path fill="none" stroke="#404040" d="M627.572,-955.526C580.068,-950.172 428.748,-928.217 329.37,-858 327.648,-856.783 325.949,-855.511 324.274,-854.192"/>
<polygon fill="none" stroke="#404040" points="324.043,-853.992 316.887,-853.1 314.958,-846.152 322.114,-847.044 324.043,-853.992"/>
<text text-anchor="middle" x="436.87" y="-890.5" font-family="Helvetica,sans-Serif" font-size="10.00"> +@9</text>
</g>
<!-- Node5&#45;&gt;Node10 -->
<g id="edge18" class="edge"><title>Node5&#45;&gt;Node10</title>
<path fill="none" stroke="#404040" d="M627.868,-937.672C614.281,-918.505 594.581,-887.771 584.37,-858 550.273,-758.58 620.934,-679.604 529.37,-628 458.943,-588.309 421.615,-644.214 348.37,-610 348.255,-609.946 348.139,-609.892 348.024,-609.837"/>
<polygon fill="none" stroke="#404040" points="348.062,-609.858 340.887,-610.586 337.456,-604.244 344.63,-603.515 348.062,-609.858"/>
<text text-anchor="middle" x="596.87" y="-760.5" font-family="Helvetica,sans-Serif" font-size="10.00"> +@9</text>
</g>
<!-- Node6 -->
<g id="node6" class="node"><title>Node6</title>
<polygon fill="none" stroke="#bfbfbf" points="59.8703,-929.5 59.8703,-986.5 94.8703,-986.5 94.8703,-929.5 59.8703,-929.5"/>
<text text-anchor="middle" x="77.3703" y="-974.5" font-family="Helvetica,sans-Serif" font-size="10.00">char</text>
<polyline fill="none" stroke="#bfbfbf" points="59.8703,-967.5 94.8703,-967.5 "/>
<text text-anchor="middle" x="77.3703" y="-955.5" font-family="Helvetica,sans-Serif" font-size="10.00"> </text>
<polyline fill="none" stroke="#bfbfbf" points="59.8703,-948.5 94.8703,-948.5 "/>
<text text-anchor="middle" x="77.3703" y="-936.5" font-family="Helvetica,sans-Serif" font-size="10.00"> </text>
</g>
<!-- Node6&#45;&gt;Node2 -->
<g id="edge15" class="edge"><title>Node6&#45;&gt;Node2</title>
<path fill="none" stroke="#404040" d="M59.6226,-931.418C55.4969,-924.671 51.424,-917.245 48.3703,-910 39.1173,-888.048 39.5778,-881.448 35.3703,-858 17.2255,-756.883 -18.5782,-725.96 12.3703,-628 46.3954,-520.302 88.1118,-508.432 158.37,-420 197.723,-370.467 198.6,-345.66 253.37,-314 279.181,-299.08 453.031,-266.181 554.376,-247.895"/>
<polygon fill="none" stroke="#404040" points="554.55,-247.864 559.747,-242.865 566.361,-245.74 561.163,-250.739 554.55,-247.864"/>
<text text-anchor="middle" x="42.8703" y="-636.5" font-family="Helvetica,sans-Serif" font-size="10.00"> +magicString</text>
</g>
<!-- Node6&#45;&gt;Node3 -->
<g id="edge5" class="edge"><title>Node6&#45;&gt;Node3</title>
<path fill="none" stroke="#404040" d="M79.1417,-929.375C83.7252,-865.404 97.8128,-709.403 128.37,-668 193.47,-579.794 406.044,-626.705 476.418,-611.372"/>
<polygon fill="none" stroke="#404040" points="476.754,-611.263 481.236,-605.614 488.175,-607.578 483.693,-613.227 476.754,-611.263"/>
<text text-anchor="middle" x="138.87" y="-760.5" font-family="Helvetica,sans-Serif" font-size="10.00"> +str</text>
</g>
<!-- Node6&#45;&gt;Node8 -->
<g id="edge10" class="edge"><title>Node6&#45;&gt;Node8</title>
<path fill="none" stroke="#404040" d="M95.0846,-942.856C117.649,-924.448 157.319,-890.751 187.37,-858 189.563,-855.61 191.757,-853.156 193.943,-850.654"/>
<polygon fill="none" stroke="#404040" points="194.028,-850.553 194.873,-843.392 201.809,-841.417 200.964,-848.579 194.028,-850.553"/>
<text text-anchor="middle" x="178.87" y="-890.5" font-family="Helvetica,sans-Serif" font-size="10.00"> +str</text>
</g>
<!-- Node6&#45;&gt;Node10 -->
<g id="edge19" class="edge"><title>Node6&#45;&gt;Node10</title>
<path fill="none" stroke="#404040" d="M67.0959,-929.413C48.8144,-875.41 16.7209,-753.56 63.3703,-668 86.1498,-626.22 115.952,-639.4 153.37,-610 154.797,-608.879 156.227,-607.741 157.659,-606.588"/>
<polygon fill="none" stroke="#404040" points="157.863,-606.419 159.945,-599.515 167.118,-598.781 165.037,-605.685 157.863,-606.419"/>
<text text-anchor="middle" x="73.8703" y="-760.5" font-family="Helvetica,sans-Serif" font-size="10.00"> +str</text>
</g>
<!-- Node7 -->
<g id="node7" class="node"><title>Node7</title>
<polygon fill="none" stroke="#bfbfbf" points="336.87,-929.5 336.87,-986.5 365.87,-986.5 365.87,-929.5 336.87,-929.5"/>
<text text-anchor="middle" x="351.37" y="-974.5" font-family="Helvetica,sans-Serif" font-size="10.00">int</text>
<polyline fill="none" stroke="#bfbfbf" points="336.87,-967.5 365.87,-967.5 "/>
<text text-anchor="middle" x="351.37" y="-955.5" font-family="Helvetica,sans-Serif" font-size="10.00"> </text>
<polyline fill="none" stroke="#bfbfbf" points="336.87,-948.5 365.87,-948.5 "/>
<text text-anchor="middle" x="351.37" y="-936.5" font-family="Helvetica,sans-Serif" font-size="10.00"> </text>
</g>
<!-- Node7&#45;&gt;Node3 -->
<g id="edge6" class="edge"><title>Node7&#45;&gt;Node3</title>
<path fill="none" stroke="#404040" d="M365.887,-954.42C388.046,-949.695 430.079,-937.491 452.37,-910 521.902,-824.25 436.506,-751.804 508.37,-668 522.392,-651.648 540.131,-666.992 553.37,-650 559.974,-641.525 564.792,-631.796 568.251,-621.533"/>
<polygon fill="none" stroke="#404040" points="568.317,-621.3 566.112,-614.434 571.602,-609.758 573.807,-616.624 568.317,-621.3"/>
<text text-anchor="middle" x="533.87" y="-771.5" font-family="Helvetica,sans-Serif" font-size="10.00"> +arraySize</text>
<text text-anchor="middle" x="533.87" y="-760.5" font-family="Helvetica,sans-Serif" font-size="10.00">+size</text>
<text text-anchor="middle" x="533.87" y="-749.5" font-family="Helvetica,sans-Serif" font-size="10.00">+bitcount</text>
</g>
<!-- Node7&#45;&gt;Node8 -->
<g id="edge11" class="edge"><title>Node7&#45;&gt;Node8</title>
<path fill="none" stroke="#404040" d="M336.696,-950.479C321.582,-942.965 298.564,-929.146 286.37,-910 278.571,-897.755 272.848,-883.842 268.664,-869.586"/>
<polygon fill="none" stroke="#404040" points="268.553,-869.164 263.159,-864.379 265.501,-857.559 270.895,-862.344 268.553,-869.164"/>
<text text-anchor="middle" x="311.87" y="-901.5" font-family="Helvetica,sans-Serif" font-size="10.00"> +arraySize</text>
<text text-anchor="middle" x="311.87" y="-890.5" font-family="Helvetica,sans-Serif" font-size="10.00">+size</text>
<text text-anchor="middle" x="311.87" y="-879.5" font-family="Helvetica,sans-Serif" font-size="10.00">+bitcount</text>
</g>
<!-- Node7&#45;&gt;Node10 -->
<g id="edge20" class="edge"><title>Node7&#45;&gt;Node10</title>
<path fill="none" stroke="#404040" d="M355.147,-929.104C361.897,-871.059 372.04,-733.885 334.37,-628 333.518,-625.605 332.597,-623.218 331.615,-620.841"/>
<polygon fill="none" stroke="#404040" points="331.564,-620.73 325.437,-616.927 326.591,-609.809 332.718,-613.612 331.564,-620.73"/>
<text text-anchor="middle" x="387.87" y="-771.5" font-family="Helvetica,sans-Serif" font-size="10.00"> +arraySize</text>
<text text-anchor="middle" x="387.87" y="-760.5" font-family="Helvetica,sans-Serif" font-size="10.00">+size</text>
<text text-anchor="middle" x="387.87" y="-749.5" font-family="Helvetica,sans-Serif" font-size="10.00">+bitcount</text>
</g>
<!-- Node8&#45;&gt;Node1 -->
<g id="edge25" class="edge"><title>Node8&#45;&gt;Node1</title>
<path fill="none" stroke="#404040" d="M201.724,-676.031C179.17,-641.779 158.453,-610.275 158.37,-610 120.475,-483.45 99.3557,-414.261 185.37,-314 319.379,-157.795 565.323,-94.4586 697.577,-70.7846"/>
<polygon fill="none" stroke="#404040" points="697.803,-70.7453 703.026,-65.7731 709.624,-68.6818 704.402,-73.654 697.803,-70.7453"/>
<text text-anchor="middle" x="219.37" y="-355.5" font-family="Helvetica,sans-Serif" font-size="10.00"> +sHeaderType</text>
</g>
<!-- Node8&#45;&gt;Node2 -->
<g id="edge22" class="edge"><title>Node8&#45;&gt;Node2</title>
<path fill="none" stroke="#404040" d="M315.003,-692.102C323.873,-678.706 332.148,-664.362 338.37,-650 379.743,-554.501 327.471,-508.419 382.37,-420 423.97,-353.001 499.328,-301.649 555.523,-270.238"/>
<polygon fill="none" stroke="#404040" points="555.616,-270.187 558.951,-263.794 566.136,-264.414 562.8,-270.808 555.616,-270.187"/>
<text text-anchor="middle" x="430.87" y="-518" font-family="Helvetica,sans-Serif" font-size="10.00"> +sHeaderType</text>
<text text-anchor="middle" x="430.87" y="-507" font-family="Helvetica,sans-Serif" font-size="10.00">+sSerializationMethod</text>
</g>
<!-- Node8&#45;&gt;Node3 -->
<g id="edge7" class="edge"><title>Node8&#45;&gt;Node3</title>
<path fill="none" stroke="orange" d="M322.931,-672.928C325.039,-671.207 327.186,-669.56 329.37,-668 350.302,-653.054 362.306,-663.218 384.37,-650 396.505,-642.73 395.044,-634.94 407.37,-628 434.238,-612.872 447.552,-625.216 474.37,-610 479.061,-607.338 483.693,-604.396 488.237,-601.246"/>
<polygon fill="orange" stroke="orange" points="320.195,-670.673 314.999,-679.906 324.819,-675.928 320.195,-670.673"/>
<text text-anchor="start" x="407.37" y="-642" font-family="Helvetica,sans-Serif" font-size="10.00"> &lt; gSizeHeaderDescription</text>
<text text-anchor="middle" x="466.37" y="-631" font-family="Helvetica,sans-Serif" font-size="10.00">String &gt;</text>
</g>
<!-- Node8&#45;&gt;Node10 -->
<g id="edge21" class="edge"><title>Node8&#45;&gt;Node10</title>
<path fill="none" stroke="orange" d="M213.312,-658.619C212.596,-655.735 211.946,-652.859 211.37,-650 208.729,-636.883 209.116,-623.216 211.351,-609.843"/>
<polygon fill="orange" stroke="orange" points="209.981,-659.709 215.982,-668.441 216.736,-657.873 209.981,-659.709"/>
<text text-anchor="start" x="211.37" y="-642" font-family="Helvetica,sans-Serif" font-size="10.00"> &lt; gSizeSerializationMethod</text>
<text text-anchor="middle" x="272.87" y="-631" font-family="Helvetica,sans-Serif" font-size="10.00">String &gt;</text>
</g>
<!-- Node9 -->
<g id="node9" class="node"><title>Node9</title>
<polygon fill="none" stroke="#bfbfbf" points="785.87,-486.5 785.87,-543.5 836.87,-543.5 836.87,-486.5 785.87,-486.5"/>
<text text-anchor="middle" x="811.37" y="-531.5" font-family="Helvetica,sans-Serif" font-size="10.00">uint32_t</text>
<polyline fill="none" stroke="#bfbfbf" points="785.87,-524.5 836.87,-524.5 "/>
<text text-anchor="middle" x="811.37" y="-512.5" font-family="Helvetica,sans-Serif" font-size="10.00"> </text>
<polyline fill="none" stroke="#bfbfbf" points="785.87,-505.5 836.87,-505.5 "/>
<text text-anchor="middle" x="811.37" y="-493.5" font-family="Helvetica,sans-Serif" font-size="10.00"> </text>
</g>
<!-- Node9&#45;&gt;Node1 -->
<g id="edge23" class="edge"><title>Node9&#45;&gt;Node1</title>
<path fill="none" stroke="#404040" d="M816.489,-486.041C820.352,-463.455 825.323,-430.801 827.37,-402 834.226,-305.537 816.677,-194.494 802.683,-125.27"/>
<polygon fill="none" stroke="#404040" points="802.631,-125.018 797.502,-119.95 800.207,-113.266 805.337,-118.334 802.631,-125.018"/>
<text text-anchor="middle" x="850.37" y="-231.5" font-family="Helvetica,sans-Serif" font-size="10.00"> +sVersion</text>
</g>
<!-- Node9&#45;&gt;Node2 -->
<g id="edge13" class="edge"><title>Node9&#45;&gt;Node2</title>
<path fill="none" stroke="#404040" d="M792.627,-486.049C778.541,-464.005 759.638,-432.067 747.37,-402 732.099,-364.571 746.235,-348.001 724.37,-314 717.102,-302.697 707.68,-292.243 697.571,-282.887"/>
<polygon fill="none" stroke="#404040" points="697.56,-282.877 690.413,-281.92 688.547,-274.955 695.694,-275.912 697.56,-282.877"/>
<text text-anchor="middle" x="787.37" y="-394" font-family="Helvetica,sans-Serif" font-size="10.00"> +headerVersion</text>
<text text-anchor="middle" x="787.37" y="-383" font-family="Helvetica,sans-Serif" font-size="10.00">+headerSize</text>
<text text-anchor="middle" x="787.37" y="-372" font-family="Helvetica,sans-Serif" font-size="10.00">+sMagicString</text>
<text text-anchor="middle" x="787.37" y="-361" font-family="Helvetica,sans-Serif" font-size="10.00">+flagsNextHeader</text>
<text text-anchor="middle" x="787.37" y="-350" font-family="Helvetica,sans-Serif" font-size="10.00">+magicStringInt</text>
<text text-anchor="middle" x="787.37" y="-339" font-family="Helvetica,sans-Serif" font-size="10.00">+flagsUnused</text>
<text text-anchor="middle" x="787.37" y="-328" font-family="Helvetica,sans-Serif" font-size="10.00">+flags</text>
<text text-anchor="middle" x="787.37" y="-317" font-family="Helvetica,sans-Serif" font-size="10.00">+sVersion</text>
</g>
<!-- Node10&#45;&gt;Node2 -->
<g id="edge16" class="edge"><title>Node10&#45;&gt;Node2</title>
<path fill="none" stroke="#404040" d="M253.244,-420.472C258.363,-382.873 270.728,-341.909 298.37,-314 333.669,-278.361 468.294,-255.114 554.009,-243.586"/>
<polygon fill="none" stroke="#404040" points="554.126,-243.571 559.552,-238.822 566.023,-242.004 560.597,-246.753 554.126,-243.571"/>
<text text-anchor="middle" x="328.87" y="-355.5" font-family="Helvetica,sans-Serif" font-size="10.00"> +serialization</text>
</g>
<!-- Node11 -->
<g id="node11" class="node"><title>Node11</title>
<polygon fill="none" stroke="#bfbfbf" points="907.87,-205.5 907.87,-262.5 958.87,-262.5 958.87,-205.5 907.87,-205.5"/>
<text text-anchor="middle" x="933.37" y="-250.5" font-family="Helvetica,sans-Serif" font-size="10.00">uint64_t</text>
<polyline fill="none" stroke="#bfbfbf" points="907.87,-243.5 958.87,-243.5 "/>
<text text-anchor="middle" x="933.37" y="-231.5" font-family="Helvetica,sans-Serif" font-size="10.00"> </text>
<polyline fill="none" stroke="#bfbfbf" points="907.87,-224.5 958.87,-224.5 "/>
<text text-anchor="middle" x="933.37" y="-212.5" font-family="Helvetica,sans-Serif" font-size="10.00"> </text>
</g>
<!-- Node11&#45;&gt;Node1 -->
<g id="edge24" class="edge"><title>Node11&#45;&gt;Node1</title>
<path fill="none" stroke="#404040" d="M916.599,-205.292C909.776,-194.609 901.573,-182.466 893.37,-172 880.271,-155.285 865.226,-138.091 850.665,-122.286"/>
<polygon fill="none" stroke="#404040" points="850.342,-121.939 843.326,-120.273 842.165,-113.156 849.181,-114.822 850.342,-121.939"/>
<text text-anchor="middle" x="901.37" y="-146" font-family="Helvetica,sans-Serif" font-size="10.00"> +duration</text>
<text text-anchor="middle" x="901.37" y="-135" font-family="Helvetica,sans-Serif" font-size="10.00">+startTime</text>
</g>
</g>
</svg>
        <g id="navigator" transform="translate(0 0)" fill="#404254">
                <rect fill="#f2f5e9" fill-opacity="0.5" stroke="#606060" stroke-width=".5" x="0" y="0" width="60" height="60"/>
                <use id="zoomplus" xlink:href="#zoomPlus" x="17" y="9" onmousedown="handleZoom(evt,'in')"/>
                <use id="zoomminus" xlink:href="#zoomMin" x="42" y="9" onmousedown="handleZoom(evt,'out')"/>
                <use id="reset" xlink:href="#resetDef" x="30" y="36" onmousedown="handleReset()"/>
                <g id="arrowUp" xlink:href="#dirArrow" transform="translate(30 24)" onmousedown="handlePan(0,-1)">
                  <use xlink:href="#rim" fill="#404040">
                        <set attributeName="fill" to="#808080" begin="arrowUp.mouseover" end="arrowUp.mouseout"/>
                  </use>
                  <path fill="none" stroke="white" stroke-width="1.5" d="M0,-3.0v7 M-2.5,-0.5L0,-3.0L2.5,-0.5"/>
                </g>
                <g id="arrowRight" xlink:href="#dirArrow" transform="rotate(90) translate(36 -43)" onmousedown="handlePan(1,0)">
                  <use xlink:href="#rim" fill="#404040">
                        <set attributeName="fill" to="#808080" begin="arrowRight.mouseover" end="arrowRight.mouseout"/>
                  </use>
                  <path fill="none" stroke="white" stroke-width="1.5" d="M0,-3.0v7 M-2.5,-0.5L0,-3.0L2.5,-0.5"/>
                </g>
                <g id="arrowDown" xlink:href="#dirArrow" transform="rotate(180) translate(-30 -48)" onmousedown="handlePan(0,1)">
                  <use xlink:href="#rim" fill="#404040">
                        <set attributeName="fill" to="#808080" begin="arrowDown.mouseover" end="arrowDown.mouseout"/>
                  </use>
                  <path fill="none" stroke="white" stroke-width="1.5" d="M0,-3.0v7 M-2.5,-0.5L0,-3.0L2.5,-0.5"/>
                </g>
                <g id="arrowLeft" xlink:href="#dirArrow" transform="rotate(270) translate(-36 17)" onmousedown="handlePan(-1,0)">
                  <use xlink:href="#rim" fill="#404040">
                        <set attributeName="fill" to="#808080" begin="arrowLeft.mouseover" end="arrowLeft.mouseout"/>
                  </use>
                  <path fill="none" stroke="white" stroke-width="1.5" d="M0,-3.0v7 M-2.5,-0.5L0,-3.0L2.5,-0.5"/>
                </g>
        </g>
        <svg viewBox="0 0 15 15" width="100%" height="30px" preserveAspectRatio="xMaxYMin meet">
         <g id="arrow_out" transform="scale(0.3 0.3)">
          <a xlink:href="structo2_1_1framework_1_1DataProcessingHeader__coll__graph_org.svg" target="_base">
           <rect id="button" ry="5" rx="5" y="6" x="6" height="38" width="38"
                fill="#f2f5e9" fill-opacity="0.5" stroke="#606060" stroke-width="1.0"/>
           <path id="arrow"
             d="M 11.500037,31.436501 C 11.940474,20.09759 22.043105,11.32322 32.158766,21.979434 L 37.068811,17.246167 C 37.068811,17.246167 37.088388,32 37.088388,32 L 22.160133,31.978069 C 22.160133,31.978069 26.997745,27.140456 26.997745,27.140456 C 18.528582,18.264221 13.291696,25.230495 11.500037,31.436501 z"
             style="fill:#404040;"/>
          </a>
         </g>
        </svg>
</svg>
