<?xml version="1.0" encoding="UTF-8" standalone="no"?>
<!DOCTYPE svg PUBLIC "-//W3C//DTD SVG 1.1//EN"
 "http://www.w3.org/Graphics/SVG/1.1/DTD/svg11.dtd">
<!-- Generated by graphviz version 2.36.0 (20140111.2315)
 -->
<!-- Title: ImGuiStyleMod Pages: 1 -->
<svg width="205pt" height="206pt"
 viewBox="0.00 0.00 205.00 206.00" xmlns="http://www.w3.org/2000/svg" xmlns:xlink="http://www.w3.org/1999/xlink">
<g id="graph0" class="graph" transform="scale(1 1) rotate(0) translate(4 202)">
<title>ImGuiStyleMod</title>
<!-- Node1 -->
<g id="node1" class="node"><title>Node1</title>
<polygon fill="#bfbfbf" stroke="black" points="18.5,-0.5 18.5,-79.5 117.5,-79.5 117.5,-0.5 18.5,-0.5"/>
<text text-anchor="middle" x="68" y="-67.5" font-family="Helvetica,sans-Serif" font-size="10.00">ImGuiStyleMod</text>
<polyline fill="none" stroke="black" points="18.5,-60.5 117.5,-60.5 "/>
<text text-anchor="middle" x="68" y="-48.5" font-family="Helvetica,sans-Serif" font-size="10.00"> </text>
<polyline fill="none" stroke="black" points="18.5,-41.5 117.5,-41.5 "/>
<text text-anchor="start" x="26.5" y="-29.5" font-family="Helvetica,sans-Serif" font-size="10.00">+ ImGuiStyleMod()</text>
<text text-anchor="start" x="26.5" y="-18.5" font-family="Helvetica,sans-Serif" font-size="10.00">+ ImGuiStyleMod()</text>
<text text-anchor="start" x="26.5" y="-7.5" font-family="Helvetica,sans-Serif" font-size="10.00">+ ImGuiStyleMod()</text>
</g>
<!-- Node2 -->
<g id="node2" class="node"><title>Node2</title>
<polygon fill="none" stroke="#bfbfbf" points="-0.5,-139 -0.5,-197 28.5,-197 28.5,-139 -0.5,-139"/>
<polyline fill="none" stroke="#bfbfbf" points="-0.5,-177 28.5,-177 "/>
<text text-anchor="middle" x="14" y="-165" font-family="Helvetica,sans-Serif" font-size="10.00"> </text>
<polyline fill="none" stroke="#bfbfbf" points="-0.5,-158 28.5,-158 "/>
<text text-anchor="middle" x="14" y="-146" font-family="Helvetica,sans-Serif" font-size="10.00"> </text>
</g>
<!-- Node2&#45;&gt;Node1 -->
<g id="edge1" class="edge"><title>Node2&#45;&gt;Node1</title>
<path fill="none" stroke="#404040" d="M19.8445,-138.855C22.9731,-126.096 27.3579,-110.992 33,-98 34.0711,-95.5335 35.2348,-93.0469 36.4656,-90.5639"/>
<polygon fill="none" stroke="#404040" points="36.5709,-90.3661 35.8612,-83.19 42.2123,-79.7748 42.922,-86.9509 36.5709,-90.3661"/>
<text text-anchor="middle" x="48.5" y="-106.5" font-family="Helvetica,sans-Serif" font-size="10.00"> +@71</text>
</g>
<!-- Node3 -->
<g id="node3" class="node"><title>Node3</title>
<g id="a_node3"><a xlink:href="../../d4/dc3/classfloat.html" target="_top" xlink:title="{float\n||}">
<polygon fill="none" stroke="black" points="50.5,-139.5 50.5,-196.5 85.5,-196.5 85.5,-139.5 50.5,-139.5"/>
<text text-anchor="middle" x="68" y="-184.5" font-family="Helvetica,sans-Serif" font-size="10.00">float</text>
<polyline fill="none" stroke="black" points="50.5,-177.5 85.5,-177.5 "/>
<text text-anchor="middle" x="68" y="-165.5" font-family="Helvetica,sans-Serif" font-size="10.00"> </text>
<polyline fill="none" stroke="black" points="50.5,-158.5 85.5,-158.5 "/>
<text text-anchor="middle" x="68" y="-146.5" font-family="Helvetica,sans-Serif" font-size="10.00"> </text>
</a>
</g>
</g>
<!-- Node3&#45;&gt;Node1 -->
<g id="edge2" class="edge"><title>Node3&#45;&gt;Node1</title>
<path fill="none" stroke="#404040" d="M68,-139.349C68,-125.379 68,-107.98 68,-91.7177"/>
<polygon fill="none" stroke="#404040" points="68.0001,-91.5786 64,-85.5787 68,-79.5786 72,-85.5786 68.0001,-91.5786"/>
<text text-anchor="middle" x="100" y="-106.5" font-family="Helvetica,sans-Serif" font-size="10.00"> +BackupFloat</text>
</g>
<!-- Node4 -->
<g id="node4" class="node"><title>Node4</title>
<polygon fill="none" stroke="#bfbfbf" points="140.5,-139.5 140.5,-196.5 169.5,-196.5 169.5,-139.5 140.5,-139.5"/>
<text text-anchor="middle" x="155" y="-184.5" font-family="Helvetica,sans-Serif" font-size="10.00">int</text>
<polyline fill="none" stroke="#bfbfbf" points="140.5,-177.5 169.5,-177.5 "/>
<text text-anchor="middle" x="155" y="-165.5" font-family="Helvetica,sans-Serif" font-size="10.00"> </text>
<polyline fill="none" stroke="#bfbfbf" points="140.5,-158.5 169.5,-158.5 "/>
<text text-anchor="middle" x="155" y="-146.5" font-family="Helvetica,sans-Serif" font-size="10.00"> </text>
</g>
<!-- Node4&#45;&gt;Node1 -->
<g id="edge3" class="edge"><title>Node4&#45;&gt;Node1</title>
<path fill="none" stroke="#404040" d="M149.799,-139.286C146.437,-126.042 141.128,-110.412 133,-98 130.821,-94.6725 128.397,-91.4232 125.801,-88.2714"/>
<polygon fill="none" stroke="#404040" points="125.601,-88.0491 118.614,-86.2642 117.575,-79.1284 124.562,-80.9133 125.601,-88.0491"/>
<text text-anchor="middle" x="170" y="-112" font-family="Helvetica,sans-Serif" font-size="10.00"> +BackupInt</text>
<text text-anchor="middle" x="170" y="-101" font-family="Helvetica,sans-Serif" font-size="10.00">+VarIdx</text>
</g>
</g>
</svg>
