<?xml version="1.0" encoding="UTF-8" standalone="no"?>
<!DOCTYPE svg PUBLIC "-//W3C//DTD SVG 1.1//EN"
 "http://www.w3.org/Graphics/SVG/1.1/DTD/svg11.dtd">
<!-- Generated by graphviz version 2.36.0 (20140111.2315)
 -->
<!-- Title: o2::DataFlow::SubframeBuilderDevice Pages: 1 -->
<svg width="170pt" height="464pt"
 viewBox="0.00 0.00 170.00 464.00" xmlns="http://www.w3.org/2000/svg" xmlns:xlink="http://www.w3.org/1999/xlink">
<g id="graph0" class="graph" transform="scale(1 1) rotate(0) translate(4 460)">
<title>o2::DataFlow::SubframeBuilderDevice</title>
<!-- Node1 -->
<g id="node1" class="node"><title>Node1</title>
<polygon fill="#bfbfbf" stroke="black" points="-0.5,-1 -0.5,-223 162.5,-223 162.5,-1 -0.5,-1"/>
<text text-anchor="start" x="7.5" y="-211" font-family="Helvetica,sans-Serif" font-size="10.00">o2::DataFlow::SubframeBuilder</text>
<text text-anchor="middle" x="81" y="-200" font-family="Helvetica,sans-Serif" font-size="10.00">Device</text>
<polyline fill="none" stroke="black" points="-0.5,-193 162.5,-193 "/>
<text text-anchor="start" x="7.5" y="-181" font-family="Helvetica,sans-Serif" font-size="10.00">+ OptionKeyInputChannelName</text>
<text text-anchor="start" x="7.5" y="-170" font-family="Helvetica,sans-Serif" font-size="10.00">+ OptionKeyOutputChannelName</text>
<text text-anchor="start" x="7.5" y="-159" font-family="Helvetica,sans-Serif" font-size="10.00">+ OptionKeyOrbitDuration</text>
<text text-anchor="start" x="7.5" y="-148" font-family="Helvetica,sans-Serif" font-size="10.00">+ OptionKeyOrbitsPerTimeframe</text>
<text text-anchor="start" x="7.5" y="-137" font-family="Helvetica,sans-Serif" font-size="10.00">+ OptionKeyInDataFile</text>
<text text-anchor="start" x="7.5" y="-126" font-family="Helvetica,sans-Serif" font-size="10.00">+ OptionKeyDetector</text>
<text text-anchor="start" x="7.5" y="-115" font-family="Helvetica,sans-Serif" font-size="10.00">+ OptionKeyFLPId</text>
<text text-anchor="start" x="7.5" y="-104" font-family="Helvetica,sans-Serif" font-size="10.00">+ OptionKeyStripHBF</text>
<text text-anchor="start" x="7.5" y="-93" font-family="Helvetica,sans-Serif" font-size="10.00">+ DefaultOrbitDuration</text>
<text text-anchor="start" x="7.5" y="-82" font-family="Helvetica,sans-Serif" font-size="10.00">+ DefaultOrbitsPerTimeframe</text>
<text text-anchor="start" x="7.5" y="-71" font-family="Helvetica,sans-Serif" font-size="10.00">+ DefaultHeartbeatStart</text>
<polyline fill="none" stroke="black" points="-0.5,-64 162.5,-64 "/>
<text text-anchor="start" x="7.5" y="-52" font-family="Helvetica,sans-Serif" font-size="10.00">+ SubframeBuilderDevice()</text>
<text text-anchor="start" x="7.5" y="-41" font-family="Helvetica,sans-Serif" font-size="10.00">+ ~SubframeBuilderDevice()</text>
<text text-anchor="start" x="7.5" y="-30" font-family="Helvetica,sans-Serif" font-size="10.00"># InitTask()</text>
<text text-anchor="start" x="7.5" y="-19" font-family="Helvetica,sans-Serif" font-size="10.00"># HandleData()</text>
<text text-anchor="start" x="7.5" y="-8" font-family="Helvetica,sans-Serif" font-size="10.00"># BuildAndSendFrame()</text>
</g>
<!-- Node2 -->
<g id="node2" class="node"><title>Node2</title>
<g id="a_node2"><a xlink:href="../../da/df6/classo2_1_1Base_1_1O2Device.html" target="_top" xlink:title="{o2::Base::O2Device\n|+ monitoring\l|+ ~O2Device()\l+ GetMonitoring()\l+ Init()\l+ AddMessage()\l+ ForEach()\l}">
<polygon fill="none" stroke="black" points="28.5,-260.5 28.5,-361.5 133.5,-361.5 133.5,-260.5 28.5,-260.5"/>
<text text-anchor="middle" x="81" y="-349.5" font-family="Helvetica,sans-Serif" font-size="10.00">o2::Base::O2Device</text>
<polyline fill="none" stroke="black" points="28.5,-342.5 133.5,-342.5 "/>
<text text-anchor="start" x="36.5" y="-330.5" font-family="Helvetica,sans-Serif" font-size="10.00">+ monitoring</text>
<polyline fill="none" stroke="black" points="28.5,-323.5 133.5,-323.5 "/>
<text text-anchor="start" x="36.5" y="-311.5" font-family="Helvetica,sans-Serif" font-size="10.00">+ ~O2Device()</text>
<text text-anchor="start" x="36.5" y="-300.5" font-family="Helvetica,sans-Serif" font-size="10.00">+ GetMonitoring()</text>
<text text-anchor="start" x="36.5" y="-289.5" font-family="Helvetica,sans-Serif" font-size="10.00">+ Init()</text>
<text text-anchor="start" x="36.5" y="-278.5" font-family="Helvetica,sans-Serif" font-size="10.00">+ AddMessage()</text>
<text text-anchor="start" x="36.5" y="-267.5" font-family="Helvetica,sans-Serif" font-size="10.00">+ ForEach()</text>
</a>
</g>
</g>
<!-- Node2&#45;&gt;Node1 -->
<g id="edge1" class="edge"><title>Node2&#45;&gt;Node1</title>
<path fill="none" stroke="midnightblue" d="M81,-250.029C81,-241.41 81,-232.324 81,-223.1"/>
<polygon fill="none" stroke="midnightblue" points="77.5001,-250.289 81,-260.289 84.5001,-250.289 77.5001,-250.289"/>
</g>
<!-- Node3 -->
<g id="node3" class="node"><title>Node3</title>
<g id="a_node3"><a xlink:href="../../db/dfe/classFairMQDevice.html" target="_top" xlink:title="{FairMQDevice\n||}">
<polygon fill="none" stroke="black" points="41,-398.5 41,-455.5 121,-455.5 121,-398.5 41,-398.5"/>
<text text-anchor="middle" x="81" y="-443.5" font-family="Helvetica,sans-Serif" font-size="10.00">FairMQDevice</text>
<polyline fill="none" stroke="black" points="41,-436.5 121,-436.5 "/>
<text text-anchor="middle" x="81" y="-424.5" font-family="Helvetica,sans-Serif" font-size="10.00"> </text>
<polyline fill="none" stroke="black" points="41,-417.5 121,-417.5 "/>
<text text-anchor="middle" x="81" y="-405.5" font-family="Helvetica,sans-Serif" font-size="10.00"> </text>
</a>
</g>
</g>
<!-- Node3&#45;&gt;Node2 -->
<g id="edge2" class="edge"><title>Node3&#45;&gt;Node2</title>
<path fill="none" stroke="midnightblue" d="M81,-388.354C81,-379.796 81,-370.578 81,-361.608"/>
<polygon fill="none" stroke="midnightblue" points="77.5001,-388.404 81,-398.404 84.5001,-388.404 77.5001,-388.404"/>
</g>
</g>
</svg>
