<?xml version="1.0" encoding="UTF-8" standalone="no"?>
<!DOCTYPE svg PUBLIC "-//W3C//DTD SVG 1.1//EN"
 "http://www.w3.org/Graphics/SVG/1.1/DTD/svg11.dtd">
<!-- Generated by graphviz version 2.36.0 (20140111.2315)
 -->
<!-- Title: /home/travis/build/AliceO2Group/AliceO2/Detectors/ITSMFT/common/simulation/include/ITSMFTSimulation/Digitizer.h Pages: 1 -->
<!--zoomable 412 -->
<svg id="main" version="1.1" xmlns="http://www.w3.org/2000/svg" xmlns:xlink="http://www.w3.org/1999/xlink" xml:space="preserve" onload="init(evt)">
<style type="text/css"><![CDATA[
.edge:hover path { stroke: red; }
.edge:hover polygon { stroke: red; fill: red; }
]]></style>
<script type="text/javascript"><![CDATA[
var edges = document.getElementsByTagName('g');
if (edges && edges.length) {
  for (var i=0;i<edges.length;i++) {
    if (edges[i].id.substr(0,4)=='edge') {
      edges[i].setAttribute('class','edge');
    }
  }
}
]]></script>
        <defs>
                <circle id="rim" cx="0" cy="0" r="7"/>
                <circle id="rim2" cx="0" cy="0" r="3.5"/>
                <g id="zoomPlus">
                        <use xlink:href="#rim" fill="#404040">
                                <set attributeName="fill" to="#808080" begin="zoomplus.mouseover" end="zoomplus.mouseout"/>
                        </use>
                        <path d="M-4,0h8M0,-4v8" fill="none" stroke="white" stroke-width="1.5" pointer-events="none"/>
                </g>
                <g id="zoomMin">
                        <use xlink:href="#rim" fill="#404040">
                                <set attributeName="fill" to="#808080" begin="zoomminus.mouseover" end="zoomminus.mouseout"/>
                        </use>
                        <path d="M-4,0h8" fill="none" stroke="white" stroke-width="1.5" pointer-events="none"/>
                </g>
                <g id="dirArrow">
                        <path fill="none" stroke="white" stroke-width="1.5" d="M0,-3.0v7 M-2.5,-0.5L0,-3.0L2.5,-0.5"/>
                </g>
               <g id="resetDef">
                       <use xlink:href="#rim2" fill="#404040">
                               <set attributeName="fill" to="#808080" begin="reset.mouseover" end="reset.mouseout"/>
                       </use>
               </g>
        </defs>

<script type="text/javascript">
var viewWidth = 2581;
var viewHeight = 412;
var sectionId = 'dynsection-0';
</script>
<script xlink:href="../../svgpan.js"/>
<svg id="graph" class="graph">
<g id="viewport">
<title>/home/travis/build/AliceO2Group/AliceO2/Detectors/ITSMFT/common/simulation/include/ITSMFTSimulation/Digitizer.h</title>
<!-- Node1 -->
<g id="node1" class="node"><title>Node1</title>
<polygon fill="#bfbfbf" stroke="black" points="338,-340.5 338,-403.5 520,-403.5 520,-340.5 338,-340.5"/>
<text text-anchor="start" x="346" y="-391.5" font-family="Helvetica,sans-Serif" font-size="10.00">/home/travis/build</text>
<text text-anchor="start" x="346" y="-380.5" font-family="Helvetica,sans-Serif" font-size="10.00">/AliceO2Group/AliceO2</text>
<text text-anchor="start" x="346" y="-369.5" font-family="Helvetica,sans-Serif" font-size="10.00">/Detectors/ITSMFT/common</text>
<text text-anchor="start" x="346" y="-358.5" font-family="Helvetica,sans-Serif" font-size="10.00">/simulation/include/ITSMFTSimulation</text>
<text text-anchor="middle" x="429" y="-347.5" font-family="Helvetica,sans-Serif" font-size="10.00">/Digitizer.h</text>
</g>
<!-- Node2 -->
<g id="node2" class="node"><title>Node2</title>
<polygon fill="none" stroke="#bfbfbf" points="559,-142.5 559,-161.5 603,-161.5 603,-142.5 559,-142.5"/>
<text text-anchor="middle" x="581" y="-149.5" font-family="Helvetica,sans-Serif" font-size="10.00">vector</text>
</g>
<!-- Node1&#45;&gt;Node2 -->
<g id="edge1" class="edge"><title>Node1&#45;&gt;Node2</title>
<path fill="none" stroke="midnightblue" d="M443.597,-340.491C448.916,-329.107 454.878,-316.028 460,-304 478.692,-260.109 468.519,-240.697 499,-204 512.828,-187.351 533.562,-174.525 550.72,-165.899"/>
<polygon fill="midnightblue" stroke="midnightblue" points="552.311,-169.018 559.818,-161.542 549.287,-162.705 552.311,-169.018"/>
</g>
<!-- Node3 -->
<g id="node3" class="node"><title>Node3</title>
<polygon fill="none" stroke="#bfbfbf" points="179,-278.5 179,-297.5 231,-297.5 231,-278.5 179,-278.5"/>
<text text-anchor="middle" x="205" y="-285.5" font-family="Helvetica,sans-Serif" font-size="10.00">memory</text>
</g>
<!-- Node1&#45;&gt;Node3 -->
<g id="edge2" class="edge"><title>Node1&#45;&gt;Node3</title>
<path fill="none" stroke="midnightblue" d="M344.666,-340.483C313.344,-329.098 277.526,-316.02 245,-304 242.478,-303.068 239.868,-302.099 237.246,-301.123"/>
<polygon fill="midnightblue" stroke="midnightblue" points="238.424,-297.826 227.831,-297.605 235.973,-304.383 238.424,-297.826"/>
</g>
<!-- Node4 -->
<g id="node4" class="node"><title>Node4</title>
<polygon fill="none" stroke="#bfbfbf" points="596,-6.5 596,-25.5 652,-25.5 652,-6.5 596,-6.5"/>
<text text-anchor="middle" x="624" y="-13.5" font-family="Helvetica,sans-Serif" font-size="10.00">Rtypes.h</text>
</g>
<!-- Node1&#45;&gt;Node4 -->
<g id="edge3" class="edge"><title>Node1&#45;&gt;Node4</title>
<path fill="none" stroke="midnightblue" d="M520.205,-343.809C571.948,-323.177 632.33,-289.102 663,-236 701.557,-169.242 656.268,-73.4332 634.451,-34.4723"/>
<polygon fill="midnightblue" stroke="midnightblue" points="637.388,-32.5586 629.358,-25.6468 631.325,-36.0574 637.388,-32.5586"/>
</g>
<!-- Node5 -->
<g id="node5" class="node"><title>Node5</title>
<polygon fill="none" stroke="#bfbfbf" points="117.5,-142.5 117.5,-161.5 176.5,-161.5 176.5,-142.5 117.5,-142.5"/>
<text text-anchor="middle" x="147" y="-149.5" font-family="Helvetica,sans-Serif" font-size="10.00">TObject.h</text>
</g>
<!-- Node1&#45;&gt;Node5 -->
<g id="edge4" class="edge"><title>Node1&#45;&gt;Node5</title>
<path fill="none" stroke="midnightblue" d="M356.908,-340.406C336.1,-330.155 313.921,-317.782 295,-304 238.56,-262.888 184.28,-199.501 160.113,-169.641"/>
<polygon fill="midnightblue" stroke="midnightblue" points="162.845,-167.453 153.863,-161.833 157.379,-171.827 162.845,-167.453"/>
</g>
<!-- Node6 -->
<g id="node6" class="node"><title>Node6</title>
<g id="a_node6"><a xlink:href="../../d7/d9e/SimulationAlpide_8h.html" target="_top" xlink:title="Simulation of the ALIPIDE chip response. ">
<polygon fill="none" stroke="black" points="304.5,-273 304.5,-303 451.5,-303 451.5,-273 304.5,-273"/>
<text text-anchor="start" x="312.5" y="-291" font-family="Helvetica,sans-Serif" font-size="10.00">ITSMFTSimulation/Simulation</text>
<text text-anchor="middle" x="378" y="-280" font-family="Helvetica,sans-Serif" font-size="10.00">Alpide.h</text>
</a>
</g>
</g>
<!-- Node1&#45;&gt;Node6 -->
<g id="edge5" class="edge"><title>Node1&#45;&gt;Node6</title>
<path fill="none" stroke="midnightblue" d="M410.009,-340.466C404.124,-331.004 397.743,-320.744 392.238,-311.893"/>
<polygon fill="midnightblue" stroke="midnightblue" points="395.13,-309.915 386.876,-303.272 389.186,-313.612 395.13,-309.915"/>
</g>
<!-- Node7 -->
<g id="node7" class="node"><title>Node7</title>
<g id="a_node7"><a xlink:href="../../dc/d1a/AlpideSimResponse_8h.html" target="_top" xlink:title="Definition of the ITSMFT Alpide simulated response parametrization. ">
<polygon fill="none" stroke="black" points="508,-205 508,-235 654,-235 654,-205 508,-205"/>
<text text-anchor="start" x="516" y="-223" font-family="Helvetica,sans-Serif" font-size="10.00">ITSMFTSimulation/AlpideSim</text>
<text text-anchor="middle" x="581" y="-212" font-family="Helvetica,sans-Serif" font-size="10.00">Response.h</text>
</a>
</g>
</g>
<!-- Node1&#45;&gt;Node7 -->
<g id="edge37" class="edge"><title>Node1&#45;&gt;Node7</title>
<path fill="none" stroke="midnightblue" d="M460.126,-340.283C489.691,-311.107 533.372,-268.001 559.331,-242.384"/>
<polygon fill="midnightblue" stroke="midnightblue" points="561.81,-244.854 566.47,-235.339 556.894,-239.872 561.81,-244.854"/>
</g>
<!-- Node28 -->
<g id="node28" class="node"><title>Node28</title>
<g id="a_node28"><a xlink:href="../../df/d29/DigiParams_8h.html" target="_top" xlink:title="Simulation parameters for the ALIPIDE chip. ">
<polygon fill="none" stroke="black" points="-0.5,-278.5 -0.5,-297.5 160.5,-297.5 160.5,-278.5 -0.5,-278.5"/>
<text text-anchor="middle" x="80" y="-285.5" font-family="Helvetica,sans-Serif" font-size="10.00">ITSMFTSimulation/DigiParams.h</text>
</a>
</g>
</g>
<!-- Node1&#45;&gt;Node28 -->
<g id="edge38" class="edge"><title>Node1&#45;&gt;Node28</title>
<path fill="none" stroke="midnightblue" d="M337.76,-349.563C269.835,-333.603 179.925,-312.478 126.223,-299.86"/>
<polygon fill="midnightblue" stroke="midnightblue" points="126.842,-296.411 116.306,-297.53 125.241,-303.225 126.842,-296.411"/>
</g>
<!-- Node29 -->
<g id="node29" class="node"><title>Node29</title>
<g id="a_node29"><a xlink:href="../../d0/d2d/common_2base_2include_2ITSMFTBase_2GeometryTGeo_8h.html" target="_top" xlink:title="ITSMFTBase/GeometryTGeo.h">
<polygon fill="none" stroke="black" points="1591.5,-278.5 1591.5,-297.5 1744.5,-297.5 1744.5,-278.5 1591.5,-278.5"/>
<text text-anchor="middle" x="1668" y="-285.5" font-family="Helvetica,sans-Serif" font-size="10.00">ITSMFTBase/GeometryTGeo.h</text>
</a>
</g>
</g>
<!-- Node1&#45;&gt;Node29 -->
<g id="edge40" class="edge"><title>Node1&#45;&gt;Node29</title>
<path fill="none" stroke="midnightblue" d="M520.107,-364.97C750.721,-349.708 1355.26,-309.698 1581.17,-294.747"/>
<polygon fill="midnightblue" stroke="midnightblue" points="1581.57,-298.228 1591.32,-294.075 1581.11,-291.243 1581.57,-298.228"/>
</g>
<!-- Node6&#45;&gt;Node5 -->
<g id="edge6" class="edge"><title>Node6&#45;&gt;Node5</title>
<path fill="none" stroke="midnightblue" d="M359.735,-272.764C330.207,-249.779 274.786,-206.766 270,-204 261.621,-199.156 211.567,-178.825 177.95,-165.342"/>
<polygon fill="midnightblue" stroke="midnightblue" points="179.115,-162.038 168.531,-161.57 176.514,-168.537 179.115,-162.038"/>
</g>
<!-- Node6&#45;&gt;Node7 -->
<g id="edge7" class="edge"><title>Node6&#45;&gt;Node7</title>
<path fill="none" stroke="midnightblue" d="M421.549,-272.841C452.828,-262.672 495.151,-248.911 528.333,-238.123"/>
<polygon fill="midnightblue" stroke="midnightblue" points="529.444,-241.442 537.872,-235.022 527.28,-234.785 529.444,-241.442"/>
</g>
<!-- Node10 -->
<g id="node10" class="node"><title>Node10</title>
<g id="a_node10"><a xlink:href="../../d9/d55/Chip_8h.html" target="_top" xlink:title="ITSMFTSimulation/Chip.h">
<polygon fill="none" stroke="black" points="322,-210.5 322,-229.5 452,-229.5 452,-210.5 322,-210.5"/>
<text text-anchor="middle" x="387" y="-217.5" font-family="Helvetica,sans-Serif" font-size="10.00">ITSMFTSimulation/Chip.h</text>
</a>
</g>
</g>
<!-- Node6&#45;&gt;Node10 -->
<g id="edge12" class="edge"><title>Node6&#45;&gt;Node10</title>
<path fill="none" stroke="midnightblue" d="M379.953,-272.679C381.259,-263.101 382.992,-250.394 384.412,-239.977"/>
<polygon fill="midnightblue" stroke="midnightblue" points="387.913,-240.21 385.796,-229.828 380.977,-239.264 387.913,-240.21"/>
</g>
<!-- Node7&#45;&gt;Node2 -->
<g id="edge10" class="edge"><title>Node7&#45;&gt;Node2</title>
<path fill="none" stroke="midnightblue" d="M581,-204.679C581,-195.101 581,-182.394 581,-171.977"/>
<polygon fill="midnightblue" stroke="midnightblue" points="584.5,-171.828 581,-161.828 577.5,-171.828 584.5,-171.828"/>
</g>
<!-- Node7&#45;&gt;Node4 -->
<g id="edge11" class="edge"><title>Node7&#45;&gt;Node4</title>
<path fill="none" stroke="midnightblue" d="M591.797,-204.661C598.553,-194.871 606.754,-181.31 611,-168 625.549,-122.394 625.984,-65.3455 625.019,-36.1527"/>
<polygon fill="midnightblue" stroke="midnightblue" points="628.499,-35.6159 624.573,-25.7753 621.505,-35.9164 628.499,-35.6159"/>
</g>
<!-- Node8 -->
<g id="node8" class="node"><title>Node8</title>
<polygon fill="none" stroke="#bfbfbf" points="2212,-6.5 2212,-25.5 2250,-25.5 2250,-6.5 2212,-6.5"/>
<text text-anchor="middle" x="2231" y="-13.5" font-family="Helvetica,sans-Serif" font-size="10.00">array</text>
</g>
<!-- Node7&#45;&gt;Node8 -->
<g id="edge8" class="edge"><title>Node7&#45;&gt;Node8</title>
<path fill="none" stroke="midnightblue" d="M654.319,-213.95C933.291,-194.581 1916.02,-124.881 1978,-100 1999.13,-91.5183 1997.55,-78.0026 2018,-68 2079.27,-38.0318 2159.26,-25.0208 2201.65,-19.9171"/>
<polygon fill="midnightblue" stroke="midnightblue" points="2202.29,-23.3672 2211.83,-18.7581 2201.5,-16.4121 2202.29,-23.3672"/>
</g>
<!-- Node9 -->
<g id="node9" class="node"><title>Node9</title>
<polygon fill="none" stroke="#bfbfbf" points="1708.5,-142.5 1708.5,-161.5 1749.5,-161.5 1749.5,-142.5 1708.5,-142.5"/>
<text text-anchor="middle" x="1729" y="-149.5" font-family="Helvetica,sans-Serif" font-size="10.00">string</text>
</g>
<!-- Node7&#45;&gt;Node9 -->
<g id="edge9" class="edge"><title>Node7&#45;&gt;Node9</title>
<path fill="none" stroke="midnightblue" d="M654.024,-219.053C868.712,-218.67 1495.21,-213.57 1694,-168 1696.9,-167.335 1699.86,-166.441 1702.77,-165.418"/>
<polygon fill="midnightblue" stroke="midnightblue" points="1704.34,-168.56 1712.32,-161.592 1701.74,-162.062 1704.34,-168.56"/>
</g>
<!-- Node10&#45;&gt;Node2 -->
<g id="edge23" class="edge"><title>Node10&#45;&gt;Node2</title>
<path fill="none" stroke="midnightblue" d="M415.786,-210.49C447.642,-200.892 500.381,-184.465 545,-168 547.251,-167.169 549.569,-166.281 551.891,-165.367"/>
<polygon fill="midnightblue" stroke="midnightblue" points="553.358,-168.55 561.31,-161.548 550.728,-162.062 553.358,-168.55"/>
</g>
<!-- Node10&#45;&gt;Node5 -->
<g id="edge19" class="edge"><title>Node10&#45;&gt;Node5</title>
<path fill="none" stroke="midnightblue" d="M346.709,-210.434C305.627,-201.327 240.257,-185.8 185,-168 182.369,-167.153 179.659,-166.216 176.954,-165.236"/>
<polygon fill="midnightblue" stroke="midnightblue" points="177.926,-161.861 167.335,-161.585 175.442,-168.406 177.926,-161.861"/>
</g>
<!-- Node11 -->
<g id="node11" class="node"><title>Node11</title>
<g id="a_node11"><a xlink:href="../../d0/d06/ITSMFT_2common_2base_2include_2ITSMFTBase_2Digit_8h.html" target="_top" xlink:title="ITSMFTBase/Digit.h">
<polygon fill="none" stroke="black" points="318.5,-142.5 318.5,-161.5 425.5,-161.5 425.5,-142.5 318.5,-142.5"/>
<text text-anchor="middle" x="372" y="-149.5" font-family="Helvetica,sans-Serif" font-size="10.00">ITSMFTBase/Digit.h</text>
</a>
</g>
</g>
<!-- Node10&#45;&gt;Node11 -->
<g id="edge13" class="edge"><title>Node10&#45;&gt;Node11</title>
<path fill="none" stroke="midnightblue" d="M385.039,-210.372C382.828,-200.643 379.165,-184.528 376.284,-171.85"/>
<polygon fill="midnightblue" stroke="midnightblue" points="379.639,-170.817 374.009,-161.841 372.813,-172.368 379.639,-170.817"/>
</g>
<!-- Node12 -->
<g id="node12" class="node"><title>Node12</title>
<g id="a_node12"><a xlink:href="../../d7/dcd/MCCompLabel_8h.html" target="_top" xlink:title="SimulationDataFormat\l/MCCompLabel.h">
<polygon fill="none" stroke="black" points="482,-69 482,-99 596,-99 596,-69 482,-69"/>
<text text-anchor="start" x="490" y="-87" font-family="Helvetica,sans-Serif" font-size="10.00">SimulationDataFormat</text>
<text text-anchor="middle" x="539" y="-76" font-family="Helvetica,sans-Serif" font-size="10.00">/MCCompLabel.h</text>
</a>
</g>
</g>
<!-- Node10&#45;&gt;Node12 -->
<g id="edge36" class="edge"><title>Node10&#45;&gt;Node12</title>
<path fill="none" stroke="midnightblue" d="M431.306,-210.475C457.678,-203.278 489.989,-190.42 511,-168 526.055,-151.936 533.037,-127.496 536.262,-109.292"/>
<polygon fill="midnightblue" stroke="midnightblue" points="539.761,-109.559 537.791,-99.1491 532.84,-108.515 539.761,-109.559"/>
</g>
<!-- Node14 -->
<g id="node14" class="node"><title>Node14</title>
<polygon fill="none" stroke="#bfbfbf" points="443.5,-142.5 443.5,-161.5 502.5,-161.5 502.5,-142.5 443.5,-142.5"/>
<text text-anchor="middle" x="473" y="-149.5" font-family="Helvetica,sans-Serif" font-size="10.00">exception</text>
</g>
<!-- Node10&#45;&gt;Node14 -->
<g id="edge20" class="edge"><title>Node10&#45;&gt;Node14</title>
<path fill="none" stroke="midnightblue" d="M398.243,-210.372C412.278,-199.6 436.512,-181.002 453.576,-167.906"/>
<polygon fill="midnightblue" stroke="midnightblue" points="455.952,-170.495 461.754,-161.63 451.69,-164.942 455.952,-170.495"/>
</g>
<!-- Node15 -->
<g id="node15" class="node"><title>Node15</title>
<polygon fill="none" stroke="#bfbfbf" points="194.5,-142.5 194.5,-161.5 229.5,-161.5 229.5,-142.5 194.5,-142.5"/>
<text text-anchor="middle" x="212" y="-149.5" font-family="Helvetica,sans-Serif" font-size="10.00">map</text>
</g>
<!-- Node10&#45;&gt;Node15 -->
<g id="edge21" class="edge"><title>Node10&#45;&gt;Node15</title>
<path fill="none" stroke="midnightblue" d="M357.21,-210.42C326.897,-201.301 278.838,-185.765 239,-168 237.815,-167.472 236.614,-166.909 235.409,-166.324"/>
<polygon fill="midnightblue" stroke="midnightblue" points="236.817,-163.111 226.334,-161.574 233.571,-169.313 236.817,-163.111"/>
</g>
<!-- Node16 -->
<g id="node16" class="node"><title>Node16</title>
<polygon fill="none" stroke="#bfbfbf" points="248,-142.5 248,-161.5 300,-161.5 300,-142.5 248,-142.5"/>
<text text-anchor="middle" x="274" y="-149.5" font-family="Helvetica,sans-Serif" font-size="10.00">sstream</text>
</g>
<!-- Node10&#45;&gt;Node16 -->
<g id="edge22" class="edge"><title>Node10&#45;&gt;Node16</title>
<path fill="none" stroke="midnightblue" d="M372.227,-210.372C353.278,-199.304 320.18,-179.972 297.692,-166.838"/>
<polygon fill="midnightblue" stroke="midnightblue" points="299.177,-163.652 288.776,-161.63 295.646,-169.696 299.177,-163.652"/>
</g>
<!-- Node17 -->
<g id="node17" class="node"><title>Node17</title>
<g id="a_node17"><a xlink:href="../../dd/d76/Cartesian3D_8h.html" target="_top" xlink:title="MathUtils/Cartesian3D.h">
<polygon fill="none" stroke="black" points="1080.5,-142.5 1080.5,-161.5 1205.5,-161.5 1205.5,-142.5 1080.5,-142.5"/>
<text text-anchor="middle" x="1143" y="-149.5" font-family="Helvetica,sans-Serif" font-size="10.00">MathUtils/Cartesian3D.h</text>
</a>
</g>
</g>
<!-- Node10&#45;&gt;Node17 -->
<g id="edge24" class="edge"><title>Node10&#45;&gt;Node17</title>
<path fill="none" stroke="midnightblue" d="M445.926,-210.5C463.023,-208.198 481.736,-205.838 499,-204 705.709,-181.989 950.681,-165.117 1070.15,-157.48"/>
<polygon fill="midnightblue" stroke="midnightblue" points="1070.52,-160.964 1080.28,-156.836 1070.07,-153.978 1070.52,-160.964"/>
</g>
<!-- Node11&#45;&gt;Node4 -->
<g id="edge14" class="edge"><title>Node11&#45;&gt;Node4</title>
<path fill="none" stroke="midnightblue" d="M342.534,-142.339C322.418,-134.716 297.272,-121.42 285,-100 277.93,-87.6597 275.722,-78.7788 285,-68 323.46,-23.3209 505.403,-17.2506 585.729,-16.7901"/>
<polygon fill="midnightblue" stroke="midnightblue" points="585.923,-20.2896 595.912,-16.759 585.902,-13.2896 585.923,-20.2896"/>
</g>
<!-- Node11&#45;&gt;Node12 -->
<g id="edge15" class="edge"><title>Node11&#45;&gt;Node12</title>
<path fill="none" stroke="midnightblue" d="M393.832,-142.372C419.071,-132.397 461.294,-115.71 493.716,-102.897"/>
<polygon fill="midnightblue" stroke="midnightblue" points="495.42,-105.987 503.433,-99.0562 492.847,-99.4767 495.42,-105.987"/>
</g>
<!-- Node13 -->
<g id="node13" class="node"><title>Node13</title>
<g id="a_node13"><a xlink:href="../../df/d5d/common_2include_2CommonDataFormat_2TimeStamp_8h.html" target="_top" xlink:title="CommonDataFormat/TimeStamp.h">
<polygon fill="none" stroke="black" points="294,-74.5 294,-93.5 464,-93.5 464,-74.5 294,-74.5"/>
<text text-anchor="middle" x="379" y="-81.5" font-family="Helvetica,sans-Serif" font-size="10.00">CommonDataFormat/TimeStamp.h</text>
</a>
</g>
</g>
<!-- Node11&#45;&gt;Node13 -->
<g id="edge17" class="edge"><title>Node11&#45;&gt;Node13</title>
<path fill="none" stroke="midnightblue" d="M372.915,-142.372C373.947,-132.643 375.656,-116.528 377.001,-103.85"/>
<polygon fill="midnightblue" stroke="midnightblue" points="380.488,-104.155 378.062,-93.8411 373.527,-103.416 380.488,-104.155"/>
</g>
<!-- Node12&#45;&gt;Node4 -->
<g id="edge16" class="edge"><title>Node12&#45;&gt;Node4</title>
<path fill="none" stroke="midnightblue" d="M557.444,-68.679C571.353,-57.8787 590.389,-43.0983 604.54,-32.1103"/>
<polygon fill="midnightblue" stroke="midnightblue" points="606.878,-34.7258 612.63,-25.8283 602.585,-29.1968 606.878,-34.7258"/>
</g>
<!-- Node13&#45;&gt;Node4 -->
<g id="edge18" class="edge"><title>Node13&#45;&gt;Node4</title>
<path fill="none" stroke="midnightblue" d="M411.029,-74.3717C456.076,-62.2366 538.001,-40.167 586.048,-27.2238"/>
<polygon fill="midnightblue" stroke="midnightblue" points="587.016,-30.588 595.761,-24.6073 585.195,-23.829 587.016,-30.588"/>
</g>
<!-- Node17&#45;&gt;Node4 -->
<g id="edge30" class="edge"><title>Node17&#45;&gt;Node4</title>
<path fill="none" stroke="midnightblue" d="M1080.18,-147.982C978.325,-142.337 782.159,-128.122 719,-100 701.092,-92.0263 661.775,-54.618 639.748,-32.8401"/>
<polygon fill="midnightblue" stroke="midnightblue" points="642.041,-30.1848 632.486,-25.6074 637.101,-35.1443 642.041,-30.1848"/>
</g>
<!-- Node18 -->
<g id="node18" class="node"><title>Node18</title>
<polygon fill="none" stroke="#bfbfbf" points="885.5,-69 885.5,-99 1036.5,-99 1036.5,-69 885.5,-69"/>
<text text-anchor="start" x="893.5" y="-87" font-family="Helvetica,sans-Serif" font-size="10.00">Math/GenVector/Displacement</text>
<text text-anchor="middle" x="961" y="-76" font-family="Helvetica,sans-Serif" font-size="10.00">Vector3D.h</text>
</g>
<!-- Node17&#45;&gt;Node18 -->
<g id="edge25" class="edge"><title>Node17&#45;&gt;Node18</title>
<path fill="none" stroke="midnightblue" d="M1119.21,-142.372C1091.46,-132.311 1044.89,-115.422 1009.44,-102.566"/>
<polygon fill="midnightblue" stroke="midnightblue" points="1010.36,-99.1751 999.761,-99.0562 1007.97,-105.756 1010.36,-99.1751"/>
</g>
<!-- Node19 -->
<g id="node19" class="node"><title>Node19</title>
<polygon fill="none" stroke="#bfbfbf" points="1055,-74.5 1055,-93.5 1231,-93.5 1231,-74.5 1055,-74.5"/>
<text text-anchor="middle" x="1143" y="-81.5" font-family="Helvetica,sans-Serif" font-size="10.00">Math/GenVector/PositionVector3D.h</text>
</g>
<!-- Node17&#45;&gt;Node19 -->
<g id="edge26" class="edge"><title>Node17&#45;&gt;Node19</title>
<path fill="none" stroke="midnightblue" d="M1143,-142.372C1143,-132.643 1143,-116.528 1143,-103.85"/>
<polygon fill="midnightblue" stroke="midnightblue" points="1146.5,-103.841 1143,-93.8411 1139.5,-103.841 1146.5,-103.841"/>
</g>
<!-- Node20 -->
<g id="node20" class="node"><title>Node20</title>
<polygon fill="none" stroke="#bfbfbf" points="1248.5,-74.5 1248.5,-93.5 1397.5,-93.5 1397.5,-74.5 1248.5,-74.5"/>
<text text-anchor="middle" x="1323" y="-81.5" font-family="Helvetica,sans-Serif" font-size="10.00">Math/GenVector/Rotation3D.h</text>
</g>
<!-- Node17&#45;&gt;Node20 -->
<g id="edge27" class="edge"><title>Node17&#45;&gt;Node20</title>
<path fill="none" stroke="midnightblue" d="M1166.53,-142.372C1198.15,-130.778 1254.5,-110.116 1290.25,-97.0087"/>
<polygon fill="midnightblue" stroke="midnightblue" points="1291.56,-100.255 1299.75,-93.5259 1289.15,-93.6824 1291.56,-100.255"/>
</g>
<!-- Node21 -->
<g id="node21" class="node"><title>Node21</title>
<polygon fill="none" stroke="#bfbfbf" points="1416,-74.5 1416,-93.5 1572,-93.5 1572,-74.5 1416,-74.5"/>
<text text-anchor="middle" x="1494" y="-81.5" font-family="Helvetica,sans-Serif" font-size="10.00">Math/GenVector/Transform3D.h</text>
</g>
<!-- Node17&#45;&gt;Node21 -->
<g id="edge28" class="edge"><title>Node17&#45;&gt;Node21</title>
<path fill="none" stroke="midnightblue" d="M1188.53,-142.439C1252.7,-130.372 1369.64,-108.384 1438.72,-95.3945"/>
<polygon fill="midnightblue" stroke="midnightblue" points="1439.37,-98.8333 1448.55,-93.5455 1438.08,-91.9538 1439.37,-98.8333"/>
</g>
<!-- Node22 -->
<g id="node22" class="node"><title>Node22</title>
<polygon fill="none" stroke="#bfbfbf" points="1590,-74.5 1590,-93.5 1750,-93.5 1750,-74.5 1590,-74.5"/>
<text text-anchor="middle" x="1670" y="-81.5" font-family="Helvetica,sans-Serif" font-size="10.00">Math/GenVector/Translation3D.h</text>
</g>
<!-- Node17&#45;&gt;Node22 -->
<g id="edge29" class="edge"><title>Node17&#45;&gt;Node22</title>
<path fill="none" stroke="midnightblue" d="M1205.51,-144.736C1290.61,-135.977 1447.61,-118.994 1581,-100 1591.01,-98.5752 1601.62,-96.9162 1611.9,-95.2314"/>
<polygon fill="midnightblue" stroke="midnightblue" points="1612.74,-98.6393 1622.03,-93.5458 1611.59,-91.7341 1612.74,-98.6393"/>
</g>
<!-- Node23 -->
<g id="node23" class="node"><title>Node23</title>
<polygon fill="none" stroke="#bfbfbf" points="728,-74.5 728,-93.5 804,-93.5 804,-74.5 728,-74.5"/>
<text text-anchor="middle" x="766" y="-81.5" font-family="Helvetica,sans-Serif" font-size="10.00">TGeoMatrix.h</text>
</g>
<!-- Node17&#45;&gt;Node23 -->
<g id="edge31" class="edge"><title>Node17&#45;&gt;Node23</title>
<path fill="none" stroke="midnightblue" d="M1080.41,-144.269C1013.62,-136.404 904.981,-121.647 813,-100 808.779,-99.0067 804.39,-97.8196 800.063,-96.5543"/>
<polygon fill="midnightblue" stroke="midnightblue" points="800.779,-93.1127 790.192,-93.5142 798.719,-99.8026 800.779,-93.1127"/>
</g>
<!-- Node24 -->
<g id="node24" class="node"><title>Node24</title>
<polygon fill="none" stroke="#bfbfbf" points="822.5,-74.5 822.5,-93.5 867.5,-93.5 867.5,-74.5 822.5,-74.5"/>
<text text-anchor="middle" x="845" y="-81.5" font-family="Helvetica,sans-Serif" font-size="10.00">iosfwd</text>
</g>
<!-- Node17&#45;&gt;Node24 -->
<g id="edge32" class="edge"><title>Node17&#45;&gt;Node24</title>
<path fill="none" stroke="midnightblue" d="M1080.32,-143.75C1025.46,-136.297 944.097,-122.544 876,-100 874.084,-99.3658 872.135,-98.6381 870.194,-97.8526"/>
<polygon fill="midnightblue" stroke="midnightblue" points="871.312,-94.5176 860.756,-93.6085 868.441,-100.902 871.312,-94.5176"/>
</g>
<!-- Node25 -->
<g id="node25" class="node"><title>Node25</title>
<g id="a_node25"><a xlink:href="../../d2/dd0/Cartesian2D_8h.html" target="_top" xlink:title="MathUtils/Cartesian2D.h">
<polygon fill="none" stroke="black" points="1844.5,-74.5 1844.5,-93.5 1969.5,-93.5 1969.5,-74.5 1844.5,-74.5"/>
<text text-anchor="middle" x="1907" y="-81.5" font-family="Helvetica,sans-Serif" font-size="10.00">MathUtils/Cartesian2D.h</text>
</a>
</g>
</g>
<!-- Node17&#45;&gt;Node25 -->
<g id="edge33" class="edge"><title>Node17&#45;&gt;Node25</title>
<path fill="none" stroke="midnightblue" d="M1205.55,-146.204C1316.9,-137.581 1556.77,-118.618 1759,-100 1783.53,-97.7419 1810.32,-95.0843 1834.29,-92.6384"/>
<polygon fill="midnightblue" stroke="midnightblue" points="1834.78,-96.1063 1844.37,-91.6049 1834.07,-89.1428 1834.78,-96.1063"/>
</g>
<!-- Node26 -->
<g id="node26" class="node"><title>Node26</title>
<polygon fill="none" stroke="#bfbfbf" points="1922.5,-1 1922.5,-31 2073.5,-31 2073.5,-1 1922.5,-1"/>
<text text-anchor="start" x="1930.5" y="-19" font-family="Helvetica,sans-Serif" font-size="10.00">Math/GenVector/Displacement</text>
<text text-anchor="middle" x="1998" y="-8" font-family="Helvetica,sans-Serif" font-size="10.00">Vector2D.h</text>
</g>
<!-- Node25&#45;&gt;Node26 -->
<g id="edge34" class="edge"><title>Node25&#45;&gt;Node26</title>
<path fill="none" stroke="midnightblue" d="M1918.9,-74.3717C1931.78,-65.0286 1952.78,-49.7966 1969.91,-37.375"/>
<polygon fill="midnightblue" stroke="midnightblue" points="1972.41,-39.8859 1978.45,-31.1815 1968.3,-34.2194 1972.41,-39.8859"/>
</g>
<!-- Node27 -->
<g id="node27" class="node"><title>Node27</title>
<polygon fill="none" stroke="#bfbfbf" points="1728,-6.5 1728,-25.5 1904,-25.5 1904,-6.5 1728,-6.5"/>
<text text-anchor="middle" x="1816" y="-13.5" font-family="Helvetica,sans-Serif" font-size="10.00">Math/GenVector/PositionVector2D.h</text>
</g>
<!-- Node25&#45;&gt;Node27 -->
<g id="edge35" class="edge"><title>Node25&#45;&gt;Node27</title>
<path fill="none" stroke="midnightblue" d="M1895.1,-74.3717C1880.12,-63.5015 1854.14,-44.6602 1836.06,-31.5474"/>
<polygon fill="midnightblue" stroke="midnightblue" points="1838.05,-28.6684 1827.9,-25.6305 1833.94,-34.3349 1838.05,-28.6684"/>
</g>
<!-- Node28&#45;&gt;Node4 -->
<g id="edge39" class="edge"><title>Node28&#45;&gt;Node4</title>
<path fill="none" stroke="midnightblue" d="M78.9614,-278.33C76.4479,-253.209 72.6314,-179.405 108,-136 168.91,-61.2504 476.447,-29.1022 585.547,-19.9281"/>
<polygon fill="midnightblue" stroke="midnightblue" points="586.089,-23.3953 595.769,-19.0873 585.516,-16.4189 586.089,-23.3953"/>
</g>
<!-- Node29&#45;&gt;Node9 -->
<g id="edge42" class="edge"><title>Node29&#45;&gt;Node9</title>
<path fill="none" stroke="midnightblue" d="M1672,-278.208C1681.87,-256.532 1707.52,-200.181 1720.79,-171.041"/>
<polygon fill="midnightblue" stroke="midnightblue" points="1724.1,-172.202 1725.06,-161.65 1717.73,-169.302 1724.1,-172.202"/>
</g>
<!-- Node30 -->
<g id="node30" class="node"><title>Node30</title>
<polygon fill="none" stroke="#bfbfbf" points="1602.5,-210.5 1602.5,-229.5 1671.5,-229.5 1671.5,-210.5 1602.5,-210.5"/>
<text text-anchor="middle" x="1637" y="-217.5" font-family="Helvetica,sans-Serif" font-size="10.00">TObjArray.h</text>
</g>
<!-- Node29&#45;&gt;Node30 -->
<g id="edge41" class="edge"><title>Node29&#45;&gt;Node30</title>
<path fill="none" stroke="midnightblue" d="M1663.95,-278.372C1659.29,-268.446 1651.5,-251.874 1645.5,-239.086"/>
<polygon fill="midnightblue" stroke="midnightblue" points="1648.57,-237.404 1641.15,-229.841 1642.24,-240.38 1648.57,-237.404"/>
</g>
<!-- Node31 -->
<g id="node31" class="node"><title>Node31</title>
<g id="a_node31"><a xlink:href="../../d4/d20/DetMatrixCache_8h.html" target="_top" xlink:title="DetectorsCommonDataFormats\l/DetMatrixCache.h">
<polygon fill="none" stroke="black" points="1728,-205 1728,-235 1884,-235 1884,-205 1728,-205"/>
<text text-anchor="start" x="1736" y="-223" font-family="Helvetica,sans-Serif" font-size="10.00">DetectorsCommonDataFormats</text>
<text text-anchor="middle" x="1806" y="-212" font-family="Helvetica,sans-Serif" font-size="10.00">/DetMatrixCache.h</text>
</a>
</g>
</g>
<!-- Node29&#45;&gt;Node31 -->
<g id="edge43" class="edge"><title>Node29&#45;&gt;Node31</title>
<path fill="none" stroke="midnightblue" d="M1686.04,-278.372C1706.63,-268.526 1740.89,-252.141 1767.54,-239.396"/>
<polygon fill="midnightblue" stroke="midnightblue" points="1769.1,-242.528 1776.61,-235.056 1766.08,-236.213 1769.1,-242.528"/>
</g>
<!-- Node31&#45;&gt;Node2 -->
<g id="edge46" class="edge"><title>Node31&#45;&gt;Node2</title>
<path fill="none" stroke="midnightblue" d="M1727.78,-208.801C1711.99,-206.991 1695.48,-205.279 1680,-204 1259.25,-169.238 745.766,-156.484 613.355,-153.649"/>
<polygon fill="midnightblue" stroke="midnightblue" points="613.173,-150.144 603.102,-153.433 613.026,-157.143 613.173,-150.144"/>
</g>
<!-- Node31&#45;&gt;Node4 -->
<g id="edge59" class="edge"><title>Node31&#45;&gt;Node4</title>
<path fill="none" stroke="midnightblue" d="M1803.72,-204.957C1797.85,-170.835 1781.18,-85.1033 1759,-68 1714.67,-33.8061 855.923,-20.1461 662.479,-17.4963"/>
<polygon fill="midnightblue" stroke="midnightblue" points="662.278,-13.9934 652.231,-17.3578 662.183,-20.9927 662.278,-13.9934"/>
</g>
<!-- Node31&#45;&gt;Node8 -->
<g id="edge45" class="edge"><title>Node31&#45;&gt;Node8</title>
<path fill="none" stroke="midnightblue" d="M1884.08,-214.146C1988.55,-206.872 2167.78,-191.443 2229,-168 2286.82,-145.858 2357.78,-121.138 2326,-68 2311.75,-44.1775 2282.13,-30.8413 2259.73,-23.8362"/>
<polygon fill="midnightblue" stroke="midnightblue" points="2260.61,-20.4459 2250.03,-21.0482 2258.67,-27.1737 2260.61,-20.4459"/>
</g>
<!-- Node31&#45;&gt;Node17 -->
<g id="edge58" class="edge"><title>Node31&#45;&gt;Node17</title>
<path fill="none" stroke="midnightblue" d="M1727.73,-209.389C1711.94,-207.532 1695.44,-205.652 1680,-204 1514.19,-186.259 1319.23,-168.523 1215.89,-159.369"/>
<polygon fill="midnightblue" stroke="midnightblue" points="1216.15,-155.878 1205.88,-158.483 1215.53,-162.851 1216.15,-155.878"/>
</g>
<!-- Node32 -->
<g id="node32" class="node"><title>Node32</title>
<polygon fill="none" stroke="#bfbfbf" points="1806.5,-142.5 1806.5,-161.5 1877.5,-161.5 1877.5,-142.5 1806.5,-142.5"/>
<text text-anchor="middle" x="1842" y="-149.5" font-family="Helvetica,sans-Serif" font-size="10.00">FairLogger.h</text>
</g>
<!-- Node31&#45;&gt;Node32 -->
<g id="edge44" class="edge"><title>Node31&#45;&gt;Node32</title>
<path fill="none" stroke="midnightblue" d="M1813.81,-204.679C1819.26,-194.694 1826.56,-181.307 1832.37,-170.66"/>
<polygon fill="midnightblue" stroke="midnightblue" points="1835.47,-172.283 1837.18,-161.828 1829.32,-168.931 1835.47,-172.283"/>
</g>
<!-- Node33 -->
<g id="node33" class="node"><title>Node33</title>
<g id="a_node33"><a xlink:href="../../d6/d31/DetID_8h.html" target="_top" xlink:title="DetectorsCommonDataFormats\l/DetID.h">
<polygon fill="none" stroke="black" points="2064,-137 2064,-167 2220,-167 2220,-137 2064,-137"/>
<text text-anchor="start" x="2072" y="-155" font-family="Helvetica,sans-Serif" font-size="10.00">DetectorsCommonDataFormats</text>
<text text-anchor="middle" x="2142" y="-144" font-family="Helvetica,sans-Serif" font-size="10.00">/DetID.h</text>
</a>
</g>
</g>
<!-- Node31&#45;&gt;Node33 -->
<g id="edge47" class="edge"><title>Node31&#45;&gt;Node33</title>
<path fill="none" stroke="midnightblue" d="M1877.67,-204.922C1931.3,-194.387 2004.73,-179.965 2060.58,-168.993"/>
<polygon fill="midnightblue" stroke="midnightblue" points="2061.3,-172.418 2070.44,-167.056 2059.95,-165.549 2061.3,-172.418"/>
</g>
<!-- Node33&#45;&gt;Node4 -->
<g id="edge48" class="edge"><title>Node33&#45;&gt;Node4</title>
<path fill="none" stroke="midnightblue" d="M2063.82,-147.883C2000.3,-143.048 1909.51,-130.818 1836,-100 1813.7,-90.6512 1814.83,-75.9775 1792,-68 1683.4,-30.046 851.103,-19.3174 662.096,-17.3595"/>
<polygon fill="midnightblue" stroke="midnightblue" points="662.11,-13.8596 652.075,-17.2577 662.039,-20.8592 662.11,-13.8596"/>
</g>
<!-- Node33&#45;&gt;Node8 -->
<g id="edge49" class="edge"><title>Node33&#45;&gt;Node8</title>
<path fill="none" stroke="midnightblue" d="M2148.46,-136.956C2156.52,-120.007 2171.17,-90.9298 2187,-68 2195.62,-55.5205 2206.8,-42.5966 2215.73,-32.8813"/>
<polygon fill="midnightblue" stroke="midnightblue" points="2218.31,-35.2438 2222.6,-25.5552 2213.21,-30.4554 2218.31,-35.2438"/>
</g>
<!-- Node34 -->
<g id="node34" class="node"><title>Node34</title>
<polygon fill="none" stroke="#bfbfbf" points="2276.5,-74.5 2276.5,-93.5 2317.5,-93.5 2317.5,-74.5 2276.5,-74.5"/>
<text text-anchor="middle" x="2297" y="-81.5" font-family="Helvetica,sans-Serif" font-size="10.00">bitset</text>
</g>
<!-- Node33&#45;&gt;Node34 -->
<g id="edge50" class="edge"><title>Node33&#45;&gt;Node34</title>
<path fill="none" stroke="midnightblue" d="M2177.79,-136.947C2202.69,-127.007 2236.57,-113.159 2266,-100 2267.4,-99.3747 2268.83,-98.7242 2270.27,-98.06"/>
<polygon fill="midnightblue" stroke="midnightblue" points="2272.16,-101.035 2279.71,-93.5956 2269.17,-94.7071 2272.16,-101.035"/>
</g>
<!-- Node35 -->
<g id="node35" class="node"><title>Node35</title>
<polygon fill="none" stroke="#bfbfbf" points="2026.5,-74.5 2026.5,-93.5 2075.5,-93.5 2075.5,-74.5 2026.5,-74.5"/>
<text text-anchor="middle" x="2051" y="-81.5" font-family="Helvetica,sans-Serif" font-size="10.00">cassert</text>
</g>
<!-- Node33&#45;&gt;Node35 -->
<g id="edge51" class="edge"><title>Node33&#45;&gt;Node35</title>
<path fill="none" stroke="midnightblue" d="M2122.25,-136.679C2107.14,-125.713 2086.36,-110.645 2071.14,-99.6085"/>
<polygon fill="midnightblue" stroke="midnightblue" points="2073.06,-96.6758 2062.91,-93.6379 2068.95,-102.342 2073.06,-96.6758"/>
</g>
<!-- Node36 -->
<g id="node36" class="node"><title>Node36</title>
<polygon fill="none" stroke="#bfbfbf" points="2094,-74.5 2094,-93.5 2140,-93.5 2140,-74.5 2094,-74.5"/>
<text text-anchor="middle" x="2117" y="-81.5" font-family="Helvetica,sans-Serif" font-size="10.00">cstdint</text>
</g>
<!-- Node33&#45;&gt;Node36 -->
<g id="edge52" class="edge"><title>Node33&#45;&gt;Node36</title>
<path fill="none" stroke="midnightblue" d="M2136.58,-136.679C2132.87,-126.898 2127.93,-113.852 2123.94,-103.315"/>
<polygon fill="midnightblue" stroke="midnightblue" points="2127.16,-101.94 2120.34,-93.8283 2120.61,-104.42 2127.16,-101.94"/>
</g>
<!-- Node37 -->
<g id="node37" class="node"><title>Node37</title>
<polygon fill="none" stroke="#bfbfbf" points="2196,-74.5 2196,-93.5 2258,-93.5 2258,-74.5 2196,-74.5"/>
<text text-anchor="middle" x="2227" y="-81.5" font-family="Helvetica,sans-Serif" font-size="10.00">type_traits</text>
</g>
<!-- Node33&#45;&gt;Node37 -->
<g id="edge53" class="edge"><title>Node33&#45;&gt;Node37</title>
<path fill="none" stroke="midnightblue" d="M2160.44,-136.679C2174.35,-125.879 2193.39,-111.098 2207.54,-100.11"/>
<polygon fill="midnightblue" stroke="midnightblue" points="2209.88,-102.726 2215.63,-93.8283 2205.59,-97.1968 2209.88,-102.726"/>
</g>
<!-- Node38 -->
<g id="node38" class="node"><title>Node38</title>
<g id="a_node38"><a xlink:href="../../d9/d52/Common_2MathUtils_2include_2MathUtils_2Utils_8h.html" target="_top" xlink:title="MathUtils/Utils.h">
<polygon fill="none" stroke="black" points="2374,-74.5 2374,-93.5 2464,-93.5 2464,-74.5 2374,-74.5"/>
<text text-anchor="middle" x="2419" y="-81.5" font-family="Helvetica,sans-Serif" font-size="10.00">MathUtils/Utils.h</text>
</a>
</g>
</g>
<!-- Node33&#45;&gt;Node38 -->
<g id="edge54" class="edge"><title>Node33&#45;&gt;Node38</title>
<path fill="none" stroke="midnightblue" d="M2201.08,-136.922C2252.6,-124.648 2326.25,-107.099 2373.35,-95.8772"/>
<polygon fill="midnightblue" stroke="midnightblue" points="2374.35,-99.2363 2383.27,-93.5138 2372.73,-92.4269 2374.35,-99.2363"/>
</g>
<!-- Node38&#45;&gt;Node8 -->
<g id="edge55" class="edge"><title>Node38&#45;&gt;Node8</title>
<path fill="none" stroke="midnightblue" d="M2394.42,-74.3717C2359.76,-62.203 2296.64,-40.0448 2259.82,-27.1166"/>
<polygon fill="midnightblue" stroke="midnightblue" points="2260.77,-23.741 2250.17,-23.7309 2258.45,-30.3458 2260.77,-23.741"/>
</g>
<!-- Node39 -->
<g id="node39" class="node"><title>Node39</title>
<polygon fill="none" stroke="#bfbfbf" points="2332,-6.5 2332,-25.5 2376,-25.5 2376,-6.5 2332,-6.5"/>
<text text-anchor="middle" x="2354" y="-13.5" font-family="Helvetica,sans-Serif" font-size="10.00">cmath</text>
</g>
<!-- Node38&#45;&gt;Node39 -->
<g id="edge56" class="edge"><title>Node38&#45;&gt;Node39</title>
<path fill="none" stroke="midnightblue" d="M2410.5,-74.3717C2400.24,-63.9547 2382.77,-46.2173 2369.97,-33.2162"/>
<polygon fill="midnightblue" stroke="midnightblue" points="2372.22,-30.5101 2362.71,-25.8411 2367.23,-35.4219 2372.22,-30.5101"/>
</g>
<!-- Node40 -->
<g id="node40" class="node"><title>Node40</title>
<g id="a_node40"><a xlink:href="../../d6/d84/MathConstants_8h.html" target="_top" xlink:title="useful math constants ">
<polygon fill="none" stroke="black" points="2394.5,-6.5 2394.5,-25.5 2573.5,-25.5 2573.5,-6.5 2394.5,-6.5"/>
<text text-anchor="middle" x="2484" y="-13.5" font-family="Helvetica,sans-Serif" font-size="10.00">CommonConstants/MathConstants.h</text>
</a>
</g>
</g>
<!-- Node38&#45;&gt;Node40 -->
<g id="edge57" class="edge"><title>Node38&#45;&gt;Node40</title>
<path fill="none" stroke="midnightblue" d="M2427.5,-74.3717C2437.76,-63.9547 2455.23,-46.2173 2468.03,-33.2162"/>
<polygon fill="midnightblue" stroke="midnightblue" points="2470.77,-35.4219 2475.29,-25.8411 2465.78,-30.5101 2470.77,-35.4219"/>
</g>
</g>
</svg>
        <g id="navigator" transform="translate(0 0)" fill="#404254">
                <rect fill="#f2f5e9" fill-opacity="0.5" stroke="#606060" stroke-width=".5" x="0" y="0" width="60" height="60"/>
                <use id="zoomplus" xlink:href="#zoomPlus" x="17" y="9" onmousedown="handleZoom(evt,'in')"/>
                <use id="zoomminus" xlink:href="#zoomMin" x="42" y="9" onmousedown="handleZoom(evt,'out')"/>
                <use id="reset" xlink:href="#resetDef" x="30" y="36" onmousedown="handleReset()"/>
                <g id="arrowUp" xlink:href="#dirArrow" transform="translate(30 24)" onmousedown="handlePan(0,-1)">
                  <use xlink:href="#rim" fill="#404040">
                        <set attributeName="fill" to="#808080" begin="arrowUp.mouseover" end="arrowUp.mouseout"/>
                  </use>
                  <path fill="none" stroke="white" stroke-width="1.5" d="M0,-3.0v7 M-2.5,-0.5L0,-3.0L2.5,-0.5"/>
                </g>
                <g id="arrowRight" xlink:href="#dirArrow" transform="rotate(90) translate(36 -43)" onmousedown="handlePan(1,0)">
                  <use xlink:href="#rim" fill="#404040">
                        <set attributeName="fill" to="#808080" begin="arrowRight.mouseover" end="arrowRight.mouseout"/>
                  </use>
                  <path fill="none" stroke="white" stroke-width="1.5" d="M0,-3.0v7 M-2.5,-0.5L0,-3.0L2.5,-0.5"/>
                </g>
                <g id="arrowDown" xlink:href="#dirArrow" transform="rotate(180) translate(-30 -48)" onmousedown="handlePan(0,1)">
                  <use xlink:href="#rim" fill="#404040">
                        <set attributeName="fill" to="#808080" begin="arrowDown.mouseover" end="arrowDown.mouseout"/>
                  </use>
                  <path fill="none" stroke="white" stroke-width="1.5" d="M0,-3.0v7 M-2.5,-0.5L0,-3.0L2.5,-0.5"/>
                </g>
                <g id="arrowLeft" xlink:href="#dirArrow" transform="rotate(270) translate(-36 17)" onmousedown="handlePan(-1,0)">
                  <use xlink:href="#rim" fill="#404040">
                        <set attributeName="fill" to="#808080" begin="arrowLeft.mouseover" end="arrowLeft.mouseout"/>
                  </use>
                  <path fill="none" stroke="white" stroke-width="1.5" d="M0,-3.0v7 M-2.5,-0.5L0,-3.0L2.5,-0.5"/>
                </g>
        </g>
        <svg viewBox="0 0 15 15" width="100%" height="30px" preserveAspectRatio="xMaxYMin meet">
         <g id="arrow_out" transform="scale(0.3 0.3)">
          <a xlink:href="ITSMFT_2common_2simulation_2include_2ITSMFTSimulation_2Digitizer_8h__incl_org.svg" target="_base">
           <rect id="button" ry="5" rx="5" y="6" x="6" height="38" width="38"
                fill="#f2f5e9" fill-opacity="0.5" stroke="#606060" stroke-width="1.0"/>
           <path id="arrow"
             d="M 11.500037,31.436501 C 11.940474,20.09759 22.043105,11.32322 32.158766,21.979434 L 37.068811,17.246167 C 37.068811,17.246167 37.088388,32 37.088388,32 L 22.160133,31.978069 C 22.160133,31.978069 26.997745,27.140456 26.997745,27.140456 C 18.528582,18.264221 13.291696,25.230495 11.500037,31.436501 z"
             style="fill:#404040;"/>
          </a>
         </g>
        </svg>
</svg>
