<?xml version="1.0" encoding="UTF-8" standalone="no"?>
<!DOCTYPE svg PUBLIC "-//W3C//DTD SVG 1.1//EN"
 "http://www.w3.org/Graphics/SVG/1.1/DTD/svg11.dtd">
<!-- Generated by graphviz version 2.36.0 (20140111.2315)
 -->
<!-- Title: /home/travis/build/AliceO2Group/AliceO2/Framework/Core/src/DataProcessingHeader.cxx Pages: 1 -->
<svg width="329pt" height="242pt"
 viewBox="0.00 0.00 329.00 242.00" xmlns="http://www.w3.org/2000/svg" xmlns:xlink="http://www.w3.org/1999/xlink">
<g id="graph0" class="graph" transform="scale(1 1) rotate(0) translate(4 238)">
<title>/home/travis/build/AliceO2Group/AliceO2/Framework/Core/src/DataProcessingHeader.cxx</title>
<!-- Node1 -->
<g id="node1" class="node"><title>Node1</title>
<polygon fill="#bfbfbf" stroke="black" points="67,-181 67,-233 249,-233 249,-181 67,-181"/>
<text text-anchor="start" x="75" y="-221" font-family="Helvetica,sans-Serif" font-size="10.00">/home/travis/build</text>
<text text-anchor="start" x="75" y="-210" font-family="Helvetica,sans-Serif" font-size="10.00">/AliceO2Group/AliceO2</text>
<text text-anchor="start" x="75" y="-199" font-family="Helvetica,sans-Serif" font-size="10.00">/Framework/Core/src/DataProcessing</text>
<text text-anchor="middle" x="158" y="-188" font-family="Helvetica,sans-Serif" font-size="10.00">Header.cxx</text>
</g>
<!-- Node2 -->
<g id="node2" class="node"><title>Node2</title>
<g id="a_node2"><a xlink:href="../../d6/dc9/DataProcessingHeader_8h.html" target="_top" xlink:title="Framework/DataProcessing\lHeader.h">
<polygon fill="none" stroke="black" points="138,-113 138,-143 276,-143 276,-113 138,-113"/>
<text text-anchor="start" x="146" y="-131" font-family="Helvetica,sans-Serif" font-size="10.00">Framework/DataProcessing</text>
<text text-anchor="middle" x="207" y="-120" font-family="Helvetica,sans-Serif" font-size="10.00">Header.h</text>
</a>
</g>
</g>
<!-- Node1&#45;&gt;Node2 -->
<g id="edge1" class="edge"><title>Node1&#45;&gt;Node2</title>
<path fill="none" stroke="midnightblue" d="M174.044,-180.787C179.989,-171.445 186.692,-160.913 192.492,-151.798"/>
<polygon fill="midnightblue" stroke="midnightblue" points="195.515,-153.568 197.931,-143.252 189.609,-149.81 195.515,-153.568"/>
</g>
<!-- Node3 -->
<g id="node3" class="node"><title>Node3</title>
<g id="a_node3"><a xlink:href="../../dc/dcd/DataHeader_8h.html" target="_top" xlink:title="Headers/DataHeader.h">
<polygon fill="none" stroke="black" points="51.5,-56.5 51.5,-75.5 168.5,-75.5 168.5,-56.5 51.5,-56.5"/>
<text text-anchor="middle" x="110" y="-63.5" font-family="Helvetica,sans-Serif" font-size="10.00">Headers/DataHeader.h</text>
</a>
</g>
</g>
<!-- Node1&#45;&gt;Node3 -->
<g id="edge12" class="edge"><title>Node1&#45;&gt;Node3</title>
<path fill="none" stroke="midnightblue" d="M144.859,-180.83C139.431,-169.744 133.395,-156.436 129,-144 122.133,-124.569 116.801,-101.539 113.556,-85.7597"/>
<polygon fill="midnightblue" stroke="midnightblue" points="116.942,-84.839 111.571,-75.7068 110.075,-86.1955 116.942,-84.839"/>
</g>
<!-- Node2&#45;&gt;Node3 -->
<g id="edge2" class="edge"><title>Node2&#45;&gt;Node3</title>
<path fill="none" stroke="midnightblue" d="M184.012,-112.781C168.517,-103.196 148.163,-90.6062 132.723,-81.0555"/>
<polygon fill="midnightblue" stroke="midnightblue" points="134.177,-77.8397 123.832,-75.5557 130.495,-83.7929 134.177,-77.8397"/>
</g>
<!-- Node4 -->
<g id="node4" class="node"><title>Node4</title>
<polygon fill="none" stroke="#bfbfbf" points="205,-0.5 205,-19.5 251,-19.5 251,-0.5 205,-0.5"/>
<text text-anchor="middle" x="228" y="-7.5" font-family="Helvetica,sans-Serif" font-size="10.00">cstdint</text>
</g>
<!-- Node2&#45;&gt;Node4 -->
<g id="edge8" class="edge"><title>Node2&#45;&gt;Node4</title>
<path fill="none" stroke="midnightblue" d="M218.544,-112.832C225.688,-103.115 234.199,-89.5695 238,-76 242.33,-60.5391 238.886,-42.4504 234.901,-29.2862"/>
<polygon fill="midnightblue" stroke="midnightblue" points="238.123,-27.89 231.586,-19.5523 231.497,-30.1467 238.123,-27.89"/>
</g>
<!-- Node5 -->
<g id="node5" class="node"><title>Node5</title>
<polygon fill="none" stroke="#bfbfbf" points="269,-0.5 269,-19.5 321,-19.5 321,-0.5 269,-0.5"/>
<text text-anchor="middle" x="295" y="-7.5" font-family="Helvetica,sans-Serif" font-size="10.00">memory</text>
</g>
<!-- Node2&#45;&gt;Node5 -->
<g id="edge10" class="edge"><title>Node2&#45;&gt;Node5</title>
<path fill="none" stroke="midnightblue" d="M221.311,-112.89C231.027,-102.98 243.896,-89.1908 254,-76 265.752,-60.6586 277.33,-41.8692 285.17,-28.4448"/>
<polygon fill="midnightblue" stroke="midnightblue" points="288.222,-30.1588 290.166,-19.7439 282.151,-26.6729 288.222,-30.1588"/>
</g>
<!-- Node6 -->
<g id="node6" class="node"><title>Node6</title>
<polygon fill="none" stroke="#bfbfbf" points="-0.5,-0.5 -0.5,-19.5 48.5,-19.5 48.5,-0.5 -0.5,-0.5"/>
<text text-anchor="middle" x="24" y="-7.5" font-family="Helvetica,sans-Serif" font-size="10.00">cassert</text>
</g>
<!-- Node2&#45;&gt;Node6 -->
<g id="edge11" class="edge"><title>Node2&#45;&gt;Node6</title>
<path fill="none" stroke="midnightblue" d="M137.995,-120.97C104.883,-114.635 67.0618,-101.815 42,-76 30.1581,-63.802 25.9586,-44.5329 24.5417,-30.1368"/>
<polygon fill="midnightblue" stroke="midnightblue" points="28.0173,-29.6302 23.9092,-19.8642 21.0305,-30.0604 28.0173,-29.6302"/>
</g>
<!-- Node9 -->
<g id="node9" class="node"><title>Node9</title>
<polygon fill="none" stroke="#bfbfbf" points="186.5,-56.5 186.5,-75.5 229.5,-75.5 229.5,-56.5 186.5,-56.5"/>
<text text-anchor="middle" x="208" y="-63.5" font-family="Helvetica,sans-Serif" font-size="10.00">cstdio</text>
</g>
<!-- Node2&#45;&gt;Node9 -->
<g id="edge9" class="edge"><title>Node2&#45;&gt;Node9</title>
<path fill="none" stroke="midnightblue" d="M207.237,-112.781C207.37,-104.781 207.539,-94.6887 207.683,-86.0168"/>
<polygon fill="midnightblue" stroke="midnightblue" points="211.187,-85.7875 207.854,-75.7305 204.188,-85.6708 211.187,-85.7875"/>
</g>
<!-- Node3&#45;&gt;Node4 -->
<g id="edge3" class="edge"><title>Node3&#45;&gt;Node4</title>
<path fill="none" stroke="midnightblue" d="M128.697,-56.4435C147.944,-47.6356 178.152,-33.8116 200.2,-23.722"/>
<polygon fill="midnightblue" stroke="midnightblue" points="201.753,-26.8603 209.39,-19.5164 198.84,-20.4951 201.753,-26.8603"/>
</g>
<!-- Node3&#45;&gt;Node5 -->
<g id="edge4" class="edge"><title>Node3&#45;&gt;Node5</title>
<path fill="none" stroke="midnightblue" d="M139.314,-56.4435C171.77,-46.9699 224.106,-31.6935 259.02,-21.5022"/>
<polygon fill="midnightblue" stroke="midnightblue" points="260.196,-24.8052 268.815,-18.6433 258.234,-18.0856 260.196,-24.8052"/>
</g>
<!-- Node3&#45;&gt;Node6 -->
<g id="edge5" class="edge"><title>Node3&#45;&gt;Node6</title>
<path fill="none" stroke="midnightblue" d="M96.1826,-56.324C82.767,-47.9002 62.1759,-34.9709 46.4144,-25.0741"/>
<polygon fill="midnightblue" stroke="midnightblue" points="48.1132,-22.0081 37.7831,-19.6545 44.3908,-27.9364 48.1132,-22.0081"/>
</g>
<!-- Node7 -->
<g id="node7" class="node"><title>Node7</title>
<polygon fill="none" stroke="#bfbfbf" points="141,-0.5 141,-19.5 187,-19.5 187,-0.5 141,-0.5"/>
<text text-anchor="middle" x="164" y="-7.5" font-family="Helvetica,sans-Serif" font-size="10.00">cstring</text>
</g>
<!-- Node3&#45;&gt;Node7 -->
<g id="edge6" class="edge"><title>Node3&#45;&gt;Node7</title>
<path fill="none" stroke="midnightblue" d="M118.917,-56.083C126.78,-48.2195 138.431,-36.5688 147.919,-27.0813"/>
<polygon fill="midnightblue" stroke="midnightblue" points="150.653,-29.2971 155.249,-19.7511 145.703,-24.3473 150.653,-29.2971"/>
</g>
<!-- Node8 -->
<g id="node8" class="node"><title>Node8</title>
<polygon fill="none" stroke="#bfbfbf" points="67,-0.5 67,-19.5 123,-19.5 123,-0.5 67,-0.5"/>
<text text-anchor="middle" x="95" y="-7.5" font-family="Helvetica,sans-Serif" font-size="10.00">algorithm</text>
</g>
<!-- Node3&#45;&gt;Node8 -->
<g id="edge7" class="edge"><title>Node3&#45;&gt;Node8</title>
<path fill="none" stroke="midnightblue" d="M107.523,-56.083C105.514,-48.8486 102.614,-38.4087 100.11,-29.3968"/>
<polygon fill="midnightblue" stroke="midnightblue" points="103.48,-28.4495 97.4309,-19.7511 96.7351,-30.323 103.48,-28.4495"/>
</g>
</g>
</svg>
