<?xml version="1.0" encoding="UTF-8" standalone="no"?>
<!DOCTYPE svg PUBLIC "-//W3C//DTD SVG 1.1//EN"
 "http://www.w3.org/Graphics/SVG/1.1/DTD/svg11.dtd">
<!-- Generated by graphviz version 2.36.0 (20140111.2315)
 -->
<!-- Title: /home/travis/build/AliceO2Group/AliceO2/DataFormats/Detectors/TPC/include/DataFormatsTPC/Helpers.h Pages: 1 -->
<svg width="763pt" height="252pt"
 viewBox="0.00 0.00 763.00 252.00" xmlns="http://www.w3.org/2000/svg" xmlns:xlink="http://www.w3.org/1999/xlink">
<g id="graph0" class="graph" transform="scale(1 1) rotate(0) translate(4 248)">
<title>/home/travis/build/AliceO2Group/AliceO2/DataFormats/Detectors/TPC/include/DataFormatsTPC/Helpers.h</title>
<!-- Node1 -->
<g id="node1" class="node"><title>Node1</title>
<polygon fill="#bfbfbf" stroke="black" points="83,-180.5 83,-243.5 237,-243.5 237,-180.5 83,-180.5"/>
<text text-anchor="start" x="91" y="-231.5" font-family="Helvetica,sans-Serif" font-size="10.00">/home/travis/build</text>
<text text-anchor="start" x="91" y="-220.5" font-family="Helvetica,sans-Serif" font-size="10.00">/AliceO2Group/AliceO2</text>
<text text-anchor="start" x="91" y="-209.5" font-family="Helvetica,sans-Serif" font-size="10.00">/DataFormats/Detectors</text>
<text text-anchor="start" x="91" y="-198.5" font-family="Helvetica,sans-Serif" font-size="10.00">/TPC/include/DataFormatsTPC</text>
<text text-anchor="middle" x="160" y="-187.5" font-family="Helvetica,sans-Serif" font-size="10.00">/Helpers.h</text>
</g>
<!-- Node2 -->
<g id="node2" class="node"><title>Node2</title>
<polygon fill="none" stroke="#bfbfbf" points="0,-124.5 0,-143.5 52,-143.5 52,-124.5 0,-124.5"/>
<text text-anchor="middle" x="26" y="-131.5" font-family="Helvetica,sans-Serif" font-size="10.00">memory</text>
</g>
<!-- Node1&#45;&gt;Node2 -->
<g id="edge1" class="edge"><title>Node1&#45;&gt;Node2</title>
<path fill="none" stroke="midnightblue" d="M105.883,-180.307C86.5143,-169.322 65.6525,-157.489 50.1066,-148.672"/>
<polygon fill="midnightblue" stroke="midnightblue" points="51.6,-145.496 41.175,-143.607 48.1466,-151.585 51.6,-145.496"/>
</g>
<!-- Node3 -->
<g id="node3" class="node"><title>Node3</title>
<g id="a_node3"><a xlink:href="../../d3/dc4/ClusterHardware_8h.html" target="_top" xlink:title="Class of a TPC cluster as produced by the hardware cluster finder (needs a postprocessing step to con...">
<polygon fill="none" stroke="black" points="70.5,-124.5 70.5,-143.5 249.5,-143.5 249.5,-124.5 70.5,-124.5"/>
<text text-anchor="middle" x="160" y="-131.5" font-family="Helvetica,sans-Serif" font-size="10.00">DataFormatsTPC/ClusterHardware.h</text>
</a>
</g>
</g>
<!-- Node1&#45;&gt;Node3 -->
<g id="edge2" class="edge"><title>Node1&#45;&gt;Node3</title>
<path fill="none" stroke="midnightblue" d="M160,-180.088C160,-171.15 160,-161.669 160,-153.719"/>
<polygon fill="midnightblue" stroke="midnightblue" points="163.5,-153.718 160,-143.718 156.5,-153.718 163.5,-153.718"/>
</g>
<!-- Node5 -->
<g id="node5" class="node"><title>Node5</title>
<g id="a_node5"><a xlink:href="../../de/dcd/ClusterNative_8h.html" target="_top" xlink:title="Class of a TPC cluster in TPC&#45;native coordinates (row, time) ">
<polygon fill="none" stroke="black" points="267.5,-124.5 267.5,-143.5 432.5,-143.5 432.5,-124.5 267.5,-124.5"/>
<text text-anchor="middle" x="350" y="-131.5" font-family="Helvetica,sans-Serif" font-size="10.00">DataFormatsTPC/ClusterNative.h</text>
</a>
</g>
</g>
<!-- Node1&#45;&gt;Node5 -->
<g id="edge4" class="edge"><title>Node1&#45;&gt;Node5</title>
<path fill="none" stroke="midnightblue" d="M236.459,-180.416C265.383,-168.847 296.692,-156.323 319.092,-147.363"/>
<polygon fill="midnightblue" stroke="midnightblue" points="320.43,-150.598 328.415,-143.634 317.83,-144.098 320.43,-150.598"/>
</g>
<!-- Node4 -->
<g id="node4" class="node"><title>Node4</title>
<polygon fill="none" stroke="#bfbfbf" points="175,-0.5 175,-19.5 221,-19.5 221,-0.5 175,-0.5"/>
<text text-anchor="middle" x="198" y="-7.5" font-family="Helvetica,sans-Serif" font-size="10.00">cstdint</text>
</g>
<!-- Node3&#45;&gt;Node4 -->
<g id="edge3" class="edge"><title>Node3&#45;&gt;Node4</title>
<path fill="none" stroke="midnightblue" d="M162.733,-124.226C168.895,-104.442 183.981,-56.0071 192.286,-29.3436"/>
<polygon fill="midnightblue" stroke="midnightblue" points="195.66,-30.2829 195.292,-19.6944 188.976,-28.2012 195.66,-30.2829"/>
</g>
<!-- Node5&#45;&gt;Node4 -->
<g id="edge5" class="edge"><title>Node5&#45;&gt;Node4</title>
<path fill="none" stroke="midnightblue" d="M284.875,-124.441C260.536,-118.113 234.567,-107.114 217,-88 202.541,-72.2672 198.63,-47.3129 197.792,-30.0988"/>
<polygon fill="midnightblue" stroke="midnightblue" points="201.283,-29.5643 197.611,-19.6264 194.284,-29.6854 201.283,-29.5643"/>
</g>
<!-- Node6 -->
<g id="node6" class="node"><title>Node6</title>
<polygon fill="none" stroke="#bfbfbf" points="226,-62.5 226,-81.5 270,-81.5 270,-62.5 226,-62.5"/>
<text text-anchor="middle" x="248" y="-69.5" font-family="Helvetica,sans-Serif" font-size="10.00">vector</text>
</g>
<!-- Node5&#45;&gt;Node6 -->
<g id="edge6" class="edge"><title>Node5&#45;&gt;Node6</title>
<path fill="none" stroke="midnightblue" d="M335.386,-124.403C318.647,-114.557 290.996,-98.2915 271.281,-86.6949"/>
<polygon fill="midnightblue" stroke="midnightblue" points="272.981,-83.6341 262.587,-81.5806 269.432,-89.6676 272.981,-83.6341"/>
</g>
<!-- Node7 -->
<g id="node7" class="node"><title>Node7</title>
<polygon fill="none" stroke="#bfbfbf" points="288.5,-62.5 288.5,-81.5 337.5,-81.5 337.5,-62.5 288.5,-62.5"/>
<text text-anchor="middle" x="313" y="-69.5" font-family="Helvetica,sans-Serif" font-size="10.00">cstddef</text>
</g>
<!-- Node5&#45;&gt;Node7 -->
<g id="edge7" class="edge"><title>Node5&#45;&gt;Node7</title>
<path fill="none" stroke="midnightblue" d="M344.699,-124.403C339.204,-115.493 330.467,-101.325 323.556,-90.1177"/>
<polygon fill="midnightblue" stroke="midnightblue" points="326.519,-88.2552 318.291,-81.5806 320.561,-91.9294 326.519,-88.2552"/>
</g>
<!-- Node8 -->
<g id="node8" class="node"><title>Node8</title>
<polygon fill="none" stroke="#bfbfbf" points="355.5,-62.5 355.5,-81.5 414.5,-81.5 414.5,-62.5 355.5,-62.5"/>
<text text-anchor="middle" x="385" y="-69.5" font-family="Helvetica,sans-Serif" font-size="10.00">stdexcept</text>
</g>
<!-- Node5&#45;&gt;Node8 -->
<g id="edge8" class="edge"><title>Node5&#45;&gt;Node8</title>
<path fill="none" stroke="midnightblue" d="M355.015,-124.403C360.161,-115.582 368.312,-101.608 374.818,-90.4548"/>
<polygon fill="midnightblue" stroke="midnightblue" points="377.979,-91.982 379.995,-81.5806 371.933,-88.4548 377.979,-91.982"/>
</g>
<!-- Node9 -->
<g id="node9" class="node"><title>Node9</title>
<g id="a_node9"><a xlink:href="../../d0/dda/DataFormats_2Detectors_2TPC_2include_2DataFormatsTPC_2Constants_8h.html" target="_top" xlink:title="DataFormatsTPC/Constants.h">
<polygon fill="none" stroke="black" points="432,-62.5 432,-81.5 582,-81.5 582,-62.5 432,-62.5"/>
<text text-anchor="middle" x="507" y="-69.5" font-family="Helvetica,sans-Serif" font-size="10.00">DataFormatsTPC/Constants.h</text>
</a>
</g>
</g>
<!-- Node5&#45;&gt;Node9 -->
<g id="edge9" class="edge"><title>Node5&#45;&gt;Node9</title>
<path fill="none" stroke="midnightblue" d="M372.494,-124.403C399.309,-114.156 444.315,-96.9561 474.809,-85.3021"/>
<polygon fill="midnightblue" stroke="midnightblue" points="476.456,-88.4199 484.547,-81.5806 473.957,-81.8811 476.456,-88.4199"/>
</g>
<!-- Node10 -->
<g id="node10" class="node"><title>Node10</title>
<g id="a_node10"><a xlink:href="../../d8/dc8/ClusterGroupAttribute_8h.html" target="_top" xlink:title="Meta data for a group describing it by sector number and global padrow. ">
<polygon fill="none" stroke="black" points="600.5,-57 600.5,-87 755.5,-87 755.5,-57 600.5,-57"/>
<text text-anchor="start" x="608.5" y="-75" font-family="Helvetica,sans-Serif" font-size="10.00">DataFormatsTPC/ClusterGroup</text>
<text text-anchor="middle" x="678" y="-64" font-family="Helvetica,sans-Serif" font-size="10.00">Attribute.h</text>
</a>
</g>
</g>
<!-- Node5&#45;&gt;Node10 -->
<g id="edge10" class="edge"><title>Node5&#45;&gt;Node10</title>
<path fill="none" stroke="midnightblue" d="M396.646,-124.467C447.179,-115.223 528.929,-100.269 591.318,-88.8564"/>
<polygon fill="midnightblue" stroke="midnightblue" points="591.951,-92.2989 601.158,-87.0565 590.691,-85.4132 591.951,-92.2989"/>
</g>
<!-- Node10&#45;&gt;Node4 -->
<g id="edge11" class="edge"><title>Node10&#45;&gt;Node4</title>
<path fill="none" stroke="midnightblue" d="M600.299,-57.5191C596.821,-56.9902 593.375,-56.4811 590,-56 457.391,-37.1009 298.658,-20.8188 231.077,-14.182"/>
<polygon fill="midnightblue" stroke="midnightblue" points="231.325,-10.6896 221.032,-13.2008 230.644,-17.6564 231.325,-10.6896"/>
</g>
</g>
</svg>
