<?xml version="1.0" encoding="UTF-8" standalone="no"?>
<!DOCTYPE svg PUBLIC "-//W3C//DTD SVG 1.1//EN"
 "http://www.w3.org/Graphics/SVG/1.1/DTD/svg11.dtd">
<!-- Generated by graphviz version 2.36.0 (20140111.2315)
 -->
<!-- Title: /home/travis/build/AliceO2Group/AliceO2/macro/o2sim.C Pages: 1 -->
<!--zoomable 298 -->
<svg id="main" version="1.1" xmlns="http://www.w3.org/2000/svg" xmlns:xlink="http://www.w3.org/1999/xlink" xml:space="preserve" onload="init(evt)">
<style type="text/css"><![CDATA[
.edge:hover path { stroke: red; }
.edge:hover polygon { stroke: red; fill: red; }
]]></style>
<script type="text/javascript"><![CDATA[
var edges = document.getElementsByTagName('g');
if (edges && edges.length) {
  for (var i=0;i<edges.length;i++) {
    if (edges[i].id.substr(0,4)=='edge') {
      edges[i].setAttribute('class','edge');
    }
  }
}
]]></script>
        <defs>
                <circle id="rim" cx="0" cy="0" r="7"/>
                <circle id="rim2" cx="0" cy="0" r="3.5"/>
                <g id="zoomPlus">
                        <use xlink:href="#rim" fill="#404040">
                                <set attributeName="fill" to="#808080" begin="zoomplus.mouseover" end="zoomplus.mouseout"/>
                        </use>
                        <path d="M-4,0h8M0,-4v8" fill="none" stroke="white" stroke-width="1.5" pointer-events="none"/>
                </g>
                <g id="zoomMin">
                        <use xlink:href="#rim" fill="#404040">
                                <set attributeName="fill" to="#808080" begin="zoomminus.mouseover" end="zoomminus.mouseout"/>
                        </use>
                        <path d="M-4,0h8" fill="none" stroke="white" stroke-width="1.5" pointer-events="none"/>
                </g>
                <g id="dirArrow">
                        <path fill="none" stroke="white" stroke-width="1.5" d="M0,-3.0v7 M-2.5,-0.5L0,-3.0L2.5,-0.5"/>
                </g>
               <g id="resetDef">
                       <use xlink:href="#rim2" fill="#404040">
                               <set attributeName="fill" to="#808080" begin="reset.mouseover" end="reset.mouseout"/>
                       </use>
               </g>
        </defs>

<script type="text/javascript">
var viewWidth = 1580;
var viewHeight = 298;
var sectionId = 'dynsection-0';
</script>
<script xlink:href="../../svgpan.js"/>
<svg id="graph" class="graph">
<g id="viewport">
<title>/home/travis/build/AliceO2Group/AliceO2/macro/o2sim.C</title>
<!-- Node1 -->
<g id="node1" class="node"><title>Node1</title>
<polygon fill="#bfbfbf" stroke="black" points="756,-248.5 756,-289.5 874,-289.5 874,-248.5 756,-248.5"/>
<text text-anchor="start" x="764" y="-277.5" font-family="Helvetica,sans-Serif" font-size="10.00">/home/travis/build</text>
<text text-anchor="start" x="764" y="-266.5" font-family="Helvetica,sans-Serif" font-size="10.00">/AliceO2Group/AliceO2</text>
<text text-anchor="middle" x="815" y="-255.5" font-family="Helvetica,sans-Serif" font-size="10.00">/macro/o2sim.C</text>
</g>
<!-- Node2 -->
<g id="node2" class="node"><title>Node2</title>
<polygon fill="none" stroke="#bfbfbf" points="-0.5,-186.5 -0.5,-205.5 92.5,-205.5 92.5,-186.5 -0.5,-186.5"/>
<text text-anchor="middle" x="46" y="-193.5" font-family="Helvetica,sans-Serif" font-size="10.00">build_geometry.C</text>
</g>
<!-- Node1&#45;&gt;Node2 -->
<g id="edge1" class="edge"><title>Node1&#45;&gt;Node2</title>
<path fill="none" stroke="midnightblue" d="M755.759,-267.108C632.822,-264.435 341.404,-253.827 101,-212 95.1281,-210.978 88.9754,-209.607 82.9989,-208.108"/>
<polygon fill="midnightblue" stroke="midnightblue" points="83.7513,-204.686 73.1879,-205.502 81.9544,-211.452 83.7513,-204.686"/>
</g>
<!-- Node3 -->
<g id="node3" class="node"><title>Node3</title>
<polygon fill="none" stroke="#bfbfbf" points="110.5,-186.5 110.5,-205.5 211.5,-205.5 211.5,-186.5 110.5,-186.5"/>
<text text-anchor="middle" x="161" y="-193.5" font-family="Helvetica,sans-Serif" font-size="10.00">FairBoxGenerator.h</text>
</g>
<!-- Node1&#45;&gt;Node3 -->
<g id="edge2" class="edge"><title>Node1&#45;&gt;Node3</title>
<path fill="none" stroke="midnightblue" d="M755.594,-265.372C648.225,-259.964 414.986,-245.197 221,-212 214.61,-210.907 207.897,-209.495 201.369,-207.975"/>
<polygon fill="midnightblue" stroke="midnightblue" points="201.879,-204.497 191.335,-205.529 200.221,-211.298 201.879,-204.497"/>
</g>
<!-- Node4 -->
<g id="node4" class="node"><title>Node4</title>
<polygon fill="none" stroke="#bfbfbf" points="230,-186.5 230,-205.5 348,-205.5 348,-186.5 230,-186.5"/>
<text text-anchor="middle" x="289" y="-193.5" font-family="Helvetica,sans-Serif" font-size="10.00">FairPrimaryGenerator.h</text>
</g>
<!-- Node1&#45;&gt;Node4 -->
<g id="edge3" class="edge"><title>Node1&#45;&gt;Node4</title>
<path fill="none" stroke="midnightblue" d="M755.814,-262.586C668.285,-254.168 499.325,-236.341 357,-212 349.709,-210.753 342.018,-209.245 334.536,-207.672"/>
<polygon fill="midnightblue" stroke="midnightblue" points="335.032,-204.199 324.519,-205.506 333.553,-211.041 335.032,-204.199"/>
</g>
<!-- Node5 -->
<g id="node5" class="node"><title>Node5</title>
<g id="a_node5"><a xlink:href="../../de/daf/GeneratorFromFile_8h.html" target="_top" xlink:title="Generators/GeneratorFrom\lFile.h">
<polygon fill="none" stroke="black" points="366.5,-181 366.5,-211 499.5,-211 499.5,-181 366.5,-181"/>
<text text-anchor="start" x="374.5" y="-199" font-family="Helvetica,sans-Serif" font-size="10.00">Generators/GeneratorFrom</text>
<text text-anchor="middle" x="433" y="-188" font-family="Helvetica,sans-Serif" font-size="10.00">File.h</text>
</a>
</g>
</g>
<!-- Node1&#45;&gt;Node5 -->
<g id="edge4" class="edge"><title>Node1&#45;&gt;Node5</title>
<path fill="none" stroke="midnightblue" d="M755.721,-257.403C696.212,-246.708 601.625,-229.554 509.749,-212.128"/>
<polygon fill="midnightblue" stroke="midnightblue" points="510.196,-208.65 499.718,-210.222 508.889,-215.527 510.196,-208.65"/>
</g>
<!-- Node7 -->
<g id="node7" class="node"><title>Node7</title>
<g id="a_node7"><a xlink:href="../../d6/df5/Pythia8Generator_8h.html" target="_top" xlink:title="Generators/Pythia8Generator.h">
<polygon fill="none" stroke="black" points="518,-186.5 518,-205.5 670,-205.5 670,-186.5 518,-186.5"/>
<text text-anchor="middle" x="594" y="-193.5" font-family="Helvetica,sans-Serif" font-size="10.00">Generators/Pythia8Generator.h</text>
</a>
</g>
</g>
<!-- Node1&#45;&gt;Node7 -->
<g id="edge6" class="edge"><title>Node1&#45;&gt;Node7</title>
<path fill="none" stroke="midnightblue" d="M755.776,-248.973C715.745,-236.113 664.177,-219.546 630.152,-208.614"/>
<polygon fill="midnightblue" stroke="midnightblue" points="631.208,-205.278 620.617,-205.551 629.067,-211.942 631.208,-205.278"/>
</g>
<!-- Node14 -->
<g id="node14" class="node"><title>Node14</title>
<g id="a_node14"><a xlink:href="../../de/d73/PDG_8h.html" target="_top" xlink:title="Generators/PDG.h">
<polygon fill="none" stroke="black" points="695,-118.5 695,-137.5 793,-137.5 793,-118.5 695,-118.5"/>
<text text-anchor="middle" x="744" y="-125.5" font-family="Helvetica,sans-Serif" font-size="10.00">Generators/PDG.h</text>
</a>
</g>
</g>
<!-- Node1&#45;&gt;Node14 -->
<g id="edge14" class="edge"><title>Node1&#45;&gt;Node14</title>
<path fill="none" stroke="midnightblue" d="M804.978,-248.38C791.142,-221.293 766.394,-172.842 753.077,-146.77"/>
<polygon fill="midnightblue" stroke="midnightblue" points="756.096,-144.986 748.43,-137.673 749.862,-148.171 756.096,-144.986"/>
</g>
<!-- Node15 -->
<g id="node15" class="node"><title>Node15</title>
<g id="a_node15"><a xlink:href="../../d4/dee/SimConfig_8h.html" target="_top" xlink:title="SimConfig/SimConfig.h">
<polygon fill="none" stroke="black" points="811.5,-118.5 811.5,-137.5 930.5,-137.5 930.5,-118.5 811.5,-118.5"/>
<text text-anchor="middle" x="871" y="-125.5" font-family="Helvetica,sans-Serif" font-size="10.00">SimConfig/SimConfig.h</text>
</a>
</g>
</g>
<!-- Node1&#45;&gt;Node15 -->
<g id="edge16" class="edge"><title>Node1&#45;&gt;Node15</title>
<path fill="none" stroke="midnightblue" d="M805.398,-248.41C797.748,-229.841 789.988,-201.648 801,-180 809.468,-163.352 826.2,-150.853 841.182,-142.395"/>
<polygon fill="midnightblue" stroke="midnightblue" points="842.976,-145.406 850.194,-137.651 839.715,-139.212 842.976,-145.406"/>
</g>
<!-- Node16 -->
<g id="node16" class="node"><title>Node16</title>
<polygon fill="none" stroke="#bfbfbf" points="810.5,-186.5 810.5,-205.5 887.5,-205.5 887.5,-186.5 810.5,-186.5"/>
<text text-anchor="middle" x="849" y="-193.5" font-family="Helvetica,sans-Serif" font-size="10.00">TStopwatch.h</text>
</g>
<!-- Node1&#45;&gt;Node16 -->
<g id="edge18" class="edge"><title>Node1&#45;&gt;Node16</title>
<path fill="none" stroke="midnightblue" d="M824.471,-248.223C829.481,-237.759 835.585,-225.013 840.451,-214.853"/>
<polygon fill="midnightblue" stroke="midnightblue" points="843.655,-216.266 844.817,-205.735 837.341,-213.242 843.655,-216.266"/>
</g>
<!-- Node17 -->
<g id="node17" class="node"><title>Node17</title>
<polygon fill="none" stroke="#bfbfbf" points="906,-186.5 906,-205.5 958,-205.5 958,-186.5 906,-186.5"/>
<text text-anchor="middle" x="932" y="-193.5" font-family="Helvetica,sans-Serif" font-size="10.00">memory</text>
</g>
<!-- Node1&#45;&gt;Node17 -->
<g id="edge19" class="edge"><title>Node1&#45;&gt;Node17</title>
<path fill="none" stroke="midnightblue" d="M847.28,-248.411C866.799,-236.567 891.227,-221.743 908.83,-211.06"/>
<polygon fill="midnightblue" stroke="midnightblue" points="911.1,-213.777 917.833,-205.597 907.469,-207.793 911.1,-213.777"/>
</g>
<!-- Node18 -->
<g id="node18" class="node"><title>Node18</title>
<g id="a_node18"><a xlink:href="../../de/d28/GRPObject_8h.html" target="_top" xlink:title="Header of the General Run Parameters object. ">
<polygon fill="none" stroke="black" points="976,-181 976,-211 1100,-211 1100,-181 976,-181"/>
<text text-anchor="start" x="984" y="-199" font-family="Helvetica,sans-Serif" font-size="10.00">DataFormatsParameters</text>
<text text-anchor="middle" x="1038" y="-188" font-family="Helvetica,sans-Serif" font-size="10.00">/GRPObject.h</text>
</a>
</g>
</g>
<!-- Node1&#45;&gt;Node18 -->
<g id="edge20" class="edge"><title>Node1&#45;&gt;Node18</title>
<path fill="none" stroke="midnightblue" d="M874.174,-249.16C908.35,-238.279 951.006,-224.698 984.224,-214.121"/>
<polygon fill="midnightblue" stroke="midnightblue" points="985.302,-217.452 993.769,-211.083 983.178,-210.781 985.302,-217.452"/>
</g>
<!-- Node31 -->
<g id="node31" class="node"><title>Node31</title>
<polygon fill="none" stroke="#bfbfbf" points="1118.5,-186.5 1118.5,-205.5 1219.5,-205.5 1219.5,-186.5 1118.5,-186.5"/>
<text text-anchor="middle" x="1169" y="-193.5" font-family="Helvetica,sans-Serif" font-size="10.00">FairParRootFileIo.h</text>
</g>
<!-- Node1&#45;&gt;Node31 -->
<g id="edge37" class="edge"><title>Node1&#45;&gt;Node31</title>
<path fill="none" stroke="midnightblue" d="M874.111,-257.639C933.42,-247.024 1027.3,-229.622 1108,-212 1113.73,-210.748 1119.75,-209.36 1125.68,-207.947"/>
<polygon fill="midnightblue" stroke="midnightblue" points="1126.62,-211.322 1135.51,-205.568 1124.97,-204.519 1126.62,-211.322"/>
</g>
<!-- Node32 -->
<g id="node32" class="node"><title>Node32</title>
<polygon fill="none" stroke="#bfbfbf" points="1238,-186.5 1238,-205.5 1330,-205.5 1330,-186.5 1238,-186.5"/>
<text text-anchor="middle" x="1284" y="-193.5" font-family="Helvetica,sans-Serif" font-size="10.00">FairSystemInfo.h</text>
</g>
<!-- Node1&#45;&gt;Node32 -->
<g id="edge38" class="edge"><title>Node1&#45;&gt;Node32</title>
<path fill="none" stroke="midnightblue" d="M874.21,-262.36C954.759,-254.144 1103.14,-237.081 1228,-212 1233.49,-210.897 1239.24,-209.566 1244.87,-208.157"/>
<polygon fill="midnightblue" stroke="midnightblue" points="1246.02,-211.476 1254.81,-205.569 1244.25,-204.701 1246.02,-211.476"/>
</g>
<!-- Node33 -->
<g id="node33" class="node"><title>Node33</title>
<polygon fill="none" stroke="#bfbfbf" points="1348,-186.5 1348,-205.5 1422,-205.5 1422,-186.5 1348,-186.5"/>
<text text-anchor="middle" x="1385" y="-193.5" font-family="Helvetica,sans-Serif" font-size="10.00">TVirtualMC.h</text>
</g>
<!-- Node1&#45;&gt;Node33 -->
<g id="edge39" class="edge"><title>Node1&#45;&gt;Node33</title>
<path fill="none" stroke="midnightblue" d="M874.179,-265.698C971.923,-261.002 1172.82,-247.566 1339,-212 1343.25,-211.09 1347.66,-209.935 1352,-208.672"/>
<polygon fill="midnightblue" stroke="midnightblue" points="1353.36,-211.914 1361.86,-205.589 1351.27,-205.233 1353.36,-211.914"/>
</g>
<!-- Node34 -->
<g id="node34" class="node"><title>Node34</title>
<g id="a_node34"><a xlink:href="../../df/d35/SimSetup_8h.html" target="_top" xlink:title="SimSetup/SimSetup.h">
<polygon fill="none" stroke="black" points="1440.5,-186.5 1440.5,-205.5 1553.5,-205.5 1553.5,-186.5 1440.5,-186.5"/>
<text text-anchor="middle" x="1497" y="-193.5" font-family="Helvetica,sans-Serif" font-size="10.00">SimSetup/SimSetup.h</text>
</a>
</g>
</g>
<!-- Node1&#45;&gt;Node34 -->
<g id="edge40" class="edge"><title>Node1&#45;&gt;Node34</title>
<path fill="none" stroke="midnightblue" d="M874.358,-265.23C984.59,-259.505 1228.15,-244.125 1431,-212 1438.26,-210.85 1445.91,-209.366 1453.34,-207.781"/>
<polygon fill="midnightblue" stroke="midnightblue" points="1454.25,-211.163 1463.25,-205.577 1452.73,-204.33 1454.25,-211.163"/>
</g>
<!-- Node6 -->
<g id="node6" class="node"><title>Node6</title>
<polygon fill="none" stroke="#bfbfbf" points="70,-118.5 70,-137.5 154,-137.5 154,-118.5 70,-118.5"/>
<text text-anchor="middle" x="112" y="-125.5" font-family="Helvetica,sans-Serif" font-size="10.00">FairGenerator.h</text>
</g>
<!-- Node5&#45;&gt;Node6 -->
<g id="edge5" class="edge"><title>Node5&#45;&gt;Node6</title>
<path fill="none" stroke="midnightblue" d="M366.28,-181.787C363.144,-181.18 360.038,-180.582 357,-180 270.87,-163.509 248.289,-164.399 163,-144 158.363,-142.891 153.521,-141.619 148.746,-140.294"/>
<polygon fill="midnightblue" stroke="midnightblue" points="149.7,-136.927 139.123,-137.538 147.773,-143.657 149.7,-136.927"/>
</g>
<!-- Node7&#45;&gt;Node6 -->
<g id="edge8" class="edge"><title>Node7&#45;&gt;Node6</title>
<path fill="none" stroke="midnightblue" d="M548.567,-186.475C535.5,-184.186 521.21,-181.839 508,-180 355.307,-158.743 314.244,-173.874 163,-144 157.924,-142.997 152.625,-141.715 147.445,-140.322"/>
<polygon fill="midnightblue" stroke="midnightblue" points="148.294,-136.925 137.718,-137.555 146.379,-143.658 148.294,-136.925"/>
</g>
<!-- Node8 -->
<g id="node8" class="node"><title>Node8</title>
<polygon fill="none" stroke="#bfbfbf" points="440.5,-118.5 440.5,-137.5 531.5,-137.5 531.5,-118.5 440.5,-118.5"/>
<text text-anchor="middle" x="486" y="-125.5" font-family="Helvetica,sans-Serif" font-size="10.00">Pythia8/Basics.h</text>
</g>
<!-- Node7&#45;&gt;Node8 -->
<g id="edge7" class="edge"><title>Node7&#45;&gt;Node8</title>
<path fill="none" stroke="midnightblue" d="M579.881,-186.372C561.851,-175.353 530.419,-156.145 508.932,-143.014"/>
<polygon fill="midnightblue" stroke="midnightblue" points="510.481,-139.859 500.123,-137.63 506.83,-145.832 510.481,-139.859"/>
</g>
<!-- Node9 -->
<g id="node9" class="node"><title>Node9</title>
<polygon fill="none" stroke="#bfbfbf" points="549.5,-118.5 549.5,-137.5 638.5,-137.5 638.5,-118.5 549.5,-118.5"/>
<text text-anchor="middle" x="594" y="-125.5" font-family="Helvetica,sans-Serif" font-size="10.00">Pythia8/Pythia.h</text>
</g>
<!-- Node7&#45;&gt;Node9 -->
<g id="edge9" class="edge"><title>Node7&#45;&gt;Node9</title>
<path fill="none" stroke="midnightblue" d="M594,-186.372C594,-176.643 594,-160.528 594,-147.85"/>
<polygon fill="midnightblue" stroke="midnightblue" points="597.5,-147.841 594,-137.841 590.5,-147.841 597.5,-147.841"/>
</g>
<!-- Node10 -->
<g id="node10" class="node"><title>Node10</title>
<polygon fill="none" stroke="#bfbfbf" points="843,-56.5 843,-75.5 899,-75.5 899,-56.5 843,-56.5"/>
<text text-anchor="middle" x="871" y="-63.5" font-family="Helvetica,sans-Serif" font-size="10.00">Rtypes.h</text>
</g>
<!-- Node7&#45;&gt;Node10 -->
<g id="edge10" class="edge"><title>Node7&#45;&gt;Node10</title>
<path fill="none" stroke="midnightblue" d="M602.956,-186.457C624.154,-166.303 676.349,-117.102 686,-112 732.878,-87.2176 793.649,-75.824 832.494,-70.7708"/>
<polygon fill="midnightblue" stroke="midnightblue" points="833.337,-74.194 842.839,-69.5078 832.489,-67.2456 833.337,-74.194"/>
</g>
<!-- Node11 -->
<g id="node11" class="node"><title>Node11</title>
<polygon fill="none" stroke="#bfbfbf" points="172,-118.5 172,-137.5 240,-137.5 240,-118.5 172,-118.5"/>
<text text-anchor="middle" x="206" y="-125.5" font-family="Helvetica,sans-Serif" font-size="10.00">TRandom.h</text>
</g>
<!-- Node7&#45;&gt;Node11 -->
<g id="edge11" class="edge"><title>Node7&#45;&gt;Node11</title>
<path fill="none" stroke="midnightblue" d="M546.735,-186.454C534.16,-184.263 520.578,-181.97 508,-180 393.183,-162.013 361.973,-171.272 249,-144 245.325,-143.113 241.523,-142.034 237.77,-140.866"/>
<polygon fill="midnightblue" stroke="midnightblue" points="238.661,-137.474 228.068,-137.635 236.45,-144.115 238.661,-137.474"/>
</g>
<!-- Node12 -->
<g id="node12" class="node"><title>Node12</title>
<polygon fill="none" stroke="#bfbfbf" points="258.5,-118.5 258.5,-137.5 331.5,-137.5 331.5,-118.5 258.5,-118.5"/>
<text text-anchor="middle" x="295" y="-125.5" font-family="Helvetica,sans-Serif" font-size="10.00">TRandom1.h</text>
</g>
<!-- Node7&#45;&gt;Node12 -->
<g id="edge12" class="edge"><title>Node7&#45;&gt;Node12</title>
<path fill="none" stroke="midnightblue" d="M548.141,-186.498C486.07,-174.868 378.631,-154.275 340,-144 336.364,-143.033 332.593,-141.933 328.85,-140.779"/>
<polygon fill="midnightblue" stroke="midnightblue" points="329.714,-137.381 319.122,-137.651 327.57,-144.044 329.714,-137.381"/>
</g>
<!-- Node13 -->
<g id="node13" class="node"><title>Node13</title>
<polygon fill="none" stroke="#bfbfbf" points="349.5,-118.5 349.5,-137.5 422.5,-137.5 422.5,-118.5 349.5,-118.5"/>
<text text-anchor="middle" x="386" y="-125.5" font-family="Helvetica,sans-Serif" font-size="10.00">TRandom3.h</text>
</g>
<!-- Node7&#45;&gt;Node13 -->
<g id="edge13" class="edge"><title>Node7&#45;&gt;Node13</title>
<path fill="none" stroke="midnightblue" d="M566.263,-186.493C533.787,-176.493 478.402,-159.315 431,-144 427.865,-142.987 424.612,-141.925 421.353,-140.853"/>
<polygon fill="midnightblue" stroke="midnightblue" points="422.267,-137.469 411.674,-137.649 420.067,-144.114 422.267,-137.469"/>
</g>
<!-- Node14&#45;&gt;Node10 -->
<g id="edge15" class="edge"><title>Node14&#45;&gt;Node10</title>
<path fill="none" stroke="midnightblue" d="M762.196,-118.403C783.509,-108.334 819.031,-91.5522 843.663,-79.9151"/>
<polygon fill="midnightblue" stroke="midnightblue" points="845.291,-83.0169 852.838,-75.5806 842.301,-76.6877 845.291,-83.0169"/>
</g>
<!-- Node15&#45;&gt;Node10 -->
<g id="edge17" class="edge"><title>Node15&#45;&gt;Node10</title>
<path fill="none" stroke="midnightblue" d="M871,-118.403C871,-109.938 871,-96.7283 871,-85.8199"/>
<polygon fill="midnightblue" stroke="midnightblue" points="874.5,-85.5806 871,-75.5806 867.5,-85.5806 874.5,-85.5806"/>
</g>
<!-- Node18&#45;&gt;Node10 -->
<g id="edge21" class="edge"><title>Node18&#45;&gt;Node10</title>
<path fill="none" stroke="midnightblue" d="M1100.16,-181.695C1169.25,-166.872 1271.31,-144.856 1272,-144 1280.92,-132.924 1281.48,-122.603 1272,-112 1248.03,-85.1948 1004.6,-72.4415 909.13,-68.4417"/>
<polygon fill="midnightblue" stroke="midnightblue" points="909.171,-64.9405 899.036,-68.0285 908.884,-71.9346 909.171,-64.9405"/>
</g>
<!-- Node19 -->
<g id="node19" class="node"><title>Node19</title>
<polygon fill="none" stroke="#bfbfbf" points="1498,-56.5 1498,-75.5 1544,-75.5 1544,-56.5 1498,-56.5"/>
<text text-anchor="middle" x="1521" y="-63.5" font-family="Helvetica,sans-Serif" font-size="10.00">cstdint</text>
</g>
<!-- Node18&#45;&gt;Node19 -->
<g id="edge22" class="edge"><title>Node18&#45;&gt;Node19</title>
<path fill="none" stroke="midnightblue" d="M1100.27,-181.432C1103.21,-180.92 1106.14,-180.439 1109,-180 1191.75,-167.328 1415.35,-191.909 1484,-144 1503.34,-130.505 1512.93,-104.07 1517.42,-85.9746"/>
<polygon fill="midnightblue" stroke="midnightblue" points="1520.89,-86.4916 1519.6,-75.9757 1514.05,-85.0013 1520.89,-86.4916"/>
</g>
<!-- Node20 -->
<g id="node20" class="node"><title>Node20</title>
<polygon fill="none" stroke="#bfbfbf" points="1531.5,-118.5 1531.5,-137.5 1572.5,-137.5 1572.5,-118.5 1531.5,-118.5"/>
<text text-anchor="middle" x="1552" y="-125.5" font-family="Helvetica,sans-Serif" font-size="10.00">ctime</text>
</g>
<!-- Node18&#45;&gt;Node20 -->
<g id="edge23" class="edge"><title>Node18&#45;&gt;Node20</title>
<path fill="none" stroke="midnightblue" d="M1100.26,-181.404C1103.21,-180.899 1106.13,-180.428 1109,-180 1289.04,-153.137 1340.46,-188.41 1517,-144 1519.82,-143.289 1522.71,-142.379 1525.56,-141.359"/>
<polygon fill="midnightblue" stroke="midnightblue" points="1526.96,-144.571 1534.93,-137.597 1524.35,-138.075 1526.96,-144.571"/>
</g>
<!-- Node21 -->
<g id="node21" class="node"><title>Node21</title>
<g id="a_node21"><a xlink:href="../../d4/dc6/LHCConstants_8h.html" target="_top" xlink:title="Header to collect LHC related constants. ">
<polygon fill="none" stroke="black" points="949,-118.5 949,-137.5 1127,-137.5 1127,-118.5 949,-118.5"/>
<text text-anchor="middle" x="1038" y="-125.5" font-family="Helvetica,sans-Serif" font-size="10.00">CommonConstants/LHCConstants.h</text>
</a>
</g>
</g>
<!-- Node18&#45;&gt;Node21 -->
<g id="edge24" class="edge"><title>Node18&#45;&gt;Node21</title>
<path fill="none" stroke="midnightblue" d="M1038,-180.679C1038,-171.101 1038,-158.394 1038,-147.977"/>
<polygon fill="midnightblue" stroke="midnightblue" points="1041.5,-147.828 1038,-137.828 1034.5,-147.828 1041.5,-147.828"/>
</g>
<!-- Node22 -->
<g id="node22" class="node"><title>Node22</title>
<g id="a_node22"><a xlink:href="../../da/d58/Units_8h.html" target="_top" xlink:title="Header to collect definitions for different units. ">
<polygon fill="none" stroke="black" points="1145,-118.5 1145,-137.5 1263,-137.5 1263,-118.5 1145,-118.5"/>
<text text-anchor="middle" x="1204" y="-125.5" font-family="Helvetica,sans-Serif" font-size="10.00">CommonTypes/Units.h</text>
</a>
</g>
</g>
<!-- Node18&#45;&gt;Node22 -->
<g id="edge25" class="edge"><title>Node18&#45;&gt;Node22</title>
<path fill="none" stroke="midnightblue" d="M1073.61,-180.841C1103.1,-169.118 1144.58,-152.624 1172.78,-141.411"/>
<polygon fill="midnightblue" stroke="midnightblue" points="1174.16,-144.629 1182.16,-137.682 1171.58,-138.124 1174.16,-144.629"/>
</g>
<!-- Node23 -->
<g id="node23" class="node"><title>Node23</title>
<g id="a_node23"><a xlink:href="../../d6/d31/DetID_8h.html" target="_top" xlink:title="DetectorsCommonDataFormats\l/DetID.h">
<polygon fill="none" stroke="black" points="1319,-113 1319,-143 1475,-143 1475,-113 1319,-113"/>
<text text-anchor="start" x="1327" y="-131" font-family="Helvetica,sans-Serif" font-size="10.00">DetectorsCommonDataFormats</text>
<text text-anchor="middle" x="1397" y="-120" font-family="Helvetica,sans-Serif" font-size="10.00">/DetID.h</text>
</a>
</g>
</g>
<!-- Node18&#45;&gt;Node23 -->
<g id="edge26" class="edge"><title>Node18&#45;&gt;Node23</title>
<path fill="none" stroke="midnightblue" d="M1100.31,-181.714C1103.25,-181.126 1106.16,-180.552 1109,-180 1175.89,-167.015 1251.79,-153.63 1308.87,-143.832"/>
<polygon fill="midnightblue" stroke="midnightblue" points="1309.68,-147.244 1318.95,-142.106 1308.5,-140.345 1309.68,-147.244"/>
</g>
<!-- Node23&#45;&gt;Node10 -->
<g id="edge27" class="edge"><title>Node23&#45;&gt;Node10</title>
<path fill="none" stroke="midnightblue" d="M1318.75,-113.923C1314.1,-113.246 1309.49,-112.599 1305,-112 1159.24,-92.5776 984.989,-76.7359 909.265,-70.2123"/>
<polygon fill="midnightblue" stroke="midnightblue" points="909.51,-66.7205 899.248,-69.3542 908.912,-73.695 909.51,-66.7205"/>
</g>
<!-- Node23&#45;&gt;Node19 -->
<g id="edge31" class="edge"><title>Node23&#45;&gt;Node19</title>
<path fill="none" stroke="midnightblue" d="M1426.07,-112.933C1446.62,-102.991 1473.96,-89.7601 1494.02,-80.0526"/>
<polygon fill="midnightblue" stroke="midnightblue" points="1495.75,-83.1063 1503.23,-75.6 1492.7,-76.8051 1495.75,-83.1063"/>
</g>
<!-- Node24 -->
<g id="node24" class="node"><title>Node24</title>
<polygon fill="none" stroke="#bfbfbf" points="1478,-0.5 1478,-19.5 1516,-19.5 1516,-0.5 1478,-0.5"/>
<text text-anchor="middle" x="1497" y="-7.5" font-family="Helvetica,sans-Serif" font-size="10.00">array</text>
</g>
<!-- Node23&#45;&gt;Node24 -->
<g id="edge28" class="edge"><title>Node23&#45;&gt;Node24</title>
<path fill="none" stroke="midnightblue" d="M1413.89,-112.617C1424.98,-102.809 1439.5,-89.2434 1451,-76 1464.13,-60.8787 1477.13,-42.0604 1485.94,-28.5693"/>
<polygon fill="midnightblue" stroke="midnightblue" points="1489.1,-30.1222 1491.56,-19.8163 1483.21,-26.3404 1489.1,-30.1222"/>
</g>
<!-- Node25 -->
<g id="node25" class="node"><title>Node25</title>
<polygon fill="none" stroke="#bfbfbf" points="1145.5,-56.5 1145.5,-75.5 1186.5,-75.5 1186.5,-56.5 1145.5,-56.5"/>
<text text-anchor="middle" x="1166" y="-63.5" font-family="Helvetica,sans-Serif" font-size="10.00">bitset</text>
</g>
<!-- Node23&#45;&gt;Node25 -->
<g id="edge29" class="edge"><title>Node23&#45;&gt;Node25</title>
<path fill="none" stroke="midnightblue" d="M1338.77,-112.928C1300.83,-103.596 1250.03,-90.7995 1196.33,-76.0008"/>
<polygon fill="midnightblue" stroke="midnightblue" points="1197.19,-72.6098 1186.62,-73.3139 1195.33,-79.3559 1197.19,-72.6098"/>
</g>
<!-- Node26 -->
<g id="node26" class="node"><title>Node26</title>
<polygon fill="none" stroke="#bfbfbf" points="1204.5,-56.5 1204.5,-75.5 1253.5,-75.5 1253.5,-56.5 1204.5,-56.5"/>
<text text-anchor="middle" x="1229" y="-63.5" font-family="Helvetica,sans-Serif" font-size="10.00">cassert</text>
</g>
<!-- Node23&#45;&gt;Node26 -->
<g id="edge30" class="edge"><title>Node23&#45;&gt;Node26</title>
<path fill="none" stroke="midnightblue" d="M1357.61,-112.933C1328.76,-102.629 1290.02,-88.7935 1262.62,-79.0079"/>
<polygon fill="midnightblue" stroke="midnightblue" points="1263.67,-75.6674 1253.08,-75.6 1261.32,-82.2596 1263.67,-75.6674"/>
</g>
<!-- Node27 -->
<g id="node27" class="node"><title>Node27</title>
<polygon fill="none" stroke="#bfbfbf" points="1272,-56.5 1272,-75.5 1334,-75.5 1334,-56.5 1272,-56.5"/>
<text text-anchor="middle" x="1303" y="-63.5" font-family="Helvetica,sans-Serif" font-size="10.00">type_traits</text>
</g>
<!-- Node23&#45;&gt;Node27 -->
<g id="edge32" class="edge"><title>Node23&#45;&gt;Node27</title>
<path fill="none" stroke="midnightblue" d="M1374.72,-112.781C1359.71,-103.196 1339.98,-90.6062 1325.02,-81.0555"/>
<polygon fill="midnightblue" stroke="midnightblue" points="1326.72,-77.9859 1316.4,-75.5557 1322.95,-83.8863 1326.72,-77.9859"/>
</g>
<!-- Node28 -->
<g id="node28" class="node"><title>Node28</title>
<g id="a_node28"><a xlink:href="../../d9/d52/Common_2MathUtils_2include_2MathUtils_2Utils_8h.html" target="_top" xlink:title="MathUtils/Utils.h">
<polygon fill="none" stroke="black" points="1352,-56.5 1352,-75.5 1442,-75.5 1442,-56.5 1352,-56.5"/>
<text text-anchor="middle" x="1397" y="-63.5" font-family="Helvetica,sans-Serif" font-size="10.00">MathUtils/Utils.h</text>
</a>
</g>
</g>
<!-- Node23&#45;&gt;Node28 -->
<g id="edge33" class="edge"><title>Node23&#45;&gt;Node28</title>
<path fill="none" stroke="midnightblue" d="M1397,-112.781C1397,-104.781 1397,-94.6887 1397,-86.0168"/>
<polygon fill="midnightblue" stroke="midnightblue" points="1400.5,-85.7305 1397,-75.7305 1393.5,-85.7306 1400.5,-85.7305"/>
</g>
<!-- Node28&#45;&gt;Node24 -->
<g id="edge34" class="edge"><title>Node28&#45;&gt;Node24</title>
<path fill="none" stroke="midnightblue" d="M1413.07,-56.324C1428.96,-47.7428 1453.51,-34.486 1471.96,-24.5224"/>
<polygon fill="midnightblue" stroke="midnightblue" points="1473.84,-27.4857 1480.97,-19.6545 1470.51,-21.3264 1473.84,-27.4857"/>
</g>
<!-- Node29 -->
<g id="node29" class="node"><title>Node29</title>
<polygon fill="none" stroke="#bfbfbf" points="1218,-0.5 1218,-19.5 1262,-19.5 1262,-0.5 1218,-0.5"/>
<text text-anchor="middle" x="1240" y="-7.5" font-family="Helvetica,sans-Serif" font-size="10.00">cmath</text>
</g>
<!-- Node28&#45;&gt;Node29 -->
<g id="edge35" class="edge"><title>Node28&#45;&gt;Node29</title>
<path fill="none" stroke="midnightblue" d="M1372.12,-56.4435C1344.93,-47.0919 1301.31,-32.0859 1271.69,-21.8984"/>
<polygon fill="midnightblue" stroke="midnightblue" points="1272.82,-18.5862 1262.22,-18.6433 1270.54,-25.2056 1272.82,-18.5862"/>
</g>
<!-- Node30 -->
<g id="node30" class="node"><title>Node30</title>
<g id="a_node30"><a xlink:href="../../d6/d84/MathConstants_8h.html" target="_top" xlink:title="useful math constants ">
<polygon fill="none" stroke="black" points="1280.5,-0.5 1280.5,-19.5 1459.5,-19.5 1459.5,-0.5 1280.5,-0.5"/>
<text text-anchor="middle" x="1370" y="-7.5" font-family="Helvetica,sans-Serif" font-size="10.00">CommonConstants/MathConstants.h</text>
</a>
</g>
</g>
<!-- Node28&#45;&gt;Node30 -->
<g id="edge36" class="edge"><title>Node28&#45;&gt;Node30</title>
<path fill="none" stroke="midnightblue" d="M1392.54,-56.083C1388.85,-48.6913 1383.48,-37.9533 1378.91,-28.8111"/>
<polygon fill="midnightblue" stroke="midnightblue" points="1381.98,-27.1301 1374.38,-19.7511 1375.72,-30.2606 1381.98,-27.1301"/>
</g>
</g>
</svg>
        <g id="navigator" transform="translate(0 0)" fill="#404254">
                <rect fill="#f2f5e9" fill-opacity="0.5" stroke="#606060" stroke-width=".5" x="0" y="0" width="60" height="60"/>
                <use id="zoomplus" xlink:href="#zoomPlus" x="17" y="9" onmousedown="handleZoom(evt,'in')"/>
                <use id="zoomminus" xlink:href="#zoomMin" x="42" y="9" onmousedown="handleZoom(evt,'out')"/>
                <use id="reset" xlink:href="#resetDef" x="30" y="36" onmousedown="handleReset()"/>
                <g id="arrowUp" xlink:href="#dirArrow" transform="translate(30 24)" onmousedown="handlePan(0,-1)">
                  <use xlink:href="#rim" fill="#404040">
                        <set attributeName="fill" to="#808080" begin="arrowUp.mouseover" end="arrowUp.mouseout"/>
                  </use>
                  <path fill="none" stroke="white" stroke-width="1.5" d="M0,-3.0v7 M-2.5,-0.5L0,-3.0L2.5,-0.5"/>
                </g>
                <g id="arrowRight" xlink:href="#dirArrow" transform="rotate(90) translate(36 -43)" onmousedown="handlePan(1,0)">
                  <use xlink:href="#rim" fill="#404040">
                        <set attributeName="fill" to="#808080" begin="arrowRight.mouseover" end="arrowRight.mouseout"/>
                  </use>
                  <path fill="none" stroke="white" stroke-width="1.5" d="M0,-3.0v7 M-2.5,-0.5L0,-3.0L2.5,-0.5"/>
                </g>
                <g id="arrowDown" xlink:href="#dirArrow" transform="rotate(180) translate(-30 -48)" onmousedown="handlePan(0,1)">
                  <use xlink:href="#rim" fill="#404040">
                        <set attributeName="fill" to="#808080" begin="arrowDown.mouseover" end="arrowDown.mouseout"/>
                  </use>
                  <path fill="none" stroke="white" stroke-width="1.5" d="M0,-3.0v7 M-2.5,-0.5L0,-3.0L2.5,-0.5"/>
                </g>
                <g id="arrowLeft" xlink:href="#dirArrow" transform="rotate(270) translate(-36 17)" onmousedown="handlePan(-1,0)">
                  <use xlink:href="#rim" fill="#404040">
                        <set attributeName="fill" to="#808080" begin="arrowLeft.mouseover" end="arrowLeft.mouseout"/>
                  </use>
                  <path fill="none" stroke="white" stroke-width="1.5" d="M0,-3.0v7 M-2.5,-0.5L0,-3.0L2.5,-0.5"/>
                </g>
        </g>
        <svg viewBox="0 0 15 15" width="100%" height="30px" preserveAspectRatio="xMaxYMin meet">
         <g id="arrow_out" transform="scale(0.3 0.3)">
          <a xlink:href="o2sim_8C__incl_org.svg" target="_base">
           <rect id="button" ry="5" rx="5" y="6" x="6" height="38" width="38"
                fill="#f2f5e9" fill-opacity="0.5" stroke="#606060" stroke-width="1.0"/>
           <path id="arrow"
             d="M 11.500037,31.436501 C 11.940474,20.09759 22.043105,11.32322 32.158766,21.979434 L 37.068811,17.246167 C 37.068811,17.246167 37.088388,32 37.088388,32 L 22.160133,31.978069 C 22.160133,31.978069 26.997745,27.140456 26.997745,27.140456 C 18.528582,18.264221 13.291696,25.230495 11.500037,31.436501 z"
             style="fill:#404040;"/>
          </a>
         </g>
        </svg>
</svg>
