<?xml version="1.0" encoding="UTF-8" standalone="no"?>
<!DOCTYPE svg PUBLIC "-//W3C//DTD SVG 1.1//EN"
 "http://www.w3.org/Graphics/SVG/1.1/DTD/svg11.dtd">
<!-- Generated by graphviz version 2.36.0 (20140111.2315)
 -->
<!-- Title: /home/travis/build/AliceO2Group/AliceO2/Framework/Core/include/Framework/InputRecord.h Pages: 1 -->
<!--zoomable 286 -->
<svg id="main" version="1.1" xmlns="http://www.w3.org/2000/svg" xmlns:xlink="http://www.w3.org/1999/xlink" xml:space="preserve" onload="init(evt)">
<style type="text/css"><![CDATA[
.edge:hover path { stroke: red; }
.edge:hover polygon { stroke: red; fill: red; }
]]></style>
<script type="text/javascript"><![CDATA[
var edges = document.getElementsByTagName('g');
if (edges && edges.length) {
  for (var i=0;i<edges.length;i++) {
    if (edges[i].id.substr(0,4)=='edge') {
      edges[i].setAttribute('class','edge');
    }
  }
}
]]></script>
        <defs>
                <circle id="rim" cx="0" cy="0" r="7"/>
                <circle id="rim2" cx="0" cy="0" r="3.5"/>
                <g id="zoomPlus">
                        <use xlink:href="#rim" fill="#404040">
                                <set attributeName="fill" to="#808080" begin="zoomplus.mouseover" end="zoomplus.mouseout"/>
                        </use>
                        <path d="M-4,0h8M0,-4v8" fill="none" stroke="white" stroke-width="1.5" pointer-events="none"/>
                </g>
                <g id="zoomMin">
                        <use xlink:href="#rim" fill="#404040">
                                <set attributeName="fill" to="#808080" begin="zoomminus.mouseover" end="zoomminus.mouseout"/>
                        </use>
                        <path d="M-4,0h8" fill="none" stroke="white" stroke-width="1.5" pointer-events="none"/>
                </g>
                <g id="dirArrow">
                        <path fill="none" stroke="white" stroke-width="1.5" d="M0,-3.0v7 M-2.5,-0.5L0,-3.0L2.5,-0.5"/>
                </g>
               <g id="resetDef">
                       <use xlink:href="#rim2" fill="#404040">
                               <set attributeName="fill" to="#808080" begin="reset.mouseover" end="reset.mouseout"/>
                       </use>
               </g>
        </defs>

<script type="text/javascript">
var viewWidth = 1716;
var viewHeight = 286;
var sectionId = 'dynsection-0';
</script>
<script xlink:href="../../svgpan.js"/>
<svg id="graph" class="graph">
<g id="viewport">
<title>/home/travis/build/AliceO2Group/AliceO2/Framework/Core/include/Framework/InputRecord.h</title>
<!-- Node1 -->
<g id="node1" class="node"><title>Node1</title>
<polygon fill="#bfbfbf" stroke="black" points="1128.5,-225 1128.5,-277 1261.5,-277 1261.5,-225 1128.5,-225"/>
<text text-anchor="start" x="1136.5" y="-265" font-family="Helvetica,sans-Serif" font-size="10.00">/home/travis/build</text>
<text text-anchor="start" x="1136.5" y="-254" font-family="Helvetica,sans-Serif" font-size="10.00">/AliceO2Group/AliceO2</text>
<text text-anchor="start" x="1136.5" y="-243" font-family="Helvetica,sans-Serif" font-size="10.00">/Framework/Core/include</text>
<text text-anchor="middle" x="1195" y="-232" font-family="Helvetica,sans-Serif" font-size="10.00">/Framework/InputRecord.h</text>
</g>
<!-- Node2 -->
<g id="node2" class="node"><title>Node2</title>
<g id="a_node2"><a xlink:href="../../d5/dfb/DataRef_8h.html" target="_top" xlink:title="Framework/DataRef.h">
<polygon fill="none" stroke="black" points="525.5,-112.5 525.5,-131.5 638.5,-131.5 638.5,-112.5 525.5,-112.5"/>
<text text-anchor="middle" x="582" y="-119.5" font-family="Helvetica,sans-Serif" font-size="10.00">Framework/DataRef.h</text>
</a>
</g>
</g>
<!-- Node1&#45;&gt;Node2 -->
<g id="edge1" class="edge"><title>Node1&#45;&gt;Node2</title>
<path fill="none" stroke="midnightblue" d="M1128.2,-240.091C1055.88,-228.984 937.279,-209.668 836,-188 759.796,-171.696 671.915,-148.128 622.059,-134.304"/>
<polygon fill="midnightblue" stroke="midnightblue" points="622.885,-130.9 612.312,-131.591 621.008,-137.644 622.885,-130.9"/>
</g>
<!-- Node3 -->
<g id="node3" class="node"><title>Node3</title>
<g id="a_node3"><a xlink:href="../../d5/db8/DataRefUtils_8h.html" target="_top" xlink:title="Framework/DataRefUtils.h">
<polygon fill="none" stroke="black" points="845,-168.5 845,-187.5 979,-187.5 979,-168.5 845,-168.5"/>
<text text-anchor="middle" x="912" y="-175.5" font-family="Helvetica,sans-Serif" font-size="10.00">Framework/DataRefUtils.h</text>
</a>
</g>
</g>
<!-- Node1&#45;&gt;Node3 -->
<g id="edge2" class="edge"><title>Node1&#45;&gt;Node3</title>
<path fill="none" stroke="midnightblue" d="M1128.29,-233.264C1075.12,-219.924 1002.17,-201.623 956.062,-190.054"/>
<polygon fill="midnightblue" stroke="midnightblue" points="956.632,-186.589 946.081,-187.55 954.929,-193.378 956.632,-186.589"/>
</g>
<!-- Node6 -->
<g id="node6" class="node"><title>Node6</title>
<polygon fill="none" stroke="#bfbfbf" points="155,-0.5 155,-19.5 207,-19.5 207,-0.5 155,-0.5"/>
<text text-anchor="middle" x="181" y="-7.5" font-family="Helvetica,sans-Serif" font-size="10.00">memory</text>
</g>
<!-- Node1&#45;&gt;Node6 -->
<g id="edge48" class="edge"><title>Node1&#45;&gt;Node6</title>
<path fill="none" stroke="midnightblue" d="M1128.18,-249.474C928.945,-247.362 341.391,-237.028 157,-188 102.832,-173.597 85.7766,-169.37 44.0005,-132 16.1437,-107.081 -14.8608,-85.5686 8.0005,-56 24.5985,-34.5322 99.25,-21.3953 144.895,-15.2252"/>
<polygon fill="midnightblue" stroke="midnightblue" points="145.528,-18.6723 154.992,-13.9095 144.624,-11.731 145.528,-18.6723"/>
</g>
<!-- Node7 -->
<g id="node7" class="node"><title>Node7</title>
<polygon fill="none" stroke="#bfbfbf" points="1225.5,-0.5 1225.5,-19.5 1274.5,-19.5 1274.5,-0.5 1225.5,-0.5"/>
<text text-anchor="middle" x="1250" y="-7.5" font-family="Helvetica,sans-Serif" font-size="10.00">cassert</text>
</g>
<!-- Node1&#45;&gt;Node7 -->
<g id="edge46" class="edge"><title>Node1&#45;&gt;Node7</title>
<path fill="none" stroke="midnightblue" d="M1234.62,-224.88C1246.68,-214.994 1258.47,-202.508 1265,-188 1289.11,-134.437 1269.04,-62.597 1257.19,-29.3274"/>
<polygon fill="midnightblue" stroke="midnightblue" points="1260.33,-27.7495 1253.56,-19.6054 1253.77,-30.198 1260.33,-27.7495"/>
</g>
<!-- Node8 -->
<g id="node8" class="node"><title>Node8</title>
<polygon fill="none" stroke="#bfbfbf" points="1431,-0.5 1431,-19.5 1477,-19.5 1477,-0.5 1431,-0.5"/>
<text text-anchor="middle" x="1454" y="-7.5" font-family="Helvetica,sans-Serif" font-size="10.00">cstring</text>
</g>
<!-- Node1&#45;&gt;Node8 -->
<g id="edge45" class="edge"><title>Node1&#45;&gt;Node8</title>
<path fill="none" stroke="midnightblue" d="M1238.03,-224.84C1286.9,-194.549 1366.63,-139.724 1419,-76 1430.8,-61.6392 1440.47,-42.688 1446.63,-28.9567"/>
<polygon fill="midnightblue" stroke="midnightblue" points="1449.9,-30.2058 1450.63,-19.6363 1443.47,-27.4422 1449.9,-30.2058"/>
</g>
<!-- Node10 -->
<g id="node10" class="node"><title>Node10</title>
<g id="a_node10"><a xlink:href="../../d8/d3c/TMessageSerializer_8h.html" target="_top" xlink:title="Framework/TMessageSerializer.h">
<polygon fill="none" stroke="black" points="305.5,-112.5 305.5,-131.5 468.5,-131.5 468.5,-112.5 305.5,-112.5"/>
<text text-anchor="middle" x="387" y="-119.5" font-family="Helvetica,sans-Serif" font-size="10.00">Framework/TMessageSerializer.h</text>
</a>
</g>
</g>
<!-- Node1&#45;&gt;Node10 -->
<g id="edge40" class="edge"><title>Node1&#45;&gt;Node10</title>
<path fill="none" stroke="midnightblue" d="M1128.24,-248.459C974.739,-244.231 600.884,-229.835 483,-188 452.354,-177.124 422.154,-154.087 404.043,-138.57"/>
<polygon fill="midnightblue" stroke="midnightblue" points="405.993,-135.624 396.174,-131.643 401.367,-140.878 405.993,-135.624"/>
</g>
<!-- Node11 -->
<g id="node11" class="node"><title>Node11</title>
<polygon fill="none" stroke="#bfbfbf" points="25.5005,-56.5 25.5005,-75.5 152.5,-75.5 152.5,-56.5 25.5005,-56.5"/>
<text text-anchor="middle" x="89.0005" y="-63.5" font-family="Helvetica,sans-Serif" font-size="10.00">fairmq/FairMQMessage.h</text>
</g>
<!-- Node1&#45;&gt;Node11 -->
<g id="edge39" class="edge"><title>Node1&#45;&gt;Node11</title>
<path fill="none" stroke="midnightblue" d="M1128.31,-250.083C995.709,-249.033 690.183,-240.528 440,-188 316.563,-162.083 176.753,-105.09 117.72,-79.6711"/>
<polygon fill="midnightblue" stroke="midnightblue" points="118.871,-76.3556 108.304,-75.5887 116.086,-82.7779 118.871,-76.3556"/>
</g>
<!-- Node20 -->
<g id="node20" class="node"><title>Node20</title>
<g id="a_node20"><a xlink:href="../../d0/d95/TypeTraits_8h.html" target="_top" xlink:title="Framework/TypeTraits.h">
<polygon fill="none" stroke="black" points="850.5,-56.5 850.5,-75.5 973.5,-75.5 973.5,-56.5 850.5,-56.5"/>
<text text-anchor="middle" x="912" y="-63.5" font-family="Helvetica,sans-Serif" font-size="10.00">Framework/TypeTraits.h</text>
</a>
</g>
</g>
<!-- Node1&#45;&gt;Node20 -->
<g id="edge38" class="edge"><title>Node1&#45;&gt;Node20</title>
<path fill="none" stroke="midnightblue" d="M1128.25,-249.164C972.178,-245.617 590.942,-227.183 516,-132 510.502,-125.016 510.081,-118.631 516,-112 526.655,-100.066 728.661,-81.8837 839.93,-72.7135"/>
<polygon fill="midnightblue" stroke="midnightblue" points="840.397,-76.1871 850.078,-71.8815 839.825,-69.2105 840.397,-76.1871"/>
</g>
<!-- Node21 -->
<g id="node21" class="node"><title>Node21</title>
<polygon fill="none" stroke="#bfbfbf" points="750,-0.5 750,-19.5 812,-19.5 812,-0.5 750,-0.5"/>
<text text-anchor="middle" x="781" y="-7.5" font-family="Helvetica,sans-Serif" font-size="10.00">type_traits</text>
</g>
<!-- Node1&#45;&gt;Node21 -->
<g id="edge49" class="edge"><title>Node1&#45;&gt;Node21</title>
<path fill="none" stroke="midnightblue" d="M1128.43,-250.484C985.896,-250.342 641.178,-243.68 359,-188 201.669,-156.955 110.167,-205.807 16.0005,-76 10.781,-68.8049 9.90244,-62.4673 16.0005,-56 41.0103,-29.4758 584.126,-15.3807 739.7,-11.8775"/>
<polygon fill="midnightblue" stroke="midnightblue" points="739.879,-15.3745 749.799,-11.6528 739.723,-8.37619 739.879,-15.3745"/>
</g>
<!-- Node22 -->
<g id="node22" class="node"><title>Node22</title>
<polygon fill="none" stroke="#bfbfbf" points="1026,-0.5 1026,-19.5 1070,-19.5 1070,-0.5 1026,-0.5"/>
<text text-anchor="middle" x="1048" y="-7.5" font-family="Helvetica,sans-Serif" font-size="10.00">vector</text>
</g>
<!-- Node1&#45;&gt;Node22 -->
<g id="edge44" class="edge"><title>Node1&#45;&gt;Node22</title>
<path fill="none" stroke="midnightblue" d="M1212.33,-224.989C1230.03,-196.059 1252.15,-147.822 1231,-112 1198.3,-56.5973 1123.12,-29.4913 1079.99,-18.0604"/>
<polygon fill="midnightblue" stroke="midnightblue" points="1080.82,-14.6613 1070.27,-15.6069 1079.11,-21.4483 1080.82,-14.6613"/>
</g>
<!-- Node23 -->
<g id="node23" class="node"><title>Node23</title>
<polygon fill="none" stroke="#bfbfbf" points="1167,-112.5 1167,-131.5 1223,-131.5 1223,-112.5 1167,-112.5"/>
<text text-anchor="middle" x="1195" y="-119.5" font-family="Helvetica,sans-Serif" font-size="10.00">TClass.h</text>
</g>
<!-- Node1&#45;&gt;Node23 -->
<g id="edge41" class="edge"><title>Node1&#45;&gt;Node23</title>
<path fill="none" stroke="midnightblue" d="M1195,-224.909C1195,-200.409 1195,-163.69 1195,-141.664"/>
<polygon fill="midnightblue" stroke="midnightblue" points="1198.5,-141.628 1195,-131.628 1191.5,-141.628 1198.5,-141.628"/>
</g>
<!-- Node27 -->
<g id="node27" class="node"><title>Node27</title>
<g id="a_node27"><a xlink:href="../../d5/d19/InputRoute_8h.html" target="_top" xlink:title="Framework/InputRoute.h">
<polygon fill="none" stroke="black" points="1416.5,-168.5 1416.5,-187.5 1541.5,-187.5 1541.5,-168.5 1416.5,-168.5"/>
<text text-anchor="middle" x="1479" y="-175.5" font-family="Helvetica,sans-Serif" font-size="10.00">Framework/InputRoute.h</text>
</a>
</g>
</g>
<!-- Node1&#45;&gt;Node27 -->
<g id="edge30" class="edge"><title>Node1&#45;&gt;Node27</title>
<path fill="none" stroke="midnightblue" d="M1261.59,-233.354C1315.05,-219.989 1388.59,-201.602 1434.96,-190.01"/>
<polygon fill="midnightblue" stroke="midnightblue" points="1435.86,-193.393 1444.71,-187.573 1434.16,-186.602 1435.86,-193.393"/>
</g>
<!-- Node29 -->
<g id="node29" class="node"><title>Node29</title>
<polygon fill="none" stroke="#bfbfbf" points="1467.5,-56.5 1467.5,-75.5 1508.5,-75.5 1508.5,-56.5 1467.5,-56.5"/>
<text text-anchor="middle" x="1488" y="-63.5" font-family="Helvetica,sans-Serif" font-size="10.00">string</text>
</g>
<!-- Node1&#45;&gt;Node29 -->
<g id="edge43" class="edge"><title>Node1&#45;&gt;Node29</title>
<path fill="none" stroke="midnightblue" d="M1261.53,-233.028C1294.01,-222.938 1332.73,-208.126 1364,-188 1403.91,-162.319 1404.85,-144.948 1439,-112 1449.29,-102.076 1461.08,-91.2314 1470.52,-82.6749"/>
<polygon fill="midnightblue" stroke="midnightblue" points="1473.03,-85.1231 1478.11,-75.8253 1468.34,-79.9261 1473.03,-85.1231"/>
</g>
<!-- Node33 -->
<g id="node33" class="node"><title>Node33</title>
<polygon fill="none" stroke="#bfbfbf" points="1559.5,-168.5 1559.5,-187.5 1606.5,-187.5 1606.5,-168.5 1559.5,-168.5"/>
<text text-anchor="middle" x="1583" y="-175.5" font-family="Helvetica,sans-Serif" font-size="10.00">iterator</text>
</g>
<!-- Node1&#45;&gt;Node33 -->
<g id="edge42" class="edge"><title>Node1&#45;&gt;Node33</title>
<path fill="none" stroke="midnightblue" d="M1261.78,-240.243C1331.24,-229.663 1443.28,-211.395 1549.36,-187.965"/>
<polygon fill="midnightblue" stroke="midnightblue" points="1550.27,-191.347 1559.27,-185.755 1548.75,-184.514 1550.27,-191.347"/>
</g>
<!-- Node34 -->
<g id="node34" class="node"><title>Node34</title>
<polygon fill="none" stroke="#bfbfbf" points="1624.5,-168.5 1624.5,-187.5 1683.5,-187.5 1683.5,-168.5 1624.5,-168.5"/>
<text text-anchor="middle" x="1654" y="-175.5" font-family="Helvetica,sans-Serif" font-size="10.00">exception</text>
</g>
<!-- Node1&#45;&gt;Node34 -->
<g id="edge47" class="edge"><title>Node1&#45;&gt;Node34</title>
<path fill="none" stroke="midnightblue" d="M1261.84,-241.816C1342.82,-231.523 1483.6,-212.428 1614.07,-188.043"/>
<polygon fill="midnightblue" stroke="midnightblue" points="1615.06,-191.417 1624.24,-186.126 1613.77,-184.538 1615.06,-191.417"/>
</g>
<!-- Node3&#45;&gt;Node2 -->
<g id="edge3" class="edge"><title>Node3&#45;&gt;Node2</title>
<path fill="none" stroke="midnightblue" d="M859.711,-168.444C801.178,-158.865 706.396,-143.356 644.13,-133.167"/>
<polygon fill="midnightblue" stroke="midnightblue" points="644.479,-129.677 634.045,-131.516 643.349,-136.585 644.479,-129.677"/>
</g>
<!-- Node4 -->
<g id="node4" class="node"><title>Node4</title>
<g id="a_node4"><a xlink:href="../../dc/dcd/DataHeader_8h.html" target="_top" xlink:title="Headers/DataHeader.h">
<polygon fill="none" stroke="black" points="1293.5,-56.5 1293.5,-75.5 1410.5,-75.5 1410.5,-56.5 1293.5,-56.5"/>
<text text-anchor="middle" x="1352" y="-63.5" font-family="Helvetica,sans-Serif" font-size="10.00">Headers/DataHeader.h</text>
</a>
</g>
</g>
<!-- Node3&#45;&gt;Node4 -->
<g id="edge4" class="edge"><title>Node3&#45;&gt;Node4</title>
<path fill="none" stroke="midnightblue" d="M970.682,-168.426C1012.76,-161.277 1070.36,-149.424 1119,-132 1137.34,-125.431 1139.71,-118.696 1158,-112 1200.77,-96.3447 1250.89,-84.8858 1289.47,-77.4498"/>
<polygon fill="midnightblue" stroke="midnightblue" points="1290.35,-80.8463 1299.53,-75.5526 1289.05,-73.9678 1290.35,-80.8463"/>
</g>
<!-- Node3&#45;&gt;Node10 -->
<g id="edge10" class="edge"><title>Node3&#45;&gt;Node10</title>
<path fill="none" stroke="midnightblue" d="M844.976,-170.106C752.011,-160.544 583.585,-143.22 478.937,-132.456"/>
<polygon fill="midnightblue" stroke="midnightblue" points="479.006,-128.945 468.7,-131.403 478.29,-135.908 479.006,-128.945"/>
</g>
<!-- Node19 -->
<g id="node19" class="node"><title>Node19</title>
<g id="a_node19"><a xlink:href="../../d1/d53/SerializationMethods_8h.html" target="_top" xlink:title="Type wrappers for enfording a specific serialization method. ">
<polygon fill="none" stroke="black" points="828.5,-112.5 828.5,-131.5 995.5,-131.5 995.5,-112.5 828.5,-112.5"/>
<text text-anchor="middle" x="912" y="-119.5" font-family="Helvetica,sans-Serif" font-size="10.00">Framework/SerializationMethods.h</text>
</a>
</g>
</g>
<!-- Node3&#45;&gt;Node19 -->
<g id="edge20" class="edge"><title>Node3&#45;&gt;Node19</title>
<path fill="none" stroke="midnightblue" d="M912,-168.083C912,-161.006 912,-150.861 912,-141.986"/>
<polygon fill="midnightblue" stroke="midnightblue" points="915.501,-141.751 912,-131.751 908.501,-141.751 915.501,-141.751"/>
</g>
<!-- Node3&#45;&gt;Node20 -->
<g id="edge24" class="edge"><title>Node3&#45;&gt;Node20</title>
<path fill="none" stroke="midnightblue" d="M945.386,-168.484C978.189,-158.348 1021.03,-139.292 1004,-112 994.243,-96.3644 977.303,-86.013 960.598,-79.2301"/>
<polygon fill="midnightblue" stroke="midnightblue" points="961.439,-75.8098 950.846,-75.6357 959.018,-82.378 961.439,-75.8098"/>
</g>
<!-- Node3&#45;&gt;Node21 -->
<g id="edge28" class="edge"><title>Node3&#45;&gt;Node21</title>
<path fill="none" stroke="midnightblue" d="M848.287,-168.488C785.137,-159.4 696.342,-144.603 686,-132 651.828,-90.3524 726.869,-115.638 761,-76 772.186,-63.0101 777.117,-43.8473 779.29,-29.6916"/>
<polygon fill="midnightblue" stroke="midnightblue" points="782.781,-29.9742 780.508,-19.626 775.832,-29.133 782.781,-29.9742"/>
</g>
<!-- Node3&#45;&gt;Node23 -->
<g id="edge25" class="edge"><title>Node3&#45;&gt;Node23</title>
<path fill="none" stroke="midnightblue" d="M959.629,-168.491C1008.3,-159.706 1086.02,-145.428 1153,-132 1154.23,-131.753 1155.49,-131.499 1156.75,-131.24"/>
<polygon fill="midnightblue" stroke="midnightblue" points="1157.48,-134.665 1166.56,-129.202 1156.05,-127.811 1157.48,-134.665"/>
</g>
<!-- Node24 -->
<g id="node24" class="node"><title>Node24</title>
<polygon fill="none" stroke="#bfbfbf" points="1051.5,-112.5 1051.5,-131.5 1110.5,-131.5 1110.5,-112.5 1051.5,-112.5"/>
<text text-anchor="middle" x="1081" y="-119.5" font-family="Helvetica,sans-Serif" font-size="10.00">stdexcept</text>
</g>
<!-- Node3&#45;&gt;Node24 -->
<g id="edge26" class="edge"><title>Node3&#45;&gt;Node24</title>
<path fill="none" stroke="midnightblue" d="M938.779,-168.444C967.334,-159.32 1012.73,-144.813 1044.54,-134.651"/>
<polygon fill="midnightblue" stroke="midnightblue" points="1045.89,-137.894 1054.35,-131.516 1043.76,-131.226 1045.89,-137.894"/>
</g>
<!-- Node25 -->
<g id="node25" class="node"><title>Node25</title>
<polygon fill="none" stroke="#bfbfbf" points="695,-112.5 695,-131.5 747,-131.5 747,-112.5 695,-112.5"/>
<text text-anchor="middle" x="721" y="-119.5" font-family="Helvetica,sans-Serif" font-size="10.00">sstream</text>
</g>
<!-- Node3&#45;&gt;Node25 -->
<g id="edge27" class="edge"><title>Node3&#45;&gt;Node25</title>
<path fill="none" stroke="midnightblue" d="M881.736,-168.444C847.795,-158.848 792.797,-143.298 756.761,-133.11"/>
<polygon fill="midnightblue" stroke="midnightblue" points="757.709,-129.741 747.134,-130.388 755.804,-136.477 757.709,-129.741"/>
</g>
<!-- Node26 -->
<g id="node26" class="node"><title>Node26</title>
<polygon fill="none" stroke="#bfbfbf" points="765.5,-112.5 765.5,-131.5 810.5,-131.5 810.5,-112.5 765.5,-112.5"/>
<text text-anchor="middle" x="788" y="-119.5" font-family="Helvetica,sans-Serif" font-size="10.00">gsl/gsl</text>
</g>
<!-- Node3&#45;&gt;Node26 -->
<g id="edge29" class="edge"><title>Node3&#45;&gt;Node26</title>
<path fill="none" stroke="midnightblue" d="M892.352,-168.444C872.036,-159.596 840.098,-145.687 816.903,-135.586"/>
<polygon fill="midnightblue" stroke="midnightblue" points="818.123,-132.3 807.557,-131.516 815.328,-138.718 818.123,-132.3"/>
</g>
<!-- Node5 -->
<g id="node5" class="node"><title>Node5</title>
<polygon fill="none" stroke="#bfbfbf" points="1367,-0.5 1367,-19.5 1413,-19.5 1413,-0.5 1367,-0.5"/>
<text text-anchor="middle" x="1390" y="-7.5" font-family="Helvetica,sans-Serif" font-size="10.00">cstdint</text>
</g>
<!-- Node4&#45;&gt;Node5 -->
<g id="edge5" class="edge"><title>Node4&#45;&gt;Node5</title>
<path fill="none" stroke="midnightblue" d="M1358.28,-56.083C1363.64,-48.4554 1371.52,-37.2645 1378.08,-27.9408"/>
<polygon fill="midnightblue" stroke="midnightblue" points="1380.95,-29.9434 1383.84,-19.7511 1375.23,-25.9149 1380.95,-29.9434"/>
</g>
<!-- Node4&#45;&gt;Node6 -->
<g id="edge6" class="edge"><title>Node4&#45;&gt;Node6</title>
<path fill="none" stroke="midnightblue" d="M1293.13,-62.2851C1084.72,-52.6745 385.475,-20.4292 217.505,-12.6834"/>
<polygon fill="midnightblue" stroke="midnightblue" points="217.592,-9.18375 207.441,-12.2193 217.269,-16.1763 217.592,-9.18375"/>
</g>
<!-- Node4&#45;&gt;Node7 -->
<g id="edge7" class="edge"><title>Node4&#45;&gt;Node7</title>
<path fill="none" stroke="midnightblue" d="M1335.61,-56.324C1319.33,-47.7034 1294.13,-34.3643 1275.28,-24.3855"/>
<polygon fill="midnightblue" stroke="midnightblue" points="1276.82,-21.2402 1266.35,-19.6545 1273.55,-27.4267 1276.82,-21.2402"/>
</g>
<!-- Node4&#45;&gt;Node8 -->
<g id="edge8" class="edge"><title>Node4&#45;&gt;Node8</title>
<path fill="none" stroke="midnightblue" d="M1368.39,-56.324C1384.67,-47.7034 1409.87,-34.3643 1428.72,-24.3855"/>
<polygon fill="midnightblue" stroke="midnightblue" points="1430.45,-27.4267 1437.65,-19.6545 1427.18,-21.2402 1430.45,-27.4267"/>
</g>
<!-- Node9 -->
<g id="node9" class="node"><title>Node9</title>
<polygon fill="none" stroke="#bfbfbf" points="1293,-0.5 1293,-19.5 1349,-19.5 1349,-0.5 1293,-0.5"/>
<text text-anchor="middle" x="1321" y="-7.5" font-family="Helvetica,sans-Serif" font-size="10.00">algorithm</text>
</g>
<!-- Node4&#45;&gt;Node9 -->
<g id="edge9" class="edge"><title>Node4&#45;&gt;Node9</title>
<path fill="none" stroke="midnightblue" d="M1346.88,-56.083C1342.59,-48.6127 1336.34,-37.7244 1331.06,-28.5199"/>
<polygon fill="midnightblue" stroke="midnightblue" points="1334.04,-26.6811 1326.02,-19.7511 1327.97,-30.1662 1334.04,-26.6811"/>
</g>
<!-- Node10&#45;&gt;Node6 -->
<g id="edge18" class="edge"><title>Node10&#45;&gt;Node6</title>
<path fill="none" stroke="midnightblue" d="M322.386,-112.452C275.59,-105.004 217.587,-92.7583 200,-76 187.509,-64.0965 183.095,-44.4777 181.603,-29.9023"/>
<polygon fill="midnightblue" stroke="midnightblue" points="185.071,-29.2921 180.934,-19.5382 178.086,-29.7429 185.071,-29.2921"/>
</g>
<!-- Node10&#45;&gt;Node11 -->
<g id="edge11" class="edge"><title>Node10&#45;&gt;Node11</title>
<path fill="none" stroke="midnightblue" d="M339.782,-112.444C287.251,-102.925 202.391,-87.5472 146.152,-77.3563"/>
<polygon fill="midnightblue" stroke="midnightblue" points="146.462,-73.8556 135.999,-75.5164 145.214,-80.7435 146.462,-73.8556"/>
</g>
<!-- Node12 -->
<g id="node12" class="node"><title>Node12</title>
<polygon fill="none" stroke="#bfbfbf" points="705.5,-56.5 705.5,-75.5 752.5,-75.5 752.5,-56.5 705.5,-56.5"/>
<text text-anchor="middle" x="729" y="-63.5" font-family="Helvetica,sans-Serif" font-size="10.00">TList.h</text>
</g>
<!-- Node10&#45;&gt;Node12 -->
<g id="edge12" class="edge"><title>Node10&#45;&gt;Node12</title>
<path fill="none" stroke="midnightblue" d="M461.785,-112.49C524.414,-104.786 615.985,-92.1757 695,-76 695.105,-75.9786 695.21,-75.957 695.315,-75.9353"/>
<polygon fill="midnightblue" stroke="midnightblue" points="696.341,-79.2909 705.303,-73.6407 694.774,-72.4686 696.341,-79.2909"/>
</g>
<!-- Node13 -->
<g id="node13" class="node"><title>Node13</title>
<polygon fill="none" stroke="#bfbfbf" points="209.5,-56.5 209.5,-75.5 280.5,-75.5 280.5,-56.5 209.5,-56.5"/>
<text text-anchor="middle" x="245" y="-63.5" font-family="Helvetica,sans-Serif" font-size="10.00">TMessage.h</text>
</g>
<!-- Node10&#45;&gt;Node13 -->
<g id="edge13" class="edge"><title>Node10&#45;&gt;Node13</title>
<path fill="none" stroke="midnightblue" d="M364.5,-112.444C340.923,-103.478 303.678,-89.314 277.036,-79.1827"/>
<polygon fill="midnightblue" stroke="midnightblue" points="277.987,-75.7995 267.396,-75.5164 275.498,-82.3424 277.987,-75.7995"/>
</g>
<!-- Node14 -->
<g id="node14" class="node"><title>Node14</title>
<polygon fill="none" stroke="#bfbfbf" points="298.5,-56.5 298.5,-75.5 367.5,-75.5 367.5,-56.5 298.5,-56.5"/>
<text text-anchor="middle" x="333" y="-63.5" font-family="Helvetica,sans-Serif" font-size="10.00">TObjArray.h</text>
</g>
<!-- Node10&#45;&gt;Node14 -->
<g id="edge14" class="edge"><title>Node10&#45;&gt;Node14</title>
<path fill="none" stroke="midnightblue" d="M378.083,-112.083C370.22,-104.22 358.569,-92.5688 349.082,-83.0813"/>
<polygon fill="midnightblue" stroke="midnightblue" points="351.298,-80.3473 341.752,-75.7511 346.348,-85.2971 351.298,-80.3473"/>
</g>
<!-- Node15 -->
<g id="node15" class="node"><title>Node15</title>
<polygon fill="none" stroke="#bfbfbf" points="385.5,-56.5 385.5,-75.5 472.5,-75.5 472.5,-56.5 385.5,-56.5"/>
<text text-anchor="middle" x="429" y="-63.5" font-family="Helvetica,sans-Serif" font-size="10.00">TStreamerInfo.h</text>
</g>
<!-- Node10&#45;&gt;Node15 -->
<g id="edge15" class="edge"><title>Node10&#45;&gt;Node15</title>
<path fill="none" stroke="midnightblue" d="M393.936,-112.083C399.93,-104.377 408.752,-93.0333 416.048,-83.6531"/>
<polygon fill="midnightblue" stroke="midnightblue" points="418.817,-85.7934 422.194,-75.7511 413.292,-81.4958 418.817,-85.7934"/>
</g>
<!-- Node16 -->
<g id="node16" class="node"><title>Node16</title>
<polygon fill="none" stroke="#bfbfbf" points="490.5,-56.5 490.5,-75.5 553.5,-75.5 553.5,-56.5 490.5,-56.5"/>
<text text-anchor="middle" x="522" y="-63.5" font-family="Helvetica,sans-Serif" font-size="10.00">gsl/gsl_util</text>
</g>
<!-- Node10&#45;&gt;Node16 -->
<g id="edge16" class="edge"><title>Node10&#45;&gt;Node16</title>
<path fill="none" stroke="midnightblue" d="M408.392,-112.444C430.708,-103.517 465.904,-89.4387 491.208,-79.3168"/>
<polygon fill="midnightblue" stroke="midnightblue" points="492.725,-82.4801 500.709,-75.5164 490.125,-75.9807 492.725,-82.4801"/>
</g>
<!-- Node17 -->
<g id="node17" class="node"><title>Node17</title>
<polygon fill="none" stroke="#bfbfbf" points="571.5,-56.5 571.5,-75.5 624.5,-75.5 624.5,-56.5 571.5,-56.5"/>
<text text-anchor="middle" x="598" y="-63.5" font-family="Helvetica,sans-Serif" font-size="10.00">gsl/span</text>
</g>
<!-- Node10&#45;&gt;Node17 -->
<g id="edge17" class="edge"><title>Node10&#45;&gt;Node17</title>
<path fill="none" stroke="midnightblue" d="M420.434,-112.444C458.917,-102.595 521.907,-86.4742 561.6,-76.3159"/>
<polygon fill="midnightblue" stroke="midnightblue" points="562.584,-79.6768 571.404,-73.8067 560.849,-72.8953 562.584,-79.6768"/>
</g>
<!-- Node18 -->
<g id="node18" class="node"><title>Node18</title>
<polygon fill="none" stroke="#bfbfbf" points="643,-56.5 643,-75.5 687,-75.5 687,-56.5 643,-56.5"/>
<text text-anchor="middle" x="665" y="-63.5" font-family="Helvetica,sans-Serif" font-size="10.00">mutex</text>
</g>
<!-- Node10&#45;&gt;Node18 -->
<g id="edge19" class="edge"><title>Node10&#45;&gt;Node18</title>
<path fill="none" stroke="midnightblue" d="M442.017,-112.445C489.823,-104.67 561.104,-92.2609 632.602,-75.8967"/>
<polygon fill="midnightblue" stroke="midnightblue" points="633.736,-79.2267 642.689,-73.5615 632.158,-72.407 633.736,-79.2267"/>
</g>
<!-- Node19&#45;&gt;Node20 -->
<g id="edge21" class="edge"><title>Node19&#45;&gt;Node20</title>
<path fill="none" stroke="midnightblue" d="M912,-112.083C912,-105.006 912,-94.8611 912,-85.9865"/>
<polygon fill="midnightblue" stroke="midnightblue" points="915.501,-85.751 912,-75.7511 908.501,-85.7511 915.501,-85.751"/>
</g>
<!-- Node20&#45;&gt;Node21 -->
<g id="edge22" class="edge"><title>Node20&#45;&gt;Node21</title>
<path fill="none" stroke="midnightblue" d="M891.243,-56.4435C869.684,-47.5566 835.737,-33.5632 811.207,-23.4514"/>
<polygon fill="midnightblue" stroke="midnightblue" points="812.24,-20.0917 801.661,-19.5164 809.572,-26.5634 812.24,-20.0917"/>
</g>
<!-- Node20&#45;&gt;Node22 -->
<g id="edge23" class="edge"><title>Node20&#45;&gt;Node22</title>
<path fill="none" stroke="midnightblue" d="M933.55,-56.4435C956.032,-47.5171 991.488,-33.4387 1016.98,-23.3168"/>
<polygon fill="midnightblue" stroke="midnightblue" points="1018.55,-26.4598 1026.55,-19.5164 1015.97,-19.9539 1018.55,-26.4598"/>
</g>
<!-- Node28 -->
<g id="node28" class="node"><title>Node28</title>
<g id="a_node28"><a xlink:href="../../d5/d3f/InputSpec_8h.html" target="_top" xlink:title="Framework/InputSpec.h">
<polygon fill="none" stroke="black" points="1521.5,-112.5 1521.5,-131.5 1642.5,-131.5 1642.5,-112.5 1521.5,-112.5"/>
<text text-anchor="middle" x="1582" y="-119.5" font-family="Helvetica,sans-Serif" font-size="10.00">Framework/InputSpec.h</text>
</a>
</g>
</g>
<!-- Node27&#45;&gt;Node28 -->
<g id="edge31" class="edge"><title>Node27&#45;&gt;Node28</title>
<path fill="none" stroke="midnightblue" d="M1495.55,-168.324C1511.99,-159.703 1537.44,-146.364 1556.47,-136.386"/>
<polygon fill="midnightblue" stroke="midnightblue" points="1558.26,-139.398 1565.49,-131.655 1555.01,-133.198 1558.26,-139.398"/>
</g>
<!-- Node27&#45;&gt;Node29 -->
<g id="edge37" class="edge"><title>Node27&#45;&gt;Node29</title>
<path fill="none" stroke="midnightblue" d="M1469.11,-168.434C1456.3,-156.246 1436.56,-133.04 1445,-112 1449.68,-100.328 1458.99,-89.9687 1467.76,-82.1405"/>
<polygon fill="midnightblue" stroke="midnightblue" points="1470.05,-84.7832 1475.5,-75.698 1465.58,-79.4011 1470.05,-84.7832"/>
</g>
<!-- Node32 -->
<g id="node32" class="node"><title>Node32</title>
<polygon fill="none" stroke="#bfbfbf" points="1454.5,-112.5 1454.5,-131.5 1503.5,-131.5 1503.5,-112.5 1454.5,-112.5"/>
<text text-anchor="middle" x="1479" y="-119.5" font-family="Helvetica,sans-Serif" font-size="10.00">cstddef</text>
</g>
<!-- Node27&#45;&gt;Node32 -->
<g id="edge36" class="edge"><title>Node27&#45;&gt;Node32</title>
<path fill="none" stroke="midnightblue" d="M1479,-168.083C1479,-161.006 1479,-150.861 1479,-141.986"/>
<polygon fill="midnightblue" stroke="midnightblue" points="1482.5,-141.751 1479,-131.751 1475.5,-141.751 1482.5,-141.751"/>
</g>
<!-- Node28&#45;&gt;Node4 -->
<g id="edge35" class="edge"><title>Node28&#45;&gt;Node4</title>
<path fill="none" stroke="midnightblue" d="M1545.56,-112.444C1505.6,-103.063 1441.41,-87.9926 1398.02,-77.8036"/>
<polygon fill="midnightblue" stroke="midnightblue" points="1398.81,-74.3948 1388.27,-75.5164 1397.21,-81.2095 1398.81,-74.3948"/>
</g>
<!-- Node28&#45;&gt;Node29 -->
<g id="edge32" class="edge"><title>Node28&#45;&gt;Node29</title>
<path fill="none" stroke="midnightblue" d="M1566.9,-112.324C1552.1,-103.822 1529.31,-90.7288 1512.02,-80.7975"/>
<polygon fill="midnightblue" stroke="midnightblue" points="1513.48,-77.6009 1503.07,-75.6545 1509.99,-83.6707 1513.48,-77.6009"/>
</g>
<!-- Node30 -->
<g id="node30" class="node"><title>Node30</title>
<polygon fill="none" stroke="#bfbfbf" points="1656,-56.5 1656,-75.5 1708,-75.5 1708,-56.5 1656,-56.5"/>
<text text-anchor="middle" x="1682" y="-63.5" font-family="Helvetica,sans-Serif" font-size="10.00">ostream</text>
</g>
<!-- Node28&#45;&gt;Node30 -->
<g id="edge33" class="edge"><title>Node28&#45;&gt;Node30</title>
<path fill="none" stroke="midnightblue" d="M1598.07,-112.324C1613.96,-103.743 1638.51,-90.486 1656.96,-80.5224"/>
<polygon fill="midnightblue" stroke="midnightblue" points="1658.84,-83.4857 1665.97,-75.6545 1655.51,-77.3264 1658.84,-83.4857"/>
</g>
<!-- Node31 -->
<g id="node31" class="node"><title>Node31</title>
<g id="a_node31"><a xlink:href="../../dc/dca/Lifetime_8h.html" target="_top" xlink:title="Framework/Lifetime.h">
<polygon fill="none" stroke="black" points="1526.5,-56.5 1526.5,-75.5 1637.5,-75.5 1637.5,-56.5 1526.5,-56.5"/>
<text text-anchor="middle" x="1582" y="-63.5" font-family="Helvetica,sans-Serif" font-size="10.00">Framework/Lifetime.h</text>
</a>
</g>
</g>
<!-- Node28&#45;&gt;Node31 -->
<g id="edge34" class="edge"><title>Node28&#45;&gt;Node31</title>
<path fill="none" stroke="midnightblue" d="M1582,-112.083C1582,-105.006 1582,-94.8611 1582,-85.9865"/>
<polygon fill="midnightblue" stroke="midnightblue" points="1585.5,-85.751 1582,-75.7511 1578.5,-85.7511 1585.5,-85.751"/>
</g>
</g>
</svg>
        <g id="navigator" transform="translate(0 0)" fill="#404254">
                <rect fill="#f2f5e9" fill-opacity="0.5" stroke="#606060" stroke-width=".5" x="0" y="0" width="60" height="60"/>
                <use id="zoomplus" xlink:href="#zoomPlus" x="17" y="9" onmousedown="handleZoom(evt,'in')"/>
                <use id="zoomminus" xlink:href="#zoomMin" x="42" y="9" onmousedown="handleZoom(evt,'out')"/>
                <use id="reset" xlink:href="#resetDef" x="30" y="36" onmousedown="handleReset()"/>
                <g id="arrowUp" xlink:href="#dirArrow" transform="translate(30 24)" onmousedown="handlePan(0,-1)">
                  <use xlink:href="#rim" fill="#404040">
                        <set attributeName="fill" to="#808080" begin="arrowUp.mouseover" end="arrowUp.mouseout"/>
                  </use>
                  <path fill="none" stroke="white" stroke-width="1.5" d="M0,-3.0v7 M-2.5,-0.5L0,-3.0L2.5,-0.5"/>
                </g>
                <g id="arrowRight" xlink:href="#dirArrow" transform="rotate(90) translate(36 -43)" onmousedown="handlePan(1,0)">
                  <use xlink:href="#rim" fill="#404040">
                        <set attributeName="fill" to="#808080" begin="arrowRight.mouseover" end="arrowRight.mouseout"/>
                  </use>
                  <path fill="none" stroke="white" stroke-width="1.5" d="M0,-3.0v7 M-2.5,-0.5L0,-3.0L2.5,-0.5"/>
                </g>
                <g id="arrowDown" xlink:href="#dirArrow" transform="rotate(180) translate(-30 -48)" onmousedown="handlePan(0,1)">
                  <use xlink:href="#rim" fill="#404040">
                        <set attributeName="fill" to="#808080" begin="arrowDown.mouseover" end="arrowDown.mouseout"/>
                  </use>
                  <path fill="none" stroke="white" stroke-width="1.5" d="M0,-3.0v7 M-2.5,-0.5L0,-3.0L2.5,-0.5"/>
                </g>
                <g id="arrowLeft" xlink:href="#dirArrow" transform="rotate(270) translate(-36 17)" onmousedown="handlePan(-1,0)">
                  <use xlink:href="#rim" fill="#404040">
                        <set attributeName="fill" to="#808080" begin="arrowLeft.mouseover" end="arrowLeft.mouseout"/>
                  </use>
                  <path fill="none" stroke="white" stroke-width="1.5" d="M0,-3.0v7 M-2.5,-0.5L0,-3.0L2.5,-0.5"/>
                </g>
        </g>
        <svg viewBox="0 0 15 15" width="100%" height="30px" preserveAspectRatio="xMaxYMin meet">
         <g id="arrow_out" transform="scale(0.3 0.3)">
          <a xlink:href="InputRecord_8h__incl_org.svg" target="_base">
           <rect id="button" ry="5" rx="5" y="6" x="6" height="38" width="38"
                fill="#f2f5e9" fill-opacity="0.5" stroke="#606060" stroke-width="1.0"/>
           <path id="arrow"
             d="M 11.500037,31.436501 C 11.940474,20.09759 22.043105,11.32322 32.158766,21.979434 L 37.068811,17.246167 C 37.068811,17.246167 37.088388,32 37.088388,32 L 22.160133,31.978069 C 22.160133,31.978069 26.997745,27.140456 26.997745,27.140456 C 18.528582,18.264221 13.291696,25.230495 11.500037,31.436501 z"
             style="fill:#404040;"/>
          </a>
         </g>
        </svg>
</svg>
