<?xml version="1.0" encoding="UTF-8" standalone="no"?>
<!DOCTYPE svg PUBLIC "-//W3C//DTD SVG 1.1//EN"
 "http://www.w3.org/Graphics/SVG/1.1/DTD/svg11.dtd">
<!-- Generated by graphviz version 2.36.0 (20140111.2315)
 -->
<!-- Title: /home/travis/build/AliceO2Group/AliceO2/Detectors/TPC/reconstruction/include/TPCReconstruction/Clusterer.h Pages: 1 -->
<svg width="976pt" height="440pt"
 viewBox="0.00 0.00 976.00 440.00" xmlns="http://www.w3.org/2000/svg" xmlns:xlink="http://www.w3.org/1999/xlink">
<g id="graph0" class="graph" transform="scale(1 1) rotate(0) translate(4 436)">
<title>/home/travis/build/AliceO2Group/AliceO2/Detectors/TPC/reconstruction/include/TPCReconstruction/Clusterer.h</title>
<!-- Node1 -->
<g id="node1" class="node"><title>Node1</title>
<polygon fill="#bfbfbf" stroke="black" points="271,-368.5 271,-431.5 421,-431.5 421,-368.5 271,-368.5"/>
<text text-anchor="start" x="279" y="-419.5" font-family="Helvetica,sans-Serif" font-size="10.00">/home/travis/build</text>
<text text-anchor="start" x="279" y="-408.5" font-family="Helvetica,sans-Serif" font-size="10.00">/AliceO2Group/AliceO2</text>
<text text-anchor="start" x="279" y="-397.5" font-family="Helvetica,sans-Serif" font-size="10.00">/Detectors/TPC/reconstruction</text>
<text text-anchor="start" x="279" y="-386.5" font-family="Helvetica,sans-Serif" font-size="10.00">/include/TPCReconstruction</text>
<text text-anchor="middle" x="346" y="-375.5" font-family="Helvetica,sans-Serif" font-size="10.00">/Clusterer.h</text>
</g>
<!-- Node2 -->
<g id="node2" class="node"><title>Node2</title>
<g id="a_node2"><a xlink:href="../../d2/df8/BoxClusterer_8h.html" target="_top" xlink:title="Class for TPC cluster finding. ">
<polygon fill="none" stroke="black" points="168,-268.5 168,-331.5 318,-331.5 318,-268.5 168,-268.5"/>
<text text-anchor="start" x="176" y="-319.5" font-family="Helvetica,sans-Serif" font-size="10.00">/home/travis/build</text>
<text text-anchor="start" x="176" y="-308.5" font-family="Helvetica,sans-Serif" font-size="10.00">/AliceO2Group/AliceO2</text>
<text text-anchor="start" x="176" y="-297.5" font-family="Helvetica,sans-Serif" font-size="10.00">/Detectors/TPC/reconstruction</text>
<text text-anchor="start" x="176" y="-286.5" font-family="Helvetica,sans-Serif" font-size="10.00">/include/TPCReconstruction</text>
<text text-anchor="middle" x="243" y="-275.5" font-family="Helvetica,sans-Serif" font-size="10.00">/BoxClusterer.h</text>
</a>
</g>
</g>
<!-- Node1&#45;&gt;Node2 -->
<g id="edge1" class="edge"><title>Node1&#45;&gt;Node2</title>
<path fill="none" stroke="midnightblue" d="M306.334,-361.259C296.03,-351.456 285.059,-341.017 275.193,-331.63"/>
<polygon fill="midnightblue" stroke="midnightblue" points="304.035,-363.904 313.693,-368.261 308.861,-358.832 304.035,-363.904"/>
</g>
<!-- Node3 -->
<g id="node3" class="node"><title>Node3</title>
<g id="a_node3"><a xlink:href="../../de/d64/TPC_2reconstruction_2include_2TPCReconstruction_2ClustererTask_8h.html" target="_top" xlink:title="/home/travis/build\l/AliceO2Group/AliceO2\l/Detectors/TPC/reconstruction\l/include/TPCReconstruction\l/ClustererTask.h">
<polygon fill="none" stroke="black" points="168,-168.5 168,-231.5 318,-231.5 318,-168.5 168,-168.5"/>
<text text-anchor="start" x="176" y="-219.5" font-family="Helvetica,sans-Serif" font-size="10.00">/home/travis/build</text>
<text text-anchor="start" x="176" y="-208.5" font-family="Helvetica,sans-Serif" font-size="10.00">/AliceO2Group/AliceO2</text>
<text text-anchor="start" x="176" y="-197.5" font-family="Helvetica,sans-Serif" font-size="10.00">/Detectors/TPC/reconstruction</text>
<text text-anchor="start" x="176" y="-186.5" font-family="Helvetica,sans-Serif" font-size="10.00">/include/TPCReconstruction</text>
<text text-anchor="middle" x="243" y="-175.5" font-family="Helvetica,sans-Serif" font-size="10.00">/ClustererTask.h</text>
</a>
</g>
</g>
<!-- Node1&#45;&gt;Node3 -->
<g id="edge9" class="edge"><title>Node1&#45;&gt;Node3</title>
<path fill="none" stroke="midnightblue" d="M347.23,-358.014C346.317,-330.839 341.686,-295.295 326,-268 317.973,-254.031 305.815,-241.818 293.262,-231.782"/>
<polygon fill="midnightblue" stroke="midnightblue" points="343.736,-358.419 347.414,-368.355 350.735,-358.294 343.736,-358.419"/>
</g>
<!-- Node10 -->
<g id="node10" class="node"><title>Node10</title>
<g id="a_node10"><a xlink:href="../../de/df6/HwClusterer_8h.html" target="_top" xlink:title="Class for TPC HW cluster finding. ">
<polygon fill="none" stroke="black" points="439,-268.5 439,-331.5 589,-331.5 589,-268.5 439,-268.5"/>
<text text-anchor="start" x="447" y="-319.5" font-family="Helvetica,sans-Serif" font-size="10.00">/home/travis/build</text>
<text text-anchor="start" x="447" y="-308.5" font-family="Helvetica,sans-Serif" font-size="10.00">/AliceO2Group/AliceO2</text>
<text text-anchor="start" x="447" y="-297.5" font-family="Helvetica,sans-Serif" font-size="10.00">/Detectors/TPC/reconstruction</text>
<text text-anchor="start" x="447" y="-286.5" font-family="Helvetica,sans-Serif" font-size="10.00">/include/TPCReconstruction</text>
<text text-anchor="middle" x="514" y="-275.5" font-family="Helvetica,sans-Serif" font-size="10.00">/HwClusterer.h</text>
</a>
</g>
</g>
<!-- Node1&#45;&gt;Node10 -->
<g id="edge10" class="edge"><title>Node1&#45;&gt;Node10</title>
<path fill="none" stroke="midnightblue" d="M407.773,-362.966C425.413,-352.676 444.462,-341.564 461.492,-331.63"/>
<polygon fill="midnightblue" stroke="midnightblue" points="405.57,-360.199 398.695,-368.261 409.097,-366.246 405.57,-360.199"/>
</g>
<!-- Node2&#45;&gt;Node3 -->
<g id="edge2" class="edge"><title>Node2&#45;&gt;Node3</title>
<path fill="none" stroke="midnightblue" d="M243,-258.099C243,-249.238 243,-240.015 243,-231.63"/>
<polygon fill="midnightblue" stroke="midnightblue" points="239.5,-258.261 243,-268.261 246.5,-258.261 239.5,-258.261"/>
</g>
<!-- Node7 -->
<g id="node7" class="node"><title>Node7</title>
<g id="a_node7"><a xlink:href="../../d5/db8/RawClusterFinder_8C.html" target="_top" xlink:title="/home/travis/build\l/AliceO2Group/AliceO2\l/Detectors/TPC/reconstruction\l/macro/RawClusterFinder.C">
<polygon fill="none" stroke="black" points="336,-174 336,-226 486,-226 486,-174 336,-174"/>
<text text-anchor="start" x="344" y="-214" font-family="Helvetica,sans-Serif" font-size="10.00">/home/travis/build</text>
<text text-anchor="start" x="344" y="-203" font-family="Helvetica,sans-Serif" font-size="10.00">/AliceO2Group/AliceO2</text>
<text text-anchor="start" x="344" y="-192" font-family="Helvetica,sans-Serif" font-size="10.00">/Detectors/TPC/reconstruction</text>
<text text-anchor="middle" x="411" y="-181" font-family="Helvetica,sans-Serif" font-size="10.00">/macro/RawClusterFinder.C</text>
</a>
</g>
</g>
<!-- Node2&#45;&gt;Node7 -->
<g id="edge6" class="edge"><title>Node2&#45;&gt;Node7</title>
<path fill="none" stroke="midnightblue" d="M304.587,-263.075C325.663,-250.78 348.77,-237.301 368.051,-226.054"/>
<polygon fill="midnightblue" stroke="midnightblue" points="302.57,-260.199 295.695,-268.261 306.097,-266.246 302.57,-260.199"/>
</g>
<!-- Node9 -->
<g id="node9" class="node"><title>Node9</title>
<g id="a_node9"><a xlink:href="../../da/d67/BoxClusterer_8cxx.html" target="_top" xlink:title="/home/travis/build\l/AliceO2Group/AliceO2\l/Detectors/TPC/reconstruction\l/src/BoxClusterer.cxx">
<polygon fill="none" stroke="black" points="0,-174 0,-226 150,-226 150,-174 0,-174"/>
<text text-anchor="start" x="8" y="-214" font-family="Helvetica,sans-Serif" font-size="10.00">/home/travis/build</text>
<text text-anchor="start" x="8" y="-203" font-family="Helvetica,sans-Serif" font-size="10.00">/AliceO2Group/AliceO2</text>
<text text-anchor="start" x="8" y="-192" font-family="Helvetica,sans-Serif" font-size="10.00">/Detectors/TPC/reconstruction</text>
<text text-anchor="middle" x="75" y="-181" font-family="Helvetica,sans-Serif" font-size="10.00">/src/BoxClusterer.cxx</text>
</a>
</g>
</g>
<!-- Node2&#45;&gt;Node9 -->
<g id="edge8" class="edge"><title>Node2&#45;&gt;Node9</title>
<path fill="none" stroke="midnightblue" d="M181.413,-263.075C160.337,-250.78 137.23,-237.301 117.949,-226.054"/>
<polygon fill="midnightblue" stroke="midnightblue" points="179.903,-266.246 190.305,-268.261 183.43,-260.199 179.903,-266.246"/>
</g>
<!-- Node4 -->
<g id="node4" class="node"><title>Node4</title>
<g id="a_node4"><a xlink:href="../../d8/d0f/TPC_2reconstruction_2src_2ClustererTask_8cxx.html" target="_top" xlink:title="/home/travis/build\l/AliceO2Group/AliceO2\l/Detectors/TPC/reconstruction\l/src/ClustererTask.cxx">
<polygon fill="none" stroke="black" points="168,-79 168,-131 318,-131 318,-79 168,-79"/>
<text text-anchor="start" x="176" y="-119" font-family="Helvetica,sans-Serif" font-size="10.00">/home/travis/build</text>
<text text-anchor="start" x="176" y="-108" font-family="Helvetica,sans-Serif" font-size="10.00">/AliceO2Group/AliceO2</text>
<text text-anchor="start" x="176" y="-97" font-family="Helvetica,sans-Serif" font-size="10.00">/Detectors/TPC/reconstruction</text>
<text text-anchor="middle" x="243" y="-86" font-family="Helvetica,sans-Serif" font-size="10.00">/src/ClustererTask.cxx</text>
</a>
</g>
</g>
<!-- Node3&#45;&gt;Node4 -->
<g id="edge3" class="edge"><title>Node3&#45;&gt;Node4</title>
<path fill="none" stroke="midnightblue" d="M243,-158.112C243,-148.917 243,-139.423 243,-131.1"/>
<polygon fill="midnightblue" stroke="midnightblue" points="239.5,-158.291 243,-168.291 246.5,-158.291 239.5,-158.291"/>
</g>
<!-- Node5 -->
<g id="node5" class="node"><title>Node5</title>
<g id="a_node5"><a xlink:href="../../df/d9b/run__clus__tpc_8C.html" target="_top" xlink:title="/home/travis/build\l/AliceO2Group/AliceO2\l/macro/run_clus_tpc.C">
<polygon fill="none" stroke="black" points="32,-84.5 32,-125.5 150,-125.5 150,-84.5 32,-84.5"/>
<text text-anchor="start" x="40" y="-113.5" font-family="Helvetica,sans-Serif" font-size="10.00">/home/travis/build</text>
<text text-anchor="start" x="40" y="-102.5" font-family="Helvetica,sans-Serif" font-size="10.00">/AliceO2Group/AliceO2</text>
<text text-anchor="middle" x="91" y="-91.5" font-family="Helvetica,sans-Serif" font-size="10.00">/macro/run_clus_tpc.C</text>
</a>
</g>
</g>
<!-- Node3&#45;&gt;Node5 -->
<g id="edge4" class="edge"><title>Node3&#45;&gt;Node5</title>
<path fill="none" stroke="midnightblue" d="M184.034,-162.922C163.26,-150.212 140.697,-136.406 122.993,-125.575"/>
<polygon fill="midnightblue" stroke="midnightblue" points="182.452,-166.057 192.808,-168.291 186.105,-160.086 182.452,-166.057"/>
</g>
<!-- Node6 -->
<g id="node6" class="node"><title>Node6</title>
<g id="a_node6"><a xlink:href="../../d3/d56/runTPC_8cxx.html" target="_top" xlink:title="/home/travis/build\l/AliceO2Group/AliceO2\l/run/runTPC.cxx">
<polygon fill="none" stroke="black" points="32,-0.5 32,-41.5 150,-41.5 150,-0.5 32,-0.5"/>
<text text-anchor="start" x="40" y="-29.5" font-family="Helvetica,sans-Serif" font-size="10.00">/home/travis/build</text>
<text text-anchor="start" x="40" y="-18.5" font-family="Helvetica,sans-Serif" font-size="10.00">/AliceO2Group/AliceO2</text>
<text text-anchor="middle" x="91" y="-7.5" font-family="Helvetica,sans-Serif" font-size="10.00">/run/runTPC.cxx</text>
</a>
</g>
</g>
<!-- Node5&#45;&gt;Node6 -->
<g id="edge5" class="edge"><title>Node5&#45;&gt;Node6</title>
<path fill="none" stroke="midnightblue" d="M91,-73.881C91,-63.1328 91,-51.309 91,-41.6671"/>
<polygon fill="midnightblue" stroke="midnightblue" points="87.5001,-74.1501 91,-84.1501 94.5001,-74.1501 87.5001,-74.1501"/>
</g>
<!-- Node8 -->
<g id="node8" class="node"><title>Node8</title>
<g id="a_node8"><a xlink:href="../../df/da0/runRawClusterFinder_8C.html" target="_top" xlink:title="/home/travis/build\l/AliceO2Group/AliceO2\l/Detectors/TPC/reconstruction\l/macro/runRawClusterFinder.C">
<polygon fill="none" stroke="black" points="336,-79 336,-131 488,-131 488,-79 336,-79"/>
<text text-anchor="start" x="344" y="-119" font-family="Helvetica,sans-Serif" font-size="10.00">/home/travis/build</text>
<text text-anchor="start" x="344" y="-108" font-family="Helvetica,sans-Serif" font-size="10.00">/AliceO2Group/AliceO2</text>
<text text-anchor="start" x="344" y="-97" font-family="Helvetica,sans-Serif" font-size="10.00">/Detectors/TPC/reconstruction</text>
<text text-anchor="middle" x="412" y="-86" font-family="Helvetica,sans-Serif" font-size="10.00">/macro/runRawClusterFinder.C</text>
</a>
</g>
</g>
<!-- Node7&#45;&gt;Node8 -->
<g id="edge7" class="edge"><title>Node7&#45;&gt;Node8</title>
<path fill="none" stroke="midnightblue" d="M411.381,-163.549C411.498,-152.722 411.623,-141.046 411.731,-131.06"/>
<polygon fill="midnightblue" stroke="midnightblue" points="407.881,-163.55 411.273,-173.587 414.881,-163.626 407.881,-163.55"/>
</g>
<!-- Node10&#45;&gt;Node3 -->
<g id="edge11" class="edge"><title>Node10&#45;&gt;Node3</title>
<path fill="none" stroke="midnightblue" d="M429.096,-268.772C397.073,-257.321 360.336,-244.123 327,-232 324.078,-230.937 321.1,-229.852 318.093,-228.753"/>
<polygon fill="midnightblue" stroke="midnightblue" points="428.279,-272.197 438.874,-272.267 430.635,-265.605 428.279,-272.197"/>
</g>
<!-- Node10&#45;&gt;Node7 -->
<g id="edge12" class="edge"><title>Node10&#45;&gt;Node7</title>
<path fill="none" stroke="midnightblue" d="M474.155,-261.089C461.809,-249.342 448.52,-236.698 437.332,-226.054"/>
<polygon fill="midnightblue" stroke="midnightblue" points="472.035,-263.904 481.693,-268.261 476.861,-258.832 472.035,-263.904"/>
</g>
<!-- Node11 -->
<g id="node11" class="node"><title>Node11</title>
<g id="a_node11"><a xlink:href="../../dc/dc3/testClustererData_8C.html" target="_top" xlink:title="/home/travis/build\l/AliceO2Group/AliceO2\l/Detectors/TPC/reconstruction\l/macro/testClustererData.C">
<polygon fill="none" stroke="black" points="504,-174 504,-226 654,-226 654,-174 504,-174"/>
<text text-anchor="start" x="512" y="-214" font-family="Helvetica,sans-Serif" font-size="10.00">/home/travis/build</text>
<text text-anchor="start" x="512" y="-203" font-family="Helvetica,sans-Serif" font-size="10.00">/AliceO2Group/AliceO2</text>
<text text-anchor="start" x="512" y="-192" font-family="Helvetica,sans-Serif" font-size="10.00">/Detectors/TPC/reconstruction</text>
<text text-anchor="middle" x="579" y="-181" font-family="Helvetica,sans-Serif" font-size="10.00">/macro/testClustererData.C</text>
</a>
</g>
</g>
<!-- Node10&#45;&gt;Node11 -->
<g id="edge13" class="edge"><title>Node10&#45;&gt;Node11</title>
<path fill="none" stroke="midnightblue" d="M540.03,-259.755C547.567,-248.391 555.589,-236.297 562.383,-226.054"/>
<polygon fill="midnightblue" stroke="midnightblue" points="536.999,-257.993 534.388,-268.261 542.832,-261.862 536.999,-257.993"/>
</g>
<!-- Node12 -->
<g id="node12" class="node"><title>Node12</title>
<g id="a_node12"><a xlink:href="../../d4/d6c/HwClusterer_8cxx.html" target="_top" xlink:title="/home/travis/build\l/AliceO2Group/AliceO2\l/Detectors/TPC/reconstruction\l/src/HwClusterer.cxx">
<polygon fill="none" stroke="black" points="672,-174 672,-226 822,-226 822,-174 672,-174"/>
<text text-anchor="start" x="680" y="-214" font-family="Helvetica,sans-Serif" font-size="10.00">/home/travis/build</text>
<text text-anchor="start" x="680" y="-203" font-family="Helvetica,sans-Serif" font-size="10.00">/AliceO2Group/AliceO2</text>
<text text-anchor="start" x="680" y="-192" font-family="Helvetica,sans-Serif" font-size="10.00">/Detectors/TPC/reconstruction</text>
<text text-anchor="middle" x="747" y="-181" font-family="Helvetica,sans-Serif" font-size="10.00">/src/HwClusterer.cxx</text>
</a>
</g>
</g>
<!-- Node10&#45;&gt;Node12 -->
<g id="edge14" class="edge"><title>Node10&#45;&gt;Node12</title>
<path fill="none" stroke="midnightblue" d="M596.37,-264.355C626.348,-251.746 659.633,-237.747 687.274,-226.121"/>
<polygon fill="midnightblue" stroke="midnightblue" points="594.625,-261.292 586.764,-268.395 597.339,-267.744 594.625,-261.292"/>
</g>
<!-- Node13 -->
<g id="node13" class="node"><title>Node13</title>
<g id="a_node13"><a xlink:href="../../d8/dce/ClustererSpec_8cxx.html" target="_top" xlink:title="spec definition for a TPC clusterer process ">
<polygon fill="none" stroke="black" points="840,-174 840,-226 968,-226 968,-174 840,-174"/>
<text text-anchor="start" x="848" y="-214" font-family="Helvetica,sans-Serif" font-size="10.00">/home/travis/build</text>
<text text-anchor="start" x="848" y="-203" font-family="Helvetica,sans-Serif" font-size="10.00">/AliceO2Group/AliceO2</text>
<text text-anchor="start" x="848" y="-192" font-family="Helvetica,sans-Serif" font-size="10.00">/Detectors/TPC/workflow</text>
<text text-anchor="middle" x="904" y="-181" font-family="Helvetica,sans-Serif" font-size="10.00">/src/ClustererSpec.cxx</text>
</a>
</g>
</g>
<!-- Node10&#45;&gt;Node13 -->
<g id="edge15" class="edge"><title>Node10&#45;&gt;Node13</title>
<path fill="none" stroke="midnightblue" d="M599.164,-285.419C663.407,-274.103 753.276,-255.971 830,-232 835.584,-230.255 841.328,-228.249 847.028,-226.113"/>
<polygon fill="midnightblue" stroke="midnightblue" points="598.33,-282.012 589.079,-287.177 599.532,-288.908 598.33,-282.012"/>
</g>
</g>
</svg>
