<?xml version="1.0" encoding="UTF-8" standalone="no"?>
<!DOCTYPE svg PUBLIC "-//W3C//DTD SVG 1.1//EN"
 "http://www.w3.org/Graphics/SVG/1.1/DTD/svg11.dtd">
<!-- Generated by graphviz version 2.36.0 (20140111.2315)
 -->
<!-- Title: /home/travis/build/AliceO2Group/AliceO2/Detectors/ITSMFT/ITS/reconstruction/src/TrivialClusterer.cxx Pages: 1 -->
<!--zoomable 470 -->
<svg id="main" version="1.1" xmlns="http://www.w3.org/2000/svg" xmlns:xlink="http://www.w3.org/1999/xlink" xml:space="preserve" onload="init(evt)">
<style type="text/css"><![CDATA[
.edge:hover path { stroke: red; }
.edge:hover polygon { stroke: red; fill: red; }
]]></style>
<script type="text/javascript"><![CDATA[
var edges = document.getElementsByTagName('g');
if (edges && edges.length) {
  for (var i=0;i<edges.length;i++) {
    if (edges[i].id.substr(0,4)=='edge') {
      edges[i].setAttribute('class','edge');
    }
  }
}
]]></script>
        <defs>
                <circle id="rim" cx="0" cy="0" r="7"/>
                <circle id="rim2" cx="0" cy="0" r="3.5"/>
                <g id="zoomPlus">
                        <use xlink:href="#rim" fill="#404040">
                                <set attributeName="fill" to="#808080" begin="zoomplus.mouseover" end="zoomplus.mouseout"/>
                        </use>
                        <path d="M-4,0h8M0,-4v8" fill="none" stroke="white" stroke-width="1.5" pointer-events="none"/>
                </g>
                <g id="zoomMin">
                        <use xlink:href="#rim" fill="#404040">
                                <set attributeName="fill" to="#808080" begin="zoomminus.mouseover" end="zoomminus.mouseout"/>
                        </use>
                        <path d="M-4,0h8" fill="none" stroke="white" stroke-width="1.5" pointer-events="none"/>
                </g>
                <g id="dirArrow">
                        <path fill="none" stroke="white" stroke-width="1.5" d="M0,-3.0v7 M-2.5,-0.5L0,-3.0L2.5,-0.5"/>
                </g>
               <g id="resetDef">
                       <use xlink:href="#rim2" fill="#404040">
                               <set attributeName="fill" to="#808080" begin="reset.mouseover" end="reset.mouseout"/>
                       </use>
               </g>
        </defs>

<script type="text/javascript">
var viewWidth = 1953;
var viewHeight = 470;
var sectionId = 'dynsection-0';
</script>
<script xlink:href="../../svgpan.js"/>
<svg id="graph" class="graph">
<g id="viewport">
<title>/home/travis/build/AliceO2Group/AliceO2/Detectors/ITSMFT/ITS/reconstruction/src/TrivialClusterer.cxx</title>
<!-- Node1 -->
<g id="node1" class="node"><title>Node1</title>
<polygon fill="#bfbfbf" stroke="black" points="592.5,-409 592.5,-461 777.5,-461 777.5,-409 592.5,-409"/>
<text text-anchor="start" x="600.5" y="-449" font-family="Helvetica,sans-Serif" font-size="10.00">/home/travis/build</text>
<text text-anchor="start" x="600.5" y="-438" font-family="Helvetica,sans-Serif" font-size="10.00">/AliceO2Group/AliceO2</text>
<text text-anchor="start" x="600.5" y="-427" font-family="Helvetica,sans-Serif" font-size="10.00">/Detectors/ITSMFT/ITS</text>
<text text-anchor="middle" x="685" y="-416" font-family="Helvetica,sans-Serif" font-size="10.00">/reconstruction/src/TrivialClusterer.cxx</text>
</g>
<!-- Node2 -->
<g id="node2" class="node"><title>Node2</title>
<g id="a_node2"><a xlink:href="../../dd/d76/Cartesian3D_8h.html" target="_top" xlink:title="MathUtils/Cartesian3D.h">
<polygon fill="none" stroke="black" points="727.5,-142.5 727.5,-161.5 852.5,-161.5 852.5,-142.5 727.5,-142.5"/>
<text text-anchor="middle" x="790" y="-149.5" font-family="Helvetica,sans-Serif" font-size="10.00">MathUtils/Cartesian3D.h</text>
</a>
</g>
</g>
<!-- Node1&#45;&gt;Node2 -->
<g id="edge1" class="edge"><title>Node1&#45;&gt;Node2</title>
<path fill="none" stroke="midnightblue" d="M706.315,-408.994C726.272,-384.101 755.176,-343.944 770,-304 786.814,-258.695 789.815,-201.127 790.155,-171.889"/>
<polygon fill="midnightblue" stroke="midnightblue" points="793.655,-171.845 790.176,-161.838 786.655,-171.831 793.655,-171.845"/>
</g>
<!-- Node14 -->
<g id="node14" class="node"><title>Node14</title>
<g id="a_node14"><a xlink:href="../../d0/d06/ITSMFT_2common_2base_2include_2ITSMFTBase_2Digit_8h.html" target="_top" xlink:title="ITSMFTBase/Digit.h">
<polygon fill="none" stroke="black" points="395.5,-210.5 395.5,-229.5 502.5,-229.5 502.5,-210.5 395.5,-210.5"/>
<text text-anchor="middle" x="449" y="-217.5" font-family="Helvetica,sans-Serif" font-size="10.00">ITSMFTBase/Digit.h</text>
</a>
</g>
</g>
<!-- Node1&#45;&gt;Node14 -->
<g id="edge13" class="edge"><title>Node1&#45;&gt;Node14</title>
<path fill="none" stroke="midnightblue" d="M657.001,-408.73C607.654,-364.192 506.607,-272.993 466.229,-236.55"/>
<polygon fill="midnightblue" stroke="midnightblue" points="468.553,-233.933 458.784,-229.831 463.863,-239.129 468.553,-233.933"/>
</g>
<!-- Node15 -->
<g id="node15" class="node"><title>Node15</title>
<g id="a_node15"><a xlink:href="../../d7/dcd/MCCompLabel_8h.html" target="_top" xlink:title="SimulationDataFormat\l/MCCompLabel.h">
<polygon fill="none" stroke="black" points="0,-137 0,-167 114,-167 114,-137 0,-137"/>
<text text-anchor="start" x="8" y="-155" font-family="Helvetica,sans-Serif" font-size="10.00">SimulationDataFormat</text>
<text text-anchor="middle" x="57" y="-144" font-family="Helvetica,sans-Serif" font-size="10.00">/MCCompLabel.h</text>
</a>
</g>
</g>
<!-- Node1&#45;&gt;Node15 -->
<g id="edge52" class="edge"><title>Node1&#45;&gt;Node15</title>
<path fill="none" stroke="midnightblue" d="M592.414,-428.248C437.011,-416.46 134.248,-383.629 69,-304 39.6495,-268.18 44.9995,-210.192 51.1989,-177.481"/>
<polygon fill="midnightblue" stroke="midnightblue" points="54.6806,-177.928 53.285,-167.426 47.8265,-176.506 54.6806,-177.928"/>
</g>
<!-- Node17 -->
<g id="node17" class="node"><title>Node17</title>
<g id="a_node17"><a xlink:href="../../d3/dba/SegmentationAlpide_8h.html" target="_top" xlink:title="Definition of the SegmentationAlpide class. ">
<polygon fill="none" stroke="black" points="78.5,-278.5 78.5,-297.5 251.5,-297.5 251.5,-278.5 78.5,-278.5"/>
<text text-anchor="middle" x="165" y="-285.5" font-family="Helvetica,sans-Serif" font-size="10.00">ITSMFTBase/SegmentationAlpide.h</text>
</a>
</g>
</g>
<!-- Node1&#45;&gt;Node17 -->
<g id="edge19" class="edge"><title>Node1&#45;&gt;Node17</title>
<path fill="none" stroke="midnightblue" d="M592.291,-414.987C539.935,-403.682 473.469,-388.379 415,-372 336.064,-349.887 245.101,-318.048 197.653,-300.945"/>
<polygon fill="midnightblue" stroke="midnightblue" points="198.803,-297.639 188.209,-297.528 196.422,-304.221 198.803,-297.639"/>
</g>
<!-- Node18 -->
<g id="node18" class="node"><title>Node18</title>
<g id="a_node18"><a xlink:href="../../d1/d76/TrivialClusterer_8h.html" target="_top" xlink:title="Definition of the ITS cluster finder. ">
<polygon fill="none" stroke="black" points="424,-341 424,-371 552,-371 552,-341 424,-341"/>
<text text-anchor="start" x="432" y="-359" font-family="Helvetica,sans-Serif" font-size="10.00">ITSReconstruction/Trivial</text>
<text text-anchor="middle" x="488" y="-348" font-family="Helvetica,sans-Serif" font-size="10.00">Clusterer.h</text>
</a>
</g>
</g>
<!-- Node1&#45;&gt;Node18 -->
<g id="edge21" class="edge"><title>Node1&#45;&gt;Node18</title>
<path fill="none" stroke="midnightblue" d="M620.767,-408.894C592.293,-397.764 559.453,-384.928 533.558,-374.807"/>
<polygon fill="midnightblue" stroke="midnightblue" points="534.586,-371.451 523.998,-371.07 532.037,-377.97 534.586,-371.451"/>
</g>
<!-- Node23 -->
<g id="node23" class="node"><title>Node23</title>
<polygon fill="none" stroke="#bfbfbf" points="1535.5,-142.5 1535.5,-161.5 1606.5,-161.5 1606.5,-142.5 1535.5,-142.5"/>
<text text-anchor="middle" x="1571" y="-149.5" font-family="Helvetica,sans-Serif" font-size="10.00">FairLogger.h</text>
</g>
<!-- Node1&#45;&gt;Node23 -->
<g id="edge59" class="edge"><title>Node1&#45;&gt;Node23</title>
<path fill="none" stroke="midnightblue" d="M777.79,-428.82C887.285,-421.482 1074.4,-405.092 1232,-372 1331.74,-351.057 1364.99,-358.679 1451,-304 1504.8,-269.795 1544.95,-202.946 1562,-170.929"/>
<polygon fill="midnightblue" stroke="midnightblue" points="1565.21,-172.332 1566.71,-161.843 1559,-169.11 1565.21,-172.332"/>
</g>
<!-- Node34 -->
<g id="node34" class="node"><title>Node34</title>
<g id="a_node34"><a xlink:href="../../d1/d62/DataFormats_2Detectors_2ITSMFT_2common_2include_2DataFormatsITSMFT_2Cluster_8h.html" target="_top" xlink:title="DataFormatsITSMFT/Cluster.h">
<polygon fill="none" stroke="black" points="1071,-346.5 1071,-365.5 1223,-365.5 1223,-346.5 1071,-346.5"/>
<text text-anchor="middle" x="1147" y="-353.5" font-family="Helvetica,sans-Serif" font-size="10.00">DataFormatsITSMFT/Cluster.h</text>
</a>
</g>
</g>
<!-- Node1&#45;&gt;Node34 -->
<g id="edge43" class="edge"><title>Node1&#45;&gt;Node34</title>
<path fill="none" stroke="midnightblue" d="M777.659,-418.557C869.296,-403.284 1006.92,-380.347 1085.73,-367.212"/>
<polygon fill="midnightblue" stroke="midnightblue" points="1086.69,-370.6 1095.98,-365.504 1085.54,-363.695 1086.69,-370.6"/>
</g>
<!-- Node39 -->
<g id="node39" class="node"><title>Node39</title>
<g id="a_node39"><a xlink:href="../../db/d14/MCTruthContainer_8h.html" target="_top" xlink:title="Definition of a container to keep Monte Carlo truth external to simulation objects. ">
<polygon fill="none" stroke="black" points="1709,-137 1709,-167 1823,-167 1823,-137 1709,-137"/>
<text text-anchor="start" x="1717" y="-155" font-family="Helvetica,sans-Serif" font-size="10.00">SimulationDataFormat</text>
<text text-anchor="middle" x="1766" y="-144" font-family="Helvetica,sans-Serif" font-size="10.00">/MCTruthContainer.h</text>
</a>
</g>
</g>
<!-- Node1&#45;&gt;Node39 -->
<g id="edge53" class="edge"><title>Node1&#45;&gt;Node39</title>
<path fill="none" stroke="midnightblue" d="M777.727,-431.386C902.28,-426.418 1129.95,-412.199 1320,-372 1508.24,-332.184 1589.65,-366.538 1731,-236 1747.89,-220.406 1756.92,-195.361 1761.55,-176.855"/>
<polygon fill="midnightblue" stroke="midnightblue" points="1764.97,-177.617 1763.74,-167.093 1758.14,-176.083 1764.97,-177.617"/>
</g>
<!-- Node3 -->
<g id="node3" class="node"><title>Node3</title>
<polygon fill="none" stroke="#bfbfbf" points="197.5,-69 197.5,-99 348.5,-99 348.5,-69 197.5,-69"/>
<text text-anchor="start" x="205.5" y="-87" font-family="Helvetica,sans-Serif" font-size="10.00">Math/GenVector/Displacement</text>
<text text-anchor="middle" x="273" y="-76" font-family="Helvetica,sans-Serif" font-size="10.00">Vector3D.h</text>
</g>
<!-- Node2&#45;&gt;Node3 -->
<g id="edge2" class="edge"><title>Node2&#45;&gt;Node3</title>
<path fill="none" stroke="midnightblue" d="M727.253,-144.729C645.029,-136.258 496.126,-120.049 358.403,-100.005"/>
<polygon fill="midnightblue" stroke="midnightblue" points="358.909,-96.5423 348.507,-98.5557 357.894,-103.468 358.909,-96.5423"/>
</g>
<!-- Node4 -->
<g id="node4" class="node"><title>Node4</title>
<polygon fill="none" stroke="#bfbfbf" points="367,-74.5 367,-93.5 543,-93.5 543,-74.5 367,-74.5"/>
<text text-anchor="middle" x="455" y="-81.5" font-family="Helvetica,sans-Serif" font-size="10.00">Math/GenVector/PositionVector3D.h</text>
</g>
<!-- Node2&#45;&gt;Node4 -->
<g id="edge3" class="edge"><title>Node2&#45;&gt;Node4</title>
<path fill="none" stroke="midnightblue" d="M746.548,-142.439C685.547,-130.421 574.608,-108.565 508.573,-95.5547"/>
<polygon fill="midnightblue" stroke="midnightblue" points="508.863,-92.0446 498.375,-93.5455 507.51,-98.9126 508.863,-92.0446"/>
</g>
<!-- Node5 -->
<g id="node5" class="node"><title>Node5</title>
<polygon fill="none" stroke="#bfbfbf" points="560.5,-74.5 560.5,-93.5 709.5,-93.5 709.5,-74.5 560.5,-74.5"/>
<text text-anchor="middle" x="635" y="-81.5" font-family="Helvetica,sans-Serif" font-size="10.00">Math/GenVector/Rotation3D.h</text>
</g>
<!-- Node2&#45;&gt;Node5 -->
<g id="edge4" class="edge"><title>Node2&#45;&gt;Node5</title>
<path fill="none" stroke="midnightblue" d="M769.736,-142.372C742.932,-130.958 695.488,-110.756 664.65,-97.6252"/>
<polygon fill="midnightblue" stroke="midnightblue" points="665.84,-94.328 655.269,-93.6305 663.098,-100.768 665.84,-94.328"/>
</g>
<!-- Node6 -->
<g id="node6" class="node"><title>Node6</title>
<polygon fill="none" stroke="#bfbfbf" points="871,-74.5 871,-93.5 1027,-93.5 1027,-74.5 871,-74.5"/>
<text text-anchor="middle" x="949" y="-81.5" font-family="Helvetica,sans-Serif" font-size="10.00">Math/GenVector/Transform3D.h</text>
</g>
<!-- Node2&#45;&gt;Node6 -->
<g id="edge5" class="edge"><title>Node2&#45;&gt;Node6</title>
<path fill="none" stroke="midnightblue" d="M810.786,-142.372C838.359,-130.927 887.22,-110.644 918.847,-97.5165"/>
<polygon fill="midnightblue" stroke="midnightblue" points="920.566,-100.592 928.46,-93.5259 917.883,-94.1271 920.566,-100.592"/>
</g>
<!-- Node7 -->
<g id="node7" class="node"><title>Node7</title>
<polygon fill="none" stroke="#bfbfbf" points="1045,-74.5 1045,-93.5 1205,-93.5 1205,-74.5 1045,-74.5"/>
<text text-anchor="middle" x="1125" y="-81.5" font-family="Helvetica,sans-Serif" font-size="10.00">Math/GenVector/Translation3D.h</text>
</g>
<!-- Node2&#45;&gt;Node7 -->
<g id="edge6" class="edge"><title>Node2&#45;&gt;Node7</title>
<path fill="none" stroke="midnightblue" d="M833.452,-142.439C894.453,-130.421 1005.39,-108.565 1071.43,-95.5547"/>
<polygon fill="midnightblue" stroke="midnightblue" points="1072.49,-98.9126 1081.63,-93.5455 1071.14,-92.0446 1072.49,-98.9126"/>
</g>
<!-- Node8 -->
<g id="node8" class="node"><title>Node8</title>
<polygon fill="none" stroke="#bfbfbf" points="29,-74.5 29,-93.5 85,-93.5 85,-74.5 29,-74.5"/>
<text text-anchor="middle" x="57" y="-81.5" font-family="Helvetica,sans-Serif" font-size="10.00">Rtypes.h</text>
</g>
<!-- Node2&#45;&gt;Node8 -->
<g id="edge7" class="edge"><title>Node2&#45;&gt;Node8</title>
<path fill="none" stroke="midnightblue" d="M727.228,-144.296C700.111,-141.521 668.011,-138.398 639,-136 397.075,-115.999 330.601,-154.291 94,-100 90.7572,-99.2559 87.4297,-98.2635 84.1632,-97.1421"/>
<polygon fill="midnightblue" stroke="midnightblue" points="85.2829,-93.8229 74.6927,-93.5099 82.7762,-100.359 85.2829,-93.8229"/>
</g>
<!-- Node9 -->
<g id="node9" class="node"><title>Node9</title>
<polygon fill="none" stroke="#bfbfbf" points="103,-74.5 103,-93.5 179,-93.5 179,-74.5 103,-74.5"/>
<text text-anchor="middle" x="141" y="-81.5" font-family="Helvetica,sans-Serif" font-size="10.00">TGeoMatrix.h</text>
</g>
<!-- Node2&#45;&gt;Node9 -->
<g id="edge8" class="edge"><title>Node2&#45;&gt;Node9</title>
<path fill="none" stroke="midnightblue" d="M727.211,-144.488C700.092,-141.747 667.994,-138.597 639,-136 438.72,-118.061 385.299,-138.823 188,-100 183.433,-99.1013 178.687,-97.9082 174.044,-96.5862"/>
<polygon fill="midnightblue" stroke="midnightblue" points="174.739,-93.1387 164.153,-93.5505 172.686,-99.8306 174.739,-93.1387"/>
</g>
<!-- Node10 -->
<g id="node10" class="node"><title>Node10</title>
<polygon fill="none" stroke="#bfbfbf" points="1223.5,-74.5 1223.5,-93.5 1268.5,-93.5 1268.5,-74.5 1223.5,-74.5"/>
<text text-anchor="middle" x="1246" y="-81.5" font-family="Helvetica,sans-Serif" font-size="10.00">iosfwd</text>
</g>
<!-- Node2&#45;&gt;Node10 -->
<g id="edge9" class="edge"><title>Node2&#45;&gt;Node10</title>
<path fill="none" stroke="midnightblue" d="M852.662,-149.66C936.499,-146.476 1089.09,-135.786 1214,-100 1216.34,-99.3299 1218.72,-98.5074 1221.08,-97.5959"/>
<polygon fill="midnightblue" stroke="midnightblue" points="1222.67,-100.719 1230.44,-93.5097 1219.87,-94.3037 1222.67,-100.719"/>
</g>
<!-- Node11 -->
<g id="node11" class="node"><title>Node11</title>
<g id="a_node11"><a xlink:href="../../d2/dd0/Cartesian2D_8h.html" target="_top" xlink:title="MathUtils/Cartesian2D.h">
<polygon fill="none" stroke="black" points="727.5,-74.5 727.5,-93.5 852.5,-93.5 852.5,-74.5 727.5,-74.5"/>
<text text-anchor="middle" x="790" y="-81.5" font-family="Helvetica,sans-Serif" font-size="10.00">MathUtils/Cartesian2D.h</text>
</a>
</g>
</g>
<!-- Node2&#45;&gt;Node11 -->
<g id="edge10" class="edge"><title>Node2&#45;&gt;Node11</title>
<path fill="none" stroke="midnightblue" d="M790,-142.372C790,-132.643 790,-116.528 790,-103.85"/>
<polygon fill="midnightblue" stroke="midnightblue" points="793.5,-103.841 790,-93.8411 786.5,-103.841 793.5,-103.841"/>
</g>
<!-- Node12 -->
<g id="node12" class="node"><title>Node12</title>
<polygon fill="none" stroke="#bfbfbf" points="623.5,-1 623.5,-31 774.5,-31 774.5,-1 623.5,-1"/>
<text text-anchor="start" x="631.5" y="-19" font-family="Helvetica,sans-Serif" font-size="10.00">Math/GenVector/Displacement</text>
<text text-anchor="middle" x="699" y="-8" font-family="Helvetica,sans-Serif" font-size="10.00">Vector2D.h</text>
</g>
<!-- Node11&#45;&gt;Node12 -->
<g id="edge11" class="edge"><title>Node11&#45;&gt;Node12</title>
<path fill="none" stroke="midnightblue" d="M778.103,-74.3717C765.221,-65.0286 744.22,-49.7966 727.093,-37.375"/>
<polygon fill="midnightblue" stroke="midnightblue" points="728.703,-34.2194 718.553,-31.1815 724.593,-39.8859 728.703,-34.2194"/>
</g>
<!-- Node13 -->
<g id="node13" class="node"><title>Node13</title>
<polygon fill="none" stroke="#bfbfbf" points="793,-6.5 793,-25.5 969,-25.5 969,-6.5 793,-6.5"/>
<text text-anchor="middle" x="881" y="-13.5" font-family="Helvetica,sans-Serif" font-size="10.00">Math/GenVector/PositionVector2D.h</text>
</g>
<!-- Node11&#45;&gt;Node13 -->
<g id="edge12" class="edge"><title>Node11&#45;&gt;Node13</title>
<path fill="none" stroke="midnightblue" d="M801.897,-74.3717C816.884,-63.5015 842.862,-44.6602 860.942,-31.5474"/>
<polygon fill="midnightblue" stroke="midnightblue" points="863.06,-34.3349 869.1,-25.6305 858.95,-28.6684 863.06,-34.3349"/>
</g>
<!-- Node14&#45;&gt;Node8 -->
<g id="edge14" class="edge"><title>Node14&#45;&gt;Node8</title>
<path fill="none" stroke="midnightblue" d="M458.517,-210.499C475.55,-194.295 507.618,-158.593 487,-136 427.884,-71.2207 179.222,-120.697 94,-100 90.9332,-99.2552 87.7869,-98.3008 84.6863,-97.235"/>
<polygon fill="midnightblue" stroke="midnightblue" points="85.682,-93.8687 75.0914,-93.5707 83.1846,-100.408 85.682,-93.8687"/>
</g>
<!-- Node14&#45;&gt;Node15 -->
<g id="edge15" class="edge"><title>Node14&#45;&gt;Node15</title>
<path fill="none" stroke="midnightblue" d="M398.155,-210.439C328.17,-198.656 202.011,-177.415 124.279,-164.328"/>
<polygon fill="midnightblue" stroke="midnightblue" points="124.553,-160.825 114.111,-162.616 123.391,-167.727 124.553,-160.825"/>
</g>
<!-- Node16 -->
<g id="node16" class="node"><title>Node16</title>
<g id="a_node16"><a xlink:href="../../df/d5d/common_2include_2CommonDataFormat_2TimeStamp_8h.html" target="_top" xlink:title="CommonDataFormat/TimeStamp.h">
<polygon fill="none" stroke="black" points="308,-142.5 308,-161.5 478,-161.5 478,-142.5 308,-142.5"/>
<text text-anchor="middle" x="393" y="-149.5" font-family="Helvetica,sans-Serif" font-size="10.00">CommonDataFormat/TimeStamp.h</text>
</a>
</g>
</g>
<!-- Node14&#45;&gt;Node16 -->
<g id="edge17" class="edge"><title>Node14&#45;&gt;Node16</title>
<path fill="none" stroke="midnightblue" d="M441.679,-210.372C432.924,-200.053 418.074,-182.551 407.072,-169.585"/>
<polygon fill="midnightblue" stroke="midnightblue" points="409.64,-167.202 400.502,-161.841 404.303,-171.731 409.64,-167.202"/>
</g>
<!-- Node15&#45;&gt;Node8 -->
<g id="edge16" class="edge"><title>Node15&#45;&gt;Node8</title>
<path fill="none" stroke="midnightblue" d="M57,-136.679C57,-127.101 57,-114.394 57,-103.977"/>
<polygon fill="midnightblue" stroke="midnightblue" points="60.5001,-103.828 57,-93.8283 53.5001,-103.828 60.5001,-103.828"/>
</g>
<!-- Node16&#45;&gt;Node8 -->
<g id="edge18" class="edge"><title>Node16&#45;&gt;Node8</title>
<path fill="none" stroke="midnightblue" d="M339.254,-142.479C259.615,-129.756 117.141,-106.581 94,-100 91.1873,-99.2002 88.2968,-98.2566 85.4306,-97.2384"/>
<polygon fill="midnightblue" stroke="midnightblue" points="86.5174,-93.9066 75.9273,-93.5894 84.0082,-100.441 86.5174,-93.9066"/>
</g>
<!-- Node17&#45;&gt;Node8 -->
<g id="edge20" class="edge"><title>Node17&#45;&gt;Node8</title>
<path fill="none" stroke="midnightblue" d="M164.482,-278.372C162.648,-253.972 154.739,-183.189 123,-136 112.592,-120.525 95.9518,-107.713 81.9845,-98.8007"/>
<polygon fill="midnightblue" stroke="midnightblue" points="83.6487,-95.7166 73.2844,-93.5186 80.0159,-101.7 83.6487,-95.7166"/>
</g>
<!-- Node18&#45;&gt;Node8 -->
<g id="edge22" class="edge"><title>Node18&#45;&gt;Node8</title>
<path fill="none" stroke="midnightblue" d="M466.532,-340.838C412.825,-305.509 268.118,-210.933 145,-136 123.746,-123.064 99.2287,-108.918 81.4796,-98.8122"/>
<polygon fill="midnightblue" stroke="midnightblue" points="82.8036,-95.5393 72.3791,-93.6472 79.3484,-101.627 82.8036,-95.5393"/>
</g>
<!-- Node19 -->
<g id="node19" class="node"><title>Node19</title>
<g id="a_node19"><a xlink:href="../../d0/d2d/common_2base_2include_2ITSMFTBase_2GeometryTGeo_8h.html" target="_top" xlink:title="ITSMFTBase/GeometryTGeo.h">
<polygon fill="none" stroke="black" points="608.5,-278.5 608.5,-297.5 761.5,-297.5 761.5,-278.5 608.5,-278.5"/>
<text text-anchor="middle" x="685" y="-285.5" font-family="Helvetica,sans-Serif" font-size="10.00">ITSMFTBase/GeometryTGeo.h</text>
</a>
</g>
</g>
<!-- Node18&#45;&gt;Node19 -->
<g id="edge23" class="edge"><title>Node18&#45;&gt;Node19</title>
<path fill="none" stroke="midnightblue" d="M530.261,-340.841C565.814,-328.93 616.067,-312.094 649.551,-300.876"/>
<polygon fill="midnightblue" stroke="midnightblue" points="650.999,-304.082 659.37,-297.587 648.776,-297.445 650.999,-304.082"/>
</g>
<!-- Node20 -->
<g id="node20" class="node"><title>Node20</title>
<polygon fill="none" stroke="#bfbfbf" points="605.5,-210.5 605.5,-229.5 674.5,-229.5 674.5,-210.5 605.5,-210.5"/>
<text text-anchor="middle" x="640" y="-217.5" font-family="Helvetica,sans-Serif" font-size="10.00">TObjArray.h</text>
</g>
<!-- Node19&#45;&gt;Node20 -->
<g id="edge24" class="edge"><title>Node19&#45;&gt;Node20</title>
<path fill="none" stroke="midnightblue" d="M679.117,-278.372C672.216,-268.25 660.601,-251.215 651.817,-238.331"/>
<polygon fill="midnightblue" stroke="midnightblue" points="654.553,-236.132 646.028,-229.841 648.77,-240.075 654.553,-236.132"/>
</g>
<!-- Node21 -->
<g id="node21" class="node"><title>Node21</title>
<polygon fill="none" stroke="#bfbfbf" points="692.5,-210.5 692.5,-229.5 733.5,-229.5 733.5,-210.5 692.5,-210.5"/>
<text text-anchor="middle" x="713" y="-217.5" font-family="Helvetica,sans-Serif" font-size="10.00">string</text>
</g>
<!-- Node19&#45;&gt;Node21 -->
<g id="edge25" class="edge"><title>Node19&#45;&gt;Node21</title>
<path fill="none" stroke="midnightblue" d="M688.661,-278.372C692.871,-268.446 699.902,-251.874 705.327,-239.086"/>
<polygon fill="midnightblue" stroke="midnightblue" points="708.566,-240.414 709.249,-229.841 702.122,-237.68 708.566,-240.414"/>
</g>
<!-- Node22 -->
<g id="node22" class="node"><title>Node22</title>
<g id="a_node22"><a xlink:href="../../d4/d20/DetMatrixCache_8h.html" target="_top" xlink:title="DetectorsCommonDataFormats\l/DetMatrixCache.h">
<polygon fill="none" stroke="black" points="1233,-205 1233,-235 1389,-235 1389,-205 1233,-205"/>
<text text-anchor="start" x="1241" y="-223" font-family="Helvetica,sans-Serif" font-size="10.00">DetectorsCommonDataFormats</text>
<text text-anchor="middle" x="1311" y="-212" font-family="Helvetica,sans-Serif" font-size="10.00">/DetMatrixCache.h</text>
</a>
</g>
</g>
<!-- Node19&#45;&gt;Node22 -->
<g id="edge26" class="edge"><title>Node19&#45;&gt;Node22</title>
<path fill="none" stroke="midnightblue" d="M761.76,-278.907C878.303,-266.62 1099.32,-243.318 1222.48,-230.333"/>
<polygon fill="midnightblue" stroke="midnightblue" points="1223.05,-233.792 1232.63,-229.263 1222.32,-226.831 1223.05,-233.792"/>
</g>
<!-- Node22&#45;&gt;Node2 -->
<g id="edge41" class="edge"><title>Node22&#45;&gt;Node2</title>
<path fill="none" stroke="midnightblue" d="M1232.72,-209.083C1132.58,-196.398 960.458,-174.593 862.951,-162.241"/>
<polygon fill="midnightblue" stroke="midnightblue" points="863.246,-158.751 852.886,-160.966 862.367,-165.695 863.246,-158.751"/>
</g>
<!-- Node22&#45;&gt;Node8 -->
<g id="edge42" class="edge"><title>Node22&#45;&gt;Node8</title>
<path fill="none" stroke="midnightblue" d="M1232.66,-213.849C1119.03,-206.019 901.945,-189.705 718,-168 622.931,-156.782 600.061,-147.293 505,-136 322.914,-114.369 272.272,-142.921 94,-100 90.9317,-99.2613 87.7844,-98.3108 84.6833,-97.2474"/>
<polygon fill="midnightblue" stroke="midnightblue" points="85.6785,-93.881 75.0877,-93.5858 83.1828,-100.421 85.6785,-93.881"/>
</g>
<!-- Node22&#45;&gt;Node23 -->
<g id="edge27" class="edge"><title>Node22&#45;&gt;Node23</title>
<path fill="none" stroke="midnightblue" d="M1372.79,-204.907C1414.74,-195.115 1471.39,-181.455 1521,-168 1525.13,-166.879 1529.44,-165.661 1533.73,-164.42"/>
<polygon fill="midnightblue" stroke="midnightblue" points="1534.97,-167.703 1543.57,-161.516 1532.99,-160.989 1534.97,-167.703"/>
</g>
<!-- Node24 -->
<g id="node24" class="node"><title>Node24</title>
<polygon fill="none" stroke="#bfbfbf" points="1450,-6.5 1450,-25.5 1488,-25.5 1488,-6.5 1450,-6.5"/>
<text text-anchor="middle" x="1469" y="-13.5" font-family="Helvetica,sans-Serif" font-size="10.00">array</text>
</g>
<!-- Node22&#45;&gt;Node24 -->
<g id="edge28" class="edge"><title>Node22&#45;&gt;Node24</title>
<path fill="none" stroke="midnightblue" d="M1373.2,-204.938C1421.26,-193.445 1480.79,-177.582 1488,-168 1517.98,-128.168 1493.45,-65.03 1478.47,-34.5744"/>
<polygon fill="midnightblue" stroke="midnightblue" points="1481.53,-32.876 1473.85,-25.5798 1475.31,-36.0742 1481.53,-32.876"/>
</g>
<!-- Node25 -->
<g id="node25" class="node"><title>Node25</title>
<polygon fill="none" stroke="#bfbfbf" points="1261,-142.5 1261,-161.5 1305,-161.5 1305,-142.5 1261,-142.5"/>
<text text-anchor="middle" x="1283" y="-149.5" font-family="Helvetica,sans-Serif" font-size="10.00">vector</text>
</g>
<!-- Node22&#45;&gt;Node25 -->
<g id="edge29" class="edge"><title>Node22&#45;&gt;Node25</title>
<path fill="none" stroke="midnightblue" d="M1304.92,-204.679C1300.77,-194.898 1295.24,-181.852 1290.77,-171.315"/>
<polygon fill="midnightblue" stroke="midnightblue" points="1293.87,-169.667 1286.75,-161.828 1287.43,-172.401 1293.87,-169.667"/>
</g>
<!-- Node26 -->
<g id="node26" class="node"><title>Node26</title>
<g id="a_node26"><a xlink:href="../../d6/d31/DetID_8h.html" target="_top" xlink:title="DetectorsCommonDataFormats\l/DetID.h">
<polygon fill="none" stroke="black" points="1323,-137 1323,-167 1479,-167 1479,-137 1323,-137"/>
<text text-anchor="start" x="1331" y="-155" font-family="Helvetica,sans-Serif" font-size="10.00">DetectorsCommonDataFormats</text>
<text text-anchor="middle" x="1401" y="-144" font-family="Helvetica,sans-Serif" font-size="10.00">/DetID.h</text>
</a>
</g>
</g>
<!-- Node22&#45;&gt;Node26 -->
<g id="edge30" class="edge"><title>Node22&#45;&gt;Node26</title>
<path fill="none" stroke="midnightblue" d="M1330.53,-204.679C1343.12,-195.449 1359.67,-183.311 1373.57,-173.118"/>
<polygon fill="midnightblue" stroke="midnightblue" points="1375.82,-175.802 1381.82,-167.066 1371.68,-170.158 1375.82,-175.802"/>
</g>
<!-- Node26&#45;&gt;Node8 -->
<g id="edge31" class="edge"><title>Node26&#45;&gt;Node8</title>
<path fill="none" stroke="midnightblue" d="M1322.87,-137.101C1319.54,-136.693 1316.24,-136.322 1313,-136 1043.32,-109.166 359.203,-155.789 94,-100 90.7442,-99.3151 87.4085,-98.3597 84.1374,-97.2593"/>
<polygon fill="midnightblue" stroke="midnightblue" points="85.253,-93.9389 74.6621,-93.6487 82.7604,-100.48 85.253,-93.9389"/>
</g>
<!-- Node26&#45;&gt;Node24 -->
<g id="edge32" class="edge"><title>Node26&#45;&gt;Node24</title>
<path fill="none" stroke="midnightblue" d="M1418.93,-136.732C1429.51,-127.374 1442.3,-114.261 1450,-100 1461.01,-79.6214 1465.66,-53.0972 1467.61,-35.5835"/>
<polygon fill="midnightblue" stroke="midnightblue" points="1471.1,-35.8113 1468.54,-25.5307 1464.13,-35.1646 1471.1,-35.8113"/>
</g>
<!-- Node27 -->
<g id="node27" class="node"><title>Node27</title>
<polygon fill="none" stroke="#bfbfbf" points="1535.5,-74.5 1535.5,-93.5 1576.5,-93.5 1576.5,-74.5 1535.5,-74.5"/>
<text text-anchor="middle" x="1556" y="-81.5" font-family="Helvetica,sans-Serif" font-size="10.00">bitset</text>
</g>
<!-- Node26&#45;&gt;Node27 -->
<g id="edge33" class="edge"><title>Node26&#45;&gt;Node27</title>
<path fill="none" stroke="midnightblue" d="M1434.25,-136.841C1461.54,-125.221 1499.84,-108.912 1526.16,-97.7063"/>
<polygon fill="midnightblue" stroke="midnightblue" points="1527.78,-100.82 1535.61,-93.6819 1525.04,-94.3794 1527.78,-100.82"/>
</g>
<!-- Node28 -->
<g id="node28" class="node"><title>Node28</title>
<polygon fill="none" stroke="#bfbfbf" points="1675.5,-74.5 1675.5,-93.5 1724.5,-93.5 1724.5,-74.5 1675.5,-74.5"/>
<text text-anchor="middle" x="1700" y="-81.5" font-family="Helvetica,sans-Serif" font-size="10.00">cassert</text>
</g>
<!-- Node26&#45;&gt;Node28 -->
<g id="edge34" class="edge"><title>Node26&#45;&gt;Node28</title>
<path fill="none" stroke="midnightblue" d="M1479.18,-140.397C1532.29,-132.103 1603.75,-118.803 1665,-100 1667.49,-99.2361 1670.04,-98.3523 1672.57,-97.4036"/>
<polygon fill="midnightblue" stroke="midnightblue" points="1674.16,-100.539 1682.11,-93.5391 1671.53,-94.0512 1674.16,-100.539"/>
</g>
<!-- Node29 -->
<g id="node29" class="node"><title>Node29</title>
<polygon fill="none" stroke="#bfbfbf" points="1395,-74.5 1395,-93.5 1441,-93.5 1441,-74.5 1395,-74.5"/>
<text text-anchor="middle" x="1418" y="-81.5" font-family="Helvetica,sans-Serif" font-size="10.00">cstdint</text>
</g>
<!-- Node26&#45;&gt;Node29 -->
<g id="edge35" class="edge"><title>Node26&#45;&gt;Node29</title>
<path fill="none" stroke="midnightblue" d="M1404.69,-136.679C1407.18,-126.999 1410.5,-114.123 1413.2,-103.645"/>
<polygon fill="midnightblue" stroke="midnightblue" points="1416.62,-104.385 1415.73,-93.8283 1409.84,-102.639 1416.62,-104.385"/>
</g>
<!-- Node30 -->
<g id="node30" class="node"><title>Node30</title>
<polygon fill="none" stroke="#bfbfbf" points="1595,-74.5 1595,-93.5 1657,-93.5 1657,-74.5 1595,-74.5"/>
<text text-anchor="middle" x="1626" y="-81.5" font-family="Helvetica,sans-Serif" font-size="10.00">type_traits</text>
</g>
<!-- Node26&#45;&gt;Node30 -->
<g id="edge36" class="edge"><title>Node26&#45;&gt;Node30</title>
<path fill="none" stroke="midnightblue" d="M1456.09,-136.969C1492.83,-127.309 1542.07,-113.777 1585,-100 1587.94,-99.0576 1590.98,-98.0358 1594.01,-96.9838"/>
<polygon fill="midnightblue" stroke="midnightblue" points="1595.31,-100.235 1603.56,-93.58 1592.96,-93.6418 1595.31,-100.235"/>
</g>
<!-- Node31 -->
<g id="node31" class="node"><title>Node31</title>
<g id="a_node31"><a xlink:href="../../d9/d52/Common_2MathUtils_2include_2MathUtils_2Utils_8h.html" target="_top" xlink:title="MathUtils/Utils.h">
<polygon fill="none" stroke="black" points="1287,-74.5 1287,-93.5 1377,-93.5 1377,-74.5 1287,-74.5"/>
<text text-anchor="middle" x="1332" y="-81.5" font-family="Helvetica,sans-Serif" font-size="10.00">MathUtils/Utils.h</text>
</a>
</g>
</g>
<!-- Node26&#45;&gt;Node31 -->
<g id="edge37" class="edge"><title>Node26&#45;&gt;Node31</title>
<path fill="none" stroke="midnightblue" d="M1386.03,-136.679C1375.06,-126.184 1360.16,-111.932 1348.78,-101.052"/>
<polygon fill="midnightblue" stroke="midnightblue" points="1350.88,-98.2113 1341.23,-93.8283 1346.04,-103.27 1350.88,-98.2113"/>
</g>
<!-- Node31&#45;&gt;Node24 -->
<g id="edge38" class="edge"><title>Node31&#45;&gt;Node24</title>
<path fill="none" stroke="midnightblue" d="M1349.91,-74.3717C1373.29,-63.1063 1414.45,-43.2794 1441.72,-30.1403"/>
<polygon fill="midnightblue" stroke="midnightblue" points="1443.6,-33.1238 1451.09,-25.6305 1440.56,-26.8175 1443.6,-33.1238"/>
</g>
<!-- Node32 -->
<g id="node32" class="node"><title>Node32</title>
<polygon fill="none" stroke="#bfbfbf" points="1349,-6.5 1349,-25.5 1393,-25.5 1393,-6.5 1349,-6.5"/>
<text text-anchor="middle" x="1371" y="-13.5" font-family="Helvetica,sans-Serif" font-size="10.00">cmath</text>
</g>
<!-- Node31&#45;&gt;Node32 -->
<g id="edge39" class="edge"><title>Node31&#45;&gt;Node32</title>
<path fill="none" stroke="midnightblue" d="M1337.1,-74.3717C1343.02,-64.3478 1352.95,-47.5455 1360.54,-34.7076"/>
<polygon fill="midnightblue" stroke="midnightblue" points="1363.7,-36.231 1365.78,-25.8411 1357.68,-32.6698 1363.7,-36.231"/>
</g>
<!-- Node33 -->
<g id="node33" class="node"><title>Node33</title>
<g id="a_node33"><a xlink:href="../../d6/d84/MathConstants_8h.html" target="_top" xlink:title="useful math constants ">
<polygon fill="none" stroke="black" points="1151.5,-6.5 1151.5,-25.5 1330.5,-25.5 1330.5,-6.5 1151.5,-6.5"/>
<text text-anchor="middle" x="1241" y="-13.5" font-family="Helvetica,sans-Serif" font-size="10.00">CommonConstants/MathConstants.h</text>
</a>
</g>
</g>
<!-- Node31&#45;&gt;Node33 -->
<g id="edge40" class="edge"><title>Node31&#45;&gt;Node33</title>
<path fill="none" stroke="midnightblue" d="M1320.1,-74.3717C1305.12,-63.5015 1279.14,-44.6602 1261.06,-31.5474"/>
<polygon fill="midnightblue" stroke="midnightblue" points="1263.05,-28.6684 1252.9,-25.6305 1258.94,-34.3349 1263.05,-28.6684"/>
</g>
<!-- Node35 -->
<g id="node35" class="node"><title>Node35</title>
<g id="a_node35"><a xlink:href="../../d4/de2/BaseCluster_8h.html" target="_top" xlink:title="ReconstructionDataFormats\l/BaseCluster.h">
<polygon fill="none" stroke="black" points="1302,-273 1302,-303 1442,-303 1442,-273 1302,-273"/>
<text text-anchor="start" x="1310" y="-291" font-family="Helvetica,sans-Serif" font-size="10.00">ReconstructionDataFormats</text>
<text text-anchor="middle" x="1372" y="-280" font-family="Helvetica,sans-Serif" font-size="10.00">/BaseCluster.h</text>
</a>
</g>
</g>
<!-- Node34&#45;&gt;Node35 -->
<g id="edge44" class="edge"><title>Node34&#45;&gt;Node35</title>
<path fill="none" stroke="midnightblue" d="M1176.41,-346.372C1211.3,-336.139 1270.26,-318.842 1314.35,-305.911"/>
<polygon fill="midnightblue" stroke="midnightblue" points="1315.47,-309.23 1324.08,-303.056 1313.5,-302.513 1315.47,-309.23"/>
</g>
<!-- Node35&#45;&gt;Node2 -->
<g id="edge51" class="edge"><title>Node35&#45;&gt;Node2</title>
<path fill="none" stroke="midnightblue" d="M1311.09,-272.976C1194.44,-246.119 941.81,-187.953 837.021,-163.826"/>
<polygon fill="midnightblue" stroke="midnightblue" points="837.585,-160.364 827.054,-161.531 836.014,-167.186 837.585,-160.364"/>
</g>
<!-- Node35&#45;&gt;Node10 -->
<g id="edge49" class="edge"><title>Node35&#45;&gt;Node10</title>
<path fill="none" stroke="midnightblue" d="M1301.74,-280.444C1272.76,-273.871 1241.83,-261.004 1224,-236 1195.12,-195.498 1220.44,-133.173 1235.99,-102.829"/>
<polygon fill="midnightblue" stroke="midnightblue" points="1239.17,-104.311 1240.8,-93.8417 1232.99,-101.009 1239.17,-104.311"/>
</g>
<!-- Node35&#45;&gt;Node22 -->
<g id="edge50" class="edge"><title>Node35&#45;&gt;Node22</title>
<path fill="none" stroke="midnightblue" d="M1358.76,-272.679C1350.69,-263.944 1340.21,-252.605 1331.13,-242.775"/>
<polygon fill="midnightblue" stroke="midnightblue" points="1333.57,-240.261 1324.21,-235.293 1328.43,-245.012 1333.57,-240.261"/>
</g>
<!-- Node35&#45;&gt;Node27 -->
<g id="edge46" class="edge"><title>Node35&#45;&gt;Node27</title>
<path fill="none" stroke="midnightblue" d="M1442.18,-275.415C1501.17,-261.398 1581.14,-231.263 1615,-168 1621.71,-155.461 1620.92,-148.933 1615,-136 1607.91,-120.494 1593.51,-107.902 1580.72,-99.1089"/>
<polygon fill="midnightblue" stroke="midnightblue" points="1582.53,-96.1115 1572.23,-93.6396 1578.74,-101.997 1582.53,-96.1115"/>
</g>
<!-- Node36 -->
<g id="node36" class="node"><title>Node36</title>
<polygon fill="none" stroke="#bfbfbf" points="1663.5,-210.5 1663.5,-229.5 1722.5,-229.5 1722.5,-210.5 1663.5,-210.5"/>
<text text-anchor="middle" x="1693" y="-217.5" font-family="Helvetica,sans-Serif" font-size="10.00">TObject.h</text>
</g>
<!-- Node35&#45;&gt;Node36 -->
<g id="edge45" class="edge"><title>Node35&#45;&gt;Node36</title>
<path fill="none" stroke="midnightblue" d="M1442.06,-277.009C1498.44,-268.275 1579.45,-254.154 1649,-236 1652.65,-235.047 1656.44,-233.942 1660.18,-232.772"/>
<polygon fill="midnightblue" stroke="midnightblue" points="1661.49,-236.027 1669.9,-229.584 1659.31,-229.376 1661.49,-236.027"/>
</g>
<!-- Node37 -->
<g id="node37" class="node"><title>Node37</title>
<polygon fill="none" stroke="#bfbfbf" points="1407,-210.5 1407,-229.5 1457,-229.5 1457,-210.5 1407,-210.5"/>
<text text-anchor="middle" x="1432" y="-217.5" font-family="Helvetica,sans-Serif" font-size="10.00">iomanip</text>
</g>
<!-- Node35&#45;&gt;Node37 -->
<g id="edge47" class="edge"><title>Node35&#45;&gt;Node37</title>
<path fill="none" stroke="midnightblue" d="M1385.02,-272.679C1394.47,-262.286 1407.27,-248.208 1417.12,-237.37"/>
<polygon fill="midnightblue" stroke="midnightblue" points="1419.84,-239.582 1423.97,-229.828 1414.66,-234.873 1419.84,-239.582"/>
</g>
<!-- Node38 -->
<g id="node38" class="node"><title>Node38</title>
<polygon fill="none" stroke="#bfbfbf" points="1475.5,-210.5 1475.5,-229.5 1504.5,-229.5 1504.5,-210.5 1475.5,-210.5"/>
<text text-anchor="middle" x="1490" y="-217.5" font-family="Helvetica,sans-Serif" font-size="10.00">ios</text>
</g>
<!-- Node35&#45;&gt;Node38 -->
<g id="edge48" class="edge"><title>Node35&#45;&gt;Node38</title>
<path fill="none" stroke="midnightblue" d="M1398.99,-272.924C1417.91,-262.917 1443.71,-248.999 1466,-236 1466.53,-235.691 1467.07,-235.376 1467.61,-235.057"/>
<polygon fill="midnightblue" stroke="midnightblue" points="1469.66,-237.904 1476.38,-229.714 1466.02,-231.925 1469.66,-237.904"/>
</g>
<!-- Node39&#45;&gt;Node28 -->
<g id="edge55" class="edge"><title>Node39&#45;&gt;Node28</title>
<path fill="none" stroke="midnightblue" d="M1751.68,-136.679C1741.18,-126.184 1726.93,-111.932 1716.05,-101.052"/>
<polygon fill="midnightblue" stroke="midnightblue" points="1718.37,-98.4245 1708.83,-93.8283 1713.42,-103.374 1718.37,-98.4245"/>
</g>
<!-- Node39&#45;&gt;Node30 -->
<g id="edge58" class="edge"><title>Node39&#45;&gt;Node30</title>
<path fill="none" stroke="midnightblue" d="M1735.97,-136.841C1711.53,-125.323 1677.33,-109.199 1653.58,-98.0036"/>
<polygon fill="midnightblue" stroke="midnightblue" points="1654.95,-94.7803 1644.42,-93.6819 1651.97,-101.112 1654.95,-94.7803"/>
</g>
<!-- Node40 -->
<g id="node40" class="node"><title>Node40</title>
<polygon fill="none" stroke="#bfbfbf" points="1883,-74.5 1883,-93.5 1945,-93.5 1945,-74.5 1883,-74.5"/>
<text text-anchor="middle" x="1914" y="-81.5" font-family="Helvetica,sans-Serif" font-size="10.00">TNamed.h</text>
</g>
<!-- Node39&#45;&gt;Node40 -->
<g id="edge54" class="edge"><title>Node39&#45;&gt;Node40</title>
<path fill="none" stroke="midnightblue" d="M1797.75,-136.841C1823.69,-125.272 1860.06,-109.055 1885.17,-97.8547"/>
<polygon fill="midnightblue" stroke="midnightblue" points="1886.82,-100.951 1894.53,-93.6819 1883.97,-94.5582 1886.82,-100.951"/>
</g>
<!-- Node41 -->
<g id="node41" class="node"><title>Node41</title>
<polygon fill="none" stroke="#bfbfbf" points="1742.5,-74.5 1742.5,-93.5 1801.5,-93.5 1801.5,-74.5 1742.5,-74.5"/>
<text text-anchor="middle" x="1772" y="-81.5" font-family="Helvetica,sans-Serif" font-size="10.00">stdexcept</text>
</g>
<!-- Node39&#45;&gt;Node41 -->
<g id="edge56" class="edge"><title>Node39&#45;&gt;Node41</title>
<path fill="none" stroke="midnightblue" d="M1767.3,-136.679C1768.17,-127.101 1769.33,-114.394 1770.27,-103.977"/>
<polygon fill="midnightblue" stroke="midnightblue" points="1773.78,-104.104 1771.2,-93.8283 1766.81,-103.47 1773.78,-104.104"/>
</g>
<!-- Node42 -->
<g id="node42" class="node"><title>Node42</title>
<polygon fill="none" stroke="#bfbfbf" points="1819.5,-74.5 1819.5,-93.5 1864.5,-93.5 1864.5,-74.5 1819.5,-74.5"/>
<text text-anchor="middle" x="1842" y="-81.5" font-family="Helvetica,sans-Serif" font-size="10.00">gsl/gsl</text>
</g>
<!-- Node39&#45;&gt;Node42 -->
<g id="edge57" class="edge"><title>Node39&#45;&gt;Node42</title>
<path fill="none" stroke="midnightblue" d="M1782.49,-136.679C1794.81,-125.981 1811.63,-111.377 1824.24,-100.422"/>
<polygon fill="midnightblue" stroke="midnightblue" points="1826.58,-103.028 1831.83,-93.8283 1821.99,-97.7426 1826.58,-103.028"/>
</g>
</g>
</svg>
        <g id="navigator" transform="translate(0 0)" fill="#404254">
                <rect fill="#f2f5e9" fill-opacity="0.5" stroke="#606060" stroke-width=".5" x="0" y="0" width="60" height="60"/>
                <use id="zoomplus" xlink:href="#zoomPlus" x="17" y="9" onmousedown="handleZoom(evt,'in')"/>
                <use id="zoomminus" xlink:href="#zoomMin" x="42" y="9" onmousedown="handleZoom(evt,'out')"/>
                <use id="reset" xlink:href="#resetDef" x="30" y="36" onmousedown="handleReset()"/>
                <g id="arrowUp" xlink:href="#dirArrow" transform="translate(30 24)" onmousedown="handlePan(0,-1)">
                  <use xlink:href="#rim" fill="#404040">
                        <set attributeName="fill" to="#808080" begin="arrowUp.mouseover" end="arrowUp.mouseout"/>
                  </use>
                  <path fill="none" stroke="white" stroke-width="1.5" d="M0,-3.0v7 M-2.5,-0.5L0,-3.0L2.5,-0.5"/>
                </g>
                <g id="arrowRight" xlink:href="#dirArrow" transform="rotate(90) translate(36 -43)" onmousedown="handlePan(1,0)">
                  <use xlink:href="#rim" fill="#404040">
                        <set attributeName="fill" to="#808080" begin="arrowRight.mouseover" end="arrowRight.mouseout"/>
                  </use>
                  <path fill="none" stroke="white" stroke-width="1.5" d="M0,-3.0v7 M-2.5,-0.5L0,-3.0L2.5,-0.5"/>
                </g>
                <g id="arrowDown" xlink:href="#dirArrow" transform="rotate(180) translate(-30 -48)" onmousedown="handlePan(0,1)">
                  <use xlink:href="#rim" fill="#404040">
                        <set attributeName="fill" to="#808080" begin="arrowDown.mouseover" end="arrowDown.mouseout"/>
                  </use>
                  <path fill="none" stroke="white" stroke-width="1.5" d="M0,-3.0v7 M-2.5,-0.5L0,-3.0L2.5,-0.5"/>
                </g>
                <g id="arrowLeft" xlink:href="#dirArrow" transform="rotate(270) translate(-36 17)" onmousedown="handlePan(-1,0)">
                  <use xlink:href="#rim" fill="#404040">
                        <set attributeName="fill" to="#808080" begin="arrowLeft.mouseover" end="arrowLeft.mouseout"/>
                  </use>
                  <path fill="none" stroke="white" stroke-width="1.5" d="M0,-3.0v7 M-2.5,-0.5L0,-3.0L2.5,-0.5"/>
                </g>
        </g>
        <svg viewBox="0 0 15 15" width="100%" height="30px" preserveAspectRatio="xMaxYMin meet">
         <g id="arrow_out" transform="scale(0.3 0.3)">
          <a xlink:href="TrivialClusterer_8cxx__incl_org.svg" target="_base">
           <rect id="button" ry="5" rx="5" y="6" x="6" height="38" width="38"
                fill="#f2f5e9" fill-opacity="0.5" stroke="#606060" stroke-width="1.0"/>
           <path id="arrow"
             d="M 11.500037,31.436501 C 11.940474,20.09759 22.043105,11.32322 32.158766,21.979434 L 37.068811,17.246167 C 37.068811,17.246167 37.088388,32 37.088388,32 L 22.160133,31.978069 C 22.160133,31.978069 26.997745,27.140456 26.997745,27.140456 C 18.528582,18.264221 13.291696,25.230495 11.500037,31.436501 z"
             style="fill:#404040;"/>
          </a>
         </g>
        </svg>
</svg>
