<?xml version="1.0" encoding="UTF-8" standalone="no"?>
<!DOCTYPE svg PUBLIC "-//W3C//DTD SVG 1.1//EN"
 "http://www.w3.org/Graphics/SVG/1.1/DTD/svg11.dtd">
<!-- Generated by graphviz version 2.36.0 (20140111.2315)
 -->
<!-- Title: /home/travis/build/AliceO2Group/AliceO2/Utilities/DataFlow/src/TimeframeReaderDevice.cxx Pages: 1 -->
<svg width="833pt" height="298pt"
 viewBox="0.00 0.00 833.00 298.00" xmlns="http://www.w3.org/2000/svg" xmlns:xlink="http://www.w3.org/1999/xlink">
<g id="graph0" class="graph" transform="scale(1 1) rotate(0) translate(4 294)">
<title>/home/travis/build/AliceO2Group/AliceO2/Utilities/DataFlow/src/TimeframeReaderDevice.cxx</title>
<!-- Node1 -->
<g id="node1" class="node"><title>Node1</title>
<polygon fill="#bfbfbf" stroke="black" points="364.5,-237 364.5,-289 511.5,-289 511.5,-237 364.5,-237"/>
<text text-anchor="start" x="372.5" y="-277" font-family="Helvetica,sans-Serif" font-size="10.00">/home/travis/build</text>
<text text-anchor="start" x="372.5" y="-266" font-family="Helvetica,sans-Serif" font-size="10.00">/AliceO2Group/AliceO2</text>
<text text-anchor="start" x="372.5" y="-255" font-family="Helvetica,sans-Serif" font-size="10.00">/Utilities/DataFlow/src</text>
<text text-anchor="middle" x="438" y="-244" font-family="Helvetica,sans-Serif" font-size="10.00">/TimeframeReaderDevice.cxx</text>
</g>
<!-- Node2 -->
<g id="node2" class="node"><title>Node2</title>
<polygon fill="none" stroke="#bfbfbf" points="0,-0.5 0,-19.5 46,-19.5 46,-0.5 0,-0.5"/>
<text text-anchor="middle" x="23" y="-7.5" font-family="Helvetica,sans-Serif" font-size="10.00">cstring</text>
</g>
<!-- Node1&#45;&gt;Node2 -->
<g id="edge1" class="edge"><title>Node1&#45;&gt;Node2</title>
<path fill="none" stroke="midnightblue" d="M364.415,-240.573C332.225,-230.066 294.478,-216.177 262,-200 172.737,-155.539 148.589,-143.3 75,-76 59.2302,-61.5779 44.3283,-42.1291 34.5535,-28.2729"/>
<polygon fill="midnightblue" stroke="midnightblue" points="37.2096,-25.9586 28.6577,-19.7042 31.4428,-29.9265 37.2096,-25.9586"/>
</g>
<!-- Node3 -->
<g id="node3" class="node"><title>Node3</title>
<g id="a_node3"><a xlink:href="../../da/d74/TimeframeReaderDevice_8h.html" target="_top" xlink:title="DataFlow/TimeframeReader\lDevice.h">
<polygon fill="none" stroke="black" points="319,-169 319,-199 459,-199 459,-169 319,-169"/>
<text text-anchor="start" x="327" y="-187" font-family="Helvetica,sans-Serif" font-size="10.00">DataFlow/TimeframeReader</text>
<text text-anchor="middle" x="389" y="-176" font-family="Helvetica,sans-Serif" font-size="10.00">Device.h</text>
</a>
</g>
</g>
<!-- Node1&#45;&gt;Node3 -->
<g id="edge2" class="edge"><title>Node1&#45;&gt;Node3</title>
<path fill="none" stroke="midnightblue" d="M421.956,-236.787C416.011,-227.445 409.308,-216.913 403.508,-207.798"/>
<polygon fill="midnightblue" stroke="midnightblue" points="406.391,-205.81 398.069,-199.252 400.485,-209.568 406.391,-205.81"/>
</g>
<!-- Node6 -->
<g id="node6" class="node"><title>Node6</title>
<polygon fill="none" stroke="#bfbfbf" points="573,-56.5 573,-75.5 719,-75.5 719,-56.5 573,-56.5"/>
<text text-anchor="middle" x="646" y="-63.5" font-family="Helvetica,sans-Serif" font-size="10.00">options/FairMQProgOptions.h</text>
</g>
<!-- Node1&#45;&gt;Node6 -->
<g id="edge21" class="edge"><title>Node1&#45;&gt;Node6</title>
<path fill="none" stroke="midnightblue" d="M451.118,-236.741C471.19,-198.882 509.456,-129.941 531,-112 550.002,-96.1765 575.224,-85.4769 597.205,-78.4961"/>
<polygon fill="midnightblue" stroke="midnightblue" points="598.47,-81.771 607.042,-75.5454 596.458,-75.0661 598.47,-81.771"/>
</g>
<!-- Node7 -->
<g id="node7" class="node"><title>Node7</title>
<g id="a_node7"><a xlink:href="../../dc/dcd/DataHeader_8h.html" target="_top" xlink:title="Headers/DataHeader.h">
<polygon fill="none" stroke="black" points="84.5,-56.5 84.5,-75.5 201.5,-75.5 201.5,-56.5 84.5,-56.5"/>
<text text-anchor="middle" x="143" y="-63.5" font-family="Helvetica,sans-Serif" font-size="10.00">Headers/DataHeader.h</text>
</a>
</g>
</g>
<!-- Node1&#45;&gt;Node7 -->
<g id="edge20" class="edge"><title>Node1&#45;&gt;Node7</title>
<path fill="none" stroke="midnightblue" d="M379.196,-236.852C356.932,-226.477 331.732,-213.68 310,-200 251.189,-162.98 188.945,-108.846 159.843,-82.5229"/>
<polygon fill="midnightblue" stroke="midnightblue" points="161.977,-79.7327 152.228,-75.584 157.262,-84.9066 161.977,-79.7327"/>
</g>
<!-- Node15 -->
<g id="node15" class="node"><title>Node15</title>
<g id="a_node15"><a xlink:href="../../dd/ddb/TimeframeParser_8h.html" target="_top" xlink:title="DataFlow/TimeframeParser.h">
<polygon fill="none" stroke="black" points="515.5,-174.5 515.5,-193.5 660.5,-193.5 660.5,-174.5 515.5,-174.5"/>
<text text-anchor="middle" x="588" y="-181.5" font-family="Helvetica,sans-Serif" font-size="10.00">DataFlow/TimeframeParser.h</text>
</a>
</g>
</g>
<!-- Node1&#45;&gt;Node15 -->
<g id="edge15" class="edge"><title>Node1&#45;&gt;Node15</title>
<path fill="none" stroke="midnightblue" d="M487.116,-236.787C512.194,-223.914 541.674,-208.781 562.267,-198.21"/>
<polygon fill="midnightblue" stroke="midnightblue" points="564.031,-201.238 571.329,-193.558 560.834,-195.011 564.031,-201.238"/>
</g>
<!-- Node18 -->
<g id="node18" class="node"><title>Node18</title>
<g id="a_node18"><a xlink:href="../../d2/d1b/SubframeMetadata_8h.html" target="_top" xlink:title="Headers/SubframeMetadata.h">
<polygon fill="none" stroke="black" points="678.5,-174.5 678.5,-193.5 825.5,-193.5 825.5,-174.5 678.5,-174.5"/>
<text text-anchor="middle" x="752" y="-181.5" font-family="Helvetica,sans-Serif" font-size="10.00">Headers/SubframeMetadata.h</text>
</a>
</g>
</g>
<!-- Node1&#45;&gt;Node18 -->
<g id="edge18" class="edge"><title>Node1&#45;&gt;Node18</title>
<path fill="none" stroke="midnightblue" d="M511.619,-243.947C572.287,-229.07 656.356,-208.454 707.308,-195.96"/>
<polygon fill="midnightblue" stroke="midnightblue" points="708.161,-199.354 717.04,-193.573 706.494,-192.556 708.161,-199.354"/>
</g>
<!-- Node4 -->
<g id="node4" class="node"><title>Node4</title>
<g id="a_node4"><a xlink:href="../../d2/dee/O2Device_8h.html" target="_top" xlink:title="O2Device/O2Device.h">
<polygon fill="none" stroke="black" points="275.5,-112.5 275.5,-131.5 390.5,-131.5 390.5,-112.5 275.5,-112.5"/>
<text text-anchor="middle" x="333" y="-119.5" font-family="Helvetica,sans-Serif" font-size="10.00">O2Device/O2Device.h</text>
</a>
</g>
</g>
<!-- Node3&#45;&gt;Node4 -->
<g id="edge3" class="edge"><title>Node3&#45;&gt;Node4</title>
<path fill="none" stroke="midnightblue" d="M375.729,-168.781C367.424,-159.882 356.701,-148.394 348.076,-139.152"/>
<polygon fill="midnightblue" stroke="midnightblue" points="350.53,-136.653 341.148,-131.731 345.413,-141.429 350.53,-136.653"/>
</g>
<!-- Node14 -->
<g id="node14" class="node"><title>Node14</title>
<polygon fill="none" stroke="#bfbfbf" points="409,-112.5 409,-131.5 459,-131.5 459,-112.5 409,-112.5"/>
<text text-anchor="middle" x="434" y="-119.5" font-family="Helvetica,sans-Serif" font-size="10.00">fstream</text>
</g>
<!-- Node3&#45;&gt;Node14 -->
<g id="edge14" class="edge"><title>Node3&#45;&gt;Node14</title>
<path fill="none" stroke="midnightblue" d="M399.664,-168.781C406.136,-160.152 414.434,-149.088 421.251,-139.999"/>
<polygon fill="midnightblue" stroke="midnightblue" points="424.252,-141.831 427.452,-131.731 418.652,-137.631 424.252,-141.831"/>
</g>
<!-- Node5 -->
<g id="node5" class="node"><title>Node5</title>
<polygon fill="none" stroke="#bfbfbf" points="220,-56.5 220,-75.5 308,-75.5 308,-56.5 220,-56.5"/>
<text text-anchor="middle" x="264" y="-63.5" font-family="Helvetica,sans-Serif" font-size="10.00">FairMQDevice.h</text>
</g>
<!-- Node4&#45;&gt;Node5 -->
<g id="edge4" class="edge"><title>Node4&#45;&gt;Node5</title>
<path fill="none" stroke="midnightblue" d="M321.914,-112.324C311.514,-104.185 295.739,-91.8395 283.278,-82.0874"/>
<polygon fill="midnightblue" stroke="midnightblue" points="285.32,-79.2407 275.288,-75.8339 281.006,-84.7533 285.32,-79.2407"/>
</g>
<!-- Node4&#45;&gt;Node6 -->
<g id="edge5" class="edge"><title>Node4&#45;&gt;Node6</title>
<path fill="none" stroke="midnightblue" d="M382.596,-112.444C437.999,-102.885 527.643,-87.4195 586.705,-77.2298"/>
<polygon fill="midnightblue" stroke="midnightblue" points="587.377,-80.6657 596.636,-75.5164 586.187,-73.7676 587.377,-80.6657"/>
</g>
<!-- Node4&#45;&gt;Node7 -->
<g id="edge6" class="edge"><title>Node4&#45;&gt;Node7</title>
<path fill="none" stroke="midnightblue" d="M302.894,-112.444C270.374,-103.201 218.421,-88.4356 182.609,-78.2572"/>
<polygon fill="midnightblue" stroke="midnightblue" points="183.541,-74.8837 172.965,-75.5164 181.627,-81.617 183.541,-74.8837"/>
</g>
<!-- Node12 -->
<g id="node12" class="node"><title>Node12</title>
<polygon fill="none" stroke="#bfbfbf" points="326.5,-56.5 326.5,-75.5 477.5,-75.5 477.5,-56.5 326.5,-56.5"/>
<text text-anchor="middle" x="402" y="-63.5" font-family="Helvetica,sans-Serif" font-size="10.00">Monitoring/MonitoringFactory.h</text>
</g>
<!-- Node4&#45;&gt;Node12 -->
<g id="edge12" class="edge"><title>Node4&#45;&gt;Node12</title>
<path fill="none" stroke="midnightblue" d="M344.086,-112.324C354.486,-104.185 370.261,-91.8395 382.722,-82.0874"/>
<polygon fill="midnightblue" stroke="midnightblue" points="384.994,-84.7533 390.712,-75.8339 380.68,-79.2407 384.994,-84.7533"/>
</g>
<!-- Node13 -->
<g id="node13" class="node"><title>Node13</title>
<polygon fill="none" stroke="#bfbfbf" points="495.5,-56.5 495.5,-75.5 554.5,-75.5 554.5,-56.5 495.5,-56.5"/>
<text text-anchor="middle" x="525" y="-63.5" font-family="Helvetica,sans-Serif" font-size="10.00">stdexcept</text>
</g>
<!-- Node4&#45;&gt;Node13 -->
<g id="edge13" class="edge"><title>Node4&#45;&gt;Node13</title>
<path fill="none" stroke="midnightblue" d="M363.423,-112.444C396.478,-103.147 449.403,-88.2617 485.611,-78.0781"/>
<polygon fill="midnightblue" stroke="midnightblue" points="486.671,-81.4158 495.35,-75.339 484.776,-74.6772 486.671,-81.4158"/>
</g>
<!-- Node7&#45;&gt;Node2 -->
<g id="edge10" class="edge"><title>Node7&#45;&gt;Node2</title>
<path fill="none" stroke="midnightblue" d="M123.986,-56.4435C104.412,-47.6356 73.6924,-33.8116 51.2711,-23.722"/>
<polygon fill="midnightblue" stroke="midnightblue" points="52.4809,-20.4284 41.9254,-19.5164 49.6083,-26.8119 52.4809,-20.4284"/>
</g>
<!-- Node8 -->
<g id="node8" class="node"><title>Node8</title>
<polygon fill="none" stroke="#bfbfbf" points="64,-0.5 64,-19.5 110,-19.5 110,-0.5 64,-0.5"/>
<text text-anchor="middle" x="87" y="-7.5" font-family="Helvetica,sans-Serif" font-size="10.00">cstdint</text>
</g>
<!-- Node7&#45;&gt;Node8 -->
<g id="edge7" class="edge"><title>Node7&#45;&gt;Node8</title>
<path fill="none" stroke="midnightblue" d="M134.003,-56.324C125.806,-48.4196 113.494,-36.5482 103.528,-26.9377"/>
<polygon fill="midnightblue" stroke="midnightblue" points="105.789,-24.2558 96.1611,-19.8339 100.93,-29.2947 105.789,-24.2558"/>
</g>
<!-- Node9 -->
<g id="node9" class="node"><title>Node9</title>
<polygon fill="none" stroke="#bfbfbf" points="128,-0.5 128,-19.5 180,-19.5 180,-0.5 128,-0.5"/>
<text text-anchor="middle" x="154" y="-7.5" font-family="Helvetica,sans-Serif" font-size="10.00">memory</text>
</g>
<!-- Node7&#45;&gt;Node9 -->
<g id="edge8" class="edge"><title>Node7&#45;&gt;Node9</title>
<path fill="none" stroke="midnightblue" d="M144.816,-56.083C146.274,-48.9272 148.371,-38.6353 150.193,-29.6911"/>
<polygon fill="midnightblue" stroke="midnightblue" points="153.651,-30.2485 152.217,-19.7511 146.792,-28.8512 153.651,-30.2485"/>
</g>
<!-- Node10 -->
<g id="node10" class="node"><title>Node10</title>
<polygon fill="none" stroke="#bfbfbf" points="198.5,-0.5 198.5,-19.5 247.5,-19.5 247.5,-0.5 198.5,-0.5"/>
<text text-anchor="middle" x="223" y="-7.5" font-family="Helvetica,sans-Serif" font-size="10.00">cassert</text>
</g>
<!-- Node7&#45;&gt;Node10 -->
<g id="edge9" class="edge"><title>Node7&#45;&gt;Node10</title>
<path fill="none" stroke="midnightblue" d="M155.853,-56.324C168.216,-47.979 187.13,-35.2122 201.737,-25.3524"/>
<polygon fill="midnightblue" stroke="midnightblue" points="203.848,-28.1503 210.179,-19.6545 199.932,-22.3483 203.848,-28.1503"/>
</g>
<!-- Node11 -->
<g id="node11" class="node"><title>Node11</title>
<polygon fill="none" stroke="#bfbfbf" points="266,-0.5 266,-19.5 322,-19.5 322,-0.5 266,-0.5"/>
<text text-anchor="middle" x="294" y="-7.5" font-family="Helvetica,sans-Serif" font-size="10.00">algorithm</text>
</g>
<!-- Node7&#45;&gt;Node11 -->
<g id="edge11" class="edge"><title>Node7&#45;&gt;Node11</title>
<path fill="none" stroke="midnightblue" d="M166.926,-56.4435C192.219,-47.3986 232.302,-33.064 260.68,-22.9158"/>
<polygon fill="midnightblue" stroke="midnightblue" points="261.948,-26.1794 270.186,-19.5164 259.591,-19.5882 261.948,-26.1794"/>
</g>
<!-- Node16 -->
<g id="node16" class="node"><title>Node16</title>
<polygon fill="none" stroke="#bfbfbf" points="540.5,-112.5 540.5,-131.5 585.5,-131.5 585.5,-112.5 540.5,-112.5"/>
<text text-anchor="middle" x="563" y="-119.5" font-family="Helvetica,sans-Serif" font-size="10.00">iosfwd</text>
</g>
<!-- Node15&#45;&gt;Node16 -->
<g id="edge16" class="edge"><title>Node15&#45;&gt;Node16</title>
<path fill="none" stroke="midnightblue" d="M584.418,-174.403C580.817,-165.76 575.154,-152.17 570.556,-141.134"/>
<polygon fill="midnightblue" stroke="midnightblue" points="573.652,-139.465 566.575,-131.581 567.191,-142.158 573.652,-139.465"/>
</g>
<!-- Node17 -->
<g id="node17" class="node"><title>Node17</title>
<polygon fill="none" stroke="#bfbfbf" points="603.5,-112.5 603.5,-131.5 662.5,-131.5 662.5,-112.5 603.5,-112.5"/>
<text text-anchor="middle" x="633" y="-119.5" font-family="Helvetica,sans-Serif" font-size="10.00">functional</text>
</g>
<!-- Node15&#45;&gt;Node17 -->
<g id="edge17" class="edge"><title>Node15&#45;&gt;Node17</title>
<path fill="none" stroke="midnightblue" d="M594.447,-174.403C601.197,-165.403 611.969,-151.041 620.413,-139.782"/>
<polygon fill="midnightblue" stroke="midnightblue" points="623.365,-141.681 626.565,-131.581 617.765,-137.481 623.365,-141.681"/>
</g>
<!-- Node19 -->
<g id="node19" class="node"><title>Node19</title>
<polygon fill="none" stroke="#bfbfbf" points="730,-112.5 730,-131.5 774,-131.5 774,-112.5 730,-112.5"/>
<text text-anchor="middle" x="752" y="-119.5" font-family="Helvetica,sans-Serif" font-size="10.00">vector</text>
</g>
<!-- Node18&#45;&gt;Node19 -->
<g id="edge19" class="edge"><title>Node18&#45;&gt;Node19</title>
<path fill="none" stroke="midnightblue" d="M752,-174.403C752,-165.938 752,-152.728 752,-141.82"/>
<polygon fill="midnightblue" stroke="midnightblue" points="755.5,-141.581 752,-131.581 748.5,-141.581 755.5,-141.581"/>
</g>
</g>
</svg>
