<?xml version="1.0" encoding="UTF-8" standalone="no"?>
<!DOCTYPE svg PUBLIC "-//W3C//DTD SVG 1.1//EN"
 "http://www.w3.org/Graphics/SVG/1.1/DTD/svg11.dtd">
<!-- Generated by graphviz version 2.36.0 (20140111.2315)
 -->
<!-- Title: /home/travis/build/AliceO2Group/AliceO2/Detectors/Base/src/Detector.cxx Pages: 1 -->
<svg width="2593pt" height="366pt"
 viewBox="0.00 0.00 2592.67 366.00" xmlns="http://www.w3.org/2000/svg" xmlns:xlink="http://www.w3.org/1999/xlink">
<g id="graph0" class="graph" transform="scale(1 1) rotate(0) translate(4 362)">
<title>/home/travis/build/AliceO2Group/AliceO2/Detectors/Base/src/Detector.cxx</title>
<!-- Node1 -->
<g id="node1" class="node"><title>Node1</title>
<polygon fill="#bfbfbf" stroke="black" points="991,-316.5 991,-357.5 1155,-357.5 1155,-316.5 991,-316.5"/>
<text text-anchor="start" x="999" y="-345.5" font-family="Helvetica,sans-Serif" font-size="10.00">/home/travis/build</text>
<text text-anchor="start" x="999" y="-334.5" font-family="Helvetica,sans-Serif" font-size="10.00">/AliceO2Group/AliceO2</text>
<text text-anchor="middle" x="1073" y="-323.5" font-family="Helvetica,sans-Serif" font-size="10.00">/Detectors/Base/src/Detector.cxx</text>
</g>
<!-- Node2 -->
<g id="node2" class="node"><title>Node2</title>
<g id="a_node2"><a xlink:href="../../d1/d3a/Base_2include_2DetectorsBase_2Detector_8h.html" target="_top" xlink:title="DetectorsBase/Detector.h">
<polygon fill="none" stroke="black" points="620.5,-254.5 620.5,-273.5 751.5,-273.5 751.5,-254.5 620.5,-254.5"/>
<text text-anchor="middle" x="686" y="-261.5" font-family="Helvetica,sans-Serif" font-size="10.00">DetectorsBase/Detector.h</text>
</a>
</g>
</g>
<!-- Node1&#45;&gt;Node2 -->
<g id="edge1" class="edge"><title>Node1&#45;&gt;Node2</title>
<path fill="none" stroke="midnightblue" d="M990.927,-320.943C916.267,-307.245 808.032,-287.388 742.604,-275.385"/>
<polygon fill="midnightblue" stroke="midnightblue" points="742.95,-271.89 732.483,-273.528 741.687,-278.775 742.95,-271.89"/>
</g>
<!-- Node8 -->
<g id="node8" class="node"><title>Node8</title>
<g id="a_node8"><a xlink:href="../../d0/d9a/MaterialManager_8h.html" target="_top" xlink:title="DetectorsBase/MaterialManager.h">
<polygon fill="none" stroke="black" points="741.5,-192.5 741.5,-211.5 906.5,-211.5 906.5,-192.5 741.5,-192.5"/>
<text text-anchor="middle" x="824" y="-199.5" font-family="Helvetica,sans-Serif" font-size="10.00">DetectorsBase/MaterialManager.h</text>
</a>
</g>
</g>
<!-- Node1&#45;&gt;Node8 -->
<g id="edge16" class="edge"><title>Node1&#45;&gt;Node8</title>
<path fill="none" stroke="midnightblue" d="M1032.58,-316.38C1011.18,-305.842 984.524,-292.483 961,-280 920.684,-258.607 874.561,-232.295 847.433,-216.627"/>
<polygon fill="midnightblue" stroke="midnightblue" points="849.078,-213.535 838.67,-211.554 845.571,-219.593 849.078,-213.535"/>
</g>
<!-- Node14 -->
<g id="node14" class="node"><title>Node14</title>
<polygon fill="none" stroke="#bfbfbf" points="970,-254.5 970,-273.5 1044,-273.5 1044,-254.5 970,-254.5"/>
<text text-anchor="middle" x="1007" y="-261.5" font-family="Helvetica,sans-Serif" font-size="10.00">TVirtualMC.h</text>
</g>
<!-- Node1&#45;&gt;Node14 -->
<g id="edge15" class="edge"><title>Node1&#45;&gt;Node14</title>
<path fill="none" stroke="midnightblue" d="M1054.62,-316.223C1044.38,-305.214 1031.8,-291.679 1022.14,-281.287"/>
<polygon fill="midnightblue" stroke="midnightblue" points="1024.49,-278.676 1015.12,-273.735 1019.36,-283.442 1024.49,-278.676"/>
</g>
<!-- Node15 -->
<g id="node15" class="node"><title>Node15</title>
<g id="a_node15"><a xlink:href="../../d6/d31/DetID_8h.html" target="_top" xlink:title="DetectorsCommonDataFormats\l/DetID.h">
<polygon fill="none" stroke="black" points="1062,-249 1062,-279 1218,-279 1218,-249 1062,-249"/>
<text text-anchor="start" x="1070" y="-267" font-family="Helvetica,sans-Serif" font-size="10.00">DetectorsCommonDataFormats</text>
<text text-anchor="middle" x="1140" y="-256" font-family="Helvetica,sans-Serif" font-size="10.00">/DetID.h</text>
</a>
</g>
</g>
<!-- Node1&#45;&gt;Node15 -->
<g id="edge17" class="edge"><title>Node1&#45;&gt;Node15</title>
<path fill="none" stroke="midnightblue" d="M1091.66,-316.223C1100.38,-306.99 1110.77,-295.98 1119.68,-286.538"/>
<polygon fill="midnightblue" stroke="midnightblue" points="1122.43,-288.724 1126.74,-279.049 1117.33,-283.919 1122.43,-288.724"/>
</g>
<!-- Node23 -->
<g id="node23" class="node"><title>Node23</title>
<g id="a_node23"><a xlink:href="../../db/d4b/MagneticField_8h.html" target="_top" xlink:title="Definition of the MagF class. ">
<polygon fill="none" stroke="black" points="1841,-254.5 1841,-273.5 1951,-273.5 1951,-254.5 1841,-254.5"/>
<text text-anchor="middle" x="1896" y="-261.5" font-family="Helvetica,sans-Serif" font-size="10.00">Field/MagneticField.h</text>
</a>
</g>
</g>
<!-- Node1&#45;&gt;Node23 -->
<g id="edge28" class="edge"><title>Node1&#45;&gt;Node23</title>
<path fill="none" stroke="midnightblue" d="M1155.3,-328.9C1318.9,-314.787 1681.98,-283.464 1830.62,-270.64"/>
<polygon fill="midnightblue" stroke="midnightblue" points="1831.29,-274.096 1840.95,-269.749 1830.69,-267.122 1831.29,-274.096"/>
</g>
<!-- Node27 -->
<g id="node27" class="node"><title>Node27</title>
<polygon fill="none" stroke="#bfbfbf" points="2180,-74.5 2180,-93.5 2236,-93.5 2236,-74.5 2180,-74.5"/>
<text text-anchor="middle" x="2208" y="-81.5" font-family="Helvetica,sans-Serif" font-size="10.00">TString.h</text>
</g>
<!-- Node1&#45;&gt;Node27 -->
<g id="edge68" class="edge"><title>Node1&#45;&gt;Node27</title>
<path fill="none" stroke="midnightblue" d="M1155.01,-333.414C1344.28,-327.027 1807.06,-308.894 1960,-280 2057.23,-261.631 2103.24,-283.154 2172,-212 2200.71,-182.296 2206.84,-131.46 2207.95,-103.976"/>
<polygon fill="midnightblue" stroke="midnightblue" points="2211.45,-103.83 2208.17,-93.7565 2204.46,-103.678 2211.45,-103.83"/>
</g>
<!-- Node3 -->
<g id="node3" class="node"><title>Node3</title>
<polygon fill="none" stroke="#bfbfbf" points="727.5,-136.5 727.5,-155.5 762.5,-155.5 762.5,-136.5 727.5,-136.5"/>
<text text-anchor="middle" x="745" y="-143.5" font-family="Helvetica,sans-Serif" font-size="10.00">map</text>
</g>
<!-- Node2&#45;&gt;Node3 -->
<g id="edge2" class="edge"><title>Node2&#45;&gt;Node3</title>
<path fill="none" stroke="midnightblue" d="M690.435,-254.281C700.092,-235.294 723.184,-189.892 736.017,-164.662"/>
<polygon fill="midnightblue" stroke="midnightblue" points="739.26,-166.005 740.674,-155.505 733.021,-162.831 739.26,-166.005"/>
</g>
<!-- Node4 -->
<g id="node4" class="node"><title>Node4</title>
<polygon fill="none" stroke="#bfbfbf" points="285,-192.5 285,-211.5 329,-211.5 329,-192.5 285,-192.5"/>
<text text-anchor="middle" x="307" y="-199.5" font-family="Helvetica,sans-Serif" font-size="10.00">vector</text>
</g>
<!-- Node2&#45;&gt;Node4 -->
<g id="edge3" class="edge"><title>Node2&#45;&gt;Node4</title>
<path fill="none" stroke="midnightblue" d="M620.192,-256.292C551.844,-248.671 441.739,-234.564 339.093,-212.237"/>
<polygon fill="midnightblue" stroke="midnightblue" points="339.704,-208.787 329.185,-210.05 338.196,-215.623 339.704,-208.787"/>
</g>
<!-- Node5 -->
<g id="node5" class="node"><title>Node5</title>
<polygon fill="none" stroke="#bfbfbf" points="1179,-192.5 1179,-211.5 1231,-211.5 1231,-192.5 1179,-192.5"/>
<text text-anchor="middle" x="1205" y="-199.5" font-family="Helvetica,sans-Serif" font-size="10.00">memory</text>
</g>
<!-- Node2&#45;&gt;Node5 -->
<g id="edge4" class="edge"><title>Node2&#45;&gt;Node5</title>
<path fill="none" stroke="midnightblue" d="M751.639,-258.99C842.928,-252.766 1013.47,-238.799 1168.55,-211.811"/>
<polygon fill="midnightblue" stroke="midnightblue" points="1169.5,-215.197 1178.75,-210.014 1168.29,-208.303 1169.5,-215.197"/>
</g>
<!-- Node6 -->
<g id="node6" class="node"><title>Node6</title>
<polygon fill="none" stroke="#bfbfbf" points="346.5,-192.5 346.5,-211.5 425.5,-211.5 425.5,-192.5 346.5,-192.5"/>
<text text-anchor="middle" x="386" y="-199.5" font-family="Helvetica,sans-Serif" font-size="10.00">FairDetector.h</text>
</g>
<!-- Node2&#45;&gt;Node6 -->
<g id="edge5" class="edge"><title>Node2&#45;&gt;Node6</title>
<path fill="none" stroke="midnightblue" d="M643.336,-254.467C588.551,-243.51 493.651,-224.53 435.674,-212.935"/>
<polygon fill="midnightblue" stroke="midnightblue" points="436.139,-209.459 425.647,-210.929 434.767,-216.323 436.139,-209.459"/>
</g>
<!-- Node7 -->
<g id="node7" class="node"><title>Node7</title>
<polygon fill="none" stroke="#bfbfbf" points="444,-192.5 444,-211.5 544,-211.5 544,-192.5 444,-192.5"/>
<text text-anchor="middle" x="494" y="-199.5" font-family="Helvetica,sans-Serif" font-size="10.00">FairRootManager.h</text>
</g>
<!-- Node2&#45;&gt;Node7 -->
<g id="edge6" class="edge"><title>Node2&#45;&gt;Node7</title>
<path fill="none" stroke="midnightblue" d="M658.491,-254.403C625.129,-243.978 568.738,-226.356 531.437,-214.699"/>
<polygon fill="midnightblue" stroke="midnightblue" points="532.047,-211.223 521.458,-211.581 529.959,-217.904 532.047,-211.223"/>
</g>
<!-- Node2&#45;&gt;Node8 -->
<g id="edge7" class="edge"><title>Node2&#45;&gt;Node8</title>
<path fill="none" stroke="midnightblue" d="M705.772,-254.403C729.136,-244.245 768.214,-227.255 795.003,-215.607"/>
<polygon fill="midnightblue" stroke="midnightblue" points="796.489,-218.778 804.265,-211.581 793.698,-212.358 796.489,-218.778"/>
</g>
<!-- Node9 -->
<g id="node9" class="node"><title>Node9</title>
<polygon fill="none" stroke="#bfbfbf" points="1949,-6.5 1949,-25.5 2005,-25.5 2005,-6.5 1949,-6.5"/>
<text text-anchor="middle" x="1977" y="-13.5" font-family="Helvetica,sans-Serif" font-size="10.00">Rtypes.h</text>
</g>
<!-- Node2&#45;&gt;Node9 -->
<g id="edge10" class="edge"><title>Node2&#45;&gt;Node9</title>
<path fill="none" stroke="midnightblue" d="M620.255,-262.211C493.605,-259.451 231.977,-247.097 276,-192 431.876,3.0878 576.505,-101.205 824,-68 1046.72,-38.1189 1764.31,-21.4478 1938.59,-17.7776"/>
<polygon fill="midnightblue" stroke="midnightblue" points="1938.89,-21.2723 1948.82,-17.5642 1938.75,-14.2738 1938.89,-21.2723"/>
</g>
<!-- Node10 -->
<g id="node10" class="node"><title>Node10</title>
<polygon fill="none" stroke="#bfbfbf" points="562.5,-192.5 562.5,-211.5 615.5,-211.5 615.5,-192.5 562.5,-192.5"/>
<text text-anchor="middle" x="589" y="-199.5" font-family="Helvetica,sans-Serif" font-size="10.00">cxxabi.h</text>
</g>
<!-- Node2&#45;&gt;Node10 -->
<g id="edge11" class="edge"><title>Node2&#45;&gt;Node10</title>
<path fill="none" stroke="midnightblue" d="M672.102,-254.403C656.256,-244.601 630.126,-228.439 611.395,-216.853"/>
<polygon fill="midnightblue" stroke="midnightblue" points="613.218,-213.865 602.872,-211.581 609.535,-219.818 613.218,-213.865"/>
</g>
<!-- Node11 -->
<g id="node11" class="node"><title>Node11</title>
<polygon fill="none" stroke="#bfbfbf" points="633.5,-192.5 633.5,-211.5 684.5,-211.5 684.5,-192.5 633.5,-192.5"/>
<text text-anchor="middle" x="659" y="-199.5" font-family="Helvetica,sans-Serif" font-size="10.00">typeinfo</text>
</g>
<!-- Node2&#45;&gt;Node11 -->
<g id="edge12" class="edge"><title>Node2&#45;&gt;Node11</title>
<path fill="none" stroke="midnightblue" d="M682.132,-254.403C678.202,-245.671 672,-231.889 667.007,-220.794"/>
<polygon fill="midnightblue" stroke="midnightblue" points="670.157,-219.264 662.861,-211.581 663.773,-222.136 670.157,-219.264"/>
</g>
<!-- Node12 -->
<g id="node12" class="node"><title>Node12</title>
<polygon fill="none" stroke="#bfbfbf" points="963,-192.5 963,-211.5 1025,-211.5 1025,-192.5 963,-192.5"/>
<text text-anchor="middle" x="994" y="-199.5" font-family="Helvetica,sans-Serif" font-size="10.00">type_traits</text>
</g>
<!-- Node2&#45;&gt;Node12 -->
<g id="edge13" class="edge"><title>Node2&#45;&gt;Node12</title>
<path fill="none" stroke="midnightblue" d="M730.689,-254.417C783.029,-244.345 872.336,-227.1 949,-212 950.094,-211.784 951.204,-211.566 952.323,-211.344"/>
<polygon fill="midnightblue" stroke="midnightblue" points="953.406,-214.698 962.533,-209.318 952.043,-207.832 953.406,-214.698"/>
</g>
<!-- Node13 -->
<g id="node13" class="node"><title>Node13</title>
<polygon fill="none" stroke="#bfbfbf" points="1255.5,-136.5 1255.5,-155.5 1296.5,-155.5 1296.5,-136.5 1255.5,-136.5"/>
<text text-anchor="middle" x="1276" y="-143.5" font-family="Helvetica,sans-Serif" font-size="10.00">string</text>
</g>
<!-- Node2&#45;&gt;Node13 -->
<g id="edge14" class="edge"><title>Node2&#45;&gt;Node13</title>
<path fill="none" stroke="midnightblue" d="M743.133,-254.44C790.164,-246.412 858.109,-232.541 915,-212 933.322,-205.385 935.382,-197.728 954,-192 1078.56,-153.679 1117.35,-182.251 1245,-156 1245.21,-155.956 1245.43,-155.912 1245.64,-155.867"/>
<polygon fill="midnightblue" stroke="midnightblue" points="1246.56,-159.245 1255.44,-153.466 1244.89,-152.446 1246.56,-159.245"/>
</g>
<!-- Node8&#45;&gt;Node3 -->
<g id="edge9" class="edge"><title>Node8&#45;&gt;Node3</title>
<path fill="none" stroke="midnightblue" d="M811.307,-192.324C799.099,-183.979 780.422,-171.212 765.997,-161.352"/>
<polygon fill="midnightblue" stroke="midnightblue" points="767.892,-158.408 757.661,-155.655 763.942,-164.187 767.892,-158.408"/>
</g>
<!-- Node8&#45;&gt;Node9 -->
<g id="edge8" class="edge"><title>Node8&#45;&gt;Node9</title>
<path fill="none" stroke="midnightblue" d="M822.398,-192.462C818.451,-168.502 811.091,-100.287 848,-68 889.918,-31.3307 1745.81,-19.5868 1938.64,-17.4016"/>
<polygon fill="midnightblue" stroke="midnightblue" points="1938.9,-20.899 1948.86,-17.2878 1938.82,-13.8995 1938.9,-20.899"/>
</g>
<!-- Node15&#45;&gt;Node9 -->
<g id="edge18" class="edge"><title>Node15&#45;&gt;Node9</title>
<path fill="none" stroke="midnightblue" d="M1119.25,-248.865C1097.82,-234.347 1063.31,-211.22 1033,-192 959.369,-145.316 820.802,-131.065 881,-68 918.273,-28.9522 1749.11,-19.0672 1938.71,-17.3165"/>
<polygon fill="midnightblue" stroke="midnightblue" points="1938.8,-20.816 1948.77,-17.2258 1938.74,-13.8163 1938.8,-20.816"/>
</g>
<!-- Node15&#45;&gt;Node12 -->
<g id="edge23" class="edge"><title>Node15&#45;&gt;Node12</title>
<path fill="none" stroke="midnightblue" d="M1105.77,-248.933C1081.14,-238.81 1048.21,-225.278 1024.48,-215.527"/>
<polygon fill="midnightblue" stroke="midnightblue" points="1025.51,-212.164 1014.93,-211.6 1022.85,-218.639 1025.51,-212.164"/>
</g>
<!-- Node16 -->
<g id="node16" class="node"><title>Node16</title>
<polygon fill="none" stroke="#bfbfbf" points="1094,-136.5 1094,-155.5 1132,-155.5 1132,-136.5 1094,-136.5"/>
<text text-anchor="middle" x="1113" y="-143.5" font-family="Helvetica,sans-Serif" font-size="10.00">array</text>
</g>
<!-- Node15&#45;&gt;Node16 -->
<g id="edge19" class="edge"><title>Node15&#45;&gt;Node16</title>
<path fill="none" stroke="midnightblue" d="M1128.82,-248.773C1121.91,-239.031 1113.67,-225.48 1110,-212 1105.87,-196.825 1107.12,-178.932 1109.12,-165.765"/>
<polygon fill="midnightblue" stroke="midnightblue" points="1112.62,-166.06 1110.95,-155.597 1105.73,-164.817 1112.62,-166.06"/>
</g>
<!-- Node17 -->
<g id="node17" class="node"><title>Node17</title>
<polygon fill="none" stroke="#bfbfbf" points="1119.5,-192.5 1119.5,-211.5 1160.5,-211.5 1160.5,-192.5 1119.5,-192.5"/>
<text text-anchor="middle" x="1140" y="-199.5" font-family="Helvetica,sans-Serif" font-size="10.00">bitset</text>
</g>
<!-- Node15&#45;&gt;Node17 -->
<g id="edge20" class="edge"><title>Node15&#45;&gt;Node17</title>
<path fill="none" stroke="midnightblue" d="M1140,-248.781C1140,-240.781 1140,-230.689 1140,-222.017"/>
<polygon fill="midnightblue" stroke="midnightblue" points="1143.5,-221.73 1140,-211.731 1136.5,-221.731 1143.5,-221.73"/>
</g>
<!-- Node18 -->
<g id="node18" class="node"><title>Node18</title>
<polygon fill="none" stroke="#bfbfbf" points="1249.5,-192.5 1249.5,-211.5 1298.5,-211.5 1298.5,-192.5 1249.5,-192.5"/>
<text text-anchor="middle" x="1274" y="-199.5" font-family="Helvetica,sans-Serif" font-size="10.00">cassert</text>
</g>
<!-- Node15&#45;&gt;Node18 -->
<g id="edge21" class="edge"><title>Node15&#45;&gt;Node18</title>
<path fill="none" stroke="midnightblue" d="M1171.42,-248.933C1193.82,-238.9 1223.71,-225.519 1245.44,-215.789"/>
<polygon fill="midnightblue" stroke="midnightblue" points="1247.1,-218.881 1254.79,-211.6 1244.24,-212.492 1247.1,-218.881"/>
</g>
<!-- Node19 -->
<g id="node19" class="node"><title>Node19</title>
<polygon fill="none" stroke="#bfbfbf" points="1317,-192.5 1317,-211.5 1363,-211.5 1363,-192.5 1317,-192.5"/>
<text text-anchor="middle" x="1340" y="-199.5" font-family="Helvetica,sans-Serif" font-size="10.00">cstdint</text>
</g>
<!-- Node15&#45;&gt;Node19 -->
<g id="edge22" class="edge"><title>Node15&#45;&gt;Node19</title>
<path fill="none" stroke="midnightblue" d="M1186.89,-248.933C1223.77,-237.869 1274.23,-222.731 1306.97,-212.91"/>
<polygon fill="midnightblue" stroke="midnightblue" points="1308.36,-216.146 1316.93,-209.92 1306.35,-209.441 1308.36,-216.146"/>
</g>
<!-- Node20 -->
<g id="node20" class="node"><title>Node20</title>
<g id="a_node20"><a xlink:href="../../d9/d52/Common_2MathUtils_2include_2MathUtils_2Utils_8h.html" target="_top" xlink:title="MathUtils/Utils.h">
<polygon fill="none" stroke="black" points="1381,-192.5 1381,-211.5 1471,-211.5 1471,-192.5 1381,-192.5"/>
<text text-anchor="middle" x="1426" y="-199.5" font-family="Helvetica,sans-Serif" font-size="10.00">MathUtils/Utils.h</text>
</a>
</g>
</g>
<!-- Node15&#45;&gt;Node20 -->
<g id="edge24" class="edge"><title>Node15&#45;&gt;Node20</title>
<path fill="none" stroke="midnightblue" d="M1207.05,-248.933C1258.58,-238.122 1328.65,-223.424 1375.5,-213.594"/>
<polygon fill="midnightblue" stroke="midnightblue" points="1376.35,-216.991 1385.42,-211.513 1374.92,-210.141 1376.35,-216.991"/>
</g>
<!-- Node20&#45;&gt;Node16 -->
<g id="edge25" class="edge"><title>Node20&#45;&gt;Node16</title>
<path fill="none" stroke="midnightblue" d="M1380.82,-193.206C1315.59,-181.952 1196.86,-161.468 1142.1,-152.02"/>
<polygon fill="midnightblue" stroke="midnightblue" points="1142.48,-148.534 1132.03,-150.283 1141.29,-155.433 1142.48,-148.534"/>
</g>
<!-- Node21 -->
<g id="node21" class="node"><title>Node21</title>
<polygon fill="none" stroke="#bfbfbf" points="1193,-136.5 1193,-155.5 1237,-155.5 1237,-136.5 1193,-136.5"/>
<text text-anchor="middle" x="1215" y="-143.5" font-family="Helvetica,sans-Serif" font-size="10.00">cmath</text>
</g>
<!-- Node20&#45;&gt;Node21 -->
<g id="edge26" class="edge"><title>Node20&#45;&gt;Node21</title>
<path fill="none" stroke="midnightblue" d="M1390.04,-192.431C1355.69,-184.153 1302.24,-171.03 1247.24,-156.266"/>
<polygon fill="midnightblue" stroke="midnightblue" points="1247.89,-152.815 1237.32,-153.589 1246.07,-159.574 1247.89,-152.815"/>
</g>
<!-- Node22 -->
<g id="node22" class="node"><title>Node22</title>
<g id="a_node22"><a xlink:href="../../d6/d84/MathConstants_8h.html" target="_top" xlink:title="useful math constants ">
<polygon fill="none" stroke="black" points="1314.5,-136.5 1314.5,-155.5 1493.5,-155.5 1493.5,-136.5 1314.5,-136.5"/>
<text text-anchor="middle" x="1404" y="-143.5" font-family="Helvetica,sans-Serif" font-size="10.00">CommonConstants/MathConstants.h</text>
</a>
</g>
</g>
<!-- Node20&#45;&gt;Node22 -->
<g id="edge27" class="edge"><title>Node20&#45;&gt;Node22</title>
<path fill="none" stroke="midnightblue" d="M1422.37,-192.083C1419.39,-184.77 1415.07,-174.181 1411.38,-165.103"/>
<polygon fill="midnightblue" stroke="midnightblue" points="1414.58,-163.691 1407.57,-155.751 1408.1,-166.333 1414.58,-163.691"/>
</g>
<!-- Node23&#45;&gt;Node5 -->
<g id="edge67" class="edge"><title>Node23&#45;&gt;Node5</title>
<path fill="none" stroke="midnightblue" d="M1840.75,-261.945C1729.05,-259.112 1468.37,-248.953 1241.37,-211.946"/>
<polygon fill="midnightblue" stroke="midnightblue" points="1241.71,-208.454 1231.27,-210.278 1240.56,-215.361 1241.71,-208.454"/>
</g>
<!-- Node23&#45;&gt;Node9 -->
<g id="edge65" class="edge"><title>Node23&#45;&gt;Node9</title>
<path fill="none" stroke="midnightblue" d="M1884.61,-254.492C1868.56,-241.399 1842.47,-215.375 1854,-192 1857.72,-184.467 1970.15,-107.465 1974,-100 1984.41,-79.8283 1983.15,-53.0786 1980.64,-35.4691"/>
<polygon fill="midnightblue" stroke="midnightblue" points="1984.09,-34.8738 1978.96,-25.6021 1977.19,-36.0473 1984.09,-34.8738"/>
</g>
<!-- Node24 -->
<g id="node24" class="node"><title>Node24</title>
<polygon fill="none" stroke="#bfbfbf" points="2082,-192.5 2082,-211.5 2144,-211.5 2144,-192.5 2082,-192.5"/>
<text text-anchor="middle" x="2113" y="-199.5" font-family="Helvetica,sans-Serif" font-size="10.00">FairField.h</text>
</g>
<!-- Node23&#45;&gt;Node24 -->
<g id="edge29" class="edge"><title>Node23&#45;&gt;Node24</title>
<path fill="none" stroke="midnightblue" d="M1927.09,-254.403C1965.28,-243.844 2030.17,-225.903 2072.3,-214.254"/>
<polygon fill="midnightblue" stroke="midnightblue" points="2073.26,-217.619 2081.97,-211.581 2071.4,-210.872 2073.26,-217.619"/>
</g>
<!-- Node25 -->
<g id="node25" class="node"><title>Node25</title>
<g id="a_node25"><a xlink:href="../../d3/d91/MagFieldParam_8h.html" target="_top" xlink:title="Definition of the MagFieldParam: container for ALICE mag. field parameters. ">
<polygon fill="none" stroke="black" points="1946.5,-192.5 1946.5,-211.5 2063.5,-211.5 2063.5,-192.5 1946.5,-192.5"/>
<text text-anchor="middle" x="2005" y="-199.5" font-family="Helvetica,sans-Serif" font-size="10.00">Field/MagFieldParam.h</text>
</a>
</g>
</g>
<!-- Node23&#45;&gt;Node25 -->
<g id="edge30" class="edge"><title>Node23&#45;&gt;Node25</title>
<path fill="none" stroke="midnightblue" d="M1911.62,-254.403C1929.59,-244.512 1959.32,-228.144 1980.41,-216.538"/>
<polygon fill="midnightblue" stroke="midnightblue" points="1982.34,-219.469 1989.41,-211.581 1978.96,-213.337 1982.34,-219.469"/>
</g>
<!-- Node28 -->
<g id="node28" class="node"><title>Node28</title>
<g id="a_node28"><a xlink:href="../../dd/dfb/MagneticWrapperChebyshev_8h.html" target="_top" xlink:title="Field/MagneticWrapperChebyshev.h">
<polygon fill="none" stroke="black" points="2276.5,-192.5 2276.5,-211.5 2451.5,-211.5 2451.5,-192.5 2276.5,-192.5"/>
<text text-anchor="middle" x="2364" y="-199.5" font-family="Helvetica,sans-Serif" font-size="10.00">Field/MagneticWrapperChebyshev.h</text>
</a>
</g>
</g>
<!-- Node23&#45;&gt;Node28 -->
<g id="edge33" class="edge"><title>Node23&#45;&gt;Node28</title>
<path fill="none" stroke="midnightblue" d="M1951.06,-255.941C2034.41,-245.256 2192.87,-224.94 2287.41,-212.819"/>
<polygon fill="midnightblue" stroke="midnightblue" points="2288.01,-216.271 2297.49,-211.527 2287.12,-209.328 2288.01,-216.271"/>
</g>
<!-- Node30 -->
<g id="node30" class="node"><title>Node30</title>
<polygon fill="none" stroke="#bfbfbf" points="2401,-6.5 2401,-25.5 2463,-25.5 2463,-6.5 2401,-6.5"/>
<text text-anchor="middle" x="2432" y="-13.5" font-family="Helvetica,sans-Serif" font-size="10.00">TNamed.h</text>
</g>
<!-- Node23&#45;&gt;Node30 -->
<g id="edge66" class="edge"><title>Node23&#45;&gt;Node30</title>
<path fill="none" stroke="midnightblue" d="M1951.12,-259.392C2018.02,-253.805 2125.24,-240.569 2152,-212 2196.13,-164.884 2126.78,-115.035 2171,-68 2200.42,-36.7074 2324.93,-23.9622 2390.77,-19.3334"/>
<polygon fill="midnightblue" stroke="midnightblue" points="2391.07,-22.8213 2400.82,-18.6586 2390.6,-15.8371 2391.07,-22.8213"/>
</g>
<!-- Node35 -->
<g id="node35" class="node"><title>Node35</title>
<g id="a_node35"><a xlink:href="../../da/df4/MagFieldFast_8h.html" target="_top" xlink:title="Definition of the fast magnetic field parametrization MagFieldFast. ">
<polygon fill="none" stroke="black" points="1607,-192.5 1607,-211.5 1715,-211.5 1715,-192.5 1607,-192.5"/>
<text text-anchor="middle" x="1661" y="-199.5" font-family="Helvetica,sans-Serif" font-size="10.00">Field/MagFieldFast.h</text>
</a>
</g>
</g>
<!-- Node23&#45;&gt;Node35 -->
<g id="edge49" class="edge"><title>Node23&#45;&gt;Node35</title>
<path fill="none" stroke="midnightblue" d="M1862.33,-254.403C1820.8,-243.799 1750.11,-225.751 1704.5,-214.107"/>
<polygon fill="midnightblue" stroke="midnightblue" points="1705.16,-210.663 1694.61,-211.581 1703.43,-217.446 1705.16,-210.663"/>
</g>
<!-- Node47 -->
<g id="node47" class="node"><title>Node47</title>
<polygon fill="none" stroke="#bfbfbf" points="1863.5,-192.5 1863.5,-211.5 1928.5,-211.5 1928.5,-192.5 1863.5,-192.5"/>
<text text-anchor="middle" x="1896" y="-199.5" font-family="Helvetica,sans-Serif" font-size="10.00">TSystem.h</text>
</g>
<!-- Node23&#45;&gt;Node47 -->
<g id="edge64" class="edge"><title>Node23&#45;&gt;Node47</title>
<path fill="none" stroke="midnightblue" d="M1896,-254.403C1896,-245.938 1896,-232.728 1896,-221.82"/>
<polygon fill="midnightblue" stroke="midnightblue" points="1899.5,-221.581 1896,-211.581 1892.5,-221.581 1899.5,-221.581"/>
</g>
<!-- Node26 -->
<g id="node26" class="node"><title>Node26</title>
<polygon fill="none" stroke="#bfbfbf" points="2000.5,-136.5 2000.5,-155.5 2105.5,-155.5 2105.5,-136.5 2000.5,-136.5"/>
<text text-anchor="middle" x="2053" y="-143.5" font-family="Helvetica,sans-Serif" font-size="10.00">FairParGenericSet.h</text>
</g>
<!-- Node25&#45;&gt;Node26 -->
<g id="edge31" class="edge"><title>Node25&#45;&gt;Node26</title>
<path fill="none" stroke="midnightblue" d="M2012.93,-192.083C2019.85,-184.298 2030.07,-172.801 2038.45,-163.367"/>
<polygon fill="midnightblue" stroke="midnightblue" points="2041.19,-165.55 2045.22,-155.751 2035.96,-160.9 2041.19,-165.55"/>
</g>
<!-- Node25&#45;&gt;Node27 -->
<g id="edge32" class="edge"><title>Node25&#45;&gt;Node27</title>
<path fill="none" stroke="midnightblue" d="M2030.97,-192.399C2053.62,-184.41 2086.98,-171.441 2114,-156 2142.53,-139.692 2172.29,-115.88 2190.48,-100.411"/>
<polygon fill="midnightblue" stroke="midnightblue" points="2193.14,-102.739 2198.43,-93.5576 2188.57,-97.4373 2193.14,-102.739"/>
</g>
<!-- Node28&#45;&gt;Node9 -->
<g id="edge48" class="edge"><title>Node28&#45;&gt;Node9</title>
<path fill="none" stroke="midnightblue" d="M2346.11,-192.494C2284.22,-163.07 2078.95,-65.4702 2004.38,-30.0156"/>
<polygon fill="midnightblue" stroke="midnightblue" points="2005.68,-26.7607 1995.15,-25.6277 2002.67,-33.0825 2005.68,-26.7607"/>
</g>
<!-- Node29 -->
<g id="node29" class="node"><title>Node29</title>
<polygon fill="none" stroke="#bfbfbf" points="2314.5,-136.5 2314.5,-155.5 2367.5,-155.5 2367.5,-136.5 2314.5,-136.5"/>
<text text-anchor="middle" x="2341" y="-143.5" font-family="Helvetica,sans-Serif" font-size="10.00">TMath.h</text>
</g>
<!-- Node28&#45;&gt;Node29 -->
<g id="edge34" class="edge"><title>Node28&#45;&gt;Node29</title>
<path fill="none" stroke="midnightblue" d="M2360.2,-192.083C2357.09,-184.77 2352.58,-174.181 2348.71,-165.103"/>
<polygon fill="midnightblue" stroke="midnightblue" points="2351.87,-163.58 2344.73,-155.751 2345.43,-166.323 2351.87,-163.58"/>
</g>
<!-- Node28&#45;&gt;Node30 -->
<g id="edge35" class="edge"><title>Node28&#45;&gt;Node30</title>
<path fill="none" stroke="midnightblue" d="M2451.58,-192.439C2482.64,-186.084 2516.45,-175.067 2543,-156 2567.03,-138.739 2570.66,-128.389 2579,-100 2583.01,-86.3542 2587.25,-79.5882 2579,-68 2566.46,-50.3715 2512.06,-34.8361 2473.09,-25.6765"/>
<polygon fill="midnightblue" stroke="midnightblue" points="2473.58,-22.199 2463.06,-23.3767 2472.02,-29.0221 2473.58,-22.199"/>
</g>
<!-- Node31 -->
<g id="node31" class="node"><title>Node31</title>
<polygon fill="none" stroke="#bfbfbf" points="2254.5,-74.5 2254.5,-93.5 2323.5,-93.5 2323.5,-74.5 2254.5,-74.5"/>
<text text-anchor="middle" x="2289" y="-81.5" font-family="Helvetica,sans-Serif" font-size="10.00">TObjArray.h</text>
</g>
<!-- Node28&#45;&gt;Node31 -->
<g id="edge36" class="edge"><title>Node28&#45;&gt;Node31</title>
<path fill="none" stroke="midnightblue" d="M2347.47,-192.35C2334.25,-184.583 2316.3,-171.957 2306,-156 2295.82,-140.214 2291.73,-118.907 2290.09,-103.764"/>
<polygon fill="midnightblue" stroke="midnightblue" points="2293.56,-103.259 2289.25,-93.579 2286.58,-103.832 2293.56,-103.259"/>
</g>
<!-- Node32 -->
<g id="node32" class="node"><title>Node32</title>
<g id="a_node32"><a xlink:href="../../d8/d64/Chebyshev3D_8h.html" target="_top" xlink:title="MathUtils/Chebyshev3D.h">
<polygon fill="none" stroke="black" points="2386,-136.5 2386,-155.5 2518,-155.5 2518,-136.5 2386,-136.5"/>
<text text-anchor="middle" x="2452" y="-143.5" font-family="Helvetica,sans-Serif" font-size="10.00">MathUtils/Chebyshev3D.h</text>
</a>
</g>
</g>
<!-- Node28&#45;&gt;Node32 -->
<g id="edge37" class="edge"><title>Node28&#45;&gt;Node32</title>
<path fill="none" stroke="midnightblue" d="M2378.14,-192.324C2391.87,-183.9 2412.94,-170.971 2429.06,-161.074"/>
<polygon fill="midnightblue" stroke="midnightblue" points="2431.2,-163.868 2437.9,-155.655 2427.54,-157.902 2431.2,-163.868"/>
</g>
<!-- Node34 -->
<g id="node34" class="node"><title>Node34</title>
<g id="a_node34"><a xlink:href="../../d4/d08/Chebyshev3DCalc_8h.html" target="_top" xlink:title="MathUtils/Chebyshev3DCalc.h">
<polygon fill="none" stroke="black" points="2418,-74.5 2418,-93.5 2570,-93.5 2570,-74.5 2418,-74.5"/>
<text text-anchor="middle" x="2494" y="-81.5" font-family="Helvetica,sans-Serif" font-size="10.00">MathUtils/Chebyshev3DCalc.h</text>
</a>
</g>
</g>
<!-- Node28&#45;&gt;Node34 -->
<g id="edge47" class="edge"><title>Node28&#45;&gt;Node34</title>
<path fill="none" stroke="midnightblue" d="M2422.52,-192.431C2463.87,-185.038 2514.15,-172.876 2527,-156 2539.92,-139.027 2524.6,-116.181 2510.8,-101.042"/>
<polygon fill="midnightblue" stroke="midnightblue" points="2512.97,-98.2442 2503.49,-93.5104 2507.95,-103.122 2512.97,-98.2442"/>
</g>
<!-- Node32&#45;&gt;Node9 -->
<g id="edge45" class="edge"><title>Node32&#45;&gt;Node9</title>
<path fill="none" stroke="midnightblue" d="M2441.91,-136.335C2422.24,-119.973 2376.77,-84.677 2332,-68 2222.06,-27.0461 2081.65,-18.75 2015.17,-17.2238"/>
<polygon fill="midnightblue" stroke="midnightblue" points="2015.22,-13.7242 2005.15,-17.0331 2015.09,-20.7229 2015.22,-13.7242"/>
</g>
<!-- Node32&#45;&gt;Node27 -->
<g id="edge46" class="edge"><title>Node32&#45;&gt;Node27</title>
<path fill="none" stroke="midnightblue" d="M2402.31,-136.469C2360.23,-128.693 2298.53,-115.992 2246,-100 2243.2,-99.1479 2240.32,-98.181 2237.45,-97.1584"/>
<polygon fill="midnightblue" stroke="midnightblue" points="2238.49,-93.8115 2227.9,-93.5527 2236.02,-100.36 2238.49,-93.8115"/>
</g>
<!-- Node32&#45;&gt;Node30 -->
<g id="edge38" class="edge"><title>Node32&#45;&gt;Node30</title>
<path fill="none" stroke="midnightblue" d="M2439.5,-136.302C2429.13,-128.251 2415.11,-115.245 2409,-100 2400.25,-78.1888 2410.91,-51.8774 2420.45,-34.8109"/>
<polygon fill="midnightblue" stroke="midnightblue" points="2423.63,-36.3097 2425.78,-25.9346 2417.63,-32.7065 2423.63,-36.3097"/>
</g>
<!-- Node32&#45;&gt;Node31 -->
<g id="edge39" class="edge"><title>Node32&#45;&gt;Node31</title>
<path fill="none" stroke="midnightblue" d="M2428.65,-136.403C2400.69,-126.111 2353.67,-108.806 2322.01,-97.1504"/>
<polygon fill="midnightblue" stroke="midnightblue" points="2322.9,-93.7505 2312.31,-93.5806 2320.49,-100.32 2322.9,-93.7505"/>
</g>
<!-- Node33 -->
<g id="node33" class="node"><title>Node33</title>
<polygon fill="none" stroke="#bfbfbf" points="2524.5,-6.5 2524.5,-25.5 2567.5,-25.5 2567.5,-6.5 2524.5,-6.5"/>
<text text-anchor="middle" x="2546" y="-13.5" font-family="Helvetica,sans-Serif" font-size="10.00">cstdio</text>
</g>
<!-- Node32&#45;&gt;Node33 -->
<g id="edge40" class="edge"><title>Node32&#45;&gt;Node33</title>
<path fill="none" stroke="midnightblue" d="M2518.3,-137.259C2541.37,-131.02 2564.96,-119.868 2579,-100 2593.69,-79.2126 2575.97,-50.9602 2561.37,-33.3613"/>
<polygon fill="midnightblue" stroke="midnightblue" points="2563.84,-30.863 2554.61,-25.6571 2558.57,-35.4812 2563.84,-30.863"/>
</g>
<!-- Node32&#45;&gt;Node34 -->
<g id="edge41" class="edge"><title>Node32&#45;&gt;Node34</title>
<path fill="none" stroke="midnightblue" d="M2458.02,-136.403C2464.32,-127.403 2474.37,-113.041 2482.25,-101.782"/>
<polygon fill="midnightblue" stroke="midnightblue" points="2485.13,-103.78 2487.99,-93.5806 2479.39,-99.7658 2485.13,-103.78"/>
</g>
<!-- Node34&#45;&gt;Node9 -->
<g id="edge44" class="edge"><title>Node34&#45;&gt;Node9</title>
<path fill="none" stroke="midnightblue" d="M2427.21,-74.4731C2317.43,-60.4592 2102.35,-33.0025 2015.12,-21.8661"/>
<polygon fill="midnightblue" stroke="midnightblue" points="2015.49,-18.3855 2005.13,-20.5909 2014.61,-25.3292 2015.49,-18.3855"/>
</g>
<!-- Node34&#45;&gt;Node30 -->
<g id="edge42" class="edge"><title>Node34&#45;&gt;Node30</title>
<path fill="none" stroke="midnightblue" d="M2485.89,-74.3717C2476.11,-63.9547 2459.45,-46.2173 2447.23,-33.2162"/>
<polygon fill="midnightblue" stroke="midnightblue" points="2449.7,-30.7333 2440.31,-25.8411 2444.6,-35.526 2449.7,-30.7333"/>
</g>
<!-- Node34&#45;&gt;Node33 -->
<g id="edge43" class="edge"><title>Node34&#45;&gt;Node33</title>
<path fill="none" stroke="midnightblue" d="M2500.8,-74.3717C2508.85,-64.1512 2522.46,-46.884 2532.64,-33.9571"/>
<polygon fill="midnightblue" stroke="midnightblue" points="2535.59,-35.8621 2539.03,-25.8411 2530.1,-31.53 2535.59,-35.8621"/>
</g>
<!-- Node35&#45;&gt;Node9 -->
<g id="edge50" class="edge"><title>Node35&#45;&gt;Node9</title>
<path fill="none" stroke="midnightblue" d="M1715.25,-196.365C1779.79,-187.997 1886.71,-164.675 1950,-100 1967.03,-82.6002 1973.32,-54.351 1975.64,-35.7224"/>
<polygon fill="midnightblue" stroke="midnightblue" points="1979.14,-35.8429 1976.63,-25.5497 1972.18,-35.1617 1979.14,-35.8429"/>
</g>
<!-- Node35&#45;&gt;Node13 -->
<g id="edge51" class="edge"><title>Node35&#45;&gt;Node13</title>
<path fill="none" stroke="midnightblue" d="M1606.83,-197.121C1538.66,-191.586 1417.97,-179.612 1306.83,-156.092"/>
<polygon fill="midnightblue" stroke="midnightblue" points="1307.31,-152.615 1296.79,-153.931 1305.83,-159.458 1307.31,-152.615"/>
</g>
<!-- Node36 -->
<g id="node36" class="node"><title>Node36</title>
<g id="a_node36"><a xlink:href="../../dd/d76/Cartesian3D_8h.html" target="_top" xlink:title="MathUtils/Cartesian3D.h">
<polygon fill="none" stroke="black" points="1511.5,-136.5 1511.5,-155.5 1636.5,-155.5 1636.5,-136.5 1511.5,-136.5"/>
<text text-anchor="middle" x="1574" y="-143.5" font-family="Helvetica,sans-Serif" font-size="10.00">MathUtils/Cartesian3D.h</text>
</a>
</g>
</g>
<!-- Node35&#45;&gt;Node36 -->
<g id="edge52" class="edge"><title>Node35&#45;&gt;Node36</title>
<path fill="none" stroke="midnightblue" d="M1647.02,-192.324C1633.45,-183.9 1612.62,-170.971 1596.68,-161.074"/>
<polygon fill="midnightblue" stroke="midnightblue" points="1598.29,-157.954 1587.94,-155.655 1594.59,-163.902 1598.29,-157.954"/>
</g>
<!-- Node36&#45;&gt;Node9 -->
<g id="edge58" class="edge"><title>Node36&#45;&gt;Node9</title>
<path fill="none" stroke="midnightblue" d="M1636.53,-142.916C1723.02,-139.025 1873.76,-128.299 1920,-100 1944.77,-84.8404 1961.4,-54.3993 1970.02,-34.8967"/>
<polygon fill="midnightblue" stroke="midnightblue" points="1973.28,-36.1707 1973.89,-25.5936 1966.82,-33.4806 1973.28,-36.1707"/>
</g>
<!-- Node37 -->
<g id="node37" class="node"><title>Node37</title>
<polygon fill="none" stroke="#bfbfbf" points="1399.5,-69 1399.5,-99 1550.5,-99 1550.5,-69 1399.5,-69"/>
<text text-anchor="start" x="1407.5" y="-87" font-family="Helvetica,sans-Serif" font-size="10.00">Math/GenVector/Displacement</text>
<text text-anchor="middle" x="1475" y="-76" font-family="Helvetica,sans-Serif" font-size="10.00">Vector3D.h</text>
</g>
<!-- Node36&#45;&gt;Node37 -->
<g id="edge53" class="edge"><title>Node36&#45;&gt;Node37</title>
<path fill="none" stroke="midnightblue" d="M1559.82,-136.403C1546.16,-128.125 1525.01,-115.311 1507.25,-104.547"/>
<polygon fill="midnightblue" stroke="midnightblue" points="1508.7,-101.331 1498.33,-99.1408 1505.07,-107.317 1508.7,-101.331"/>
</g>
<!-- Node38 -->
<g id="node38" class="node"><title>Node38</title>
<polygon fill="none" stroke="#bfbfbf" points="1569,-74.5 1569,-93.5 1745,-93.5 1745,-74.5 1569,-74.5"/>
<text text-anchor="middle" x="1657" y="-81.5" font-family="Helvetica,sans-Serif" font-size="10.00">Math/GenVector/PositionVector3D.h</text>
</g>
<!-- Node36&#45;&gt;Node38 -->
<g id="edge54" class="edge"><title>Node36&#45;&gt;Node38</title>
<path fill="none" stroke="midnightblue" d="M1585.89,-136.403C1599.2,-126.78 1621,-111.024 1636.96,-99.4891"/>
<polygon fill="midnightblue" stroke="midnightblue" points="1639.08,-102.276 1645.13,-93.5806 1634.98,-96.6026 1639.08,-102.276"/>
</g>
<!-- Node39 -->
<g id="node39" class="node"><title>Node39</title>
<polygon fill="none" stroke="#bfbfbf" points="1762.5,-74.5 1762.5,-93.5 1911.5,-93.5 1911.5,-74.5 1762.5,-74.5"/>
<text text-anchor="middle" x="1837" y="-81.5" font-family="Helvetica,sans-Serif" font-size="10.00">Math/GenVector/Rotation3D.h</text>
</g>
<!-- Node36&#45;&gt;Node39 -->
<g id="edge55" class="edge"><title>Node36&#45;&gt;Node39</title>
<path fill="none" stroke="midnightblue" d="M1611.4,-136.467C1658.33,-125.76 1738.85,-107.392 1789.92,-95.74"/>
<polygon fill="midnightblue" stroke="midnightblue" points="1790.76,-99.14 1799.73,-93.5034 1789.2,-92.3154 1790.76,-99.14"/>
</g>
<!-- Node40 -->
<g id="node40" class="node"><title>Node40</title>
<polygon fill="none" stroke="#bfbfbf" points="890,-74.5 890,-93.5 1046,-93.5 1046,-74.5 890,-74.5"/>
<text text-anchor="middle" x="968" y="-81.5" font-family="Helvetica,sans-Serif" font-size="10.00">Math/GenVector/Transform3D.h</text>
</g>
<!-- Node36&#45;&gt;Node40 -->
<g id="edge56" class="edge"><title>Node36&#45;&gt;Node40</title>
<path fill="none" stroke="midnightblue" d="M1511.19,-136.984C1508.08,-136.639 1505.01,-136.309 1502,-136 1303.73,-115.634 1252.74,-124.958 1055,-100 1044.63,-98.691 1033.61,-97.0148 1023.02,-95.26"/>
<polygon fill="midnightblue" stroke="midnightblue" points="1023.48,-91.7885 1013.04,-93.5629 1022.31,-98.6895 1023.48,-91.7885"/>
</g>
<!-- Node41 -->
<g id="node41" class="node"><title>Node41</title>
<polygon fill="none" stroke="#bfbfbf" points="1064,-74.5 1064,-93.5 1224,-93.5 1224,-74.5 1064,-74.5"/>
<text text-anchor="middle" x="1144" y="-81.5" font-family="Helvetica,sans-Serif" font-size="10.00">Math/GenVector/Translation3D.h</text>
</g>
<!-- Node36&#45;&gt;Node41 -->
<g id="edge57" class="edge"><title>Node36&#45;&gt;Node41</title>
<path fill="none" stroke="midnightblue" d="M1511.2,-136.986C1427.86,-126.304 1285.19,-107.839 1233,-100 1223.24,-98.5337 1212.89,-96.8807 1202.84,-95.2216"/>
<polygon fill="midnightblue" stroke="midnightblue" points="1203.35,-91.7595 1192.91,-93.5672 1202.2,-98.6642 1203.35,-91.7595"/>
</g>
<!-- Node42 -->
<g id="node42" class="node"><title>Node42</title>
<polygon fill="none" stroke="#bfbfbf" points="1242,-74.5 1242,-93.5 1318,-93.5 1318,-74.5 1242,-74.5"/>
<text text-anchor="middle" x="1280" y="-81.5" font-family="Helvetica,sans-Serif" font-size="10.00">TGeoMatrix.h</text>
</g>
<!-- Node36&#45;&gt;Node42 -->
<g id="edge59" class="edge"><title>Node36&#45;&gt;Node42</title>
<path fill="none" stroke="midnightblue" d="M1515.16,-136.465C1464.83,-128.645 1390.65,-115.884 1327,-100 1322.89,-98.9734 1318.61,-97.783 1314.38,-96.5305"/>
<polygon fill="midnightblue" stroke="midnightblue" points="1315.3,-93.1509 1304.71,-93.5432 1313.23,-99.839 1315.3,-93.1509"/>
</g>
<!-- Node43 -->
<g id="node43" class="node"><title>Node43</title>
<polygon fill="none" stroke="#bfbfbf" points="1336.5,-74.5 1336.5,-93.5 1381.5,-93.5 1381.5,-74.5 1336.5,-74.5"/>
<text text-anchor="middle" x="1359" y="-81.5" font-family="Helvetica,sans-Serif" font-size="10.00">iosfwd</text>
</g>
<!-- Node36&#45;&gt;Node43 -->
<g id="edge60" class="edge"><title>Node36&#45;&gt;Node43</title>
<path fill="none" stroke="midnightblue" d="M1527.46,-136.449C1489.77,-128.854 1435.64,-116.417 1390,-100 1388.14,-99.3322 1386.25,-98.5874 1384.36,-97.7964"/>
<polygon fill="midnightblue" stroke="midnightblue" points="1385.68,-94.5534 1375.13,-93.6006 1382.79,-100.926 1385.68,-94.5534"/>
</g>
<!-- Node44 -->
<g id="node44" class="node"><title>Node44</title>
<g id="a_node44"><a xlink:href="../../d2/dd0/Cartesian2D_8h.html" target="_top" xlink:title="MathUtils/Cartesian2D.h">
<polygon fill="none" stroke="black" points="103.5,-74.5 103.5,-93.5 228.5,-93.5 228.5,-74.5 103.5,-74.5"/>
<text text-anchor="middle" x="166" y="-81.5" font-family="Helvetica,sans-Serif" font-size="10.00">MathUtils/Cartesian2D.h</text>
</a>
</g>
</g>
<!-- Node36&#45;&gt;Node44 -->
<g id="edge61" class="edge"><title>Node36&#45;&gt;Node44</title>
<path fill="none" stroke="midnightblue" d="M1511.2,-136.827C1508.09,-136.524 1505.01,-136.245 1502,-136 1021.06,-96.8351 440.22,-87.6472 238.873,-85.577"/>
<polygon fill="midnightblue" stroke="midnightblue" points="238.752,-82.0757 228.718,-85.4754 238.682,-89.0754 238.752,-82.0757"/>
</g>
<!-- Node45 -->
<g id="node45" class="node"><title>Node45</title>
<polygon fill="none" stroke="#bfbfbf" points="-0.5,-1 -0.5,-31 150.5,-31 150.5,-1 -0.5,-1"/>
<text text-anchor="start" x="7.5" y="-19" font-family="Helvetica,sans-Serif" font-size="10.00">Math/GenVector/Displacement</text>
<text text-anchor="middle" x="75" y="-8" font-family="Helvetica,sans-Serif" font-size="10.00">Vector2D.h</text>
</g>
<!-- Node44&#45;&gt;Node45 -->
<g id="edge62" class="edge"><title>Node44&#45;&gt;Node45</title>
<path fill="none" stroke="midnightblue" d="M154.103,-74.3717C141.221,-65.0286 120.22,-49.7966 103.093,-37.375"/>
<polygon fill="midnightblue" stroke="midnightblue" points="104.703,-34.2194 94.5532,-31.1815 100.593,-39.8859 104.703,-34.2194"/>
</g>
<!-- Node46 -->
<g id="node46" class="node"><title>Node46</title>
<polygon fill="none" stroke="#bfbfbf" points="169,-6.5 169,-25.5 345,-25.5 345,-6.5 169,-6.5"/>
<text text-anchor="middle" x="257" y="-13.5" font-family="Helvetica,sans-Serif" font-size="10.00">Math/GenVector/PositionVector2D.h</text>
</g>
<!-- Node44&#45;&gt;Node46 -->
<g id="edge63" class="edge"><title>Node44&#45;&gt;Node46</title>
<path fill="none" stroke="midnightblue" d="M177.897,-74.3717C192.884,-63.5015 218.862,-44.6602 236.942,-31.5474"/>
<polygon fill="midnightblue" stroke="midnightblue" points="239.06,-34.3349 245.1,-25.6305 234.95,-28.6684 239.06,-34.3349"/>
</g>
</g>
</svg>
