<?xml version="1.0" encoding="UTF-8" standalone="no"?>
<!DOCTYPE svg PUBLIC "-//W3C//DTD SVG 1.1//EN"
 "http://www.w3.org/Graphics/SVG/1.1/DTD/svg11.dtd">
<!-- Generated by graphviz version 2.36.0 (20140111.2315)
 -->
<!-- Title: /home/travis/build/AliceO2Group/AliceO2/Detectors/TPC/reconstruction/src/HwFixedPoint.cxx Pages: 1 -->
<svg width="225pt" height="186pt"
 viewBox="0.00 0.00 225.00 186.00" xmlns="http://www.w3.org/2000/svg" xmlns:xlink="http://www.w3.org/1999/xlink">
<g id="graph0" class="graph" transform="scale(1 1) rotate(0) translate(4 182)">
<title>/home/travis/build/AliceO2Group/AliceO2/Detectors/TPC/reconstruction/src/HwFixedPoint.cxx</title>
<!-- Node1 -->
<g id="node1" class="node"><title>Node1</title>
<polygon fill="#bfbfbf" stroke="black" points="56,-125 56,-177 206,-177 206,-125 56,-125"/>
<text text-anchor="start" x="64" y="-165" font-family="Helvetica,sans-Serif" font-size="10.00">/home/travis/build</text>
<text text-anchor="start" x="64" y="-154" font-family="Helvetica,sans-Serif" font-size="10.00">/AliceO2Group/AliceO2</text>
<text text-anchor="start" x="64" y="-143" font-family="Helvetica,sans-Serif" font-size="10.00">/Detectors/TPC/reconstruction</text>
<text text-anchor="middle" x="131" y="-132" font-family="Helvetica,sans-Serif" font-size="10.00">/src/HwFixedPoint.cxx</text>
</g>
<!-- Node2 -->
<g id="node2" class="node"><title>Node2</title>
<g id="a_node2"><a xlink:href="../../de/d8e/HwFixedPoint_8h.html" target="_top" xlink:title="Class to Fixed Point calculations as it would be done in Hardware. ">
<polygon fill="none" stroke="black" points="-0.5,-57 -0.5,-87 144.5,-87 144.5,-57 -0.5,-57"/>
<text text-anchor="start" x="7.5" y="-75" font-family="Helvetica,sans-Serif" font-size="10.00">TPCReconstruction/HwFixed</text>
<text text-anchor="middle" x="72" y="-64" font-family="Helvetica,sans-Serif" font-size="10.00">Point.h</text>
</a>
</g>
</g>
<!-- Node1&#45;&gt;Node2 -->
<g id="edge1" class="edge"><title>Node1&#45;&gt;Node2</title>
<path fill="none" stroke="midnightblue" d="M111.681,-124.787C104.374,-115.25 96.1163,-104.474 89.0336,-95.2303"/>
<polygon fill="midnightblue" stroke="midnightblue" points="91.7808,-93.061 82.9204,-87.252 86.2244,-97.3186 91.7808,-93.061"/>
</g>
<!-- Node4 -->
<g id="node4" class="node"><title>Node4</title>
<polygon fill="none" stroke="#bfbfbf" points="163,-62.5 163,-81.5 217,-81.5 217,-62.5 163,-62.5"/>
<text text-anchor="middle" x="190" y="-69.5" font-family="Helvetica,sans-Serif" font-size="10.00">iostream</text>
</g>
<!-- Node1&#45;&gt;Node4 -->
<g id="edge3" class="edge"><title>Node1&#45;&gt;Node4</title>
<path fill="none" stroke="midnightblue" d="M150.319,-124.787C159.156,-113.253 169.384,-99.9061 177.242,-89.6508"/>
<polygon fill="midnightblue" stroke="midnightblue" points="180.139,-91.6242 183.443,-81.5577 174.582,-87.3667 180.139,-91.6242"/>
</g>
<!-- Node3 -->
<g id="node3" class="node"><title>Node3</title>
<polygon fill="none" stroke="#bfbfbf" points="49.5,-0.5 49.5,-19.5 94.5,-19.5 94.5,-0.5 49.5,-0.5"/>
<text text-anchor="middle" x="72" y="-7.5" font-family="Helvetica,sans-Serif" font-size="10.00">iosfwd</text>
</g>
<!-- Node2&#45;&gt;Node3 -->
<g id="edge2" class="edge"><title>Node2&#45;&gt;Node3</title>
<path fill="none" stroke="midnightblue" d="M72,-56.7808C72,-48.7812 72,-38.6887 72,-30.0168"/>
<polygon fill="midnightblue" stroke="midnightblue" points="75.5001,-29.7305 72,-19.7305 68.5001,-29.7306 75.5001,-29.7305"/>
</g>
</g>
</svg>
