<?xml version="1.0" encoding="UTF-8" standalone="no"?>
<!DOCTYPE svg PUBLIC "-//W3C//DTD SVG 1.1//EN"
 "http://www.w3.org/Graphics/SVG/1.1/DTD/svg11.dtd">
<!-- Generated by graphviz version 2.36.0 (20140111.2315)
 -->
<!-- Title: /home/travis/build/AliceO2Group/AliceO2/Detectors/ITSMFT/common/reconstruction/include/ITSMFTReconstruction/TopologyFastSimulation.h Pages: 1 -->
<svg width="418pt" height="208pt"
 viewBox="0.00 0.00 418.00 208.00" xmlns="http://www.w3.org/2000/svg" xmlns:xlink="http://www.w3.org/1999/xlink">
<g id="graph0" class="graph" transform="scale(1 1) rotate(0) translate(4 204)">
<title>/home/travis/build/AliceO2Group/AliceO2/Detectors/ITSMFT/common/reconstruction/include/ITSMFTReconstruction/TopologyFastSimulation.h</title>
<!-- Node1 -->
<g id="node1" class="node"><title>Node1</title>
<polygon fill="#bfbfbf" stroke="black" points="44,-125 44,-199 228,-199 228,-125 44,-125"/>
<text text-anchor="start" x="52" y="-187" font-family="Helvetica,sans-Serif" font-size="10.00">/home/travis/build</text>
<text text-anchor="start" x="52" y="-176" font-family="Helvetica,sans-Serif" font-size="10.00">/AliceO2Group/AliceO2</text>
<text text-anchor="start" x="52" y="-165" font-family="Helvetica,sans-Serif" font-size="10.00">/Detectors/ITSMFT/common</text>
<text text-anchor="start" x="52" y="-154" font-family="Helvetica,sans-Serif" font-size="10.00">/reconstruction/include</text>
<text text-anchor="start" x="52" y="-143" font-family="Helvetica,sans-Serif" font-size="10.00">/ITSMFTReconstruction/TopologyFast</text>
<text text-anchor="middle" x="136" y="-132" font-family="Helvetica,sans-Serif" font-size="10.00">Simulation.h</text>
</g>
<!-- Node2 -->
<g id="node2" class="node"><title>Node2</title>
<polygon fill="none" stroke="#bfbfbf" points="52.5,-62.5 52.5,-81.5 101.5,-81.5 101.5,-62.5 52.5,-62.5"/>
<text text-anchor="middle" x="77" y="-69.5" font-family="Helvetica,sans-Serif" font-size="10.00">random</text>
</g>
<!-- Node1&#45;&gt;Node2 -->
<g id="edge1" class="edge"><title>Node1&#45;&gt;Node2</title>
<path fill="none" stroke="midnightblue" d="M111.832,-124.953C103.729,-112.867 95.0709,-99.9531 88.4137,-90.0238"/>
<polygon fill="midnightblue" stroke="midnightblue" points="91.2035,-87.8997 82.7276,-81.5428 85.3893,-91.7979 91.2035,-87.8997"/>
</g>
<!-- Node3 -->
<g id="node3" class="node"><title>Node3</title>
<g id="a_node3"><a xlink:href="../../d1/d08/TopologyDictionary_8h.html" target="_top" xlink:title="Definition of the ClusterTopology class. ">
<polygon fill="none" stroke="black" points="120,-57 120,-87 272,-87 272,-57 120,-57"/>
<text text-anchor="start" x="128" y="-75" font-family="Helvetica,sans-Serif" font-size="10.00">DataFormatsITSMFT/Topology</text>
<text text-anchor="middle" x="196" y="-64" font-family="Helvetica,sans-Serif" font-size="10.00">Dictionary.h</text>
</a>
</g>
</g>
<!-- Node1&#45;&gt;Node3 -->
<g id="edge2" class="edge"><title>Node1&#45;&gt;Node3</title>
<path fill="none" stroke="midnightblue" d="M160.577,-124.953C167.374,-114.985 174.554,-104.454 180.66,-95.4989"/>
<polygon fill="midnightblue" stroke="midnightblue" points="183.612,-97.3819 186.354,-87.1479 177.829,-93.4385 183.612,-97.3819"/>
</g>
<!-- Node4 -->
<g id="node4" class="node"><title>Node4</title>
<polygon fill="none" stroke="#bfbfbf" points="0,-0.5 0,-19.5 56,-19.5 56,-0.5 0,-0.5"/>
<text text-anchor="middle" x="28" y="-7.5" font-family="Helvetica,sans-Serif" font-size="10.00">Rtypes.h</text>
</g>
<!-- Node3&#45;&gt;Node4 -->
<g id="edge3" class="edge"><title>Node3&#45;&gt;Node4</title>
<path fill="none" stroke="midnightblue" d="M156.611,-56.9327C127.762,-46.6292 89.0218,-32.7935 61.6222,-23.0079"/>
<polygon fill="midnightblue" stroke="midnightblue" points="62.6747,-19.6674 52.0801,-19.6 60.3203,-26.2596 62.6747,-19.6674"/>
</g>
<!-- Node5 -->
<g id="node5" class="node"><title>Node5</title>
<polygon fill="none" stroke="#bfbfbf" points="74,-0.5 74,-19.5 124,-19.5 124,-0.5 74,-0.5"/>
<text text-anchor="middle" x="99" y="-7.5" font-family="Helvetica,sans-Serif" font-size="10.00">fstream</text>
</g>
<!-- Node3&#45;&gt;Node5 -->
<g id="edge4" class="edge"><title>Node3&#45;&gt;Node5</title>
<path fill="none" stroke="midnightblue" d="M173.012,-56.7808C157.517,-47.1958 137.163,-34.6062 121.723,-25.0555"/>
<polygon fill="midnightblue" stroke="midnightblue" points="123.177,-21.8397 112.832,-19.5557 119.495,-27.7929 123.177,-21.8397"/>
</g>
<!-- Node6 -->
<g id="node6" class="node"><title>Node6</title>
<polygon fill="none" stroke="#bfbfbf" points="142.5,-0.5 142.5,-19.5 187.5,-19.5 187.5,-0.5 142.5,-0.5"/>
<text text-anchor="middle" x="165" y="-7.5" font-family="Helvetica,sans-Serif" font-size="10.00">iosfwd</text>
</g>
<!-- Node3&#45;&gt;Node6 -->
<g id="edge5" class="edge"><title>Node3&#45;&gt;Node6</title>
<path fill="none" stroke="midnightblue" d="M188.653,-56.7808C184.335,-48.4217 178.835,-37.7773 174.226,-28.8565"/>
<polygon fill="midnightblue" stroke="midnightblue" points="177.211,-27.0082 169.511,-19.7305 170.992,-30.2214 177.211,-27.0082"/>
</g>
<!-- Node7 -->
<g id="node7" class="node"><title>Node7</title>
<polygon fill="none" stroke="#bfbfbf" points="205.5,-0.5 205.5,-19.5 246.5,-19.5 246.5,-0.5 205.5,-0.5"/>
<text text-anchor="middle" x="226" y="-7.5" font-family="Helvetica,sans-Serif" font-size="10.00">string</text>
</g>
<!-- Node3&#45;&gt;Node7 -->
<g id="edge6" class="edge"><title>Node3&#45;&gt;Node7</title>
<path fill="none" stroke="midnightblue" d="M203.11,-56.7808C207.289,-48.4217 212.611,-37.7773 217.072,-28.8565"/>
<polygon fill="midnightblue" stroke="midnightblue" points="220.293,-30.2401 221.635,-19.7305 214.032,-27.1095 220.293,-30.2401"/>
</g>
<!-- Node8 -->
<g id="node8" class="node"><title>Node8</title>
<polygon fill="none" stroke="#bfbfbf" points="264.5,-0.5 264.5,-19.5 347.5,-19.5 347.5,-0.5 264.5,-0.5"/>
<text text-anchor="middle" x="306" y="-7.5" font-family="Helvetica,sans-Serif" font-size="10.00">unordered_map</text>
</g>
<!-- Node3&#45;&gt;Node8 -->
<g id="edge7" class="edge"><title>Node3&#45;&gt;Node8</title>
<path fill="none" stroke="midnightblue" d="M221.79,-56.9327C239.686,-47.1715 263.393,-34.2401 281.093,-24.5856"/>
<polygon fill="midnightblue" stroke="midnightblue" points="283.13,-27.4612 290.233,-19.6 279.778,-21.316 283.13,-27.4612"/>
</g>
<!-- Node9 -->
<g id="node9" class="node"><title>Node9</title>
<polygon fill="none" stroke="#bfbfbf" points="366,-0.5 366,-19.5 410,-19.5 410,-0.5 366,-0.5"/>
<text text-anchor="middle" x="388" y="-7.5" font-family="Helvetica,sans-Serif" font-size="10.00">vector</text>
</g>
<!-- Node3&#45;&gt;Node9 -->
<g id="edge8" class="edge"><title>Node3&#45;&gt;Node9</title>
<path fill="none" stroke="midnightblue" d="M241.015,-56.9327C276.421,-45.8685 324.86,-30.7314 356.288,-20.9099"/>
<polygon fill="midnightblue" stroke="midnightblue" points="357.356,-24.2433 365.857,-17.9198 355.268,-17.562 357.356,-24.2433"/>
</g>
</g>
</svg>
