<?xml version="1.0" encoding="UTF-8" standalone="no"?>
<!DOCTYPE svg PUBLIC "-//W3C//DTD SVG 1.1//EN"
 "http://www.w3.org/Graphics/SVG/1.1/DTD/svg11.dtd">
<!-- Generated by graphviz version 2.36.0 (20140111.2315)
 -->
<!-- Title: o2::MFT::Tracker::Layer Pages: 1 -->
<!--zoomable 1774 -->
<svg id="main" version="1.1" xmlns="http://www.w3.org/2000/svg" xmlns:xlink="http://www.w3.org/1999/xlink" xml:space="preserve" onload="init(evt)">
<style type="text/css"><![CDATA[
.edge:hover path { stroke: red; }
.edge:hover polygon { stroke: red; fill: red; }
]]></style>
<script type="text/javascript"><![CDATA[
var edges = document.getElementsByTagName('g');
if (edges && edges.length) {
  for (var i=0;i<edges.length;i++) {
    if (edges[i].id.substr(0,4)=='edge') {
      edges[i].setAttribute('class','edge');
    }
  }
}
]]></script>
        <defs>
                <circle id="rim" cx="0" cy="0" r="7"/>
                <circle id="rim2" cx="0" cy="0" r="3.5"/>
                <g id="zoomPlus">
                        <use xlink:href="#rim" fill="#404040">
                                <set attributeName="fill" to="#808080" begin="zoomplus.mouseover" end="zoomplus.mouseout"/>
                        </use>
                        <path d="M-4,0h8M0,-4v8" fill="none" stroke="white" stroke-width="1.5" pointer-events="none"/>
                </g>
                <g id="zoomMin">
                        <use xlink:href="#rim" fill="#404040">
                                <set attributeName="fill" to="#808080" begin="zoomminus.mouseover" end="zoomminus.mouseout"/>
                        </use>
                        <path d="M-4,0h8" fill="none" stroke="white" stroke-width="1.5" pointer-events="none"/>
                </g>
                <g id="dirArrow">
                        <path fill="none" stroke="white" stroke-width="1.5" d="M0,-3.0v7 M-2.5,-0.5L0,-3.0L2.5,-0.5"/>
                </g>
               <g id="resetDef">
                       <use xlink:href="#rim2" fill="#404040">
                               <set attributeName="fill" to="#808080" begin="reset.mouseover" end="reset.mouseout"/>
                       </use>
               </g>
        </defs>

<script type="text/javascript">
var viewWidth = 935;
var viewHeight = 1774;
var sectionId = 'dynsection-0';
</script>
<script xlink:href="../../svgpan.js"/>
<svg id="graph" class="graph">
<g id="viewport">
<title>o2::MFT::Tracker::Layer</title>
<!-- Node1 -->
<g id="node1" class="node"><title>Node1</title>
<polygon fill="#bfbfbf" stroke="black" points="554.5,-0.5 554.5,-145.5 681.5,-145.5 681.5,-0.5 554.5,-0.5"/>
<text text-anchor="middle" x="618" y="-133.5" font-family="Helvetica,sans-Serif" font-size="10.00">o2::MFT::Tracker::Layer</text>
<polyline fill="none" stroke="black" points="554.5,-126.5 681.5,-126.5 "/>
<text text-anchor="middle" x="618" y="-114.5" font-family="Helvetica,sans-Serif" font-size="10.00"> </text>
<polyline fill="none" stroke="black" points="554.5,-107.5 681.5,-107.5 "/>
<text text-anchor="start" x="562.5" y="-95.5" font-family="Helvetica,sans-Serif" font-size="10.00">+ Layer()</text>
<text text-anchor="start" x="562.5" y="-84.5" font-family="Helvetica,sans-Serif" font-size="10.00">+ Layer()</text>
<text text-anchor="start" x="562.5" y="-73.5" font-family="Helvetica,sans-Serif" font-size="10.00">+ operator=()</text>
<text text-anchor="start" x="562.5" y="-62.5" font-family="Helvetica,sans-Serif" font-size="10.00">+ init()</text>
<text text-anchor="start" x="562.5" y="-51.5" font-family="Helvetica,sans-Serif" font-size="10.00">+ insertCluster()</text>
<text text-anchor="start" x="562.5" y="-40.5" font-family="Helvetica,sans-Serif" font-size="10.00">+ unloadClusters()</text>
<text text-anchor="start" x="562.5" y="-29.5" font-family="Helvetica,sans-Serif" font-size="10.00">+ getCluster()</text>
<text text-anchor="start" x="562.5" y="-18.5" font-family="Helvetica,sans-Serif" font-size="10.00">+ setGeometry()</text>
<text text-anchor="start" x="562.5" y="-7.5" font-family="Helvetica,sans-Serif" font-size="10.00">+ getNumberOfClusters()</text>
</g>
<!-- Node2 -->
<g id="node2" class="node"><title>Node2</title>
<g id="a_node2"><a xlink:href="../../d3/d82/classo2_1_1MFT_1_1GeometryTGeo.html" target="_top" xlink:title="{o2::MFT::GeometryTGeo\n||+ GeometryTGeo()\l+ ~GeometryTGeo()\l+ GeometryTGeo()\l+ operator=()\l+ fillMatrixCache()\l+ Build()\l+ getSensorIndex()\l+ getLayer()\l+ Instance()\l+ adopt()\l+ getMFTVolPattern()\l+ getMFTHalfPattern()\l+ getMFTDiskPattern()\l+ getMFTLadderPattern()\l+ getMFTChipPattern()\l+ getMFTSensorPattern()\l# extractNumberOfHalves()\l# extractNumberOfDisks()\l# extractNumberOfLadders()\l# extractNumberOfLadders()\l# extractNumberOfSensorsPer\lLadder()\l# extractVolumeCopy()\l# extractMatrixSensor()\l# createT2LMatrix()\l# extractSensorXAlpha()\l# getSensorID()\l# getHalf()\l# getDisk()\l# getLadder()\l# getFirstSensorIndex()\l}">
<polygon fill="none" stroke="black" points="422.5,-194.5 422.5,-581.5 573.5,-581.5 573.5,-194.5 422.5,-194.5"/>
<text text-anchor="middle" x="498" y="-569.5" font-family="Helvetica,sans-Serif" font-size="10.00">o2::MFT::GeometryTGeo</text>
<polyline fill="none" stroke="black" points="422.5,-562.5 573.5,-562.5 "/>
<text text-anchor="middle" x="498" y="-550.5" font-family="Helvetica,sans-Serif" font-size="10.00"> </text>
<polyline fill="none" stroke="black" points="422.5,-543.5 573.5,-543.5 "/>
<text text-anchor="start" x="430.5" y="-531.5" font-family="Helvetica,sans-Serif" font-size="10.00">+ GeometryTGeo()</text>
<text text-anchor="start" x="430.5" y="-520.5" font-family="Helvetica,sans-Serif" font-size="10.00">+ ~GeometryTGeo()</text>
<text text-anchor="start" x="430.5" y="-509.5" font-family="Helvetica,sans-Serif" font-size="10.00">+ GeometryTGeo()</text>
<text text-anchor="start" x="430.5" y="-498.5" font-family="Helvetica,sans-Serif" font-size="10.00">+ operator=()</text>
<text text-anchor="start" x="430.5" y="-487.5" font-family="Helvetica,sans-Serif" font-size="10.00">+ fillMatrixCache()</text>
<text text-anchor="start" x="430.5" y="-476.5" font-family="Helvetica,sans-Serif" font-size="10.00">+ Build()</text>
<text text-anchor="start" x="430.5" y="-465.5" font-family="Helvetica,sans-Serif" font-size="10.00">+ getSensorIndex()</text>
<text text-anchor="start" x="430.5" y="-454.5" font-family="Helvetica,sans-Serif" font-size="10.00">+ getLayer()</text>
<text text-anchor="start" x="430.5" y="-443.5" font-family="Helvetica,sans-Serif" font-size="10.00">+ Instance()</text>
<text text-anchor="start" x="430.5" y="-432.5" font-family="Helvetica,sans-Serif" font-size="10.00">+ adopt()</text>
<text text-anchor="start" x="430.5" y="-421.5" font-family="Helvetica,sans-Serif" font-size="10.00">+ getMFTVolPattern()</text>
<text text-anchor="start" x="430.5" y="-410.5" font-family="Helvetica,sans-Serif" font-size="10.00">+ getMFTHalfPattern()</text>
<text text-anchor="start" x="430.5" y="-399.5" font-family="Helvetica,sans-Serif" font-size="10.00">+ getMFTDiskPattern()</text>
<text text-anchor="start" x="430.5" y="-388.5" font-family="Helvetica,sans-Serif" font-size="10.00">+ getMFTLadderPattern()</text>
<text text-anchor="start" x="430.5" y="-377.5" font-family="Helvetica,sans-Serif" font-size="10.00">+ getMFTChipPattern()</text>
<text text-anchor="start" x="430.5" y="-366.5" font-family="Helvetica,sans-Serif" font-size="10.00">+ getMFTSensorPattern()</text>
<text text-anchor="start" x="430.5" y="-355.5" font-family="Helvetica,sans-Serif" font-size="10.00"># extractNumberOfHalves()</text>
<text text-anchor="start" x="430.5" y="-344.5" font-family="Helvetica,sans-Serif" font-size="10.00"># extractNumberOfDisks()</text>
<text text-anchor="start" x="430.5" y="-333.5" font-family="Helvetica,sans-Serif" font-size="10.00"># extractNumberOfLadders()</text>
<text text-anchor="start" x="430.5" y="-322.5" font-family="Helvetica,sans-Serif" font-size="10.00"># extractNumberOfLadders()</text>
<text text-anchor="start" x="430.5" y="-311.5" font-family="Helvetica,sans-Serif" font-size="10.00"># extractNumberOfSensorsPer</text>
<text text-anchor="start" x="430.5" y="-300.5" font-family="Helvetica,sans-Serif" font-size="10.00">Ladder()</text>
<text text-anchor="start" x="430.5" y="-289.5" font-family="Helvetica,sans-Serif" font-size="10.00"># extractVolumeCopy()</text>
<text text-anchor="start" x="430.5" y="-278.5" font-family="Helvetica,sans-Serif" font-size="10.00"># extractMatrixSensor()</text>
<text text-anchor="start" x="430.5" y="-267.5" font-family="Helvetica,sans-Serif" font-size="10.00"># createT2LMatrix()</text>
<text text-anchor="start" x="430.5" y="-256.5" font-family="Helvetica,sans-Serif" font-size="10.00"># extractSensorXAlpha()</text>
<text text-anchor="start" x="430.5" y="-245.5" font-family="Helvetica,sans-Serif" font-size="10.00"># getSensorID()</text>
<text text-anchor="start" x="430.5" y="-234.5" font-family="Helvetica,sans-Serif" font-size="10.00"># getHalf()</text>
<text text-anchor="start" x="430.5" y="-223.5" font-family="Helvetica,sans-Serif" font-size="10.00"># getDisk()</text>
<text text-anchor="start" x="430.5" y="-212.5" font-family="Helvetica,sans-Serif" font-size="10.00"># getLadder()</text>
<text text-anchor="start" x="430.5" y="-201.5" font-family="Helvetica,sans-Serif" font-size="10.00"># getFirstSensorIndex()</text>
</a>
</g>
</g>
<!-- Node2&#45;&gt;Node1 -->
<g id="edge1" class="edge"><title>Node2&#45;&gt;Node1</title>
<path fill="none" stroke="#404040" d="M571.29,-194.477C575.244,-184.166 579.167,-173.956 583,-164 583.894,-161.678 584.802,-159.322 585.72,-156.945"/>
<polygon fill="none" stroke="#404040" points="585.738,-156.899 584.17,-149.86 590.064,-145.706 591.632,-152.745 585.738,-156.899"/>
<text text-anchor="middle" x="604.5" y="-167.5" font-family="Helvetica,sans-Serif" font-size="10.00"> #mGeom</text>
</g>
<!-- Node3 -->
<g id="node3" class="node"><title>Node3</title>
<g id="a_node3"><a xlink:href="../../d7/d98/classo2_1_1ITSMFT_1_1GeometryTGeo.html" target="_top" xlink:title="{o2::ITSMFT::GeometryTGeo\n||+ GeometryTGeo()\l+ GeometryTGeo()\l+ operator=()\l+ GeometryTGeo()\l+ ~GeometryTGeo()\l+ getNumberOfChips()\l+ Build()\l# ClassDefOverride()\l}">
<polygon fill="none" stroke="black" points="145,-685 145,-819 287,-819 287,-685 145,-685"/>
<text text-anchor="middle" x="216" y="-807" font-family="Helvetica,sans-Serif" font-size="10.00">o2::ITSMFT::GeometryTGeo</text>
<polyline fill="none" stroke="black" points="145,-800 287,-800 "/>
<text text-anchor="middle" x="216" y="-788" font-family="Helvetica,sans-Serif" font-size="10.00"> </text>
<polyline fill="none" stroke="black" points="145,-781 287,-781 "/>
<text text-anchor="start" x="153" y="-769" font-family="Helvetica,sans-Serif" font-size="10.00">+ GeometryTGeo()</text>
<text text-anchor="start" x="153" y="-758" font-family="Helvetica,sans-Serif" font-size="10.00">+ GeometryTGeo()</text>
<text text-anchor="start" x="153" y="-747" font-family="Helvetica,sans-Serif" font-size="10.00">+ operator=()</text>
<text text-anchor="start" x="153" y="-736" font-family="Helvetica,sans-Serif" font-size="10.00">+ GeometryTGeo()</text>
<text text-anchor="start" x="153" y="-725" font-family="Helvetica,sans-Serif" font-size="10.00">+ ~GeometryTGeo()</text>
<text text-anchor="start" x="153" y="-714" font-family="Helvetica,sans-Serif" font-size="10.00">+ getNumberOfChips()</text>
<text text-anchor="start" x="153" y="-703" font-family="Helvetica,sans-Serif" font-size="10.00">+ Build()</text>
<text text-anchor="start" x="153" y="-692" font-family="Helvetica,sans-Serif" font-size="10.00"># ClassDefOverride()</text>
</a>
</g>
</g>
<!-- Node3&#45;&gt;Node2 -->
<g id="edge2" class="edge"><title>Node3&#45;&gt;Node2</title>
<path fill="none" stroke="midnightblue" d="M266.479,-676.486C283.668,-651.823 303.277,-624.444 322,-600 353.835,-558.437 390.721,-513.731 422.477,-476.216"/>
<polygon fill="none" stroke="midnightblue" points="263.577,-674.528 260.747,-684.737 269.327,-678.521 263.577,-674.528"/>
</g>
<!-- Node4 -->
<g id="node4" class="node"><title>Node4</title>
<g id="a_node4"><a xlink:href="../../df/d06/classo2_1_1detectors_1_1DetMatrixCache.html" target="_top" xlink:title="{o2::detectors::DetMatrix\lCache\n||+ DetMatrixCache()\l+ DetMatrixCache()\l+ ~DetMatrixCache()\l+ DetMatrixCache()\l+ operator=()\l+ getDetID()\l+ getName()\l+ getCacheT2L()\l+ getCacheT2G()\l+ getCacheL2G()\l+ getCacheT2GRot()\l+ getMatrixT2L()\l+ getMatrixT2G()\l+ getMatrixL2G()\l+ getMatrixT2GRot()\l+ isBuilt()\l+ getSize()\l+ fillMatrixCache()\l+ setSize()\l+ getCacheT2L()\l+ getCacheT2G()\l+ getCacheL2G()\l+ getCacheT2GRot()\l+ ClassDef()\l}">
<polygon fill="none" stroke="black" points="155,-858.5 155,-1179.5 277,-1179.5 277,-858.5 155,-858.5"/>
<text text-anchor="start" x="163" y="-1167.5" font-family="Helvetica,sans-Serif" font-size="10.00">o2::detectors::DetMatrix</text>
<text text-anchor="middle" x="216" y="-1156.5" font-family="Helvetica,sans-Serif" font-size="10.00">Cache</text>
<polyline fill="none" stroke="black" points="155,-1149.5 277,-1149.5 "/>
<text text-anchor="middle" x="216" y="-1137.5" font-family="Helvetica,sans-Serif" font-size="10.00"> </text>
<polyline fill="none" stroke="black" points="155,-1130.5 277,-1130.5 "/>
<text text-anchor="start" x="163" y="-1118.5" font-family="Helvetica,sans-Serif" font-size="10.00">+ DetMatrixCache()</text>
<text text-anchor="start" x="163" y="-1107.5" font-family="Helvetica,sans-Serif" font-size="10.00">+ DetMatrixCache()</text>
<text text-anchor="start" x="163" y="-1096.5" font-family="Helvetica,sans-Serif" font-size="10.00">+ ~DetMatrixCache()</text>
<text text-anchor="start" x="163" y="-1085.5" font-family="Helvetica,sans-Serif" font-size="10.00">+ DetMatrixCache()</text>
<text text-anchor="start" x="163" y="-1074.5" font-family="Helvetica,sans-Serif" font-size="10.00">+ operator=()</text>
<text text-anchor="start" x="163" y="-1063.5" font-family="Helvetica,sans-Serif" font-size="10.00">+ getDetID()</text>
<text text-anchor="start" x="163" y="-1052.5" font-family="Helvetica,sans-Serif" font-size="10.00">+ getName()</text>
<text text-anchor="start" x="163" y="-1041.5" font-family="Helvetica,sans-Serif" font-size="10.00">+ getCacheT2L()</text>
<text text-anchor="start" x="163" y="-1030.5" font-family="Helvetica,sans-Serif" font-size="10.00">+ getCacheT2G()</text>
<text text-anchor="start" x="163" y="-1019.5" font-family="Helvetica,sans-Serif" font-size="10.00">+ getCacheL2G()</text>
<text text-anchor="start" x="163" y="-1008.5" font-family="Helvetica,sans-Serif" font-size="10.00">+ getCacheT2GRot()</text>
<text text-anchor="start" x="163" y="-997.5" font-family="Helvetica,sans-Serif" font-size="10.00">+ getMatrixT2L()</text>
<text text-anchor="start" x="163" y="-986.5" font-family="Helvetica,sans-Serif" font-size="10.00">+ getMatrixT2G()</text>
<text text-anchor="start" x="163" y="-975.5" font-family="Helvetica,sans-Serif" font-size="10.00">+ getMatrixL2G()</text>
<text text-anchor="start" x="163" y="-964.5" font-family="Helvetica,sans-Serif" font-size="10.00">+ getMatrixT2GRot()</text>
<text text-anchor="start" x="163" y="-953.5" font-family="Helvetica,sans-Serif" font-size="10.00">+ isBuilt()</text>
<text text-anchor="start" x="163" y="-942.5" font-family="Helvetica,sans-Serif" font-size="10.00">+ getSize()</text>
<text text-anchor="start" x="163" y="-931.5" font-family="Helvetica,sans-Serif" font-size="10.00">+ fillMatrixCache()</text>
<text text-anchor="start" x="163" y="-920.5" font-family="Helvetica,sans-Serif" font-size="10.00">+ setSize()</text>
<text text-anchor="start" x="163" y="-909.5" font-family="Helvetica,sans-Serif" font-size="10.00">+ getCacheT2L()</text>
<text text-anchor="start" x="163" y="-898.5" font-family="Helvetica,sans-Serif" font-size="10.00">+ getCacheT2G()</text>
<text text-anchor="start" x="163" y="-887.5" font-family="Helvetica,sans-Serif" font-size="10.00">+ getCacheL2G()</text>
<text text-anchor="start" x="163" y="-876.5" font-family="Helvetica,sans-Serif" font-size="10.00">+ getCacheT2GRot()</text>
<text text-anchor="start" x="163" y="-865.5" font-family="Helvetica,sans-Serif" font-size="10.00">+ ClassDef()</text>
</a>
</g>
</g>
<!-- Node4&#45;&gt;Node3 -->
<g id="edge3" class="edge"><title>Node4&#45;&gt;Node3</title>
<path fill="none" stroke="midnightblue" d="M216,-848.305C216,-838.209 216,-828.426 216,-819.218"/>
<polygon fill="none" stroke="midnightblue" points="212.5,-848.496 216,-858.496 219.5,-848.496 212.5,-848.496"/>
</g>
<!-- Node5 -->
<g id="node5" class="node"><title>Node5</title>
<g id="a_node5"><a xlink:href="../../d6/dd5/classo2_1_1detectors_1_1DetID.html" target="_top" xlink:title="Static class with identifiers, bitmasks and names for ALICE detectors. ">
<polygon fill="none" stroke="black" points="35,-1250.5 35,-1461.5 141,-1461.5 141,-1250.5 35,-1250.5"/>
<text text-anchor="middle" x="88" y="-1449.5" font-family="Helvetica,sans-Serif" font-size="10.00">o2::detectors::DetID</text>
<polyline fill="none" stroke="black" points="35,-1442.5 141,-1442.5 "/>
<text text-anchor="start" x="43" y="-1430.5" font-family="Helvetica,sans-Serif" font-size="10.00">+ TOF</text>
<text text-anchor="start" x="43" y="-1419.5" font-family="Helvetica,sans-Serif" font-size="10.00">+ PHS</text>
<text text-anchor="start" x="43" y="-1408.5" font-family="Helvetica,sans-Serif" font-size="10.00">+ EMC</text>
<text text-anchor="start" x="43" y="-1397.5" font-family="Helvetica,sans-Serif" font-size="10.00">+ HMP</text>
<text text-anchor="start" x="43" y="-1386.5" font-family="Helvetica,sans-Serif" font-size="10.00">+ MFT</text>
<text text-anchor="start" x="43" y="-1375.5" font-family="Helvetica,sans-Serif" font-size="10.00">+ Last</text>
<polyline fill="none" stroke="black" points="35,-1368.5 141,-1368.5 "/>
<text text-anchor="start" x="43" y="-1356.5" font-family="Helvetica,sans-Serif" font-size="10.00">+ DetID()</text>
<text text-anchor="start" x="43" y="-1345.5" font-family="Helvetica,sans-Serif" font-size="10.00">+ DetID()</text>
<text text-anchor="start" x="43" y="-1334.5" font-family="Helvetica,sans-Serif" font-size="10.00">+ getID()</text>
<text text-anchor="start" x="43" y="-1323.5" font-family="Helvetica,sans-Serif" font-size="10.00">+ getMask()</text>
<text text-anchor="start" x="43" y="-1312.5" font-family="Helvetica,sans-Serif" font-size="10.00">+ getName()</text>
<text text-anchor="start" x="43" y="-1301.5" font-family="Helvetica,sans-Serif" font-size="10.00">+ operator int()</text>
<text text-anchor="start" x="43" y="-1290.5" font-family="Helvetica,sans-Serif" font-size="10.00">+ DetID()</text>
<text text-anchor="start" x="43" y="-1279.5" font-family="Helvetica,sans-Serif" font-size="10.00">+ getNDetectors()</text>
<text text-anchor="start" x="43" y="-1268.5" font-family="Helvetica,sans-Serif" font-size="10.00">+ getName()</text>
<text text-anchor="start" x="43" y="-1257.5" font-family="Helvetica,sans-Serif" font-size="10.00">+ getMask()</text>
</a>
</g>
</g>
<!-- Node5&#45;&gt;Node4 -->
<g id="edge4" class="edge"><title>Node5&#45;&gt;Node4</title>
<path fill="none" stroke="#404040" d="M104.048,-1250.33C108.071,-1232.61 113.001,-1214.59 119,-1198 127.176,-1175.39 137.896,-1152.17 149.221,-1130.27"/>
<polygon fill="none" stroke="#404040" points="149.229,-1130.26 148.486,-1123.09 154.821,-1119.64 155.564,-1126.81 149.229,-1130.26"/>
<text text-anchor="middle" x="141" y="-1212.5" font-family="Helvetica,sans-Serif" font-size="10.00"> +mDetID</text>
</g>
<!-- Node6 -->
<g id="node6" class="node"><title>Node6</title>
<polygon fill="none" stroke="#bfbfbf" points="0,-1664.5 0,-1721.5 100,-1721.5 100,-1664.5 0,-1664.5"/>
<text text-anchor="middle" x="50" y="-1709.5" font-family="Helvetica,sans-Serif" font-size="10.00">static constexpr ID</text>
<polyline fill="none" stroke="#bfbfbf" points="0,-1702.5 100,-1702.5 "/>
<text text-anchor="middle" x="50" y="-1690.5" font-family="Helvetica,sans-Serif" font-size="10.00"> </text>
<polyline fill="none" stroke="#bfbfbf" points="0,-1683.5 100,-1683.5 "/>
<text text-anchor="middle" x="50" y="-1671.5" font-family="Helvetica,sans-Serif" font-size="10.00"> </text>
</g>
<!-- Node6&#45;&gt;Node5 -->
<g id="edge5" class="edge"><title>Node6&#45;&gt;Node5</title>
<path fill="none" stroke="#404040" d="M47.6211,-1664.36C44.6872,-1623.71 41.2005,-1545.52 51,-1480 51.326,-1477.82 51.6819,-1475.63 52.065,-1473.42"/>
<polygon fill="none" stroke="#404040" points="52.0818,-1473.33 49.292,-1466.68 54.3571,-1461.55 57.1469,-1468.2 52.0818,-1473.33"/>
<text text-anchor="middle" x="66.5" y="-1593.5" font-family="Helvetica,sans-Serif" font-size="10.00"> +ACO</text>
<text text-anchor="middle" x="66.5" y="-1582.5" font-family="Helvetica,sans-Serif" font-size="10.00">+First</text>
<text text-anchor="middle" x="66.5" y="-1571.5" font-family="Helvetica,sans-Serif" font-size="10.00">+FIT</text>
<text text-anchor="middle" x="66.5" y="-1560.5" font-family="Helvetica,sans-Serif" font-size="10.00">+MCH</text>
<text text-anchor="middle" x="66.5" y="-1549.5" font-family="Helvetica,sans-Serif" font-size="10.00">+TRD</text>
<text text-anchor="middle" x="66.5" y="-1538.5" font-family="Helvetica,sans-Serif" font-size="10.00">+TPC</text>
<text text-anchor="middle" x="66.5" y="-1527.5" font-family="Helvetica,sans-Serif" font-size="10.00">+ZDC</text>
<text text-anchor="middle" x="66.5" y="-1516.5" font-family="Helvetica,sans-Serif" font-size="10.00">+MID</text>
<text text-anchor="middle" x="66.5" y="-1505.5" font-family="Helvetica,sans-Serif" font-size="10.00">+ITS</text>
<text text-anchor="middle" x="66.5" y="-1494.5" font-family="Helvetica,sans-Serif" font-size="10.00">+CPV</text>
<text text-anchor="middle" x="66.5" y="-1483.5" font-family="Helvetica,sans-Serif" font-size="10.00">...</text>
</g>
<!-- Node7 -->
<g id="node7" class="node"><title>Node7</title>
<polygon fill="none" stroke="#bfbfbf" points="140.5,-1664.5 140.5,-1721.5 169.5,-1721.5 169.5,-1664.5 140.5,-1664.5"/>
<text text-anchor="middle" x="155" y="-1709.5" font-family="Helvetica,sans-Serif" font-size="10.00">int</text>
<polyline fill="none" stroke="#bfbfbf" points="140.5,-1702.5 169.5,-1702.5 "/>
<text text-anchor="middle" x="155" y="-1690.5" font-family="Helvetica,sans-Serif" font-size="10.00"> </text>
<polyline fill="none" stroke="#bfbfbf" points="140.5,-1683.5 169.5,-1683.5 "/>
<text text-anchor="middle" x="155" y="-1671.5" font-family="Helvetica,sans-Serif" font-size="10.00"> </text>
</g>
<!-- Node7&#45;&gt;Node4 -->
<g id="edge9" class="edge"><title>Node7&#45;&gt;Node4</title>
<path fill="none" stroke="#404040" d="M157.618,-1664.44C159.268,-1646.63 161.384,-1622.96 163,-1602 175.052,-1445.69 170.742,-1406.03 186,-1250 187.842,-1231.17 190.018,-1211.49 192.345,-1191.93"/>
<polygon fill="none" stroke="#404040" points="192.374,-1191.68 189.121,-1185.25 193.811,-1179.77 197.064,-1186.21 192.374,-1191.68"/>
<text text-anchor="middle" x="204.5" y="-1353.5" font-family="Helvetica,sans-Serif" font-size="10.00"> +mSize</text>
</g>
<!-- Node7&#45;&gt;Node5 -->
<g id="edge6" class="edge"><title>Node7&#45;&gt;Node5</title>
<path fill="none" stroke="#404040" d="M140.301,-1671.71C128.477,-1654.19 112.62,-1627.71 105,-1602 92.8953,-1561.17 87.6487,-1514.9 85.7512,-1473.65"/>
<polygon fill="none" stroke="#404040" points="85.7487,-1473.58 81.5192,-1467.74 85.2837,-1461.59 89.5132,-1467.43 85.7487,-1473.58"/>
<text text-anchor="middle" x="134" y="-1538.5" font-family="Helvetica,sans-Serif" font-size="10.00"> +nDetectors</text>
</g>
<!-- Node8 -->
<g id="node8" class="node"><title>Node8</title>
<g id="a_node8"><a xlink:href="../../d4/daa/classo2_1_1detectors_1_1MatrixCache.html" target="_top" xlink:title="{o2::detectors::MatrixCache\l\&lt; o2::Transform3D \&gt;\n||+ MatrixCache()\l+ MatrixCache()\l+ ~MatrixCache()\l+ operator=()\l+ setSize()\l+ getSize()\l+ setMatrix()\l+ getMatrix()\l+ isFilled()\l}">
<polygon fill="none" stroke="black" points="232.5,-1278 232.5,-1434 367.5,-1434 367.5,-1278 232.5,-1278"/>
<text text-anchor="start" x="240.5" y="-1422" font-family="Helvetica,sans-Serif" font-size="10.00">o2::detectors::MatrixCache</text>
<text text-anchor="middle" x="300" y="-1411" font-family="Helvetica,sans-Serif" font-size="10.00">&lt; o2::Transform3D &gt;</text>
<polyline fill="none" stroke="black" points="232.5,-1404 367.5,-1404 "/>
<text text-anchor="middle" x="300" y="-1392" font-family="Helvetica,sans-Serif" font-size="10.00"> </text>
<polyline fill="none" stroke="black" points="232.5,-1385 367.5,-1385 "/>
<text text-anchor="start" x="240.5" y="-1373" font-family="Helvetica,sans-Serif" font-size="10.00">+ MatrixCache()</text>
<text text-anchor="start" x="240.5" y="-1362" font-family="Helvetica,sans-Serif" font-size="10.00">+ MatrixCache()</text>
<text text-anchor="start" x="240.5" y="-1351" font-family="Helvetica,sans-Serif" font-size="10.00">+ ~MatrixCache()</text>
<text text-anchor="start" x="240.5" y="-1340" font-family="Helvetica,sans-Serif" font-size="10.00">+ operator=()</text>
<text text-anchor="start" x="240.5" y="-1329" font-family="Helvetica,sans-Serif" font-size="10.00">+ setSize()</text>
<text text-anchor="start" x="240.5" y="-1318" font-family="Helvetica,sans-Serif" font-size="10.00">+ getSize()</text>
<text text-anchor="start" x="240.5" y="-1307" font-family="Helvetica,sans-Serif" font-size="10.00">+ setMatrix()</text>
<text text-anchor="start" x="240.5" y="-1296" font-family="Helvetica,sans-Serif" font-size="10.00">+ getMatrix()</text>
<text text-anchor="start" x="240.5" y="-1285" font-family="Helvetica,sans-Serif" font-size="10.00">+ isFilled()</text>
</a>
</g>
</g>
<!-- Node8&#45;&gt;Node4 -->
<g id="edge7" class="edge"><title>Node8&#45;&gt;Node4</title>
<path fill="none" stroke="#404040" d="M280.623,-1277.72C274.122,-1251.79 266.589,-1221.75 259.013,-1191.54"/>
<polygon fill="none" stroke="#404040" points="258.914,-1191.15 253.575,-1186.3 255.995,-1179.51 261.335,-1184.35 258.914,-1191.15"/>
<text text-anchor="middle" x="286.5" y="-1223.5" font-family="Helvetica,sans-Serif" font-size="10.00"> +mT2G</text>
<text text-anchor="middle" x="286.5" y="-1212.5" font-family="Helvetica,sans-Serif" font-size="10.00">+mT2L</text>
<text text-anchor="middle" x="286.5" y="-1201.5" font-family="Helvetica,sans-Serif" font-size="10.00">+mL2G</text>
</g>
<!-- Node9 -->
<g id="node9" class="node"><title>Node9</title>
<g id="a_node9"><a xlink:href="../../d4/daa/classo2_1_1detectors_1_1MatrixCache.html" target="_top" xlink:title="MatrixCache is a vector of cached transform matrices (per sensor) for specific Transformation type...">
<polygon fill="none" stroke="black" points="288.5,-1620.5 288.5,-1765.5 447.5,-1765.5 447.5,-1620.5 288.5,-1620.5"/>
<text text-anchor="middle" x="368" y="-1753.5" font-family="Helvetica,sans-Serif" font-size="10.00">o2::detectors::MatrixCache&lt; T &gt;</text>
<polyline fill="none" stroke="black" points="288.5,-1746.5 447.5,-1746.5 "/>
<text text-anchor="middle" x="368" y="-1734.5" font-family="Helvetica,sans-Serif" font-size="10.00"> </text>
<polyline fill="none" stroke="black" points="288.5,-1727.5 447.5,-1727.5 "/>
<text text-anchor="start" x="296.5" y="-1715.5" font-family="Helvetica,sans-Serif" font-size="10.00">+ MatrixCache()</text>
<text text-anchor="start" x="296.5" y="-1704.5" font-family="Helvetica,sans-Serif" font-size="10.00">+ ~MatrixCache()</text>
<text text-anchor="start" x="296.5" y="-1693.5" font-family="Helvetica,sans-Serif" font-size="10.00">+ MatrixCache()</text>
<text text-anchor="start" x="296.5" y="-1682.5" font-family="Helvetica,sans-Serif" font-size="10.00">+ operator=()</text>
<text text-anchor="start" x="296.5" y="-1671.5" font-family="Helvetica,sans-Serif" font-size="10.00">+ setSize()</text>
<text text-anchor="start" x="296.5" y="-1660.5" font-family="Helvetica,sans-Serif" font-size="10.00">+ getSize()</text>
<text text-anchor="start" x="296.5" y="-1649.5" font-family="Helvetica,sans-Serif" font-size="10.00">+ setMatrix()</text>
<text text-anchor="start" x="296.5" y="-1638.5" font-family="Helvetica,sans-Serif" font-size="10.00">+ getMatrix()</text>
<text text-anchor="start" x="296.5" y="-1627.5" font-family="Helvetica,sans-Serif" font-size="10.00">+ isFilled()</text>
</a>
</g>
</g>
<!-- Node9&#45;&gt;Node8 -->
<g id="edge8" class="edge"><title>Node9&#45;&gt;Node8</title>
<path fill="none" stroke="orange" d="M329.654,-1610.84C328.696,-1607.88 327.806,-1604.93 327,-1602 311.867,-1547.02 305.173,-1482.9 302.232,-1434.05"/>
<polygon fill="orange" stroke="orange" points="326.349,-1611.99 332.931,-1620.29 332.964,-1609.7 326.349,-1611.99"/>
<text text-anchor="middle" x="374.5" y="-1538.5" font-family="Helvetica,sans-Serif" font-size="10.00"> &lt; o2::Transform3D &gt;</text>
</g>
<!-- Node10 -->
<g id="node10" class="node"><title>Node10</title>
<g id="a_node10"><a xlink:href="../../d4/daa/classo2_1_1detectors_1_1MatrixCache.html" target="_top" xlink:title="{o2::detectors::MatrixCache\l\&lt; o2::Rotation2D \&gt;\n||+ MatrixCache()\l+ MatrixCache()\l+ ~MatrixCache()\l+ operator=()\l+ setSize()\l+ getSize()\l+ setMatrix()\l+ getMatrix()\l+ isFilled()\l}">
<polygon fill="none" stroke="black" points="385.5,-1278 385.5,-1434 520.5,-1434 520.5,-1278 385.5,-1278"/>
<text text-anchor="start" x="393.5" y="-1422" font-family="Helvetica,sans-Serif" font-size="10.00">o2::detectors::MatrixCache</text>
<text text-anchor="middle" x="453" y="-1411" font-family="Helvetica,sans-Serif" font-size="10.00">&lt; o2::Rotation2D &gt;</text>
<polyline fill="none" stroke="black" points="385.5,-1404 520.5,-1404 "/>
<text text-anchor="middle" x="453" y="-1392" font-family="Helvetica,sans-Serif" font-size="10.00"> </text>
<polyline fill="none" stroke="black" points="385.5,-1385 520.5,-1385 "/>
<text text-anchor="start" x="393.5" y="-1373" font-family="Helvetica,sans-Serif" font-size="10.00">+ MatrixCache()</text>
<text text-anchor="start" x="393.5" y="-1362" font-family="Helvetica,sans-Serif" font-size="10.00">+ MatrixCache()</text>
<text text-anchor="start" x="393.5" y="-1351" font-family="Helvetica,sans-Serif" font-size="10.00">+ ~MatrixCache()</text>
<text text-anchor="start" x="393.5" y="-1340" font-family="Helvetica,sans-Serif" font-size="10.00">+ operator=()</text>
<text text-anchor="start" x="393.5" y="-1329" font-family="Helvetica,sans-Serif" font-size="10.00">+ setSize()</text>
<text text-anchor="start" x="393.5" y="-1318" font-family="Helvetica,sans-Serif" font-size="10.00">+ getSize()</text>
<text text-anchor="start" x="393.5" y="-1307" font-family="Helvetica,sans-Serif" font-size="10.00">+ setMatrix()</text>
<text text-anchor="start" x="393.5" y="-1296" font-family="Helvetica,sans-Serif" font-size="10.00">+ getMatrix()</text>
<text text-anchor="start" x="393.5" y="-1285" font-family="Helvetica,sans-Serif" font-size="10.00">+ isFilled()</text>
</a>
</g>
</g>
<!-- Node9&#45;&gt;Node10 -->
<g id="edge11" class="edge"><title>Node9&#45;&gt;Node10</title>
<path fill="none" stroke="orange" d="M418.627,-1610.89C419.845,-1607.93 420.975,-1604.96 422,-1602 440.752,-1547.81 448.372,-1483.37 451.373,-1434.18"/>
<polygon fill="orange" stroke="orange" points="415.303,-1609.76 414.465,-1620.32 421.707,-1612.58 415.303,-1609.76"/>
<text text-anchor="middle" x="492" y="-1538.5" font-family="Helvetica,sans-Serif" font-size="10.00"> &lt; o2::Rotation2D &gt;</text>
</g>
<!-- Node10&#45;&gt;Node4 -->
<g id="edge10" class="edge"><title>Node10&#45;&gt;Node4</title>
<path fill="none" stroke="#404040" d="M398.33,-1277.72C364.368,-1229.72 320.435,-1167.62 284.205,-1116.41"/>
<polygon fill="none" stroke="#404040" points="283.997,-1116.11 277.266,-1113.53 277.066,-1106.32 283.797,-1108.91 283.997,-1116.11"/>
<text text-anchor="middle" x="389" y="-1212.5" font-family="Helvetica,sans-Serif" font-size="10.00"> +mT2GRot</text>
</g>
<!-- Node11 -->
<g id="node11" class="node"><title>Node11</title>
<polygon fill="none" stroke="#bfbfbf" points="305.5,-723.5 305.5,-780.5 346.5,-780.5 346.5,-723.5 305.5,-723.5"/>
<text text-anchor="middle" x="326" y="-768.5" font-family="Helvetica,sans-Serif" font-size="10.00">string</text>
<polyline fill="none" stroke="#bfbfbf" points="305.5,-761.5 346.5,-761.5 "/>
<text text-anchor="middle" x="326" y="-749.5" font-family="Helvetica,sans-Serif" font-size="10.00"> </text>
<polyline fill="none" stroke="#bfbfbf" points="305.5,-742.5 346.5,-742.5 "/>
<text text-anchor="middle" x="326" y="-730.5" font-family="Helvetica,sans-Serif" font-size="10.00"> </text>
</g>
<!-- Node11&#45;&gt;Node2 -->
<g id="edge12" class="edge"><title>Node11&#45;&gt;Node2</title>
<path fill="none" stroke="#404040" d="M324.151,-723.256C323.07,-692.168 324.294,-640.784 340,-600 356.984,-555.896 385.978,-513.039 414.527,-477.599"/>
<polygon fill="none" stroke="#404040" points="414.557,-477.563 415.265,-470.387 422.161,-468.28 421.453,-475.457 414.557,-477.563"/>
<text text-anchor="middle" x="376.5" y="-658" font-family="Helvetica,sans-Serif" font-size="10.00"> #sVolumeName</text>
<text text-anchor="middle" x="376.5" y="-647" font-family="Helvetica,sans-Serif" font-size="10.00">#sChipName</text>
<text text-anchor="middle" x="376.5" y="-636" font-family="Helvetica,sans-Serif" font-size="10.00">#sDiskName</text>
<text text-anchor="middle" x="376.5" y="-625" font-family="Helvetica,sans-Serif" font-size="10.00">#sLadderName</text>
<text text-anchor="middle" x="376.5" y="-614" font-family="Helvetica,sans-Serif" font-size="10.00">#sHalfName</text>
<text text-anchor="middle" x="376.5" y="-603" font-family="Helvetica,sans-Serif" font-size="10.00">#sSensorName</text>
</g>
<!-- Node12 -->
<g id="node12" class="node"><title>Node12</title>
<polygon fill="none" stroke="#bfbfbf" points="381.5,-723.5 381.5,-780.5 462.5,-780.5 462.5,-723.5 381.5,-723.5"/>
<text text-anchor="middle" x="422" y="-768.5" font-family="Helvetica,sans-Serif" font-size="10.00">vector&lt; Int_t &gt;</text>
<polyline fill="none" stroke="#bfbfbf" points="381.5,-761.5 462.5,-761.5 "/>
<text text-anchor="middle" x="422" y="-749.5" font-family="Helvetica,sans-Serif" font-size="10.00"> </text>
<polyline fill="none" stroke="#bfbfbf" points="381.5,-742.5 462.5,-742.5 "/>
<text text-anchor="middle" x="422" y="-730.5" font-family="Helvetica,sans-Serif" font-size="10.00"> </text>
</g>
<!-- Node12&#45;&gt;Node2 -->
<g id="edge13" class="edge"><title>Node12&#45;&gt;Node2</title>
<path fill="none" stroke="#404040" d="M420.781,-723.444C420.107,-706.812 419.339,-685.193 419,-666 418.483,-636.671 413.774,-628.864 419,-600 419.394,-597.821 419.81,-595.636 420.246,-593.445"/>
<polygon fill="none" stroke="#404040" points="420.251,-593.42 417.594,-586.716 422.76,-581.685 425.417,-588.389 420.251,-593.42"/>
<text text-anchor="middle" x="484" y="-652.5" font-family="Helvetica,sans-Serif" font-size="10.00"> #mSensorIndexToLayer</text>
<text text-anchor="middle" x="484" y="-641.5" font-family="Helvetica,sans-Serif" font-size="10.00">#mNumberOfSensorsPerDisk</text>
<text text-anchor="middle" x="484" y="-630.5" font-family="Helvetica,sans-Serif" font-size="10.00">#mNumberOfLaddersPerDisk</text>
<text text-anchor="middle" x="484" y="-619.5" font-family="Helvetica,sans-Serif" font-size="10.00">#mLastSensorIndex</text>
<text text-anchor="middle" x="484" y="-608.5" font-family="Helvetica,sans-Serif" font-size="10.00">#mNumberOfDisks</text>
</g>
<!-- Node13 -->
<g id="node13" class="node"><title>Node13</title>
<polygon fill="none" stroke="#bfbfbf" points="526,-723.5 526,-780.5 618,-780.5 618,-723.5 526,-723.5"/>
<text text-anchor="middle" x="572" y="-768.5" font-family="Helvetica,sans-Serif" font-size="10.00">vector&lt; Float_t &gt;</text>
<polyline fill="none" stroke="#bfbfbf" points="526,-761.5 618,-761.5 "/>
<text text-anchor="middle" x="572" y="-749.5" font-family="Helvetica,sans-Serif" font-size="10.00"> </text>
<polyline fill="none" stroke="#bfbfbf" points="526,-742.5 618,-742.5 "/>
<text text-anchor="middle" x="572" y="-730.5" font-family="Helvetica,sans-Serif" font-size="10.00"> </text>
</g>
<!-- Node13&#45;&gt;Node2 -->
<g id="edge14" class="edge"><title>Node13&#45;&gt;Node2</title>
<path fill="none" stroke="#404040" d="M569.601,-723.276C566.716,-692.859 561.212,-642.681 553,-600 552.582,-597.829 552.155,-595.647 551.719,-593.457"/>
<polygon fill="none" stroke="#404040" points="551.711,-593.419 546.589,-588.343 549.305,-581.663 554.427,-586.739 551.711,-593.419"/>
<text text-anchor="middle" x="603.5" y="-630.5" font-family="Helvetica,sans-Serif" font-size="10.00"> #mLayerMedianZ</text>
</g>
<!-- Node14 -->
<g id="node14" class="node"><title>Node14</title>
<polygon fill="none" stroke="#bfbfbf" points="636.5,-718 636.5,-786 735.5,-786 735.5,-718 636.5,-718"/>
<text text-anchor="start" x="644.5" y="-774" font-family="Helvetica,sans-Serif" font-size="10.00">vector&lt; std::vector</text>
<text text-anchor="middle" x="686" y="-763" font-family="Helvetica,sans-Serif" font-size="10.00">&lt; Int_t &gt; &gt;</text>
<polyline fill="none" stroke="#bfbfbf" points="636.5,-756 735.5,-756 "/>
<text text-anchor="middle" x="686" y="-744" font-family="Helvetica,sans-Serif" font-size="10.00"> </text>
<polyline fill="none" stroke="#bfbfbf" points="636.5,-737 735.5,-737 "/>
<text text-anchor="middle" x="686" y="-725" font-family="Helvetica,sans-Serif" font-size="10.00"> </text>
</g>
<!-- Node14&#45;&gt;Node2 -->
<g id="edge15" class="edge"><title>Node14&#45;&gt;Node2</title>
<path fill="none" stroke="#404040" d="M686.509,-717.868C685.195,-683.81 677.776,-631.442 647,-600 626.331,-578.884 605.31,-601.373 583,-582 582.901,-581.914 582.801,-581.827 582.702,-581.741"/>
<polygon fill="none" stroke="#404040" points="582.515,-581.563 575.407,-580.342 573.801,-573.312 580.908,-574.533 582.515,-581.563"/>
<text text-anchor="middle" x="728.5" y="-641.5" font-family="Helvetica,sans-Serif" font-size="10.00"> #mNumberOfLadders</text>
<text text-anchor="middle" x="728.5" y="-630.5" font-family="Helvetica,sans-Serif" font-size="10.00">#mLadderId2Index</text>
<text text-anchor="middle" x="728.5" y="-619.5" font-family="Helvetica,sans-Serif" font-size="10.00">#mLadderIndex2Id</text>
</g>
<!-- Node15 -->
<g id="node15" class="node"><title>Node15</title>
<polygon fill="none" stroke="#bfbfbf" points="785,-723.5 785,-780.5 821,-780.5 821,-723.5 785,-723.5"/>
<text text-anchor="middle" x="803" y="-768.5" font-family="Helvetica,sans-Serif" font-size="10.00">Int_t</text>
<polyline fill="none" stroke="#bfbfbf" points="785,-761.5 821,-761.5 "/>
<text text-anchor="middle" x="803" y="-749.5" font-family="Helvetica,sans-Serif" font-size="10.00"> </text>
<polyline fill="none" stroke="#bfbfbf" points="785,-742.5 821,-742.5 "/>
<text text-anchor="middle" x="803" y="-730.5" font-family="Helvetica,sans-Serif" font-size="10.00"> </text>
</g>
<!-- Node15&#45;&gt;Node2 -->
<g id="edge16" class="edge"><title>Node15&#45;&gt;Node2</title>
<path fill="none" stroke="#404040" d="M808.093,-723.317C812.63,-689.064 814.175,-631.429 781,-600 748.927,-569.614 618.873,-607.79 583,-582 582.898,-581.927 582.796,-581.853 582.694,-581.779"/>
<polygon fill="none" stroke="#404040" points="582.944,-581.978 575.759,-581.369 573.557,-574.502 580.743,-575.111 582.944,-581.978"/>
<text text-anchor="middle" x="868.5" y="-647" font-family="Helvetica,sans-Serif" font-size="10.00"> #mNumberOfHalves</text>
<text text-anchor="middle" x="868.5" y="-636" font-family="Helvetica,sans-Serif" font-size="10.00">#MinSensorsPerLadder</text>
<text text-anchor="middle" x="868.5" y="-625" font-family="Helvetica,sans-Serif" font-size="10.00">#MaxSensorsPerLadder</text>
<text text-anchor="middle" x="868.5" y="-614" font-family="Helvetica,sans-Serif" font-size="10.00">#mTotalNumberOfSensors</text>
</g>
<!-- Node16 -->
<g id="node16" class="node"><title>Node16</title>
<polygon fill="none" stroke="#bfbfbf" points="592,-354 592,-422 724,-422 724,-354 592,-354"/>
<text text-anchor="start" x="600" y="-410" font-family="Helvetica,sans-Serif" font-size="10.00">vector&lt; const o2::ITSMFT</text>
<text text-anchor="middle" x="658" y="-399" font-family="Helvetica,sans-Serif" font-size="10.00">::Cluster * &gt;</text>
<polyline fill="none" stroke="#bfbfbf" points="592,-392 724,-392 "/>
<text text-anchor="middle" x="658" y="-380" font-family="Helvetica,sans-Serif" font-size="10.00"> </text>
<polyline fill="none" stroke="#bfbfbf" points="592,-373 724,-373 "/>
<text text-anchor="middle" x="658" y="-361" font-family="Helvetica,sans-Serif" font-size="10.00"> </text>
</g>
<!-- Node16&#45;&gt;Node1 -->
<g id="edge17" class="edge"><title>Node16&#45;&gt;Node1</title>
<path fill="none" stroke="#404040" d="M653.757,-353.8C647.845,-307.536 636.93,-222.124 628.708,-157.79"/>
<polygon fill="none" stroke="#404040" points="628.675,-157.533 623.947,-152.089 627.154,-145.63 631.882,-151.074 628.675,-157.533"/>
<text text-anchor="middle" x="658" y="-167.5" font-family="Helvetica,sans-Serif" font-size="10.00"> #mClusters</text>
</g>
</g>
</svg>
        <g id="navigator" transform="translate(0 0)" fill="#404254">
                <rect fill="#f2f5e9" fill-opacity="0.5" stroke="#606060" stroke-width=".5" x="0" y="0" width="60" height="60"/>
                <use id="zoomplus" xlink:href="#zoomPlus" x="17" y="9" onmousedown="handleZoom(evt,'in')"/>
                <use id="zoomminus" xlink:href="#zoomMin" x="42" y="9" onmousedown="handleZoom(evt,'out')"/>
                <use id="reset" xlink:href="#resetDef" x="30" y="36" onmousedown="handleReset()"/>
                <g id="arrowUp" xlink:href="#dirArrow" transform="translate(30 24)" onmousedown="handlePan(0,-1)">
                  <use xlink:href="#rim" fill="#404040">
                        <set attributeName="fill" to="#808080" begin="arrowUp.mouseover" end="arrowUp.mouseout"/>
                  </use>
                  <path fill="none" stroke="white" stroke-width="1.5" d="M0,-3.0v7 M-2.5,-0.5L0,-3.0L2.5,-0.5"/>
                </g>
                <g id="arrowRight" xlink:href="#dirArrow" transform="rotate(90) translate(36 -43)" onmousedown="handlePan(1,0)">
                  <use xlink:href="#rim" fill="#404040">
                        <set attributeName="fill" to="#808080" begin="arrowRight.mouseover" end="arrowRight.mouseout"/>
                  </use>
                  <path fill="none" stroke="white" stroke-width="1.5" d="M0,-3.0v7 M-2.5,-0.5L0,-3.0L2.5,-0.5"/>
                </g>
                <g id="arrowDown" xlink:href="#dirArrow" transform="rotate(180) translate(-30 -48)" onmousedown="handlePan(0,1)">
                  <use xlink:href="#rim" fill="#404040">
                        <set attributeName="fill" to="#808080" begin="arrowDown.mouseover" end="arrowDown.mouseout"/>
                  </use>
                  <path fill="none" stroke="white" stroke-width="1.5" d="M0,-3.0v7 M-2.5,-0.5L0,-3.0L2.5,-0.5"/>
                </g>
                <g id="arrowLeft" xlink:href="#dirArrow" transform="rotate(270) translate(-36 17)" onmousedown="handlePan(-1,0)">
                  <use xlink:href="#rim" fill="#404040">
                        <set attributeName="fill" to="#808080" begin="arrowLeft.mouseover" end="arrowLeft.mouseout"/>
                  </use>
                  <path fill="none" stroke="white" stroke-width="1.5" d="M0,-3.0v7 M-2.5,-0.5L0,-3.0L2.5,-0.5"/>
                </g>
        </g>
        <svg viewBox="0 0 15 15" width="100%" height="30px" preserveAspectRatio="xMaxYMin meet">
         <g id="arrow_out" transform="scale(0.3 0.3)">
          <a xlink:href="classo2_1_1MFT_1_1Tracker_1_1Layer__coll__graph_org.svg" target="_base">
           <rect id="button" ry="5" rx="5" y="6" x="6" height="38" width="38"
                fill="#f2f5e9" fill-opacity="0.5" stroke="#606060" stroke-width="1.0"/>
           <path id="arrow"
             d="M 11.500037,31.436501 C 11.940474,20.09759 22.043105,11.32322 32.158766,21.979434 L 37.068811,17.246167 C 37.068811,17.246167 37.088388,32 37.088388,32 L 22.160133,31.978069 C 22.160133,31.978069 26.997745,27.140456 26.997745,27.140456 C 18.528582,18.264221 13.291696,25.230495 11.500037,31.436501 z"
             style="fill:#404040;"/>
          </a>
         </g>
        </svg>
</svg>
