<?xml version="1.0" encoding="UTF-8" standalone="no"?>
<!DOCTYPE svg PUBLIC "-//W3C//DTD SVG 1.1//EN"
 "http://www.w3.org/Graphics/SVG/1.1/DTD/svg11.dtd">
<!-- Generated by graphviz version 2.36.0 (20140111.2315)
 -->
<!-- Title: FairTask Pages: 1 -->
<svg width="1749pt" height="348pt"
 viewBox="0.00 0.00 1749.00 348.00" xmlns="http://www.w3.org/2000/svg" xmlns:xlink="http://www.w3.org/1999/xlink">
<g id="graph0" class="graph" transform="scale(1 1) rotate(0) translate(4 344)">
<title>FairTask</title>
<!-- Node1 -->
<g id="node1" class="node"><title>Node1</title>
<polygon fill="#bfbfbf" stroke="black" points="847.5,-282.5 847.5,-339.5 902.5,-339.5 902.5,-282.5 847.5,-282.5"/>
<text text-anchor="middle" x="875" y="-327.5" font-family="Helvetica,sans-Serif" font-size="10.00">FairTask</text>
<polyline fill="none" stroke="black" points="847.5,-320.5 902.5,-320.5 "/>
<text text-anchor="middle" x="875" y="-308.5" font-family="Helvetica,sans-Serif" font-size="10.00"> </text>
<polyline fill="none" stroke="black" points="847.5,-301.5 902.5,-301.5 "/>
<text text-anchor="middle" x="875" y="-289.5" font-family="Helvetica,sans-Serif" font-size="10.00"> </text>
</g>
<!-- Node2 -->
<g id="node2" class="node"><title>Node2</title>
<g id="a_node2"><a xlink:href="../../de/d8a/classo2_1_1EMCAL_1_1DigitizerTask.html" target="_top" xlink:title="{o2::EMCAL::DigitizerTask\n||+ DigitizerTask()\l+ ~DigitizerTask()\l+ Init()\l+ Exec()\l+ FinishTask()\l+ getDigitizer()\l+ setFairTimeUnitInNS()\l+ getFairTimeUnitInNS()\l}">
<polygon fill="none" stroke="black" points="-0.5,-56 -0.5,-190 130.5,-190 130.5,-56 -0.5,-56"/>
<text text-anchor="middle" x="65" y="-178" font-family="Helvetica,sans-Serif" font-size="10.00">o2::EMCAL::DigitizerTask</text>
<polyline fill="none" stroke="black" points="-0.5,-171 130.5,-171 "/>
<text text-anchor="middle" x="65" y="-159" font-family="Helvetica,sans-Serif" font-size="10.00"> </text>
<polyline fill="none" stroke="black" points="-0.5,-152 130.5,-152 "/>
<text text-anchor="start" x="7.5" y="-140" font-family="Helvetica,sans-Serif" font-size="10.00">+ DigitizerTask()</text>
<text text-anchor="start" x="7.5" y="-129" font-family="Helvetica,sans-Serif" font-size="10.00">+ ~DigitizerTask()</text>
<text text-anchor="start" x="7.5" y="-118" font-family="Helvetica,sans-Serif" font-size="10.00">+ Init()</text>
<text text-anchor="start" x="7.5" y="-107" font-family="Helvetica,sans-Serif" font-size="10.00">+ Exec()</text>
<text text-anchor="start" x="7.5" y="-96" font-family="Helvetica,sans-Serif" font-size="10.00">+ FinishTask()</text>
<text text-anchor="start" x="7.5" y="-85" font-family="Helvetica,sans-Serif" font-size="10.00">+ getDigitizer()</text>
<text text-anchor="start" x="7.5" y="-74" font-family="Helvetica,sans-Serif" font-size="10.00">+ setFairTimeUnitInNS()</text>
<text text-anchor="start" x="7.5" y="-63" font-family="Helvetica,sans-Serif" font-size="10.00">+ getFairTimeUnitInNS()</text>
</a>
</g>
</g>
<!-- Node1&#45;&gt;Node2 -->
<g id="edge1" class="edge"><title>Node1&#45;&gt;Node2</title>
<path fill="none" stroke="midnightblue" d="M836.726,-308.671C694.235,-303.45 199.612,-282.814 140,-246 118.846,-232.936 102.774,-211.463 91.0425,-190.143"/>
<polygon fill="none" stroke="midnightblue" points="837.012,-312.183 847.132,-309.047 837.265,-305.188 837.012,-312.183"/>
</g>
<!-- Node3 -->
<g id="node3" class="node"><title>Node3</title>
<g id="a_node3"><a xlink:href="../../db/df6/classo2_1_1ITS_1_1ClustererTask.html" target="_top" xlink:title="{o2::ITS::ClustererTask\n||+ ClustererTask()\l+ ~ClustererTask()\l+ Init()\l+ Exec()\l}">
<polygon fill="none" stroke="black" points="149,-78 149,-168 265,-168 265,-78 149,-78"/>
<text text-anchor="middle" x="207" y="-156" font-family="Helvetica,sans-Serif" font-size="10.00">o2::ITS::ClustererTask</text>
<polyline fill="none" stroke="black" points="149,-149 265,-149 "/>
<text text-anchor="middle" x="207" y="-137" font-family="Helvetica,sans-Serif" font-size="10.00"> </text>
<polyline fill="none" stroke="black" points="149,-130 265,-130 "/>
<text text-anchor="start" x="157" y="-118" font-family="Helvetica,sans-Serif" font-size="10.00">+ ClustererTask()</text>
<text text-anchor="start" x="157" y="-107" font-family="Helvetica,sans-Serif" font-size="10.00">+ ~ClustererTask()</text>
<text text-anchor="start" x="157" y="-96" font-family="Helvetica,sans-Serif" font-size="10.00">+ Init()</text>
<text text-anchor="start" x="157" y="-85" font-family="Helvetica,sans-Serif" font-size="10.00">+ Exec()</text>
</a>
</g>
</g>
<!-- Node1&#45;&gt;Node3 -->
<g id="edge2" class="edge"><title>Node1&#45;&gt;Node3</title>
<path fill="none" stroke="midnightblue" d="M837.063,-310.435C720.02,-311.097 366.854,-307.813 274,-246 246.945,-227.99 229.825,-195.228 219.668,-168.187"/>
<polygon fill="none" stroke="midnightblue" points="837.344,-313.933 847.32,-310.363 837.295,-306.933 837.344,-313.933"/>
</g>
<!-- Node4 -->
<g id="node4" class="node"><title>Node4</title>
<g id="a_node4"><a xlink:href="../../d8/d68/classo2_1_1ITS_1_1CookedTrackerTask.html" target="_top" xlink:title="{o2::ITS::CookedTrackerTask\n||+ CookedTrackerTask()\l+ ~CookedTrackerTask()\l+ Init()\l+ Exec()\l+ setBz()\l+ setContinuousMode()\l+ getContinuousMode()\l+ getVertexer()\l}">
<polygon fill="none" stroke="black" points="283.5,-56 283.5,-190 426.5,-190 426.5,-56 283.5,-56"/>
<text text-anchor="middle" x="355" y="-178" font-family="Helvetica,sans-Serif" font-size="10.00">o2::ITS::CookedTrackerTask</text>
<polyline fill="none" stroke="black" points="283.5,-171 426.5,-171 "/>
<text text-anchor="middle" x="355" y="-159" font-family="Helvetica,sans-Serif" font-size="10.00"> </text>
<polyline fill="none" stroke="black" points="283.5,-152 426.5,-152 "/>
<text text-anchor="start" x="291.5" y="-140" font-family="Helvetica,sans-Serif" font-size="10.00">+ CookedTrackerTask()</text>
<text text-anchor="start" x="291.5" y="-129" font-family="Helvetica,sans-Serif" font-size="10.00">+ ~CookedTrackerTask()</text>
<text text-anchor="start" x="291.5" y="-118" font-family="Helvetica,sans-Serif" font-size="10.00">+ Init()</text>
<text text-anchor="start" x="291.5" y="-107" font-family="Helvetica,sans-Serif" font-size="10.00">+ Exec()</text>
<text text-anchor="start" x="291.5" y="-96" font-family="Helvetica,sans-Serif" font-size="10.00">+ setBz()</text>
<text text-anchor="start" x="291.5" y="-85" font-family="Helvetica,sans-Serif" font-size="10.00">+ setContinuousMode()</text>
<text text-anchor="start" x="291.5" y="-74" font-family="Helvetica,sans-Serif" font-size="10.00">+ getContinuousMode()</text>
<text text-anchor="start" x="291.5" y="-63" font-family="Helvetica,sans-Serif" font-size="10.00">+ getVertexer()</text>
</a>
</g>
</g>
<!-- Node1&#45;&gt;Node4 -->
<g id="edge3" class="edge"><title>Node1&#45;&gt;Node4</title>
<path fill="none" stroke="midnightblue" d="M837.315,-308.446C743.393,-303.962 501.676,-288.495 435,-246 413.855,-232.523 397.1,-211.225 384.502,-190.169"/>
<polygon fill="none" stroke="midnightblue" points="837.346,-311.951 847.497,-308.916 837.669,-304.958 837.346,-311.951"/>
</g>
<!-- Node5 -->
<g id="node5" class="node"><title>Node5</title>
<g id="a_node5"><a xlink:href="../../de/d22/classo2_1_1ITS_1_1DigitizerTask.html" target="_top" xlink:title="{o2::ITS::DigitizerTask\n||+ DigitizerTask()\l+ ~DigitizerTask()\l+ Init()\l+ Exec()\l+ FinishTask()\l+ getDigitizer()\l+ setContinuous()\l+ isContinuous()\l+ setUseAlpideSim()\l+ getUseAlpideSim()\l+ setFairTimeUnitInNS()\l+ getFairTimeUnitInNS()\l+ setAlpideROFramLength()\l+ getAlpideROFramLength()\l}">
<polygon fill="none" stroke="black" points="444.5,-23 444.5,-223 583.5,-223 583.5,-23 444.5,-23"/>
<text text-anchor="middle" x="514" y="-211" font-family="Helvetica,sans-Serif" font-size="10.00">o2::ITS::DigitizerTask</text>
<polyline fill="none" stroke="black" points="444.5,-204 583.5,-204 "/>
<text text-anchor="middle" x="514" y="-192" font-family="Helvetica,sans-Serif" font-size="10.00"> </text>
<polyline fill="none" stroke="black" points="444.5,-185 583.5,-185 "/>
<text text-anchor="start" x="452.5" y="-173" font-family="Helvetica,sans-Serif" font-size="10.00">+ DigitizerTask()</text>
<text text-anchor="start" x="452.5" y="-162" font-family="Helvetica,sans-Serif" font-size="10.00">+ ~DigitizerTask()</text>
<text text-anchor="start" x="452.5" y="-151" font-family="Helvetica,sans-Serif" font-size="10.00">+ Init()</text>
<text text-anchor="start" x="452.5" y="-140" font-family="Helvetica,sans-Serif" font-size="10.00">+ Exec()</text>
<text text-anchor="start" x="452.5" y="-129" font-family="Helvetica,sans-Serif" font-size="10.00">+ FinishTask()</text>
<text text-anchor="start" x="452.5" y="-118" font-family="Helvetica,sans-Serif" font-size="10.00">+ getDigitizer()</text>
<text text-anchor="start" x="452.5" y="-107" font-family="Helvetica,sans-Serif" font-size="10.00">+ setContinuous()</text>
<text text-anchor="start" x="452.5" y="-96" font-family="Helvetica,sans-Serif" font-size="10.00">+ isContinuous()</text>
<text text-anchor="start" x="452.5" y="-85" font-family="Helvetica,sans-Serif" font-size="10.00">+ setUseAlpideSim()</text>
<text text-anchor="start" x="452.5" y="-74" font-family="Helvetica,sans-Serif" font-size="10.00">+ getUseAlpideSim()</text>
<text text-anchor="start" x="452.5" y="-63" font-family="Helvetica,sans-Serif" font-size="10.00">+ setFairTimeUnitInNS()</text>
<text text-anchor="start" x="452.5" y="-52" font-family="Helvetica,sans-Serif" font-size="10.00">+ getFairTimeUnitInNS()</text>
<text text-anchor="start" x="452.5" y="-41" font-family="Helvetica,sans-Serif" font-size="10.00">+ setAlpideROFramLength()</text>
<text text-anchor="start" x="452.5" y="-30" font-family="Helvetica,sans-Serif" font-size="10.00">+ getAlpideROFramLength()</text>
</a>
</g>
</g>
<!-- Node1&#45;&gt;Node5 -->
<g id="edge4" class="edge"><title>Node1&#45;&gt;Node5</title>
<path fill="none" stroke="midnightblue" d="M837.312,-310.179C779.61,-308.665 668.17,-298.499 593,-246 583.794,-239.57 575.402,-231.69 567.818,-223.057"/>
<polygon fill="none" stroke="midnightblue" points="837.376,-313.681 847.44,-310.37 837.508,-306.682 837.376,-313.681"/>
</g>
<!-- Node6 -->
<g id="node6" class="node"><title>Node6</title>
<g id="a_node6"><a xlink:href="../../d6/df5/classo2_1_1ITS_1_1HitAnalysis.html" target="_top" xlink:title="{o2::ITS::HitAnalysis\n||+ HitAnalysis()\l+ ~HitAnalysis()\l+ Init()\l+ Exec()\l+ FinishTask()\l+ SetProcessHits()\l+ SetProcessChips()\l# ProcessChips()\l# ProcessHits()\l}">
<polygon fill="none" stroke="black" points="602,-50.5 602,-195.5 710,-195.5 710,-50.5 602,-50.5"/>
<text text-anchor="middle" x="656" y="-183.5" font-family="Helvetica,sans-Serif" font-size="10.00">o2::ITS::HitAnalysis</text>
<polyline fill="none" stroke="black" points="602,-176.5 710,-176.5 "/>
<text text-anchor="middle" x="656" y="-164.5" font-family="Helvetica,sans-Serif" font-size="10.00"> </text>
<polyline fill="none" stroke="black" points="602,-157.5 710,-157.5 "/>
<text text-anchor="start" x="610" y="-145.5" font-family="Helvetica,sans-Serif" font-size="10.00">+ HitAnalysis()</text>
<text text-anchor="start" x="610" y="-134.5" font-family="Helvetica,sans-Serif" font-size="10.00">+ ~HitAnalysis()</text>
<text text-anchor="start" x="610" y="-123.5" font-family="Helvetica,sans-Serif" font-size="10.00">+ Init()</text>
<text text-anchor="start" x="610" y="-112.5" font-family="Helvetica,sans-Serif" font-size="10.00">+ Exec()</text>
<text text-anchor="start" x="610" y="-101.5" font-family="Helvetica,sans-Serif" font-size="10.00">+ FinishTask()</text>
<text text-anchor="start" x="610" y="-90.5" font-family="Helvetica,sans-Serif" font-size="10.00">+ SetProcessHits()</text>
<text text-anchor="start" x="610" y="-79.5" font-family="Helvetica,sans-Serif" font-size="10.00">+ SetProcessChips()</text>
<text text-anchor="start" x="610" y="-68.5" font-family="Helvetica,sans-Serif" font-size="10.00"># ProcessChips()</text>
<text text-anchor="start" x="610" y="-57.5" font-family="Helvetica,sans-Serif" font-size="10.00"># ProcessHits()</text>
</a>
</g>
</g>
<!-- Node1&#45;&gt;Node6 -->
<g id="edge5" class="edge"><title>Node1&#45;&gt;Node6</title>
<path fill="none" stroke="midnightblue" d="M837.216,-302.359C802.86,-293.742 752.546,-276.737 719,-246 703.885,-232.151 691.815,-213.838 682.451,-195.624"/>
<polygon fill="none" stroke="midnightblue" points="836.791,-305.856 847.33,-304.77 838.414,-299.047 836.791,-305.856"/>
</g>
<!-- Node7 -->
<g id="node7" class="node"><title>Node7</title>
<g id="a_node7"><a xlink:href="../../db/d78/classo2_1_1ITS_1_1TrivialClustererTask.html" target="_top" xlink:title="{o2::ITS::TrivialClustererTask\n||+ TrivialClustererTask()\l+ ~TrivialClustererTask()\l+ Init()\l+ Exec()\l}">
<polygon fill="none" stroke="black" points="728.5,-78 728.5,-168 871.5,-168 871.5,-78 728.5,-78"/>
<text text-anchor="middle" x="800" y="-156" font-family="Helvetica,sans-Serif" font-size="10.00">o2::ITS::TrivialClustererTask</text>
<polyline fill="none" stroke="black" points="728.5,-149 871.5,-149 "/>
<text text-anchor="middle" x="800" y="-137" font-family="Helvetica,sans-Serif" font-size="10.00"> </text>
<polyline fill="none" stroke="black" points="728.5,-130 871.5,-130 "/>
<text text-anchor="start" x="736.5" y="-118" font-family="Helvetica,sans-Serif" font-size="10.00">+ TrivialClustererTask()</text>
<text text-anchor="start" x="736.5" y="-107" font-family="Helvetica,sans-Serif" font-size="10.00">+ ~TrivialClustererTask()</text>
<text text-anchor="start" x="736.5" y="-96" font-family="Helvetica,sans-Serif" font-size="10.00">+ Init()</text>
<text text-anchor="start" x="736.5" y="-85" font-family="Helvetica,sans-Serif" font-size="10.00">+ Exec()</text>
</a>
</g>
</g>
<!-- Node1&#45;&gt;Node7 -->
<g id="edge6" class="edge"><title>Node1&#45;&gt;Node7</title>
<path fill="none" stroke="midnightblue" d="M860.017,-272.842C847.874,-242.727 830.729,-200.207 817.871,-168.32"/>
<polygon fill="none" stroke="midnightblue" points="856.786,-274.188 863.772,-282.154 863.278,-271.571 856.786,-274.188"/>
</g>
<!-- Node8 -->
<g id="node8" class="node"><title>Node8</title>
<g id="a_node8"><a xlink:href="../../d7/d6d/classo2_1_1MFT_1_1ClustererTask.html" target="_top" xlink:title="{o2::MFT::ClustererTask\n||+ ClustererTask()\l+ ~ClustererTask()\l+ Init()\l+ Exec()\l}">
<polygon fill="none" stroke="black" points="889.5,-78 889.5,-168 1010.5,-168 1010.5,-78 889.5,-78"/>
<text text-anchor="middle" x="950" y="-156" font-family="Helvetica,sans-Serif" font-size="10.00">o2::MFT::ClustererTask</text>
<polyline fill="none" stroke="black" points="889.5,-149 1010.5,-149 "/>
<text text-anchor="middle" x="950" y="-137" font-family="Helvetica,sans-Serif" font-size="10.00"> </text>
<polyline fill="none" stroke="black" points="889.5,-130 1010.5,-130 "/>
<text text-anchor="start" x="897.5" y="-118" font-family="Helvetica,sans-Serif" font-size="10.00">+ ClustererTask()</text>
<text text-anchor="start" x="897.5" y="-107" font-family="Helvetica,sans-Serif" font-size="10.00">+ ~ClustererTask()</text>
<text text-anchor="start" x="897.5" y="-96" font-family="Helvetica,sans-Serif" font-size="10.00">+ Init()</text>
<text text-anchor="start" x="897.5" y="-85" font-family="Helvetica,sans-Serif" font-size="10.00">+ Exec()</text>
</a>
</g>
</g>
<!-- Node1&#45;&gt;Node8 -->
<g id="edge7" class="edge"><title>Node1&#45;&gt;Node8</title>
<path fill="none" stroke="midnightblue" d="M889.983,-272.842C902.126,-242.727 919.271,-200.207 932.129,-168.32"/>
<polygon fill="none" stroke="midnightblue" points="886.722,-271.571 886.228,-282.154 893.214,-274.188 886.722,-271.571"/>
</g>
<!-- Node9 -->
<g id="node9" class="node"><title>Node9</title>
<g id="a_node9"><a xlink:href="../../d0/d22/classo2_1_1MFT_1_1DigitizerTask.html" target="_top" xlink:title="{o2::MFT::DigitizerTask\n||+ DigitizerTask()\l+ ~DigitizerTask()\l+ Init()\l+ Exec()\l+ FinishTask()\l+ getDigitizer()\l+ setContinuous()\l+ isContinuous()\l+ setUseAlpideSim()\l+ getUseAlpideSim()\l+ setFairTimeUnitInNS()\l+ getFairTimeUnitInNS()\l}">
<polygon fill="none" stroke="black" points="1029,-34 1029,-212 1153,-212 1153,-34 1029,-34"/>
<text text-anchor="middle" x="1091" y="-200" font-family="Helvetica,sans-Serif" font-size="10.00">o2::MFT::DigitizerTask</text>
<polyline fill="none" stroke="black" points="1029,-193 1153,-193 "/>
<text text-anchor="middle" x="1091" y="-181" font-family="Helvetica,sans-Serif" font-size="10.00"> </text>
<polyline fill="none" stroke="black" points="1029,-174 1153,-174 "/>
<text text-anchor="start" x="1037" y="-162" font-family="Helvetica,sans-Serif" font-size="10.00">+ DigitizerTask()</text>
<text text-anchor="start" x="1037" y="-151" font-family="Helvetica,sans-Serif" font-size="10.00">+ ~DigitizerTask()</text>
<text text-anchor="start" x="1037" y="-140" font-family="Helvetica,sans-Serif" font-size="10.00">+ Init()</text>
<text text-anchor="start" x="1037" y="-129" font-family="Helvetica,sans-Serif" font-size="10.00">+ Exec()</text>
<text text-anchor="start" x="1037" y="-118" font-family="Helvetica,sans-Serif" font-size="10.00">+ FinishTask()</text>
<text text-anchor="start" x="1037" y="-107" font-family="Helvetica,sans-Serif" font-size="10.00">+ getDigitizer()</text>
<text text-anchor="start" x="1037" y="-96" font-family="Helvetica,sans-Serif" font-size="10.00">+ setContinuous()</text>
<text text-anchor="start" x="1037" y="-85" font-family="Helvetica,sans-Serif" font-size="10.00">+ isContinuous()</text>
<text text-anchor="start" x="1037" y="-74" font-family="Helvetica,sans-Serif" font-size="10.00">+ setUseAlpideSim()</text>
<text text-anchor="start" x="1037" y="-63" font-family="Helvetica,sans-Serif" font-size="10.00">+ getUseAlpideSim()</text>
<text text-anchor="start" x="1037" y="-52" font-family="Helvetica,sans-Serif" font-size="10.00">+ setFairTimeUnitInNS()</text>
<text text-anchor="start" x="1037" y="-41" font-family="Helvetica,sans-Serif" font-size="10.00">+ getFairTimeUnitInNS()</text>
</a>
</g>
</g>
<!-- Node1&#45;&gt;Node9 -->
<g id="edge8" class="edge"><title>Node1&#45;&gt;Node9</title>
<path fill="none" stroke="midnightblue" d="M912.43,-300.345C943.783,-290.742 988.223,-273.429 1019,-246 1029.92,-236.264 1039.66,-224.463 1048.17,-212.084"/>
<polygon fill="none" stroke="midnightblue" points="911.35,-297.014 902.745,-303.194 913.326,-303.729 911.35,-297.014"/>
</g>
<!-- Node10 -->
<g id="node10" class="node"><title>Node10</title>
<g id="a_node10"><a xlink:href="../../dc/d5b/classo2_1_1MFT_1_1TrackerTask.html" target="_top" xlink:title="{o2::MFT::TrackerTask\n||+ TrackerTask()\l+ ~TrackerTask()\l+ Init()\l+ Exec()\l+ setContinuousMode()\l+ getContinuousMode()\l}">
<polygon fill="none" stroke="black" points="1171.5,-67 1171.5,-179 1290.5,-179 1290.5,-67 1171.5,-67"/>
<text text-anchor="middle" x="1231" y="-167" font-family="Helvetica,sans-Serif" font-size="10.00">o2::MFT::TrackerTask</text>
<polyline fill="none" stroke="black" points="1171.5,-160 1290.5,-160 "/>
<text text-anchor="middle" x="1231" y="-148" font-family="Helvetica,sans-Serif" font-size="10.00"> </text>
<polyline fill="none" stroke="black" points="1171.5,-141 1290.5,-141 "/>
<text text-anchor="start" x="1179.5" y="-129" font-family="Helvetica,sans-Serif" font-size="10.00">+ TrackerTask()</text>
<text text-anchor="start" x="1179.5" y="-118" font-family="Helvetica,sans-Serif" font-size="10.00">+ ~TrackerTask()</text>
<text text-anchor="start" x="1179.5" y="-107" font-family="Helvetica,sans-Serif" font-size="10.00">+ Init()</text>
<text text-anchor="start" x="1179.5" y="-96" font-family="Helvetica,sans-Serif" font-size="10.00">+ Exec()</text>
<text text-anchor="start" x="1179.5" y="-85" font-family="Helvetica,sans-Serif" font-size="10.00">+ setContinuousMode()</text>
<text text-anchor="start" x="1179.5" y="-74" font-family="Helvetica,sans-Serif" font-size="10.00">+ getContinuousMode()</text>
</a>
</g>
</g>
<!-- Node1&#45;&gt;Node10 -->
<g id="edge9" class="edge"><title>Node1&#45;&gt;Node10</title>
<path fill="none" stroke="midnightblue" d="M913.118,-310.83C971.974,-310.214 1086,-301.264 1161,-246 1183.61,-229.342 1200.03,-203.031 1211.26,-179.101"/>
<polygon fill="none" stroke="midnightblue" points="912.783,-307.331 902.793,-310.858 912.802,-314.331 912.783,-307.331"/>
</g>
<!-- Node11 -->
<g id="node11" class="node"><title>Node11</title>
<g id="a_node11"><a xlink:href="../../d0/dad/classo2_1_1tof_1_1DigitizerTask.html" target="_top" xlink:title="{o2::tof::DigitizerTask\n||+ DigitizerTask()\l+ ~DigitizerTask()\l+ Init()\l+ Exec()\l+ FinishTask()\l+ getDigitizer()\l+ setContinuous()\l+ isContinuous()\l}">
<polygon fill="none" stroke="black" points="1309,-56 1309,-190 1417,-190 1417,-56 1309,-56"/>
<text text-anchor="middle" x="1363" y="-178" font-family="Helvetica,sans-Serif" font-size="10.00">o2::tof::DigitizerTask</text>
<polyline fill="none" stroke="black" points="1309,-171 1417,-171 "/>
<text text-anchor="middle" x="1363" y="-159" font-family="Helvetica,sans-Serif" font-size="10.00"> </text>
<polyline fill="none" stroke="black" points="1309,-152 1417,-152 "/>
<text text-anchor="start" x="1317" y="-140" font-family="Helvetica,sans-Serif" font-size="10.00">+ DigitizerTask()</text>
<text text-anchor="start" x="1317" y="-129" font-family="Helvetica,sans-Serif" font-size="10.00">+ ~DigitizerTask()</text>
<text text-anchor="start" x="1317" y="-118" font-family="Helvetica,sans-Serif" font-size="10.00">+ Init()</text>
<text text-anchor="start" x="1317" y="-107" font-family="Helvetica,sans-Serif" font-size="10.00">+ Exec()</text>
<text text-anchor="start" x="1317" y="-96" font-family="Helvetica,sans-Serif" font-size="10.00">+ FinishTask()</text>
<text text-anchor="start" x="1317" y="-85" font-family="Helvetica,sans-Serif" font-size="10.00">+ getDigitizer()</text>
<text text-anchor="start" x="1317" y="-74" font-family="Helvetica,sans-Serif" font-size="10.00">+ setContinuous()</text>
<text text-anchor="start" x="1317" y="-63" font-family="Helvetica,sans-Serif" font-size="10.00">+ isContinuous()</text>
</a>
</g>
</g>
<!-- Node1&#45;&gt;Node11 -->
<g id="edge10" class="edge"><title>Node1&#45;&gt;Node11</title>
<path fill="none" stroke="midnightblue" d="M912.819,-308.598C1004.8,-304.522 1237.17,-290.026 1299,-246 1318.19,-232.335 1332.09,-211.125 1341.93,-190.198"/>
<polygon fill="none" stroke="midnightblue" points="912.416,-305.112 902.574,-309.034 912.714,-312.106 912.416,-305.112"/>
</g>
<!-- Node12 -->
<g id="node12" class="node"><title>Node12</title>
<g id="a_node12"><a xlink:href="../../db/df7/classo2_1_1TPC_1_1ClustererTask.html" target="_top" xlink:title="{o2::TPC::ClustererTask\n||+ ClustererTask()\l+ ~ClustererTask()\l+ Init()\l+ Exec()\l+ setClustererEnable()\l+ isClustererEnable()\l+ getClusterer()\l+ getBoxClusterer()\l+ getHwClusterer()\l+ setContinuousReadout()\l}">
<polygon fill="none" stroke="black" points="1435.5,-45 1435.5,-201 1566.5,-201 1566.5,-45 1435.5,-45"/>
<text text-anchor="middle" x="1501" y="-189" font-family="Helvetica,sans-Serif" font-size="10.00">o2::TPC::ClustererTask</text>
<polyline fill="none" stroke="black" points="1435.5,-182 1566.5,-182 "/>
<text text-anchor="middle" x="1501" y="-170" font-family="Helvetica,sans-Serif" font-size="10.00"> </text>
<polyline fill="none" stroke="black" points="1435.5,-163 1566.5,-163 "/>
<text text-anchor="start" x="1443.5" y="-151" font-family="Helvetica,sans-Serif" font-size="10.00">+ ClustererTask()</text>
<text text-anchor="start" x="1443.5" y="-140" font-family="Helvetica,sans-Serif" font-size="10.00">+ ~ClustererTask()</text>
<text text-anchor="start" x="1443.5" y="-129" font-family="Helvetica,sans-Serif" font-size="10.00">+ Init()</text>
<text text-anchor="start" x="1443.5" y="-118" font-family="Helvetica,sans-Serif" font-size="10.00">+ Exec()</text>
<text text-anchor="start" x="1443.5" y="-107" font-family="Helvetica,sans-Serif" font-size="10.00">+ setClustererEnable()</text>
<text text-anchor="start" x="1443.5" y="-96" font-family="Helvetica,sans-Serif" font-size="10.00">+ isClustererEnable()</text>
<text text-anchor="start" x="1443.5" y="-85" font-family="Helvetica,sans-Serif" font-size="10.00">+ getClusterer()</text>
<text text-anchor="start" x="1443.5" y="-74" font-family="Helvetica,sans-Serif" font-size="10.00">+ getBoxClusterer()</text>
<text text-anchor="start" x="1443.5" y="-63" font-family="Helvetica,sans-Serif" font-size="10.00">+ getHwClusterer()</text>
<text text-anchor="start" x="1443.5" y="-52" font-family="Helvetica,sans-Serif" font-size="10.00">+ setContinuousReadout()</text>
</a>
</g>
</g>
<!-- Node1&#45;&gt;Node12 -->
<g id="edge11" class="edge"><title>Node1&#45;&gt;Node12</title>
<path fill="none" stroke="midnightblue" d="M912.945,-309.818C1023.11,-308.642 1340.54,-300.49 1426,-246 1443.19,-235.039 1457.06,-218.583 1467.98,-201.276"/>
<polygon fill="none" stroke="midnightblue" points="912.613,-306.32 902.646,-309.913 912.678,-313.32 912.613,-306.32"/>
</g>
<!-- Node13 -->
<g id="node13" class="node"><title>Node13</title>
<g id="a_node13"><a xlink:href="../../dd/d64/classo2_1_1TPC_1_1DigitizerTask.html" target="_top" xlink:title="{o2::TPC::DigitizerTask\n||+ DigitizerTask()\l+ ~DigitizerTask()\l+ Init()\l+ Init2()\l+ setDebugOutput()\l+ setContinuousReadout()\l+ setMaximalTimeBinWriteOut()\l+ setTimeChunkProcessing()\l+ setupSector()\l+ setStartTime()\l+ setEndTime()\l+ Exec()\l+ Exec2()\l+ FinishTask()\l+ FinishTask2()\l+ setData()\l+ setOutputData()\l+ initBunchTrainStructure()\l}">
<polygon fill="none" stroke="black" points="1584.5,-1 1584.5,-245 1741.5,-245 1741.5,-1 1584.5,-1"/>
<text text-anchor="middle" x="1663" y="-233" font-family="Helvetica,sans-Serif" font-size="10.00">o2::TPC::DigitizerTask</text>
<polyline fill="none" stroke="black" points="1584.5,-226 1741.5,-226 "/>
<text text-anchor="middle" x="1663" y="-214" font-family="Helvetica,sans-Serif" font-size="10.00"> </text>
<polyline fill="none" stroke="black" points="1584.5,-207 1741.5,-207 "/>
<text text-anchor="start" x="1592.5" y="-195" font-family="Helvetica,sans-Serif" font-size="10.00">+ DigitizerTask()</text>
<text text-anchor="start" x="1592.5" y="-184" font-family="Helvetica,sans-Serif" font-size="10.00">+ ~DigitizerTask()</text>
<text text-anchor="start" x="1592.5" y="-173" font-family="Helvetica,sans-Serif" font-size="10.00">+ Init()</text>
<text text-anchor="start" x="1592.5" y="-162" font-family="Helvetica,sans-Serif" font-size="10.00">+ Init2()</text>
<text text-anchor="start" x="1592.5" y="-151" font-family="Helvetica,sans-Serif" font-size="10.00">+ setDebugOutput()</text>
<text text-anchor="start" x="1592.5" y="-140" font-family="Helvetica,sans-Serif" font-size="10.00">+ setContinuousReadout()</text>
<text text-anchor="start" x="1592.5" y="-129" font-family="Helvetica,sans-Serif" font-size="10.00">+ setMaximalTimeBinWriteOut()</text>
<text text-anchor="start" x="1592.5" y="-118" font-family="Helvetica,sans-Serif" font-size="10.00">+ setTimeChunkProcessing()</text>
<text text-anchor="start" x="1592.5" y="-107" font-family="Helvetica,sans-Serif" font-size="10.00">+ setupSector()</text>
<text text-anchor="start" x="1592.5" y="-96" font-family="Helvetica,sans-Serif" font-size="10.00">+ setStartTime()</text>
<text text-anchor="start" x="1592.5" y="-85" font-family="Helvetica,sans-Serif" font-size="10.00">+ setEndTime()</text>
<text text-anchor="start" x="1592.5" y="-74" font-family="Helvetica,sans-Serif" font-size="10.00">+ Exec()</text>
<text text-anchor="start" x="1592.5" y="-63" font-family="Helvetica,sans-Serif" font-size="10.00">+ Exec2()</text>
<text text-anchor="start" x="1592.5" y="-52" font-family="Helvetica,sans-Serif" font-size="10.00">+ FinishTask()</text>
<text text-anchor="start" x="1592.5" y="-41" font-family="Helvetica,sans-Serif" font-size="10.00">+ FinishTask2()</text>
<text text-anchor="start" x="1592.5" y="-30" font-family="Helvetica,sans-Serif" font-size="10.00">+ setData()</text>
<text text-anchor="start" x="1592.5" y="-19" font-family="Helvetica,sans-Serif" font-size="10.00">+ setOutputData()</text>
<text text-anchor="start" x="1592.5" y="-8" font-family="Helvetica,sans-Serif" font-size="10.00">+ initBunchTrainStructure()</text>
</a>
</g>
</g>
<!-- Node1&#45;&gt;Node13 -->
<g id="edge12" class="edge"><title>Node1&#45;&gt;Node13</title>
<path fill="none" stroke="midnightblue" d="M912.67,-310.586C1041.16,-311.975 1460.57,-311.299 1575,-246 1578.18,-244.188 1581.27,-242.209 1584.27,-240.087"/>
<polygon fill="none" stroke="midnightblue" points="912.578,-307.085 902.537,-310.466 912.494,-314.085 912.578,-307.085"/>
</g>
</g>
</svg>
