<?xml version="1.0" encoding="UTF-8" standalone="no"?>
<!DOCTYPE svg PUBLIC "-//W3C//DTD SVG 1.1//EN"
 "http://www.w3.org/Graphics/SVG/1.1/DTD/svg11.dtd">
<!-- Generated by graphviz version 2.36.0 (20140111.2315)
 -->
<!-- Title: /home/travis/build/AliceO2Group/AliceO2/Framework/Core/test/test_DataRelayer.cxx Pages: 1 -->
<!--zoomable 354 -->
<svg id="main" version="1.1" xmlns="http://www.w3.org/2000/svg" xmlns:xlink="http://www.w3.org/1999/xlink" xml:space="preserve" onload="init(evt)">
<style type="text/css"><![CDATA[
.edge:hover path { stroke: red; }
.edge:hover polygon { stroke: red; fill: red; }
]]></style>
<script type="text/javascript"><![CDATA[
var edges = document.getElementsByTagName('g');
if (edges && edges.length) {
  for (var i=0;i<edges.length;i++) {
    if (edges[i].id.substr(0,4)=='edge') {
      edges[i].setAttribute('class','edge');
    }
  }
}
]]></script>
        <defs>
                <circle id="rim" cx="0" cy="0" r="7"/>
                <circle id="rim2" cx="0" cy="0" r="3.5"/>
                <g id="zoomPlus">
                        <use xlink:href="#rim" fill="#404040">
                                <set attributeName="fill" to="#808080" begin="zoomplus.mouseover" end="zoomplus.mouseout"/>
                        </use>
                        <path d="M-4,0h8M0,-4v8" fill="none" stroke="white" stroke-width="1.5" pointer-events="none"/>
                </g>
                <g id="zoomMin">
                        <use xlink:href="#rim" fill="#404040">
                                <set attributeName="fill" to="#808080" begin="zoomminus.mouseover" end="zoomminus.mouseout"/>
                        </use>
                        <path d="M-4,0h8" fill="none" stroke="white" stroke-width="1.5" pointer-events="none"/>
                </g>
                <g id="dirArrow">
                        <path fill="none" stroke="white" stroke-width="1.5" d="M0,-3.0v7 M-2.5,-0.5L0,-3.0L2.5,-0.5"/>
                </g>
               <g id="resetDef">
                       <use xlink:href="#rim2" fill="#404040">
                               <set attributeName="fill" to="#808080" begin="reset.mouseover" end="reset.mouseout"/>
                       </use>
               </g>
        </defs>

<script type="text/javascript">
var viewWidth = 973;
var viewHeight = 354;
var sectionId = 'dynsection-0';
</script>
<script xlink:href="../../svgpan.js"/>
<svg id="graph" class="graph">
<g id="viewport">
<title>/home/travis/build/AliceO2Group/AliceO2/Framework/Core/test/test_DataRelayer.cxx</title>
<!-- Node1 -->
<g id="node1" class="node"><title>Node1</title>
<polygon fill="#bfbfbf" stroke="black" points="254.5,-293 254.5,-345 385.5,-345 385.5,-293 254.5,-293"/>
<text text-anchor="start" x="262.5" y="-333" font-family="Helvetica,sans-Serif" font-size="10.00">/home/travis/build</text>
<text text-anchor="start" x="262.5" y="-322" font-family="Helvetica,sans-Serif" font-size="10.00">/AliceO2Group/AliceO2</text>
<text text-anchor="start" x="262.5" y="-311" font-family="Helvetica,sans-Serif" font-size="10.00">/Framework/Core/test/test</text>
<text text-anchor="middle" x="320" y="-300" font-family="Helvetica,sans-Serif" font-size="10.00">_DataRelayer.cxx</text>
</g>
<!-- Node2 -->
<g id="node2" class="node"><title>Node2</title>
<polygon fill="none" stroke="#bfbfbf" points="96.5,-236.5 96.5,-255.5 215.5,-255.5 215.5,-236.5 96.5,-236.5"/>
<text text-anchor="middle" x="156" y="-243.5" font-family="Helvetica,sans-Serif" font-size="10.00">boost/test/unit_test.hpp</text>
</g>
<!-- Node1&#45;&gt;Node2 -->
<g id="edge1" class="edge"><title>Node1&#45;&gt;Node2</title>
<path fill="none" stroke="midnightblue" d="M262.18,-292.968C236.226,-281.732 206.724,-268.96 185.415,-259.735"/>
<polygon fill="midnightblue" stroke="midnightblue" points="186.522,-256.4 175.955,-255.639 183.741,-262.824 186.522,-256.4"/>
</g>
<!-- Node3 -->
<g id="node3" class="node"><title>Node3</title>
<g id="a_node3"><a xlink:href="../../dc/dcd/DataHeader_8h.html" target="_top" xlink:title="Headers/DataHeader.h">
<polygon fill="none" stroke="black" points="174.5,-56.5 174.5,-75.5 291.5,-75.5 291.5,-56.5 174.5,-56.5"/>
<text text-anchor="middle" x="233" y="-63.5" font-family="Helvetica,sans-Serif" font-size="10.00">Headers/DataHeader.h</text>
</a>
</g>
</g>
<!-- Node1&#45;&gt;Node3 -->
<g id="edge2" class="edge"><title>Node1&#45;&gt;Node3</title>
<path fill="none" stroke="midnightblue" d="M311.179,-292.551C293.619,-241.891 254.665,-129.505 239.355,-85.335"/>
<polygon fill="midnightblue" stroke="midnightblue" points="242.658,-84.1756 236.076,-75.8733 236.044,-86.4681 242.658,-84.1756"/>
</g>
<!-- Node7 -->
<g id="node7" class="node"><title>Node7</title>
<polygon fill="none" stroke="#bfbfbf" points="290,-0.5 290,-19.5 336,-19.5 336,-0.5 290,-0.5"/>
<text text-anchor="middle" x="313" y="-7.5" font-family="Helvetica,sans-Serif" font-size="10.00">cstring</text>
</g>
<!-- Node1&#45;&gt;Node7 -->
<g id="edge44" class="edge"><title>Node1&#45;&gt;Node7</title>
<path fill="none" stroke="midnightblue" d="M320,-292.699C320,-267.068 320,-226.278 320,-191 320,-191 320,-191 320,-127 320,-92.6535 316.904,-52.6903 314.83,-29.7692"/>
<polygon fill="midnightblue" stroke="midnightblue" points="318.306,-29.349 313.887,-19.7202 311.337,-30.0037 318.306,-29.349"/>
</g>
<!-- Node9 -->
<g id="node9" class="node"><title>Node9</title>
<g id="a_node9"><a xlink:href="../../df/d59/DataRelayer_8h.html" target="_top" xlink:title="Framework/DataRelayer.h">
<polygon fill="none" stroke="black" points="504.5,-236.5 504.5,-255.5 635.5,-255.5 635.5,-236.5 504.5,-236.5"/>
<text text-anchor="middle" x="570" y="-243.5" font-family="Helvetica,sans-Serif" font-size="10.00">Framework/DataRelayer.h</text>
</a>
</g>
</g>
<!-- Node1&#45;&gt;Node9 -->
<g id="edge8" class="edge"><title>Node1&#45;&gt;Node9</title>
<path fill="none" stroke="midnightblue" d="M385.685,-299.346C431.501,-286.334 491.158,-269.391 530.004,-258.359"/>
<polygon fill="midnightblue" stroke="midnightblue" points="531.231,-261.649 539.895,-255.55 529.319,-254.915 531.231,-261.649"/>
</g>
<!-- Node19 -->
<g id="node19" class="node"><title>Node19</title>
<g id="a_node19"><a xlink:href="../../d6/dc9/DataProcessingHeader_8h.html" target="_top" xlink:title="Framework/DataProcessing\lHeader.h">
<polygon fill="none" stroke="black" points="58,-113 58,-143 196,-143 196,-113 58,-113"/>
<text text-anchor="start" x="66" y="-131" font-family="Helvetica,sans-Serif" font-size="10.00">Framework/DataProcessing</text>
<text text-anchor="middle" x="127" y="-120" font-family="Helvetica,sans-Serif" font-size="10.00">Header.h</text>
</a>
</g>
</g>
<!-- Node1&#45;&gt;Node19 -->
<g id="edge24" class="edge"><title>Node1&#45;&gt;Node19</title>
<path fill="none" stroke="midnightblue" d="M294.371,-292.902C256.24,-255.561 185.205,-185.998 149.179,-150.719"/>
<polygon fill="midnightblue" stroke="midnightblue" points="151.229,-147.828 141.635,-143.332 146.331,-152.829 151.229,-147.828"/>
</g>
<!-- Node21 -->
<g id="node21" class="node"><title>Node21</title>
<g id="a_node21"><a xlink:href="../../d7/d47/DummyMetricsService_8h.html" target="_top" xlink:title="DummyMetricsService.h">
<polygon fill="none" stroke="black" points="350.5,-236.5 350.5,-255.5 475.5,-255.5 475.5,-236.5 350.5,-236.5"/>
<text text-anchor="middle" x="413" y="-243.5" font-family="Helvetica,sans-Serif" font-size="10.00">DummyMetricsService.h</text>
</a>
</g>
</g>
<!-- Node1&#45;&gt;Node21 -->
<g id="edge30" class="edge"><title>Node1&#45;&gt;Node21</title>
<path fill="none" stroke="midnightblue" d="M352.788,-292.968C366.29,-282.66 381.486,-271.059 393.234,-262.09"/>
<polygon fill="midnightblue" stroke="midnightblue" points="395.636,-264.66 401.461,-255.81 391.388,-259.096 395.636,-264.66"/>
</g>
<!-- Node30 -->
<g id="node30" class="node"><title>Node30</title>
<polygon fill="none" stroke="#bfbfbf" points="653.5,-236.5 653.5,-255.5 814.5,-255.5 814.5,-236.5 653.5,-236.5"/>
<text text-anchor="middle" x="734" y="-243.5" font-family="Helvetica,sans-Serif" font-size="10.00">fairmq/FairMQTransportFactory.h</text>
</g>
<!-- Node1&#45;&gt;Node30 -->
<g id="edge43" class="edge"><title>Node1&#45;&gt;Node30</title>
<path fill="none" stroke="midnightblue" d="M385.6,-306.75C465.026,-293.128 597.656,-270.383 674.322,-257.235"/>
<polygon fill="midnightblue" stroke="midnightblue" points="675.035,-260.663 684.3,-255.523 673.852,-253.764 675.035,-260.663"/>
</g>
<!-- Node4 -->
<g id="node4" class="node"><title>Node4</title>
<polygon fill="none" stroke="#bfbfbf" points="152,-0.5 152,-19.5 198,-19.5 198,-0.5 152,-0.5"/>
<text text-anchor="middle" x="175" y="-7.5" font-family="Helvetica,sans-Serif" font-size="10.00">cstdint</text>
</g>
<!-- Node3&#45;&gt;Node4 -->
<g id="edge3" class="edge"><title>Node3&#45;&gt;Node4</title>
<path fill="none" stroke="midnightblue" d="M223.681,-56.324C215.107,-48.3414 202.188,-36.3128 191.812,-26.6529"/>
<polygon fill="midnightblue" stroke="midnightblue" points="194.192,-24.0865 184.488,-19.8339 189.422,-29.2098 194.192,-24.0865"/>
</g>
<!-- Node5 -->
<g id="node5" class="node"><title>Node5</title>
<polygon fill="none" stroke="#bfbfbf" points="82,-0.5 82,-19.5 134,-19.5 134,-0.5 82,-0.5"/>
<text text-anchor="middle" x="108" y="-7.5" font-family="Helvetica,sans-Serif" font-size="10.00">memory</text>
</g>
<!-- Node3&#45;&gt;Node5 -->
<g id="edge4" class="edge"><title>Node3&#45;&gt;Node5</title>
<path fill="none" stroke="midnightblue" d="M213.193,-56.4435C192.713,-47.5961 160.517,-33.6875 137.135,-23.5865"/>
<polygon fill="midnightblue" stroke="midnightblue" points="138.282,-20.2692 127.714,-19.5164 135.506,-26.6953 138.282,-20.2692"/>
</g>
<!-- Node6 -->
<g id="node6" class="node"><title>Node6</title>
<polygon fill="none" stroke="#bfbfbf" points="-0.5,-0.5 -0.5,-19.5 48.5,-19.5 48.5,-0.5 -0.5,-0.5"/>
<text text-anchor="middle" x="24" y="-7.5" font-family="Helvetica,sans-Serif" font-size="10.00">cassert</text>
</g>
<!-- Node3&#45;&gt;Node6 -->
<g id="edge5" class="edge"><title>Node3&#45;&gt;Node6</title>
<path fill="none" stroke="midnightblue" d="M199.883,-56.4435C161.317,-46.4791 97.9046,-30.095 58.6812,-19.9607"/>
<polygon fill="midnightblue" stroke="midnightblue" points="59.3381,-16.5155 48.7804,-17.4026 57.5869,-23.293 59.3381,-16.5155"/>
</g>
<!-- Node3&#45;&gt;Node7 -->
<g id="edge6" class="edge"><title>Node3&#45;&gt;Node7</title>
<path fill="none" stroke="midnightblue" d="M245.853,-56.324C258.216,-47.979 277.13,-35.2122 291.737,-25.3524"/>
<polygon fill="midnightblue" stroke="midnightblue" points="293.848,-28.1503 300.179,-19.6545 289.932,-22.3483 293.848,-28.1503"/>
</g>
<!-- Node8 -->
<g id="node8" class="node"><title>Node8</title>
<polygon fill="none" stroke="#bfbfbf" points="216,-0.5 216,-19.5 272,-19.5 272,-0.5 216,-0.5"/>
<text text-anchor="middle" x="244" y="-7.5" font-family="Helvetica,sans-Serif" font-size="10.00">algorithm</text>
</g>
<!-- Node3&#45;&gt;Node8 -->
<g id="edge7" class="edge"><title>Node3&#45;&gt;Node8</title>
<path fill="none" stroke="midnightblue" d="M234.816,-56.083C236.274,-48.9272 238.371,-38.6353 240.193,-29.6911"/>
<polygon fill="midnightblue" stroke="midnightblue" points="243.651,-30.2485 242.217,-19.7511 236.792,-28.8512 243.651,-30.2485"/>
</g>
<!-- Node10 -->
<g id="node10" class="node"><title>Node10</title>
<polygon fill="none" stroke="#bfbfbf" points="695.5,-180.5 695.5,-199.5 822.5,-199.5 822.5,-180.5 695.5,-180.5"/>
<text text-anchor="middle" x="759" y="-187.5" font-family="Helvetica,sans-Serif" font-size="10.00">fairmq/FairMQMessage.h</text>
</g>
<!-- Node9&#45;&gt;Node10 -->
<g id="edge9" class="edge"><title>Node9&#45;&gt;Node10</title>
<path fill="none" stroke="midnightblue" d="M599.948,-236.444C632.158,-227.241 683.534,-212.562 719.142,-202.388"/>
<polygon fill="midnightblue" stroke="midnightblue" points="720.539,-205.629 729.192,-199.516 718.616,-198.898 720.539,-205.629"/>
</g>
<!-- Node11 -->
<g id="node11" class="node"><title>Node11</title>
<g id="a_node11"><a xlink:href="../../d5/d19/InputRoute_8h.html" target="_top" xlink:title="Framework/InputRoute.h">
<polygon fill="none" stroke="black" points="840.5,-180.5 840.5,-199.5 965.5,-199.5 965.5,-180.5 840.5,-180.5"/>
<text text-anchor="middle" x="903" y="-187.5" font-family="Helvetica,sans-Serif" font-size="10.00">Framework/InputRoute.h</text>
</a>
</g>
</g>
<!-- Node9&#45;&gt;Node11 -->
<g id="edge10" class="edge"><title>Node9&#45;&gt;Node11</title>
<path fill="none" stroke="midnightblue" d="M622.765,-236.444C681.83,-226.865 777.474,-211.356 840.306,-201.167"/>
<polygon fill="midnightblue" stroke="midnightblue" points="841.171,-204.572 850.482,-199.516 840.051,-197.662 841.171,-204.572"/>
</g>
<!-- Node16 -->
<g id="node16" class="node"><title>Node16</title>
<polygon fill="none" stroke="#bfbfbf" points="598.5,-118.5 598.5,-137.5 647.5,-137.5 647.5,-118.5 598.5,-118.5"/>
<text text-anchor="middle" x="623" y="-125.5" font-family="Helvetica,sans-Serif" font-size="10.00">cstddef</text>
</g>
<!-- Node9&#45;&gt;Node16 -->
<g id="edge22" class="edge"><title>Node9&#45;&gt;Node16</title>
<path fill="none" stroke="midnightblue" d="M599.121,-236.441C616.643,-229.62 637.523,-218.141 648,-200 657.959,-182.757 647.206,-160.886 636.868,-146.006"/>
<polygon fill="midnightblue" stroke="midnightblue" points="639.474,-143.648 630.674,-137.748 633.875,-147.848 639.474,-143.648"/>
</g>
<!-- Node17 -->
<g id="node17" class="node"><title>Node17</title>
<g id="a_node17"><a xlink:href="../../d7/d12/ForwardRoute_8h.html" target="_top" xlink:title="Framework/ForwardRoute.h">
<polygon fill="none" stroke="black" points="501,-180.5 501,-199.5 639,-199.5 639,-180.5 501,-180.5"/>
<text text-anchor="middle" x="570" y="-187.5" font-family="Helvetica,sans-Serif" font-size="10.00">Framework/ForwardRoute.h</text>
</a>
</g>
</g>
<!-- Node9&#45;&gt;Node17 -->
<g id="edge18" class="edge"><title>Node9&#45;&gt;Node17</title>
<path fill="none" stroke="midnightblue" d="M570,-236.083C570,-229.006 570,-218.861 570,-209.986"/>
<polygon fill="midnightblue" stroke="midnightblue" points="573.5,-209.751 570,-199.751 566.5,-209.751 573.5,-209.751"/>
</g>
<!-- Node18 -->
<g id="node18" class="node"><title>Node18</title>
<polygon fill="none" stroke="#bfbfbf" points="526,-56.5 526,-75.5 570,-75.5 570,-56.5 526,-56.5"/>
<text text-anchor="middle" x="548" y="-63.5" font-family="Helvetica,sans-Serif" font-size="10.00">vector</text>
</g>
<!-- Node9&#45;&gt;Node18 -->
<g id="edge23" class="edge"><title>Node9&#45;&gt;Node18</title>
<path fill="none" stroke="midnightblue" d="M540.879,-236.441C523.357,-229.62 502.477,-218.141 492,-200 480.02,-179.258 517.181,-115.297 536.756,-84.255"/>
<polygon fill="midnightblue" stroke="midnightblue" points="539.748,-86.0715 542.192,-75.7623 533.853,-82.2976 539.748,-86.0715"/>
</g>
<!-- Node12 -->
<g id="node12" class="node"><title>Node12</title>
<g id="a_node12"><a xlink:href="../../d5/d3f/InputSpec_8h.html" target="_top" xlink:title="Framework/InputSpec.h">
<polygon fill="none" stroke="black" points="704.5,-118.5 704.5,-137.5 825.5,-137.5 825.5,-118.5 704.5,-118.5"/>
<text text-anchor="middle" x="765" y="-125.5" font-family="Helvetica,sans-Serif" font-size="10.00">Framework/InputSpec.h</text>
</a>
</g>
</g>
<!-- Node11&#45;&gt;Node12 -->
<g id="edge11" class="edge"><title>Node11&#45;&gt;Node12</title>
<path fill="none" stroke="midnightblue" d="M883.228,-180.403C859.864,-170.245 820.786,-153.255 793.997,-141.607"/>
<polygon fill="midnightblue" stroke="midnightblue" points="795.302,-138.358 784.735,-137.581 792.511,-144.778 795.302,-138.358"/>
</g>
<!-- Node13 -->
<g id="node13" class="node"><title>Node13</title>
<polygon fill="none" stroke="#bfbfbf" points="621.5,-56.5 621.5,-75.5 662.5,-75.5 662.5,-56.5 621.5,-56.5"/>
<text text-anchor="middle" x="642" y="-63.5" font-family="Helvetica,sans-Serif" font-size="10.00">string</text>
</g>
<!-- Node11&#45;&gt;Node13 -->
<g id="edge17" class="edge"><title>Node11&#45;&gt;Node13</title>
<path fill="none" stroke="midnightblue" d="M840.305,-180.493C788.34,-172.521 719.354,-159.523 696,-144 674.175,-129.493 658.491,-102.91 649.826,-85.0956"/>
<polygon fill="midnightblue" stroke="midnightblue" points="652.899,-83.4013 645.542,-75.7774 646.539,-86.3253 652.899,-83.4013"/>
</g>
<!-- Node11&#45;&gt;Node16 -->
<g id="edge16" class="edge"><title>Node11&#45;&gt;Node16</title>
<path fill="none" stroke="midnightblue" d="M840.364,-180.515C791.292,-173.1 721.588,-160.87 662,-144 659.025,-143.158 655.959,-142.18 652.916,-141.135"/>
<polygon fill="midnightblue" stroke="midnightblue" points="654.001,-137.806 643.407,-137.654 651.594,-144.379 654.001,-137.806"/>
</g>
<!-- Node12&#45;&gt;Node3 -->
<g id="edge15" class="edge"><title>Node12&#45;&gt;Node3</title>
<path fill="none" stroke="midnightblue" d="M705.644,-118.494C689.548,-116.28 672.117,-113.966 656,-112 531.263,-96.7859 385.471,-81.9164 301.719,-73.6546"/>
<polygon fill="midnightblue" stroke="midnightblue" points="301.864,-70.1521 291.569,-72.6558 301.178,-77.1184 301.864,-70.1521"/>
</g>
<!-- Node12&#45;&gt;Node13 -->
<g id="edge12" class="edge"><title>Node12&#45;&gt;Node13</title>
<path fill="none" stroke="midnightblue" d="M747.377,-118.403C726.826,-108.379 692.636,-91.7006 668.793,-80.0699"/>
<polygon fill="midnightblue" stroke="midnightblue" points="670.112,-76.8192 659.59,-75.5806 667.043,-83.1106 670.112,-76.8192"/>
</g>
<!-- Node14 -->
<g id="node14" class="node"><title>Node14</title>
<polygon fill="none" stroke="#bfbfbf" points="710,-56.5 710,-75.5 762,-75.5 762,-56.5 710,-56.5"/>
<text text-anchor="middle" x="736" y="-63.5" font-family="Helvetica,sans-Serif" font-size="10.00">ostream</text>
</g>
<!-- Node12&#45;&gt;Node14 -->
<g id="edge13" class="edge"><title>Node12&#45;&gt;Node14</title>
<path fill="none" stroke="midnightblue" d="M760.845,-118.403C756.624,-109.671 749.963,-95.8893 744.6,-84.7936"/>
<polygon fill="midnightblue" stroke="midnightblue" points="747.65,-83.061 740.147,-75.5806 741.348,-86.1072 747.65,-83.061"/>
</g>
<!-- Node15 -->
<g id="node15" class="node"><title>Node15</title>
<g id="a_node15"><a xlink:href="../../dc/dca/Lifetime_8h.html" target="_top" xlink:title="Framework/Lifetime.h">
<polygon fill="none" stroke="black" points="780.5,-56.5 780.5,-75.5 891.5,-75.5 891.5,-56.5 780.5,-56.5"/>
<text text-anchor="middle" x="836" y="-63.5" font-family="Helvetica,sans-Serif" font-size="10.00">Framework/Lifetime.h</text>
</a>
</g>
</g>
<!-- Node12&#45;&gt;Node15 -->
<g id="edge14" class="edge"><title>Node12&#45;&gt;Node15</title>
<path fill="none" stroke="midnightblue" d="M775.173,-118.403C786.35,-108.958 804.517,-93.6056 818.091,-82.1342"/>
<polygon fill="midnightblue" stroke="midnightblue" points="820.467,-84.7085 825.846,-75.5806 815.949,-79.3619 820.467,-84.7085"/>
</g>
<!-- Node17&#45;&gt;Node12 -->
<g id="edge19" class="edge"><title>Node17&#45;&gt;Node12</title>
<path fill="none" stroke="midnightblue" d="M597.939,-180.403C631.967,-169.933 689.584,-152.205 727.462,-140.55"/>
<polygon fill="midnightblue" stroke="midnightblue" points="728.585,-143.867 737.113,-137.581 726.526,-137.176 728.585,-143.867"/>
</g>
<!-- Node17&#45;&gt;Node13 -->
<g id="edge21" class="edge"><title>Node17&#45;&gt;Node13</title>
<path fill="none" stroke="midnightblue" d="M570.584,-180.257C571.936,-165.245 576.3,-134.058 590,-112 597.48,-99.9565 609.21,-89.4034 619.637,-81.5494"/>
<polygon fill="midnightblue" stroke="midnightblue" points="621.854,-84.2669 627.967,-75.6135 617.792,-78.5661 621.854,-84.2669"/>
</g>
<!-- Node17&#45;&gt;Node16 -->
<g id="edge20" class="edge"><title>Node17&#45;&gt;Node16</title>
<path fill="none" stroke="midnightblue" d="M577.594,-180.403C585.701,-171.225 598.735,-156.47 608.763,-145.117"/>
<polygon fill="midnightblue" stroke="midnightblue" points="611.423,-147.392 615.42,-137.581 606.177,-142.758 611.423,-147.392"/>
</g>
<!-- Node19&#45;&gt;Node3 -->
<g id="edge25" class="edge"><title>Node19&#45;&gt;Node3</title>
<path fill="none" stroke="midnightblue" d="M151.852,-112.933C169.097,-103.171 191.942,-90.2401 208.999,-80.5856"/>
<polygon fill="midnightblue" stroke="midnightblue" points="210.828,-83.572 217.807,-75.6 207.38,-77.4802 210.828,-83.572"/>
</g>
<!-- Node19&#45;&gt;Node4 -->
<g id="edge26" class="edge"><title>Node19&#45;&gt;Node4</title>
<path fill="none" stroke="midnightblue" d="M132.886,-112.776C141.613,-91.6857 157.98,-52.1324 167.537,-29.0356"/>
<polygon fill="midnightblue" stroke="midnightblue" points="170.808,-30.2854 171.397,-19.707 164.339,-27.6089 170.808,-30.2854"/>
</g>
<!-- Node19&#45;&gt;Node5 -->
<g id="edge28" class="edge"><title>Node19&#45;&gt;Node5</title>
<path fill="none" stroke="midnightblue" d="M124.67,-112.776C121.247,-91.8757 114.854,-52.8436 111.057,-29.6638"/>
<polygon fill="midnightblue" stroke="midnightblue" points="114.497,-29.0097 109.426,-19.707 107.589,-30.1413 114.497,-29.0097"/>
</g>
<!-- Node19&#45;&gt;Node6 -->
<g id="edge29" class="edge"><title>Node19&#45;&gt;Node6</title>
<path fill="none" stroke="midnightblue" d="M76.0273,-112.983C57.4425,-105.201 38.2465,-93.4442 27,-76 18.2093,-62.365 18.3372,-43.5727 20.1439,-29.7003"/>
<polygon fill="midnightblue" stroke="midnightblue" points="23.5979,-30.2657 21.8144,-19.8221 16.6959,-29.0985 23.5979,-30.2657"/>
</g>
<!-- Node20 -->
<g id="node20" class="node"><title>Node20</title>
<polygon fill="none" stroke="#bfbfbf" points="36.5,-56.5 36.5,-75.5 79.5,-75.5 79.5,-56.5 36.5,-56.5"/>
<text text-anchor="middle" x="58" y="-63.5" font-family="Helvetica,sans-Serif" font-size="10.00">cstdio</text>
</g>
<!-- Node19&#45;&gt;Node20 -->
<g id="edge27" class="edge"><title>Node19&#45;&gt;Node20</title>
<path fill="none" stroke="midnightblue" d="M110.648,-112.781C100.105,-103.613 86.4001,-91.6957 75.6164,-82.3186"/>
<polygon fill="midnightblue" stroke="midnightblue" points="77.8828,-79.6512 68.0401,-75.7305 73.2896,-84.9335 77.8828,-79.6512"/>
</g>
<!-- Node22 -->
<g id="node22" class="node"><title>Node22</title>
<g id="a_node22"><a xlink:href="../../d3/d26/MetricsService_8h.html" target="_top" xlink:title="Framework/MetricsService.h">
<polygon fill="none" stroke="black" points="348,-118.5 348,-137.5 490,-137.5 490,-118.5 348,-118.5"/>
<text text-anchor="middle" x="419" y="-125.5" font-family="Helvetica,sans-Serif" font-size="10.00">Framework/MetricsService.h</text>
</a>
</g>
</g>
<!-- Node21&#45;&gt;Node22 -->
<g id="edge31" class="edge"><title>Node21&#45;&gt;Node22</title>
<path fill="none" stroke="midnightblue" d="M413.451,-236.281C414.42,-217.547 416.719,-173.098 418.034,-147.682"/>
<polygon fill="midnightblue" stroke="midnightblue" points="421.539,-147.672 418.56,-137.505 414.548,-147.311 421.539,-147.672"/>
</g>
<!-- Node22&#45;&gt;Node13 -->
<g id="edge41" class="edge"><title>Node22&#45;&gt;Node13</title>
<path fill="none" stroke="midnightblue" d="M450.95,-118.403C493.896,-106.848 569.696,-86.4541 611.752,-75.1384"/>
<polygon fill="midnightblue" stroke="midnightblue" points="612.683,-78.5127 621.43,-72.5346 610.864,-71.7531 612.683,-78.5127"/>
</g>
<!-- Node22&#45;&gt;Node18 -->
<g id="edge42" class="edge"><title>Node22&#45;&gt;Node18</title>
<path fill="none" stroke="midnightblue" d="M437.483,-118.403C459.132,-108.334 495.213,-91.5522 520.232,-79.9151"/>
<polygon fill="midnightblue" stroke="midnightblue" points="521.961,-82.9715 529.552,-75.5806 519.008,-76.6244 521.961,-82.9715"/>
</g>
<!-- Node23 -->
<g id="node23" class="node"><title>Node23</title>
<g id="a_node23"><a xlink:href="../../de/d56/Variant_8h.html" target="_top" xlink:title="Framework/Variant.h">
<polygon fill="none" stroke="black" points="401.5,-56.5 401.5,-75.5 508.5,-75.5 508.5,-56.5 401.5,-56.5"/>
<text text-anchor="middle" x="455" y="-63.5" font-family="Helvetica,sans-Serif" font-size="10.00">Framework/Variant.h</text>
</a>
</g>
</g>
<!-- Node22&#45;&gt;Node23 -->
<g id="edge32" class="edge"><title>Node22&#45;&gt;Node23</title>
<path fill="none" stroke="midnightblue" d="M424.158,-118.403C429.451,-109.582 437.835,-95.6075 444.527,-84.4548"/>
<polygon fill="midnightblue" stroke="midnightblue" points="447.708,-85.9563 449.852,-75.5806 441.705,-82.3548 447.708,-85.9563"/>
</g>
<!-- Node29 -->
<g id="node29" class="node"><title>Node29</title>
<polygon fill="none" stroke="#bfbfbf" points="348.5,-56.5 348.5,-75.5 383.5,-75.5 383.5,-56.5 348.5,-56.5"/>
<text text-anchor="middle" x="366" y="-63.5" font-family="Helvetica,sans-Serif" font-size="10.00">map</text>
</g>
<!-- Node22&#45;&gt;Node29 -->
<g id="edge40" class="edge"><title>Node22&#45;&gt;Node29</title>
<path fill="none" stroke="midnightblue" d="M411.406,-118.403C403.299,-109.225 390.265,-94.4699 380.237,-83.1173"/>
<polygon fill="midnightblue" stroke="midnightblue" points="382.823,-80.7582 373.58,-75.5806 377.577,-85.3925 382.823,-80.7582"/>
</g>
<!-- Node23&#45;&gt;Node4 -->
<g id="edge35" class="edge"><title>Node23&#45;&gt;Node4</title>
<path fill="none" stroke="midnightblue" d="M401.487,-56.7926C353.322,-49.0673 280.427,-36.5409 208.191,-20.0973"/>
<polygon fill="midnightblue" stroke="midnightblue" points="208.535,-16.5851 198.005,-17.7511 206.964,-23.4065 208.535,-16.5851"/>
</g>
<!-- Node23&#45;&gt;Node7 -->
<g id="edge34" class="edge"><title>Node23&#45;&gt;Node7</title>
<path fill="none" stroke="midnightblue" d="M432.5,-56.4435C408.923,-47.4776 371.678,-33.314 345.036,-23.1827"/>
<polygon fill="midnightblue" stroke="midnightblue" points="345.986,-19.7995 335.395,-19.5164 343.498,-26.3424 345.986,-19.7995"/>
</g>
<!-- Node24 -->
<g id="node24" class="node"><title>Node24</title>
<polygon fill="none" stroke="#bfbfbf" points="586,-0.5 586,-19.5 648,-19.5 648,-0.5 586,-0.5"/>
<text text-anchor="middle" x="617" y="-7.5" font-family="Helvetica,sans-Serif" font-size="10.00">type_traits</text>
</g>
<!-- Node23&#45;&gt;Node24 -->
<g id="edge33" class="edge"><title>Node23&#45;&gt;Node24</title>
<path fill="none" stroke="midnightblue" d="M480.669,-56.4435C507.923,-47.3591 551.184,-32.9388 581.651,-22.7831"/>
<polygon fill="midnightblue" stroke="midnightblue" points="583.071,-25.9992 591.451,-19.5164 580.857,-19.3584 583.071,-25.9992"/>
</g>
<!-- Node25 -->
<g id="node25" class="node"><title>Node25</title>
<polygon fill="none" stroke="#bfbfbf" points="666.5,-0.5 666.5,-19.5 711.5,-19.5 711.5,-0.5 666.5,-0.5"/>
<text text-anchor="middle" x="689" y="-7.5" font-family="Helvetica,sans-Serif" font-size="10.00">cstdlib</text>
</g>
<!-- Node23&#45;&gt;Node25 -->
<g id="edge36" class="edge"><title>Node23&#45;&gt;Node25</title>
<path fill="none" stroke="midnightblue" d="M495.552,-56.4941C536.24,-47.8254 600.642,-33.7378 656,-20 656.209,-19.9482 656.419,-19.896 656.629,-19.8435"/>
<polygon fill="midnightblue" stroke="midnightblue" points="657.511,-23.2306 666.313,-17.3346 655.755,-16.4543 657.511,-23.2306"/>
</g>
<!-- Node26 -->
<g id="node26" class="node"><title>Node26</title>
<polygon fill="none" stroke="#bfbfbf" points="354.5,-0.5 354.5,-19.5 413.5,-19.5 413.5,-0.5 354.5,-0.5"/>
<text text-anchor="middle" x="384" y="-7.5" font-family="Helvetica,sans-Serif" font-size="10.00">stdexcept</text>
</g>
<!-- Node23&#45;&gt;Node26 -->
<g id="edge37" class="edge"><title>Node23&#45;&gt;Node26</title>
<path fill="none" stroke="midnightblue" d="M443.593,-56.324C432.891,-48.1849 416.659,-35.8395 403.837,-26.0874"/>
<polygon fill="midnightblue" stroke="midnightblue" points="405.693,-23.1018 395.615,-19.8339 401.456,-28.6734 405.693,-23.1018"/>
</g>
<!-- Node27 -->
<g id="node27" class="node"><title>Node27</title>
<polygon fill="none" stroke="#bfbfbf" points="431.5,-0.5 431.5,-19.5 476.5,-19.5 476.5,-0.5 431.5,-0.5"/>
<text text-anchor="middle" x="454" y="-7.5" font-family="Helvetica,sans-Serif" font-size="10.00">iosfwd</text>
</g>
<!-- Node23&#45;&gt;Node27 -->
<g id="edge38" class="edge"><title>Node23&#45;&gt;Node27</title>
<path fill="none" stroke="midnightblue" d="M454.835,-56.083C454.704,-49.0059 454.516,-38.8611 454.352,-29.9865"/>
<polygon fill="midnightblue" stroke="midnightblue" points="457.847,-29.6845 454.162,-19.7511 450.848,-29.8142 457.847,-29.6845"/>
</g>
<!-- Node28 -->
<g id="node28" class="node"><title>Node28</title>
<polygon fill="none" stroke="#bfbfbf" points="494.5,-0.5 494.5,-19.5 567.5,-19.5 567.5,-0.5 494.5,-0.5"/>
<text text-anchor="middle" x="531" y="-7.5" font-family="Helvetica,sans-Serif" font-size="10.00">initializer_list</text>
</g>
<!-- Node23&#45;&gt;Node28 -->
<g id="edge39" class="edge"><title>Node23&#45;&gt;Node28</title>
<path fill="none" stroke="midnightblue" d="M467.211,-56.324C478.776,-48.1066 496.375,-35.6017 510.161,-25.8069"/>
<polygon fill="midnightblue" stroke="midnightblue" points="512.443,-28.4791 518.567,-19.8339 508.388,-22.7729 512.443,-28.4791"/>
</g>
</g>
</svg>
        <g id="navigator" transform="translate(0 0)" fill="#404254">
                <rect fill="#f2f5e9" fill-opacity="0.5" stroke="#606060" stroke-width=".5" x="0" y="0" width="60" height="60"/>
                <use id="zoomplus" xlink:href="#zoomPlus" x="17" y="9" onmousedown="handleZoom(evt,'in')"/>
                <use id="zoomminus" xlink:href="#zoomMin" x="42" y="9" onmousedown="handleZoom(evt,'out')"/>
                <use id="reset" xlink:href="#resetDef" x="30" y="36" onmousedown="handleReset()"/>
                <g id="arrowUp" xlink:href="#dirArrow" transform="translate(30 24)" onmousedown="handlePan(0,-1)">
                  <use xlink:href="#rim" fill="#404040">
                        <set attributeName="fill" to="#808080" begin="arrowUp.mouseover" end="arrowUp.mouseout"/>
                  </use>
                  <path fill="none" stroke="white" stroke-width="1.5" d="M0,-3.0v7 M-2.5,-0.5L0,-3.0L2.5,-0.5"/>
                </g>
                <g id="arrowRight" xlink:href="#dirArrow" transform="rotate(90) translate(36 -43)" onmousedown="handlePan(1,0)">
                  <use xlink:href="#rim" fill="#404040">
                        <set attributeName="fill" to="#808080" begin="arrowRight.mouseover" end="arrowRight.mouseout"/>
                  </use>
                  <path fill="none" stroke="white" stroke-width="1.5" d="M0,-3.0v7 M-2.5,-0.5L0,-3.0L2.5,-0.5"/>
                </g>
                <g id="arrowDown" xlink:href="#dirArrow" transform="rotate(180) translate(-30 -48)" onmousedown="handlePan(0,1)">
                  <use xlink:href="#rim" fill="#404040">
                        <set attributeName="fill" to="#808080" begin="arrowDown.mouseover" end="arrowDown.mouseout"/>
                  </use>
                  <path fill="none" stroke="white" stroke-width="1.5" d="M0,-3.0v7 M-2.5,-0.5L0,-3.0L2.5,-0.5"/>
                </g>
                <g id="arrowLeft" xlink:href="#dirArrow" transform="rotate(270) translate(-36 17)" onmousedown="handlePan(-1,0)">
                  <use xlink:href="#rim" fill="#404040">
                        <set attributeName="fill" to="#808080" begin="arrowLeft.mouseover" end="arrowLeft.mouseout"/>
                  </use>
                  <path fill="none" stroke="white" stroke-width="1.5" d="M0,-3.0v7 M-2.5,-0.5L0,-3.0L2.5,-0.5"/>
                </g>
        </g>
        <svg viewBox="0 0 15 15" width="100%" height="30px" preserveAspectRatio="xMaxYMin meet">
         <g id="arrow_out" transform="scale(0.3 0.3)">
          <a xlink:href="test__DataRelayer_8cxx__incl_org.svg" target="_base">
           <rect id="button" ry="5" rx="5" y="6" x="6" height="38" width="38"
                fill="#f2f5e9" fill-opacity="0.5" stroke="#606060" stroke-width="1.0"/>
           <path id="arrow"
             d="M 11.500037,31.436501 C 11.940474,20.09759 22.043105,11.32322 32.158766,21.979434 L 37.068811,17.246167 C 37.068811,17.246167 37.088388,32 37.088388,32 L 22.160133,31.978069 C 22.160133,31.978069 26.997745,27.140456 26.997745,27.140456 C 18.528582,18.264221 13.291696,25.230495 11.500037,31.436501 z"
             style="fill:#404040;"/>
          </a>
         </g>
        </svg>
</svg>
