<?xml version="1.0" encoding="UTF-8" standalone="no"?>
<!DOCTYPE svg PUBLIC "-//W3C//DTD SVG 1.1//EN"
 "http://www.w3.org/Graphics/SVG/1.1/DTD/svg11.dtd">
<!-- Generated by graphviz version 2.36.0 (20140111.2315)
 -->
<!-- Title: o2::MFT::Detector Pages: 1 -->
<svg width="1058pt" height="1918pt"
 viewBox="0.00 0.00 1058.00 1918.00" xmlns="http://www.w3.org/2000/svg" xmlns:xlink="http://www.w3.org/1999/xlink">
<g id="graph0" class="graph" transform="scale(1 1) rotate(0) translate(4 1914)">
<title>o2::MFT::Detector</title>
<!-- Node1 -->
<g id="node1" class="node"><title>Node1</title>
<polygon fill="#bfbfbf" stroke="black" points="449.5,-1 449.5,-289 592.5,-289 592.5,-1 449.5,-1"/>
<text text-anchor="middle" x="521" y="-277" font-family="Helvetica,sans-Serif" font-size="10.00">o2::MFT::Detector</text>
<polyline fill="none" stroke="black" points="449.5,-270 592.5,-270 "/>
<text text-anchor="middle" x="521" y="-258" font-family="Helvetica,sans-Serif" font-size="10.00"> </text>
<polyline fill="none" stroke="black" points="449.5,-251 592.5,-251 "/>
<text text-anchor="start" x="457.5" y="-239" font-family="Helvetica,sans-Serif" font-size="10.00">+ Detector()</text>
<text text-anchor="start" x="457.5" y="-228" font-family="Helvetica,sans-Serif" font-size="10.00">+ ~Detector()</text>
<text text-anchor="start" x="457.5" y="-217" font-family="Helvetica,sans-Serif" font-size="10.00">+ Initialize()</text>
<text text-anchor="start" x="457.5" y="-206" font-family="Helvetica,sans-Serif" font-size="10.00">+ ProcessHits()</text>
<text text-anchor="start" x="457.5" y="-195" font-family="Helvetica,sans-Serif" font-size="10.00">+ Reset()</text>
<text text-anchor="start" x="457.5" y="-184" font-family="Helvetica,sans-Serif" font-size="10.00">+ Register()</text>
<text text-anchor="start" x="457.5" y="-173" font-family="Helvetica,sans-Serif" font-size="10.00">+ getHits()</text>
<text text-anchor="start" x="457.5" y="-162" font-family="Helvetica,sans-Serif" font-size="10.00">+ EndOfEvent()</text>
<text text-anchor="start" x="457.5" y="-151" font-family="Helvetica,sans-Serif" font-size="10.00">+ CopyClones()</text>
<text text-anchor="start" x="457.5" y="-140" font-family="Helvetica,sans-Serif" font-size="10.00">+ FinishPrimary()</text>
<text text-anchor="start" x="457.5" y="-129" font-family="Helvetica,sans-Serif" font-size="10.00">+ FinishRun()</text>
<text text-anchor="start" x="457.5" y="-118" font-family="Helvetica,sans-Serif" font-size="10.00">+ BeginPrimary()</text>
<text text-anchor="start" x="457.5" y="-107" font-family="Helvetica,sans-Serif" font-size="10.00">+ PostTrack()</text>
<text text-anchor="start" x="457.5" y="-96" font-family="Helvetica,sans-Serif" font-size="10.00">+ PreTrack()</text>
<text text-anchor="start" x="457.5" y="-85" font-family="Helvetica,sans-Serif" font-size="10.00">+ BeginEvent()</text>
<text text-anchor="start" x="457.5" y="-74" font-family="Helvetica,sans-Serif" font-size="10.00">+ SetSpecialPhysicsCuts()</text>
<text text-anchor="start" x="457.5" y="-63" font-family="Helvetica,sans-Serif" font-size="10.00">+ ConstructGeometry()</text>
<text text-anchor="start" x="457.5" y="-52" font-family="Helvetica,sans-Serif" font-size="10.00">+ isVersion()</text>
<text text-anchor="start" x="457.5" y="-41" font-family="Helvetica,sans-Serif" font-size="10.00">+ createMaterials()</text>
<text text-anchor="start" x="457.5" y="-30" font-family="Helvetica,sans-Serif" font-size="10.00">+ setDensitySupportOverSi()</text>
<text text-anchor="start" x="457.5" y="-19" font-family="Helvetica,sans-Serif" font-size="10.00">+ createGeometry()</text>
<text text-anchor="start" x="457.5" y="-8" font-family="Helvetica,sans-Serif" font-size="10.00">+ defineSensitiveVolumes()</text>
</g>
<!-- Node2 -->
<g id="node2" class="node"><title>Node2</title>
<g id="a_node2"><a xlink:href="../../d4/d8a/classo2_1_1Base_1_1DetImpl.html" target="_top" xlink:title="{o2::Base::DetImpl\&lt;\l Detector \&gt;\n||+ updateHitTrackIndices()\l}">
<polygon fill="none" stroke="black" points="98,-498 98,-566 228,-566 228,-498 98,-498"/>
<text text-anchor="start" x="106" y="-554" font-family="Helvetica,sans-Serif" font-size="10.00">o2::Base::DetImpl&lt;</text>
<text text-anchor="middle" x="163" y="-543" font-family="Helvetica,sans-Serif" font-size="10.00"> Detector &gt;</text>
<polyline fill="none" stroke="black" points="98,-536 228,-536 "/>
<text text-anchor="middle" x="163" y="-524" font-family="Helvetica,sans-Serif" font-size="10.00"> </text>
<polyline fill="none" stroke="black" points="98,-517 228,-517 "/>
<text text-anchor="start" x="106" y="-505" font-family="Helvetica,sans-Serif" font-size="10.00">+ updateHitTrackIndices()</text>
</a>
</g>
</g>
<!-- Node2&#45;&gt;Node1 -->
<g id="edge1" class="edge"><title>Node2&#45;&gt;Node1</title>
<path fill="none" stroke="midnightblue" d="M200.731,-490.423C259.624,-427.089 374.4,-303.656 449.353,-223.051"/>
<polygon fill="none" stroke="midnightblue" points="198.079,-488.135 193.833,-497.842 203.206,-492.902 198.079,-488.135"/>
</g>
<!-- Node3 -->
<g id="node3" class="node"><title>Node3</title>
<g id="a_node3"><a xlink:href="../../d7/d02/classo2_1_1Base_1_1Detector.html" target="_top" xlink:title="{o2::Base::Detector\n||+ Detector()\l+ Detector()\l+ ~Detector()\l+ Material()\l+ Mixture()\l+ Medium()\l+ Matrix()\l+ addAlignableVolumes()\l+ defineWrapperVolume()\l+ setNumberOfWrapperVolumes()\l+ defineLayer()\l+ defineLayerTurbo()\l+ getMaterialID()\l+ getMediumID()\l+ getMediumIDMappingAsVector()\l+ addNameTo()\l+ updateHitTrackIndices()\l+ GetCollection()\l+ setDensityFactor()\l+ getDensityFactor()\l+ initFieldTrackingParams()\l# Detector()\l# operator=()\l}">
<polygon fill="none" stroke="black" points="-0.5,-1013.5 -0.5,-1312.5 166.5,-1312.5 166.5,-1013.5 -0.5,-1013.5"/>
<text text-anchor="middle" x="83" y="-1300.5" font-family="Helvetica,sans-Serif" font-size="10.00">o2::Base::Detector</text>
<polyline fill="none" stroke="black" points="-0.5,-1293.5 166.5,-1293.5 "/>
<text text-anchor="middle" x="83" y="-1281.5" font-family="Helvetica,sans-Serif" font-size="10.00"> </text>
<polyline fill="none" stroke="black" points="-0.5,-1274.5 166.5,-1274.5 "/>
<text text-anchor="start" x="7.5" y="-1262.5" font-family="Helvetica,sans-Serif" font-size="10.00">+ Detector()</text>
<text text-anchor="start" x="7.5" y="-1251.5" font-family="Helvetica,sans-Serif" font-size="10.00">+ Detector()</text>
<text text-anchor="start" x="7.5" y="-1240.5" font-family="Helvetica,sans-Serif" font-size="10.00">+ ~Detector()</text>
<text text-anchor="start" x="7.5" y="-1229.5" font-family="Helvetica,sans-Serif" font-size="10.00">+ Material()</text>
<text text-anchor="start" x="7.5" y="-1218.5" font-family="Helvetica,sans-Serif" font-size="10.00">+ Mixture()</text>
<text text-anchor="start" x="7.5" y="-1207.5" font-family="Helvetica,sans-Serif" font-size="10.00">+ Medium()</text>
<text text-anchor="start" x="7.5" y="-1196.5" font-family="Helvetica,sans-Serif" font-size="10.00">+ Matrix()</text>
<text text-anchor="start" x="7.5" y="-1185.5" font-family="Helvetica,sans-Serif" font-size="10.00">+ addAlignableVolumes()</text>
<text text-anchor="start" x="7.5" y="-1174.5" font-family="Helvetica,sans-Serif" font-size="10.00">+ defineWrapperVolume()</text>
<text text-anchor="start" x="7.5" y="-1163.5" font-family="Helvetica,sans-Serif" font-size="10.00">+ setNumberOfWrapperVolumes()</text>
<text text-anchor="start" x="7.5" y="-1152.5" font-family="Helvetica,sans-Serif" font-size="10.00">+ defineLayer()</text>
<text text-anchor="start" x="7.5" y="-1141.5" font-family="Helvetica,sans-Serif" font-size="10.00">+ defineLayerTurbo()</text>
<text text-anchor="start" x="7.5" y="-1130.5" font-family="Helvetica,sans-Serif" font-size="10.00">+ getMaterialID()</text>
<text text-anchor="start" x="7.5" y="-1119.5" font-family="Helvetica,sans-Serif" font-size="10.00">+ getMediumID()</text>
<text text-anchor="start" x="7.5" y="-1108.5" font-family="Helvetica,sans-Serif" font-size="10.00">+ getMediumIDMappingAsVector()</text>
<text text-anchor="start" x="7.5" y="-1097.5" font-family="Helvetica,sans-Serif" font-size="10.00">+ addNameTo()</text>
<text text-anchor="start" x="7.5" y="-1086.5" font-family="Helvetica,sans-Serif" font-size="10.00">+ updateHitTrackIndices()</text>
<text text-anchor="start" x="7.5" y="-1075.5" font-family="Helvetica,sans-Serif" font-size="10.00">+ GetCollection()</text>
<text text-anchor="start" x="7.5" y="-1064.5" font-family="Helvetica,sans-Serif" font-size="10.00">+ setDensityFactor()</text>
<text text-anchor="start" x="7.5" y="-1053.5" font-family="Helvetica,sans-Serif" font-size="10.00">+ getDensityFactor()</text>
<text text-anchor="start" x="7.5" y="-1042.5" font-family="Helvetica,sans-Serif" font-size="10.00">+ initFieldTrackingParams()</text>
<text text-anchor="start" x="7.5" y="-1031.5" font-family="Helvetica,sans-Serif" font-size="10.00"># Detector()</text>
<text text-anchor="start" x="7.5" y="-1020.5" font-family="Helvetica,sans-Serif" font-size="10.00"># operator=()</text>
</a>
</g>
</g>
<!-- Node3&#45;&gt;Node2 -->
<g id="edge2" class="edge"><title>Node3&#45;&gt;Node2</title>
<path fill="none" stroke="midnightblue" d="M78.4854,-1003.18C78.8509,-947.569 81.4622,-884.829 89,-828 101.844,-731.164 134.77,-620.228 152.045,-566.142"/>
<polygon fill="none" stroke="midnightblue" points="74.9843,-1003.47 78.4427,-1013.48 81.9843,-1003.49 74.9843,-1003.47"/>
</g>
<!-- Node5 -->
<g id="node5" class="node"><title>Node5</title>
<g id="a_node5"><a xlink:href="../../d4/d8a/classo2_1_1Base_1_1DetImpl.html" target="_top" xlink:title="{o2::Base::DetImpl\&lt;\l Det \&gt;\n||+ updateHitTrackIndices()\l}">
<polygon fill="none" stroke="black" points="98,-862 98,-930 228,-930 228,-862 98,-862"/>
<text text-anchor="start" x="106" y="-918" font-family="Helvetica,sans-Serif" font-size="10.00">o2::Base::DetImpl&lt;</text>
<text text-anchor="middle" x="163" y="-907" font-family="Helvetica,sans-Serif" font-size="10.00"> Det &gt;</text>
<polyline fill="none" stroke="black" points="98,-900 228,-900 "/>
<text text-anchor="middle" x="163" y="-888" font-family="Helvetica,sans-Serif" font-size="10.00"> </text>
<polyline fill="none" stroke="black" points="98,-881 228,-881 "/>
<text text-anchor="start" x="106" y="-869" font-family="Helvetica,sans-Serif" font-size="10.00">+ updateHitTrackIndices()</text>
</a>
</g>
</g>
<!-- Node3&#45;&gt;Node5 -->
<g id="edge5" class="edge"><title>Node3&#45;&gt;Node5</title>
<path fill="none" stroke="midnightblue" d="M130.871,-1003.43C139.192,-975.864 147.039,-949.869 152.896,-930.47"/>
<polygon fill="none" stroke="midnightblue" points="127.45,-1002.65 127.911,-1013.23 134.152,-1004.67 127.45,-1002.65"/>
</g>
<!-- Node4 -->
<g id="node4" class="node"><title>Node4</title>
<g id="a_node4"><a xlink:href="../../d6/d0c/classFairDetector.html" target="_top" xlink:title="{FairDetector\n||}">
<polygon fill="none" stroke="black" points="47.5,-1471.5 47.5,-1528.5 118.5,-1528.5 118.5,-1471.5 47.5,-1471.5"/>
<text text-anchor="middle" x="83" y="-1516.5" font-family="Helvetica,sans-Serif" font-size="10.00">FairDetector</text>
<polyline fill="none" stroke="black" points="47.5,-1509.5 118.5,-1509.5 "/>
<text text-anchor="middle" x="83" y="-1497.5" font-family="Helvetica,sans-Serif" font-size="10.00"> </text>
<polyline fill="none" stroke="black" points="47.5,-1490.5 118.5,-1490.5 "/>
<text text-anchor="middle" x="83" y="-1478.5" font-family="Helvetica,sans-Serif" font-size="10.00"> </text>
</a>
</g>
</g>
<!-- Node4&#45;&gt;Node3 -->
<g id="edge3" class="edge"><title>Node4&#45;&gt;Node3</title>
<path fill="none" stroke="midnightblue" d="M83,-1461.15C83,-1424.74 83,-1367.29 83,-1312.58"/>
<polygon fill="none" stroke="midnightblue" points="79.5001,-1461.3 83,-1471.3 86.5001,-1461.3 79.5001,-1461.3"/>
</g>
<!-- Node5&#45;&gt;Node2 -->
<g id="edge4" class="edge"><title>Node5&#45;&gt;Node2</title>
<path fill="none" stroke="orange" d="M163,-851.663C163,-778.441 163,-631.811 163,-566.139"/>
<polygon fill="orange" stroke="orange" points="159.5,-851.915 163,-861.915 166.5,-851.915 159.5,-851.915"/>
<text text-anchor="middle" x="192.5" y="-774.5" font-family="Helvetica,sans-Serif" font-size="10.00"> &lt; Detector &gt;</text>
</g>
<!-- Node6 -->
<g id="node6" class="node"><title>Node6</title>
<polygon fill="none" stroke="#bfbfbf" points="424,-503.5 424,-560.5 480,-560.5 480,-503.5 424,-503.5"/>
<text text-anchor="middle" x="452" y="-548.5" font-family="Helvetica,sans-Serif" font-size="10.00">Double_t</text>
<polyline fill="none" stroke="#bfbfbf" points="424,-541.5 480,-541.5 "/>
<text text-anchor="middle" x="452" y="-529.5" font-family="Helvetica,sans-Serif" font-size="10.00"> </text>
<polyline fill="none" stroke="#bfbfbf" points="424,-522.5 480,-522.5 "/>
<text text-anchor="middle" x="452" y="-510.5" font-family="Helvetica,sans-Serif" font-size="10.00"> </text>
</g>
<!-- Node6&#45;&gt;Node1 -->
<g id="edge6" class="edge"><title>Node6&#45;&gt;Node1</title>
<path fill="none" stroke="#404040" d="M448.677,-503.18C444.364,-460.628 438.936,-377.045 453,-308 453.479,-305.646 453.994,-303.284 454.54,-300.916"/>
<polygon fill="none" stroke="#404040" points="454.6,-300.678 452.186,-293.883 457.53,-289.041 459.944,-295.836 454.6,-300.678"/>
<text text-anchor="middle" x="510.5" y="-311.5" font-family="Helvetica,sans-Serif" font-size="10.00"> #mDensitySupportOverSi</text>
</g>
<!-- Node7 -->
<g id="node7" class="node"><title>Node7</title>
<g id="a_node7"><a xlink:href="../../d3/d82/classo2_1_1MFT_1_1GeometryTGeo.html" target="_top" xlink:title="{o2::MFT::GeometryTGeo\n||+ GeometryTGeo()\l+ ~GeometryTGeo()\l+ GeometryTGeo()\l+ operator=()\l+ fillMatrixCache()\l+ Build()\l+ getSensorIndex()\l+ getLayer()\l+ Instance()\l+ adopt()\l+ getMFTVolPattern()\l+ getMFTHalfPattern()\l+ getMFTDiskPattern()\l+ getMFTLadderPattern()\l+ getMFTChipPattern()\l+ getMFTSensorPattern()\l# extractNumberOfHalves()\l# extractNumberOfDisks()\l# extractNumberOfLadders()\l# extractNumberOfLadders()\l# extractNumberOfSensorsPer\lLadder()\l# extractVolumeCopy()\l# extractMatrixSensor()\l# createT2LMatrix()\l# extractSensorXAlpha()\l# getSensorID()\l# getHalf()\l# getDisk()\l# getLadder()\l# getFirstSensorIndex()\l}">
<polygon fill="none" stroke="black" points="514.5,-338.5 514.5,-725.5 665.5,-725.5 665.5,-338.5 514.5,-338.5"/>
<text text-anchor="middle" x="590" y="-713.5" font-family="Helvetica,sans-Serif" font-size="10.00">o2::MFT::GeometryTGeo</text>
<polyline fill="none" stroke="black" points="514.5,-706.5 665.5,-706.5 "/>
<text text-anchor="middle" x="590" y="-694.5" font-family="Helvetica,sans-Serif" font-size="10.00"> </text>
<polyline fill="none" stroke="black" points="514.5,-687.5 665.5,-687.5 "/>
<text text-anchor="start" x="522.5" y="-675.5" font-family="Helvetica,sans-Serif" font-size="10.00">+ GeometryTGeo()</text>
<text text-anchor="start" x="522.5" y="-664.5" font-family="Helvetica,sans-Serif" font-size="10.00">+ ~GeometryTGeo()</text>
<text text-anchor="start" x="522.5" y="-653.5" font-family="Helvetica,sans-Serif" font-size="10.00">+ GeometryTGeo()</text>
<text text-anchor="start" x="522.5" y="-642.5" font-family="Helvetica,sans-Serif" font-size="10.00">+ operator=()</text>
<text text-anchor="start" x="522.5" y="-631.5" font-family="Helvetica,sans-Serif" font-size="10.00">+ fillMatrixCache()</text>
<text text-anchor="start" x="522.5" y="-620.5" font-family="Helvetica,sans-Serif" font-size="10.00">+ Build()</text>
<text text-anchor="start" x="522.5" y="-609.5" font-family="Helvetica,sans-Serif" font-size="10.00">+ getSensorIndex()</text>
<text text-anchor="start" x="522.5" y="-598.5" font-family="Helvetica,sans-Serif" font-size="10.00">+ getLayer()</text>
<text text-anchor="start" x="522.5" y="-587.5" font-family="Helvetica,sans-Serif" font-size="10.00">+ Instance()</text>
<text text-anchor="start" x="522.5" y="-576.5" font-family="Helvetica,sans-Serif" font-size="10.00">+ adopt()</text>
<text text-anchor="start" x="522.5" y="-565.5" font-family="Helvetica,sans-Serif" font-size="10.00">+ getMFTVolPattern()</text>
<text text-anchor="start" x="522.5" y="-554.5" font-family="Helvetica,sans-Serif" font-size="10.00">+ getMFTHalfPattern()</text>
<text text-anchor="start" x="522.5" y="-543.5" font-family="Helvetica,sans-Serif" font-size="10.00">+ getMFTDiskPattern()</text>
<text text-anchor="start" x="522.5" y="-532.5" font-family="Helvetica,sans-Serif" font-size="10.00">+ getMFTLadderPattern()</text>
<text text-anchor="start" x="522.5" y="-521.5" font-family="Helvetica,sans-Serif" font-size="10.00">+ getMFTChipPattern()</text>
<text text-anchor="start" x="522.5" y="-510.5" font-family="Helvetica,sans-Serif" font-size="10.00">+ getMFTSensorPattern()</text>
<text text-anchor="start" x="522.5" y="-499.5" font-family="Helvetica,sans-Serif" font-size="10.00"># extractNumberOfHalves()</text>
<text text-anchor="start" x="522.5" y="-488.5" font-family="Helvetica,sans-Serif" font-size="10.00"># extractNumberOfDisks()</text>
<text text-anchor="start" x="522.5" y="-477.5" font-family="Helvetica,sans-Serif" font-size="10.00"># extractNumberOfLadders()</text>
<text text-anchor="start" x="522.5" y="-466.5" font-family="Helvetica,sans-Serif" font-size="10.00"># extractNumberOfLadders()</text>
<text text-anchor="start" x="522.5" y="-455.5" font-family="Helvetica,sans-Serif" font-size="10.00"># extractNumberOfSensorsPer</text>
<text text-anchor="start" x="522.5" y="-444.5" font-family="Helvetica,sans-Serif" font-size="10.00">Ladder()</text>
<text text-anchor="start" x="522.5" y="-433.5" font-family="Helvetica,sans-Serif" font-size="10.00"># extractVolumeCopy()</text>
<text text-anchor="start" x="522.5" y="-422.5" font-family="Helvetica,sans-Serif" font-size="10.00"># extractMatrixSensor()</text>
<text text-anchor="start" x="522.5" y="-411.5" font-family="Helvetica,sans-Serif" font-size="10.00"># createT2LMatrix()</text>
<text text-anchor="start" x="522.5" y="-400.5" font-family="Helvetica,sans-Serif" font-size="10.00"># extractSensorXAlpha()</text>
<text text-anchor="start" x="522.5" y="-389.5" font-family="Helvetica,sans-Serif" font-size="10.00"># getSensorID()</text>
<text text-anchor="start" x="522.5" y="-378.5" font-family="Helvetica,sans-Serif" font-size="10.00"># getHalf()</text>
<text text-anchor="start" x="522.5" y="-367.5" font-family="Helvetica,sans-Serif" font-size="10.00"># getDisk()</text>
<text text-anchor="start" x="522.5" y="-356.5" font-family="Helvetica,sans-Serif" font-size="10.00"># getLadder()</text>
<text text-anchor="start" x="522.5" y="-345.5" font-family="Helvetica,sans-Serif" font-size="10.00"># getFirstSensorIndex()</text>
</a>
</g>
</g>
<!-- Node7&#45;&gt;Node1 -->
<g id="edge7" class="edge"><title>Node7&#45;&gt;Node1</title>
<path fill="none" stroke="#404040" d="M573.269,-338.485C571.666,-328.147 569.914,-317.932 568,-308 567.553,-305.682 567.088,-303.348 566.606,-301.004"/>
<polygon fill="none" stroke="#404040" points="566.59,-300.932 561.416,-295.909 564.062,-289.201 569.237,-294.224 566.59,-300.932"/>
<text text-anchor="middle" x="613.5" y="-311.5" font-family="Helvetica,sans-Serif" font-size="10.00"> +mGeometryTGeo</text>
</g>
<!-- Node8 -->
<g id="node8" class="node"><title>Node8</title>
<g id="a_node8"><a xlink:href="../../d7/d98/classo2_1_1ITSMFT_1_1GeometryTGeo.html" target="_top" xlink:title="{o2::ITSMFT::GeometryTGeo\n||+ GeometryTGeo()\l+ GeometryTGeo()\l+ operator=()\l+ GeometryTGeo()\l+ ~GeometryTGeo()\l+ getNumberOfChips()\l+ Build()\l# ClassDefOverride()\l}">
<polygon fill="none" stroke="black" points="246,-829 246,-963 388,-963 388,-829 246,-829"/>
<text text-anchor="middle" x="317" y="-951" font-family="Helvetica,sans-Serif" font-size="10.00">o2::ITSMFT::GeometryTGeo</text>
<polyline fill="none" stroke="black" points="246,-944 388,-944 "/>
<text text-anchor="middle" x="317" y="-932" font-family="Helvetica,sans-Serif" font-size="10.00"> </text>
<polyline fill="none" stroke="black" points="246,-925 388,-925 "/>
<text text-anchor="start" x="254" y="-913" font-family="Helvetica,sans-Serif" font-size="10.00">+ GeometryTGeo()</text>
<text text-anchor="start" x="254" y="-902" font-family="Helvetica,sans-Serif" font-size="10.00">+ GeometryTGeo()</text>
<text text-anchor="start" x="254" y="-891" font-family="Helvetica,sans-Serif" font-size="10.00">+ operator=()</text>
<text text-anchor="start" x="254" y="-880" font-family="Helvetica,sans-Serif" font-size="10.00">+ GeometryTGeo()</text>
<text text-anchor="start" x="254" y="-869" font-family="Helvetica,sans-Serif" font-size="10.00">+ ~GeometryTGeo()</text>
<text text-anchor="start" x="254" y="-858" font-family="Helvetica,sans-Serif" font-size="10.00">+ getNumberOfChips()</text>
<text text-anchor="start" x="254" y="-847" font-family="Helvetica,sans-Serif" font-size="10.00">+ Build()</text>
<text text-anchor="start" x="254" y="-836" font-family="Helvetica,sans-Serif" font-size="10.00"># ClassDefOverride()</text>
</a>
</g>
</g>
<!-- Node8&#45;&gt;Node7 -->
<g id="edge8" class="edge"><title>Node8&#45;&gt;Node7</title>
<path fill="none" stroke="midnightblue" d="M347.529,-819.824C362.266,-792.177 382.583,-763.012 409,-744 438.229,-722.965 459.427,-747.917 488,-726 497.623,-718.619 506.434,-710.068 514.485,-700.754"/>
<polygon fill="none" stroke="midnightblue" points="344.408,-818.239 342.94,-828.732 350.631,-821.445 344.408,-818.239"/>
</g>
<!-- Node9 -->
<g id="node9" class="node"><title>Node9</title>
<g id="a_node9"><a xlink:href="../../df/d06/classo2_1_1detectors_1_1DetMatrixCache.html" target="_top" xlink:title="{o2::detectors::DetMatrix\lCache\n||+ DetMatrixCache()\l+ DetMatrixCache()\l+ ~DetMatrixCache()\l+ DetMatrixCache()\l+ operator=()\l+ getDetID()\l+ getName()\l+ getCacheT2L()\l+ getCacheT2G()\l+ getCacheL2G()\l+ getCacheT2GRot()\l+ getMatrixT2L()\l+ getMatrixT2G()\l+ getMatrixL2G()\l+ getMatrixT2GRot()\l+ isBuilt()\l+ getSize()\l+ fillMatrixCache()\l+ setSize()\l+ getCacheT2L()\l+ getCacheT2G()\l+ getCacheL2G()\l+ getCacheT2GRot()\l+ ClassDef()\l}">
<polygon fill="none" stroke="black" points="256,-1002.5 256,-1323.5 378,-1323.5 378,-1002.5 256,-1002.5"/>
<text text-anchor="start" x="264" y="-1311.5" font-family="Helvetica,sans-Serif" font-size="10.00">o2::detectors::DetMatrix</text>
<text text-anchor="middle" x="317" y="-1300.5" font-family="Helvetica,sans-Serif" font-size="10.00">Cache</text>
<polyline fill="none" stroke="black" points="256,-1293.5 378,-1293.5 "/>
<text text-anchor="middle" x="317" y="-1281.5" font-family="Helvetica,sans-Serif" font-size="10.00"> </text>
<polyline fill="none" stroke="black" points="256,-1274.5 378,-1274.5 "/>
<text text-anchor="start" x="264" y="-1262.5" font-family="Helvetica,sans-Serif" font-size="10.00">+ DetMatrixCache()</text>
<text text-anchor="start" x="264" y="-1251.5" font-family="Helvetica,sans-Serif" font-size="10.00">+ DetMatrixCache()</text>
<text text-anchor="start" x="264" y="-1240.5" font-family="Helvetica,sans-Serif" font-size="10.00">+ ~DetMatrixCache()</text>
<text text-anchor="start" x="264" y="-1229.5" font-family="Helvetica,sans-Serif" font-size="10.00">+ DetMatrixCache()</text>
<text text-anchor="start" x="264" y="-1218.5" font-family="Helvetica,sans-Serif" font-size="10.00">+ operator=()</text>
<text text-anchor="start" x="264" y="-1207.5" font-family="Helvetica,sans-Serif" font-size="10.00">+ getDetID()</text>
<text text-anchor="start" x="264" y="-1196.5" font-family="Helvetica,sans-Serif" font-size="10.00">+ getName()</text>
<text text-anchor="start" x="264" y="-1185.5" font-family="Helvetica,sans-Serif" font-size="10.00">+ getCacheT2L()</text>
<text text-anchor="start" x="264" y="-1174.5" font-family="Helvetica,sans-Serif" font-size="10.00">+ getCacheT2G()</text>
<text text-anchor="start" x="264" y="-1163.5" font-family="Helvetica,sans-Serif" font-size="10.00">+ getCacheL2G()</text>
<text text-anchor="start" x="264" y="-1152.5" font-family="Helvetica,sans-Serif" font-size="10.00">+ getCacheT2GRot()</text>
<text text-anchor="start" x="264" y="-1141.5" font-family="Helvetica,sans-Serif" font-size="10.00">+ getMatrixT2L()</text>
<text text-anchor="start" x="264" y="-1130.5" font-family="Helvetica,sans-Serif" font-size="10.00">+ getMatrixT2G()</text>
<text text-anchor="start" x="264" y="-1119.5" font-family="Helvetica,sans-Serif" font-size="10.00">+ getMatrixL2G()</text>
<text text-anchor="start" x="264" y="-1108.5" font-family="Helvetica,sans-Serif" font-size="10.00">+ getMatrixT2GRot()</text>
<text text-anchor="start" x="264" y="-1097.5" font-family="Helvetica,sans-Serif" font-size="10.00">+ isBuilt()</text>
<text text-anchor="start" x="264" y="-1086.5" font-family="Helvetica,sans-Serif" font-size="10.00">+ getSize()</text>
<text text-anchor="start" x="264" y="-1075.5" font-family="Helvetica,sans-Serif" font-size="10.00">+ fillMatrixCache()</text>
<text text-anchor="start" x="264" y="-1064.5" font-family="Helvetica,sans-Serif" font-size="10.00">+ setSize()</text>
<text text-anchor="start" x="264" y="-1053.5" font-family="Helvetica,sans-Serif" font-size="10.00">+ getCacheT2L()</text>
<text text-anchor="start" x="264" y="-1042.5" font-family="Helvetica,sans-Serif" font-size="10.00">+ getCacheT2G()</text>
<text text-anchor="start" x="264" y="-1031.5" font-family="Helvetica,sans-Serif" font-size="10.00">+ getCacheL2G()</text>
<text text-anchor="start" x="264" y="-1020.5" font-family="Helvetica,sans-Serif" font-size="10.00">+ getCacheT2GRot()</text>
<text text-anchor="start" x="264" y="-1009.5" font-family="Helvetica,sans-Serif" font-size="10.00">+ ClassDef()</text>
</a>
</g>
</g>
<!-- Node9&#45;&gt;Node8 -->
<g id="edge9" class="edge"><title>Node9&#45;&gt;Node8</title>
<path fill="none" stroke="midnightblue" d="M317,-992.305C317,-982.209 317,-972.426 317,-963.218"/>
<polygon fill="none" stroke="midnightblue" points="313.5,-992.496 317,-1002.5 320.5,-992.496 313.5,-992.496"/>
</g>
<!-- Node10 -->
<g id="node10" class="node"><title>Node10</title>
<g id="a_node10"><a xlink:href="../../d6/dd5/classo2_1_1detectors_1_1DetID.html" target="_top" xlink:title="Static class with identifiers, bitmasks and names for ALICE detectors. ">
<polygon fill="none" stroke="black" points="150,-1394.5 150,-1605.5 256,-1605.5 256,-1394.5 150,-1394.5"/>
<text text-anchor="middle" x="203" y="-1593.5" font-family="Helvetica,sans-Serif" font-size="10.00">o2::detectors::DetID</text>
<polyline fill="none" stroke="black" points="150,-1586.5 256,-1586.5 "/>
<text text-anchor="start" x="158" y="-1574.5" font-family="Helvetica,sans-Serif" font-size="10.00">+ TOF</text>
<text text-anchor="start" x="158" y="-1563.5" font-family="Helvetica,sans-Serif" font-size="10.00">+ PHS</text>
<text text-anchor="start" x="158" y="-1552.5" font-family="Helvetica,sans-Serif" font-size="10.00">+ EMC</text>
<text text-anchor="start" x="158" y="-1541.5" font-family="Helvetica,sans-Serif" font-size="10.00">+ HMP</text>
<text text-anchor="start" x="158" y="-1530.5" font-family="Helvetica,sans-Serif" font-size="10.00">+ MFT</text>
<text text-anchor="start" x="158" y="-1519.5" font-family="Helvetica,sans-Serif" font-size="10.00">+ Last</text>
<polyline fill="none" stroke="black" points="150,-1512.5 256,-1512.5 "/>
<text text-anchor="start" x="158" y="-1500.5" font-family="Helvetica,sans-Serif" font-size="10.00">+ DetID()</text>
<text text-anchor="start" x="158" y="-1489.5" font-family="Helvetica,sans-Serif" font-size="10.00">+ DetID()</text>
<text text-anchor="start" x="158" y="-1478.5" font-family="Helvetica,sans-Serif" font-size="10.00">+ getID()</text>
<text text-anchor="start" x="158" y="-1467.5" font-family="Helvetica,sans-Serif" font-size="10.00">+ getMask()</text>
<text text-anchor="start" x="158" y="-1456.5" font-family="Helvetica,sans-Serif" font-size="10.00">+ getName()</text>
<text text-anchor="start" x="158" y="-1445.5" font-family="Helvetica,sans-Serif" font-size="10.00">+ operator int()</text>
<text text-anchor="start" x="158" y="-1434.5" font-family="Helvetica,sans-Serif" font-size="10.00">+ DetID()</text>
<text text-anchor="start" x="158" y="-1423.5" font-family="Helvetica,sans-Serif" font-size="10.00">+ getNDetectors()</text>
<text text-anchor="start" x="158" y="-1412.5" font-family="Helvetica,sans-Serif" font-size="10.00">+ getName()</text>
<text text-anchor="start" x="158" y="-1401.5" font-family="Helvetica,sans-Serif" font-size="10.00">+ getMask()</text>
</a>
</g>
</g>
<!-- Node10&#45;&gt;Node9 -->
<g id="edge10" class="edge"><title>Node10&#45;&gt;Node9</title>
<path fill="none" stroke="#404040" d="M220.027,-1394.22C223.93,-1376.6 228.567,-1358.64 234,-1342 238.94,-1326.87 244.837,-1311.34 251.179,-1296.06"/>
<polygon fill="none" stroke="#404040" points="251.189,-1296.04 249.845,-1288.96 255.868,-1284.99 257.212,-1292.08 251.189,-1296.04"/>
<text text-anchor="middle" x="256" y="-1356.5" font-family="Helvetica,sans-Serif" font-size="10.00"> +mDetID</text>
</g>
<!-- Node11 -->
<g id="node11" class="node"><title>Node11</title>
<polygon fill="none" stroke="#bfbfbf" points="115,-1808.5 115,-1865.5 215,-1865.5 215,-1808.5 115,-1808.5"/>
<text text-anchor="middle" x="165" y="-1853.5" font-family="Helvetica,sans-Serif" font-size="10.00">static constexpr ID</text>
<polyline fill="none" stroke="#bfbfbf" points="115,-1846.5 215,-1846.5 "/>
<text text-anchor="middle" x="165" y="-1834.5" font-family="Helvetica,sans-Serif" font-size="10.00"> </text>
<polyline fill="none" stroke="#bfbfbf" points="115,-1827.5 215,-1827.5 "/>
<text text-anchor="middle" x="165" y="-1815.5" font-family="Helvetica,sans-Serif" font-size="10.00"> </text>
</g>
<!-- Node11&#45;&gt;Node10 -->
<g id="edge11" class="edge"><title>Node11&#45;&gt;Node10</title>
<path fill="none" stroke="#404040" d="M162.621,-1808.36C159.687,-1767.71 156.201,-1689.52 166,-1624 166.326,-1621.82 166.682,-1619.63 167.065,-1617.42"/>
<polygon fill="none" stroke="#404040" points="167.082,-1617.33 164.292,-1610.68 169.357,-1605.55 172.147,-1612.2 167.082,-1617.33"/>
<text text-anchor="middle" x="181.5" y="-1737.5" font-family="Helvetica,sans-Serif" font-size="10.00"> +ACO</text>
<text text-anchor="middle" x="181.5" y="-1726.5" font-family="Helvetica,sans-Serif" font-size="10.00">+First</text>
<text text-anchor="middle" x="181.5" y="-1715.5" font-family="Helvetica,sans-Serif" font-size="10.00">+FIT</text>
<text text-anchor="middle" x="181.5" y="-1704.5" font-family="Helvetica,sans-Serif" font-size="10.00">+MCH</text>
<text text-anchor="middle" x="181.5" y="-1693.5" font-family="Helvetica,sans-Serif" font-size="10.00">+TRD</text>
<text text-anchor="middle" x="181.5" y="-1682.5" font-family="Helvetica,sans-Serif" font-size="10.00">+TPC</text>
<text text-anchor="middle" x="181.5" y="-1671.5" font-family="Helvetica,sans-Serif" font-size="10.00">+ZDC</text>
<text text-anchor="middle" x="181.5" y="-1660.5" font-family="Helvetica,sans-Serif" font-size="10.00">+MID</text>
<text text-anchor="middle" x="181.5" y="-1649.5" font-family="Helvetica,sans-Serif" font-size="10.00">+ITS</text>
<text text-anchor="middle" x="181.5" y="-1638.5" font-family="Helvetica,sans-Serif" font-size="10.00">+CPV</text>
<text text-anchor="middle" x="181.5" y="-1627.5" font-family="Helvetica,sans-Serif" font-size="10.00">...</text>
</g>
<!-- Node12 -->
<g id="node12" class="node"><title>Node12</title>
<polygon fill="none" stroke="#bfbfbf" points="255.5,-1808.5 255.5,-1865.5 284.5,-1865.5 284.5,-1808.5 255.5,-1808.5"/>
<text text-anchor="middle" x="270" y="-1853.5" font-family="Helvetica,sans-Serif" font-size="10.00">int</text>
<polyline fill="none" stroke="#bfbfbf" points="255.5,-1846.5 284.5,-1846.5 "/>
<text text-anchor="middle" x="270" y="-1834.5" font-family="Helvetica,sans-Serif" font-size="10.00"> </text>
<polyline fill="none" stroke="#bfbfbf" points="255.5,-1827.5 284.5,-1827.5 "/>
<text text-anchor="middle" x="270" y="-1815.5" font-family="Helvetica,sans-Serif" font-size="10.00"> </text>
</g>
<!-- Node12&#45;&gt;Node9 -->
<g id="edge15" class="edge"><title>Node12&#45;&gt;Node9</title>
<path fill="none" stroke="#404040" d="M272.618,-1808.44C274.268,-1790.63 276.384,-1766.96 278,-1746 290.052,-1589.69 290.449,-1550.42 301,-1394 302.272,-1375.15 303.618,-1355.43 304.969,-1335.8"/>
<polygon fill="none" stroke="#404040" points="304.985,-1335.58 301.407,-1329.32 305.81,-1323.6 309.388,-1329.87 304.985,-1335.58"/>
<text text-anchor="middle" x="319.5" y="-1497.5" font-family="Helvetica,sans-Serif" font-size="10.00"> +mSize</text>
</g>
<!-- Node12&#45;&gt;Node10 -->
<g id="edge12" class="edge"><title>Node12&#45;&gt;Node10</title>
<path fill="none" stroke="#404040" d="M255.301,-1815.71C243.477,-1798.19 227.62,-1771.71 220,-1746 207.895,-1705.17 202.649,-1658.9 200.751,-1617.65"/>
<polygon fill="none" stroke="#404040" points="200.749,-1617.58 196.519,-1611.74 200.284,-1605.59 204.513,-1611.43 200.749,-1617.58"/>
<text text-anchor="middle" x="249" y="-1682.5" font-family="Helvetica,sans-Serif" font-size="10.00"> +nDetectors</text>
</g>
<!-- Node13 -->
<g id="node13" class="node"><title>Node13</title>
<g id="a_node13"><a xlink:href="../../d4/daa/classo2_1_1detectors_1_1MatrixCache.html" target="_top" xlink:title="{o2::detectors::MatrixCache\l\&lt; o2::Transform3D \&gt;\n||+ MatrixCache()\l+ MatrixCache()\l+ ~MatrixCache()\l+ operator=()\l+ setSize()\l+ getSize()\l+ setMatrix()\l+ getMatrix()\l+ isFilled()\l}">
<polygon fill="none" stroke="black" points="347.5,-1422 347.5,-1578 482.5,-1578 482.5,-1422 347.5,-1422"/>
<text text-anchor="start" x="355.5" y="-1566" font-family="Helvetica,sans-Serif" font-size="10.00">o2::detectors::MatrixCache</text>
<text text-anchor="middle" x="415" y="-1555" font-family="Helvetica,sans-Serif" font-size="10.00">&lt; o2::Transform3D &gt;</text>
<polyline fill="none" stroke="black" points="347.5,-1548 482.5,-1548 "/>
<text text-anchor="middle" x="415" y="-1536" font-family="Helvetica,sans-Serif" font-size="10.00"> </text>
<polyline fill="none" stroke="black" points="347.5,-1529 482.5,-1529 "/>
<text text-anchor="start" x="355.5" y="-1517" font-family="Helvetica,sans-Serif" font-size="10.00">+ MatrixCache()</text>
<text text-anchor="start" x="355.5" y="-1506" font-family="Helvetica,sans-Serif" font-size="10.00">+ MatrixCache()</text>
<text text-anchor="start" x="355.5" y="-1495" font-family="Helvetica,sans-Serif" font-size="10.00">+ ~MatrixCache()</text>
<text text-anchor="start" x="355.5" y="-1484" font-family="Helvetica,sans-Serif" font-size="10.00">+ operator=()</text>
<text text-anchor="start" x="355.5" y="-1473" font-family="Helvetica,sans-Serif" font-size="10.00">+ setSize()</text>
<text text-anchor="start" x="355.5" y="-1462" font-family="Helvetica,sans-Serif" font-size="10.00">+ getSize()</text>
<text text-anchor="start" x="355.5" y="-1451" font-family="Helvetica,sans-Serif" font-size="10.00">+ setMatrix()</text>
<text text-anchor="start" x="355.5" y="-1440" font-family="Helvetica,sans-Serif" font-size="10.00">+ getMatrix()</text>
<text text-anchor="start" x="355.5" y="-1429" font-family="Helvetica,sans-Serif" font-size="10.00">+ isFilled()</text>
</a>
</g>
</g>
<!-- Node13&#45;&gt;Node9 -->
<g id="edge13" class="edge"><title>Node13&#45;&gt;Node9</title>
<path fill="none" stroke="#404040" d="M392.394,-1421.72C384.775,-1395.68 375.943,-1365.49 367.064,-1335.14"/>
<polygon fill="none" stroke="#404040" points="367.031,-1335.02 361.507,-1330.39 363.661,-1323.51 369.185,-1328.14 367.031,-1335.02"/>
<text text-anchor="middle" x="396.5" y="-1367.5" font-family="Helvetica,sans-Serif" font-size="10.00"> +mT2G</text>
<text text-anchor="middle" x="396.5" y="-1356.5" font-family="Helvetica,sans-Serif" font-size="10.00">+mT2L</text>
<text text-anchor="middle" x="396.5" y="-1345.5" font-family="Helvetica,sans-Serif" font-size="10.00">+mL2G</text>
</g>
<!-- Node14 -->
<g id="node14" class="node"><title>Node14</title>
<g id="a_node14"><a xlink:href="../../d4/daa/classo2_1_1detectors_1_1MatrixCache.html" target="_top" xlink:title="MatrixCache is a vector of cached transform matrices (per sensor) for specific Transformation type...">
<polygon fill="none" stroke="black" points="403.5,-1764.5 403.5,-1909.5 562.5,-1909.5 562.5,-1764.5 403.5,-1764.5"/>
<text text-anchor="middle" x="483" y="-1897.5" font-family="Helvetica,sans-Serif" font-size="10.00">o2::detectors::MatrixCache&lt; T &gt;</text>
<polyline fill="none" stroke="black" points="403.5,-1890.5 562.5,-1890.5 "/>
<text text-anchor="middle" x="483" y="-1878.5" font-family="Helvetica,sans-Serif" font-size="10.00"> </text>
<polyline fill="none" stroke="black" points="403.5,-1871.5 562.5,-1871.5 "/>
<text text-anchor="start" x="411.5" y="-1859.5" font-family="Helvetica,sans-Serif" font-size="10.00">+ MatrixCache()</text>
<text text-anchor="start" x="411.5" y="-1848.5" font-family="Helvetica,sans-Serif" font-size="10.00">+ ~MatrixCache()</text>
<text text-anchor="start" x="411.5" y="-1837.5" font-family="Helvetica,sans-Serif" font-size="10.00">+ MatrixCache()</text>
<text text-anchor="start" x="411.5" y="-1826.5" font-family="Helvetica,sans-Serif" font-size="10.00">+ operator=()</text>
<text text-anchor="start" x="411.5" y="-1815.5" font-family="Helvetica,sans-Serif" font-size="10.00">+ setSize()</text>
<text text-anchor="start" x="411.5" y="-1804.5" font-family="Helvetica,sans-Serif" font-size="10.00">+ getSize()</text>
<text text-anchor="start" x="411.5" y="-1793.5" font-family="Helvetica,sans-Serif" font-size="10.00">+ setMatrix()</text>
<text text-anchor="start" x="411.5" y="-1782.5" font-family="Helvetica,sans-Serif" font-size="10.00">+ getMatrix()</text>
<text text-anchor="start" x="411.5" y="-1771.5" font-family="Helvetica,sans-Serif" font-size="10.00">+ isFilled()</text>
</a>
</g>
</g>
<!-- Node14&#45;&gt;Node13 -->
<g id="edge14" class="edge"><title>Node14&#45;&gt;Node13</title>
<path fill="none" stroke="orange" d="M444.654,-1754.84C443.696,-1751.88 442.806,-1748.93 442,-1746 426.867,-1691.02 420.173,-1626.9 417.232,-1578.05"/>
<polygon fill="orange" stroke="orange" points="441.349,-1755.99 447.931,-1764.29 447.964,-1753.7 441.349,-1755.99"/>
<text text-anchor="middle" x="489.5" y="-1682.5" font-family="Helvetica,sans-Serif" font-size="10.00"> &lt; o2::Transform3D &gt;</text>
</g>
<!-- Node15 -->
<g id="node15" class="node"><title>Node15</title>
<g id="a_node15"><a xlink:href="../../d4/daa/classo2_1_1detectors_1_1MatrixCache.html" target="_top" xlink:title="{o2::detectors::MatrixCache\l\&lt; o2::Rotation2D \&gt;\n||+ MatrixCache()\l+ MatrixCache()\l+ ~MatrixCache()\l+ operator=()\l+ setSize()\l+ getSize()\l+ setMatrix()\l+ getMatrix()\l+ isFilled()\l}">
<polygon fill="none" stroke="black" points="500.5,-1422 500.5,-1578 635.5,-1578 635.5,-1422 500.5,-1422"/>
<text text-anchor="start" x="508.5" y="-1566" font-family="Helvetica,sans-Serif" font-size="10.00">o2::detectors::MatrixCache</text>
<text text-anchor="middle" x="568" y="-1555" font-family="Helvetica,sans-Serif" font-size="10.00">&lt; o2::Rotation2D &gt;</text>
<polyline fill="none" stroke="black" points="500.5,-1548 635.5,-1548 "/>
<text text-anchor="middle" x="568" y="-1536" font-family="Helvetica,sans-Serif" font-size="10.00"> </text>
<polyline fill="none" stroke="black" points="500.5,-1529 635.5,-1529 "/>
<text text-anchor="start" x="508.5" y="-1517" font-family="Helvetica,sans-Serif" font-size="10.00">+ MatrixCache()</text>
<text text-anchor="start" x="508.5" y="-1506" font-family="Helvetica,sans-Serif" font-size="10.00">+ MatrixCache()</text>
<text text-anchor="start" x="508.5" y="-1495" font-family="Helvetica,sans-Serif" font-size="10.00">+ ~MatrixCache()</text>
<text text-anchor="start" x="508.5" y="-1484" font-family="Helvetica,sans-Serif" font-size="10.00">+ operator=()</text>
<text text-anchor="start" x="508.5" y="-1473" font-family="Helvetica,sans-Serif" font-size="10.00">+ setSize()</text>
<text text-anchor="start" x="508.5" y="-1462" font-family="Helvetica,sans-Serif" font-size="10.00">+ getSize()</text>
<text text-anchor="start" x="508.5" y="-1451" font-family="Helvetica,sans-Serif" font-size="10.00">+ setMatrix()</text>
<text text-anchor="start" x="508.5" y="-1440" font-family="Helvetica,sans-Serif" font-size="10.00">+ getMatrix()</text>
<text text-anchor="start" x="508.5" y="-1429" font-family="Helvetica,sans-Serif" font-size="10.00">+ isFilled()</text>
</a>
</g>
</g>
<!-- Node14&#45;&gt;Node15 -->
<g id="edge17" class="edge"><title>Node14&#45;&gt;Node15</title>
<path fill="none" stroke="orange" d="M533.627,-1754.89C534.845,-1751.93 535.975,-1748.96 537,-1746 555.752,-1691.81 563.372,-1627.37 566.373,-1578.18"/>
<polygon fill="orange" stroke="orange" points="530.303,-1753.76 529.465,-1764.32 536.707,-1756.58 530.303,-1753.76"/>
<text text-anchor="middle" x="607" y="-1682.5" font-family="Helvetica,sans-Serif" font-size="10.00"> &lt; o2::Rotation2D &gt;</text>
</g>
<!-- Node15&#45;&gt;Node9 -->
<g id="edge16" class="edge"><title>Node15&#45;&gt;Node9</title>
<path fill="none" stroke="#404040" d="M511.571,-1421.78C504.662,-1412.4 497.684,-1402.97 491,-1394 456.453,-1347.62 417.66,-1296.27 385.484,-1253.88"/>
<polygon fill="none" stroke="#404040" points="385.348,-1253.7 378.534,-1251.34 378.091,-1244.14 384.905,-1246.5 385.348,-1253.7"/>
<text text-anchor="middle" x="504" y="-1356.5" font-family="Helvetica,sans-Serif" font-size="10.00"> +mT2GRot</text>
</g>
<!-- Node16 -->
<g id="node16" class="node"><title>Node16</title>
<polygon fill="none" stroke="#bfbfbf" points="406.5,-867.5 406.5,-924.5 447.5,-924.5 447.5,-867.5 406.5,-867.5"/>
<text text-anchor="middle" x="427" y="-912.5" font-family="Helvetica,sans-Serif" font-size="10.00">string</text>
<polyline fill="none" stroke="#bfbfbf" points="406.5,-905.5 447.5,-905.5 "/>
<text text-anchor="middle" x="427" y="-893.5" font-family="Helvetica,sans-Serif" font-size="10.00"> </text>
<polyline fill="none" stroke="#bfbfbf" points="406.5,-886.5 447.5,-886.5 "/>
<text text-anchor="middle" x="427" y="-874.5" font-family="Helvetica,sans-Serif" font-size="10.00"> </text>
</g>
<!-- Node16&#45;&gt;Node7 -->
<g id="edge18" class="edge"><title>Node16&#45;&gt;Node7</title>
<path fill="none" stroke="#404040" d="M419.22,-867.377C411.749,-834.502 405.141,-779.593 432,-744 447.747,-723.132 467.968,-742.798 488,-726 494.439,-720.601 500.527,-714.689 506.278,-708.394"/>
<polygon fill="none" stroke="#404040" points="506.622,-707.996 507.514,-700.841 514.463,-698.913 513.57,-706.068 506.622,-707.996"/>
<text text-anchor="middle" x="468.5" y="-802" font-family="Helvetica,sans-Serif" font-size="10.00"> #sVolumeName</text>
<text text-anchor="middle" x="468.5" y="-791" font-family="Helvetica,sans-Serif" font-size="10.00">#sChipName</text>
<text text-anchor="middle" x="468.5" y="-780" font-family="Helvetica,sans-Serif" font-size="10.00">#sDiskName</text>
<text text-anchor="middle" x="468.5" y="-769" font-family="Helvetica,sans-Serif" font-size="10.00">#sLadderName</text>
<text text-anchor="middle" x="468.5" y="-758" font-family="Helvetica,sans-Serif" font-size="10.00">#sHalfName</text>
<text text-anchor="middle" x="468.5" y="-747" font-family="Helvetica,sans-Serif" font-size="10.00">#sSensorName</text>
</g>
<!-- Node17 -->
<g id="node17" class="node"><title>Node17</title>
<polygon fill="none" stroke="#bfbfbf" points="473.5,-867.5 473.5,-924.5 554.5,-924.5 554.5,-867.5 473.5,-867.5"/>
<text text-anchor="middle" x="514" y="-912.5" font-family="Helvetica,sans-Serif" font-size="10.00">vector&lt; Int_t &gt;</text>
<polyline fill="none" stroke="#bfbfbf" points="473.5,-905.5 554.5,-905.5 "/>
<text text-anchor="middle" x="514" y="-893.5" font-family="Helvetica,sans-Serif" font-size="10.00"> </text>
<polyline fill="none" stroke="#bfbfbf" points="473.5,-886.5 554.5,-886.5 "/>
<text text-anchor="middle" x="514" y="-874.5" font-family="Helvetica,sans-Serif" font-size="10.00"> </text>
</g>
<!-- Node17&#45;&gt;Node7 -->
<g id="edge19" class="edge"><title>Node17&#45;&gt;Node7</title>
<path fill="none" stroke="#404040" d="M512.781,-867.444C512.107,-850.812 511.339,-829.193 511,-810 510.483,-780.671 505.774,-772.864 511,-744 511.394,-741.821 511.81,-739.636 512.246,-737.445"/>
<polygon fill="none" stroke="#404040" points="512.251,-737.42 509.594,-730.716 514.76,-725.685 517.417,-732.389 512.251,-737.42"/>
<text text-anchor="middle" x="576" y="-796.5" font-family="Helvetica,sans-Serif" font-size="10.00"> #mSensorIndexToLayer</text>
<text text-anchor="middle" x="576" y="-785.5" font-family="Helvetica,sans-Serif" font-size="10.00">#mNumberOfSensorsPerDisk</text>
<text text-anchor="middle" x="576" y="-774.5" font-family="Helvetica,sans-Serif" font-size="10.00">#mNumberOfLaddersPerDisk</text>
<text text-anchor="middle" x="576" y="-763.5" font-family="Helvetica,sans-Serif" font-size="10.00">#mLastSensorIndex</text>
<text text-anchor="middle" x="576" y="-752.5" font-family="Helvetica,sans-Serif" font-size="10.00">#mNumberOfDisks</text>
</g>
<!-- Node18 -->
<g id="node18" class="node"><title>Node18</title>
<polygon fill="none" stroke="#bfbfbf" points="615,-867.5 615,-924.5 707,-924.5 707,-867.5 615,-867.5"/>
<text text-anchor="middle" x="661" y="-912.5" font-family="Helvetica,sans-Serif" font-size="10.00">vector&lt; Float_t &gt;</text>
<polyline fill="none" stroke="#bfbfbf" points="615,-905.5 707,-905.5 "/>
<text text-anchor="middle" x="661" y="-893.5" font-family="Helvetica,sans-Serif" font-size="10.00"> </text>
<polyline fill="none" stroke="#bfbfbf" points="615,-886.5 707,-886.5 "/>
<text text-anchor="middle" x="661" y="-874.5" font-family="Helvetica,sans-Serif" font-size="10.00"> </text>
</g>
<!-- Node18&#45;&gt;Node7 -->
<g id="edge20" class="edge"><title>Node18&#45;&gt;Node7</title>
<path fill="none" stroke="#404040" d="M659.309,-867.269C657.165,-836.846 652.776,-786.663 645,-744 644.604,-741.825 644.197,-739.64 643.78,-737.445"/>
<polygon fill="none" stroke="#404040" points="643.773,-737.409 638.692,-732.292 641.461,-725.633 646.542,-730.75 643.773,-737.409"/>
<text text-anchor="middle" x="694.5" y="-774.5" font-family="Helvetica,sans-Serif" font-size="10.00"> #mLayerMedianZ</text>
</g>
<!-- Node19 -->
<g id="node19" class="node"><title>Node19</title>
<polygon fill="none" stroke="#bfbfbf" points="725.5,-862 725.5,-930 824.5,-930 824.5,-862 725.5,-862"/>
<text text-anchor="start" x="733.5" y="-918" font-family="Helvetica,sans-Serif" font-size="10.00">vector&lt; std::vector</text>
<text text-anchor="middle" x="775" y="-907" font-family="Helvetica,sans-Serif" font-size="10.00">&lt; Int_t &gt; &gt;</text>
<polyline fill="none" stroke="#bfbfbf" points="725.5,-900 824.5,-900 "/>
<text text-anchor="middle" x="775" y="-888" font-family="Helvetica,sans-Serif" font-size="10.00"> </text>
<polyline fill="none" stroke="#bfbfbf" points="725.5,-881 824.5,-881 "/>
<text text-anchor="middle" x="775" y="-869" font-family="Helvetica,sans-Serif" font-size="10.00"> </text>
</g>
<!-- Node19&#45;&gt;Node7 -->
<g id="edge21" class="edge"><title>Node19&#45;&gt;Node7</title>
<path fill="none" stroke="#404040" d="M770.487,-861.732C765.396,-830.333 755.455,-782.466 738,-744 720.793,-706.08 696.538,-667.846 672.633,-634.537"/>
<polygon fill="none" stroke="#404040" points="672.627,-634.529 665.863,-632.027 665.571,-624.822 672.334,-627.324 672.627,-634.529"/>
<text text-anchor="middle" x="808.5" y="-785.5" font-family="Helvetica,sans-Serif" font-size="10.00"> #mNumberOfLadders</text>
<text text-anchor="middle" x="808.5" y="-774.5" font-family="Helvetica,sans-Serif" font-size="10.00">#mLadderId2Index</text>
<text text-anchor="middle" x="808.5" y="-763.5" font-family="Helvetica,sans-Serif" font-size="10.00">#mLadderIndex2Id</text>
</g>
<!-- Node20 -->
<g id="node20" class="node"><title>Node20</title>
<polygon fill="none" stroke="#bfbfbf" points="937,-867.5 937,-924.5 973,-924.5 973,-867.5 937,-867.5"/>
<text text-anchor="middle" x="955" y="-912.5" font-family="Helvetica,sans-Serif" font-size="10.00">Int_t</text>
<polyline fill="none" stroke="#bfbfbf" points="937,-905.5 973,-905.5 "/>
<text text-anchor="middle" x="955" y="-893.5" font-family="Helvetica,sans-Serif" font-size="10.00"> </text>
<polyline fill="none" stroke="#bfbfbf" points="937,-886.5 973,-886.5 "/>
<text text-anchor="middle" x="955" y="-874.5" font-family="Helvetica,sans-Serif" font-size="10.00"> </text>
</g>
<!-- Node20&#45;&gt;Node1 -->
<g id="edge23" class="edge"><title>Node20&#45;&gt;Node1</title>
<path fill="none" stroke="#404040" d="M973.05,-873.166C985.285,-856.88 1000.39,-833.479 1007,-810 1014.95,-781.765 1016.67,-771.692 1007,-744 927.309,-515.898 718.163,-312.004 601.889,-211.695"/>
<polygon fill="none" stroke="#404040" points="601.762,-211.585 594.603,-210.717 592.652,-203.774 599.81,-204.643 601.762,-211.585"/>
<text text-anchor="middle" x="1025" y="-529.5" font-family="Helvetica,sans-Serif" font-size="10.00"> #mVersion</text>
</g>
<!-- Node20&#45;&gt;Node7 -->
<g id="edge22" class="edge"><title>Node20&#45;&gt;Node7</title>
<path fill="none" stroke="#404040" d="M936.949,-874.342C922.994,-857.717 903.791,-833.355 890,-810 873.708,-782.411 880.685,-769.28 861,-744 810.024,-678.537 734.4,-621.901 675.983,-583.836"/>
<polygon fill="none" stroke="#404040" points="675.743,-583.682 668.533,-583.795 665.656,-577.183 672.866,-577.07 675.743,-583.682"/>
<text text-anchor="middle" x="948.5" y="-791" font-family="Helvetica,sans-Serif" font-size="10.00"> #mNumberOfHalves</text>
<text text-anchor="middle" x="948.5" y="-780" font-family="Helvetica,sans-Serif" font-size="10.00">#MinSensorsPerLadder</text>
<text text-anchor="middle" x="948.5" y="-769" font-family="Helvetica,sans-Serif" font-size="10.00">#MaxSensorsPerLadder</text>
<text text-anchor="middle" x="948.5" y="-758" font-family="Helvetica,sans-Serif" font-size="10.00">#mTotalNumberOfSensors</text>
</g>
</g>
</svg>
