<?xml version="1.0" encoding="UTF-8" standalone="no"?>
<!DOCTYPE svg PUBLIC "-//W3C//DTD SVG 1.1//EN"
 "http://www.w3.org/Graphics/SVG/1.1/DTD/svg11.dtd">
<!-- Generated by graphviz version 2.36.0 (20140111.2315)
 -->
<!-- Title: o2::header::Descriptor&lt; N, PrinterPolicy &gt; Pages: 1 -->
<svg width="212pt" height="328pt"
 viewBox="0.00 0.00 212.00 328.00" xmlns="http://www.w3.org/2000/svg" xmlns:xlink="http://www.w3.org/1999/xlink">
<g id="graph0" class="graph" transform="scale(1 1) rotate(0) translate(4 324)">
<title>o2::header::Descriptor&lt; N, PrinterPolicy &gt;</title>
<!-- Node1 -->
<g id="node1" class="node"><title>Node1</title>
<polygon fill="#bfbfbf" stroke="black" points="39.5,-0.5 39.5,-189.5 152.5,-189.5 152.5,-0.5 39.5,-0.5"/>
<text text-anchor="start" x="47.5" y="-177.5" font-family="Helvetica,sans-Serif" font-size="10.00">o2::header::Descriptor</text>
<text text-anchor="middle" x="96" y="-166.5" font-family="Helvetica,sans-Serif" font-size="10.00">&lt; N, PrinterPolicy &gt;</text>
<polyline fill="none" stroke="black" points="39.5,-159.5 152.5,-159.5 "/>
<text text-anchor="middle" x="96" y="-147.5" font-family="Helvetica,sans-Serif" font-size="10.00"> </text>
<polyline fill="none" stroke="black" points="39.5,-140.5 152.5,-140.5 "/>
<text text-anchor="start" x="47.5" y="-128.5" font-family="Helvetica,sans-Serif" font-size="10.00">+ Descriptor()</text>
<text text-anchor="start" x="47.5" y="-117.5" font-family="Helvetica,sans-Serif" font-size="10.00">+ Descriptor()</text>
<text text-anchor="start" x="47.5" y="-106.5" font-family="Helvetica,sans-Serif" font-size="10.00">+ Descriptor()</text>
<text text-anchor="start" x="47.5" y="-95.5" font-family="Helvetica,sans-Serif" font-size="10.00">+ operator=()</text>
<text text-anchor="start" x="47.5" y="-84.5" font-family="Helvetica,sans-Serif" font-size="10.00">+ operator ItgType()</text>
<text text-anchor="start" x="47.5" y="-73.5" font-family="Helvetica,sans-Serif" font-size="10.00">+ Descriptor()</text>
<text text-anchor="start" x="47.5" y="-62.5" font-family="Helvetica,sans-Serif" font-size="10.00">+ runtimeInit()</text>
<text text-anchor="start" x="47.5" y="-51.5" font-family="Helvetica,sans-Serif" font-size="10.00">+ operator==()</text>
<text text-anchor="start" x="47.5" y="-40.5" font-family="Helvetica,sans-Serif" font-size="10.00">+ operator!=()</text>
<text text-anchor="start" x="47.5" y="-29.5" font-family="Helvetica,sans-Serif" font-size="10.00">+ operator==()</text>
<text text-anchor="start" x="47.5" y="-18.5" font-family="Helvetica,sans-Serif" font-size="10.00">+ operator!=()</text>
<text text-anchor="start" x="47.5" y="-7.5" font-family="Helvetica,sans-Serif" font-size="10.00">+ print()</text>
</g>
<!-- Node2 -->
<g id="node2" class="node"><title>Node2</title>
<polygon fill="none" stroke="#bfbfbf" points="0,-261.5 0,-318.5 38,-318.5 38,-261.5 0,-261.5"/>
<text text-anchor="middle" x="19" y="-306.5" font-family="Helvetica,sans-Serif" font-size="10.00">Type</text>
<polyline fill="none" stroke="#bfbfbf" points="0,-299.5 38,-299.5 "/>
<text text-anchor="middle" x="19" y="-287.5" font-family="Helvetica,sans-Serif" font-size="10.00"> </text>
<polyline fill="none" stroke="#bfbfbf" points="0,-280.5 38,-280.5 "/>
<text text-anchor="middle" x="19" y="-268.5" font-family="Helvetica,sans-Serif" font-size="10.00"> </text>
</g>
<!-- Node2&#45;&gt;Node1 -->
<g id="edge1" class="edge"><title>Node2&#45;&gt;Node1</title>
<path fill="none" stroke="#404040" d="M28.3859,-261.475C33.8721,-245.729 41.0635,-225.656 48,-208 48.9216,-205.654 49.8614,-203.284 50.8157,-200.897"/>
<polygon fill="none" stroke="#404040" points="50.8733,-200.755 49.4154,-193.692 55.3737,-189.63 56.8315,-196.693 50.8733,-200.755"/>
<text text-anchor="middle" x="58" y="-222.5" font-family="Helvetica,sans-Serif" font-size="10.00"> +itg</text>
</g>
<!-- Node3 -->
<g id="node3" class="node"><title>Node3</title>
<polygon fill="none" stroke="#bfbfbf" points="56.5,-261 56.5,-319 85.5,-319 85.5,-261 56.5,-261"/>
<polyline fill="none" stroke="#bfbfbf" points="56.5,-299 85.5,-299 "/>
<text text-anchor="middle" x="71" y="-287" font-family="Helvetica,sans-Serif" font-size="10.00"> </text>
<polyline fill="none" stroke="#bfbfbf" points="56.5,-280 85.5,-280 "/>
<text text-anchor="middle" x="71" y="-268" font-family="Helvetica,sans-Serif" font-size="10.00"> </text>
</g>
<!-- Node3&#45;&gt;Node1 -->
<g id="edge2" class="edge"><title>Node3&#45;&gt;Node1</title>
<path fill="none" stroke="#404040" d="M70.9604,-260.803C71.2103,-245.194 71.973,-225.473 74,-208 74.2394,-205.936 74.4961,-203.854 74.7683,-201.757"/>
<polygon fill="none" stroke="#404040" points="74.8023,-201.516 71.6824,-195.015 76.4836,-189.635 79.6035,-196.136 74.8023,-201.516"/>
<text text-anchor="middle" x="86.5" y="-222.5" font-family="Helvetica,sans-Serif" font-size="10.00"> +@9</text>
</g>
<!-- Node4 -->
<g id="node4" class="node"><title>Node4</title>
<polygon fill="none" stroke="#bfbfbf" points="103.5,-261.5 103.5,-318.5 138.5,-318.5 138.5,-261.5 103.5,-261.5"/>
<text text-anchor="middle" x="121" y="-306.5" font-family="Helvetica,sans-Serif" font-size="10.00">char</text>
<polyline fill="none" stroke="#bfbfbf" points="103.5,-299.5 138.5,-299.5 "/>
<text text-anchor="middle" x="121" y="-287.5" font-family="Helvetica,sans-Serif" font-size="10.00"> </text>
<polyline fill="none" stroke="#bfbfbf" points="103.5,-280.5 138.5,-280.5 "/>
<text text-anchor="middle" x="121" y="-268.5" font-family="Helvetica,sans-Serif" font-size="10.00"> </text>
</g>
<!-- Node4&#45;&gt;Node1 -->
<g id="edge3" class="edge"><title>Node4&#45;&gt;Node1</title>
<path fill="none" stroke="#404040" d="M117.418,-261.348C115.335,-245.268 112.563,-223.866 109.706,-201.809"/>
<polygon fill="none" stroke="#404040" points="109.702,-201.781 104.965,-196.345 108.161,-189.881 112.898,-195.317 109.702,-201.781"/>
<text text-anchor="middle" x="125.5" y="-222.5" font-family="Helvetica,sans-Serif" font-size="10.00"> +str</text>
</g>
<!-- Node5 -->
<g id="node5" class="node"><title>Node5</title>
<polygon fill="none" stroke="#bfbfbf" points="156.5,-261.5 156.5,-318.5 185.5,-318.5 185.5,-261.5 156.5,-261.5"/>
<text text-anchor="middle" x="171" y="-306.5" font-family="Helvetica,sans-Serif" font-size="10.00">int</text>
<polyline fill="none" stroke="#bfbfbf" points="156.5,-299.5 185.5,-299.5 "/>
<text text-anchor="middle" x="171" y="-287.5" font-family="Helvetica,sans-Serif" font-size="10.00"> </text>
<polyline fill="none" stroke="#bfbfbf" points="156.5,-280.5 185.5,-280.5 "/>
<text text-anchor="middle" x="171" y="-268.5" font-family="Helvetica,sans-Serif" font-size="10.00"> </text>
</g>
<!-- Node5&#45;&gt;Node1 -->
<g id="edge4" class="edge"><title>Node5&#45;&gt;Node1</title>
<path fill="none" stroke="#404040" d="M160.443,-261.235C154.476,-245.587 146.859,-225.689 140,-208 139.1,-205.679 138.189,-203.332 137.269,-200.966"/>
<polygon fill="none" stroke="#404040" points="137.268,-200.963 131.363,-196.824 132.913,-189.781 138.817,-193.92 137.268,-200.963"/>
<text text-anchor="middle" x="178.5" y="-233.5" font-family="Helvetica,sans-Serif" font-size="10.00"> +arraySize</text>
<text text-anchor="middle" x="178.5" y="-222.5" font-family="Helvetica,sans-Serif" font-size="10.00">+size</text>
<text text-anchor="middle" x="178.5" y="-211.5" font-family="Helvetica,sans-Serif" font-size="10.00">+bitcount</text>
</g>
</g>
</svg>
