<?xml version="1.0" encoding="UTF-8" standalone="no"?>
<!DOCTYPE svg PUBLIC "-//W3C//DTD SVG 1.1//EN"
 "http://www.w3.org/Graphics/SVG/1.1/DTD/svg11.dtd">
<!-- Generated by graphviz version 2.36.0 (20140111.2315)
 -->
<!-- Title: /home/travis/build/AliceO2Group/AliceO2/Utilities/DataFlow/src/FakeTimeframeGeneratorDevice.cxx Pages: 1 -->
<!--zoomable 298 -->
<svg id="main" version="1.1" xmlns="http://www.w3.org/2000/svg" xmlns:xlink="http://www.w3.org/1999/xlink" xml:space="preserve" onload="init(evt)">
<style type="text/css"><![CDATA[
.edge:hover path { stroke: red; }
.edge:hover polygon { stroke: red; fill: red; }
]]></style>
<script type="text/javascript"><![CDATA[
var edges = document.getElementsByTagName('g');
if (edges && edges.length) {
  for (var i=0;i<edges.length;i++) {
    if (edges[i].id.substr(0,4)=='edge') {
      edges[i].setAttribute('class','edge');
    }
  }
}
]]></script>
        <defs>
                <circle id="rim" cx="0" cy="0" r="7"/>
                <circle id="rim2" cx="0" cy="0" r="3.5"/>
                <g id="zoomPlus">
                        <use xlink:href="#rim" fill="#404040">
                                <set attributeName="fill" to="#808080" begin="zoomplus.mouseover" end="zoomplus.mouseout"/>
                        </use>
                        <path d="M-4,0h8M0,-4v8" fill="none" stroke="white" stroke-width="1.5" pointer-events="none"/>
                </g>
                <g id="zoomMin">
                        <use xlink:href="#rim" fill="#404040">
                                <set attributeName="fill" to="#808080" begin="zoomminus.mouseover" end="zoomminus.mouseout"/>
                        </use>
                        <path d="M-4,0h8" fill="none" stroke="white" stroke-width="1.5" pointer-events="none"/>
                </g>
                <g id="dirArrow">
                        <path fill="none" stroke="white" stroke-width="1.5" d="M0,-3.0v7 M-2.5,-0.5L0,-3.0L2.5,-0.5"/>
                </g>
               <g id="resetDef">
                       <use xlink:href="#rim2" fill="#404040">
                               <set attributeName="fill" to="#808080" begin="reset.mouseover" end="reset.mouseout"/>
                       </use>
               </g>
        </defs>

<script type="text/javascript">
var viewWidth = 1048;
var viewHeight = 298;
var sectionId = 'dynsection-0';
</script>
<script xlink:href="../../svgpan.js"/>
<svg id="graph" class="graph">
<g id="viewport">
<title>/home/travis/build/AliceO2Group/AliceO2/Utilities/DataFlow/src/FakeTimeframeGeneratorDevice.cxx</title>
<!-- Node1 -->
<g id="node1" class="node"><title>Node1</title>
<polygon fill="#bfbfbf" stroke="black" points="443.599,-237 443.599,-289 623.599,-289 623.599,-237 443.599,-237"/>
<text text-anchor="start" x="451.599" y="-277" font-family="Helvetica,sans-Serif" font-size="10.00">/home/travis/build</text>
<text text-anchor="start" x="451.599" y="-266" font-family="Helvetica,sans-Serif" font-size="10.00">/AliceO2Group/AliceO2</text>
<text text-anchor="start" x="451.599" y="-255" font-family="Helvetica,sans-Serif" font-size="10.00">/Utilities/DataFlow/src</text>
<text text-anchor="middle" x="533.599" y="-244" font-family="Helvetica,sans-Serif" font-size="10.00">/FakeTimeframeGeneratorDevice.cxx</text>
</g>
<!-- Node2 -->
<g id="node2" class="node"><title>Node2</title>
<polygon fill="none" stroke="#bfbfbf" points="172.599,-0.5 172.599,-19.5 218.599,-19.5 218.599,-0.5 172.599,-0.5"/>
<text text-anchor="middle" x="195.599" y="-7.5" font-family="Helvetica,sans-Serif" font-size="10.00">cstring</text>
</g>
<!-- Node1&#45;&gt;Node2 -->
<g id="edge1" class="edge"><title>Node1&#45;&gt;Node2</title>
<path fill="none" stroke="midnightblue" d="M443.57,-253.497C377.199,-245.163 285.624,-229.279 209.599,-200 110.586,-161.867 57.6102,-168.48 5.59926,-76 -27.5995,-16.9697 98.9942,-10.0989 161.985,-10.2182"/>
<polygon fill="midnightblue" stroke="midnightblue" points="162.208,-13.72 172.236,-10.3003 162.264,-6.7202 162.208,-13.72"/>
</g>
<!-- Node3 -->
<g id="node3" class="node"><title>Node3</title>
<g id="a_node3"><a xlink:href="../../d4/d98/FakeTimeframeGeneratorDevice_8h.html" target="_top" xlink:title="DataFlow/FakeTimeframeGenerator\lDevice.h">
<polygon fill="none" stroke="black" points="275.099,-169 275.099,-199 448.099,-199 448.099,-169 275.099,-169"/>
<text text-anchor="start" x="283.099" y="-187" font-family="Helvetica,sans-Serif" font-size="10.00">DataFlow/FakeTimeframeGenerator</text>
<text text-anchor="middle" x="361.599" y="-176" font-family="Helvetica,sans-Serif" font-size="10.00">Device.h</text>
</a>
</g>
</g>
<!-- Node1&#45;&gt;Node3 -->
<g id="edge2" class="edge"><title>Node1&#45;&gt;Node3</title>
<path fill="none" stroke="midnightblue" d="M477.28,-236.787C452.762,-225.811 424.576,-213.193 402.164,-203.16"/>
<polygon fill="midnightblue" stroke="midnightblue" points="403.498,-199.922 392.94,-199.031 400.638,-206.311 403.498,-199.922"/>
</g>
<!-- Node6 -->
<g id="node6" class="node"><title>Node6</title>
<polygon fill="none" stroke="#bfbfbf" points="14.5993,-56.5 14.5993,-75.5 160.599,-75.5 160.599,-56.5 14.5993,-56.5"/>
<text text-anchor="middle" x="87.5993" y="-63.5" font-family="Helvetica,sans-Serif" font-size="10.00">options/FairMQProgOptions.h</text>
</g>
<!-- Node1&#45;&gt;Node6 -->
<g id="edge25" class="edge"><title>Node1&#45;&gt;Node6</title>
<path fill="none" stroke="midnightblue" d="M443.357,-250.669C389.881,-241.656 321.805,-226.086 265.599,-200 199.071,-169.124 133.182,-110.751 103.677,-82.7543"/>
<polygon fill="midnightblue" stroke="midnightblue" points="105.985,-80.1178 96.3497,-75.7113 101.134,-85.1645 105.985,-80.1178"/>
</g>
<!-- Node7 -->
<g id="node7" class="node"><title>Node7</title>
<g id="a_node7"><a xlink:href="../../dc/dcd/DataHeader_8h.html" target="_top" xlink:title="Headers/DataHeader.h">
<polygon fill="none" stroke="black" points="531.099,-56.5 531.099,-75.5 648.099,-75.5 648.099,-56.5 531.099,-56.5"/>
<text text-anchor="middle" x="589.599" y="-63.5" font-family="Helvetica,sans-Serif" font-size="10.00">Headers/DataHeader.h</text>
</a>
</g>
</g>
<!-- Node1&#45;&gt;Node7 -->
<g id="edge24" class="edge"><title>Node1&#45;&gt;Node7</title>
<path fill="none" stroke="midnightblue" d="M513.007,-236.88C500.095,-217.956 487.481,-191.363 496.599,-168 511.122,-130.787 546.487,-99.0118 569.181,-81.503"/>
<polygon fill="midnightblue" stroke="midnightblue" points="571.28,-84.3037 577.189,-75.5094 567.086,-78.6997 571.28,-84.3037"/>
</g>
<!-- Node14 -->
<g id="node14" class="node"><title>Node14</title>
<g id="a_node14"><a xlink:href="../../dd/d1a/FakeTimeframeBuilder_8h.html" target="_top" xlink:title="DataFlow/FakeTimeframeBuilder.h">
<polygon fill="none" stroke="black" points="505.599,-174.5 505.599,-193.5 673.599,-193.5 673.599,-174.5 505.599,-174.5"/>
<text text-anchor="middle" x="589.599" y="-181.5" font-family="Helvetica,sans-Serif" font-size="10.00">DataFlow/FakeTimeframeBuilder.h</text>
</a>
</g>
</g>
<!-- Node1&#45;&gt;Node14 -->
<g id="edge14" class="edge"><title>Node1&#45;&gt;Node14</title>
<path fill="none" stroke="midnightblue" d="M551.936,-236.787C560.324,-225.253 570.031,-211.906 577.49,-201.651"/>
<polygon fill="midnightblue" stroke="midnightblue" points="580.324,-203.704 583.375,-193.558 574.663,-199.586 580.324,-203.704"/>
</g>
<!-- Node15 -->
<g id="node15" class="node"><title>Node15</title>
<polygon fill="none" stroke="#bfbfbf" points="704.599,-112.5 704.599,-131.5 748.599,-131.5 748.599,-112.5 704.599,-112.5"/>
<text text-anchor="middle" x="726.599" y="-119.5" font-family="Helvetica,sans-Serif" font-size="10.00">vector</text>
</g>
<!-- Node1&#45;&gt;Node15 -->
<g id="edge26" class="edge"><title>Node1&#45;&gt;Node15</title>
<path fill="none" stroke="midnightblue" d="M619.642,-236.85C641.486,-227.678 663.786,-215.601 681.599,-200 700.023,-183.864 712.859,-158.273 719.979,-141.07"/>
<polygon fill="midnightblue" stroke="midnightblue" points="723.298,-142.191 723.672,-131.603 716.777,-139.647 723.298,-142.191"/>
</g>
<!-- Node17 -->
<g id="node17" class="node"><title>Node17</title>
<g id="a_node17"><a xlink:href="../../dd/ddb/TimeframeParser_8h.html" target="_top" xlink:title="DataFlow/TimeframeParser.h">
<polygon fill="none" stroke="black" points="895.099,-174.5 895.099,-193.5 1040.1,-193.5 1040.1,-174.5 895.099,-174.5"/>
<text text-anchor="middle" x="967.599" y="-181.5" font-family="Helvetica,sans-Serif" font-size="10.00">DataFlow/TimeframeParser.h</text>
</a>
</g>
</g>
<!-- Node1&#45;&gt;Node17 -->
<g id="edge19" class="edge"><title>Node1&#45;&gt;Node17</title>
<path fill="none" stroke="midnightblue" d="M623.694,-246.299C694.828,-233.862 796.582,-215.981 885.599,-200 893.892,-198.511 902.654,-196.924 911.243,-195.36"/>
<polygon fill="midnightblue" stroke="midnightblue" points="911.998,-198.78 921.207,-193.541 910.742,-191.893 911.998,-198.78"/>
</g>
<!-- Node19 -->
<g id="node19" class="node"><title>Node19</title>
<g id="a_node19"><a xlink:href="../../d2/d1b/SubframeMetadata_8h.html" target="_top" xlink:title="Headers/SubframeMetadata.h">
<polygon fill="none" stroke="black" points="730.099,-174.5 730.099,-193.5 877.099,-193.5 877.099,-174.5 730.099,-174.5"/>
<text text-anchor="middle" x="803.599" y="-181.5" font-family="Helvetica,sans-Serif" font-size="10.00">Headers/SubframeMetadata.h</text>
</a>
</g>
</g>
<!-- Node1&#45;&gt;Node19 -->
<g id="edge22" class="edge"><title>Node1&#45;&gt;Node19</title>
<path fill="none" stroke="midnightblue" d="M621.634,-236.894C669.46,-223.255 726.269,-207.053 763.535,-196.426"/>
<polygon fill="midnightblue" stroke="midnightblue" points="764.848,-199.691 773.504,-193.583 762.928,-192.959 764.848,-199.691"/>
</g>
<!-- Node4 -->
<g id="node4" class="node"><title>Node4</title>
<g id="a_node4"><a xlink:href="../../d2/dee/O2Device_8h.html" target="_top" xlink:title="O2Device/O2Device.h">
<polygon fill="none" stroke="black" points="303.099,-112.5 303.099,-131.5 418.099,-131.5 418.099,-112.5 303.099,-112.5"/>
<text text-anchor="middle" x="360.599" y="-119.5" font-family="Helvetica,sans-Serif" font-size="10.00">O2Device/O2Device.h</text>
</a>
</g>
</g>
<!-- Node3&#45;&gt;Node4 -->
<g id="edge3" class="edge"><title>Node3&#45;&gt;Node4</title>
<path fill="none" stroke="midnightblue" d="M361.362,-168.781C361.229,-160.781 361.061,-150.689 360.916,-142.017"/>
<polygon fill="midnightblue" stroke="midnightblue" points="364.411,-141.671 360.745,-131.731 357.412,-141.788 364.411,-141.671"/>
</g>
<!-- Node5 -->
<g id="node5" class="node"><title>Node5</title>
<polygon fill="none" stroke="#bfbfbf" points="178.599,-56.5 178.599,-75.5 266.599,-75.5 266.599,-56.5 178.599,-56.5"/>
<text text-anchor="middle" x="222.599" y="-63.5" font-family="Helvetica,sans-Serif" font-size="10.00">FairMQDevice.h</text>
</g>
<!-- Node4&#45;&gt;Node5 -->
<g id="edge4" class="edge"><title>Node4&#45;&gt;Node5</title>
<path fill="none" stroke="midnightblue" d="M338.733,-112.444C315.82,-103.478 279.624,-89.314 253.733,-79.1827"/>
<polygon fill="midnightblue" stroke="midnightblue" points="254.951,-75.9011 244.363,-75.5164 252.4,-82.4198 254.951,-75.9011"/>
</g>
<!-- Node4&#45;&gt;Node6 -->
<g id="edge5" class="edge"><title>Node4&#45;&gt;Node6</title>
<path fill="none" stroke="midnightblue" d="M317.342,-112.444C269.418,-102.964 192.121,-87.6747 140.599,-77.4835"/>
<polygon fill="midnightblue" stroke="midnightblue" points="141.144,-74.0235 130.655,-75.5164 139.785,-80.8904 141.144,-74.0235"/>
</g>
<!-- Node4&#45;&gt;Node7 -->
<g id="edge6" class="edge"><title>Node4&#45;&gt;Node7</title>
<path fill="none" stroke="midnightblue" d="M396.885,-112.444C436.582,-103.083 500.306,-88.0561 543.511,-77.868"/>
<polygon fill="midnightblue" stroke="midnightblue" points="544.554,-81.2182 553.483,-75.5164 542.947,-74.4051 544.554,-81.2182"/>
</g>
<!-- Node12 -->
<g id="node12" class="node"><title>Node12</title>
<polygon fill="none" stroke="#bfbfbf" points="285.099,-56.5 285.099,-75.5 436.099,-75.5 436.099,-56.5 285.099,-56.5"/>
<text text-anchor="middle" x="360.599" y="-63.5" font-family="Helvetica,sans-Serif" font-size="10.00">Monitoring/MonitoringFactory.h</text>
</g>
<!-- Node4&#45;&gt;Node12 -->
<g id="edge12" class="edge"><title>Node4&#45;&gt;Node12</title>
<path fill="none" stroke="midnightblue" d="M360.599,-112.083C360.599,-105.006 360.599,-94.8611 360.599,-85.9865"/>
<polygon fill="midnightblue" stroke="midnightblue" points="364.099,-85.751 360.599,-75.7511 357.099,-85.7511 364.099,-85.751"/>
</g>
<!-- Node13 -->
<g id="node13" class="node"><title>Node13</title>
<polygon fill="none" stroke="#bfbfbf" points="454.099,-56.5 454.099,-75.5 513.099,-75.5 513.099,-56.5 454.099,-56.5"/>
<text text-anchor="middle" x="483.599" y="-63.5" font-family="Helvetica,sans-Serif" font-size="10.00">stdexcept</text>
</g>
<!-- Node4&#45;&gt;Node13 -->
<g id="edge13" class="edge"><title>Node4&#45;&gt;Node13</title>
<path fill="none" stroke="midnightblue" d="M380.089,-112.444C400.241,-103.596 431.922,-89.6875 454.93,-79.5865"/>
<polygon fill="midnightblue" stroke="midnightblue" points="456.451,-82.7411 464.201,-75.5164 453.637,-76.3316 456.451,-82.7411"/>
</g>
<!-- Node7&#45;&gt;Node2 -->
<g id="edge10" class="edge"><title>Node7&#45;&gt;Node2</title>
<path fill="none" stroke="midnightblue" d="M531.039,-56.974C447.204,-45.484 295.735,-24.7242 228.864,-15.5591"/>
<polygon fill="midnightblue" stroke="midnightblue" points="229.264,-12.0813 218.881,-14.191 228.314,-19.0165 229.264,-12.0813"/>
</g>
<!-- Node8 -->
<g id="node8" class="node"><title>Node8</title>
<polygon fill="none" stroke="#bfbfbf" points="444.599,-0.5 444.599,-19.5 490.599,-19.5 490.599,-0.5 444.599,-0.5"/>
<text text-anchor="middle" x="467.599" y="-7.5" font-family="Helvetica,sans-Serif" font-size="10.00">cstdint</text>
</g>
<!-- Node7&#45;&gt;Node8 -->
<g id="edge7" class="edge"><title>Node7&#45;&gt;Node8</title>
<path fill="none" stroke="midnightblue" d="M570.268,-56.4435C550.279,-47.5961 518.856,-33.6875 496.035,-23.5865"/>
<polygon fill="midnightblue" stroke="midnightblue" points="497.401,-20.3635 486.84,-19.5164 494.568,-26.7645 497.401,-20.3635"/>
</g>
<!-- Node9 -->
<g id="node9" class="node"><title>Node9</title>
<polygon fill="none" stroke="#bfbfbf" points="650.599,-0.5 650.599,-19.5 702.599,-19.5 702.599,-0.5 650.599,-0.5"/>
<text text-anchor="middle" x="676.599" y="-7.5" font-family="Helvetica,sans-Serif" font-size="10.00">memory</text>
</g>
<!-- Node7&#45;&gt;Node9 -->
<g id="edge8" class="edge"><title>Node7&#45;&gt;Node9</title>
<path fill="none" stroke="midnightblue" d="M603.577,-56.324C617.149,-47.9002 637.979,-34.9709 653.924,-25.0741"/>
<polygon fill="midnightblue" stroke="midnightblue" points="656.005,-27.9019 662.656,-19.6545 652.314,-21.9544 656.005,-27.9019"/>
</g>
<!-- Node10 -->
<g id="node10" class="node"><title>Node10</title>
<polygon fill="none" stroke="#bfbfbf" points="509.099,-0.5 509.099,-19.5 558.099,-19.5 558.099,-0.5 509.099,-0.5"/>
<text text-anchor="middle" x="533.599" y="-7.5" font-family="Helvetica,sans-Serif" font-size="10.00">cassert</text>
</g>
<!-- Node7&#45;&gt;Node10 -->
<g id="edge9" class="edge"><title>Node7&#45;&gt;Node10</title>
<path fill="none" stroke="midnightblue" d="M580.602,-56.324C572.405,-48.4196 560.094,-36.5482 550.127,-26.9377"/>
<polygon fill="midnightblue" stroke="midnightblue" points="552.388,-24.2558 542.76,-19.8339 547.529,-29.2947 552.388,-24.2558"/>
</g>
<!-- Node11 -->
<g id="node11" class="node"><title>Node11</title>
<polygon fill="none" stroke="#bfbfbf" points="576.599,-0.5 576.599,-19.5 632.599,-19.5 632.599,-0.5 576.599,-0.5"/>
<text text-anchor="middle" x="604.599" y="-7.5" font-family="Helvetica,sans-Serif" font-size="10.00">algorithm</text>
</g>
<!-- Node7&#45;&gt;Node11 -->
<g id="edge11" class="edge"><title>Node7&#45;&gt;Node11</title>
<path fill="none" stroke="midnightblue" d="M592.076,-56.083C594.086,-48.8486 596.986,-38.4087 599.489,-29.3968"/>
<polygon fill="midnightblue" stroke="midnightblue" points="602.864,-30.323 602.168,-19.7511 596.12,-28.4495 602.864,-30.323"/>
</g>
<!-- Node14&#45;&gt;Node7 -->
<g id="edge15" class="edge"><title>Node14&#45;&gt;Node7</title>
<path fill="none" stroke="midnightblue" d="M589.599,-174.281C589.599,-155.547 589.599,-111.098 589.599,-85.6822"/>
<polygon fill="midnightblue" stroke="midnightblue" points="593.099,-85.5047 589.599,-75.5048 586.099,-85.5048 593.099,-85.5047"/>
</g>
<!-- Node14&#45;&gt;Node9 -->
<g id="edge17" class="edge"><title>Node14&#45;&gt;Node9</title>
<path fill="none" stroke="midnightblue" d="M596.171,-174.29C609.253,-156.606 638.822,-114.867 656.599,-76 663.505,-60.901 668.859,-42.7766 672.282,-29.5067"/>
<polygon fill="midnightblue" stroke="midnightblue" points="675.711,-30.2208 674.695,-19.6748 668.912,-28.5523 675.711,-30.2208"/>
</g>
<!-- Node14&#45;&gt;Node15 -->
<g id="edge16" class="edge"><title>Node14&#45;&gt;Node15</title>
<path fill="none" stroke="midnightblue" d="M609.228,-174.403C632.423,-164.245 671.218,-147.255 697.812,-135.607"/>
<polygon fill="midnightblue" stroke="midnightblue" points="699.251,-138.798 707.007,-131.581 696.443,-132.386 699.251,-138.798"/>
</g>
<!-- Node16 -->
<g id="node16" class="node"><title>Node16</title>
<polygon fill="none" stroke="#bfbfbf" points="818.099,-112.5 818.099,-131.5 877.099,-131.5 877.099,-112.5 818.099,-112.5"/>
<text text-anchor="middle" x="847.599" y="-119.5" font-family="Helvetica,sans-Serif" font-size="10.00">functional</text>
</g>
<!-- Node14&#45;&gt;Node16 -->
<g id="edge18" class="edge"><title>Node14&#45;&gt;Node16</title>
<path fill="none" stroke="midnightblue" d="M626.29,-174.467C674.346,-163.291 758.293,-143.769 807.828,-132.249"/>
<polygon fill="midnightblue" stroke="midnightblue" points="808.904,-135.592 817.851,-129.918 807.318,-128.774 808.904,-135.592"/>
</g>
<!-- Node17&#45;&gt;Node16 -->
<g id="edge21" class="edge"><title>Node17&#45;&gt;Node16</title>
<path fill="none" stroke="midnightblue" d="M950.406,-174.403C930.357,-164.379 897,-147.701 873.739,-136.07"/>
<polygon fill="midnightblue" stroke="midnightblue" points="875.27,-132.922 864.76,-131.581 872.139,-139.183 875.27,-132.922"/>
</g>
<!-- Node18 -->
<g id="node18" class="node"><title>Node18</title>
<polygon fill="none" stroke="#bfbfbf" points="945.099,-112.5 945.099,-131.5 990.099,-131.5 990.099,-112.5 945.099,-112.5"/>
<text text-anchor="middle" x="967.599" y="-119.5" font-family="Helvetica,sans-Serif" font-size="10.00">iosfwd</text>
</g>
<!-- Node17&#45;&gt;Node18 -->
<g id="edge20" class="edge"><title>Node17&#45;&gt;Node18</title>
<path fill="none" stroke="midnightblue" d="M967.599,-174.403C967.599,-165.938 967.599,-152.728 967.599,-141.82"/>
<polygon fill="midnightblue" stroke="midnightblue" points="971.099,-141.581 967.599,-131.581 964.099,-141.581 971.099,-141.581"/>
</g>
<!-- Node19&#45;&gt;Node15 -->
<g id="edge23" class="edge"><title>Node19&#45;&gt;Node15</title>
<path fill="none" stroke="midnightblue" d="M792.567,-174.403C780.331,-164.869 760.371,-149.315 745.606,-137.811"/>
<polygon fill="midnightblue" stroke="midnightblue" points="747.65,-134.966 737.611,-131.581 743.348,-140.488 747.65,-134.966"/>
</g>
</g>
</svg>
        <g id="navigator" transform="translate(0 0)" fill="#404254">
                <rect fill="#f2f5e9" fill-opacity="0.5" stroke="#606060" stroke-width=".5" x="0" y="0" width="60" height="60"/>
                <use id="zoomplus" xlink:href="#zoomPlus" x="17" y="9" onmousedown="handleZoom(evt,'in')"/>
                <use id="zoomminus" xlink:href="#zoomMin" x="42" y="9" onmousedown="handleZoom(evt,'out')"/>
                <use id="reset" xlink:href="#resetDef" x="30" y="36" onmousedown="handleReset()"/>
                <g id="arrowUp" xlink:href="#dirArrow" transform="translate(30 24)" onmousedown="handlePan(0,-1)">
                  <use xlink:href="#rim" fill="#404040">
                        <set attributeName="fill" to="#808080" begin="arrowUp.mouseover" end="arrowUp.mouseout"/>
                  </use>
                  <path fill="none" stroke="white" stroke-width="1.5" d="M0,-3.0v7 M-2.5,-0.5L0,-3.0L2.5,-0.5"/>
                </g>
                <g id="arrowRight" xlink:href="#dirArrow" transform="rotate(90) translate(36 -43)" onmousedown="handlePan(1,0)">
                  <use xlink:href="#rim" fill="#404040">
                        <set attributeName="fill" to="#808080" begin="arrowRight.mouseover" end="arrowRight.mouseout"/>
                  </use>
                  <path fill="none" stroke="white" stroke-width="1.5" d="M0,-3.0v7 M-2.5,-0.5L0,-3.0L2.5,-0.5"/>
                </g>
                <g id="arrowDown" xlink:href="#dirArrow" transform="rotate(180) translate(-30 -48)" onmousedown="handlePan(0,1)">
                  <use xlink:href="#rim" fill="#404040">
                        <set attributeName="fill" to="#808080" begin="arrowDown.mouseover" end="arrowDown.mouseout"/>
                  </use>
                  <path fill="none" stroke="white" stroke-width="1.5" d="M0,-3.0v7 M-2.5,-0.5L0,-3.0L2.5,-0.5"/>
                </g>
                <g id="arrowLeft" xlink:href="#dirArrow" transform="rotate(270) translate(-36 17)" onmousedown="handlePan(-1,0)">
                  <use xlink:href="#rim" fill="#404040">
                        <set attributeName="fill" to="#808080" begin="arrowLeft.mouseover" end="arrowLeft.mouseout"/>
                  </use>
                  <path fill="none" stroke="white" stroke-width="1.5" d="M0,-3.0v7 M-2.5,-0.5L0,-3.0L2.5,-0.5"/>
                </g>
        </g>
        <svg viewBox="0 0 15 15" width="100%" height="30px" preserveAspectRatio="xMaxYMin meet">
         <g id="arrow_out" transform="scale(0.3 0.3)">
          <a xlink:href="FakeTimeframeGeneratorDevice_8cxx__incl_org.svg" target="_base">
           <rect id="button" ry="5" rx="5" y="6" x="6" height="38" width="38"
                fill="#f2f5e9" fill-opacity="0.5" stroke="#606060" stroke-width="1.0"/>
           <path id="arrow"
             d="M 11.500037,31.436501 C 11.940474,20.09759 22.043105,11.32322 32.158766,21.979434 L 37.068811,17.246167 C 37.068811,17.246167 37.088388,32 37.088388,32 L 22.160133,31.978069 C 22.160133,31.978069 26.997745,27.140456 26.997745,27.140456 C 18.528582,18.264221 13.291696,25.230495 11.500037,31.436501 z"
             style="fill:#404040;"/>
          </a>
         </g>
        </svg>
</svg>
