<?xml version="1.0" encoding="UTF-8" standalone="no"?>
<!DOCTYPE svg PUBLIC "-//W3C//DTD SVG 1.1//EN"
 "http://www.w3.org/Graphics/SVG/1.1/DTD/svg11.dtd">
<!-- Generated by graphviz version 2.36.0 (20140111.2315)
 -->
<!-- Title: /home/travis/build/AliceO2Group/AliceO2/Detectors/ITSMFT/common/simulation/src/SimulationAlpide.cxx Pages: 1 -->
<svg width="1714pt" height="470pt"
 viewBox="0.00 0.00 1714.00 470.00" xmlns="http://www.w3.org/2000/svg" xmlns:xlink="http://www.w3.org/1999/xlink">
<g id="graph0" class="graph" transform="scale(1 1) rotate(0) translate(4 466)">
<title>/home/travis/build/AliceO2Group/AliceO2/Detectors/ITSMFT/common/simulation/src/SimulationAlpide.cxx</title>
<!-- Node1 -->
<g id="node1" class="node"><title>Node1</title>
<polygon fill="#bfbfbf" stroke="black" points="482.5,-409 482.5,-461 657.5,-461 657.5,-409 482.5,-409"/>
<text text-anchor="start" x="490.5" y="-449" font-family="Helvetica,sans-Serif" font-size="10.00">/home/travis/build</text>
<text text-anchor="start" x="490.5" y="-438" font-family="Helvetica,sans-Serif" font-size="10.00">/AliceO2Group/AliceO2</text>
<text text-anchor="start" x="490.5" y="-427" font-family="Helvetica,sans-Serif" font-size="10.00">/Detectors/ITSMFT/common</text>
<text text-anchor="middle" x="570" y="-416" font-family="Helvetica,sans-Serif" font-size="10.00">/simulation/src/SimulationAlpide.cxx</text>
</g>
<!-- Node2 -->
<g id="node2" class="node"><title>Node2</title>
<polygon fill="none" stroke="#bfbfbf" points="0,-346.5 0,-365.5 68,-365.5 68,-346.5 0,-346.5"/>
<text text-anchor="middle" x="34" y="-353.5" font-family="Helvetica,sans-Serif" font-size="10.00">TRandom.h</text>
</g>
<!-- Node1&#45;&gt;Node2 -->
<g id="edge1" class="edge"><title>Node1&#45;&gt;Node2</title>
<path fill="none" stroke="midnightblue" d="M482.187,-428.557C382.819,-421.109 216.626,-404.747 77,-372 73.1272,-371.092 69.1157,-369.961 65.1697,-368.73"/>
<polygon fill="midnightblue" stroke="midnightblue" points="66.2059,-365.387 55.6121,-365.536 63.9867,-372.025 66.2059,-365.387"/>
</g>
<!-- Node3 -->
<g id="node3" class="node"><title>Node3</title>
<polygon fill="none" stroke="#bfbfbf" points="86,-346.5 86,-365.5 178,-365.5 178,-346.5 86,-346.5"/>
<text text-anchor="middle" x="132" y="-353.5" font-family="Helvetica,sans-Serif" font-size="10.00">TLorentzVector.h</text>
</g>
<!-- Node1&#45;&gt;Node3 -->
<g id="edge2" class="edge"><title>Node1&#45;&gt;Node3</title>
<path fill="none" stroke="midnightblue" d="M482.422,-422.511C404.472,-411.648 287.557,-393.787 187,-372 181.813,-370.876 176.386,-369.565 171.046,-368.194"/>
<polygon fill="midnightblue" stroke="midnightblue" points="171.537,-364.703 160.973,-365.518 169.74,-371.468 171.537,-364.703"/>
</g>
<!-- Node4 -->
<g id="node4" class="node"><title>Node4</title>
<polygon fill="none" stroke="#bfbfbf" points="196,-346.5 196,-365.5 288,-365.5 288,-346.5 196,-346.5"/>
<text text-anchor="middle" x="242" y="-353.5" font-family="Helvetica,sans-Serif" font-size="10.00">TSeqCollection.h</text>
</g>
<!-- Node1&#45;&gt;Node4 -->
<g id="edge3" class="edge"><title>Node1&#45;&gt;Node4</title>
<path fill="none" stroke="midnightblue" d="M482.48,-415.126C428.811,-403.304 358.772,-387.43 297,-372 292.268,-370.818 287.319,-369.535 282.413,-368.234"/>
<polygon fill="midnightblue" stroke="midnightblue" points="283.051,-364.781 272.485,-365.565 281.234,-371.541 283.051,-364.781"/>
</g>
<!-- Node5 -->
<g id="node5" class="node"><title>Node5</title>
<polygon fill="none" stroke="#bfbfbf" points="306.5,-346.5 306.5,-365.5 351.5,-365.5 351.5,-346.5 306.5,-346.5"/>
<text text-anchor="middle" x="329" y="-353.5" font-family="Helvetica,sans-Serif" font-size="10.00">climits</text>
</g>
<!-- Node1&#45;&gt;Node5 -->
<g id="edge4" class="edge"><title>Node1&#45;&gt;Node5</title>
<path fill="none" stroke="midnightblue" d="M482.328,-409.24C446.079,-398.515 403.775,-385.367 366,-372 363.599,-371.15 361.124,-370.235 358.647,-369.292"/>
<polygon fill="midnightblue" stroke="midnightblue" points="359.817,-365.991 349.23,-365.585 357.253,-372.504 359.817,-365.991"/>
</g>
<!-- Node6 -->
<g id="node6" class="node"><title>Node6</title>
<polygon fill="none" stroke="#bfbfbf" points="255,-210.5 255,-229.5 311,-229.5 311,-210.5 255,-210.5"/>
<text text-anchor="middle" x="283" y="-217.5" font-family="Helvetica,sans-Serif" font-size="10.00">algorithm</text>
</g>
<!-- Node1&#45;&gt;Node6 -->
<g id="edge5" class="edge"><title>Node1&#45;&gt;Node6</title>
<path fill="none" stroke="midnightblue" d="M482.301,-411.858C454.189,-402.309 423.914,-389.273 399,-372 347.275,-336.139 308.325,-270.097 291.759,-238.602"/>
<polygon fill="midnightblue" stroke="midnightblue" points="294.857,-236.974 287.179,-229.673 288.629,-240.168 294.857,-236.974"/>
</g>
<!-- Node7 -->
<g id="node7" class="node"><title>Node7</title>
<polygon fill="none" stroke="#bfbfbf" points="1542.5,-346.5 1542.5,-365.5 1613.5,-365.5 1613.5,-346.5 1542.5,-346.5"/>
<text text-anchor="middle" x="1578" y="-353.5" font-family="Helvetica,sans-Serif" font-size="10.00">FairLogger.h</text>
</g>
<!-- Node1&#45;&gt;Node7 -->
<g id="edge6" class="edge"><title>Node1&#45;&gt;Node7</title>
<path fill="none" stroke="midnightblue" d="M657.651,-434.933C827.182,-435.287 1211.21,-429.005 1528,-372 1533.16,-371.071 1538.55,-369.795 1543.79,-368.376"/>
<polygon fill="midnightblue" stroke="midnightblue" points="1544.97,-371.678 1553.6,-365.527 1543.02,-364.955 1544.97,-371.678"/>
</g>
<!-- Node8 -->
<g id="node8" class="node"><title>Node8</title>
<g id="a_node8"><a xlink:href="../../d0/d06/ITSMFT_2common_2base_2include_2ITSMFTBase_2Digit_8h.html" target="_top" xlink:title="ITSMFTBase/Digit.h">
<polygon fill="none" stroke="black" points="1108.5,-210.5 1108.5,-229.5 1215.5,-229.5 1215.5,-210.5 1108.5,-210.5"/>
<text text-anchor="middle" x="1162" y="-217.5" font-family="Helvetica,sans-Serif" font-size="10.00">ITSMFTBase/Digit.h</text>
</a>
</g>
</g>
<!-- Node1&#45;&gt;Node8 -->
<g id="edge7" class="edge"><title>Node1&#45;&gt;Node8</title>
<path fill="none" stroke="midnightblue" d="M657.619,-422.514C794.078,-403.13 1049.09,-360.452 1120,-304 1140.6,-287.604 1151.99,-258.436 1157.55,-239.409"/>
<polygon fill="midnightblue" stroke="midnightblue" points="1160.99,-240.115 1160.18,-229.551 1154.22,-238.313 1160.99,-240.115"/>
</g>
<!-- Node12 -->
<g id="node12" class="node"><title>Node12</title>
<g id="a_node12"><a xlink:href="../../d3/dba/SegmentationAlpide_8h.html" target="_top" xlink:title="Definition of the SegmentationAlpide class. ">
<polygon fill="none" stroke="black" points="1466.5,-142.5 1466.5,-161.5 1639.5,-161.5 1639.5,-142.5 1466.5,-142.5"/>
<text text-anchor="middle" x="1553" y="-149.5" font-family="Helvetica,sans-Serif" font-size="10.00">ITSMFTBase/SegmentationAlpide.h</text>
</a>
</g>
</g>
<!-- Node1&#45;&gt;Node12 -->
<g id="edge13" class="edge"><title>Node1&#45;&gt;Node12</title>
<path fill="none" stroke="midnightblue" d="M657.841,-427.369C746.158,-419.321 885.667,-402.824 1003,-372 1164.01,-329.702 1197.5,-297.994 1352,-236 1413.05,-211.503 1484.1,-181.904 1523.27,-165.496"/>
<polygon fill="midnightblue" stroke="midnightblue" points="1524.64,-168.714 1532.51,-161.619 1521.94,-162.259 1524.64,-168.714"/>
</g>
<!-- Node13 -->
<g id="node13" class="node"><title>Node13</title>
<g id="a_node13"><a xlink:href="../../d7/d9e/SimulationAlpide_8h.html" target="_top" xlink:title="Simulation of the ALIPIDE chip response. ">
<polygon fill="none" stroke="black" points="581.5,-341 581.5,-371 728.5,-371 728.5,-341 581.5,-341"/>
<text text-anchor="start" x="589.5" y="-359" font-family="Helvetica,sans-Serif" font-size="10.00">ITSMFTSimulation/Simulation</text>
<text text-anchor="middle" x="655" y="-348" font-family="Helvetica,sans-Serif" font-size="10.00">Alpide.h</text>
</a>
</g>
</g>
<!-- Node1&#45;&gt;Node13 -->
<g id="edge15" class="edge"><title>Node1&#45;&gt;Node13</title>
<path fill="none" stroke="midnightblue" d="M597.832,-408.787C608.79,-398.861 621.23,-387.592 631.701,-378.106"/>
<polygon fill="midnightblue" stroke="midnightblue" points="634.206,-380.56 639.267,-371.252 629.506,-375.372 634.206,-380.56"/>
</g>
<!-- Node34 -->
<g id="node34" class="node"><title>Node34</title>
<g id="a_node34"><a xlink:href="../../dc/da5/SimuClusterShaper_8h.html" target="_top" xlink:title="Cluster shaper for the ALPIDE response simulation. ">
<polygon fill="none" stroke="black" points="408.5,-341 408.5,-371 563.5,-371 563.5,-341 408.5,-341"/>
<text text-anchor="start" x="416.5" y="-359" font-family="Helvetica,sans-Serif" font-size="10.00">ITSMFTSimulation/SimuCluster</text>
<text text-anchor="middle" x="486" y="-348" font-family="Helvetica,sans-Serif" font-size="10.00">Shaper.h</text>
</a>
</g>
</g>
<!-- Node1&#45;&gt;Node34 -->
<g id="edge42" class="edge"><title>Node1&#45;&gt;Node34</title>
<path fill="none" stroke="midnightblue" d="M542.495,-408.787C531.667,-398.861 519.373,-387.592 509.025,-378.106"/>
<polygon fill="midnightblue" stroke="midnightblue" points="511.284,-375.429 501.548,-371.252 506.554,-380.589 511.284,-375.429"/>
</g>
<!-- Node36 -->
<g id="node36" class="node"><title>Node36</title>
<g id="a_node36"><a xlink:href="../../d0/dae/ITSMFT_2common_2simulation_2include_2ITSMFTSimulation_2Hit_8h.html" target="_top" xlink:title="ITSMFTSimulation/Hit.h">
<polygon fill="none" stroke="black" points="989,-278.5 989,-297.5 1111,-297.5 1111,-278.5 989,-278.5"/>
<text text-anchor="middle" x="1050" y="-285.5" font-family="Helvetica,sans-Serif" font-size="10.00">ITSMFTSimulation/Hit.h</text>
</a>
</g>
</g>
<!-- Node1&#45;&gt;Node36 -->
<g id="edge50" class="edge"><title>Node1&#45;&gt;Node36</title>
<path fill="none" stroke="midnightblue" d="M652.788,-408.991C757.891,-377.241 934.819,-323.794 1012.04,-300.468"/>
<polygon fill="midnightblue" stroke="midnightblue" points="1013.26,-303.755 1021.82,-297.513 1011.23,-297.054 1013.26,-303.755"/>
</g>
<!-- Node39 -->
<g id="node39" class="node"><title>Node39</title>
<g id="a_node39"><a xlink:href="../../df/d29/DigiParams_8h.html" target="_top" xlink:title="Simulation parameters for the ALIPIDE chip. ">
<polygon fill="none" stroke="black" points="1545.5,-278.5 1545.5,-297.5 1706.5,-297.5 1706.5,-278.5 1545.5,-278.5"/>
<text text-anchor="middle" x="1626" y="-285.5" font-family="Helvetica,sans-Serif" font-size="10.00">ITSMFTSimulation/DigiParams.h</text>
</a>
</g>
</g>
<!-- Node1&#45;&gt;Node39 -->
<g id="edge57" class="edge"><title>Node1&#45;&gt;Node39</title>
<path fill="none" stroke="midnightblue" d="M657.834,-434.243C857.264,-433.807 1338.67,-426.905 1490,-372 1512.73,-363.753 1513.61,-352.997 1534,-340 1555.64,-326.207 1581.24,-312.192 1599.93,-302.353"/>
<polygon fill="midnightblue" stroke="midnightblue" points="1601.77,-305.34 1609.02,-297.612 1598.54,-299.133 1601.77,-305.34"/>
</g>
<!-- Node9 -->
<g id="node9" class="node"><title>Node9</title>
<polygon fill="none" stroke="#bfbfbf" points="1302,-74.5 1302,-93.5 1358,-93.5 1358,-74.5 1302,-74.5"/>
<text text-anchor="middle" x="1330" y="-81.5" font-family="Helvetica,sans-Serif" font-size="10.00">Rtypes.h</text>
</g>
<!-- Node8&#45;&gt;Node9 -->
<g id="edge8" class="edge"><title>Node8&#45;&gt;Node9</title>
<path fill="none" stroke="midnightblue" d="M1197.64,-210.469C1206.57,-208.344 1216.13,-206.079 1225,-204 1294.28,-187.759 1336.7,-223.685 1381,-168 1398.66,-145.8 1371.28,-117.059 1350.31,-99.8793"/>
<polygon fill="midnightblue" stroke="midnightblue" points="1352.44,-97.1052 1342.41,-93.6913 1348.12,-102.615 1352.44,-97.1052"/>
</g>
<!-- Node10 -->
<g id="node10" class="node"><title>Node10</title>
<g id="a_node10"><a xlink:href="../../d7/dcd/MCCompLabel_8h.html" target="_top" xlink:title="SimulationDataFormat\l/MCCompLabel.h">
<polygon fill="none" stroke="black" points="1070,-137 1070,-167 1184,-167 1184,-137 1070,-137"/>
<text text-anchor="start" x="1078" y="-155" font-family="Helvetica,sans-Serif" font-size="10.00">SimulationDataFormat</text>
<text text-anchor="middle" x="1127" y="-144" font-family="Helvetica,sans-Serif" font-size="10.00">/MCCompLabel.h</text>
</a>
</g>
</g>
<!-- Node8&#45;&gt;Node10 -->
<g id="edge9" class="edge"><title>Node8&#45;&gt;Node10</title>
<path fill="none" stroke="midnightblue" d="M1157.42,-210.372C1152.83,-201.714 1145.56,-188.001 1139.28,-176.152"/>
<polygon fill="midnightblue" stroke="midnightblue" points="1142.3,-174.376 1134.52,-167.181 1136.11,-177.656 1142.3,-174.376"/>
</g>
<!-- Node11 -->
<g id="node11" class="node"><title>Node11</title>
<g id="a_node11"><a xlink:href="../../df/d5d/common_2include_2CommonDataFormat_2TimeStamp_8h.html" target="_top" xlink:title="CommonDataFormat/TimeStamp.h">
<polygon fill="none" stroke="black" points="1202,-142.5 1202,-161.5 1372,-161.5 1372,-142.5 1202,-142.5"/>
<text text-anchor="middle" x="1287" y="-149.5" font-family="Helvetica,sans-Serif" font-size="10.00">CommonDataFormat/TimeStamp.h</text>
</a>
</g>
</g>
<!-- Node8&#45;&gt;Node11 -->
<g id="edge11" class="edge"><title>Node8&#45;&gt;Node11</title>
<path fill="none" stroke="midnightblue" d="M1178.34,-210.372C1199.58,-199.156 1236.9,-179.453 1261.78,-166.314"/>
<polygon fill="midnightblue" stroke="midnightblue" points="1263.45,-169.395 1270.65,-161.63 1260.18,-163.205 1263.45,-169.395"/>
</g>
<!-- Node10&#45;&gt;Node9 -->
<g id="edge10" class="edge"><title>Node10&#45;&gt;Node9</title>
<path fill="none" stroke="midnightblue" d="M1170.55,-136.841C1207.34,-124.879 1259.41,-107.949 1293.92,-96.7315"/>
<polygon fill="midnightblue" stroke="midnightblue" points="1295.16,-100.007 1303.59,-93.5868 1293,-93.3503 1295.16,-100.007"/>
</g>
<!-- Node11&#45;&gt;Node9 -->
<g id="edge12" class="edge"><title>Node11&#45;&gt;Node9</title>
<path fill="none" stroke="midnightblue" d="M1292.62,-142.372C1299.22,-132.25 1310.31,-115.215 1318.71,-102.331"/>
<polygon fill="midnightblue" stroke="midnightblue" points="1321.71,-104.13 1324.24,-93.8411 1315.85,-100.309 1321.71,-104.13"/>
</g>
<!-- Node12&#45;&gt;Node9 -->
<g id="edge14" class="edge"><title>Node12&#45;&gt;Node9</title>
<path fill="none" stroke="midnightblue" d="M1523.85,-142.372C1483.87,-130.54 1411.98,-109.263 1367.88,-96.2104"/>
<polygon fill="midnightblue" stroke="midnightblue" points="1368.69,-92.8001 1358.11,-93.3182 1366.7,-99.5123 1368.69,-92.8001"/>
</g>
<!-- Node14 -->
<g id="node14" class="node"><title>Node14</title>
<polygon fill="none" stroke="#bfbfbf" points="399.5,-210.5 399.5,-229.5 458.5,-229.5 458.5,-210.5 399.5,-210.5"/>
<text text-anchor="middle" x="429" y="-217.5" font-family="Helvetica,sans-Serif" font-size="10.00">TObject.h</text>
</g>
<!-- Node13&#45;&gt;Node14 -->
<g id="edge16" class="edge"><title>Node13&#45;&gt;Node14</title>
<path fill="none" stroke="midnightblue" d="M632.913,-340.863C606.513,-324.073 560.894,-295.394 521,-272 498.597,-258.863 472.694,-244.583 454.092,-234.484"/>
<polygon fill="midnightblue" stroke="midnightblue" points="455.549,-231.293 445.088,-229.612 452.218,-237.449 455.549,-231.293"/>
</g>
<!-- Node15 -->
<g id="node15" class="node"><title>Node15</title>
<g id="a_node15"><a xlink:href="../../dc/d1a/AlpideSimResponse_8h.html" target="_top" xlink:title="Definition of the ITSMFT Alpide simulated response parametrization. ">
<polygon fill="none" stroke="black" points="738,-273 738,-303 884,-303 884,-273 738,-273"/>
<text text-anchor="start" x="746" y="-291" font-family="Helvetica,sans-Serif" font-size="10.00">ITSMFTSimulation/AlpideSim</text>
<text text-anchor="middle" x="811" y="-280" font-family="Helvetica,sans-Serif" font-size="10.00">Response.h</text>
</a>
</g>
</g>
<!-- Node13&#45;&gt;Node15 -->
<g id="edge17" class="edge"><title>Node13&#45;&gt;Node15</title>
<path fill="none" stroke="midnightblue" d="M688.466,-340.841C711.885,-330.933 743.358,-317.618 768.543,-306.963"/>
<polygon fill="midnightblue" stroke="midnightblue" points="770.012,-310.142 777.858,-303.022 767.284,-303.695 770.012,-310.142"/>
</g>
<!-- Node19 -->
<g id="node19" class="node"><title>Node19</title>
<g id="a_node19"><a xlink:href="../../d9/d55/Chip_8h.html" target="_top" xlink:title="ITSMFTSimulation/Chip.h">
<polygon fill="none" stroke="black" points="590,-278.5 590,-297.5 720,-297.5 720,-278.5 590,-278.5"/>
<text text-anchor="middle" x="655" y="-285.5" font-family="Helvetica,sans-Serif" font-size="10.00">ITSMFTSimulation/Chip.h</text>
</a>
</g>
</g>
<!-- Node13&#45;&gt;Node19 -->
<g id="edge22" class="edge"><title>Node13&#45;&gt;Node19</title>
<path fill="none" stroke="midnightblue" d="M655,-340.679C655,-331.101 655,-318.394 655,-307.977"/>
<polygon fill="midnightblue" stroke="midnightblue" points="658.5,-307.828 655,-297.828 651.5,-307.828 658.5,-307.828"/>
</g>
<!-- Node15&#45;&gt;Node9 -->
<g id="edge21" class="edge"><title>Node15&#45;&gt;Node9</title>
<path fill="none" stroke="midnightblue" d="M884.073,-276.313C917.043,-268.908 955.184,-256.531 985,-236 1030.98,-204.341 1013.53,-165.375 1061,-136 1099.1,-112.425 1226.94,-95.9159 1291.71,-88.8496"/>
<polygon fill="midnightblue" stroke="midnightblue" points="1292.34,-92.302 1301.91,-87.7577 1291.6,-85.3417 1292.34,-92.302"/>
</g>
<!-- Node16 -->
<g id="node16" class="node"><title>Node16</title>
<polygon fill="none" stroke="#bfbfbf" points="746,-210.5 746,-229.5 784,-229.5 784,-210.5 746,-210.5"/>
<text text-anchor="middle" x="765" y="-217.5" font-family="Helvetica,sans-Serif" font-size="10.00">array</text>
</g>
<!-- Node15&#45;&gt;Node16 -->
<g id="edge18" class="edge"><title>Node15&#45;&gt;Node16</title>
<path fill="none" stroke="midnightblue" d="M801.019,-272.679C793.988,-262.592 784.538,-249.033 777.082,-238.335"/>
<polygon fill="midnightblue" stroke="midnightblue" points="779.742,-236.031 771.153,-229.828 774,-240.034 779.742,-236.031"/>
</g>
<!-- Node17 -->
<g id="node17" class="node"><title>Node17</title>
<polygon fill="none" stroke="#bfbfbf" points="802.5,-210.5 802.5,-229.5 843.5,-229.5 843.5,-210.5 802.5,-210.5"/>
<text text-anchor="middle" x="823" y="-217.5" font-family="Helvetica,sans-Serif" font-size="10.00">string</text>
</g>
<!-- Node15&#45;&gt;Node17 -->
<g id="edge19" class="edge"><title>Node15&#45;&gt;Node17</title>
<path fill="none" stroke="midnightblue" d="M813.604,-272.679C815.345,-263.101 817.656,-250.394 819.55,-239.977"/>
<polygon fill="midnightblue" stroke="midnightblue" points="823.049,-240.293 821.395,-229.828 816.162,-239.041 823.049,-240.293"/>
</g>
<!-- Node18 -->
<g id="node18" class="node"><title>Node18</title>
<polygon fill="none" stroke="#bfbfbf" points="477,-210.5 477,-229.5 521,-229.5 521,-210.5 477,-210.5"/>
<text text-anchor="middle" x="499" y="-217.5" font-family="Helvetica,sans-Serif" font-size="10.00">vector</text>
</g>
<!-- Node15&#45;&gt;Node18 -->
<g id="edge20" class="edge"><title>Node15&#45;&gt;Node18</title>
<path fill="none" stroke="midnightblue" d="M743.41,-272.95C694.639,-262.779 627.228,-248.653 568,-236 555.853,-233.405 542.513,-230.515 530.827,-227.969"/>
<polygon fill="midnightblue" stroke="midnightblue" points="531.571,-224.549 521.054,-225.837 530.078,-231.388 531.571,-224.549"/>
</g>
<!-- Node19&#45;&gt;Node8 -->
<g id="edge23" class="edge"><title>Node19&#45;&gt;Node8</title>
<path fill="none" stroke="midnightblue" d="M694.063,-278.453C705.306,-276.164 717.609,-273.822 729,-272 859.719,-251.09 1013.92,-234.948 1098.51,-226.818"/>
<polygon fill="midnightblue" stroke="midnightblue" points="1098.85,-230.301 1108.48,-225.866 1098.19,-223.333 1098.85,-230.301"/>
</g>
<!-- Node19&#45;&gt;Node10 -->
<g id="edge41" class="edge"><title>Node19&#45;&gt;Node10</title>
<path fill="none" stroke="midnightblue" d="M662.203,-278.406C678.614,-259.056 718.766,-213.051 737,-204 792.178,-176.611 963.302,-162.496 1059.53,-156.549"/>
<polygon fill="midnightblue" stroke="midnightblue" points="1059.97,-160.029 1069.74,-155.931 1059.55,-153.041 1059.97,-160.029"/>
</g>
<!-- Node19&#45;&gt;Node14 -->
<g id="edge24" class="edge"><title>Node19&#45;&gt;Node14</title>
<path fill="none" stroke="midnightblue" d="M619.53,-278.462C581.682,-269.088 520.123,-253.083 468,-236 465.376,-235.14 462.67,-234.204 459.965,-233.234"/>
<polygon fill="midnightblue" stroke="midnightblue" points="460.91,-229.851 450.317,-229.645 458.469,-236.412 460.91,-229.851"/>
</g>
<!-- Node19&#45;&gt;Node18 -->
<g id="edge28" class="edge"><title>Node19&#45;&gt;Node18</title>
<path fill="none" stroke="midnightblue" d="M634.606,-278.372C607.628,-266.958 559.878,-246.756 528.841,-233.625"/>
<polygon fill="midnightblue" stroke="midnightblue" points="529.973,-230.304 519.399,-229.63 527.245,-236.75 529.973,-230.304"/>
</g>
<!-- Node20 -->
<g id="node20" class="node"><title>Node20</title>
<polygon fill="none" stroke="#bfbfbf" points="577.5,-210.5 577.5,-229.5 636.5,-229.5 636.5,-210.5 577.5,-210.5"/>
<text text-anchor="middle" x="607" y="-217.5" font-family="Helvetica,sans-Serif" font-size="10.00">exception</text>
</g>
<!-- Node19&#45;&gt;Node20 -->
<g id="edge25" class="edge"><title>Node19&#45;&gt;Node20</title>
<path fill="none" stroke="midnightblue" d="M648.725,-278.372C641.292,-268.151 628.734,-250.884 619.332,-237.957"/>
<polygon fill="midnightblue" stroke="midnightblue" points="622.142,-235.87 613.43,-229.841 616.481,-239.987 622.142,-235.87"/>
</g>
<!-- Node21 -->
<g id="node21" class="node"><title>Node21</title>
<polygon fill="none" stroke="#bfbfbf" points="654.5,-210.5 654.5,-229.5 689.5,-229.5 689.5,-210.5 654.5,-210.5"/>
<text text-anchor="middle" x="672" y="-217.5" font-family="Helvetica,sans-Serif" font-size="10.00">map</text>
</g>
<!-- Node19&#45;&gt;Node21 -->
<g id="edge26" class="edge"><title>Node19&#45;&gt;Node21</title>
<path fill="none" stroke="midnightblue" d="M657.222,-278.372C659.728,-268.643 663.879,-252.528 667.145,-239.85"/>
<polygon fill="midnightblue" stroke="midnightblue" points="670.618,-240.398 669.723,-229.841 663.839,-238.652 670.618,-240.398"/>
</g>
<!-- Node22 -->
<g id="node22" class="node"><title>Node22</title>
<polygon fill="none" stroke="#bfbfbf" points="329,-210.5 329,-229.5 381,-229.5 381,-210.5 329,-210.5"/>
<text text-anchor="middle" x="355" y="-217.5" font-family="Helvetica,sans-Serif" font-size="10.00">sstream</text>
</g>
<!-- Node19&#45;&gt;Node22 -->
<g id="edge27" class="edge"><title>Node19&#45;&gt;Node22</title>
<path fill="none" stroke="midnightblue" d="M590.066,-278.484C535.828,-270.43 456.854,-256.498 390,-236 387.511,-235.237 384.96,-234.354 382.425,-233.405"/>
<polygon fill="midnightblue" stroke="midnightblue" points="383.471,-230.053 372.889,-229.542 380.842,-236.541 383.471,-230.053"/>
</g>
<!-- Node23 -->
<g id="node23" class="node"><title>Node23</title>
<g id="a_node23"><a xlink:href="../../dd/d76/Cartesian3D_8h.html" target="_top" xlink:title="MathUtils/Cartesian3D.h">
<polygon fill="none" stroke="black" points="698.5,-142.5 698.5,-161.5 823.5,-161.5 823.5,-142.5 698.5,-142.5"/>
<text text-anchor="middle" x="761" y="-149.5" font-family="Helvetica,sans-Serif" font-size="10.00">MathUtils/Cartesian3D.h</text>
</a>
</g>
</g>
<!-- Node19&#45;&gt;Node23 -->
<g id="edge29" class="edge"><title>Node19&#45;&gt;Node23</title>
<path fill="none" stroke="midnightblue" d="M625.534,-278.339C605.418,-270.716 580.272,-257.42 568,-236 560.93,-223.66 559.323,-215.268 568,-204 582.905,-184.645 639.92,-171.142 688.147,-162.914"/>
<polygon fill="midnightblue" stroke="midnightblue" points="688.992,-166.322 698.287,-161.238 687.85,-159.416 688.992,-166.322"/>
</g>
<!-- Node23&#45;&gt;Node9 -->
<g id="edge35" class="edge"><title>Node23&#45;&gt;Node9</title>
<path fill="none" stroke="midnightblue" d="M823.521,-143.748C941.782,-130.031 1195.02,-100.657 1291.55,-89.4603"/>
<polygon fill="midnightblue" stroke="midnightblue" points="1292.2,-92.9085 1301.73,-88.2796 1291.39,-85.9552 1292.2,-92.9085"/>
</g>
<!-- Node24 -->
<g id="node24" class="node"><title>Node24</title>
<polygon fill="none" stroke="#bfbfbf" points="960.5,-69 960.5,-99 1111.5,-99 1111.5,-69 960.5,-69"/>
<text text-anchor="start" x="968.5" y="-87" font-family="Helvetica,sans-Serif" font-size="10.00">Math/GenVector/Displacement</text>
<text text-anchor="middle" x="1036" y="-76" font-family="Helvetica,sans-Serif" font-size="10.00">Vector3D.h</text>
</g>
<!-- Node23&#45;&gt;Node24 -->
<g id="edge30" class="edge"><title>Node23&#45;&gt;Node24</title>
<path fill="none" stroke="midnightblue" d="M796.67,-142.439C839.834,-132.08 913.459,-114.41 967.677,-101.397"/>
<polygon fill="midnightblue" stroke="midnightblue" points="968.657,-104.762 977.564,-99.0247 967.023,-97.9552 968.657,-104.762"/>
</g>
<!-- Node25 -->
<g id="node25" class="node"><title>Node25</title>
<polygon fill="none" stroke="#bfbfbf" points="10,-74.5 10,-93.5 186,-93.5 186,-74.5 10,-74.5"/>
<text text-anchor="middle" x="98" y="-81.5" font-family="Helvetica,sans-Serif" font-size="10.00">Math/GenVector/PositionVector3D.h</text>
</g>
<!-- Node23&#45;&gt;Node25 -->
<g id="edge31" class="edge"><title>Node23&#45;&gt;Node25</title>
<path fill="none" stroke="midnightblue" d="M698.352,-146.708C593.68,-139.237 376.704,-122.466 194,-100 182.604,-98.5987 170.482,-96.8823 158.826,-95.1173"/>
<polygon fill="midnightblue" stroke="midnightblue" points="159.148,-91.6258 148.732,-93.5604 158.081,-98.544 159.148,-91.6258"/>
</g>
<!-- Node26 -->
<g id="node26" class="node"><title>Node26</title>
<polygon fill="none" stroke="#bfbfbf" points="203.5,-74.5 203.5,-93.5 352.5,-93.5 352.5,-74.5 203.5,-74.5"/>
<text text-anchor="middle" x="278" y="-81.5" font-family="Helvetica,sans-Serif" font-size="10.00">Math/GenVector/Rotation3D.h</text>
</g>
<!-- Node23&#45;&gt;Node26 -->
<g id="edge32" class="edge"><title>Node23&#45;&gt;Node26</title>
<path fill="none" stroke="midnightblue" d="M698.322,-143.962C619.628,-134.903 480.559,-118.151 362,-100 352.653,-98.569 342.746,-96.9192 333.138,-95.2485"/>
<polygon fill="midnightblue" stroke="midnightblue" points="333.726,-91.7983 323.27,-93.5083 332.51,-98.6919 333.726,-91.7983"/>
</g>
<!-- Node27 -->
<g id="node27" class="node"><title>Node27</title>
<polygon fill="none" stroke="#bfbfbf" points="371,-74.5 371,-93.5 527,-93.5 527,-74.5 371,-74.5"/>
<text text-anchor="middle" x="449" y="-81.5" font-family="Helvetica,sans-Serif" font-size="10.00">Math/GenVector/Transform3D.h</text>
</g>
<!-- Node23&#45;&gt;Node27 -->
<g id="edge33" class="edge"><title>Node23&#45;&gt;Node27</title>
<path fill="none" stroke="midnightblue" d="M720.531,-142.439C663.835,-130.446 560.821,-108.654 499.275,-95.6351"/>
<polygon fill="midnightblue" stroke="midnightblue" points="499.905,-92.191 489.397,-93.5455 498.456,-99.0394 499.905,-92.191"/>
</g>
<!-- Node28 -->
<g id="node28" class="node"><title>Node28</title>
<polygon fill="none" stroke="#bfbfbf" points="545,-74.5 545,-93.5 705,-93.5 705,-74.5 545,-74.5"/>
<text text-anchor="middle" x="625" y="-81.5" font-family="Helvetica,sans-Serif" font-size="10.00">Math/GenVector/Translation3D.h</text>
</g>
<!-- Node23&#45;&gt;Node28 -->
<g id="edge34" class="edge"><title>Node23&#45;&gt;Node28</title>
<path fill="none" stroke="midnightblue" d="M743.22,-142.372C720.007,-131.106 679.151,-111.279 652.077,-98.1403"/>
<polygon fill="midnightblue" stroke="midnightblue" points="653.309,-94.8477 642.784,-93.6305 650.252,-101.145 653.309,-94.8477"/>
</g>
<!-- Node29 -->
<g id="node29" class="node"><title>Node29</title>
<polygon fill="none" stroke="#bfbfbf" points="723,-74.5 723,-93.5 799,-93.5 799,-74.5 723,-74.5"/>
<text text-anchor="middle" x="761" y="-81.5" font-family="Helvetica,sans-Serif" font-size="10.00">TGeoMatrix.h</text>
</g>
<!-- Node23&#45;&gt;Node29 -->
<g id="edge36" class="edge"><title>Node23&#45;&gt;Node29</title>
<path fill="none" stroke="midnightblue" d="M761,-142.372C761,-132.643 761,-116.528 761,-103.85"/>
<polygon fill="midnightblue" stroke="midnightblue" points="764.5,-103.841 761,-93.8411 757.5,-103.841 764.5,-103.841"/>
</g>
<!-- Node30 -->
<g id="node30" class="node"><title>Node30</title>
<polygon fill="none" stroke="#bfbfbf" points="1129.5,-74.5 1129.5,-93.5 1174.5,-93.5 1174.5,-74.5 1129.5,-74.5"/>
<text text-anchor="middle" x="1152" y="-81.5" font-family="Helvetica,sans-Serif" font-size="10.00">iosfwd</text>
</g>
<!-- Node23&#45;&gt;Node30 -->
<g id="edge37" class="edge"><title>Node23&#45;&gt;Node30</title>
<path fill="none" stroke="midnightblue" d="M823.819,-147.73C896.444,-142.662 1018.95,-130.125 1120,-100 1122.28,-99.3197 1124.61,-98.5008 1126.91,-97.6011"/>
<polygon fill="midnightblue" stroke="midnightblue" points="1128.32,-100.804 1136.09,-93.5951 1125.52,-94.3883 1128.32,-100.804"/>
</g>
<!-- Node31 -->
<g id="node31" class="node"><title>Node31</title>
<g id="a_node31"><a xlink:href="../../d2/dd0/Cartesian2D_8h.html" target="_top" xlink:title="MathUtils/Cartesian2D.h">
<polygon fill="none" stroke="black" points="817.5,-74.5 817.5,-93.5 942.5,-93.5 942.5,-74.5 817.5,-74.5"/>
<text text-anchor="middle" x="880" y="-81.5" font-family="Helvetica,sans-Serif" font-size="10.00">MathUtils/Cartesian2D.h</text>
</a>
</g>
</g>
<!-- Node23&#45;&gt;Node31 -->
<g id="edge38" class="edge"><title>Node23&#45;&gt;Node31</title>
<path fill="none" stroke="midnightblue" d="M776.557,-142.372C796.691,-131.205 831.991,-111.627 855.681,-98.4876"/>
<polygon fill="midnightblue" stroke="midnightblue" points="857.392,-101.541 864.439,-93.6305 853.996,-95.4199 857.392,-101.541"/>
</g>
<!-- Node32 -->
<g id="node32" class="node"><title>Node32</title>
<polygon fill="none" stroke="#bfbfbf" points="713.5,-1 713.5,-31 864.5,-31 864.5,-1 713.5,-1"/>
<text text-anchor="start" x="721.5" y="-19" font-family="Helvetica,sans-Serif" font-size="10.00">Math/GenVector/Displacement</text>
<text text-anchor="middle" x="789" y="-8" font-family="Helvetica,sans-Serif" font-size="10.00">Vector2D.h</text>
</g>
<!-- Node31&#45;&gt;Node32 -->
<g id="edge39" class="edge"><title>Node31&#45;&gt;Node32</title>
<path fill="none" stroke="midnightblue" d="M868.103,-74.3717C855.221,-65.0286 834.22,-49.7966 817.093,-37.375"/>
<polygon fill="midnightblue" stroke="midnightblue" points="818.703,-34.2194 808.553,-31.1815 814.593,-39.8859 818.703,-34.2194"/>
</g>
<!-- Node33 -->
<g id="node33" class="node"><title>Node33</title>
<polygon fill="none" stroke="#bfbfbf" points="883,-6.5 883,-25.5 1059,-25.5 1059,-6.5 883,-6.5"/>
<text text-anchor="middle" x="971" y="-13.5" font-family="Helvetica,sans-Serif" font-size="10.00">Math/GenVector/PositionVector2D.h</text>
</g>
<!-- Node31&#45;&gt;Node33 -->
<g id="edge40" class="edge"><title>Node31&#45;&gt;Node33</title>
<path fill="none" stroke="midnightblue" d="M891.897,-74.3717C906.884,-63.5015 932.862,-44.6602 950.942,-31.5474"/>
<polygon fill="midnightblue" stroke="midnightblue" points="953.06,-34.3349 959.1,-25.6305 948.95,-28.6684 953.06,-34.3349"/>
</g>
<!-- Node34&#45;&gt;Node14 -->
<g id="edge43" class="edge"><title>Node34&#45;&gt;Node14</title>
<path fill="none" stroke="midnightblue" d="M494.536,-340.996C503.801,-323.831 515.795,-294.284 504,-272 494.887,-254.782 477.065,-242.295 461.081,-233.987"/>
<polygon fill="midnightblue" stroke="midnightblue" points="462.488,-230.78 451.962,-229.575 459.439,-237.081 462.488,-230.78"/>
</g>
<!-- Node34&#45;&gt;Node22 -->
<g id="edge44" class="edge"><title>Node34&#45;&gt;Node22</title>
<path fill="none" stroke="midnightblue" d="M408.403,-342.23C386.918,-334.736 365.96,-322.85 353,-304 339.954,-285.026 343.969,-257.412 348.832,-239.329"/>
<polygon fill="midnightblue" stroke="midnightblue" points="352.202,-240.278 351.748,-229.693 345.502,-238.251 352.202,-240.278"/>
</g>
<!-- Node35 -->
<g id="node35" class="node"><title>Node35</title>
<g id="a_node35"><a xlink:href="../../d6/db4/ClusterShape_8h.html" target="_top" xlink:title="Cluster shape class for the ALPIDE response simulation. ">
<polygon fill="none" stroke="black" points="362.5,-273 362.5,-303 495.5,-303 495.5,-273 362.5,-273"/>
<text text-anchor="start" x="370.5" y="-291" font-family="Helvetica,sans-Serif" font-size="10.00">ITSMFTSimulation/Cluster</text>
<text text-anchor="middle" x="429" y="-280" font-family="Helvetica,sans-Serif" font-size="10.00">Shape.h</text>
</a>
</g>
</g>
<!-- Node34&#45;&gt;Node35 -->
<g id="edge45" class="edge"><title>Node34&#45;&gt;Node35</title>
<path fill="none" stroke="midnightblue" d="M473.632,-340.679C466.162,-332.03 456.489,-320.829 448.058,-311.067"/>
<polygon fill="midnightblue" stroke="midnightblue" points="450.529,-308.574 441.344,-303.293 445.231,-313.149 450.529,-308.574"/>
</g>
<!-- Node35&#45;&gt;Node6 -->
<g id="edge49" class="edge"><title>Node35&#45;&gt;Node6</title>
<path fill="none" stroke="midnightblue" d="M397.679,-272.841C372.086,-261.272 336.214,-245.055 311.436,-233.855"/>
<polygon fill="midnightblue" stroke="midnightblue" points="312.759,-230.612 302.205,-229.682 309.876,-236.99 312.759,-230.612"/>
</g>
<!-- Node35&#45;&gt;Node14 -->
<g id="edge46" class="edge"><title>Node35&#45;&gt;Node14</title>
<path fill="none" stroke="midnightblue" d="M429,-272.679C429,-263.101 429,-250.394 429,-239.977"/>
<polygon fill="midnightblue" stroke="midnightblue" points="432.5,-239.828 429,-229.828 425.5,-239.828 432.5,-239.828"/>
</g>
<!-- Node35&#45;&gt;Node18 -->
<g id="edge48" class="edge"><title>Node35&#45;&gt;Node18</title>
<path fill="none" stroke="midnightblue" d="M444.189,-272.679C455.428,-262.082 470.73,-247.655 482.31,-236.736"/>
<polygon fill="midnightblue" stroke="midnightblue" points="484.762,-239.235 489.637,-229.828 479.96,-234.142 484.762,-239.235"/>
</g>
<!-- Node35&#45;&gt;Node22 -->
<g id="edge47" class="edge"><title>Node35&#45;&gt;Node22</title>
<path fill="none" stroke="midnightblue" d="M412.943,-272.679C401.062,-262.082 384.885,-247.655 372.644,-236.736"/>
<polygon fill="midnightblue" stroke="midnightblue" points="374.691,-233.872 364.898,-229.828 370.032,-239.097 374.691,-233.872"/>
</g>
<!-- Node36&#45;&gt;Node9 -->
<g id="edge54" class="edge"><title>Node36&#45;&gt;Node9</title>
<path fill="none" stroke="midnightblue" d="M1111.02,-282.648C1164.62,-277.045 1243.7,-264.379 1307,-236 1352.75,-215.49 1374.66,-212.881 1397,-168 1403.34,-155.268 1403.32,-148.743 1397,-136 1388.91,-119.668 1372.8,-107.147 1358.41,-98.5985"/>
<polygon fill="midnightblue" stroke="midnightblue" points="1359.75,-95.3373 1349.3,-93.5547 1356.36,-101.461 1359.75,-95.3373"/>
</g>
<!-- Node36&#45;&gt;Node10 -->
<g id="edge53" class="edge"><title>Node36&#45;&gt;Node10</title>
<path fill="none" stroke="midnightblue" d="M1055.05,-278.208C1066.83,-257.718 1096.41,-206.243 1113.75,-176.058"/>
<polygon fill="midnightblue" stroke="midnightblue" points="1116.97,-177.486 1118.91,-167.071 1110.9,-173.998 1116.97,-177.486"/>
</g>
<!-- Node36&#45;&gt;Node30 -->
<g id="edge56" class="edge"><title>Node36&#45;&gt;Node30</title>
<path fill="none" stroke="midnightblue" d="M1048,-278.287C1042.85,-253.666 1031.52,-182.358 1061,-136 1064.92,-129.834 1100.06,-111.174 1125.5,-98.2236"/>
<polygon fill="midnightblue" stroke="midnightblue" points="1127.35,-101.213 1134.69,-93.5775 1124.19,-94.9657 1127.35,-101.213"/>
</g>
<!-- Node37 -->
<g id="node37" class="node"><title>Node37</title>
<g id="a_node37"><a xlink:href="../../d4/d25/BaseHits_8h.html" target="_top" xlink:title="SimulationDataFormat\l/BaseHits.h">
<polygon fill="none" stroke="black" points="862,-205 862,-235 976,-235 976,-205 862,-205"/>
<text text-anchor="start" x="870" y="-223" font-family="Helvetica,sans-Serif" font-size="10.00">SimulationDataFormat</text>
<text text-anchor="middle" x="919" y="-212" font-family="Helvetica,sans-Serif" font-size="10.00">/BaseHits.h</text>
</a>
</g>
</g>
<!-- Node36&#45;&gt;Node37 -->
<g id="edge51" class="edge"><title>Node36&#45;&gt;Node37</title>
<path fill="none" stroke="midnightblue" d="M1032.87,-278.372C1013.48,-268.6 981.298,-252.387 956.085,-239.684"/>
<polygon fill="midnightblue" stroke="midnightblue" points="957.653,-236.555 947.148,-235.181 954.504,-242.807 957.653,-236.555"/>
</g>
<!-- Node38 -->
<g id="node38" class="node"><title>Node38</title>
<polygon fill="none" stroke="#bfbfbf" points="1233.5,-210.5 1233.5,-229.5 1298.5,-229.5 1298.5,-210.5 1233.5,-210.5"/>
<text text-anchor="middle" x="1266" y="-217.5" font-family="Helvetica,sans-Serif" font-size="10.00">TVector3.h</text>
</g>
<!-- Node36&#45;&gt;Node38 -->
<g id="edge55" class="edge"><title>Node36&#45;&gt;Node38</title>
<path fill="none" stroke="midnightblue" d="M1081.28,-278.42C1116.24,-268.695 1174.45,-252.095 1224,-236 1226.92,-235.05 1229.95,-234.034 1232.98,-232.994"/>
<polygon fill="midnightblue" stroke="midnightblue" points="1234.25,-236.258 1242.54,-229.651 1231.94,-229.651 1234.25,-236.258"/>
</g>
<!-- Node37&#45;&gt;Node23 -->
<g id="edge52" class="edge"><title>Node37&#45;&gt;Node23</title>
<path fill="none" stroke="midnightblue" d="M885.105,-204.841C857.163,-193.169 817.899,-176.768 791.064,-165.558"/>
<polygon fill="midnightblue" stroke="midnightblue" points="792.36,-162.307 781.784,-161.682 789.662,-168.766 792.36,-162.307"/>
</g>
<!-- Node39&#45;&gt;Node9 -->
<g id="edge58" class="edge"><title>Node39&#45;&gt;Node9</title>
<path fill="none" stroke="midnightblue" d="M1631.37,-278.227C1646.17,-252.825 1684.09,-178.339 1648,-136 1612.45,-94.2922 1444.88,-86.5548 1368.32,-85.2185"/>
<polygon fill="midnightblue" stroke="midnightblue" points="1368.2,-81.7164 1358.15,-85.0696 1368.1,-88.7157 1368.2,-81.7164"/>
</g>
</g>
</svg>
