<?xml version="1.0" encoding="UTF-8" standalone="no"?>
<!DOCTYPE svg PUBLIC "-//W3C//DTD SVG 1.1//EN"
 "http://www.w3.org/Graphics/SVG/1.1/DTD/svg11.dtd">
<!-- Generated by graphviz version 2.36.0 (20140111.2315)
 -->
<!-- Title: o2::header::DataHeader Pages: 1 -->
<!--zoomable 1040 -->
<svg id="main" version="1.1" xmlns="http://www.w3.org/2000/svg" xmlns:xlink="http://www.w3.org/1999/xlink" xml:space="preserve" onload="init(evt)">
<style type="text/css"><![CDATA[
.edge:hover path { stroke: red; }
.edge:hover polygon { stroke: red; fill: red; }
]]></style>
<script type="text/javascript"><![CDATA[
var edges = document.getElementsByTagName('g');
if (edges && edges.length) {
  for (var i=0;i<edges.length;i++) {
    if (edges[i].id.substr(0,4)=='edge') {
      edges[i].setAttribute('class','edge');
    }
  }
}
]]></script>
        <defs>
                <circle id="rim" cx="0" cy="0" r="7"/>
                <circle id="rim2" cx="0" cy="0" r="3.5"/>
                <g id="zoomPlus">
                        <use xlink:href="#rim" fill="#404040">
                                <set attributeName="fill" to="#808080" begin="zoomplus.mouseover" end="zoomplus.mouseout"/>
                        </use>
                        <path d="M-4,0h8M0,-4v8" fill="none" stroke="white" stroke-width="1.5" pointer-events="none"/>
                </g>
                <g id="zoomMin">
                        <use xlink:href="#rim" fill="#404040">
                                <set attributeName="fill" to="#808080" begin="zoomminus.mouseover" end="zoomminus.mouseout"/>
                        </use>
                        <path d="M-4,0h8" fill="none" stroke="white" stroke-width="1.5" pointer-events="none"/>
                </g>
                <g id="dirArrow">
                        <path fill="none" stroke="white" stroke-width="1.5" d="M0,-3.0v7 M-2.5,-0.5L0,-3.0L2.5,-0.5"/>
                </g>
               <g id="resetDef">
                       <use xlink:href="#rim2" fill="#404040">
                               <set attributeName="fill" to="#808080" begin="reset.mouseover" end="reset.mouseout"/>
                       </use>
               </g>
        </defs>

<script type="text/javascript">
var viewWidth = 1221;
var viewHeight = 1040;
var sectionId = 'dynsection-1';
</script>
<script xlink:href="../../svgpan.js"/>
<svg id="graph" class="graph">
<g id="viewport">
<title>o2::header::DataHeader</title>
<!-- Node1 -->
<g id="node1" class="node"><title>Node1</title>
<polygon fill="#bfbfbf" stroke="black" points="728.968,-1 728.968,-157 849.968,-157 849.968,-1 728.968,-1"/>
<text text-anchor="middle" x="789.468" y="-145" font-family="Helvetica,sans-Serif" font-size="10.00">o2::header::DataHeader</text>
<polyline fill="none" stroke="black" points="728.968,-138 849.968,-138 "/>
<text text-anchor="middle" x="789.468" y="-126" font-family="Helvetica,sans-Serif" font-size="10.00"> </text>
<polyline fill="none" stroke="black" points="728.968,-119 849.968,-119 "/>
<text text-anchor="start" x="736.968" y="-107" font-family="Helvetica,sans-Serif" font-size="10.00">+ DataHeader()</text>
<text text-anchor="start" x="736.968" y="-96" font-family="Helvetica,sans-Serif" font-size="10.00">+ DataHeader()</text>
<text text-anchor="start" x="736.968" y="-85" font-family="Helvetica,sans-Serif" font-size="10.00">+ DataHeader()</text>
<text text-anchor="start" x="736.968" y="-74" font-family="Helvetica,sans-Serif" font-size="10.00">+ operator=()</text>
<text text-anchor="start" x="736.968" y="-63" font-family="Helvetica,sans-Serif" font-size="10.00">+ operator==()</text>
<text text-anchor="start" x="736.968" y="-52" font-family="Helvetica,sans-Serif" font-size="10.00">+ operator==()</text>
<text text-anchor="start" x="736.968" y="-41" font-family="Helvetica,sans-Serif" font-size="10.00">+ operator==()</text>
<text text-anchor="start" x="736.968" y="-30" font-family="Helvetica,sans-Serif" font-size="10.00">+ operator==()</text>
<text text-anchor="start" x="736.968" y="-19" font-family="Helvetica,sans-Serif" font-size="10.00">+ print()</text>
<text text-anchor="start" x="736.968" y="-8" font-family="Helvetica,sans-Serif" font-size="10.00">+ Get()</text>
</g>
<!-- Node2 -->
<g id="node2" class="node"><title>Node2</title>
<g id="a_node2"><a xlink:href="../../d8/dbd/structo2_1_1header_1_1BaseHeader.html" target="_top" xlink:title="the base header struct Every header type must begin (i.e. derive) with this. Don&#39;t use this struct di...">
<polygon fill="none" stroke="black" points="428.468,-216.5 428.468,-339.5 550.468,-339.5 550.468,-216.5 428.468,-216.5"/>
<text text-anchor="middle" x="489.468" y="-327.5" font-family="Helvetica,sans-Serif" font-size="10.00">o2::header::BaseHeader</text>
<polyline fill="none" stroke="black" points="428.468,-320.5 550.468,-320.5 "/>
<text text-anchor="middle" x="489.468" y="-308.5" font-family="Helvetica,sans-Serif" font-size="10.00"> </text>
<polyline fill="none" stroke="black" points="428.468,-301.5 550.468,-301.5 "/>
<text text-anchor="start" x="436.468" y="-289.5" font-family="Helvetica,sans-Serif" font-size="10.00">+ BaseHeader()</text>
<text text-anchor="start" x="436.468" y="-278.5" font-family="Helvetica,sans-Serif" font-size="10.00">+ BaseHeader()</text>
<text text-anchor="start" x="436.468" y="-267.5" font-family="Helvetica,sans-Serif" font-size="10.00">+ BaseHeader()</text>
<text text-anchor="start" x="436.468" y="-256.5" font-family="Helvetica,sans-Serif" font-size="10.00">+ size()</text>
<text text-anchor="start" x="436.468" y="-245.5" font-family="Helvetica,sans-Serif" font-size="10.00">+ data()</text>
<text text-anchor="start" x="436.468" y="-234.5" font-family="Helvetica,sans-Serif" font-size="10.00">+ next()</text>
<text text-anchor="start" x="436.468" y="-223.5" font-family="Helvetica,sans-Serif" font-size="10.00">+ get()</text>
</a>
</g>
</g>
<!-- Node2&#45;&gt;Node1 -->
<g id="edge1" class="edge"><title>Node2&#45;&gt;Node1</title>
<path fill="none" stroke="midnightblue" d="M558.944,-231.377C610.309,-197.648 679.579,-152.161 728.739,-119.879"/>
<polygon fill="none" stroke="midnightblue" points="556.977,-228.482 550.539,-236.897 560.819,-234.333 556.977,-228.482"/>
</g>
<!-- Node3 -->
<g id="node3" class="node"><title>Node3</title>
<g id="a_node3"><a xlink:href="../../d9/db3/structo2_1_1header_1_1Descriptor.html" target="_top" xlink:title="{o2::header::Descriptor\l\&lt; gSizeHeaderDescriptionString \&gt;\n||+ Descriptor()\l+ Descriptor()\l+ Descriptor()\l+ Descriptor()\l+ operator=()\l+ operator ItgType()\l+ runtimeInit()\l+ operator==()\l+ operator==()\l+ operator!=()\l+ operator!=()\l+ print()\l}">
<polygon fill="none" stroke="black" points="487.468,-464.5 487.468,-653.5 653.468,-653.5 653.468,-464.5 487.468,-464.5"/>
<text text-anchor="start" x="495.468" y="-641.5" font-family="Helvetica,sans-Serif" font-size="10.00">o2::header::Descriptor</text>
<text text-anchor="middle" x="570.468" y="-630.5" font-family="Helvetica,sans-Serif" font-size="10.00">&lt; gSizeHeaderDescriptionString &gt;</text>
<polyline fill="none" stroke="black" points="487.468,-623.5 653.468,-623.5 "/>
<text text-anchor="middle" x="570.468" y="-611.5" font-family="Helvetica,sans-Serif" font-size="10.00"> </text>
<polyline fill="none" stroke="black" points="487.468,-604.5 653.468,-604.5 "/>
<text text-anchor="start" x="495.468" y="-592.5" font-family="Helvetica,sans-Serif" font-size="10.00">+ Descriptor()</text>
<text text-anchor="start" x="495.468" y="-581.5" font-family="Helvetica,sans-Serif" font-size="10.00">+ Descriptor()</text>
<text text-anchor="start" x="495.468" y="-570.5" font-family="Helvetica,sans-Serif" font-size="10.00">+ Descriptor()</text>
<text text-anchor="start" x="495.468" y="-559.5" font-family="Helvetica,sans-Serif" font-size="10.00">+ Descriptor()</text>
<text text-anchor="start" x="495.468" y="-548.5" font-family="Helvetica,sans-Serif" font-size="10.00">+ operator=()</text>
<text text-anchor="start" x="495.468" y="-537.5" font-family="Helvetica,sans-Serif" font-size="10.00">+ operator ItgType()</text>
<text text-anchor="start" x="495.468" y="-526.5" font-family="Helvetica,sans-Serif" font-size="10.00">+ runtimeInit()</text>
<text text-anchor="start" x="495.468" y="-515.5" font-family="Helvetica,sans-Serif" font-size="10.00">+ operator==()</text>
<text text-anchor="start" x="495.468" y="-504.5" font-family="Helvetica,sans-Serif" font-size="10.00">+ operator==()</text>
<text text-anchor="start" x="495.468" y="-493.5" font-family="Helvetica,sans-Serif" font-size="10.00">+ operator!=()</text>
<text text-anchor="start" x="495.468" y="-482.5" font-family="Helvetica,sans-Serif" font-size="10.00">+ operator!=()</text>
<text text-anchor="start" x="495.468" y="-471.5" font-family="Helvetica,sans-Serif" font-size="10.00">+ print()</text>
</a>
</g>
</g>
<!-- Node3&#45;&gt;Node2 -->
<g id="edge2" class="edge"><title>Node3&#45;&gt;Node2</title>
<path fill="none" stroke="#404040" d="M531.481,-464.308C529.336,-458.151 527.309,-452.011 525.468,-446 516.117,-415.467 508.264,-381.078 502.303,-351.476"/>
<polygon fill="none" stroke="#404040" points="502.27,-351.31 497.184,-346.197 499.948,-339.537 505.033,-344.649 502.27,-351.31"/>
<text text-anchor="middle" x="553.968" y="-399.5" font-family="Helvetica,sans-Serif" font-size="10.00"> +description</text>
</g>
<!-- Node4 -->
<g id="node4" class="node"><title>Node4</title>
<polygon fill="none" stroke="#bfbfbf" points="431.468,-973.5 431.468,-1030.5 469.468,-1030.5 469.468,-973.5 431.468,-973.5"/>
<text text-anchor="middle" x="450.468" y="-1018.5" font-family="Helvetica,sans-Serif" font-size="10.00">Type</text>
<polyline fill="none" stroke="#bfbfbf" points="431.468,-1011.5 469.468,-1011.5 "/>
<text text-anchor="middle" x="450.468" y="-999.5" font-family="Helvetica,sans-Serif" font-size="10.00"> </text>
<polyline fill="none" stroke="#bfbfbf" points="431.468,-992.5 469.468,-992.5 "/>
<text text-anchor="middle" x="450.468" y="-980.5" font-family="Helvetica,sans-Serif" font-size="10.00"> </text>
</g>
<!-- Node4&#45;&gt;Node3 -->
<g id="edge3" class="edge"><title>Node4&#45;&gt;Node3</title>
<path fill="none" stroke="#404040" d="M469.694,-977.192C484.298,-957.969 503.798,-929.658 515.468,-902 549.088,-822.319 498.616,-775.37 557.468,-712 576.414,-691.6 600.849,-716.336 617.468,-694 623.85,-685.422 626.721,-675.905 627.087,-666.013"/>
<polygon fill="none" stroke="#404040" points="627.074,-665.778 622.724,-660.027 626.36,-653.8 630.71,-659.551 627.074,-665.778"/>
<text text-anchor="middle" x="567.468" y="-804.5" font-family="Helvetica,sans-Serif" font-size="10.00"> +itg</text>
</g>
<!-- Node8 -->
<g id="node8" class="node"><title>Node8</title>
<g id="a_node8"><a xlink:href="../../d9/db3/structo2_1_1header_1_1Descriptor.html" target="_top" xlink:title="{o2::header::Descriptor\l\&lt; N, PrinterPolicy \&gt;\n||+ Descriptor()\l+ Descriptor()\l+ Descriptor()\l+ operator=()\l+ operator ItgType()\l+ Descriptor()\l+ runtimeInit()\l+ operator==()\l+ operator!=()\l+ operator==()\l+ operator!=()\l+ print()\l}">
<polygon fill="none" stroke="black" points="393.968,-712.5 393.968,-901.5 506.968,-901.5 506.968,-712.5 393.968,-712.5"/>
<text text-anchor="start" x="401.968" y="-889.5" font-family="Helvetica,sans-Serif" font-size="10.00">o2::header::Descriptor</text>
<text text-anchor="middle" x="450.468" y="-878.5" font-family="Helvetica,sans-Serif" font-size="10.00">&lt; N, PrinterPolicy &gt;</text>
<polyline fill="none" stroke="black" points="393.968,-871.5 506.968,-871.5 "/>
<text text-anchor="middle" x="450.468" y="-859.5" font-family="Helvetica,sans-Serif" font-size="10.00"> </text>
<polyline fill="none" stroke="black" points="393.968,-852.5 506.968,-852.5 "/>
<text text-anchor="start" x="401.968" y="-840.5" font-family="Helvetica,sans-Serif" font-size="10.00">+ Descriptor()</text>
<text text-anchor="start" x="401.968" y="-829.5" font-family="Helvetica,sans-Serif" font-size="10.00">+ Descriptor()</text>
<text text-anchor="start" x="401.968" y="-818.5" font-family="Helvetica,sans-Serif" font-size="10.00">+ Descriptor()</text>
<text text-anchor="start" x="401.968" y="-807.5" font-family="Helvetica,sans-Serif" font-size="10.00">+ operator=()</text>
<text text-anchor="start" x="401.968" y="-796.5" font-family="Helvetica,sans-Serif" font-size="10.00">+ operator ItgType()</text>
<text text-anchor="start" x="401.968" y="-785.5" font-family="Helvetica,sans-Serif" font-size="10.00">+ Descriptor()</text>
<text text-anchor="start" x="401.968" y="-774.5" font-family="Helvetica,sans-Serif" font-size="10.00">+ runtimeInit()</text>
<text text-anchor="start" x="401.968" y="-763.5" font-family="Helvetica,sans-Serif" font-size="10.00">+ operator==()</text>
<text text-anchor="start" x="401.968" y="-752.5" font-family="Helvetica,sans-Serif" font-size="10.00">+ operator!=()</text>
<text text-anchor="start" x="401.968" y="-741.5" font-family="Helvetica,sans-Serif" font-size="10.00">+ operator==()</text>
<text text-anchor="start" x="401.968" y="-730.5" font-family="Helvetica,sans-Serif" font-size="10.00">+ operator!=()</text>
<text text-anchor="start" x="401.968" y="-719.5" font-family="Helvetica,sans-Serif" font-size="10.00">+ print()</text>
</a>
</g>
</g>
<!-- Node4&#45;&gt;Node8 -->
<g id="edge8" class="edge"><title>Node4&#45;&gt;Node8</title>
<path fill="none" stroke="#404040" d="M450.468,-973.348C450.468,-957.342 450.468,-936.063 450.468,-914.114"/>
<polygon fill="none" stroke="#404040" points="450.468,-913.881 446.468,-907.881 450.468,-901.881 454.468,-907.881 450.468,-913.881"/>
<text text-anchor="middle" x="460.468" y="-934.5" font-family="Helvetica,sans-Serif" font-size="10.00"> +itg</text>
</g>
<!-- Node10 -->
<g id="node10" class="node"><title>Node10</title>
<g id="a_node10"><a xlink:href="../../d9/db3/structo2_1_1header_1_1Descriptor.html" target="_top" xlink:title="{o2::header::Descriptor\l\&lt; gSizeSerializationMethodString \&gt;\n||+ Descriptor()\l+ Descriptor()\l+ Descriptor()\l+ Descriptor()\l+ operator=()\l+ operator ItgType()\l+ runtimeInit()\l+ operator==()\l+ operator==()\l+ operator!=()\l+ operator!=()\l+ print()\l}">
<polygon fill="none" stroke="black" points="166.468,-464.5 166.468,-653.5 336.468,-653.5 336.468,-464.5 166.468,-464.5"/>
<text text-anchor="start" x="174.468" y="-641.5" font-family="Helvetica,sans-Serif" font-size="10.00">o2::header::Descriptor</text>
<text text-anchor="middle" x="251.468" y="-630.5" font-family="Helvetica,sans-Serif" font-size="10.00">&lt; gSizeSerializationMethodString &gt;</text>
<polyline fill="none" stroke="black" points="166.468,-623.5 336.468,-623.5 "/>
<text text-anchor="middle" x="251.468" y="-611.5" font-family="Helvetica,sans-Serif" font-size="10.00"> </text>
<polyline fill="none" stroke="black" points="166.468,-604.5 336.468,-604.5 "/>
<text text-anchor="start" x="174.468" y="-592.5" font-family="Helvetica,sans-Serif" font-size="10.00">+ Descriptor()</text>
<text text-anchor="start" x="174.468" y="-581.5" font-family="Helvetica,sans-Serif" font-size="10.00">+ Descriptor()</text>
<text text-anchor="start" x="174.468" y="-570.5" font-family="Helvetica,sans-Serif" font-size="10.00">+ Descriptor()</text>
<text text-anchor="start" x="174.468" y="-559.5" font-family="Helvetica,sans-Serif" font-size="10.00">+ Descriptor()</text>
<text text-anchor="start" x="174.468" y="-548.5" font-family="Helvetica,sans-Serif" font-size="10.00">+ operator=()</text>
<text text-anchor="start" x="174.468" y="-537.5" font-family="Helvetica,sans-Serif" font-size="10.00">+ operator ItgType()</text>
<text text-anchor="start" x="174.468" y="-526.5" font-family="Helvetica,sans-Serif" font-size="10.00">+ runtimeInit()</text>
<text text-anchor="start" x="174.468" y="-515.5" font-family="Helvetica,sans-Serif" font-size="10.00">+ operator==()</text>
<text text-anchor="start" x="174.468" y="-504.5" font-family="Helvetica,sans-Serif" font-size="10.00">+ operator==()</text>
<text text-anchor="start" x="174.468" y="-493.5" font-family="Helvetica,sans-Serif" font-size="10.00">+ operator!=()</text>
<text text-anchor="start" x="174.468" y="-482.5" font-family="Helvetica,sans-Serif" font-size="10.00">+ operator!=()</text>
<text text-anchor="start" x="174.468" y="-471.5" font-family="Helvetica,sans-Serif" font-size="10.00">+ print()</text>
</a>
</g>
</g>
<!-- Node4&#45;&gt;Node10 -->
<g id="edge17" class="edge"><title>Node4&#45;&gt;Node10</title>
<path fill="none" stroke="#404040" d="M431.311,-996.242C394.819,-986.042 315.99,-958.281 282.468,-902 240.361,-831.307 234.646,-737.435 238.321,-665.924"/>
<polygon fill="none" stroke="#404040" points="238.333,-665.725 234.698,-659.497 239.048,-653.746 242.683,-659.974 238.333,-665.725"/>
<text text-anchor="middle" x="292.468" y="-804.5" font-family="Helvetica,sans-Serif" font-size="10.00"> +itg</text>
</g>
<!-- Node5 -->
<g id="node5" class="node"><title>Node5</title>
<polygon fill="none" stroke="#bfbfbf" points="44.968,-973 44.968,-1031 73.968,-1031 73.968,-973 44.968,-973"/>
<polyline fill="none" stroke="#bfbfbf" points="44.968,-1011 73.968,-1011 "/>
<text text-anchor="middle" x="59.468" y="-999" font-family="Helvetica,sans-Serif" font-size="10.00"> </text>
<polyline fill="none" stroke="#bfbfbf" points="44.968,-992 73.968,-992 "/>
<text text-anchor="middle" x="59.468" y="-980" font-family="Helvetica,sans-Serif" font-size="10.00"> </text>
</g>
<!-- Node5&#45;&gt;Node2 -->
<g id="edge12" class="edge"><title>Node5&#45;&gt;Node2</title>
<path fill="none" stroke="#404040" d="M50.5572,-972.898C48.9219,-966.729 47.4299,-960.191 46.468,-954 42.917,-931.146 44.9125,-925.124 44.468,-902 42.8449,-817.571 31.2549,-795.404 44.468,-712 57.7013,-628.468 102.436,-539.393 157.468,-464 197.875,-408.642 207.375,-387.014 269.468,-358 328.241,-330.537 357.356,-364.355 416.667,-342.464"/>
<polygon fill="none" stroke="#404040" points="417.029,-342.313 421.031,-336.314 428.107,-337.701 424.106,-343.7 417.029,-342.313"/>
<text text-anchor="middle" x="68.968" y="-680.5" font-family="Helvetica,sans-Serif" font-size="10.00"> +@11</text>
</g>
<!-- Node5&#45;&gt;Node2 -->
<g id="edge14" class="edge"><title>Node5&#45;&gt;Node2</title>
<path fill="none" stroke="#404040" d="M46.654,-972.83C44.2813,-966.723 42.0546,-960.226 40.468,-954 34.723,-931.456 36.9698,-925.13 34.468,-902 13.5117,-708.261 -39.9794,-634.452 54.468,-464 87.8424,-403.768 104.365,-385.563 167.468,-358 268.316,-313.95 315.416,-380.288 416.843,-342.371"/>
<polygon fill="none" stroke="#404040" points="417.026,-342.297 421.09,-336.34 428.152,-337.8 424.088,-343.757 417.026,-342.297"/>
<text text-anchor="middle" x="18.968" y="-680.5" font-family="Helvetica,sans-Serif" font-size="10.00"> +@13</text>
</g>
<!-- Node5&#45;&gt;Node3 -->
<g id="edge4" class="edge"><title>Node5&#45;&gt;Node3</title>
<path fill="none" stroke="#404040" d="M74.2206,-994.246C101.433,-980.927 159.149,-948.479 185.468,-902 227.408,-827.935 162.886,-783.237 209.468,-712 275.166,-611.529 364.92,-702.023 476.073,-656.536"/>
<polygon fill="none" stroke="#404040" points="476.298,-656.436 480.137,-650.332 487.248,-651.528 483.409,-657.632 476.298,-656.436"/>
<text text-anchor="middle" x="221.968" y="-804.5" font-family="Helvetica,sans-Serif" font-size="10.00"> +@9</text>
</g>
<!-- Node5&#45;&gt;Node8 -->
<g id="edge9" class="edge"><title>Node5&#45;&gt;Node8</title>
<path fill="none" stroke="#404040" d="M74.2033,-996.716C135.315,-978.912 366.259,-911.271 379.468,-902 381.194,-900.788 382.897,-899.522 384.574,-898.207"/>
<polygon fill="none" stroke="#404040" points="384.804,-898.009 386.749,-891.065 393.906,-890.189 391.962,-897.133 384.804,-898.009"/>
<text text-anchor="middle" x="339.968" y="-934.5" font-family="Helvetica,sans-Serif" font-size="10.00"> +@9</text>
</g>
<!-- Node5&#45;&gt;Node10 -->
<g id="edge18" class="edge"><title>Node5&#45;&gt;Node10</title>
<path fill="none" stroke="#404040" d="M54.8523,-972.926C47.3882,-919.115 37.5089,-799.069 80.468,-712 97.7539,-676.965 126.999,-646.414 156.461,-622.073"/>
<polygon fill="none" stroke="#404040" points="156.667,-621.909 158.838,-615.032 166.02,-614.391 163.849,-621.268 156.667,-621.909"/>
<text text-anchor="middle" x="92.968" y="-804.5" font-family="Helvetica,sans-Serif" font-size="10.00"> +@9</text>
</g>
<!-- Node6 -->
<g id="node6" class="node"><title>Node6</title>
<polygon fill="none" stroke="#bfbfbf" points="612.968,-973.5 612.968,-1030.5 647.968,-1030.5 647.968,-973.5 612.968,-973.5"/>
<text text-anchor="middle" x="630.468" y="-1018.5" font-family="Helvetica,sans-Serif" font-size="10.00">char</text>
<polyline fill="none" stroke="#bfbfbf" points="612.968,-1011.5 647.968,-1011.5 "/>
<text text-anchor="middle" x="630.468" y="-999.5" font-family="Helvetica,sans-Serif" font-size="10.00"> </text>
<polyline fill="none" stroke="#bfbfbf" points="612.968,-992.5 647.968,-992.5 "/>
<text text-anchor="middle" x="630.468" y="-980.5" font-family="Helvetica,sans-Serif" font-size="10.00"> </text>
</g>
<!-- Node6&#45;&gt;Node2 -->
<g id="edge15" class="edge"><title>Node6&#45;&gt;Node2</title>
<path fill="none" stroke="#404040" d="M648.177,-976.849C661.018,-957.662 677.187,-929.562 683.468,-902 694.294,-854.495 692.38,-502.46 662.468,-464 647.454,-444.695 627.542,-463.51 610.468,-446 581.814,-416.615 605.212,-392.165 582.468,-358 575.953,-348.213 567.891,-338.956 559.26,-330.46"/>
<polygon fill="none" stroke="#404040" points="559.231,-330.433 552.118,-329.248 550.476,-322.226 557.589,-323.411 559.231,-330.433"/>
<text text-anchor="middle" x="719.968" y="-680.5" font-family="Helvetica,sans-Serif" font-size="10.00"> +magicString</text>
</g>
<!-- Node6&#45;&gt;Node3 -->
<g id="edge5" class="edge"><title>Node6&#45;&gt;Node3</title>
<path fill="none" stroke="#404040" d="M637.24,-973.407C650.11,-915.931 674.117,-779.76 642.468,-672 641.796,-669.713 641.062,-667.428 640.271,-665.149"/>
<polygon fill="none" stroke="#404040" points="640.216,-665.009 634.316,-660.864 635.872,-653.823 641.773,-657.968 640.216,-665.009"/>
<text text-anchor="middle" x="668.968" y="-804.5" font-family="Helvetica,sans-Serif" font-size="10.00"> +str</text>
</g>
<!-- Node6&#45;&gt;Node8 -->
<g id="edge10" class="edge"><title>Node6&#45;&gt;Node8</title>
<path fill="none" stroke="#404040" d="M612.838,-988.292C600.574,-979.19 584.053,-966.399 570.468,-954 550.924,-936.162 531.784,-915.073 514.734,-894.552"/>
<polygon fill="none" stroke="#404040" points="514.658,-894.459 507.762,-892.353 507.053,-885.177 513.95,-887.283 514.658,-894.459"/>
<text text-anchor="middle" x="580.968" y="-934.5" font-family="Helvetica,sans-Serif" font-size="10.00"> +str</text>
</g>
<!-- Node6&#45;&gt;Node10 -->
<g id="edge19" class="edge"><title>Node6&#45;&gt;Node10</title>
<path fill="none" stroke="#404040" d="M629.243,-973.228C625.788,-908.199 613.734,-748.774 577.468,-712 548.519,-682.645 526.035,-705.584 486.468,-694 460.805,-686.487 456.021,-679.881 430.468,-672 396.057,-661.386 383.254,-670.924 351.468,-654 349.891,-653.16 348.32,-652.289 346.757,-651.389"/>
<polygon fill="none" stroke="#404040" points="346.753,-651.386 339.546,-651.618 336.559,-645.055 343.767,-644.823 346.753,-651.386"/>
<text text-anchor="middle" x="634.968" y="-804.5" font-family="Helvetica,sans-Serif" font-size="10.00"> +str</text>
</g>
<!-- Node7 -->
<g id="node7" class="node"><title>Node7</title>
<polygon fill="none" stroke="#bfbfbf" points="309.968,-973.5 309.968,-1030.5 338.968,-1030.5 338.968,-973.5 309.968,-973.5"/>
<text text-anchor="middle" x="324.468" y="-1018.5" font-family="Helvetica,sans-Serif" font-size="10.00">int</text>
<polyline fill="none" stroke="#bfbfbf" points="309.968,-1011.5 338.968,-1011.5 "/>
<text text-anchor="middle" x="324.468" y="-999.5" font-family="Helvetica,sans-Serif" font-size="10.00"> </text>
<polyline fill="none" stroke="#bfbfbf" points="309.968,-992.5 338.968,-992.5 "/>
<text text-anchor="middle" x="324.468" y="-980.5" font-family="Helvetica,sans-Serif" font-size="10.00"> </text>
</g>
<!-- Node7&#45;&gt;Node3 -->
<g id="edge6" class="edge"><title>Node7&#45;&gt;Node3</title>
<path fill="none" stroke="#404040" d="M324.867,-973.036C325.368,-909.781 324.2,-757.663 302.468,-712 297.469,-701.497 288.064,-704.686 283.468,-694 279.604,-685.018 276.873,-679.219 283.468,-672 311.137,-641.716 423.469,-668.653 475.646,-655.616"/>
<polygon fill="none" stroke="#404040" points="475.929,-655.516 480.255,-649.747 487.245,-651.521 482.919,-657.29 475.929,-655.516"/>
<text text-anchor="middle" x="349.968" y="-815.5" font-family="Helvetica,sans-Serif" font-size="10.00"> +arraySize</text>
<text text-anchor="middle" x="349.968" y="-804.5" font-family="Helvetica,sans-Serif" font-size="10.00">+size</text>
<text text-anchor="middle" x="349.968" y="-793.5" font-family="Helvetica,sans-Serif" font-size="10.00">+bitcount</text>
</g>
<!-- Node7&#45;&gt;Node8 -->
<g id="edge11" class="edge"><title>Node7&#45;&gt;Node8</title>
<path fill="none" stroke="#404040" d="M339.168,-978.483C351.252,-959.974 369.26,-932.39 387.288,-904.775"/>
<polygon fill="none" stroke="#404040" points="387.36,-904.665 387.291,-897.455 393.92,-894.617 393.989,-901.828 387.36,-904.665"/>
<text text-anchor="middle" x="401.968" y="-945.5" font-family="Helvetica,sans-Serif" font-size="10.00"> +arraySize</text>
<text text-anchor="middle" x="401.968" y="-934.5" font-family="Helvetica,sans-Serif" font-size="10.00">+size</text>
<text text-anchor="middle" x="401.968" y="-923.5" font-family="Helvetica,sans-Serif" font-size="10.00">+bitcount</text>
</g>
<!-- Node7&#45;&gt;Node10 -->
<g id="edge20" class="edge"><title>Node7&#45;&gt;Node10</title>
<path fill="none" stroke="#404040" d="M309.843,-998.795C272.132,-992.214 171.932,-968.839 134.468,-902 93.1789,-828.338 107.264,-791.942 134.468,-712 140.408,-694.544 149.253,-677.528 159.467,-661.579"/>
<polygon fill="none" stroke="#404040" points="159.695,-661.237 159.701,-654.026 166.36,-651.258 166.354,-658.469 159.695,-661.237"/>
<text text-anchor="middle" x="159.968" y="-815.5" font-family="Helvetica,sans-Serif" font-size="10.00"> +arraySize</text>
<text text-anchor="middle" x="159.968" y="-804.5" font-family="Helvetica,sans-Serif" font-size="10.00">+size</text>
<text text-anchor="middle" x="159.968" y="-793.5" font-family="Helvetica,sans-Serif" font-size="10.00">+bitcount</text>
</g>
<!-- Node8&#45;&gt;Node1 -->
<g id="edge28" class="edge"><title>Node8&#45;&gt;Node1</title>
<path fill="none" stroke="#404040" d="M507.153,-715.015C508.564,-713.964 510.002,-712.958 511.468,-712 552.941,-684.906 573.184,-705.081 621.468,-694 654.91,-686.325 662.343,-680.947 695.468,-672 728.145,-663.174 748.092,-680.244 769.468,-654 799.261,-617.421 795.935,-321.233 792.174,-169.262"/>
<polygon fill="none" stroke="#404040" points="792.174,-169.237 788.023,-163.34 791.869,-157.24 796.02,-163.137 792.174,-169.237"/>
<text text-anchor="middle" x="843.968" y="-405" font-family="Helvetica,sans-Serif" font-size="10.00"> +sHeaderType</text>
<text text-anchor="middle" x="843.968" y="-394" font-family="Helvetica,sans-Serif" font-size="10.00">+sSerializationMethod</text>
</g>
<!-- Node8&#45;&gt;Node2 -->
<g id="edge22" class="edge"><title>Node8&#45;&gt;Node2</title>
<path fill="none" stroke="#404040" d="M446.247,-712.379C442.202,-697.741 435.948,-683.634 426.468,-672 412.861,-655.302 393.544,-671.837 381.468,-654 334.126,-584.074 359.416,-545.514 381.468,-464 392.379,-423.669 414.512,-383.109 435.916,-350.287"/>
<polygon fill="none" stroke="#404040" points="436.173,-349.901 436.17,-342.69 442.825,-339.913 442.829,-347.124 436.173,-349.901"/>
<text text-anchor="middle" x="429.968" y="-562" font-family="Helvetica,sans-Serif" font-size="10.00"> +sHeaderType</text>
<text text-anchor="middle" x="429.968" y="-551" font-family="Helvetica,sans-Serif" font-size="10.00">+sSerializationMethod</text>
</g>
<!-- Node8&#45;&gt;Node3 -->
<g id="edge7" class="edge"><title>Node8&#45;&gt;Node3</title>
<path fill="none" stroke="orange" d="M485.573,-702.967C489.943,-692.374 494.599,-681.882 499.468,-672 502.47,-665.908 505.722,-659.732 509.128,-653.574"/>
<polygon fill="orange" stroke="orange" points="482.308,-701.706 481.808,-712.289 488.799,-704.327 482.308,-701.706"/>
<text text-anchor="start" x="499.468" y="-686" font-family="Helvetica,sans-Serif" font-size="10.00"> &lt; gSizeHeaderDescription</text>
<text text-anchor="middle" x="558.468" y="-675" font-family="Helvetica,sans-Serif" font-size="10.00">String &gt;</text>
</g>
<!-- Node8&#45;&gt;Node10 -->
<g id="edge21" class="edge"><title>Node8&#45;&gt;Node10</title>
<path fill="none" stroke="orange" d="M385.863,-716.513C383.773,-714.927 381.641,-713.418 379.468,-712 350.399,-693.028 329.643,-716.8 303.468,-694 290.955,-683.1 281.434,-668.821 274.195,-653.654"/>
<polygon fill="orange" stroke="orange" points="383.771,-719.324 393.711,-722.992 388.227,-713.926 383.771,-719.324"/>
<text text-anchor="start" x="303.468" y="-686" font-family="Helvetica,sans-Serif" font-size="10.00"> &lt; gSizeSerializationMethod</text>
<text text-anchor="middle" x="364.968" y="-675" font-family="Helvetica,sans-Serif" font-size="10.00">String &gt;</text>
</g>
<!-- Node9 -->
<g id="node9" class="node"><title>Node9</title>
<polygon fill="none" stroke="#bfbfbf" points="709.968,-530.5 709.968,-587.5 760.968,-587.5 760.968,-530.5 709.968,-530.5"/>
<text text-anchor="middle" x="735.468" y="-575.5" font-family="Helvetica,sans-Serif" font-size="10.00">uint32_t</text>
<polyline fill="none" stroke="#bfbfbf" points="709.968,-568.5 760.968,-568.5 "/>
<text text-anchor="middle" x="735.468" y="-556.5" font-family="Helvetica,sans-Serif" font-size="10.00"> </text>
<polyline fill="none" stroke="#bfbfbf" points="709.968,-549.5 760.968,-549.5 "/>
<text text-anchor="middle" x="735.468" y="-537.5" font-family="Helvetica,sans-Serif" font-size="10.00"> </text>
</g>
<!-- Node9&#45;&gt;Node1 -->
<g id="edge23" class="edge"><title>Node9&#45;&gt;Node1</title>
<path fill="none" stroke="#404040" d="M730.623,-530.106C721.329,-471.258 703.986,-330.403 728.468,-216 731.867,-200.117 737.266,-183.848 743.48,-168.336"/>
<polygon fill="none" stroke="#404040" points="743.509,-168.264 742.129,-161.187 748.132,-157.19 749.512,-164.268 743.509,-168.264"/>
<text text-anchor="middle" x="751.968" y="-281" font-family="Helvetica,sans-Serif" font-size="10.00"> +reserved</text>
<text text-anchor="middle" x="751.968" y="-270" font-family="Helvetica,sans-Serif" font-size="10.00">+sVersion</text>
</g>
<!-- Node9&#45;&gt;Node2 -->
<g id="edge13" class="edge"><title>Node9&#45;&gt;Node2</title>
<path fill="none" stroke="#404040" d="M730.448,-530.299C725.218,-509.236 714.947,-481.061 695.468,-464 672.918,-444.25 651.51,-467.35 630.468,-446 602.091,-417.209 630.898,-390.942 607.468,-358 595.344,-340.954 578.294,-326.529 560.916,-314.861"/>
<polygon fill="none" stroke="#404040" points="560.788,-314.779 553.578,-314.913 550.681,-308.31 557.89,-308.175 560.788,-314.779"/>
<text text-anchor="middle" x="670.468" y="-438" font-family="Helvetica,sans-Serif" font-size="10.00"> +headerVersion</text>
<text text-anchor="middle" x="670.468" y="-427" font-family="Helvetica,sans-Serif" font-size="10.00">+headerSize</text>
<text text-anchor="middle" x="670.468" y="-416" font-family="Helvetica,sans-Serif" font-size="10.00">+sMagicString</text>
<text text-anchor="middle" x="670.468" y="-405" font-family="Helvetica,sans-Serif" font-size="10.00">+flagsNextHeader</text>
<text text-anchor="middle" x="670.468" y="-394" font-family="Helvetica,sans-Serif" font-size="10.00">+magicStringInt</text>
<text text-anchor="middle" x="670.468" y="-383" font-family="Helvetica,sans-Serif" font-size="10.00">+flagsUnused</text>
<text text-anchor="middle" x="670.468" y="-372" font-family="Helvetica,sans-Serif" font-size="10.00">+flags</text>
<text text-anchor="middle" x="670.468" y="-361" font-family="Helvetica,sans-Serif" font-size="10.00">+sVersion</text>
</g>
<!-- Node10&#45;&gt;Node1 -->
<g id="edge27" class="edge"><title>Node10&#45;&gt;Node1</title>
<path fill="none" stroke="#404040" d="M235.314,-464.375C227.831,-388.236 231.171,-282.826 290.468,-216 346.846,-152.464 592.45,-108.557 716.786,-89.9693"/>
<polygon fill="none" stroke="#404040" points="716.921,-89.9494 722.273,-85.116 728.793,-88.1968 723.441,-93.0302 716.921,-89.9494"/>
<text text-anchor="middle" x="354.968" y="-275.5" font-family="Helvetica,sans-Serif" font-size="10.00"> +payloadSerializationMethod</text>
</g>
<!-- Node10&#45;&gt;Node2 -->
<g id="edge16" class="edge"><title>Node10&#45;&gt;Node2</title>
<path fill="none" stroke="#404040" d="M268.28,-464.24C277.746,-416.141 289.275,-365.961 297.468,-358 326.723,-329.572 349.41,-354.682 387.468,-340 397.576,-336.101 407.829,-331.234 417.741,-325.962"/>
<polygon fill="none" stroke="#404040" points="417.837,-325.91 421.155,-319.508 428.341,-320.109 425.023,-326.511 417.837,-325.91"/>
<text text-anchor="middle" x="327.968" y="-399.5" font-family="Helvetica,sans-Serif" font-size="10.00"> +serialization</text>
</g>
<!-- Node11 -->
<g id="node11" class="node"><title>Node11</title>
<polygon fill="none" stroke="#bfbfbf" points="817.968,-249.5 817.968,-306.5 868.968,-306.5 868.968,-249.5 817.968,-249.5"/>
<text text-anchor="middle" x="843.468" y="-294.5" font-family="Helvetica,sans-Serif" font-size="10.00">uint64_t</text>
<polyline fill="none" stroke="#bfbfbf" points="817.968,-287.5 868.968,-287.5 "/>
<text text-anchor="middle" x="843.468" y="-275.5" font-family="Helvetica,sans-Serif" font-size="10.00"> </text>
<polyline fill="none" stroke="#bfbfbf" points="817.968,-268.5 868.968,-268.5 "/>
<text text-anchor="middle" x="843.468" y="-256.5" font-family="Helvetica,sans-Serif" font-size="10.00"> </text>
</g>
<!-- Node11&#45;&gt;Node1 -->
<g id="edge24" class="edge"><title>Node11&#45;&gt;Node1</title>
<path fill="none" stroke="#404040" d="M835.846,-249.193C830.096,-228.219 821.87,-198.206 813.937,-169.267"/>
<polygon fill="none" stroke="#404040" points="813.855,-168.966 808.411,-164.236 810.682,-157.392 816.126,-162.122 813.855,-168.966"/>
<text text-anchor="middle" x="860.968" y="-190" font-family="Helvetica,sans-Serif" font-size="10.00"> +payloadSize</text>
<text text-anchor="middle" x="860.968" y="-179" font-family="Helvetica,sans-Serif" font-size="10.00">+subSpecification</text>
</g>
<!-- Node12 -->
<g id="node12" class="node"><title>Node12</title>
<polygon fill="none" stroke="#bfbfbf" points="887.468,-244 887.468,-312 1029.47,-312 1029.47,-244 887.468,-244"/>
<text text-anchor="start" x="895.468" y="-300" font-family="Helvetica,sans-Serif" font-size="10.00">Descriptor&lt; gSizeDataOrigin</text>
<text text-anchor="middle" x="958.468" y="-289" font-family="Helvetica,sans-Serif" font-size="10.00">String, printDataOrigin &gt;</text>
<polyline fill="none" stroke="#bfbfbf" points="887.468,-282 1029.47,-282 "/>
<text text-anchor="middle" x="958.468" y="-270" font-family="Helvetica,sans-Serif" font-size="10.00"> </text>
<polyline fill="none" stroke="#bfbfbf" points="887.468,-263 1029.47,-263 "/>
<text text-anchor="middle" x="958.468" y="-251" font-family="Helvetica,sans-Serif" font-size="10.00"> </text>
</g>
<!-- Node12&#45;&gt;Node1 -->
<g id="edge25" class="edge"><title>Node12&#45;&gt;Node1</title>
<path fill="none" stroke="#404040" d="M944.609,-243.663C935.083,-222.971 921.16,-196.511 904.468,-176 891.431,-159.981 875.417,-144.662 859.526,-131.151"/>
<polygon fill="none" stroke="#404040" points="859.439,-131.079 852.268,-130.323 850.207,-123.412 857.378,-124.168 859.439,-131.079"/>
<text text-anchor="middle" x="946.468" y="-184.5" font-family="Helvetica,sans-Serif" font-size="10.00"> +dataOrigin</text>
</g>
<!-- Node13 -->
<g id="node13" class="node"><title>Node13</title>
<polygon fill="none" stroke="#bfbfbf" points="1047.47,-244 1047.47,-312 1213.47,-312 1213.47,-244 1047.47,-244"/>
<text text-anchor="start" x="1055.47" y="-300" font-family="Helvetica,sans-Serif" font-size="10.00">Descriptor&lt; gSizeDataDescription</text>
<text text-anchor="middle" x="1130.47" y="-289" font-family="Helvetica,sans-Serif" font-size="10.00">String, printDataDescription &gt;</text>
<polyline fill="none" stroke="#bfbfbf" points="1047.47,-282 1213.47,-282 "/>
<text text-anchor="middle" x="1130.47" y="-270" font-family="Helvetica,sans-Serif" font-size="10.00"> </text>
<polyline fill="none" stroke="#bfbfbf" points="1047.47,-263 1213.47,-263 "/>
<text text-anchor="middle" x="1130.47" y="-251" font-family="Helvetica,sans-Serif" font-size="10.00"> </text>
</g>
<!-- Node13&#45;&gt;Node1 -->
<g id="edge26" class="edge"><title>Node13&#45;&gt;Node1</title>
<path fill="none" stroke="#404040" d="M1080.36,-243.712C1066.78,-234.704 1052.07,-224.967 1038.47,-216 1011.4,-198.153 1005.5,-192.285 977.468,-176 939.703,-154.062 896.358,-131.746 860.812,-114.157"/>
<polygon fill="none" stroke="#404040" points="860.812,-114.157 853.662,-115.095 850.046,-108.856 857.196,-107.918 860.812,-114.157"/>
<text text-anchor="middle" x="1050.47" y="-184.5" font-family="Helvetica,sans-Serif" font-size="10.00"> +dataDescription</text>
</g>
</g>
</svg>
        <g id="navigator" transform="translate(0 0)" fill="#404254">
                <rect fill="#f2f5e9" fill-opacity="0.5" stroke="#606060" stroke-width=".5" x="0" y="0" width="60" height="60"/>
                <use id="zoomplus" xlink:href="#zoomPlus" x="17" y="9" onmousedown="handleZoom(evt,'in')"/>
                <use id="zoomminus" xlink:href="#zoomMin" x="42" y="9" onmousedown="handleZoom(evt,'out')"/>
                <use id="reset" xlink:href="#resetDef" x="30" y="36" onmousedown="handleReset()"/>
                <g id="arrowUp" xlink:href="#dirArrow" transform="translate(30 24)" onmousedown="handlePan(0,-1)">
                  <use xlink:href="#rim" fill="#404040">
                        <set attributeName="fill" to="#808080" begin="arrowUp.mouseover" end="arrowUp.mouseout"/>
                  </use>
                  <path fill="none" stroke="white" stroke-width="1.5" d="M0,-3.0v7 M-2.5,-0.5L0,-3.0L2.5,-0.5"/>
                </g>
                <g id="arrowRight" xlink:href="#dirArrow" transform="rotate(90) translate(36 -43)" onmousedown="handlePan(1,0)">
                  <use xlink:href="#rim" fill="#404040">
                        <set attributeName="fill" to="#808080" begin="arrowRight.mouseover" end="arrowRight.mouseout"/>
                  </use>
                  <path fill="none" stroke="white" stroke-width="1.5" d="M0,-3.0v7 M-2.5,-0.5L0,-3.0L2.5,-0.5"/>
                </g>
                <g id="arrowDown" xlink:href="#dirArrow" transform="rotate(180) translate(-30 -48)" onmousedown="handlePan(0,1)">
                  <use xlink:href="#rim" fill="#404040">
                        <set attributeName="fill" to="#808080" begin="arrowDown.mouseover" end="arrowDown.mouseout"/>
                  </use>
                  <path fill="none" stroke="white" stroke-width="1.5" d="M0,-3.0v7 M-2.5,-0.5L0,-3.0L2.5,-0.5"/>
                </g>
                <g id="arrowLeft" xlink:href="#dirArrow" transform="rotate(270) translate(-36 17)" onmousedown="handlePan(-1,0)">
                  <use xlink:href="#rim" fill="#404040">
                        <set attributeName="fill" to="#808080" begin="arrowLeft.mouseover" end="arrowLeft.mouseout"/>
                  </use>
                  <path fill="none" stroke="white" stroke-width="1.5" d="M0,-3.0v7 M-2.5,-0.5L0,-3.0L2.5,-0.5"/>
                </g>
        </g>
        <svg viewBox="0 0 15 15" width="100%" height="30px" preserveAspectRatio="xMaxYMin meet">
         <g id="arrow_out" transform="scale(0.3 0.3)">
          <a xlink:href="structo2_1_1header_1_1DataHeader__coll__graph_org.svg" target="_base">
           <rect id="button" ry="5" rx="5" y="6" x="6" height="38" width="38"
                fill="#f2f5e9" fill-opacity="0.5" stroke="#606060" stroke-width="1.0"/>
           <path id="arrow"
             d="M 11.500037,31.436501 C 11.940474,20.09759 22.043105,11.32322 32.158766,21.979434 L 37.068811,17.246167 C 37.068811,17.246167 37.088388,32 37.088388,32 L 22.160133,31.978069 C 22.160133,31.978069 26.997745,27.140456 26.997745,27.140456 C 18.528582,18.264221 13.291696,25.230495 11.500037,31.436501 z"
             style="fill:#404040;"/>
          </a>
         </g>
        </svg>
</svg>
