<?xml version="1.0" encoding="UTF-8" standalone="no"?>
<!DOCTYPE svg PUBLIC "-//W3C//DTD SVG 1.1//EN"
 "http://www.w3.org/Graphics/SVG/1.1/DTD/svg11.dtd">
<!-- Generated by graphviz version 2.36.0 (20140111.2315)
 -->
<!-- Title: /home/travis/build/AliceO2Group/AliceO2/Detectors/ITSMFT/common/reconstruction/include/ITSMFTReconstruction/Clusterer.h Pages: 1 -->
<!--zoomable 468 -->
<svg id="main" version="1.1" xmlns="http://www.w3.org/2000/svg" xmlns:xlink="http://www.w3.org/1999/xlink" xml:space="preserve" onload="init(evt)">
<style type="text/css"><![CDATA[
.edge:hover path { stroke: red; }
.edge:hover polygon { stroke: red; fill: red; }
]]></style>
<script type="text/javascript"><![CDATA[
var edges = document.getElementsByTagName('g');
if (edges && edges.length) {
  for (var i=0;i<edges.length;i++) {
    if (edges[i].id.substr(0,4)=='edge') {
      edges[i].setAttribute('class','edge');
    }
  }
}
]]></script>
        <defs>
                <circle id="rim" cx="0" cy="0" r="7"/>
                <circle id="rim2" cx="0" cy="0" r="3.5"/>
                <g id="zoomPlus">
                        <use xlink:href="#rim" fill="#404040">
                                <set attributeName="fill" to="#808080" begin="zoomplus.mouseover" end="zoomplus.mouseout"/>
                        </use>
                        <path d="M-4,0h8M0,-4v8" fill="none" stroke="white" stroke-width="1.5" pointer-events="none"/>
                </g>
                <g id="zoomMin">
                        <use xlink:href="#rim" fill="#404040">
                                <set attributeName="fill" to="#808080" begin="zoomminus.mouseover" end="zoomminus.mouseout"/>
                        </use>
                        <path d="M-4,0h8" fill="none" stroke="white" stroke-width="1.5" pointer-events="none"/>
                </g>
                <g id="dirArrow">
                        <path fill="none" stroke="white" stroke-width="1.5" d="M0,-3.0v7 M-2.5,-0.5L0,-3.0L2.5,-0.5"/>
                </g>
               <g id="resetDef">
                       <use xlink:href="#rim2" fill="#404040">
                               <set attributeName="fill" to="#808080" begin="reset.mouseover" end="reset.mouseout"/>
                       </use>
               </g>
        </defs>

<script type="text/javascript">
var viewWidth = 1954;
var viewHeight = 468;
var sectionId = 'dynsection-0';
</script>
<script xlink:href="../../svgpan.js"/>
<svg id="graph" class="graph">
<g id="viewport">
<title>/home/travis/build/AliceO2Group/AliceO2/Detectors/ITSMFT/common/reconstruction/include/ITSMFTReconstruction/Clusterer.h</title>
<!-- Node1 -->
<g id="node1" class="node"><title>Node1</title>
<polygon fill="#bfbfbf" stroke="black" points="957.5,-396.5 957.5,-459.5 1130.5,-459.5 1130.5,-396.5 957.5,-396.5"/>
<text text-anchor="start" x="965.5" y="-447.5" font-family="Helvetica,sans-Serif" font-size="10.00">/home/travis/build</text>
<text text-anchor="start" x="965.5" y="-436.5" font-family="Helvetica,sans-Serif" font-size="10.00">/AliceO2Group/AliceO2</text>
<text text-anchor="start" x="965.5" y="-425.5" font-family="Helvetica,sans-Serif" font-size="10.00">/Detectors/ITSMFT/common</text>
<text text-anchor="start" x="965.5" y="-414.5" font-family="Helvetica,sans-Serif" font-size="10.00">/reconstruction/include</text>
<text text-anchor="middle" x="1044" y="-403.5" font-family="Helvetica,sans-Serif" font-size="10.00">/ITSMFTReconstruction/Clusterer.h</text>
</g>
<!-- Node2 -->
<g id="node2" class="node"><title>Node2</title>
<polygon fill="none" stroke="#bfbfbf" points="727,-340.5 727,-359.5 767,-359.5 767,-340.5 727,-340.5"/>
<text text-anchor="middle" x="747" y="-347.5" font-family="Helvetica,sans-Serif" font-size="10.00">utility</text>
</g>
<!-- Node1&#45;&gt;Node2 -->
<g id="edge1" class="edge"><title>Node1&#45;&gt;Node2</title>
<path fill="none" stroke="midnightblue" d="M957.477,-405.174C906.152,-392.173 839.83,-375.28 781,-360 779.737,-359.672 778.447,-359.336 777.145,-358.995"/>
<polygon fill="midnightblue" stroke="midnightblue" points="777.689,-355.52 767.128,-356.361 775.909,-362.289 777.689,-355.52"/>
</g>
<!-- Node3 -->
<g id="node3" class="node"><title>Node3</title>
<polygon fill="none" stroke="#bfbfbf" points="0,-142.5 0,-161.5 44,-161.5 44,-142.5 0,-142.5"/>
<text text-anchor="middle" x="22" y="-149.5" font-family="Helvetica,sans-Serif" font-size="10.00">vector</text>
</g>
<!-- Node1&#45;&gt;Node3 -->
<g id="edge2" class="edge"><title>Node1&#45;&gt;Node3</title>
<path fill="none" stroke="midnightblue" d="M957.274,-397.123C905.036,-379.559 837.025,-357.449 776,-340 498.627,-260.69 158.363,-183.36 53.9587,-160.073"/>
<polygon fill="midnightblue" stroke="midnightblue" points="54.5701,-156.623 44.0485,-157.867 53.0491,-163.456 54.5701,-156.623"/>
</g>
<!-- Node4 -->
<g id="node4" class="node"><title>Node4</title>
<g id="a_node4"><a xlink:href="../../d0/d2d/common_2base_2include_2ITSMFTBase_2GeometryTGeo_8h.html" target="_top" xlink:title="ITSMFTBase/GeometryTGeo.h">
<polygon fill="none" stroke="black" points="874.5,-340.5 874.5,-359.5 1027.5,-359.5 1027.5,-340.5 874.5,-340.5"/>
<text text-anchor="middle" x="951" y="-347.5" font-family="Helvetica,sans-Serif" font-size="10.00">ITSMFTBase/GeometryTGeo.h</text>
</a>
</g>
</g>
<!-- Node1&#45;&gt;Node4 -->
<g id="edge3" class="edge"><title>Node1&#45;&gt;Node4</title>
<path fill="none" stroke="midnightblue" d="M1006.44,-396.307C993.838,-386.008 980.325,-374.964 969.795,-366.359"/>
<polygon fill="midnightblue" stroke="midnightblue" points="971.694,-363.392 961.736,-359.774 967.265,-368.812 971.694,-363.392"/>
</g>
<!-- Node11 -->
<g id="node11" class="node"><title>Node11</title>
<polygon fill="none" stroke="#bfbfbf" points="1701,-74.5 1701,-93.5 1757,-93.5 1757,-74.5 1701,-74.5"/>
<text text-anchor="middle" x="1729" y="-81.5" font-family="Helvetica,sans-Serif" font-size="10.00">Rtypes.h</text>
</g>
<!-- Node1&#45;&gt;Node11 -->
<g id="edge52" class="edge"><title>Node1&#45;&gt;Node11</title>
<path fill="none" stroke="midnightblue" d="M1130.74,-415.988C1252.4,-398.08 1459,-357.572 1459,-289 1459,-289 1459,-289 1459,-219 1459,-142.419 1541.17,-169.568 1610,-136 1639.3,-121.712 1673.59,-107.246 1697.82,-97.3884"/>
<polygon fill="midnightblue" stroke="midnightblue" points="1699.26,-100.581 1707.22,-93.5889 1696.63,-94.0911 1699.26,-100.581"/>
</g>
<!-- Node30 -->
<g id="node30" class="node"><title>Node30</title>
<g id="a_node30"><a xlink:href="../../d1/d62/DataFormats_2Detectors_2ITSMFT_2common_2include_2DataFormatsITSMFT_2Cluster_8h.html" target="_top" xlink:title="DataFormatsITSMFT/Cluster.h">
<polygon fill="none" stroke="black" points="1080,-340.5 1080,-359.5 1232,-359.5 1232,-340.5 1080,-340.5"/>
<text text-anchor="middle" x="1156" y="-347.5" font-family="Helvetica,sans-Serif" font-size="10.00">DataFormatsITSMFT/Cluster.h</text>
</a>
</g>
</g>
<!-- Node1&#45;&gt;Node30 -->
<g id="edge34" class="edge"><title>Node1&#45;&gt;Node30</title>
<path fill="none" stroke="midnightblue" d="M1089.23,-396.307C1104.86,-385.699 1121.66,-374.301 1134.5,-365.591"/>
<polygon fill="midnightblue" stroke="midnightblue" points="1136.76,-368.285 1143.07,-359.774 1132.83,-362.493 1136.76,-368.285"/>
</g>
<!-- Node35 -->
<g id="node35" class="node"><title>Node35</title>
<g id="a_node35"><a xlink:href="../../df/d2e/PixelReader_8h.html" target="_top" xlink:title="Definition of the ITS pixel reader. ">
<polygon fill="none" stroke="black" points="1559.5,-273 1559.5,-303 1678.5,-303 1678.5,-273 1559.5,-273"/>
<text text-anchor="start" x="1567.5" y="-291" font-family="Helvetica,sans-Serif" font-size="10.00">ITSMFTReconstruction</text>
<text text-anchor="middle" x="1619" y="-280" font-family="Helvetica,sans-Serif" font-size="10.00">/PixelReader.h</text>
</a>
</g>
</g>
<!-- Node1&#45;&gt;Node35 -->
<g id="edge43" class="edge"><title>Node1&#45;&gt;Node35</title>
<path fill="none" stroke="midnightblue" d="M1130.77,-421.058C1218.67,-413.284 1357.73,-396.134 1473,-360 1514.01,-347.143 1557.97,-324.41 1586.81,-308.129"/>
<polygon fill="midnightblue" stroke="midnightblue" points="1588.68,-311.093 1595.62,-303.09 1585.2,-305.016 1588.68,-311.093"/>
</g>
<!-- Node5 -->
<g id="node5" class="node"><title>Node5</title>
<polygon fill="none" stroke="#bfbfbf" points="963.5,-278.5 963.5,-297.5 1032.5,-297.5 1032.5,-278.5 963.5,-278.5"/>
<text text-anchor="middle" x="998" y="-285.5" font-family="Helvetica,sans-Serif" font-size="10.00">TObjArray.h</text>
</g>
<!-- Node4&#45;&gt;Node5 -->
<g id="edge4" class="edge"><title>Node4&#45;&gt;Node5</title>
<path fill="none" stroke="midnightblue" d="M957.734,-340.403C964.784,-331.403 976.035,-317.041 984.854,-305.782"/>
<polygon fill="midnightblue" stroke="midnightblue" points="987.867,-307.611 991.279,-297.581 982.357,-303.295 987.867,-307.611"/>
</g>
<!-- Node6 -->
<g id="node6" class="node"><title>Node6</title>
<polygon fill="none" stroke="#bfbfbf" points="865.5,-278.5 865.5,-297.5 906.5,-297.5 906.5,-278.5 865.5,-278.5"/>
<text text-anchor="middle" x="886" y="-285.5" font-family="Helvetica,sans-Serif" font-size="10.00">string</text>
</g>
<!-- Node4&#45;&gt;Node6 -->
<g id="edge5" class="edge"><title>Node4&#45;&gt;Node6</title>
<path fill="none" stroke="midnightblue" d="M941.687,-340.403C931.551,-331.047 915.136,-315.895 902.748,-304.46"/>
<polygon fill="midnightblue" stroke="midnightblue" points="905.018,-301.792 895.296,-297.581 900.27,-306.935 905.018,-301.792"/>
</g>
<!-- Node7 -->
<g id="node7" class="node"><title>Node7</title>
<g id="a_node7"><a xlink:href="../../d4/d20/DetMatrixCache_8h.html" target="_top" xlink:title="DetectorsCommonDataFormats\l/DetMatrixCache.h">
<polygon fill="none" stroke="black" points="823,-205 823,-235 979,-235 979,-205 823,-205"/>
<text text-anchor="start" x="831" y="-223" font-family="Helvetica,sans-Serif" font-size="10.00">DetectorsCommonDataFormats</text>
<text text-anchor="middle" x="901" y="-212" font-family="Helvetica,sans-Serif" font-size="10.00">/DetMatrixCache.h</text>
</a>
</g>
</g>
<!-- Node4&#45;&gt;Node7 -->
<g id="edge6" class="edge"><title>Node4&#45;&gt;Node7</title>
<path fill="none" stroke="midnightblue" d="M947.563,-340.202C939.945,-320.699 921.425,-273.288 910.172,-244.48"/>
<polygon fill="midnightblue" stroke="midnightblue" points="913.423,-243.184 906.525,-235.143 906.903,-245.731 913.423,-243.184"/>
</g>
<!-- Node7&#45;&gt;Node3 -->
<g id="edge9" class="edge"><title>Node7&#45;&gt;Node3</title>
<path fill="none" stroke="midnightblue" d="M822.785,-205.627C818.128,-205.023 813.506,-204.474 809,-204 476.671,-169.057 384.009,-241.362 58,-168 54.9284,-167.309 51.7849,-166.374 48.6969,-165.306"/>
<polygon fill="midnightblue" stroke="midnightblue" points="49.7659,-161.966 39.178,-161.582 47.2151,-168.485 49.7659,-161.966"/>
</g>
<!-- Node8 -->
<g id="node8" class="node"><title>Node8</title>
<polygon fill="none" stroke="#bfbfbf" points="249.5,-142.5 249.5,-161.5 320.5,-161.5 320.5,-142.5 249.5,-142.5"/>
<text text-anchor="middle" x="285" y="-149.5" font-family="Helvetica,sans-Serif" font-size="10.00">FairLogger.h</text>
</g>
<!-- Node7&#45;&gt;Node8 -->
<g id="edge7" class="edge"><title>Node7&#45;&gt;Node8</title>
<path fill="none" stroke="midnightblue" d="M822.768,-205.772C818.115,-205.132 813.5,-204.535 809,-204 597.003,-178.799 539.302,-210.075 330,-168 325.731,-167.142 321.306,-165.998 316.971,-164.724"/>
<polygon fill="midnightblue" stroke="midnightblue" points="317.727,-161.291 307.137,-161.585 315.599,-167.96 317.727,-161.291"/>
</g>
<!-- Node9 -->
<g id="node9" class="node"><title>Node9</title>
<polygon fill="none" stroke="#bfbfbf" points="117,-6.5 117,-25.5 155,-25.5 155,-6.5 117,-6.5"/>
<text text-anchor="middle" x="136" y="-13.5" font-family="Helvetica,sans-Serif" font-size="10.00">array</text>
</g>
<!-- Node7&#45;&gt;Node9 -->
<g id="edge8" class="edge"><title>Node7&#45;&gt;Node9</title>
<path fill="none" stroke="midnightblue" d="M822.776,-205.709C818.121,-205.085 813.503,-204.508 809,-204 557.205,-175.578 485.787,-229.626 240,-168 169.393,-150.297 130.362,-161.232 91,-100 76.4727,-77.4015 98.9922,-49.7183 117.076,-32.7242"/>
<polygon fill="midnightblue" stroke="midnightblue" points="119.791,-34.993 124.924,-25.7248 115.131,-29.7689 119.791,-34.993"/>
</g>
<!-- Node10 -->
<g id="node10" class="node"><title>Node10</title>
<g id="a_node10"><a xlink:href="../../d6/d31/DetID_8h.html" target="_top" xlink:title="DetectorsCommonDataFormats\l/DetID.h">
<polygon fill="none" stroke="black" points="339,-137 339,-167 495,-167 495,-137 339,-137"/>
<text text-anchor="start" x="347" y="-155" font-family="Helvetica,sans-Serif" font-size="10.00">DetectorsCommonDataFormats</text>
<text text-anchor="middle" x="417" y="-144" font-family="Helvetica,sans-Serif" font-size="10.00">/DetID.h</text>
</a>
</g>
</g>
<!-- Node7&#45;&gt;Node10 -->
<g id="edge10" class="edge"><title>Node7&#45;&gt;Node10</title>
<path fill="none" stroke="midnightblue" d="M822.73,-206.062C818.087,-205.35 813.483,-204.657 809,-204 704.81,-188.733 584.694,-173.446 505.172,-163.647"/>
<polygon fill="midnightblue" stroke="midnightblue" points="505.549,-160.167 495.196,-162.42 504.694,-167.115 505.549,-160.167"/>
</g>
<!-- Node7&#45;&gt;Node11 -->
<g id="edge33" class="edge"><title>Node7&#45;&gt;Node11</title>
<path fill="none" stroke="midnightblue" d="M979.353,-206.892C1085.04,-190.595 1279.17,-160.784 1445,-136 1554.28,-119.667 1584.23,-128.475 1691,-100 1694.05,-99.1855 1697.2,-98.2001 1700.3,-97.1279"/>
<polygon fill="midnightblue" stroke="midnightblue" points="1701.82,-100.297 1709.96,-93.5104 1699.37,-93.7415 1701.82,-100.297"/>
</g>
<!-- Node19 -->
<g id="node19" class="node"><title>Node19</title>
<g id="a_node19"><a xlink:href="../../dd/d76/Cartesian3D_8h.html" target="_top" xlink:title="MathUtils/Cartesian3D.h">
<polygon fill="none" stroke="black" points="1035.5,-142.5 1035.5,-161.5 1160.5,-161.5 1160.5,-142.5 1035.5,-142.5"/>
<text text-anchor="middle" x="1098" y="-149.5" font-family="Helvetica,sans-Serif" font-size="10.00">MathUtils/Cartesian3D.h</text>
</a>
</g>
</g>
<!-- Node7&#45;&gt;Node19 -->
<g id="edge21" class="edge"><title>Node7&#45;&gt;Node19</title>
<path fill="none" stroke="midnightblue" d="M943.261,-204.841C978.814,-192.93 1029.07,-176.094 1062.55,-164.876"/>
<polygon fill="midnightblue" stroke="midnightblue" points="1064,-168.082 1072.37,-161.587 1061.78,-161.445 1064,-168.082"/>
</g>
<!-- Node10&#45;&gt;Node9 -->
<g id="edge12" class="edge"><title>Node10&#45;&gt;Node9</title>
<path fill="none" stroke="midnightblue" d="M339.146,-136.958C289.667,-127.079 230.939,-113.298 209,-100 181.624,-83.4062 158.929,-53.1951 146.439,-34.1595"/>
<polygon fill="midnightblue" stroke="midnightblue" points="149.317,-32.1623 141.008,-25.5878 143.403,-35.9084 149.317,-32.1623"/>
</g>
<!-- Node10&#45;&gt;Node11 -->
<g id="edge11" class="edge"><title>Node10&#45;&gt;Node11</title>
<path fill="none" stroke="midnightblue" d="M495.157,-149.395C754.158,-143.864 1574.52,-124.582 1691,-100 1694.44,-99.275 1697.96,-98.2696 1701.42,-97.1193"/>
<polygon fill="midnightblue" stroke="midnightblue" points="1702.69,-100.382 1710.83,-93.6063 1700.24,-93.824 1702.69,-100.382"/>
</g>
<!-- Node12 -->
<g id="node12" class="node"><title>Node12</title>
<polygon fill="none" stroke="#bfbfbf" points="458.5,-74.5 458.5,-93.5 499.5,-93.5 499.5,-74.5 458.5,-74.5"/>
<text text-anchor="middle" x="479" y="-81.5" font-family="Helvetica,sans-Serif" font-size="10.00">bitset</text>
</g>
<!-- Node10&#45;&gt;Node12 -->
<g id="edge13" class="edge"><title>Node10&#45;&gt;Node12</title>
<path fill="none" stroke="midnightblue" d="M430.453,-136.679C440.216,-126.286 453.441,-112.208 463.622,-101.37"/>
<polygon fill="midnightblue" stroke="midnightblue" points="466.411,-103.513 470.707,-93.8283 461.309,-98.7204 466.411,-103.513"/>
</g>
<!-- Node13 -->
<g id="node13" class="node"><title>Node13</title>
<polygon fill="none" stroke="#bfbfbf" points="326.5,-74.5 326.5,-93.5 375.5,-93.5 375.5,-74.5 326.5,-74.5"/>
<text text-anchor="middle" x="351" y="-81.5" font-family="Helvetica,sans-Serif" font-size="10.00">cassert</text>
</g>
<!-- Node10&#45;&gt;Node13 -->
<g id="edge14" class="edge"><title>Node10&#45;&gt;Node13</title>
<path fill="none" stroke="midnightblue" d="M402.679,-136.679C392.184,-126.184 377.932,-111.932 367.052,-101.052"/>
<polygon fill="midnightblue" stroke="midnightblue" points="369.374,-98.4245 359.828,-93.8283 364.425,-103.374 369.374,-98.4245"/>
</g>
<!-- Node14 -->
<g id="node14" class="node"><title>Node14</title>
<polygon fill="none" stroke="#bfbfbf" points="394,-74.5 394,-93.5 440,-93.5 440,-74.5 394,-74.5"/>
<text text-anchor="middle" x="417" y="-81.5" font-family="Helvetica,sans-Serif" font-size="10.00">cstdint</text>
</g>
<!-- Node10&#45;&gt;Node14 -->
<g id="edge15" class="edge"><title>Node10&#45;&gt;Node14</title>
<path fill="none" stroke="midnightblue" d="M417,-136.679C417,-127.101 417,-114.394 417,-103.977"/>
<polygon fill="midnightblue" stroke="midnightblue" points="420.5,-103.828 417,-93.8283 413.5,-103.828 420.5,-103.828"/>
</g>
<!-- Node15 -->
<g id="node15" class="node"><title>Node15</title>
<polygon fill="none" stroke="#bfbfbf" points="100,-74.5 100,-93.5 162,-93.5 162,-74.5 100,-74.5"/>
<text text-anchor="middle" x="131" y="-81.5" font-family="Helvetica,sans-Serif" font-size="10.00">type_traits</text>
</g>
<!-- Node10&#45;&gt;Node15 -->
<g id="edge16" class="edge"><title>Node10&#45;&gt;Node15</title>
<path fill="none" stroke="midnightblue" d="M339.679,-136.95C292.143,-127.741 230.17,-114.709 176,-100 172.369,-99.0141 168.601,-97.9023 164.86,-96.741"/>
<polygon fill="midnightblue" stroke="midnightblue" points="165.727,-93.3429 155.135,-93.6037 163.577,-100.005 165.727,-93.3429"/>
</g>
<!-- Node16 -->
<g id="node16" class="node"><title>Node16</title>
<g id="a_node16"><a xlink:href="../../d9/d52/Common_2MathUtils_2include_2MathUtils_2Utils_8h.html" target="_top" xlink:title="MathUtils/Utils.h">
<polygon fill="none" stroke="black" points="218,-74.5 218,-93.5 308,-93.5 308,-74.5 218,-74.5"/>
<text text-anchor="middle" x="263" y="-81.5" font-family="Helvetica,sans-Serif" font-size="10.00">MathUtils/Utils.h</text>
</a>
</g>
</g>
<!-- Node10&#45;&gt;Node16 -->
<g id="edge17" class="edge"><title>Node10&#45;&gt;Node16</title>
<path fill="none" stroke="midnightblue" d="M383.963,-136.841C356.848,-125.221 318.794,-108.912 292.648,-97.7063"/>
<polygon fill="midnightblue" stroke="midnightblue" points="293.828,-94.4041 283.258,-93.6819 291.07,-100.838 293.828,-94.4041"/>
</g>
<!-- Node16&#45;&gt;Node9 -->
<g id="edge18" class="edge"><title>Node16&#45;&gt;Node9</title>
<path fill="none" stroke="midnightblue" d="M246.141,-74.4194C226.404,-64.35 192.754,-47.1072 164,-32 163.024,-31.487 162.029,-30.9626 161.025,-30.4318"/>
<polygon fill="midnightblue" stroke="midnightblue" points="162.44,-27.2202 151.968,-25.6114 159.151,-33.3995 162.44,-27.2202"/>
</g>
<!-- Node17 -->
<g id="node17" class="node"><title>Node17</title>
<polygon fill="none" stroke="#bfbfbf" points="371,-6.5 371,-25.5 415,-25.5 415,-6.5 371,-6.5"/>
<text text-anchor="middle" x="393" y="-13.5" font-family="Helvetica,sans-Serif" font-size="10.00">cmath</text>
</g>
<!-- Node16&#45;&gt;Node17 -->
<g id="edge19" class="edge"><title>Node16&#45;&gt;Node17</title>
<path fill="none" stroke="midnightblue" d="M279.995,-74.3717C302.087,-63.1557 340.895,-43.4532 366.776,-30.3136"/>
<polygon fill="midnightblue" stroke="midnightblue" points="368.668,-33.2783 376.001,-25.6305 365.499,-27.0366 368.668,-33.2783"/>
</g>
<!-- Node18 -->
<g id="node18" class="node"><title>Node18</title>
<g id="a_node18"><a xlink:href="../../d6/d84/MathConstants_8h.html" target="_top" xlink:title="useful math constants ">
<polygon fill="none" stroke="black" points="173.5,-6.5 173.5,-25.5 352.5,-25.5 352.5,-6.5 173.5,-6.5"/>
<text text-anchor="middle" x="263" y="-13.5" font-family="Helvetica,sans-Serif" font-size="10.00">CommonConstants/MathConstants.h</text>
</a>
</g>
</g>
<!-- Node16&#45;&gt;Node18 -->
<g id="edge20" class="edge"><title>Node16&#45;&gt;Node18</title>
<path fill="none" stroke="midnightblue" d="M263,-74.3717C263,-64.6426 263,-48.528 263,-35.8504"/>
<polygon fill="midnightblue" stroke="midnightblue" points="266.5,-35.8411 263,-25.8411 259.5,-35.8412 266.5,-35.8411"/>
</g>
<!-- Node19&#45;&gt;Node11 -->
<g id="edge27" class="edge"><title>Node19&#45;&gt;Node11</title>
<path fill="none" stroke="midnightblue" d="M1137.02,-142.435C1149.14,-140.035 1162.58,-137.637 1175,-136 1402.92,-105.965 1466.79,-150.799 1691,-100 1694.25,-99.2634 1697.59,-98.2917 1700.87,-97.196"/>
<polygon fill="midnightblue" stroke="midnightblue" points="1702.26,-100.413 1710.42,-93.6482 1699.83,-93.8511 1702.26,-100.413"/>
</g>
<!-- Node20 -->
<g id="node20" class="node"><title>Node20</title>
<polygon fill="none" stroke="#bfbfbf" points="660.5,-69 660.5,-99 811.5,-99 811.5,-69 660.5,-69"/>
<text text-anchor="start" x="668.5" y="-87" font-family="Helvetica,sans-Serif" font-size="10.00">Math/GenVector/Displacement</text>
<text text-anchor="middle" x="736" y="-76" font-family="Helvetica,sans-Serif" font-size="10.00">Vector3D.h</text>
</g>
<!-- Node19&#45;&gt;Node20 -->
<g id="edge22" class="edge"><title>Node19&#45;&gt;Node20</title>
<path fill="none" stroke="midnightblue" d="M1054.85,-142.474C1043.82,-140.328 1031.98,-138.051 1021,-136 983.737,-129.037 891.448,-112.575 821.91,-100.224"/>
<polygon fill="midnightblue" stroke="midnightblue" points="822.283,-96.7355 811.825,-98.4333 821.059,-103.628 822.283,-96.7355"/>
</g>
<!-- Node21 -->
<g id="node21" class="node"><title>Node21</title>
<polygon fill="none" stroke="#bfbfbf" points="830,-74.5 830,-93.5 1006,-93.5 1006,-74.5 830,-74.5"/>
<text text-anchor="middle" x="918" y="-81.5" font-family="Helvetica,sans-Serif" font-size="10.00">Math/GenVector/PositionVector3D.h</text>
</g>
<!-- Node19&#45;&gt;Node21 -->
<g id="edge23" class="edge"><title>Node19&#45;&gt;Node21</title>
<path fill="none" stroke="midnightblue" d="M1074.47,-142.372C1042.85,-130.778 986.499,-110.116 950.751,-97.0087"/>
<polygon fill="midnightblue" stroke="midnightblue" points="951.846,-93.6824 941.252,-93.5259 949.436,-100.255 951.846,-93.6824"/>
</g>
<!-- Node22 -->
<g id="node22" class="node"><title>Node22</title>
<polygon fill="none" stroke="#bfbfbf" points="1023.5,-74.5 1023.5,-93.5 1172.5,-93.5 1172.5,-74.5 1023.5,-74.5"/>
<text text-anchor="middle" x="1098" y="-81.5" font-family="Helvetica,sans-Serif" font-size="10.00">Math/GenVector/Rotation3D.h</text>
</g>
<!-- Node19&#45;&gt;Node22 -->
<g id="edge24" class="edge"><title>Node19&#45;&gt;Node22</title>
<path fill="none" stroke="midnightblue" d="M1098,-142.372C1098,-132.643 1098,-116.528 1098,-103.85"/>
<polygon fill="midnightblue" stroke="midnightblue" points="1101.5,-103.841 1098,-93.8411 1094.5,-103.841 1101.5,-103.841"/>
</g>
<!-- Node23 -->
<g id="node23" class="node"><title>Node23</title>
<polygon fill="none" stroke="#bfbfbf" points="1191,-74.5 1191,-93.5 1347,-93.5 1347,-74.5 1191,-74.5"/>
<text text-anchor="middle" x="1269" y="-81.5" font-family="Helvetica,sans-Serif" font-size="10.00">Math/GenVector/Transform3D.h</text>
</g>
<!-- Node19&#45;&gt;Node23 -->
<g id="edge25" class="edge"><title>Node19&#45;&gt;Node23</title>
<path fill="none" stroke="midnightblue" d="M1120.36,-142.372C1150.27,-130.827 1203.47,-110.293 1237.45,-97.1772"/>
<polygon fill="midnightblue" stroke="midnightblue" points="1238.84,-100.392 1246.91,-93.5259 1236.32,-93.8615 1238.84,-100.392"/>
</g>
<!-- Node24 -->
<g id="node24" class="node"><title>Node24</title>
<polygon fill="none" stroke="#bfbfbf" points="1365,-74.5 1365,-93.5 1525,-93.5 1525,-74.5 1365,-74.5"/>
<text text-anchor="middle" x="1445" y="-81.5" font-family="Helvetica,sans-Serif" font-size="10.00">Math/GenVector/Translation3D.h</text>
</g>
<!-- Node19&#45;&gt;Node24 -->
<g id="edge26" class="edge"><title>Node19&#45;&gt;Node24</title>
<path fill="none" stroke="midnightblue" d="M1141.56,-142.469C1152.48,-140.343 1164.17,-138.078 1175,-136 1248.94,-121.815 1334.34,-105.736 1388.96,-95.4896"/>
<polygon fill="midnightblue" stroke="midnightblue" points="1389.94,-98.8664 1399.12,-93.5833 1388.65,-91.9863 1389.94,-98.8664"/>
</g>
<!-- Node25 -->
<g id="node25" class="node"><title>Node25</title>
<polygon fill="none" stroke="#bfbfbf" points="1543,-74.5 1543,-93.5 1619,-93.5 1619,-74.5 1543,-74.5"/>
<text text-anchor="middle" x="1581" y="-81.5" font-family="Helvetica,sans-Serif" font-size="10.00">TGeoMatrix.h</text>
</g>
<!-- Node19&#45;&gt;Node25 -->
<g id="edge28" class="edge"><title>Node19&#45;&gt;Node25</title>
<path fill="none" stroke="midnightblue" d="M1138.24,-142.432C1150.05,-140.116 1163.01,-137.765 1175,-136 1333.65,-112.644 1376.98,-132.555 1534,-100 1538.46,-99.0751 1543.1,-97.8871 1547.64,-96.5851"/>
<polygon fill="midnightblue" stroke="midnightblue" points="1548.81,-99.8876 1557.35,-93.611 1546.76,-93.1949 1548.81,-99.8876"/>
</g>
<!-- Node26 -->
<g id="node26" class="node"><title>Node26</title>
<polygon fill="none" stroke="#bfbfbf" points="1637.5,-74.5 1637.5,-93.5 1682.5,-93.5 1682.5,-74.5 1637.5,-74.5"/>
<text text-anchor="middle" x="1660" y="-81.5" font-family="Helvetica,sans-Serif" font-size="10.00">iosfwd</text>
</g>
<!-- Node19&#45;&gt;Node26 -->
<g id="edge29" class="edge"><title>Node19&#45;&gt;Node26</title>
<path fill="none" stroke="midnightblue" d="M1137.43,-142.43C1149.44,-140.059 1162.72,-137.678 1175,-136 1375.11,-108.647 1432.76,-151.692 1628,-100 1630.35,-99.3773 1632.74,-98.5875 1635.11,-97.6974"/>
<polygon fill="midnightblue" stroke="midnightblue" points="1636.68,-100.828 1644.47,-93.6446 1633.91,-94.4031 1636.68,-100.828"/>
</g>
<!-- Node27 -->
<g id="node27" class="node"><title>Node27</title>
<g id="a_node27"><a xlink:href="../../d2/dd0/Cartesian2D_8h.html" target="_top" xlink:title="MathUtils/Cartesian2D.h">
<polygon fill="none" stroke="black" points="517.5,-74.5 517.5,-93.5 642.5,-93.5 642.5,-74.5 517.5,-74.5"/>
<text text-anchor="middle" x="580" y="-81.5" font-family="Helvetica,sans-Serif" font-size="10.00">MathUtils/Cartesian2D.h</text>
</a>
</g>
</g>
<!-- Node19&#45;&gt;Node27 -->
<g id="edge30" class="edge"><title>Node19&#45;&gt;Node27</title>
<path fill="none" stroke="midnightblue" d="M1058.16,-142.488C1046.25,-140.146 1033.13,-137.767 1021,-136 857.506,-112.177 814.301,-125.115 651,-100 643.12,-98.7881 634.798,-97.2588 626.733,-95.6431"/>
<polygon fill="midnightblue" stroke="midnightblue" points="627.21,-92.1677 616.708,-93.5676 625.79,-99.0223 627.21,-92.1677"/>
</g>
<!-- Node28 -->
<g id="node28" class="node"><title>Node28</title>
<polygon fill="none" stroke="#bfbfbf" points="468.5,-1 468.5,-31 619.5,-31 619.5,-1 468.5,-1"/>
<text text-anchor="start" x="476.5" y="-19" font-family="Helvetica,sans-Serif" font-size="10.00">Math/GenVector/Displacement</text>
<text text-anchor="middle" x="544" y="-8" font-family="Helvetica,sans-Serif" font-size="10.00">Vector2D.h</text>
</g>
<!-- Node27&#45;&gt;Node28 -->
<g id="edge31" class="edge"><title>Node27&#45;&gt;Node28</title>
<path fill="none" stroke="midnightblue" d="M575.294,-74.3717C570.571,-65.7143 563.091,-52.0008 556.628,-40.152"/>
<polygon fill="midnightblue" stroke="midnightblue" points="559.597,-38.2844 551.735,-31.1815 553.451,-41.6364 559.597,-38.2844"/>
</g>
<!-- Node29 -->
<g id="node29" class="node"><title>Node29</title>
<polygon fill="none" stroke="#bfbfbf" points="638,-6.5 638,-25.5 814,-25.5 814,-6.5 638,-6.5"/>
<text text-anchor="middle" x="726" y="-13.5" font-family="Helvetica,sans-Serif" font-size="10.00">Math/GenVector/PositionVector2D.h</text>
</g>
<!-- Node27&#45;&gt;Node29 -->
<g id="edge32" class="edge"><title>Node27&#45;&gt;Node29</title>
<path fill="none" stroke="midnightblue" d="M599.087,-74.3717C624.226,-63.0075 668.638,-42.9309 697.693,-29.7961"/>
<polygon fill="midnightblue" stroke="midnightblue" points="699.238,-32.939 706.908,-25.6305 696.354,-26.5605 699.238,-32.939"/>
</g>
<!-- Node31 -->
<g id="node31" class="node"><title>Node31</title>
<g id="a_node31"><a xlink:href="../../d4/de2/BaseCluster_8h.html" target="_top" xlink:title="ReconstructionDataFormats\l/BaseCluster.h">
<polygon fill="none" stroke="black" points="1118,-273 1118,-303 1258,-303 1258,-273 1118,-273"/>
<text text-anchor="start" x="1126" y="-291" font-family="Helvetica,sans-Serif" font-size="10.00">ReconstructionDataFormats</text>
<text text-anchor="middle" x="1188" y="-280" font-family="Helvetica,sans-Serif" font-size="10.00">/BaseCluster.h</text>
</a>
</g>
</g>
<!-- Node30&#45;&gt;Node31 -->
<g id="edge35" class="edge"><title>Node30&#45;&gt;Node31</title>
<path fill="none" stroke="midnightblue" d="M1160.58,-340.403C1164.51,-333.037 1170.36,-322.077 1175.64,-312.168"/>
<polygon fill="midnightblue" stroke="midnightblue" points="1178.84,-313.611 1180.46,-303.141 1172.66,-310.317 1178.84,-313.611"/>
</g>
<!-- Node31&#45;&gt;Node7 -->
<g id="edge41" class="edge"><title>Node31&#45;&gt;Node7</title>
<path fill="none" stroke="midnightblue" d="M1126.78,-272.922C1081.44,-262.496 1019.55,-248.263 972.033,-237.335"/>
<polygon fill="midnightblue" stroke="midnightblue" points="972.653,-233.886 962.123,-235.056 971.084,-240.708 972.653,-233.886"/>
</g>
<!-- Node31&#45;&gt;Node12 -->
<g id="edge37" class="edge"><title>Node31&#45;&gt;Node12</title>
<path fill="none" stroke="midnightblue" d="M1158.8,-272.923C1120.39,-254.863 1050.43,-223.541 988,-204 779.685,-138.791 713.395,-173.896 508,-100 506.35,-99.4063 504.675,-98.7371 503.006,-98.0192"/>
<polygon fill="midnightblue" stroke="midnightblue" points="504.243,-94.7308 493.712,-93.5632 501.216,-101.043 504.243,-94.7308"/>
</g>
<!-- Node31&#45;&gt;Node19 -->
<g id="edge42" class="edge"><title>Node31&#45;&gt;Node19</title>
<path fill="none" stroke="midnightblue" d="M1178.37,-272.66C1161.66,-247.777 1127.36,-196.716 1109.46,-170.057"/>
<polygon fill="midnightblue" stroke="midnightblue" points="1112.34,-168.077 1103.86,-161.728 1106.53,-171.98 1112.34,-168.077"/>
</g>
<!-- Node31&#45;&gt;Node26 -->
<g id="edge40" class="edge"><title>Node31&#45;&gt;Node26</title>
<path fill="none" stroke="midnightblue" d="M1188.69,-272.885C1190.36,-254.49 1196,-222.496 1215,-204 1350.64,-71.9765 1448.1,-158.876 1628,-100 1630.13,-99.3022 1632.31,-98.4978 1634.47,-97.6314"/>
<polygon fill="midnightblue" stroke="midnightblue" points="1635.96,-100.802 1643.7,-93.5751 1633.14,-94.393 1635.96,-100.802"/>
</g>
<!-- Node32 -->
<g id="node32" class="node"><title>Node32</title>
<polygon fill="none" stroke="#bfbfbf" points="1224.5,-210.5 1224.5,-229.5 1283.5,-229.5 1283.5,-210.5 1224.5,-210.5"/>
<text text-anchor="middle" x="1254" y="-217.5" font-family="Helvetica,sans-Serif" font-size="10.00">TObject.h</text>
</g>
<!-- Node31&#45;&gt;Node32 -->
<g id="edge36" class="edge"><title>Node31&#45;&gt;Node32</title>
<path fill="none" stroke="midnightblue" d="M1202.32,-272.679C1212.82,-262.184 1227.07,-247.932 1237.95,-237.052"/>
<polygon fill="midnightblue" stroke="midnightblue" points="1240.58,-239.374 1245.17,-229.828 1235.63,-234.425 1240.58,-239.374"/>
</g>
<!-- Node33 -->
<g id="node33" class="node"><title>Node33</title>
<polygon fill="none" stroke="#bfbfbf" points="1302,-210.5 1302,-229.5 1352,-229.5 1352,-210.5 1302,-210.5"/>
<text text-anchor="middle" x="1327" y="-217.5" font-family="Helvetica,sans-Serif" font-size="10.00">iomanip</text>
</g>
<!-- Node31&#45;&gt;Node33 -->
<g id="edge38" class="edge"><title>Node31&#45;&gt;Node33</title>
<path fill="none" stroke="midnightblue" d="M1217.82,-272.841C1242.08,-261.323 1276.04,-245.199 1299.61,-234.004"/>
<polygon fill="midnightblue" stroke="midnightblue" points="1301.18,-237.133 1308.72,-229.682 1298.18,-230.809 1301.18,-237.133"/>
</g>
<!-- Node34 -->
<g id="node34" class="node"><title>Node34</title>
<polygon fill="none" stroke="#bfbfbf" points="1370.5,-210.5 1370.5,-229.5 1399.5,-229.5 1399.5,-210.5 1370.5,-210.5"/>
<text text-anchor="middle" x="1385" y="-217.5" font-family="Helvetica,sans-Serif" font-size="10.00">ios</text>
</g>
<!-- Node31&#45;&gt;Node34 -->
<g id="edge39" class="edge"><title>Node31&#45;&gt;Node34</title>
<path fill="none" stroke="midnightblue" d="M1250.72,-272.903C1284.23,-264.289 1325.73,-251.862 1361,-236 1361.99,-235.557 1362.98,-235.079 1363.97,-234.575"/>
<polygon fill="midnightblue" stroke="midnightblue" points="1365.71,-237.613 1372.65,-229.61 1362.23,-231.537 1365.71,-237.613"/>
</g>
<!-- Node35&#45;&gt;Node11 -->
<g id="edge44" class="edge"><title>Node35&#45;&gt;Node11</title>
<path fill="none" stroke="midnightblue" d="M1615.37,-272.659C1608.99,-244.018 1598.94,-178.819 1627,-136 1631.41,-129.268 1671.38,-110.509 1699.95,-97.7201"/>
<polygon fill="midnightblue" stroke="midnightblue" points="1701.41,-100.898 1709.13,-93.6377 1698.57,-94.5014 1701.41,-100.898"/>
</g>
<!-- Node36 -->
<g id="node36" class="node"><title>Node36</title>
<g id="a_node36"><a xlink:href="../../d0/d06/ITSMFT_2common_2base_2include_2ITSMFTBase_2Digit_8h.html" target="_top" xlink:title="ITSMFTBase/Digit.h">
<polygon fill="none" stroke="black" points="1640.5,-210.5 1640.5,-229.5 1747.5,-229.5 1747.5,-210.5 1640.5,-210.5"/>
<text text-anchor="middle" x="1694" y="-217.5" font-family="Helvetica,sans-Serif" font-size="10.00">ITSMFTBase/Digit.h</text>
</a>
</g>
</g>
<!-- Node35&#45;&gt;Node36 -->
<g id="edge45" class="edge"><title>Node35&#45;&gt;Node36</title>
<path fill="none" stroke="midnightblue" d="M1635.27,-272.679C1647.32,-262.082 1663.71,-247.655 1676.12,-236.736"/>
<polygon fill="midnightblue" stroke="midnightblue" points="1678.77,-239.062 1683.97,-229.828 1674.15,-233.807 1678.77,-239.062"/>
</g>
<!-- Node37 -->
<g id="node37" class="node"><title>Node37</title>
<g id="a_node37"><a xlink:href="../../d7/dcd/MCCompLabel_8h.html" target="_top" xlink:title="SimulationDataFormat\l/MCCompLabel.h">
<polygon fill="none" stroke="black" points="1832,-137 1832,-167 1946,-167 1946,-137 1832,-137"/>
<text text-anchor="start" x="1840" y="-155" font-family="Helvetica,sans-Serif" font-size="10.00">SimulationDataFormat</text>
<text text-anchor="middle" x="1889" y="-144" font-family="Helvetica,sans-Serif" font-size="10.00">/MCCompLabel.h</text>
</a>
</g>
</g>
<!-- Node35&#45;&gt;Node37 -->
<g id="edge51" class="edge"><title>Node35&#45;&gt;Node37</title>
<path fill="none" stroke="midnightblue" d="M1663.44,-272.998C1690.72,-263.785 1726.05,-250.731 1756,-236 1793.74,-217.435 1834.38,-191.04 1860.67,-173.032"/>
<polygon fill="midnightblue" stroke="midnightblue" points="1862.77,-175.834 1869.01,-167.27 1858.79,-170.075 1862.77,-175.834"/>
</g>
<!-- Node36&#45;&gt;Node11 -->
<g id="edge46" class="edge"><title>Node36&#45;&gt;Node11</title>
<path fill="none" stroke="midnightblue" d="M1677.77,-210.36C1663.52,-201.755 1643.73,-187.084 1635,-168 1629.08,-155.067 1627.73,-148.222 1635,-136 1642.17,-123.957 1673.57,-108.383 1698.13,-97.6299"/>
<polygon fill="midnightblue" stroke="midnightblue" points="1699.67,-100.78 1707.48,-93.6221 1696.91,-94.3462 1699.67,-100.78"/>
</g>
<!-- Node36&#45;&gt;Node37 -->
<g id="edge47" class="edge"><title>Node36&#45;&gt;Node37</title>
<path fill="none" stroke="midnightblue" d="M1719.49,-210.372C1749.34,-200.268 1799.54,-183.277 1837.59,-170.402"/>
<polygon fill="midnightblue" stroke="midnightblue" points="1839.12,-173.578 1847.47,-167.056 1836.88,-166.947 1839.12,-173.578"/>
</g>
<!-- Node38 -->
<g id="node38" class="node"><title>Node38</title>
<g id="a_node38"><a xlink:href="../../df/d5d/common_2include_2CommonDataFormat_2TimeStamp_8h.html" target="_top" xlink:title="CommonDataFormat/TimeStamp.h">
<polygon fill="none" stroke="black" points="1644,-142.5 1644,-161.5 1814,-161.5 1814,-142.5 1644,-142.5"/>
<text text-anchor="middle" x="1729" y="-149.5" font-family="Helvetica,sans-Serif" font-size="10.00">CommonDataFormat/TimeStamp.h</text>
</a>
</g>
</g>
<!-- Node36&#45;&gt;Node38 -->
<g id="edge49" class="edge"><title>Node36&#45;&gt;Node38</title>
<path fill="none" stroke="midnightblue" d="M1698.58,-210.372C1703.89,-200.348 1712.8,-183.546 1719.61,-170.708"/>
<polygon fill="midnightblue" stroke="midnightblue" points="1722.72,-172.316 1724.31,-161.841 1716.53,-169.036 1722.72,-172.316"/>
</g>
<!-- Node37&#45;&gt;Node11 -->
<g id="edge48" class="edge"><title>Node37&#45;&gt;Node11</title>
<path fill="none" stroke="midnightblue" d="M1854.68,-136.841C1826.38,-125.169 1786.62,-108.768 1759.44,-97.5585"/>
<polygon fill="midnightblue" stroke="midnightblue" points="1760.63,-94.2597 1750.05,-93.6819 1757.96,-100.731 1760.63,-94.2597"/>
</g>
<!-- Node38&#45;&gt;Node11 -->
<g id="edge50" class="edge"><title>Node38&#45;&gt;Node11</title>
<path fill="none" stroke="midnightblue" d="M1729,-142.372C1729,-132.643 1729,-116.528 1729,-103.85"/>
<polygon fill="midnightblue" stroke="midnightblue" points="1732.5,-103.841 1729,-93.8411 1725.5,-103.841 1732.5,-103.841"/>
</g>
</g>
</svg>
        <g id="navigator" transform="translate(0 0)" fill="#404254">
                <rect fill="#f2f5e9" fill-opacity="0.5" stroke="#606060" stroke-width=".5" x="0" y="0" width="60" height="60"/>
                <use id="zoomplus" xlink:href="#zoomPlus" x="17" y="9" onmousedown="handleZoom(evt,'in')"/>
                <use id="zoomminus" xlink:href="#zoomMin" x="42" y="9" onmousedown="handleZoom(evt,'out')"/>
                <use id="reset" xlink:href="#resetDef" x="30" y="36" onmousedown="handleReset()"/>
                <g id="arrowUp" xlink:href="#dirArrow" transform="translate(30 24)" onmousedown="handlePan(0,-1)">
                  <use xlink:href="#rim" fill="#404040">
                        <set attributeName="fill" to="#808080" begin="arrowUp.mouseover" end="arrowUp.mouseout"/>
                  </use>
                  <path fill="none" stroke="white" stroke-width="1.5" d="M0,-3.0v7 M-2.5,-0.5L0,-3.0L2.5,-0.5"/>
                </g>
                <g id="arrowRight" xlink:href="#dirArrow" transform="rotate(90) translate(36 -43)" onmousedown="handlePan(1,0)">
                  <use xlink:href="#rim" fill="#404040">
                        <set attributeName="fill" to="#808080" begin="arrowRight.mouseover" end="arrowRight.mouseout"/>
                  </use>
                  <path fill="none" stroke="white" stroke-width="1.5" d="M0,-3.0v7 M-2.5,-0.5L0,-3.0L2.5,-0.5"/>
                </g>
                <g id="arrowDown" xlink:href="#dirArrow" transform="rotate(180) translate(-30 -48)" onmousedown="handlePan(0,1)">
                  <use xlink:href="#rim" fill="#404040">
                        <set attributeName="fill" to="#808080" begin="arrowDown.mouseover" end="arrowDown.mouseout"/>
                  </use>
                  <path fill="none" stroke="white" stroke-width="1.5" d="M0,-3.0v7 M-2.5,-0.5L0,-3.0L2.5,-0.5"/>
                </g>
                <g id="arrowLeft" xlink:href="#dirArrow" transform="rotate(270) translate(-36 17)" onmousedown="handlePan(-1,0)">
                  <use xlink:href="#rim" fill="#404040">
                        <set attributeName="fill" to="#808080" begin="arrowLeft.mouseover" end="arrowLeft.mouseout"/>
                  </use>
                  <path fill="none" stroke="white" stroke-width="1.5" d="M0,-3.0v7 M-2.5,-0.5L0,-3.0L2.5,-0.5"/>
                </g>
        </g>
        <svg viewBox="0 0 15 15" width="100%" height="30px" preserveAspectRatio="xMaxYMin meet">
         <g id="arrow_out" transform="scale(0.3 0.3)">
          <a xlink:href="ITSMFT_2common_2reconstruction_2include_2ITSMFTReconstruction_2Clusterer_8h__incl_org.svg" target="_base">
           <rect id="button" ry="5" rx="5" y="6" x="6" height="38" width="38"
                fill="#f2f5e9" fill-opacity="0.5" stroke="#606060" stroke-width="1.0"/>
           <path id="arrow"
             d="M 11.500037,31.436501 C 11.940474,20.09759 22.043105,11.32322 32.158766,21.979434 L 37.068811,17.246167 C 37.068811,17.246167 37.088388,32 37.088388,32 L 22.160133,31.978069 C 22.160133,31.978069 26.997745,27.140456 26.997745,27.140456 C 18.528582,18.264221 13.291696,25.230495 11.500037,31.436501 z"
             style="fill:#404040;"/>
          </a>
         </g>
        </svg>
</svg>
