<?xml version="1.0" encoding="UTF-8" standalone="no"?>
<!DOCTYPE svg PUBLIC "-//W3C//DTD SVG 1.1//EN"
 "http://www.w3.org/Graphics/SVG/1.1/DTD/svg11.dtd">
<!-- Generated by graphviz version 2.36.0 (20140111.2315)
 -->
<!-- Title: /home/travis/build/AliceO2Group/AliceO2/Framework/Core/include/Framework/InputSpec.h Pages: 1 -->
<svg width="488pt" height="174pt"
 viewBox="0.00 0.00 488.00 174.00" xmlns="http://www.w3.org/2000/svg" xmlns:xlink="http://www.w3.org/1999/xlink">
<g id="graph0" class="graph" transform="scale(1 1) rotate(0) translate(4 170)">
<title>/home/travis/build/AliceO2Group/AliceO2/Framework/Core/include/Framework/InputSpec.h</title>
<!-- Node1 -->
<g id="node1" class="node"><title>Node1</title>
<polygon fill="#bfbfbf" stroke="black" points="72,-113 72,-165 198,-165 198,-113 72,-113"/>
<text text-anchor="start" x="80" y="-153" font-family="Helvetica,sans-Serif" font-size="10.00">/home/travis/build</text>
<text text-anchor="start" x="80" y="-142" font-family="Helvetica,sans-Serif" font-size="10.00">/AliceO2Group/AliceO2</text>
<text text-anchor="start" x="80" y="-131" font-family="Helvetica,sans-Serif" font-size="10.00">/Framework/Core/include</text>
<text text-anchor="middle" x="135" y="-120" font-family="Helvetica,sans-Serif" font-size="10.00">/Framework/InputSpec.h</text>
</g>
<!-- Node2 -->
<g id="node2" class="node"><title>Node2</title>
<polygon fill="none" stroke="#bfbfbf" points="-0.5,-56.5 -0.5,-75.5 40.5,-75.5 40.5,-56.5 -0.5,-56.5"/>
<text text-anchor="middle" x="20" y="-63.5" font-family="Helvetica,sans-Serif" font-size="10.00">string</text>
</g>
<!-- Node1&#45;&gt;Node2 -->
<g id="edge1" class="edge"><title>Node1&#45;&gt;Node2</title>
<path fill="none" stroke="midnightblue" d="M94.4553,-112.968C77.1621,-102.291 57.6218,-90.2274 42.8995,-81.1379"/>
<polygon fill="midnightblue" stroke="midnightblue" points="44.3402,-77.9141 33.9926,-75.6389 40.6628,-83.8704 44.3402,-77.9141"/>
</g>
<!-- Node3 -->
<g id="node3" class="node"><title>Node3</title>
<polygon fill="none" stroke="#bfbfbf" points="59,-56.5 59,-75.5 111,-75.5 111,-56.5 59,-56.5"/>
<text text-anchor="middle" x="85" y="-63.5" font-family="Helvetica,sans-Serif" font-size="10.00">ostream</text>
</g>
<!-- Node1&#45;&gt;Node3 -->
<g id="edge2" class="edge"><title>Node1&#45;&gt;Node3</title>
<path fill="none" stroke="midnightblue" d="M117.231,-112.768C110.552,-103.284 103.12,-92.7308 97.0775,-84.15"/>
<polygon fill="midnightblue" stroke="midnightblue" points="99.7865,-81.918 91.167,-75.7572 94.0632,-85.9485 99.7865,-81.918"/>
</g>
<!-- Node4 -->
<g id="node4" class="node"><title>Node4</title>
<g id="a_node4"><a xlink:href="../../dc/dca/Lifetime_8h.html" target="_top" xlink:title="Framework/Lifetime.h">
<polygon fill="none" stroke="black" points="129.5,-56.5 129.5,-75.5 240.5,-75.5 240.5,-56.5 129.5,-56.5"/>
<text text-anchor="middle" x="185" y="-63.5" font-family="Helvetica,sans-Serif" font-size="10.00">Framework/Lifetime.h</text>
</a>
</g>
</g>
<!-- Node1&#45;&gt;Node4 -->
<g id="edge3" class="edge"><title>Node1&#45;&gt;Node4</title>
<path fill="none" stroke="midnightblue" d="M152.769,-112.768C159.448,-103.284 166.88,-92.7308 172.923,-84.15"/>
<polygon fill="midnightblue" stroke="midnightblue" points="175.937,-85.9485 178.833,-75.7572 170.214,-81.918 175.937,-85.9485"/>
</g>
<!-- Node5 -->
<g id="node5" class="node"><title>Node5</title>
<g id="a_node5"><a xlink:href="../../dc/dcd/DataHeader_8h.html" target="_top" xlink:title="Headers/DataHeader.h">
<polygon fill="none" stroke="black" points="258.5,-56.5 258.5,-75.5 375.5,-75.5 375.5,-56.5 258.5,-56.5"/>
<text text-anchor="middle" x="317" y="-63.5" font-family="Helvetica,sans-Serif" font-size="10.00">Headers/DataHeader.h</text>
</a>
</g>
</g>
<!-- Node1&#45;&gt;Node5 -->
<g id="edge4" class="edge"><title>Node1&#45;&gt;Node5</title>
<path fill="none" stroke="midnightblue" d="M198.144,-113.367C227.741,-101.821 261.689,-88.5772 285.706,-79.2082"/>
<polygon fill="midnightblue" stroke="midnightblue" points="286.985,-82.466 295.03,-75.5709 284.441,-75.9446 286.985,-82.466"/>
</g>
<!-- Node6 -->
<g id="node6" class="node"><title>Node6</title>
<polygon fill="none" stroke="#bfbfbf" points="158,-0.5 158,-19.5 204,-19.5 204,-0.5 158,-0.5"/>
<text text-anchor="middle" x="181" y="-7.5" font-family="Helvetica,sans-Serif" font-size="10.00">cstdint</text>
</g>
<!-- Node5&#45;&gt;Node6 -->
<g id="edge5" class="edge"><title>Node5&#45;&gt;Node6</title>
<path fill="none" stroke="midnightblue" d="M295.45,-56.4435C272.969,-47.5171 237.512,-33.4387 212.02,-23.3168"/>
<polygon fill="midnightblue" stroke="midnightblue" points="213.035,-19.9539 202.449,-19.5164 210.451,-26.4598 213.035,-19.9539"/>
</g>
<!-- Node7 -->
<g id="node7" class="node"><title>Node7</title>
<polygon fill="none" stroke="#bfbfbf" points="222,-0.5 222,-19.5 274,-19.5 274,-0.5 222,-0.5"/>
<text text-anchor="middle" x="248" y="-7.5" font-family="Helvetica,sans-Serif" font-size="10.00">memory</text>
</g>
<!-- Node5&#45;&gt;Node7 -->
<g id="edge6" class="edge"><title>Node5&#45;&gt;Node7</title>
<path fill="none" stroke="midnightblue" d="M305.914,-56.324C295.514,-48.1849 279.739,-35.8395 267.278,-26.0874"/>
<polygon fill="midnightblue" stroke="midnightblue" points="269.32,-23.2407 259.288,-19.8339 265.006,-28.7533 269.32,-23.2407"/>
</g>
<!-- Node8 -->
<g id="node8" class="node"><title>Node8</title>
<polygon fill="none" stroke="#bfbfbf" points="292.5,-0.5 292.5,-19.5 341.5,-19.5 341.5,-0.5 292.5,-0.5"/>
<text text-anchor="middle" x="317" y="-7.5" font-family="Helvetica,sans-Serif" font-size="10.00">cassert</text>
</g>
<!-- Node5&#45;&gt;Node8 -->
<g id="edge7" class="edge"><title>Node5&#45;&gt;Node8</title>
<path fill="none" stroke="midnightblue" d="M317,-56.083C317,-49.0059 317,-38.8611 317,-29.9865"/>
<polygon fill="midnightblue" stroke="midnightblue" points="320.5,-29.751 317,-19.7511 313.5,-29.7511 320.5,-29.751"/>
</g>
<!-- Node9 -->
<g id="node9" class="node"><title>Node9</title>
<polygon fill="none" stroke="#bfbfbf" points="360,-0.5 360,-19.5 406,-19.5 406,-0.5 360,-0.5"/>
<text text-anchor="middle" x="383" y="-7.5" font-family="Helvetica,sans-Serif" font-size="10.00">cstring</text>
</g>
<!-- Node5&#45;&gt;Node9 -->
<g id="edge8" class="edge"><title>Node5&#45;&gt;Node9</title>
<path fill="none" stroke="midnightblue" d="M327.604,-56.324C337.456,-48.2631 352.351,-36.0765 364.215,-26.3695"/>
<polygon fill="midnightblue" stroke="midnightblue" points="366.68,-28.8752 372.203,-19.8339 362.247,-23.4575 366.68,-28.8752"/>
</g>
<!-- Node10 -->
<g id="node10" class="node"><title>Node10</title>
<polygon fill="none" stroke="#bfbfbf" points="424,-0.5 424,-19.5 480,-19.5 480,-0.5 424,-0.5"/>
<text text-anchor="middle" x="452" y="-7.5" font-family="Helvetica,sans-Serif" font-size="10.00">algorithm</text>
</g>
<!-- Node5&#45;&gt;Node10 -->
<g id="edge9" class="edge"><title>Node5&#45;&gt;Node10</title>
<path fill="none" stroke="midnightblue" d="M338.391,-56.4435C360.707,-47.5171 395.903,-33.4387 421.208,-23.3168"/>
<polygon fill="midnightblue" stroke="midnightblue" points="422.724,-26.4801 430.709,-19.5164 420.124,-19.9807 422.724,-26.4801"/>
</g>
</g>
</svg>
