<?xml version="1.0" encoding="UTF-8" standalone="no"?>
<!DOCTYPE svg PUBLIC "-//W3C//DTD SVG 1.1//EN"
 "http://www.w3.org/Graphics/SVG/1.1/DTD/svg11.dtd">
<!-- Generated by graphviz version 2.36.0 (20140111.2315)
 -->
<!-- Title: /home/travis/build/AliceO2Group/AliceO2/Utilities/DataFlow/include/DataFlow/TimeframeReaderDevice.h Pages: 1 -->
<svg width="640pt" height="230pt"
 viewBox="0.00 0.00 640.00 230.00" xmlns="http://www.w3.org/2000/svg" xmlns:xlink="http://www.w3.org/1999/xlink">
<g id="graph0" class="graph" transform="scale(1 1) rotate(0) translate(4 226)">
<title>/home/travis/build/AliceO2Group/AliceO2/Utilities/DataFlow/include/DataFlow/TimeframeReaderDevice.h</title>
<!-- Node1 -->
<g id="node1" class="node"><title>Node1</title>
<polygon fill="#bfbfbf" stroke="black" points="287,-169 287,-221 469,-221 469,-169 287,-169"/>
<text text-anchor="start" x="295" y="-209" font-family="Helvetica,sans-Serif" font-size="10.00">/home/travis/build</text>
<text text-anchor="start" x="295" y="-198" font-family="Helvetica,sans-Serif" font-size="10.00">/AliceO2Group/AliceO2</text>
<text text-anchor="start" x="295" y="-187" font-family="Helvetica,sans-Serif" font-size="10.00">/Utilities/DataFlow/include</text>
<text text-anchor="middle" x="378" y="-176" font-family="Helvetica,sans-Serif" font-size="10.00">/DataFlow/TimeframeReaderDevice.h</text>
</g>
<!-- Node2 -->
<g id="node2" class="node"><title>Node2</title>
<g id="a_node2"><a xlink:href="../../d2/dee/O2Device_8h.html" target="_top" xlink:title="O2Device/O2Device.h">
<polygon fill="none" stroke="black" points="270.5,-112.5 270.5,-131.5 385.5,-131.5 385.5,-112.5 270.5,-112.5"/>
<text text-anchor="middle" x="328" y="-119.5" font-family="Helvetica,sans-Serif" font-size="10.00">O2Device/O2Device.h</text>
</a>
</g>
</g>
<!-- Node1&#45;&gt;Node2 -->
<g id="edge1" class="edge"><title>Node1&#45;&gt;Node2</title>
<path fill="none" stroke="midnightblue" d="M360.231,-168.768C353.552,-159.284 346.12,-148.731 340.077,-140.15"/>
<polygon fill="midnightblue" stroke="midnightblue" points="342.786,-137.918 334.167,-131.757 337.063,-141.948 342.786,-137.918"/>
</g>
<!-- Node13 -->
<g id="node13" class="node"><title>Node13</title>
<polygon fill="none" stroke="#bfbfbf" points="404,-112.5 404,-131.5 454,-131.5 454,-112.5 404,-112.5"/>
<text text-anchor="middle" x="429" y="-119.5" font-family="Helvetica,sans-Serif" font-size="10.00">fstream</text>
</g>
<!-- Node1&#45;&gt;Node13 -->
<g id="edge12" class="edge"><title>Node1&#45;&gt;Node13</title>
<path fill="none" stroke="midnightblue" d="M396.124,-168.768C402.937,-159.284 410.517,-148.731 416.681,-140.15"/>
<polygon fill="midnightblue" stroke="midnightblue" points="419.718,-141.921 422.71,-131.757 414.033,-137.837 419.718,-141.921"/>
</g>
<!-- Node3 -->
<g id="node3" class="node"><title>Node3</title>
<polygon fill="none" stroke="#bfbfbf" points="-1,-56.5 -1,-75.5 87,-75.5 87,-56.5 -1,-56.5"/>
<text text-anchor="middle" x="43" y="-63.5" font-family="Helvetica,sans-Serif" font-size="10.00">FairMQDevice.h</text>
</g>
<!-- Node2&#45;&gt;Node3 -->
<g id="edge2" class="edge"><title>Node2&#45;&gt;Node3</title>
<path fill="none" stroke="midnightblue" d="M282.841,-112.444C232.412,-102.889 150.827,-87.4304 97.0473,-77.2405"/>
<polygon fill="midnightblue" stroke="midnightblue" points="97.4881,-73.7619 87.0113,-75.339 96.1849,-80.6395 97.4881,-73.7619"/>
</g>
<!-- Node4 -->
<g id="node4" class="node"><title>Node4</title>
<polygon fill="none" stroke="#bfbfbf" points="105,-56.5 105,-75.5 251,-75.5 251,-56.5 105,-56.5"/>
<text text-anchor="middle" x="178" y="-63.5" font-family="Helvetica,sans-Serif" font-size="10.00">options/FairMQProgOptions.h</text>
</g>
<!-- Node2&#45;&gt;Node4 -->
<g id="edge3" class="edge"><title>Node2&#45;&gt;Node4</title>
<path fill="none" stroke="midnightblue" d="M304.232,-112.444C279.107,-103.399 239.289,-89.064 211.1,-78.9158"/>
<polygon fill="midnightblue" stroke="midnightblue" points="212.251,-75.6106 201.657,-75.5164 209.88,-82.1968 212.251,-75.6106"/>
</g>
<!-- Node5 -->
<g id="node5" class="node"><title>Node5</title>
<g id="a_node5"><a xlink:href="../../dc/dcd/DataHeader_8h.html" target="_top" xlink:title="Headers/DataHeader.h">
<polygon fill="none" stroke="black" points="269.5,-56.5 269.5,-75.5 386.5,-75.5 386.5,-56.5 269.5,-56.5"/>
<text text-anchor="middle" x="328" y="-63.5" font-family="Helvetica,sans-Serif" font-size="10.00">Headers/DataHeader.h</text>
</a>
</g>
</g>
<!-- Node2&#45;&gt;Node5 -->
<g id="edge4" class="edge"><title>Node2&#45;&gt;Node5</title>
<path fill="none" stroke="midnightblue" d="M328,-112.083C328,-105.006 328,-94.8611 328,-85.9865"/>
<polygon fill="midnightblue" stroke="midnightblue" points="331.5,-85.751 328,-75.7511 324.5,-85.7511 331.5,-85.751"/>
</g>
<!-- Node11 -->
<g id="node11" class="node"><title>Node11</title>
<polygon fill="none" stroke="#bfbfbf" points="404.5,-56.5 404.5,-75.5 555.5,-75.5 555.5,-56.5 404.5,-56.5"/>
<text text-anchor="middle" x="480" y="-63.5" font-family="Helvetica,sans-Serif" font-size="10.00">Monitoring/MonitoringFactory.h</text>
</g>
<!-- Node2&#45;&gt;Node11 -->
<g id="edge10" class="edge"><title>Node2&#45;&gt;Node11</title>
<path fill="none" stroke="midnightblue" d="M352.085,-112.444C377.545,-103.399 417.894,-89.064 446.459,-78.9158"/>
<polygon fill="midnightblue" stroke="midnightblue" points="447.777,-82.1622 456.028,-75.5164 445.433,-75.5661 447.777,-82.1622"/>
</g>
<!-- Node12 -->
<g id="node12" class="node"><title>Node12</title>
<polygon fill="none" stroke="#bfbfbf" points="573.5,-56.5 573.5,-75.5 632.5,-75.5 632.5,-56.5 573.5,-56.5"/>
<text text-anchor="middle" x="603" y="-63.5" font-family="Helvetica,sans-Serif" font-size="10.00">stdexcept</text>
</g>
<!-- Node2&#45;&gt;Node12 -->
<g id="edge11" class="edge"><title>Node2&#45;&gt;Node12</title>
<path fill="none" stroke="midnightblue" d="M375.57,-112.483C421.164,-104.196 492.165,-90.968 563.195,-76.105"/>
<polygon fill="midnightblue" stroke="midnightblue" points="564.15,-79.4808 573.216,-73.9972 562.709,-72.6307 564.15,-79.4808"/>
</g>
<!-- Node6 -->
<g id="node6" class="node"><title>Node6</title>
<polygon fill="none" stroke="#bfbfbf" points="169,-0.5 169,-19.5 215,-19.5 215,-0.5 169,-0.5"/>
<text text-anchor="middle" x="192" y="-7.5" font-family="Helvetica,sans-Serif" font-size="10.00">cstdint</text>
</g>
<!-- Node5&#45;&gt;Node6 -->
<g id="edge5" class="edge"><title>Node5&#45;&gt;Node6</title>
<path fill="none" stroke="midnightblue" d="M306.45,-56.4435C283.969,-47.5171 248.512,-33.4387 223.02,-23.3168"/>
<polygon fill="midnightblue" stroke="midnightblue" points="224.035,-19.9539 213.449,-19.5164 221.451,-26.4598 224.035,-19.9539"/>
</g>
<!-- Node7 -->
<g id="node7" class="node"><title>Node7</title>
<polygon fill="none" stroke="#bfbfbf" points="233,-0.5 233,-19.5 285,-19.5 285,-0.5 233,-0.5"/>
<text text-anchor="middle" x="259" y="-7.5" font-family="Helvetica,sans-Serif" font-size="10.00">memory</text>
</g>
<!-- Node5&#45;&gt;Node7 -->
<g id="edge6" class="edge"><title>Node5&#45;&gt;Node7</title>
<path fill="none" stroke="midnightblue" d="M316.914,-56.324C306.514,-48.1849 290.739,-35.8395 278.278,-26.0874"/>
<polygon fill="midnightblue" stroke="midnightblue" points="280.32,-23.2407 270.288,-19.8339 276.006,-28.7533 280.32,-23.2407"/>
</g>
<!-- Node8 -->
<g id="node8" class="node"><title>Node8</title>
<polygon fill="none" stroke="#bfbfbf" points="303.5,-0.5 303.5,-19.5 352.5,-19.5 352.5,-0.5 303.5,-0.5"/>
<text text-anchor="middle" x="328" y="-7.5" font-family="Helvetica,sans-Serif" font-size="10.00">cassert</text>
</g>
<!-- Node5&#45;&gt;Node8 -->
<g id="edge7" class="edge"><title>Node5&#45;&gt;Node8</title>
<path fill="none" stroke="midnightblue" d="M328,-56.083C328,-49.0059 328,-38.8611 328,-29.9865"/>
<polygon fill="midnightblue" stroke="midnightblue" points="331.5,-29.751 328,-19.7511 324.5,-29.7511 331.5,-29.751"/>
</g>
<!-- Node9 -->
<g id="node9" class="node"><title>Node9</title>
<polygon fill="none" stroke="#bfbfbf" points="371,-0.5 371,-19.5 417,-19.5 417,-0.5 371,-0.5"/>
<text text-anchor="middle" x="394" y="-7.5" font-family="Helvetica,sans-Serif" font-size="10.00">cstring</text>
</g>
<!-- Node5&#45;&gt;Node9 -->
<g id="edge8" class="edge"><title>Node5&#45;&gt;Node9</title>
<path fill="none" stroke="midnightblue" d="M338.604,-56.324C348.456,-48.2631 363.351,-36.0765 375.215,-26.3695"/>
<polygon fill="midnightblue" stroke="midnightblue" points="377.68,-28.8752 383.203,-19.8339 373.247,-23.4575 377.68,-28.8752"/>
</g>
<!-- Node10 -->
<g id="node10" class="node"><title>Node10</title>
<polygon fill="none" stroke="#bfbfbf" points="435,-0.5 435,-19.5 491,-19.5 491,-0.5 435,-0.5"/>
<text text-anchor="middle" x="463" y="-7.5" font-family="Helvetica,sans-Serif" font-size="10.00">algorithm</text>
</g>
<!-- Node5&#45;&gt;Node10 -->
<g id="edge9" class="edge"><title>Node5&#45;&gt;Node10</title>
<path fill="none" stroke="midnightblue" d="M349.391,-56.4435C371.707,-47.5171 406.903,-33.4387 432.208,-23.3168"/>
<polygon fill="midnightblue" stroke="midnightblue" points="433.724,-26.4801 441.709,-19.5164 431.124,-19.9807 433.724,-26.4801"/>
</g>
</g>
</svg>
