<?xml version="1.0" encoding="UTF-8" standalone="no"?>
<!DOCTYPE svg PUBLIC "-//W3C//DTD SVG 1.1//EN"
 "http://www.w3.org/Graphics/SVG/1.1/DTD/svg11.dtd">
<!-- Generated by graphviz version 2.36.0 (20140111.2315)
 -->
<!-- Title: /home/travis/build/AliceO2Group/AliceO2/Detectors/TOF/prototyping/drawTOFgeometry.C Pages: 1 -->
<svg width="1894pt" height="378pt"
 viewBox="0.00 0.00 1894.00 378.00" xmlns="http://www.w3.org/2000/svg" xmlns:xlink="http://www.w3.org/1999/xlink">
<g id="graph0" class="graph" transform="scale(1 1) rotate(0) translate(4 374)">
<title>/home/travis/build/AliceO2Group/AliceO2/Detectors/TOF/prototyping/drawTOFgeometry.C</title>
<!-- Node1 -->
<g id="node1" class="node"><title>Node1</title>
<polygon fill="#bfbfbf" stroke="black" points="1277,-317 1277,-369 1413,-369 1413,-317 1277,-317"/>
<text text-anchor="start" x="1285" y="-357" font-family="Helvetica,sans-Serif" font-size="10.00">/home/travis/build</text>
<text text-anchor="start" x="1285" y="-346" font-family="Helvetica,sans-Serif" font-size="10.00">/AliceO2Group/AliceO2</text>
<text text-anchor="start" x="1285" y="-335" font-family="Helvetica,sans-Serif" font-size="10.00">/Detectors/TOF/prototyping</text>
<text text-anchor="middle" x="1345" y="-324" font-family="Helvetica,sans-Serif" font-size="10.00">/drawTOFgeometry.C</text>
</g>
<!-- Node2 -->
<g id="node2" class="node"><title>Node2</title>
<g id="a_node2"><a xlink:href="../../d9/d6d/Cave_8h.html" target="_top" xlink:title="DetectorsPassive/Cave.h">
<polygon fill="none" stroke="black" points="90.5,-198.5 90.5,-217.5 219.5,-217.5 219.5,-198.5 90.5,-198.5"/>
<text text-anchor="middle" x="155" y="-205.5" font-family="Helvetica,sans-Serif" font-size="10.00">DetectorsPassive/Cave.h</text>
</a>
</g>
</g>
<!-- Node1&#45;&gt;Node2 -->
<g id="edge1" class="edge"><title>Node1&#45;&gt;Node2</title>
<path fill="none" stroke="midnightblue" d="M1276.79,-334.897C1168.51,-323.576 950.616,-300.61 766,-280 572.577,-258.406 344.888,-231.574 229.752,-217.906"/>
<polygon fill="midnightblue" stroke="midnightblue" points="229.982,-214.409 219.639,-216.705 229.156,-221.36 229.982,-214.409"/>
</g>
<!-- Node7 -->
<g id="node7" class="node"><title>Node7</title>
<g id="a_node7"><a xlink:href="../../d2/d69/FrameStructure_8h.html" target="_top" xlink:title="DetectorsPassive/FrameStructure.h">
<polygon fill="none" stroke="black" points="924.5,-260.5 924.5,-279.5 1097.5,-279.5 1097.5,-260.5 924.5,-260.5"/>
<text text-anchor="middle" x="1011" y="-267.5" font-family="Helvetica,sans-Serif" font-size="10.00">DetectorsPassive/FrameStructure.h</text>
</a>
</g>
</g>
<!-- Node1&#45;&gt;Node7 -->
<g id="edge6" class="edge"><title>Node1&#45;&gt;Node7</title>
<path fill="none" stroke="midnightblue" d="M1276.6,-327.461C1212.51,-313.836 1118.22,-293.793 1060.93,-281.614"/>
<polygon fill="midnightblue" stroke="midnightblue" points="1061.53,-278.164 1051.02,-279.508 1060.08,-285.011 1061.53,-278.164"/>
</g>
<!-- Node9 -->
<g id="node9" class="node"><title>Node9</title>
<polygon fill="none" stroke="#bfbfbf" points="1115.5,-260.5 1115.5,-279.5 1192.5,-279.5 1192.5,-260.5 1115.5,-260.5"/>
<text text-anchor="middle" x="1154" y="-267.5" font-family="Helvetica,sans-Serif" font-size="10.00">FairRunSim.h</text>
</g>
<!-- Node1&#45;&gt;Node9 -->
<g id="edge8" class="edge"><title>Node1&#45;&gt;Node9</title>
<path fill="none" stroke="midnightblue" d="M1277.66,-316.968C1246.89,-305.529 1211.83,-292.497 1186.92,-283.237"/>
<polygon fill="midnightblue" stroke="midnightblue" points="1187.83,-279.843 1177.24,-279.639 1185.39,-286.404 1187.83,-279.843"/>
</g>
<!-- Node10 -->
<g id="node10" class="node"><title>Node10</title>
<polygon fill="none" stroke="#bfbfbf" points="1211,-260.5 1211,-279.5 1297,-279.5 1297,-260.5 1211,-260.5"/>
<text text-anchor="middle" x="1254" y="-267.5" font-family="Helvetica,sans-Serif" font-size="10.00">TGeoManager.h</text>
</g>
<!-- Node1&#45;&gt;Node10 -->
<g id="edge9" class="edge"><title>Node1&#45;&gt;Node10</title>
<path fill="none" stroke="midnightblue" d="M1312.92,-316.968C1299.71,-306.66 1284.84,-295.059 1273.34,-286.09"/>
<polygon fill="midnightblue" stroke="midnightblue" points="1275.33,-283.202 1265.29,-279.81 1271.02,-288.72 1275.33,-283.202"/>
</g>
<!-- Node11 -->
<g id="node11" class="node"><title>Node11</title>
<g id="a_node11"><a xlink:href="../../d5/d3c/TOF_2simulation_2include_2TOFSimulation_2Detector_8h.html" target="_top" xlink:title="TOFSimulation/Detector.h">
<polygon fill="none" stroke="black" points="775.5,-260.5 775.5,-279.5 906.5,-279.5 906.5,-260.5 775.5,-260.5"/>
<text text-anchor="middle" x="841" y="-267.5" font-family="Helvetica,sans-Serif" font-size="10.00">TOFSimulation/Detector.h</text>
</a>
</g>
</g>
<!-- Node1&#45;&gt;Node11 -->
<g id="edge10" class="edge"><title>Node1&#45;&gt;Node11</title>
<path fill="none" stroke="midnightblue" d="M1276.77,-332.388C1181.19,-318.923 1008.31,-294.57 911.52,-280.934"/>
<polygon fill="midnightblue" stroke="midnightblue" points="911.926,-277.457 901.536,-279.528 910.95,-284.389 911.926,-277.457"/>
</g>
<!-- Node34 -->
<g id="node34" class="node"><title>Node34</title>
<polygon fill="none" stroke="#bfbfbf" points="1315.5,-260.5 1315.5,-279.5 1374.5,-279.5 1374.5,-260.5 1315.5,-260.5"/>
<text text-anchor="middle" x="1345" y="-267.5" font-family="Helvetica,sans-Serif" font-size="10.00">TROOT.h</text>
</g>
<!-- Node1&#45;&gt;Node34 -->
<g id="edge40" class="edge"><title>Node1&#45;&gt;Node34</title>
<path fill="none" stroke="midnightblue" d="M1345,-316.768C1345,-307.89 1345,-298.074 1345,-289.816"/>
<polygon fill="midnightblue" stroke="midnightblue" points="1348.5,-289.757 1345,-279.757 1341.5,-289.757 1348.5,-289.757"/>
</g>
<!-- Node35 -->
<g id="node35" class="node"><title>Node35</title>
<polygon fill="none" stroke="#bfbfbf" points="1393,-260.5 1393,-279.5 1449,-279.5 1449,-260.5 1393,-260.5"/>
<text text-anchor="middle" x="1421" y="-267.5" font-family="Helvetica,sans-Serif" font-size="10.00">TString.h</text>
</g>
<!-- Node1&#45;&gt;Node35 -->
<g id="edge41" class="edge"><title>Node1&#45;&gt;Node35</title>
<path fill="none" stroke="midnightblue" d="M1372.01,-316.768C1382.7,-306.78 1394.66,-295.605 1404.09,-286.798"/>
<polygon fill="midnightblue" stroke="midnightblue" points="1406.71,-289.141 1411.63,-279.757 1401.93,-284.026 1406.71,-289.141"/>
</g>
<!-- Node36 -->
<g id="node36" class="node"><title>Node36</title>
<polygon fill="none" stroke="#bfbfbf" points="1467.5,-260.5 1467.5,-279.5 1532.5,-279.5 1532.5,-260.5 1467.5,-260.5"/>
<text text-anchor="middle" x="1500" y="-267.5" font-family="Helvetica,sans-Serif" font-size="10.00">TSystem.h</text>
</g>
<!-- Node1&#45;&gt;Node36 -->
<g id="edge42" class="edge"><title>Node1&#45;&gt;Node36</title>
<path fill="none" stroke="midnightblue" d="M1399.65,-316.968C1424.07,-305.783 1451.81,-293.075 1471.93,-283.86"/>
<polygon fill="midnightblue" stroke="midnightblue" points="1473.51,-286.986 1481.14,-279.639 1470.59,-280.621 1473.51,-286.986"/>
</g>
<!-- Node37 -->
<g id="node37" class="node"><title>Node37</title>
<polygon fill="none" stroke="#bfbfbf" points="1551,-260.5 1551,-279.5 1685,-279.5 1685,-260.5 1551,-260.5"/>
<text text-anchor="middle" x="1618" y="-267.5" font-family="Helvetica,sans-Serif" font-size="10.00">boost/program_options.hpp</text>
</g>
<!-- Node1&#45;&gt;Node37 -->
<g id="edge43" class="edge"><title>Node1&#45;&gt;Node37</title>
<path fill="none" stroke="midnightblue" d="M1413.19,-324.267C1463.92,-311.072 1531.62,-293.465 1575.02,-282.177"/>
<polygon fill="midnightblue" stroke="midnightblue" points="1576.17,-285.494 1584.97,-279.59 1574.41,-278.72 1576.17,-285.494"/>
</g>
<!-- Node38 -->
<g id="node38" class="node"><title>Node38</title>
<polygon fill="none" stroke="#bfbfbf" points="1703,-260.5 1703,-279.5 1753,-279.5 1753,-260.5 1703,-260.5"/>
<text text-anchor="middle" x="1728" y="-267.5" font-family="Helvetica,sans-Serif" font-size="10.00">iomanip</text>
</g>
<!-- Node1&#45;&gt;Node38 -->
<g id="edge44" class="edge"><title>Node1&#45;&gt;Node38</title>
<path fill="none" stroke="midnightblue" d="M1413.21,-331.599C1481.6,-320.783 1590.06,-302.575 1692.88,-280.106"/>
<polygon fill="midnightblue" stroke="midnightblue" points="1693.79,-283.488 1702.81,-277.918 1692.29,-276.651 1693.79,-283.488"/>
</g>
<!-- Node39 -->
<g id="node39" class="node"><title>Node39</title>
<polygon fill="none" stroke="#bfbfbf" points="1771,-260.5 1771,-279.5 1825,-279.5 1825,-260.5 1771,-260.5"/>
<text text-anchor="middle" x="1798" y="-267.5" font-family="Helvetica,sans-Serif" font-size="10.00">iostream</text>
</g>
<!-- Node1&#45;&gt;Node39 -->
<g id="edge45" class="edge"><title>Node1&#45;&gt;Node39</title>
<path fill="none" stroke="midnightblue" d="M1413.24,-333.926C1494.01,-323.906 1632.7,-305.245 1760.94,-280.048"/>
<polygon fill="midnightblue" stroke="midnightblue" points="1761.81,-283.444 1770.94,-278.066 1760.45,-276.577 1761.81,-283.444"/>
</g>
<!-- Node3 -->
<g id="node3" class="node"><title>Node3</title>
<polygon fill="none" stroke="#bfbfbf" points="115.5,-136.5 115.5,-155.5 194.5,-155.5 194.5,-136.5 115.5,-136.5"/>
<text text-anchor="middle" x="155" y="-143.5" font-family="Helvetica,sans-Serif" font-size="10.00">FairDetector.h</text>
</g>
<!-- Node2&#45;&gt;Node3 -->
<g id="edge2" class="edge"><title>Node2&#45;&gt;Node3</title>
<path fill="none" stroke="midnightblue" d="M155,-198.403C155,-189.938 155,-176.728 155,-165.82"/>
<polygon fill="midnightblue" stroke="midnightblue" points="158.5,-165.581 155,-155.581 151.5,-165.581 158.5,-165.581"/>
</g>
<!-- Node4 -->
<g id="node4" class="node"><title>Node4</title>
<polygon fill="none" stroke="#bfbfbf" points="647,-74.5 647,-93.5 703,-93.5 703,-74.5 647,-74.5"/>
<text text-anchor="middle" x="675" y="-81.5" font-family="Helvetica,sans-Serif" font-size="10.00">Rtypes.h</text>
</g>
<!-- Node2&#45;&gt;Node4 -->
<g id="edge3" class="edge"><title>Node2&#45;&gt;Node4</title>
<path fill="none" stroke="midnightblue" d="M141.469,-198.364C121.218,-184.421 87.3029,-156.448 106,-136 110.501,-131.078 509.519,-98.3918 636.592,-88.0982"/>
<polygon fill="midnightblue" stroke="midnightblue" points="636.964,-91.5796 646.649,-87.2843 636.399,-84.6024 636.964,-91.5796"/>
</g>
<!-- Node5 -->
<g id="node5" class="node"><title>Node5</title>
<polygon fill="none" stroke="#bfbfbf" points="-0.5,-136.5 -0.5,-155.5 58.5,-155.5 58.5,-136.5 -0.5,-136.5"/>
<text text-anchor="middle" x="29" y="-143.5" font-family="Helvetica,sans-Serif" font-size="10.00">functional</text>
</g>
<!-- Node2&#45;&gt;Node5 -->
<g id="edge4" class="edge"><title>Node2&#45;&gt;Node5</title>
<path fill="none" stroke="midnightblue" d="M136.947,-198.403C115.802,-188.334 80.5596,-171.552 56.1218,-159.915"/>
<polygon fill="midnightblue" stroke="midnightblue" points="57.5526,-156.72 47.0192,-155.581 54.5431,-163.04 57.5526,-156.72"/>
</g>
<!-- Node6 -->
<g id="node6" class="node"><title>Node6</title>
<polygon fill="none" stroke="#bfbfbf" points="212,-136.5 212,-155.5 256,-155.5 256,-136.5 212,-136.5"/>
<text text-anchor="middle" x="234" y="-143.5" font-family="Helvetica,sans-Serif" font-size="10.00">vector</text>
</g>
<!-- Node2&#45;&gt;Node6 -->
<g id="edge5" class="edge"><title>Node2&#45;&gt;Node6</title>
<path fill="none" stroke="midnightblue" d="M166.319,-198.403C178.873,-188.869 199.351,-173.315 214.499,-161.811"/>
<polygon fill="midnightblue" stroke="midnightblue" points="216.856,-164.416 222.702,-155.581 212.622,-158.842 216.856,-164.416"/>
</g>
<!-- Node8 -->
<g id="node8" class="node"><title>Node8</title>
<polygon fill="none" stroke="#bfbfbf" points="1035.5,-198.5 1035.5,-217.5 1108.5,-217.5 1108.5,-198.5 1035.5,-198.5"/>
<text text-anchor="middle" x="1072" y="-205.5" font-family="Helvetica,sans-Serif" font-size="10.00">FairModule.h</text>
</g>
<!-- Node7&#45;&gt;Node8 -->
<g id="edge7" class="edge"><title>Node7&#45;&gt;Node8</title>
<path fill="none" stroke="midnightblue" d="M1019.74,-260.403C1029.16,-251.136 1044.36,-236.183 1055.95,-224.788"/>
<polygon fill="midnightblue" stroke="midnightblue" points="1058.6,-227.088 1063.28,-217.581 1053.69,-222.098 1058.6,-227.088"/>
</g>
<!-- Node12 -->
<g id="node12" class="node"><title>Node12</title>
<g id="a_node12"><a xlink:href="../../d1/d3a/Base_2include_2DetectorsBase_2Detector_8h.html" target="_top" xlink:title="DetectorsBase/Detector.h">
<polygon fill="none" stroke="black" points="453.5,-198.5 453.5,-217.5 584.5,-217.5 584.5,-198.5 453.5,-198.5"/>
<text text-anchor="middle" x="519" y="-205.5" font-family="Helvetica,sans-Serif" font-size="10.00">DetectorsBase/Detector.h</text>
</a>
</g>
</g>
<!-- Node11&#45;&gt;Node12 -->
<g id="edge11" class="edge"><title>Node11&#45;&gt;Node12</title>
<path fill="none" stroke="midnightblue" d="M795.207,-260.467C737.148,-249.649 637.114,-231.009 574.696,-219.378"/>
<polygon fill="midnightblue" stroke="midnightblue" points="575.107,-215.895 564.635,-217.503 573.824,-222.776 575.107,-215.895"/>
</g>
<!-- Node21 -->
<g id="node21" class="node"><title>Node21</title>
<g id="a_node21"><a xlink:href="../../d4/d54/Geo_8h.html" target="_top" xlink:title="TOFBase/Geo.h">
<polygon fill="none" stroke="black" points="797,-198.5 797,-217.5 885,-217.5 885,-198.5 797,-198.5"/>
<text text-anchor="middle" x="841" y="-205.5" font-family="Helvetica,sans-Serif" font-size="10.00">TOFBase/Geo.h</text>
</a>
</g>
</g>
<!-- Node11&#45;&gt;Node21 -->
<g id="edge25" class="edge"><title>Node11&#45;&gt;Node21</title>
<path fill="none" stroke="midnightblue" d="M841,-260.403C841,-251.938 841,-238.728 841,-227.82"/>
<polygon fill="midnightblue" stroke="midnightblue" points="844.5,-227.581 841,-217.581 837.5,-227.581 844.5,-227.581"/>
</g>
<!-- Node22 -->
<g id="node22" class="node"><title>Node22</title>
<g id="a_node22"><a xlink:href="../../d4/d25/BaseHits_8h.html" target="_top" xlink:title="SimulationDataFormat\l/BaseHits.h">
<polygon fill="none" stroke="black" points="903,-193 903,-223 1017,-223 1017,-193 903,-193"/>
<text text-anchor="start" x="911" y="-211" font-family="Helvetica,sans-Serif" font-size="10.00">SimulationDataFormat</text>
<text text-anchor="middle" x="960" y="-200" font-family="Helvetica,sans-Serif" font-size="10.00">/BaseHits.h</text>
</a>
</g>
</g>
<!-- Node11&#45;&gt;Node22 -->
<g id="edge27" class="edge"><title>Node11&#45;&gt;Node22</title>
<path fill="none" stroke="midnightblue" d="M858.05,-260.403C874.92,-251.898 901.29,-238.602 922.984,-227.663"/>
<polygon fill="midnightblue" stroke="midnightblue" points="924.601,-230.768 931.954,-223.141 921.449,-224.518 924.601,-230.768"/>
</g>
<!-- Node12&#45;&gt;Node3 -->
<g id="edge15" class="edge"><title>Node12&#45;&gt;Node3</title>
<path fill="none" stroke="midnightblue" d="M463.558,-198.487C402.501,-189.015 301.158,-173.005 204.481,-156.227"/>
<polygon fill="midnightblue" stroke="midnightblue" points="204.991,-152.763 194.538,-154.496 203.79,-159.659 204.991,-152.763"/>
</g>
<!-- Node12&#45;&gt;Node4 -->
<g id="edge20" class="edge"><title>Node12&#45;&gt;Node4</title>
<path fill="none" stroke="midnightblue" d="M584.829,-206.096C668.314,-203.394 805.262,-193.233 837,-156 893.646,-89.5459 905.217,-166.783 712,-100 709.592,-99.1679 707.114,-98.2655 704.634,-97.3303"/>
<polygon fill="midnightblue" stroke="midnightblue" points="705.799,-94.0277 695.211,-93.639 703.245,-100.545 705.799,-94.0277"/>
</g>
<!-- Node12&#45;&gt;Node6 -->
<g id="edge13" class="edge"><title>Node12&#45;&gt;Node6</title>
<path fill="none" stroke="midnightblue" d="M474.346,-198.454C424.417,-188.76 341.213,-172.187 270,-156 268.728,-155.711 267.432,-155.411 266.123,-155.104"/>
<polygon fill="midnightblue" stroke="midnightblue" points="266.591,-151.617 256.049,-152.671 264.948,-158.421 266.591,-151.617"/>
</g>
<!-- Node13 -->
<g id="node13" class="node"><title>Node13</title>
<polygon fill="none" stroke="#bfbfbf" points="429.5,-74.5 429.5,-93.5 464.5,-93.5 464.5,-74.5 429.5,-74.5"/>
<text text-anchor="middle" x="447" y="-81.5" font-family="Helvetica,sans-Serif" font-size="10.00">map</text>
</g>
<!-- Node12&#45;&gt;Node13 -->
<g id="edge12" class="edge"><title>Node12&#45;&gt;Node13</title>
<path fill="none" stroke="midnightblue" d="M453.318,-200.383C396.806,-193.173 321.531,-179.416 303,-156 269.572,-113.76 368.675,-94.833 419.264,-88.0924"/>
<polygon fill="midnightblue" stroke="midnightblue" points="419.772,-91.5561 429.257,-86.835 418.899,-84.6108 419.772,-91.5561"/>
</g>
<!-- Node14 -->
<g id="node14" class="node"><title>Node14</title>
<polygon fill="none" stroke="#bfbfbf" points="776,-136.5 776,-155.5 828,-155.5 828,-136.5 776,-136.5"/>
<text text-anchor="middle" x="802" y="-143.5" font-family="Helvetica,sans-Serif" font-size="10.00">memory</text>
</g>
<!-- Node12&#45;&gt;Node14 -->
<g id="edge14" class="edge"><title>Node12&#45;&gt;Node14</title>
<path fill="none" stroke="midnightblue" d="M563.292,-198.428C610.784,-189.11 688.634,-173.468 765.79,-155.968"/>
<polygon fill="midnightblue" stroke="midnightblue" points="766.712,-159.347 775.684,-153.712 765.156,-152.522 766.712,-159.347"/>
</g>
<!-- Node15 -->
<g id="node15" class="node"><title>Node15</title>
<polygon fill="none" stroke="#bfbfbf" points="884,-136.5 884,-155.5 984,-155.5 984,-136.5 884,-136.5"/>
<text text-anchor="middle" x="934" y="-143.5" font-family="Helvetica,sans-Serif" font-size="10.00">FairRootManager.h</text>
</g>
<!-- Node12&#45;&gt;Node15 -->
<g id="edge16" class="edge"><title>Node12&#45;&gt;Node15</title>
<path fill="none" stroke="midnightblue" d="M578.019,-198.467C656.509,-187.119 794.524,-167.165 873.67,-155.722"/>
<polygon fill="midnightblue" stroke="midnightblue" points="874.568,-159.129 883.964,-154.234 873.566,-152.201 874.568,-159.129"/>
</g>
<!-- Node16 -->
<g id="node16" class="node"><title>Node16</title>
<g id="a_node16"><a xlink:href="../../d0/d9a/MaterialManager_8h.html" target="_top" xlink:title="DetectorsBase/MaterialManager.h">
<polygon fill="none" stroke="black" points="592.5,-136.5 592.5,-155.5 757.5,-155.5 757.5,-136.5 592.5,-136.5"/>
<text text-anchor="middle" x="675" y="-143.5" font-family="Helvetica,sans-Serif" font-size="10.00">DetectorsBase/MaterialManager.h</text>
</a>
</g>
</g>
<!-- Node12&#45;&gt;Node16 -->
<g id="edge17" class="edge"><title>Node12&#45;&gt;Node16</title>
<path fill="none" stroke="midnightblue" d="M541.351,-198.403C567.995,-188.156 612.714,-170.956 643.014,-159.302"/>
<polygon fill="midnightblue" stroke="midnightblue" points="644.613,-162.437 652.69,-155.581 642.101,-155.904 644.613,-162.437"/>
</g>
<!-- Node17 -->
<g id="node17" class="node"><title>Node17</title>
<polygon fill="none" stroke="#bfbfbf" points="312.5,-136.5 312.5,-155.5 365.5,-155.5 365.5,-136.5 312.5,-136.5"/>
<text text-anchor="middle" x="339" y="-143.5" font-family="Helvetica,sans-Serif" font-size="10.00">cxxabi.h</text>
</g>
<!-- Node12&#45;&gt;Node17 -->
<g id="edge21" class="edge"><title>Node12&#45;&gt;Node17</title>
<path fill="none" stroke="midnightblue" d="M493.21,-198.403C462.067,-188.022 409.519,-170.506 374.547,-158.849"/>
<polygon fill="midnightblue" stroke="midnightblue" points="375.335,-155.423 364.742,-155.581 373.122,-162.063 375.335,-155.423"/>
</g>
<!-- Node18 -->
<g id="node18" class="node"><title>Node18</title>
<polygon fill="none" stroke="#bfbfbf" points="383.5,-136.5 383.5,-155.5 434.5,-155.5 434.5,-136.5 383.5,-136.5"/>
<text text-anchor="middle" x="409" y="-143.5" font-family="Helvetica,sans-Serif" font-size="10.00">typeinfo</text>
</g>
<!-- Node12&#45;&gt;Node18 -->
<g id="edge22" class="edge"><title>Node12&#45;&gt;Node18</title>
<path fill="none" stroke="midnightblue" d="M503.24,-198.403C485.024,-188.468 454.827,-171.997 433.532,-160.381"/>
<polygon fill="midnightblue" stroke="midnightblue" points="435.186,-157.297 424.731,-155.581 431.834,-163.442 435.186,-157.297"/>
</g>
<!-- Node19 -->
<g id="node19" class="node"><title>Node19</title>
<polygon fill="none" stroke="#bfbfbf" points="453,-136.5 453,-155.5 515,-155.5 515,-136.5 453,-136.5"/>
<text text-anchor="middle" x="484" y="-143.5" font-family="Helvetica,sans-Serif" font-size="10.00">type_traits</text>
</g>
<!-- Node12&#45;&gt;Node19 -->
<g id="edge23" class="edge"><title>Node12&#45;&gt;Node19</title>
<path fill="none" stroke="midnightblue" d="M513.985,-198.403C508.839,-189.582 500.688,-175.608 494.182,-164.455"/>
<polygon fill="midnightblue" stroke="midnightblue" points="497.067,-162.455 489.005,-155.581 491.021,-165.982 497.067,-162.455"/>
</g>
<!-- Node20 -->
<g id="node20" class="node"><title>Node20</title>
<polygon fill="none" stroke="#bfbfbf" points="533.5,-136.5 533.5,-155.5 574.5,-155.5 574.5,-136.5 533.5,-136.5"/>
<text text-anchor="middle" x="554" y="-143.5" font-family="Helvetica,sans-Serif" font-size="10.00">string</text>
</g>
<!-- Node12&#45;&gt;Node20 -->
<g id="edge24" class="edge"><title>Node12&#45;&gt;Node20</title>
<path fill="none" stroke="midnightblue" d="M524.015,-198.403C529.161,-189.582 537.312,-175.608 543.818,-164.455"/>
<polygon fill="midnightblue" stroke="midnightblue" points="546.979,-165.982 548.995,-155.581 540.933,-162.455 546.979,-165.982"/>
</g>
<!-- Node16&#45;&gt;Node4 -->
<g id="edge18" class="edge"><title>Node16&#45;&gt;Node4</title>
<path fill="none" stroke="midnightblue" d="M675,-136.403C675,-127.938 675,-114.728 675,-103.82"/>
<polygon fill="midnightblue" stroke="midnightblue" points="678.5,-103.581 675,-93.5806 671.5,-103.581 678.5,-103.581"/>
</g>
<!-- Node16&#45;&gt;Node13 -->
<g id="edge19" class="edge"><title>Node16&#45;&gt;Node13</title>
<path fill="none" stroke="midnightblue" d="M642.333,-136.403C597.268,-124.544 516.822,-103.374 474.603,-92.264"/>
<polygon fill="midnightblue" stroke="midnightblue" points="475.3,-88.8282 464.738,-89.6679 473.518,-95.5977 475.3,-88.8282"/>
</g>
<!-- Node21&#45;&gt;Node4 -->
<g id="edge26" class="edge"><title>Node21&#45;&gt;Node4</title>
<path fill="none" stroke="midnightblue" d="M869.42,-198.4C912.374,-185.27 989.262,-161.197 993,-156 998.19,-148.784 998.872,-142.673 993,-136 951.409,-88.7404 772.899,-115.959 712,-100 709.012,-99.217 705.943,-98.2521 702.912,-97.1923"/>
<polygon fill="midnightblue" stroke="midnightblue" points="704.094,-93.8973 693.504,-93.5904 701.592,-100.435 704.094,-93.8973"/>
</g>
<!-- Node23 -->
<g id="node23" class="node"><title>Node23</title>
<g id="a_node23"><a xlink:href="../../dd/d76/Cartesian3D_8h.html" target="_top" xlink:title="MathUtils/Cartesian3D.h">
<polygon fill="none" stroke="black" points="1048.5,-136.5 1048.5,-155.5 1173.5,-155.5 1173.5,-136.5 1048.5,-136.5"/>
<text text-anchor="middle" x="1111" y="-143.5" font-family="Helvetica,sans-Serif" font-size="10.00">MathUtils/Cartesian3D.h</text>
</a>
</g>
</g>
<!-- Node22&#45;&gt;Node23 -->
<g id="edge28" class="edge"><title>Node22&#45;&gt;Node23</title>
<path fill="none" stroke="midnightblue" d="M995.403,-192.933C1020.99,-182.765 1055.24,-169.157 1079.8,-159.396"/>
<polygon fill="midnightblue" stroke="midnightblue" points="1081.36,-162.545 1089.36,-155.6 1078.77,-156.04 1081.36,-162.545"/>
</g>
<!-- Node23&#45;&gt;Node4 -->
<g id="edge34" class="edge"><title>Node23&#45;&gt;Node4</title>
<path fill="none" stroke="midnightblue" d="M1048.45,-138.166C938.201,-126.09 720.066,-102.049 712,-100 709.006,-99.2396 705.934,-98.2894 702.9,-97.2386"/>
<polygon fill="midnightblue" stroke="midnightblue" points="704.08,-93.9426 693.489,-93.6479 701.585,-100.483 704.08,-93.9426"/>
</g>
<!-- Node24 -->
<g id="node24" class="node"><title>Node24</title>
<polygon fill="none" stroke="#bfbfbf" points="1199.5,-69 1199.5,-99 1350.5,-99 1350.5,-69 1199.5,-69"/>
<text text-anchor="start" x="1207.5" y="-87" font-family="Helvetica,sans-Serif" font-size="10.00">Math/GenVector/Displacement</text>
<text text-anchor="middle" x="1275" y="-76" font-family="Helvetica,sans-Serif" font-size="10.00">Vector3D.h</text>
</g>
<!-- Node23&#45;&gt;Node24 -->
<g id="edge29" class="edge"><title>Node23&#45;&gt;Node24</title>
<path fill="none" stroke="midnightblue" d="M1134.5,-136.403C1158.55,-127.603 1196.63,-113.674 1227.07,-102.534"/>
<polygon fill="midnightblue" stroke="midnightblue" points="1228.48,-105.748 1236.66,-99.0253 1226.07,-99.1743 1228.48,-105.748"/>
</g>
<!-- Node25 -->
<g id="node25" class="node"><title>Node25</title>
<polygon fill="none" stroke="#bfbfbf" points="1369,-74.5 1369,-93.5 1545,-93.5 1545,-74.5 1369,-74.5"/>
<text text-anchor="middle" x="1457" y="-81.5" font-family="Helvetica,sans-Serif" font-size="10.00">Math/GenVector/PositionVector3D.h</text>
</g>
<!-- Node23&#45;&gt;Node25 -->
<g id="edge30" class="edge"><title>Node23&#45;&gt;Node25</title>
<path fill="none" stroke="midnightblue" d="M1160.21,-136.467C1222.85,-125.604 1330.97,-106.855 1397.98,-95.2346"/>
<polygon fill="midnightblue" stroke="midnightblue" points="1398.71,-98.6606 1407.96,-93.5034 1397.51,-91.7635 1398.71,-98.6606"/>
</g>
<!-- Node26 -->
<g id="node26" class="node"><title>Node26</title>
<polygon fill="none" stroke="#bfbfbf" points="1562.5,-74.5 1562.5,-93.5 1711.5,-93.5 1711.5,-74.5 1562.5,-74.5"/>
<text text-anchor="middle" x="1637" y="-81.5" font-family="Helvetica,sans-Serif" font-size="10.00">Math/GenVector/Rotation3D.h</text>
</g>
<!-- Node23&#45;&gt;Node26 -->
<g id="edge31" class="edge"><title>Node23&#45;&gt;Node26</title>
<path fill="none" stroke="midnightblue" d="M1173.76,-140.107C1259.61,-133.073 1418.37,-118.847 1553,-100 1562.58,-98.6586 1572.74,-97.0254 1582.56,-95.3364"/>
<polygon fill="midnightblue" stroke="midnightblue" points="1583.39,-98.7446 1592.63,-93.5661 1582.18,-91.8502 1583.39,-98.7446"/>
</g>
<!-- Node27 -->
<g id="node27" class="node"><title>Node27</title>
<polygon fill="none" stroke="#bfbfbf" points="1730,-74.5 1730,-93.5 1886,-93.5 1886,-74.5 1730,-74.5"/>
<text text-anchor="middle" x="1808" y="-81.5" font-family="Helvetica,sans-Serif" font-size="10.00">Math/GenVector/Transform3D.h</text>
</g>
<!-- Node23&#45;&gt;Node27 -->
<g id="edge32" class="edge"><title>Node23&#45;&gt;Node27</title>
<path fill="none" stroke="midnightblue" d="M1173.88,-142.328C1284.57,-137.184 1521.36,-124.213 1720,-100 1730.61,-98.7068 1741.89,-97.0219 1752.71,-95.2501"/>
<polygon fill="midnightblue" stroke="midnightblue" points="1753.62,-98.6457 1762.9,-93.5347 1752.46,-91.7427 1753.62,-98.6457"/>
</g>
<!-- Node28 -->
<g id="node28" class="node"><title>Node28</title>
<polygon fill="none" stroke="#bfbfbf" points="721,-74.5 721,-93.5 881,-93.5 881,-74.5 721,-74.5"/>
<text text-anchor="middle" x="801" y="-81.5" font-family="Helvetica,sans-Serif" font-size="10.00">Math/GenVector/Translation3D.h</text>
</g>
<!-- Node23&#45;&gt;Node28 -->
<g id="edge33" class="edge"><title>Node23&#45;&gt;Node28</title>
<path fill="none" stroke="midnightblue" d="M1066.91,-136.467C1011.13,-125.671 915.109,-107.086 854.992,-95.4501"/>
<polygon fill="midnightblue" stroke="midnightblue" points="855.417,-91.9675 844.934,-93.5034 854.087,-98.8399 855.417,-91.9675"/>
</g>
<!-- Node29 -->
<g id="node29" class="node"><title>Node29</title>
<polygon fill="none" stroke="#bfbfbf" points="899,-74.5 899,-93.5 975,-93.5 975,-74.5 899,-74.5"/>
<text text-anchor="middle" x="937" y="-81.5" font-family="Helvetica,sans-Serif" font-size="10.00">TGeoMatrix.h</text>
</g>
<!-- Node23&#45;&gt;Node29 -->
<g id="edge35" class="edge"><title>Node23&#45;&gt;Node29</title>
<path fill="none" stroke="midnightblue" d="M1086.07,-136.403C1055.96,-126.022 1005.17,-108.506 971.362,-96.849"/>
<polygon fill="midnightblue" stroke="midnightblue" points="972.478,-93.5318 961.884,-93.5806 970.196,-100.149 972.478,-93.5318"/>
</g>
<!-- Node30 -->
<g id="node30" class="node"><title>Node30</title>
<polygon fill="none" stroke="#bfbfbf" points="993.5,-74.5 993.5,-93.5 1038.5,-93.5 1038.5,-74.5 993.5,-74.5"/>
<text text-anchor="middle" x="1016" y="-81.5" font-family="Helvetica,sans-Serif" font-size="10.00">iosfwd</text>
</g>
<!-- Node23&#45;&gt;Node30 -->
<g id="edge36" class="edge"><title>Node23&#45;&gt;Node30</title>
<path fill="none" stroke="midnightblue" d="M1097.39,-136.403C1081.94,-126.646 1056.51,-110.585 1038.18,-99.0109"/>
<polygon fill="midnightblue" stroke="midnightblue" points="1039.91,-95.9613 1029.59,-93.5806 1036.17,-101.88 1039.91,-95.9613"/>
</g>
<!-- Node31 -->
<g id="node31" class="node"><title>Node31</title>
<g id="a_node31"><a xlink:href="../../d2/dd0/Cartesian2D_8h.html" target="_top" xlink:title="MathUtils/Cartesian2D.h">
<polygon fill="none" stroke="black" points="1056.5,-74.5 1056.5,-93.5 1181.5,-93.5 1181.5,-74.5 1056.5,-74.5"/>
<text text-anchor="middle" x="1119" y="-81.5" font-family="Helvetica,sans-Serif" font-size="10.00">MathUtils/Cartesian2D.h</text>
</a>
</g>
</g>
<!-- Node23&#45;&gt;Node31 -->
<g id="edge37" class="edge"><title>Node23&#45;&gt;Node31</title>
<path fill="none" stroke="midnightblue" d="M1112.15,-136.403C1113.27,-127.938 1115.04,-114.728 1116.49,-103.82"/>
<polygon fill="midnightblue" stroke="midnightblue" points="1120,-103.955 1117.86,-93.5806 1113.06,-103.03 1120,-103.955"/>
</g>
<!-- Node32 -->
<g id="node32" class="node"><title>Node32</title>
<polygon fill="none" stroke="#bfbfbf" points="952.5,-1 952.5,-31 1103.5,-31 1103.5,-1 952.5,-1"/>
<text text-anchor="start" x="960.5" y="-19" font-family="Helvetica,sans-Serif" font-size="10.00">Math/GenVector/Displacement</text>
<text text-anchor="middle" x="1028" y="-8" font-family="Helvetica,sans-Serif" font-size="10.00">Vector2D.h</text>
</g>
<!-- Node31&#45;&gt;Node32 -->
<g id="edge38" class="edge"><title>Node31&#45;&gt;Node32</title>
<path fill="none" stroke="midnightblue" d="M1107.1,-74.3717C1094.22,-65.0286 1073.22,-49.7966 1056.09,-37.375"/>
<polygon fill="midnightblue" stroke="midnightblue" points="1057.7,-34.2194 1047.55,-31.1815 1053.59,-39.8859 1057.7,-34.2194"/>
</g>
<!-- Node33 -->
<g id="node33" class="node"><title>Node33</title>
<polygon fill="none" stroke="#bfbfbf" points="1122,-6.5 1122,-25.5 1298,-25.5 1298,-6.5 1122,-6.5"/>
<text text-anchor="middle" x="1210" y="-13.5" font-family="Helvetica,sans-Serif" font-size="10.00">Math/GenVector/PositionVector2D.h</text>
</g>
<!-- Node31&#45;&gt;Node33 -->
<g id="edge39" class="edge"><title>Node31&#45;&gt;Node33</title>
<path fill="none" stroke="midnightblue" d="M1130.9,-74.3717C1145.88,-63.5015 1171.86,-44.6602 1189.94,-31.5474"/>
<polygon fill="midnightblue" stroke="midnightblue" points="1192.06,-34.3349 1198.1,-25.6305 1187.95,-28.6684 1192.06,-34.3349"/>
</g>
</g>
</svg>
