<?xml version="1.0" encoding="UTF-8" standalone="no"?>
<!DOCTYPE svg PUBLIC "-//W3C//DTD SVG 1.1//EN"
 "http://www.w3.org/Graphics/SVG/1.1/DTD/svg11.dtd">
<!-- Generated by graphviz version 2.36.0 (20140111.2315)
 -->
<!-- Title: /home/travis/build/AliceO2Group/AliceO2/Detectors/TPC/reconstruction/include/TPCReconstruction/TPCCATracking.h Pages: 1 -->
<!--zoomable 536 -->
<svg id="main" version="1.1" xmlns="http://www.w3.org/2000/svg" xmlns:xlink="http://www.w3.org/1999/xlink" xml:space="preserve" onload="init(evt)">
<style type="text/css"><![CDATA[
.edge:hover path { stroke: red; }
.edge:hover polygon { stroke: red; fill: red; }
]]></style>
<script type="text/javascript"><![CDATA[
var edges = document.getElementsByTagName('g');
if (edges && edges.length) {
  for (var i=0;i<edges.length;i++) {
    if (edges[i].id.substr(0,4)=='edge') {
      edges[i].setAttribute('class','edge');
    }
  }
}
]]></script>
        <defs>
                <circle id="rim" cx="0" cy="0" r="7"/>
                <circle id="rim2" cx="0" cy="0" r="3.5"/>
                <g id="zoomPlus">
                        <use xlink:href="#rim" fill="#404040">
                                <set attributeName="fill" to="#808080" begin="zoomplus.mouseover" end="zoomplus.mouseout"/>
                        </use>
                        <path d="M-4,0h8M0,-4v8" fill="none" stroke="white" stroke-width="1.5" pointer-events="none"/>
                </g>
                <g id="zoomMin">
                        <use xlink:href="#rim" fill="#404040">
                                <set attributeName="fill" to="#808080" begin="zoomminus.mouseover" end="zoomminus.mouseout"/>
                        </use>
                        <path d="M-4,0h8" fill="none" stroke="white" stroke-width="1.5" pointer-events="none"/>
                </g>
                <g id="dirArrow">
                        <path fill="none" stroke="white" stroke-width="1.5" d="M0,-3.0v7 M-2.5,-0.5L0,-3.0L2.5,-0.5"/>
                </g>
               <g id="resetDef">
                       <use xlink:href="#rim2" fill="#404040">
                               <set attributeName="fill" to="#808080" begin="reset.mouseover" end="reset.mouseout"/>
                       </use>
               </g>
        </defs>

<script type="text/javascript">
var viewWidth = 2513;
var viewHeight = 536;
var sectionId = 'dynsection-0';
</script>
<script xlink:href="../../svgpan.js"/>
<svg id="graph" class="graph">
<g id="viewport">
<title>/home/travis/build/AliceO2Group/AliceO2/Detectors/TPC/reconstruction/include/TPCReconstruction/TPCCATracking.h</title>
<!-- Node1 -->
<g id="node1" class="node"><title>Node1</title>
<polygon fill="#bfbfbf" stroke="black" points="362,-464.5 362,-527.5 512,-527.5 512,-464.5 362,-464.5"/>
<text text-anchor="start" x="370" y="-515.5" font-family="Helvetica,sans-Serif" font-size="10.00">/home/travis/build</text>
<text text-anchor="start" x="370" y="-504.5" font-family="Helvetica,sans-Serif" font-size="10.00">/AliceO2Group/AliceO2</text>
<text text-anchor="start" x="370" y="-493.5" font-family="Helvetica,sans-Serif" font-size="10.00">/Detectors/TPC/reconstruction</text>
<text text-anchor="start" x="370" y="-482.5" font-family="Helvetica,sans-Serif" font-size="10.00">/include/TPCReconstruction</text>
<text text-anchor="middle" x="437" y="-471.5" font-family="Helvetica,sans-Serif" font-size="10.00">/TPCCATracking.h</text>
</g>
<!-- Node2 -->
<g id="node2" class="node"><title>Node2</title>
<polygon fill="none" stroke="#bfbfbf" points="281,-408.5 281,-427.5 333,-427.5 333,-408.5 281,-408.5"/>
<text text-anchor="middle" x="307" y="-415.5" font-family="Helvetica,sans-Serif" font-size="10.00">memory</text>
</g>
<!-- Node1&#45;&gt;Node2 -->
<g id="edge1" class="edge"><title>Node1&#45;&gt;Node2</title>
<path fill="none" stroke="midnightblue" d="M384.499,-464.307C365.708,-453.322 345.469,-441.489 330.387,-432.672"/>
<polygon fill="midnightblue" stroke="midnightblue" points="332.121,-429.632 321.722,-427.607 328.589,-435.675 332.121,-429.632"/>
</g>
<!-- Node3 -->
<g id="node3" class="node"><title>Node3</title>
<polygon fill="none" stroke="#bfbfbf" points="523,-142.5 523,-161.5 567,-161.5 567,-142.5 523,-142.5"/>
<text text-anchor="middle" x="545" y="-149.5" font-family="Helvetica,sans-Serif" font-size="10.00">vector</text>
</g>
<!-- Node1&#45;&gt;Node3 -->
<g id="edge2" class="edge"><title>Node1&#45;&gt;Node3</title>
<path fill="none" stroke="midnightblue" d="M437,-464.306C437,-436.34 437,-393.896 437,-357 437,-357 437,-357 437,-287 437,-233.426 489.98,-189.164 521.726,-167.451"/>
<polygon fill="midnightblue" stroke="midnightblue" points="524.023,-170.127 530.435,-161.692 520.163,-164.288 524.023,-170.127"/>
</g>
<!-- Node4 -->
<g id="node4" class="node"><title>Node4</title>
<g id="a_node4"><a xlink:href="../../dc/ddf/DataFormats_2Detectors_2TPC_2include_2DataFormatsTPC_2Cluster_8h.html" target="_top" xlink:title="DataFormatsTPC/Cluster.h">
<polygon fill="none" stroke="black" points="517.5,-346.5 517.5,-365.5 654.5,-365.5 654.5,-346.5 517.5,-346.5"/>
<text text-anchor="middle" x="586" y="-353.5" font-family="Helvetica,sans-Serif" font-size="10.00">DataFormatsTPC/Cluster.h</text>
</a>
</g>
</g>
<!-- Node1&#45;&gt;Node4 -->
<g id="edge3" class="edge"><title>Node1&#45;&gt;Node4</title>
<path fill="none" stroke="midnightblue" d="M455.553,-464.496C467.379,-446.657 483.857,-424.48 502,-408 518.942,-392.611 541.196,-379.345 558.542,-370.203"/>
<polygon fill="midnightblue" stroke="midnightblue" points="560.302,-373.234 567.608,-365.562 557.112,-367.003 560.302,-373.234"/>
</g>
<!-- Node8 -->
<g id="node8" class="node"><title>Node8</title>
<g id="a_node8"><a xlink:href="../../de/dcd/ClusterNative_8h.html" target="_top" xlink:title="Class of a TPC cluster in TPC&#45;native coordinates (row, time) ">
<polygon fill="none" stroke="black" points="231.5,-210.5 231.5,-229.5 396.5,-229.5 396.5,-210.5 231.5,-210.5"/>
<text text-anchor="middle" x="314" y="-217.5" font-family="Helvetica,sans-Serif" font-size="10.00">DataFormatsTPC/ClusterNative.h</text>
</a>
</g>
</g>
<!-- Node1&#45;&gt;Node8 -->
<g id="edge8" class="edge"><title>Node1&#45;&gt;Node8</title>
<path fill="none" stroke="midnightblue" d="M423.248,-464.366C397.542,-407.103 342.936,-285.46 322.211,-239.291"/>
<polygon fill="midnightblue" stroke="midnightblue" points="325.303,-237.631 318.014,-229.942 318.916,-240.498 325.303,-237.631"/>
</g>
<!-- Node14 -->
<g id="node14" class="node"><title>Node14</title>
<g id="a_node14"><a xlink:href="../../d5/dc9/TrackTPC_8h.html" target="_top" xlink:title="DataFormatsTPC/TrackTPC.h">
<polygon fill="none" stroke="black" points="511,-408.5 511,-427.5 661,-427.5 661,-408.5 511,-408.5"/>
<text text-anchor="middle" x="586" y="-415.5" font-family="Helvetica,sans-Serif" font-size="10.00">DataFormatsTPC/TrackTPC.h</text>
</a>
</g>
</g>
<!-- Node1&#45;&gt;Node14 -->
<g id="edge16" class="edge"><title>Node1&#45;&gt;Node14</title>
<path fill="none" stroke="midnightblue" d="M497.175,-464.307C519.118,-453.114 542.785,-441.043 560.167,-432.177"/>
<polygon fill="midnightblue" stroke="midnightblue" points="561.809,-435.268 569.126,-427.607 558.628,-429.033 561.809,-435.268"/>
</g>
<!-- Node5 -->
<g id="node5" class="node"><title>Node5</title>
<polygon fill="none" stroke="#bfbfbf" points="748,-74.5 748,-93.5 804,-93.5 804,-74.5 748,-74.5"/>
<text text-anchor="middle" x="776" y="-81.5" font-family="Helvetica,sans-Serif" font-size="10.00">Rtypes.h</text>
</g>
<!-- Node4&#45;&gt;Node5 -->
<g id="edge4" class="edge"><title>Node4&#45;&gt;Node5</title>
<path fill="none" stroke="midnightblue" d="M585.028,-346.374C582.717,-321.981 579.079,-251.215 608,-204 640.357,-151.176 705.902,-115.335 744.868,-97.692"/>
<polygon fill="midnightblue" stroke="midnightblue" points="746.423,-100.832 754.166,-93.5994 743.603,-94.4248 746.423,-100.832"/>
</g>
<!-- Node6 -->
<g id="node6" class="node"><title>Node6</title>
<g id="a_node6"><a xlink:href="../../df/d5d/common_2include_2CommonDataFormat_2TimeStamp_8h.html" target="_top" xlink:title="CommonDataFormat/TimeStamp.h">
<polygon fill="none" stroke="black" points="617,-210.5 617,-229.5 787,-229.5 787,-210.5 617,-210.5"/>
<text text-anchor="middle" x="702" y="-217.5" font-family="Helvetica,sans-Serif" font-size="10.00">CommonDataFormat/TimeStamp.h</text>
</a>
</g>
</g>
<!-- Node4&#45;&gt;Node6 -->
<g id="edge5" class="edge"><title>Node4&#45;&gt;Node6</title>
<path fill="none" stroke="midnightblue" d="M593.611,-346.208C612.705,-324.151 662.877,-266.193 687.688,-237.532"/>
<polygon fill="midnightblue" stroke="midnightblue" points="690.613,-239.502 694.512,-229.65 685.32,-234.92 690.613,-239.502"/>
</g>
<!-- Node7 -->
<g id="node7" class="node"><title>Node7</title>
<polygon fill="none" stroke="#bfbfbf" points="465.5,-273 465.5,-303 560.5,-303 560.5,-273 465.5,-273"/>
<text text-anchor="start" x="473.5" y="-291" font-family="Helvetica,sans-Serif" font-size="10.00">boost/serialization</text>
<text text-anchor="middle" x="513" y="-280" font-family="Helvetica,sans-Serif" font-size="10.00">/base_object.hpp</text>
</g>
<!-- Node4&#45;&gt;Node7 -->
<g id="edge7" class="edge"><title>Node4&#45;&gt;Node7</title>
<path fill="none" stroke="midnightblue" d="M576.457,-346.372C566.312,-337.2 549.891,-322.354 536.295,-310.062"/>
<polygon fill="midnightblue" stroke="midnightblue" points="538.451,-307.292 528.686,-303.181 533.756,-312.484 538.451,-307.292"/>
</g>
<!-- Node6&#45;&gt;Node5 -->
<g id="edge6" class="edge"><title>Node6&#45;&gt;Node5</title>
<path fill="none" stroke="midnightblue" d="M706.855,-210.208C718.878,-188.437 750.218,-131.686 766.248,-102.659"/>
<polygon fill="midnightblue" stroke="midnightblue" points="769.453,-104.096 771.223,-93.6503 763.325,-100.712 769.453,-104.096"/>
</g>
<!-- Node8&#45;&gt;Node3 -->
<g id="edge10" class="edge"><title>Node8&#45;&gt;Node3</title>
<path fill="none" stroke="midnightblue" d="M357.009,-210.421C397.792,-201.718 460.466,-186.856 513,-168 514.906,-167.316 516.852,-166.559 518.796,-165.759"/>
<polygon fill="midnightblue" stroke="midnightblue" points="520.585,-168.795 528.31,-161.545 517.749,-162.395 520.585,-168.795"/>
</g>
<!-- Node9 -->
<g id="node9" class="node"><title>Node9</title>
<polygon fill="none" stroke="#bfbfbf" points="160,-74.5 160,-93.5 206,-93.5 206,-74.5 160,-74.5"/>
<text text-anchor="middle" x="183" y="-81.5" font-family="Helvetica,sans-Serif" font-size="10.00">cstdint</text>
</g>
<!-- Node8&#45;&gt;Node9 -->
<g id="edge9" class="edge"><title>Node8&#45;&gt;Node9</title>
<path fill="none" stroke="midnightblue" d="M274.537,-210.488C250.158,-203.214 220.165,-190.267 202,-168 187.143,-149.787 183.412,-122.18 182.717,-103.874"/>
<polygon fill="midnightblue" stroke="midnightblue" points="186.217,-103.805 182.605,-93.8451 179.217,-103.884 186.217,-103.805"/>
</g>
<!-- Node10 -->
<g id="node10" class="node"><title>Node10</title>
<polygon fill="none" stroke="#bfbfbf" points="211.5,-142.5 211.5,-161.5 260.5,-161.5 260.5,-142.5 211.5,-142.5"/>
<text text-anchor="middle" x="236" y="-149.5" font-family="Helvetica,sans-Serif" font-size="10.00">cstddef</text>
</g>
<!-- Node8&#45;&gt;Node10 -->
<g id="edge11" class="edge"><title>Node8&#45;&gt;Node10</title>
<path fill="none" stroke="midnightblue" d="M303.803,-210.372C291.26,-199.758 269.735,-181.545 254.301,-168.485"/>
<polygon fill="midnightblue" stroke="midnightblue" points="256.343,-165.629 246.449,-161.841 251.822,-170.972 256.343,-165.629"/>
</g>
<!-- Node11 -->
<g id="node11" class="node"><title>Node11</title>
<polygon fill="none" stroke="#bfbfbf" points="278.5,-142.5 278.5,-161.5 337.5,-161.5 337.5,-142.5 278.5,-142.5"/>
<text text-anchor="middle" x="308" y="-149.5" font-family="Helvetica,sans-Serif" font-size="10.00">stdexcept</text>
</g>
<!-- Node8&#45;&gt;Node11 -->
<g id="edge12" class="edge"><title>Node8&#45;&gt;Node11</title>
<path fill="none" stroke="midnightblue" d="M313.216,-210.372C312.331,-200.643 310.866,-184.528 309.714,-171.85"/>
<polygon fill="midnightblue" stroke="midnightblue" points="313.195,-171.483 308.804,-161.841 306.224,-172.117 313.195,-171.483"/>
</g>
<!-- Node12 -->
<g id="node12" class="node"><title>Node12</title>
<g id="a_node12"><a xlink:href="../../d0/dda/DataFormats_2Detectors_2TPC_2include_2DataFormatsTPC_2Constants_8h.html" target="_top" xlink:title="DataFormatsTPC/Constants.h">
<polygon fill="none" stroke="black" points="355,-142.5 355,-161.5 505,-161.5 505,-142.5 355,-142.5"/>
<text text-anchor="middle" x="430" y="-149.5" font-family="Helvetica,sans-Serif" font-size="10.00">DataFormatsTPC/Constants.h</text>
</a>
</g>
</g>
<!-- Node8&#45;&gt;Node12 -->
<g id="edge13" class="edge"><title>Node8&#45;&gt;Node12</title>
<path fill="none" stroke="midnightblue" d="M329.165,-210.372C348.704,-199.254 382.898,-179.8 405.987,-166.662"/>
<polygon fill="midnightblue" stroke="midnightblue" points="407.871,-169.618 414.831,-161.63 404.409,-163.534 407.871,-169.618"/>
</g>
<!-- Node13 -->
<g id="node13" class="node"><title>Node13</title>
<g id="a_node13"><a xlink:href="../../d8/dc8/ClusterGroupAttribute_8h.html" target="_top" xlink:title="Meta data for a group describing it by sector number and global padrow. ">
<polygon fill="none" stroke="black" points="-0.5,-137 -0.5,-167 154.5,-167 154.5,-137 -0.5,-137"/>
<text text-anchor="start" x="7.5" y="-155" font-family="Helvetica,sans-Serif" font-size="10.00">DataFormatsTPC/ClusterGroup</text>
<text text-anchor="middle" x="77" y="-144" font-family="Helvetica,sans-Serif" font-size="10.00">Attribute.h</text>
</a>
</g>
</g>
<!-- Node8&#45;&gt;Node13 -->
<g id="edge14" class="edge"><title>Node8&#45;&gt;Node13</title>
<path fill="none" stroke="midnightblue" d="M283.016,-210.372C246.117,-200.096 183.639,-182.697 137.14,-169.748"/>
<polygon fill="midnightblue" stroke="midnightblue" points="138.047,-166.367 127.475,-167.056 136.169,-173.111 138.047,-166.367"/>
</g>
<!-- Node13&#45;&gt;Node9 -->
<g id="edge15" class="edge"><title>Node13&#45;&gt;Node9</title>
<path fill="none" stroke="midnightblue" d="M99.7397,-136.841C117.663,-125.681 142.531,-110.198 160.415,-99.0625"/>
<polygon fill="midnightblue" stroke="midnightblue" points="162.417,-101.939 169.056,-93.6819 158.717,-95.9964 162.417,-101.939"/>
</g>
<!-- Node14&#45;&gt;Node4 -->
<g id="edge70" class="edge"><title>Node14&#45;&gt;Node4</title>
<path fill="none" stroke="midnightblue" d="M586,-408.403C586,-399.938 586,-386.728 586,-375.82"/>
<polygon fill="midnightblue" stroke="midnightblue" points="589.5,-375.581 586,-365.581 582.5,-375.581 589.5,-375.581"/>
</g>
<!-- Node14&#45;&gt;Node8 -->
<g id="edge65" class="edge"><title>Node14&#45;&gt;Node8</title>
<path fill="none" stroke="midnightblue" d="M569.773,-408.491C553.717,-399.876 528.623,-385.878 508,-372 440.39,-326.502 365.713,-264.873 332.122,-236.486"/>
<polygon fill="midnightblue" stroke="midnightblue" points="334.024,-233.51 324.135,-229.708 329.495,-238.847 334.024,-233.51"/>
</g>
<!-- Node15 -->
<g id="node15" class="node"><title>Node15</title>
<g id="a_node15"><a xlink:href="../../d7/d8b/DataFormats_2Reconstruction_2include_2ReconstructionDataFormats_2Track_8h.html" target="_top" xlink:title="ReconstructionDataFormats\l/Track.h">
<polygon fill="none" stroke="black" points="1363,-341 1363,-371 1503,-371 1503,-341 1363,-341"/>
<text text-anchor="start" x="1371" y="-359" font-family="Helvetica,sans-Serif" font-size="10.00">ReconstructionDataFormats</text>
<text text-anchor="middle" x="1433" y="-348" font-family="Helvetica,sans-Serif" font-size="10.00">/Track.h</text>
</a>
</g>
</g>
<!-- Node14&#45;&gt;Node15 -->
<g id="edge17" class="edge"><title>Node14&#45;&gt;Node15</title>
<path fill="none" stroke="midnightblue" d="M661.166,-411.675C820.188,-400.411 1189.45,-374.252 1352.81,-362.681"/>
<polygon fill="midnightblue" stroke="midnightblue" points="1353.06,-366.171 1362.79,-361.973 1352.57,-359.189 1353.06,-366.171"/>
</g>
<!-- Node46 -->
<g id="node46" class="node"><title>Node46</title>
<g id="a_node46"><a xlink:href="../../d1/d73/Defs_8h.html" target="_top" xlink:title="Common definitions for 2D coordinates. ">
<polygon fill="none" stroke="black" points="2202,-210.5 2202,-229.5 2328,-229.5 2328,-210.5 2202,-210.5"/>
<text text-anchor="middle" x="2265" y="-217.5" font-family="Helvetica,sans-Serif" font-size="10.00">DataFormatsTPC/Defs.h</text>
</a>
</g>
</g>
<!-- Node14&#45;&gt;Node46 -->
<g id="edge66" class="edge"><title>Node14&#45;&gt;Node46</title>
<path fill="none" stroke="midnightblue" d="M661.138,-417.322C869.2,-416.821 1469.54,-405.929 1955,-304 2054.27,-283.156 2169.14,-249.978 2227.21,-232.554"/>
<polygon fill="midnightblue" stroke="midnightblue" points="2228.47,-235.828 2237.04,-229.591 2226.45,-229.126 2228.47,-235.828"/>
</g>
<!-- Node15&#45;&gt;Node5 -->
<g id="edge18" class="edge"><title>Node15&#45;&gt;Node5</title>
<path fill="none" stroke="midnightblue" d="M1362.82,-353.173C1247.19,-349.239 1022.34,-337.426 951,-304 872.447,-267.195 859.944,-239.622 811,-168 797.044,-147.577 786.972,-120.706 781.313,-103.151"/>
<polygon fill="midnightblue" stroke="midnightblue" points="784.65,-102.095 778.364,-93.5658 777.959,-104.153 784.65,-102.095"/>
</g>
<!-- Node16 -->
<g id="node16" class="node"><title>Node16</title>
<polygon fill="none" stroke="#bfbfbf" points="1766,-278.5 1766,-297.5 1822,-297.5 1822,-278.5 1766,-278.5"/>
<text text-anchor="middle" x="1794" y="-285.5" font-family="Helvetica,sans-Serif" font-size="10.00">algorithm</text>
</g>
<!-- Node15&#45;&gt;Node16 -->
<g id="edge19" class="edge"><title>Node15&#45;&gt;Node16</title>
<path fill="none" stroke="midnightblue" d="M1503.14,-347.56C1568.29,-339.764 1667.65,-325.608 1752,-304 1755.59,-303.081 1759.3,-301.983 1762.96,-300.803"/>
<polygon fill="midnightblue" stroke="midnightblue" points="1764.11,-304.11 1772.44,-297.56 1761.84,-297.487 1764.11,-304.11"/>
</g>
<!-- Node17 -->
<g id="node17" class="node"><title>Node17</title>
<polygon fill="none" stroke="#bfbfbf" points="906,-6.5 906,-25.5 944,-25.5 944,-6.5 906,-6.5"/>
<text text-anchor="middle" x="925" y="-13.5" font-family="Helvetica,sans-Serif" font-size="10.00">array</text>
</g>
<!-- Node15&#45;&gt;Node17 -->
<g id="edge20" class="edge"><title>Node15&#45;&gt;Node17</title>
<path fill="none" stroke="midnightblue" d="M1362.64,-354.661C1235.38,-353.023 972.666,-344.652 892,-304 843.064,-279.339 739.403,-101.315 739,-100 734.833,-86.402 730.375,-79.3084 739,-68 757.973,-43.1247 848.353,-27.3907 895.784,-20.7068"/>
<polygon fill="midnightblue" stroke="midnightblue" points="896.324,-24.1656 905.759,-19.3456 895.377,-17.2299 896.324,-24.1656"/>
</g>
<!-- Node18 -->
<g id="node18" class="node"><title>Node18</title>
<polygon fill="none" stroke="#bfbfbf" points="1840.5,-278.5 1840.5,-297.5 1881.5,-297.5 1881.5,-278.5 1840.5,-278.5"/>
<text text-anchor="middle" x="1861" y="-285.5" font-family="Helvetica,sans-Serif" font-size="10.00">cfloat</text>
</g>
<!-- Node15&#45;&gt;Node18 -->
<g id="edge21" class="edge"><title>Node15&#45;&gt;Node18</title>
<path fill="none" stroke="midnightblue" d="M1503.26,-352.794C1583.72,-348.716 1718.77,-337.097 1830,-304 1832.14,-303.363 1834.32,-302.592 1836.48,-301.74"/>
<polygon fill="midnightblue" stroke="midnightblue" points="1837.92,-304.926 1845.62,-297.649 1835.07,-298.536 1837.92,-304.926"/>
</g>
<!-- Node19 -->
<g id="node19" class="node"><title>Node19</title>
<polygon fill="none" stroke="#bfbfbf" points="2461,-6.5 2461,-25.5 2505,-25.5 2505,-6.5 2461,-6.5"/>
<text text-anchor="middle" x="2483" y="-13.5" font-family="Helvetica,sans-Serif" font-size="10.00">cmath</text>
</g>
<!-- Node15&#45;&gt;Node19 -->
<g id="edge22" class="edge"><title>Node15&#45;&gt;Node19</title>
<path fill="none" stroke="midnightblue" d="M1503.18,-353.451C1738.37,-347.342 2484,-320.156 2484,-221 2484,-221 2484,-221 2484,-151 2484,-110.045 2483.53,-62.0518 2483.23,-36.066"/>
<polygon fill="midnightblue" stroke="midnightblue" points="2486.73,-35.7378 2483.11,-25.7796 2479.73,-35.8201 2486.73,-35.7378"/>
</g>
<!-- Node20 -->
<g id="node20" class="node"><title>Node20</title>
<polygon fill="none" stroke="#bfbfbf" points="1900,-278.5 1900,-297.5 1946,-297.5 1946,-278.5 1900,-278.5"/>
<text text-anchor="middle" x="1923" y="-285.5" font-family="Helvetica,sans-Serif" font-size="10.00">cstring</text>
</g>
<!-- Node15&#45;&gt;Node20 -->
<g id="edge23" class="edge"><title>Node15&#45;&gt;Node20</title>
<path fill="none" stroke="midnightblue" d="M1503.19,-353.988C1594.02,-351.142 1756.47,-340.796 1890,-304 1892.5,-303.312 1895.04,-302.459 1897.55,-301.51"/>
<polygon fill="midnightblue" stroke="midnightblue" points="1899.09,-304.659 1906.93,-297.53 1896.36,-298.215 1899.09,-304.659"/>
</g>
<!-- Node21 -->
<g id="node21" class="node"><title>Node21</title>
<polygon fill="none" stroke="#bfbfbf" points="1213.5,-74.5 1213.5,-93.5 1258.5,-93.5 1258.5,-74.5 1213.5,-74.5"/>
<text text-anchor="middle" x="1236" y="-81.5" font-family="Helvetica,sans-Serif" font-size="10.00">iosfwd</text>
</g>
<!-- Node15&#45;&gt;Node21 -->
<g id="edge24" class="edge"><title>Node15&#45;&gt;Node21</title>
<path fill="none" stroke="midnightblue" d="M1437.61,-340.932C1445.83,-313.323 1460.34,-250.672 1440,-204 1404.31,-122.109 1350.82,-133.493 1268,-100 1266.36,-99.3358 1264.68,-98.6305 1262.99,-97.902"/>
<polygon fill="midnightblue" stroke="midnightblue" points="1264.01,-94.5211 1253.45,-93.598 1261.13,-100.902 1264.01,-94.5211"/>
</g>
<!-- Node22 -->
<g id="node22" class="node"><title>Node22</title>
<polygon fill="none" stroke="#bfbfbf" points="959.5,-278.5 959.5,-297.5 1042.5,-297.5 1042.5,-278.5 959.5,-278.5"/>
<text text-anchor="middle" x="1001" y="-285.5" font-family="Helvetica,sans-Serif" font-size="10.00">Math/SMatrix.h</text>
</g>
<!-- Node15&#45;&gt;Node22 -->
<g id="edge25" class="edge"><title>Node15&#45;&gt;Node22</title>
<path fill="none" stroke="midnightblue" d="M1362.93,-348.864C1286.08,-341.383 1159.38,-326.837 1052,-304 1047.18,-302.974 1042.14,-301.723 1037.2,-300.385"/>
<polygon fill="midnightblue" stroke="midnightblue" points="1037.85,-296.931 1027.27,-297.562 1035.93,-303.664 1037.85,-296.931"/>
</g>
<!-- Node23 -->
<g id="node23" class="node"><title>Node23</title>
<polygon fill="none" stroke="#bfbfbf" points="1060.5,-278.5 1060.5,-297.5 1145.5,-297.5 1145.5,-278.5 1060.5,-278.5"/>
<text text-anchor="middle" x="1103" y="-285.5" font-family="Helvetica,sans-Serif" font-size="10.00">Math/SVector.h</text>
</g>
<!-- Node15&#45;&gt;Node23 -->
<g id="edge26" class="edge"><title>Node15&#45;&gt;Node23</title>
<path fill="none" stroke="midnightblue" d="M1362.86,-343.342C1307.55,-333.8 1228.57,-319.405 1160,-304 1154.63,-302.794 1149.01,-301.434 1143.47,-300.036"/>
<polygon fill="midnightblue" stroke="midnightblue" points="1144.22,-296.616 1133.67,-297.507 1142.47,-303.394 1144.22,-296.616"/>
</g>
<!-- Node24 -->
<g id="node24" class="node"><title>Node24</title>
<g id="a_node24"><a xlink:href="../../d6/d84/MathConstants_8h.html" target="_top" xlink:title="useful math constants ">
<polygon fill="none" stroke="black" points="1450.5,-6.5 1450.5,-25.5 1629.5,-25.5 1629.5,-6.5 1450.5,-6.5"/>
<text text-anchor="middle" x="1540" y="-13.5" font-family="Helvetica,sans-Serif" font-size="10.00">CommonConstants/MathConstants.h</text>
</a>
</g>
</g>
<!-- Node15&#45;&gt;Node24 -->
<g id="edge27" class="edge"><title>Node15&#45;&gt;Node24</title>
<path fill="none" stroke="midnightblue" d="M1483.34,-340.963C1656.94,-292.327 2221.34,-132.234 2245,-100 2253.42,-88.5354 2254.69,-78.4131 2245,-68 2204.68,-24.6531 1824.54,-17.6772 1639.81,-16.8696"/>
<polygon fill="midnightblue" stroke="midnightblue" points="1639.56,-13.3687 1629.55,-16.8302 1639.54,-20.3687 1639.56,-13.3687"/>
</g>
<!-- Node25 -->
<g id="node25" class="node"><title>Node25</title>
<g id="a_node25"><a xlink:href="../../dd/d76/Cartesian3D_8h.html" target="_top" xlink:title="MathUtils/Cartesian3D.h">
<polygon fill="none" stroke="black" points="1510.5,-142.5 1510.5,-161.5 1635.5,-161.5 1635.5,-142.5 1510.5,-142.5"/>
<text text-anchor="middle" x="1573" y="-149.5" font-family="Helvetica,sans-Serif" font-size="10.00">MathUtils/Cartesian3D.h</text>
</a>
</g>
</g>
<!-- Node15&#45;&gt;Node25 -->
<g id="edge28" class="edge"><title>Node15&#45;&gt;Node25</title>
<path fill="none" stroke="midnightblue" d="M1454.79,-340.854C1467.92,-331.541 1484.31,-318.433 1496,-304 1530.48,-261.44 1555.53,-200.939 1566.63,-171.089"/>
<polygon fill="midnightblue" stroke="midnightblue" points="1569.96,-172.162 1570.08,-161.568 1563.38,-169.777 1569.96,-172.162"/>
</g>
<!-- Node35 -->
<g id="node35" class="node"><title>Node35</title>
<g id="a_node35"><a xlink:href="../../d9/d52/Common_2MathUtils_2include_2MathUtils_2Utils_8h.html" target="_top" xlink:title="MathUtils/Utils.h">
<polygon fill="none" stroke="black" points="1046,-74.5 1046,-93.5 1136,-93.5 1136,-74.5 1046,-74.5"/>
<text text-anchor="middle" x="1091" y="-81.5" font-family="Helvetica,sans-Serif" font-size="10.00">MathUtils/Utils.h</text>
</a>
</g>
</g>
<!-- Node15&#45;&gt;Node35 -->
<g id="edge40" class="edge"><title>Node15&#45;&gt;Node35</title>
<path fill="none" stroke="midnightblue" d="M1375.12,-340.962C1346.77,-332.643 1312.84,-320.466 1285,-304 1198.08,-252.583 1194.7,-215.173 1132,-136 1122.84,-124.427 1112.41,-111.464 1104.37,-101.502"/>
<polygon fill="midnightblue" stroke="midnightblue" points="1107.01,-99.2067 1098,-93.6319 1101.57,-103.608 1107.01,-99.2067"/>
</g>
<!-- Node36 -->
<g id="node36" class="node"><title>Node36</title>
<g id="a_node36"><a xlink:href="../../d4/de2/BaseCluster_8h.html" target="_top" xlink:title="ReconstructionDataFormats\l/BaseCluster.h">
<polygon fill="none" stroke="black" points="1294,-273 1294,-303 1434,-303 1434,-273 1294,-273"/>
<text text-anchor="start" x="1302" y="-291" font-family="Helvetica,sans-Serif" font-size="10.00">ReconstructionDataFormats</text>
<text text-anchor="middle" x="1364" y="-280" font-family="Helvetica,sans-Serif" font-size="10.00">/BaseCluster.h</text>
</a>
</g>
</g>
<!-- Node15&#45;&gt;Node36 -->
<g id="edge44" class="edge"><title>Node15&#45;&gt;Node36</title>
<path fill="none" stroke="midnightblue" d="M1418.03,-340.679C1408.81,-331.857 1396.81,-320.38 1386.46,-310.483"/>
<polygon fill="midnightblue" stroke="midnightblue" points="1388.59,-307.676 1378.94,-303.293 1383.75,-312.735 1388.59,-307.676"/>
</g>
<!-- Node25&#45;&gt;Node5 -->
<g id="edge34" class="edge"><title>Node25&#45;&gt;Node5</title>
<path fill="none" stroke="midnightblue" d="M1510.44,-149.252C1384.9,-145.155 1093.53,-132.684 851,-100 838.99,-98.3814 826.011,-96.0105 814.28,-93.6293"/>
<polygon fill="midnightblue" stroke="midnightblue" points="814.853,-90.1735 804.348,-91.5528 813.42,-97.0253 814.853,-90.1735"/>
</g>
<!-- Node25&#45;&gt;Node21 -->
<g id="edge36" class="edge"><title>Node25&#45;&gt;Node21</title>
<path fill="none" stroke="midnightblue" d="M1530.69,-142.475C1519.43,-140.284 1507.27,-137.986 1496,-136 1394.97,-118.189 1366.08,-130.069 1268,-100 1265.72,-99.302 1263.4,-98.4709 1261.1,-97.563"/>
<polygon fill="midnightblue" stroke="midnightblue" points="1262.49,-94.3514 1251.93,-93.5436 1259.68,-100.763 1262.49,-94.3514"/>
</g>
<!-- Node26 -->
<g id="node26" class="node"><title>Node26</title>
<polygon fill="none" stroke="#bfbfbf" points="1549.5,-69 1549.5,-99 1700.5,-99 1700.5,-69 1549.5,-69"/>
<text text-anchor="start" x="1557.5" y="-87" font-family="Helvetica,sans-Serif" font-size="10.00">Math/GenVector/Displacement</text>
<text text-anchor="middle" x="1625" y="-76" font-family="Helvetica,sans-Serif" font-size="10.00">Vector3D.h</text>
</g>
<!-- Node25&#45;&gt;Node26 -->
<g id="edge29" class="edge"><title>Node25&#45;&gt;Node26</title>
<path fill="none" stroke="midnightblue" d="M1579.8,-142.372C1586.82,-133.457 1598.07,-119.182 1607.59,-107.101"/>
<polygon fill="midnightblue" stroke="midnightblue" points="1610.39,-109.202 1613.83,-99.1815 1604.89,-104.87 1610.39,-109.202"/>
</g>
<!-- Node27 -->
<g id="node27" class="node"><title>Node27</title>
<polygon fill="none" stroke="#bfbfbf" points="1719,-74.5 1719,-93.5 1895,-93.5 1895,-74.5 1719,-74.5"/>
<text text-anchor="middle" x="1807" y="-81.5" font-family="Helvetica,sans-Serif" font-size="10.00">Math/GenVector/PositionVector3D.h</text>
</g>
<!-- Node25&#45;&gt;Node27 -->
<g id="edge30" class="edge"><title>Node25&#45;&gt;Node27</title>
<path fill="none" stroke="midnightblue" d="M1603.59,-142.372C1645.49,-130.555 1720.78,-109.318 1767.07,-96.261"/>
<polygon fill="midnightblue" stroke="midnightblue" points="1768.1,-99.6091 1776.77,-93.5259 1766.2,-92.872 1768.1,-99.6091"/>
</g>
<!-- Node28 -->
<g id="node28" class="node"><title>Node28</title>
<polygon fill="none" stroke="#bfbfbf" points="1912.5,-74.5 1912.5,-93.5 2061.5,-93.5 2061.5,-74.5 1912.5,-74.5"/>
<text text-anchor="middle" x="1987" y="-81.5" font-family="Helvetica,sans-Serif" font-size="10.00">Math/GenVector/Rotation3D.h</text>
</g>
<!-- Node25&#45;&gt;Node28 -->
<g id="edge31" class="edge"><title>Node25&#45;&gt;Node28</title>
<path fill="none" stroke="midnightblue" d="M1630.89,-142.472C1696.83,-132.66 1807.79,-115.856 1903,-100 1911.91,-98.5167 1921.33,-96.8894 1930.53,-95.2707"/>
<polygon fill="midnightblue" stroke="midnightblue" points="1931.14,-98.7163 1940.38,-93.5249 1929.92,-91.8237 1931.14,-98.7163"/>
</g>
<!-- Node29 -->
<g id="node29" class="node"><title>Node29</title>
<polygon fill="none" stroke="#bfbfbf" points="2080,-74.5 2080,-93.5 2236,-93.5 2236,-74.5 2080,-74.5"/>
<text text-anchor="middle" x="2158" y="-81.5" font-family="Helvetica,sans-Serif" font-size="10.00">Math/GenVector/Transform3D.h</text>
</g>
<!-- Node25&#45;&gt;Node29 -->
<g id="edge32" class="edge"><title>Node25&#45;&gt;Node29</title>
<path fill="none" stroke="midnightblue" d="M1635.53,-145.928C1729.9,-137.971 1914.23,-121.244 2070,-100 2080.24,-98.6034 2091.12,-96.9165 2101.6,-95.1854"/>
<polygon fill="midnightblue" stroke="midnightblue" points="2102.22,-98.6303 2111.51,-93.5201 2101.06,-91.7272 2102.22,-98.6303"/>
</g>
<!-- Node30 -->
<g id="node30" class="node"><title>Node30</title>
<polygon fill="none" stroke="#bfbfbf" points="1277,-74.5 1277,-93.5 1437,-93.5 1437,-74.5 1277,-74.5"/>
<text text-anchor="middle" x="1357" y="-81.5" font-family="Helvetica,sans-Serif" font-size="10.00">Math/GenVector/Translation3D.h</text>
</g>
<!-- Node25&#45;&gt;Node30 -->
<g id="edge33" class="edge"><title>Node25&#45;&gt;Node30</title>
<path fill="none" stroke="midnightblue" d="M1544.76,-142.372C1506.33,-130.629 1437.46,-109.585 1394.66,-96.5083"/>
<polygon fill="midnightblue" stroke="midnightblue" points="1395.49,-93.1009 1384.9,-93.5259 1393.44,-99.7954 1395.49,-93.1009"/>
</g>
<!-- Node31 -->
<g id="node31" class="node"><title>Node31</title>
<polygon fill="none" stroke="#bfbfbf" points="1455,-74.5 1455,-93.5 1531,-93.5 1531,-74.5 1455,-74.5"/>
<text text-anchor="middle" x="1493" y="-81.5" font-family="Helvetica,sans-Serif" font-size="10.00">TGeoMatrix.h</text>
</g>
<!-- Node25&#45;&gt;Node31 -->
<g id="edge35" class="edge"><title>Node25&#45;&gt;Node31</title>
<path fill="none" stroke="midnightblue" d="M1562.54,-142.372C1549.61,-131.699 1527.35,-113.343 1511.51,-100.268"/>
<polygon fill="midnightblue" stroke="midnightblue" points="1513.4,-97.2945 1503.46,-93.6305 1508.95,-102.694 1513.4,-97.2945"/>
</g>
<!-- Node32 -->
<g id="node32" class="node"><title>Node32</title>
<g id="a_node32"><a xlink:href="../../d2/dd0/Cartesian2D_8h.html" target="_top" xlink:title="MathUtils/Cartesian2D.h">
<polygon fill="none" stroke="black" points="2292.5,-74.5 2292.5,-93.5 2417.5,-93.5 2417.5,-74.5 2292.5,-74.5"/>
<text text-anchor="middle" x="2355" y="-81.5" font-family="Helvetica,sans-Serif" font-size="10.00">MathUtils/Cartesian2D.h</text>
</a>
</g>
</g>
<!-- Node25&#45;&gt;Node32 -->
<g id="edge37" class="edge"><title>Node25&#45;&gt;Node32</title>
<path fill="none" stroke="midnightblue" d="M1635.65,-147.5C1754.61,-140.575 2021.32,-123.718 2245,-100 2258.73,-98.5445 2273.38,-96.7295 2287.37,-94.8699"/>
<polygon fill="midnightblue" stroke="midnightblue" points="2287.98,-98.32 2297.42,-93.5125 2287.04,-91.3831 2287.98,-98.32"/>
</g>
<!-- Node33 -->
<g id="node33" class="node"><title>Node33</title>
<polygon fill="none" stroke="#bfbfbf" points="2097.5,-1 2097.5,-31 2248.5,-31 2248.5,-1 2097.5,-1"/>
<text text-anchor="start" x="2105.5" y="-19" font-family="Helvetica,sans-Serif" font-size="10.00">Math/GenVector/Displacement</text>
<text text-anchor="middle" x="2173" y="-8" font-family="Helvetica,sans-Serif" font-size="10.00">Vector2D.h</text>
</g>
<!-- Node32&#45;&gt;Node33 -->
<g id="edge38" class="edge"><title>Node32&#45;&gt;Node33</title>
<path fill="none" stroke="midnightblue" d="M2331.21,-74.3717C2303.46,-64.3109 2256.89,-47.4219 2221.44,-34.5662"/>
<polygon fill="midnightblue" stroke="midnightblue" points="2222.36,-31.1751 2211.76,-31.0562 2219.97,-37.7558 2222.36,-31.1751"/>
</g>
<!-- Node34 -->
<g id="node34" class="node"><title>Node34</title>
<polygon fill="none" stroke="#bfbfbf" points="2267,-6.5 2267,-25.5 2443,-25.5 2443,-6.5 2267,-6.5"/>
<text text-anchor="middle" x="2355" y="-13.5" font-family="Helvetica,sans-Serif" font-size="10.00">Math/GenVector/PositionVector2D.h</text>
</g>
<!-- Node32&#45;&gt;Node34 -->
<g id="edge39" class="edge"><title>Node32&#45;&gt;Node34</title>
<path fill="none" stroke="midnightblue" d="M2355,-74.3717C2355,-64.6426 2355,-48.528 2355,-35.8504"/>
<polygon fill="midnightblue" stroke="midnightblue" points="2358.5,-35.8411 2355,-25.8411 2351.5,-35.8412 2358.5,-35.8411"/>
</g>
<!-- Node35&#45;&gt;Node17 -->
<g id="edge41" class="edge"><title>Node35&#45;&gt;Node17</title>
<path fill="none" stroke="midnightblue" d="M1069.3,-74.3717C1039.67,-62.592 986.499,-41.4512 953.633,-28.3841"/>
<polygon fill="midnightblue" stroke="midnightblue" points="954.719,-25.0496 944.133,-24.6073 952.133,-31.5543 954.719,-25.0496"/>
</g>
<!-- Node35&#45;&gt;Node19 -->
<g id="edge42" class="edge"><title>Node35&#45;&gt;Node19</title>
<path fill="none" stroke="midnightblue" d="M1117.3,-74.4551C1126.31,-71.8993 1136.5,-69.4054 1146,-68 1432.99,-25.5314 2168.73,-98.9739 2451,-32 2453.65,-31.371 2456.35,-30.5089 2458.99,-29.5135"/>
<polygon fill="midnightblue" stroke="midnightblue" points="2460.4,-32.7147 2468.16,-25.5021 2457.6,-26.3008 2460.4,-32.7147"/>
</g>
<!-- Node35&#45;&gt;Node24 -->
<g id="edge43" class="edge"><title>Node35&#45;&gt;Node24</title>
<path fill="none" stroke="midnightblue" d="M1119.37,-74.4629C1127.87,-72.1205 1137.27,-69.7477 1146,-68 1245.23,-48.1436 1360.14,-34.2952 1440.16,-26.0905"/>
<polygon fill="midnightblue" stroke="midnightblue" points="1440.64,-29.5603 1450.23,-25.0688 1439.93,-22.596 1440.64,-29.5603"/>
</g>
<!-- Node36&#45;&gt;Node21 -->
<g id="edge49" class="edge"><title>Node36&#45;&gt;Node21</title>
<path fill="none" stroke="midnightblue" d="M1389.11,-272.998C1402.12,-264.234 1416.77,-251.635 1424,-236 1429.97,-223.091 1430.86,-216.459 1424,-204 1406.27,-171.788 1310.93,-121.672 1263.23,-98.0973"/>
<polygon fill="midnightblue" stroke="midnightblue" points="1264.61,-94.8755 1254.09,-93.6174 1261.52,-101.161 1264.61,-94.8755"/>
</g>
<!-- Node36&#45;&gt;Node25 -->
<g id="edge64" class="edge"><title>Node36&#45;&gt;Node25</title>
<path fill="none" stroke="midnightblue" d="M1392.09,-272.96C1411.06,-263.19 1436.46,-249.536 1458,-236 1492.97,-214.022 1531.48,-185.213 1553.88,-167.959"/>
<polygon fill="midnightblue" stroke="midnightblue" points="1556.15,-170.633 1561.91,-161.742 1551.86,-165.1 1556.15,-170.633"/>
</g>
<!-- Node37 -->
<g id="node37" class="node"><title>Node37</title>
<polygon fill="none" stroke="#bfbfbf" points="1240.5,-210.5 1240.5,-229.5 1299.5,-229.5 1299.5,-210.5 1240.5,-210.5"/>
<text text-anchor="middle" x="1270" y="-217.5" font-family="Helvetica,sans-Serif" font-size="10.00">TObject.h</text>
</g>
<!-- Node36&#45;&gt;Node37 -->
<g id="edge45" class="edge"><title>Node36&#45;&gt;Node37</title>
<path fill="none" stroke="midnightblue" d="M1343.6,-272.679C1327.99,-261.713 1306.52,-246.645 1290.81,-235.609"/>
<polygon fill="midnightblue" stroke="midnightblue" points="1292.5,-232.52 1282.3,-229.638 1288.48,-238.249 1292.5,-232.52"/>
</g>
<!-- Node38 -->
<g id="node38" class="node"><title>Node38</title>
<polygon fill="none" stroke="#bfbfbf" points="1154.5,-74.5 1154.5,-93.5 1195.5,-93.5 1195.5,-74.5 1154.5,-74.5"/>
<text text-anchor="middle" x="1175" y="-81.5" font-family="Helvetica,sans-Serif" font-size="10.00">bitset</text>
</g>
<!-- Node36&#45;&gt;Node38 -->
<g id="edge46" class="edge"><title>Node36&#45;&gt;Node38</title>
<path fill="none" stroke="midnightblue" d="M1296.65,-272.922C1273.71,-265.267 1249.48,-253.614 1232,-236 1212.77,-216.622 1189.79,-139.27 1179.91,-103.417"/>
<polygon fill="midnightblue" stroke="midnightblue" points="1183.28,-102.468 1177.29,-93.7335 1176.53,-104.301 1183.28,-102.468"/>
</g>
<!-- Node39 -->
<g id="node39" class="node"><title>Node39</title>
<polygon fill="none" stroke="#bfbfbf" points="1318,-210.5 1318,-229.5 1368,-229.5 1368,-210.5 1318,-210.5"/>
<text text-anchor="middle" x="1343" y="-217.5" font-family="Helvetica,sans-Serif" font-size="10.00">iomanip</text>
</g>
<!-- Node36&#45;&gt;Node39 -->
<g id="edge47" class="edge"><title>Node36&#45;&gt;Node39</title>
<path fill="none" stroke="midnightblue" d="M1359.44,-272.679C1356.36,-262.999 1352.27,-250.123 1348.93,-239.645"/>
<polygon fill="midnightblue" stroke="midnightblue" points="1352.18,-238.296 1345.81,-229.828 1345.51,-240.419 1352.18,-238.296"/>
</g>
<!-- Node40 -->
<g id="node40" class="node"><title>Node40</title>
<polygon fill="none" stroke="#bfbfbf" points="1386.5,-210.5 1386.5,-229.5 1415.5,-229.5 1415.5,-210.5 1386.5,-210.5"/>
<text text-anchor="middle" x="1401" y="-217.5" font-family="Helvetica,sans-Serif" font-size="10.00">ios</text>
</g>
<!-- Node36&#45;&gt;Node40 -->
<g id="edge48" class="edge"><title>Node36&#45;&gt;Node40</title>
<path fill="none" stroke="midnightblue" d="M1372.03,-272.679C1377.63,-262.694 1385.13,-249.307 1391.1,-238.66"/>
<polygon fill="midnightblue" stroke="midnightblue" points="1394.21,-240.263 1396.05,-229.828 1388.11,-236.84 1394.21,-240.263"/>
</g>
<!-- Node41 -->
<g id="node41" class="node"><title>Node41</title>
<g id="a_node41"><a xlink:href="../../d4/d20/DetMatrixCache_8h.html" target="_top" xlink:title="DetectorsCommonDataFormats\l/DetMatrixCache.h">
<polygon fill="none" stroke="black" points="990,-205 990,-235 1146,-235 1146,-205 990,-205"/>
<text text-anchor="start" x="998" y="-223" font-family="Helvetica,sans-Serif" font-size="10.00">DetectorsCommonDataFormats</text>
<text text-anchor="middle" x="1068" y="-212" font-family="Helvetica,sans-Serif" font-size="10.00">/DetMatrixCache.h</text>
</a>
</g>
</g>
<!-- Node36&#45;&gt;Node41 -->
<g id="edge50" class="edge"><title>Node36&#45;&gt;Node41</title>
<path fill="none" stroke="midnightblue" d="M1300.86,-272.922C1254,-262.474 1190,-248.203 1140.95,-237.267"/>
<polygon fill="midnightblue" stroke="midnightblue" points="1141.56,-233.816 1131.04,-235.056 1140.04,-240.649 1141.56,-233.816"/>
</g>
<!-- Node41&#45;&gt;Node3 -->
<g id="edge53" class="edge"><title>Node41&#45;&gt;Node3</title>
<path fill="none" stroke="midnightblue" d="M989.984,-209.155C873.345,-194.435 658.53,-167.327 577.276,-157.073"/>
<polygon fill="midnightblue" stroke="midnightblue" points="577.52,-153.576 567.161,-155.797 576.644,-160.521 577.52,-153.576"/>
</g>
<!-- Node41&#45;&gt;Node5 -->
<g id="edge63" class="edge"><title>Node41&#45;&gt;Node5</title>
<path fill="none" stroke="midnightblue" d="M989.774,-211.659C947.074,-204.982 894.591,-192.251 853,-168 824.545,-151.408 800.349,-120.973 787.029,-101.927"/>
<polygon fill="midnightblue" stroke="midnightblue" points="789.897,-99.9213 781.392,-93.6033 784.101,-103.846 789.897,-99.9213"/>
</g>
<!-- Node41&#45;&gt;Node17 -->
<g id="edge52" class="edge"><title>Node41&#45;&gt;Node17</title>
<path fill="none" stroke="midnightblue" d="M1086.14,-204.955C1105.43,-188.253 1131.22,-159.659 1116,-136 1095.13,-103.549 1069.75,-120.409 1037,-100 1017.97,-88.1404 1015.87,-81.5417 998,-68 980.959,-55.0867 961.026,-41.2417 946.298,-31.2402"/>
<polygon fill="midnightblue" stroke="midnightblue" points="948.12,-28.247 937.873,-25.5523 944.203,-34.0486 948.12,-28.247"/>
</g>
<!-- Node41&#45;&gt;Node25 -->
<g id="edge62" class="edge"><title>Node41&#45;&gt;Node25</title>
<path fill="none" stroke="midnightblue" d="M1146.08,-208.796C1242.77,-196.158 1406.22,-174.797 1500.34,-162.496"/>
<polygon fill="midnightblue" stroke="midnightblue" points="1500.89,-165.955 1510.35,-161.188 1499.98,-159.014 1500.89,-165.955"/>
</g>
<!-- Node42 -->
<g id="node42" class="node"><title>Node42</title>
<polygon fill="none" stroke="#bfbfbf" points="1036.5,-142.5 1036.5,-161.5 1107.5,-161.5 1107.5,-142.5 1036.5,-142.5"/>
<text text-anchor="middle" x="1072" y="-149.5" font-family="Helvetica,sans-Serif" font-size="10.00">FairLogger.h</text>
</g>
<!-- Node41&#45;&gt;Node42 -->
<g id="edge51" class="edge"><title>Node41&#45;&gt;Node42</title>
<path fill="none" stroke="midnightblue" d="M1068.87,-204.679C1069.45,-195.101 1070.22,-182.394 1070.85,-171.977"/>
<polygon fill="midnightblue" stroke="midnightblue" points="1074.35,-172.022 1071.46,-161.828 1067.37,-171.598 1074.35,-172.022"/>
</g>
<!-- Node43 -->
<g id="node43" class="node"><title>Node43</title>
<g id="a_node43"><a xlink:href="../../d6/d31/DetID_8h.html" target="_top" xlink:title="DetectorsCommonDataFormats\l/DetID.h">
<polygon fill="none" stroke="black" points="862,-137 862,-167 1018,-167 1018,-137 862,-137"/>
<text text-anchor="start" x="870" y="-155" font-family="Helvetica,sans-Serif" font-size="10.00">DetectorsCommonDataFormats</text>
<text text-anchor="middle" x="940" y="-144" font-family="Helvetica,sans-Serif" font-size="10.00">/DetID.h</text>
</a>
</g>
</g>
<!-- Node41&#45;&gt;Node43 -->
<g id="edge54" class="edge"><title>Node41&#45;&gt;Node43</title>
<path fill="none" stroke="midnightblue" d="M1040.54,-204.841C1021.81,-195.185 996.806,-182.29 976.417,-171.778"/>
<polygon fill="midnightblue" stroke="midnightblue" points="977.906,-168.607 967.414,-167.135 974.698,-174.829 977.906,-168.607"/>
</g>
<!-- Node43&#45;&gt;Node5 -->
<g id="edge55" class="edge"><title>Node43&#45;&gt;Node5</title>
<path fill="none" stroke="midnightblue" d="M904.818,-136.841C875.815,-125.169 835.06,-108.768 807.206,-97.5585"/>
<polygon fill="midnightblue" stroke="midnightblue" points="808.157,-94.1684 797.573,-93.6819 805.543,-100.662 808.157,-94.1684"/>
</g>
<!-- Node43&#45;&gt;Node9 -->
<g id="edge59" class="edge"><title>Node43&#45;&gt;Node9</title>
<path fill="none" stroke="midnightblue" d="M861.839,-144.185C698.99,-129.987 329.123,-97.7399 216.296,-87.903"/>
<polygon fill="midnightblue" stroke="midnightblue" points="216.462,-84.4042 206.195,-87.0223 215.854,-91.3778 216.462,-84.4042"/>
</g>
<!-- Node43&#45;&gt;Node17 -->
<g id="edge56" class="edge"><title>Node43&#45;&gt;Node17</title>
<path fill="none" stroke="midnightblue" d="M896.226,-136.911C878.96,-128.963 860.911,-117.103 851,-100 843.869,-87.6947 844.386,-80.5908 851,-68 860.584,-49.7561 879.976,-36.7619 896.505,-28.4568"/>
<polygon fill="midnightblue" stroke="midnightblue" points="898.235,-31.5116 905.81,-24.1045 895.269,-25.1709 898.235,-31.5116"/>
</g>
<!-- Node43&#45;&gt;Node35 -->
<g id="edge61" class="edge"><title>Node43&#45;&gt;Node35</title>
<path fill="none" stroke="midnightblue" d="M972.393,-136.841C998.98,-125.221 1036.29,-108.912 1061.93,-97.7063"/>
<polygon fill="midnightblue" stroke="midnightblue" points="1063.38,-100.894 1071.14,-93.6819 1060.57,-94.4799 1063.38,-100.894"/>
</g>
<!-- Node43&#45;&gt;Node38 -->
<g id="edge57" class="edge"><title>Node43&#45;&gt;Node38</title>
<path fill="none" stroke="midnightblue" d="M1012.8,-136.975C1052.51,-128.312 1102.17,-115.817 1145,-100 1146.65,-99.3898 1148.33,-98.7144 1150.01,-97.9977"/>
<polygon fill="midnightblue" stroke="midnightblue" points="1151.83,-101.012 1159.41,-93.6078 1148.87,-94.6698 1151.83,-101.012"/>
</g>
<!-- Node44 -->
<g id="node44" class="node"><title>Node44</title>
<polygon fill="none" stroke="#bfbfbf" points="940.5,-74.5 940.5,-93.5 989.5,-93.5 989.5,-74.5 940.5,-74.5"/>
<text text-anchor="middle" x="965" y="-81.5" font-family="Helvetica,sans-Serif" font-size="10.00">cassert</text>
</g>
<!-- Node43&#45;&gt;Node44 -->
<g id="edge58" class="edge"><title>Node43&#45;&gt;Node44</title>
<path fill="none" stroke="midnightblue" d="M945.425,-136.679C949.13,-126.898 954.071,-113.852 958.063,-103.315"/>
<polygon fill="midnightblue" stroke="midnightblue" points="961.387,-104.42 961.656,-93.8283 954.841,-101.94 961.387,-104.42"/>
</g>
<!-- Node45 -->
<g id="node45" class="node"><title>Node45</title>
<polygon fill="none" stroke="#bfbfbf" points="860,-74.5 860,-93.5 922,-93.5 922,-74.5 860,-74.5"/>
<text text-anchor="middle" x="891" y="-81.5" font-family="Helvetica,sans-Serif" font-size="10.00">type_traits</text>
</g>
<!-- Node43&#45;&gt;Node45 -->
<g id="edge60" class="edge"><title>Node43&#45;&gt;Node45</title>
<path fill="none" stroke="midnightblue" d="M929.368,-136.679C921.803,-126.49 911.609,-112.759 903.63,-102.011"/>
<polygon fill="midnightblue" stroke="midnightblue" points="906.326,-99.7711 897.554,-93.8283 900.705,-103.944 906.326,-99.7711"/>
</g>
<!-- Node46&#45;&gt;Node19 -->
<g id="edge67" class="edge"><title>Node46&#45;&gt;Node19</title>
<path fill="none" stroke="midnightblue" d="M2280.05,-210.254C2310.15,-192.279 2378.91,-148.751 2426,-100 2445.57,-79.7373 2463.09,-52.0938 2473.38,-34.3922"/>
<polygon fill="midnightblue" stroke="midnightblue" points="2476.43,-36.1145 2478.33,-25.6907 2470.35,-32.6568 2476.43,-36.1145"/>
</g>
<!-- Node46&#45;&gt;Node25 -->
<g id="edge69" class="edge"><title>Node46&#45;&gt;Node25</title>
<path fill="none" stroke="midnightblue" d="M2201.76,-212.968C2073.31,-200.717 1782.55,-172.986 1646.19,-159.98"/>
<polygon fill="midnightblue" stroke="midnightblue" points="1646.13,-156.459 1635.85,-158.994 1645.47,-163.428 1646.13,-156.459"/>
</g>
<!-- Node46&#45;&gt;Node32 -->
<g id="edge68" class="edge"><title>Node46&#45;&gt;Node32</title>
<path fill="none" stroke="midnightblue" d="M2270.91,-210.208C2285.59,-188.342 2323.98,-131.19 2343.39,-102.28"/>
<polygon fill="midnightblue" stroke="midnightblue" points="2346.52,-103.903 2349.19,-93.6503 2340.71,-100 2346.52,-103.903"/>
</g>
</g>
</svg>
        <g id="navigator" transform="translate(0 0)" fill="#404254">
                <rect fill="#f2f5e9" fill-opacity="0.5" stroke="#606060" stroke-width=".5" x="0" y="0" width="60" height="60"/>
                <use id="zoomplus" xlink:href="#zoomPlus" x="17" y="9" onmousedown="handleZoom(evt,'in')"/>
                <use id="zoomminus" xlink:href="#zoomMin" x="42" y="9" onmousedown="handleZoom(evt,'out')"/>
                <use id="reset" xlink:href="#resetDef" x="30" y="36" onmousedown="handleReset()"/>
                <g id="arrowUp" xlink:href="#dirArrow" transform="translate(30 24)" onmousedown="handlePan(0,-1)">
                  <use xlink:href="#rim" fill="#404040">
                        <set attributeName="fill" to="#808080" begin="arrowUp.mouseover" end="arrowUp.mouseout"/>
                  </use>
                  <path fill="none" stroke="white" stroke-width="1.5" d="M0,-3.0v7 M-2.5,-0.5L0,-3.0L2.5,-0.5"/>
                </g>
                <g id="arrowRight" xlink:href="#dirArrow" transform="rotate(90) translate(36 -43)" onmousedown="handlePan(1,0)">
                  <use xlink:href="#rim" fill="#404040">
                        <set attributeName="fill" to="#808080" begin="arrowRight.mouseover" end="arrowRight.mouseout"/>
                  </use>
                  <path fill="none" stroke="white" stroke-width="1.5" d="M0,-3.0v7 M-2.5,-0.5L0,-3.0L2.5,-0.5"/>
                </g>
                <g id="arrowDown" xlink:href="#dirArrow" transform="rotate(180) translate(-30 -48)" onmousedown="handlePan(0,1)">
                  <use xlink:href="#rim" fill="#404040">
                        <set attributeName="fill" to="#808080" begin="arrowDown.mouseover" end="arrowDown.mouseout"/>
                  </use>
                  <path fill="none" stroke="white" stroke-width="1.5" d="M0,-3.0v7 M-2.5,-0.5L0,-3.0L2.5,-0.5"/>
                </g>
                <g id="arrowLeft" xlink:href="#dirArrow" transform="rotate(270) translate(-36 17)" onmousedown="handlePan(-1,0)">
                  <use xlink:href="#rim" fill="#404040">
                        <set attributeName="fill" to="#808080" begin="arrowLeft.mouseover" end="arrowLeft.mouseout"/>
                  </use>
                  <path fill="none" stroke="white" stroke-width="1.5" d="M0,-3.0v7 M-2.5,-0.5L0,-3.0L2.5,-0.5"/>
                </g>
        </g>
        <svg viewBox="0 0 15 15" width="100%" height="30px" preserveAspectRatio="xMaxYMin meet">
         <g id="arrow_out" transform="scale(0.3 0.3)">
          <a xlink:href="TPCCATracking_8h__incl_org.svg" target="_base">
           <rect id="button" ry="5" rx="5" y="6" x="6" height="38" width="38"
                fill="#f2f5e9" fill-opacity="0.5" stroke="#606060" stroke-width="1.0"/>
           <path id="arrow"
             d="M 11.500037,31.436501 C 11.940474,20.09759 22.043105,11.32322 32.158766,21.979434 L 37.068811,17.246167 C 37.068811,17.246167 37.088388,32 37.088388,32 L 22.160133,31.978069 C 22.160133,31.978069 26.997745,27.140456 26.997745,27.140456 C 18.528582,18.264221 13.291696,25.230495 11.500037,31.436501 z"
             style="fill:#404040;"/>
          </a>
         </g>
        </svg>
</svg>
