<?xml version="1.0" encoding="UTF-8" standalone="no"?>
<!DOCTYPE svg PUBLIC "-//W3C//DTD SVG 1.1//EN"
 "http://www.w3.org/Graphics/SVG/1.1/DTD/svg11.dtd">
<!-- Generated by graphviz version 2.36.0 (20140111.2315)
 -->
<!-- Title: /home/travis/build/AliceO2Group/AliceO2/CCDB/include/CCDB/Manager.h Pages: 1 -->
<svg width="2459pt" height="440pt"
 viewBox="0.00 0.00 2459.00 440.00" xmlns="http://www.w3.org/2000/svg" xmlns:xlink="http://www.w3.org/1999/xlink">
<g id="graph0" class="graph" transform="scale(1 1) rotate(0) translate(4 436)">
<title>/home/travis/build/AliceO2Group/AliceO2/CCDB/include/CCDB/Manager.h</title>
<!-- Node1 -->
<g id="node1" class="node"><title>Node1</title>
<polygon fill="#bfbfbf" stroke="black" points="913,-390.5 913,-431.5 1077,-431.5 1077,-390.5 913,-390.5"/>
<text text-anchor="start" x="921" y="-419.5" font-family="Helvetica,sans-Serif" font-size="10.00">/home/travis/build</text>
<text text-anchor="start" x="921" y="-408.5" font-family="Helvetica,sans-Serif" font-size="10.00">/AliceO2Group/AliceO2</text>
<text text-anchor="middle" x="995" y="-397.5" font-family="Helvetica,sans-Serif" font-size="10.00">/CCDB/include/CCDB/Manager.h</text>
</g>
<!-- Node2 -->
<g id="node2" class="node"><title>Node2</title>
<g id="a_node2"><a xlink:href="../../d7/dc8/ConditionsMQServer_8h.html" target="_top" xlink:title="/home/travis/build\l/AliceO2Group/AliceO2\l/CCDB/include/CCDB/Conditions\lMQServer.h">
<polygon fill="none" stroke="black" points="201,-296 201,-348 365,-348 365,-296 201,-296"/>
<text text-anchor="start" x="209" y="-336" font-family="Helvetica,sans-Serif" font-size="10.00">/home/travis/build</text>
<text text-anchor="start" x="209" y="-325" font-family="Helvetica,sans-Serif" font-size="10.00">/AliceO2Group/AliceO2</text>
<text text-anchor="start" x="209" y="-314" font-family="Helvetica,sans-Serif" font-size="10.00">/CCDB/include/CCDB/Conditions</text>
<text text-anchor="middle" x="283" y="-303" font-family="Helvetica,sans-Serif" font-size="10.00">MQServer.h</text>
</a>
</g>
</g>
<!-- Node1&#45;&gt;Node2 -->
<g id="edge1" class="edge"><title>Node1&#45;&gt;Node2</title>
<path fill="none" stroke="midnightblue" d="M902.423,-407.753C781.448,-403.408 563.513,-390.743 381,-354 372.865,-352.362 364.453,-350.297 356.131,-348.013"/>
<polygon fill="midnightblue" stroke="midnightblue" points="902.635,-411.262 912.75,-408.112 902.878,-404.266 902.635,-411.262"/>
</g>
<!-- Node5 -->
<g id="node5" class="node"><title>Node5</title>
<g id="a_node5"><a xlink:href="../../df/d0e/FileStorage_8h.html" target="_top" xlink:title="/home/travis/build\l/AliceO2Group/AliceO2\l/CCDB/include/CCDB/FileStorage.h">
<polygon fill="none" stroke="black" points="390,-301.5 390,-342.5 566,-342.5 566,-301.5 390,-301.5"/>
<text text-anchor="start" x="398" y="-330.5" font-family="Helvetica,sans-Serif" font-size="10.00">/home/travis/build</text>
<text text-anchor="start" x="398" y="-319.5" font-family="Helvetica,sans-Serif" font-size="10.00">/AliceO2Group/AliceO2</text>
<text text-anchor="middle" x="478" y="-308.5" font-family="Helvetica,sans-Serif" font-size="10.00">/CCDB/include/CCDB/FileStorage.h</text>
</a>
</g>
</g>
<!-- Node1&#45;&gt;Node5 -->
<g id="edge4" class="edge"><title>Node1&#45;&gt;Node5</title>
<path fill="none" stroke="midnightblue" d="M902.727,-401.846C818.134,-393.358 689.727,-377.915 580,-354 565.714,-350.886 550.532,-346.742 536.367,-342.5"/>
<polygon fill="midnightblue" stroke="midnightblue" points="902.525,-405.344 912.821,-402.847 903.216,-398.378 902.525,-405.344"/>
</g>
<!-- Node7 -->
<g id="node7" class="node"><title>Node7</title>
<g id="a_node7"><a xlink:href="../../d0/da4/Manager_8cxx.html" target="_top" xlink:title="/home/travis/build\l/AliceO2Group/AliceO2\l/CCDB/src/Manager.cxx">
<polygon fill="none" stroke="black" points="545.5,-201.5 545.5,-242.5 670.5,-242.5 670.5,-201.5 545.5,-201.5"/>
<text text-anchor="start" x="553.5" y="-230.5" font-family="Helvetica,sans-Serif" font-size="10.00">/home/travis/build</text>
<text text-anchor="start" x="553.5" y="-219.5" font-family="Helvetica,sans-Serif" font-size="10.00">/AliceO2Group/AliceO2</text>
<text text-anchor="middle" x="608" y="-208.5" font-family="Helvetica,sans-Serif" font-size="10.00">/CCDB/src/Manager.cxx</text>
</a>
</g>
</g>
<!-- Node1&#45;&gt;Node7 -->
<g id="edge13" class="edge"><title>Node1&#45;&gt;Node7</title>
<path fill="none" stroke="midnightblue" d="M902.613,-409.513C802.025,-406.82 650.452,-395.707 613,-354 585.629,-323.519 594.276,-271.137 601.823,-242.722"/>
<polygon fill="midnightblue" stroke="midnightblue" points="902.707,-413.016 912.789,-409.761 902.878,-406.018 902.707,-413.016"/>
</g>
<!-- Node8 -->
<g id="node8" class="node"><title>Node8</title>
<g id="a_node8"><a xlink:href="../../d6/d01/GridStorage_8h.html" target="_top" xlink:title="/home/travis/build\l/AliceO2Group/AliceO2\l/CCDB/include/CCDB/GridStorage.h">
<polygon fill="none" stroke="black" points="622,-301.5 622,-342.5 800,-342.5 800,-301.5 622,-301.5"/>
<text text-anchor="start" x="630" y="-330.5" font-family="Helvetica,sans-Serif" font-size="10.00">/home/travis/build</text>
<text text-anchor="start" x="630" y="-319.5" font-family="Helvetica,sans-Serif" font-size="10.00">/AliceO2Group/AliceO2</text>
<text text-anchor="middle" x="711" y="-308.5" font-family="Helvetica,sans-Serif" font-size="10.00">/CCDB/include/CCDB/GridStorage.h</text>
</a>
</g>
</g>
<!-- Node1&#45;&gt;Node8 -->
<g id="edge7" class="edge"><title>Node1&#45;&gt;Node8</title>
<path fill="none" stroke="midnightblue" d="M919.275,-387.461C885.492,-377.339 845.22,-365.181 809,-354 797.15,-350.342 784.511,-346.385 772.385,-342.562"/>
<polygon fill="midnightblue" stroke="midnightblue" points="918.496,-390.881 929.08,-390.396 920.504,-384.176 918.496,-390.881"/>
</g>
<!-- Node10 -->
<g id="node10" class="node"><title>Node10</title>
<g id="a_node10"><a xlink:href="../../d8/d9b/LocalStorage_8h.html" target="_top" xlink:title="/home/travis/build\l/AliceO2Group/AliceO2\l/CCDB/include/CCDB/LocalStorage.h">
<polygon fill="none" stroke="black" points="818.5,-301.5 818.5,-342.5 1001.5,-342.5 1001.5,-301.5 818.5,-301.5"/>
<text text-anchor="start" x="826.5" y="-330.5" font-family="Helvetica,sans-Serif" font-size="10.00">/home/travis/build</text>
<text text-anchor="start" x="826.5" y="-319.5" font-family="Helvetica,sans-Serif" font-size="10.00">/AliceO2Group/AliceO2</text>
<text text-anchor="middle" x="910" y="-308.5" font-family="Helvetica,sans-Serif" font-size="10.00">/CCDB/include/CCDB/LocalStorage.h</text>
</a>
</g>
</g>
<!-- Node1&#45;&gt;Node10 -->
<g id="edge10" class="edge"><title>Node1&#45;&gt;Node10</title>
<path fill="none" stroke="midnightblue" d="M968.521,-382.898C955.796,-369.873 940.825,-354.551 929.211,-342.664"/>
<polygon fill="midnightblue" stroke="midnightblue" points="966.22,-385.551 975.712,-390.258 971.227,-380.66 966.22,-385.551"/>
</g>
<!-- Node12 -->
<g id="node12" class="node"><title>Node12</title>
<g id="a_node12"><a xlink:href="../../db/d03/Storage_8cxx.html" target="_top" xlink:title="/home/travis/build\l/AliceO2Group/AliceO2\l/CCDB/src/Storage.cxx">
<polygon fill="none" stroke="black" points="1019.5,-301.5 1019.5,-342.5 1140.5,-342.5 1140.5,-301.5 1019.5,-301.5"/>
<text text-anchor="start" x="1027.5" y="-330.5" font-family="Helvetica,sans-Serif" font-size="10.00">/home/travis/build</text>
<text text-anchor="start" x="1027.5" y="-319.5" font-family="Helvetica,sans-Serif" font-size="10.00">/AliceO2Group/AliceO2</text>
<text text-anchor="middle" x="1080" y="-308.5" font-family="Helvetica,sans-Serif" font-size="10.00">/CCDB/src/Storage.cxx</text>
</a>
</g>
</g>
<!-- Node1&#45;&gt;Node12 -->
<g id="edge14" class="edge"><title>Node1&#45;&gt;Node12</title>
<path fill="none" stroke="midnightblue" d="M1021.48,-382.898C1034.2,-369.873 1049.17,-354.551 1060.79,-342.664"/>
<polygon fill="midnightblue" stroke="midnightblue" points="1018.77,-380.66 1014.29,-390.258 1023.78,-385.551 1018.77,-380.66"/>
</g>
<!-- Node13 -->
<g id="node13" class="node"><title>Node13</title>
<g id="a_node13"><a xlink:href="../../d2/d37/testWriteReadAny_8cxx.html" target="_top" xlink:title="/home/travis/build\l/AliceO2Group/AliceO2\l/CCDB/test/testWriteReadAny.cxx">
<polygon fill="none" stroke="black" points="1159,-301.5 1159,-342.5 1329,-342.5 1329,-301.5 1159,-301.5"/>
<text text-anchor="start" x="1167" y="-330.5" font-family="Helvetica,sans-Serif" font-size="10.00">/home/travis/build</text>
<text text-anchor="start" x="1167" y="-319.5" font-family="Helvetica,sans-Serif" font-size="10.00">/AliceO2Group/AliceO2</text>
<text text-anchor="middle" x="1244" y="-308.5" font-family="Helvetica,sans-Serif" font-size="10.00">/CCDB/test/testWriteReadAny.cxx</text>
</a>
</g>
</g>
<!-- Node1&#45;&gt;Node13 -->
<g id="edge15" class="edge"><title>Node1&#45;&gt;Node13</title>
<path fill="none" stroke="midnightblue" d="M1060.46,-387.13C1100.07,-373.288 1150.07,-355.819 1187.88,-342.61"/>
<polygon fill="midnightblue" stroke="midnightblue" points="1059.17,-383.873 1050.88,-390.476 1061.48,-390.481 1059.17,-383.873"/>
</g>
<!-- Node14 -->
<g id="node14" class="node"><title>Node14</title>
<g id="a_node14"><a xlink:href="../../dc/df2/CDBInterface_8h.html" target="_top" xlink:title="Simple interface to the CDB manager. ">
<polygon fill="none" stroke="black" points="1347.5,-296 1347.5,-348 1490.5,-348 1490.5,-296 1347.5,-296"/>
<text text-anchor="start" x="1355.5" y="-336" font-family="Helvetica,sans-Serif" font-size="10.00">/home/travis/build</text>
<text text-anchor="start" x="1355.5" y="-325" font-family="Helvetica,sans-Serif" font-size="10.00">/AliceO2Group/AliceO2</text>
<text text-anchor="start" x="1355.5" y="-314" font-family="Helvetica,sans-Serif" font-size="10.00">/Detectors/TPC/base/include</text>
<text text-anchor="middle" x="1419" y="-303" font-family="Helvetica,sans-Serif" font-size="10.00">/TPCBase/CDBInterface.h</text>
</a>
</g>
</g>
<!-- Node1&#45;&gt;Node14 -->
<g id="edge16" class="edge"><title>Node1&#45;&gt;Node14</title>
<path fill="none" stroke="midnightblue" d="M1087.15,-400.125C1156.83,-391.418 1254.44,-376.558 1338,-354 1344.4,-352.273 1350.99,-350.224 1357.52,-348.015"/>
<polygon fill="midnightblue" stroke="midnightblue" points="1086.58,-396.67 1077.08,-401.365 1087.43,-403.617 1086.58,-396.67"/>
</g>
<!-- Node16 -->
<g id="node16" class="node"><title>Node16</title>
<g id="a_node16"><a xlink:href="../../d1/d8a/testTPCCDBInterface_8cxx.html" target="_top" xlink:title="/home/travis/build\l/AliceO2Group/AliceO2\l/Detectors/TPC/base/test\l/testTPCCDBInterface.cxx">
<polygon fill="none" stroke="black" points="1401.5,-196 1401.5,-248 1536.5,-248 1536.5,-196 1401.5,-196"/>
<text text-anchor="start" x="1409.5" y="-236" font-family="Helvetica,sans-Serif" font-size="10.00">/home/travis/build</text>
<text text-anchor="start" x="1409.5" y="-225" font-family="Helvetica,sans-Serif" font-size="10.00">/AliceO2Group/AliceO2</text>
<text text-anchor="start" x="1409.5" y="-214" font-family="Helvetica,sans-Serif" font-size="10.00">/Detectors/TPC/base/test</text>
<text text-anchor="middle" x="1469" y="-203" font-family="Helvetica,sans-Serif" font-size="10.00">/testTPCCDBInterface.cxx</text>
</a>
</g>
</g>
<!-- Node1&#45;&gt;Node16 -->
<g id="edge19" class="edge"><title>Node1&#45;&gt;Node16</title>
<path fill="none" stroke="midnightblue" d="M1087.37,-406.288C1225.36,-399.782 1472.1,-384.059 1499,-354 1525.22,-324.706 1503.93,-277.221 1486.31,-248.184"/>
<polygon fill="midnightblue" stroke="midnightblue" points="1087.05,-402.799 1077.22,-406.759 1087.37,-409.792 1087.05,-402.799"/>
</g>
<!-- Node17 -->
<g id="node17" class="node"><title>Node17</title>
<g id="a_node17"><a xlink:href="../../d8/d25/EventManager_8h.html" target="_top" xlink:title="/home/travis/build\l/AliceO2Group/AliceO2\l/EventVisualisation/Base\l/include/EventVisualisationBase\l/EventManager.h">
<polygon fill="none" stroke="black" points="1827.5,-290.5 1827.5,-353.5 1984.5,-353.5 1984.5,-290.5 1827.5,-290.5"/>
<text text-anchor="start" x="1835.5" y="-341.5" font-family="Helvetica,sans-Serif" font-size="10.00">/home/travis/build</text>
<text text-anchor="start" x="1835.5" y="-330.5" font-family="Helvetica,sans-Serif" font-size="10.00">/AliceO2Group/AliceO2</text>
<text text-anchor="start" x="1835.5" y="-319.5" font-family="Helvetica,sans-Serif" font-size="10.00">/EventVisualisation/Base</text>
<text text-anchor="start" x="1835.5" y="-308.5" font-family="Helvetica,sans-Serif" font-size="10.00">/include/EventVisualisationBase</text>
<text text-anchor="middle" x="1906" y="-297.5" font-family="Helvetica,sans-Serif" font-size="10.00">/EventManager.h</text>
</a>
</g>
</g>
<!-- Node1&#45;&gt;Node17 -->
<g id="edge20" class="edge"><title>Node1&#45;&gt;Node17</title>
<path fill="none" stroke="midnightblue" d="M1087.25,-401.19C1266.56,-384.066 1659.24,-346.566 1827.22,-330.523"/>
<polygon fill="midnightblue" stroke="midnightblue" points="1086.67,-397.729 1077.05,-402.164 1087.34,-404.698 1086.67,-397.729"/>
</g>
<!-- Node3 -->
<g id="node3" class="node"><title>Node3</title>
<g id="a_node3"><a xlink:href="../../da/dd3/ConditionsMQServer_8cxx.html" target="_top" xlink:title="/home/travis/build\l/AliceO2Group/AliceO2\l/CCDB/src/ConditionsMQServer.cxx">
<polygon fill="none" stroke="black" points="194,-201.5 194,-242.5 372,-242.5 372,-201.5 194,-201.5"/>
<text text-anchor="start" x="202" y="-230.5" font-family="Helvetica,sans-Serif" font-size="10.00">/home/travis/build</text>
<text text-anchor="start" x="202" y="-219.5" font-family="Helvetica,sans-Serif" font-size="10.00">/AliceO2Group/AliceO2</text>
<text text-anchor="middle" x="283" y="-208.5" font-family="Helvetica,sans-Serif" font-size="10.00">/CCDB/src/ConditionsMQServer.cxx</text>
</a>
</g>
</g>
<!-- Node2&#45;&gt;Node3 -->
<g id="edge2" class="edge"><title>Node2&#45;&gt;Node3</title>
<path fill="none" stroke="midnightblue" d="M283,-285.593C283,-271.099 283,-254.881 283,-242.585"/>
<polygon fill="midnightblue" stroke="midnightblue" points="279.5,-285.763 283,-295.763 286.5,-285.763 279.5,-285.763"/>
</g>
<!-- Node4 -->
<g id="node4" class="node"><title>Node4</title>
<g id="a_node4"><a xlink:href="../../d1/d85/runConditionsServer_8cxx.html" target="_top" xlink:title="/home/travis/build\l/AliceO2Group/AliceO2\l/CCDB/src/runConditionsServer.cxx">
<polygon fill="none" stroke="black" points="0,-201.5 0,-242.5 176,-242.5 176,-201.5 0,-201.5"/>
<text text-anchor="start" x="8" y="-230.5" font-family="Helvetica,sans-Serif" font-size="10.00">/home/travis/build</text>
<text text-anchor="start" x="8" y="-219.5" font-family="Helvetica,sans-Serif" font-size="10.00">/AliceO2Group/AliceO2</text>
<text text-anchor="middle" x="88" y="-208.5" font-family="Helvetica,sans-Serif" font-size="10.00">/CCDB/src/runConditionsServer.cxx</text>
</a>
</g>
</g>
<!-- Node2&#45;&gt;Node4 -->
<g id="edge3" class="edge"><title>Node2&#45;&gt;Node4</title>
<path fill="none" stroke="midnightblue" d="M223.938,-291.318C192.539,-275.538 154.808,-256.575 127.071,-242.636"/>
<polygon fill="midnightblue" stroke="midnightblue" points="222.529,-294.527 233.036,-295.89 225.672,-288.272 222.529,-294.527"/>
</g>
<!-- Node6 -->
<g id="node6" class="node"><title>Node6</title>
<g id="a_node6"><a xlink:href="../../d8/d9a/FileStorage_8cxx.html" target="_top" xlink:title="/home/travis/build\l/AliceO2Group/AliceO2\l/CCDB/src/FileStorage.cxx">
<polygon fill="none" stroke="black" points="390.5,-201.5 390.5,-242.5 527.5,-242.5 527.5,-201.5 390.5,-201.5"/>
<text text-anchor="start" x="398.5" y="-230.5" font-family="Helvetica,sans-Serif" font-size="10.00">/home/travis/build</text>
<text text-anchor="start" x="398.5" y="-219.5" font-family="Helvetica,sans-Serif" font-size="10.00">/AliceO2Group/AliceO2</text>
<text text-anchor="middle" x="459" y="-208.5" font-family="Helvetica,sans-Serif" font-size="10.00">/CCDB/src/FileStorage.cxx</text>
</a>
</g>
</g>
<!-- Node5&#45;&gt;Node6 -->
<g id="edge5" class="edge"><title>Node5&#45;&gt;Node6</title>
<path fill="none" stroke="midnightblue" d="M472.169,-290.925C469.137,-275.286 465.516,-256.61 462.839,-242.802"/>
<polygon fill="midnightblue" stroke="midnightblue" points="468.816,-292.017 474.155,-301.168 475.688,-290.685 468.816,-292.017"/>
</g>
<!-- Node5&#45;&gt;Node7 -->
<g id="edge6" class="edge"><title>Node5&#45;&gt;Node7</title>
<path fill="none" stroke="midnightblue" d="M512.058,-295.325C533.953,-278.82 561.957,-257.709 582.05,-242.562"/>
<polygon fill="midnightblue" stroke="midnightblue" points="509.873,-292.589 503.995,-301.404 514.087,-298.179 509.873,-292.589"/>
</g>
<!-- Node8&#45;&gt;Node7 -->
<g id="edge9" class="edge"><title>Node8&#45;&gt;Node7</title>
<path fill="none" stroke="midnightblue" d="M682.663,-294.038C665.62,-277.823 644.301,-257.539 628.813,-242.802"/>
<polygon fill="midnightblue" stroke="midnightblue" points="680.499,-296.811 690.156,-301.168 685.324,-291.74 680.499,-296.811"/>
</g>
<!-- Node9 -->
<g id="node9" class="node"><title>Node9</title>
<g id="a_node9"><a xlink:href="../../d7/df1/GridStorage_8cxx.html" target="_top" xlink:title="/home/travis/build\l/AliceO2Group/AliceO2\l/CCDB/src/GridStorage.cxx">
<polygon fill="none" stroke="black" points="688.5,-201.5 688.5,-242.5 827.5,-242.5 827.5,-201.5 688.5,-201.5"/>
<text text-anchor="start" x="696.5" y="-230.5" font-family="Helvetica,sans-Serif" font-size="10.00">/home/travis/build</text>
<text text-anchor="start" x="696.5" y="-219.5" font-family="Helvetica,sans-Serif" font-size="10.00">/AliceO2Group/AliceO2</text>
<text text-anchor="middle" x="758" y="-208.5" font-family="Helvetica,sans-Serif" font-size="10.00">/CCDB/src/GridStorage.cxx</text>
</a>
</g>
</g>
<!-- Node8&#45;&gt;Node9 -->
<g id="edge8" class="edge"><title>Node8&#45;&gt;Node9</title>
<path fill="none" stroke="midnightblue" d="M724.993,-291.823C732.578,-276.007 741.754,-256.875 748.503,-242.802"/>
<polygon fill="midnightblue" stroke="midnightblue" points="721.68,-290.638 720.511,-301.168 727.991,-293.665 721.68,-290.638"/>
</g>
<!-- Node10&#45;&gt;Node7 -->
<g id="edge12" class="edge"><title>Node10&#45;&gt;Node7</title>
<path fill="none" stroke="midnightblue" d="M836.794,-298.531C827.121,-295.626 817.329,-292.719 808,-290 750.854,-273.344 735.079,-273.958 679,-254 669.496,-250.618 659.467,-246.557 650.036,-242.505"/>
<polygon fill="midnightblue" stroke="midnightblue" points="835.822,-301.893 846.406,-301.427 837.841,-295.191 835.822,-301.893"/>
</g>
<!-- Node11 -->
<g id="node11" class="node"><title>Node11</title>
<g id="a_node11"><a xlink:href="../../da/d92/LocalStorage_8cxx.html" target="_top" xlink:title="/home/travis/build\l/AliceO2Group/AliceO2\l/CCDB/src/LocalStorage.cxx">
<polygon fill="none" stroke="black" points="846,-201.5 846,-242.5 990,-242.5 990,-201.5 846,-201.5"/>
<text text-anchor="start" x="854" y="-230.5" font-family="Helvetica,sans-Serif" font-size="10.00">/home/travis/build</text>
<text text-anchor="start" x="854" y="-219.5" font-family="Helvetica,sans-Serif" font-size="10.00">/AliceO2Group/AliceO2</text>
<text text-anchor="middle" x="918" y="-208.5" font-family="Helvetica,sans-Serif" font-size="10.00">/CCDB/src/LocalStorage.cxx</text>
</a>
</g>
</g>
<!-- Node10&#45;&gt;Node11 -->
<g id="edge11" class="edge"><title>Node10&#45;&gt;Node11</title>
<path fill="none" stroke="midnightblue" d="M912.455,-290.925C913.732,-275.286 915.256,-256.61 916.383,-242.802"/>
<polygon fill="midnightblue" stroke="midnightblue" points="908.944,-290.917 911.619,-301.168 915.921,-291.486 908.944,-290.917"/>
</g>
<!-- Node15 -->
<g id="node15" class="node"><title>Node15</title>
<g id="a_node15"><a xlink:href="../../dc/d71/CDBInterface_8cxx.html" target="_top" xlink:title="/home/travis/build\l/AliceO2Group/AliceO2\l/Detectors/TPC/base/src\l/CDBInterface.cxx">
<polygon fill="none" stroke="black" points="1257,-196 1257,-248 1383,-248 1383,-196 1257,-196"/>
<text text-anchor="start" x="1265" y="-236" font-family="Helvetica,sans-Serif" font-size="10.00">/home/travis/build</text>
<text text-anchor="start" x="1265" y="-225" font-family="Helvetica,sans-Serif" font-size="10.00">/AliceO2Group/AliceO2</text>
<text text-anchor="start" x="1265" y="-214" font-family="Helvetica,sans-Serif" font-size="10.00">/Detectors/TPC/base/src</text>
<text text-anchor="middle" x="1320" y="-203" font-family="Helvetica,sans-Serif" font-size="10.00">/CDBInterface.cxx</text>
</a>
</g>
</g>
<!-- Node14&#45;&gt;Node15 -->
<g id="edge17" class="edge"><title>Node14&#45;&gt;Node15</title>
<path fill="none" stroke="midnightblue" d="M1386.33,-288.659C1373.02,-275.484 1357.87,-260.485 1345.41,-248.152"/>
<polygon fill="midnightblue" stroke="midnightblue" points="1383.94,-291.215 1393.51,-295.763 1388.86,-286.24 1383.94,-291.215"/>
</g>
<!-- Node14&#45;&gt;Node16 -->
<g id="edge18" class="edge"><title>Node14&#45;&gt;Node16</title>
<path fill="none" stroke="midnightblue" d="M1436.44,-286.818C1442.93,-274.101 1450.17,-259.914 1456.17,-248.152"/>
<polygon fill="midnightblue" stroke="midnightblue" points="1433.3,-285.264 1431.88,-295.763 1439.54,-288.446 1433.3,-285.264"/>
</g>
<!-- Node18 -->
<g id="node18" class="node"><title>Node18</title>
<g id="a_node18"><a xlink:href="../../dd/dbf/DataInterpreter_8h.html" target="_top" xlink:title="/home/travis/build\l/AliceO2Group/AliceO2\l/EventVisualisation/Base\l/include/EventVisualisationBase\l/DataInterpreter.h">
<polygon fill="none" stroke="black" points="2055.5,-190.5 2055.5,-253.5 2212.5,-253.5 2212.5,-190.5 2055.5,-190.5"/>
<text text-anchor="start" x="2063.5" y="-241.5" font-family="Helvetica,sans-Serif" font-size="10.00">/home/travis/build</text>
<text text-anchor="start" x="2063.5" y="-230.5" font-family="Helvetica,sans-Serif" font-size="10.00">/AliceO2Group/AliceO2</text>
<text text-anchor="start" x="2063.5" y="-219.5" font-family="Helvetica,sans-Serif" font-size="10.00">/EventVisualisation/Base</text>
<text text-anchor="start" x="2063.5" y="-208.5" font-family="Helvetica,sans-Serif" font-size="10.00">/include/EventVisualisationBase</text>
<text text-anchor="middle" x="2134" y="-197.5" font-family="Helvetica,sans-Serif" font-size="10.00">/DataInterpreter.h</text>
</a>
</g>
</g>
<!-- Node17&#45;&gt;Node18 -->
<g id="edge21" class="edge"><title>Node17&#45;&gt;Node18</title>
<path fill="none" stroke="midnightblue" d="M1986.62,-286.348C2011.52,-275.646 2038.74,-263.944 2062.95,-253.541"/>
<polygon fill="midnightblue" stroke="midnightblue" points="1985.01,-283.231 1977.2,-290.395 1987.77,-289.662 1985.01,-283.231"/>
</g>
<!-- Node20 -->
<g id="node20" class="node"><title>Node20</title>
<g id="a_node20"><a xlink:href="../../d0/d5f/DataInterpreterRND_8h.html" target="_top" xlink:title="/home/travis/build\l/AliceO2Group/AliceO2\l/EventVisualisation/Detectors\l/include/EventVisualisationDetectors\l/DataInterpreterRND.h">
<polygon fill="none" stroke="black" points="2184.5,-90.5 2184.5,-153.5 2361.5,-153.5 2361.5,-90.5 2184.5,-90.5"/>
<text text-anchor="start" x="2192.5" y="-141.5" font-family="Helvetica,sans-Serif" font-size="10.00">/home/travis/build</text>
<text text-anchor="start" x="2192.5" y="-130.5" font-family="Helvetica,sans-Serif" font-size="10.00">/AliceO2Group/AliceO2</text>
<text text-anchor="start" x="2192.5" y="-119.5" font-family="Helvetica,sans-Serif" font-size="10.00">/EventVisualisation/Detectors</text>
<text text-anchor="start" x="2192.5" y="-108.5" font-family="Helvetica,sans-Serif" font-size="10.00">/include/EventVisualisationDetectors</text>
<text text-anchor="middle" x="2273" y="-97.5" font-family="Helvetica,sans-Serif" font-size="10.00">/DataInterpreterRND.h</text>
</a>
</g>
</g>
<!-- Node17&#45;&gt;Node20 -->
<g id="edge28" class="edge"><title>Node17&#45;&gt;Node20</title>
<path fill="none" stroke="midnightblue" d="M1995.05,-311.495C2075.86,-301.224 2187.36,-282.409 2221,-254 2251.01,-228.662 2263.83,-183.603 2269.22,-153.511"/>
<polygon fill="midnightblue" stroke="midnightblue" points="1994.35,-308.055 1984.86,-312.766 1995.22,-315.002 1994.35,-308.055"/>
</g>
<!-- Node22 -->
<g id="node22" class="node"><title>Node22</title>
<g id="a_node22"><a xlink:href="../../da/d7a/MultiView_8cxx.html" target="_top" xlink:title="/home/travis/build\l/AliceO2Group/AliceO2\l/EventVisualisation/View\l/src/MultiView.cxx">
<polygon fill="none" stroke="black" points="2326.5,-1 2326.5,-53 2451.5,-53 2451.5,-1 2326.5,-1"/>
<text text-anchor="start" x="2334.5" y="-41" font-family="Helvetica,sans-Serif" font-size="10.00">/home/travis/build</text>
<text text-anchor="start" x="2334.5" y="-30" font-family="Helvetica,sans-Serif" font-size="10.00">/AliceO2Group/AliceO2</text>
<text text-anchor="start" x="2334.5" y="-19" font-family="Helvetica,sans-Serif" font-size="10.00">/EventVisualisation/View</text>
<text text-anchor="middle" x="2389" y="-8" font-family="Helvetica,sans-Serif" font-size="10.00">/src/MultiView.cxx</text>
</a>
</g>
</g>
<!-- Node17&#45;&gt;Node22 -->
<g id="edge33" class="edge"><title>Node17&#45;&gt;Node22</title>
<path fill="none" stroke="midnightblue" d="M1994.68,-316.572C2067.48,-310.034 2171.62,-293.877 2254,-254 2315.27,-224.342 2337.1,-213.588 2370,-154 2387.43,-122.433 2390.37,-79.9829 2390.2,-53.3062"/>
<polygon fill="midnightblue" stroke="midnightblue" points="1994.29,-313.093 1984.62,-317.432 1994.88,-320.067 1994.29,-313.093"/>
</g>
<!-- Node23 -->
<g id="node23" class="node"><title>Node23</title>
<g id="a_node23"><a xlink:href="../../dd/d21/EventManager_8cxx.html" target="_top" xlink:title="/home/travis/build\l/AliceO2Group/AliceO2\l/EventVisualisation/Base\l/src/EventManager.cxx">
<polygon fill="none" stroke="black" points="1555,-196 1555,-248 1681,-248 1681,-196 1555,-196"/>
<text text-anchor="start" x="1563" y="-236" font-family="Helvetica,sans-Serif" font-size="10.00">/home/travis/build</text>
<text text-anchor="start" x="1563" y="-225" font-family="Helvetica,sans-Serif" font-size="10.00">/AliceO2Group/AliceO2</text>
<text text-anchor="start" x="1563" y="-214" font-family="Helvetica,sans-Serif" font-size="10.00">/EventVisualisation/Base</text>
<text text-anchor="middle" x="1618" y="-203" font-family="Helvetica,sans-Serif" font-size="10.00">/src/EventManager.cxx</text>
</a>
</g>
</g>
<!-- Node17&#45;&gt;Node23 -->
<g id="edge26" class="edge"><title>Node17&#45;&gt;Node23</title>
<path fill="none" stroke="midnightblue" d="M1817.51,-295.856C1778.14,-284.081 1731.43,-269.294 1690,-254 1685.02,-252.162 1679.89,-250.164 1674.76,-248.098"/>
<polygon fill="midnightblue" stroke="midnightblue" points="1816.76,-299.287 1827.35,-298.783 1818.76,-292.577 1816.76,-299.287"/>
</g>
<!-- Node24 -->
<g id="node24" class="node"><title>Node24</title>
<g id="a_node24"><a xlink:href="../../d4/d1d/EventVisualisation_2Base_2src_2Track_8cxx.html" target="_top" xlink:title="/home/travis/build\l/AliceO2Group/AliceO2\l/EventVisualisation/Base\l/src/Track.cxx">
<polygon fill="none" stroke="black" points="1699,-196 1699,-248 1825,-248 1825,-196 1699,-196"/>
<text text-anchor="start" x="1707" y="-236" font-family="Helvetica,sans-Serif" font-size="10.00">/home/travis/build</text>
<text text-anchor="start" x="1707" y="-225" font-family="Helvetica,sans-Serif" font-size="10.00">/AliceO2Group/AliceO2</text>
<text text-anchor="start" x="1707" y="-214" font-family="Helvetica,sans-Serif" font-size="10.00">/EventVisualisation/Base</text>
<text text-anchor="middle" x="1762" y="-203" font-family="Helvetica,sans-Serif" font-size="10.00">/src/Track.cxx</text>
</a>
</g>
</g>
<!-- Node17&#45;&gt;Node24 -->
<g id="edge27" class="edge"><title>Node17&#45;&gt;Node24</title>
<path fill="none" stroke="midnightblue" d="M1852.24,-284.415C1834.44,-272.299 1815.04,-259.1 1798.81,-248.054"/>
<polygon fill="midnightblue" stroke="midnightblue" points="1850.6,-287.528 1860.83,-290.261 1854.53,-281.741 1850.6,-287.528"/>
</g>
<!-- Node25 -->
<g id="node25" class="node"><title>Node25</title>
<g id="a_node25"><a xlink:href="../../d8/df3/Initializer_8h.html" target="_top" xlink:title="/home/travis/build\l/AliceO2Group/AliceO2\l/EventVisualisation/View\l/include/EventVisualisationView\l/Initializer.h">
<polygon fill="none" stroke="black" points="1881,-190.5 1881,-253.5 2037,-253.5 2037,-190.5 1881,-190.5"/>
<text text-anchor="start" x="1889" y="-241.5" font-family="Helvetica,sans-Serif" font-size="10.00">/home/travis/build</text>
<text text-anchor="start" x="1889" y="-230.5" font-family="Helvetica,sans-Serif" font-size="10.00">/AliceO2Group/AliceO2</text>
<text text-anchor="start" x="1889" y="-219.5" font-family="Helvetica,sans-Serif" font-size="10.00">/EventVisualisation/View</text>
<text text-anchor="start" x="1889" y="-208.5" font-family="Helvetica,sans-Serif" font-size="10.00">/include/EventVisualisationView</text>
<text text-anchor="middle" x="1959" y="-197.5" font-family="Helvetica,sans-Serif" font-size="10.00">/Initializer.h</text>
</a>
</g>
</g>
<!-- Node17&#45;&gt;Node25 -->
<g id="edge29" class="edge"><title>Node17&#45;&gt;Node25</title>
<path fill="none" stroke="midnightblue" d="M1927.5,-281.252C1932.48,-272.042 1937.7,-262.379 1942.43,-253.63"/>
<polygon fill="midnightblue" stroke="midnightblue" points="1924.3,-279.8 1922.62,-290.261 1930.46,-283.13 1924.3,-279.8"/>
</g>
<!-- Node26 -->
<g id="node26" class="node"><title>Node26</title>
<g id="a_node26"><a xlink:href="../../df/d2a/Initializer_8cxx.html" target="_top" xlink:title="/home/travis/build\l/AliceO2Group/AliceO2\l/EventVisualisation/View\l/src/Initializer.cxx">
<polygon fill="none" stroke="black" points="1753.5,-96 1753.5,-148 1878.5,-148 1878.5,-96 1753.5,-96"/>
<text text-anchor="start" x="1761.5" y="-136" font-family="Helvetica,sans-Serif" font-size="10.00">/home/travis/build</text>
<text text-anchor="start" x="1761.5" y="-125" font-family="Helvetica,sans-Serif" font-size="10.00">/AliceO2Group/AliceO2</text>
<text text-anchor="start" x="1761.5" y="-114" font-family="Helvetica,sans-Serif" font-size="10.00">/EventVisualisation/View</text>
<text text-anchor="middle" x="1816" y="-103" font-family="Helvetica,sans-Serif" font-size="10.00">/src/Initializer.cxx</text>
</a>
</g>
</g>
<!-- Node17&#45;&gt;Node26 -->
<g id="edge32" class="edge"><title>Node17&#45;&gt;Node26</title>
<path fill="none" stroke="midnightblue" d="M1885.24,-281.162C1880.77,-272.276 1876.14,-262.86 1872,-254 1855.05,-217.693 1837.13,-174.878 1826.25,-148.331"/>
<polygon fill="midnightblue" stroke="midnightblue" points="1882.18,-282.857 1889.83,-290.186 1888.42,-279.686 1882.18,-282.857"/>
</g>
<!-- Node19 -->
<g id="node19" class="node"><title>Node19</title>
<g id="a_node19"><a xlink:href="../../d5/d0c/DataInterpreter_8cxx.html" target="_top" xlink:title="/home/travis/build\l/AliceO2Group/AliceO2\l/EventVisualisation/Base\l/src/DataInterpreter.cxx">
<polygon fill="none" stroke="black" points="2040,-96 2040,-148 2166,-148 2166,-96 2040,-96"/>
<text text-anchor="start" x="2048" y="-136" font-family="Helvetica,sans-Serif" font-size="10.00">/home/travis/build</text>
<text text-anchor="start" x="2048" y="-125" font-family="Helvetica,sans-Serif" font-size="10.00">/AliceO2Group/AliceO2</text>
<text text-anchor="start" x="2048" y="-114" font-family="Helvetica,sans-Serif" font-size="10.00">/EventVisualisation/Base</text>
<text text-anchor="middle" x="2103" y="-103" font-family="Helvetica,sans-Serif" font-size="10.00">/src/DataInterpreter.cxx</text>
</a>
</g>
</g>
<!-- Node18&#45;&gt;Node19 -->
<g id="edge22" class="edge"><title>Node18&#45;&gt;Node19</title>
<path fill="none" stroke="midnightblue" d="M2121.16,-180.415C2117.69,-169.445 2114.04,-157.895 2110.93,-148.054"/>
<polygon fill="midnightblue" stroke="midnightblue" points="2117.92,-181.782 2124.28,-190.261 2124.6,-179.671 2117.92,-181.782"/>
</g>
<!-- Node18&#45;&gt;Node20 -->
<g id="edge23" class="edge"><title>Node18&#45;&gt;Node20</title>
<path fill="none" stroke="midnightblue" d="M2185.91,-184.398C2200.28,-174.268 2215.72,-163.382 2229.56,-153.63"/>
<polygon fill="midnightblue" stroke="midnightblue" points="2183.76,-181.638 2177.6,-190.261 2187.79,-187.359 2183.76,-181.638"/>
</g>
<!-- Node21 -->
<g id="node21" class="node"><title>Node21</title>
<g id="a_node21"><a xlink:href="../../db/dd2/DataInterpreterRND_8cxx.html" target="_top" xlink:title="/home/travis/build\l/AliceO2Group/AliceO2\l/EventVisualisation/Detectors\l/src/DataInterpreterRND.cxx">
<polygon fill="none" stroke="black" points="2162,-1 2162,-53 2308,-53 2308,-1 2162,-1"/>
<text text-anchor="start" x="2170" y="-41" font-family="Helvetica,sans-Serif" font-size="10.00">/home/travis/build</text>
<text text-anchor="start" x="2170" y="-30" font-family="Helvetica,sans-Serif" font-size="10.00">/AliceO2Group/AliceO2</text>
<text text-anchor="start" x="2170" y="-19" font-family="Helvetica,sans-Serif" font-size="10.00">/EventVisualisation/Detectors</text>
<text text-anchor="middle" x="2235" y="-8" font-family="Helvetica,sans-Serif" font-size="10.00">/src/DataInterpreterRND.cxx</text>
</a>
</g>
</g>
<!-- Node20&#45;&gt;Node21 -->
<g id="edge24" class="edge"><title>Node20&#45;&gt;Node21</title>
<path fill="none" stroke="midnightblue" d="M2256.66,-81.0014C2252.79,-71.5302 2248.77,-61.6919 2245.26,-53.1001"/>
<polygon fill="midnightblue" stroke="midnightblue" points="2253.43,-82.3574 2260.45,-90.2906 2259.91,-79.7096 2253.43,-82.3574"/>
</g>
<!-- Node20&#45;&gt;Node22 -->
<g id="edge25" class="edge"><title>Node20&#45;&gt;Node22</title>
<path fill="none" stroke="midnightblue" d="M2319.22,-83.9474C2332.13,-73.5934 2345.86,-62.5868 2357.69,-53.1001"/>
<polygon fill="midnightblue" stroke="midnightblue" points="2316.92,-81.3046 2311.3,-90.2906 2321.3,-86.7661 2316.92,-81.3046"/>
</g>
<!-- Node25&#45;&gt;Node26 -->
<g id="edge30" class="edge"><title>Node25&#45;&gt;Node26</title>
<path fill="none" stroke="midnightblue" d="M1905.62,-184.415C1887.94,-172.299 1868.68,-159.1 1852.56,-148.054"/>
<polygon fill="midnightblue" stroke="midnightblue" points="1903.92,-187.495 1914.15,-190.261 1907.88,-181.721 1903.92,-187.495"/>
</g>
<!-- Node27 -->
<g id="node27" class="node"><title>Node27</title>
<g id="a_node27"><a xlink:href="../../d7/dfc/EventVisualisation_2View_2src_2main_8cxx.html" target="_top" xlink:title="/home/travis/build\l/AliceO2Group/AliceO2\l/EventVisualisation/View\l/src/main.cxx">
<polygon fill="none" stroke="black" points="1896.5,-96 1896.5,-148 2021.5,-148 2021.5,-96 1896.5,-96"/>
<text text-anchor="start" x="1904.5" y="-136" font-family="Helvetica,sans-Serif" font-size="10.00">/home/travis/build</text>
<text text-anchor="start" x="1904.5" y="-125" font-family="Helvetica,sans-Serif" font-size="10.00">/AliceO2Group/AliceO2</text>
<text text-anchor="start" x="1904.5" y="-114" font-family="Helvetica,sans-Serif" font-size="10.00">/EventVisualisation/View</text>
<text text-anchor="middle" x="1959" y="-103" font-family="Helvetica,sans-Serif" font-size="10.00">/src/main.cxx</text>
</a>
</g>
</g>
<!-- Node25&#45;&gt;Node27 -->
<g id="edge31" class="edge"><title>Node25&#45;&gt;Node27</title>
<path fill="none" stroke="midnightblue" d="M1959,-180.079C1959,-169.21 1959,-157.794 1959,-148.054"/>
<polygon fill="midnightblue" stroke="midnightblue" points="1955.5,-180.261 1959,-190.261 1962.5,-180.261 1955.5,-180.261"/>
</g>
</g>
</svg>
