<?xml version="1.0" encoding="UTF-8" standalone="no"?>
<!DOCTYPE svg PUBLIC "-//W3C//DTD SVG 1.1//EN"
 "http://www.w3.org/Graphics/SVG/1.1/DTD/svg11.dtd">
<!-- Generated by graphviz version 2.36.0 (20140111.2315)
 -->
<!-- Title: /home/travis/build/AliceO2Group/AliceO2/Detectors/TOF/simulation/include/TOFSimulation/Digitizer.h Pages: 1 -->
<svg width="2077pt" height="402pt"
 viewBox="0.00 0.00 2077.33 402.00" xmlns="http://www.w3.org/2000/svg" xmlns:xlink="http://www.w3.org/1999/xlink">
<g id="graph0" class="graph" transform="scale(1 1) rotate(0) translate(4 398)">
<title>/home/travis/build/AliceO2Group/AliceO2/Detectors/TOF/simulation/include/TOFSimulation/Digitizer.h</title>
<!-- Node1 -->
<g id="node1" class="node"><title>Node1</title>
<polygon fill="#bfbfbf" stroke="black" points="406.325,-341 406.325,-393 572.325,-393 572.325,-341 406.325,-341"/>
<text text-anchor="start" x="414.325" y="-381" font-family="Helvetica,sans-Serif" font-size="10.00">/home/travis/build</text>
<text text-anchor="start" x="414.325" y="-370" font-family="Helvetica,sans-Serif" font-size="10.00">/AliceO2Group/AliceO2</text>
<text text-anchor="start" x="414.325" y="-359" font-family="Helvetica,sans-Serif" font-size="10.00">/Detectors/TOF/simulation</text>
<text text-anchor="middle" x="489.325" y="-348" font-family="Helvetica,sans-Serif" font-size="10.00">/include/TOFSimulation/Digitizer.h</text>
</g>
<!-- Node2 -->
<g id="node2" class="node"><title>Node2</title>
<g id="a_node2"><a xlink:href="../../d4/d54/Geo_8h.html" target="_top" xlink:title="TOFBase/Geo.h">
<polygon fill="none" stroke="black" points="445.325,-210.5 445.325,-229.5 533.325,-229.5 533.325,-210.5 445.325,-210.5"/>
<text text-anchor="middle" x="489.325" y="-217.5" font-family="Helvetica,sans-Serif" font-size="10.00">TOFBase/Geo.h</text>
</a>
</g>
</g>
<!-- Node1&#45;&gt;Node2 -->
<g id="edge1" class="edge"><title>Node1&#45;&gt;Node2</title>
<path fill="none" stroke="midnightblue" d="M489.325,-340.743C489.325,-312.035 489.325,-265.822 489.325,-240.007"/>
<polygon fill="midnightblue" stroke="midnightblue" points="492.826,-239.717 489.325,-229.717 485.826,-239.717 492.826,-239.717"/>
</g>
<!-- Node4 -->
<g id="node4" class="node"><title>Node4</title>
<g id="a_node4"><a xlink:href="../../df/d9c/TOF_2base_2include_2TOFBase_2Digit_8h.html" target="_top" xlink:title="TOFBase/Digit.h">
<polygon fill="none" stroke="black" points="282.325,-210.5 282.325,-229.5 372.325,-229.5 372.325,-210.5 282.325,-210.5"/>
<text text-anchor="middle" x="327.325" y="-217.5" font-family="Helvetica,sans-Serif" font-size="10.00">TOFBase/Digit.h</text>
</a>
</g>
</g>
<!-- Node1&#45;&gt;Node4 -->
<g id="edge3" class="edge"><title>Node1&#45;&gt;Node4</title>
<path fill="none" stroke="midnightblue" d="M461.107,-340.743C427.588,-310.742 372.711,-261.623 344.805,-236.646"/>
<polygon fill="midnightblue" stroke="midnightblue" points="346.85,-233.778 337.064,-229.717 342.181,-238.994 346.85,-233.778"/>
</g>
<!-- Node8 -->
<g id="node8" class="node"><title>Node8</title>
<g id="a_node8"><a xlink:href="../../d5/d3c/TOF_2simulation_2include_2TOFSimulation_2Detector_8h.html" target="_top" xlink:title="TOFSimulation/Detector.h">
<polygon fill="none" stroke="black" points="632.825,-278.5 632.825,-297.5 763.825,-297.5 763.825,-278.5 632.825,-278.5"/>
<text text-anchor="middle" x="698.325" y="-285.5" font-family="Helvetica,sans-Serif" font-size="10.00">TOFSimulation/Detector.h</text>
</a>
</g>
</g>
<!-- Node1&#45;&gt;Node8 -->
<g id="edge9" class="edge"><title>Node1&#45;&gt;Node8</title>
<path fill="none" stroke="midnightblue" d="M557.471,-340.894C593.7,-327.546 636.59,-311.745 665.443,-301.114"/>
<polygon fill="midnightblue" stroke="midnightblue" points="666.856,-304.324 675.03,-297.583 664.436,-297.756 666.856,-304.324"/>
</g>
<!-- Node31 -->
<g id="node31" class="node"><title>Node31</title>
<g id="a_node31"><a xlink:href="../../db/d14/MCTruthContainer_8h.html" target="_top" xlink:title="Definition of a container to keep Monte Carlo truth external to simulation objects. ">
<polygon fill="none" stroke="black" points="1286.33,-273 1286.33,-303 1400.33,-303 1400.33,-273 1286.33,-273"/>
<text text-anchor="start" x="1294.33" y="-291" font-family="Helvetica,sans-Serif" font-size="10.00">SimulationDataFormat</text>
<text text-anchor="middle" x="1343.33" y="-280" font-family="Helvetica,sans-Serif" font-size="10.00">/MCTruthContainer.h</text>
</a>
</g>
</g>
<!-- Node1&#45;&gt;Node31 -->
<g id="edge38" class="edge"><title>Node1&#45;&gt;Node31</title>
<path fill="none" stroke="midnightblue" d="M572.376,-358.512C741.085,-343.3 1120.99,-309.046 1275.77,-295.091"/>
<polygon fill="midnightblue" stroke="midnightblue" points="1276.43,-298.545 1286.08,-294.162 1275.81,-291.574 1276.43,-298.545"/>
</g>
<!-- Node36 -->
<g id="node36" class="node"><title>Node36</title>
<g id="a_node36"><a xlink:href="../../df/d71/MCLabel_8h.html" target="_top" xlink:title="TOFSimulation/MCLabel.h">
<polygon fill="none" stroke="black" points="220.325,-278.5 220.325,-297.5 352.325,-297.5 352.325,-278.5 220.325,-278.5"/>
<text text-anchor="middle" x="286.325" y="-285.5" font-family="Helvetica,sans-Serif" font-size="10.00">TOFSimulation/MCLabel.h</text>
</a>
</g>
</g>
<!-- Node1&#45;&gt;Node36 -->
<g id="edge44" class="edge"><title>Node1&#45;&gt;Node36</title>
<path fill="none" stroke="midnightblue" d="M423.137,-340.894C388.101,-327.604 346.652,-311.883 318.631,-301.254"/>
<polygon fill="midnightblue" stroke="midnightblue" points="319.544,-297.857 308.952,-297.583 317.061,-304.402 319.544,-297.857"/>
</g>
<!-- Node3 -->
<g id="node3" class="node"><title>Node3</title>
<polygon fill="none" stroke="#bfbfbf" points="337.325,-74.5 337.325,-93.5 393.325,-93.5 393.325,-74.5 337.325,-74.5"/>
<text text-anchor="middle" x="365.325" y="-81.5" font-family="Helvetica,sans-Serif" font-size="10.00">Rtypes.h</text>
</g>
<!-- Node2&#45;&gt;Node3 -->
<g id="edge2" class="edge"><title>Node2&#45;&gt;Node3</title>
<path fill="none" stroke="midnightblue" d="M457.98,-210.361C435.788,-202.695 406.948,-189.337 389.325,-168 374.138,-149.611 368.558,-122.047 366.51,-103.798"/>
<polygon fill="midnightblue" stroke="midnightblue" points="369.994,-103.463 365.637,-93.8051 363.021,-104.072 369.994,-103.463"/>
</g>
<!-- Node4&#45;&gt;Node3 -->
<g id="edge7" class="edge"><title>Node4&#45;&gt;Node3</title>
<path fill="none" stroke="midnightblue" d="M329.819,-210.208C335.939,-188.627 351.806,-132.675 360.1,-103.426"/>
<polygon fill="midnightblue" stroke="midnightblue" points="363.511,-104.226 362.872,-93.6503 356.777,-102.316 363.511,-104.226"/>
</g>
<!-- Node5 -->
<g id="node5" class="node"><title>Node5</title>
<g id="a_node5"><a xlink:href="../../df/d5d/common_2include_2CommonDataFormat_2TimeStamp_8h.html" target="_top" xlink:title="CommonDataFormat/TimeStamp.h">
<polygon fill="none" stroke="black" points="129.325,-142.5 129.325,-161.5 299.325,-161.5 299.325,-142.5 129.325,-142.5"/>
<text text-anchor="middle" x="214.325" y="-149.5" font-family="Helvetica,sans-Serif" font-size="10.00">CommonDataFormat/TimeStamp.h</text>
</a>
</g>
</g>
<!-- Node4&#45;&gt;Node5 -->
<g id="edge4" class="edge"><title>Node4&#45;&gt;Node5</title>
<path fill="none" stroke="midnightblue" d="M312.553,-210.372C293.603,-199.304 260.505,-179.972 238.018,-166.838"/>
<polygon fill="midnightblue" stroke="midnightblue" points="239.502,-163.652 229.102,-161.63 235.972,-169.696 239.502,-163.652"/>
</g>
<!-- Node6 -->
<g id="node6" class="node"><title>Node6</title>
<polygon fill="none" stroke="#bfbfbf" points="904.825,-74.5 904.825,-93.5 949.825,-93.5 949.825,-74.5 904.825,-74.5"/>
<text text-anchor="middle" x="927.325" y="-81.5" font-family="Helvetica,sans-Serif" font-size="10.00">iosfwd</text>
</g>
<!-- Node4&#45;&gt;Node6 -->
<g id="edge6" class="edge"><title>Node4&#45;&gt;Node6</title>
<path fill="none" stroke="midnightblue" d="M337.153,-210.496C358.107,-192.931 409.433,-152.879 460.325,-136 644.457,-74.9304 707.874,-149.957 895.325,-100 897.677,-99.3734 900.067,-98.581 902.428,-97.6892"/>
<polygon fill="midnightblue" stroke="midnightblue" points="904.009,-100.819 911.795,-93.6337 901.228,-94.395 904.009,-100.819"/>
</g>
<!-- Node7 -->
<g id="node7" class="node"><title>Node7</title>
<polygon fill="none" stroke="#bfbfbf" points="15.8254,-137 15.8254,-167 110.825,-167 110.825,-137 15.8254,-137"/>
<text text-anchor="start" x="23.8254" y="-155" font-family="Helvetica,sans-Serif" font-size="10.00">boost/serialization</text>
<text text-anchor="middle" x="63.3254" y="-144" font-family="Helvetica,sans-Serif" font-size="10.00">/base_object.hpp</text>
</g>
<!-- Node4&#45;&gt;Node7 -->
<g id="edge8" class="edge"><title>Node4&#45;&gt;Node7</title>
<path fill="none" stroke="midnightblue" d="M291.753,-210.416C252.415,-200.884 186.909,-184.893 120.672,-168.067"/>
<polygon fill="midnightblue" stroke="midnightblue" points="121.451,-164.653 110.897,-165.579 119.724,-171.437 121.451,-164.653"/>
</g>
<!-- Node5&#45;&gt;Node3 -->
<g id="edge5" class="edge"><title>Node5&#45;&gt;Node3</title>
<path fill="none" stroke="midnightblue" d="M234.066,-142.372C260.066,-131.007 305.999,-110.931 336.049,-97.7961"/>
<polygon fill="midnightblue" stroke="midnightblue" points="337.819,-100.843 345.58,-93.6305 335.015,-94.4285 337.819,-100.843"/>
</g>
<!-- Node8&#45;&gt;Node2 -->
<g id="edge24" class="edge"><title>Node8&#45;&gt;Node2</title>
<path fill="none" stroke="midnightblue" d="M671.002,-278.372C633.896,-266.654 567.459,-245.674 526.031,-232.591"/>
<polygon fill="midnightblue" stroke="midnightblue" points="526.914,-229.2 516.324,-229.526 524.806,-235.875 526.914,-229.2"/>
</g>
<!-- Node9 -->
<g id="node9" class="node"><title>Node9</title>
<g id="a_node9"><a xlink:href="../../d1/d3a/Base_2include_2DetectorsBase_2Detector_8h.html" target="_top" xlink:title="DetectorsBase/Detector.h">
<polygon fill="none" stroke="black" points="742.825,-210.5 742.825,-229.5 873.825,-229.5 873.825,-210.5 742.825,-210.5"/>
<text text-anchor="middle" x="808.325" y="-217.5" font-family="Helvetica,sans-Serif" font-size="10.00">DetectorsBase/Detector.h</text>
</a>
</g>
</g>
<!-- Node8&#45;&gt;Node9 -->
<g id="edge10" class="edge"><title>Node8&#45;&gt;Node9</title>
<path fill="none" stroke="midnightblue" d="M712.706,-278.372C731.152,-267.304 763.371,-247.972 785.262,-234.838"/>
<polygon fill="midnightblue" stroke="midnightblue" points="787.167,-237.777 793.941,-229.63 783.566,-231.774 787.167,-237.777"/>
</g>
<!-- Node20 -->
<g id="node20" class="node"><title>Node20</title>
<g id="a_node20"><a xlink:href="../../d4/d25/BaseHits_8h.html" target="_top" xlink:title="SimulationDataFormat\l/BaseHits.h">
<polygon fill="none" stroke="black" points="1143.33,-205 1143.33,-235 1257.33,-235 1257.33,-205 1143.33,-205"/>
<text text-anchor="start" x="1151.33" y="-223" font-family="Helvetica,sans-Serif" font-size="10.00">SimulationDataFormat</text>
<text text-anchor="middle" x="1200.33" y="-212" font-family="Helvetica,sans-Serif" font-size="10.00">/BaseHits.h</text>
</a>
</g>
</g>
<!-- Node8&#45;&gt;Node20 -->
<g id="edge25" class="edge"><title>Node8&#45;&gt;Node20</title>
<path fill="none" stroke="midnightblue" d="M763.182,-278.473C858.666,-265.919 1036.2,-242.578 1133.05,-229.845"/>
<polygon fill="midnightblue" stroke="midnightblue" points="1133.56,-233.308 1143.02,-228.534 1132.65,-226.367 1133.56,-233.308"/>
</g>
<!-- Node9&#45;&gt;Node3 -->
<g id="edge19" class="edge"><title>Node9&#45;&gt;Node3</title>
<path fill="none" stroke="midnightblue" d="M742.647,-213.824C656.143,-206.25 509.267,-190.552 460.325,-168 426.365,-152.351 395.447,-120.657 378.619,-101.281"/>
<polygon fill="midnightblue" stroke="midnightblue" points="381.239,-98.9581 372.11,-93.5803 375.892,-103.477 381.239,-98.9581"/>
</g>
<!-- Node10 -->
<g id="node10" class="node"><title>Node10</title>
<polygon fill="none" stroke="#bfbfbf" points="851.825,-74.5 851.825,-93.5 886.825,-93.5 886.825,-74.5 851.825,-74.5"/>
<text text-anchor="middle" x="869.325" y="-81.5" font-family="Helvetica,sans-Serif" font-size="10.00">map</text>
</g>
<!-- Node9&#45;&gt;Node10 -->
<g id="edge11" class="edge"><title>Node9&#45;&gt;Node10</title>
<path fill="none" stroke="midnightblue" d="M874.212,-214.868C977.98,-207.681 1169.86,-191.379 1190.33,-168 1199.69,-157.299 1199.75,-146.648 1190.33,-136 1146.55,-86.5537 957.966,-120.922 895.325,-100 893.873,-99.515 892.412,-98.9439 890.963,-98.3127"/>
<polygon fill="midnightblue" stroke="midnightblue" points="892.289,-95.0573 881.801,-93.5537 889.062,-101.269 892.289,-95.0573"/>
</g>
<!-- Node11 -->
<g id="node11" class="node"><title>Node11</title>
<polygon fill="none" stroke="#bfbfbf" points="970.325,-142.5 970.325,-161.5 1014.33,-161.5 1014.33,-142.5 970.325,-142.5"/>
<text text-anchor="middle" x="992.325" y="-149.5" font-family="Helvetica,sans-Serif" font-size="10.00">vector</text>
</g>
<!-- Node9&#45;&gt;Node11 -->
<g id="edge12" class="edge"><title>Node9&#45;&gt;Node11</title>
<path fill="none" stroke="midnightblue" d="M836.972,-210.465C867.795,-201.033 918.08,-184.924 960.325,-168 961.97,-167.341 963.651,-166.64 965.338,-165.915"/>
<polygon fill="midnightblue" stroke="midnightblue" points="967.198,-168.916 974.879,-161.619 964.324,-162.533 967.198,-168.916"/>
</g>
<!-- Node12 -->
<g id="node12" class="node"><title>Node12</title>
<polygon fill="none" stroke="#bfbfbf" points="1032.33,-142.5 1032.33,-161.5 1084.33,-161.5 1084.33,-142.5 1032.33,-142.5"/>
<text text-anchor="middle" x="1058.33" y="-149.5" font-family="Helvetica,sans-Serif" font-size="10.00">memory</text>
</g>
<!-- Node9&#45;&gt;Node12 -->
<g id="edge13" class="edge"><title>Node9&#45;&gt;Node12</title>
<path fill="none" stroke="midnightblue" d="M853.583,-210.421C897.302,-201.618 965.119,-186.601 1022.33,-168 1024.89,-167.165 1027.53,-166.226 1030.16,-165.236"/>
<polygon fill="midnightblue" stroke="midnightblue" points="1031.49,-168.475 1039.48,-161.521 1028.9,-161.973 1031.49,-168.475"/>
</g>
<!-- Node13 -->
<g id="node13" class="node"><title>Node13</title>
<polygon fill="none" stroke="#bfbfbf" points="1102.83,-142.5 1102.83,-161.5 1181.83,-161.5 1181.83,-142.5 1102.83,-142.5"/>
<text text-anchor="middle" x="1142.33" y="-149.5" font-family="Helvetica,sans-Serif" font-size="10.00">FairDetector.h</text>
</g>
<!-- Node9&#45;&gt;Node13 -->
<g id="edge14" class="edge"><title>Node9&#45;&gt;Node13</title>
<path fill="none" stroke="midnightblue" d="M867.982,-210.459C925.945,-201.66 1016.25,-186.622 1093.33,-168 1097.72,-166.937 1102.31,-165.704 1106.84,-164.411"/>
<polygon fill="midnightblue" stroke="midnightblue" points="1107.96,-167.729 1116.55,-161.526 1105.96,-161.019 1107.96,-167.729"/>
</g>
<!-- Node14 -->
<g id="node14" class="node"><title>Node14</title>
<polygon fill="none" stroke="#bfbfbf" points="469.325,-142.5 469.325,-161.5 569.325,-161.5 569.325,-142.5 469.325,-142.5"/>
<text text-anchor="middle" x="519.325" y="-149.5" font-family="Helvetica,sans-Serif" font-size="10.00">FairRootManager.h</text>
</g>
<!-- Node9&#45;&gt;Node14 -->
<g id="edge15" class="edge"><title>Node9&#45;&gt;Node14</title>
<path fill="none" stroke="midnightblue" d="M767.938,-210.438C721.94,-200.595 644.575,-183.763 578.325,-168 572.992,-166.731 567.397,-165.36 561.866,-163.981"/>
<polygon fill="midnightblue" stroke="midnightblue" points="562.601,-160.557 552.049,-161.51 560.892,-167.346 562.601,-160.557"/>
</g>
<!-- Node15 -->
<g id="node15" class="node"><title>Node15</title>
<g id="a_node15"><a xlink:href="../../d0/d9a/MaterialManager_8h.html" target="_top" xlink:title="DetectorsBase/MaterialManager.h">
<polygon fill="none" stroke="black" points="786.825,-142.5 786.825,-161.5 951.825,-161.5 951.825,-142.5 786.825,-142.5"/>
<text text-anchor="middle" x="869.325" y="-149.5" font-family="Helvetica,sans-Serif" font-size="10.00">DetectorsBase/MaterialManager.h</text>
</a>
</g>
</g>
<!-- Node9&#45;&gt;Node15 -->
<g id="edge16" class="edge"><title>Node9&#45;&gt;Node15</title>
<path fill="none" stroke="midnightblue" d="M816.3,-210.372C825.928,-199.955 842.322,-182.217 854.338,-169.216"/>
<polygon fill="midnightblue" stroke="midnightblue" points="856.937,-171.561 861.154,-161.841 851.796,-166.809 856.937,-171.561"/>
</g>
<!-- Node16 -->
<g id="node16" class="node"><title>Node16</title>
<polygon fill="none" stroke="#bfbfbf" points="587.825,-142.5 587.825,-161.5 640.825,-161.5 640.825,-142.5 587.825,-142.5"/>
<text text-anchor="middle" x="614.325" y="-149.5" font-family="Helvetica,sans-Serif" font-size="10.00">cxxabi.h</text>
</g>
<!-- Node9&#45;&gt;Node16 -->
<g id="edge20" class="edge"><title>Node9&#45;&gt;Node16</title>
<path fill="none" stroke="midnightblue" d="M778.735,-210.422C746.588,-200.893 693.86,-184.643 649.325,-168 647.212,-167.21 645.04,-166.365 642.863,-165.492"/>
<polygon fill="midnightblue" stroke="midnightblue" points="644.027,-162.185 633.449,-161.582 641.342,-168.65 644.027,-162.185"/>
</g>
<!-- Node17 -->
<g id="node17" class="node"><title>Node17</title>
<polygon fill="none" stroke="#bfbfbf" points="658.825,-142.5 658.825,-161.5 709.825,-161.5 709.825,-142.5 658.825,-142.5"/>
<text text-anchor="middle" x="684.325" y="-149.5" font-family="Helvetica,sans-Serif" font-size="10.00">typeinfo</text>
</g>
<!-- Node9&#45;&gt;Node17 -->
<g id="edge21" class="edge"><title>Node9&#45;&gt;Node17</title>
<path fill="none" stroke="midnightblue" d="M792.115,-210.372C771.135,-199.205 734.351,-179.627 709.666,-166.488"/>
<polygon fill="midnightblue" stroke="midnightblue" points="711.012,-163.239 700.54,-161.63 707.723,-169.419 711.012,-163.239"/>
</g>
<!-- Node18 -->
<g id="node18" class="node"><title>Node18</title>
<polygon fill="none" stroke="#bfbfbf" points="1238.33,-142.5 1238.33,-161.5 1300.33,-161.5 1300.33,-142.5 1238.33,-142.5"/>
<text text-anchor="middle" x="1269.33" y="-149.5" font-family="Helvetica,sans-Serif" font-size="10.00">type_traits</text>
</g>
<!-- Node9&#45;&gt;Node18 -->
<g id="edge22" class="edge"><title>Node9&#45;&gt;Node18</title>
<path fill="none" stroke="midnightblue" d="M873.867,-215.026C956.418,-209.095 1102.24,-195.54 1224.33,-168 1228.48,-167.062 1232.8,-165.891 1237.04,-164.618"/>
<polygon fill="midnightblue" stroke="midnightblue" points="1238.23,-167.912 1246.68,-161.528 1236.09,-161.246 1238.23,-167.912"/>
</g>
<!-- Node19 -->
<g id="node19" class="node"><title>Node19</title>
<polygon fill="none" stroke="#bfbfbf" points="727.825,-142.5 727.825,-161.5 768.825,-161.5 768.825,-142.5 727.825,-142.5"/>
<text text-anchor="middle" x="748.325" y="-149.5" font-family="Helvetica,sans-Serif" font-size="10.00">string</text>
</g>
<!-- Node9&#45;&gt;Node19 -->
<g id="edge23" class="edge"><title>Node9&#45;&gt;Node19</title>
<path fill="none" stroke="midnightblue" d="M800.481,-210.372C791.101,-200.053 775.19,-182.551 763.403,-169.585"/>
<polygon fill="midnightblue" stroke="midnightblue" points="765.679,-166.886 756.363,-161.841 760.5,-171.595 765.679,-166.886"/>
</g>
<!-- Node15&#45;&gt;Node3 -->
<g id="edge17" class="edge"><title>Node15&#45;&gt;Node3</title>
<path fill="none" stroke="midnightblue" d="M819.244,-142.476C805.659,-140.262 790.942,-137.952 777.325,-136 639.965,-116.308 476.181,-97.3892 403.412,-89.2188"/>
<polygon fill="midnightblue" stroke="midnightblue" points="403.677,-85.7267 393.35,-88.0925 402.899,-92.6833 403.677,-85.7267"/>
</g>
<!-- Node15&#45;&gt;Node10 -->
<g id="edge18" class="edge"><title>Node15&#45;&gt;Node10</title>
<path fill="none" stroke="midnightblue" d="M869.325,-142.372C869.325,-132.643 869.325,-116.528 869.325,-103.85"/>
<polygon fill="midnightblue" stroke="midnightblue" points="872.826,-103.841 869.325,-93.8411 865.826,-103.841 872.826,-103.841"/>
</g>
<!-- Node21 -->
<g id="node21" class="node"><title>Node21</title>
<g id="a_node21"><a xlink:href="../../dd/d76/Cartesian3D_8h.html" target="_top" xlink:title="MathUtils/Cartesian3D.h">
<polygon fill="none" stroke="black" points="1317.83,-142.5 1317.83,-161.5 1442.83,-161.5 1442.83,-142.5 1317.83,-142.5"/>
<text text-anchor="middle" x="1380.33" y="-149.5" font-family="Helvetica,sans-Serif" font-size="10.00">MathUtils/Cartesian3D.h</text>
</a>
</g>
</g>
<!-- Node20&#45;&gt;Node21 -->
<g id="edge26" class="edge"><title>Node20&#45;&gt;Node21</title>
<path fill="none" stroke="midnightblue" d="M1238.94,-204.841C1271.14,-193.033 1316.55,-176.384 1347.14,-165.168"/>
<polygon fill="midnightblue" stroke="midnightblue" points="1348.72,-168.316 1356.91,-161.587 1346.31,-161.743 1348.72,-168.316"/>
</g>
<!-- Node21&#45;&gt;Node3 -->
<g id="edge32" class="edge"><title>Node21&#45;&gt;Node3</title>
<path fill="none" stroke="midnightblue" d="M1344.62,-142.447C1333.1,-139.987 1320.23,-137.552 1308.33,-136 1128.92,-112.597 557.965,-91.6406 403.931,-86.3066"/>
<polygon fill="midnightblue" stroke="midnightblue" points="403.687,-82.7962 393.572,-85.9497 403.445,-89.792 403.687,-82.7962"/>
</g>
<!-- Node21&#45;&gt;Node6 -->
<g id="edge34" class="edge"><title>Node21&#45;&gt;Node6</title>
<path fill="none" stroke="midnightblue" d="M1343.09,-142.483C1331.95,-140.141 1319.68,-137.764 1308.33,-136 1154.24,-112.067 1109.59,-141.677 959.325,-100 956.981,-99.3497 954.595,-98.5409 952.236,-97.6383"/>
<polygon fill="midnightblue" stroke="midnightblue" points="953.44,-94.3452 942.874,-93.5661 950.648,-100.764 953.44,-94.3452"/>
</g>
<!-- Node22 -->
<g id="node22" class="node"><title>Node22</title>
<polygon fill="none" stroke="#bfbfbf" points="1557.83,-69 1557.83,-99 1708.83,-99 1708.83,-69 1557.83,-69"/>
<text text-anchor="start" x="1565.83" y="-87" font-family="Helvetica,sans-Serif" font-size="10.00">Math/GenVector/Displacement</text>
<text text-anchor="middle" x="1633.33" y="-76" font-family="Helvetica,sans-Serif" font-size="10.00">Vector3D.h</text>
</g>
<!-- Node21&#45;&gt;Node22 -->
<g id="edge27" class="edge"><title>Node21&#45;&gt;Node22</title>
<path fill="none" stroke="midnightblue" d="M1413.14,-142.439C1452.63,-132.139 1519.81,-114.612 1569.61,-101.621"/>
<polygon fill="midnightblue" stroke="midnightblue" points="1570.53,-104.998 1579.32,-99.0873 1568.76,-98.225 1570.53,-104.998"/>
</g>
<!-- Node23 -->
<g id="node23" class="node"><title>Node23</title>
<polygon fill="none" stroke="#bfbfbf" points="1727.33,-74.5 1727.33,-93.5 1903.33,-93.5 1903.33,-74.5 1727.33,-74.5"/>
<text text-anchor="middle" x="1815.33" y="-81.5" font-family="Helvetica,sans-Serif" font-size="10.00">Math/GenVector/PositionVector3D.h</text>
</g>
<!-- Node21&#45;&gt;Node23 -->
<g id="edge28" class="edge"><title>Node21&#45;&gt;Node23</title>
<path fill="none" stroke="midnightblue" d="M1436.98,-142.457C1503.94,-132.35 1618.75,-115.002 1717.33,-100 1727.88,-98.3939 1739.07,-96.6857 1749.97,-95.0191"/>
<polygon fill="midnightblue" stroke="midnightblue" points="1750.52,-98.4762 1759.87,-93.5044 1749.46,-91.5567 1750.52,-98.4762"/>
</g>
<!-- Node24 -->
<g id="node24" class="node"><title>Node24</title>
<polygon fill="none" stroke="#bfbfbf" points="1920.83,-74.5 1920.83,-93.5 2069.83,-93.5 2069.83,-74.5 1920.83,-74.5"/>
<text text-anchor="middle" x="1995.33" y="-81.5" font-family="Helvetica,sans-Serif" font-size="10.00">Math/GenVector/Rotation3D.h</text>
</g>
<!-- Node21&#45;&gt;Node24 -->
<g id="edge29" class="edge"><title>Node21&#45;&gt;Node24</title>
<path fill="none" stroke="midnightblue" d="M1443.05,-146.629C1542.59,-139.32 1742.73,-123.111 1911.33,-100 1921.12,-98.6571 1931.52,-96.9947 1941.54,-95.2707"/>
<polygon fill="midnightblue" stroke="midnightblue" points="1942.16,-98.7161 1951.4,-93.5357 1940.94,-91.822 1942.16,-98.7161"/>
</g>
<!-- Node25 -->
<g id="node25" class="node"><title>Node25</title>
<polygon fill="none" stroke="#bfbfbf" points="968.325,-74.5 968.325,-93.5 1124.33,-93.5 1124.33,-74.5 968.325,-74.5"/>
<text text-anchor="middle" x="1046.33" y="-81.5" font-family="Helvetica,sans-Serif" font-size="10.00">Math/GenVector/Transform3D.h</text>
</g>
<!-- Node21&#45;&gt;Node25 -->
<g id="edge30" class="edge"><title>Node21&#45;&gt;Node25</title>
<path fill="none" stroke="midnightblue" d="M1339.98,-142.497C1329.66,-140.35 1318.59,-138.068 1308.33,-136 1236.84,-121.597 1154.25,-105.631 1101.21,-95.4655"/>
<polygon fill="midnightblue" stroke="midnightblue" points="1101.81,-92.0177 1091.33,-93.5743 1100.49,-98.8928 1101.81,-92.0177"/>
</g>
<!-- Node26 -->
<g id="node26" class="node"><title>Node26</title>
<polygon fill="none" stroke="#bfbfbf" points="1142.33,-74.5 1142.33,-93.5 1302.33,-93.5 1302.33,-74.5 1142.33,-74.5"/>
<text text-anchor="middle" x="1222.33" y="-81.5" font-family="Helvetica,sans-Serif" font-size="10.00">Math/GenVector/Translation3D.h</text>
</g>
<!-- Node21&#45;&gt;Node26 -->
<g id="edge31" class="edge"><title>Node21&#45;&gt;Node26</title>
<path fill="none" stroke="midnightblue" d="M1359.67,-142.372C1332.35,-130.958 1283.98,-110.756 1252.55,-97.6252"/>
<polygon fill="midnightblue" stroke="midnightblue" points="1253.56,-94.2554 1242.99,-93.6305 1250.86,-100.715 1253.56,-94.2554"/>
</g>
<!-- Node27 -->
<g id="node27" class="node"><title>Node27</title>
<polygon fill="none" stroke="#bfbfbf" points="1320.33,-74.5 1320.33,-93.5 1396.33,-93.5 1396.33,-74.5 1320.33,-74.5"/>
<text text-anchor="middle" x="1358.33" y="-81.5" font-family="Helvetica,sans-Serif" font-size="10.00">TGeoMatrix.h</text>
</g>
<!-- Node21&#45;&gt;Node27 -->
<g id="edge33" class="edge"><title>Node21&#45;&gt;Node27</title>
<path fill="none" stroke="midnightblue" d="M1377.45,-142.372C1374.17,-132.544 1368.73,-116.202 1364.48,-103.467"/>
<polygon fill="midnightblue" stroke="midnightblue" points="1367.76,-102.221 1361.27,-93.8411 1361.11,-104.435 1367.76,-102.221"/>
</g>
<!-- Node28 -->
<g id="node28" class="node"><title>Node28</title>
<g id="a_node28"><a xlink:href="../../d2/dd0/Cartesian2D_8h.html" target="_top" xlink:title="MathUtils/Cartesian2D.h">
<polygon fill="none" stroke="black" points="1414.83,-74.5 1414.83,-93.5 1539.83,-93.5 1539.83,-74.5 1414.83,-74.5"/>
<text text-anchor="middle" x="1477.33" y="-81.5" font-family="Helvetica,sans-Serif" font-size="10.00">MathUtils/Cartesian2D.h</text>
</a>
</g>
</g>
<!-- Node21&#45;&gt;Node28 -->
<g id="edge35" class="edge"><title>Node21&#45;&gt;Node28</title>
<path fill="none" stroke="midnightblue" d="M1393.01,-142.372C1409.05,-131.452 1436.93,-112.489 1456.21,-99.369"/>
<polygon fill="midnightblue" stroke="midnightblue" points="1458.34,-102.15 1464.64,-93.6305 1454.4,-96.3622 1458.34,-102.15"/>
</g>
<!-- Node29 -->
<g id="node29" class="node"><title>Node29</title>
<polygon fill="none" stroke="#bfbfbf" points="1310.83,-1 1310.83,-31 1461.83,-31 1461.83,-1 1310.83,-1"/>
<text text-anchor="start" x="1318.83" y="-19" font-family="Helvetica,sans-Serif" font-size="10.00">Math/GenVector/Displacement</text>
<text text-anchor="middle" x="1386.33" y="-8" font-family="Helvetica,sans-Serif" font-size="10.00">Vector2D.h</text>
</g>
<!-- Node28&#45;&gt;Node29 -->
<g id="edge36" class="edge"><title>Node28&#45;&gt;Node29</title>
<path fill="none" stroke="midnightblue" d="M1465.43,-74.3717C1452.55,-65.0286 1431.55,-49.7966 1414.42,-37.375"/>
<polygon fill="midnightblue" stroke="midnightblue" points="1416.03,-34.2194 1405.88,-31.1815 1411.92,-39.8859 1416.03,-34.2194"/>
</g>
<!-- Node30 -->
<g id="node30" class="node"><title>Node30</title>
<polygon fill="none" stroke="#bfbfbf" points="1480.33,-6.5 1480.33,-25.5 1656.33,-25.5 1656.33,-6.5 1480.33,-6.5"/>
<text text-anchor="middle" x="1568.33" y="-13.5" font-family="Helvetica,sans-Serif" font-size="10.00">Math/GenVector/PositionVector2D.h</text>
</g>
<!-- Node28&#45;&gt;Node30 -->
<g id="edge37" class="edge"><title>Node28&#45;&gt;Node30</title>
<path fill="none" stroke="midnightblue" d="M1489.22,-74.3717C1504.21,-63.5015 1530.19,-44.6602 1548.27,-31.5474"/>
<polygon fill="midnightblue" stroke="midnightblue" points="1550.39,-34.3349 1556.43,-25.6305 1546.28,-28.6684 1550.39,-34.3349"/>
</g>
<!-- Node31&#45;&gt;Node18 -->
<g id="edge43" class="edge"><title>Node31&#45;&gt;Node18</title>
<path fill="none" stroke="midnightblue" d="M1286.27,-280.945C1231.01,-273.765 1152.92,-259.683 1134.33,-236 1125.54,-224.815 1126.24,-215.699 1134.33,-204 1145.38,-188.009 1192.64,-172.664 1228.15,-163.059"/>
<polygon fill="midnightblue" stroke="midnightblue" points="1229.5,-166.323 1238.27,-160.387 1227.71,-159.554 1229.5,-166.323"/>
</g>
<!-- Node32 -->
<g id="node32" class="node"><title>Node32</title>
<polygon fill="none" stroke="#bfbfbf" points="1275.33,-210.5 1275.33,-229.5 1337.33,-229.5 1337.33,-210.5 1275.33,-210.5"/>
<text text-anchor="middle" x="1306.33" y="-217.5" font-family="Helvetica,sans-Serif" font-size="10.00">TNamed.h</text>
</g>
<!-- Node31&#45;&gt;Node32 -->
<g id="edge39" class="edge"><title>Node31&#45;&gt;Node32</title>
<path fill="none" stroke="midnightblue" d="M1335.3,-272.679C1329.7,-262.694 1322.19,-249.307 1316.23,-238.66"/>
<polygon fill="midnightblue" stroke="midnightblue" points="1319.22,-236.84 1311.27,-229.828 1313.11,-240.263 1319.22,-236.84"/>
</g>
<!-- Node33 -->
<g id="node33" class="node"><title>Node33</title>
<polygon fill="none" stroke="#bfbfbf" points="1355.83,-210.5 1355.83,-229.5 1404.83,-229.5 1404.83,-210.5 1355.83,-210.5"/>
<text text-anchor="middle" x="1380.33" y="-217.5" font-family="Helvetica,sans-Serif" font-size="10.00">cassert</text>
</g>
<!-- Node31&#45;&gt;Node33 -->
<g id="edge40" class="edge"><title>Node31&#45;&gt;Node33</title>
<path fill="none" stroke="midnightblue" d="M1351.35,-272.679C1356.95,-262.694 1364.46,-249.307 1370.43,-238.66"/>
<polygon fill="midnightblue" stroke="midnightblue" points="1373.54,-240.263 1375.38,-229.828 1367.43,-236.84 1373.54,-240.263"/>
</g>
<!-- Node34 -->
<g id="node34" class="node"><title>Node34</title>
<polygon fill="none" stroke="#bfbfbf" points="1422.83,-210.5 1422.83,-229.5 1481.83,-229.5 1481.83,-210.5 1422.83,-210.5"/>
<text text-anchor="middle" x="1452.33" y="-217.5" font-family="Helvetica,sans-Serif" font-size="10.00">stdexcept</text>
</g>
<!-- Node31&#45;&gt;Node34 -->
<g id="edge41" class="edge"><title>Node31&#45;&gt;Node34</title>
<path fill="none" stroke="midnightblue" d="M1366.71,-272.841C1385.22,-261.63 1410.95,-246.056 1429.35,-234.91"/>
<polygon fill="midnightblue" stroke="midnightblue" points="1431.25,-237.855 1437.99,-229.682 1427.62,-231.868 1431.25,-237.855"/>
</g>
<!-- Node35 -->
<g id="node35" class="node"><title>Node35</title>
<polygon fill="none" stroke="#bfbfbf" points="1499.83,-210.5 1499.83,-229.5 1544.83,-229.5 1544.83,-210.5 1499.83,-210.5"/>
<text text-anchor="middle" x="1522.33" y="-217.5" font-family="Helvetica,sans-Serif" font-size="10.00">gsl/gsl</text>
</g>
<!-- Node31&#45;&gt;Node35 -->
<g id="edge42" class="edge"><title>Node31&#45;&gt;Node35</title>
<path fill="none" stroke="midnightblue" d="M1387.83,-272.901C1417.22,-263.265 1456.42,-249.785 1490.33,-236 1491.97,-235.333 1493.64,-234.625 1495.33,-233.895"/>
<polygon fill="midnightblue" stroke="midnightblue" points="1497.19,-236.893 1504.87,-229.586 1494.31,-230.514 1497.19,-236.893"/>
</g>
<!-- Node37 -->
<g id="node37" class="node"><title>Node37</title>
<g id="a_node37"><a xlink:href="../../d7/dcd/MCCompLabel_8h.html" target="_top" xlink:title="SimulationDataFormat\l/MCCompLabel.h">
<polygon fill="none" stroke="black" points="40.3254,-205 40.3254,-235 154.325,-235 154.325,-205 40.3254,-205"/>
<text text-anchor="start" x="48.3254" y="-223" font-family="Helvetica,sans-Serif" font-size="10.00">SimulationDataFormat</text>
<text text-anchor="middle" x="97.3254" y="-212" font-family="Helvetica,sans-Serif" font-size="10.00">/MCCompLabel.h</text>
</a>
</g>
</g>
<!-- Node36&#45;&gt;Node37 -->
<g id="edge45" class="edge"><title>Node36&#45;&gt;Node37</title>
<path fill="none" stroke="midnightblue" d="M261.617,-278.372C232.684,-268.268 184.029,-251.277 147.157,-238.402"/>
<polygon fill="midnightblue" stroke="midnightblue" points="148.172,-235.049 137.577,-235.056 145.864,-241.657 148.172,-235.049"/>
</g>
<!-- Node37&#45;&gt;Node3 -->
<g id="edge46" class="edge"><title>Node37&#45;&gt;Node3</title>
<path fill="none" stroke="midnightblue" d="M52.1178,-204.929C34.6139,-197.022 16.3962,-185.189 6.32541,-168 -0.864237,-155.729 -2.99721,-146.741 6.32541,-136 47.5796,-88.4709 243.394,-84.075 327.164,-84.4285"/>
<polygon fill="midnightblue" stroke="midnightblue" points="327.253,-87.9291 337.276,-84.497 327.3,-80.9293 327.253,-87.9291"/>
</g>
</g>
</svg>
