<?xml version="1.0" encoding="UTF-8" standalone="no"?>
<!DOCTYPE svg PUBLIC "-//W3C//DTD SVG 1.1//EN"
 "http://www.w3.org/Graphics/SVG/1.1/DTD/svg11.dtd">
<!-- Generated by graphviz version 2.36.0 (20140111.2315)
 -->
<!-- Title: /home/travis/build/AliceO2Group/AliceO2/macro/convertClusterToClusterHardware.C Pages: 1 -->
<!--zoomable 526 -->
<svg id="main" version="1.1" xmlns="http://www.w3.org/2000/svg" xmlns:xlink="http://www.w3.org/1999/xlink" xml:space="preserve" onload="init(evt)">
<style type="text/css"><![CDATA[
.edge:hover path { stroke: red; }
.edge:hover polygon { stroke: red; fill: red; }
]]></style>
<script type="text/javascript"><![CDATA[
var edges = document.getElementsByTagName('g');
if (edges && edges.length) {
  for (var i=0;i<edges.length;i++) {
    if (edges[i].id.substr(0,4)=='edge') {
      edges[i].setAttribute('class','edge');
    }
  }
}
]]></script>
        <defs>
                <circle id="rim" cx="0" cy="0" r="7"/>
                <circle id="rim2" cx="0" cy="0" r="3.5"/>
                <g id="zoomPlus">
                        <use xlink:href="#rim" fill="#404040">
                                <set attributeName="fill" to="#808080" begin="zoomplus.mouseover" end="zoomplus.mouseout"/>
                        </use>
                        <path d="M-4,0h8M0,-4v8" fill="none" stroke="white" stroke-width="1.5" pointer-events="none"/>
                </g>
                <g id="zoomMin">
                        <use xlink:href="#rim" fill="#404040">
                                <set attributeName="fill" to="#808080" begin="zoomminus.mouseover" end="zoomminus.mouseout"/>
                        </use>
                        <path d="M-4,0h8" fill="none" stroke="white" stroke-width="1.5" pointer-events="none"/>
                </g>
                <g id="dirArrow">
                        <path fill="none" stroke="white" stroke-width="1.5" d="M0,-3.0v7 M-2.5,-0.5L0,-3.0L2.5,-0.5"/>
                </g>
               <g id="resetDef">
                       <use xlink:href="#rim2" fill="#404040">
                               <set attributeName="fill" to="#808080" begin="reset.mouseover" end="reset.mouseout"/>
                       </use>
               </g>
        </defs>

<script type="text/javascript">
var viewWidth = 1642;
var viewHeight = 526;
var sectionId = 'dynsection-0';
</script>
<script xlink:href="../../svgpan.js"/>
<svg id="graph" class="graph">
<g id="viewport">
<title>/home/travis/build/AliceO2Group/AliceO2/macro/convertClusterToClusterHardware.C</title>
<!-- Node1 -->
<g id="node1" class="node"><title>Node1</title>
<polygon fill="#bfbfbf" stroke="black" points="990,-465 990,-517 1146,-517 1146,-465 990,-465"/>
<text text-anchor="start" x="998" y="-505" font-family="Helvetica,sans-Serif" font-size="10.00">/home/travis/build</text>
<text text-anchor="start" x="998" y="-494" font-family="Helvetica,sans-Serif" font-size="10.00">/AliceO2Group/AliceO2</text>
<text text-anchor="start" x="998" y="-483" font-family="Helvetica,sans-Serif" font-size="10.00">/macro/convertClusterToCluster</text>
<text text-anchor="middle" x="1068" y="-472" font-family="Helvetica,sans-Serif" font-size="10.00">Hardware.C</text>
</g>
<!-- Node2 -->
<g id="node2" class="node"><title>Node2</title>
<polygon fill="none" stroke="#bfbfbf" points="0,-278.5 0,-297.5 44,-297.5 44,-278.5 0,-278.5"/>
<text text-anchor="middle" x="22" y="-285.5" font-family="Helvetica,sans-Serif" font-size="10.00">vector</text>
</g>
<!-- Node1&#45;&gt;Node2 -->
<g id="edge1" class="edge"><title>Node1&#45;&gt;Node2</title>
<path fill="none" stroke="midnightblue" d="M989.667,-490.709C788.881,-491.622 260.175,-488.073 97,-428 49.6199,-410.557 28.6191,-405.139 6,-360 -2.46277,-343.112 4.41532,-321.735 11.6027,-306.871"/>
<polygon fill="midnightblue" stroke="midnightblue" points="14.8439,-308.23 16.4433,-297.757 8.66166,-304.947 14.8439,-308.23"/>
</g>
<!-- Node3 -->
<g id="node3" class="node"><title>Node3</title>
<polygon fill="none" stroke="#bfbfbf" points="1070,-402.5 1070,-421.5 1120,-421.5 1120,-402.5 1070,-402.5"/>
<text text-anchor="middle" x="1095" y="-409.5" font-family="Helvetica,sans-Serif" font-size="10.00">fstream</text>
</g>
<!-- Node1&#45;&gt;Node3 -->
<g id="edge2" class="edge"><title>Node1&#45;&gt;Node3</title>
<path fill="none" stroke="midnightblue" d="M1076.84,-464.787C1080.68,-453.836 1085.09,-441.25 1088.61,-431.228"/>
<polygon fill="midnightblue" stroke="midnightblue" points="1091.99,-432.153 1092,-421.558 1085.39,-429.836 1091.99,-432.153"/>
</g>
<!-- Node4 -->
<g id="node4" class="node"><title>Node4</title>
<polygon fill="none" stroke="#bfbfbf" points="1138,-402.5 1138,-421.5 1192,-421.5 1192,-402.5 1138,-402.5"/>
<text text-anchor="middle" x="1165" y="-409.5" font-family="Helvetica,sans-Serif" font-size="10.00">iostream</text>
</g>
<!-- Node1&#45;&gt;Node4 -->
<g id="edge3" class="edge"><title>Node1&#45;&gt;Node4</title>
<path fill="none" stroke="midnightblue" d="M1099.76,-464.787C1115.17,-452.554 1133.15,-438.282 1146.33,-427.821"/>
<polygon fill="midnightblue" stroke="midnightblue" points="1148.56,-430.516 1154.22,-421.558 1144.21,-425.034 1148.56,-430.516"/>
</g>
<!-- Node5 -->
<g id="node5" class="node"><title>Node5</title>
<polygon fill="none" stroke="#bfbfbf" points="1210.5,-402.5 1210.5,-421.5 1275.5,-421.5 1275.5,-402.5 1210.5,-402.5"/>
<text text-anchor="middle" x="1243" y="-409.5" font-family="Helvetica,sans-Serif" font-size="10.00">TSystem.h</text>
</g>
<!-- Node1&#45;&gt;Node5 -->
<g id="edge4" class="edge"><title>Node1&#45;&gt;Node5</title>
<path fill="none" stroke="midnightblue" d="M1125.3,-464.787C1155.09,-451.681 1190.2,-436.232 1214.27,-425.64"/>
<polygon fill="midnightblue" stroke="midnightblue" points="1215.81,-428.789 1223.55,-421.558 1212.99,-422.382 1215.81,-428.789"/>
</g>
<!-- Node6 -->
<g id="node6" class="node"><title>Node6</title>
<polygon fill="none" stroke="#bfbfbf" points="1293.5,-402.5 1293.5,-421.5 1352.5,-421.5 1352.5,-402.5 1293.5,-402.5"/>
<text text-anchor="middle" x="1323" y="-409.5" font-family="Helvetica,sans-Serif" font-size="10.00">TROOT.h</text>
</g>
<!-- Node1&#45;&gt;Node6 -->
<g id="edge5" class="edge"><title>Node1&#45;&gt;Node6</title>
<path fill="none" stroke="midnightblue" d="M1146.24,-469.323C1187.49,-457.974 1238.78,-443.155 1284,-428 1286.62,-427.123 1289.32,-426.175 1292.02,-425.196"/>
<polygon fill="midnightblue" stroke="midnightblue" points="1293.52,-428.372 1301.67,-421.593 1291.07,-421.815 1293.52,-428.372"/>
</g>
<!-- Node7 -->
<g id="node7" class="node"><title>Node7</title>
<polygon fill="none" stroke="#bfbfbf" points="1370.5,-402.5 1370.5,-421.5 1417.5,-421.5 1417.5,-402.5 1370.5,-402.5"/>
<text text-anchor="middle" x="1394" y="-409.5" font-family="Helvetica,sans-Serif" font-size="10.00">TFile.h</text>
</g>
<!-- Node1&#45;&gt;Node7 -->
<g id="edge6" class="edge"><title>Node1&#45;&gt;Node7</title>
<path fill="none" stroke="midnightblue" d="M1146.02,-478.26C1205.76,-468.133 1289.75,-451.421 1361,-428 1363.27,-427.254 1365.59,-426.399 1367.9,-425.484"/>
<polygon fill="midnightblue" stroke="midnightblue" points="1369.35,-428.673 1377.16,-421.511 1366.59,-422.241 1369.35,-428.673"/>
</g>
<!-- Node8 -->
<g id="node8" class="node"><title>Node8</title>
<polygon fill="none" stroke="#bfbfbf" points="1436,-402.5 1436,-421.5 1492,-421.5 1492,-402.5 1436,-402.5"/>
<text text-anchor="middle" x="1464" y="-409.5" font-family="Helvetica,sans-Serif" font-size="10.00">TString.h</text>
</g>
<!-- Node1&#45;&gt;Node8 -->
<g id="edge7" class="edge"><title>Node1&#45;&gt;Node8</title>
<path fill="none" stroke="midnightblue" d="M1146.19,-481.141C1219.41,-471.749 1331.41,-454.557 1426,-428 1428.98,-427.164 1432.04,-426.178 1435.08,-425.117"/>
<polygon fill="midnightblue" stroke="midnightblue" points="1436.41,-428.357 1444.54,-421.565 1433.95,-421.803 1436.41,-428.357"/>
</g>
<!-- Node9 -->
<g id="node9" class="node"><title>Node9</title>
<polygon fill="none" stroke="#bfbfbf" points="1510,-402.5 1510,-421.5 1566,-421.5 1566,-402.5 1510,-402.5"/>
<text text-anchor="middle" x="1538" y="-409.5" font-family="Helvetica,sans-Serif" font-size="10.00">TChain.h</text>
</g>
<!-- Node1&#45;&gt;Node9 -->
<g id="edge8" class="edge"><title>Node1&#45;&gt;Node9</title>
<path fill="none" stroke="midnightblue" d="M1146.35,-484.286C1233.75,-476.641 1378.79,-460.147 1500,-428 1503.06,-427.19 1506.2,-426.207 1509.31,-425.137"/>
<polygon fill="midnightblue" stroke="midnightblue" points="1510.82,-428.306 1518.96,-421.521 1508.37,-421.75 1510.82,-428.306"/>
</g>
<!-- Node10 -->
<g id="node10" class="node"><title>Node10</title>
<polygon fill="none" stroke="#bfbfbf" points="1584,-402.5 1584,-421.5 1634,-421.5 1634,-402.5 1584,-402.5"/>
<text text-anchor="middle" x="1609" y="-409.5" font-family="Helvetica,sans-Serif" font-size="10.00">TTree.h</text>
</g>
<!-- Node1&#45;&gt;Node10 -->
<g id="edge9" class="edge"><title>Node1&#45;&gt;Node10</title>
<path fill="none" stroke="midnightblue" d="M1146.02,-487.268C1246.54,-482.206 1425.96,-467.924 1574,-428 1576.66,-427.282 1579.38,-426.401 1582.08,-425.428"/>
<polygon fill="midnightblue" stroke="midnightblue" points="1583.56,-428.602 1591.54,-421.631 1580.96,-422.105 1583.56,-428.602"/>
</g>
<!-- Node11 -->
<g id="node11" class="node"><title>Node11</title>
<g id="a_node11"><a xlink:href="../../db/d14/MCTruthContainer_8h.html" target="_top" xlink:title="Definition of a container to keep Monte Carlo truth external to simulation objects. ">
<polygon fill="none" stroke="black" points="106,-397 106,-427 220,-427 220,-397 106,-397"/>
<text text-anchor="start" x="114" y="-415" font-family="Helvetica,sans-Serif" font-size="10.00">SimulationDataFormat</text>
<text text-anchor="middle" x="163" y="-404" font-family="Helvetica,sans-Serif" font-size="10.00">/MCTruthContainer.h</text>
</a>
</g>
</g>
<!-- Node1&#45;&gt;Node11 -->
<g id="edge10" class="edge"><title>Node1&#45;&gt;Node11</title>
<path fill="none" stroke="midnightblue" d="M989.664,-483.335C814.768,-468.454 394.981,-432.738 230.619,-418.753"/>
<polygon fill="midnightblue" stroke="midnightblue" points="230.428,-415.224 220.167,-417.864 229.834,-422.199 230.428,-415.224"/>
</g>
<!-- Node17 -->
<g id="node17" class="node"><title>Node17</title>
<g id="a_node17"><a xlink:href="../../d7/dcd/MCCompLabel_8h.html" target="_top" xlink:title="SimulationDataFormat\l/MCCompLabel.h">
<polygon fill="none" stroke="black" points="1296,-205 1296,-235 1410,-235 1410,-205 1296,-205"/>
<text text-anchor="start" x="1304" y="-223" font-family="Helvetica,sans-Serif" font-size="10.00">SimulationDataFormat</text>
<text text-anchor="middle" x="1353" y="-212" font-family="Helvetica,sans-Serif" font-size="10.00">/MCCompLabel.h</text>
</a>
</g>
</g>
<!-- Node1&#45;&gt;Node17 -->
<g id="edge16" class="edge"><title>Node1&#45;&gt;Node17</title>
<path fill="none" stroke="midnightblue" d="M1058.82,-464.771C1053.21,-444.818 1049.14,-416.931 1061,-396 1109.97,-309.561 1220.52,-261.186 1290.68,-238.156"/>
<polygon fill="midnightblue" stroke="midnightblue" points="1291.84,-241.458 1300.3,-235.073 1289.71,-234.792 1291.84,-241.458"/>
</g>
<!-- Node19 -->
<g id="node19" class="node"><title>Node19</title>
<g id="a_node19"><a xlink:href="../../d3/dc4/ClusterHardware_8h.html" target="_top" xlink:title="Class of a TPC cluster as produced by the hardware cluster finder (needs a postprocessing step to con...">
<polygon fill="none" stroke="black" points="570.5,-340.5 570.5,-359.5 749.5,-359.5 749.5,-340.5 570.5,-340.5"/>
<text text-anchor="middle" x="660" y="-347.5" font-family="Helvetica,sans-Serif" font-size="10.00">DataFormatsTPC/ClusterHardware.h</text>
</a>
</g>
</g>
<!-- Node1&#45;&gt;Node19 -->
<g id="edge18" class="edge"><title>Node1&#45;&gt;Node19</title>
<path fill="none" stroke="midnightblue" d="M989.893,-483.496C926.738,-476.051 836.692,-460.397 764,-428 729.526,-412.636 695.51,-384.276 676.198,-366.594"/>
<polygon fill="midnightblue" stroke="midnightblue" points="678.559,-364.01 668.863,-359.739 673.779,-369.124 678.559,-364.01"/>
</g>
<!-- Node21 -->
<g id="node21" class="node"><title>Node21</title>
<g id="a_node21"><a xlink:href="../../db/df1/Helpers_8h.html" target="_top" xlink:title="Helper class for memory management of TPC Data Formats, external from the actual data type classes to...">
<polygon fill="none" stroke="black" points="485.5,-402.5 485.5,-421.5 624.5,-421.5 624.5,-402.5 485.5,-402.5"/>
<text text-anchor="middle" x="555" y="-409.5" font-family="Helvetica,sans-Serif" font-size="10.00">DataFormatsTPC/Helpers.h</text>
</a>
</g>
</g>
<!-- Node1&#45;&gt;Node21 -->
<g id="edge20" class="edge"><title>Node1&#45;&gt;Node21</title>
<path fill="none" stroke="midnightblue" d="M989.807,-478.263C889.27,-463.173 716.398,-437.225 621.745,-423.018"/>
<polygon fill="midnightblue" stroke="midnightblue" points="622.126,-419.536 611.717,-421.513 621.087,-426.459 622.126,-419.536"/>
</g>
<!-- Node25 -->
<g id="node25" class="node"><title>Node25</title>
<g id="a_node25"><a xlink:href="../../d0/dda/DataFormats_2Detectors_2TPC_2include_2DataFormatsTPC_2Constants_8h.html" target="_top" xlink:title="DataFormatsTPC/Constants.h">
<polygon fill="none" stroke="black" points="635,-210.5 635,-229.5 785,-229.5 785,-210.5 635,-210.5"/>
<text text-anchor="middle" x="710" y="-217.5" font-family="Helvetica,sans-Serif" font-size="10.00">DataFormatsTPC/Constants.h</text>
</a>
</g>
</g>
<!-- Node1&#45;&gt;Node25 -->
<g id="edge36" class="edge"><title>Node1&#45;&gt;Node25</title>
<path fill="none" stroke="midnightblue" d="M989.892,-480.406C946.68,-472.064 893.831,-456.586 854,-428 782.826,-376.919 734.933,-279.208 717.415,-238.983"/>
<polygon fill="midnightblue" stroke="midnightblue" points="720.582,-237.487 713.452,-229.651 714.139,-240.223 720.582,-237.487"/>
</g>
<!-- Node27 -->
<g id="node27" class="node"><title>Node27</title>
<g id="a_node27"><a xlink:href="../../dc/ddf/DataFormats_2Detectors_2TPC_2include_2DataFormatsTPC_2Cluster_8h.html" target="_top" xlink:title="DataFormatsTPC/Cluster.h">
<polygon fill="none" stroke="black" points="1100.5,-210.5 1100.5,-229.5 1237.5,-229.5 1237.5,-210.5 1100.5,-210.5"/>
<text text-anchor="middle" x="1169" y="-217.5" font-family="Helvetica,sans-Serif" font-size="10.00">DataFormatsTPC/Cluster.h</text>
</a>
</g>
</g>
<!-- Node1&#45;&gt;Node27 -->
<g id="edge31" class="edge"><title>Node1&#45;&gt;Node27</title>
<path fill="none" stroke="midnightblue" d="M1047.06,-464.801C1039.5,-454.136 1031.87,-441.148 1028,-428 1008.41,-361.492 988.175,-328.755 1028,-272 1042.52,-251.305 1066.32,-238.972 1090.26,-231.635"/>
<polygon fill="midnightblue" stroke="midnightblue" points="1091.45,-234.937 1100.14,-228.879 1089.57,-228.195 1091.45,-234.937"/>
</g>
<!-- Node30 -->
<g id="node30" class="node"><title>Node30</title>
<g id="a_node30"><a xlink:href="../../df/d26/CRU_8h.html" target="_top" xlink:title="TPCBase/CRU.h">
<polygon fill="none" stroke="black" points="863.5,-402.5 863.5,-421.5 956.5,-421.5 956.5,-402.5 863.5,-402.5"/>
<text text-anchor="middle" x="910" y="-409.5" font-family="Helvetica,sans-Serif" font-size="10.00">TPCBase/CRU.h</text>
</a>
</g>
</g>
<!-- Node1&#45;&gt;Node30 -->
<g id="edge37" class="edge"><title>Node1&#45;&gt;Node30</title>
<path fill="none" stroke="midnightblue" d="M1016.26,-464.787C989.729,-451.855 958.516,-436.644 936.812,-426.067"/>
<polygon fill="midnightblue" stroke="midnightblue" points="938.083,-422.792 927.56,-421.558 935.016,-429.085 938.083,-422.792"/>
</g>
<!-- Node12 -->
<g id="node12" class="node"><title>Node12</title>
<polygon fill="none" stroke="#bfbfbf" points="25,-340.5 25,-359.5 87,-359.5 87,-340.5 25,-340.5"/>
<text text-anchor="middle" x="56" y="-347.5" font-family="Helvetica,sans-Serif" font-size="10.00">TNamed.h</text>
</g>
<!-- Node11&#45;&gt;Node12 -->
<g id="edge11" class="edge"><title>Node11&#45;&gt;Node12</title>
<path fill="none" stroke="midnightblue" d="M137.913,-396.933C120.506,-387.171 97.4449,-374.24 80.2276,-364.586"/>
<polygon fill="midnightblue" stroke="midnightblue" points="81.7709,-361.438 71.3367,-359.6 78.3471,-367.544 81.7709,-361.438"/>
</g>
<!-- Node13 -->
<g id="node13" class="node"><title>Node13</title>
<polygon fill="none" stroke="#bfbfbf" points="105.5,-340.5 105.5,-359.5 154.5,-359.5 154.5,-340.5 105.5,-340.5"/>
<text text-anchor="middle" x="130" y="-347.5" font-family="Helvetica,sans-Serif" font-size="10.00">cassert</text>
</g>
<!-- Node11&#45;&gt;Node13 -->
<g id="edge12" class="edge"><title>Node11&#45;&gt;Node13</title>
<path fill="none" stroke="midnightblue" d="M155.179,-396.781C150.532,-388.332 144.601,-377.548 139.663,-368.569"/>
<polygon fill="midnightblue" stroke="midnightblue" points="142.688,-366.806 134.802,-359.731 136.554,-370.179 142.688,-366.806"/>
</g>
<!-- Node14 -->
<g id="node14" class="node"><title>Node14</title>
<polygon fill="none" stroke="#bfbfbf" points="187.5,-278.5 187.5,-297.5 246.5,-297.5 246.5,-278.5 187.5,-278.5"/>
<text text-anchor="middle" x="217" y="-285.5" font-family="Helvetica,sans-Serif" font-size="10.00">stdexcept</text>
</g>
<!-- Node11&#45;&gt;Node14 -->
<g id="edge13" class="edge"><title>Node11&#45;&gt;Node14</title>
<path fill="none" stroke="midnightblue" d="M105.719,-403.803C53.3471,-394.812 -12.0182,-376.015 16,-340 35.5845,-314.826 124.349,-300.068 177.147,-293.367"/>
<polygon fill="midnightblue" stroke="midnightblue" points="177.697,-296.826 187.196,-292.134 176.844,-289.878 177.697,-296.826"/>
</g>
<!-- Node15 -->
<g id="node15" class="node"><title>Node15</title>
<polygon fill="none" stroke="#bfbfbf" points="172.5,-340.5 172.5,-359.5 217.5,-359.5 217.5,-340.5 172.5,-340.5"/>
<text text-anchor="middle" x="195" y="-347.5" font-family="Helvetica,sans-Serif" font-size="10.00">gsl/gsl</text>
</g>
<!-- Node11&#45;&gt;Node15 -->
<g id="edge14" class="edge"><title>Node11&#45;&gt;Node15</title>
<path fill="none" stroke="midnightblue" d="M170.584,-396.781C175.09,-388.332 180.841,-377.548 185.63,-368.569"/>
<polygon fill="midnightblue" stroke="midnightblue" points="188.726,-370.201 190.344,-359.731 182.55,-366.907 188.726,-370.201"/>
</g>
<!-- Node16 -->
<g id="node16" class="node"><title>Node16</title>
<polygon fill="none" stroke="#bfbfbf" points="236,-340.5 236,-359.5 298,-359.5 298,-340.5 236,-340.5"/>
<text text-anchor="middle" x="267" y="-347.5" font-family="Helvetica,sans-Serif" font-size="10.00">type_traits</text>
</g>
<!-- Node11&#45;&gt;Node16 -->
<g id="edge15" class="edge"><title>Node11&#45;&gt;Node16</title>
<path fill="none" stroke="midnightblue" d="M187.383,-396.933C204.146,-387.262 226.303,-374.479 242.985,-364.855"/>
<polygon fill="midnightblue" stroke="midnightblue" points="245.18,-367.629 252.093,-359.6 241.682,-361.566 245.18,-367.629"/>
</g>
<!-- Node18 -->
<g id="node18" class="node"><title>Node18</title>
<polygon fill="none" stroke="#bfbfbf" points="1404,-74.5 1404,-93.5 1460,-93.5 1460,-74.5 1404,-74.5"/>
<text text-anchor="middle" x="1432" y="-81.5" font-family="Helvetica,sans-Serif" font-size="10.00">Rtypes.h</text>
</g>
<!-- Node17&#45;&gt;Node18 -->
<g id="edge17" class="edge"><title>Node17&#45;&gt;Node18</title>
<path fill="none" stroke="midnightblue" d="M1372.86,-204.995C1384.64,-195.735 1398.98,-182.633 1408,-168 1420.33,-147.992 1426.56,-121.385 1429.53,-103.751"/>
<polygon fill="midnightblue" stroke="midnightblue" points="1433.03,-104.026 1431.05,-93.6182 1426.11,-102.989 1433.03,-104.026"/>
</g>
<!-- Node20 -->
<g id="node20" class="node"><title>Node20</title>
<polygon fill="none" stroke="#bfbfbf" points="540,-210.5 540,-229.5 586,-229.5 586,-210.5 540,-210.5"/>
<text text-anchor="middle" x="563" y="-217.5" font-family="Helvetica,sans-Serif" font-size="10.00">cstdint</text>
</g>
<!-- Node19&#45;&gt;Node20 -->
<g id="edge19" class="edge"><title>Node19&#45;&gt;Node20</title>
<path fill="none" stroke="midnightblue" d="M653.333,-340.202C637.335,-319.092 596.558,-265.282 575.703,-237.762"/>
<polygon fill="midnightblue" stroke="midnightblue" points="578.288,-235.379 569.458,-229.522 572.709,-239.606 578.288,-235.379"/>
</g>
<!-- Node21&#45;&gt;Node19 -->
<g id="edge22" class="edge"><title>Node21&#45;&gt;Node19</title>
<path fill="none" stroke="midnightblue" d="M570.044,-402.403C587.275,-392.557 615.74,-376.291 636.034,-364.695"/>
<polygon fill="midnightblue" stroke="midnightblue" points="638.038,-367.581 644.984,-359.581 634.565,-361.503 638.038,-367.581"/>
</g>
<!-- Node22 -->
<g id="node22" class="node"><title>Node22</title>
<polygon fill="none" stroke="#bfbfbf" points="500,-340.5 500,-359.5 552,-359.5 552,-340.5 500,-340.5"/>
<text text-anchor="middle" x="526" y="-347.5" font-family="Helvetica,sans-Serif" font-size="10.00">memory</text>
</g>
<!-- Node21&#45;&gt;Node22 -->
<g id="edge21" class="edge"><title>Node21&#45;&gt;Node22</title>
<path fill="none" stroke="midnightblue" d="M550.845,-402.403C546.624,-393.671 539.963,-379.889 534.6,-368.794"/>
<polygon fill="midnightblue" stroke="midnightblue" points="537.65,-367.061 530.147,-359.581 531.348,-370.107 537.65,-367.061"/>
</g>
<!-- Node23 -->
<g id="node23" class="node"><title>Node23</title>
<g id="a_node23"><a xlink:href="../../de/dcd/ClusterNative_8h.html" target="_top" xlink:title="Class of a TPC cluster in TPC&#45;native coordinates (row, time) ">
<polygon fill="none" stroke="black" points="316.5,-340.5 316.5,-359.5 481.5,-359.5 481.5,-340.5 316.5,-340.5"/>
<text text-anchor="middle" x="399" y="-347.5" font-family="Helvetica,sans-Serif" font-size="10.00">DataFormatsTPC/ClusterNative.h</text>
</a>
</g>
</g>
<!-- Node21&#45;&gt;Node23 -->
<g id="edge23" class="edge"><title>Node21&#45;&gt;Node23</title>
<path fill="none" stroke="midnightblue" d="M532.649,-402.403C506.005,-392.156 461.286,-374.956 430.986,-363.302"/>
<polygon fill="midnightblue" stroke="midnightblue" points="431.899,-359.904 421.31,-359.581 429.387,-366.437 431.899,-359.904"/>
</g>
<!-- Node23&#45;&gt;Node2 -->
<g id="edge25" class="edge"><title>Node23&#45;&gt;Node2</title>
<path fill="none" stroke="midnightblue" d="M345.385,-340.467C265.855,-327.81 119.054,-304.446 54.2196,-294.128"/>
<polygon fill="midnightblue" stroke="midnightblue" points="54.6052,-290.645 44.1794,-292.53 53.505,-297.558 54.6052,-290.645"/>
</g>
<!-- Node23&#45;&gt;Node14 -->
<g id="edge27" class="edge"><title>Node23&#45;&gt;Node14</title>
<path fill="none" stroke="midnightblue" d="M372.924,-340.403C341.434,-330.022 288.302,-312.506 252.942,-300.849"/>
<polygon fill="midnightblue" stroke="midnightblue" points="253.621,-297.388 243.028,-297.581 251.429,-304.036 253.621,-297.388"/>
</g>
<!-- Node23&#45;&gt;Node20 -->
<g id="edge24" class="edge"><title>Node23&#45;&gt;Node20</title>
<path fill="none" stroke="midnightblue" d="M474.686,-340.445C499.476,-334.065 525.194,-323.03 543,-304 559.27,-286.612 562.996,-258.36 563.514,-239.727"/>
<polygon fill="midnightblue" stroke="midnightblue" points="567.014,-239.549 563.506,-229.552 560.014,-239.555 567.014,-239.549"/>
</g>
<!-- Node24 -->
<g id="node24" class="node"><title>Node24</title>
<polygon fill="none" stroke="#bfbfbf" points="312.5,-278.5 312.5,-297.5 361.5,-297.5 361.5,-278.5 312.5,-278.5"/>
<text text-anchor="middle" x="337" y="-285.5" font-family="Helvetica,sans-Serif" font-size="10.00">cstddef</text>
</g>
<!-- Node23&#45;&gt;Node24 -->
<g id="edge26" class="edge"><title>Node23&#45;&gt;Node24</title>
<path fill="none" stroke="midnightblue" d="M390.117,-340.403C380.541,-331.136 365.089,-316.183 353.314,-304.788"/>
<polygon fill="midnightblue" stroke="midnightblue" points="355.487,-302.02 345.867,-297.581 350.619,-307.05 355.487,-302.02"/>
</g>
<!-- Node23&#45;&gt;Node25 -->
<g id="edge28" class="edge"><title>Node23&#45;&gt;Node25</title>
<path fill="none" stroke="midnightblue" d="M442.295,-340.447C476.389,-332.96 524.717,-320.667 565,-304 611.475,-284.771 661.516,-253.512 688.969,-235.341"/>
<polygon fill="midnightblue" stroke="midnightblue" points="691.011,-238.187 697.376,-229.717 687.118,-232.369 691.011,-238.187"/>
</g>
<!-- Node26 -->
<g id="node26" class="node"><title>Node26</title>
<g id="a_node26"><a xlink:href="../../d8/dc8/ClusterGroupAttribute_8h.html" target="_top" xlink:title="Meta data for a group describing it by sector number and global padrow. ">
<polygon fill="none" stroke="black" points="379.5,-273 379.5,-303 534.5,-303 534.5,-273 379.5,-273"/>
<text text-anchor="start" x="387.5" y="-291" font-family="Helvetica,sans-Serif" font-size="10.00">DataFormatsTPC/ClusterGroup</text>
<text text-anchor="middle" x="457" y="-280" font-family="Helvetica,sans-Serif" font-size="10.00">Attribute.h</text>
</a>
</g>
</g>
<!-- Node23&#45;&gt;Node26 -->
<g id="edge29" class="edge"><title>Node23&#45;&gt;Node26</title>
<path fill="none" stroke="midnightblue" d="M407.31,-340.403C414.872,-332.581 426.349,-320.708 436.369,-310.342"/>
<polygon fill="midnightblue" stroke="midnightblue" points="438.897,-312.763 443.331,-303.141 433.864,-307.898 438.897,-312.763"/>
</g>
<!-- Node26&#45;&gt;Node20 -->
<g id="edge30" class="edge"><title>Node26&#45;&gt;Node20</title>
<path fill="none" stroke="midnightblue" d="M479.74,-272.841C497.663,-261.681 522.531,-246.198 540.415,-235.063"/>
<polygon fill="midnightblue" stroke="midnightblue" points="542.417,-237.939 549.056,-229.682 538.717,-231.996 542.417,-237.939"/>
</g>
<!-- Node27&#45;&gt;Node18 -->
<g id="edge32" class="edge"><title>Node27&#45;&gt;Node18</title>
<path fill="none" stroke="midnightblue" d="M1221.03,-210.468C1273.55,-201.1 1350.32,-185.1 1375,-168 1398.64,-151.622 1415.44,-122.012 1424.42,-102.943"/>
<polygon fill="midnightblue" stroke="midnightblue" points="1427.72,-104.143 1428.61,-93.5855 1421.33,-101.287 1427.72,-104.143"/>
</g>
<!-- Node28 -->
<g id="node28" class="node"><title>Node28</title>
<g id="a_node28"><a xlink:href="../../df/d5d/common_2include_2CommonDataFormat_2TimeStamp_8h.html" target="_top" xlink:title="CommonDataFormat/TimeStamp.h">
<polygon fill="none" stroke="black" points="1196,-142.5 1196,-161.5 1366,-161.5 1366,-142.5 1196,-142.5"/>
<text text-anchor="middle" x="1281" y="-149.5" font-family="Helvetica,sans-Serif" font-size="10.00">CommonDataFormat/TimeStamp.h</text>
</a>
</g>
</g>
<!-- Node27&#45;&gt;Node28 -->
<g id="edge33" class="edge"><title>Node27&#45;&gt;Node28</title>
<path fill="none" stroke="midnightblue" d="M1183.64,-210.372C1202.42,-199.304 1235.23,-179.972 1257.52,-166.838"/>
<polygon fill="midnightblue" stroke="midnightblue" points="1259.52,-169.723 1266.35,-161.63 1255.96,-163.692 1259.52,-169.723"/>
</g>
<!-- Node29 -->
<g id="node29" class="node"><title>Node29</title>
<polygon fill="none" stroke="#bfbfbf" points="1082.5,-137 1082.5,-167 1177.5,-167 1177.5,-137 1082.5,-137"/>
<text text-anchor="start" x="1090.5" y="-155" font-family="Helvetica,sans-Serif" font-size="10.00">boost/serialization</text>
<text text-anchor="middle" x="1130" y="-144" font-family="Helvetica,sans-Serif" font-size="10.00">/base_object.hpp</text>
</g>
<!-- Node27&#45;&gt;Node29 -->
<g id="edge35" class="edge"><title>Node27&#45;&gt;Node29</title>
<path fill="none" stroke="midnightblue" d="M1163.9,-210.372C1158.74,-201.629 1150.52,-187.729 1143.47,-175.801"/>
<polygon fill="midnightblue" stroke="midnightblue" points="1146.48,-174.01 1138.38,-167.181 1140.45,-177.571 1146.48,-174.01"/>
</g>
<!-- Node28&#45;&gt;Node18 -->
<g id="edge34" class="edge"><title>Node28&#45;&gt;Node18</title>
<path fill="none" stroke="midnightblue" d="M1300.74,-142.372C1326.74,-131.007 1372.67,-110.931 1402.72,-97.7961"/>
<polygon fill="midnightblue" stroke="midnightblue" points="1404.49,-100.843 1412.25,-93.6305 1401.69,-94.4285 1404.49,-100.843"/>
</g>
<!-- Node31 -->
<g id="node31" class="node"><title>Node31</title>
<g id="a_node31"><a xlink:href="../../d1/d73/Defs_8h.html" target="_top" xlink:title="Common definitions for 2D coordinates. ">
<polygon fill="none" stroke="black" points="803,-210.5 803,-229.5 929,-229.5 929,-210.5 803,-210.5"/>
<text text-anchor="middle" x="866" y="-217.5" font-family="Helvetica,sans-Serif" font-size="10.00">DataFormatsTPC/Defs.h</text>
</a>
</g>
</g>
<!-- Node30&#45;&gt;Node31 -->
<g id="edge38" class="edge"><title>Node30&#45;&gt;Node31</title>
<path fill="none" stroke="midnightblue" d="M918.848,-402.19C927.683,-392.713 940.689,-376.735 946,-360 948.689,-351.528 947.385,-348.78 946,-340 941.051,-308.623 941.44,-298.549 924,-272 914.522,-257.571 899.907,-244.756 887.719,-235.581"/>
<polygon fill="midnightblue" stroke="midnightblue" points="889.541,-232.58 879.382,-229.572 885.449,-238.258 889.541,-232.58"/>
</g>
<!-- Node44 -->
<g id="node44" class="node"><title>Node44</title>
<g id="a_node44"><a xlink:href="../../d3/dd6/Sector_8h.html" target="_top" xlink:title="TPCBase/Sector.h">
<polygon fill="none" stroke="black" points="800.5,-278.5 800.5,-297.5 899.5,-297.5 899.5,-278.5 800.5,-278.5"/>
<text text-anchor="middle" x="850" y="-285.5" font-family="Helvetica,sans-Serif" font-size="10.00">TPCBase/Sector.h</text>
</a>
</g>
</g>
<!-- Node30&#45;&gt;Node44 -->
<g id="edge53" class="edge"><title>Node30&#45;&gt;Node44</title>
<path fill="none" stroke="midnightblue" d="M887.038,-402.425C869.266,-394.424 845.902,-380.597 835,-360 826.189,-343.353 832.785,-321.936 839.797,-306.997"/>
<polygon fill="midnightblue" stroke="midnightblue" points="843.054,-308.318 844.534,-297.828 836.835,-305.105 843.054,-308.318"/>
</g>
<!-- Node45 -->
<g id="node45" class="node"><title>Node45</title>
<g id="a_node45"><a xlink:href="../../dc/d14/ROC_8h.html" target="_top" xlink:title="TPCBase/ROC.h">
<polygon fill="none" stroke="black" points="844.5,-340.5 844.5,-359.5 937.5,-359.5 937.5,-340.5 844.5,-340.5"/>
<text text-anchor="middle" x="891" y="-347.5" font-family="Helvetica,sans-Serif" font-size="10.00">TPCBase/ROC.h</text>
</a>
</g>
</g>
<!-- Node30&#45;&gt;Node45 -->
<g id="edge56" class="edge"><title>Node30&#45;&gt;Node45</title>
<path fill="none" stroke="midnightblue" d="M907.278,-402.403C904.541,-393.76 900.237,-380.17 896.742,-369.134"/>
<polygon fill="midnightblue" stroke="midnightblue" points="900.073,-368.057 893.717,-359.581 893.399,-370.171 900.073,-368.057"/>
</g>
<!-- Node32 -->
<g id="node32" class="node"><title>Node32</title>
<polygon fill="none" stroke="#bfbfbf" points="742,-142.5 742,-161.5 786,-161.5 786,-142.5 742,-142.5"/>
<text text-anchor="middle" x="764" y="-149.5" font-family="Helvetica,sans-Serif" font-size="10.00">cmath</text>
</g>
<!-- Node31&#45;&gt;Node32 -->
<g id="edge39" class="edge"><title>Node31&#45;&gt;Node32</title>
<path fill="none" stroke="midnightblue" d="M852.665,-210.372C835.713,-199.403 806.217,-180.317 785.932,-167.191"/>
<polygon fill="midnightblue" stroke="midnightblue" points="787.635,-164.125 777.338,-161.63 783.832,-170.002 787.635,-164.125"/>
</g>
<!-- Node33 -->
<g id="node33" class="node"><title>Node33</title>
<g id="a_node33"><a xlink:href="../../d2/dd0/Cartesian2D_8h.html" target="_top" xlink:title="MathUtils/Cartesian2D.h">
<polygon fill="none" stroke="black" points="220.5,-74.5 220.5,-93.5 345.5,-93.5 345.5,-74.5 220.5,-74.5"/>
<text text-anchor="middle" x="283" y="-81.5" font-family="Helvetica,sans-Serif" font-size="10.00">MathUtils/Cartesian2D.h</text>
</a>
</g>
</g>
<!-- Node31&#45;&gt;Node33 -->
<g id="edge40" class="edge"><title>Node31&#45;&gt;Node33</title>
<path fill="none" stroke="midnightblue" d="M828.644,-210.414C726.53,-186.943 442.854,-121.742 330.095,-95.8246"/>
<polygon fill="midnightblue" stroke="midnightblue" points="330.575,-92.3437 320.045,-93.5146 329.007,-99.1658 330.575,-92.3437"/>
</g>
<!-- Node36 -->
<g id="node36" class="node"><title>Node36</title>
<g id="a_node36"><a xlink:href="../../dd/d76/Cartesian3D_8h.html" target="_top" xlink:title="MathUtils/Cartesian3D.h">
<polygon fill="none" stroke="black" points="803.5,-142.5 803.5,-161.5 928.5,-161.5 928.5,-142.5 803.5,-142.5"/>
<text text-anchor="middle" x="866" y="-149.5" font-family="Helvetica,sans-Serif" font-size="10.00">MathUtils/Cartesian3D.h</text>
</a>
</g>
</g>
<!-- Node31&#45;&gt;Node36 -->
<g id="edge43" class="edge"><title>Node31&#45;&gt;Node36</title>
<path fill="none" stroke="midnightblue" d="M866,-210.372C866,-200.643 866,-184.528 866,-171.85"/>
<polygon fill="midnightblue" stroke="midnightblue" points="869.5,-171.841 866,-161.841 862.5,-171.841 869.5,-171.841"/>
</g>
<!-- Node34 -->
<g id="node34" class="node"><title>Node34</title>
<polygon fill="none" stroke="#bfbfbf" points="116.5,-1 116.5,-31 267.5,-31 267.5,-1 116.5,-1"/>
<text text-anchor="start" x="124.5" y="-19" font-family="Helvetica,sans-Serif" font-size="10.00">Math/GenVector/Displacement</text>
<text text-anchor="middle" x="192" y="-8" font-family="Helvetica,sans-Serif" font-size="10.00">Vector2D.h</text>
</g>
<!-- Node33&#45;&gt;Node34 -->
<g id="edge41" class="edge"><title>Node33&#45;&gt;Node34</title>
<path fill="none" stroke="midnightblue" d="M271.103,-74.3717C258.221,-65.0286 237.22,-49.7966 220.093,-37.375"/>
<polygon fill="midnightblue" stroke="midnightblue" points="221.703,-34.2194 211.553,-31.1815 217.593,-39.8859 221.703,-34.2194"/>
</g>
<!-- Node35 -->
<g id="node35" class="node"><title>Node35</title>
<polygon fill="none" stroke="#bfbfbf" points="286,-6.5 286,-25.5 462,-25.5 462,-6.5 286,-6.5"/>
<text text-anchor="middle" x="374" y="-13.5" font-family="Helvetica,sans-Serif" font-size="10.00">Math/GenVector/PositionVector2D.h</text>
</g>
<!-- Node33&#45;&gt;Node35 -->
<g id="edge42" class="edge"><title>Node33&#45;&gt;Node35</title>
<path fill="none" stroke="midnightblue" d="M294.897,-74.3717C309.884,-63.5015 335.862,-44.6602 353.942,-31.5474"/>
<polygon fill="midnightblue" stroke="midnightblue" points="356.06,-34.3349 362.1,-25.6305 351.95,-28.6684 356.06,-34.3349"/>
</g>
<!-- Node36&#45;&gt;Node18 -->
<g id="edge49" class="edge"><title>Node36&#45;&gt;Node18</title>
<path fill="none" stroke="midnightblue" d="M928.821,-145.969C1059.19,-135.379 1350.7,-110.871 1395,-100 1398.07,-99.2479 1401.21,-98.2888 1404.31,-97.2202"/>
<polygon fill="midnightblue" stroke="midnightblue" points="1405.81,-100.393 1413.9,-93.5526 1403.31,-93.8541 1405.81,-100.393"/>
</g>
<!-- Node36&#45;&gt;Node33 -->
<g id="edge52" class="edge"><title>Node36&#45;&gt;Node33</title>
<path fill="none" stroke="midnightblue" d="M829.527,-142.489C818.195,-140.091 805.626,-137.681 794,-136 600.249,-107.983 548.751,-128.017 355,-100 346.644,-98.7917 337.801,-97.2068 329.28,-95.5205"/>
<polygon fill="midnightblue" stroke="midnightblue" points="329.972,-92.0897 319.473,-93.5108 328.567,-98.9472 329.972,-92.0897"/>
</g>
<!-- Node37 -->
<g id="node37" class="node"><title>Node37</title>
<polygon fill="none" stroke="#bfbfbf" points="699.5,-69 699.5,-99 850.5,-99 850.5,-69 699.5,-69"/>
<text text-anchor="start" x="707.5" y="-87" font-family="Helvetica,sans-Serif" font-size="10.00">Math/GenVector/Displacement</text>
<text text-anchor="middle" x="775" y="-76" font-family="Helvetica,sans-Serif" font-size="10.00">Vector3D.h</text>
</g>
<!-- Node36&#45;&gt;Node37 -->
<g id="edge44" class="edge"><title>Node36&#45;&gt;Node37</title>
<path fill="none" stroke="midnightblue" d="M854.103,-142.372C841.221,-133.029 820.22,-117.797 803.093,-105.375"/>
<polygon fill="midnightblue" stroke="midnightblue" points="804.703,-102.219 794.553,-99.1815 800.593,-107.886 804.703,-102.219"/>
</g>
<!-- Node38 -->
<g id="node38" class="node"><title>Node38</title>
<polygon fill="none" stroke="#bfbfbf" points="869,-74.5 869,-93.5 1045,-93.5 1045,-74.5 869,-74.5"/>
<text text-anchor="middle" x="957" y="-81.5" font-family="Helvetica,sans-Serif" font-size="10.00">Math/GenVector/PositionVector3D.h</text>
</g>
<!-- Node36&#45;&gt;Node38 -->
<g id="edge45" class="edge"><title>Node36&#45;&gt;Node38</title>
<path fill="none" stroke="midnightblue" d="M877.897,-142.372C892.884,-131.502 918.862,-112.66 936.942,-99.5474"/>
<polygon fill="midnightblue" stroke="midnightblue" points="939.06,-102.335 945.1,-93.6305 934.95,-96.6684 939.06,-102.335"/>
</g>
<!-- Node39 -->
<g id="node39" class="node"><title>Node39</title>
<polygon fill="none" stroke="#bfbfbf" points="1062.5,-74.5 1062.5,-93.5 1211.5,-93.5 1211.5,-74.5 1062.5,-74.5"/>
<text text-anchor="middle" x="1137" y="-81.5" font-family="Helvetica,sans-Serif" font-size="10.00">Math/GenVector/Rotation3D.h</text>
</g>
<!-- Node36&#45;&gt;Node39 -->
<g id="edge46" class="edge"><title>Node36&#45;&gt;Node39</title>
<path fill="none" stroke="midnightblue" d="M901.151,-142.439C949.99,-130.545 1038.4,-109.013 1092,-95.959"/>
<polygon fill="midnightblue" stroke="midnightblue" points="1093.02,-99.3125 1101.91,-93.5455 1091.37,-92.5112 1093.02,-99.3125"/>
</g>
<!-- Node40 -->
<g id="node40" class="node"><title>Node40</title>
<polygon fill="none" stroke="#bfbfbf" points="1230,-74.5 1230,-93.5 1386,-93.5 1386,-74.5 1230,-74.5"/>
<text text-anchor="middle" x="1308" y="-81.5" font-family="Helvetica,sans-Serif" font-size="10.00">Math/GenVector/Transform3D.h</text>
</g>
<!-- Node36&#45;&gt;Node40 -->
<g id="edge47" class="edge"><title>Node36&#45;&gt;Node40</title>
<path fill="none" stroke="midnightblue" d="M928.74,-142.458C999.559,-132.701 1118.18,-116.01 1220,-100 1229.43,-98.5171 1239.42,-96.8793 1249.15,-95.247"/>
<polygon fill="midnightblue" stroke="midnightblue" points="1249.89,-98.6724 1259.16,-93.5548 1248.72,-91.7702 1249.89,-98.6724"/>
</g>
<!-- Node41 -->
<g id="node41" class="node"><title>Node41</title>
<polygon fill="none" stroke="#bfbfbf" points="364,-74.5 364,-93.5 524,-93.5 524,-74.5 364,-74.5"/>
<text text-anchor="middle" x="444" y="-81.5" font-family="Helvetica,sans-Serif" font-size="10.00">Math/GenVector/Translation3D.h</text>
</g>
<!-- Node36&#45;&gt;Node41 -->
<g id="edge48" class="edge"><title>Node36&#45;&gt;Node41</title>
<path fill="none" stroke="midnightblue" d="M827.606,-142.494C816.768,-140.232 804.946,-137.893 794,-136 678.614,-116.047 648.748,-117.733 533,-100 523.242,-98.5051 512.897,-96.8375 502.845,-95.1728"/>
<polygon fill="midnightblue" stroke="midnightblue" points="503.362,-91.7109 492.922,-93.5156 502.209,-98.6153 503.362,-91.7109"/>
</g>
<!-- Node42 -->
<g id="node42" class="node"><title>Node42</title>
<polygon fill="none" stroke="#bfbfbf" points="542,-74.5 542,-93.5 618,-93.5 618,-74.5 542,-74.5"/>
<text text-anchor="middle" x="580" y="-81.5" font-family="Helvetica,sans-Serif" font-size="10.00">TGeoMatrix.h</text>
</g>
<!-- Node36&#45;&gt;Node42 -->
<g id="edge50" class="edge"><title>Node36&#45;&gt;Node42</title>
<path fill="none" stroke="midnightblue" d="M825.624,-142.492C760.023,-128.655 636.598,-102.549 627,-100 623.107,-98.966 619.057,-97.8057 615.041,-96.6003"/>
<polygon fill="midnightblue" stroke="midnightblue" points="615.821,-93.1777 605.233,-93.5576 613.747,-99.8634 615.821,-93.1777"/>
</g>
<!-- Node43 -->
<g id="node43" class="node"><title>Node43</title>
<polygon fill="none" stroke="#bfbfbf" points="636.5,-74.5 636.5,-93.5 681.5,-93.5 681.5,-74.5 636.5,-74.5"/>
<text text-anchor="middle" x="659" y="-81.5" font-family="Helvetica,sans-Serif" font-size="10.00">iosfwd</text>
</g>
<!-- Node36&#45;&gt;Node43 -->
<g id="edge51" class="edge"><title>Node36&#45;&gt;Node43</title>
<path fill="none" stroke="midnightblue" d="M830.023,-142.471C794.036,-133.501 737.374,-118.176 690,-100 688.35,-99.3669 686.667,-98.6799 684.982,-97.96"/>
<polygon fill="midnightblue" stroke="midnightblue" points="686.054,-94.6014 675.504,-93.6222 683.141,-100.966 686.054,-94.6014"/>
</g>
<!-- Node44&#45;&gt;Node25 -->
<g id="edge54" class="edge"><title>Node44&#45;&gt;Node25</title>
<path fill="none" stroke="midnightblue" d="M831.697,-278.372C807.696,-267.057 765.375,-247.105 737.508,-233.968"/>
<polygon fill="midnightblue" stroke="midnightblue" points="738.845,-230.729 728.307,-229.63 735.86,-237.061 738.845,-230.729"/>
</g>
<!-- Node44&#45;&gt;Node31 -->
<g id="edge55" class="edge"><title>Node44&#45;&gt;Node31</title>
<path fill="none" stroke="midnightblue" d="M852.092,-278.372C854.45,-268.643 858.357,-252.528 861.43,-239.85"/>
<polygon fill="midnightblue" stroke="midnightblue" points="864.902,-240.384 863.857,-229.841 858.099,-238.735 864.902,-240.384"/>
</g>
<!-- Node45&#45;&gt;Node31 -->
<g id="edge57" class="edge"><title>Node45&#45;&gt;Node31</title>
<path fill="none" stroke="midnightblue" d="M896.047,-340.253C903.728,-325.755 916.599,-295.968 908,-272 903.098,-258.336 892.777,-245.717 883.594,-236.45"/>
<polygon fill="midnightblue" stroke="midnightblue" points="885.95,-233.86 876.292,-229.504 881.125,-238.932 885.95,-233.86"/>
</g>
<!-- Node45&#45;&gt;Node44 -->
<g id="edge58" class="edge"><title>Node45&#45;&gt;Node44</title>
<path fill="none" stroke="midnightblue" d="M885.126,-340.403C879.037,-331.493 869.355,-317.325 861.697,-306.118"/>
<polygon fill="midnightblue" stroke="midnightblue" points="864.395,-303.862 855.863,-297.581 858.616,-307.812 864.395,-303.862"/>
</g>
</g>
</svg>
        <g id="navigator" transform="translate(0 0)" fill="#404254">
                <rect fill="#f2f5e9" fill-opacity="0.5" stroke="#606060" stroke-width=".5" x="0" y="0" width="60" height="60"/>
                <use id="zoomplus" xlink:href="#zoomPlus" x="17" y="9" onmousedown="handleZoom(evt,'in')"/>
                <use id="zoomminus" xlink:href="#zoomMin" x="42" y="9" onmousedown="handleZoom(evt,'out')"/>
                <use id="reset" xlink:href="#resetDef" x="30" y="36" onmousedown="handleReset()"/>
                <g id="arrowUp" xlink:href="#dirArrow" transform="translate(30 24)" onmousedown="handlePan(0,-1)">
                  <use xlink:href="#rim" fill="#404040">
                        <set attributeName="fill" to="#808080" begin="arrowUp.mouseover" end="arrowUp.mouseout"/>
                  </use>
                  <path fill="none" stroke="white" stroke-width="1.5" d="M0,-3.0v7 M-2.5,-0.5L0,-3.0L2.5,-0.5"/>
                </g>
                <g id="arrowRight" xlink:href="#dirArrow" transform="rotate(90) translate(36 -43)" onmousedown="handlePan(1,0)">
                  <use xlink:href="#rim" fill="#404040">
                        <set attributeName="fill" to="#808080" begin="arrowRight.mouseover" end="arrowRight.mouseout"/>
                  </use>
                  <path fill="none" stroke="white" stroke-width="1.5" d="M0,-3.0v7 M-2.5,-0.5L0,-3.0L2.5,-0.5"/>
                </g>
                <g id="arrowDown" xlink:href="#dirArrow" transform="rotate(180) translate(-30 -48)" onmousedown="handlePan(0,1)">
                  <use xlink:href="#rim" fill="#404040">
                        <set attributeName="fill" to="#808080" begin="arrowDown.mouseover" end="arrowDown.mouseout"/>
                  </use>
                  <path fill="none" stroke="white" stroke-width="1.5" d="M0,-3.0v7 M-2.5,-0.5L0,-3.0L2.5,-0.5"/>
                </g>
                <g id="arrowLeft" xlink:href="#dirArrow" transform="rotate(270) translate(-36 17)" onmousedown="handlePan(-1,0)">
                  <use xlink:href="#rim" fill="#404040">
                        <set attributeName="fill" to="#808080" begin="arrowLeft.mouseover" end="arrowLeft.mouseout"/>
                  </use>
                  <path fill="none" stroke="white" stroke-width="1.5" d="M0,-3.0v7 M-2.5,-0.5L0,-3.0L2.5,-0.5"/>
                </g>
        </g>
        <svg viewBox="0 0 15 15" width="100%" height="30px" preserveAspectRatio="xMaxYMin meet">
         <g id="arrow_out" transform="scale(0.3 0.3)">
          <a xlink:href="convertClusterToClusterHardware_8C__incl_org.svg" target="_base">
           <rect id="button" ry="5" rx="5" y="6" x="6" height="38" width="38"
                fill="#f2f5e9" fill-opacity="0.5" stroke="#606060" stroke-width="1.0"/>
           <path id="arrow"
             d="M 11.500037,31.436501 C 11.940474,20.09759 22.043105,11.32322 32.158766,21.979434 L 37.068811,17.246167 C 37.068811,17.246167 37.088388,32 37.088388,32 L 22.160133,31.978069 C 22.160133,31.978069 26.997745,27.140456 26.997745,27.140456 C 18.528582,18.264221 13.291696,25.230495 11.500037,31.436501 z"
             style="fill:#404040;"/>
          </a>
         </g>
        </svg>
</svg>
