<?xml version="1.0" encoding="UTF-8" standalone="no"?>
<!DOCTYPE svg PUBLIC "-//W3C//DTD SVG 1.1//EN"
 "http://www.w3.org/Graphics/SVG/1.1/DTD/svg11.dtd">
<!-- Generated by graphviz version 2.36.0 (20140111.2315)
 -->
<!-- Title: /home/travis/build/AliceO2Group/AliceO2/Detectors/TPC/simulation/test/testTPCElectronTransport.cxx Pages: 1 -->
<!--zoomable 646 -->
<svg id="main" version="1.1" xmlns="http://www.w3.org/2000/svg" xmlns:xlink="http://www.w3.org/1999/xlink" xml:space="preserve" onload="init(evt)">
<style type="text/css"><![CDATA[
.edge:hover path { stroke: red; }
.edge:hover polygon { stroke: red; fill: red; }
]]></style>
<script type="text/javascript"><![CDATA[
var edges = document.getElementsByTagName('g');
if (edges && edges.length) {
  for (var i=0;i<edges.length;i++) {
    if (edges[i].id.substr(0,4)=='edge') {
      edges[i].setAttribute('class','edge');
    }
  }
}
]]></script>
        <defs>
                <circle id="rim" cx="0" cy="0" r="7"/>
                <circle id="rim2" cx="0" cy="0" r="3.5"/>
                <g id="zoomPlus">
                        <use xlink:href="#rim" fill="#404040">
                                <set attributeName="fill" to="#808080" begin="zoomplus.mouseover" end="zoomplus.mouseout"/>
                        </use>
                        <path d="M-4,0h8M0,-4v8" fill="none" stroke="white" stroke-width="1.5" pointer-events="none"/>
                </g>
                <g id="zoomMin">
                        <use xlink:href="#rim" fill="#404040">
                                <set attributeName="fill" to="#808080" begin="zoomminus.mouseover" end="zoomminus.mouseout"/>
                        </use>
                        <path d="M-4,0h8" fill="none" stroke="white" stroke-width="1.5" pointer-events="none"/>
                </g>
                <g id="dirArrow">
                        <path fill="none" stroke="white" stroke-width="1.5" d="M0,-3.0v7 M-2.5,-0.5L0,-3.0L2.5,-0.5"/>
                </g>
               <g id="resetDef">
                       <use xlink:href="#rim2" fill="#404040">
                               <set attributeName="fill" to="#808080" begin="reset.mouseover" end="reset.mouseout"/>
                       </use>
               </g>
        </defs>

<script type="text/javascript">
var viewWidth = 1532;
var viewHeight = 646;
var sectionId = 'dynsection-0';
</script>
<script xlink:href="../../svgpan.js"/>
<svg id="graph" class="graph">
<g id="viewport">
<title>/home/travis/build/AliceO2Group/AliceO2/Detectors/TPC/simulation/test/testTPCElectronTransport.cxx</title>
<!-- Node1 -->
<g id="node1" class="node"><title>Node1</title>
<polygon fill="#bfbfbf" stroke="black" points="266,-585 266,-637 438,-637 438,-585 266,-585"/>
<text text-anchor="start" x="274" y="-625" font-family="Helvetica,sans-Serif" font-size="10.00">/home/travis/build</text>
<text text-anchor="start" x="274" y="-614" font-family="Helvetica,sans-Serif" font-size="10.00">/AliceO2Group/AliceO2</text>
<text text-anchor="start" x="274" y="-603" font-family="Helvetica,sans-Serif" font-size="10.00">/Detectors/TPC/simulation</text>
<text text-anchor="middle" x="352" y="-592" font-family="Helvetica,sans-Serif" font-size="10.00">/test/testTPCElectronTransport.cxx</text>
</g>
<!-- Node2 -->
<g id="node2" class="node"><title>Node2</title>
<polygon fill="none" stroke="#bfbfbf" points="109.5,-528.5 109.5,-547.5 228.5,-547.5 228.5,-528.5 109.5,-528.5"/>
<text text-anchor="middle" x="169" y="-535.5" font-family="Helvetica,sans-Serif" font-size="10.00">boost/test/unit_test.hpp</text>
</g>
<!-- Node1&#45;&gt;Node2 -->
<g id="edge1" class="edge"><title>Node1&#45;&gt;Node2</title>
<path fill="none" stroke="midnightblue" d="M287.481,-584.968C258.128,-573.58 224.706,-560.613 200.86,-551.361"/>
<polygon fill="midnightblue" stroke="midnightblue" points="201.855,-547.993 191.266,-547.639 199.323,-554.519 201.855,-547.993"/>
</g>
<!-- Node3 -->
<g id="node3" class="node"><title>Node3</title>
<g id="a_node3"><a xlink:href="../../d2/da8/ElectronTransport_8h.html" target="_top" xlink:title="Definition of the electron transport. ">
<polygon fill="none" stroke="black" points="323.5,-528.5 323.5,-547.5 494.5,-547.5 494.5,-528.5 323.5,-528.5"/>
<text text-anchor="middle" x="409" y="-535.5" font-family="Helvetica,sans-Serif" font-size="10.00">TPCSimulation/ElectronTransport.h</text>
</a>
</g>
</g>
<!-- Node1&#45;&gt;Node3 -->
<g id="edge2" class="edge"><title>Node1&#45;&gt;Node3</title>
<path fill="none" stroke="midnightblue" d="M372.257,-584.768C380.032,-575.083 388.704,-564.281 395.669,-555.605"/>
<polygon fill="midnightblue" stroke="midnightblue" points="398.439,-557.746 401.97,-547.757 392.98,-553.364 398.439,-557.746"/>
</g>
<!-- Node4 -->
<g id="node4" class="node"><title>Node4</title>
<g id="a_node4"><a xlink:href="../../db/dad/ParameterDetector_8h.html" target="_top" xlink:title="Definition of the parameter class for the detector. ">
<polygon fill="none" stroke="black" points="49.5,-472.5 49.5,-491.5 202.5,-491.5 202.5,-472.5 49.5,-472.5"/>
<text text-anchor="middle" x="126" y="-479.5" font-family="Helvetica,sans-Serif" font-size="10.00">TPCBase/ParameterDetector.h</text>
</a>
</g>
</g>
<!-- Node1&#45;&gt;Node4 -->
<g id="edge63" class="edge"><title>Node1&#45;&gt;Node4</title>
<path fill="none" stroke="midnightblue" d="M321.096,-584.929C298.662,-567.502 267.089,-544.527 237,-528 212.818,-514.717 183.886,-503.115 161.623,-495.02"/>
<polygon fill="midnightblue" stroke="midnightblue" points="162.499,-491.616 151.905,-491.553 160.148,-498.21 162.499,-491.616"/>
</g>
<!-- Node6 -->
<g id="node6" class="node"><title>Node6</title>
<g id="a_node6"><a xlink:href="../../db/d5b/ParameterGas_8h.html" target="_top" xlink:title="Definition of the parameter class for the detector gas. ">
<polygon fill="none" stroke="black" points="221,-472.5 221,-491.5 355,-491.5 355,-472.5 221,-472.5"/>
<text text-anchor="middle" x="288" y="-479.5" font-family="Helvetica,sans-Serif" font-size="10.00">TPCBase/ParameterGas.h</text>
</a>
</g>
</g>
<!-- Node1&#45;&gt;Node6 -->
<g id="edge62" class="edge"><title>Node1&#45;&gt;Node6</title>
<path fill="none" stroke="midnightblue" d="M335.287,-584.915C328.265,-573.844 320.286,-560.524 314,-548 306.333,-532.725 299.244,-514.618 294.411,-501.399"/>
<polygon fill="midnightblue" stroke="midnightblue" points="297.577,-499.857 290.919,-491.615 290.984,-502.21 297.577,-499.857"/>
</g>
<!-- Node39 -->
<g id="node39" class="node"><title>Node39</title>
<polygon fill="none" stroke="#bfbfbf" points="508,-416.5 508,-435.5 550,-435.5 550,-416.5 508,-416.5"/>
<text text-anchor="middle" x="529" y="-423.5" font-family="Helvetica,sans-Serif" font-size="10.00">TF1.h</text>
</g>
<!-- Node1&#45;&gt;Node39 -->
<g id="edge65" class="edge"><title>Node1&#45;&gt;Node39</title>
<path fill="none" stroke="midnightblue" d="M438.314,-590.74C462.333,-581.485 486.366,-567.892 503,-548 527.493,-518.709 530.51,-471.779 530.065,-445.813"/>
<polygon fill="midnightblue" stroke="midnightblue" points="533.561,-445.652 529.698,-435.787 526.566,-445.908 533.561,-445.652"/>
</g>
<!-- Node41 -->
<g id="node41" class="node"><title>Node41</title>
<polygon fill="none" stroke="#bfbfbf" points="557.5,-528.5 557.5,-547.5 608.5,-547.5 608.5,-528.5 557.5,-528.5"/>
<text text-anchor="middle" x="583" y="-535.5" font-family="Helvetica,sans-Serif" font-size="10.00">TH1D.h</text>
</g>
<!-- Node1&#45;&gt;Node41 -->
<g id="edge64" class="edge"><title>Node1&#45;&gt;Node41</title>
<path fill="none" stroke="midnightblue" d="M433.442,-584.968C472.537,-572.952 517.35,-559.178 547.649,-549.866"/>
<polygon fill="midnightblue" stroke="midnightblue" points="548.808,-553.171 557.338,-546.887 546.751,-546.48 548.808,-553.171"/>
</g>
<!-- Node3&#45;&gt;Node4 -->
<g id="edge3" class="edge"><title>Node3&#45;&gt;Node4</title>
<path fill="none" stroke="midnightblue" d="M364.158,-528.444C314.375,-518.944 234.017,-503.611 180.608,-493.42"/>
<polygon fill="midnightblue" stroke="midnightblue" points="181.111,-489.953 170.632,-491.516 179.799,-496.829 181.111,-489.953"/>
</g>
<!-- Node3&#45;&gt;Node6 -->
<g id="edge5" class="edge"><title>Node3&#45;&gt;Node6</title>
<path fill="none" stroke="midnightblue" d="M389.827,-528.444C370.091,-519.636 339.115,-505.812 316.507,-495.722"/>
<polygon fill="midnightblue" stroke="midnightblue" points="317.641,-492.396 307.083,-491.516 314.789,-498.788 317.641,-492.396"/>
</g>
<!-- Node7 -->
<g id="node7" class="node"><title>Node7</title>
<g id="a_node7"><a xlink:href="../../d7/d2c/Mapper_8h.html" target="_top" xlink:title="TPCBase/Mapper.h">
<polygon fill="none" stroke="black" points="969.5,-472.5 969.5,-491.5 1072.5,-491.5 1072.5,-472.5 969.5,-472.5"/>
<text text-anchor="middle" x="1021" y="-479.5" font-family="Helvetica,sans-Serif" font-size="10.00">TPCBase/Mapper.h</text>
</a>
</g>
</g>
<!-- Node3&#45;&gt;Node7 -->
<g id="edge7" class="edge"><title>Node3&#45;&gt;Node7</title>
<path fill="none" stroke="midnightblue" d="M494.74,-529.435C619.825,-518.398 849.366,-498.144 959.229,-488.45"/>
<polygon fill="midnightblue" stroke="midnightblue" points="959.826,-491.911 969.48,-487.546 959.211,-484.938 959.826,-491.911"/>
</g>
<!-- Node36 -->
<g id="node36" class="node"><title>Node36</title>
<g id="a_node36"><a xlink:href="../../db/dac/RandomRing_8h.html" target="_top" xlink:title="TPCBase/RandomRing.h">
<polygon fill="none" stroke="black" points="373,-472.5 373,-491.5 501,-491.5 501,-472.5 373,-472.5"/>
<text text-anchor="middle" x="437" y="-479.5" font-family="Helvetica,sans-Serif" font-size="10.00">TPCBase/RandomRing.h</text>
</a>
</g>
</g>
<!-- Node3&#45;&gt;Node36 -->
<g id="edge56" class="edge"><title>Node3&#45;&gt;Node36</title>
<path fill="none" stroke="midnightblue" d="M413.624,-528.083C417.456,-520.691 423.024,-509.953 427.765,-500.811"/>
<polygon fill="midnightblue" stroke="midnightblue" points="430.966,-502.24 432.462,-491.751 424.752,-499.018 430.966,-502.24"/>
</g>
<!-- Node5 -->
<g id="node5" class="node"><title>Node5</title>
<polygon fill="none" stroke="#bfbfbf" points="158,-416.5 158,-435.5 196,-435.5 196,-416.5 158,-416.5"/>
<text text-anchor="middle" x="177" y="-423.5" font-family="Helvetica,sans-Serif" font-size="10.00">array</text>
</g>
<!-- Node4&#45;&gt;Node5 -->
<g id="edge4" class="edge"><title>Node4&#45;&gt;Node5</title>
<path fill="none" stroke="midnightblue" d="M134.422,-472.083C141.848,-464.22 152.852,-452.569 161.812,-443.081"/>
<polygon fill="midnightblue" stroke="midnightblue" points="164.413,-445.424 168.735,-435.751 159.324,-440.618 164.413,-445.424"/>
</g>
<!-- Node6&#45;&gt;Node5 -->
<g id="edge6" class="edge"><title>Node6&#45;&gt;Node5</title>
<path fill="none" stroke="midnightblue" d="M270.166,-472.324C252.284,-463.625 224.525,-450.12 203.954,-440.113"/>
<polygon fill="midnightblue" stroke="midnightblue" points="205.313,-436.882 194.79,-435.655 202.251,-443.177 205.313,-436.882"/>
</g>
<!-- Node7&#45;&gt;Node5 -->
<g id="edge10" class="edge"><title>Node7&#45;&gt;Node5</title>
<path fill="none" stroke="midnightblue" d="M969.252,-479.876C816.992,-476.3 371.408,-463.852 206.122,-435.648"/>
<polygon fill="midnightblue" stroke="midnightblue" points="206.574,-432.174 196.113,-433.856 205.34,-439.064 206.574,-432.174"/>
</g>
<!-- Node8 -->
<g id="node8" class="node"><title>Node8</title>
<polygon fill="none" stroke="#bfbfbf" points="1325.5,-416.5 1325.5,-435.5 1360.5,-435.5 1360.5,-416.5 1325.5,-416.5"/>
<text text-anchor="middle" x="1343" y="-423.5" font-family="Helvetica,sans-Serif" font-size="10.00">map</text>
</g>
<!-- Node7&#45;&gt;Node8 -->
<g id="edge8" class="edge"><title>Node7&#45;&gt;Node8</title>
<path fill="none" stroke="midnightblue" d="M1072.68,-475.817C1129.89,-469.48 1224.92,-457.181 1315.52,-435.725"/>
<polygon fill="midnightblue" stroke="midnightblue" points="1316.5,-439.089 1325.41,-433.343 1314.86,-432.283 1316.5,-439.089"/>
</g>
<!-- Node9 -->
<g id="node9" class="node"><title>Node9</title>
<polygon fill="none" stroke="#bfbfbf" points="501,-360.5 501,-379.5 545,-379.5 545,-360.5 501,-360.5"/>
<text text-anchor="middle" x="523" y="-367.5" font-family="Helvetica,sans-Serif" font-size="10.00">vector</text>
</g>
<!-- Node7&#45;&gt;Node9 -->
<g id="edge9" class="edge"><title>Node7&#45;&gt;Node9</title>
<path fill="none" stroke="midnightblue" d="M969.189,-479.134C872.185,-475.036 667.09,-463.346 602,-436 576.026,-425.088 551.909,-402.742 537.32,-387.322"/>
<polygon fill="midnightblue" stroke="midnightblue" points="539.576,-384.602 530.245,-379.585 534.41,-389.326 539.576,-384.602"/>
</g>
<!-- Node10 -->
<g id="node10" class="node"><title>Node10</title>
<polygon fill="none" stroke="#bfbfbf" points="1125.5,-416.5 1125.5,-435.5 1166.5,-435.5 1166.5,-416.5 1125.5,-416.5"/>
<text text-anchor="middle" x="1146" y="-423.5" font-family="Helvetica,sans-Serif" font-size="10.00">string</text>
</g>
<!-- Node7&#45;&gt;Node10 -->
<g id="edge11" class="edge"><title>Node7&#45;&gt;Node10</title>
<path fill="none" stroke="midnightblue" d="M1040.81,-472.444C1061.29,-463.596 1093.48,-449.687 1116.86,-439.586"/>
<polygon fill="midnightblue" stroke="midnightblue" points="1118.49,-442.695 1126.29,-435.516 1115.72,-436.269 1118.49,-442.695"/>
</g>
<!-- Node11 -->
<g id="node11" class="node"><title>Node11</title>
<polygon fill="none" stroke="#bfbfbf" points="1251,-136.5 1251,-155.5 1295,-155.5 1295,-136.5 1251,-136.5"/>
<text text-anchor="middle" x="1273" y="-143.5" font-family="Helvetica,sans-Serif" font-size="10.00">cmath</text>
</g>
<!-- Node7&#45;&gt;Node11 -->
<g id="edge12" class="edge"><title>Node7&#45;&gt;Node11</title>
<path fill="none" stroke="midnightblue" d="M1072.69,-480.97C1158.51,-479.859 1325.28,-472.861 1369,-436 1392.11,-416.518 1389,-401.225 1389,-371 1389,-371 1389,-371 1389,-257 1389,-209.814 1337.84,-176.786 1303.47,-159.923"/>
<polygon fill="midnightblue" stroke="midnightblue" points="1304.81,-156.688 1294.28,-155.597 1301.83,-163.022 1304.81,-156.688"/>
</g>
<!-- Node12 -->
<g id="node12" class="node"><title>Node12</title>
<g id="a_node12"><a xlink:href="../../d1/d73/Defs_8h.html" target="_top" xlink:title="Common definitions for 2D coordinates. ">
<polygon fill="none" stroke="black" points="721,-192.5 721,-211.5 847,-211.5 847,-192.5 721,-192.5"/>
<text text-anchor="middle" x="784" y="-199.5" font-family="Helvetica,sans-Serif" font-size="10.00">DataFormatsTPC/Defs.h</text>
</a>
</g>
</g>
<!-- Node7&#45;&gt;Node12 -->
<g id="edge13" class="edge"><title>Node7&#45;&gt;Node12</title>
<path fill="none" stroke="midnightblue" d="M969.423,-477.856C887.572,-472.252 732.069,-458.921 682,-436 647.937,-420.406 638.407,-412.044 619,-380 588.607,-329.818 577.282,-290.237 618,-248 642.04,-223.064 678.377,-211.486 710.931,-206.281"/>
<polygon fill="midnightblue" stroke="midnightblue" points="711.488,-209.737 720.895,-204.863 710.501,-202.807 711.488,-209.737"/>
</g>
<!-- Node25 -->
<g id="node25" class="node"><title>Node25</title>
<g id="a_node25"><a xlink:href="../../de/d41/PadPos_8h.html" target="_top" xlink:title="TPCBase/PadPos.h">
<polygon fill="none" stroke="black" points="930.5,-304.5 930.5,-323.5 1035.5,-323.5 1035.5,-304.5 930.5,-304.5"/>
<text text-anchor="middle" x="983" y="-311.5" font-family="Helvetica,sans-Serif" font-size="10.00">TPCBase/PadPos.h</text>
</a>
</g>
</g>
<!-- Node7&#45;&gt;Node25 -->
<g id="edge28" class="edge"><title>Node7&#45;&gt;Node25</title>
<path fill="none" stroke="midnightblue" d="M1018.96,-472.075C1012.98,-445.945 995.41,-369.211 987.253,-333.577"/>
<polygon fill="midnightblue" stroke="midnightblue" points="990.605,-332.535 984.961,-323.568 983.781,-334.097 990.605,-332.535"/>
</g>
<!-- Node26 -->
<g id="node26" class="node"><title>Node26</title>
<g id="a_node26"><a xlink:href="../../dd/d0b/PadSecPos_8h.html" target="_top" xlink:title="TPCBase/PadSecPos.h">
<polygon fill="none" stroke="black" points="1049,-360.5 1049,-379.5 1171,-379.5 1171,-360.5 1049,-360.5"/>
<text text-anchor="middle" x="1110" y="-367.5" font-family="Helvetica,sans-Serif" font-size="10.00">TPCBase/PadSecPos.h</text>
</a>
</g>
</g>
<!-- Node7&#45;&gt;Node26 -->
<g id="edge29" class="edge"><title>Node7&#45;&gt;Node26</title>
<path fill="none" stroke="midnightblue" d="M1027.98,-472.368C1042.74,-454.135 1077.29,-411.426 1096.51,-387.675"/>
<polygon fill="midnightblue" stroke="midnightblue" points="1099.48,-389.567 1103.05,-379.591 1094.04,-385.164 1099.48,-389.567"/>
</g>
<!-- Node27 -->
<g id="node27" class="node"><title>Node27</title>
<g id="a_node27"><a xlink:href="../../d3/dd6/Sector_8h.html" target="_top" xlink:title="TPCBase/Sector.h">
<polygon fill="none" stroke="black" points="880.5,-248.5 880.5,-267.5 979.5,-267.5 979.5,-248.5 880.5,-248.5"/>
<text text-anchor="middle" x="930" y="-255.5" font-family="Helvetica,sans-Serif" font-size="10.00">TPCBase/Sector.h</text>
</a>
</g>
</g>
<!-- Node7&#45;&gt;Node27 -->
<g id="edge55" class="edge"><title>Node7&#45;&gt;Node27</title>
<path fill="none" stroke="midnightblue" d="M1032.93,-472.492C1050.89,-459.781 1086.08,-435.264 1117,-416 1144.37,-398.947 1163.81,-407.893 1180,-380 1184.46,-372.312 1184.66,-367.57 1180,-360 1140.16,-295.278 1050.3,-272.026 989.888,-263.676"/>
<polygon fill="midnightblue" stroke="midnightblue" points="990.079,-260.171 979.715,-262.371 989.188,-267.115 990.079,-260.171"/>
</g>
<!-- Node29 -->
<g id="node29" class="node"><title>Node29</title>
<g id="a_node29"><a xlink:href="../../da/d61/PadROCPos_8h.html" target="_top" xlink:title="TPCBase/PadROCPos.h">
<polygon fill="none" stroke="black" points="789,-360.5 789,-379.5 917,-379.5 917,-360.5 789,-360.5"/>
<text text-anchor="middle" x="853" y="-367.5" font-family="Helvetica,sans-Serif" font-size="10.00">TPCBase/PadROCPos.h</text>
</a>
</g>
</g>
<!-- Node7&#45;&gt;Node29 -->
<g id="edge34" class="edge"><title>Node7&#45;&gt;Node29</title>
<path fill="none" stroke="midnightblue" d="M969.2,-476.469C938.561,-471.241 900.984,-460.024 876,-436 863.473,-423.954 857.757,-404.664 855.156,-390.222"/>
<polygon fill="midnightblue" stroke="midnightblue" points="858.56,-389.307 853.667,-379.91 851.632,-390.307 858.56,-389.307"/>
</g>
<!-- Node31 -->
<g id="node31" class="node"><title>Node31</title>
<g id="a_node31"><a xlink:href="../../d3/d54/DigitPos_8h.html" target="_top" xlink:title="TPCBase/DigitPos.h">
<polygon fill="none" stroke="black" points="885,-416.5 885,-435.5 993,-435.5 993,-416.5 885,-416.5"/>
<text text-anchor="middle" x="939" y="-423.5" font-family="Helvetica,sans-Serif" font-size="10.00">TPCBase/DigitPos.h</text>
</a>
</g>
</g>
<!-- Node7&#45;&gt;Node31 -->
<g id="edge40" class="edge"><title>Node7&#45;&gt;Node31</title>
<path fill="none" stroke="midnightblue" d="M1007.83,-472.324C995.153,-463.979 975.767,-451.212 960.794,-441.352"/>
<polygon fill="midnightblue" stroke="midnightblue" points="962.419,-438.231 952.142,-435.655 958.569,-444.078 962.419,-438.231"/>
</g>
<!-- Node33 -->
<g id="node33" class="node"><title>Node33</title>
<g id="a_node33"><a xlink:href="../../d1/d1f/FECInfo_8h.html" target="_top" xlink:title="TPCBase/FECInfo.h">
<polygon fill="none" stroke="black" points="1417.5,-248.5 1417.5,-267.5 1524.5,-267.5 1524.5,-248.5 1417.5,-248.5"/>
<text text-anchor="middle" x="1471" y="-255.5" font-family="Helvetica,sans-Serif" font-size="10.00">TPCBase/FECInfo.h</text>
</a>
</g>
</g>
<!-- Node7&#45;&gt;Node33 -->
<g id="edge48" class="edge"><title>Node7&#45;&gt;Node33</title>
<path fill="none" stroke="midnightblue" d="M1072.64,-481.338C1164.79,-480.921 1352.64,-475.132 1403,-436 1453.43,-396.812 1466.48,-315.368 1469.84,-278.219"/>
<polygon fill="midnightblue" stroke="midnightblue" points="1473.36,-278.06 1470.63,-267.824 1466.38,-277.531 1473.36,-278.06"/>
</g>
<!-- Node34 -->
<g id="node34" class="node"><title>Node34</title>
<g id="a_node34"><a xlink:href="../../da/d9d/PadRegionInfo_8h.html" target="_top" xlink:title="TPCBase/PadRegionInfo.h">
<polygon fill="none" stroke="black" points="690.5,-416.5 690.5,-435.5 825.5,-435.5 825.5,-416.5 690.5,-416.5"/>
<text text-anchor="middle" x="758" y="-423.5" font-family="Helvetica,sans-Serif" font-size="10.00">TPCBase/PadRegionInfo.h</text>
</a>
</g>
</g>
<!-- Node7&#45;&gt;Node34 -->
<g id="edge50" class="edge"><title>Node7&#45;&gt;Node34</title>
<path fill="none" stroke="midnightblue" d="M979.327,-472.444C933.255,-462.984 859.004,-447.738 809.369,-437.547"/>
<polygon fill="midnightblue" stroke="midnightblue" points="809.978,-434.099 799.478,-435.516 808.57,-440.956 809.978,-434.099"/>
</g>
<!-- Node35 -->
<g id="node35" class="node"><title>Node35</title>
<g id="a_node35"><a xlink:href="../../d6/d42/PartitionInfo_8h.html" target="_top" xlink:title="TPCBase/PartitionInfo.h">
<polygon fill="none" stroke="black" points="1184.5,-416.5 1184.5,-435.5 1307.5,-435.5 1307.5,-416.5 1184.5,-416.5"/>
<text text-anchor="middle" x="1246" y="-423.5" font-family="Helvetica,sans-Serif" font-size="10.00">TPCBase/PartitionInfo.h</text>
</a>
</g>
</g>
<!-- Node7&#45;&gt;Node35 -->
<g id="edge54" class="edge"><title>Node7&#45;&gt;Node35</title>
<path fill="none" stroke="midnightblue" d="M1056.65,-472.444C1095.66,-463.083 1158.27,-448.056 1200.72,-437.868"/>
<polygon fill="midnightblue" stroke="midnightblue" points="1201.61,-441.254 1210.51,-435.516 1199.97,-434.447 1201.61,-441.254"/>
</g>
<!-- Node12&#45;&gt;Node11 -->
<g id="edge14" class="edge"><title>Node12&#45;&gt;Node11</title>
<path fill="none" stroke="midnightblue" d="M847.209,-193.038C850.18,-192.683 853.122,-192.335 856,-192 999.439,-175.297 1170.9,-157.467 1240.88,-150.28"/>
<polygon fill="midnightblue" stroke="midnightblue" points="1241.24,-153.761 1250.83,-149.259 1240.53,-146.797 1241.24,-153.761"/>
</g>
<!-- Node13 -->
<g id="node13" class="node"><title>Node13</title>
<g id="a_node13"><a xlink:href="../../d2/dd0/Cartesian2D_8h.html" target="_top" xlink:title="MathUtils/Cartesian2D.h">
<polygon fill="none" stroke="black" points="1050.5,-74.5 1050.5,-93.5 1175.5,-93.5 1175.5,-74.5 1050.5,-74.5"/>
<text text-anchor="middle" x="1113" y="-81.5" font-family="Helvetica,sans-Serif" font-size="10.00">MathUtils/Cartesian2D.h</text>
</a>
</g>
</g>
<!-- Node12&#45;&gt;Node13 -->
<g id="edge15" class="edge"><title>Node12&#45;&gt;Node13</title>
<path fill="none" stroke="midnightblue" d="M808.192,-192.47C866.064,-172.066 1012.61,-120.395 1079.18,-96.9256"/>
<polygon fill="midnightblue" stroke="midnightblue" points="1080.51,-100.168 1088.77,-93.5423 1078.18,-93.5667 1080.51,-100.168"/>
</g>
<!-- Node16 -->
<g id="node16" class="node"><title>Node16</title>
<g id="a_node16"><a xlink:href="../../dd/d76/Cartesian3D_8h.html" target="_top" xlink:title="MathUtils/Cartesian3D.h">
<polygon fill="none" stroke="black" points="721.5,-136.5 721.5,-155.5 846.5,-155.5 846.5,-136.5 721.5,-136.5"/>
<text text-anchor="middle" x="784" y="-143.5" font-family="Helvetica,sans-Serif" font-size="10.00">MathUtils/Cartesian3D.h</text>
</a>
</g>
</g>
<!-- Node12&#45;&gt;Node16 -->
<g id="edge18" class="edge"><title>Node12&#45;&gt;Node16</title>
<path fill="none" stroke="midnightblue" d="M784,-192.083C784,-185.006 784,-174.861 784,-165.986"/>
<polygon fill="midnightblue" stroke="midnightblue" points="787.5,-165.751 784,-155.751 780.5,-165.751 787.5,-165.751"/>
</g>
<!-- Node14 -->
<g id="node14" class="node"><title>Node14</title>
<polygon fill="none" stroke="#bfbfbf" points="946.5,-1 946.5,-31 1097.5,-31 1097.5,-1 946.5,-1"/>
<text text-anchor="start" x="954.5" y="-19" font-family="Helvetica,sans-Serif" font-size="10.00">Math/GenVector/Displacement</text>
<text text-anchor="middle" x="1022" y="-8" font-family="Helvetica,sans-Serif" font-size="10.00">Vector2D.h</text>
</g>
<!-- Node13&#45;&gt;Node14 -->
<g id="edge16" class="edge"><title>Node13&#45;&gt;Node14</title>
<path fill="none" stroke="midnightblue" d="M1101.1,-74.3717C1088.22,-65.0286 1067.22,-49.7966 1050.09,-37.375"/>
<polygon fill="midnightblue" stroke="midnightblue" points="1051.7,-34.2194 1041.55,-31.1815 1047.59,-39.8859 1051.7,-34.2194"/>
</g>
<!-- Node15 -->
<g id="node15" class="node"><title>Node15</title>
<polygon fill="none" stroke="#bfbfbf" points="1116,-6.5 1116,-25.5 1292,-25.5 1292,-6.5 1116,-6.5"/>
<text text-anchor="middle" x="1204" y="-13.5" font-family="Helvetica,sans-Serif" font-size="10.00">Math/GenVector/PositionVector2D.h</text>
</g>
<!-- Node13&#45;&gt;Node15 -->
<g id="edge17" class="edge"><title>Node13&#45;&gt;Node15</title>
<path fill="none" stroke="midnightblue" d="M1124.9,-74.3717C1139.88,-63.5015 1165.86,-44.6602 1183.94,-31.5474"/>
<polygon fill="midnightblue" stroke="midnightblue" points="1186.06,-34.3349 1192.1,-25.6305 1181.95,-28.6684 1186.06,-34.3349"/>
</g>
<!-- Node16&#45;&gt;Node13 -->
<g id="edge27" class="edge"><title>Node16&#45;&gt;Node13</title>
<path fill="none" stroke="midnightblue" d="M835.775,-136.435C887.741,-127.721 970.043,-113.6 1041,-100 1048.16,-98.6285 1055.7,-97.1232 1063.1,-95.6118"/>
<polygon fill="midnightblue" stroke="midnightblue" points="1063.97,-99.0062 1073.06,-93.559 1062.56,-92.1504 1063.97,-99.0062"/>
</g>
<!-- Node17 -->
<g id="node17" class="node"><title>Node17</title>
<polygon fill="none" stroke="#bfbfbf" points="-0.5,-69 -0.5,-99 150.5,-99 150.5,-69 -0.5,-69"/>
<text text-anchor="start" x="7.5" y="-87" font-family="Helvetica,sans-Serif" font-size="10.00">Math/GenVector/Displacement</text>
<text text-anchor="middle" x="75" y="-76" font-family="Helvetica,sans-Serif" font-size="10.00">Vector3D.h</text>
</g>
<!-- Node16&#45;&gt;Node17 -->
<g id="edge19" class="edge"><title>Node16&#45;&gt;Node17</title>
<path fill="none" stroke="midnightblue" d="M721.352,-142.613C610.443,-137.92 372.129,-125.742 160.975,-100.034"/>
<polygon fill="midnightblue" stroke="midnightblue" points="161.294,-96.547 150.942,-98.7997 160.439,-103.495 161.294,-96.547"/>
</g>
<!-- Node18 -->
<g id="node18" class="node"><title>Node18</title>
<polygon fill="none" stroke="#bfbfbf" points="169,-74.5 169,-93.5 345,-93.5 345,-74.5 169,-74.5"/>
<text text-anchor="middle" x="257" y="-81.5" font-family="Helvetica,sans-Serif" font-size="10.00">Math/GenVector/PositionVector3D.h</text>
</g>
<!-- Node16&#45;&gt;Node18 -->
<g id="edge20" class="edge"><title>Node16&#45;&gt;Node18</title>
<path fill="none" stroke="midnightblue" d="M721.22,-139.405C637.374,-131.709 484.267,-116.878 354,-100 342.694,-98.5351 330.673,-96.8115 319.082,-95.0643"/>
<polygon fill="midnightblue" stroke="midnightblue" points="319.45,-91.58 309.036,-93.5288 318.392,-98.4996 319.45,-91.58"/>
</g>
<!-- Node19 -->
<g id="node19" class="node"><title>Node19</title>
<polygon fill="none" stroke="#bfbfbf" points="362.5,-74.5 362.5,-93.5 511.5,-93.5 511.5,-74.5 362.5,-74.5"/>
<text text-anchor="middle" x="437" y="-81.5" font-family="Helvetica,sans-Serif" font-size="10.00">Math/GenVector/Rotation3D.h</text>
</g>
<!-- Node16&#45;&gt;Node19 -->
<g id="edge21" class="edge"><title>Node16&#45;&gt;Node19</title>
<path fill="none" stroke="midnightblue" d="M733.562,-136.482C680.606,-127.512 594.922,-112.924 521,-100 512.412,-98.4985 503.333,-96.8946 494.443,-95.3148"/>
<polygon fill="midnightblue" stroke="midnightblue" points="494.981,-91.8557 484.523,-93.5481 493.754,-98.7472 494.981,-91.8557"/>
</g>
<!-- Node20 -->
<g id="node20" class="node"><title>Node20</title>
<polygon fill="none" stroke="#bfbfbf" points="530,-74.5 530,-93.5 686,-93.5 686,-74.5 530,-74.5"/>
<text text-anchor="middle" x="608" y="-81.5" font-family="Helvetica,sans-Serif" font-size="10.00">Math/GenVector/Transform3D.h</text>
</g>
<!-- Node16&#45;&gt;Node20 -->
<g id="edge22" class="edge"><title>Node16&#45;&gt;Node20</title>
<path fill="none" stroke="midnightblue" d="M758.783,-136.403C728.332,-126.022 676.951,-108.506 642.757,-96.849"/>
<polygon fill="midnightblue" stroke="midnightblue" points="643.764,-93.4946 633.17,-93.5806 641.505,-100.12 643.764,-93.4946"/>
</g>
<!-- Node21 -->
<g id="node21" class="node"><title>Node21</title>
<polygon fill="none" stroke="#bfbfbf" points="704,-74.5 704,-93.5 864,-93.5 864,-74.5 704,-74.5"/>
<text text-anchor="middle" x="784" y="-81.5" font-family="Helvetica,sans-Serif" font-size="10.00">Math/GenVector/Translation3D.h</text>
</g>
<!-- Node16&#45;&gt;Node21 -->
<g id="edge23" class="edge"><title>Node16&#45;&gt;Node21</title>
<path fill="none" stroke="midnightblue" d="M784,-136.403C784,-127.938 784,-114.728 784,-103.82"/>
<polygon fill="midnightblue" stroke="midnightblue" points="787.5,-103.581 784,-93.5806 780.5,-103.581 787.5,-103.581"/>
</g>
<!-- Node22 -->
<g id="node22" class="node"><title>Node22</title>
<polygon fill="none" stroke="#bfbfbf" points="882,-74.5 882,-93.5 938,-93.5 938,-74.5 882,-74.5"/>
<text text-anchor="middle" x="910" y="-81.5" font-family="Helvetica,sans-Serif" font-size="10.00">Rtypes.h</text>
</g>
<!-- Node16&#45;&gt;Node22 -->
<g id="edge24" class="edge"><title>Node16&#45;&gt;Node22</title>
<path fill="none" stroke="midnightblue" d="M802.053,-136.403C823.198,-126.334 858.44,-109.552 882.878,-97.9151"/>
<polygon fill="midnightblue" stroke="midnightblue" points="884.457,-101.04 891.981,-93.5806 881.447,-94.72 884.457,-101.04"/>
</g>
<!-- Node23 -->
<g id="node23" class="node"><title>Node23</title>
<polygon fill="none" stroke="#bfbfbf" points="956,-74.5 956,-93.5 1032,-93.5 1032,-74.5 956,-74.5"/>
<text text-anchor="middle" x="994" y="-81.5" font-family="Helvetica,sans-Serif" font-size="10.00">TGeoMatrix.h</text>
</g>
<!-- Node16&#45;&gt;Node23 -->
<g id="edge25" class="edge"><title>Node16&#45;&gt;Node23</title>
<path fill="none" stroke="midnightblue" d="M816.053,-136.42C848.797,-127.58 901.065,-113.258 946,-100 949.755,-98.892 953.668,-97.7119 957.567,-96.519"/>
<polygon fill="midnightblue" stroke="midnightblue" points="958.616,-99.8583 967.136,-93.561 956.548,-93.1705 958.616,-99.8583"/>
</g>
<!-- Node24 -->
<g id="node24" class="node"><title>Node24</title>
<polygon fill="none" stroke="#bfbfbf" points="1301.5,-74.5 1301.5,-93.5 1346.5,-93.5 1346.5,-74.5 1301.5,-74.5"/>
<text text-anchor="middle" x="1324" y="-81.5" font-family="Helvetica,sans-Serif" font-size="10.00">iosfwd</text>
</g>
<!-- Node16&#45;&gt;Node24 -->
<g id="edge26" class="edge"><title>Node16&#45;&gt;Node24</title>
<path fill="none" stroke="midnightblue" d="M846.737,-138.029C961.992,-125.223 1203.65,-98.3724 1291.33,-88.6298"/>
<polygon fill="midnightblue" stroke="midnightblue" points="1291.93,-92.0853 1301.48,-87.5023 1291.15,-85.1281 1291.93,-92.0853"/>
</g>
<!-- Node26&#45;&gt;Node25 -->
<g id="edge33" class="edge"><title>Node26&#45;&gt;Node25</title>
<path fill="none" stroke="midnightblue" d="M1089.88,-360.444C1068.98,-351.557 1036.07,-337.563 1012.28,-327.451"/>
<polygon fill="midnightblue" stroke="midnightblue" points="1013.6,-324.208 1003.03,-323.516 1010.86,-330.65 1013.6,-324.208"/>
</g>
<!-- Node26&#45;&gt;Node27 -->
<g id="edge30" class="edge"><title>Node26&#45;&gt;Node27</title>
<path fill="none" stroke="midnightblue" d="M1103.16,-360.297C1092.05,-346.657 1068.8,-320.139 1044,-304 1021.47,-289.342 993.424,-278.194 970.785,-270.66"/>
<polygon fill="midnightblue" stroke="midnightblue" points="971.717,-267.283 961.126,-267.553 969.574,-273.947 971.717,-267.283"/>
</g>
<!-- Node27&#45;&gt;Node12 -->
<g id="edge32" class="edge"><title>Node27&#45;&gt;Node12</title>
<path fill="none" stroke="midnightblue" d="M906.866,-248.444C882.518,-239.438 843.993,-225.189 816.577,-215.049"/>
<polygon fill="midnightblue" stroke="midnightblue" points="817.619,-211.703 807.026,-211.516 815.191,-218.268 817.619,-211.703"/>
</g>
<!-- Node28 -->
<g id="node28" class="node"><title>Node28</title>
<g id="a_node28"><a xlink:href="../../d0/dda/DataFormats_2Detectors_2TPC_2include_2DataFormatsTPC_2Constants_8h.html" target="_top" xlink:title="DataFormatsTPC/Constants.h">
<polygon fill="none" stroke="black" points="865,-192.5 865,-211.5 1015,-211.5 1015,-192.5 865,-192.5"/>
<text text-anchor="middle" x="940" y="-199.5" font-family="Helvetica,sans-Serif" font-size="10.00">DataFormatsTPC/Constants.h</text>
</a>
</g>
</g>
<!-- Node27&#45;&gt;Node28 -->
<g id="edge31" class="edge"><title>Node27&#45;&gt;Node28</title>
<path fill="none" stroke="midnightblue" d="M931.651,-248.083C932.976,-240.927 934.882,-230.635 936.539,-221.691"/>
<polygon fill="midnightblue" stroke="midnightblue" points="940,-222.221 938.379,-211.751 933.117,-220.947 940,-222.221"/>
</g>
<!-- Node29&#45;&gt;Node12 -->
<g id="edge35" class="edge"><title>Node29&#45;&gt;Node12</title>
<path fill="none" stroke="midnightblue" d="M839.753,-360.32C828.62,-352.28 813.244,-339.281 805,-324 787.259,-291.116 783.967,-246.551 783.655,-221.708"/>
<polygon fill="midnightblue" stroke="midnightblue" points="787.155,-221.524 783.685,-211.513 780.155,-221.503 787.155,-221.524"/>
</g>
<!-- Node29&#45;&gt;Node25 -->
<g id="edge39" class="edge"><title>Node29&#45;&gt;Node25</title>
<path fill="none" stroke="midnightblue" d="M873.599,-360.444C894.993,-351.557 928.681,-337.563 953.024,-327.451"/>
<polygon fill="midnightblue" stroke="midnightblue" points="954.605,-330.585 962.497,-323.516 951.92,-324.12 954.605,-330.585"/>
</g>
<!-- Node30 -->
<g id="node30" class="node"><title>Node30</title>
<g id="a_node30"><a xlink:href="../../dc/d14/ROC_8h.html" target="_top" xlink:title="TPCBase/ROC.h">
<polygon fill="none" stroke="black" points="813.5,-304.5 813.5,-323.5 906.5,-323.5 906.5,-304.5 813.5,-304.5"/>
<text text-anchor="middle" x="860" y="-311.5" font-family="Helvetica,sans-Serif" font-size="10.00">TPCBase/ROC.h</text>
</a>
</g>
</g>
<!-- Node29&#45;&gt;Node30 -->
<g id="edge36" class="edge"><title>Node29&#45;&gt;Node30</title>
<path fill="none" stroke="midnightblue" d="M854.156,-360.083C855.084,-352.927 856.418,-342.635 857.577,-333.691"/>
<polygon fill="midnightblue" stroke="midnightblue" points="861.051,-334.118 858.866,-323.751 854.109,-333.218 861.051,-334.118"/>
</g>
<!-- Node30&#45;&gt;Node12 -->
<g id="edge37" class="edge"><title>Node30&#45;&gt;Node12</title>
<path fill="none" stroke="midnightblue" d="M854.036,-304.368C841.494,-286.215 812.19,-243.802 795.739,-219.99"/>
<polygon fill="midnightblue" stroke="midnightblue" points="798.5,-217.829 789.936,-211.591 792.741,-221.808 798.5,-217.829"/>
</g>
<!-- Node30&#45;&gt;Node27 -->
<g id="edge38" class="edge"><title>Node30&#45;&gt;Node27</title>
<path fill="none" stroke="midnightblue" d="M871.247,-304.324C881.797,-296.185 897.801,-283.839 910.442,-274.087"/>
<polygon fill="midnightblue" stroke="midnightblue" points="912.769,-276.713 918.549,-267.834 908.493,-271.171 912.769,-276.713"/>
</g>
<!-- Node31&#45;&gt;Node12 -->
<g id="edge41" class="edge"><title>Node31&#45;&gt;Node12</title>
<path fill="none" stroke="midnightblue" d="M884.771,-419.705C809.982,-411.849 682.784,-396.272 669,-380 621.923,-324.427 717.26,-248.458 762.255,-217.259"/>
<polygon fill="midnightblue" stroke="midnightblue" points="764.224,-220.153 770.526,-211.636 760.288,-214.364 764.224,-220.153"/>
</g>
<!-- Node31&#45;&gt;Node25 -->
<g id="edge46" class="edge"><title>Node31&#45;&gt;Node25</title>
<path fill="none" stroke="midnightblue" d="M943,-416.444C947.162,-407.443 953.786,-392.831 959,-380 965.297,-364.502 971.835,-346.661 976.494,-333.596"/>
<polygon fill="midnightblue" stroke="midnightblue" points="979.888,-334.496 979.919,-323.901 973.288,-332.164 979.888,-334.496"/>
</g>
<!-- Node31&#45;&gt;Node26 -->
<g id="edge47" class="edge"><title>Node31&#45;&gt;Node26</title>
<path fill="none" stroke="midnightblue" d="M966.095,-416.444C994.988,-407.32 1040.92,-392.813 1073.11,-382.651"/>
<polygon fill="midnightblue" stroke="midnightblue" points="1074.55,-385.865 1083.03,-379.516 1072.44,-379.19 1074.55,-385.865"/>
</g>
<!-- Node32 -->
<g id="node32" class="node"><title>Node32</title>
<g id="a_node32"><a xlink:href="../../df/d26/CRU_8h.html" target="_top" xlink:title="TPCBase/CRU.h">
<polygon fill="none" stroke="black" points="677.5,-360.5 677.5,-379.5 770.5,-379.5 770.5,-360.5 677.5,-360.5"/>
<text text-anchor="middle" x="724" y="-367.5" font-family="Helvetica,sans-Serif" font-size="10.00">TPCBase/CRU.h</text>
</a>
</g>
</g>
<!-- Node31&#45;&gt;Node32 -->
<g id="edge42" class="edge"><title>Node31&#45;&gt;Node32</title>
<path fill="none" stroke="midnightblue" d="M904.933,-416.444C867.82,-407.122 808.339,-392.183 767.785,-381.997"/>
<polygon fill="midnightblue" stroke="midnightblue" points="768.459,-378.558 757.908,-379.516 766.754,-385.347 768.459,-378.558"/>
</g>
<!-- Node32&#45;&gt;Node12 -->
<g id="edge43" class="edge"><title>Node32&#45;&gt;Node12</title>
<path fill="none" stroke="midnightblue" d="M727.226,-360.075C736.711,-333.832 764.646,-256.545 777.452,-221.117"/>
<polygon fill="midnightblue" stroke="midnightblue" points="780.795,-222.162 780.903,-211.568 774.212,-219.783 780.795,-222.162"/>
</g>
<!-- Node32&#45;&gt;Node27 -->
<g id="edge44" class="edge"><title>Node32&#45;&gt;Node27</title>
<path fill="none" stroke="midnightblue" d="M732.75,-360.317C746.877,-346.704 776.06,-320.222 805,-304 830.994,-289.429 862.589,-278.104 887.51,-270.459"/>
<polygon fill="midnightblue" stroke="midnightblue" points="888.816,-273.722 897.399,-267.511 886.816,-267.014 888.816,-273.722"/>
</g>
<!-- Node32&#45;&gt;Node30 -->
<g id="edge45" class="edge"><title>Node32&#45;&gt;Node30</title>
<path fill="none" stroke="midnightblue" d="M745.55,-360.444C768.031,-351.517 803.488,-337.439 828.98,-327.317"/>
<polygon fill="midnightblue" stroke="midnightblue" points="830.549,-330.46 838.551,-323.516 827.965,-323.954 830.549,-330.46"/>
</g>
<!-- Node33&#45;&gt;Node24 -->
<g id="edge49" class="edge"><title>Node33&#45;&gt;Node24</title>
<path fill="none" stroke="midnightblue" d="M1463.51,-248.234C1440.21,-220.971 1368.75,-137.36 1338.15,-101.554"/>
<polygon fill="midnightblue" stroke="midnightblue" points="1340.46,-98.8722 1331.3,-93.5442 1335.14,-103.42 1340.46,-98.8722"/>
</g>
<!-- Node34&#45;&gt;Node9 -->
<g id="edge51" class="edge"><title>Node34&#45;&gt;Node9</title>
<path fill="none" stroke="midnightblue" d="M720.764,-416.444C675.091,-405.948 598.425,-388.332 555.189,-378.397"/>
<polygon fill="midnightblue" stroke="midnightblue" points="555.742,-374.933 545.212,-376.104 554.175,-381.755 555.742,-374.933"/>
</g>
<!-- Node34&#45;&gt;Node12 -->
<g id="edge52" class="edge"><title>Node34&#45;&gt;Node12</title>
<path fill="none" stroke="midnightblue" d="M692.767,-416.47C670.731,-410.123 648.352,-399.103 635,-380 601.39,-331.915 600.024,-295.1 635,-248 652.654,-224.227 682.495,-212.561 710.855,-206.993"/>
<polygon fill="midnightblue" stroke="midnightblue" points="711.547,-210.425 720.802,-205.268 710.351,-203.528 711.547,-210.425"/>
</g>
<!-- Node34&#45;&gt;Node25 -->
<g id="edge53" class="edge"><title>Node34&#45;&gt;Node25</title>
<path fill="none" stroke="midnightblue" d="M824.628,-416.433C857.039,-410.031 895.486,-398.974 926,-380 945.448,-367.907 961.961,-347.14 972.13,-332.333"/>
<polygon fill="midnightblue" stroke="midnightblue" points="975.293,-333.894 977.863,-323.615 969.444,-330.048 975.293,-333.894"/>
</g>
<!-- Node36&#45;&gt;Node9 -->
<g id="edge59" class="edge"><title>Node36&#45;&gt;Node9</title>
<path fill="none" stroke="midnightblue" d="M443.748,-472.368C458.004,-454.135 491.394,-411.426 509.963,-387.675"/>
<polygon fill="midnightblue" stroke="midnightblue" points="512.881,-389.625 516.283,-379.591 507.366,-385.314 512.881,-389.625"/>
</g>
<!-- Node37 -->
<g id="node37" class="node"><title>Node37</title>
<polygon fill="none" stroke="#bfbfbf" points="300,-416.5 300,-435.5 390,-435.5 390,-416.5 300,-416.5"/>
<text text-anchor="middle" x="345" y="-423.5" font-family="Helvetica,sans-Serif" font-size="10.00">boost/format.hpp</text>
</g>
<!-- Node36&#45;&gt;Node37 -->
<g id="edge57" class="edge"><title>Node36&#45;&gt;Node37</title>
<path fill="none" stroke="midnightblue" d="M422.219,-472.324C407.733,-463.822 385.427,-450.729 368.507,-440.797"/>
<polygon fill="midnightblue" stroke="midnightblue" points="370.141,-437.698 359.745,-435.655 366.597,-443.735 370.141,-437.698"/>
</g>
<!-- Node38 -->
<g id="node38" class="node"><title>Node38</title>
<polygon fill="none" stroke="#bfbfbf" points="408,-416.5 408,-435.5 452,-435.5 452,-416.5 408,-416.5"/>
<text text-anchor="middle" x="430" y="-423.5" font-family="Helvetica,sans-Serif" font-size="10.00">Vc/Vc</text>
</g>
<!-- Node36&#45;&gt;Node38 -->
<g id="edge58" class="edge"><title>Node36&#45;&gt;Node38</title>
<path fill="none" stroke="midnightblue" d="M435.844,-472.083C434.916,-464.927 433.582,-454.635 432.423,-445.691"/>
<polygon fill="midnightblue" stroke="midnightblue" points="435.891,-445.218 431.134,-435.751 428.949,-446.118 435.891,-445.218"/>
</g>
<!-- Node36&#45;&gt;Node39 -->
<g id="edge60" class="edge"><title>Node36&#45;&gt;Node39</title>
<path fill="none" stroke="midnightblue" d="M451.781,-472.324C466.267,-463.822 488.573,-450.729 505.493,-440.797"/>
<polygon fill="midnightblue" stroke="midnightblue" points="507.403,-443.735 514.255,-435.655 503.859,-437.698 507.403,-443.735"/>
</g>
<!-- Node40 -->
<g id="node40" class="node"><title>Node40</title>
<polygon fill="none" stroke="#bfbfbf" points="214,-416.5 214,-435.5 282,-435.5 282,-416.5 214,-416.5"/>
<text text-anchor="middle" x="248" y="-423.5" font-family="Helvetica,sans-Serif" font-size="10.00">TRandom.h</text>
</g>
<!-- Node36&#45;&gt;Node40 -->
<g id="edge61" class="edge"><title>Node36&#45;&gt;Node40</title>
<path fill="none" stroke="midnightblue" d="M407.052,-472.444C374.842,-463.241 323.466,-448.562 287.858,-438.388"/>
<polygon fill="midnightblue" stroke="midnightblue" points="288.384,-434.898 277.808,-435.516 286.461,-441.629 288.384,-434.898"/>
</g>
</g>
</svg>
        <g id="navigator" transform="translate(0 0)" fill="#404254">
                <rect fill="#f2f5e9" fill-opacity="0.5" stroke="#606060" stroke-width=".5" x="0" y="0" width="60" height="60"/>
                <use id="zoomplus" xlink:href="#zoomPlus" x="17" y="9" onmousedown="handleZoom(evt,'in')"/>
                <use id="zoomminus" xlink:href="#zoomMin" x="42" y="9" onmousedown="handleZoom(evt,'out')"/>
                <use id="reset" xlink:href="#resetDef" x="30" y="36" onmousedown="handleReset()"/>
                <g id="arrowUp" xlink:href="#dirArrow" transform="translate(30 24)" onmousedown="handlePan(0,-1)">
                  <use xlink:href="#rim" fill="#404040">
                        <set attributeName="fill" to="#808080" begin="arrowUp.mouseover" end="arrowUp.mouseout"/>
                  </use>
                  <path fill="none" stroke="white" stroke-width="1.5" d="M0,-3.0v7 M-2.5,-0.5L0,-3.0L2.5,-0.5"/>
                </g>
                <g id="arrowRight" xlink:href="#dirArrow" transform="rotate(90) translate(36 -43)" onmousedown="handlePan(1,0)">
                  <use xlink:href="#rim" fill="#404040">
                        <set attributeName="fill" to="#808080" begin="arrowRight.mouseover" end="arrowRight.mouseout"/>
                  </use>
                  <path fill="none" stroke="white" stroke-width="1.5" d="M0,-3.0v7 M-2.5,-0.5L0,-3.0L2.5,-0.5"/>
                </g>
                <g id="arrowDown" xlink:href="#dirArrow" transform="rotate(180) translate(-30 -48)" onmousedown="handlePan(0,1)">
                  <use xlink:href="#rim" fill="#404040">
                        <set attributeName="fill" to="#808080" begin="arrowDown.mouseover" end="arrowDown.mouseout"/>
                  </use>
                  <path fill="none" stroke="white" stroke-width="1.5" d="M0,-3.0v7 M-2.5,-0.5L0,-3.0L2.5,-0.5"/>
                </g>
                <g id="arrowLeft" xlink:href="#dirArrow" transform="rotate(270) translate(-36 17)" onmousedown="handlePan(-1,0)">
                  <use xlink:href="#rim" fill="#404040">
                        <set attributeName="fill" to="#808080" begin="arrowLeft.mouseover" end="arrowLeft.mouseout"/>
                  </use>
                  <path fill="none" stroke="white" stroke-width="1.5" d="M0,-3.0v7 M-2.5,-0.5L0,-3.0L2.5,-0.5"/>
                </g>
        </g>
        <svg viewBox="0 0 15 15" width="100%" height="30px" preserveAspectRatio="xMaxYMin meet">
         <g id="arrow_out" transform="scale(0.3 0.3)">
          <a xlink:href="testTPCElectronTransport_8cxx__incl_org.svg" target="_base">
           <rect id="button" ry="5" rx="5" y="6" x="6" height="38" width="38"
                fill="#f2f5e9" fill-opacity="0.5" stroke="#606060" stroke-width="1.0"/>
           <path id="arrow"
             d="M 11.500037,31.436501 C 11.940474,20.09759 22.043105,11.32322 32.158766,21.979434 L 37.068811,17.246167 C 37.068811,17.246167 37.088388,32 37.088388,32 L 22.160133,31.978069 C 22.160133,31.978069 26.997745,27.140456 26.997745,27.140456 C 18.528582,18.264221 13.291696,25.230495 11.500037,31.436501 z"
             style="fill:#404040;"/>
          </a>
         </g>
        </svg>
</svg>
