<?xml version="1.0" encoding="UTF-8" standalone="no"?>
<!DOCTYPE svg PUBLIC "-//W3C//DTD SVG 1.1//EN"
 "http://www.w3.org/Graphics/SVG/1.1/DTD/svg11.dtd">
<!-- Generated by graphviz version 2.36.0 (20140111.2315)
 -->
<!-- Title: /home/travis/build/AliceO2Group/AliceO2/Utilities/O2MessageMonitor/src/O2MessageMonitor.cxx Pages: 1 -->
<svg width="747pt" height="298pt"
 viewBox="0.00 0.00 747.00 298.00" xmlns="http://www.w3.org/2000/svg" xmlns:xlink="http://www.w3.org/1999/xlink">
<g id="graph0" class="graph" transform="scale(1 1) rotate(0) translate(4 294)">
<title>/home/travis/build/AliceO2Group/AliceO2/Utilities/O2MessageMonitor/src/O2MessageMonitor.cxx</title>
<!-- Node1 -->
<g id="node1" class="node"><title>Node1</title>
<polygon fill="#bfbfbf" stroke="black" points="228,-237 228,-289 368,-289 368,-237 228,-237"/>
<text text-anchor="start" x="236" y="-277" font-family="Helvetica,sans-Serif" font-size="10.00">/home/travis/build</text>
<text text-anchor="start" x="236" y="-266" font-family="Helvetica,sans-Serif" font-size="10.00">/AliceO2Group/AliceO2</text>
<text text-anchor="start" x="236" y="-255" font-family="Helvetica,sans-Serif" font-size="10.00">/Utilities/O2MessageMonitor</text>
<text text-anchor="middle" x="298" y="-244" font-family="Helvetica,sans-Serif" font-size="10.00">/src/O2MessageMonitor.cxx</text>
</g>
<!-- Node2 -->
<g id="node2" class="node"><title>Node2</title>
<polygon fill="none" stroke="#bfbfbf" points="58,-174.5 58,-193.5 104,-193.5 104,-174.5 58,-174.5"/>
<text text-anchor="middle" x="81" y="-181.5" font-family="Helvetica,sans-Serif" font-size="10.00">chrono</text>
</g>
<!-- Node1&#45;&gt;Node2 -->
<g id="edge1" class="edge"><title>Node1&#45;&gt;Node2</title>
<path fill="none" stroke="midnightblue" d="M227.912,-240.609C193.027,-229.434 150.421,-214.984 113,-200 111.355,-199.341 109.674,-198.641 107.987,-197.915"/>
<polygon fill="midnightblue" stroke="midnightblue" points="109.001,-194.534 98.4455,-193.62 106.127,-200.917 109.001,-194.534"/>
</g>
<!-- Node3 -->
<g id="node3" class="node"><title>Node3</title>
<polygon fill="none" stroke="#bfbfbf" points="122,-174.5 122,-193.5 166,-193.5 166,-174.5 122,-174.5"/>
<text text-anchor="middle" x="144" y="-181.5" font-family="Helvetica,sans-Serif" font-size="10.00">thread</text>
</g>
<!-- Node1&#45;&gt;Node3 -->
<g id="edge2" class="edge"><title>Node1&#45;&gt;Node3</title>
<path fill="none" stroke="midnightblue" d="M247.575,-236.787C221.711,-223.855 191.288,-208.644 170.133,-198.067"/>
<polygon fill="midnightblue" stroke="midnightblue" points="171.625,-194.899 161.115,-193.558 168.494,-201.16 171.625,-194.899"/>
</g>
<!-- Node4 -->
<g id="node4" class="node"><title>Node4</title>
<polygon fill="none" stroke="#bfbfbf" points="184,-174.5 184,-193.5 270,-193.5 270,-174.5 184,-174.5"/>
<text text-anchor="middle" x="227" y="-181.5" font-family="Helvetica,sans-Serif" font-size="10.00">FairMQLogger.h</text>
</g>
<!-- Node1&#45;&gt;Node4 -->
<g id="edge3" class="edge"><title>Node1&#45;&gt;Node4</title>
<path fill="none" stroke="midnightblue" d="M274.752,-236.787C263.902,-225.02 251.312,-211.366 241.784,-201.033"/>
<polygon fill="midnightblue" stroke="midnightblue" points="244.243,-198.537 234.891,-193.558 239.097,-203.282 244.243,-198.537"/>
</g>
<!-- Node5 -->
<g id="node5" class="node"><title>Node5</title>
<polygon fill="none" stroke="#bfbfbf" points="0,-56.5 0,-75.5 146,-75.5 146,-56.5 0,-56.5"/>
<text text-anchor="middle" x="73" y="-63.5" font-family="Helvetica,sans-Serif" font-size="10.00">options/FairMQProgOptions.h</text>
</g>
<!-- Node1&#45;&gt;Node5 -->
<g id="edge4" class="edge"><title>Node1&#45;&gt;Node5</title>
<path fill="none" stroke="midnightblue" d="M298.76,-236.756C298.105,-216.262 294.155,-187.641 279,-168 240.608,-118.245 171.291,-91.4554 123.751,-78.2223"/>
<polygon fill="midnightblue" stroke="midnightblue" points="124.521,-74.8052 113.956,-75.6009 122.711,-81.5673 124.521,-74.8052"/>
</g>
<!-- Node6 -->
<g id="node6" class="node"><title>Node6</title>
<g id="a_node6"><a xlink:href="../../dc/dcd/DataHeader_8h.html" target="_top" xlink:title="Headers/DataHeader.h">
<polygon fill="none" stroke="black" points="517.5,-56.5 517.5,-75.5 634.5,-75.5 634.5,-56.5 517.5,-56.5"/>
<text text-anchor="middle" x="576" y="-63.5" font-family="Helvetica,sans-Serif" font-size="10.00">Headers/DataHeader.h</text>
</a>
</g>
</g>
<!-- Node1&#45;&gt;Node6 -->
<g id="edge5" class="edge"><title>Node1&#45;&gt;Node6</title>
<path fill="none" stroke="midnightblue" d="M368.151,-251.769C407.701,-243.192 456.201,-227.692 492,-200 531.841,-169.181 557.876,-113.734 569.318,-85.1437"/>
<polygon fill="midnightblue" stroke="midnightblue" points="572.662,-86.1981 572.987,-75.6082 566.129,-83.6842 572.662,-86.1981"/>
</g>
<!-- Node12 -->
<g id="node12" class="node"><title>Node12</title>
<g id="a_node12"><a xlink:href="../../d6/d2e/NameHeader_8h.html" target="_top" xlink:title="Headers/NameHeader.h">
<polygon fill="none" stroke="black" points="540,-174.5 540,-193.5 662,-193.5 662,-174.5 540,-174.5"/>
<text text-anchor="middle" x="601" y="-181.5" font-family="Helvetica,sans-Serif" font-size="10.00">Headers/NameHeader.h</text>
</a>
</g>
</g>
<!-- Node1&#45;&gt;Node12 -->
<g id="edge11" class="edge"><title>Node1&#45;&gt;Node12</title>
<path fill="none" stroke="midnightblue" d="M368.276,-244.141C426.829,-229.261 508.363,-208.542 557.756,-195.989"/>
<polygon fill="midnightblue" stroke="midnightblue" points="558.659,-199.371 567.489,-193.516 556.935,-192.587 558.659,-199.371"/>
</g>
<!-- Node14 -->
<g id="node14" class="node"><title>Node14</title>
<g id="a_node14"><a xlink:href="../../de/d29/O2MessageMonitor_8h.html" target="_top" xlink:title="O2MessageMonitor/O2Message\lMonitor.h">
<polygon fill="none" stroke="black" points="326.5,-169 326.5,-199 483.5,-199 483.5,-169 326.5,-169"/>
<text text-anchor="start" x="334.5" y="-187" font-family="Helvetica,sans-Serif" font-size="10.00">O2MessageMonitor/O2Message</text>
<text text-anchor="middle" x="405" y="-176" font-family="Helvetica,sans-Serif" font-size="10.00">Monitor.h</text>
</a>
</g>
</g>
<!-- Node1&#45;&gt;Node14 -->
<g id="edge14" class="edge"><title>Node1&#45;&gt;Node14</title>
<path fill="none" stroke="midnightblue" d="M333.036,-236.787C347.335,-226.497 363.64,-214.764 377.11,-205.07"/>
<polygon fill="midnightblue" stroke="midnightblue" points="379.43,-207.713 385.503,-199.031 375.342,-202.031 379.43,-207.713"/>
</g>
<!-- Node7 -->
<g id="node7" class="node"><title>Node7</title>
<polygon fill="none" stroke="#bfbfbf" points="417,-0.5 417,-19.5 463,-19.5 463,-0.5 417,-0.5"/>
<text text-anchor="middle" x="440" y="-7.5" font-family="Helvetica,sans-Serif" font-size="10.00">cstdint</text>
</g>
<!-- Node6&#45;&gt;Node7 -->
<g id="edge6" class="edge"><title>Node6&#45;&gt;Node7</title>
<path fill="none" stroke="midnightblue" d="M554.45,-56.4435C531.969,-47.5171 496.512,-33.4387 471.02,-23.3168"/>
<polygon fill="midnightblue" stroke="midnightblue" points="472.035,-19.9539 461.449,-19.5164 469.451,-26.4598 472.035,-19.9539"/>
</g>
<!-- Node8 -->
<g id="node8" class="node"><title>Node8</title>
<polygon fill="none" stroke="#bfbfbf" points="481,-0.5 481,-19.5 533,-19.5 533,-0.5 481,-0.5"/>
<text text-anchor="middle" x="507" y="-7.5" font-family="Helvetica,sans-Serif" font-size="10.00">memory</text>
</g>
<!-- Node6&#45;&gt;Node8 -->
<g id="edge7" class="edge"><title>Node6&#45;&gt;Node8</title>
<path fill="none" stroke="midnightblue" d="M564.914,-56.324C554.514,-48.1849 538.739,-35.8395 526.278,-26.0874"/>
<polygon fill="midnightblue" stroke="midnightblue" points="528.32,-23.2407 518.288,-19.8339 524.006,-28.7533 528.32,-23.2407"/>
</g>
<!-- Node9 -->
<g id="node9" class="node"><title>Node9</title>
<polygon fill="none" stroke="#bfbfbf" points="551.5,-0.5 551.5,-19.5 600.5,-19.5 600.5,-0.5 551.5,-0.5"/>
<text text-anchor="middle" x="576" y="-7.5" font-family="Helvetica,sans-Serif" font-size="10.00">cassert</text>
</g>
<!-- Node6&#45;&gt;Node9 -->
<g id="edge8" class="edge"><title>Node6&#45;&gt;Node9</title>
<path fill="none" stroke="midnightblue" d="M576,-56.083C576,-49.0059 576,-38.8611 576,-29.9865"/>
<polygon fill="midnightblue" stroke="midnightblue" points="579.5,-29.751 576,-19.7511 572.5,-29.7511 579.5,-29.751"/>
</g>
<!-- Node10 -->
<g id="node10" class="node"><title>Node10</title>
<polygon fill="none" stroke="#bfbfbf" points="619,-0.5 619,-19.5 665,-19.5 665,-0.5 619,-0.5"/>
<text text-anchor="middle" x="642" y="-7.5" font-family="Helvetica,sans-Serif" font-size="10.00">cstring</text>
</g>
<!-- Node6&#45;&gt;Node10 -->
<g id="edge9" class="edge"><title>Node6&#45;&gt;Node10</title>
<path fill="none" stroke="midnightblue" d="M586.604,-56.324C596.456,-48.2631 611.351,-36.0765 623.215,-26.3695"/>
<polygon fill="midnightblue" stroke="midnightblue" points="625.68,-28.8752 631.203,-19.8339 621.247,-23.4575 625.68,-28.8752"/>
</g>
<!-- Node11 -->
<g id="node11" class="node"><title>Node11</title>
<polygon fill="none" stroke="#bfbfbf" points="683,-0.5 683,-19.5 739,-19.5 739,-0.5 683,-0.5"/>
<text text-anchor="middle" x="711" y="-7.5" font-family="Helvetica,sans-Serif" font-size="10.00">algorithm</text>
</g>
<!-- Node6&#45;&gt;Node11 -->
<g id="edge10" class="edge"><title>Node6&#45;&gt;Node11</title>
<path fill="none" stroke="midnightblue" d="M597.391,-56.4435C619.707,-47.5171 654.903,-33.4387 680.208,-23.3168"/>
<polygon fill="midnightblue" stroke="midnightblue" points="681.724,-26.4801 689.709,-19.5164 679.124,-19.9807 681.724,-26.4801"/>
</g>
<!-- Node12&#45;&gt;Node6 -->
<g id="edge13" class="edge"><title>Node12&#45;&gt;Node6</title>
<path fill="none" stroke="midnightblue" d="M599.121,-174.281C595.065,-155.463 585.417,-110.697 579.953,-85.3399"/>
<polygon fill="midnightblue" stroke="midnightblue" points="583.361,-84.5429 577.833,-75.5048 576.518,-86.0177 583.361,-84.5429"/>
</g>
<!-- Node13 -->
<g id="node13" class="node"><title>Node13</title>
<polygon fill="none" stroke="#bfbfbf" points="604.5,-112.5 604.5,-131.5 645.5,-131.5 645.5,-112.5 604.5,-112.5"/>
<text text-anchor="middle" x="625" y="-119.5" font-family="Helvetica,sans-Serif" font-size="10.00">string</text>
</g>
<!-- Node12&#45;&gt;Node13 -->
<g id="edge12" class="edge"><title>Node12&#45;&gt;Node13</title>
<path fill="none" stroke="midnightblue" d="M604.439,-174.403C607.896,-165.76 613.332,-152.17 617.746,-141.134"/>
<polygon fill="midnightblue" stroke="midnightblue" points="621.103,-142.165 621.568,-131.581 614.604,-139.565 621.103,-142.165"/>
</g>
<!-- Node14&#45;&gt;Node6 -->
<g id="edge15" class="edge"><title>Node14&#45;&gt;Node6</title>
<path fill="none" stroke="midnightblue" d="M421.993,-168.966C440.276,-154.122 470.444,-130.357 498,-112 515.132,-100.587 535.275,-89.0099 550.8,-80.4566"/>
<polygon fill="midnightblue" stroke="midnightblue" points="552.696,-83.4093 559.801,-75.5502 549.346,-77.263 552.696,-83.4093"/>
</g>
<!-- Node15 -->
<g id="node15" class="node"><title>Node15</title>
<g id="a_node15"><a xlink:href="../../d2/dee/O2Device_8h.html" target="_top" xlink:title="O2Device/O2Device.h">
<polygon fill="none" stroke="black" points="328.5,-112.5 328.5,-131.5 443.5,-131.5 443.5,-112.5 328.5,-112.5"/>
<text text-anchor="middle" x="386" y="-119.5" font-family="Helvetica,sans-Serif" font-size="10.00">O2Device/O2Device.h</text>
</a>
</g>
</g>
<!-- Node14&#45;&gt;Node15 -->
<g id="edge16" class="edge"><title>Node14&#45;&gt;Node15</title>
<path fill="none" stroke="midnightblue" d="M400.497,-168.781C397.907,-160.601 394.624,-150.234 391.838,-141.434"/>
<polygon fill="midnightblue" stroke="midnightblue" points="395.12,-140.207 388.765,-131.731 388.447,-142.321 395.12,-140.207"/>
</g>
<!-- Node15&#45;&gt;Node5 -->
<g id="edge18" class="edge"><title>Node15&#45;&gt;Node5</title>
<path fill="none" stroke="midnightblue" d="M336.404,-112.444C281.001,-102.885 191.357,-87.4195 132.295,-77.2298"/>
<polygon fill="midnightblue" stroke="midnightblue" points="132.813,-73.7676 122.364,-75.5164 131.623,-80.6657 132.813,-73.7676"/>
</g>
<!-- Node15&#45;&gt;Node6 -->
<g id="edge19" class="edge"><title>Node15&#45;&gt;Node6</title>
<path fill="none" stroke="midnightblue" d="M416.106,-112.444C448.626,-103.201 500.579,-88.4356 536.391,-78.2572"/>
<polygon fill="midnightblue" stroke="midnightblue" points="537.373,-81.617 546.035,-75.5164 535.459,-74.8837 537.373,-81.617"/>
</g>
<!-- Node16 -->
<g id="node16" class="node"><title>Node16</title>
<polygon fill="none" stroke="#bfbfbf" points="411,-56.5 411,-75.5 499,-75.5 499,-56.5 411,-56.5"/>
<text text-anchor="middle" x="455" y="-63.5" font-family="Helvetica,sans-Serif" font-size="10.00">FairMQDevice.h</text>
</g>
<!-- Node15&#45;&gt;Node16 -->
<g id="edge17" class="edge"><title>Node15&#45;&gt;Node16</title>
<path fill="none" stroke="midnightblue" d="M397.086,-112.324C407.486,-104.185 423.261,-91.8395 435.722,-82.0874"/>
<polygon fill="midnightblue" stroke="midnightblue" points="437.994,-84.7533 443.712,-75.8339 433.68,-79.2407 437.994,-84.7533"/>
</g>
<!-- Node17 -->
<g id="node17" class="node"><title>Node17</title>
<polygon fill="none" stroke="#bfbfbf" points="164.5,-56.5 164.5,-75.5 315.5,-75.5 315.5,-56.5 164.5,-56.5"/>
<text text-anchor="middle" x="240" y="-63.5" font-family="Helvetica,sans-Serif" font-size="10.00">Monitoring/MonitoringFactory.h</text>
</g>
<!-- Node15&#45;&gt;Node17 -->
<g id="edge20" class="edge"><title>Node15&#45;&gt;Node17</title>
<path fill="none" stroke="midnightblue" d="M362.866,-112.444C338.518,-103.438 299.993,-89.1891 272.577,-79.049"/>
<polygon fill="midnightblue" stroke="midnightblue" points="273.619,-75.7028 263.026,-75.5164 271.191,-82.2681 273.619,-75.7028"/>
</g>
<!-- Node18 -->
<g id="node18" class="node"><title>Node18</title>
<polygon fill="none" stroke="#bfbfbf" points="333.5,-56.5 333.5,-75.5 392.5,-75.5 392.5,-56.5 333.5,-56.5"/>
<text text-anchor="middle" x="363" y="-63.5" font-family="Helvetica,sans-Serif" font-size="10.00">stdexcept</text>
</g>
<!-- Node15&#45;&gt;Node18 -->
<g id="edge21" class="edge"><title>Node15&#45;&gt;Node18</title>
<path fill="none" stroke="midnightblue" d="M382.202,-112.083C379.087,-104.77 374.577,-94.1814 370.711,-85.1034"/>
<polygon fill="midnightblue" stroke="midnightblue" points="373.866,-83.5798 366.727,-75.7511 367.426,-86.3229 373.866,-83.5798"/>
</g>
</g>
</svg>
