<?xml version="1.0" encoding="UTF-8" standalone="no"?>
<!DOCTYPE svg PUBLIC "-//W3C//DTD SVG 1.1//EN"
 "http://www.w3.org/Graphics/SVG/1.1/DTD/svg11.dtd">
<!-- Generated by graphviz version 2.36.0 (20140111.2315)
 -->
<!-- Title: /home/travis/build/AliceO2Group/AliceO2/Detectors/ITSMFT/common/simulation/include/ITSMFTSimulation/Hit.h Pages: 1 -->
<!--zoomable 352 -->
<svg id="main" version="1.1" xmlns="http://www.w3.org/2000/svg" xmlns:xlink="http://www.w3.org/1999/xlink" xml:space="preserve" onload="init(evt)">
<style type="text/css"><![CDATA[
.edge:hover path { stroke: red; }
.edge:hover polygon { stroke: red; fill: red; }
]]></style>
<script type="text/javascript"><![CDATA[
var edges = document.getElementsByTagName('g');
if (edges && edges.length) {
  for (var i=0;i<edges.length;i++) {
    if (edges[i].id.substr(0,4)=='edge') {
      edges[i].setAttribute('class','edge');
    }
  }
}
]]></script>
        <defs>
                <circle id="rim" cx="0" cy="0" r="7"/>
                <circle id="rim2" cx="0" cy="0" r="3.5"/>
                <g id="zoomPlus">
                        <use xlink:href="#rim" fill="#404040">
                                <set attributeName="fill" to="#808080" begin="zoomplus.mouseover" end="zoomplus.mouseout"/>
                        </use>
                        <path d="M-4,0h8M0,-4v8" fill="none" stroke="white" stroke-width="1.5" pointer-events="none"/>
                </g>
                <g id="zoomMin">
                        <use xlink:href="#rim" fill="#404040">
                                <set attributeName="fill" to="#808080" begin="zoomminus.mouseover" end="zoomminus.mouseout"/>
                        </use>
                        <path d="M-4,0h8" fill="none" stroke="white" stroke-width="1.5" pointer-events="none"/>
                </g>
                <g id="dirArrow">
                        <path fill="none" stroke="white" stroke-width="1.5" d="M0,-3.0v7 M-2.5,-0.5L0,-3.0L2.5,-0.5"/>
                </g>
               <g id="resetDef">
                       <use xlink:href="#rim2" fill="#404040">
                               <set attributeName="fill" to="#808080" begin="reset.mouseover" end="reset.mouseout"/>
                       </use>
               </g>
        </defs>

<script type="text/javascript">
var viewWidth = 2794;
var viewHeight = 352;
var sectionId = 'dynsection-1';
</script>
<script xlink:href="../../svgpan.js"/>
<svg id="graph" class="graph">
<g id="viewport">
<title>/home/travis/build/AliceO2Group/AliceO2/Detectors/ITSMFT/common/simulation/include/ITSMFTSimulation/Hit.h</title>
<!-- Node1 -->
<g id="node1" class="node"><title>Node1</title>
<polygon fill="#bfbfbf" stroke="black" points="1356,-291 1356,-343 1562,-343 1562,-291 1356,-291"/>
<text text-anchor="start" x="1364" y="-331" font-family="Helvetica,sans-Serif" font-size="10.00">/home/travis/build</text>
<text text-anchor="start" x="1364" y="-320" font-family="Helvetica,sans-Serif" font-size="10.00">/AliceO2Group/AliceO2</text>
<text text-anchor="start" x="1364" y="-309" font-family="Helvetica,sans-Serif" font-size="10.00">/Detectors/ITSMFT/common</text>
<text text-anchor="middle" x="1459" y="-298" font-family="Helvetica,sans-Serif" font-size="10.00">/simulation/include/ITSMFTSimulation/Hit.h</text>
</g>
<!-- Node2 -->
<g id="node2" class="node"><title>Node2</title>
<g id="a_node2"><a xlink:href="../../d1/d60/Chip_8cxx.html" target="_top" xlink:title="/home/travis/build\l/AliceO2Group/AliceO2\l/Detectors/ITSMFT/common\l/simulation/src/Chip.cxx">
<polygon fill="none" stroke="black" points="0,-196 0,-248 142,-248 142,-196 0,-196"/>
<text text-anchor="start" x="8" y="-236" font-family="Helvetica,sans-Serif" font-size="10.00">/home/travis/build</text>
<text text-anchor="start" x="8" y="-225" font-family="Helvetica,sans-Serif" font-size="10.00">/AliceO2Group/AliceO2</text>
<text text-anchor="start" x="8" y="-214" font-family="Helvetica,sans-Serif" font-size="10.00">/Detectors/ITSMFT/common</text>
<text text-anchor="middle" x="71" y="-203" font-family="Helvetica,sans-Serif" font-size="10.00">/simulation/src/Chip.cxx</text>
</a>
</g>
</g>
<!-- Node1&#45;&gt;Node2 -->
<g id="edge1" class="edge"><title>Node1&#45;&gt;Node2</title>
<path fill="none" stroke="midnightblue" d="M1345.62,-315.294C1071.24,-312.833 377.452,-301.917 151,-254 143.859,-252.489 136.522,-250.421 129.323,-248.064"/>
<polygon fill="midnightblue" stroke="midnightblue" points="1345.96,-318.797 1355.99,-315.384 1346.02,-311.797 1345.96,-318.797"/>
</g>
<!-- Node3 -->
<g id="node3" class="node"><title>Node3</title>
<g id="a_node3"><a xlink:href="../../dc/dbf/ITSMFT_2common_2simulation_2src_2Digitizer_8cxx.html" target="_top" xlink:title="/home/travis/build\l/AliceO2Group/AliceO2\l/Detectors/ITSMFT/common\l/simulation/src/Digitizer.cxx">
<polygon fill="none" stroke="black" points="160,-196 160,-248 302,-248 302,-196 160,-196"/>
<text text-anchor="start" x="168" y="-236" font-family="Helvetica,sans-Serif" font-size="10.00">/home/travis/build</text>
<text text-anchor="start" x="168" y="-225" font-family="Helvetica,sans-Serif" font-size="10.00">/AliceO2Group/AliceO2</text>
<text text-anchor="start" x="168" y="-214" font-family="Helvetica,sans-Serif" font-size="10.00">/Detectors/ITSMFT/common</text>
<text text-anchor="middle" x="231" y="-203" font-family="Helvetica,sans-Serif" font-size="10.00">/simulation/src/Digitizer.cxx</text>
</a>
</g>
</g>
<!-- Node1&#45;&gt;Node3 -->
<g id="edge2" class="edge"><title>Node1&#45;&gt;Node3</title>
<path fill="none" stroke="midnightblue" d="M1345.7,-314.412C1096.2,-310.18 505.993,-295.932 311,-254 303.864,-252.466 296.53,-250.383 289.333,-248.018"/>
<polygon fill="midnightblue" stroke="midnightblue" points="1345.82,-317.915 1355.88,-314.583 1345.94,-310.916 1345.82,-317.915"/>
</g>
<!-- Node4 -->
<g id="node4" class="node"><title>Node4</title>
<g id="a_node4"><a xlink:href="../../da/d0c/ITSMFT_2common_2simulation_2src_2Hit_8cxx.html" target="_top" xlink:title="/home/travis/build\l/AliceO2Group/AliceO2\l/Detectors/ITSMFT/common\l/simulation/src/Hit.cxx">
<polygon fill="none" stroke="black" points="320,-196 320,-248 462,-248 462,-196 320,-196"/>
<text text-anchor="start" x="328" y="-236" font-family="Helvetica,sans-Serif" font-size="10.00">/home/travis/build</text>
<text text-anchor="start" x="328" y="-225" font-family="Helvetica,sans-Serif" font-size="10.00">/AliceO2Group/AliceO2</text>
<text text-anchor="start" x="328" y="-214" font-family="Helvetica,sans-Serif" font-size="10.00">/Detectors/ITSMFT/common</text>
<text text-anchor="middle" x="391" y="-203" font-family="Helvetica,sans-Serif" font-size="10.00">/simulation/src/Hit.cxx</text>
</a>
</g>
</g>
<!-- Node1&#45;&gt;Node4 -->
<g id="edge3" class="edge"><title>Node1&#45;&gt;Node4</title>
<path fill="none" stroke="midnightblue" d="M1345.75,-313.251C1122.88,-307.125 634.774,-289.966 471,-254 464.017,-252.466 456.84,-250.418 449.787,-248.102"/>
<polygon fill="midnightblue" stroke="midnightblue" points="1345.75,-316.752 1355.84,-313.526 1345.94,-309.755 1345.75,-316.752"/>
</g>
<!-- Node5 -->
<g id="node5" class="node"><title>Node5</title>
<g id="a_node5"><a xlink:href="../../db/dd3/SimulationAlpide_8cxx.html" target="_top" xlink:title="Simulation of the ALIPIDE chip response. ">
<polygon fill="none" stroke="black" points="480.5,-196 480.5,-248 655.5,-248 655.5,-196 480.5,-196"/>
<text text-anchor="start" x="488.5" y="-236" font-family="Helvetica,sans-Serif" font-size="10.00">/home/travis/build</text>
<text text-anchor="start" x="488.5" y="-225" font-family="Helvetica,sans-Serif" font-size="10.00">/AliceO2Group/AliceO2</text>
<text text-anchor="start" x="488.5" y="-214" font-family="Helvetica,sans-Serif" font-size="10.00">/Detectors/ITSMFT/common</text>
<text text-anchor="middle" x="568" y="-203" font-family="Helvetica,sans-Serif" font-size="10.00">/simulation/src/SimulationAlpide.cxx</text>
</a>
</g>
</g>
<!-- Node1&#45;&gt;Node5 -->
<g id="edge4" class="edge"><title>Node1&#45;&gt;Node5</title>
<path fill="none" stroke="midnightblue" d="M1345.8,-315.356C1190.77,-312.621 904.314,-300.926 665,-254 656.846,-252.401 648.416,-250.344 640.087,-248.052"/>
<polygon fill="midnightblue" stroke="midnightblue" points="1345.77,-318.856 1355.82,-315.524 1345.88,-311.857 1345.77,-318.856"/>
</g>
<!-- Node6 -->
<g id="node6" class="node"><title>Node6</title>
<g id="a_node6"><a xlink:href="../../d5/de8/CheckClusters_8C.html" target="_top" xlink:title="/home/travis/build\l/AliceO2Group/AliceO2\l/Detectors/ITSMFT/ITS\l/macros/test/CheckClusters.C">
<polygon fill="none" stroke="black" points="674,-196 674,-248 824,-248 824,-196 674,-196"/>
<text text-anchor="start" x="682" y="-236" font-family="Helvetica,sans-Serif" font-size="10.00">/home/travis/build</text>
<text text-anchor="start" x="682" y="-225" font-family="Helvetica,sans-Serif" font-size="10.00">/AliceO2Group/AliceO2</text>
<text text-anchor="start" x="682" y="-214" font-family="Helvetica,sans-Serif" font-size="10.00">/Detectors/ITSMFT/ITS</text>
<text text-anchor="middle" x="749" y="-203" font-family="Helvetica,sans-Serif" font-size="10.00">/macros/test/CheckClusters.C</text>
</a>
</g>
</g>
<!-- Node1&#45;&gt;Node6 -->
<g id="edge5" class="edge"><title>Node1&#45;&gt;Node6</title>
<path fill="none" stroke="midnightblue" d="M1345.9,-313.283C1219.65,-308.294 1009.96,-294.142 834,-254 826.955,-252.393 819.698,-250.362 812.532,-248.113"/>
<polygon fill="midnightblue" stroke="midnightblue" points="1345.85,-316.784 1355.97,-313.669 1346.12,-309.789 1345.85,-316.784"/>
</g>
<!-- Node7 -->
<g id="node7" class="node"><title>Node7</title>
<g id="a_node7"><a xlink:href="../../d9/dd0/CheckDigits_8C.html" target="_top" xlink:title="Simple macro to check ITSU clusters. ">
<polygon fill="none" stroke="black" points="842.5,-196 842.5,-248 981.5,-248 981.5,-196 842.5,-196"/>
<text text-anchor="start" x="850.5" y="-236" font-family="Helvetica,sans-Serif" font-size="10.00">/home/travis/build</text>
<text text-anchor="start" x="850.5" y="-225" font-family="Helvetica,sans-Serif" font-size="10.00">/AliceO2Group/AliceO2</text>
<text text-anchor="start" x="850.5" y="-214" font-family="Helvetica,sans-Serif" font-size="10.00">/Detectors/ITSMFT/ITS</text>
<text text-anchor="middle" x="912" y="-203" font-family="Helvetica,sans-Serif" font-size="10.00">/macros/test/CheckDigits.C</text>
</a>
</g>
</g>
<!-- Node1&#45;&gt;Node7 -->
<g id="edge6" class="edge"><title>Node1&#45;&gt;Node7</title>
<path fill="none" stroke="midnightblue" d="M1345.85,-308.722C1250.14,-300.741 1109.99,-284.741 991,-254 984.581,-252.342 977.977,-250.308 971.453,-248.083"/>
<polygon fill="midnightblue" stroke="midnightblue" points="1345.59,-312.212 1355.84,-309.539 1346.16,-305.235 1345.59,-312.212"/>
</g>
<!-- Node8 -->
<g id="node8" class="node"><title>Node8</title>
<g id="a_node8"><a xlink:href="../../d9/db4/CheckTopologies_8C.html" target="_top" xlink:title="/home/travis/build\l/AliceO2Group/AliceO2\l/Detectors/ITSMFT/ITS\l/macros/test/CheckTopologies.C">
<polygon fill="none" stroke="black" points="999.5,-196 999.5,-248 1160.5,-248 1160.5,-196 999.5,-196"/>
<text text-anchor="start" x="1007.5" y="-236" font-family="Helvetica,sans-Serif" font-size="10.00">/home/travis/build</text>
<text text-anchor="start" x="1007.5" y="-225" font-family="Helvetica,sans-Serif" font-size="10.00">/AliceO2Group/AliceO2</text>
<text text-anchor="start" x="1007.5" y="-214" font-family="Helvetica,sans-Serif" font-size="10.00">/Detectors/ITSMFT/ITS</text>
<text text-anchor="middle" x="1080" y="-203" font-family="Helvetica,sans-Serif" font-size="10.00">/macros/test/CheckTopologies.C</text>
</a>
</g>
</g>
<!-- Node1&#45;&gt;Node8 -->
<g id="edge7" class="edge"><title>Node1&#45;&gt;Node8</title>
<path fill="none" stroke="midnightblue" d="M1346.06,-295.051C1292.35,-284.256 1227.48,-270.001 1170,-254 1163.47,-252.183 1156.73,-250.152 1150,-248.024"/>
<polygon fill="midnightblue" stroke="midnightblue" points="1345.46,-298.5 1355.95,-297.026 1346.83,-291.636 1345.46,-298.5"/>
</g>
<!-- Node9 -->
<g id="node9" class="node"><title>Node9</title>
<g id="a_node9"><a xlink:href="../../d5/df6/DisplayTrack_8C.html" target="_top" xlink:title="Simple macro to display ITSU tracks. ">
<polygon fill="none" stroke="black" points="1178.5,-196 1178.5,-248 1321.5,-248 1321.5,-196 1178.5,-196"/>
<text text-anchor="start" x="1186.5" y="-236" font-family="Helvetica,sans-Serif" font-size="10.00">/home/travis/build</text>
<text text-anchor="start" x="1186.5" y="-225" font-family="Helvetica,sans-Serif" font-size="10.00">/AliceO2Group/AliceO2</text>
<text text-anchor="start" x="1186.5" y="-214" font-family="Helvetica,sans-Serif" font-size="10.00">/Detectors/ITSMFT/ITS</text>
<text text-anchor="middle" x="1250" y="-203" font-family="Helvetica,sans-Serif" font-size="10.00">/macros/test/DisplayTrack.C</text>
</a>
</g>
</g>
<!-- Node1&#45;&gt;Node9 -->
<g id="edge8" class="edge"><title>Node1&#45;&gt;Node9</title>
<path fill="none" stroke="midnightblue" d="M1393.42,-286.82C1365.49,-274.39 1333.23,-260.034 1306.38,-248.089"/>
<polygon fill="midnightblue" stroke="midnightblue" points="1392.16,-290.088 1402.72,-290.955 1395,-283.692 1392.16,-290.088"/>
</g>
<!-- Node10 -->
<g id="node10" class="node"><title>Node10</title>
<g id="a_node10"><a xlink:href="../../d6/d8d/ITSMFT_2ITS_2simulation_2include_2ITSSimulation_2Detector_8h.html" target="_top" xlink:title="/home/travis/build\l/AliceO2Group/AliceO2\l/Detectors/ITSMFT/ITS\l/simulation/include/ITSSimulation\l/Detector.h">
<polygon fill="none" stroke="black" points="1378,-190.5 1378,-253.5 1540,-253.5 1540,-190.5 1378,-190.5"/>
<text text-anchor="start" x="1386" y="-241.5" font-family="Helvetica,sans-Serif" font-size="10.00">/home/travis/build</text>
<text text-anchor="start" x="1386" y="-230.5" font-family="Helvetica,sans-Serif" font-size="10.00">/AliceO2Group/AliceO2</text>
<text text-anchor="start" x="1386" y="-219.5" font-family="Helvetica,sans-Serif" font-size="10.00">/Detectors/ITSMFT/ITS</text>
<text text-anchor="start" x="1386" y="-208.5" font-family="Helvetica,sans-Serif" font-size="10.00">/simulation/include/ITSSimulation</text>
<text text-anchor="middle" x="1459" y="-197.5" font-family="Helvetica,sans-Serif" font-size="10.00">/Detector.h</text>
</a>
</g>
</g>
<!-- Node1&#45;&gt;Node10 -->
<g id="edge9" class="edge"><title>Node1&#45;&gt;Node10</title>
<path fill="none" stroke="midnightblue" d="M1459,-280.541C1459,-271.691 1459,-262.274 1459,-253.677"/>
<polygon fill="midnightblue" stroke="midnightblue" points="1455.5,-280.587 1459,-290.587 1462.5,-280.587 1455.5,-280.587"/>
</g>
<!-- Node14 -->
<g id="node14" class="node"><title>Node14</title>
<g id="a_node14"><a xlink:href="../../d9/d0d/ITSMFT_2ITS_2simulation_2src_2Detector_8cxx.html" target="_top" xlink:title="/home/travis/build\l/AliceO2Group/AliceO2\l/Detectors/ITSMFT/ITS\l/simulation/src/Detector.cxx">
<polygon fill="none" stroke="black" points="928,-1 928,-53 1068,-53 1068,-1 928,-1"/>
<text text-anchor="start" x="936" y="-41" font-family="Helvetica,sans-Serif" font-size="10.00">/home/travis/build</text>
<text text-anchor="start" x="936" y="-30" font-family="Helvetica,sans-Serif" font-size="10.00">/AliceO2Group/AliceO2</text>
<text text-anchor="start" x="936" y="-19" font-family="Helvetica,sans-Serif" font-size="10.00">/Detectors/ITSMFT/ITS</text>
<text text-anchor="middle" x="998" y="-8" font-family="Helvetica,sans-Serif" font-size="10.00">/simulation/src/Detector.cxx</text>
</a>
</g>
</g>
<!-- Node1&#45;&gt;Node14 -->
<g id="edge26" class="edge"><title>Node1&#45;&gt;Node14</title>
<path fill="none" stroke="midnightblue" d="M1406.39,-285.222C1393.3,-276.153 1379.91,-265.535 1369,-254 1346.11,-229.797 1358.15,-207.812 1330,-190 1265.42,-149.136 1039.13,-210.795 988,-154 963.481,-126.765 975.207,-81.4434 986.324,-53.2227"/>
<polygon fill="midnightblue" stroke="midnightblue" points="1404.66,-288.279 1414.91,-290.951 1408.56,-282.469 1404.66,-288.279"/>
</g>
<!-- Node19 -->
<g id="node19" class="node"><title>Node19</title>
<g id="a_node19"><a xlink:href="../../d9/d51/ITSMFT_2ITS_2simulation_2include_2ITSSimulation_2DigitizerTask_8h.html" target="_top" xlink:title="/home/travis/build\l/AliceO2Group/AliceO2\l/Detectors/ITSMFT/ITS\l/simulation/include/ITSSimulation\l/DigitizerTask.h">
<polygon fill="none" stroke="black" points="1693,-190.5 1693,-253.5 1855,-253.5 1855,-190.5 1693,-190.5"/>
<text text-anchor="start" x="1701" y="-241.5" font-family="Helvetica,sans-Serif" font-size="10.00">/home/travis/build</text>
<text text-anchor="start" x="1701" y="-230.5" font-family="Helvetica,sans-Serif" font-size="10.00">/AliceO2Group/AliceO2</text>
<text text-anchor="start" x="1701" y="-219.5" font-family="Helvetica,sans-Serif" font-size="10.00">/Detectors/ITSMFT/ITS</text>
<text text-anchor="start" x="1701" y="-208.5" font-family="Helvetica,sans-Serif" font-size="10.00">/simulation/include/ITSSimulation</text>
<text text-anchor="middle" x="1774" y="-197.5" font-family="Helvetica,sans-Serif" font-size="10.00">/DigitizerTask.h</text>
</a>
</g>
</g>
<!-- Node1&#45;&gt;Node19 -->
<g id="edge21" class="edge"><title>Node1&#45;&gt;Node19</title>
<path fill="none" stroke="midnightblue" d="M1553.46,-288.111C1597.85,-275.005 1650.25,-259.537 1692.82,-246.966"/>
<polygon fill="midnightblue" stroke="midnightblue" points="1552.43,-284.767 1543.83,-290.955 1554.41,-291.481 1552.43,-284.767"/>
</g>
<!-- Node20 -->
<g id="node20" class="node"><title>Node20</title>
<g id="a_node20"><a xlink:href="../../da/d29/ITSMFT_2ITS_2simulation_2src_2DigitizerTask_8cxx.html" target="_top" xlink:title="/home/travis/build\l/AliceO2Group/AliceO2\l/Detectors/ITSMFT/ITS\l/simulation/src/DigitizerTask.cxx">
<polygon fill="none" stroke="black" points="1694,-96 1694,-148 1854,-148 1854,-96 1694,-96"/>
<text text-anchor="start" x="1702" y="-136" font-family="Helvetica,sans-Serif" font-size="10.00">/home/travis/build</text>
<text text-anchor="start" x="1702" y="-125" font-family="Helvetica,sans-Serif" font-size="10.00">/AliceO2Group/AliceO2</text>
<text text-anchor="start" x="1702" y="-114" font-family="Helvetica,sans-Serif" font-size="10.00">/Detectors/ITSMFT/ITS</text>
<text text-anchor="middle" x="1774" y="-103" font-family="Helvetica,sans-Serif" font-size="10.00">/simulation/src/DigitizerTask.cxx</text>
</a>
</g>
</g>
<!-- Node1&#45;&gt;Node20 -->
<g id="edge27" class="edge"><title>Node1&#45;&gt;Node20</title>
<path fill="none" stroke="midnightblue" d="M1508.68,-285.564C1570.62,-247.612 1675.35,-183.441 1732.96,-148.142"/>
<polygon fill="midnightblue" stroke="midnightblue" points="1506.56,-282.758 1499.86,-290.966 1510.21,-288.726 1506.56,-282.758"/>
</g>
<!-- Node24 -->
<g id="node24" class="node"><title>Node24</title>
<g id="a_node24"><a xlink:href="../../d5/d9e/ITSMFT_2MFT_2simulation_2include_2MFTSimulation_2Detector_8h.html" target="_top" xlink:title="/home/travis/build\l/AliceO2Group/AliceO2\l/Detectors/ITSMFT/MFT\l/simulation/include/MFTSimulation\l/Detector.h">
<polygon fill="none" stroke="black" points="1910.5,-190.5 1910.5,-253.5 2077.5,-253.5 2077.5,-190.5 1910.5,-190.5"/>
<text text-anchor="start" x="1918.5" y="-241.5" font-family="Helvetica,sans-Serif" font-size="10.00">/home/travis/build</text>
<text text-anchor="start" x="1918.5" y="-230.5" font-family="Helvetica,sans-Serif" font-size="10.00">/AliceO2Group/AliceO2</text>
<text text-anchor="start" x="1918.5" y="-219.5" font-family="Helvetica,sans-Serif" font-size="10.00">/Detectors/ITSMFT/MFT</text>
<text text-anchor="start" x="1918.5" y="-208.5" font-family="Helvetica,sans-Serif" font-size="10.00">/simulation/include/MFTSimulation</text>
<text text-anchor="middle" x="1994" y="-197.5" font-family="Helvetica,sans-Serif" font-size="10.00">/Detector.h</text>
</a>
</g>
</g>
<!-- Node1&#45;&gt;Node24 -->
<g id="edge28" class="edge"><title>Node1&#45;&gt;Node24</title>
<path fill="none" stroke="midnightblue" d="M1572.23,-305.278C1661.24,-295.579 1787.97,-278.951 1897,-254 1901.39,-252.994 1905.88,-251.881 1910.38,-250.693"/>
<polygon fill="midnightblue" stroke="midnightblue" points="1571.68,-301.818 1562.11,-306.369 1572.43,-308.777 1571.68,-301.818"/>
</g>
<!-- Node25 -->
<g id="node25" class="node"><title>Node25</title>
<g id="a_node25"><a xlink:href="../../d0/d6b/ITSMFT_2MFT_2simulation_2src_2Detector_8cxx.html" target="_top" xlink:title="/home/travis/build\l/AliceO2Group/AliceO2\l/Detectors/ITSMFT/MFT\l/simulation/src/Detector.cxx">
<polygon fill="none" stroke="black" points="2280,-96 2280,-148 2420,-148 2420,-96 2280,-96"/>
<text text-anchor="start" x="2288" y="-136" font-family="Helvetica,sans-Serif" font-size="10.00">/home/travis/build</text>
<text text-anchor="start" x="2288" y="-125" font-family="Helvetica,sans-Serif" font-size="10.00">/AliceO2Group/AliceO2</text>
<text text-anchor="start" x="2288" y="-114" font-family="Helvetica,sans-Serif" font-size="10.00">/Detectors/ITSMFT/MFT</text>
<text text-anchor="middle" x="2350" y="-103" font-family="Helvetica,sans-Serif" font-size="10.00">/simulation/src/Detector.cxx</text>
</a>
</g>
</g>
<!-- Node1&#45;&gt;Node25 -->
<g id="edge31" class="edge"><title>Node1&#45;&gt;Node25</title>
<path fill="none" stroke="midnightblue" d="M1572.57,-309.404C1675.39,-301.525 1817.63,-285.278 1864,-254 1891.42,-235.501 1874.08,-207.743 1902,-190 1971.54,-145.81 2190.89,-173.232 2271,-154 2277.73,-152.384 2284.66,-150.316 2291.47,-148.017"/>
<polygon fill="midnightblue" stroke="midnightblue" points="1572.15,-305.926 1562.44,-310.164 1572.67,-312.907 1572.15,-305.926"/>
</g>
<!-- Node27 -->
<g id="node27" class="node"><title>Node27</title>
<g id="a_node27"><a xlink:href="../../d6/d87/ITSMFT_2MFT_2simulation_2src_2DigitizerTask_8cxx.html" target="_top" xlink:title="/home/travis/build\l/AliceO2Group/AliceO2\l/Detectors/ITSMFT/MFT\l/simulation/src/DigitizerTask.cxx">
<polygon fill="none" stroke="black" points="2096,-196 2096,-248 2256,-248 2256,-196 2096,-196"/>
<text text-anchor="start" x="2104" y="-236" font-family="Helvetica,sans-Serif" font-size="10.00">/home/travis/build</text>
<text text-anchor="start" x="2104" y="-225" font-family="Helvetica,sans-Serif" font-size="10.00">/AliceO2Group/AliceO2</text>
<text text-anchor="start" x="2104" y="-214" font-family="Helvetica,sans-Serif" font-size="10.00">/Detectors/ITSMFT/MFT</text>
<text text-anchor="middle" x="2176" y="-203" font-family="Helvetica,sans-Serif" font-size="10.00">/simulation/src/DigitizerTask.cxx</text>
</a>
</g>
</g>
<!-- Node1&#45;&gt;Node27 -->
<g id="edge32" class="edge"><title>Node1&#45;&gt;Node27</title>
<path fill="none" stroke="midnightblue" d="M1572.32,-312.725C1698.86,-307.241 1909.12,-292.652 2086,-254 2093.43,-252.377 2101.09,-250.337 2108.67,-248.081"/>
<polygon fill="midnightblue" stroke="midnightblue" points="1572.07,-309.232 1562.23,-313.151 1572.37,-316.226 1572.07,-309.232"/>
</g>
<!-- Node28 -->
<g id="node28" class="node"><title>Node28</title>
<g id="a_node28"><a xlink:href="../../da/d9d/HitAnalysis_8h.html" target="_top" xlink:title="/home/travis/build\l/AliceO2Group/AliceO2\l/Detectors/ITSMFT/test\l/HitAnalysis/include/HitAnalysis\l/HitAnalysis.h">
<polygon fill="none" stroke="black" points="2274.5,-190.5 2274.5,-253.5 2431.5,-253.5 2431.5,-190.5 2274.5,-190.5"/>
<text text-anchor="start" x="2282.5" y="-241.5" font-family="Helvetica,sans-Serif" font-size="10.00">/home/travis/build</text>
<text text-anchor="start" x="2282.5" y="-230.5" font-family="Helvetica,sans-Serif" font-size="10.00">/AliceO2Group/AliceO2</text>
<text text-anchor="start" x="2282.5" y="-219.5" font-family="Helvetica,sans-Serif" font-size="10.00">/Detectors/ITSMFT/test</text>
<text text-anchor="start" x="2282.5" y="-208.5" font-family="Helvetica,sans-Serif" font-size="10.00">/HitAnalysis/include/HitAnalysis</text>
<text text-anchor="middle" x="2353" y="-197.5" font-family="Helvetica,sans-Serif" font-size="10.00">/HitAnalysis.h</text>
</a>
</g>
</g>
<!-- Node1&#45;&gt;Node28 -->
<g id="edge33" class="edge"><title>Node1&#45;&gt;Node28</title>
<path fill="none" stroke="midnightblue" d="M1572.16,-316.57C1729.31,-315.272 2021.78,-305.265 2265,-254 2268.01,-253.365 2271.06,-252.654 2274.13,-251.881"/>
<polygon fill="midnightblue" stroke="midnightblue" points="1571.98,-313.072 1562,-316.644 1572.03,-320.071 1571.98,-313.072"/>
</g>
<!-- Node29 -->
<g id="node29" class="node"><title>Node29</title>
<g id="a_node29"><a xlink:href="../../d7/d4c/HitAnalysis_8cxx.html" target="_top" xlink:title="/home/travis/build\l/AliceO2Group/AliceO2\l/Detectors/ITSMFT/test\l/HitAnalysis/src/HitAnalysis.cxx">
<polygon fill="none" stroke="black" points="2574,-96 2574,-148 2732,-148 2732,-96 2574,-96"/>
<text text-anchor="start" x="2582" y="-136" font-family="Helvetica,sans-Serif" font-size="10.00">/home/travis/build</text>
<text text-anchor="start" x="2582" y="-125" font-family="Helvetica,sans-Serif" font-size="10.00">/AliceO2Group/AliceO2</text>
<text text-anchor="start" x="2582" y="-114" font-family="Helvetica,sans-Serif" font-size="10.00">/Detectors/ITSMFT/test</text>
<text text-anchor="middle" x="2653" y="-103" font-family="Helvetica,sans-Serif" font-size="10.00">/HitAnalysis/src/HitAnalysis.cxx</text>
</a>
</g>
</g>
<!-- Node1&#45;&gt;Node29 -->
<g id="edge35" class="edge"><title>Node1&#45;&gt;Node29</title>
<path fill="none" stroke="midnightblue" d="M1572.34,-314.615C1814.65,-310.828 2367.07,-297.483 2440,-254 2468.81,-236.822 2454.15,-211.373 2480,-190 2488.56,-182.92 2538.17,-164.003 2582.07,-148.069"/>
<polygon fill="midnightblue" stroke="midnightblue" points="1572.04,-311.119 1562.09,-314.772 1572.14,-318.118 1572.04,-311.119"/>
</g>
<!-- Node30 -->
<g id="node30" class="node"><title>Node30</title>
<g id="a_node30"><a xlink:href="../../d4/d77/CheckClusters__mft_8C.html" target="_top" xlink:title="Simple macro to check MFT clusters. ">
<polygon fill="none" stroke="black" points="2488.5,-201.5 2488.5,-242.5 2633.5,-242.5 2633.5,-201.5 2488.5,-201.5"/>
<text text-anchor="start" x="2496.5" y="-230.5" font-family="Helvetica,sans-Serif" font-size="10.00">/home/travis/build</text>
<text text-anchor="start" x="2496.5" y="-219.5" font-family="Helvetica,sans-Serif" font-size="10.00">/AliceO2Group/AliceO2</text>
<text text-anchor="middle" x="2561" y="-208.5" font-family="Helvetica,sans-Serif" font-size="10.00">/macro/CheckClusters_mft.C</text>
</a>
</g>
</g>
<!-- Node1&#45;&gt;Node30 -->
<g id="edge36" class="edge"><title>Node1&#45;&gt;Node30</title>
<path fill="none" stroke="midnightblue" d="M1572.67,-313.076C1800.27,-306.562 2304.61,-288.628 2474,-254 2487.2,-251.302 2501.1,-247.037 2513.82,-242.524"/>
<polygon fill="midnightblue" stroke="midnightblue" points="1572.27,-309.586 1562.37,-313.369 1572.47,-316.583 1572.27,-309.586"/>
</g>
<!-- Node31 -->
<g id="node31" class="node"><title>Node31</title>
<g id="a_node31"><a xlink:href="../../d1/d88/CheckDigits__mft_8C.html" target="_top" xlink:title="Simple macro to check MFT digits. ">
<polygon fill="none" stroke="black" points="2652,-201.5 2652,-242.5 2786,-242.5 2786,-201.5 2652,-201.5"/>
<text text-anchor="start" x="2660" y="-230.5" font-family="Helvetica,sans-Serif" font-size="10.00">/home/travis/build</text>
<text text-anchor="start" x="2660" y="-219.5" font-family="Helvetica,sans-Serif" font-size="10.00">/AliceO2Group/AliceO2</text>
<text text-anchor="middle" x="2719" y="-208.5" font-family="Helvetica,sans-Serif" font-size="10.00">/macro/CheckDigits_mft.C</text>
</a>
</g>
</g>
<!-- Node1&#45;&gt;Node31 -->
<g id="edge37" class="edge"><title>Node1&#45;&gt;Node31</title>
<path fill="none" stroke="midnightblue" d="M1572.1,-314.813C1827.11,-311.367 2440.36,-298.572 2642,-254 2653.82,-251.387 2666.17,-247.151 2677.44,-242.639"/>
<polygon fill="midnightblue" stroke="midnightblue" points="1572.03,-311.313 1562.07,-314.946 1572.12,-318.313 1572.03,-311.313"/>
</g>
<!-- Node11 -->
<g id="node11" class="node"><title>Node11</title>
<g id="a_node11"><a xlink:href="../../d0/d25/V1Layer_8h.html" target="_top" xlink:title="/home/travis/build\l/AliceO2Group/AliceO2\l/Detectors/ITSMFT/ITS\l/simulation/include/ITSSimulation\l/V1Layer.h">
<polygon fill="none" stroke="black" points="732,-90.5 732,-153.5 894,-153.5 894,-90.5 732,-90.5"/>
<text text-anchor="start" x="740" y="-141.5" font-family="Helvetica,sans-Serif" font-size="10.00">/home/travis/build</text>
<text text-anchor="start" x="740" y="-130.5" font-family="Helvetica,sans-Serif" font-size="10.00">/AliceO2Group/AliceO2</text>
<text text-anchor="start" x="740" y="-119.5" font-family="Helvetica,sans-Serif" font-size="10.00">/Detectors/ITSMFT/ITS</text>
<text text-anchor="start" x="740" y="-108.5" font-family="Helvetica,sans-Serif" font-size="10.00">/simulation/include/ITSSimulation</text>
<text text-anchor="middle" x="813" y="-97.5" font-family="Helvetica,sans-Serif" font-size="10.00">/V1Layer.h</text>
</a>
</g>
</g>
<!-- Node10&#45;&gt;Node11 -->
<g id="edge10" class="edge"><title>Node10&#45;&gt;Node11</title>
<path fill="none" stroke="midnightblue" d="M1367.75,-197.372C1355.13,-194.602 1342.28,-192.041 1330,-190 1160.9,-161.903 1115.19,-181.519 946,-154 929.151,-151.26 911.259,-147.608 894.243,-143.776"/>
<polygon fill="midnightblue" stroke="midnightblue" points="1367.29,-200.855 1377.81,-199.633 1368.82,-194.026 1367.29,-200.855"/>
</g>
<!-- Node12 -->
<g id="node12" class="node"><title>Node12</title>
<g id="a_node12"><a xlink:href="../../d5/dda/V1Layer_8cxx.html" target="_top" xlink:title="Implementation of the V1Layer class. ">
<polygon fill="none" stroke="black" points="758,-1 758,-53 896,-53 896,-1 758,-1"/>
<text text-anchor="start" x="766" y="-41" font-family="Helvetica,sans-Serif" font-size="10.00">/home/travis/build</text>
<text text-anchor="start" x="766" y="-30" font-family="Helvetica,sans-Serif" font-size="10.00">/AliceO2Group/AliceO2</text>
<text text-anchor="start" x="766" y="-19" font-family="Helvetica,sans-Serif" font-size="10.00">/Detectors/ITSMFT/ITS</text>
<text text-anchor="middle" x="827" y="-8" font-family="Helvetica,sans-Serif" font-size="10.00">/simulation/src/V1Layer.cxx</text>
</a>
</g>
</g>
<!-- Node10&#45;&gt;Node12 -->
<g id="edge16" class="edge"><title>Node10&#45;&gt;Node12</title>
<path fill="none" stroke="midnightblue" d="M1367.73,-197.503C1355.11,-194.712 1342.27,-192.111 1330,-190 1179.37,-164.088 1129.68,-211.324 988,-154 980.535,-150.98 902.727,-88.9071 858.073,-53.0347"/>
<polygon fill="midnightblue" stroke="midnightblue" points="1367.26,-200.986 1377.79,-199.776 1368.81,-194.158 1367.26,-200.986"/>
</g>
<!-- Node13 -->
<g id="node13" class="node"><title>Node13</title>
<g id="a_node13"><a xlink:href="../../db/d28/V3Layer_8h.html" target="_top" xlink:title="Definition of the V3Layer class. ">
<polygon fill="none" stroke="black" points="1026,-90.5 1026,-153.5 1188,-153.5 1188,-90.5 1026,-90.5"/>
<text text-anchor="start" x="1034" y="-141.5" font-family="Helvetica,sans-Serif" font-size="10.00">/home/travis/build</text>
<text text-anchor="start" x="1034" y="-130.5" font-family="Helvetica,sans-Serif" font-size="10.00">/AliceO2Group/AliceO2</text>
<text text-anchor="start" x="1034" y="-119.5" font-family="Helvetica,sans-Serif" font-size="10.00">/Detectors/ITSMFT/ITS</text>
<text text-anchor="start" x="1034" y="-108.5" font-family="Helvetica,sans-Serif" font-size="10.00">/simulation/include/ITSSimulation</text>
<text text-anchor="middle" x="1107" y="-97.5" font-family="Helvetica,sans-Serif" font-size="10.00">/V3Layer.h</text>
</a>
</g>
</g>
<!-- Node10&#45;&gt;Node13 -->
<g id="edge12" class="edge"><title>Node10&#45;&gt;Node13</title>
<path fill="none" stroke="midnightblue" d="M1367.84,-191.062C1366.55,-190.702 1365.27,-190.348 1364,-190 1292.86,-170.537 1273.14,-173.463 1202,-154 1197.48,-152.764 1192.86,-151.444 1188.21,-150.071"/>
<polygon fill="midnightblue" stroke="midnightblue" points="1367.22,-194.526 1377.79,-193.929 1369.15,-187.799 1367.22,-194.526"/>
</g>
<!-- Node10&#45;&gt;Node14 -->
<g id="edge15" class="edge"><title>Node10&#45;&gt;Node14</title>
<path fill="none" stroke="midnightblue" d="M1367.89,-190.854C1366.58,-190.559 1365.29,-190.274 1364,-190 1288.17,-173.885 1073.07,-207.535 1017,-154 990.039,-128.259 990.338,-81.8164 993.692,-53.0758"/>
<polygon fill="midnightblue" stroke="midnightblue" points="1367.4,-194.338 1377.95,-193.299 1369.06,-187.536 1367.4,-194.338"/>
</g>
<!-- Node15 -->
<g id="node15" class="node"><title>Node15</title>
<g id="a_node15"><a xlink:href="../../d9/d7c/V3Layer_8cxx.html" target="_top" xlink:title="Implementation of the V3Layer class. ">
<polygon fill="none" stroke="black" points="1116,-1 1116,-53 1254,-53 1254,-1 1116,-1"/>
<text text-anchor="start" x="1124" y="-41" font-family="Helvetica,sans-Serif" font-size="10.00">/home/travis/build</text>
<text text-anchor="start" x="1124" y="-30" font-family="Helvetica,sans-Serif" font-size="10.00">/AliceO2Group/AliceO2</text>
<text text-anchor="start" x="1124" y="-19" font-family="Helvetica,sans-Serif" font-size="10.00">/Detectors/ITSMFT/ITS</text>
<text text-anchor="middle" x="1185" y="-8" font-family="Helvetica,sans-Serif" font-size="10.00">/simulation/src/V3Layer.cxx</text>
</a>
</g>
</g>
<!-- Node10&#45;&gt;Node15 -->
<g id="edge17" class="edge"><title>Node10&#45;&gt;Node15</title>
<path fill="none" stroke="midnightblue" d="M1368.31,-191.316C1366.86,-190.872 1365.43,-190.433 1364,-190 1307.45,-172.83 1280.03,-193.417 1236,-154 1206.46,-127.556 1193.73,-81.5559 1188.46,-53.0558"/>
<polygon fill="midnightblue" stroke="midnightblue" points="1367.38,-194.691 1377.96,-194.309 1369.45,-188.005 1367.38,-194.691"/>
</g>
<!-- Node16 -->
<g id="node16" class="node"><title>Node16</title>
<g id="a_node16"><a xlink:href="../../dd/d2b/o2__sim__its__ALP3_8cxx.html" target="_top" xlink:title="/home/travis/build\l/AliceO2Group/AliceO2\l/Framework/TestWorkflows\l/src/o2_sim_its_ALP3.cxx">
<polygon fill="none" stroke="black" points="1244.5,-96 1244.5,-148 1381.5,-148 1381.5,-96 1244.5,-96"/>
<text text-anchor="start" x="1252.5" y="-136" font-family="Helvetica,sans-Serif" font-size="10.00">/home/travis/build</text>
<text text-anchor="start" x="1252.5" y="-125" font-family="Helvetica,sans-Serif" font-size="10.00">/AliceO2Group/AliceO2</text>
<text text-anchor="start" x="1252.5" y="-114" font-family="Helvetica,sans-Serif" font-size="10.00">/Framework/TestWorkflows</text>
<text text-anchor="middle" x="1313" y="-103" font-family="Helvetica,sans-Serif" font-size="10.00">/src/o2_sim_its_ALP3.cxx</text>
</a>
</g>
</g>
<!-- Node10&#45;&gt;Node16 -->
<g id="edge18" class="edge"><title>Node10&#45;&gt;Node16</title>
<path fill="none" stroke="midnightblue" d="M1404.5,-184.415C1386.45,-172.299 1366.78,-159.1 1350.32,-148.054"/>
<polygon fill="midnightblue" stroke="midnightblue" points="1402.95,-187.594 1413.21,-190.261 1406.85,-181.782 1402.95,-187.594"/>
</g>
<!-- Node17 -->
<g id="node17" class="node"><title>Node17</title>
<g id="a_node17"><a xlink:href="../../d9/d71/run__sim_8C.html" target="_top" xlink:title="/home/travis/build\l/AliceO2Group/AliceO2\l/macro/run_sim.C">
<polygon fill="none" stroke="black" points="1400,-101.5 1400,-142.5 1518,-142.5 1518,-101.5 1400,-101.5"/>
<text text-anchor="start" x="1408" y="-130.5" font-family="Helvetica,sans-Serif" font-size="10.00">/home/travis/build</text>
<text text-anchor="start" x="1408" y="-119.5" font-family="Helvetica,sans-Serif" font-size="10.00">/AliceO2Group/AliceO2</text>
<text text-anchor="middle" x="1459" y="-108.5" font-family="Helvetica,sans-Serif" font-size="10.00">/macro/run_sim.C</text>
</a>
</g>
</g>
<!-- Node10&#45;&gt;Node17 -->
<g id="edge19" class="edge"><title>Node10&#45;&gt;Node17</title>
<path fill="none" stroke="midnightblue" d="M1459,-180.074C1459,-167.072 1459,-153.29 1459,-142.527"/>
<polygon fill="midnightblue" stroke="midnightblue" points="1455.5,-180.261 1459,-190.261 1462.5,-180.261 1455.5,-180.261"/>
</g>
<!-- Node18 -->
<g id="node18" class="node"><title>Node18</title>
<g id="a_node18"><a xlink:href="../../d5/dd2/run__sim__its__ALP3_8C.html" target="_top" xlink:title="/home/travis/build\l/AliceO2Group/AliceO2\l/macro/run_sim_its_ALP3.C">
<polygon fill="none" stroke="black" points="1536,-101.5 1536,-142.5 1676,-142.5 1676,-101.5 1536,-101.5"/>
<text text-anchor="start" x="1544" y="-130.5" font-family="Helvetica,sans-Serif" font-size="10.00">/home/travis/build</text>
<text text-anchor="start" x="1544" y="-119.5" font-family="Helvetica,sans-Serif" font-size="10.00">/AliceO2Group/AliceO2</text>
<text text-anchor="middle" x="1606" y="-108.5" font-family="Helvetica,sans-Serif" font-size="10.00">/macro/run_sim_its_ALP3.C</text>
</a>
</g>
</g>
<!-- Node10&#45;&gt;Node18 -->
<g id="edge20" class="edge"><title>Node10&#45;&gt;Node18</title>
<path fill="none" stroke="midnightblue" d="M1513.5,-184.669C1534.92,-170.389 1558.65,-154.569 1576.71,-142.527"/>
<polygon fill="midnightblue" stroke="midnightblue" points="1511.49,-181.802 1505.11,-190.261 1515.37,-187.626 1511.49,-181.802"/>
</g>
<!-- Node11&#45;&gt;Node12 -->
<g id="edge11" class="edge"><title>Node11&#45;&gt;Node12</title>
<path fill="none" stroke="midnightblue" d="M819.155,-80.1125C820.539,-70.9165 821.969,-61.4234 823.221,-53.1001"/>
<polygon fill="midnightblue" stroke="midnightblue" points="815.651,-79.881 817.623,-90.2906 822.573,-80.923 815.651,-79.881"/>
</g>
<!-- Node13&#45;&gt;Node14 -->
<g id="edge13" class="edge"><title>Node13&#45;&gt;Node14</title>
<path fill="none" stroke="midnightblue" d="M1063.23,-83.6542C1051.19,-73.3858 1038.43,-62.4973 1027.42,-53.1001"/>
<polygon fill="midnightblue" stroke="midnightblue" points="1061.13,-86.4625 1071.01,-90.2906 1065.67,-81.1373 1061.13,-86.4625"/>
</g>
<!-- Node13&#45;&gt;Node15 -->
<g id="edge14" class="edge"><title>Node13&#45;&gt;Node15</title>
<path fill="none" stroke="midnightblue" d="M1139.31,-82.4781C1147.63,-72.5584 1156.37,-62.1393 1163.95,-53.1001"/>
<polygon fill="midnightblue" stroke="midnightblue" points="1136.5,-80.3795 1132.76,-90.2906 1141.86,-84.8778 1136.5,-80.3795"/>
</g>
<!-- Node19&#45;&gt;Node20 -->
<g id="edge22" class="edge"><title>Node19&#45;&gt;Node20</title>
<path fill="none" stroke="midnightblue" d="M1774,-180.079C1774,-169.21 1774,-157.794 1774,-148.054"/>
<polygon fill="midnightblue" stroke="midnightblue" points="1770.5,-180.261 1774,-190.261 1777.5,-180.261 1770.5,-180.261"/>
</g>
<!-- Node21 -->
<g id="node21" class="node"><title>Node21</title>
<g id="a_node21"><a xlink:href="../../d1/d7a/run__digi_8C.html" target="_top" xlink:title="/home/travis/build\l/AliceO2Group/AliceO2\l/macro/run_digi.C">
<polygon fill="none" stroke="black" points="1872,-101.5 1872,-142.5 1990,-142.5 1990,-101.5 1872,-101.5"/>
<text text-anchor="start" x="1880" y="-130.5" font-family="Helvetica,sans-Serif" font-size="10.00">/home/travis/build</text>
<text text-anchor="start" x="1880" y="-119.5" font-family="Helvetica,sans-Serif" font-size="10.00">/AliceO2Group/AliceO2</text>
<text text-anchor="middle" x="1931" y="-108.5" font-family="Helvetica,sans-Serif" font-size="10.00">/macro/run_digi.C</text>
</a>
</g>
</g>
<!-- Node19&#45;&gt;Node21 -->
<g id="edge23" class="edge"><title>Node19&#45;&gt;Node21</title>
<path fill="none" stroke="midnightblue" d="M1831.9,-184.858C1854.86,-170.529 1880.34,-154.622 1899.72,-142.527"/>
<polygon fill="midnightblue" stroke="midnightblue" points="1829.87,-181.997 1823.25,-190.261 1833.58,-187.935 1829.87,-181.997"/>
</g>
<!-- Node22 -->
<g id="node22" class="node"><title>Node22</title>
<g id="a_node22"><a xlink:href="../../d9/de3/run__digi__all_8C.html" target="_top" xlink:title="/home/travis/build\l/AliceO2Group/AliceO2\l/macro/run_digi_all.C">
<polygon fill="none" stroke="black" points="2008,-101.5 2008,-142.5 2126,-142.5 2126,-101.5 2008,-101.5"/>
<text text-anchor="start" x="2016" y="-130.5" font-family="Helvetica,sans-Serif" font-size="10.00">/home/travis/build</text>
<text text-anchor="start" x="2016" y="-119.5" font-family="Helvetica,sans-Serif" font-size="10.00">/AliceO2Group/AliceO2</text>
<text text-anchor="middle" x="2067" y="-108.5" font-family="Helvetica,sans-Serif" font-size="10.00">/macro/run_digi_all.C</text>
</a>
</g>
</g>
<!-- Node19&#45;&gt;Node22 -->
<g id="edge24" class="edge"><title>Node19&#45;&gt;Node22</title>
<path fill="none" stroke="midnightblue" d="M1864.69,-191.308C1866.13,-190.867 1867.57,-190.43 1869,-190 1926.4,-172.696 1942.66,-174.498 1999,-154 2008.14,-150.673 2017.77,-146.635 2026.8,-142.587"/>
<polygon fill="midnightblue" stroke="midnightblue" points="1863.55,-187.995 1855.03,-194.287 1865.62,-194.684 1863.55,-187.995"/>
</g>
<!-- Node23 -->
<g id="node23" class="node"><title>Node23</title>
<g id="a_node23"><a xlink:href="../../d0/dcb/run__digi__its_8C.html" target="_top" xlink:title="/home/travis/build\l/AliceO2Group/AliceO2\l/macro/run_digi_its.C">
<polygon fill="none" stroke="black" points="2144,-101.5 2144,-142.5 2262,-142.5 2262,-101.5 2144,-101.5"/>
<text text-anchor="start" x="2152" y="-130.5" font-family="Helvetica,sans-Serif" font-size="10.00">/home/travis/build</text>
<text text-anchor="start" x="2152" y="-119.5" font-family="Helvetica,sans-Serif" font-size="10.00">/AliceO2Group/AliceO2</text>
<text text-anchor="middle" x="2203" y="-108.5" font-family="Helvetica,sans-Serif" font-size="10.00">/macro/run_digi_its.C</text>
</a>
</g>
</g>
<!-- Node19&#45;&gt;Node23 -->
<g id="edge25" class="edge"><title>Node19&#45;&gt;Node23</title>
<path fill="none" stroke="midnightblue" d="M1865.13,-190.91C1866.42,-190.598 1867.72,-190.294 1869,-190 1985.29,-163.387 2020.38,-187.099 2135,-154 2145.1,-151.084 2155.61,-146.91 2165.27,-142.566"/>
<polygon fill="midnightblue" stroke="midnightblue" points="1863.92,-187.607 1855.09,-193.47 1865.65,-194.39 1863.92,-187.607"/>
</g>
<!-- Node24&#45;&gt;Node25 -->
<g id="edge29" class="edge"><title>Node24&#45;&gt;Node25</title>
<path fill="none" stroke="midnightblue" d="M2087.48,-190.018C2169.4,-169.37 2193.97,-176.449 2271,-154 2276.94,-152.269 2283.06,-150.271 2289.14,-148.141"/>
<polygon fill="midnightblue" stroke="midnightblue" points="2086.56,-186.643 2077.75,-192.532 2088.31,-193.42 2086.56,-186.643"/>
</g>
<!-- Node26 -->
<g id="node26" class="node"><title>Node26</title>
<g id="a_node26"><a xlink:href="../../d4/d5f/run__sim__mft_8C.html" target="_top" xlink:title="/home/travis/build\l/AliceO2Group/AliceO2\l/macro/run_sim_mft.C">
<polygon fill="none" stroke="black" points="2438,-101.5 2438,-142.5 2556,-142.5 2556,-101.5 2438,-101.5"/>
<text text-anchor="start" x="2446" y="-130.5" font-family="Helvetica,sans-Serif" font-size="10.00">/home/travis/build</text>
<text text-anchor="start" x="2446" y="-119.5" font-family="Helvetica,sans-Serif" font-size="10.00">/AliceO2Group/AliceO2</text>
<text text-anchor="middle" x="2497" y="-108.5" font-family="Helvetica,sans-Serif" font-size="10.00">/macro/run_sim_mft.C</text>
</a>
</g>
</g>
<!-- Node24&#45;&gt;Node26 -->
<g id="edge30" class="edge"><title>Node24&#45;&gt;Node26</title>
<path fill="none" stroke="midnightblue" d="M2087.74,-190.054C2238.36,-159.18 2284.72,-193.359 2429,-154 2439.26,-151.2 2449.93,-147.013 2459.69,-142.615"/>
<polygon fill="midnightblue" stroke="midnightblue" points="2086.73,-186.691 2077.67,-192.183 2088.18,-193.54 2086.73,-186.691"/>
</g>
<!-- Node28&#45;&gt;Node29 -->
<g id="edge34" class="edge"><title>Node28&#45;&gt;Node29</title>
<path fill="none" stroke="midnightblue" d="M2441.56,-191.418C2443.05,-190.94 2444.53,-190.467 2446,-190 2498.66,-173.262 2512.48,-171.184 2565,-154 2570.7,-152.136 2576.58,-150.164 2582.49,-148.152"/>
<polygon fill="midnightblue" stroke="midnightblue" points="2440.04,-188.23 2431.6,-194.63 2442.19,-194.892 2440.04,-188.23"/>
</g>
</g>
</svg>
        <g id="navigator" transform="translate(0 0)" fill="#404254">
                <rect fill="#f2f5e9" fill-opacity="0.5" stroke="#606060" stroke-width=".5" x="0" y="0" width="60" height="60"/>
                <use id="zoomplus" xlink:href="#zoomPlus" x="17" y="9" onmousedown="handleZoom(evt,'in')"/>
                <use id="zoomminus" xlink:href="#zoomMin" x="42" y="9" onmousedown="handleZoom(evt,'out')"/>
                <use id="reset" xlink:href="#resetDef" x="30" y="36" onmousedown="handleReset()"/>
                <g id="arrowUp" xlink:href="#dirArrow" transform="translate(30 24)" onmousedown="handlePan(0,-1)">
                  <use xlink:href="#rim" fill="#404040">
                        <set attributeName="fill" to="#808080" begin="arrowUp.mouseover" end="arrowUp.mouseout"/>
                  </use>
                  <path fill="none" stroke="white" stroke-width="1.5" d="M0,-3.0v7 M-2.5,-0.5L0,-3.0L2.5,-0.5"/>
                </g>
                <g id="arrowRight" xlink:href="#dirArrow" transform="rotate(90) translate(36 -43)" onmousedown="handlePan(1,0)">
                  <use xlink:href="#rim" fill="#404040">
                        <set attributeName="fill" to="#808080" begin="arrowRight.mouseover" end="arrowRight.mouseout"/>
                  </use>
                  <path fill="none" stroke="white" stroke-width="1.5" d="M0,-3.0v7 M-2.5,-0.5L0,-3.0L2.5,-0.5"/>
                </g>
                <g id="arrowDown" xlink:href="#dirArrow" transform="rotate(180) translate(-30 -48)" onmousedown="handlePan(0,1)">
                  <use xlink:href="#rim" fill="#404040">
                        <set attributeName="fill" to="#808080" begin="arrowDown.mouseover" end="arrowDown.mouseout"/>
                  </use>
                  <path fill="none" stroke="white" stroke-width="1.5" d="M0,-3.0v7 M-2.5,-0.5L0,-3.0L2.5,-0.5"/>
                </g>
                <g id="arrowLeft" xlink:href="#dirArrow" transform="rotate(270) translate(-36 17)" onmousedown="handlePan(-1,0)">
                  <use xlink:href="#rim" fill="#404040">
                        <set attributeName="fill" to="#808080" begin="arrowLeft.mouseover" end="arrowLeft.mouseout"/>
                  </use>
                  <path fill="none" stroke="white" stroke-width="1.5" d="M0,-3.0v7 M-2.5,-0.5L0,-3.0L2.5,-0.5"/>
                </g>
        </g>
        <svg viewBox="0 0 15 15" width="100%" height="30px" preserveAspectRatio="xMaxYMin meet">
         <g id="arrow_out" transform="scale(0.3 0.3)">
          <a xlink:href="ITSMFT_2common_2simulation_2include_2ITSMFTSimulation_2Hit_8h__dep__incl_org.svg" target="_base">
           <rect id="button" ry="5" rx="5" y="6" x="6" height="38" width="38"
                fill="#f2f5e9" fill-opacity="0.5" stroke="#606060" stroke-width="1.0"/>
           <path id="arrow"
             d="M 11.500037,31.436501 C 11.940474,20.09759 22.043105,11.32322 32.158766,21.979434 L 37.068811,17.246167 C 37.068811,17.246167 37.088388,32 37.088388,32 L 22.160133,31.978069 C 22.160133,31.978069 26.997745,27.140456 26.997745,27.140456 C 18.528582,18.264221 13.291696,25.230495 11.500037,31.436501 z"
             style="fill:#404040;"/>
          </a>
         </g>
        </svg>
</svg>
