<?xml version="1.0" encoding="UTF-8" standalone="no"?>
<!DOCTYPE svg PUBLIC "-//W3C//DTD SVG 1.1//EN"
 "http://www.w3.org/Graphics/SVG/1.1/DTD/svg11.dtd">
<!-- Generated by graphviz version 2.36.0 (20140111.2315)
 -->
<!-- Title: /home/travis/build/AliceO2Group/AliceO2/Detectors/HMPID/simulation/src/Detector.cxx Pages: 1 -->
<svg width="1899pt" height="390pt"
 viewBox="0.00 0.00 1899.00 390.00" xmlns="http://www.w3.org/2000/svg" xmlns:xlink="http://www.w3.org/1999/xlink">
<g id="graph0" class="graph" transform="scale(1 1) rotate(0) translate(4 386)">
<title>/home/travis/build/AliceO2Group/AliceO2/Detectors/HMPID/simulation/src/Detector.cxx</title>
<!-- Node1 -->
<g id="node1" class="node"><title>Node1</title>
<polygon fill="#bfbfbf" stroke="black" points="1515,-329 1515,-381 1661,-381 1661,-329 1515,-329"/>
<text text-anchor="start" x="1523" y="-369" font-family="Helvetica,sans-Serif" font-size="10.00">/home/travis/build</text>
<text text-anchor="start" x="1523" y="-358" font-family="Helvetica,sans-Serif" font-size="10.00">/AliceO2Group/AliceO2</text>
<text text-anchor="start" x="1523" y="-347" font-family="Helvetica,sans-Serif" font-size="10.00">/Detectors/HMPID/simulation</text>
<text text-anchor="middle" x="1588" y="-336" font-family="Helvetica,sans-Serif" font-size="10.00">/src/Detector.cxx</text>
</g>
<!-- Node2 -->
<g id="node2" class="node"><title>Node2</title>
<g id="a_node2"><a xlink:href="../../df/d79/HMPID_2simulation_2include_2HMPIDSimulation_2Detector_8h.html" target="_top" xlink:title="../../simulation/include\l/HMPIDSimulation/Detector.h">
<polygon fill="none" stroke="black" points="1003.5,-261 1003.5,-291 1150.5,-291 1150.5,-261 1003.5,-261"/>
<text text-anchor="start" x="1011.5" y="-279" font-family="Helvetica,sans-Serif" font-size="10.00">../../simulation/include</text>
<text text-anchor="middle" x="1077" y="-268" font-family="Helvetica,sans-Serif" font-size="10.00">/HMPIDSimulation/Detector.h</text>
</a>
</g>
</g>
<!-- Node1&#45;&gt;Node2 -->
<g id="edge1" class="edge"><title>Node1&#45;&gt;Node2</title>
<path fill="none" stroke="midnightblue" d="M1514.79,-342.968C1421.14,-328.856 1259.31,-304.472 1160.83,-289.631"/>
<polygon fill="midnightblue" stroke="midnightblue" points="1161.32,-286.166 1150.91,-288.137 1160.27,-293.088 1161.32,-286.166"/>
</g>
<!-- Node9 -->
<g id="node9" class="node"><title>Node9</title>
<g id="a_node9"><a xlink:href="../../d0/d9a/MaterialManager_8h.html" target="_top" xlink:title="DetectorsBase/MaterialManager.h">
<polygon fill="none" stroke="black" points="1531.5,-136.5 1531.5,-155.5 1696.5,-155.5 1696.5,-136.5 1531.5,-136.5"/>
<text text-anchor="middle" x="1614" y="-143.5" font-family="Helvetica,sans-Serif" font-size="10.00">DetectorsBase/MaterialManager.h</text>
</a>
</g>
</g>
<!-- Node1&#45;&gt;Node9 -->
<g id="edge34" class="edge"><title>Node1&#45;&gt;Node9</title>
<path fill="none" stroke="midnightblue" d="M1516.23,-328.933C1500.25,-319.85 1485.31,-307.796 1476,-292 1468.78,-279.748 1469.91,-272.853 1476,-260 1498.68,-212.115 1552.69,-177.759 1586.02,-160.239"/>
<polygon fill="midnightblue" stroke="midnightblue" points="1587.91,-163.204 1595.24,-155.547 1584.74,-156.966 1587.91,-163.204"/>
</g>
<!-- Node27 -->
<g id="node27" class="node"><title>Node27</title>
<polygon fill="none" stroke="#bfbfbf" points="1485,-266.5 1485,-285.5 1571,-285.5 1571,-266.5 1485,-266.5"/>
<text text-anchor="middle" x="1528" y="-273.5" font-family="Helvetica,sans-Serif" font-size="10.00">TGeoManager.h</text>
</g>
<!-- Node1&#45;&gt;Node27 -->
<g id="edge30" class="edge"><title>Node1&#45;&gt;Node27</title>
<path fill="none" stroke="midnightblue" d="M1568.35,-328.787C1559.37,-317.253 1548.97,-303.906 1540.97,-293.651"/>
<polygon fill="midnightblue" stroke="midnightblue" points="1543.58,-291.294 1534.67,-285.558 1538.05,-295.597 1543.58,-291.294"/>
</g>
<!-- Node28 -->
<g id="node28" class="node"><title>Node28</title>
<polygon fill="none" stroke="#bfbfbf" points="1589,-266.5 1589,-285.5 1709,-285.5 1709,-266.5 1589,-266.5"/>
<text text-anchor="middle" x="1649" y="-273.5" font-family="Helvetica,sans-Serif" font-size="10.00">TGeoShapeAssembly.h</text>
</g>
<!-- Node1&#45;&gt;Node28 -->
<g id="edge31" class="edge"><title>Node1&#45;&gt;Node28</title>
<path fill="none" stroke="midnightblue" d="M1607.97,-328.787C1617.11,-317.253 1627.68,-303.906 1635.81,-293.651"/>
<polygon fill="midnightblue" stroke="midnightblue" points="1638.75,-295.57 1642.22,-285.558 1633.27,-291.223 1638.75,-295.57"/>
</g>
<!-- Node29 -->
<g id="node29" class="node"><title>Node29</title>
<polygon fill="none" stroke="#bfbfbf" points="1727,-266.5 1727,-285.5 1799,-285.5 1799,-266.5 1727,-266.5"/>
<text text-anchor="middle" x="1763" y="-273.5" font-family="Helvetica,sans-Serif" font-size="10.00">TGeoNode.h</text>
</g>
<!-- Node1&#45;&gt;Node29 -->
<g id="edge32" class="edge"><title>Node1&#45;&gt;Node29</title>
<path fill="none" stroke="midnightblue" d="M1645.3,-328.787C1675.09,-315.681 1710.2,-300.232 1734.27,-289.64"/>
<polygon fill="midnightblue" stroke="midnightblue" points="1735.81,-292.789 1743.55,-285.558 1732.99,-286.382 1735.81,-292.789"/>
</g>
<!-- Node30 -->
<g id="node30" class="node"><title>Node30</title>
<polygon fill="none" stroke="#bfbfbf" points="1817.5,-266.5 1817.5,-285.5 1890.5,-285.5 1890.5,-266.5 1817.5,-266.5"/>
<text text-anchor="middle" x="1854" y="-273.5" font-family="Helvetica,sans-Serif" font-size="10.00">TGeoBBox.h</text>
</g>
<!-- Node1&#45;&gt;Node30 -->
<g id="edge33" class="edge"><title>Node1&#45;&gt;Node30</title>
<path fill="none" stroke="midnightblue" d="M1661.05,-334.212C1703.97,-322.386 1759.21,-306.823 1808,-292 1811.4,-290.968 1814.93,-289.867 1818.46,-288.749"/>
<polygon fill="midnightblue" stroke="midnightblue" points="1819.82,-291.987 1828.27,-285.594 1817.68,-285.322 1819.82,-291.987"/>
</g>
<!-- Node3 -->
<g id="node3" class="node"><title>Node3</title>
<polygon fill="none" stroke="#bfbfbf" points="864,-136.5 864,-155.5 908,-155.5 908,-136.5 864,-136.5"/>
<text text-anchor="middle" x="886" y="-143.5" font-family="Helvetica,sans-Serif" font-size="10.00">vector</text>
</g>
<!-- Node2&#45;&gt;Node3 -->
<g id="edge2" class="edge"><title>Node2&#45;&gt;Node3</title>
<path fill="none" stroke="midnightblue" d="M1055.83,-260.813C1019.12,-236.21 944.057,-185.908 907.274,-161.257"/>
<polygon fill="midnightblue" stroke="midnightblue" points="909.049,-158.233 898.794,-155.574 905.152,-164.048 909.049,-158.233"/>
</g>
<!-- Node4 -->
<g id="node4" class="node"><title>Node4</title>
<g id="a_node4"><a xlink:href="../../d1/d3a/Base_2include_2DetectorsBase_2Detector_8h.html" target="_top" xlink:title="DetectorsBase/Detector.h">
<polygon fill="none" stroke="black" points="1105.5,-198.5 1105.5,-217.5 1236.5,-217.5 1236.5,-198.5 1105.5,-198.5"/>
<text text-anchor="middle" x="1171" y="-205.5" font-family="Helvetica,sans-Serif" font-size="10.00">DetectorsBase/Detector.h</text>
</a>
</g>
</g>
<!-- Node2&#45;&gt;Node4 -->
<g id="edge3" class="edge"><title>Node2&#45;&gt;Node4</title>
<path fill="none" stroke="midnightblue" d="M1097.4,-260.679C1113.01,-249.713 1134.48,-234.645 1150.19,-223.609"/>
<polygon fill="midnightblue" stroke="midnightblue" points="1152.52,-226.249 1158.7,-217.638 1148.5,-220.52 1152.52,-226.249"/>
</g>
<!-- Node15 -->
<g id="node15" class="node"><title>Node15</title>
<g id="a_node15"><a xlink:href="../../d4/d25/BaseHits_8h.html" target="_top" xlink:title="SimulationDataFormat\l/BaseHits.h">
<polygon fill="none" stroke="black" points="806,-193 806,-223 920,-223 920,-193 806,-193"/>
<text text-anchor="start" x="814" y="-211" font-family="Helvetica,sans-Serif" font-size="10.00">SimulationDataFormat</text>
<text text-anchor="middle" x="863" y="-200" font-family="Helvetica,sans-Serif" font-size="10.00">/BaseHits.h</text>
</a>
</g>
</g>
<!-- Node2&#45;&gt;Node15 -->
<g id="edge17" class="edge"><title>Node2&#45;&gt;Node15</title>
<path fill="none" stroke="midnightblue" d="M1031.35,-260.922C998.254,-250.714 953.323,-236.857 918.203,-226.025"/>
<polygon fill="midnightblue" stroke="midnightblue" points="919.163,-222.659 908.576,-223.056 917.1,-229.348 919.163,-222.659"/>
</g>
<!-- Node4&#45;&gt;Node3 -->
<g id="edge5" class="edge"><title>Node4&#45;&gt;Node3</title>
<path fill="none" stroke="midnightblue" d="M1126.35,-198.454C1076.42,-188.76 993.213,-172.187 922,-156 920.728,-155.711 919.432,-155.411 918.123,-155.104"/>
<polygon fill="midnightblue" stroke="midnightblue" points="918.591,-151.617 908.049,-152.671 916.948,-158.421 918.591,-151.617"/>
</g>
<!-- Node5 -->
<g id="node5" class="node"><title>Node5</title>
<polygon fill="none" stroke="#bfbfbf" points="1651.5,-74.5 1651.5,-93.5 1686.5,-93.5 1686.5,-74.5 1651.5,-74.5"/>
<text text-anchor="middle" x="1669" y="-81.5" font-family="Helvetica,sans-Serif" font-size="10.00">map</text>
</g>
<!-- Node4&#45;&gt;Node5 -->
<g id="edge4" class="edge"><title>Node4&#45;&gt;Node5</title>
<path fill="none" stroke="midnightblue" d="M1236.55,-205.572C1372.27,-201.935 1674.03,-190.069 1705,-156 1719.8,-139.715 1702.26,-116.218 1686.89,-100.782"/>
<polygon fill="midnightblue" stroke="midnightblue" points="1688.89,-97.8617 1679.22,-93.5256 1684.08,-102.944 1688.89,-97.8617"/>
</g>
<!-- Node6 -->
<g id="node6" class="node"><title>Node6</title>
<polygon fill="none" stroke="#bfbfbf" points="1245,-136.5 1245,-155.5 1297,-155.5 1297,-136.5 1245,-136.5"/>
<text text-anchor="middle" x="1271" y="-143.5" font-family="Helvetica,sans-Serif" font-size="10.00">memory</text>
</g>
<!-- Node4&#45;&gt;Node6 -->
<g id="edge6" class="edge"><title>Node4&#45;&gt;Node6</title>
<path fill="none" stroke="midnightblue" d="M1185.33,-198.403C1201.66,-188.601 1228.6,-172.439 1247.91,-160.853"/>
<polygon fill="midnightblue" stroke="midnightblue" points="1249.92,-163.727 1256.7,-155.581 1246.32,-157.724 1249.92,-163.727"/>
</g>
<!-- Node7 -->
<g id="node7" class="node"><title>Node7</title>
<polygon fill="none" stroke="#bfbfbf" points="1315.5,-136.5 1315.5,-155.5 1394.5,-155.5 1394.5,-136.5 1315.5,-136.5"/>
<text text-anchor="middle" x="1355" y="-143.5" font-family="Helvetica,sans-Serif" font-size="10.00">FairDetector.h</text>
</g>
<!-- Node4&#45;&gt;Node7 -->
<g id="edge7" class="edge"><title>Node4&#45;&gt;Node7</title>
<path fill="none" stroke="midnightblue" d="M1197.36,-198.403C1229.34,-187.978 1283.38,-170.356 1319.12,-158.699"/>
<polygon fill="midnightblue" stroke="midnightblue" points="1320.26,-162.008 1328.69,-155.581 1318.09,-155.353 1320.26,-162.008"/>
</g>
<!-- Node8 -->
<g id="node8" class="node"><title>Node8</title>
<polygon fill="none" stroke="#bfbfbf" points="1413,-136.5 1413,-155.5 1513,-155.5 1513,-136.5 1413,-136.5"/>
<text text-anchor="middle" x="1463" y="-143.5" font-family="Helvetica,sans-Serif" font-size="10.00">FairRootManager.h</text>
</g>
<!-- Node4&#45;&gt;Node8 -->
<g id="edge8" class="edge"><title>Node4&#45;&gt;Node8</title>
<path fill="none" stroke="midnightblue" d="M1212.53,-198.467C1264.96,-187.693 1355.14,-169.162 1411.79,-157.522"/>
<polygon fill="midnightblue" stroke="midnightblue" points="1412.53,-160.945 1421.62,-155.503 1411.12,-154.088 1412.53,-160.945"/>
</g>
<!-- Node4&#45;&gt;Node9 -->
<g id="edge9" class="edge"><title>Node4&#45;&gt;Node9</title>
<path fill="none" stroke="midnightblue" d="M1234,-198.467C1315.03,-187.493 1455.49,-168.469 1541.06,-156.879"/>
<polygon fill="midnightblue" stroke="midnightblue" points="1541.78,-160.314 1551.22,-155.503 1540.84,-153.377 1541.78,-160.314"/>
</g>
<!-- Node10 -->
<g id="node10" class="node"><title>Node10</title>
<polygon fill="none" stroke="#bfbfbf" points="1182,-74.5 1182,-93.5 1238,-93.5 1238,-74.5 1182,-74.5"/>
<text text-anchor="middle" x="1210" y="-81.5" font-family="Helvetica,sans-Serif" font-size="10.00">Rtypes.h</text>
</g>
<!-- Node4&#45;&gt;Node10 -->
<g id="edge12" class="edge"><title>Node4&#45;&gt;Node10</title>
<path fill="none" stroke="midnightblue" d="M1105.32,-200.383C1048.81,-193.173 973.531,-179.416 955,-156 949.484,-149.03 949.249,-142.778 955,-136 986.765,-98.5589 1125.74,-113.305 1173,-100 1175.81,-99.2076 1178.71,-98.269 1181.57,-97.2539"/>
<polygon fill="midnightblue" stroke="midnightblue" points="1182.99,-100.458 1191.08,-93.6094 1180.49,-93.9218 1182.99,-100.458"/>
</g>
<!-- Node11 -->
<g id="node11" class="node"><title>Node11</title>
<polygon fill="none" stroke="#bfbfbf" points="964.5,-136.5 964.5,-155.5 1017.5,-155.5 1017.5,-136.5 964.5,-136.5"/>
<text text-anchor="middle" x="991" y="-143.5" font-family="Helvetica,sans-Serif" font-size="10.00">cxxabi.h</text>
</g>
<!-- Node4&#45;&gt;Node11 -->
<g id="edge13" class="edge"><title>Node4&#45;&gt;Node11</title>
<path fill="none" stroke="midnightblue" d="M1145.21,-198.403C1114.07,-188.022 1061.52,-170.506 1026.55,-158.849"/>
<polygon fill="midnightblue" stroke="midnightblue" points="1027.34,-155.423 1016.74,-155.581 1025.12,-162.063 1027.34,-155.423"/>
</g>
<!-- Node12 -->
<g id="node12" class="node"><title>Node12</title>
<polygon fill="none" stroke="#bfbfbf" points="1035.5,-136.5 1035.5,-155.5 1086.5,-155.5 1086.5,-136.5 1035.5,-136.5"/>
<text text-anchor="middle" x="1061" y="-143.5" font-family="Helvetica,sans-Serif" font-size="10.00">typeinfo</text>
</g>
<!-- Node4&#45;&gt;Node12 -->
<g id="edge14" class="edge"><title>Node4&#45;&gt;Node12</title>
<path fill="none" stroke="midnightblue" d="M1155.24,-198.403C1137.02,-188.468 1106.83,-171.997 1085.53,-160.381"/>
<polygon fill="midnightblue" stroke="midnightblue" points="1087.19,-157.297 1076.73,-155.581 1083.83,-163.442 1087.19,-157.297"/>
</g>
<!-- Node13 -->
<g id="node13" class="node"><title>Node13</title>
<polygon fill="none" stroke="#bfbfbf" points="1105,-136.5 1105,-155.5 1167,-155.5 1167,-136.5 1105,-136.5"/>
<text text-anchor="middle" x="1136" y="-143.5" font-family="Helvetica,sans-Serif" font-size="10.00">type_traits</text>
</g>
<!-- Node4&#45;&gt;Node13 -->
<g id="edge15" class="edge"><title>Node4&#45;&gt;Node13</title>
<path fill="none" stroke="midnightblue" d="M1165.99,-198.403C1160.84,-189.582 1152.69,-175.608 1146.18,-164.455"/>
<polygon fill="midnightblue" stroke="midnightblue" points="1149.07,-162.455 1141.01,-155.581 1143.02,-165.982 1149.07,-162.455"/>
</g>
<!-- Node14 -->
<g id="node14" class="node"><title>Node14</title>
<polygon fill="none" stroke="#bfbfbf" points="1185.5,-136.5 1185.5,-155.5 1226.5,-155.5 1226.5,-136.5 1185.5,-136.5"/>
<text text-anchor="middle" x="1206" y="-143.5" font-family="Helvetica,sans-Serif" font-size="10.00">string</text>
</g>
<!-- Node4&#45;&gt;Node14 -->
<g id="edge16" class="edge"><title>Node4&#45;&gt;Node14</title>
<path fill="none" stroke="midnightblue" d="M1176.01,-198.403C1181.16,-189.582 1189.31,-175.608 1195.82,-164.455"/>
<polygon fill="midnightblue" stroke="midnightblue" points="1198.98,-165.982 1200.99,-155.581 1192.93,-162.455 1198.98,-165.982"/>
</g>
<!-- Node9&#45;&gt;Node5 -->
<g id="edge11" class="edge"><title>Node9&#45;&gt;Node5</title>
<path fill="none" stroke="midnightblue" d="M1621.88,-136.403C1630.29,-127.225 1643.82,-112.47 1654.23,-101.117"/>
<polygon fill="midnightblue" stroke="midnightblue" points="1656.96,-103.317 1661.13,-93.5806 1651.8,-98.5871 1656.96,-103.317"/>
</g>
<!-- Node9&#45;&gt;Node10 -->
<g id="edge10" class="edge"><title>Node9&#45;&gt;Node10</title>
<path fill="none" stroke="midnightblue" d="M1556.55,-136.467C1472.83,-124.035 1319.57,-101.273 1248.31,-90.6897"/>
<polygon fill="midnightblue" stroke="midnightblue" points="1248.41,-87.1663 1238.01,-89.1592 1247.38,-94.0903 1248.41,-87.1663"/>
</g>
<!-- Node16 -->
<g id="node16" class="node"><title>Node16</title>
<g id="a_node16"><a xlink:href="../../dd/d76/Cartesian3D_8h.html" target="_top" xlink:title="MathUtils/Cartesian3D.h">
<polygon fill="none" stroke="black" points="721.5,-136.5 721.5,-155.5 846.5,-155.5 846.5,-136.5 721.5,-136.5"/>
<text text-anchor="middle" x="784" y="-143.5" font-family="Helvetica,sans-Serif" font-size="10.00">MathUtils/Cartesian3D.h</text>
</a>
</g>
</g>
<!-- Node15&#45;&gt;Node16 -->
<g id="edge18" class="edge"><title>Node15&#45;&gt;Node16</title>
<path fill="none" stroke="midnightblue" d="M844.278,-192.781C832.088,-183.523 816.208,-171.462 803.807,-162.044"/>
<polygon fill="midnightblue" stroke="midnightblue" points="805.576,-158.992 795.495,-155.731 801.342,-164.566 805.576,-158.992"/>
</g>
<!-- Node16&#45;&gt;Node10 -->
<g id="edge24" class="edge"><title>Node16&#45;&gt;Node10</title>
<path fill="none" stroke="midnightblue" d="M846.714,-137.004C849.514,-136.662 852.286,-136.326 855,-136 996.223,-119.056 1035.15,-135.044 1173,-100 1175.99,-99.239 1179.07,-98.2884 1182.1,-97.2373"/>
<polygon fill="midnightblue" stroke="midnightblue" points="1183.42,-100.481 1191.51,-93.6463 1180.92,-93.9414 1183.42,-100.481"/>
</g>
<!-- Node17 -->
<g id="node17" class="node"><title>Node17</title>
<polygon fill="none" stroke="#bfbfbf" points="-0.5,-69 -0.5,-99 150.5,-99 150.5,-69 -0.5,-69"/>
<text text-anchor="start" x="7.5" y="-87" font-family="Helvetica,sans-Serif" font-size="10.00">Math/GenVector/Displacement</text>
<text text-anchor="middle" x="75" y="-76" font-family="Helvetica,sans-Serif" font-size="10.00">Vector3D.h</text>
</g>
<!-- Node16&#45;&gt;Node17 -->
<g id="edge19" class="edge"><title>Node16&#45;&gt;Node17</title>
<path fill="none" stroke="midnightblue" d="M721.352,-142.613C610.443,-137.92 372.129,-125.742 160.975,-100.034"/>
<polygon fill="midnightblue" stroke="midnightblue" points="161.294,-96.547 150.942,-98.7997 160.439,-103.495 161.294,-96.547"/>
</g>
<!-- Node18 -->
<g id="node18" class="node"><title>Node18</title>
<polygon fill="none" stroke="#bfbfbf" points="169,-74.5 169,-93.5 345,-93.5 345,-74.5 169,-74.5"/>
<text text-anchor="middle" x="257" y="-81.5" font-family="Helvetica,sans-Serif" font-size="10.00">Math/GenVector/PositionVector3D.h</text>
</g>
<!-- Node16&#45;&gt;Node18 -->
<g id="edge20" class="edge"><title>Node16&#45;&gt;Node18</title>
<path fill="none" stroke="midnightblue" d="M721.43,-139.475C637.462,-131.831 483.742,-117.028 353,-100 341.744,-98.534 329.773,-96.8023 318.24,-95.046"/>
<polygon fill="midnightblue" stroke="midnightblue" points="318.664,-91.57 308.247,-93.5022 317.595,-98.488 318.664,-91.57"/>
</g>
<!-- Node19 -->
<g id="node19" class="node"><title>Node19</title>
<polygon fill="none" stroke="#bfbfbf" points="362.5,-74.5 362.5,-93.5 511.5,-93.5 511.5,-74.5 362.5,-74.5"/>
<text text-anchor="middle" x="437" y="-81.5" font-family="Helvetica,sans-Serif" font-size="10.00">Math/GenVector/Rotation3D.h</text>
</g>
<!-- Node16&#45;&gt;Node19 -->
<g id="edge21" class="edge"><title>Node16&#45;&gt;Node19</title>
<path fill="none" stroke="midnightblue" d="M733.562,-136.482C680.606,-127.512 594.922,-112.924 521,-100 512.412,-98.4985 503.333,-96.8946 494.443,-95.3148"/>
<polygon fill="midnightblue" stroke="midnightblue" points="494.981,-91.8557 484.523,-93.5481 493.754,-98.7472 494.981,-91.8557"/>
</g>
<!-- Node20 -->
<g id="node20" class="node"><title>Node20</title>
<polygon fill="none" stroke="#bfbfbf" points="530,-74.5 530,-93.5 686,-93.5 686,-74.5 530,-74.5"/>
<text text-anchor="middle" x="608" y="-81.5" font-family="Helvetica,sans-Serif" font-size="10.00">Math/GenVector/Transform3D.h</text>
</g>
<!-- Node16&#45;&gt;Node20 -->
<g id="edge22" class="edge"><title>Node16&#45;&gt;Node20</title>
<path fill="none" stroke="midnightblue" d="M758.783,-136.403C728.332,-126.022 676.951,-108.506 642.757,-96.849"/>
<polygon fill="midnightblue" stroke="midnightblue" points="643.764,-93.4946 633.17,-93.5806 641.505,-100.12 643.764,-93.4946"/>
</g>
<!-- Node21 -->
<g id="node21" class="node"><title>Node21</title>
<polygon fill="none" stroke="#bfbfbf" points="704,-74.5 704,-93.5 864,-93.5 864,-74.5 704,-74.5"/>
<text text-anchor="middle" x="784" y="-81.5" font-family="Helvetica,sans-Serif" font-size="10.00">Math/GenVector/Translation3D.h</text>
</g>
<!-- Node16&#45;&gt;Node21 -->
<g id="edge23" class="edge"><title>Node16&#45;&gt;Node21</title>
<path fill="none" stroke="midnightblue" d="M784,-136.403C784,-127.938 784,-114.728 784,-103.82"/>
<polygon fill="midnightblue" stroke="midnightblue" points="787.5,-103.581 784,-93.5806 780.5,-103.581 787.5,-103.581"/>
</g>
<!-- Node22 -->
<g id="node22" class="node"><title>Node22</title>
<polygon fill="none" stroke="#bfbfbf" points="882,-74.5 882,-93.5 958,-93.5 958,-74.5 882,-74.5"/>
<text text-anchor="middle" x="920" y="-81.5" font-family="Helvetica,sans-Serif" font-size="10.00">TGeoMatrix.h</text>
</g>
<!-- Node16&#45;&gt;Node22 -->
<g id="edge25" class="edge"><title>Node16&#45;&gt;Node22</title>
<path fill="none" stroke="midnightblue" d="M803.485,-136.403C826.41,-126.29 864.685,-109.404 891.075,-97.761"/>
<polygon fill="midnightblue" stroke="midnightblue" points="892.814,-100.819 900.551,-93.5806 889.989,-94.4148 892.814,-100.819"/>
</g>
<!-- Node23 -->
<g id="node23" class="node"><title>Node23</title>
<polygon fill="none" stroke="#bfbfbf" points="976.5,-74.5 976.5,-93.5 1021.5,-93.5 1021.5,-74.5 976.5,-74.5"/>
<text text-anchor="middle" x="999" y="-81.5" font-family="Helvetica,sans-Serif" font-size="10.00">iosfwd</text>
</g>
<!-- Node16&#45;&gt;Node23 -->
<g id="edge26" class="edge"><title>Node16&#45;&gt;Node23</title>
<path fill="none" stroke="midnightblue" d="M829.474,-136.424C866.95,-128.739 921.192,-116.19 967,-100 968.909,-99.3253 970.858,-98.5753 972.804,-97.7806"/>
<polygon fill="midnightblue" stroke="midnightblue" points="974.588,-100.819 982.321,-93.5766 971.76,-94.4156 974.588,-100.819"/>
</g>
<!-- Node24 -->
<g id="node24" class="node"><title>Node24</title>
<g id="a_node24"><a xlink:href="../../d2/dd0/Cartesian2D_8h.html" target="_top" xlink:title="MathUtils/Cartesian2D.h">
<polygon fill="none" stroke="black" points="1039.5,-74.5 1039.5,-93.5 1164.5,-93.5 1164.5,-74.5 1039.5,-74.5"/>
<text text-anchor="middle" x="1102" y="-81.5" font-family="Helvetica,sans-Serif" font-size="10.00">MathUtils/Cartesian2D.h</text>
</a>
</g>
</g>
<!-- Node16&#45;&gt;Node24 -->
<g id="edge27" class="edge"><title>Node16&#45;&gt;Node24</title>
<path fill="none" stroke="midnightblue" d="M832.609,-136.47C882.281,-127.668 961.612,-113.377 1030,-100 1037.15,-98.6014 1044.69,-97.081 1052.09,-95.5626"/>
<polygon fill="midnightblue" stroke="midnightblue" points="1052.96,-98.9566 1062.05,-93.505 1051.55,-92.1015 1052.96,-98.9566"/>
</g>
<!-- Node25 -->
<g id="node25" class="node"><title>Node25</title>
<polygon fill="none" stroke="#bfbfbf" points="935.5,-1 935.5,-31 1086.5,-31 1086.5,-1 935.5,-1"/>
<text text-anchor="start" x="943.5" y="-19" font-family="Helvetica,sans-Serif" font-size="10.00">Math/GenVector/Displacement</text>
<text text-anchor="middle" x="1011" y="-8" font-family="Helvetica,sans-Serif" font-size="10.00">Vector2D.h</text>
</g>
<!-- Node24&#45;&gt;Node25 -->
<g id="edge28" class="edge"><title>Node24&#45;&gt;Node25</title>
<path fill="none" stroke="midnightblue" d="M1090.1,-74.3717C1077.22,-65.0286 1056.22,-49.7966 1039.09,-37.375"/>
<polygon fill="midnightblue" stroke="midnightblue" points="1040.7,-34.2194 1030.55,-31.1815 1036.59,-39.8859 1040.7,-34.2194"/>
</g>
<!-- Node26 -->
<g id="node26" class="node"><title>Node26</title>
<polygon fill="none" stroke="#bfbfbf" points="1105,-6.5 1105,-25.5 1281,-25.5 1281,-6.5 1105,-6.5"/>
<text text-anchor="middle" x="1193" y="-13.5" font-family="Helvetica,sans-Serif" font-size="10.00">Math/GenVector/PositionVector2D.h</text>
</g>
<!-- Node24&#45;&gt;Node26 -->
<g id="edge29" class="edge"><title>Node24&#45;&gt;Node26</title>
<path fill="none" stroke="midnightblue" d="M1113.9,-74.3717C1128.88,-63.5015 1154.86,-44.6602 1172.94,-31.5474"/>
<polygon fill="midnightblue" stroke="midnightblue" points="1175.06,-34.3349 1181.1,-25.6305 1170.95,-28.6684 1175.06,-34.3349"/>
</g>
</g>
</svg>
