<?xml version="1.0" encoding="UTF-8" standalone="no"?>
<!DOCTYPE svg PUBLIC "-//W3C//DTD SVG 1.1//EN"
 "http://www.w3.org/Graphics/SVG/1.1/DTD/svg11.dtd">
<!-- Generated by graphviz version 2.36.0 (20140111.2315)
 -->
<!-- Title: /home/travis/build/AliceO2Group/AliceO2/Framework/Core/src/DataAllocator.cxx Pages: 1 -->
<!--zoomable 342 -->
<svg id="main" version="1.1" xmlns="http://www.w3.org/2000/svg" xmlns:xlink="http://www.w3.org/1999/xlink" xml:space="preserve" onload="init(evt)">
<style type="text/css"><![CDATA[
.edge:hover path { stroke: red; }
.edge:hover polygon { stroke: red; fill: red; }
]]></style>
<script type="text/javascript"><![CDATA[
var edges = document.getElementsByTagName('g');
if (edges && edges.length) {
  for (var i=0;i<edges.length;i++) {
    if (edges[i].id.substr(0,4)=='edge') {
      edges[i].setAttribute('class','edge');
    }
  }
}
]]></script>
        <defs>
                <circle id="rim" cx="0" cy="0" r="7"/>
                <circle id="rim2" cx="0" cy="0" r="3.5"/>
                <g id="zoomPlus">
                        <use xlink:href="#rim" fill="#404040">
                                <set attributeName="fill" to="#808080" begin="zoomplus.mouseover" end="zoomplus.mouseout"/>
                        </use>
                        <path d="M-4,0h8M0,-4v8" fill="none" stroke="white" stroke-width="1.5" pointer-events="none"/>
                </g>
                <g id="zoomMin">
                        <use xlink:href="#rim" fill="#404040">
                                <set attributeName="fill" to="#808080" begin="zoomminus.mouseover" end="zoomminus.mouseout"/>
                        </use>
                        <path d="M-4,0h8" fill="none" stroke="white" stroke-width="1.5" pointer-events="none"/>
                </g>
                <g id="dirArrow">
                        <path fill="none" stroke="white" stroke-width="1.5" d="M0,-3.0v7 M-2.5,-0.5L0,-3.0L2.5,-0.5"/>
                </g>
               <g id="resetDef">
                       <use xlink:href="#rim2" fill="#404040">
                               <set attributeName="fill" to="#808080" begin="reset.mouseover" end="reset.mouseout"/>
                       </use>
               </g>
        </defs>

<script type="text/javascript">
var viewWidth = 2372;
var viewHeight = 342;
var sectionId = 'dynsection-0';
</script>
<script xlink:href="../../svgpan.js"/>
<svg id="graph" class="graph">
<g id="viewport">
<title>/home/travis/build/AliceO2Group/AliceO2/Framework/Core/src/DataAllocator.cxx</title>
<!-- Node1 -->
<g id="node1" class="node"><title>Node1</title>
<polygon fill="#bfbfbf" stroke="black" points="1118,-292.5 1118,-333.5 1308,-333.5 1308,-292.5 1118,-292.5"/>
<text text-anchor="start" x="1126" y="-321.5" font-family="Helvetica,sans-Serif" font-size="10.00">/home/travis/build</text>
<text text-anchor="start" x="1126" y="-310.5" font-family="Helvetica,sans-Serif" font-size="10.00">/AliceO2Group/AliceO2</text>
<text text-anchor="middle" x="1213" y="-299.5" font-family="Helvetica,sans-Serif" font-size="10.00">/Framework/Core/src/DataAllocator.cxx</text>
</g>
<!-- Node2 -->
<g id="node2" class="node"><title>Node2</title>
<g id="a_node2"><a xlink:href="../../d1/d28/DataAllocator_8h.html" target="_top" xlink:title="Framework/DataAllocator.h">
<polygon fill="none" stroke="black" points="822,-236.5 822,-255.5 958,-255.5 958,-236.5 822,-236.5"/>
<text text-anchor="middle" x="890" y="-243.5" font-family="Helvetica,sans-Serif" font-size="10.00">Framework/DataAllocator.h</text>
</a>
</g>
</g>
<!-- Node1&#45;&gt;Node2 -->
<g id="edge1" class="edge"><title>Node1&#45;&gt;Node2</title>
<path fill="none" stroke="midnightblue" d="M1117.84,-292.849C1060.63,-281.336 989.971,-267.118 942.647,-257.595"/>
<polygon fill="midnightblue" stroke="midnightblue" points="943.115,-254.119 932.621,-255.577 941.734,-260.981 943.115,-254.119"/>
</g>
<!-- Node18 -->
<g id="node18" class="node"><title>Node18</title>
<g id="a_node18"><a xlink:href="../../dc/dc4/MessageContext_8h.html" target="_top" xlink:title="Framework/MessageContext.h">
<polygon fill="none" stroke="black" points="-0.5,-180.5 -0.5,-199.5 150.5,-199.5 150.5,-180.5 -0.5,-180.5"/>
<text text-anchor="middle" x="75" y="-187.5" font-family="Helvetica,sans-Serif" font-size="10.00">Framework/MessageContext.h</text>
</a>
</g>
</g>
<!-- Node1&#45;&gt;Node18 -->
<g id="edge56" class="edge"><title>Node1&#45;&gt;Node18</title>
<path fill="none" stroke="midnightblue" d="M1117.84,-303.922C999.443,-293.687 791.143,-275.071 613,-256 448.004,-238.336 254.984,-214.158 150.877,-200.826"/>
<polygon fill="midnightblue" stroke="midnightblue" points="151.14,-197.331 140.776,-199.531 150.25,-204.275 151.14,-197.331"/>
</g>
<!-- Node21 -->
<g id="node21" class="node"><title>Node21</title>
<g id="a_node21"><a xlink:href="../../d2/d80/RootObjectContext_8h.html" target="_top" xlink:title="Framework/RootObjectContext.h">
<polygon fill="none" stroke="black" points="168.5,-180.5 168.5,-199.5 329.5,-199.5 329.5,-180.5 168.5,-180.5"/>
<text text-anchor="middle" x="249" y="-187.5" font-family="Helvetica,sans-Serif" font-size="10.00">Framework/RootObjectContext.h</text>
</a>
</g>
</g>
<!-- Node1&#45;&gt;Node21 -->
<g id="edge57" class="edge"><title>Node1&#45;&gt;Node21</title>
<path fill="none" stroke="midnightblue" d="M1117.93,-300.067C927.447,-276.158 502.308,-222.795 326.94,-200.783"/>
<polygon fill="midnightblue" stroke="midnightblue" points="327.119,-197.278 316.761,-199.505 326.247,-204.224 327.119,-197.278"/>
</g>
<!-- Node38 -->
<g id="node38" class="node"><title>Node38</title>
<g id="a_node38"><a xlink:href="../../d6/d68/DataSpecUtils_8h.html" target="_top" xlink:title="Framework/DataSpecUtils.h">
<polygon fill="none" stroke="black" points="1482,-236.5 1482,-255.5 1622,-255.5 1622,-236.5 1482,-236.5"/>
<text text-anchor="middle" x="1552" y="-243.5" font-family="Helvetica,sans-Serif" font-size="10.00">Framework/DataSpecUtils.h</text>
</a>
</g>
</g>
<!-- Node1&#45;&gt;Node38 -->
<g id="edge58" class="edge"><title>Node1&#45;&gt;Node38</title>
<path fill="none" stroke="midnightblue" d="M1308.33,-293.721C1369.47,-281.998 1446.64,-267.201 1497.57,-257.437"/>
<polygon fill="midnightblue" stroke="midnightblue" points="1498.23,-260.874 1507.39,-255.554 1496.91,-254 1498.23,-260.874"/>
</g>
<!-- Node41 -->
<g id="node41" class="node"><title>Node41</title>
<g id="a_node41"><a xlink:href="../../d6/dc9/DataProcessingHeader_8h.html" target="_top" xlink:title="Framework/DataProcessing\lHeader.h">
<polygon fill="none" stroke="black" points="2226,-113 2226,-143 2364,-143 2364,-113 2226,-113"/>
<text text-anchor="start" x="2234" y="-131" font-family="Helvetica,sans-Serif" font-size="10.00">Framework/DataProcessing</text>
<text text-anchor="middle" x="2295" y="-120" font-family="Helvetica,sans-Serif" font-size="10.00">Header.h</text>
</a>
</g>
</g>
<!-- Node1&#45;&gt;Node41 -->
<g id="edge66" class="edge"><title>Node1&#45;&gt;Node41</title>
<path fill="none" stroke="midnightblue" d="M1308.12,-307.264C1522.07,-295.631 2035.12,-261.992 2196,-200 2225.36,-188.687 2254.02,-166.55 2272.89,-149.987"/>
<polygon fill="midnightblue" stroke="midnightblue" points="2275.25,-152.567 2280.35,-143.277 2270.57,-147.363 2275.25,-152.567"/>
</g>
<!-- Node43 -->
<g id="node43" class="node"><title>Node43</title>
<polygon fill="none" stroke="#bfbfbf" points="2264.5,-236.5 2264.5,-255.5 2349.5,-255.5 2349.5,-236.5 2264.5,-236.5"/>
<text text-anchor="middle" x="2307" y="-243.5" font-family="Helvetica,sans-Serif" font-size="10.00">TClonesArray.h</text>
</g>
<!-- Node1&#45;&gt;Node43 -->
<g id="edge72" class="edge"><title>Node1&#45;&gt;Node43</title>
<path fill="none" stroke="midnightblue" d="M1308.34,-310.121C1491.35,-305.792 1904.4,-292.518 2250,-256 2251.46,-255.845 2252.95,-255.679 2254.44,-255.502"/>
<polygon fill="midnightblue" stroke="midnightblue" points="2254.95,-258.966 2264.42,-254.212 2254.06,-252.023 2254.95,-258.966"/>
</g>
<!-- Node3 -->
<g id="node3" class="node"><title>Node3</title>
<polygon fill="none" stroke="#bfbfbf" points="1305,-180.5 1305,-199.5 1423,-199.5 1423,-180.5 1305,-180.5"/>
<text text-anchor="middle" x="1364" y="-187.5" font-family="Helvetica,sans-Serif" font-size="10.00">fairmq/FairMQDevice.h</text>
</g>
<!-- Node2&#45;&gt;Node3 -->
<g id="edge2" class="edge"><title>Node2&#45;&gt;Node3</title>
<path fill="none" stroke="midnightblue" d="M958.295,-237.877C1036.89,-229.579 1170.12,-215.205 1294.58,-200.152"/>
<polygon fill="midnightblue" stroke="midnightblue" points="1295.17,-203.607 1304.67,-198.928 1294.32,-196.658 1295.17,-203.607"/>
</g>
<!-- Node4 -->
<g id="node4" class="node"><title>Node4</title>
<g id="a_node4"><a xlink:href="../../dc/dcd/DataHeader_8h.html" target="_top" xlink:title="Headers/DataHeader.h">
<polygon fill="none" stroke="black" points="1511.5,-56.5 1511.5,-75.5 1628.5,-75.5 1628.5,-56.5 1511.5,-56.5"/>
<text text-anchor="middle" x="1570" y="-63.5" font-family="Helvetica,sans-Serif" font-size="10.00">Headers/DataHeader.h</text>
</a>
</g>
</g>
<!-- Node2&#45;&gt;Node4 -->
<g id="edge3" class="edge"><title>Node2&#45;&gt;Node4</title>
<path fill="none" stroke="midnightblue" d="M958.146,-244.17C1159.96,-241.384 1752.3,-230.742 1943,-200 2032.86,-185.513 2085.14,-216.632 2140,-144 2148.57,-132.651 2149.65,-122.445 2140,-112 2131.58,-102.886 1788.32,-80.5409 1638.62,-71.2057"/>
<polygon fill="midnightblue" stroke="midnightblue" points="1638.81,-67.7109 1628.61,-70.5831 1638.38,-74.6974 1638.81,-67.7109"/>
</g>
<!-- Node10 -->
<g id="node10" class="node"><title>Node10</title>
<g id="a_node10"><a xlink:href="../../d3/ddf/Output_8h.html" target="_top" xlink:title="Framework/Output.h">
<polygon fill="none" stroke="black" points="1133,-118.5 1133,-137.5 1239,-137.5 1239,-118.5 1133,-118.5"/>
<text text-anchor="middle" x="1186" y="-125.5" font-family="Helvetica,sans-Serif" font-size="10.00">Framework/Output.h</text>
</a>
</g>
</g>
<!-- Node2&#45;&gt;Node10 -->
<g id="edge9" class="edge"><title>Node2&#45;&gt;Node10</title>
<path fill="none" stroke="midnightblue" d="M958.078,-244.383C1096.52,-242.419 1400.51,-234.215 1432,-200 1474.38,-153.958 1518.24,-203.097 1248,-144 1242.18,-142.727 1236.06,-141.326 1230.04,-139.908"/>
<polygon fill="midnightblue" stroke="midnightblue" points="1230.59,-136.44 1220.05,-137.524 1228.96,-143.249 1230.59,-136.44"/>
</g>
<!-- Node12 -->
<g id="node12" class="node"><title>Node12</title>
<g id="a_node12"><a xlink:href="../../d6/d5a/OutputRef_8h.html" target="_top" xlink:title="Framework/OutputRef.h">
<polygon fill="none" stroke="black" points="1021,-180.5 1021,-199.5 1143,-199.5 1143,-180.5 1021,-180.5"/>
<text text-anchor="middle" x="1082" y="-187.5" font-family="Helvetica,sans-Serif" font-size="10.00">Framework/OutputRef.h</text>
</a>
</g>
</g>
<!-- Node2&#45;&gt;Node12 -->
<g id="edge12" class="edge"><title>Node2&#45;&gt;Node12</title>
<path fill="none" stroke="midnightblue" d="M920.423,-236.444C953.285,-227.201 1005.78,-212.436 1041.97,-202.257"/>
<polygon fill="midnightblue" stroke="midnightblue" points="1043.04,-205.593 1051.72,-199.516 1041.15,-198.855 1043.04,-205.593"/>
</g>
<!-- Node13 -->
<g id="node13" class="node"><title>Node13</title>
<polygon fill="none" stroke="#bfbfbf" points="822.5,-118.5 822.5,-137.5 863.5,-137.5 863.5,-118.5 822.5,-118.5"/>
<text text-anchor="middle" x="843" y="-125.5" font-family="Helvetica,sans-Serif" font-size="10.00">string</text>
</g>
<!-- Node2&#45;&gt;Node13 -->
<g id="edge51" class="edge"><title>Node2&#45;&gt;Node13</title>
<path fill="none" stroke="midnightblue" d="M883.611,-236.46C877.329,-227.709 867.855,-213.508 862,-200 854.559,-182.834 849.409,-162.04 846.366,-147.406"/>
<polygon fill="midnightblue" stroke="midnightblue" points="849.799,-146.722 844.447,-137.578 842.928,-148.063 849.799,-146.722"/>
</g>
<!-- Node14 -->
<g id="node14" class="node"><title>Node14</title>
<g id="a_node14"><a xlink:href="../../d6/df4/OutputRoute_8h.html" target="_top" xlink:title="Framework/OutputRoute.h">
<polygon fill="none" stroke="black" points="871,-180.5 871,-199.5 1003,-199.5 1003,-180.5 871,-180.5"/>
<text text-anchor="middle" x="937" y="-187.5" font-family="Helvetica,sans-Serif" font-size="10.00">Framework/OutputRoute.h</text>
</a>
</g>
</g>
<!-- Node2&#45;&gt;Node14 -->
<g id="edge15" class="edge"><title>Node2&#45;&gt;Node14</title>
<path fill="none" stroke="midnightblue" d="M897.761,-236.083C904.537,-228.298 914.543,-216.801 922.755,-207.367"/>
<polygon fill="midnightblue" stroke="midnightblue" points="925.458,-209.592 929.383,-199.751 920.178,-204.996 925.458,-209.592"/>
</g>
<!-- Node17 -->
<g id="node17" class="node"><title>Node17</title>
<g id="a_node17"><a xlink:href="../../d7/d31/DataChunk_8h.html" target="_top" xlink:title="Framework/DataChunk.h">
<polygon fill="none" stroke="black" points="1161,-180.5 1161,-199.5 1287,-199.5 1287,-180.5 1161,-180.5"/>
<text text-anchor="middle" x="1224" y="-187.5" font-family="Helvetica,sans-Serif" font-size="10.00">Framework/DataChunk.h</text>
</a>
</g>
</g>
<!-- Node2&#45;&gt;Node17 -->
<g id="edge21" class="edge"><title>Node2&#45;&gt;Node17</title>
<path fill="none" stroke="midnightblue" d="M942.923,-236.444C1002.17,-226.865 1098.1,-211.356 1161.12,-201.167"/>
<polygon fill="midnightblue" stroke="midnightblue" points="1162.01,-204.568 1171.32,-199.516 1160.89,-197.657 1162.01,-204.568"/>
</g>
<!-- Node2&#45;&gt;Node18 -->
<g id="edge22" class="edge"><title>Node2&#45;&gt;Node18</title>
<path fill="none" stroke="midnightblue" d="M821.899,-241.839C694.279,-235.688 410.2,-220.932 160.528,-200.095"/>
<polygon fill="midnightblue" stroke="midnightblue" points="160.798,-196.605 150.541,-199.257 160.213,-203.581 160.798,-196.605"/>
</g>
<!-- Node20 -->
<g id="node20" class="node"><title>Node20</title>
<polygon fill="none" stroke="#bfbfbf" points="317,-56.5 317,-75.5 361,-75.5 361,-56.5 317,-56.5"/>
<text text-anchor="middle" x="339" y="-63.5" font-family="Helvetica,sans-Serif" font-size="10.00">vector</text>
</g>
<!-- Node2&#45;&gt;Node20 -->
<g id="edge49" class="edge"><title>Node2&#45;&gt;Node20</title>
<path fill="none" stroke="midnightblue" d="M821.871,-240.479C691.913,-231.61 419.942,-211.771 403,-200 364.001,-172.904 347.926,-115.338 342.023,-85.6183"/>
<polygon fill="midnightblue" stroke="midnightblue" points="345.456,-84.9305 340.232,-75.7128 338.567,-86.1761 345.456,-84.9305"/>
</g>
<!-- Node2&#45;&gt;Node21 -->
<g id="edge27" class="edge"><title>Node2&#45;&gt;Node21</title>
<path fill="none" stroke="midnightblue" d="M821.88,-239.655C718.536,-231.485 515.957,-215.231 344,-200 342.53,-199.87 341.048,-199.738 339.555,-199.604"/>
<polygon fill="midnightblue" stroke="midnightblue" points="339.862,-196.118 329.587,-198.703 339.231,-203.089 339.862,-196.118"/>
</g>
<!-- Node22 -->
<g id="node22" class="node"><title>Node22</title>
<polygon fill="none" stroke="#bfbfbf" points="1257.5,-118.5 1257.5,-137.5 1384.5,-137.5 1384.5,-118.5 1257.5,-118.5"/>
<text text-anchor="middle" x="1321" y="-125.5" font-family="Helvetica,sans-Serif" font-size="10.00">fairmq/FairMQMessage.h</text>
</g>
<!-- Node2&#45;&gt;Node22 -->
<g id="edge48" class="edge"><title>Node2&#45;&gt;Node22</title>
<path fill="none" stroke="midnightblue" d="M958.019,-244.687C1101.87,-243.316 1426.55,-236.2 1460,-200 1466.03,-193.472 1465.09,-187.288 1460,-180 1449.04,-164.3 1403.75,-149.6 1367.81,-140.054"/>
<polygon fill="midnightblue" stroke="midnightblue" points="1368.51,-136.621 1357.96,-137.501 1366.76,-143.397 1368.51,-136.621"/>
</g>
<!-- Node24 -->
<g id="node24" class="node"><title>Node24</title>
<g id="a_node24"><a xlink:href="../../d8/d3c/TMessageSerializer_8h.html" target="_top" xlink:title="Framework/TMessageSerializer.h">
<polygon fill="none" stroke="black" points="1717.5,-180.5 1717.5,-199.5 1880.5,-199.5 1880.5,-180.5 1717.5,-180.5"/>
<text text-anchor="middle" x="1799" y="-187.5" font-family="Helvetica,sans-Serif" font-size="10.00">Framework/TMessageSerializer.h</text>
</a>
</g>
</g>
<!-- Node2&#45;&gt;Node24 -->
<g id="edge33" class="edge"><title>Node2&#45;&gt;Node24</title>
<path fill="none" stroke="midnightblue" d="M958.092,-241.657C1095.56,-234.796 1416.05,-218.226 1685,-200 1692.3,-199.505 1699.86,-198.967 1707.45,-198.407"/>
<polygon fill="midnightblue" stroke="midnightblue" points="1707.73,-201.896 1717.44,-197.66 1707.21,-194.916 1707.73,-201.896"/>
</g>
<!-- Node30 -->
<g id="node30" class="node"><title>Node30</title>
<polygon fill="none" stroke="#bfbfbf" points="2078.5,-118.5 2078.5,-137.5 2131.5,-137.5 2131.5,-118.5 2078.5,-118.5"/>
<text text-anchor="middle" x="2105" y="-125.5" font-family="Helvetica,sans-Serif" font-size="10.00">gsl/span</text>
</g>
<!-- Node2&#45;&gt;Node30 -->
<g id="edge54" class="edge"><title>Node2&#45;&gt;Node30</title>
<path fill="none" stroke="midnightblue" d="M958.141,-244.274C1152.94,-241.828 1709.67,-232.143 1889,-200 1957.92,-187.647 2035.03,-158.327 2075.89,-141.482"/>
<polygon fill="midnightblue" stroke="midnightblue" points="2077.35,-144.665 2085.24,-137.587 2074.66,-138.204 2077.35,-144.665"/>
</g>
<!-- Node32 -->
<g id="node32" class="node"><title>Node32</title>
<g id="a_node32"><a xlink:href="../../d0/d95/TypeTraits_8h.html" target="_top" xlink:title="Framework/TypeTraits.h">
<polygon fill="none" stroke="black" points="509.5,-118.5 509.5,-137.5 632.5,-137.5 632.5,-118.5 509.5,-118.5"/>
<text text-anchor="middle" x="571" y="-125.5" font-family="Helvetica,sans-Serif" font-size="10.00">Framework/TypeTraits.h</text>
</a>
</g>
</g>
<!-- Node2&#45;&gt;Node32 -->
<g id="edge43" class="edge"><title>Node2&#45;&gt;Node32</title>
<path fill="none" stroke="midnightblue" d="M821.774,-243.51C696.889,-240.073 441.826,-229.488 415,-200 384.603,-166.587 445.108,-147.835 499.398,-138.106"/>
<polygon fill="midnightblue" stroke="midnightblue" points="500.171,-141.525 509.439,-136.393 498.993,-134.624 500.171,-141.525"/>
</g>
<!-- Node33 -->
<g id="node33" class="node"><title>Node33</title>
<polygon fill="none" stroke="#bfbfbf" points="651,-56.5 651,-75.5 713,-75.5 713,-56.5 651,-56.5"/>
<text text-anchor="middle" x="682" y="-63.5" font-family="Helvetica,sans-Serif" font-size="10.00">type_traits</text>
</g>
<!-- Node2&#45;&gt;Node33 -->
<g id="edge53" class="edge"><title>Node2&#45;&gt;Node33</title>
<path fill="none" stroke="midnightblue" d="M879.968,-236.415C847.17,-208.348 742.797,-119.029 700.284,-82.6468"/>
<polygon fill="midnightblue" stroke="midnightblue" points="702.295,-79.7612 692.422,-75.9185 697.744,-85.0796 702.295,-79.7612"/>
</g>
<!-- Node34 -->
<g id="node34" class="node"><title>Node34</title>
<g id="a_node34"><a xlink:href="../../d1/d53/SerializationMethods_8h.html" target="_top" xlink:title="Type wrappers for enfording a specific serialization method. ">
<polygon fill="none" stroke="black" points="610.5,-180.5 610.5,-199.5 777.5,-199.5 777.5,-180.5 610.5,-180.5"/>
<text text-anchor="middle" x="694" y="-187.5" font-family="Helvetica,sans-Serif" font-size="10.00">Framework/SerializationMethods.h</text>
</a>
</g>
</g>
<!-- Node2&#45;&gt;Node34 -->
<g id="edge46" class="edge"><title>Node2&#45;&gt;Node34</title>
<path fill="none" stroke="midnightblue" d="M858.943,-236.444C825.397,-227.201 771.803,-212.436 734.859,-202.257"/>
<polygon fill="midnightblue" stroke="midnightblue" points="735.482,-198.798 724.911,-199.516 733.623,-205.547 735.482,-198.798"/>
</g>
<!-- Node35 -->
<g id="node35" class="node"><title>Node35</title>
<polygon fill="none" stroke="#bfbfbf" points="424.5,-180.5 424.5,-199.5 459.5,-199.5 459.5,-180.5 424.5,-180.5"/>
<text text-anchor="middle" x="442" y="-187.5" font-family="Helvetica,sans-Serif" font-size="10.00">map</text>
</g>
<!-- Node2&#45;&gt;Node35 -->
<g id="edge50" class="edge"><title>Node2&#45;&gt;Node35</title>
<path fill="none" stroke="midnightblue" d="M821.837,-242.225C740.108,-237.895 599.037,-227.23 469.654,-199.65"/>
<polygon fill="midnightblue" stroke="midnightblue" points="470.082,-196.161 459.567,-197.46 468.596,-203.002 470.082,-196.161"/>
</g>
<!-- Node36 -->
<g id="node36" class="node"><title>Node36</title>
<polygon fill="none" stroke="#bfbfbf" points="478,-180.5 478,-199.5 518,-199.5 518,-180.5 478,-180.5"/>
<text text-anchor="middle" x="498" y="-187.5" font-family="Helvetica,sans-Serif" font-size="10.00">utility</text>
</g>
<!-- Node2&#45;&gt;Node36 -->
<g id="edge52" class="edge"><title>Node2&#45;&gt;Node36</title>
<path fill="none" stroke="midnightblue" d="M821.826,-240.182C750.641,-234.335 635.718,-222.599 528.206,-199.915"/>
<polygon fill="midnightblue" stroke="midnightblue" points="528.672,-196.435 518.16,-197.758 527.202,-203.279 528.672,-196.435"/>
</g>
<!-- Node37 -->
<g id="node37" class="node"><title>Node37</title>
<polygon fill="none" stroke="#bfbfbf" points="536,-180.5 536,-199.5 592,-199.5 592,-180.5 536,-180.5"/>
<text text-anchor="middle" x="564" y="-187.5" font-family="Helvetica,sans-Serif" font-size="10.00">TClass.h</text>
</g>
<!-- Node2&#45;&gt;Node37 -->
<g id="edge55" class="edge"><title>Node2&#45;&gt;Node37</title>
<path fill="none" stroke="midnightblue" d="M825.161,-236.494C768.703,-228.726 684.463,-216.266 602.242,-200.113"/>
<polygon fill="midnightblue" stroke="midnightblue" points="602.718,-196.639 592.227,-198.125 601.354,-203.505 602.718,-196.639"/>
</g>
<!-- Node5 -->
<g id="node5" class="node"><title>Node5</title>
<polygon fill="none" stroke="#bfbfbf" points="2143,-0.5 2143,-19.5 2189,-19.5 2189,-0.5 2143,-0.5"/>
<text text-anchor="middle" x="2166" y="-7.5" font-family="Helvetica,sans-Serif" font-size="10.00">cstdint</text>
</g>
<!-- Node4&#45;&gt;Node5 -->
<g id="edge4" class="edge"><title>Node4&#45;&gt;Node5</title>
<path fill="none" stroke="midnightblue" d="M1628.74,-60.3193C1724.4,-52.5949 1919.77,-36.3956 2085,-20 2100.75,-18.4373 2118.2,-16.522 2132.86,-14.8606"/>
<polygon fill="midnightblue" stroke="midnightblue" points="2133.43,-18.3175 2142.97,-13.7044 2132.64,-11.3627 2133.43,-18.3175"/>
</g>
<!-- Node6 -->
<g id="node6" class="node"><title>Node6</title>
<polygon fill="none" stroke="#bfbfbf" points="2024,-0.5 2024,-19.5 2076,-19.5 2076,-0.5 2024,-0.5"/>
<text text-anchor="middle" x="2050" y="-7.5" font-family="Helvetica,sans-Serif" font-size="10.00">memory</text>
</g>
<!-- Node4&#45;&gt;Node6 -->
<g id="edge5" class="edge"><title>Node4&#45;&gt;Node6</title>
<path fill="none" stroke="midnightblue" d="M1628.86,-58.3785C1729.35,-47.0737 1931.12,-24.3736 2013.61,-15.0944"/>
<polygon fill="midnightblue" stroke="midnightblue" points="2014.2,-18.5497 2023.75,-13.9537 2013.42,-11.5936 2014.2,-18.5497"/>
</g>
<!-- Node7 -->
<g id="node7" class="node"><title>Node7</title>
<polygon fill="none" stroke="#bfbfbf" points="809.5,-0.5 809.5,-19.5 858.5,-19.5 858.5,-0.5 809.5,-0.5"/>
<text text-anchor="middle" x="834" y="-7.5" font-family="Helvetica,sans-Serif" font-size="10.00">cassert</text>
</g>
<!-- Node4&#45;&gt;Node7 -->
<g id="edge6" class="edge"><title>Node4&#45;&gt;Node7</title>
<path fill="none" stroke="midnightblue" d="M1511.32,-60.6949C1364.69,-49.9368 985.692,-22.1296 868.83,-13.5555"/>
<polygon fill="midnightblue" stroke="midnightblue" points="868.897,-10.051 858.667,-12.8098 868.384,-17.0323 868.897,-10.051"/>
</g>
<!-- Node8 -->
<g id="node8" class="node"><title>Node8</title>
<polygon fill="none" stroke="#bfbfbf" points="1581,-0.5 1581,-19.5 1627,-19.5 1627,-0.5 1581,-0.5"/>
<text text-anchor="middle" x="1604" y="-7.5" font-family="Helvetica,sans-Serif" font-size="10.00">cstring</text>
</g>
<!-- Node4&#45;&gt;Node8 -->
<g id="edge7" class="edge"><title>Node4&#45;&gt;Node8</title>
<path fill="none" stroke="midnightblue" d="M1575.61,-56.083C1580.37,-48.5341 1587.32,-37.4948 1593.15,-28.2298"/>
<polygon fill="midnightblue" stroke="midnightblue" points="1596.12,-30.0783 1598.49,-19.7511 1590.2,-26.3486 1596.12,-30.0783"/>
</g>
<!-- Node9 -->
<g id="node9" class="node"><title>Node9</title>
<polygon fill="none" stroke="#bfbfbf" points="1507,-0.5 1507,-19.5 1563,-19.5 1563,-0.5 1507,-0.5"/>
<text text-anchor="middle" x="1535" y="-7.5" font-family="Helvetica,sans-Serif" font-size="10.00">algorithm</text>
</g>
<!-- Node4&#45;&gt;Node9 -->
<g id="edge8" class="edge"><title>Node4&#45;&gt;Node9</title>
<path fill="none" stroke="midnightblue" d="M1564.22,-56.083C1559.33,-48.5341 1552.17,-37.4948 1546.17,-28.2298"/>
<polygon fill="midnightblue" stroke="midnightblue" points="1549.05,-26.239 1540.67,-19.7511 1543.17,-30.0463 1549.05,-26.239"/>
</g>
<!-- Node10&#45;&gt;Node4 -->
<g id="edge10" class="edge"><title>Node10&#45;&gt;Node4</title>
<path fill="none" stroke="midnightblue" d="M1218.69,-118.453C1228.11,-116.164 1238.43,-113.822 1248,-112 1334.72,-95.4925 1435.65,-82.3605 1501.07,-74.64"/>
<polygon fill="midnightblue" stroke="midnightblue" points="1501.73,-78.0866 1511.25,-73.4477 1500.91,-71.134 1501.73,-78.0866"/>
</g>
<!-- Node11 -->
<g id="node11" class="node"><title>Node11</title>
<g id="a_node11"><a xlink:href="../../dc/dca/Lifetime_8h.html" target="_top" xlink:title="Framework/Lifetime.h">
<polygon fill="none" stroke="black" points="1130.5,-56.5 1130.5,-75.5 1241.5,-75.5 1241.5,-56.5 1130.5,-56.5"/>
<text text-anchor="middle" x="1186" y="-63.5" font-family="Helvetica,sans-Serif" font-size="10.00">Framework/Lifetime.h</text>
</a>
</g>
</g>
<!-- Node10&#45;&gt;Node11 -->
<g id="edge11" class="edge"><title>Node10&#45;&gt;Node11</title>
<path fill="none" stroke="midnightblue" d="M1186,-118.403C1186,-109.938 1186,-96.7283 1186,-85.8199"/>
<polygon fill="midnightblue" stroke="midnightblue" points="1189.5,-85.5806 1186,-75.5806 1182.5,-85.5806 1189.5,-85.5806"/>
</g>
<!-- Node12&#45;&gt;Node4 -->
<g id="edge13" class="edge"><title>Node12&#45;&gt;Node4</title>
<path fill="none" stroke="midnightblue" d="M1083.93,-180.258C1088.08,-163.764 1099.51,-128.253 1124,-112 1184.14,-72.0777 1391.33,-66.3848 1500.87,-66.2763"/>
<polygon fill="midnightblue" stroke="midnightblue" points="1501.15,-69.7764 1511.15,-66.2823 1501.16,-62.7764 1501.15,-69.7764"/>
</g>
<!-- Node12&#45;&gt;Node13 -->
<g id="edge14" class="edge"><title>Node12&#45;&gt;Node13</title>
<path fill="none" stroke="midnightblue" d="M1021.53,-180.429C978.921,-173.338 920.963,-161.553 872,-144 870.349,-143.408 868.674,-142.74 867.004,-142.024"/>
<polygon fill="midnightblue" stroke="midnightblue" points="868.24,-138.735 857.71,-137.57 865.216,-145.048 868.24,-138.735"/>
</g>
<!-- Node14&#45;&gt;Node13 -->
<g id="edge20" class="edge"><title>Node14&#45;&gt;Node13</title>
<path fill="none" stroke="midnightblue" d="M923.532,-180.403C908.315,-170.691 883.313,-154.732 865.199,-143.17"/>
<polygon fill="midnightblue" stroke="midnightblue" points="866.755,-140.011 856.443,-137.581 862.989,-145.911 866.755,-140.011"/>
</g>
<!-- Node15 -->
<g id="node15" class="node"><title>Node15</title>
<g id="a_node15"><a xlink:href="../../db/d2d/OutputSpec_8h.html" target="_top" xlink:title="Framework/OutputSpec.h">
<polygon fill="none" stroke="black" points="949,-118.5 949,-137.5 1077,-137.5 1077,-118.5 949,-118.5"/>
<text text-anchor="middle" x="1013" y="-125.5" font-family="Helvetica,sans-Serif" font-size="10.00">Framework/OutputSpec.h</text>
</a>
</g>
</g>
<!-- Node14&#45;&gt;Node15 -->
<g id="edge16" class="edge"><title>Node14&#45;&gt;Node15</title>
<path fill="none" stroke="midnightblue" d="M947.889,-180.403C959.966,-170.869 979.667,-155.315 994.24,-143.811"/>
<polygon fill="midnightblue" stroke="midnightblue" points="996.451,-146.524 1002.13,-137.581 992.114,-141.03 996.451,-146.524"/>
</g>
<!-- Node16 -->
<g id="node16" class="node"><title>Node16</title>
<polygon fill="none" stroke="#bfbfbf" points="881.5,-118.5 881.5,-137.5 930.5,-137.5 930.5,-118.5 881.5,-118.5"/>
<text text-anchor="middle" x="906" y="-125.5" font-family="Helvetica,sans-Serif" font-size="10.00">cstddef</text>
</g>
<!-- Node14&#45;&gt;Node16 -->
<g id="edge19" class="edge"><title>Node14&#45;&gt;Node16</title>
<path fill="none" stroke="midnightblue" d="M932.558,-180.403C928.047,-171.671 920.926,-157.889 915.193,-146.794"/>
<polygon fill="midnightblue" stroke="midnightblue" points="918.133,-144.858 910.433,-137.581 911.914,-148.071 918.133,-144.858"/>
</g>
<!-- Node15&#45;&gt;Node4 -->
<g id="edge17" class="edge"><title>Node15&#45;&gt;Node4</title>
<path fill="none" stroke="midnightblue" d="M1053.36,-118.471C1065.43,-116.129 1078.71,-113.754 1091,-112 1236.25,-91.2597 1407.7,-77.7944 1501.01,-71.3858"/>
<polygon fill="midnightblue" stroke="midnightblue" points="1501.42,-74.8655 1511.16,-70.6948 1500.95,-67.8816 1501.42,-74.8655"/>
</g>
<!-- Node15&#45;&gt;Node11 -->
<g id="edge18" class="edge"><title>Node15&#45;&gt;Node11</title>
<path fill="none" stroke="midnightblue" d="M1037.79,-118.403C1067.59,-108.067 1117.79,-90.6564 1151.4,-78.9994"/>
<polygon fill="midnightblue" stroke="midnightblue" points="1152.96,-82.1642 1161.26,-75.5806 1150.66,-75.5506 1152.96,-82.1642"/>
</g>
<!-- Node18&#45;&gt;Node7 -->
<g id="edge25" class="edge"><title>Node18&#45;&gt;Node7</title>
<path fill="none" stroke="midnightblue" d="M57.4983,-180.465C44.2127,-172.917 26.9242,-160.533 19,-144 12.853,-131.175 10.1965,-123.17 19,-112 68.1794,-49.6002 649.591,-19.2932 799.116,-12.4993"/>
<polygon fill="midnightblue" stroke="midnightblue" points="799.289,-15.9951 809.122,-12.0506 798.975,-9.00214 799.289,-15.9951"/>
</g>
<!-- Node18&#45;&gt;Node13 -->
<g id="edge26" class="edge"><title>Node18&#45;&gt;Node13</title>
<path fill="none" stroke="midnightblue" d="M150.545,-180.79C153.399,-180.516 156.225,-180.252 159,-180 167.264,-179.249 680.067,-141.114 812.212,-131.289"/>
<polygon fill="midnightblue" stroke="midnightblue" points="812.721,-134.761 822.434,-130.529 812.202,-127.78 812.721,-134.761"/>
</g>
<!-- Node19 -->
<g id="node19" class="node"><title>Node19</title>
<polygon fill="none" stroke="#bfbfbf" points="28,-118.5 28,-137.5 138,-137.5 138,-118.5 28,-118.5"/>
<text text-anchor="middle" x="83" y="-125.5" font-family="Helvetica,sans-Serif" font-size="10.00">fairmq/FairMQParts.h</text>
</g>
<!-- Node18&#45;&gt;Node19 -->
<g id="edge23" class="edge"><title>Node18&#45;&gt;Node19</title>
<path fill="none" stroke="midnightblue" d="M76.1462,-180.403C77.2749,-171.938 79.0362,-158.728 80.4907,-147.82"/>
<polygon fill="midnightblue" stroke="midnightblue" points="84.0035,-147.955 81.8559,-137.581 77.0649,-147.03 84.0035,-147.955"/>
</g>
<!-- Node18&#45;&gt;Node20 -->
<g id="edge24" class="edge"><title>Node18&#45;&gt;Node20</title>
<path fill="none" stroke="midnightblue" d="M90.2786,-180.339C116.827,-165.451 173.39,-134.447 223,-112 251.069,-99.2999 283.868,-86.7833 307.413,-78.1878"/>
<polygon fill="midnightblue" stroke="midnightblue" points="308.685,-81.4496 316.897,-74.7549 306.303,-74.8676 308.685,-81.4496"/>
</g>
<!-- Node21&#45;&gt;Node7 -->
<g id="edge31" class="edge"><title>Node21&#45;&gt;Node7</title>
<path fill="none" stroke="midnightblue" d="M241.439,-180.059C229.919,-165.283 210.554,-135.105 223,-112 244.455,-72.1717 265.26,-70.8284 308,-56 399.261,-24.3376 696.855,-14.3074 799.119,-11.7522"/>
<polygon fill="midnightblue" stroke="midnightblue" points="799.311,-15.2487 809.224,-11.5084 799.143,-8.25071 799.311,-15.2487"/>
</g>
<!-- Node21&#45;&gt;Node13 -->
<g id="edge32" class="edge"><title>Node21&#45;&gt;Node13</title>
<path fill="none" stroke="midnightblue" d="M329.728,-180.846C463.085,-167.375 723.502,-141.071 812.404,-132.09"/>
<polygon fill="midnightblue" stroke="midnightblue" points="812.778,-135.571 822.376,-131.083 812.074,-128.606 812.778,-135.571"/>
</g>
<!-- Node21&#45;&gt;Node20 -->
<g id="edge30" class="edge"><title>Node21&#45;&gt;Node20</title>
<path fill="none" stroke="midnightblue" d="M261.107,-180.435C272.257,-172.094 288.73,-158.571 300,-144 314.138,-125.72 325.396,-101.52 332.112,-85.1675"/>
<polygon fill="midnightblue" stroke="midnightblue" points="335.435,-86.282 335.855,-75.6954 328.925,-83.7095 335.435,-86.282"/>
</g>
<!-- Node21&#45;&gt;Node22 -->
<g id="edge28" class="edge"><title>Node21&#45;&gt;Node22</title>
<path fill="none" stroke="midnightblue" d="M329.624,-184.451C356.748,-182.968 387.181,-181.356 415,-180 784.685,-161.981 879.61,-188.903 1247,-144 1255.98,-142.902 1265.5,-141.306 1274.61,-139.56"/>
<polygon fill="midnightblue" stroke="midnightblue" points="1275.56,-142.94 1284.68,-137.543 1274.18,-136.076 1275.56,-142.94"/>
</g>
<!-- Node23 -->
<g id="node23" class="node"><title>Node23</title>
<polygon fill="none" stroke="#bfbfbf" points="232.5,-118.5 232.5,-137.5 291.5,-137.5 291.5,-118.5 232.5,-118.5"/>
<text text-anchor="middle" x="262" y="-125.5" font-family="Helvetica,sans-Serif" font-size="10.00">TObject.h</text>
</g>
<!-- Node21&#45;&gt;Node23 -->
<g id="edge29" class="edge"><title>Node21&#45;&gt;Node23</title>
<path fill="none" stroke="midnightblue" d="M250.863,-180.403C252.716,-171.849 255.619,-158.45 257.997,-147.476"/>
<polygon fill="midnightblue" stroke="midnightblue" points="261.444,-148.095 260.141,-137.581 254.603,-146.613 261.444,-148.095"/>
</g>
<!-- Node24&#45;&gt;Node6 -->
<g id="edge41" class="edge"><title>Node24&#45;&gt;Node6</title>
<path fill="none" stroke="midnightblue" d="M1862.27,-180.472C1926.59,-171.209 2018.4,-156.116 2030,-144 2059.53,-113.172 2057.08,-58.5493 2053.27,-29.8368"/>
<polygon fill="midnightblue" stroke="midnightblue" points="2056.67,-28.9288 2051.7,-19.5746 2049.75,-29.9894 2056.67,-28.9288"/>
</g>
<!-- Node24&#45;&gt;Node22 -->
<g id="edge34" class="edge"><title>Node24&#45;&gt;Node22</title>
<path fill="none" stroke="midnightblue" d="M1731.28,-180.499C1642.28,-169.328 1486.54,-149.779 1394.68,-138.248"/>
<polygon fill="midnightblue" stroke="midnightblue" points="1394.98,-134.759 1384.62,-136.986 1394.11,-141.704 1394.98,-134.759"/>
</g>
<!-- Node25 -->
<g id="node25" class="node"><title>Node25</title>
<polygon fill="none" stroke="#bfbfbf" points="1798.5,-118.5 1798.5,-137.5 1845.5,-137.5 1845.5,-118.5 1798.5,-118.5"/>
<text text-anchor="middle" x="1822" y="-125.5" font-family="Helvetica,sans-Serif" font-size="10.00">TList.h</text>
</g>
<!-- Node24&#45;&gt;Node25 -->
<g id="edge35" class="edge"><title>Node24&#45;&gt;Node25</title>
<path fill="none" stroke="midnightblue" d="M1802.3,-180.403C1805.61,-171.76 1810.82,-158.17 1815.05,-147.134"/>
<polygon fill="midnightblue" stroke="midnightblue" points="1818.4,-148.171 1818.71,-137.581 1811.86,-145.665 1818.4,-148.171"/>
</g>
<!-- Node26 -->
<g id="node26" class="node"><title>Node26</title>
<polygon fill="none" stroke="#bfbfbf" points="1863.5,-118.5 1863.5,-137.5 1934.5,-137.5 1934.5,-118.5 1863.5,-118.5"/>
<text text-anchor="middle" x="1899" y="-125.5" font-family="Helvetica,sans-Serif" font-size="10.00">TMessage.h</text>
</g>
<!-- Node24&#45;&gt;Node26 -->
<g id="edge36" class="edge"><title>Node24&#45;&gt;Node26</title>
<path fill="none" stroke="midnightblue" d="M1813.33,-180.403C1829.66,-170.601 1856.6,-154.439 1875.91,-142.853"/>
<polygon fill="midnightblue" stroke="midnightblue" points="1877.92,-145.727 1884.7,-137.581 1874.32,-139.724 1877.92,-145.727"/>
</g>
<!-- Node27 -->
<g id="node27" class="node"><title>Node27</title>
<polygon fill="none" stroke="#bfbfbf" points="1952.5,-118.5 1952.5,-137.5 2021.5,-137.5 2021.5,-118.5 1952.5,-118.5"/>
<text text-anchor="middle" x="1987" y="-125.5" font-family="Helvetica,sans-Serif" font-size="10.00">TObjArray.h</text>
</g>
<!-- Node24&#45;&gt;Node27 -->
<g id="edge37" class="edge"><title>Node24&#45;&gt;Node27</title>
<path fill="none" stroke="midnightblue" d="M1827.21,-180.418C1856.29,-171.516 1902.91,-157.094 1943,-144 1946.15,-142.973 1949.41,-141.889 1952.68,-140.795"/>
<polygon fill="midnightblue" stroke="midnightblue" points="1954.02,-144.038 1962.37,-137.521 1951.78,-137.406 1954.02,-144.038"/>
</g>
<!-- Node28 -->
<g id="node28" class="node"><title>Node28</title>
<polygon fill="none" stroke="#bfbfbf" points="1549.5,-118.5 1549.5,-137.5 1636.5,-137.5 1636.5,-118.5 1549.5,-118.5"/>
<text text-anchor="middle" x="1593" y="-125.5" font-family="Helvetica,sans-Serif" font-size="10.00">TStreamerInfo.h</text>
</g>
<!-- Node24&#45;&gt;Node28 -->
<g id="edge38" class="edge"><title>Node24&#45;&gt;Node28</title>
<path fill="none" stroke="midnightblue" d="M1769.49,-180.403C1733.38,-169.889 1672.15,-152.054 1632.15,-140.402"/>
<polygon fill="midnightblue" stroke="midnightblue" points="1633.04,-137.017 1622.46,-137.581 1631.08,-143.737 1633.04,-137.017"/>
</g>
<!-- Node29 -->
<g id="node29" class="node"><title>Node29</title>
<polygon fill="none" stroke="#bfbfbf" points="1654.5,-118.5 1654.5,-137.5 1717.5,-137.5 1717.5,-118.5 1654.5,-118.5"/>
<text text-anchor="middle" x="1686" y="-125.5" font-family="Helvetica,sans-Serif" font-size="10.00">gsl/gsl_util</text>
</g>
<!-- Node24&#45;&gt;Node29 -->
<g id="edge39" class="edge"><title>Node24&#45;&gt;Node29</title>
<path fill="none" stroke="midnightblue" d="M1782.81,-180.403C1764.1,-170.468 1733.08,-153.997 1711.2,-142.381"/>
<polygon fill="midnightblue" stroke="midnightblue" points="1712.63,-139.179 1702.16,-137.581 1709.35,-145.362 1712.63,-139.179"/>
</g>
<!-- Node24&#45;&gt;Node30 -->
<g id="edge40" class="edge"><title>Node24&#45;&gt;Node30</title>
<path fill="none" stroke="midnightblue" d="M1870.33,-180.483C1924.11,-173.198 1999.39,-161.151 2064,-144 2067.4,-143.098 2070.91,-142.029 2074.39,-140.885"/>
<polygon fill="midnightblue" stroke="midnightblue" points="2075.68,-144.143 2083.96,-137.534 2073.36,-137.537 2075.68,-144.143"/>
</g>
<!-- Node31 -->
<g id="node31" class="node"><title>Node31</title>
<polygon fill="none" stroke="#bfbfbf" points="1736,-118.5 1736,-137.5 1780,-137.5 1780,-118.5 1736,-118.5"/>
<text text-anchor="middle" x="1758" y="-125.5" font-family="Helvetica,sans-Serif" font-size="10.00">mutex</text>
</g>
<!-- Node24&#45;&gt;Node31 -->
<g id="edge42" class="edge"><title>Node24&#45;&gt;Node31</title>
<path fill="none" stroke="midnightblue" d="M1793.13,-180.403C1787.04,-171.493 1777.36,-157.325 1769.7,-146.118"/>
<polygon fill="midnightblue" stroke="midnightblue" points="1772.4,-143.862 1763.86,-137.581 1766.62,-147.812 1772.4,-143.862"/>
</g>
<!-- Node32&#45;&gt;Node20 -->
<g id="edge45" class="edge"><title>Node32&#45;&gt;Node20</title>
<path fill="none" stroke="midnightblue" d="M537.76,-118.403C493.218,-106.884 414.708,-86.5796 370.874,-75.2432"/>
<polygon fill="midnightblue" stroke="midnightblue" points="371.593,-71.8141 361.035,-72.6987 369.84,-78.5912 371.593,-71.8141"/>
</g>
<!-- Node32&#45;&gt;Node33 -->
<g id="edge44" class="edge"><title>Node32&#45;&gt;Node33</title>
<path fill="none" stroke="midnightblue" d="M586.904,-118.403C605.285,-108.468 635.756,-91.9966 657.245,-80.3812"/>
<polygon fill="midnightblue" stroke="midnightblue" points="658.993,-83.4148 666.126,-75.5806 655.665,-77.2568 658.993,-83.4148"/>
</g>
<!-- Node34&#45;&gt;Node32 -->
<g id="edge47" class="edge"><title>Node34&#45;&gt;Node32</title>
<path fill="none" stroke="midnightblue" d="M676.377,-180.403C655.826,-170.379 621.636,-153.701 597.793,-142.07"/>
<polygon fill="midnightblue" stroke="midnightblue" points="599.112,-138.819 588.59,-137.581 596.043,-145.111 599.112,-138.819"/>
</g>
<!-- Node38&#45;&gt;Node4 -->
<g id="edge65" class="edge"><title>Node38&#45;&gt;Node4</title>
<path fill="none" stroke="midnightblue" d="M1622.11,-245.174C1776.88,-244.826 2137.06,-239.71 2174,-200 2200.64,-171.364 2200.61,-140.665 2174,-112 2169.49,-107.137 1796.25,-81.9445 1638.82,-71.5218"/>
<polygon fill="midnightblue" stroke="midnightblue" points="1638.98,-68.0247 1628.77,-70.857 1638.52,-75.0094 1638.98,-68.0247"/>
</g>
<!-- Node38&#45;&gt;Node15 -->
<g id="edge59" class="edge"><title>Node38&#45;&gt;Node15</title>
<path fill="none" stroke="midnightblue" d="M1539.75,-236.292C1518.8,-221.887 1474.24,-193.364 1432,-180 1300.6,-138.431 1260.74,-161.229 1124,-144 1111.24,-142.392 1097.66,-140.614 1084.54,-138.861"/>
<polygon fill="midnightblue" stroke="midnightblue" points="1085,-135.39 1074.62,-137.528 1084.07,-142.328 1085,-135.39"/>
</g>
<!-- Node39 -->
<g id="node39" class="node"><title>Node39</title>
<g id="a_node39"><a xlink:href="../../d5/d3f/InputSpec_8h.html" target="_top" xlink:title="Framework/InputSpec.h">
<polygon fill="none" stroke="black" points="1555.5,-180.5 1555.5,-199.5 1676.5,-199.5 1676.5,-180.5 1555.5,-180.5"/>
<text text-anchor="middle" x="1616" y="-187.5" font-family="Helvetica,sans-Serif" font-size="10.00">Framework/InputSpec.h</text>
</a>
</g>
</g>
<!-- Node38&#45;&gt;Node39 -->
<g id="edge60" class="edge"><title>Node38&#45;&gt;Node39</title>
<path fill="none" stroke="midnightblue" d="M1562.28,-236.324C1571.84,-228.263 1586.28,-216.077 1597.78,-206.369"/>
<polygon fill="midnightblue" stroke="midnightblue" points="1600.14,-208.958 1605.53,-199.834 1595.63,-203.608 1600.14,-208.958"/>
</g>
<!-- Node39&#45;&gt;Node4 -->
<g id="edge64" class="edge"><title>Node39&#45;&gt;Node4</title>
<path fill="none" stroke="midnightblue" d="M1567.71,-180.475C1529.91,-172.703 1481.81,-160.005 1470,-144 1461.55,-132.558 1462.28,-123.943 1470,-112 1480.38,-95.9479 1498,-85.5651 1515.58,-78.8738"/>
<polygon fill="midnightblue" stroke="midnightblue" points="1516.99,-82.0913 1525.3,-75.5236 1514.71,-75.4734 1516.99,-82.0913"/>
</g>
<!-- Node39&#45;&gt;Node11 -->
<g id="edge63" class="edge"><title>Node39&#45;&gt;Node11</title>
<path fill="none" stroke="midnightblue" d="M1580.14,-180.449C1548.16,-172.403 1500.31,-159.322 1460,-144 1429.15,-132.276 1424.22,-122.688 1393,-112 1346.87,-96.2097 1293.01,-84.7058 1251.79,-77.2834"/>
<polygon fill="midnightblue" stroke="midnightblue" points="1252.32,-73.8229 1241.86,-75.5305 1251.1,-80.7163 1252.32,-73.8229"/>
</g>
<!-- Node39&#45;&gt;Node13 -->
<g id="edge61" class="edge"><title>Node39&#45;&gt;Node13</title>
<path fill="none" stroke="midnightblue" d="M1555.43,-186.022C1383.84,-177.495 904.728,-153.018 872,-144 870.033,-143.458 868.045,-142.772 866.082,-141.993"/>
<polygon fill="midnightblue" stroke="midnightblue" points="867.214,-138.657 856.676,-137.56 864.23,-144.989 867.214,-138.657"/>
</g>
<!-- Node40 -->
<g id="node40" class="node"><title>Node40</title>
<polygon fill="none" stroke="#bfbfbf" points="1479,-118.5 1479,-137.5 1531,-137.5 1531,-118.5 1479,-118.5"/>
<text text-anchor="middle" x="1505" y="-125.5" font-family="Helvetica,sans-Serif" font-size="10.00">ostream</text>
</g>
<!-- Node39&#45;&gt;Node40 -->
<g id="edge62" class="edge"><title>Node39&#45;&gt;Node40</title>
<path fill="none" stroke="midnightblue" d="M1600.1,-180.403C1581.72,-170.468 1551.24,-153.997 1529.76,-142.381"/>
<polygon fill="midnightblue" stroke="midnightblue" points="1531.34,-139.257 1520.87,-137.581 1528.01,-145.415 1531.34,-139.257"/>
</g>
<!-- Node41&#45;&gt;Node4 -->
<g id="edge67" class="edge"><title>Node41&#45;&gt;Node4</title>
<path fill="none" stroke="midnightblue" d="M2225.79,-113.912C2221.13,-113.21 2216.5,-112.563 2212,-112 2004.29,-86.03 1756.76,-73.9705 1638.94,-69.3701"/>
<polygon fill="midnightblue" stroke="midnightblue" points="1638.76,-65.8606 1628.63,-68.9737 1638.49,-72.8554 1638.76,-65.8606"/>
</g>
<!-- Node41&#45;&gt;Node5 -->
<g id="edge68" class="edge"><title>Node41&#45;&gt;Node5</title>
<path fill="none" stroke="midnightblue" d="M2279.18,-112.776C2254.88,-90.9257 2208.55,-49.2578 2183.35,-26.6044"/>
<polygon fill="midnightblue" stroke="midnightblue" points="2185.46,-23.7909 2175.68,-19.707 2180.78,-28.996 2185.46,-23.7909"/>
</g>
<!-- Node41&#45;&gt;Node6 -->
<g id="edge70" class="edge"><title>Node41&#45;&gt;Node6</title>
<path fill="none" stroke="midnightblue" d="M2264.96,-112.776C2216.88,-90.0142 2123.39,-45.7469 2077.19,-23.8715"/>
<polygon fill="midnightblue" stroke="midnightblue" points="2078.61,-20.6752 2068.08,-19.5592 2075.62,-27.0019 2078.61,-20.6752"/>
</g>
<!-- Node41&#45;&gt;Node7 -->
<g id="edge71" class="edge"><title>Node41&#45;&gt;Node7</title>
<path fill="none" stroke="midnightblue" d="M2225.78,-114.053C2221.12,-113.317 2216.5,-112.624 2212,-112 1680.65,-38.2376 1026.06,-16.273 869.032,-11.898"/>
<polygon fill="midnightblue" stroke="midnightblue" points="868.686,-8.3873 858.595,-11.6129 868.495,-15.3847 868.686,-8.3873"/>
</g>
<!-- Node42 -->
<g id="node42" class="node"><title>Node42</title>
<polygon fill="none" stroke="#bfbfbf" points="2273.5,-56.5 2273.5,-75.5 2316.5,-75.5 2316.5,-56.5 2273.5,-56.5"/>
<text text-anchor="middle" x="2295" y="-63.5" font-family="Helvetica,sans-Serif" font-size="10.00">cstdio</text>
</g>
<!-- Node41&#45;&gt;Node42 -->
<g id="edge69" class="edge"><title>Node41&#45;&gt;Node42</title>
<path fill="none" stroke="midnightblue" d="M2295,-112.781C2295,-104.781 2295,-94.6887 2295,-86.0168"/>
<polygon fill="midnightblue" stroke="midnightblue" points="2298.5,-85.7305 2295,-75.7305 2291.5,-85.7306 2298.5,-85.7305"/>
</g>
</g>
</svg>
        <g id="navigator" transform="translate(0 0)" fill="#404254">
                <rect fill="#f2f5e9" fill-opacity="0.5" stroke="#606060" stroke-width=".5" x="0" y="0" width="60" height="60"/>
                <use id="zoomplus" xlink:href="#zoomPlus" x="17" y="9" onmousedown="handleZoom(evt,'in')"/>
                <use id="zoomminus" xlink:href="#zoomMin" x="42" y="9" onmousedown="handleZoom(evt,'out')"/>
                <use id="reset" xlink:href="#resetDef" x="30" y="36" onmousedown="handleReset()"/>
                <g id="arrowUp" xlink:href="#dirArrow" transform="translate(30 24)" onmousedown="handlePan(0,-1)">
                  <use xlink:href="#rim" fill="#404040">
                        <set attributeName="fill" to="#808080" begin="arrowUp.mouseover" end="arrowUp.mouseout"/>
                  </use>
                  <path fill="none" stroke="white" stroke-width="1.5" d="M0,-3.0v7 M-2.5,-0.5L0,-3.0L2.5,-0.5"/>
                </g>
                <g id="arrowRight" xlink:href="#dirArrow" transform="rotate(90) translate(36 -43)" onmousedown="handlePan(1,0)">
                  <use xlink:href="#rim" fill="#404040">
                        <set attributeName="fill" to="#808080" begin="arrowRight.mouseover" end="arrowRight.mouseout"/>
                  </use>
                  <path fill="none" stroke="white" stroke-width="1.5" d="M0,-3.0v7 M-2.5,-0.5L0,-3.0L2.5,-0.5"/>
                </g>
                <g id="arrowDown" xlink:href="#dirArrow" transform="rotate(180) translate(-30 -48)" onmousedown="handlePan(0,1)">
                  <use xlink:href="#rim" fill="#404040">
                        <set attributeName="fill" to="#808080" begin="arrowDown.mouseover" end="arrowDown.mouseout"/>
                  </use>
                  <path fill="none" stroke="white" stroke-width="1.5" d="M0,-3.0v7 M-2.5,-0.5L0,-3.0L2.5,-0.5"/>
                </g>
                <g id="arrowLeft" xlink:href="#dirArrow" transform="rotate(270) translate(-36 17)" onmousedown="handlePan(-1,0)">
                  <use xlink:href="#rim" fill="#404040">
                        <set attributeName="fill" to="#808080" begin="arrowLeft.mouseover" end="arrowLeft.mouseout"/>
                  </use>
                  <path fill="none" stroke="white" stroke-width="1.5" d="M0,-3.0v7 M-2.5,-0.5L0,-3.0L2.5,-0.5"/>
                </g>
        </g>
        <svg viewBox="0 0 15 15" width="100%" height="30px" preserveAspectRatio="xMaxYMin meet">
         <g id="arrow_out" transform="scale(0.3 0.3)">
          <a xlink:href="DataAllocator_8cxx__incl_org.svg" target="_base">
           <rect id="button" ry="5" rx="5" y="6" x="6" height="38" width="38"
                fill="#f2f5e9" fill-opacity="0.5" stroke="#606060" stroke-width="1.0"/>
           <path id="arrow"
             d="M 11.500037,31.436501 C 11.940474,20.09759 22.043105,11.32322 32.158766,21.979434 L 37.068811,17.246167 C 37.068811,17.246167 37.088388,32 37.088388,32 L 22.160133,31.978069 C 22.160133,31.978069 26.997745,27.140456 26.997745,27.140456 C 18.528582,18.264221 13.291696,25.230495 11.500037,31.436501 z"
             style="fill:#404040;"/>
          </a>
         </g>
        </svg>
</svg>
