<?xml version="1.0" encoding="UTF-8" standalone="no"?>
<!DOCTYPE svg PUBLIC "-//W3C//DTD SVG 1.1//EN"
 "http://www.w3.org/Graphics/SVG/1.1/DTD/svg11.dtd">
<!-- Generated by graphviz version 2.36.0 (20140111.2315)
 -->
<!-- Title: O2MessageMonitor Pages: 1 -->
<svg width="238pt" height="380pt"
 viewBox="0.00 0.00 238.00 380.00" xmlns="http://www.w3.org/2000/svg" xmlns:xlink="http://www.w3.org/1999/xlink">
<g id="graph0" class="graph" transform="scale(1 1) rotate(0) translate(4 376)">
<title>O2MessageMonitor</title>
<!-- Node1 -->
<g id="node1" class="node"><title>Node1</title>
<polygon fill="#bfbfbf" stroke="black" points="41,-1 41,-113 163,-113 163,-1 41,-1"/>
<text text-anchor="middle" x="102" y="-101" font-family="Helvetica,sans-Serif" font-size="10.00">O2MessageMonitor</text>
<polyline fill="none" stroke="black" points="41,-94 163,-94 "/>
<text text-anchor="middle" x="102" y="-82" font-family="Helvetica,sans-Serif" font-size="10.00"> </text>
<polyline fill="none" stroke="black" points="41,-75 163,-75 "/>
<text text-anchor="start" x="49" y="-63" font-family="Helvetica,sans-Serif" font-size="10.00">+ O2MessageMonitor()</text>
<text text-anchor="start" x="49" y="-52" font-family="Helvetica,sans-Serif" font-size="10.00">+ ~O2MessageMonitor()</text>
<text text-anchor="start" x="49" y="-41" font-family="Helvetica,sans-Serif" font-size="10.00"># Run()</text>
<text text-anchor="start" x="49" y="-30" font-family="Helvetica,sans-Serif" font-size="10.00"># InitTask()</text>
<text text-anchor="start" x="49" y="-19" font-family="Helvetica,sans-Serif" font-size="10.00"># HandleData()</text>
<text text-anchor="start" x="49" y="-8" font-family="Helvetica,sans-Serif" font-size="10.00"># HandleO2frame()</text>
</g>
<!-- Node2 -->
<g id="node2" class="node"><title>Node2</title>
<g id="a_node2"><a xlink:href="../../da/df6/classo2_1_1Base_1_1O2Device.html" target="_top" xlink:title="{o2::Base::O2Device\n||+ ~O2Device()\l+ GetMonitoring()\l+ Init()\l+ AddMessage()\l+ ForEach()\l}">
<polygon fill="none" stroke="black" points="49.5,-152.5 49.5,-253.5 154.5,-253.5 154.5,-152.5 49.5,-152.5"/>
<text text-anchor="middle" x="102" y="-241.5" font-family="Helvetica,sans-Serif" font-size="10.00">o2::Base::O2Device</text>
<polyline fill="none" stroke="black" points="49.5,-234.5 154.5,-234.5 "/>
<text text-anchor="middle" x="102" y="-222.5" font-family="Helvetica,sans-Serif" font-size="10.00"> </text>
<polyline fill="none" stroke="black" points="49.5,-215.5 154.5,-215.5 "/>
<text text-anchor="start" x="57.5" y="-203.5" font-family="Helvetica,sans-Serif" font-size="10.00">+ ~O2Device()</text>
<text text-anchor="start" x="57.5" y="-192.5" font-family="Helvetica,sans-Serif" font-size="10.00">+ GetMonitoring()</text>
<text text-anchor="start" x="57.5" y="-181.5" font-family="Helvetica,sans-Serif" font-size="10.00">+ Init()</text>
<text text-anchor="start" x="57.5" y="-170.5" font-family="Helvetica,sans-Serif" font-size="10.00">+ AddMessage()</text>
<text text-anchor="start" x="57.5" y="-159.5" font-family="Helvetica,sans-Serif" font-size="10.00">+ ForEach()</text>
</a>
</g>
</g>
<!-- Node2&#45;&gt;Node1 -->
<g id="edge1" class="edge"><title>Node2&#45;&gt;Node1</title>
<path fill="none" stroke="midnightblue" d="M102,-142.145C102,-132.515 102,-122.587 102,-113.076"/>
<polygon fill="none" stroke="midnightblue" points="98.5001,-142.443 102,-152.443 105.5,-142.443 98.5001,-142.443"/>
</g>
<!-- Node3 -->
<g id="node3" class="node"><title>Node3</title>
<g id="a_node3"><a xlink:href="../../db/dfe/classFairMQDevice.html" target="_top" xlink:title="{FairMQDevice\n||}">
<polygon fill="none" stroke="black" points="0,-308.5 0,-365.5 80,-365.5 80,-308.5 0,-308.5"/>
<text text-anchor="middle" x="40" y="-353.5" font-family="Helvetica,sans-Serif" font-size="10.00">FairMQDevice</text>
<polyline fill="none" stroke="black" points="0,-346.5 80,-346.5 "/>
<text text-anchor="middle" x="40" y="-334.5" font-family="Helvetica,sans-Serif" font-size="10.00"> </text>
<polyline fill="none" stroke="black" points="0,-327.5 80,-327.5 "/>
<text text-anchor="middle" x="40" y="-315.5" font-family="Helvetica,sans-Serif" font-size="10.00"> </text>
</a>
</g>
</g>
<!-- Node3&#45;&gt;Node2 -->
<g id="edge2" class="edge"><title>Node3&#45;&gt;Node2</title>
<path fill="none" stroke="midnightblue" d="M57.3962,-298.963C64.0172,-284.867 71.6709,-268.572 78.7488,-253.503"/>
<polygon fill="none" stroke="midnightblue" points="54.0807,-297.789 52.9972,-308.328 60.4166,-300.765 54.0807,-297.789"/>
</g>
<!-- Node4 -->
<g id="node4" class="node"><title>Node4</title>
<polygon fill="none" stroke="#bfbfbf" points="98,-303 98,-371 230,-371 230,-303 98,-303"/>
<text text-anchor="start" x="106" y="-359" font-family="Helvetica,sans-Serif" font-size="10.00">unique_ptr&lt; o2::monitoring</text>
<text text-anchor="middle" x="164" y="-348" font-family="Helvetica,sans-Serif" font-size="10.00">::Monitoring &gt;</text>
<polyline fill="none" stroke="#bfbfbf" points="98,-341 230,-341 "/>
<text text-anchor="middle" x="164" y="-329" font-family="Helvetica,sans-Serif" font-size="10.00"> </text>
<polyline fill="none" stroke="#bfbfbf" points="98,-322 230,-322 "/>
<text text-anchor="middle" x="164" y="-310" font-family="Helvetica,sans-Serif" font-size="10.00"> </text>
</g>
<!-- Node4&#45;&gt;Node2 -->
<g id="edge3" class="edge"><title>Node4&#45;&gt;Node2</title>
<path fill="none" stroke="#404040" d="M148.355,-302.691C142.89,-291.056 136.573,-277.607 130.395,-264.454"/>
<polygon fill="none" stroke="#404040" points="130.362,-264.383 124.19,-260.653 125.26,-253.522 131.432,-257.252 130.362,-264.383"/>
<text text-anchor="middle" x="165.5" y="-275.5" font-family="Helvetica,sans-Serif" font-size="10.00"> +monitoring</text>
</g>
</g>
</svg>
