<?xml version="1.0" encoding="UTF-8" standalone="no"?>
<!DOCTYPE svg PUBLIC "-//W3C//DTD SVG 1.1//EN"
 "http://www.w3.org/Graphics/SVG/1.1/DTD/svg11.dtd">
<!-- Generated by graphviz version 2.36.0 (20140111.2315)
 -->
<!-- Title: /home/travis/build/AliceO2Group/AliceO2/Detectors/TPC/workflow/src/ClusterDecoderRawSpec.h Pages: 1 -->
<svg width="324pt" height="152pt"
 viewBox="0.00 0.00 324.00 152.00" xmlns="http://www.w3.org/2000/svg" xmlns:xlink="http://www.w3.org/1999/xlink">
<g id="graph0" class="graph" transform="scale(1 1) rotate(0) translate(4 148)">
<title>/home/travis/build/AliceO2Group/AliceO2/Detectors/TPC/workflow/src/ClusterDecoderRawSpec.h</title>
<!-- Node1 -->
<g id="node1" class="node"><title>Node1</title>
<polygon fill="#bfbfbf" stroke="black" points="88.5,-91 88.5,-143 243.5,-143 243.5,-91 88.5,-91"/>
<text text-anchor="start" x="96.5" y="-131" font-family="Helvetica,sans-Serif" font-size="10.00">/home/travis/build</text>
<text text-anchor="start" x="96.5" y="-120" font-family="Helvetica,sans-Serif" font-size="10.00">/AliceO2Group/AliceO2</text>
<text text-anchor="start" x="96.5" y="-109" font-family="Helvetica,sans-Serif" font-size="10.00">/Detectors/TPC/workflow</text>
<text text-anchor="middle" x="166" y="-98" font-family="Helvetica,sans-Serif" font-size="10.00">/src/ClusterDecoderRawSpec.h</text>
</g>
<!-- Node2 -->
<g id="node2" class="node"><title>Node2</title>
<g id="a_node2"><a xlink:href="../../d9/d7b/ClusterDecoderRawSpec_8cxx.html" target="_top" xlink:title="Processor spec for decoder of TPC raw cluster data. ">
<polygon fill="none" stroke="black" points="0,-1 0,-53 166,-53 166,-1 0,-1"/>
<text text-anchor="start" x="8" y="-41" font-family="Helvetica,sans-Serif" font-size="10.00">/home/travis/build</text>
<text text-anchor="start" x="8" y="-30" font-family="Helvetica,sans-Serif" font-size="10.00">/AliceO2Group/AliceO2</text>
<text text-anchor="start" x="8" y="-19" font-family="Helvetica,sans-Serif" font-size="10.00">/Detectors/TPC/workflow</text>
<text text-anchor="middle" x="83" y="-8" font-family="Helvetica,sans-Serif" font-size="10.00">/src/ClusterDecoderRawSpec.cxx</text>
</a>
</g>
</g>
<!-- Node1&#45;&gt;Node2 -->
<g id="edge1" class="edge"><title>Node1&#45;&gt;Node2</title>
<path fill="none" stroke="midnightblue" d="M135.006,-83.1386C125.628,-73.1958 115.484,-62.4408 106.666,-53.0921"/>
<polygon fill="midnightblue" stroke="midnightblue" points="132.585,-85.6735 141.993,-90.5468 137.678,-80.8705 132.585,-85.6735"/>
</g>
<!-- Node3 -->
<g id="node3" class="node"><title>Node3</title>
<g id="a_node3"><a xlink:href="../../d3/dbf/tpc-reco-workflow_8cxx.html" target="_top" xlink:title="Basic DPL workflow for TPC reconstruction starting from digits. ">
<polygon fill="none" stroke="black" points="184,-1 184,-53 316,-53 316,-1 184,-1"/>
<text text-anchor="start" x="192" y="-41" font-family="Helvetica,sans-Serif" font-size="10.00">/home/travis/build</text>
<text text-anchor="start" x="192" y="-30" font-family="Helvetica,sans-Serif" font-size="10.00">/AliceO2Group/AliceO2</text>
<text text-anchor="start" x="192" y="-19" font-family="Helvetica,sans-Serif" font-size="10.00">/Detectors/TPC/workflow</text>
<text text-anchor="middle" x="250" y="-8" font-family="Helvetica,sans-Serif" font-size="10.00">/src/tpc&#45;reco&#45;workflow.cxx</text>
</a>
</g>
</g>
<!-- Node1&#45;&gt;Node3 -->
<g id="edge2" class="edge"><title>Node1&#45;&gt;Node3</title>
<path fill="none" stroke="midnightblue" d="M197.368,-83.1386C206.859,-73.1958 217.125,-62.4408 226.048,-53.0921"/>
<polygon fill="midnightblue" stroke="midnightblue" points="194.669,-80.8965 190.296,-90.5468 199.733,-85.7298 194.669,-80.8965"/>
</g>
</g>
</svg>
