<?xml version="1.0" encoding="UTF-8" standalone="no"?>
<!DOCTYPE svg PUBLIC "-//W3C//DTD SVG 1.1//EN"
 "http://www.w3.org/Graphics/SVG/1.1/DTD/svg11.dtd">
<!-- Generated by graphviz version 2.36.0 (20140111.2315)
 -->
<!-- Title: /home/travis/build/AliceO2Group/AliceO2/Detectors/ITSMFT/common/base/include/ITSMFTBase/Digit.h Pages: 1 -->
<!--zoomable 562 -->
<svg id="main" version="1.1" xmlns="http://www.w3.org/2000/svg" xmlns:xlink="http://www.w3.org/1999/xlink" xml:space="preserve" onload="init(evt)">
<style type="text/css"><![CDATA[
.edge:hover path { stroke: red; }
.edge:hover polygon { stroke: red; fill: red; }
]]></style>
<script type="text/javascript"><![CDATA[
var edges = document.getElementsByTagName('g');
if (edges && edges.length) {
  for (var i=0;i<edges.length;i++) {
    if (edges[i].id.substr(0,4)=='edge') {
      edges[i].setAttribute('class','edge');
    }
  }
}
]]></script>
        <defs>
                <circle id="rim" cx="0" cy="0" r="7"/>
                <circle id="rim2" cx="0" cy="0" r="3.5"/>
                <g id="zoomPlus">
                        <use xlink:href="#rim" fill="#404040">
                                <set attributeName="fill" to="#808080" begin="zoomplus.mouseover" end="zoomplus.mouseout"/>
                        </use>
                        <path d="M-4,0h8M0,-4v8" fill="none" stroke="white" stroke-width="1.5" pointer-events="none"/>
                </g>
                <g id="zoomMin">
                        <use xlink:href="#rim" fill="#404040">
                                <set attributeName="fill" to="#808080" begin="zoomminus.mouseover" end="zoomminus.mouseout"/>
                        </use>
                        <path d="M-4,0h8" fill="none" stroke="white" stroke-width="1.5" pointer-events="none"/>
                </g>
                <g id="dirArrow">
                        <path fill="none" stroke="white" stroke-width="1.5" d="M0,-3.0v7 M-2.5,-0.5L0,-3.0L2.5,-0.5"/>
                </g>
               <g id="resetDef">
                       <use xlink:href="#rim2" fill="#404040">
                               <set attributeName="fill" to="#808080" begin="reset.mouseover" end="reset.mouseout"/>
                       </use>
               </g>
        </defs>

<script type="text/javascript">
var viewWidth = 2145;
var viewHeight = 562;
var sectionId = 'dynsection-1';
</script>
<script xlink:href="../../svgpan.js"/>
<svg id="graph" class="graph">
<g id="viewport">
<title>/home/travis/build/AliceO2Group/AliceO2/Detectors/ITSMFT/common/base/include/ITSMFTBase/Digit.h</title>
<!-- Node1 -->
<g id="node1" class="node"><title>Node1</title>
<polygon fill="#bfbfbf" stroke="black" points="1224,-490.5 1224,-553.5 1366,-553.5 1366,-490.5 1224,-490.5"/>
<text text-anchor="start" x="1232" y="-541.5" font-family="Helvetica,sans-Serif" font-size="10.00">/home/travis/build</text>
<text text-anchor="start" x="1232" y="-530.5" font-family="Helvetica,sans-Serif" font-size="10.00">/AliceO2Group/AliceO2</text>
<text text-anchor="start" x="1232" y="-519.5" font-family="Helvetica,sans-Serif" font-size="10.00">/Detectors/ITSMFT/common</text>
<text text-anchor="start" x="1232" y="-508.5" font-family="Helvetica,sans-Serif" font-size="10.00">/base/include/ITSMFTBase</text>
<text text-anchor="middle" x="1295" y="-497.5" font-family="Helvetica,sans-Serif" font-size="10.00">/Digit.h</text>
</g>
<!-- Node2 -->
<g id="node2" class="node"><title>Node2</title>
<g id="a_node2"><a xlink:href="../../df/d33/ITSMFT_2common_2base_2src_2Digit_8cxx.html" target="_top" xlink:title="/home/travis/build\l/AliceO2Group/AliceO2\l/Detectors/ITSMFT/common\l/base/src/Digit.cxx">
<polygon fill="none" stroke="black" points="316,-396 316,-448 458,-448 458,-396 316,-396"/>
<text text-anchor="start" x="324" y="-436" font-family="Helvetica,sans-Serif" font-size="10.00">/home/travis/build</text>
<text text-anchor="start" x="324" y="-425" font-family="Helvetica,sans-Serif" font-size="10.00">/AliceO2Group/AliceO2</text>
<text text-anchor="start" x="324" y="-414" font-family="Helvetica,sans-Serif" font-size="10.00">/Detectors/ITSMFT/common</text>
<text text-anchor="middle" x="387" y="-403" font-family="Helvetica,sans-Serif" font-size="10.00">/base/src/Digit.cxx</text>
</a>
</g>
</g>
<!-- Node1&#45;&gt;Node2 -->
<g id="edge1" class="edge"><title>Node1&#45;&gt;Node2</title>
<path fill="none" stroke="midnightblue" d="M1213.63,-517.407C1033.84,-508.982 607.573,-486.205 467,-454 460.176,-452.437 453.161,-450.402 446.256,-448.123"/>
<polygon fill="midnightblue" stroke="midnightblue" points="1213.67,-520.912 1223.82,-517.881 1213.99,-513.92 1213.67,-520.912"/>
</g>
<!-- Node3 -->
<g id="node3" class="node"><title>Node3</title>
<g id="a_node3"><a xlink:href="../../df/d2e/PixelReader_8h.html" target="_top" xlink:title="Definition of the ITS pixel reader. ">
<polygon fill="none" stroke="black" points="476,-390.5 476,-453.5 662,-453.5 662,-390.5 476,-390.5"/>
<text text-anchor="start" x="484" y="-441.5" font-family="Helvetica,sans-Serif" font-size="10.00">/home/travis/build</text>
<text text-anchor="start" x="484" y="-430.5" font-family="Helvetica,sans-Serif" font-size="10.00">/AliceO2Group/AliceO2</text>
<text text-anchor="start" x="484" y="-419.5" font-family="Helvetica,sans-Serif" font-size="10.00">/Detectors/ITSMFT/common</text>
<text text-anchor="start" x="484" y="-408.5" font-family="Helvetica,sans-Serif" font-size="10.00">/reconstruction/include</text>
<text text-anchor="middle" x="569" y="-397.5" font-family="Helvetica,sans-Serif" font-size="10.00">/ITSMFTReconstruction/PixelReader.h</text>
</a>
</g>
</g>
<!-- Node1&#45;&gt;Node3 -->
<g id="edge2" class="edge"><title>Node1&#45;&gt;Node3</title>
<path fill="none" stroke="midnightblue" d="M1213.8,-510.039C1078.01,-491.71 805.663,-454.946 662.243,-435.587"/>
<polygon fill="midnightblue" stroke="midnightblue" points="1213.36,-513.511 1223.73,-511.38 1214.29,-506.574 1213.36,-513.511"/>
</g>
<!-- Node13 -->
<g id="node13" class="node"><title>Node13</title>
<g id="a_node13"><a xlink:href="../../d9/d55/Chip_8h.html" target="_top" xlink:title="/home/travis/build\l/AliceO2Group/AliceO2\l/Detectors/ITSMFT/common\l/simulation/include/ITSMFTSimulation/\lChip.h">
<polygon fill="none" stroke="black" points="910.5,-390.5 910.5,-453.5 1095.5,-453.5 1095.5,-390.5 910.5,-390.5"/>
<text text-anchor="start" x="918.5" y="-441.5" font-family="Helvetica,sans-Serif" font-size="10.00">/home/travis/build</text>
<text text-anchor="start" x="918.5" y="-430.5" font-family="Helvetica,sans-Serif" font-size="10.00">/AliceO2Group/AliceO2</text>
<text text-anchor="start" x="918.5" y="-419.5" font-family="Helvetica,sans-Serif" font-size="10.00">/Detectors/ITSMFT/common</text>
<text text-anchor="start" x="918.5" y="-408.5" font-family="Helvetica,sans-Serif" font-size="10.00">/simulation/include/ITSMFTSimulation/</text>
<text text-anchor="middle" x="1003" y="-397.5" font-family="Helvetica,sans-Serif" font-size="10.00">Chip.h</text>
</a>
</g>
</g>
<!-- Node1&#45;&gt;Node13 -->
<g id="edge14" class="edge"><title>Node1&#45;&gt;Node13</title>
<path fill="none" stroke="midnightblue" d="M1214.14,-493.861C1176.88,-481.359 1132.52,-466.469 1094.09,-453.572"/>
<polygon fill="midnightblue" stroke="midnightblue" points="1213.35,-497.288 1223.94,-497.152 1215.58,-490.652 1213.35,-497.288"/>
</g>
<!-- Node16 -->
<g id="node16" class="node"><title>Node16</title>
<g id="a_node16"><a xlink:href="../../dc/dbf/ITSMFT_2common_2simulation_2src_2Digitizer_8cxx.html" target="_top" xlink:title="/home/travis/build\l/AliceO2Group/AliceO2\l/Detectors/ITSMFT/common\l/simulation/src/Digitizer.cxx">
<polygon fill="none" stroke="black" points="1157,-96 1157,-148 1299,-148 1299,-96 1157,-96"/>
<text text-anchor="start" x="1165" y="-136" font-family="Helvetica,sans-Serif" font-size="10.00">/home/travis/build</text>
<text text-anchor="start" x="1165" y="-125" font-family="Helvetica,sans-Serif" font-size="10.00">/AliceO2Group/AliceO2</text>
<text text-anchor="start" x="1165" y="-114" font-family="Helvetica,sans-Serif" font-size="10.00">/Detectors/ITSMFT/common</text>
<text text-anchor="middle" x="1228" y="-103" font-family="Helvetica,sans-Serif" font-size="10.00">/simulation/src/Digitizer.cxx</text>
</a>
</g>
</g>
<!-- Node1&#45;&gt;Node16 -->
<g id="edge29" class="edge"><title>Node1&#45;&gt;Node16</title>
<path fill="none" stroke="midnightblue" d="M1268.9,-481.431C1264.2,-472.706 1259.89,-463.287 1257,-454 1222.81,-344.114 1224.3,-204.478 1226.62,-148.195"/>
<polygon fill="midnightblue" stroke="midnightblue" points="1265.92,-483.263 1273.89,-490.238 1272.01,-479.812 1265.92,-483.263"/>
</g>
<!-- Node25 -->
<g id="node25" class="node"><title>Node25</title>
<g id="a_node25"><a xlink:href="../../db/dd3/SimulationAlpide_8cxx.html" target="_top" xlink:title="Simulation of the ALIPIDE chip response. ">
<polygon fill="none" stroke="black" points="970.5,-196 970.5,-248 1145.5,-248 1145.5,-196 970.5,-196"/>
<text text-anchor="start" x="978.5" y="-236" font-family="Helvetica,sans-Serif" font-size="10.00">/home/travis/build</text>
<text text-anchor="start" x="978.5" y="-225" font-family="Helvetica,sans-Serif" font-size="10.00">/AliceO2Group/AliceO2</text>
<text text-anchor="start" x="978.5" y="-214" font-family="Helvetica,sans-Serif" font-size="10.00">/Detectors/ITSMFT/common</text>
<text text-anchor="middle" x="1058" y="-203" font-family="Helvetica,sans-Serif" font-size="10.00">/simulation/src/SimulationAlpide.cxx</text>
</a>
</g>
</g>
<!-- Node1&#45;&gt;Node25 -->
<g id="edge30" class="edge"><title>Node1&#45;&gt;Node25</title>
<path fill="none" stroke="midnightblue" d="M1247.34,-483.11C1238.58,-474.327 1230.24,-464.459 1224,-454 1185.31,-389.204 1226.59,-349.37 1180,-290 1165.98,-272.13 1145.8,-258.35 1125.89,-248.066"/>
<polygon fill="midnightblue" stroke="midnightblue" points="1245.12,-485.83 1254.76,-490.223 1249.96,-480.776 1245.12,-485.83"/>
</g>
<!-- Node28 -->
<g id="node28" class="node"><title>Node28</title>
<g id="a_node28"><a xlink:href="../../de/d5b/CheckClusterShape_8C.html" target="_top" xlink:title="/home/travis/build\l/AliceO2Group/AliceO2\l/Detectors/ITSMFT/ITS\l/macros/test/CheckClusterShape.C">
<polygon fill="none" stroke="black" points="1266.5,-396 1266.5,-448 1439.5,-448 1439.5,-396 1266.5,-396"/>
<text text-anchor="start" x="1274.5" y="-436" font-family="Helvetica,sans-Serif" font-size="10.00">/home/travis/build</text>
<text text-anchor="start" x="1274.5" y="-425" font-family="Helvetica,sans-Serif" font-size="10.00">/AliceO2Group/AliceO2</text>
<text text-anchor="start" x="1274.5" y="-414" font-family="Helvetica,sans-Serif" font-size="10.00">/Detectors/ITSMFT/ITS</text>
<text text-anchor="middle" x="1353" y="-403" font-family="Helvetica,sans-Serif" font-size="10.00">/macros/test/CheckClusterShape.C</text>
</a>
</g>
</g>
<!-- Node1&#45;&gt;Node28 -->
<g id="edge31" class="edge"><title>Node1&#45;&gt;Node28</title>
<path fill="none" stroke="midnightblue" d="M1318.42,-481.421C1325.09,-470.154 1332.17,-458.196 1338.17,-448.054"/>
<polygon fill="midnightblue" stroke="midnightblue" points="1315.27,-479.873 1313.19,-490.261 1321.3,-483.438 1315.27,-479.873"/>
</g>
<!-- Node29 -->
<g id="node29" class="node"><title>Node29</title>
<g id="a_node29"><a xlink:href="../../d9/dd0/CheckDigits_8C.html" target="_top" xlink:title="Simple macro to check ITSU clusters. ">
<polygon fill="none" stroke="black" points="1457.5,-396 1457.5,-448 1596.5,-448 1596.5,-396 1457.5,-396"/>
<text text-anchor="start" x="1465.5" y="-436" font-family="Helvetica,sans-Serif" font-size="10.00">/home/travis/build</text>
<text text-anchor="start" x="1465.5" y="-425" font-family="Helvetica,sans-Serif" font-size="10.00">/AliceO2Group/AliceO2</text>
<text text-anchor="start" x="1465.5" y="-414" font-family="Helvetica,sans-Serif" font-size="10.00">/Detectors/ITSMFT/ITS</text>
<text text-anchor="middle" x="1527" y="-403" font-family="Helvetica,sans-Serif" font-size="10.00">/macros/test/CheckDigits.C</text>
</a>
</g>
</g>
<!-- Node1&#45;&gt;Node29 -->
<g id="edge32" class="edge"><title>Node1&#45;&gt;Node29</title>
<path fill="none" stroke="midnightblue" d="M1375.46,-487.012C1405.76,-474.215 1439.63,-459.906 1467.66,-448.067"/>
<polygon fill="midnightblue" stroke="midnightblue" points="1374.03,-483.815 1366.18,-490.931 1376.76,-490.264 1374.03,-483.815"/>
</g>
<!-- Node30 -->
<g id="node30" class="node"><title>Node30</title>
<g id="a_node30"><a xlink:href="../../d5/d89/TrivialClusterer_8cxx.html" target="_top" xlink:title="Implementation of the ITS cluster finder. ">
<polygon fill="none" stroke="black" points="1614.5,-396 1614.5,-448 1799.5,-448 1799.5,-396 1614.5,-396"/>
<text text-anchor="start" x="1622.5" y="-436" font-family="Helvetica,sans-Serif" font-size="10.00">/home/travis/build</text>
<text text-anchor="start" x="1622.5" y="-425" font-family="Helvetica,sans-Serif" font-size="10.00">/AliceO2Group/AliceO2</text>
<text text-anchor="start" x="1622.5" y="-414" font-family="Helvetica,sans-Serif" font-size="10.00">/Detectors/ITSMFT/ITS</text>
<text text-anchor="middle" x="1707" y="-403" font-family="Helvetica,sans-Serif" font-size="10.00">/reconstruction/src/TrivialClusterer.cxx</text>
</a>
</g>
</g>
<!-- Node1&#45;&gt;Node30 -->
<g id="edge33" class="edge"><title>Node1&#45;&gt;Node30</title>
<path fill="none" stroke="midnightblue" d="M1376.03,-505.384C1438.83,-492.826 1527.85,-474.025 1605,-454 1612.08,-452.163 1619.4,-450.155 1626.72,-448.073"/>
<polygon fill="midnightblue" stroke="midnightblue" points="1375.31,-501.96 1366.19,-507.345 1376.68,-508.825 1375.31,-501.96"/>
</g>
<!-- Node31 -->
<g id="node31" class="node"><title>Node31</title>
<g id="a_node31"><a xlink:href="../../dd/d81/TrivialClustererTask_8cxx.html" target="_top" xlink:title="Implementation of the ITS cluster finder task. ">
<polygon fill="none" stroke="black" points="1817.5,-390.5 1817.5,-453.5 1984.5,-453.5 1984.5,-390.5 1817.5,-390.5"/>
<text text-anchor="start" x="1825.5" y="-441.5" font-family="Helvetica,sans-Serif" font-size="10.00">/home/travis/build</text>
<text text-anchor="start" x="1825.5" y="-430.5" font-family="Helvetica,sans-Serif" font-size="10.00">/AliceO2Group/AliceO2</text>
<text text-anchor="start" x="1825.5" y="-419.5" font-family="Helvetica,sans-Serif" font-size="10.00">/Detectors/ITSMFT/ITS</text>
<text text-anchor="start" x="1825.5" y="-408.5" font-family="Helvetica,sans-Serif" font-size="10.00">/reconstruction/src/TrivialClusterer</text>
<text text-anchor="middle" x="1901" y="-397.5" font-family="Helvetica,sans-Serif" font-size="10.00">Task.cxx</text>
</a>
</g>
</g>
<!-- Node1&#45;&gt;Node31 -->
<g id="edge34" class="edge"><title>Node1&#45;&gt;Node31</title>
<path fill="none" stroke="midnightblue" d="M1376.52,-515.208C1478.44,-506.86 1657.78,-488.51 1808,-454 1811.07,-453.295 1814.18,-452.53 1817.31,-451.717"/>
<polygon fill="midnightblue" stroke="midnightblue" points="1375.98,-511.74 1366.3,-516.033 1376.55,-518.717 1375.98,-511.74"/>
</g>
<!-- Node32 -->
<g id="node32" class="node"><title>Node32</title>
<g id="a_node32"><a xlink:href="../../d1/d88/CheckDigits__mft_8C.html" target="_top" xlink:title="Simple macro to check MFT digits. ">
<polygon fill="none" stroke="black" points="2003,-401.5 2003,-442.5 2137,-442.5 2137,-401.5 2003,-401.5"/>
<text text-anchor="start" x="2011" y="-430.5" font-family="Helvetica,sans-Serif" font-size="10.00">/home/travis/build</text>
<text text-anchor="start" x="2011" y="-419.5" font-family="Helvetica,sans-Serif" font-size="10.00">/AliceO2Group/AliceO2</text>
<text text-anchor="middle" x="2070" y="-408.5" font-family="Helvetica,sans-Serif" font-size="10.00">/macro/CheckDigits_mft.C</text>
</a>
</g>
</g>
<!-- Node1&#45;&gt;Node32 -->
<g id="edge35" class="edge"><title>Node1&#45;&gt;Node32</title>
<path fill="none" stroke="midnightblue" d="M1376.6,-520.699C1508.2,-518.544 1774.64,-507.255 1993,-454 2004.48,-451.2 2016.51,-447.013 2027.55,-442.615"/>
<polygon fill="midnightblue" stroke="midnightblue" points="1376.15,-517.205 1366.21,-520.854 1376.26,-524.204 1376.15,-517.205"/>
</g>
<!-- Node4 -->
<g id="node4" class="node"><title>Node4</title>
<g id="a_node4"><a xlink:href="../../d6/d04/ITSMFT_2common_2reconstruction_2include_2ITSMFTReconstruction_2Clusterer_8h.html" target="_top" xlink:title="/home/travis/build\l/AliceO2Group/AliceO2\l/Detectors/ITSMFT/common\l/reconstruction/include\l/ITSMFTReconstruction/Clusterer.h">
<polygon fill="none" stroke="black" points="233.5,-290.5 233.5,-353.5 406.5,-353.5 406.5,-290.5 233.5,-290.5"/>
<text text-anchor="start" x="241.5" y="-341.5" font-family="Helvetica,sans-Serif" font-size="10.00">/home/travis/build</text>
<text text-anchor="start" x="241.5" y="-330.5" font-family="Helvetica,sans-Serif" font-size="10.00">/AliceO2Group/AliceO2</text>
<text text-anchor="start" x="241.5" y="-319.5" font-family="Helvetica,sans-Serif" font-size="10.00">/Detectors/ITSMFT/common</text>
<text text-anchor="start" x="241.5" y="-308.5" font-family="Helvetica,sans-Serif" font-size="10.00">/reconstruction/include</text>
<text text-anchor="middle" x="320" y="-297.5" font-family="Helvetica,sans-Serif" font-size="10.00">/ITSMFTReconstruction/Clusterer.h</text>
</a>
</g>
</g>
<!-- Node3&#45;&gt;Node4 -->
<g id="edge3" class="edge"><title>Node3&#45;&gt;Node4</title>
<path fill="none" stroke="midnightblue" d="M481.673,-386.63C454.289,-375.853 424.263,-364.035 397.599,-353.541"/>
<polygon fill="midnightblue" stroke="midnightblue" points="480.652,-389.99 491.239,-390.395 483.216,-383.476 480.652,-389.99"/>
</g>
<!-- Node6 -->
<g id="node6" class="node"><title>Node6</title>
<g id="a_node6"><a xlink:href="../../d6/d67/ITSMFT_2ITS_2reconstruction_2include_2ITSReconstruction_2ClustererTask_8h.html" target="_top" xlink:title="/home/travis/build\l/AliceO2Group/AliceO2\l/Detectors/ITSMFT/ITS\l/reconstruction/include\l/ITSReconstruction/ClustererTask.h">
<polygon fill="none" stroke="black" points="118,-190.5 118,-253.5 292,-253.5 292,-190.5 118,-190.5"/>
<text text-anchor="start" x="126" y="-241.5" font-family="Helvetica,sans-Serif" font-size="10.00">/home/travis/build</text>
<text text-anchor="start" x="126" y="-230.5" font-family="Helvetica,sans-Serif" font-size="10.00">/AliceO2Group/AliceO2</text>
<text text-anchor="start" x="126" y="-219.5" font-family="Helvetica,sans-Serif" font-size="10.00">/Detectors/ITSMFT/ITS</text>
<text text-anchor="start" x="126" y="-208.5" font-family="Helvetica,sans-Serif" font-size="10.00">/reconstruction/include</text>
<text text-anchor="middle" x="205" y="-197.5" font-family="Helvetica,sans-Serif" font-size="10.00">/ITSReconstruction/ClustererTask.h</text>
</a>
</g>
</g>
<!-- Node3&#45;&gt;Node6 -->
<g id="edge12" class="edge"><title>Node3&#45;&gt;Node6</title>
<path fill="none" stroke="midnightblue" d="M465.651,-390.134C398.674,-379.379 260.585,-390.696 224,-354 198.121,-328.042 197.114,-283.577 200.032,-253.744"/>
<polygon fill="midnightblue" stroke="midnightblue" points="465.285,-393.627 475.764,-392.06 466.595,-386.751 465.285,-393.627"/>
</g>
<!-- Node9 -->
<g id="node9" class="node"><title>Node9</title>
<g id="a_node9"><a xlink:href="../../db/d12/ITSMFT_2MFT_2reconstruction_2include_2MFTReconstruction_2ClustererTask_8h.html" target="_top" xlink:title="/home/travis/build\l/AliceO2Group/AliceO2\l/Detectors/ITSMFT/MFT\l/reconstruction/include\l/MFTReconstruction/ClustererTask.h">
<polygon fill="none" stroke="black" points="491.5,-190.5 491.5,-253.5 670.5,-253.5 670.5,-190.5 491.5,-190.5"/>
<text text-anchor="start" x="499.5" y="-241.5" font-family="Helvetica,sans-Serif" font-size="10.00">/home/travis/build</text>
<text text-anchor="start" x="499.5" y="-230.5" font-family="Helvetica,sans-Serif" font-size="10.00">/AliceO2Group/AliceO2</text>
<text text-anchor="start" x="499.5" y="-219.5" font-family="Helvetica,sans-Serif" font-size="10.00">/Detectors/ITSMFT/MFT</text>
<text text-anchor="start" x="499.5" y="-208.5" font-family="Helvetica,sans-Serif" font-size="10.00">/reconstruction/include</text>
<text text-anchor="middle" x="581" y="-197.5" font-family="Helvetica,sans-Serif" font-size="10.00">/MFTReconstruction/ClustererTask.h</text>
</a>
</g>
</g>
<!-- Node3&#45;&gt;Node9 -->
<g id="edge13" class="edge"><title>Node3&#45;&gt;Node9</title>
<path fill="none" stroke="midnightblue" d="M595.028,-381.541C599.559,-372.808 603.588,-363.359 606,-354 613.1,-326.456 611.052,-317.992 606,-290 603.795,-277.782 599.498,-264.886 595.08,-253.706"/>
<polygon fill="midnightblue" stroke="midnightblue" points="591.935,-379.901 590.17,-390.348 598.065,-383.282 591.935,-379.901"/>
</g>
<!-- Node12 -->
<g id="node12" class="node"><title>Node12</title>
<g id="a_node12"><a xlink:href="../../d2/dff/PixelReader_8cxx.html" target="_top" xlink:title="Implementation of the ITS pixel reader class. ">
<polygon fill="none" stroke="black" points="424.5,-296 424.5,-348 597.5,-348 597.5,-296 424.5,-296"/>
<text text-anchor="start" x="432.5" y="-336" font-family="Helvetica,sans-Serif" font-size="10.00">/home/travis/build</text>
<text text-anchor="start" x="432.5" y="-325" font-family="Helvetica,sans-Serif" font-size="10.00">/AliceO2Group/AliceO2</text>
<text text-anchor="start" x="432.5" y="-314" font-family="Helvetica,sans-Serif" font-size="10.00">/Detectors/ITSMFT/common</text>
<text text-anchor="middle" x="511" y="-303" font-family="Helvetica,sans-Serif" font-size="10.00">/reconstruction/src/PixelReader.cxx</text>
</a>
</g>
</g>
<!-- Node3&#45;&gt;Node12 -->
<g id="edge11" class="edge"><title>Node3&#45;&gt;Node12</title>
<path fill="none" stroke="midnightblue" d="M545.576,-381.421C538.907,-370.154 531.83,-358.196 525.828,-348.054"/>
<polygon fill="midnightblue" stroke="midnightblue" points="542.702,-383.438 550.808,-390.261 548.726,-379.873 542.702,-383.438"/>
</g>
<!-- Node5 -->
<g id="node5" class="node"><title>Node5</title>
<g id="a_node5"><a xlink:href="../../d3/d41/Clusterer_8cxx.html" target="_top" xlink:title="Implementation of the ITS cluster finder. ">
<polygon fill="none" stroke="black" points="310.5,-196 310.5,-248 469.5,-248 469.5,-196 310.5,-196"/>
<text text-anchor="start" x="318.5" y="-236" font-family="Helvetica,sans-Serif" font-size="10.00">/home/travis/build</text>
<text text-anchor="start" x="318.5" y="-225" font-family="Helvetica,sans-Serif" font-size="10.00">/AliceO2Group/AliceO2</text>
<text text-anchor="start" x="318.5" y="-214" font-family="Helvetica,sans-Serif" font-size="10.00">/Detectors/ITSMFT/common</text>
<text text-anchor="middle" x="390" y="-203" font-family="Helvetica,sans-Serif" font-size="10.00">/reconstruction/src/Clusterer.cxx</text>
</a>
</g>
</g>
<!-- Node4&#45;&gt;Node5 -->
<g id="edge4" class="edge"><title>Node4&#45;&gt;Node5</title>
<path fill="none" stroke="midnightblue" d="M347.793,-282.09C355.98,-270.628 364.716,-258.397 372.105,-248.054"/>
<polygon fill="midnightblue" stroke="midnightblue" points="344.921,-280.089 341.956,-290.261 350.617,-284.158 344.921,-280.089"/>
</g>
<!-- Node4&#45;&gt;Node6 -->
<g id="edge5" class="edge"><title>Node4&#45;&gt;Node6</title>
<path fill="none" stroke="midnightblue" d="M276.047,-283.545C264.447,-273.659 252.066,-263.108 240.943,-253.63"/>
<polygon fill="midnightblue" stroke="midnightblue" points="274.047,-286.439 283.929,-290.261 278.588,-281.111 274.047,-286.439"/>
</g>
<!-- Node4&#45;&gt;Node9 -->
<g id="edge8" class="edge"><title>Node4&#45;&gt;Node9</title>
<path fill="none" stroke="midnightblue" d="M411.16,-286.771C439.964,-275.956 471.59,-264.081 499.661,-253.541"/>
<polygon fill="midnightblue" stroke="midnightblue" points="409.64,-283.603 401.508,-290.395 412.101,-290.157 409.64,-283.603"/>
</g>
<!-- Node7 -->
<g id="node7" class="node"><title>Node7</title>
<g id="a_node7"><a xlink:href="../../d8/d95/ITSMFT_2ITS_2reconstruction_2src_2ClustererTask_8cxx.html" target="_top" xlink:title="/home/travis/build\l/AliceO2Group/AliceO2\l/Detectors/ITSMFT/ITS\l/reconstruction/src/ClustererTask.cxx">
<polygon fill="none" stroke="black" points="136.5,-96 136.5,-148 317.5,-148 317.5,-96 136.5,-96"/>
<text text-anchor="start" x="144.5" y="-136" font-family="Helvetica,sans-Serif" font-size="10.00">/home/travis/build</text>
<text text-anchor="start" x="144.5" y="-125" font-family="Helvetica,sans-Serif" font-size="10.00">/AliceO2Group/AliceO2</text>
<text text-anchor="start" x="144.5" y="-114" font-family="Helvetica,sans-Serif" font-size="10.00">/Detectors/ITSMFT/ITS</text>
<text text-anchor="middle" x="227" y="-103" font-family="Helvetica,sans-Serif" font-size="10.00">/reconstruction/src/ClustererTask.cxx</text>
</a>
</g>
</g>
<!-- Node6&#45;&gt;Node7 -->
<g id="edge6" class="edge"><title>Node6&#45;&gt;Node7</title>
<path fill="none" stroke="midnightblue" d="M214.111,-180.415C216.574,-169.445 219.166,-157.895 221.376,-148.054"/>
<polygon fill="midnightblue" stroke="midnightblue" points="210.676,-179.737 211.901,-190.261 217.506,-181.271 210.676,-179.737"/>
</g>
<!-- Node8 -->
<g id="node8" class="node"><title>Node8</title>
<g id="a_node8"><a xlink:href="../../d6/da1/run__clus__its_8C.html" target="_top" xlink:title="/home/travis/build\l/AliceO2Group/AliceO2\l/macro/run_clus_its.C">
<polygon fill="none" stroke="black" points="0,-101.5 0,-142.5 118,-142.5 118,-101.5 0,-101.5"/>
<text text-anchor="start" x="8" y="-130.5" font-family="Helvetica,sans-Serif" font-size="10.00">/home/travis/build</text>
<text text-anchor="start" x="8" y="-119.5" font-family="Helvetica,sans-Serif" font-size="10.00">/AliceO2Group/AliceO2</text>
<text text-anchor="middle" x="59" y="-108.5" font-family="Helvetica,sans-Serif" font-size="10.00">/macro/run_clus_its.C</text>
</a>
</g>
</g>
<!-- Node6&#45;&gt;Node8 -->
<g id="edge7" class="edge"><title>Node6&#45;&gt;Node8</title>
<path fill="none" stroke="midnightblue" d="M150.874,-184.669C129.601,-170.389 106.031,-154.569 88.0918,-142.527"/>
<polygon fill="midnightblue" stroke="midnightblue" points="148.952,-187.594 159.205,-190.261 152.853,-181.782 148.952,-187.594"/>
</g>
<!-- Node10 -->
<g id="node10" class="node"><title>Node10</title>
<g id="a_node10"><a xlink:href="../../d9/d5e/ITSMFT_2MFT_2reconstruction_2src_2ClustererTask_8cxx.html" target="_top" xlink:title="/home/travis/build\l/AliceO2Group/AliceO2\l/Detectors/ITSMFT/MFT\l/reconstruction/src/ClustererTask.cxx">
<polygon fill="none" stroke="black" points="498.5,-96 498.5,-148 679.5,-148 679.5,-96 498.5,-96"/>
<text text-anchor="start" x="506.5" y="-136" font-family="Helvetica,sans-Serif" font-size="10.00">/home/travis/build</text>
<text text-anchor="start" x="506.5" y="-125" font-family="Helvetica,sans-Serif" font-size="10.00">/AliceO2Group/AliceO2</text>
<text text-anchor="start" x="506.5" y="-114" font-family="Helvetica,sans-Serif" font-size="10.00">/Detectors/ITSMFT/MFT</text>
<text text-anchor="middle" x="589" y="-103" font-family="Helvetica,sans-Serif" font-size="10.00">/reconstruction/src/ClustererTask.cxx</text>
</a>
</g>
</g>
<!-- Node9&#45;&gt;Node10 -->
<g id="edge9" class="edge"><title>Node9&#45;&gt;Node10</title>
<path fill="none" stroke="midnightblue" d="M584.34,-180.079C585.228,-169.21 586.16,-157.794 586.955,-148.054"/>
<polygon fill="midnightblue" stroke="midnightblue" points="580.835,-180.009 583.509,-190.261 587.811,-180.579 580.835,-180.009"/>
</g>
<!-- Node11 -->
<g id="node11" class="node"><title>Node11</title>
<g id="a_node11"><a xlink:href="../../d4/dfd/run__clus__mft_8C.html" target="_top" xlink:title="/home/travis/build\l/AliceO2Group/AliceO2\l/macro/run_clus_mft.C">
<polygon fill="none" stroke="black" points="362,-101.5 362,-142.5 480,-142.5 480,-101.5 362,-101.5"/>
<text text-anchor="start" x="370" y="-130.5" font-family="Helvetica,sans-Serif" font-size="10.00">/home/travis/build</text>
<text text-anchor="start" x="370" y="-119.5" font-family="Helvetica,sans-Serif" font-size="10.00">/AliceO2Group/AliceO2</text>
<text text-anchor="middle" x="421" y="-108.5" font-family="Helvetica,sans-Serif" font-size="10.00">/macro/run_clus_mft.C</text>
</a>
</g>
</g>
<!-- Node9&#45;&gt;Node11 -->
<g id="edge10" class="edge"><title>Node9&#45;&gt;Node11</title>
<path fill="none" stroke="midnightblue" d="M521.993,-184.858C498.599,-170.529 472.628,-154.622 452.881,-142.527"/>
<polygon fill="midnightblue" stroke="midnightblue" points="520.458,-188.023 530.814,-190.261 524.115,-182.053 520.458,-188.023"/>
</g>
<!-- Node14 -->
<g id="node14" class="node"><title>Node14</title>
<g id="a_node14"><a xlink:href="../../d7/d9e/SimulationAlpide_8h.html" target="_top" xlink:title="Simulation of the ALIPIDE chip response. ">
<polygon fill="none" stroke="black" points="654,-290.5 654,-353.5 836,-353.5 836,-290.5 654,-290.5"/>
<text text-anchor="start" x="662" y="-341.5" font-family="Helvetica,sans-Serif" font-size="10.00">/home/travis/build</text>
<text text-anchor="start" x="662" y="-330.5" font-family="Helvetica,sans-Serif" font-size="10.00">/AliceO2Group/AliceO2</text>
<text text-anchor="start" x="662" y="-319.5" font-family="Helvetica,sans-Serif" font-size="10.00">/Detectors/ITSMFT/common</text>
<text text-anchor="start" x="662" y="-308.5" font-family="Helvetica,sans-Serif" font-size="10.00">/simulation/include/ITSMFTSimulation</text>
<text text-anchor="middle" x="745" y="-297.5" font-family="Helvetica,sans-Serif" font-size="10.00">/SimulationAlpide.h</text>
</a>
</g>
</g>
<!-- Node13&#45;&gt;Node14 -->
<g id="edge15" class="edge"><title>Node13&#45;&gt;Node14</title>
<path fill="none" stroke="midnightblue" d="M912.888,-386.771C884.415,-375.956 853.153,-364.081 825.404,-353.541"/>
<polygon fill="midnightblue" stroke="midnightblue" points="911.837,-390.116 922.428,-390.395 914.323,-383.572 911.837,-390.116"/>
</g>
<!-- Node26 -->
<g id="node26" class="node"><title>Node26</title>
<g id="a_node26"><a xlink:href="../../d1/d60/Chip_8cxx.html" target="_top" xlink:title="/home/travis/build\l/AliceO2Group/AliceO2\l/Detectors/ITSMFT/common\l/simulation/src/Chip.cxx">
<polygon fill="none" stroke="black" points="854,-296 854,-348 996,-348 996,-296 854,-296"/>
<text text-anchor="start" x="862" y="-336" font-family="Helvetica,sans-Serif" font-size="10.00">/home/travis/build</text>
<text text-anchor="start" x="862" y="-325" font-family="Helvetica,sans-Serif" font-size="10.00">/AliceO2Group/AliceO2</text>
<text text-anchor="start" x="862" y="-314" font-family="Helvetica,sans-Serif" font-size="10.00">/Detectors/ITSMFT/common</text>
<text text-anchor="middle" x="925" y="-303" font-family="Helvetica,sans-Serif" font-size="10.00">/simulation/src/Chip.cxx</text>
</a>
</g>
</g>
<!-- Node13&#45;&gt;Node26 -->
<g id="edge27" class="edge"><title>Node13&#45;&gt;Node26</title>
<path fill="none" stroke="midnightblue" d="M972.296,-382.423C963.097,-370.866 953.253,-358.497 944.941,-348.054"/>
<polygon fill="midnightblue" stroke="midnightblue" points="969.568,-384.616 978.534,-390.261 975.045,-380.257 969.568,-384.616"/>
</g>
<!-- Node27 -->
<g id="node27" class="node"><title>Node27</title>
<g id="a_node27"><a xlink:href="../../d7/d4c/HitAnalysis_8cxx.html" target="_top" xlink:title="/home/travis/build\l/AliceO2Group/AliceO2\l/Detectors/ITSMFT/test\l/HitAnalysis/src/HitAnalysis.cxx">
<polygon fill="none" stroke="black" points="1014,-296 1014,-348 1172,-348 1172,-296 1014,-296"/>
<text text-anchor="start" x="1022" y="-336" font-family="Helvetica,sans-Serif" font-size="10.00">/home/travis/build</text>
<text text-anchor="start" x="1022" y="-325" font-family="Helvetica,sans-Serif" font-size="10.00">/AliceO2Group/AliceO2</text>
<text text-anchor="start" x="1022" y="-314" font-family="Helvetica,sans-Serif" font-size="10.00">/Detectors/ITSMFT/test</text>
<text text-anchor="middle" x="1093" y="-303" font-family="Helvetica,sans-Serif" font-size="10.00">/HitAnalysis/src/HitAnalysis.cxx</text>
</a>
</g>
</g>
<!-- Node13&#45;&gt;Node27 -->
<g id="edge28" class="edge"><title>Node13&#45;&gt;Node27</title>
<path fill="none" stroke="midnightblue" d="M1038.12,-382.756C1048.82,-371.104 1060.31,-358.598 1069.99,-348.054"/>
<polygon fill="midnightblue" stroke="midnightblue" points="1035.42,-380.528 1031.23,-390.261 1040.57,-385.263 1035.42,-380.528"/>
</g>
<!-- Node15 -->
<g id="node15" class="node"><title>Node15</title>
<g id="a_node15"><a xlink:href="../../d7/d9c/ITSMFT_2common_2simulation_2include_2ITSMFTSimulation_2Digitizer_8h.html" target="_top" xlink:title="/home/travis/build\l/AliceO2Group/AliceO2\l/Detectors/ITSMFT/common\l/simulation/include/ITSMFTSimulation\l/Digitizer.h">
<polygon fill="none" stroke="black" points="695,-190.5 695,-253.5 877,-253.5 877,-190.5 695,-190.5"/>
<text text-anchor="start" x="703" y="-241.5" font-family="Helvetica,sans-Serif" font-size="10.00">/home/travis/build</text>
<text text-anchor="start" x="703" y="-230.5" font-family="Helvetica,sans-Serif" font-size="10.00">/AliceO2Group/AliceO2</text>
<text text-anchor="start" x="703" y="-219.5" font-family="Helvetica,sans-Serif" font-size="10.00">/Detectors/ITSMFT/common</text>
<text text-anchor="start" x="703" y="-208.5" font-family="Helvetica,sans-Serif" font-size="10.00">/simulation/include/ITSMFTSimulation</text>
<text text-anchor="middle" x="786" y="-197.5" font-family="Helvetica,sans-Serif" font-size="10.00">/Digitizer.h</text>
</a>
</g>
</g>
<!-- Node14&#45;&gt;Node15 -->
<g id="edge16" class="edge"><title>Node14&#45;&gt;Node15</title>
<path fill="none" stroke="midnightblue" d="M761.75,-280.964C765.567,-271.841 769.563,-262.288 773.185,-253.63"/>
<polygon fill="midnightblue" stroke="midnightblue" points="758.491,-279.685 757.86,-290.261 764.949,-282.387 758.491,-279.685"/>
</g>
<!-- Node14&#45;&gt;Node25 -->
<g id="edge26" class="edge"><title>Node14&#45;&gt;Node25</title>
<path fill="none" stroke="midnightblue" d="M845.955,-289.391C888.689,-276.011 937.773,-260.643 977.948,-248.064"/>
<polygon fill="midnightblue" stroke="midnightblue" points="844.871,-286.063 836.374,-292.391 846.963,-292.743 844.871,-286.063"/>
</g>
<!-- Node15&#45;&gt;Node16 -->
<g id="edge17" class="edge"><title>Node15&#45;&gt;Node16</title>
<path fill="none" stroke="midnightblue" d="M887.077,-203.059C984.398,-185.635 1120.38,-160.84 1145,-154 1151.22,-152.271 1157.64,-150.274 1164.02,-148.145"/>
<polygon fill="midnightblue" stroke="midnightblue" points="886.42,-199.621 877.193,-204.827 887.653,-206.512 886.42,-199.621"/>
</g>
<!-- Node17 -->
<g id="node17" class="node"><title>Node17</title>
<g id="a_node17"><a xlink:href="../../d9/d51/ITSMFT_2ITS_2simulation_2include_2ITSSimulation_2DigitizerTask_8h.html" target="_top" xlink:title="/home/travis/build\l/AliceO2Group/AliceO2\l/Detectors/ITSMFT/ITS\l/simulation/include/ITSSimulation\l/DigitizerTask.h">
<polygon fill="none" stroke="black" points="974,-90.5 974,-153.5 1136,-153.5 1136,-90.5 974,-90.5"/>
<text text-anchor="start" x="982" y="-141.5" font-family="Helvetica,sans-Serif" font-size="10.00">/home/travis/build</text>
<text text-anchor="start" x="982" y="-130.5" font-family="Helvetica,sans-Serif" font-size="10.00">/AliceO2Group/AliceO2</text>
<text text-anchor="start" x="982" y="-119.5" font-family="Helvetica,sans-Serif" font-size="10.00">/Detectors/ITSMFT/ITS</text>
<text text-anchor="start" x="982" y="-108.5" font-family="Helvetica,sans-Serif" font-size="10.00">/simulation/include/ITSSimulation</text>
<text text-anchor="middle" x="1055" y="-97.5" font-family="Helvetica,sans-Serif" font-size="10.00">/DigitizerTask.h</text>
</a>
</g>
</g>
<!-- Node15&#45;&gt;Node17 -->
<g id="edge18" class="edge"><title>Node15&#45;&gt;Node17</title>
<path fill="none" stroke="midnightblue" d="M879.446,-186.956C910.217,-175.746 944.159,-163.381 973.93,-152.535"/>
<polygon fill="midnightblue" stroke="midnightblue" points="878.205,-183.684 870.007,-190.395 880.601,-190.261 878.205,-183.684"/>
</g>
<!-- Node22 -->
<g id="node22" class="node"><title>Node22</title>
<g id="a_node22"><a xlink:href="../../dd/d11/ITSMFT_2MFT_2simulation_2include_2MFTSimulation_2DigitizerTask_8h.html" target="_top" xlink:title="/home/travis/build\l/AliceO2Group/AliceO2\l/Detectors/ITSMFT/MFT\l/simulation/include/MFTSimulation\l/DigitizerTask.h">
<polygon fill="none" stroke="black" points="699.5,-90.5 699.5,-153.5 866.5,-153.5 866.5,-90.5 699.5,-90.5"/>
<text text-anchor="start" x="707.5" y="-141.5" font-family="Helvetica,sans-Serif" font-size="10.00">/home/travis/build</text>
<text text-anchor="start" x="707.5" y="-130.5" font-family="Helvetica,sans-Serif" font-size="10.00">/AliceO2Group/AliceO2</text>
<text text-anchor="start" x="707.5" y="-119.5" font-family="Helvetica,sans-Serif" font-size="10.00">/Detectors/ITSMFT/MFT</text>
<text text-anchor="start" x="707.5" y="-108.5" font-family="Helvetica,sans-Serif" font-size="10.00">/simulation/include/MFTSimulation</text>
<text text-anchor="middle" x="783" y="-97.5" font-family="Helvetica,sans-Serif" font-size="10.00">/DigitizerTask.h</text>
</a>
</g>
</g>
<!-- Node15&#45;&gt;Node22 -->
<g id="edge23" class="edge"><title>Node15&#45;&gt;Node22</title>
<path fill="none" stroke="midnightblue" d="M784.748,-180.099C784.477,-171.238 784.194,-162.015 783.938,-153.63"/>
<polygon fill="midnightblue" stroke="midnightblue" points="781.255,-180.373 785.059,-190.261 788.251,-180.159 781.255,-180.373"/>
</g>
<!-- Node18 -->
<g id="node18" class="node"><title>Node18</title>
<g id="a_node18"><a xlink:href="../../da/d29/ITSMFT_2ITS_2simulation_2src_2DigitizerTask_8cxx.html" target="_top" xlink:title="/home/travis/build\l/AliceO2Group/AliceO2\l/Detectors/ITSMFT/ITS\l/simulation/src/DigitizerTask.cxx">
<polygon fill="none" stroke="black" points="1132,-1 1132,-53 1292,-53 1292,-1 1132,-1"/>
<text text-anchor="start" x="1140" y="-41" font-family="Helvetica,sans-Serif" font-size="10.00">/home/travis/build</text>
<text text-anchor="start" x="1140" y="-30" font-family="Helvetica,sans-Serif" font-size="10.00">/AliceO2Group/AliceO2</text>
<text text-anchor="start" x="1140" y="-19" font-family="Helvetica,sans-Serif" font-size="10.00">/Detectors/ITSMFT/ITS</text>
<text text-anchor="middle" x="1212" y="-8" font-family="Helvetica,sans-Serif" font-size="10.00">/simulation/src/DigitizerTask.cxx</text>
</a>
</g>
</g>
<!-- Node17&#45;&gt;Node18 -->
<g id="edge19" class="edge"><title>Node17&#45;&gt;Node18</title>
<path fill="none" stroke="midnightblue" d="M1115.58,-85.1167C1133.62,-74.4262 1153.01,-62.9448 1169.63,-53.1001"/>
<polygon fill="midnightblue" stroke="midnightblue" points="1113.66,-82.1827 1106.84,-90.2906 1117.23,-88.2053 1113.66,-82.1827"/>
</g>
<!-- Node19 -->
<g id="node19" class="node"><title>Node19</title>
<g id="a_node19"><a xlink:href="../../d1/d7a/run__digi_8C.html" target="_top" xlink:title="/home/travis/build\l/AliceO2Group/AliceO2\l/macro/run_digi.C">
<polygon fill="none" stroke="black" points="1310,-6.5 1310,-47.5 1428,-47.5 1428,-6.5 1310,-6.5"/>
<text text-anchor="start" x="1318" y="-35.5" font-family="Helvetica,sans-Serif" font-size="10.00">/home/travis/build</text>
<text text-anchor="start" x="1318" y="-24.5" font-family="Helvetica,sans-Serif" font-size="10.00">/AliceO2Group/AliceO2</text>
<text text-anchor="middle" x="1369" y="-13.5" font-family="Helvetica,sans-Serif" font-size="10.00">/macro/run_digi.C</text>
</a>
</g>
</g>
<!-- Node17&#45;&gt;Node19 -->
<g id="edge20" class="edge"><title>Node17&#45;&gt;Node19</title>
<path fill="none" stroke="midnightblue" d="M1145.78,-90.6336C1146.52,-90.4203 1147.26,-90.209 1148,-90 1215.21,-70.9351 1234.22,-74.5204 1301,-54 1307.28,-52.0694 1313.82,-49.8503 1320.25,-47.5397"/>
<polygon fill="midnightblue" stroke="midnightblue" points="1144.62,-87.3268 1136.02,-93.5129 1146.6,-94.0409 1144.62,-87.3268"/>
</g>
<!-- Node20 -->
<g id="node20" class="node"><title>Node20</title>
<g id="a_node20"><a xlink:href="../../d9/de3/run__digi__all_8C.html" target="_top" xlink:title="/home/travis/build\l/AliceO2Group/AliceO2\l/macro/run_digi_all.C">
<polygon fill="none" stroke="black" points="860,-6.5 860,-47.5 978,-47.5 978,-6.5 860,-6.5"/>
<text text-anchor="start" x="868" y="-35.5" font-family="Helvetica,sans-Serif" font-size="10.00">/home/travis/build</text>
<text text-anchor="start" x="868" y="-24.5" font-family="Helvetica,sans-Serif" font-size="10.00">/AliceO2Group/AliceO2</text>
<text text-anchor="middle" x="919" y="-13.5" font-family="Helvetica,sans-Serif" font-size="10.00">/macro/run_digi_all.C</text>
</a>
</g>
</g>
<!-- Node17&#45;&gt;Node20 -->
<g id="edge21" class="edge"><title>Node17&#45;&gt;Node20</title>
<path fill="none" stroke="midnightblue" d="M1001.74,-84.5815C983.294,-71.9657 963.324,-58.3097 947.625,-47.5747"/>
<polygon fill="midnightblue" stroke="midnightblue" points="999.861,-87.535 1010.09,-90.2906 1003.81,-81.7568 999.861,-87.535"/>
</g>
<!-- Node21 -->
<g id="node21" class="node"><title>Node21</title>
<g id="a_node21"><a xlink:href="../../d0/dcb/run__digi__its_8C.html" target="_top" xlink:title="/home/travis/build\l/AliceO2Group/AliceO2\l/macro/run_digi_its.C">
<polygon fill="none" stroke="black" points="996,-6.5 996,-47.5 1114,-47.5 1114,-6.5 996,-6.5"/>
<text text-anchor="start" x="1004" y="-35.5" font-family="Helvetica,sans-Serif" font-size="10.00">/home/travis/build</text>
<text text-anchor="start" x="1004" y="-24.5" font-family="Helvetica,sans-Serif" font-size="10.00">/AliceO2Group/AliceO2</text>
<text text-anchor="middle" x="1055" y="-13.5" font-family="Helvetica,sans-Serif" font-size="10.00">/macro/run_digi_its.C</text>
</a>
</g>
</g>
<!-- Node17&#45;&gt;Node21 -->
<g id="edge22" class="edge"><title>Node17&#45;&gt;Node21</title>
<path fill="none" stroke="midnightblue" d="M1055,-80.1125C1055,-68.807 1055,-57.0525 1055,-47.5747"/>
<polygon fill="midnightblue" stroke="midnightblue" points="1051.5,-80.2905 1055,-90.2906 1058.5,-80.2906 1051.5,-80.2905"/>
</g>
<!-- Node23 -->
<g id="node23" class="node"><title>Node23</title>
<g id="a_node23"><a xlink:href="../../d6/d87/ITSMFT_2MFT_2simulation_2src_2DigitizerTask_8cxx.html" target="_top" xlink:title="/home/travis/build\l/AliceO2Group/AliceO2\l/Detectors/ITSMFT/MFT\l/simulation/src/DigitizerTask.cxx">
<polygon fill="none" stroke="black" points="546,-1 546,-53 706,-53 706,-1 546,-1"/>
<text text-anchor="start" x="554" y="-41" font-family="Helvetica,sans-Serif" font-size="10.00">/home/travis/build</text>
<text text-anchor="start" x="554" y="-30" font-family="Helvetica,sans-Serif" font-size="10.00">/AliceO2Group/AliceO2</text>
<text text-anchor="start" x="554" y="-19" font-family="Helvetica,sans-Serif" font-size="10.00">/Detectors/ITSMFT/MFT</text>
<text text-anchor="middle" x="626" y="-8" font-family="Helvetica,sans-Serif" font-size="10.00">/simulation/src/DigitizerTask.cxx</text>
</a>
</g>
</g>
<!-- Node22&#45;&gt;Node23 -->
<g id="edge24" class="edge"><title>Node22&#45;&gt;Node23</title>
<path fill="none" stroke="midnightblue" d="M722.423,-85.1167C704.375,-74.4262 684.993,-62.9448 668.373,-53.1001"/>
<polygon fill="midnightblue" stroke="midnightblue" points="720.77,-88.2053 731.157,-90.2906 724.337,-82.1827 720.77,-88.2053"/>
</g>
<!-- Node24 -->
<g id="node24" class="node"><title>Node24</title>
<g id="a_node24"><a xlink:href="../../d2/d31/run__digi__mft_8C.html" target="_top" xlink:title="/home/travis/build\l/AliceO2Group/AliceO2\l/macro/run_digi_mft.C">
<polygon fill="none" stroke="black" points="724,-6.5 724,-47.5 842,-47.5 842,-6.5 724,-6.5"/>
<text text-anchor="start" x="732" y="-35.5" font-family="Helvetica,sans-Serif" font-size="10.00">/home/travis/build</text>
<text text-anchor="start" x="732" y="-24.5" font-family="Helvetica,sans-Serif" font-size="10.00">/AliceO2Group/AliceO2</text>
<text text-anchor="middle" x="783" y="-13.5" font-family="Helvetica,sans-Serif" font-size="10.00">/macro/run_digi_mft.C</text>
</a>
</g>
</g>
<!-- Node22&#45;&gt;Node24 -->
<g id="edge25" class="edge"><title>Node22&#45;&gt;Node24</title>
<path fill="none" stroke="midnightblue" d="M783,-80.1125C783,-68.807 783,-57.0525 783,-47.5747"/>
<polygon fill="midnightblue" stroke="midnightblue" points="779.5,-80.2905 783,-90.2906 786.5,-80.2906 779.5,-80.2905"/>
</g>
</g>
</svg>
        <g id="navigator" transform="translate(0 0)" fill="#404254">
                <rect fill="#f2f5e9" fill-opacity="0.5" stroke="#606060" stroke-width=".5" x="0" y="0" width="60" height="60"/>
                <use id="zoomplus" xlink:href="#zoomPlus" x="17" y="9" onmousedown="handleZoom(evt,'in')"/>
                <use id="zoomminus" xlink:href="#zoomMin" x="42" y="9" onmousedown="handleZoom(evt,'out')"/>
                <use id="reset" xlink:href="#resetDef" x="30" y="36" onmousedown="handleReset()"/>
                <g id="arrowUp" xlink:href="#dirArrow" transform="translate(30 24)" onmousedown="handlePan(0,-1)">
                  <use xlink:href="#rim" fill="#404040">
                        <set attributeName="fill" to="#808080" begin="arrowUp.mouseover" end="arrowUp.mouseout"/>
                  </use>
                  <path fill="none" stroke="white" stroke-width="1.5" d="M0,-3.0v7 M-2.5,-0.5L0,-3.0L2.5,-0.5"/>
                </g>
                <g id="arrowRight" xlink:href="#dirArrow" transform="rotate(90) translate(36 -43)" onmousedown="handlePan(1,0)">
                  <use xlink:href="#rim" fill="#404040">
                        <set attributeName="fill" to="#808080" begin="arrowRight.mouseover" end="arrowRight.mouseout"/>
                  </use>
                  <path fill="none" stroke="white" stroke-width="1.5" d="M0,-3.0v7 M-2.5,-0.5L0,-3.0L2.5,-0.5"/>
                </g>
                <g id="arrowDown" xlink:href="#dirArrow" transform="rotate(180) translate(-30 -48)" onmousedown="handlePan(0,1)">
                  <use xlink:href="#rim" fill="#404040">
                        <set attributeName="fill" to="#808080" begin="arrowDown.mouseover" end="arrowDown.mouseout"/>
                  </use>
                  <path fill="none" stroke="white" stroke-width="1.5" d="M0,-3.0v7 M-2.5,-0.5L0,-3.0L2.5,-0.5"/>
                </g>
                <g id="arrowLeft" xlink:href="#dirArrow" transform="rotate(270) translate(-36 17)" onmousedown="handlePan(-1,0)">
                  <use xlink:href="#rim" fill="#404040">
                        <set attributeName="fill" to="#808080" begin="arrowLeft.mouseover" end="arrowLeft.mouseout"/>
                  </use>
                  <path fill="none" stroke="white" stroke-width="1.5" d="M0,-3.0v7 M-2.5,-0.5L0,-3.0L2.5,-0.5"/>
                </g>
        </g>
        <svg viewBox="0 0 15 15" width="100%" height="30px" preserveAspectRatio="xMaxYMin meet">
         <g id="arrow_out" transform="scale(0.3 0.3)">
          <a xlink:href="ITSMFT_2common_2base_2include_2ITSMFTBase_2Digit_8h__dep__incl_org.svg" target="_base">
           <rect id="button" ry="5" rx="5" y="6" x="6" height="38" width="38"
                fill="#f2f5e9" fill-opacity="0.5" stroke="#606060" stroke-width="1.0"/>
           <path id="arrow"
             d="M 11.500037,31.436501 C 11.940474,20.09759 22.043105,11.32322 32.158766,21.979434 L 37.068811,17.246167 C 37.068811,17.246167 37.088388,32 37.088388,32 L 22.160133,31.978069 C 22.160133,31.978069 26.997745,27.140456 26.997745,27.140456 C 18.528582,18.264221 13.291696,25.230495 11.500037,31.436501 z"
             style="fill:#404040;"/>
          </a>
         </g>
        </svg>
</svg>
