<?xml version="1.0" encoding="UTF-8" standalone="no"?>
<!DOCTYPE svg PUBLIC "-//W3C//DTD SVG 1.1//EN"
 "http://www.w3.org/Graphics/SVG/1.1/DTD/svg11.dtd">
<!-- Generated by graphviz version 2.36.0 (20140111.2315)
 -->
<!-- Title: o2::DataFlow::FakeTimeframeGeneratorDevice Pages: 1 -->
<svg width="552pt" height="388pt"
 viewBox="0.00 0.00 552.00 388.00" xmlns="http://www.w3.org/2000/svg" xmlns:xlink="http://www.w3.org/1999/xlink">
<g id="graph0" class="graph" transform="scale(1 1) rotate(0) translate(4 384)">
<title>o2::DataFlow::FakeTimeframeGeneratorDevice</title>
<!-- Node1 -->
<g id="node1" class="node"><title>Node1</title>
<polygon fill="#bfbfbf" stroke="black" points="183.5,-0.5 183.5,-101.5 362.5,-101.5 362.5,-0.5 183.5,-0.5"/>
<text text-anchor="start" x="191.5" y="-89.5" font-family="Helvetica,sans-Serif" font-size="10.00">o2::DataFlow::FakeTimeframe</text>
<text text-anchor="middle" x="273" y="-78.5" font-family="Helvetica,sans-Serif" font-size="10.00">GeneratorDevice</text>
<polyline fill="none" stroke="black" points="183.5,-71.5 362.5,-71.5 "/>
<text text-anchor="middle" x="273" y="-59.5" font-family="Helvetica,sans-Serif" font-size="10.00"> </text>
<polyline fill="none" stroke="black" points="183.5,-52.5 362.5,-52.5 "/>
<text text-anchor="start" x="191.5" y="-40.5" font-family="Helvetica,sans-Serif" font-size="10.00">+ FakeTimeframeGeneratorDevice()</text>
<text text-anchor="start" x="191.5" y="-29.5" font-family="Helvetica,sans-Serif" font-size="10.00">+ ~FakeTimeframeGeneratorDevice()</text>
<text text-anchor="start" x="191.5" y="-18.5" font-family="Helvetica,sans-Serif" font-size="10.00">+ InitTask()</text>
<text text-anchor="start" x="191.5" y="-7.5" font-family="Helvetica,sans-Serif" font-size="10.00"># ConditionalRun()</text>
</g>
<!-- Node2 -->
<g id="node2" class="node"><title>Node2</title>
<g id="a_node2"><a xlink:href="../../da/df6/classo2_1_1Base_1_1O2Device.html" target="_top" xlink:title="{o2::Base::O2Device\n||+ ~O2Device()\l+ GetMonitoring()\l+ Init()\l+ AddMessage()\l+ ForEach()\l}">
<polygon fill="none" stroke="black" points="49.5,-160.5 49.5,-261.5 154.5,-261.5 154.5,-160.5 49.5,-160.5"/>
<text text-anchor="middle" x="102" y="-249.5" font-family="Helvetica,sans-Serif" font-size="10.00">o2::Base::O2Device</text>
<polyline fill="none" stroke="black" points="49.5,-242.5 154.5,-242.5 "/>
<text text-anchor="middle" x="102" y="-230.5" font-family="Helvetica,sans-Serif" font-size="10.00"> </text>
<polyline fill="none" stroke="black" points="49.5,-223.5 154.5,-223.5 "/>
<text text-anchor="start" x="57.5" y="-211.5" font-family="Helvetica,sans-Serif" font-size="10.00">+ ~O2Device()</text>
<text text-anchor="start" x="57.5" y="-200.5" font-family="Helvetica,sans-Serif" font-size="10.00">+ GetMonitoring()</text>
<text text-anchor="start" x="57.5" y="-189.5" font-family="Helvetica,sans-Serif" font-size="10.00">+ Init()</text>
<text text-anchor="start" x="57.5" y="-178.5" font-family="Helvetica,sans-Serif" font-size="10.00">+ AddMessage()</text>
<text text-anchor="start" x="57.5" y="-167.5" font-family="Helvetica,sans-Serif" font-size="10.00">+ ForEach()</text>
</a>
</g>
</g>
<!-- Node2&#45;&gt;Node1 -->
<g id="edge1" class="edge"><title>Node2&#45;&gt;Node1</title>
<path fill="none" stroke="midnightblue" d="M149.25,-152.433C159.314,-141.263 170.181,-129.947 181,-120 187.726,-113.816 195.005,-107.659 202.421,-101.719"/>
<polygon fill="none" stroke="midnightblue" points="146.443,-150.323 142.421,-160.124 151.678,-154.97 146.443,-150.323"/>
</g>
<!-- Node3 -->
<g id="node3" class="node"><title>Node3</title>
<g id="a_node3"><a xlink:href="../../db/dfe/classFairMQDevice.html" target="_top" xlink:title="{FairMQDevice\n||}">
<polygon fill="none" stroke="black" points="0,-316.5 0,-373.5 80,-373.5 80,-316.5 0,-316.5"/>
<text text-anchor="middle" x="40" y="-361.5" font-family="Helvetica,sans-Serif" font-size="10.00">FairMQDevice</text>
<polyline fill="none" stroke="black" points="0,-354.5 80,-354.5 "/>
<text text-anchor="middle" x="40" y="-342.5" font-family="Helvetica,sans-Serif" font-size="10.00"> </text>
<polyline fill="none" stroke="black" points="0,-335.5 80,-335.5 "/>
<text text-anchor="middle" x="40" y="-323.5" font-family="Helvetica,sans-Serif" font-size="10.00"> </text>
</a>
</g>
</g>
<!-- Node3&#45;&gt;Node2 -->
<g id="edge2" class="edge"><title>Node3&#45;&gt;Node2</title>
<path fill="none" stroke="midnightblue" d="M57.3962,-306.963C64.0172,-292.867 71.6709,-276.572 78.7488,-261.503"/>
<polygon fill="none" stroke="midnightblue" points="54.0807,-305.789 52.9972,-316.328 60.4166,-308.765 54.0807,-305.789"/>
</g>
<!-- Node4 -->
<g id="node4" class="node"><title>Node4</title>
<polygon fill="none" stroke="#bfbfbf" points="98,-311 98,-379 230,-379 230,-311 98,-311"/>
<text text-anchor="start" x="106" y="-367" font-family="Helvetica,sans-Serif" font-size="10.00">unique_ptr&lt; o2::monitoring</text>
<text text-anchor="middle" x="164" y="-356" font-family="Helvetica,sans-Serif" font-size="10.00">::Monitoring &gt;</text>
<polyline fill="none" stroke="#bfbfbf" points="98,-349 230,-349 "/>
<text text-anchor="middle" x="164" y="-337" font-family="Helvetica,sans-Serif" font-size="10.00"> </text>
<polyline fill="none" stroke="#bfbfbf" points="98,-330 230,-330 "/>
<text text-anchor="middle" x="164" y="-318" font-family="Helvetica,sans-Serif" font-size="10.00"> </text>
</g>
<!-- Node4&#45;&gt;Node2 -->
<g id="edge3" class="edge"><title>Node4&#45;&gt;Node2</title>
<path fill="none" stroke="#404040" d="M148.355,-310.691C142.89,-299.056 136.573,-285.607 130.395,-272.454"/>
<polygon fill="none" stroke="#404040" points="130.362,-272.383 124.19,-268.653 125.26,-261.522 131.432,-265.252 130.362,-272.383"/>
<text text-anchor="middle" x="166.5" y="-283.5" font-family="Helvetica,sans-Serif" font-size="10.00"> +monitoring</text>
</g>
<!-- Node5 -->
<g id="node5" class="node"><title>Node5</title>
<polygon fill="none" stroke="#bfbfbf" points="172.5,-182.5 172.5,-239.5 207.5,-239.5 207.5,-182.5 172.5,-182.5"/>
<text text-anchor="middle" x="190" y="-227.5" font-family="Helvetica,sans-Serif" font-size="10.00">char</text>
<polyline fill="none" stroke="#bfbfbf" points="172.5,-220.5 207.5,-220.5 "/>
<text text-anchor="middle" x="190" y="-208.5" font-family="Helvetica,sans-Serif" font-size="10.00"> </text>
<polyline fill="none" stroke="#bfbfbf" points="172.5,-201.5 207.5,-201.5 "/>
<text text-anchor="middle" x="190" y="-189.5" font-family="Helvetica,sans-Serif" font-size="10.00"> </text>
</g>
<!-- Node5&#45;&gt;Node1 -->
<g id="edge4" class="edge"><title>Node5&#45;&gt;Node1</title>
<path fill="none" stroke="#404040" d="M184.476,-182.265C182.15,-163.741 181.789,-139.325 191,-120 192.358,-117.151 193.899,-114.381 195.593,-111.69"/>
<polygon fill="none" stroke="#404040" points="195.78,-111.43 196.06,-104.225 202.819,-101.711 202.539,-108.917 195.78,-111.43"/>
<text text-anchor="middle" x="263" y="-134" font-family="Helvetica,sans-Serif" font-size="10.00"> +OptionKeyMaxTimeframes</text>
<text text-anchor="middle" x="263" y="-123" font-family="Helvetica,sans-Serif" font-size="10.00">+OptionKeyOutputChannelName</text>
</g>
<!-- Node6 -->
<g id="node6" class="node"><title>Node6</title>
<polygon fill="none" stroke="#bfbfbf" points="335.5,-182.5 335.5,-239.5 378.5,-239.5 378.5,-182.5 335.5,-182.5"/>
<text text-anchor="middle" x="357" y="-227.5" font-family="Helvetica,sans-Serif" font-size="10.00">size_t</text>
<polyline fill="none" stroke="#bfbfbf" points="335.5,-220.5 378.5,-220.5 "/>
<text text-anchor="middle" x="357" y="-208.5" font-family="Helvetica,sans-Serif" font-size="10.00"> </text>
<polyline fill="none" stroke="#bfbfbf" points="335.5,-201.5 378.5,-201.5 "/>
<text text-anchor="middle" x="357" y="-189.5" font-family="Helvetica,sans-Serif" font-size="10.00"> </text>
</g>
<!-- Node6&#45;&gt;Node1 -->
<g id="edge5" class="edge"><title>Node6&#45;&gt;Node1</title>
<path fill="none" stroke="#404040" d="M353.875,-182.346C350.934,-163.856 345.361,-139.449 335,-120 333.468,-117.125 331.787,-114.277 329.99,-111.469"/>
<polygon fill="none" stroke="#404040" points="329.904,-111.345 323.19,-108.714 323.037,-101.504 329.751,-104.136 329.904,-111.345"/>
<text text-anchor="middle" x="387" y="-134" font-family="Helvetica,sans-Serif" font-size="10.00"> #mMaxTimeframes</text>
<text text-anchor="middle" x="387" y="-123" font-family="Helvetica,sans-Serif" font-size="10.00">#mTimeframeCount</text>
</g>
<!-- Node7 -->
<g id="node7" class="node"><title>Node7</title>
<polygon fill="none" stroke="#bfbfbf" points="453.5,-182.5 453.5,-239.5 482.5,-239.5 482.5,-182.5 453.5,-182.5"/>
<text text-anchor="middle" x="468" y="-227.5" font-family="Helvetica,sans-Serif" font-size="10.00">int</text>
<polyline fill="none" stroke="#bfbfbf" points="453.5,-220.5 482.5,-220.5 "/>
<text text-anchor="middle" x="468" y="-208.5" font-family="Helvetica,sans-Serif" font-size="10.00"> </text>
<polyline fill="none" stroke="#bfbfbf" points="453.5,-201.5 482.5,-201.5 "/>
<text text-anchor="middle" x="468" y="-189.5" font-family="Helvetica,sans-Serif" font-size="10.00"> </text>
</g>
<!-- Node7&#45;&gt;Node1 -->
<g id="edge6" class="edge"><title>Node7&#45;&gt;Node1</title>
<path fill="none" stroke="#404040" d="M463.817,-182.105C459.572,-162.549 451.207,-136.97 435,-120 418.239,-102.451 396.25,-89.2416 373.901,-79.37"/>
<polygon fill="none" stroke="#404040" points="373.643,-79.2626 366.566,-80.6475 362.566,-74.6476 369.643,-73.2627 373.643,-79.2626"/>
<text text-anchor="middle" x="496.5" y="-128.5" font-family="Helvetica,sans-Serif" font-size="10.00"> #mOutChannelName</text>
</g>
</g>
</svg>
