<?xml version="1.0" encoding="UTF-8" standalone="no"?>
<!DOCTYPE svg PUBLIC "-//W3C//DTD SVG 1.1//EN"
 "http://www.w3.org/Graphics/SVG/1.1/DTD/svg11.dtd">
<!-- Generated by graphviz version 2.36.0 (20140111.2315)
 -->
<!-- Title: /home/travis/build/AliceO2Group/AliceO2/Framework/Core/include/Framework/DataSamplingConfig.h Pages: 1 -->
<svg width="558pt" height="230pt"
 viewBox="0.00 0.00 558.00 230.00" xmlns="http://www.w3.org/2000/svg" xmlns:xlink="http://www.w3.org/1999/xlink">
<g id="graph0" class="graph" transform="scale(1 1) rotate(0) translate(4 226)">
<title>/home/travis/build/AliceO2Group/AliceO2/Framework/Core/include/Framework/DataSamplingConfig.h</title>
<!-- Node1 -->
<g id="node1" class="node"><title>Node1</title>
<polygon fill="#bfbfbf" stroke="black" points="76,-169 76,-221 246,-221 246,-169 76,-169"/>
<text text-anchor="start" x="84" y="-209" font-family="Helvetica,sans-Serif" font-size="10.00">/home/travis/build</text>
<text text-anchor="start" x="84" y="-198" font-family="Helvetica,sans-Serif" font-size="10.00">/AliceO2Group/AliceO2</text>
<text text-anchor="start" x="84" y="-187" font-family="Helvetica,sans-Serif" font-size="10.00">/Framework/Core/include</text>
<text text-anchor="middle" x="161" y="-176" font-family="Helvetica,sans-Serif" font-size="10.00">/Framework/DataSamplingConfig.h</text>
</g>
<!-- Node2 -->
<g id="node2" class="node"><title>Node2</title>
<polygon fill="none" stroke="#bfbfbf" points="0,-112.5 0,-131.5 44,-131.5 44,-112.5 0,-112.5"/>
<text text-anchor="middle" x="22" y="-119.5" font-family="Helvetica,sans-Serif" font-size="10.00">vector</text>
</g>
<!-- Node1&#45;&gt;Node2 -->
<g id="edge1" class="edge"><title>Node1&#45;&gt;Node2</title>
<path fill="none" stroke="midnightblue" d="M111.994,-168.968C90.4944,-157.986 66.1215,-145.537 48.1677,-136.366"/>
<polygon fill="midnightblue" stroke="midnightblue" points="49.4104,-133.071 38.9128,-131.639 46.2261,-139.305 49.4104,-133.071"/>
</g>
<!-- Node3 -->
<g id="node3" class="node"><title>Node3</title>
<polygon fill="none" stroke="#bfbfbf" points="57.5,-56.5 57.5,-75.5 98.5,-75.5 98.5,-56.5 57.5,-56.5"/>
<text text-anchor="middle" x="78" y="-63.5" font-family="Helvetica,sans-Serif" font-size="10.00">string</text>
</g>
<!-- Node1&#45;&gt;Node3 -->
<g id="edge2" class="edge"><title>Node1&#45;&gt;Node3</title>
<path fill="none" stroke="midnightblue" d="M124.076,-168.971C111.79,-158.865 99.1708,-146.216 91,-132 82.8458,-117.813 79.7393,-99.3337 78.5887,-85.7066"/>
<polygon fill="midnightblue" stroke="midnightblue" points="82.0763,-85.387 78.0144,-75.6018 75.0875,-85.7843 82.0763,-85.387"/>
</g>
<!-- Node4 -->
<g id="node4" class="node"><title>Node4</title>
<g id="a_node4"><a xlink:href="../../d5/d3f/InputSpec_8h.html" target="_top" xlink:title="Framework/InputSpec.h">
<polygon fill="none" stroke="black" points="100.5,-112.5 100.5,-131.5 221.5,-131.5 221.5,-112.5 100.5,-112.5"/>
<text text-anchor="middle" x="161" y="-119.5" font-family="Helvetica,sans-Serif" font-size="10.00">Framework/InputSpec.h</text>
</a>
</g>
</g>
<!-- Node1&#45;&gt;Node4 -->
<g id="edge3" class="edge"><title>Node1&#45;&gt;Node4</title>
<path fill="none" stroke="midnightblue" d="M161,-168.768C161,-159.89 161,-150.074 161,-141.816"/>
<polygon fill="midnightblue" stroke="midnightblue" points="164.5,-141.757 161,-131.757 157.5,-141.757 164.5,-141.757"/>
</g>
<!-- Node7 -->
<g id="node7" class="node"><title>Node7</title>
<g id="a_node7"><a xlink:href="../../dc/dcd/DataHeader_8h.html" target="_top" xlink:title="Headers/DataHeader.h">
<polygon fill="none" stroke="black" points="328.5,-56.5 328.5,-75.5 445.5,-75.5 445.5,-56.5 328.5,-56.5"/>
<text text-anchor="middle" x="387" y="-63.5" font-family="Helvetica,sans-Serif" font-size="10.00">Headers/DataHeader.h</text>
</a>
</g>
</g>
<!-- Node1&#45;&gt;Node7 -->
<g id="edge16" class="edge"><title>Node1&#45;&gt;Node7</title>
<path fill="none" stroke="midnightblue" d="M246.129,-190.853C291.471,-184.551 344.449,-168.967 377,-132 387.955,-119.559 389.7,-100.323 389.159,-86.0001"/>
<polygon fill="midnightblue" stroke="midnightblue" points="392.63,-85.4903 388.367,-75.7911 385.651,-86.032 392.63,-85.4903"/>
</g>
<!-- Node13 -->
<g id="node13" class="node"><title>Node13</title>
<g id="a_node13"><a xlink:href="../../db/d2d/OutputSpec_8h.html" target="_top" xlink:title="Framework/OutputSpec.h">
<polygon fill="none" stroke="black" points="240,-112.5 240,-131.5 368,-131.5 368,-112.5 240,-112.5"/>
<text text-anchor="middle" x="304" y="-119.5" font-family="Helvetica,sans-Serif" font-size="10.00">Framework/OutputSpec.h</text>
</a>
</g>
</g>
<!-- Node1&#45;&gt;Node13 -->
<g id="edge13" class="edge"><title>Node1&#45;&gt;Node13</title>
<path fill="none" stroke="midnightblue" d="M211.416,-168.968C233.739,-157.885 259.073,-145.306 277.591,-136.112"/>
<polygon fill="midnightblue" stroke="midnightblue" points="279.2,-139.221 286.601,-131.639 276.087,-132.951 279.2,-139.221"/>
</g>
<!-- Node4&#45;&gt;Node3 -->
<g id="edge4" class="edge"><title>Node4&#45;&gt;Node3</title>
<path fill="none" stroke="midnightblue" d="M147.665,-112.324C134.838,-103.979 115.215,-91.2122 100.06,-81.3524"/>
<polygon fill="midnightblue" stroke="midnightblue" points="101.593,-78.1742 91.3023,-75.6545 97.7757,-84.0417 101.593,-78.1742"/>
</g>
<!-- Node5 -->
<g id="node5" class="node"><title>Node5</title>
<polygon fill="none" stroke="#bfbfbf" points="129,-56.5 129,-75.5 181,-75.5 181,-56.5 129,-56.5"/>
<text text-anchor="middle" x="155" y="-63.5" font-family="Helvetica,sans-Serif" font-size="10.00">ostream</text>
</g>
<!-- Node4&#45;&gt;Node5 -->
<g id="edge5" class="edge"><title>Node4&#45;&gt;Node5</title>
<path fill="none" stroke="midnightblue" d="M160.009,-112.083C159.214,-104.927 158.071,-94.6353 157.077,-85.6911"/>
<polygon fill="midnightblue" stroke="midnightblue" points="160.555,-85.3034 155.972,-75.7511 153.598,-86.0765 160.555,-85.3034"/>
</g>
<!-- Node6 -->
<g id="node6" class="node"><title>Node6</title>
<g id="a_node6"><a xlink:href="../../dc/dca/Lifetime_8h.html" target="_top" xlink:title="Framework/Lifetime.h">
<polygon fill="none" stroke="black" points="199.5,-56.5 199.5,-75.5 310.5,-75.5 310.5,-56.5 199.5,-56.5"/>
<text text-anchor="middle" x="255" y="-63.5" font-family="Helvetica,sans-Serif" font-size="10.00">Framework/Lifetime.h</text>
</a>
</g>
</g>
<!-- Node4&#45;&gt;Node6 -->
<g id="edge6" class="edge"><title>Node4&#45;&gt;Node6</title>
<path fill="none" stroke="midnightblue" d="M176.103,-112.324C190.903,-103.822 213.694,-90.7288 230.982,-80.7975"/>
<polygon fill="midnightblue" stroke="midnightblue" points="233.007,-83.6707 239.935,-75.6545 229.52,-77.6009 233.007,-83.6707"/>
</g>
<!-- Node4&#45;&gt;Node7 -->
<g id="edge7" class="edge"><title>Node4&#45;&gt;Node7</title>
<path fill="none" stroke="midnightblue" d="M196.81,-112.444C235.988,-103.083 298.877,-88.0561 341.515,-77.868"/>
<polygon fill="midnightblue" stroke="midnightblue" points="342.444,-81.2446 351.357,-75.5164 340.818,-74.4363 342.444,-81.2446"/>
</g>
<!-- Node8 -->
<g id="node8" class="node"><title>Node8</title>
<polygon fill="none" stroke="#bfbfbf" points="228,-0.5 228,-19.5 274,-19.5 274,-0.5 228,-0.5"/>
<text text-anchor="middle" x="251" y="-7.5" font-family="Helvetica,sans-Serif" font-size="10.00">cstdint</text>
</g>
<!-- Node7&#45;&gt;Node8 -->
<g id="edge8" class="edge"><title>Node7&#45;&gt;Node8</title>
<path fill="none" stroke="midnightblue" d="M365.45,-56.4435C342.969,-47.5171 307.512,-33.4387 282.02,-23.3168"/>
<polygon fill="midnightblue" stroke="midnightblue" points="283.035,-19.9539 272.449,-19.5164 280.451,-26.4598 283.035,-19.9539"/>
</g>
<!-- Node9 -->
<g id="node9" class="node"><title>Node9</title>
<polygon fill="none" stroke="#bfbfbf" points="292,-0.5 292,-19.5 344,-19.5 344,-0.5 292,-0.5"/>
<text text-anchor="middle" x="318" y="-7.5" font-family="Helvetica,sans-Serif" font-size="10.00">memory</text>
</g>
<!-- Node7&#45;&gt;Node9 -->
<g id="edge9" class="edge"><title>Node7&#45;&gt;Node9</title>
<path fill="none" stroke="midnightblue" d="M375.914,-56.324C365.514,-48.1849 349.739,-35.8395 337.278,-26.0874"/>
<polygon fill="midnightblue" stroke="midnightblue" points="339.32,-23.2407 329.288,-19.8339 335.006,-28.7533 339.32,-23.2407"/>
</g>
<!-- Node10 -->
<g id="node10" class="node"><title>Node10</title>
<polygon fill="none" stroke="#bfbfbf" points="362.5,-0.5 362.5,-19.5 411.5,-19.5 411.5,-0.5 362.5,-0.5"/>
<text text-anchor="middle" x="387" y="-7.5" font-family="Helvetica,sans-Serif" font-size="10.00">cassert</text>
</g>
<!-- Node7&#45;&gt;Node10 -->
<g id="edge10" class="edge"><title>Node7&#45;&gt;Node10</title>
<path fill="none" stroke="midnightblue" d="M387,-56.083C387,-49.0059 387,-38.8611 387,-29.9865"/>
<polygon fill="midnightblue" stroke="midnightblue" points="390.5,-29.751 387,-19.7511 383.5,-29.7511 390.5,-29.751"/>
</g>
<!-- Node11 -->
<g id="node11" class="node"><title>Node11</title>
<polygon fill="none" stroke="#bfbfbf" points="430,-0.5 430,-19.5 476,-19.5 476,-0.5 430,-0.5"/>
<text text-anchor="middle" x="453" y="-7.5" font-family="Helvetica,sans-Serif" font-size="10.00">cstring</text>
</g>
<!-- Node7&#45;&gt;Node11 -->
<g id="edge11" class="edge"><title>Node7&#45;&gt;Node11</title>
<path fill="none" stroke="midnightblue" d="M397.604,-56.324C407.456,-48.2631 422.351,-36.0765 434.215,-26.3695"/>
<polygon fill="midnightblue" stroke="midnightblue" points="436.68,-28.8752 442.203,-19.8339 432.247,-23.4575 436.68,-28.8752"/>
</g>
<!-- Node12 -->
<g id="node12" class="node"><title>Node12</title>
<polygon fill="none" stroke="#bfbfbf" points="494,-0.5 494,-19.5 550,-19.5 550,-0.5 494,-0.5"/>
<text text-anchor="middle" x="522" y="-7.5" font-family="Helvetica,sans-Serif" font-size="10.00">algorithm</text>
</g>
<!-- Node7&#45;&gt;Node12 -->
<g id="edge12" class="edge"><title>Node7&#45;&gt;Node12</title>
<path fill="none" stroke="midnightblue" d="M408.391,-56.4435C430.707,-47.5171 465.903,-33.4387 491.208,-23.3168"/>
<polygon fill="midnightblue" stroke="midnightblue" points="492.724,-26.4801 500.709,-19.5164 490.124,-19.9807 492.724,-26.4801"/>
</g>
<!-- Node13&#45;&gt;Node6 -->
<g id="edge15" class="edge"><title>Node13&#45;&gt;Node6</title>
<path fill="none" stroke="midnightblue" d="M295.909,-112.083C288.845,-104.298 278.412,-92.8015 269.851,-83.3665"/>
<polygon fill="midnightblue" stroke="midnightblue" points="272.253,-80.8047 262.941,-75.7511 267.069,-85.5087 272.253,-80.8047"/>
</g>
<!-- Node13&#45;&gt;Node7 -->
<g id="edge14" class="edge"><title>Node13&#45;&gt;Node7</title>
<path fill="none" stroke="midnightblue" d="M317.335,-112.324C330.162,-103.979 349.785,-91.2122 364.94,-81.3524"/>
<polygon fill="midnightblue" stroke="midnightblue" points="367.224,-84.0417 373.698,-75.6545 363.407,-78.1742 367.224,-84.0417"/>
</g>
</g>
</svg>
