<?xml version="1.0" encoding="UTF-8" standalone="no"?>
<!DOCTYPE svg PUBLIC "-//W3C//DTD SVG 1.1//EN"
 "http://www.w3.org/Graphics/SVG/1.1/DTD/svg11.dtd">
<!-- Generated by graphviz version 2.36.0 (20140111.2315)
 -->
<!-- Title: o2::DataFlow::TimeframeReaderDevice Pages: 1 -->
<!--zoomable 388 -->
<svg id="main" version="1.1" xmlns="http://www.w3.org/2000/svg" xmlns:xlink="http://www.w3.org/1999/xlink" xml:space="preserve" onload="init(evt)">
<style type="text/css"><![CDATA[
.edge:hover path { stroke: red; }
.edge:hover polygon { stroke: red; fill: red; }
]]></style>
<script type="text/javascript"><![CDATA[
var edges = document.getElementsByTagName('g');
if (edges && edges.length) {
  for (var i=0;i<edges.length;i++) {
    if (edges[i].id.substr(0,4)=='edge') {
      edges[i].setAttribute('class','edge');
    }
  }
}
]]></script>
        <defs>
                <circle id="rim" cx="0" cy="0" r="7"/>
                <circle id="rim2" cx="0" cy="0" r="3.5"/>
                <g id="zoomPlus">
                        <use xlink:href="#rim" fill="#404040">
                                <set attributeName="fill" to="#808080" begin="zoomplus.mouseover" end="zoomplus.mouseout"/>
                        </use>
                        <path d="M-4,0h8M0,-4v8" fill="none" stroke="white" stroke-width="1.5" pointer-events="none"/>
                </g>
                <g id="zoomMin">
                        <use xlink:href="#rim" fill="#404040">
                                <set attributeName="fill" to="#808080" begin="zoomminus.mouseover" end="zoomminus.mouseout"/>
                        </use>
                        <path d="M-4,0h8" fill="none" stroke="white" stroke-width="1.5" pointer-events="none"/>
                </g>
                <g id="dirArrow">
                        <path fill="none" stroke="white" stroke-width="1.5" d="M0,-3.0v7 M-2.5,-0.5L0,-3.0L2.5,-0.5"/>
                </g>
               <g id="resetDef">
                       <use xlink:href="#rim2" fill="#404040">
                               <set attributeName="fill" to="#808080" begin="reset.mouseover" end="reset.mouseout"/>
                       </use>
               </g>
        </defs>

<script type="text/javascript">
var viewWidth = 616;
var viewHeight = 388;
var sectionId = 'dynsection-1';
</script>
<script xlink:href="../../svgpan.js"/>
<svg id="graph" class="graph">
<g id="viewport">
<title>o2::DataFlow::TimeframeReaderDevice</title>
<!-- Node1 -->
<g id="node1" class="node"><title>Node1</title>
<polygon fill="#bfbfbf" stroke="black" points="220.5,-0.5 220.5,-101.5 379.5,-101.5 379.5,-0.5 220.5,-0.5"/>
<text text-anchor="start" x="228.5" y="-89.5" font-family="Helvetica,sans-Serif" font-size="10.00">o2::DataFlow::TimeframeReader</text>
<text text-anchor="middle" x="300" y="-78.5" font-family="Helvetica,sans-Serif" font-size="10.00">Device</text>
<polyline fill="none" stroke="black" points="220.5,-71.5 379.5,-71.5 "/>
<text text-anchor="middle" x="300" y="-59.5" font-family="Helvetica,sans-Serif" font-size="10.00"> </text>
<polyline fill="none" stroke="black" points="220.5,-52.5 379.5,-52.5 "/>
<text text-anchor="start" x="228.5" y="-40.5" font-family="Helvetica,sans-Serif" font-size="10.00">+ TimeframeReaderDevice()</text>
<text text-anchor="start" x="228.5" y="-29.5" font-family="Helvetica,sans-Serif" font-size="10.00">+ ~TimeframeReaderDevice()</text>
<text text-anchor="start" x="228.5" y="-18.5" font-family="Helvetica,sans-Serif" font-size="10.00">+ InitTask()</text>
<text text-anchor="start" x="228.5" y="-7.5" font-family="Helvetica,sans-Serif" font-size="10.00"># ConditionalRun()</text>
</g>
<!-- Node2 -->
<g id="node2" class="node"><title>Node2</title>
<g id="a_node2"><a xlink:href="../../da/df6/classo2_1_1Base_1_1O2Device.html" target="_top" xlink:title="{o2::Base::O2Device\n||+ ~O2Device()\l+ GetMonitoring()\l+ Init()\l+ AddMessage()\l+ ForEach()\l}">
<polygon fill="none" stroke="black" points="49.5,-160.5 49.5,-261.5 154.5,-261.5 154.5,-160.5 49.5,-160.5"/>
<text text-anchor="middle" x="102" y="-249.5" font-family="Helvetica,sans-Serif" font-size="10.00">o2::Base::O2Device</text>
<polyline fill="none" stroke="black" points="49.5,-242.5 154.5,-242.5 "/>
<text text-anchor="middle" x="102" y="-230.5" font-family="Helvetica,sans-Serif" font-size="10.00"> </text>
<polyline fill="none" stroke="black" points="49.5,-223.5 154.5,-223.5 "/>
<text text-anchor="start" x="57.5" y="-211.5" font-family="Helvetica,sans-Serif" font-size="10.00">+ ~O2Device()</text>
<text text-anchor="start" x="57.5" y="-200.5" font-family="Helvetica,sans-Serif" font-size="10.00">+ GetMonitoring()</text>
<text text-anchor="start" x="57.5" y="-189.5" font-family="Helvetica,sans-Serif" font-size="10.00">+ Init()</text>
<text text-anchor="start" x="57.5" y="-178.5" font-family="Helvetica,sans-Serif" font-size="10.00">+ AddMessage()</text>
<text text-anchor="start" x="57.5" y="-167.5" font-family="Helvetica,sans-Serif" font-size="10.00">+ ForEach()</text>
</a>
</g>
</g>
<!-- Node2&#45;&gt;Node1 -->
<g id="edge1" class="edge"><title>Node2&#45;&gt;Node1</title>
<path fill="none" stroke="midnightblue" d="M162.479,-160.419C162.653,-160.279 162.827,-160.139 163,-160 186.841,-140.835 213.195,-119.981 236.368,-101.755"/>
<polygon fill="none" stroke="midnightblue" points="160.103,-157.839 154.521,-166.844 164.5,-163.286 160.103,-157.839"/>
</g>
<!-- Node3 -->
<g id="node3" class="node"><title>Node3</title>
<g id="a_node3"><a xlink:href="../../db/dfe/classFairMQDevice.html" target="_top" xlink:title="{FairMQDevice\n||}">
<polygon fill="none" stroke="black" points="0,-316.5 0,-373.5 80,-373.5 80,-316.5 0,-316.5"/>
<text text-anchor="middle" x="40" y="-361.5" font-family="Helvetica,sans-Serif" font-size="10.00">FairMQDevice</text>
<polyline fill="none" stroke="black" points="0,-354.5 80,-354.5 "/>
<text text-anchor="middle" x="40" y="-342.5" font-family="Helvetica,sans-Serif" font-size="10.00"> </text>
<polyline fill="none" stroke="black" points="0,-335.5 80,-335.5 "/>
<text text-anchor="middle" x="40" y="-323.5" font-family="Helvetica,sans-Serif" font-size="10.00"> </text>
</a>
</g>
</g>
<!-- Node3&#45;&gt;Node2 -->
<g id="edge2" class="edge"><title>Node3&#45;&gt;Node2</title>
<path fill="none" stroke="midnightblue" d="M57.3962,-306.963C64.0172,-292.867 71.6709,-276.572 78.7488,-261.503"/>
<polygon fill="none" stroke="midnightblue" points="54.0807,-305.789 52.9972,-316.328 60.4166,-308.765 54.0807,-305.789"/>
</g>
<!-- Node4 -->
<g id="node4" class="node"><title>Node4</title>
<polygon fill="none" stroke="#bfbfbf" points="98,-311 98,-379 230,-379 230,-311 98,-311"/>
<text text-anchor="start" x="106" y="-367" font-family="Helvetica,sans-Serif" font-size="10.00">unique_ptr&lt; o2::monitoring</text>
<text text-anchor="middle" x="164" y="-356" font-family="Helvetica,sans-Serif" font-size="10.00">::Monitoring &gt;</text>
<polyline fill="none" stroke="#bfbfbf" points="98,-349 230,-349 "/>
<text text-anchor="middle" x="164" y="-337" font-family="Helvetica,sans-Serif" font-size="10.00"> </text>
<polyline fill="none" stroke="#bfbfbf" points="98,-330 230,-330 "/>
<text text-anchor="middle" x="164" y="-318" font-family="Helvetica,sans-Serif" font-size="10.00"> </text>
</g>
<!-- Node4&#45;&gt;Node2 -->
<g id="edge3" class="edge"><title>Node4&#45;&gt;Node2</title>
<path fill="none" stroke="#404040" d="M148.355,-310.691C142.89,-299.056 136.573,-285.607 130.395,-272.454"/>
<polygon fill="none" stroke="#404040" points="130.362,-272.383 124.19,-268.653 125.26,-261.522 131.432,-265.252 130.362,-272.383"/>
<text text-anchor="middle" x="166.5" y="-283.5" font-family="Helvetica,sans-Serif" font-size="10.00"> +monitoring</text>
</g>
<!-- Node5 -->
<g id="node5" class="node"><title>Node5</title>
<polygon fill="none" stroke="#bfbfbf" points="172.5,-182.5 172.5,-239.5 277.5,-239.5 277.5,-182.5 172.5,-182.5"/>
<text text-anchor="middle" x="225" y="-227.5" font-family="Helvetica,sans-Serif" font-size="10.00">vector&lt; std::string &gt;</text>
<polyline fill="none" stroke="#bfbfbf" points="172.5,-220.5 277.5,-220.5 "/>
<text text-anchor="middle" x="225" y="-208.5" font-family="Helvetica,sans-Serif" font-size="10.00"> </text>
<polyline fill="none" stroke="#bfbfbf" points="172.5,-201.5 277.5,-201.5 "/>
<text text-anchor="middle" x="225" y="-189.5" font-family="Helvetica,sans-Serif" font-size="10.00"> </text>
</g>
<!-- Node5&#45;&gt;Node1 -->
<g id="edge4" class="edge"><title>Node5&#45;&gt;Node1</title>
<path fill="none" stroke="#404040" d="M232.685,-182.132C238.149,-163.991 246.235,-140.06 256,-120 257.246,-117.44 258.571,-114.859 259.953,-112.277"/>
<polygon fill="none" stroke="#404040" points="260.019,-112.16 259.48,-104.969 265.911,-101.706 266.45,-108.897 260.019,-112.16"/>
<text text-anchor="middle" x="276" y="-128.5" font-family="Helvetica,sans-Serif" font-size="10.00"> #mSeen</text>
</g>
<!-- Node6 -->
<g id="node6" class="node"><title>Node6</title>
<polygon fill="none" stroke="#bfbfbf" points="295.5,-182.5 295.5,-239.5 330.5,-239.5 330.5,-182.5 295.5,-182.5"/>
<text text-anchor="middle" x="313" y="-227.5" font-family="Helvetica,sans-Serif" font-size="10.00">char</text>
<polyline fill="none" stroke="#bfbfbf" points="295.5,-220.5 330.5,-220.5 "/>
<text text-anchor="middle" x="313" y="-208.5" font-family="Helvetica,sans-Serif" font-size="10.00"> </text>
<polyline fill="none" stroke="#bfbfbf" points="295.5,-201.5 330.5,-201.5 "/>
<text text-anchor="middle" x="313" y="-189.5" font-family="Helvetica,sans-Serif" font-size="10.00"> </text>
</g>
<!-- Node6&#45;&gt;Node1 -->
<g id="edge5" class="edge"><title>Node6&#45;&gt;Node1</title>
<path fill="none" stroke="#404040" d="M307.063,-182.348C304.698,-170.055 302.245,-155.369 301,-142 300.153,-132.913 299.641,-123.287 299.355,-113.842"/>
<polygon fill="none" stroke="#404040" points="299.349,-113.588 295.225,-107.672 299.099,-101.59 303.223,-107.505 299.349,-113.588"/>
<text text-anchor="middle" x="374.5" y="-134" font-family="Helvetica,sans-Serif" font-size="10.00"> +OptionKeyOutputChannelName</text>
<text text-anchor="middle" x="374.5" y="-123" font-family="Helvetica,sans-Serif" font-size="10.00">+OptionKeyInputFileName</text>
</g>
<!-- Node7 -->
<g id="node7" class="node"><title>Node7</title>
<polygon fill="none" stroke="#bfbfbf" points="445,-182.5 445,-239.5 495,-239.5 495,-182.5 445,-182.5"/>
<text text-anchor="middle" x="470" y="-227.5" font-family="Helvetica,sans-Serif" font-size="10.00">fstream</text>
<polyline fill="none" stroke="#bfbfbf" points="445,-220.5 495,-220.5 "/>
<text text-anchor="middle" x="470" y="-208.5" font-family="Helvetica,sans-Serif" font-size="10.00"> </text>
<polyline fill="none" stroke="#bfbfbf" points="445,-201.5 495,-201.5 "/>
<text text-anchor="middle" x="470" y="-189.5" font-family="Helvetica,sans-Serif" font-size="10.00"> </text>
</g>
<!-- Node7&#45;&gt;Node1 -->
<g id="edge6" class="edge"><title>Node7&#45;&gt;Node1</title>
<path fill="none" stroke="#404040" d="M469.409,-182.422C467.643,-163.019 462.435,-137.493 448,-120 433.057,-101.892 412.239,-88.377 390.929,-78.3806"/>
<polygon fill="none" stroke="#404040" points="390.752,-78.3026 383.649,-79.5464 379.769,-73.4681 386.872,-72.2243 390.752,-78.3026"/>
<text text-anchor="middle" x="477.5" y="-128.5" font-family="Helvetica,sans-Serif" font-size="10.00"> #mFile</text>
</g>
<!-- Node8 -->
<g id="node8" class="node"><title>Node8</title>
<polygon fill="none" stroke="#bfbfbf" points="513.5,-182.5 513.5,-239.5 542.5,-239.5 542.5,-182.5 513.5,-182.5"/>
<text text-anchor="middle" x="528" y="-227.5" font-family="Helvetica,sans-Serif" font-size="10.00">int</text>
<polyline fill="none" stroke="#bfbfbf" points="513.5,-220.5 542.5,-220.5 "/>
<text text-anchor="middle" x="528" y="-208.5" font-family="Helvetica,sans-Serif" font-size="10.00"> </text>
<polyline fill="none" stroke="#bfbfbf" points="513.5,-201.5 542.5,-201.5 "/>
<text text-anchor="middle" x="528" y="-189.5" font-family="Helvetica,sans-Serif" font-size="10.00"> </text>
</g>
<!-- Node8&#45;&gt;Node1 -->
<g id="edge7" class="edge"><title>Node8&#45;&gt;Node1</title>
<path fill="none" stroke="#404040" d="M525.245,-182.236C521.892,-162.486 514.462,-136.612 498,-120 469.721,-91.4632 428.948,-74.8921 391.743,-65.2739"/>
<polygon fill="none" stroke="#404040" points="391.473,-65.2087 384.701,-67.6869 379.809,-62.389 386.581,-59.9108 391.473,-65.2087"/>
<text text-anchor="middle" x="560.5" y="-134" font-family="Helvetica,sans-Serif" font-size="10.00"> #mOutChannelName</text>
<text text-anchor="middle" x="560.5" y="-123" font-family="Helvetica,sans-Serif" font-size="10.00">#mInFileName</text>
</g>
</g>
</svg>
        <g id="navigator" transform="translate(0 0)" fill="#404254">
                <rect fill="#f2f5e9" fill-opacity="0.5" stroke="#606060" stroke-width=".5" x="0" y="0" width="60" height="60"/>
                <use id="zoomplus" xlink:href="#zoomPlus" x="17" y="9" onmousedown="handleZoom(evt,'in')"/>
                <use id="zoomminus" xlink:href="#zoomMin" x="42" y="9" onmousedown="handleZoom(evt,'out')"/>
                <use id="reset" xlink:href="#resetDef" x="30" y="36" onmousedown="handleReset()"/>
                <g id="arrowUp" xlink:href="#dirArrow" transform="translate(30 24)" onmousedown="handlePan(0,-1)">
                  <use xlink:href="#rim" fill="#404040">
                        <set attributeName="fill" to="#808080" begin="arrowUp.mouseover" end="arrowUp.mouseout"/>
                  </use>
                  <path fill="none" stroke="white" stroke-width="1.5" d="M0,-3.0v7 M-2.5,-0.5L0,-3.0L2.5,-0.5"/>
                </g>
                <g id="arrowRight" xlink:href="#dirArrow" transform="rotate(90) translate(36 -43)" onmousedown="handlePan(1,0)">
                  <use xlink:href="#rim" fill="#404040">
                        <set attributeName="fill" to="#808080" begin="arrowRight.mouseover" end="arrowRight.mouseout"/>
                  </use>
                  <path fill="none" stroke="white" stroke-width="1.5" d="M0,-3.0v7 M-2.5,-0.5L0,-3.0L2.5,-0.5"/>
                </g>
                <g id="arrowDown" xlink:href="#dirArrow" transform="rotate(180) translate(-30 -48)" onmousedown="handlePan(0,1)">
                  <use xlink:href="#rim" fill="#404040">
                        <set attributeName="fill" to="#808080" begin="arrowDown.mouseover" end="arrowDown.mouseout"/>
                  </use>
                  <path fill="none" stroke="white" stroke-width="1.5" d="M0,-3.0v7 M-2.5,-0.5L0,-3.0L2.5,-0.5"/>
                </g>
                <g id="arrowLeft" xlink:href="#dirArrow" transform="rotate(270) translate(-36 17)" onmousedown="handlePan(-1,0)">
                  <use xlink:href="#rim" fill="#404040">
                        <set attributeName="fill" to="#808080" begin="arrowLeft.mouseover" end="arrowLeft.mouseout"/>
                  </use>
                  <path fill="none" stroke="white" stroke-width="1.5" d="M0,-3.0v7 M-2.5,-0.5L0,-3.0L2.5,-0.5"/>
                </g>
        </g>
        <svg viewBox="0 0 15 15" width="100%" height="30px" preserveAspectRatio="xMaxYMin meet">
         <g id="arrow_out" transform="scale(0.3 0.3)">
          <a xlink:href="classo2_1_1DataFlow_1_1TimeframeReaderDevice__coll__graph_org.svg" target="_base">
           <rect id="button" ry="5" rx="5" y="6" x="6" height="38" width="38"
                fill="#f2f5e9" fill-opacity="0.5" stroke="#606060" stroke-width="1.0"/>
           <path id="arrow"
             d="M 11.500037,31.436501 C 11.940474,20.09759 22.043105,11.32322 32.158766,21.979434 L 37.068811,17.246167 C 37.068811,17.246167 37.088388,32 37.088388,32 L 22.160133,31.978069 C 22.160133,31.978069 26.997745,27.140456 26.997745,27.140456 C 18.528582,18.264221 13.291696,25.230495 11.500037,31.436501 z"
             style="fill:#404040;"/>
          </a>
         </g>
        </svg>
</svg>
