<?xml version="1.0" encoding="UTF-8" standalone="no"?>
<!DOCTYPE svg PUBLIC "-//W3C//DTD SVG 1.1//EN"
 "http://www.w3.org/Graphics/SVG/1.1/DTD/svg11.dtd">
<!-- Generated by graphviz version 2.36.0 (20140111.2315)
 -->
<!-- Title: /home/travis/build/AliceO2Group/AliceO2/Framework/Core/include/Framework/DataAllocator.h Pages: 1 -->
<!--zoomable 286 -->
<svg id="main" version="1.1" xmlns="http://www.w3.org/2000/svg" xmlns:xlink="http://www.w3.org/1999/xlink" xml:space="preserve" onload="init(evt)">
<style type="text/css"><![CDATA[
.edge:hover path { stroke: red; }
.edge:hover polygon { stroke: red; fill: red; }
]]></style>
<script type="text/javascript"><![CDATA[
var edges = document.getElementsByTagName('g');
if (edges && edges.length) {
  for (var i=0;i<edges.length;i++) {
    if (edges[i].id.substr(0,4)=='edge') {
      edges[i].setAttribute('class','edge');
    }
  }
}
]]></script>
        <defs>
                <circle id="rim" cx="0" cy="0" r="7"/>
                <circle id="rim2" cx="0" cy="0" r="3.5"/>
                <g id="zoomPlus">
                        <use xlink:href="#rim" fill="#404040">
                                <set attributeName="fill" to="#808080" begin="zoomplus.mouseover" end="zoomplus.mouseout"/>
                        </use>
                        <path d="M-4,0h8M0,-4v8" fill="none" stroke="white" stroke-width="1.5" pointer-events="none"/>
                </g>
                <g id="zoomMin">
                        <use xlink:href="#rim" fill="#404040">
                                <set attributeName="fill" to="#808080" begin="zoomminus.mouseover" end="zoomminus.mouseout"/>
                        </use>
                        <path d="M-4,0h8" fill="none" stroke="white" stroke-width="1.5" pointer-events="none"/>
                </g>
                <g id="dirArrow">
                        <path fill="none" stroke="white" stroke-width="1.5" d="M0,-3.0v7 M-2.5,-0.5L0,-3.0L2.5,-0.5"/>
                </g>
               <g id="resetDef">
                       <use xlink:href="#rim2" fill="#404040">
                               <set attributeName="fill" to="#808080" begin="reset.mouseover" end="reset.mouseout"/>
                       </use>
               </g>
        </defs>

<script type="text/javascript">
var viewWidth = 2101;
var viewHeight = 286;
var sectionId = 'dynsection-0';
</script>
<script xlink:href="../../svgpan.js"/>
<svg id="graph" class="graph">
<g id="viewport">
<title>/home/travis/build/AliceO2Group/AliceO2/Framework/Core/include/Framework/DataAllocator.h</title>
<!-- Node1 -->
<g id="node1" class="node"><title>Node1</title>
<polygon fill="#bfbfbf" stroke="black" points="973.5,-225 973.5,-277 1112.5,-277 1112.5,-225 973.5,-225"/>
<text text-anchor="start" x="981.5" y="-265" font-family="Helvetica,sans-Serif" font-size="10.00">/home/travis/build</text>
<text text-anchor="start" x="981.5" y="-254" font-family="Helvetica,sans-Serif" font-size="10.00">/AliceO2Group/AliceO2</text>
<text text-anchor="start" x="981.5" y="-243" font-family="Helvetica,sans-Serif" font-size="10.00">/Framework/Core/include</text>
<text text-anchor="middle" x="1043" y="-232" font-family="Helvetica,sans-Serif" font-size="10.00">/Framework/DataAllocator.h</text>
</g>
<!-- Node2 -->
<g id="node2" class="node"><title>Node2</title>
<polygon fill="none" stroke="#bfbfbf" points="0,-168.5 0,-187.5 118,-187.5 118,-168.5 0,-168.5"/>
<text text-anchor="middle" x="59" y="-175.5" font-family="Helvetica,sans-Serif" font-size="10.00">fairmq/FairMQDevice.h</text>
</g>
<!-- Node1&#45;&gt;Node2 -->
<g id="edge1" class="edge"><title>Node1&#45;&gt;Node2</title>
<path fill="none" stroke="midnightblue" d="M973.465,-246.569C820.909,-238.755 445.442,-217.965 132,-188 130.888,-187.894 129.766,-187.784 128.637,-187.672"/>
<polygon fill="midnightblue" stroke="midnightblue" points="128.643,-184.153 118.333,-186.59 127.913,-191.115 128.643,-184.153"/>
</g>
<!-- Node3 -->
<g id="node3" class="node"><title>Node3</title>
<g id="a_node3"><a xlink:href="../../dc/dcd/DataHeader_8h.html" target="_top" xlink:title="Headers/DataHeader.h">
<polygon fill="none" stroke="black" points="213.5,-56.5 213.5,-75.5 330.5,-75.5 330.5,-56.5 213.5,-56.5"/>
<text text-anchor="middle" x="272" y="-63.5" font-family="Helvetica,sans-Serif" font-size="10.00">Headers/DataHeader.h</text>
</a>
</g>
</g>
<!-- Node1&#45;&gt;Node3 -->
<g id="edge2" class="edge"><title>Node1&#45;&gt;Node3</title>
<path fill="none" stroke="midnightblue" d="M973.44,-250.399C775.473,-250.813 219.693,-246.692 165,-188 129.275,-149.663 202.717,-102.822 244.989,-80.3193"/>
<polygon fill="midnightblue" stroke="midnightblue" points="246.724,-83.3618 253.984,-75.6454 243.497,-77.1503 246.724,-83.3618"/>
</g>
<!-- Node9 -->
<g id="node9" class="node"><title>Node9</title>
<g id="a_node9"><a xlink:href="../../d3/ddf/Output_8h.html" target="_top" xlink:title="Framework/Output.h">
<polygon fill="none" stroke="black" points="218,-112.5 218,-131.5 324,-131.5 324,-112.5 218,-112.5"/>
<text text-anchor="middle" x="271" y="-119.5" font-family="Helvetica,sans-Serif" font-size="10.00">Framework/Output.h</text>
</a>
</g>
</g>
<!-- Node1&#45;&gt;Node9 -->
<g id="edge8" class="edge"><title>Node1&#45;&gt;Node9</title>
<path fill="none" stroke="midnightblue" d="M973.219,-249.4C819.17,-247.184 454.827,-236.782 343,-188 318.515,-177.319 296.73,-154.918 283.699,-139.423"/>
<polygon fill="midnightblue" stroke="midnightblue" points="286.412,-137.212 277.399,-131.643 280.972,-141.617 286.412,-137.212"/>
</g>
<!-- Node11 -->
<g id="node11" class="node"><title>Node11</title>
<g id="a_node11"><a xlink:href="../../d6/d5a/OutputRef_8h.html" target="_top" xlink:title="Framework/OutputRef.h">
<polygon fill="none" stroke="black" points="174,-168.5 174,-187.5 296,-187.5 296,-168.5 174,-168.5"/>
<text text-anchor="middle" x="235" y="-175.5" font-family="Helvetica,sans-Serif" font-size="10.00">Framework/OutputRef.h</text>
</a>
</g>
</g>
<!-- Node1&#45;&gt;Node11 -->
<g id="edge11" class="edge"><title>Node1&#45;&gt;Node11</title>
<path fill="none" stroke="midnightblue" d="M973.443,-244.933C843.145,-235.26 553.457,-212.896 310,-188 308.891,-187.887 307.773,-187.771 306.648,-187.653"/>
<polygon fill="midnightblue" stroke="midnightblue" points="306.694,-184.138 296.375,-186.543 305.941,-191.097 306.694,-184.138"/>
</g>
<!-- Node12 -->
<g id="node12" class="node"><title>Node12</title>
<polygon fill="none" stroke="#bfbfbf" points="555.5,-112.5 555.5,-131.5 596.5,-131.5 596.5,-112.5 555.5,-112.5"/>
<text text-anchor="middle" x="576" y="-119.5" font-family="Helvetica,sans-Serif" font-size="10.00">string</text>
</g>
<!-- Node1&#45;&gt;Node12 -->
<g id="edge50" class="edge"><title>Node1&#45;&gt;Node12</title>
<path fill="none" stroke="midnightblue" d="M973.294,-246.612C840.062,-239.42 559.858,-220.563 531,-188 516.84,-172.022 536.501,-151.464 554.111,-137.79"/>
<polygon fill="midnightblue" stroke="midnightblue" points="556.443,-140.42 562.433,-131.681 552.301,-134.777 556.443,-140.42"/>
</g>
<!-- Node13 -->
<g id="node13" class="node"><title>Node13</title>
<g id="a_node13"><a xlink:href="../../d6/df4/OutputRoute_8h.html" target="_top" xlink:title="Framework/OutputRoute.h">
<polygon fill="none" stroke="black" points="352,-168.5 352,-187.5 484,-187.5 484,-168.5 352,-168.5"/>
<text text-anchor="middle" x="418" y="-175.5" font-family="Helvetica,sans-Serif" font-size="10.00">Framework/OutputRoute.h</text>
</a>
</g>
</g>
<!-- Node1&#45;&gt;Node13 -->
<g id="edge14" class="edge"><title>Node1&#45;&gt;Node13</title>
<path fill="none" stroke="midnightblue" d="M973.425,-242.096C855.358,-228.684 616.689,-201.571 494.244,-187.661"/>
<polygon fill="midnightblue" stroke="midnightblue" points="494.529,-184.171 484.198,-186.52 493.739,-191.127 494.529,-184.171"/>
</g>
<!-- Node16 -->
<g id="node16" class="node"><title>Node16</title>
<g id="a_node16"><a xlink:href="../../d7/d31/DataChunk_8h.html" target="_top" xlink:title="Framework/DataChunk.h">
<polygon fill="none" stroke="black" points="540,-168.5 540,-187.5 666,-187.5 666,-168.5 540,-168.5"/>
<text text-anchor="middle" x="603" y="-175.5" font-family="Helvetica,sans-Serif" font-size="10.00">Framework/DataChunk.h</text>
</a>
</g>
</g>
<!-- Node1&#45;&gt;Node16 -->
<g id="edge20" class="edge"><title>Node1&#45;&gt;Node16</title>
<path fill="none" stroke="midnightblue" d="M973.281,-238.75C888.694,-225.101 747.332,-202.29 665.928,-189.154"/>
<polygon fill="midnightblue" stroke="midnightblue" points="666.251,-185.661 655.821,-187.523 665.136,-192.572 666.251,-185.661"/>
</g>
<!-- Node17 -->
<g id="node17" class="node"><title>Node17</title>
<g id="a_node17"><a xlink:href="../../dc/dc4/MessageContext_8h.html" target="_top" xlink:title="Framework/MessageContext.h">
<polygon fill="none" stroke="black" points="684.5,-168.5 684.5,-187.5 835.5,-187.5 835.5,-168.5 684.5,-168.5"/>
<text text-anchor="middle" x="760" y="-175.5" font-family="Helvetica,sans-Serif" font-size="10.00">Framework/MessageContext.h</text>
</a>
</g>
</g>
<!-- Node1&#45;&gt;Node17 -->
<g id="edge21" class="edge"><title>Node1&#45;&gt;Node17</title>
<path fill="none" stroke="midnightblue" d="M973.408,-232.541C920.459,-219.257 849.214,-201.382 803.938,-190.023"/>
<polygon fill="midnightblue" stroke="midnightblue" points="804.681,-186.601 794.13,-187.563 802.977,-193.391 804.681,-186.601"/>
</g>
<!-- Node19 -->
<g id="node19" class="node"><title>Node19</title>
<polygon fill="none" stroke="#bfbfbf" points="909,-56.5 909,-75.5 953,-75.5 953,-56.5 909,-56.5"/>
<text text-anchor="middle" x="931" y="-63.5" font-family="Helvetica,sans-Serif" font-size="10.00">vector</text>
</g>
<!-- Node1&#45;&gt;Node19 -->
<g id="edge48" class="edge"><title>Node1&#45;&gt;Node19</title>
<path fill="none" stroke="midnightblue" d="M1040.17,-224.805C1037.5,-207.96 1032.43,-185.722 1023,-168 1004.31,-132.878 970.617,-100.421 949.604,-82.215"/>
<polygon fill="midnightblue" stroke="midnightblue" points="951.862,-79.5413 941.971,-75.7451 947.336,-84.8811 951.862,-79.5413"/>
</g>
<!-- Node20 -->
<g id="node20" class="node"><title>Node20</title>
<g id="a_node20"><a xlink:href="../../d2/d80/RootObjectContext_8h.html" target="_top" xlink:title="Framework/RootObjectContext.h">
<polygon fill="none" stroke="black" points="853.5,-168.5 853.5,-187.5 1014.5,-187.5 1014.5,-168.5 853.5,-168.5"/>
<text text-anchor="middle" x="934" y="-175.5" font-family="Helvetica,sans-Serif" font-size="10.00">Framework/RootObjectContext.h</text>
</a>
</g>
</g>
<!-- Node1&#45;&gt;Node20 -->
<g id="edge26" class="edge"><title>Node1&#45;&gt;Node20</title>
<path fill="none" stroke="midnightblue" d="M1004.57,-224.968C988.18,-214.291 969.659,-202.227 955.705,-193.138"/>
<polygon fill="midnightblue" stroke="midnightblue" points="957.552,-190.164 947.263,-187.639 953.731,-196.03 957.552,-190.164"/>
</g>
<!-- Node21 -->
<g id="node21" class="node"><title>Node21</title>
<polygon fill="none" stroke="#bfbfbf" points="1011.5,-112.5 1011.5,-131.5 1138.5,-131.5 1138.5,-112.5 1011.5,-112.5"/>
<text text-anchor="middle" x="1075" y="-119.5" font-family="Helvetica,sans-Serif" font-size="10.00">fairmq/FairMQMessage.h</text>
</g>
<!-- Node1&#45;&gt;Node21 -->
<g id="edge47" class="edge"><title>Node1&#45;&gt;Node21</title>
<path fill="none" stroke="midnightblue" d="M1049.32,-224.909C1055.52,-200.296 1064.83,-163.352 1070.37,-141.362"/>
<polygon fill="midnightblue" stroke="midnightblue" points="1073.78,-142.18 1072.83,-131.628 1066.99,-140.47 1073.78,-142.18"/>
</g>
<!-- Node23 -->
<g id="node23" class="node"><title>Node23</title>
<g id="a_node23"><a xlink:href="../../d8/d3c/TMessageSerializer_8h.html" target="_top" xlink:title="Framework/TMessageSerializer.h">
<polygon fill="none" stroke="black" points="1290.5,-168.5 1290.5,-187.5 1453.5,-187.5 1453.5,-168.5 1290.5,-168.5"/>
<text text-anchor="middle" x="1372" y="-175.5" font-family="Helvetica,sans-Serif" font-size="10.00">Framework/TMessageSerializer.h</text>
</a>
</g>
</g>
<!-- Node1&#45;&gt;Node23 -->
<g id="edge32" class="edge"><title>Node1&#45;&gt;Node23</title>
<path fill="none" stroke="midnightblue" d="M1112.77,-234.943C1175.63,-221.377 1266.49,-201.77 1322.26,-189.734"/>
<polygon fill="midnightblue" stroke="midnightblue" points="1323.22,-193.108 1332.25,-187.578 1321.74,-186.266 1323.22,-193.108"/>
</g>
<!-- Node29 -->
<g id="node29" class="node"><title>Node29</title>
<polygon fill="none" stroke="#bfbfbf" points="1685.5,-112.5 1685.5,-131.5 1738.5,-131.5 1738.5,-112.5 1685.5,-112.5"/>
<text text-anchor="middle" x="1712" y="-119.5" font-family="Helvetica,sans-Serif" font-size="10.00">gsl/span</text>
</g>
<!-- Node1&#45;&gt;Node29 -->
<g id="edge53" class="edge"><title>Node1&#45;&gt;Node29</title>
<path fill="none" stroke="midnightblue" d="M1112.72,-242.011C1196.2,-231.91 1340.04,-212.804 1462,-188 1538.72,-172.397 1627.07,-147.846 1675.5,-133.807"/>
<polygon fill="midnightblue" stroke="midnightblue" points="1676.59,-137.136 1685.22,-130.978 1674.64,-130.415 1676.59,-137.136"/>
</g>
<!-- Node31 -->
<g id="node31" class="node"><title>Node31</title>
<g id="a_node31"><a xlink:href="../../d0/d95/TypeTraits_8h.html" target="_top" xlink:title="Framework/TypeTraits.h">
<polygon fill="none" stroke="black" points="1756.5,-112.5 1756.5,-131.5 1879.5,-131.5 1879.5,-112.5 1756.5,-112.5"/>
<text text-anchor="middle" x="1818" y="-119.5" font-family="Helvetica,sans-Serif" font-size="10.00">Framework/TypeTraits.h</text>
</a>
</g>
</g>
<!-- Node1&#45;&gt;Node31 -->
<g id="edge42" class="edge"><title>Node1&#45;&gt;Node31</title>
<path fill="none" stroke="midnightblue" d="M1112.75,-242.702C1205.42,-232.589 1374.09,-212.733 1517,-188 1608.44,-172.175 1714.26,-147.927 1772.92,-133.954"/>
<polygon fill="midnightblue" stroke="midnightblue" points="1774.05,-137.282 1782.97,-131.552 1772.43,-130.474 1774.05,-137.282"/>
</g>
<!-- Node32 -->
<g id="node32" class="node"><title>Node32</title>
<polygon fill="none" stroke="#bfbfbf" points="1832,-56.5 1832,-75.5 1894,-75.5 1894,-56.5 1832,-56.5"/>
<text text-anchor="middle" x="1863" y="-63.5" font-family="Helvetica,sans-Serif" font-size="10.00">type_traits</text>
</g>
<!-- Node1&#45;&gt;Node32 -->
<g id="edge52" class="edge"><title>Node1&#45;&gt;Node32</title>
<path fill="none" stroke="midnightblue" d="M1112.53,-249.06C1300.49,-245.926 1808.57,-233.311 1868,-188 1895.78,-166.824 1896.76,-145.811 1888,-112 1885.45,-102.175 1880.25,-92.2118 1875.24,-84.166"/>
<polygon fill="midnightblue" stroke="midnightblue" points="1878.08,-82.1143 1869.63,-75.7252 1872.25,-85.9903 1878.08,-82.1143"/>
</g>
<!-- Node33 -->
<g id="node33" class="node"><title>Node33</title>
<g id="a_node33"><a xlink:href="../../d1/d53/SerializationMethods_8h.html" target="_top" xlink:title="Type wrappers for enfording a specific serialization method. ">
<polygon fill="none" stroke="black" points="1692.5,-168.5 1692.5,-187.5 1859.5,-187.5 1859.5,-168.5 1692.5,-168.5"/>
<text text-anchor="middle" x="1776" y="-175.5" font-family="Helvetica,sans-Serif" font-size="10.00">Framework/SerializationMethods.h</text>
</a>
</g>
</g>
<!-- Node1&#45;&gt;Node33 -->
<g id="edge45" class="edge"><title>Node1&#45;&gt;Node33</title>
<path fill="none" stroke="midnightblue" d="M1112.62,-243.256C1245.02,-230.432 1533.16,-202.522 1682.32,-188.074"/>
<polygon fill="midnightblue" stroke="midnightblue" points="1682.77,-191.547 1692.38,-187.099 1682.09,-184.58 1682.77,-191.547"/>
</g>
<!-- Node34 -->
<g id="node34" class="node"><title>Node34</title>
<polygon fill="none" stroke="#bfbfbf" points="1925.5,-168.5 1925.5,-187.5 1960.5,-187.5 1960.5,-168.5 1925.5,-168.5"/>
<text text-anchor="middle" x="1943" y="-175.5" font-family="Helvetica,sans-Serif" font-size="10.00">map</text>
</g>
<!-- Node1&#45;&gt;Node34 -->
<g id="edge49" class="edge"><title>Node1&#45;&gt;Node34</title>
<path fill="none" stroke="midnightblue" d="M1112.78,-249.796C1260.94,-248.318 1617.43,-239.221 1911,-188 1912.46,-187.746 1913.94,-187.452 1915.44,-187.13"/>
<polygon fill="midnightblue" stroke="midnightblue" points="1916.35,-190.509 1925.21,-184.694 1914.66,-183.717 1916.35,-190.509"/>
</g>
<!-- Node35 -->
<g id="node35" class="node"><title>Node35</title>
<polygon fill="none" stroke="#bfbfbf" points="1979,-168.5 1979,-187.5 2019,-187.5 2019,-168.5 1979,-168.5"/>
<text text-anchor="middle" x="1999" y="-175.5" font-family="Helvetica,sans-Serif" font-size="10.00">utility</text>
</g>
<!-- Node1&#45;&gt;Node35 -->
<g id="edge51" class="edge"><title>Node1&#45;&gt;Node35</title>
<path fill="none" stroke="midnightblue" d="M1112.77,-250.644C1267.99,-250.923 1653.1,-245.209 1969,-188 1969.1,-187.982 1969.2,-187.963 1969.3,-187.945"/>
<polygon fill="midnightblue" stroke="midnightblue" points="1969.87,-191.406 1978.82,-185.726 1968.28,-184.588 1969.87,-191.406"/>
</g>
<!-- Node36 -->
<g id="node36" class="node"><title>Node36</title>
<polygon fill="none" stroke="#bfbfbf" points="2037,-168.5 2037,-187.5 2093,-187.5 2093,-168.5 2037,-168.5"/>
<text text-anchor="middle" x="2065" y="-175.5" font-family="Helvetica,sans-Serif" font-size="10.00">TClass.h</text>
</g>
<!-- Node1&#45;&gt;Node36 -->
<g id="edge54" class="edge"><title>Node1&#45;&gt;Node36</title>
<path fill="none" stroke="midnightblue" d="M1112.71,-249.806C1272.93,-248.456 1679.66,-239.883 2026.82,-187.906"/>
<polygon fill="midnightblue" stroke="midnightblue" points="2027.46,-191.351 2036.82,-186.395 2026.41,-184.429 2027.46,-191.351"/>
</g>
<!-- Node4 -->
<g id="node4" class="node"><title>Node4</title>
<polygon fill="none" stroke="#bfbfbf" points="185,-0.5 185,-19.5 231,-19.5 231,-0.5 185,-0.5"/>
<text text-anchor="middle" x="208" y="-7.5" font-family="Helvetica,sans-Serif" font-size="10.00">cstdint</text>
</g>
<!-- Node3&#45;&gt;Node4 -->
<g id="edge3" class="edge"><title>Node3&#45;&gt;Node4</title>
<path fill="none" stroke="midnightblue" d="M261.717,-56.324C252.164,-48.2631 237.72,-36.0765 226.216,-26.3695"/>
<polygon fill="midnightblue" stroke="midnightblue" points="228.37,-23.6076 218.47,-19.8339 223.856,-28.9577 228.37,-23.6076"/>
</g>
<!-- Node5 -->
<g id="node5" class="node"><title>Node5</title>
<polygon fill="none" stroke="#bfbfbf" points="968,-0.5 968,-19.5 1020,-19.5 1020,-0.5 968,-0.5"/>
<text text-anchor="middle" x="994" y="-7.5" font-family="Helvetica,sans-Serif" font-size="10.00">memory</text>
</g>
<!-- Node3&#45;&gt;Node5 -->
<g id="edge4" class="edge"><title>Node3&#45;&gt;Node5</title>
<path fill="none" stroke="midnightblue" d="M330.578,-57.0092C333.763,-56.6491 336.919,-56.3095 340,-56 574.906,-32.3967 858.541,-17.4981 957.691,-12.6953"/>
<polygon fill="midnightblue" stroke="midnightblue" points="957.962,-16.1864 967.783,-12.2106 957.626,-9.19444 957.962,-16.1864"/>
</g>
<!-- Node6 -->
<g id="node6" class="node"><title>Node6</title>
<polygon fill="none" stroke="#bfbfbf" points="728.5,-0.5 728.5,-19.5 777.5,-19.5 777.5,-0.5 728.5,-0.5"/>
<text text-anchor="middle" x="753" y="-7.5" font-family="Helvetica,sans-Serif" font-size="10.00">cassert</text>
</g>
<!-- Node3&#45;&gt;Node6 -->
<g id="edge5" class="edge"><title>Node3&#45;&gt;Node6</title>
<path fill="none" stroke="midnightblue" d="M330.595,-57.1577C333.775,-56.7592 336.926,-56.3708 340,-56 479.966,-39.1145 646.969,-21.7799 718.122,-14.5261"/>
<polygon fill="midnightblue" stroke="midnightblue" points="718.711,-17.9843 728.305,-13.4901 718.002,-11.0202 718.711,-17.9843"/>
</g>
<!-- Node7 -->
<g id="node7" class="node"><title>Node7</title>
<polygon fill="none" stroke="#bfbfbf" points="249,-0.5 249,-19.5 295,-19.5 295,-0.5 249,-0.5"/>
<text text-anchor="middle" x="272" y="-7.5" font-family="Helvetica,sans-Serif" font-size="10.00">cstring</text>
</g>
<!-- Node3&#45;&gt;Node7 -->
<g id="edge6" class="edge"><title>Node3&#45;&gt;Node7</title>
<path fill="none" stroke="midnightblue" d="M272,-56.083C272,-49.0059 272,-38.8611 272,-29.9865"/>
<polygon fill="midnightblue" stroke="midnightblue" points="275.5,-29.751 272,-19.7511 268.5,-29.7511 275.5,-29.751"/>
</g>
<!-- Node8 -->
<g id="node8" class="node"><title>Node8</title>
<polygon fill="none" stroke="#bfbfbf" points="313,-0.5 313,-19.5 369,-19.5 369,-0.5 313,-0.5"/>
<text text-anchor="middle" x="341" y="-7.5" font-family="Helvetica,sans-Serif" font-size="10.00">algorithm</text>
</g>
<!-- Node3&#45;&gt;Node8 -->
<g id="edge7" class="edge"><title>Node3&#45;&gt;Node8</title>
<path fill="none" stroke="midnightblue" d="M283.086,-56.324C293.486,-48.1849 309.261,-35.8395 321.722,-26.0874"/>
<polygon fill="midnightblue" stroke="midnightblue" points="323.994,-28.7533 329.712,-19.8339 319.68,-23.2407 323.994,-28.7533"/>
</g>
<!-- Node9&#45;&gt;Node3 -->
<g id="edge9" class="edge"><title>Node9&#45;&gt;Node3</title>
<path fill="none" stroke="midnightblue" d="M271.165,-112.083C271.296,-105.006 271.484,-94.8611 271.648,-85.9865"/>
<polygon fill="midnightblue" stroke="midnightblue" points="275.152,-85.8142 271.838,-75.7511 268.153,-85.6845 275.152,-85.8142"/>
</g>
<!-- Node10 -->
<g id="node10" class="node"><title>Node10</title>
<g id="a_node10"><a xlink:href="../../dc/dca/Lifetime_8h.html" target="_top" xlink:title="Framework/Lifetime.h">
<polygon fill="none" stroke="black" points="349.5,-56.5 349.5,-75.5 460.5,-75.5 460.5,-56.5 349.5,-56.5"/>
<text text-anchor="middle" x="405" y="-63.5" font-family="Helvetica,sans-Serif" font-size="10.00">Framework/Lifetime.h</text>
</a>
</g>
</g>
<!-- Node9&#45;&gt;Node10 -->
<g id="edge10" class="edge"><title>Node9&#45;&gt;Node10</title>
<path fill="none" stroke="midnightblue" d="M292.233,-112.444C314.384,-103.517 349.319,-89.4387 374.436,-79.3168"/>
<polygon fill="midnightblue" stroke="midnightblue" points="375.9,-82.5006 383.867,-75.5164 373.283,-76.0079 375.9,-82.5006"/>
</g>
<!-- Node11&#45;&gt;Node3 -->
<g id="edge12" class="edge"><title>Node11&#45;&gt;Node3</title>
<path fill="none" stroke="midnightblue" d="M226.839,-168.359C215.91,-155.685 198.989,-131.453 209,-112 216.077,-98.2475 229.521,-87.7663 242.178,-80.3942"/>
<polygon fill="midnightblue" stroke="midnightblue" points="243.999,-83.3888 251.153,-75.5733 240.687,-77.2221 243.999,-83.3888"/>
</g>
<!-- Node11&#45;&gt;Node12 -->
<g id="edge13" class="edge"><title>Node11&#45;&gt;Node12</title>
<path fill="none" stroke="midnightblue" d="M296.266,-170.841C357.184,-164.109 453.384,-151.836 545.667,-131.762"/>
<polygon fill="midnightblue" stroke="midnightblue" points="546.439,-135.176 555.448,-129.602 544.929,-128.341 546.439,-135.176"/>
</g>
<!-- Node13&#45;&gt;Node12 -->
<g id="edge19" class="edge"><title>Node13&#45;&gt;Node12</title>
<path fill="none" stroke="midnightblue" d="M443.036,-168.444C470.867,-158.932 515.814,-143.57 545.633,-133.379"/>
<polygon fill="midnightblue" stroke="midnightblue" points="546.788,-136.683 555.118,-130.137 544.524,-130.059 546.788,-136.683"/>
</g>
<!-- Node14 -->
<g id="node14" class="node"><title>Node14</title>
<g id="a_node14"><a xlink:href="../../db/d2d/OutputSpec_8h.html" target="_top" xlink:title="Framework/OutputSpec.h">
<polygon fill="none" stroke="black" points="342,-112.5 342,-131.5 470,-131.5 470,-112.5 342,-112.5"/>
<text text-anchor="middle" x="406" y="-119.5" font-family="Helvetica,sans-Serif" font-size="10.00">Framework/OutputSpec.h</text>
</a>
</g>
</g>
<!-- Node13&#45;&gt;Node14 -->
<g id="edge15" class="edge"><title>Node13&#45;&gt;Node14</title>
<path fill="none" stroke="midnightblue" d="M416.018,-168.083C414.428,-160.927 412.141,-150.635 410.154,-141.691"/>
<polygon fill="midnightblue" stroke="midnightblue" points="413.531,-140.754 407.945,-131.751 406.697,-142.272 413.531,-140.754"/>
</g>
<!-- Node15 -->
<g id="node15" class="node"><title>Node15</title>
<polygon fill="none" stroke="#bfbfbf" points="488.5,-112.5 488.5,-131.5 537.5,-131.5 537.5,-112.5 488.5,-112.5"/>
<text text-anchor="middle" x="513" y="-119.5" font-family="Helvetica,sans-Serif" font-size="10.00">cstddef</text>
</g>
<!-- Node13&#45;&gt;Node15 -->
<g id="edge18" class="edge"><title>Node13&#45;&gt;Node15</title>
<path fill="none" stroke="midnightblue" d="M433.263,-168.324C448.221,-159.822 471.255,-146.729 488.727,-136.797"/>
<polygon fill="midnightblue" stroke="midnightblue" points="490.81,-139.639 497.774,-131.655 487.351,-133.553 490.81,-139.639"/>
</g>
<!-- Node14&#45;&gt;Node3 -->
<g id="edge16" class="edge"><title>Node14&#45;&gt;Node3</title>
<path fill="none" stroke="midnightblue" d="M384.767,-112.444C362.616,-103.517 327.681,-89.4387 302.564,-79.3168"/>
<polygon fill="midnightblue" stroke="midnightblue" points="303.717,-76.0079 293.133,-75.5164 301.1,-82.5006 303.717,-76.0079"/>
</g>
<!-- Node14&#45;&gt;Node10 -->
<g id="edge17" class="edge"><title>Node14&#45;&gt;Node10</title>
<path fill="none" stroke="midnightblue" d="M405.835,-112.083C405.704,-105.006 405.516,-94.8611 405.352,-85.9865"/>
<polygon fill="midnightblue" stroke="midnightblue" points="408.847,-85.6845 405.162,-75.7511 401.848,-85.8142 408.847,-85.6845"/>
</g>
<!-- Node17&#45;&gt;Node6 -->
<g id="edge24" class="edge"><title>Node17&#45;&gt;Node6</title>
<path fill="none" stroke="midnightblue" d="M759.624,-168.075C758.522,-141.945 755.286,-65.2106 753.783,-29.577"/>
<polygon fill="midnightblue" stroke="midnightblue" points="757.28,-29.4117 753.361,-19.5681 750.286,-29.7067 757.28,-29.4117"/>
</g>
<!-- Node17&#45;&gt;Node12 -->
<g id="edge25" class="edge"><title>Node17&#45;&gt;Node12</title>
<path fill="none" stroke="midnightblue" d="M730.459,-168.436C701.382,-159.992 655.464,-146.617 606.484,-132.128"/>
<polygon fill="midnightblue" stroke="midnightblue" points="607.233,-128.7 596.651,-129.216 605.246,-135.412 607.233,-128.7"/>
</g>
<!-- Node18 -->
<g id="node18" class="node"><title>Node18</title>
<polygon fill="none" stroke="#bfbfbf" points="615,-112.5 615,-131.5 725,-131.5 725,-112.5 615,-112.5"/>
<text text-anchor="middle" x="670" y="-119.5" font-family="Helvetica,sans-Serif" font-size="10.00">fairmq/FairMQParts.h</text>
</g>
<!-- Node17&#45;&gt;Node18 -->
<g id="edge22" class="edge"><title>Node17&#45;&gt;Node18</title>
<path fill="none" stroke="midnightblue" d="M745.54,-168.324C731.5,-159.9 709.952,-146.971 693.457,-137.074"/>
<polygon fill="midnightblue" stroke="midnightblue" points="694.8,-133.798 684.424,-131.655 691.198,-139.801 694.8,-133.798"/>
</g>
<!-- Node17&#45;&gt;Node19 -->
<g id="edge23" class="edge"><title>Node17&#45;&gt;Node19</title>
<path fill="none" stroke="midnightblue" d="M773.418,-168.368C802.762,-149.492 872.883,-104.385 908.868,-81.2367"/>
<polygon fill="midnightblue" stroke="midnightblue" points="911.128,-83.9451 917.644,-75.5914 907.341,-78.058 911.128,-83.9451"/>
</g>
<!-- Node20&#45;&gt;Node6 -->
<g id="edge30" class="edge"><title>Node20&#45;&gt;Node6</title>
<path fill="none" stroke="midnightblue" d="M923.063,-168.243C912.026,-159.322 894.576,-144.992 880,-132 838.945,-95.4084 792.615,-50.2306 768.882,-26.7885"/>
<polygon fill="midnightblue" stroke="midnightblue" points="771.308,-24.2653 761.74,-19.7157 766.382,-29.2392 771.308,-24.2653"/>
</g>
<!-- Node20&#45;&gt;Node12 -->
<g id="edge31" class="edge"><title>Node20&#45;&gt;Node12</title>
<path fill="none" stroke="midnightblue" d="M862.185,-168.469C785.275,-159.112 667.192,-144.056 606.487,-131.732"/>
<polygon fill="midnightblue" stroke="midnightblue" points="607.056,-128.275 596.547,-129.622 605.602,-135.122 607.056,-128.275"/>
</g>
<!-- Node20&#45;&gt;Node19 -->
<g id="edge29" class="edge"><title>Node20&#45;&gt;Node19</title>
<path fill="none" stroke="midnightblue" d="M919.922,-168.259C908.647,-160.355 893.654,-147.584 887,-132 879.053,-113.389 895.132,-94.4981 910.036,-81.9141"/>
<polygon fill="midnightblue" stroke="midnightblue" points="912.345,-84.5507 918.036,-75.6137 908.014,-79.0515 912.345,-84.5507"/>
</g>
<!-- Node20&#45;&gt;Node21 -->
<g id="edge27" class="edge"><title>Node20&#45;&gt;Node21</title>
<path fill="none" stroke="midnightblue" d="M956.342,-168.444C979.753,-159.478 1016.74,-145.314 1043.19,-135.183"/>
<polygon fill="midnightblue" stroke="midnightblue" points="1044.68,-138.361 1052.76,-131.516 1042.17,-131.824 1044.68,-138.361"/>
</g>
<!-- Node22 -->
<g id="node22" class="node"><title>Node22</title>
<polygon fill="none" stroke="#bfbfbf" points="895.5,-112.5 895.5,-131.5 954.5,-131.5 954.5,-112.5 895.5,-112.5"/>
<text text-anchor="middle" x="925" y="-119.5" font-family="Helvetica,sans-Serif" font-size="10.00">TObject.h</text>
</g>
<!-- Node20&#45;&gt;Node22 -->
<g id="edge28" class="edge"><title>Node20&#45;&gt;Node22</title>
<path fill="none" stroke="midnightblue" d="M932.514,-168.083C931.321,-160.927 929.606,-150.635 928.115,-141.691"/>
<polygon fill="midnightblue" stroke="midnightblue" points="931.555,-141.04 926.459,-131.751 924.65,-142.19 931.555,-141.04"/>
</g>
<!-- Node23&#45;&gt;Node5 -->
<g id="edge40" class="edge"><title>Node23&#45;&gt;Node5</title>
<path fill="none" stroke="midnightblue" d="M1317.11,-168.435C1279.5,-161.425 1229.03,-149.734 1187,-132 1151.27,-116.924 1057.02,-53.9382 1014.88,-25.2931"/>
<polygon fill="midnightblue" stroke="midnightblue" points="1016.72,-22.3138 1006.49,-19.5747 1012.78,-28.0984 1016.72,-22.3138"/>
</g>
<!-- Node23&#45;&gt;Node21 -->
<g id="edge33" class="edge"><title>Node23&#45;&gt;Node21</title>
<path fill="none" stroke="midnightblue" d="M1324.94,-168.444C1272.59,-158.925 1188.01,-143.547 1131.96,-133.356"/>
<polygon fill="midnightblue" stroke="midnightblue" points="1132.31,-129.862 1121.84,-131.516 1131.05,-136.749 1132.31,-129.862"/>
</g>
<!-- Node24 -->
<g id="node24" class="node"><title>Node24</title>
<polygon fill="none" stroke="#bfbfbf" points="1531.5,-112.5 1531.5,-131.5 1578.5,-131.5 1578.5,-112.5 1531.5,-112.5"/>
<text text-anchor="middle" x="1555" y="-119.5" font-family="Helvetica,sans-Serif" font-size="10.00">TList.h</text>
</g>
<!-- Node23&#45;&gt;Node24 -->
<g id="edge34" class="edge"><title>Node23&#45;&gt;Node24</title>
<path fill="none" stroke="midnightblue" d="M1401,-168.444C1433.84,-158.753 1487.25,-142.992 1521.75,-132.811"/>
<polygon fill="midnightblue" stroke="midnightblue" points="1522.78,-136.158 1531.38,-129.971 1520.79,-129.444 1522.78,-136.158"/>
</g>
<!-- Node25 -->
<g id="node25" class="node"><title>Node25</title>
<polygon fill="none" stroke="#bfbfbf" points="1596.5,-112.5 1596.5,-131.5 1667.5,-131.5 1667.5,-112.5 1596.5,-112.5"/>
<text text-anchor="middle" x="1632" y="-119.5" font-family="Helvetica,sans-Serif" font-size="10.00">TMessage.h</text>
</g>
<!-- Node23&#45;&gt;Node25 -->
<g id="edge35" class="edge"><title>Node23&#45;&gt;Node25</title>
<path fill="none" stroke="midnightblue" d="M1413.2,-168.444C1460.39,-158.643 1537.48,-142.631 1586.43,-132.465"/>
<polygon fill="midnightblue" stroke="midnightblue" points="1587.35,-135.849 1596.43,-130.388 1585.92,-128.995 1587.35,-135.849"/>
</g>
<!-- Node26 -->
<g id="node26" class="node"><title>Node26</title>
<polygon fill="none" stroke="#bfbfbf" points="1195.5,-112.5 1195.5,-131.5 1264.5,-131.5 1264.5,-112.5 1195.5,-112.5"/>
<text text-anchor="middle" x="1230" y="-119.5" font-family="Helvetica,sans-Serif" font-size="10.00">TObjArray.h</text>
</g>
<!-- Node23&#45;&gt;Node26 -->
<g id="edge36" class="edge"><title>Node23&#45;&gt;Node26</title>
<path fill="none" stroke="midnightblue" d="M1349.5,-168.444C1325.92,-159.478 1288.68,-145.314 1262.04,-135.183"/>
<polygon fill="midnightblue" stroke="midnightblue" points="1262.99,-131.8 1252.4,-131.516 1260.5,-138.342 1262.99,-131.8"/>
</g>
<!-- Node27 -->
<g id="node27" class="node"><title>Node27</title>
<polygon fill="none" stroke="#bfbfbf" points="1282.5,-112.5 1282.5,-131.5 1369.5,-131.5 1369.5,-112.5 1282.5,-112.5"/>
<text text-anchor="middle" x="1326" y="-119.5" font-family="Helvetica,sans-Serif" font-size="10.00">TStreamerInfo.h</text>
</g>
<!-- Node23&#45;&gt;Node27 -->
<g id="edge37" class="edge"><title>Node23&#45;&gt;Node27</title>
<path fill="none" stroke="midnightblue" d="M1364.4,-168.083C1357.77,-160.298 1347.98,-148.801 1339.94,-139.367"/>
<polygon fill="midnightblue" stroke="midnightblue" points="1342.6,-137.094 1333.45,-131.751 1337.27,-141.633 1342.6,-137.094"/>
</g>
<!-- Node28 -->
<g id="node28" class="node"><title>Node28</title>
<polygon fill="none" stroke="#bfbfbf" points="1387.5,-112.5 1387.5,-131.5 1450.5,-131.5 1450.5,-112.5 1387.5,-112.5"/>
<text text-anchor="middle" x="1419" y="-119.5" font-family="Helvetica,sans-Serif" font-size="10.00">gsl/gsl_util</text>
</g>
<!-- Node23&#45;&gt;Node28 -->
<g id="edge38" class="edge"><title>Node23&#45;&gt;Node28</title>
<path fill="none" stroke="midnightblue" d="M1379.76,-168.083C1386.54,-160.298 1396.54,-148.801 1404.76,-139.367"/>
<polygon fill="midnightblue" stroke="midnightblue" points="1407.46,-141.592 1411.38,-131.751 1402.18,-136.996 1407.46,-141.592"/>
</g>
<!-- Node23&#45;&gt;Node29 -->
<g id="edge39" class="edge"><title>Node23&#45;&gt;Node29</title>
<path fill="none" stroke="midnightblue" d="M1442.98,-168.494C1502.51,-160.902 1589.94,-148.687 1675.45,-131.934"/>
<polygon fill="midnightblue" stroke="midnightblue" points="1676.2,-135.354 1685.33,-129.977 1674.84,-128.488 1676.2,-135.354"/>
</g>
<!-- Node30 -->
<g id="node30" class="node"><title>Node30</title>
<polygon fill="none" stroke="#bfbfbf" points="1469,-112.5 1469,-131.5 1513,-131.5 1513,-112.5 1469,-112.5"/>
<text text-anchor="middle" x="1491" y="-119.5" font-family="Helvetica,sans-Serif" font-size="10.00">mutex</text>
</g>
<!-- Node23&#45;&gt;Node30 -->
<g id="edge41" class="edge"><title>Node23&#45;&gt;Node30</title>
<path fill="none" stroke="midnightblue" d="M1390.86,-168.444C1410.27,-159.636 1440.73,-145.812 1462.96,-135.722"/>
<polygon fill="midnightblue" stroke="midnightblue" points="1464.57,-138.836 1472.23,-131.516 1461.68,-132.462 1464.57,-138.836"/>
</g>
<!-- Node31&#45;&gt;Node19 -->
<g id="edge44" class="edge"><title>Node31&#45;&gt;Node19</title>
<path fill="none" stroke="midnightblue" d="M1756.46,-112.927C1753.26,-112.593 1750.09,-112.281 1747,-112 1442.74,-84.3614 1073,-71.3806 963.204,-67.9537"/>
<polygon fill="midnightblue" stroke="midnightblue" points="963.215,-64.4525 953.112,-67.6429 962.999,-71.4492 963.215,-64.4525"/>
</g>
<!-- Node31&#45;&gt;Node32 -->
<g id="edge43" class="edge"><title>Node31&#45;&gt;Node32</title>
<path fill="none" stroke="midnightblue" d="M1825.43,-112.083C1831.85,-104.377 1841.31,-93.0333 1849.12,-83.6531"/>
<polygon fill="midnightblue" stroke="midnightblue" points="1851.99,-85.674 1855.71,-75.7511 1846.62,-81.1927 1851.99,-85.674"/>
</g>
<!-- Node33&#45;&gt;Node31 -->
<g id="edge46" class="edge"><title>Node33&#45;&gt;Node31</title>
<path fill="none" stroke="midnightblue" d="M1782.94,-168.083C1788.93,-160.377 1797.75,-149.033 1805.05,-139.653"/>
<polygon fill="midnightblue" stroke="midnightblue" points="1807.82,-141.793 1811.19,-131.751 1802.29,-137.496 1807.82,-141.793"/>
</g>
</g>
</svg>
        <g id="navigator" transform="translate(0 0)" fill="#404254">
                <rect fill="#f2f5e9" fill-opacity="0.5" stroke="#606060" stroke-width=".5" x="0" y="0" width="60" height="60"/>
                <use id="zoomplus" xlink:href="#zoomPlus" x="17" y="9" onmousedown="handleZoom(evt,'in')"/>
                <use id="zoomminus" xlink:href="#zoomMin" x="42" y="9" onmousedown="handleZoom(evt,'out')"/>
                <use id="reset" xlink:href="#resetDef" x="30" y="36" onmousedown="handleReset()"/>
                <g id="arrowUp" xlink:href="#dirArrow" transform="translate(30 24)" onmousedown="handlePan(0,-1)">
                  <use xlink:href="#rim" fill="#404040">
                        <set attributeName="fill" to="#808080" begin="arrowUp.mouseover" end="arrowUp.mouseout"/>
                  </use>
                  <path fill="none" stroke="white" stroke-width="1.5" d="M0,-3.0v7 M-2.5,-0.5L0,-3.0L2.5,-0.5"/>
                </g>
                <g id="arrowRight" xlink:href="#dirArrow" transform="rotate(90) translate(36 -43)" onmousedown="handlePan(1,0)">
                  <use xlink:href="#rim" fill="#404040">
                        <set attributeName="fill" to="#808080" begin="arrowRight.mouseover" end="arrowRight.mouseout"/>
                  </use>
                  <path fill="none" stroke="white" stroke-width="1.5" d="M0,-3.0v7 M-2.5,-0.5L0,-3.0L2.5,-0.5"/>
                </g>
                <g id="arrowDown" xlink:href="#dirArrow" transform="rotate(180) translate(-30 -48)" onmousedown="handlePan(0,1)">
                  <use xlink:href="#rim" fill="#404040">
                        <set attributeName="fill" to="#808080" begin="arrowDown.mouseover" end="arrowDown.mouseout"/>
                  </use>
                  <path fill="none" stroke="white" stroke-width="1.5" d="M0,-3.0v7 M-2.5,-0.5L0,-3.0L2.5,-0.5"/>
                </g>
                <g id="arrowLeft" xlink:href="#dirArrow" transform="rotate(270) translate(-36 17)" onmousedown="handlePan(-1,0)">
                  <use xlink:href="#rim" fill="#404040">
                        <set attributeName="fill" to="#808080" begin="arrowLeft.mouseover" end="arrowLeft.mouseout"/>
                  </use>
                  <path fill="none" stroke="white" stroke-width="1.5" d="M0,-3.0v7 M-2.5,-0.5L0,-3.0L2.5,-0.5"/>
                </g>
        </g>
        <svg viewBox="0 0 15 15" width="100%" height="30px" preserveAspectRatio="xMaxYMin meet">
         <g id="arrow_out" transform="scale(0.3 0.3)">
          <a xlink:href="DataAllocator_8h__incl_org.svg" target="_base">
           <rect id="button" ry="5" rx="5" y="6" x="6" height="38" width="38"
                fill="#f2f5e9" fill-opacity="0.5" stroke="#606060" stroke-width="1.0"/>
           <path id="arrow"
             d="M 11.500037,31.436501 C 11.940474,20.09759 22.043105,11.32322 32.158766,21.979434 L 37.068811,17.246167 C 37.068811,17.246167 37.088388,32 37.088388,32 L 22.160133,31.978069 C 22.160133,31.978069 26.997745,27.140456 26.997745,27.140456 C 18.528582,18.264221 13.291696,25.230495 11.500037,31.436501 z"
             style="fill:#404040;"/>
          </a>
         </g>
        </svg>
</svg>
