<?xml version="1.0" encoding="UTF-8" standalone="no"?>
<!DOCTYPE svg PUBLIC "-//W3C//DTD SVG 1.1//EN"
 "http://www.w3.org/Graphics/SVG/1.1/DTD/svg11.dtd">
<!-- Generated by graphviz version 2.36.0 (20140111.2315)
 -->
<!-- Title: /home/travis/build/AliceO2Group/AliceO2/Steer/src/InteractionSampler.cxx Pages: 1 -->
<svg width="423pt" height="230pt"
 viewBox="0.00 0.00 423.31 230.00" xmlns="http://www.w3.org/2000/svg" xmlns:xlink="http://www.w3.org/1999/xlink">
<g id="graph0" class="graph" transform="scale(1 1) rotate(0) translate(4 226)">
<title>/home/travis/build/AliceO2Group/AliceO2/Steer/src/InteractionSampler.cxx</title>
<!-- Node1 -->
<g id="node1" class="node"><title>Node1</title>
<polygon fill="#bfbfbf" stroke="black" points="135.812,-180.5 135.812,-221.5 298.812,-221.5 298.812,-180.5 135.812,-180.5"/>
<text text-anchor="start" x="143.812" y="-209.5" font-family="Helvetica,sans-Serif" font-size="10.00">/home/travis/build</text>
<text text-anchor="start" x="143.812" y="-198.5" font-family="Helvetica,sans-Serif" font-size="10.00">/AliceO2Group/AliceO2</text>
<text text-anchor="middle" x="217.312" y="-187.5" font-family="Helvetica,sans-Serif" font-size="10.00">/Steer/src/InteractionSampler.cxx</text>
</g>
<!-- Node2 -->
<g id="node2" class="node"><title>Node2</title>
<g id="a_node2"><a xlink:href="../../df/dff/InteractionSampler_8h.html" target="_top" xlink:title="Steer/InteractionSampler.h">
<polygon fill="none" stroke="black" points="90.8124,-124.5 90.8124,-143.5 223.812,-143.5 223.812,-124.5 90.8124,-124.5"/>
<text text-anchor="middle" x="157.312" y="-131.5" font-family="Helvetica,sans-Serif" font-size="10.00">Steer/InteractionSampler.h</text>
</a>
</g>
</g>
<!-- Node1&#45;&gt;Node2 -->
<g id="edge1" class="edge"><title>Node1&#45;&gt;Node2</title>
<path fill="none" stroke="midnightblue" d="M199.31,-180.498C190.642,-171.107 180.374,-159.983 172.16,-151.085"/>
<polygon fill="midnightblue" stroke="midnightblue" points="174.654,-148.627 165.299,-143.652 169.51,-153.375 174.654,-148.627"/>
</g>
<!-- Node10 -->
<g id="node10" class="node"><title>Node10</title>
<polygon fill="none" stroke="#bfbfbf" points="241.812,-124.5 241.812,-143.5 312.812,-143.5 312.812,-124.5 241.812,-124.5"/>
<text text-anchor="middle" x="277.312" y="-131.5" font-family="Helvetica,sans-Serif" font-size="10.00">FairLogger.h</text>
</g>
<!-- Node1&#45;&gt;Node10 -->
<g id="edge10" class="edge"><title>Node1&#45;&gt;Node10</title>
<path fill="none" stroke="midnightblue" d="M235.314,-180.498C243.983,-171.107 254.251,-159.983 262.465,-151.085"/>
<polygon fill="midnightblue" stroke="midnightblue" points="265.114,-153.375 269.325,-143.652 259.971,-148.627 265.114,-153.375"/>
</g>
<!-- Node3 -->
<g id="node3" class="node"><title>Node3</title>
<polygon fill="none" stroke="#bfbfbf" points="108.312,-0.5 108.312,-19.5 164.312,-19.5 164.312,-0.5 108.312,-0.5"/>
<text text-anchor="middle" x="136.312" y="-7.5" font-family="Helvetica,sans-Serif" font-size="10.00">Rtypes.h</text>
</g>
<!-- Node2&#45;&gt;Node3 -->
<g id="edge2" class="edge"><title>Node2&#45;&gt;Node3</title>
<path fill="none" stroke="midnightblue" d="M90.578,-130.554C59.7635,-125.657 25.7675,-114.099 6.3124,-88 -2.18768,-76.5974 -1.93704,-67.5853 6.3124,-56 26.9454,-27.0236 67.5731,-16.532 97.9459,-12.8246"/>
<polygon fill="midnightblue" stroke="midnightblue" points="98.6189,-16.2742 108.212,-11.777 97.9082,-9.31035 98.6189,-16.2742"/>
</g>
<!-- Node4 -->
<g id="node4" class="node"><title>Node4</title>
<polygon fill="none" stroke="#bfbfbf" points="15.8124,-62.5 15.8124,-81.5 68.8124,-81.5 68.8124,-62.5 15.8124,-62.5"/>
<text text-anchor="middle" x="42.3124" y="-69.5" font-family="Helvetica,sans-Serif" font-size="10.00">TMath.h</text>
</g>
<!-- Node2&#45;&gt;Node4 -->
<g id="edge3" class="edge"><title>Node2&#45;&gt;Node4</title>
<path fill="none" stroke="midnightblue" d="M140.836,-124.403C121.707,-114.423 89.9391,-97.8487 67.6608,-86.2253"/>
<polygon fill="midnightblue" stroke="midnightblue" points="69.2434,-83.1033 58.7585,-81.5806 66.0054,-89.3094 69.2434,-83.1033"/>
</g>
<!-- Node5 -->
<g id="node5" class="node"><title>Node5</title>
<polygon fill="none" stroke="#bfbfbf" points="87.3124,-62.5 87.3124,-81.5 155.312,-81.5 155.312,-62.5 87.3124,-62.5"/>
<text text-anchor="middle" x="121.312" y="-69.5" font-family="Helvetica,sans-Serif" font-size="10.00">TRandom.h</text>
</g>
<!-- Node2&#45;&gt;Node5 -->
<g id="edge4" class="edge"><title>Node2&#45;&gt;Node5</title>
<path fill="none" stroke="midnightblue" d="M152.154,-124.403C146.861,-115.582 138.477,-101.608 131.785,-90.4548"/>
<polygon fill="midnightblue" stroke="midnightblue" points="134.607,-88.3548 126.461,-81.5806 128.605,-91.9563 134.607,-88.3548"/>
</g>
<!-- Node6 -->
<g id="node6" class="node"><title>Node6</title>
<polygon fill="none" stroke="#bfbfbf" points="173.812,-62.5 173.812,-81.5 214.812,-81.5 214.812,-62.5 173.812,-62.5"/>
<text text-anchor="middle" x="194.312" y="-69.5" font-family="Helvetica,sans-Serif" font-size="10.00">bitset</text>
</g>
<!-- Node2&#45;&gt;Node6 -->
<g id="edge5" class="edge"><title>Node2&#45;&gt;Node6</title>
<path fill="none" stroke="midnightblue" d="M162.614,-124.403C168.109,-115.493 176.846,-101.325 183.756,-90.1177"/>
<polygon fill="midnightblue" stroke="midnightblue" points="186.751,-91.9294 189.021,-81.5806 180.793,-88.2552 186.751,-91.9294"/>
</g>
<!-- Node7 -->
<g id="node7" class="node"><title>Node7</title>
<polygon fill="none" stroke="#bfbfbf" points="233.312,-62.5 233.312,-81.5 277.312,-81.5 277.312,-62.5 233.312,-62.5"/>
<text text-anchor="middle" x="255.312" y="-69.5" font-family="Helvetica,sans-Serif" font-size="10.00">vector</text>
</g>
<!-- Node2&#45;&gt;Node7 -->
<g id="edge6" class="edge"><title>Node2&#45;&gt;Node7</title>
<path fill="none" stroke="midnightblue" d="M171.353,-124.403C187.363,-114.601 213.763,-98.4385 232.686,-86.8526"/>
<polygon fill="midnightblue" stroke="midnightblue" points="234.596,-89.7872 241.297,-81.5806 230.941,-83.8172 234.596,-89.7872"/>
</g>
<!-- Node8 -->
<g id="node8" class="node"><title>Node8</title>
<g id="a_node8"><a xlink:href="../../d1/dbe/MCInteractionRecord_8h.html" target="_top" xlink:title="SimulationDataFormat\l/MCInteractionRecord.h">
<polygon fill="none" stroke="black" points="294.812,-57 294.812,-87 415.812,-87 415.812,-57 294.812,-57"/>
<text text-anchor="start" x="302.812" y="-75" font-family="Helvetica,sans-Serif" font-size="10.00">SimulationDataFormat</text>
<text text-anchor="middle" x="355.312" y="-64" font-family="Helvetica,sans-Serif" font-size="10.00">/MCInteractionRecord.h</text>
</a>
</g>
</g>
<!-- Node2&#45;&gt;Node8 -->
<g id="edge7" class="edge"><title>Node2&#45;&gt;Node8</title>
<path fill="none" stroke="midnightblue" d="M185.681,-124.403C215.227,-115.45 262.286,-101.19 299.351,-89.9579"/>
<polygon fill="midnightblue" stroke="midnightblue" points="300.474,-93.275 309.029,-87.0253 298.444,-86.5759 300.474,-93.275"/>
</g>
<!-- Node8&#45;&gt;Node3 -->
<g id="edge8" class="edge"><title>Node8&#45;&gt;Node3</title>
<path fill="none" stroke="midnightblue" d="M303.967,-56.9327C264.384,-46.088 210.518,-31.3303 174.639,-21.5006"/>
<polygon fill="midnightblue" stroke="midnightblue" points="175.141,-18.009 164.571,-18.7422 173.291,-24.7602 175.141,-18.009"/>
</g>
<!-- Node9 -->
<g id="node9" class="node"><title>Node9</title>
<polygon fill="none" stroke="#bfbfbf" points="332.812,-0.5 332.812,-19.5 377.812,-19.5 377.812,-0.5 332.812,-0.5"/>
<text text-anchor="middle" x="355.312" y="-7.5" font-family="Helvetica,sans-Serif" font-size="10.00">iosfwd</text>
</g>
<!-- Node8&#45;&gt;Node9 -->
<g id="edge9" class="edge"><title>Node8&#45;&gt;Node9</title>
<path fill="none" stroke="midnightblue" d="M355.312,-56.7808C355.312,-48.7812 355.312,-38.6887 355.312,-30.0168"/>
<polygon fill="midnightblue" stroke="midnightblue" points="358.812,-29.7305 355.312,-19.7305 351.812,-29.7306 358.812,-29.7305"/>
</g>
</g>
</svg>
