<?xml version="1.0" encoding="UTF-8" standalone="no"?>
<!DOCTYPE svg PUBLIC "-//W3C//DTD SVG 1.1//EN"
 "http://www.w3.org/Graphics/SVG/1.1/DTD/svg11.dtd">
<!-- Generated by graphviz version 2.36.0 (20140111.2315)
 -->
<!-- Title: o2::DataFlow::TimeframeWriterDevice Pages: 1 -->
<svg width="610pt" height="444pt"
 viewBox="0.00 0.00 610.00 444.00" xmlns="http://www.w3.org/2000/svg" xmlns:xlink="http://www.w3.org/1999/xlink">
<g id="graph0" class="graph" transform="scale(1 1) rotate(0) translate(4 440)">
<title>o2::DataFlow::TimeframeWriterDevice</title>
<!-- Node1 -->
<g id="node1" class="node"><title>Node1</title>
<polygon fill="#bfbfbf" stroke="black" points="274,-1 274,-113 428,-113 428,-1 274,-1"/>
<text text-anchor="start" x="282" y="-101" font-family="Helvetica,sans-Serif" font-size="10.00">o2::DataFlow::TimeframeWriter</text>
<text text-anchor="middle" x="351" y="-90" font-family="Helvetica,sans-Serif" font-size="10.00">Device</text>
<polyline fill="none" stroke="black" points="274,-83 428,-83 "/>
<text text-anchor="middle" x="351" y="-71" font-family="Helvetica,sans-Serif" font-size="10.00"> </text>
<polyline fill="none" stroke="black" points="274,-64 428,-64 "/>
<text text-anchor="start" x="282" y="-52" font-family="Helvetica,sans-Serif" font-size="10.00">+ TimeframeWriterDevice()</text>
<text text-anchor="start" x="282" y="-41" font-family="Helvetica,sans-Serif" font-size="10.00">+ ~TimeframeWriterDevice()</text>
<text text-anchor="start" x="282" y="-30" font-family="Helvetica,sans-Serif" font-size="10.00">+ InitTask()</text>
<text text-anchor="start" x="282" y="-19" font-family="Helvetica,sans-Serif" font-size="10.00">+ PostRun()</text>
<text text-anchor="start" x="282" y="-8" font-family="Helvetica,sans-Serif" font-size="10.00"># Run()</text>
</g>
<!-- Node2 -->
<g id="node2" class="node"><title>Node2</title>
<g id="a_node2"><a xlink:href="../../da/df6/classo2_1_1Base_1_1O2Device.html" target="_top" xlink:title="{o2::Base::O2Device\n||+ ~O2Device()\l+ GetMonitoring()\l+ Init()\l+ AddMessage()\l+ ForEach()\l}">
<polygon fill="none" stroke="black" points="49.5,-216.5 49.5,-317.5 154.5,-317.5 154.5,-216.5 49.5,-216.5"/>
<text text-anchor="middle" x="102" y="-305.5" font-family="Helvetica,sans-Serif" font-size="10.00">o2::Base::O2Device</text>
<polyline fill="none" stroke="black" points="49.5,-298.5 154.5,-298.5 "/>
<text text-anchor="middle" x="102" y="-286.5" font-family="Helvetica,sans-Serif" font-size="10.00"> </text>
<polyline fill="none" stroke="black" points="49.5,-279.5 154.5,-279.5 "/>
<text text-anchor="start" x="57.5" y="-267.5" font-family="Helvetica,sans-Serif" font-size="10.00">+ ~O2Device()</text>
<text text-anchor="start" x="57.5" y="-256.5" font-family="Helvetica,sans-Serif" font-size="10.00">+ GetMonitoring()</text>
<text text-anchor="start" x="57.5" y="-245.5" font-family="Helvetica,sans-Serif" font-size="10.00">+ Init()</text>
<text text-anchor="start" x="57.5" y="-234.5" font-family="Helvetica,sans-Serif" font-size="10.00">+ AddMessage()</text>
<text text-anchor="start" x="57.5" y="-223.5" font-family="Helvetica,sans-Serif" font-size="10.00">+ ForEach()</text>
</a>
</g>
</g>
<!-- Node2&#45;&gt;Node1 -->
<g id="edge1" class="edge"><title>Node2&#45;&gt;Node1</title>
<path fill="none" stroke="midnightblue" d="M127.932,-207.3C141.628,-181.554 160.509,-152.577 184,-132 209.763,-109.433 243.51,-92.7363 273.921,-80.9735"/>
<polygon fill="none" stroke="midnightblue" points="124.787,-205.762 123.305,-216.252 131.005,-208.976 124.787,-205.762"/>
</g>
<!-- Node3 -->
<g id="node3" class="node"><title>Node3</title>
<g id="a_node3"><a xlink:href="../../db/dfe/classFairMQDevice.html" target="_top" xlink:title="{FairMQDevice\n||}">
<polygon fill="none" stroke="black" points="0,-372.5 0,-429.5 80,-429.5 80,-372.5 0,-372.5"/>
<text text-anchor="middle" x="40" y="-417.5" font-family="Helvetica,sans-Serif" font-size="10.00">FairMQDevice</text>
<polyline fill="none" stroke="black" points="0,-410.5 80,-410.5 "/>
<text text-anchor="middle" x="40" y="-398.5" font-family="Helvetica,sans-Serif" font-size="10.00"> </text>
<polyline fill="none" stroke="black" points="0,-391.5 80,-391.5 "/>
<text text-anchor="middle" x="40" y="-379.5" font-family="Helvetica,sans-Serif" font-size="10.00"> </text>
</a>
</g>
</g>
<!-- Node3&#45;&gt;Node2 -->
<g id="edge2" class="edge"><title>Node3&#45;&gt;Node2</title>
<path fill="none" stroke="midnightblue" d="M57.3962,-362.963C64.0172,-348.867 71.6709,-332.572 78.7488,-317.503"/>
<polygon fill="none" stroke="midnightblue" points="54.0807,-361.789 52.9972,-372.328 60.4166,-364.765 54.0807,-361.789"/>
</g>
<!-- Node4 -->
<g id="node4" class="node"><title>Node4</title>
<polygon fill="none" stroke="#bfbfbf" points="98,-367 98,-435 230,-435 230,-367 98,-367"/>
<text text-anchor="start" x="106" y="-423" font-family="Helvetica,sans-Serif" font-size="10.00">unique_ptr&lt; o2::monitoring</text>
<text text-anchor="middle" x="164" y="-412" font-family="Helvetica,sans-Serif" font-size="10.00">::Monitoring &gt;</text>
<polyline fill="none" stroke="#bfbfbf" points="98,-405 230,-405 "/>
<text text-anchor="middle" x="164" y="-393" font-family="Helvetica,sans-Serif" font-size="10.00"> </text>
<polyline fill="none" stroke="#bfbfbf" points="98,-386 230,-386 "/>
<text text-anchor="middle" x="164" y="-374" font-family="Helvetica,sans-Serif" font-size="10.00"> </text>
</g>
<!-- Node4&#45;&gt;Node2 -->
<g id="edge3" class="edge"><title>Node4&#45;&gt;Node2</title>
<path fill="none" stroke="#404040" d="M148.355,-366.691C142.89,-355.056 136.573,-341.607 130.395,-328.454"/>
<polygon fill="none" stroke="#404040" points="130.362,-328.383 124.19,-324.653 125.26,-317.522 131.432,-321.252 130.362,-328.383"/>
<text text-anchor="middle" x="166.5" y="-339.5" font-family="Helvetica,sans-Serif" font-size="10.00"> +monitoring</text>
</g>
<!-- Node5 -->
<g id="node5" class="node"><title>Node5</title>
<polygon fill="none" stroke="#bfbfbf" points="172.5,-238.5 172.5,-295.5 207.5,-295.5 207.5,-238.5 172.5,-238.5"/>
<text text-anchor="middle" x="190" y="-283.5" font-family="Helvetica,sans-Serif" font-size="10.00">char</text>
<polyline fill="none" stroke="#bfbfbf" points="172.5,-276.5 207.5,-276.5 "/>
<text text-anchor="middle" x="190" y="-264.5" font-family="Helvetica,sans-Serif" font-size="10.00"> </text>
<polyline fill="none" stroke="#bfbfbf" points="172.5,-257.5 207.5,-257.5 "/>
<text text-anchor="middle" x="190" y="-245.5" font-family="Helvetica,sans-Serif" font-size="10.00"> </text>
</g>
<!-- Node5&#45;&gt;Node1 -->
<g id="edge4" class="edge"><title>Node5&#45;&gt;Node1</title>
<path fill="none" stroke="#404040" d="M186.96,-238.443C185.218,-209.324 186.816,-163.364 209,-132 222.465,-112.963 242.351,-98.4566 263.005,-87.5557"/>
<polygon fill="none" stroke="#404040" points="263.095,-87.5111 266.693,-81.2616 273.845,-82.179 270.247,-88.4285 263.095,-87.5111"/>
<text text-anchor="middle" x="278" y="-190" font-family="Helvetica,sans-Serif" font-size="10.00"> +OptionKeyOutputFileName</text>
<text text-anchor="start" x="209" y="-179" font-family="Helvetica,sans-Serif" font-size="10.00">+OptionKeyMaxTimeframesPer</text>
<text text-anchor="middle" x="278" y="-168" font-family="Helvetica,sans-Serif" font-size="10.00">File</text>
<text text-anchor="middle" x="278" y="-157" font-family="Helvetica,sans-Serif" font-size="10.00">+OptionKeyMaxFileSize</text>
<text text-anchor="middle" x="278" y="-146" font-family="Helvetica,sans-Serif" font-size="10.00">+OptionKeyMaxFiles</text>
<text text-anchor="middle" x="278" y="-135" font-family="Helvetica,sans-Serif" font-size="10.00">+OptionKeyInputChannelName</text>
</g>
<!-- Node6 -->
<g id="node6" class="node"><title>Node6</title>
<polygon fill="none" stroke="#bfbfbf" points="329.5,-238.5 329.5,-295.5 372.5,-295.5 372.5,-238.5 329.5,-238.5"/>
<text text-anchor="middle" x="351" y="-283.5" font-family="Helvetica,sans-Serif" font-size="10.00">size_t</text>
<polyline fill="none" stroke="#bfbfbf" points="329.5,-276.5 372.5,-276.5 "/>
<text text-anchor="middle" x="351" y="-264.5" font-family="Helvetica,sans-Serif" font-size="10.00"> </text>
<polyline fill="none" stroke="#bfbfbf" points="329.5,-257.5 372.5,-257.5 "/>
<text text-anchor="middle" x="351" y="-245.5" font-family="Helvetica,sans-Serif" font-size="10.00"> </text>
</g>
<!-- Node6&#45;&gt;Node1 -->
<g id="edge5" class="edge"><title>Node6&#45;&gt;Node1</title>
<path fill="none" stroke="#404040" d="M351,-238.379C351,-209.661 351,-163.625 351,-125.25"/>
<polygon fill="none" stroke="#404040" points="351,-125.092 347,-119.092 351,-113.092 355,-119.092 351,-125.092"/>
<text text-anchor="middle" x="393.5" y="-179" font-family="Helvetica,sans-Serif" font-size="10.00"> #mMaxFileSize</text>
<text text-anchor="middle" x="393.5" y="-168" font-family="Helvetica,sans-Serif" font-size="10.00">#mMaxTimeframes</text>
<text text-anchor="middle" x="393.5" y="-157" font-family="Helvetica,sans-Serif" font-size="10.00">#mMaxFiles</text>
<text text-anchor="middle" x="393.5" y="-146" font-family="Helvetica,sans-Serif" font-size="10.00">#mFileCount</text>
</g>
<!-- Node7 -->
<g id="node7" class="node"><title>Node7</title>
<polygon fill="none" stroke="#bfbfbf" points="434,-238.5 434,-295.5 484,-295.5 484,-238.5 434,-238.5"/>
<text text-anchor="middle" x="459" y="-283.5" font-family="Helvetica,sans-Serif" font-size="10.00">fstream</text>
<polyline fill="none" stroke="#bfbfbf" points="434,-276.5 484,-276.5 "/>
<text text-anchor="middle" x="459" y="-264.5" font-family="Helvetica,sans-Serif" font-size="10.00"> </text>
<polyline fill="none" stroke="#bfbfbf" points="434,-257.5 484,-257.5 "/>
<text text-anchor="middle" x="459" y="-245.5" font-family="Helvetica,sans-Serif" font-size="10.00"> </text>
</g>
<!-- Node7&#45;&gt;Node1 -->
<g id="edge6" class="edge"><title>Node7&#45;&gt;Node1</title>
<path fill="none" stroke="#404040" d="M459.838,-238.275C459.515,-209.842 455.637,-165.201 437,-132 435.283,-128.941 433.388,-125.949 431.349,-123.029"/>
<polygon fill="none" stroke="#404040" points="431.242,-122.891 424.409,-120.587 423.908,-113.393 430.741,-115.697 431.242,-122.891"/>
<text text-anchor="middle" x="473.5" y="-162.5" font-family="Helvetica,sans-Serif" font-size="10.00"> #mFile</text>
</g>
<!-- Node8 -->
<g id="node8" class="node"><title>Node8</title>
<polygon fill="none" stroke="#bfbfbf" points="502.5,-238.5 502.5,-295.5 531.5,-295.5 531.5,-238.5 502.5,-238.5"/>
<text text-anchor="middle" x="517" y="-283.5" font-family="Helvetica,sans-Serif" font-size="10.00">int</text>
<polyline fill="none" stroke="#bfbfbf" points="502.5,-276.5 531.5,-276.5 "/>
<text text-anchor="middle" x="517" y="-264.5" font-family="Helvetica,sans-Serif" font-size="10.00"> </text>
<polyline fill="none" stroke="#bfbfbf" points="502.5,-257.5 531.5,-257.5 "/>
<text text-anchor="middle" x="517" y="-245.5" font-family="Helvetica,sans-Serif" font-size="10.00"> </text>
</g>
<!-- Node8&#45;&gt;Node1 -->
<g id="edge7" class="edge"><title>Node8&#45;&gt;Node1</title>
<path fill="none" stroke="#404040" d="M519.087,-238.358C519.849,-209.167 516.787,-163.147 494,-132 480.156,-113.077 460.031,-98.6093 439.229,-87.7098"/>
<polygon fill="none" stroke="#404040" points="439.082,-87.6371 431.931,-88.5715 428.319,-82.3305 435.469,-81.3962 439.082,-87.6371"/>
<text text-anchor="middle" x="559.5" y="-168" font-family="Helvetica,sans-Serif" font-size="10.00"> #mOutFileName</text>
<text text-anchor="middle" x="559.5" y="-157" font-family="Helvetica,sans-Serif" font-size="10.00">#mInChannelName</text>
</g>
</g>
</svg>
