<?xml version="1.0" encoding="UTF-8" standalone="no"?>
<!DOCTYPE svg PUBLIC "-//W3C//DTD SVG 1.1//EN"
 "http://www.w3.org/Graphics/SVG/1.1/DTD/svg11.dtd">
<!-- Generated by graphviz version 2.36.0 (20140111.2315)
 -->
<!-- Title: /home/travis/build/AliceO2Group/AliceO2/Framework/Core/include/Framework/runDataProcessing.h Pages: 1 -->
<!--zoomable 152 -->
<svg id="main" version="1.1" xmlns="http://www.w3.org/2000/svg" xmlns:xlink="http://www.w3.org/1999/xlink" xml:space="preserve" onload="init(evt)">
<style type="text/css"><![CDATA[
.edge:hover path { stroke: red; }
.edge:hover polygon { stroke: red; fill: red; }
]]></style>
<script type="text/javascript"><![CDATA[
var edges = document.getElementsByTagName('g');
if (edges && edges.length) {
  for (var i=0;i<edges.length;i++) {
    if (edges[i].id.substr(0,4)=='edge') {
      edges[i].setAttribute('class','edge');
    }
  }
}
]]></script>
        <defs>
                <circle id="rim" cx="0" cy="0" r="7"/>
                <circle id="rim2" cx="0" cy="0" r="3.5"/>
                <g id="zoomPlus">
                        <use xlink:href="#rim" fill="#404040">
                                <set attributeName="fill" to="#808080" begin="zoomplus.mouseover" end="zoomplus.mouseout"/>
                        </use>
                        <path d="M-4,0h8M0,-4v8" fill="none" stroke="white" stroke-width="1.5" pointer-events="none"/>
                </g>
                <g id="zoomMin">
                        <use xlink:href="#rim" fill="#404040">
                                <set attributeName="fill" to="#808080" begin="zoomminus.mouseover" end="zoomminus.mouseout"/>
                        </use>
                        <path d="M-4,0h8" fill="none" stroke="white" stroke-width="1.5" pointer-events="none"/>
                </g>
                <g id="dirArrow">
                        <path fill="none" stroke="white" stroke-width="1.5" d="M0,-3.0v7 M-2.5,-0.5L0,-3.0L2.5,-0.5"/>
                </g>
               <g id="resetDef">
                       <use xlink:href="#rim2" fill="#404040">
                               <set attributeName="fill" to="#808080" begin="reset.mouseover" end="reset.mouseout"/>
                       </use>
               </g>
        </defs>

<script type="text/javascript">
var viewWidth = 4487;
var viewHeight = 152;
var sectionId = 'dynsection-1';
</script>
<script xlink:href="../../svgpan.js"/>
<svg id="graph" class="graph">
<g id="viewport">
<title>/home/travis/build/AliceO2Group/AliceO2/Framework/Core/include/Framework/runDataProcessing.h</title>
<!-- Node1 -->
<g id="node1" class="node"><title>Node1</title>
<polygon fill="#bfbfbf" stroke="black" points="2066.5,-91 2066.5,-143 2229.5,-143 2229.5,-91 2066.5,-91"/>
<text text-anchor="start" x="2074.5" y="-131" font-family="Helvetica,sans-Serif" font-size="10.00">/home/travis/build</text>
<text text-anchor="start" x="2074.5" y="-120" font-family="Helvetica,sans-Serif" font-size="10.00">/AliceO2Group/AliceO2</text>
<text text-anchor="start" x="2074.5" y="-109" font-family="Helvetica,sans-Serif" font-size="10.00">/Framework/Core/include</text>
<text text-anchor="middle" x="2148" y="-98" font-family="Helvetica,sans-Serif" font-size="10.00">/Framework/runDataProcessing.h</text>
</g>
<!-- Node2 -->
<g id="node2" class="node"><title>Node2</title>
<g id="a_node2"><a xlink:href="../../d3/dbf/tpc-reco-workflow_8cxx.html" target="_top" xlink:title="Basic DPL workflow for TPC reconstruction starting from digits. ">
<polygon fill="none" stroke="black" points="0,-1 0,-53 132,-53 132,-1 0,-1"/>
<text text-anchor="start" x="8" y="-41" font-family="Helvetica,sans-Serif" font-size="10.00">/home/travis/build</text>
<text text-anchor="start" x="8" y="-30" font-family="Helvetica,sans-Serif" font-size="10.00">/AliceO2Group/AliceO2</text>
<text text-anchor="start" x="8" y="-19" font-family="Helvetica,sans-Serif" font-size="10.00">/Detectors/TPC/workflow</text>
<text text-anchor="middle" x="66" y="-8" font-family="Helvetica,sans-Serif" font-size="10.00">/src/tpc&#45;reco&#45;workflow.cxx</text>
</a>
</g>
</g>
<!-- Node1&#45;&gt;Node2 -->
<g id="edge1" class="edge"><title>Node1&#45;&gt;Node2</title>
<path fill="none" stroke="midnightblue" d="M2056.3,-114.798C1688.43,-109.752 330.406,-88.9149 141,-54 138.154,-53.4754 135.27,-52.8618 132.374,-52.1775"/>
<polygon fill="midnightblue" stroke="midnightblue" points="2056.33,-118.298 2066.37,-114.935 2056.42,-111.299 2056.33,-118.298"/>
</g>
<!-- Node3 -->
<g id="node3" class="node"><title>Node3</title>
<g id="a_node3"><a xlink:href="../../d2/da2/test__DataAllocator_8cxx.html" target="_top" xlink:title="/home/travis/build\l/AliceO2Group/AliceO2\l/Framework/Core/test/test\l_DataAllocator.cxx">
<polygon fill="none" stroke="black" points="150.5,-1 150.5,-53 281.5,-53 281.5,-1 150.5,-1"/>
<text text-anchor="start" x="158.5" y="-41" font-family="Helvetica,sans-Serif" font-size="10.00">/home/travis/build</text>
<text text-anchor="start" x="158.5" y="-30" font-family="Helvetica,sans-Serif" font-size="10.00">/AliceO2Group/AliceO2</text>
<text text-anchor="start" x="158.5" y="-19" font-family="Helvetica,sans-Serif" font-size="10.00">/Framework/Core/test/test</text>
<text text-anchor="middle" x="216" y="-8" font-family="Helvetica,sans-Serif" font-size="10.00">_DataAllocator.cxx</text>
</a>
</g>
</g>
<!-- Node1&#45;&gt;Node3 -->
<g id="edge2" class="edge"><title>Node1&#45;&gt;Node3</title>
<path fill="none" stroke="midnightblue" d="M2056.18,-114.573C1705.84,-108.906 464.084,-86.6894 290,-54 287.323,-53.4974 284.613,-52.9146 281.891,-52.2673"/>
<polygon fill="midnightblue" stroke="midnightblue" points="2056.23,-118.075 2066.29,-114.736 2056.34,-111.075 2056.23,-118.075"/>
</g>
<!-- Node4 -->
<g id="node4" class="node"><title>Node4</title>
<g id="a_node4"><a xlink:href="../../d3/d4b/test__GenericSource_8cxx.html" target="_top" xlink:title="/home/travis/build\l/AliceO2Group/AliceO2\l/Framework/Core/test/test\l_GenericSource.cxx">
<polygon fill="none" stroke="black" points="299.5,-1 299.5,-53 430.5,-53 430.5,-1 299.5,-1"/>
<text text-anchor="start" x="307.5" y="-41" font-family="Helvetica,sans-Serif" font-size="10.00">/home/travis/build</text>
<text text-anchor="start" x="307.5" y="-30" font-family="Helvetica,sans-Serif" font-size="10.00">/AliceO2Group/AliceO2</text>
<text text-anchor="start" x="307.5" y="-19" font-family="Helvetica,sans-Serif" font-size="10.00">/Framework/Core/test/test</text>
<text text-anchor="middle" x="365" y="-8" font-family="Helvetica,sans-Serif" font-size="10.00">_GenericSource.cxx</text>
</a>
</g>
</g>
<!-- Node1&#45;&gt;Node4 -->
<g id="edge3" class="edge"><title>Node1&#45;&gt;Node4</title>
<path fill="none" stroke="midnightblue" d="M2056.24,-116.304C1748.25,-116.756 753.13,-113.46 439,-54 436.324,-53.4935 433.615,-52.9074 430.893,-52.2574"/>
<polygon fill="midnightblue" stroke="midnightblue" points="2056.47,-119.804 2066.47,-116.287 2056.46,-112.804 2056.47,-119.804"/>
</g>
<!-- Node5 -->
<g id="node5" class="node"><title>Node5</title>
<g id="a_node5"><a xlink:href="../../d3/d66/test__Parallel_8cxx.html" target="_top" xlink:title="/home/travis/build\l/AliceO2Group/AliceO2\l/Framework/Core/test/test\l_Parallel.cxx">
<polygon fill="none" stroke="black" points="448.5,-1 448.5,-53 579.5,-53 579.5,-1 448.5,-1"/>
<text text-anchor="start" x="456.5" y="-41" font-family="Helvetica,sans-Serif" font-size="10.00">/home/travis/build</text>
<text text-anchor="start" x="456.5" y="-30" font-family="Helvetica,sans-Serif" font-size="10.00">/AliceO2Group/AliceO2</text>
<text text-anchor="start" x="456.5" y="-19" font-family="Helvetica,sans-Serif" font-size="10.00">/Framework/Core/test/test</text>
<text text-anchor="middle" x="514" y="-8" font-family="Helvetica,sans-Serif" font-size="10.00">_Parallel.cxx</text>
</a>
</g>
</g>
<!-- Node1&#45;&gt;Node5 -->
<g id="edge4" class="edge"><title>Node1&#45;&gt;Node5</title>
<path fill="none" stroke="midnightblue" d="M2056.16,-115.929C1766.09,-115.144 871.995,-108.265 588,-54 585.325,-53.4889 582.616,-52.8989 579.895,-52.2456"/>
<polygon fill="midnightblue" stroke="midnightblue" points="2056.21,-119.429 2066.22,-115.955 2056.23,-112.429 2056.21,-119.429"/>
</g>
<!-- Node6 -->
<g id="node6" class="node"><title>Node6</title>
<g id="a_node6"><a xlink:href="../../d0/d0b/test__ParallelProducer_8cxx.html" target="_top" xlink:title="/home/travis/build\l/AliceO2Group/AliceO2\l/Framework/Core/test/test\l_ParallelProducer.cxx">
<polygon fill="none" stroke="black" points="597.5,-1 597.5,-53 728.5,-53 728.5,-1 597.5,-1"/>
<text text-anchor="start" x="605.5" y="-41" font-family="Helvetica,sans-Serif" font-size="10.00">/home/travis/build</text>
<text text-anchor="start" x="605.5" y="-30" font-family="Helvetica,sans-Serif" font-size="10.00">/AliceO2Group/AliceO2</text>
<text text-anchor="start" x="605.5" y="-19" font-family="Helvetica,sans-Serif" font-size="10.00">/Framework/Core/test/test</text>
<text text-anchor="middle" x="663" y="-8" font-family="Helvetica,sans-Serif" font-size="10.00">_ParallelProducer.cxx</text>
</a>
</g>
</g>
<!-- Node1&#45;&gt;Node6 -->
<g id="edge5" class="edge"><title>Node1&#45;&gt;Node6</title>
<path fill="none" stroke="midnightblue" d="M2056.22,-115.477C1785.11,-113.378 991.032,-103.091 737,-54 734.326,-53.4833 731.618,-52.8886 728.898,-52.2313"/>
<polygon fill="midnightblue" stroke="midnightblue" points="2056.39,-118.978 2066.41,-115.554 2056.44,-111.979 2056.39,-118.978"/>
</g>
<!-- Node7 -->
<g id="node7" class="node"><title>Node7</title>
<g id="a_node7"><a xlink:href="../../d6/d0d/test__RootTreeReader_8cxx.html" target="_top" xlink:title="/home/travis/build\l/AliceO2Group/AliceO2\l/Framework/Core/test/test\l_RootTreeReader.cxx">
<polygon fill="none" stroke="black" points="746.5,-1 746.5,-53 877.5,-53 877.5,-1 746.5,-1"/>
<text text-anchor="start" x="754.5" y="-41" font-family="Helvetica,sans-Serif" font-size="10.00">/home/travis/build</text>
<text text-anchor="start" x="754.5" y="-30" font-family="Helvetica,sans-Serif" font-size="10.00">/AliceO2Group/AliceO2</text>
<text text-anchor="start" x="754.5" y="-19" font-family="Helvetica,sans-Serif" font-size="10.00">/Framework/Core/test/test</text>
<text text-anchor="middle" x="812" y="-8" font-family="Helvetica,sans-Serif" font-size="10.00">_RootTreeReader.cxx</text>
</a>
</g>
</g>
<!-- Node1&#45;&gt;Node7 -->
<g id="edge6" class="edge"><title>Node1&#45;&gt;Node7</title>
<path fill="none" stroke="midnightblue" d="M2056.1,-114.865C1804.97,-111.224 1111.05,-97.4179 887,-54 883.888,-53.397 880.73,-52.6924 877.559,-51.9095"/>
<polygon fill="midnightblue" stroke="midnightblue" points="2056.23,-118.367 2066.28,-115.01 2056.33,-111.368 2056.23,-118.367"/>
</g>
<!-- Node8 -->
<g id="node8" class="node"><title>Node8</title>
<g id="a_node8"><a xlink:href="../../d5/d24/test__SimpleDataProcessingDevice01_8cxx.html" target="_top" xlink:title="/home/travis/build\l/AliceO2Group/AliceO2\l/Framework/Core/test/test\l_SimpleDataProcessingDevice01.cxx">
<polygon fill="none" stroke="black" points="896,-1 896,-53 1078,-53 1078,-1 896,-1"/>
<text text-anchor="start" x="904" y="-41" font-family="Helvetica,sans-Serif" font-size="10.00">/home/travis/build</text>
<text text-anchor="start" x="904" y="-30" font-family="Helvetica,sans-Serif" font-size="10.00">/AliceO2Group/AliceO2</text>
<text text-anchor="start" x="904" y="-19" font-family="Helvetica,sans-Serif" font-size="10.00">/Framework/Core/test/test</text>
<text text-anchor="middle" x="987" y="-8" font-family="Helvetica,sans-Serif" font-size="10.00">_SimpleDataProcessingDevice01.cxx</text>
</a>
</g>
</g>
<!-- Node1&#45;&gt;Node8 -->
<g id="edge7" class="edge"><title>Node1&#45;&gt;Node8</title>
<path fill="none" stroke="midnightblue" d="M2056,-116.661C1871.18,-116.664 1442.08,-109.981 1087,-54 1084.08,-53.5391 1081.11,-53.0295 1078.13,-52.4796"/>
<polygon fill="midnightblue" stroke="midnightblue" points="2056.22,-120.161 2066.22,-116.654 2056.22,-113.161 2056.22,-120.161"/>
</g>
<!-- Node9 -->
<g id="node9" class="node"><title>Node9</title>
<g id="a_node9"><a xlink:href="../../da/d12/test__SimpleStatefulProcessing01_8cxx.html" target="_top" xlink:title="/home/travis/build\l/AliceO2Group/AliceO2\l/Framework/Core/test/test\l_SimpleStatefulProcessing01.cxx">
<polygon fill="none" stroke="black" points="1096,-1 1096,-53 1260,-53 1260,-1 1096,-1"/>
<text text-anchor="start" x="1104" y="-41" font-family="Helvetica,sans-Serif" font-size="10.00">/home/travis/build</text>
<text text-anchor="start" x="1104" y="-30" font-family="Helvetica,sans-Serif" font-size="10.00">/AliceO2Group/AliceO2</text>
<text text-anchor="start" x="1104" y="-19" font-family="Helvetica,sans-Serif" font-size="10.00">/Framework/Core/test/test</text>
<text text-anchor="middle" x="1178" y="-8" font-family="Helvetica,sans-Serif" font-size="10.00">_SimpleStatefulProcessing01.cxx</text>
</a>
</g>
</g>
<!-- Node1&#45;&gt;Node9 -->
<g id="edge8" class="edge"><title>Node1&#45;&gt;Node9</title>
<path fill="none" stroke="midnightblue" d="M2056.09,-115.775C1895.29,-113.995 1552.98,-104.023 1269,-54 1266.09,-53.4869 1263.13,-52.9175 1260.16,-52.3021"/>
<polygon fill="midnightblue" stroke="midnightblue" points="2056.39,-119.278 2066.42,-115.881 2056.46,-112.279 2056.39,-119.278"/>
</g>
<!-- Node10 -->
<g id="node10" class="node"><title>Node10</title>
<g id="a_node10"><a xlink:href="../../d3/d4e/test__SingleDataSource_8cxx.html" target="_top" xlink:title="/home/travis/build\l/AliceO2Group/AliceO2\l/Framework/Core/test/test\l_SingleDataSource.cxx">
<polygon fill="none" stroke="black" points="1278.5,-1 1278.5,-53 1409.5,-53 1409.5,-1 1278.5,-1"/>
<text text-anchor="start" x="1286.5" y="-41" font-family="Helvetica,sans-Serif" font-size="10.00">/home/travis/build</text>
<text text-anchor="start" x="1286.5" y="-30" font-family="Helvetica,sans-Serif" font-size="10.00">/AliceO2Group/AliceO2</text>
<text text-anchor="start" x="1286.5" y="-19" font-family="Helvetica,sans-Serif" font-size="10.00">/Framework/Core/test/test</text>
<text text-anchor="middle" x="1344" y="-8" font-family="Helvetica,sans-Serif" font-size="10.00">_SingleDataSource.cxx</text>
</a>
</g>
</g>
<!-- Node1&#45;&gt;Node10 -->
<g id="edge9" class="edge"><title>Node1&#45;&gt;Node10</title>
<path fill="none" stroke="midnightblue" d="M2056.05,-115.608C1916.56,-113.355 1643.82,-102.44 1418,-54 1415.2,-53.4002 1412.37,-52.7239 1409.52,-51.9876"/>
<polygon fill="midnightblue" stroke="midnightblue" points="2056.21,-119.111 2066.27,-115.762 2056.32,-112.112 2056.21,-119.111"/>
</g>
<!-- Node11 -->
<g id="node11" class="node"><title>Node11</title>
<g id="a_node11"><a xlink:href="../../d1/d4f/test__TimePipeline_8cxx.html" target="_top" xlink:title="/home/travis/build\l/AliceO2Group/AliceO2\l/Framework/Core/test/test\l_TimePipeline.cxx">
<polygon fill="none" stroke="black" points="1427.5,-1 1427.5,-53 1558.5,-53 1558.5,-1 1427.5,-1"/>
<text text-anchor="start" x="1435.5" y="-41" font-family="Helvetica,sans-Serif" font-size="10.00">/home/travis/build</text>
<text text-anchor="start" x="1435.5" y="-30" font-family="Helvetica,sans-Serif" font-size="10.00">/AliceO2Group/AliceO2</text>
<text text-anchor="start" x="1435.5" y="-19" font-family="Helvetica,sans-Serif" font-size="10.00">/Framework/Core/test/test</text>
<text text-anchor="middle" x="1493" y="-8" font-family="Helvetica,sans-Serif" font-size="10.00">_TimePipeline.cxx</text>
</a>
</g>
</g>
<!-- Node1&#45;&gt;Node11 -->
<g id="edge10" class="edge"><title>Node1&#45;&gt;Node11</title>
<path fill="none" stroke="midnightblue" d="M2055.99,-112.75C1940.52,-107.177 1737.01,-92.3913 1567,-54 1564.21,-53.3701 1561.38,-52.6686 1558.54,-51.9115"/>
<polygon fill="midnightblue" stroke="midnightblue" points="2056.04,-116.257 2066.2,-113.23 2056.37,-109.265 2056.04,-116.257"/>
</g>
<!-- Node12 -->
<g id="node12" class="node"><title>Node12</title>
<g id="a_node12"><a xlink:href="../../d2/d5d/test__WorkflowOptions_8cxx.html" target="_top" xlink:title="/home/travis/build\l/AliceO2Group/AliceO2\l/Framework/Core/test/test\l_WorkflowOptions.cxx">
<polygon fill="none" stroke="black" points="1576.5,-1 1576.5,-53 1707.5,-53 1707.5,-1 1576.5,-1"/>
<text text-anchor="start" x="1584.5" y="-41" font-family="Helvetica,sans-Serif" font-size="10.00">/home/travis/build</text>
<text text-anchor="start" x="1584.5" y="-30" font-family="Helvetica,sans-Serif" font-size="10.00">/AliceO2Group/AliceO2</text>
<text text-anchor="start" x="1584.5" y="-19" font-family="Helvetica,sans-Serif" font-size="10.00">/Framework/Core/test/test</text>
<text text-anchor="middle" x="1642" y="-8" font-family="Helvetica,sans-Serif" font-size="10.00">_WorkflowOptions.cxx</text>
</a>
</g>
</g>
<!-- Node1&#45;&gt;Node12 -->
<g id="edge11" class="edge"><title>Node1&#45;&gt;Node12</title>
<path fill="none" stroke="midnightblue" d="M2056.31,-108.085C1968.18,-99.2492 1831.68,-82.3353 1716,-54 1713.22,-53.3197 1710.4,-52.576 1707.57,-51.784"/>
<polygon fill="midnightblue" stroke="midnightblue" points="2055.99,-111.569 2066.28,-109.07 2056.67,-104.603 2055.99,-111.569"/>
</g>
<!-- Node13 -->
<g id="node13" class="node"><title>Node13</title>
<g id="a_node13"><a xlink:href="../../d2/dad/dataSamplingFullChain_8cxx.html" target="_top" xlink:title="/home/travis/build\l/AliceO2Group/AliceO2\l/Framework/TestWorkflows\l/src/dataSamplingFullChain.cxx">
<polygon fill="none" stroke="black" points="1725.5,-1 1725.5,-53 1880.5,-53 1880.5,-1 1725.5,-1"/>
<text text-anchor="start" x="1733.5" y="-41" font-family="Helvetica,sans-Serif" font-size="10.00">/home/travis/build</text>
<text text-anchor="start" x="1733.5" y="-30" font-family="Helvetica,sans-Serif" font-size="10.00">/AliceO2Group/AliceO2</text>
<text text-anchor="start" x="1733.5" y="-19" font-family="Helvetica,sans-Serif" font-size="10.00">/Framework/TestWorkflows</text>
<text text-anchor="middle" x="1803" y="-8" font-family="Helvetica,sans-Serif" font-size="10.00">/src/dataSamplingFullChain.cxx</text>
</a>
</g>
</g>
<!-- Node1&#45;&gt;Node13 -->
<g id="edge12" class="edge"><title>Node1&#45;&gt;Node13</title>
<path fill="none" stroke="midnightblue" d="M2056.34,-95.2559C2006.9,-83.7451 1944.93,-68.7965 1890,-54 1886.96,-53.18 1883.86,-52.3294 1880.73,-51.458"/>
<polygon fill="midnightblue" stroke="midnightblue" points="2055.84,-98.7329 2066.37,-97.5848 2057.42,-91.9142 2055.84,-98.7329"/>
</g>
<!-- Node14 -->
<g id="node14" class="node"><title>Node14</title>
<g id="a_node14"><a xlink:href="../../d3/dbe/dataSamplingParallel_8cxx.html" target="_top" xlink:title="/home/travis/build\l/AliceO2Group/AliceO2\l/Framework/TestWorkflows\l/src/dataSamplingParallel.cxx">
<polygon fill="none" stroke="black" points="1899,-1 1899,-53 2045,-53 2045,-1 1899,-1"/>
<text text-anchor="start" x="1907" y="-41" font-family="Helvetica,sans-Serif" font-size="10.00">/home/travis/build</text>
<text text-anchor="start" x="1907" y="-30" font-family="Helvetica,sans-Serif" font-size="10.00">/AliceO2Group/AliceO2</text>
<text text-anchor="start" x="1907" y="-19" font-family="Helvetica,sans-Serif" font-size="10.00">/Framework/TestWorkflows</text>
<text text-anchor="middle" x="1972" y="-8" font-family="Helvetica,sans-Serif" font-size="10.00">/src/dataSamplingParallel.cxx</text>
</a>
</g>
</g>
<!-- Node1&#45;&gt;Node14 -->
<g id="edge13" class="edge"><title>Node1&#45;&gt;Node14</title>
<path fill="none" stroke="midnightblue" d="M2088.5,-86.2492C2066.94,-75.4678 2042.81,-63.4068 2022.14,-53.0687"/>
<polygon fill="midnightblue" stroke="midnightblue" points="2087.06,-89.441 2097.57,-90.7827 2090.19,-83.18 2087.06,-89.441"/>
</g>
<!-- Node15 -->
<g id="node15" class="node"><title>Node15</title>
<g id="a_node15"><a xlink:href="../../de/da3/dataSamplingPodAndRoot_8cxx.html" target="_top" xlink:title="/home/travis/build\l/AliceO2Group/AliceO2\l/Framework/TestWorkflows\l/src/dataSamplingPodAndRoot.cxx">
<polygon fill="none" stroke="black" points="2063,-1 2063,-53 2233,-53 2233,-1 2063,-1"/>
<text text-anchor="start" x="2071" y="-41" font-family="Helvetica,sans-Serif" font-size="10.00">/home/travis/build</text>
<text text-anchor="start" x="2071" y="-30" font-family="Helvetica,sans-Serif" font-size="10.00">/AliceO2Group/AliceO2</text>
<text text-anchor="start" x="2071" y="-19" font-family="Helvetica,sans-Serif" font-size="10.00">/Framework/TestWorkflows</text>
<text text-anchor="middle" x="2148" y="-8" font-family="Helvetica,sans-Serif" font-size="10.00">/src/dataSamplingPodAndRoot.cxx</text>
</a>
</g>
</g>
<!-- Node1&#45;&gt;Node15 -->
<g id="edge14" class="edge"><title>Node1&#45;&gt;Node15</title>
<path fill="none" stroke="midnightblue" d="M2148,-80.4892C2148,-71.3088 2148,-61.616 2148,-53.0921"/>
<polygon fill="midnightblue" stroke="midnightblue" points="2144.5,-80.5467 2148,-90.5468 2151.5,-80.5468 2144.5,-80.5467"/>
</g>
<!-- Node16 -->
<g id="node16" class="node"><title>Node16</title>
<g id="a_node16"><a xlink:href="../../db/d9e/dataSamplingTimePipeline_8cxx.html" target="_top" xlink:title="/home/travis/build\l/AliceO2Group/AliceO2\l/Framework/TestWorkflows\l/src/dataSamplingTimePipeline.cxx">
<polygon fill="none" stroke="black" points="2251,-1 2251,-53 2421,-53 2421,-1 2251,-1"/>
<text text-anchor="start" x="2259" y="-41" font-family="Helvetica,sans-Serif" font-size="10.00">/home/travis/build</text>
<text text-anchor="start" x="2259" y="-30" font-family="Helvetica,sans-Serif" font-size="10.00">/AliceO2Group/AliceO2</text>
<text text-anchor="start" x="2259" y="-19" font-family="Helvetica,sans-Serif" font-size="10.00">/Framework/TestWorkflows</text>
<text text-anchor="middle" x="2336" y="-8" font-family="Helvetica,sans-Serif" font-size="10.00">/src/dataSamplingTimePipeline.cxx</text>
</a>
</g>
</g>
<!-- Node1&#45;&gt;Node16 -->
<g id="edge15" class="edge"><title>Node1&#45;&gt;Node16</title>
<path fill="none" stroke="midnightblue" d="M2210.69,-86.6536C2233.9,-75.7923 2259.97,-63.5862 2282.31,-53.1328"/>
<polygon fill="midnightblue" stroke="midnightblue" points="2209.19,-83.4911 2201.62,-90.9005 2212.16,-89.831 2209.19,-83.4911"/>
</g>
<!-- Node17 -->
<g id="node17" class="node"><title>Node17</title>
<g id="a_node17"><a xlink:href="../../d4/dbb/o2DiamondWorkflow_8cxx.html" target="_top" xlink:title="/home/travis/build\l/AliceO2Group/AliceO2\l/Framework/TestWorkflows\l/src/o2DiamondWorkflow.cxx">
<polygon fill="none" stroke="black" points="2439,-1 2439,-53 2585,-53 2585,-1 2439,-1"/>
<text text-anchor="start" x="2447" y="-41" font-family="Helvetica,sans-Serif" font-size="10.00">/home/travis/build</text>
<text text-anchor="start" x="2447" y="-30" font-family="Helvetica,sans-Serif" font-size="10.00">/AliceO2Group/AliceO2</text>
<text text-anchor="start" x="2447" y="-19" font-family="Helvetica,sans-Serif" font-size="10.00">/Framework/TestWorkflows</text>
<text text-anchor="middle" x="2512" y="-8" font-family="Helvetica,sans-Serif" font-size="10.00">/src/o2DiamondWorkflow.cxx</text>
</a>
</g>
</g>
<!-- Node1&#45;&gt;Node17 -->
<g id="edge16" class="edge"><title>Node1&#45;&gt;Node17</title>
<path fill="none" stroke="midnightblue" d="M2239.41,-98.0909C2294.85,-86.688 2366.85,-70.9162 2430,-54 2432.89,-53.2271 2435.82,-52.4163 2438.78,-51.5782"/>
<polygon fill="midnightblue" stroke="midnightblue" points="2238.71,-94.6628 2229.61,-100.097 2240.11,-101.521 2238.71,-94.6628"/>
</g>
<!-- Node18 -->
<g id="node18" class="node"><title>Node18</title>
<g id="a_node18"><a xlink:href="../../da/dfd/o2DummyWorkflow_8cxx.html" target="_top" xlink:title="/home/travis/build\l/AliceO2Group/AliceO2\l/Framework/TestWorkflows\l/src/o2DummyWorkflow.cxx">
<polygon fill="none" stroke="black" points="2603.5,-1 2603.5,-53 2744.5,-53 2744.5,-1 2603.5,-1"/>
<text text-anchor="start" x="2611.5" y="-41" font-family="Helvetica,sans-Serif" font-size="10.00">/home/travis/build</text>
<text text-anchor="start" x="2611.5" y="-30" font-family="Helvetica,sans-Serif" font-size="10.00">/AliceO2Group/AliceO2</text>
<text text-anchor="start" x="2611.5" y="-19" font-family="Helvetica,sans-Serif" font-size="10.00">/Framework/TestWorkflows</text>
<text text-anchor="middle" x="2674" y="-8" font-family="Helvetica,sans-Serif" font-size="10.00">/src/o2DummyWorkflow.cxx</text>
</a>
</g>
</g>
<!-- Node1&#45;&gt;Node18 -->
<g id="edge17" class="edge"><title>Node1&#45;&gt;Node18</title>
<path fill="none" stroke="midnightblue" d="M2239.75,-108.013C2330.52,-98.997 2473.02,-81.8392 2594,-54 2596.99,-53.3122 2600.03,-52.5624 2603.08,-51.7652"/>
<polygon fill="midnightblue" stroke="midnightblue" points="2239.37,-104.533 2229.76,-108.993 2240.05,-111.5 2239.37,-104.533"/>
</g>
<!-- Node19 -->
<g id="node19" class="node"><title>Node19</title>
<g id="a_node19"><a xlink:href="../../d3/d09/o2ParallelWorkflow_8cxx.html" target="_top" xlink:title="/home/travis/build\l/AliceO2Group/AliceO2\l/Framework/TestWorkflows\l/src/o2ParallelWorkflow.cxx">
<polygon fill="none" stroke="black" points="2762.5,-1 2762.5,-53 2901.5,-53 2901.5,-1 2762.5,-1"/>
<text text-anchor="start" x="2770.5" y="-41" font-family="Helvetica,sans-Serif" font-size="10.00">/home/travis/build</text>
<text text-anchor="start" x="2770.5" y="-30" font-family="Helvetica,sans-Serif" font-size="10.00">/AliceO2Group/AliceO2</text>
<text text-anchor="start" x="2770.5" y="-19" font-family="Helvetica,sans-Serif" font-size="10.00">/Framework/TestWorkflows</text>
<text text-anchor="middle" x="2832" y="-8" font-family="Helvetica,sans-Serif" font-size="10.00">/src/o2ParallelWorkflow.cxx</text>
</a>
</g>
</g>
<!-- Node1&#45;&gt;Node19 -->
<g id="edge18" class="edge"><title>Node1&#45;&gt;Node19</title>
<path fill="none" stroke="midnightblue" d="M2239.79,-112.751C2359.17,-107.128 2573.64,-92.2354 2753,-54 2756.11,-53.3377 2759.26,-52.5972 2762.44,-51.7969"/>
<polygon fill="midnightblue" stroke="midnightblue" points="2239.43,-109.264 2229.6,-113.22 2239.75,-116.257 2239.43,-109.264"/>
</g>
<!-- Node20 -->
<g id="node20" class="node"><title>Node20</title>
<g id="a_node20"><a xlink:href="../../db/dbe/test__o2ITSCluserizer_8cxx.html" target="_top" xlink:title="/home/travis/build\l/AliceO2Group/AliceO2\l/Framework/TestWorkflows\l/src/test_o2ITSCluserizer.cxx">
<polygon fill="none" stroke="black" points="2919.5,-1 2919.5,-53 3066.5,-53 3066.5,-1 2919.5,-1"/>
<text text-anchor="start" x="2927.5" y="-41" font-family="Helvetica,sans-Serif" font-size="10.00">/home/travis/build</text>
<text text-anchor="start" x="2927.5" y="-30" font-family="Helvetica,sans-Serif" font-size="10.00">/AliceO2Group/AliceO2</text>
<text text-anchor="start" x="2927.5" y="-19" font-family="Helvetica,sans-Serif" font-size="10.00">/Framework/TestWorkflows</text>
<text text-anchor="middle" x="2993" y="-8" font-family="Helvetica,sans-Serif" font-size="10.00">/src/test_o2ITSCluserizer.cxx</text>
</a>
</g>
</g>
<!-- Node1&#45;&gt;Node20 -->
<g id="edge19" class="edge"><title>Node1&#45;&gt;Node20</title>
<path fill="none" stroke="midnightblue" d="M2239.85,-115.09C2383.93,-112.196 2671.29,-100.498 2910,-54 2913.11,-53.3937 2916.27,-52.7119 2919.45,-51.9711"/>
<polygon fill="midnightblue" stroke="midnightblue" points="2239.66,-111.593 2229.73,-115.284 2239.79,-118.592 2239.66,-111.593"/>
</g>
<!-- Node21 -->
<g id="node21" class="node"><title>Node21</title>
<g id="a_node21"><a xlink:href="../../d6/d4c/test__o2RootMessageWorkflow_8cxx.html" target="_top" xlink:title="/home/travis/build\l/AliceO2Group/AliceO2\l/Framework/TestWorkflows\l/src/test_o2RootMessageWorkflow.cxx">
<polygon fill="none" stroke="black" points="3084.5,-1 3084.5,-53 3273.5,-53 3273.5,-1 3084.5,-1"/>
<text text-anchor="start" x="3092.5" y="-41" font-family="Helvetica,sans-Serif" font-size="10.00">/home/travis/build</text>
<text text-anchor="start" x="3092.5" y="-30" font-family="Helvetica,sans-Serif" font-size="10.00">/AliceO2Group/AliceO2</text>
<text text-anchor="start" x="3092.5" y="-19" font-family="Helvetica,sans-Serif" font-size="10.00">/Framework/TestWorkflows</text>
<text text-anchor="middle" x="3179" y="-8" font-family="Helvetica,sans-Serif" font-size="10.00">/src/test_o2RootMessageWorkflow.cxx</text>
</a>
</g>
</g>
<!-- Node1&#45;&gt;Node21 -->
<g id="edge20" class="edge"><title>Node1&#45;&gt;Node21</title>
<path fill="none" stroke="midnightblue" d="M2240,-115.26C2407.24,-112.716 2771.83,-101.645 3075,-54 3078.13,-53.5088 3081.29,-52.9682 3084.49,-52.3869"/>
<polygon fill="midnightblue" stroke="midnightblue" points="2239.71,-111.764 2229.76,-115.409 2239.81,-118.763 2239.71,-111.764"/>
</g>
<!-- Node22 -->
<g id="node22" class="node"><title>Node22</title>
<g id="a_node22"><a xlink:href="../../d1/d09/test__o2TPCSimulation_8cxx.html" target="_top" xlink:title="/home/travis/build\l/AliceO2Group/AliceO2\l/Framework/TestWorkflows\l/src/test_o2TPCSimulation.cxx">
<polygon fill="none" stroke="black" points="3291.5,-1 3291.5,-53 3444.5,-53 3444.5,-1 3291.5,-1"/>
<text text-anchor="start" x="3299.5" y="-41" font-family="Helvetica,sans-Serif" font-size="10.00">/home/travis/build</text>
<text text-anchor="start" x="3299.5" y="-30" font-family="Helvetica,sans-Serif" font-size="10.00">/AliceO2Group/AliceO2</text>
<text text-anchor="start" x="3299.5" y="-19" font-family="Helvetica,sans-Serif" font-size="10.00">/Framework/TestWorkflows</text>
<text text-anchor="middle" x="3368" y="-8" font-family="Helvetica,sans-Serif" font-size="10.00">/src/test_o2TPCSimulation.cxx</text>
</a>
</g>
</g>
<!-- Node1&#45;&gt;Node22 -->
<g id="edge21" class="edge"><title>Node1&#45;&gt;Node22</title>
<path fill="none" stroke="midnightblue" d="M2239.87,-113.806C2472.87,-107.788 3082.52,-89.0848 3282,-54 3285.07,-53.4596 3288.19,-52.845 3291.33,-52.171"/>
<polygon fill="midnightblue" stroke="midnightblue" points="2239.63,-110.311 2229.73,-114.066 2239.81,-117.308 2239.63,-110.311"/>
</g>
<!-- Node23 -->
<g id="node23" class="node"><title>Node23</title>
<g id="a_node23"><a xlink:href="../../da/d19/test__RawDeviceInjector_8cxx.html" target="_top" xlink:title="/home/travis/build\l/AliceO2Group/AliceO2\l/Framework/TestWorkflows\l/src/test_RawDeviceInjector.cxx">
<polygon fill="none" stroke="black" points="3463,-1 3463,-53 3623,-53 3623,-1 3463,-1"/>
<text text-anchor="start" x="3471" y="-41" font-family="Helvetica,sans-Serif" font-size="10.00">/home/travis/build</text>
<text text-anchor="start" x="3471" y="-30" font-family="Helvetica,sans-Serif" font-size="10.00">/AliceO2Group/AliceO2</text>
<text text-anchor="start" x="3471" y="-19" font-family="Helvetica,sans-Serif" font-size="10.00">/Framework/TestWorkflows</text>
<text text-anchor="middle" x="3543" y="-8" font-family="Helvetica,sans-Serif" font-size="10.00">/src/test_RawDeviceInjector.cxx</text>
</a>
</g>
</g>
<!-- Node1&#45;&gt;Node23 -->
<g id="edge22" class="edge"><title>Node1&#45;&gt;Node23</title>
<path fill="none" stroke="midnightblue" d="M2239.86,-114.425C2496.77,-109.577 3219.08,-92.7958 3453,-54 3456.21,-53.4678 3459.47,-52.8601 3462.74,-52.1918"/>
<polygon fill="midnightblue" stroke="midnightblue" points="2239.75,-110.926 2229.82,-114.613 2239.88,-117.925 2239.75,-110.926"/>
</g>
<!-- Node24 -->
<g id="node24" class="node"><title>Node24</title>
<g id="a_node24"><a xlink:href="../../db/d78/test__MakeDPLObjects_8cxx.html" target="_top" xlink:title="/home/travis/build\l/AliceO2Group/AliceO2\l/Framework/TestWorkflows\l/test/test_MakeDPLObjects.cxx">
<polygon fill="none" stroke="black" points="3641.5,-1 3641.5,-53 3798.5,-53 3798.5,-1 3641.5,-1"/>
<text text-anchor="start" x="3649.5" y="-41" font-family="Helvetica,sans-Serif" font-size="10.00">/home/travis/build</text>
<text text-anchor="start" x="3649.5" y="-30" font-family="Helvetica,sans-Serif" font-size="10.00">/AliceO2Group/AliceO2</text>
<text text-anchor="start" x="3649.5" y="-19" font-family="Helvetica,sans-Serif" font-size="10.00">/Framework/TestWorkflows</text>
<text text-anchor="middle" x="3720" y="-8" font-family="Helvetica,sans-Serif" font-size="10.00">/test/test_MakeDPLObjects.cxx</text>
</a>
</g>
</g>
<!-- Node1&#45;&gt;Node24 -->
<g id="edge23" class="edge"><title>Node1&#45;&gt;Node24</title>
<path fill="none" stroke="midnightblue" d="M2240.04,-115.108C2520.58,-111.923 3362.19,-98.7932 3632,-54 3634.99,-53.5043 3638.01,-52.9389 3641.06,-52.317"/>
<polygon fill="midnightblue" stroke="midnightblue" points="2239.86,-111.61 2229.9,-115.222 2239.94,-118.609 2239.86,-111.61"/>
</g>
<!-- Node25 -->
<g id="node25" class="node"><title>Node25</title>
<g id="a_node25"><a xlink:href="../../df/d67/test__DPLBroadcasterMerger_8cxx.html" target="_top" xlink:title="/home/travis/build\l/AliceO2Group/AliceO2\l/Framework/Utils/test\l/test_DPLBroadcasterMerger.cxx">
<polygon fill="none" stroke="black" points="3817,-1 3817,-53 3979,-53 3979,-1 3817,-1"/>
<text text-anchor="start" x="3825" y="-41" font-family="Helvetica,sans-Serif" font-size="10.00">/home/travis/build</text>
<text text-anchor="start" x="3825" y="-30" font-family="Helvetica,sans-Serif" font-size="10.00">/AliceO2Group/AliceO2</text>
<text text-anchor="start" x="3825" y="-19" font-family="Helvetica,sans-Serif" font-size="10.00">/Framework/Utils/test</text>
<text text-anchor="middle" x="3898" y="-8" font-family="Helvetica,sans-Serif" font-size="10.00">/test_DPLBroadcasterMerger.cxx</text>
</a>
</g>
</g>
<!-- Node1&#45;&gt;Node25 -->
<g id="edge24" class="edge"><title>Node1&#45;&gt;Node25</title>
<path fill="none" stroke="midnightblue" d="M2239.54,-115.478C2541.08,-113.305 3501.37,-102.641 3807,-54 3810.25,-53.4835 3813.54,-52.889 3816.85,-52.2319"/>
<polygon fill="midnightblue" stroke="midnightblue" points="2239.5,-111.978 2229.52,-115.549 2239.55,-118.978 2239.5,-111.978"/>
</g>
<!-- Node26 -->
<g id="node26" class="node"><title>Node26</title>
<g id="a_node26"><a xlink:href="../../dd/d24/test__DPLOutputTest_8cxx.html" target="_top" xlink:title="/home/travis/build\l/AliceO2Group/AliceO2\l/Framework/Utils/test\l/test_DPLOutputTest.cxx">
<polygon fill="none" stroke="black" points="3997,-1 3997,-53 4125,-53 4125,-1 3997,-1"/>
<text text-anchor="start" x="4005" y="-41" font-family="Helvetica,sans-Serif" font-size="10.00">/home/travis/build</text>
<text text-anchor="start" x="4005" y="-30" font-family="Helvetica,sans-Serif" font-size="10.00">/AliceO2Group/AliceO2</text>
<text text-anchor="start" x="4005" y="-19" font-family="Helvetica,sans-Serif" font-size="10.00">/Framework/Utils/test</text>
<text text-anchor="middle" x="4061" y="-8" font-family="Helvetica,sans-Serif" font-size="10.00">/test_DPLOutputTest.cxx</text>
</a>
</g>
</g>
<!-- Node1&#45;&gt;Node26 -->
<g id="edge25" class="edge"><title>Node1&#45;&gt;Node26</title>
<path fill="none" stroke="midnightblue" d="M2239.81,-114.564C2587.98,-108.891 3815.82,-86.7421 3988,-54 3990.91,-53.4471 3993.85,-52.7972 3996.81,-52.071"/>
<polygon fill="midnightblue" stroke="midnightblue" points="2239.71,-111.065 2229.77,-114.727 2239.83,-118.064 2239.71,-111.065"/>
</g>
<!-- Node27 -->
<g id="node27" class="node"><title>Node27</title>
<g id="a_node27"><a xlink:href="../../d2/dd7/SimpleDigitizerWorkflow_8cxx.html" target="_top" xlink:title="/home/travis/build\l/AliceO2Group/AliceO2\l/Steer/DigitizerWorkflow\l/src/SimpleDigitizerWorkflow.cxx">
<polygon fill="none" stroke="black" points="4143,-1 4143,-53 4305,-53 4305,-1 4143,-1"/>
<text text-anchor="start" x="4151" y="-41" font-family="Helvetica,sans-Serif" font-size="10.00">/home/travis/build</text>
<text text-anchor="start" x="4151" y="-30" font-family="Helvetica,sans-Serif" font-size="10.00">/AliceO2Group/AliceO2</text>
<text text-anchor="start" x="4151" y="-19" font-family="Helvetica,sans-Serif" font-size="10.00">/Steer/DigitizerWorkflow</text>
<text text-anchor="middle" x="4224" y="-8" font-family="Helvetica,sans-Serif" font-size="10.00">/src/SimpleDigitizerWorkflow.cxx</text>
</a>
</g>
</g>
<!-- Node1&#45;&gt;Node27 -->
<g id="edge26" class="edge"><title>Node1&#45;&gt;Node27</title>
<path fill="none" stroke="midnightblue" d="M2239.78,-116.173C2579.06,-116.342 3761.86,-112.613 4134,-54 4136.89,-53.5445 4139.82,-53.0246 4142.77,-52.4514"/>
<polygon fill="midnightblue" stroke="midnightblue" points="2239.75,-112.673 2229.75,-116.167 2239.75,-119.673 2239.75,-112.673"/>
</g>
<!-- Node28 -->
<g id="node28" class="node"><title>Node28</title>
<g id="a_node28"><a xlink:href="../../dc/df2/SimpleMergerWorkflow_8cxx.html" target="_top" xlink:title="/home/travis/build\l/AliceO2Group/AliceO2\l/Utilities/QC/Workflow\l/src/SimpleMergerWorkflow.cxx">
<polygon fill="none" stroke="black" points="4323,-1 4323,-53 4479,-53 4479,-1 4323,-1"/>
<text text-anchor="start" x="4331" y="-41" font-family="Helvetica,sans-Serif" font-size="10.00">/home/travis/build</text>
<text text-anchor="start" x="4331" y="-30" font-family="Helvetica,sans-Serif" font-size="10.00">/AliceO2Group/AliceO2</text>
<text text-anchor="start" x="4331" y="-19" font-family="Helvetica,sans-Serif" font-size="10.00">/Utilities/QC/Workflow</text>
<text text-anchor="middle" x="4401" y="-8" font-family="Helvetica,sans-Serif" font-size="10.00">/src/SimpleMergerWorkflow.cxx</text>
</a>
</g>
</g>
<!-- Node1&#45;&gt;Node28 -->
<g id="edge27" class="edge"><title>Node1&#45;&gt;Node28</title>
<path fill="none" stroke="midnightblue" d="M2239.78,-114.789C2625.84,-109.502 4107.55,-87.2136 4314,-54 4316.96,-53.5243 4319.95,-52.9759 4322.97,-52.3684"/>
<polygon fill="midnightblue" stroke="midnightblue" points="2239.72,-111.289 2229.77,-114.926 2239.82,-118.289 2239.72,-111.289"/>
</g>
</g>
</svg>
        <g id="navigator" transform="translate(0 0)" fill="#404254">
                <rect fill="#f2f5e9" fill-opacity="0.5" stroke="#606060" stroke-width=".5" x="0" y="0" width="60" height="60"/>
                <use id="zoomplus" xlink:href="#zoomPlus" x="17" y="9" onmousedown="handleZoom(evt,'in')"/>
                <use id="zoomminus" xlink:href="#zoomMin" x="42" y="9" onmousedown="handleZoom(evt,'out')"/>
                <use id="reset" xlink:href="#resetDef" x="30" y="36" onmousedown="handleReset()"/>
                <g id="arrowUp" xlink:href="#dirArrow" transform="translate(30 24)" onmousedown="handlePan(0,-1)">
                  <use xlink:href="#rim" fill="#404040">
                        <set attributeName="fill" to="#808080" begin="arrowUp.mouseover" end="arrowUp.mouseout"/>
                  </use>
                  <path fill="none" stroke="white" stroke-width="1.5" d="M0,-3.0v7 M-2.5,-0.5L0,-3.0L2.5,-0.5"/>
                </g>
                <g id="arrowRight" xlink:href="#dirArrow" transform="rotate(90) translate(36 -43)" onmousedown="handlePan(1,0)">
                  <use xlink:href="#rim" fill="#404040">
                        <set attributeName="fill" to="#808080" begin="arrowRight.mouseover" end="arrowRight.mouseout"/>
                  </use>
                  <path fill="none" stroke="white" stroke-width="1.5" d="M0,-3.0v7 M-2.5,-0.5L0,-3.0L2.5,-0.5"/>
                </g>
                <g id="arrowDown" xlink:href="#dirArrow" transform="rotate(180) translate(-30 -48)" onmousedown="handlePan(0,1)">
                  <use xlink:href="#rim" fill="#404040">
                        <set attributeName="fill" to="#808080" begin="arrowDown.mouseover" end="arrowDown.mouseout"/>
                  </use>
                  <path fill="none" stroke="white" stroke-width="1.5" d="M0,-3.0v7 M-2.5,-0.5L0,-3.0L2.5,-0.5"/>
                </g>
                <g id="arrowLeft" xlink:href="#dirArrow" transform="rotate(270) translate(-36 17)" onmousedown="handlePan(-1,0)">
                  <use xlink:href="#rim" fill="#404040">
                        <set attributeName="fill" to="#808080" begin="arrowLeft.mouseover" end="arrowLeft.mouseout"/>
                  </use>
                  <path fill="none" stroke="white" stroke-width="1.5" d="M0,-3.0v7 M-2.5,-0.5L0,-3.0L2.5,-0.5"/>
                </g>
        </g>
        <svg viewBox="0 0 15 15" width="100%" height="30px" preserveAspectRatio="xMaxYMin meet">
         <g id="arrow_out" transform="scale(0.3 0.3)">
          <a xlink:href="runDataProcessing_8h__dep__incl_org.svg" target="_base">
           <rect id="button" ry="5" rx="5" y="6" x="6" height="38" width="38"
                fill="#f2f5e9" fill-opacity="0.5" stroke="#606060" stroke-width="1.0"/>
           <path id="arrow"
             d="M 11.500037,31.436501 C 11.940474,20.09759 22.043105,11.32322 32.158766,21.979434 L 37.068811,17.246167 C 37.068811,17.246167 37.088388,32 37.088388,32 L 22.160133,31.978069 C 22.160133,31.978069 26.997745,27.140456 26.997745,27.140456 C 18.528582,18.264221 13.291696,25.230495 11.500037,31.436501 z"
             style="fill:#404040;"/>
          </a>
         </g>
        </svg>
</svg>
