<?xml version="1.0" encoding="UTF-8" standalone="no"?>
<!DOCTYPE svg PUBLIC "-//W3C//DTD SVG 1.1//EN"
 "http://www.w3.org/Graphics/SVG/1.1/DTD/svg11.dtd">
<!-- Generated by graphviz version 2.36.0 (20140111.2315)
 -->
<!-- Title: /home/travis/build/AliceO2Group/AliceO2/Detectors/TOF/simulation/src/DigitizerTask.cxx Pages: 1 -->
<svg width="1914pt" height="514pt"
 viewBox="0.00 0.00 1914.00 514.00" xmlns="http://www.w3.org/2000/svg" xmlns:xlink="http://www.w3.org/1999/xlink">
<g id="graph0" class="graph" transform="scale(1 1) rotate(0) translate(4 510)">
<title>/home/travis/build/AliceO2Group/AliceO2/Detectors/TOF/simulation/src/DigitizerTask.cxx</title>
<!-- Node1 -->
<g id="node1" class="node"><title>Node1</title>
<polygon fill="#bfbfbf" stroke="black" points="1352,-453 1352,-505 1484,-505 1484,-453 1352,-453"/>
<text text-anchor="start" x="1360" y="-493" font-family="Helvetica,sans-Serif" font-size="10.00">/home/travis/build</text>
<text text-anchor="start" x="1360" y="-482" font-family="Helvetica,sans-Serif" font-size="10.00">/AliceO2Group/AliceO2</text>
<text text-anchor="start" x="1360" y="-471" font-family="Helvetica,sans-Serif" font-size="10.00">/Detectors/TOF/simulation</text>
<text text-anchor="middle" x="1418" y="-460" font-family="Helvetica,sans-Serif" font-size="10.00">/src/DigitizerTask.cxx</text>
</g>
<!-- Node2 -->
<g id="node2" class="node"><title>Node2</title>
<g id="a_node2"><a xlink:href="../../d8/dc6/TOF_2simulation_2include_2TOFSimulation_2DigitizerTask_8h.html" target="_top" xlink:title="TOFSimulation/DigitizerTask.h">
<polygon fill="none" stroke="black" points="374.5,-396.5 374.5,-415.5 525.5,-415.5 525.5,-396.5 374.5,-396.5"/>
<text text-anchor="middle" x="450" y="-403.5" font-family="Helvetica,sans-Serif" font-size="10.00">TOFSimulation/DigitizerTask.h</text>
</a>
</g>
</g>
<!-- Node1&#45;&gt;Node2 -->
<g id="edge1" class="edge"><title>Node1&#45;&gt;Node2</title>
<path fill="none" stroke="midnightblue" d="M1351.85,-473.148C1181.25,-460.635 726.48,-427.279 535.906,-413.301"/>
<polygon fill="midnightblue" stroke="midnightblue" points="535.888,-409.79 525.658,-412.549 535.376,-416.772 535.888,-409.79"/>
</g>
<!-- Node15 -->
<g id="node15" class="node"><title>Node15</title>
<polygon fill="none" stroke="#bfbfbf" points="1394,-142.5 1394,-161.5 1494,-161.5 1494,-142.5 1394,-142.5"/>
<text text-anchor="middle" x="1444" y="-149.5" font-family="Helvetica,sans-Serif" font-size="10.00">FairRootManager.h</text>
</g>
<!-- Node1&#45;&gt;Node15 -->
<g id="edge59" class="edge"><title>Node1&#45;&gt;Node15</title>
<path fill="none" stroke="midnightblue" d="M1406.41,-452.812C1395.89,-427.605 1382,-387.439 1382,-351 1382,-351 1382,-351 1382,-287 1382,-241.314 1412.05,-194.291 1430.31,-169.937"/>
<polygon fill="midnightblue" stroke="midnightblue" points="1433.29,-171.812 1436.64,-161.763 1427.75,-167.524 1433.29,-171.812"/>
</g>
<!-- Node41 -->
<g id="node41" class="node"><title>Node41</title>
<g id="a_node41"><a xlink:href="../../d9/d52/Common_2MathUtils_2include_2MathUtils_2Utils_8h.html" target="_top" xlink:title="MathUtils/Utils.h">
<polygon fill="none" stroke="black" points="1410,-396.5 1410,-415.5 1500,-415.5 1500,-396.5 1410,-396.5"/>
<text text-anchor="middle" x="1455" y="-403.5" font-family="Helvetica,sans-Serif" font-size="10.00">MathUtils/Utils.h</text>
</a>
</g>
</g>
<!-- Node1&#45;&gt;Node41 -->
<g id="edge54" class="edge"><title>Node1&#45;&gt;Node41</title>
<path fill="none" stroke="midnightblue" d="M1431.15,-452.768C1435.99,-443.486 1441.36,-433.179 1445.78,-424.7"/>
<polygon fill="midnightblue" stroke="midnightblue" points="1448.92,-426.243 1450.44,-415.757 1442.71,-423.008 1448.92,-426.243"/>
</g>
<!-- Node45 -->
<g id="node45" class="node"><title>Node45</title>
<polygon fill="none" stroke="#bfbfbf" points="1518.5,-396.5 1518.5,-415.5 1589.5,-415.5 1589.5,-396.5 1518.5,-396.5"/>
<text text-anchor="middle" x="1554" y="-403.5" font-family="Helvetica,sans-Serif" font-size="10.00">FairLogger.h</text>
</g>
<!-- Node1&#45;&gt;Node45 -->
<g id="edge58" class="edge"><title>Node1&#45;&gt;Node45</title>
<path fill="none" stroke="midnightblue" d="M1465.95,-452.968C1486.98,-441.986 1510.83,-429.537 1528.4,-420.366"/>
<polygon fill="midnightblue" stroke="midnightblue" points="1530.21,-423.369 1537.45,-415.639 1526.97,-417.164 1530.21,-423.369"/>
</g>
<!-- Node3 -->
<g id="node3" class="node"><title>Node3</title>
<polygon fill="none" stroke="#bfbfbf" points="265.5,-340.5 265.5,-359.5 328.5,-359.5 328.5,-340.5 265.5,-340.5"/>
<text text-anchor="middle" x="297" y="-347.5" font-family="Helvetica,sans-Serif" font-size="10.00">FairTask.h</text>
</g>
<!-- Node2&#45;&gt;Node3 -->
<g id="edge2" class="edge"><title>Node2&#45;&gt;Node3</title>
<path fill="none" stroke="midnightblue" d="M425.757,-396.444C400.129,-387.399 359.515,-373.064 330.762,-362.916"/>
<polygon fill="midnightblue" stroke="midnightblue" points="331.725,-359.544 321.13,-359.516 329.395,-366.145 331.725,-359.544"/>
</g>
<!-- Node4 -->
<g id="node4" class="node"><title>Node4</title>
<polygon fill="none" stroke="#bfbfbf" points="274,-74.5 274,-93.5 330,-93.5 330,-74.5 274,-74.5"/>
<text text-anchor="middle" x="302" y="-81.5" font-family="Helvetica,sans-Serif" font-size="10.00">Rtypes.h</text>
</g>
<!-- Node2&#45;&gt;Node4 -->
<g id="edge3" class="edge"><title>Node2&#45;&gt;Node4</title>
<path fill="none" stroke="midnightblue" d="M374.426,-401.042C246.251,-392.241 0,-365.393 0,-289 0,-289 0,-289 0,-219 0,-176.607 12.6577,-160.854 47,-136 81.1417,-111.291 201.111,-95.4967 263.563,-88.7564"/>
<polygon fill="midnightblue" stroke="midnightblue" points="264.218,-92.2068 273.796,-87.6776 263.484,-85.2454 264.218,-92.2068"/>
</g>
<!-- Node5 -->
<g id="node5" class="node"><title>Node5</title>
<g id="a_node5"><a xlink:href="../../df/d9c/TOF_2base_2include_2TOFBase_2Digit_8h.html" target="_top" xlink:title="TOFBase/Digit.h">
<polygon fill="none" stroke="black" points="486,-210.5 486,-229.5 576,-229.5 576,-210.5 486,-210.5"/>
<text text-anchor="middle" x="531" y="-217.5" font-family="Helvetica,sans-Serif" font-size="10.00">TOFBase/Digit.h</text>
</a>
</g>
</g>
<!-- Node2&#45;&gt;Node5 -->
<g id="edge4" class="edge"><title>Node2&#45;&gt;Node5</title>
<path fill="none" stroke="midnightblue" d="M475.522,-396.377C492.083,-389.342 512.473,-377.644 523,-360 545.532,-322.234 540.079,-267.943 535.037,-239.689"/>
<polygon fill="midnightblue" stroke="midnightblue" points="538.417,-238.74 533.051,-229.605 531.549,-240.093 538.417,-238.74"/>
</g>
<!-- Node9 -->
<g id="node9" class="node"><title>Node9</title>
<g id="a_node9"><a xlink:href="../../d5/d3c/TOF_2simulation_2include_2TOFSimulation_2Detector_8h.html" target="_top" xlink:title="TOFSimulation/Detector.h">
<polygon fill="none" stroke="black" points="609.5,-278.5 609.5,-297.5 740.5,-297.5 740.5,-278.5 609.5,-278.5"/>
<text text-anchor="middle" x="675" y="-285.5" font-family="Helvetica,sans-Serif" font-size="10.00">TOFSimulation/Detector.h</text>
</a>
</g>
</g>
<!-- Node2&#45;&gt;Node9 -->
<g id="edge10" class="edge"><title>Node2&#45;&gt;Node9</title>
<path fill="none" stroke="midnightblue" d="M472.973,-396.443C494.937,-388.005 528.79,-374.326 557,-360 592.004,-342.224 630.651,-318.041 653.866,-302.984"/>
<polygon fill="midnightblue" stroke="midnightblue" points="655.793,-305.906 662.251,-297.506 651.965,-300.045 655.793,-305.906"/>
</g>
<!-- Node33 -->
<g id="node33" class="node"><title>Node33</title>
<g id="a_node33"><a xlink:href="../../d0/d85/TOF_2simulation_2include_2TOFSimulation_2Digitizer_8h.html" target="_top" xlink:title="TOFSimulation/Digitizer.h">
<polygon fill="none" stroke="black" points="385.5,-340.5 385.5,-359.5 514.5,-359.5 514.5,-340.5 385.5,-340.5"/>
<text text-anchor="middle" x="450" y="-347.5" font-family="Helvetica,sans-Serif" font-size="10.00">TOFSimulation/Digitizer.h</text>
</a>
</g>
</g>
<!-- Node2&#45;&gt;Node33 -->
<g id="edge40" class="edge"><title>Node2&#45;&gt;Node33</title>
<path fill="none" stroke="midnightblue" d="M450,-396.083C450,-389.006 450,-378.861 450,-369.986"/>
<polygon fill="midnightblue" stroke="midnightblue" points="453.5,-369.751 450,-359.751 446.5,-369.751 453.5,-369.751"/>
</g>
<!-- Node34 -->
<g id="node34" class="node"><title>Node34</title>
<g id="a_node34"><a xlink:href="../../db/d14/MCTruthContainer_8h.html" target="_top" xlink:title="Definition of a container to keep Monte Carlo truth external to simulation objects. ">
<polygon fill="none" stroke="black" points="210,-273 210,-303 324,-303 324,-273 210,-273"/>
<text text-anchor="start" x="218" y="-291" font-family="Helvetica,sans-Serif" font-size="10.00">SimulationDataFormat</text>
<text text-anchor="middle" x="267" y="-280" font-family="Helvetica,sans-Serif" font-size="10.00">/MCTruthContainer.h</text>
</a>
</g>
</g>
<!-- Node2&#45;&gt;Node34 -->
<g id="edge53" class="edge"><title>Node2&#45;&gt;Node34</title>
<path fill="none" stroke="midnightblue" d="M435.455,-396.337C420.474,-387.371 396.487,-372.897 376,-360 348.955,-342.975 318.506,-323.078 296.678,-308.686"/>
<polygon fill="midnightblue" stroke="midnightblue" points="298.452,-305.663 288.178,-303.073 294.594,-311.504 298.452,-305.663"/>
</g>
<!-- Node5&#45;&gt;Node4 -->
<g id="edge8" class="edge"><title>Node5&#45;&gt;Node4</title>
<path fill="none" stroke="midnightblue" d="M504.025,-210.497C495.458,-208.07 485.899,-205.642 477,-204 393.15,-188.529 152.393,-231.056 95,-168 44.2009,-112.188 190.756,-93.2494 263.589,-87.3888"/>
<polygon fill="midnightblue" stroke="midnightblue" points="264.061,-90.8631 273.768,-86.6162 263.532,-83.8832 264.061,-90.8631"/>
</g>
<!-- Node6 -->
<g id="node6" class="node"><title>Node6</title>
<g id="a_node6"><a xlink:href="../../df/d5d/common_2include_2CommonDataFormat_2TimeStamp_8h.html" target="_top" xlink:title="CommonDataFormat/TimeStamp.h">
<polygon fill="none" stroke="black" points="104,-142.5 104,-161.5 274,-161.5 274,-142.5 104,-142.5"/>
<text text-anchor="middle" x="189" y="-149.5" font-family="Helvetica,sans-Serif" font-size="10.00">CommonDataFormat/TimeStamp.h</text>
</a>
</g>
</g>
<!-- Node5&#45;&gt;Node6 -->
<g id="edge5" class="edge"><title>Node5&#45;&gt;Node6</title>
<path fill="none" stroke="midnightblue" d="M502.264,-210.469C494.136,-208.205 485.255,-205.873 477,-204 434.994,-194.469 322.175,-175.172 250.851,-163.239"/>
<polygon fill="midnightblue" stroke="midnightblue" points="251.082,-159.729 240.642,-161.534 249.929,-166.633 251.082,-159.729"/>
</g>
<!-- Node7 -->
<g id="node7" class="node"><title>Node7</title>
<polygon fill="none" stroke="#bfbfbf" points="736.5,-74.5 736.5,-93.5 781.5,-93.5 781.5,-74.5 736.5,-74.5"/>
<text text-anchor="middle" x="759" y="-81.5" font-family="Helvetica,sans-Serif" font-size="10.00">iosfwd</text>
</g>
<!-- Node5&#45;&gt;Node7 -->
<g id="edge7" class="edge"><title>Node5&#45;&gt;Node7</title>
<path fill="none" stroke="midnightblue" d="M560.938,-210.472C568.755,-208.304 577.18,-206.018 585,-204 651.804,-186.764 686.338,-215.892 736,-168 753.373,-151.246 757.982,-122.622 759.016,-103.757"/>
<polygon fill="midnightblue" stroke="midnightblue" points="762.516,-103.792 759.281,-93.7036 755.518,-103.608 762.516,-103.792"/>
</g>
<!-- Node8 -->
<g id="node8" class="node"><title>Node8</title>
<polygon fill="none" stroke="#bfbfbf" points="292.5,-137 292.5,-167 387.5,-167 387.5,-137 292.5,-137"/>
<text text-anchor="start" x="300.5" y="-155" font-family="Helvetica,sans-Serif" font-size="10.00">boost/serialization</text>
<text text-anchor="middle" x="340" y="-144" font-family="Helvetica,sans-Serif" font-size="10.00">/base_object.hpp</text>
</g>
<!-- Node5&#45;&gt;Node8 -->
<g id="edge9" class="edge"><title>Node5&#45;&gt;Node8</title>
<path fill="none" stroke="midnightblue" d="M506.03,-210.372C476.791,-200.268 427.621,-183.277 390.359,-170.402"/>
<polygon fill="midnightblue" stroke="midnightblue" points="391.273,-167.014 380.678,-167.056 388.986,-173.63 391.273,-167.014"/>
</g>
<!-- Node6&#45;&gt;Node4 -->
<g id="edge6" class="edge"><title>Node6&#45;&gt;Node4</title>
<path fill="none" stroke="midnightblue" d="M203.773,-142.372C222.722,-131.304 255.82,-111.972 278.308,-98.838"/>
<polygon fill="midnightblue" stroke="midnightblue" points="280.354,-101.696 287.224,-93.6305 276.823,-95.6517 280.354,-101.696"/>
</g>
<!-- Node10 -->
<g id="node10" class="node"><title>Node10</title>
<g id="a_node10"><a xlink:href="../../d1/d3a/Base_2include_2DetectorsBase_2Detector_8h.html" target="_top" xlink:title="DetectorsBase/Detector.h">
<polygon fill="none" stroke="black" points="824.5,-210.5 824.5,-229.5 955.5,-229.5 955.5,-210.5 824.5,-210.5"/>
<text text-anchor="middle" x="890" y="-217.5" font-family="Helvetica,sans-Serif" font-size="10.00">DetectorsBase/Detector.h</text>
</a>
</g>
</g>
<!-- Node9&#45;&gt;Node10 -->
<g id="edge11" class="edge"><title>Node9&#45;&gt;Node10</title>
<path fill="none" stroke="midnightblue" d="M703.107,-278.372C741.359,-266.629 809.913,-245.585 852.511,-232.508"/>
<polygon fill="midnightblue" stroke="midnightblue" points="853.694,-235.806 862.226,-229.526 851.639,-229.115 853.694,-235.806"/>
</g>
<!-- Node21 -->
<g id="node21" class="node"><title>Node21</title>
<g id="a_node21"><a xlink:href="../../d4/d54/Geo_8h.html" target="_top" xlink:title="TOFBase/Geo.h">
<polygon fill="none" stroke="black" points="594,-210.5 594,-229.5 682,-229.5 682,-210.5 594,-210.5"/>
<text text-anchor="middle" x="638" y="-217.5" font-family="Helvetica,sans-Serif" font-size="10.00">TOFBase/Geo.h</text>
</a>
</g>
</g>
<!-- Node9&#45;&gt;Node21 -->
<g id="edge25" class="edge"><title>Node9&#45;&gt;Node21</title>
<path fill="none" stroke="midnightblue" d="M670.163,-278.372C664.543,-268.348 655.124,-251.546 647.927,-238.708"/>
<polygon fill="midnightblue" stroke="midnightblue" points="650.899,-236.852 642.956,-229.841 644.794,-240.275 650.899,-236.852"/>
</g>
<!-- Node22 -->
<g id="node22" class="node"><title>Node22</title>
<g id="a_node22"><a xlink:href="../../d4/d25/BaseHits_8h.html" target="_top" xlink:title="SimulationDataFormat\l/BaseHits.h">
<polygon fill="none" stroke="black" points="1136,-205 1136,-235 1250,-235 1250,-205 1136,-205"/>
<text text-anchor="start" x="1144" y="-223" font-family="Helvetica,sans-Serif" font-size="10.00">SimulationDataFormat</text>
<text text-anchor="middle" x="1193" y="-212" font-family="Helvetica,sans-Serif" font-size="10.00">/BaseHits.h</text>
</a>
</g>
</g>
<!-- Node9&#45;&gt;Node22 -->
<g id="edge27" class="edge"><title>Node9&#45;&gt;Node22</title>
<path fill="none" stroke="midnightblue" d="M740.605,-278.641C839.568,-266.032 1026.05,-242.271 1125.89,-229.55"/>
<polygon fill="midnightblue" stroke="midnightblue" points="1126.39,-233.016 1135.87,-228.28 1125.5,-226.072 1126.39,-233.016"/>
</g>
<!-- Node10&#45;&gt;Node4 -->
<g id="edge20" class="edge"><title>Node10&#45;&gt;Node4</title>
<path fill="none" stroke="midnightblue" d="M824.343,-213.236C740.415,-205.152 600.305,-189.049 553,-168 532.515,-158.885 534.075,-145.986 514,-136 457.206,-107.748 383.931,-94.6303 340.084,-88.9389"/>
<polygon fill="midnightblue" stroke="midnightblue" points="340.484,-85.4617 330.13,-87.7093 339.626,-92.4089 340.484,-85.4617"/>
</g>
<!-- Node11 -->
<g id="node11" class="node"><title>Node11</title>
<polygon fill="none" stroke="#bfbfbf" points="655.5,-74.5 655.5,-93.5 690.5,-93.5 690.5,-74.5 655.5,-74.5"/>
<text text-anchor="middle" x="673" y="-81.5" font-family="Helvetica,sans-Serif" font-size="10.00">map</text>
</g>
<!-- Node10&#45;&gt;Node11 -->
<g id="edge12" class="edge"><title>Node10&#45;&gt;Node11</title>
<path fill="none" stroke="midnightblue" d="M876.096,-210.414C839.504,-187.818 740.275,-126.543 695.479,-98.8811"/>
<polygon fill="midnightblue" stroke="midnightblue" points="697.136,-95.7908 686.789,-93.5146 693.458,-101.747 697.136,-95.7908"/>
</g>
<!-- Node12 -->
<g id="node12" class="node"><title>Node12</title>
<polygon fill="none" stroke="#bfbfbf" points="1189,-142.5 1189,-161.5 1233,-161.5 1233,-142.5 1189,-142.5"/>
<text text-anchor="middle" x="1211" y="-149.5" font-family="Helvetica,sans-Serif" font-size="10.00">vector</text>
</g>
<!-- Node10&#45;&gt;Node12 -->
<g id="edge13" class="edge"><title>Node10&#45;&gt;Node12</title>
<path fill="none" stroke="midnightblue" d="M955.741,-212.403C1015.1,-205.277 1104.32,-191.636 1179,-168 1181.14,-167.323 1183.32,-166.534 1185.49,-165.677"/>
<polygon fill="midnightblue" stroke="midnightblue" points="1186.96,-168.852 1194.73,-161.64 1184.16,-162.437 1186.96,-168.852"/>
</g>
<!-- Node13 -->
<g id="node13" class="node"><title>Node13</title>
<polygon fill="none" stroke="#bfbfbf" points="822,-142.5 822,-161.5 874,-161.5 874,-142.5 822,-142.5"/>
<text text-anchor="middle" x="848" y="-149.5" font-family="Helvetica,sans-Serif" font-size="10.00">memory</text>
</g>
<!-- Node10&#45;&gt;Node13 -->
<g id="edge14" class="edge"><title>Node10&#45;&gt;Node13</title>
<path fill="none" stroke="midnightblue" d="M884.509,-210.372C878.068,-200.25 867.228,-183.215 859.029,-170.331"/>
<polygon fill="midnightblue" stroke="midnightblue" points="861.948,-168.399 853.626,-161.841 856.042,-172.157 861.948,-168.399"/>
</g>
<!-- Node14 -->
<g id="node14" class="node"><title>Node14</title>
<polygon fill="none" stroke="#bfbfbf" points="892.5,-142.5 892.5,-161.5 971.5,-161.5 971.5,-142.5 892.5,-142.5"/>
<text text-anchor="middle" x="932" y="-149.5" font-family="Helvetica,sans-Serif" font-size="10.00">FairDetector.h</text>
</g>
<!-- Node10&#45;&gt;Node14 -->
<g id="edge15" class="edge"><title>Node10&#45;&gt;Node14</title>
<path fill="none" stroke="midnightblue" d="M895.491,-210.372C901.932,-200.25 912.772,-183.215 920.971,-170.331"/>
<polygon fill="midnightblue" stroke="midnightblue" points="923.958,-172.157 926.374,-161.841 918.052,-168.399 923.958,-172.157"/>
</g>
<!-- Node10&#45;&gt;Node15 -->
<g id="edge16" class="edge"><title>Node10&#45;&gt;Node15</title>
<path fill="none" stroke="midnightblue" d="M955.537,-215.208C1050.53,-209.04 1231.78,-194.745 1384,-168 1390.32,-166.89 1396.95,-165.482 1403.41,-163.975"/>
<polygon fill="midnightblue" stroke="midnightblue" points="1404.46,-167.322 1413.35,-161.554 1402.8,-160.52 1404.46,-167.322"/>
</g>
<!-- Node16 -->
<g id="node16" class="node"><title>Node16</title>
<g id="a_node16"><a xlink:href="../../d0/d9a/MaterialManager_8h.html" target="_top" xlink:title="DetectorsBase/MaterialManager.h">
<polygon fill="none" stroke="black" points="562.5,-142.5 562.5,-161.5 727.5,-161.5 727.5,-142.5 562.5,-142.5"/>
<text text-anchor="middle" x="645" y="-149.5" font-family="Helvetica,sans-Serif" font-size="10.00">DetectorsBase/MaterialManager.h</text>
</a>
</g>
</g>
<!-- Node10&#45;&gt;Node16 -->
<g id="edge17" class="edge"><title>Node10&#45;&gt;Node16</title>
<path fill="none" stroke="midnightblue" d="M857.971,-210.372C814.013,-198.53 734.941,-177.229 686.498,-164.179"/>
<polygon fill="midnightblue" stroke="midnightblue" points="687.215,-160.748 676.649,-161.526 685.394,-167.507 687.215,-160.748"/>
</g>
<!-- Node17 -->
<g id="node17" class="node"><title>Node17</title>
<polygon fill="none" stroke="#bfbfbf" points="989.5,-142.5 989.5,-161.5 1042.5,-161.5 1042.5,-142.5 989.5,-142.5"/>
<text text-anchor="middle" x="1016" y="-149.5" font-family="Helvetica,sans-Serif" font-size="10.00">cxxabi.h</text>
</g>
<!-- Node10&#45;&gt;Node17 -->
<g id="edge21" class="edge"><title>Node10&#45;&gt;Node17</title>
<path fill="none" stroke="midnightblue" d="M906.472,-210.372C927.885,-199.156 965.499,-179.453 990.583,-166.314"/>
<polygon fill="midnightblue" stroke="midnightblue" points="992.289,-169.371 999.524,-161.63 989.041,-163.17 992.289,-169.371"/>
</g>
<!-- Node18 -->
<g id="node18" class="node"><title>Node18</title>
<polygon fill="none" stroke="#bfbfbf" points="1060.5,-142.5 1060.5,-161.5 1111.5,-161.5 1111.5,-142.5 1060.5,-142.5"/>
<text text-anchor="middle" x="1086" y="-149.5" font-family="Helvetica,sans-Serif" font-size="10.00">typeinfo</text>
</g>
<!-- Node10&#45;&gt;Node18 -->
<g id="edge22" class="edge"><title>Node10&#45;&gt;Node18</title>
<path fill="none" stroke="midnightblue" d="M919.971,-210.465C952.529,-200.97 1005.93,-184.751 1051,-168 1053.11,-167.214 1055.29,-166.371 1057.47,-165.5"/>
<polygon fill="midnightblue" stroke="midnightblue" points="1058.99,-168.659 1066.88,-161.595 1056.3,-162.193 1058.99,-168.659"/>
</g>
<!-- Node19 -->
<g id="node19" class="node"><title>Node19</title>
<polygon fill="none" stroke="#bfbfbf" points="444,-142.5 444,-161.5 506,-161.5 506,-142.5 444,-142.5"/>
<text text-anchor="middle" x="475" y="-149.5" font-family="Helvetica,sans-Serif" font-size="10.00">type_traits</text>
</g>
<!-- Node10&#45;&gt;Node19 -->
<g id="edge23" class="edge"><title>Node10&#45;&gt;Node19</title>
<path fill="none" stroke="midnightblue" d="M824.166,-213.627C749.652,-206.694 624.979,-192.51 520,-168 516.053,-167.078 511.96,-165.957 507.924,-164.746"/>
<polygon fill="midnightblue" stroke="midnightblue" points="508.712,-161.324 498.121,-161.616 506.583,-167.992 508.712,-161.324"/>
</g>
<!-- Node20 -->
<g id="node20" class="node"><title>Node20</title>
<polygon fill="none" stroke="#bfbfbf" points="1129.5,-142.5 1129.5,-161.5 1170.5,-161.5 1170.5,-142.5 1129.5,-142.5"/>
<text text-anchor="middle" x="1150" y="-149.5" font-family="Helvetica,sans-Serif" font-size="10.00">string</text>
</g>
<!-- Node10&#45;&gt;Node20 -->
<g id="edge24" class="edge"><title>Node10&#45;&gt;Node20</title>
<path fill="none" stroke="midnightblue" d="M946.378,-210.48C993.614,-202.404 1062.37,-188.445 1120,-168 1121.85,-167.343 1123.74,-166.598 1125.61,-165.801"/>
<polygon fill="midnightblue" stroke="midnightblue" points="1127.17,-168.937 1134.75,-161.531 1124.21,-162.596 1127.17,-168.937"/>
</g>
<!-- Node16&#45;&gt;Node4 -->
<g id="edge18" class="edge"><title>Node16&#45;&gt;Node4</title>
<path fill="none" stroke="midnightblue" d="M600.51,-142.439C532.687,-129.389 404.569,-104.736 340.505,-92.4092"/>
<polygon fill="midnightblue" stroke="midnightblue" points="340.904,-88.9219 330.423,-90.4692 339.582,-95.7958 340.904,-88.9219"/>
</g>
<!-- Node16&#45;&gt;Node11 -->
<g id="edge19" class="edge"><title>Node16&#45;&gt;Node11</title>
<path fill="none" stroke="midnightblue" d="M648.661,-142.372C652.871,-132.446 659.902,-115.874 665.327,-103.086"/>
<polygon fill="midnightblue" stroke="midnightblue" points="668.566,-104.414 669.249,-93.8411 662.122,-101.68 668.566,-104.414"/>
</g>
<!-- Node21&#45;&gt;Node4 -->
<g id="edge26" class="edge"><title>Node21&#45;&gt;Node4</title>
<path fill="none" stroke="midnightblue" d="M608.622,-210.458C600.95,-208.29 592.679,-206.007 585,-204 518.669,-186.661 496.392,-198.519 435,-168 414.923,-158.019 414.604,-148.514 396,-136 374.518,-121.551 348.549,-107.711 329.355,-98.1038"/>
<polygon fill="midnightblue" stroke="midnightblue" points="330.777,-94.9026 320.261,-93.6143 327.678,-101.179 330.777,-94.9026"/>
</g>
<!-- Node23 -->
<g id="node23" class="node"><title>Node23</title>
<g id="a_node23"><a xlink:href="../../dd/d76/Cartesian3D_8h.html" target="_top" xlink:title="MathUtils/Cartesian3D.h">
<polygon fill="none" stroke="black" points="1250.5,-142.5 1250.5,-161.5 1375.5,-161.5 1375.5,-142.5 1250.5,-142.5"/>
<text text-anchor="middle" x="1313" y="-149.5" font-family="Helvetica,sans-Serif" font-size="10.00">MathUtils/Cartesian3D.h</text>
</a>
</g>
</g>
<!-- Node22&#45;&gt;Node23 -->
<g id="edge28" class="edge"><title>Node22&#45;&gt;Node23</title>
<path fill="none" stroke="midnightblue" d="M1218.74,-204.841C1239.31,-193.528 1267.96,-177.771 1288.26,-166.605"/>
<polygon fill="midnightblue" stroke="midnightblue" points="1290.14,-169.568 1297.21,-161.682 1286.77,-163.434 1290.14,-169.568"/>
</g>
<!-- Node23&#45;&gt;Node4 -->
<g id="edge34" class="edge"><title>Node23&#45;&gt;Node4</title>
<path fill="none" stroke="midnightblue" d="M1277.29,-142.449C1265.77,-139.989 1252.9,-137.554 1241,-136 1150.81,-124.224 506.043,-94.3015 340.606,-86.751"/>
<polygon fill="midnightblue" stroke="midnightblue" points="340.562,-83.2454 330.413,-86.2864 340.243,-90.2382 340.562,-83.2454"/>
</g>
<!-- Node23&#45;&gt;Node7 -->
<g id="edge36" class="edge"><title>Node23&#45;&gt;Node7</title>
<path fill="none" stroke="midnightblue" d="M1276.53,-142.48C1265.2,-140.082 1252.63,-137.674 1241,-136 1044.16,-107.665 988.277,-146.82 795,-100 792.004,-99.2742 788.935,-98.3321 785.913,-97.2735"/>
<polygon fill="midnightblue" stroke="midnightblue" points="787.16,-94.003 776.572,-93.6178 784.609,-100.522 787.16,-94.003"/>
</g>
<!-- Node24 -->
<g id="node24" class="node"><title>Node24</title>
<polygon fill="none" stroke="#bfbfbf" points="1393.5,-69 1393.5,-99 1544.5,-99 1544.5,-69 1393.5,-69"/>
<text text-anchor="start" x="1401.5" y="-87" font-family="Helvetica,sans-Serif" font-size="10.00">Math/GenVector/Displacement</text>
<text text-anchor="middle" x="1469" y="-76" font-family="Helvetica,sans-Serif" font-size="10.00">Vector3D.h</text>
</g>
<!-- Node23&#45;&gt;Node24 -->
<g id="edge29" class="edge"><title>Node23&#45;&gt;Node24</title>
<path fill="none" stroke="midnightblue" d="M1333.39,-142.372C1356.87,-132.44 1396.07,-115.854 1426.31,-103.063"/>
<polygon fill="midnightblue" stroke="midnightblue" points="1427.93,-106.176 1435.78,-99.0562 1425.2,-99.7293 1427.93,-106.176"/>
</g>
<!-- Node25 -->
<g id="node25" class="node"><title>Node25</title>
<polygon fill="none" stroke="#bfbfbf" points="1563,-74.5 1563,-93.5 1739,-93.5 1739,-74.5 1563,-74.5"/>
<text text-anchor="middle" x="1651" y="-81.5" font-family="Helvetica,sans-Serif" font-size="10.00">Math/GenVector/PositionVector3D.h</text>
</g>
<!-- Node23&#45;&gt;Node25 -->
<g id="edge30" class="edge"><title>Node23&#45;&gt;Node25</title>
<path fill="none" stroke="midnightblue" d="M1353.34,-142.477C1363.66,-140.331 1374.73,-138.054 1385,-136 1457.56,-121.488 1541.42,-105.547 1595.27,-95.4167"/>
<polygon fill="midnightblue" stroke="midnightblue" points="1596.12,-98.8191 1605.3,-93.5325 1594.83,-91.9395 1596.12,-98.8191"/>
</g>
<!-- Node26 -->
<g id="node26" class="node"><title>Node26</title>
<polygon fill="none" stroke="#bfbfbf" points="1756.5,-74.5 1756.5,-93.5 1905.5,-93.5 1905.5,-74.5 1756.5,-74.5"/>
<text text-anchor="middle" x="1831" y="-81.5" font-family="Helvetica,sans-Serif" font-size="10.00">Math/GenVector/Rotation3D.h</text>
</g>
<!-- Node23&#45;&gt;Node26 -->
<g id="edge31" class="edge"><title>Node23&#45;&gt;Node26</title>
<path fill="none" stroke="midnightblue" d="M1350.23,-142.457C1361.37,-140.114 1373.64,-137.743 1385,-136 1544.81,-111.477 1586.85,-122.228 1747,-100 1756.79,-98.6406 1767.19,-96.9703 1777.21,-95.2436"/>
<polygon fill="midnightblue" stroke="midnightblue" points="1777.83,-98.6889 1787.07,-93.5076 1776.62,-91.795 1777.83,-98.6889"/>
</g>
<!-- Node27 -->
<g id="node27" class="node"><title>Node27</title>
<polygon fill="none" stroke="#bfbfbf" points="804,-74.5 804,-93.5 960,-93.5 960,-74.5 804,-74.5"/>
<text text-anchor="middle" x="882" y="-81.5" font-family="Helvetica,sans-Serif" font-size="10.00">Math/GenVector/Transform3D.h</text>
</g>
<!-- Node23&#45;&gt;Node27 -->
<g id="edge32" class="edge"><title>Node23&#45;&gt;Node27</title>
<path fill="none" stroke="midnightblue" d="M1274.61,-142.455C1263.77,-140.192 1251.95,-137.863 1241,-136 1120.78,-115.551 1089.55,-118.363 969,-100 959.441,-98.5439 949.31,-96.8946 939.469,-95.2357"/>
<polygon fill="midnightblue" stroke="midnightblue" points="939.802,-91.7419 929.356,-93.5111 938.625,-98.6423 939.802,-91.7419"/>
</g>
<!-- Node28 -->
<g id="node28" class="node"><title>Node28</title>
<polygon fill="none" stroke="#bfbfbf" points="978,-74.5 978,-93.5 1138,-93.5 1138,-74.5 978,-74.5"/>
<text text-anchor="middle" x="1058" y="-81.5" font-family="Helvetica,sans-Serif" font-size="10.00">Math/GenVector/Translation3D.h</text>
</g>
<!-- Node23&#45;&gt;Node28 -->
<g id="edge33" class="edge"><title>Node23&#45;&gt;Node28</title>
<path fill="none" stroke="midnightblue" d="M1279.92,-142.439C1234.16,-130.594 1151.47,-109.192 1100.97,-96.1223"/>
<polygon fill="midnightblue" stroke="midnightblue" points="1101.57,-92.6629 1091.02,-93.5455 1099.82,-99.4396 1101.57,-92.6629"/>
</g>
<!-- Node29 -->
<g id="node29" class="node"><title>Node29</title>
<polygon fill="none" stroke="#bfbfbf" points="1156,-74.5 1156,-93.5 1232,-93.5 1232,-74.5 1156,-74.5"/>
<text text-anchor="middle" x="1194" y="-81.5" font-family="Helvetica,sans-Serif" font-size="10.00">TGeoMatrix.h</text>
</g>
<!-- Node23&#45;&gt;Node29 -->
<g id="edge35" class="edge"><title>Node23&#45;&gt;Node29</title>
<path fill="none" stroke="midnightblue" d="M1297.44,-142.372C1277.31,-131.205 1242.01,-111.627 1218.32,-98.4876"/>
<polygon fill="midnightblue" stroke="midnightblue" points="1220,-95.4199 1209.56,-93.6305 1216.61,-101.541 1220,-95.4199"/>
</g>
<!-- Node30 -->
<g id="node30" class="node"><title>Node30</title>
<g id="a_node30"><a xlink:href="../../d2/dd0/Cartesian2D_8h.html" target="_top" xlink:title="MathUtils/Cartesian2D.h">
<polygon fill="none" stroke="black" points="1250.5,-74.5 1250.5,-93.5 1375.5,-93.5 1375.5,-74.5 1250.5,-74.5"/>
<text text-anchor="middle" x="1313" y="-81.5" font-family="Helvetica,sans-Serif" font-size="10.00">MathUtils/Cartesian2D.h</text>
</a>
</g>
</g>
<!-- Node23&#45;&gt;Node30 -->
<g id="edge37" class="edge"><title>Node23&#45;&gt;Node30</title>
<path fill="none" stroke="midnightblue" d="M1313,-142.372C1313,-132.643 1313,-116.528 1313,-103.85"/>
<polygon fill="midnightblue" stroke="midnightblue" points="1316.5,-103.841 1313,-93.8411 1309.5,-103.841 1316.5,-103.841"/>
</g>
<!-- Node31 -->
<g id="node31" class="node"><title>Node31</title>
<polygon fill="none" stroke="#bfbfbf" points="1146.5,-1 1146.5,-31 1297.5,-31 1297.5,-1 1146.5,-1"/>
<text text-anchor="start" x="1154.5" y="-19" font-family="Helvetica,sans-Serif" font-size="10.00">Math/GenVector/Displacement</text>
<text text-anchor="middle" x="1222" y="-8" font-family="Helvetica,sans-Serif" font-size="10.00">Vector2D.h</text>
</g>
<!-- Node30&#45;&gt;Node31 -->
<g id="edge38" class="edge"><title>Node30&#45;&gt;Node31</title>
<path fill="none" stroke="midnightblue" d="M1301.1,-74.3717C1288.22,-65.0286 1267.22,-49.7966 1250.09,-37.375"/>
<polygon fill="midnightblue" stroke="midnightblue" points="1251.7,-34.2194 1241.55,-31.1815 1247.59,-39.8859 1251.7,-34.2194"/>
</g>
<!-- Node32 -->
<g id="node32" class="node"><title>Node32</title>
<polygon fill="none" stroke="#bfbfbf" points="1316,-6.5 1316,-25.5 1492,-25.5 1492,-6.5 1316,-6.5"/>
<text text-anchor="middle" x="1404" y="-13.5" font-family="Helvetica,sans-Serif" font-size="10.00">Math/GenVector/PositionVector2D.h</text>
</g>
<!-- Node30&#45;&gt;Node32 -->
<g id="edge39" class="edge"><title>Node30&#45;&gt;Node32</title>
<path fill="none" stroke="midnightblue" d="M1324.9,-74.3717C1339.88,-63.5015 1365.86,-44.6602 1383.94,-31.5474"/>
<polygon fill="midnightblue" stroke="midnightblue" points="1386.06,-34.3349 1392.1,-25.6305 1381.95,-28.6684 1386.06,-34.3349"/>
</g>
<!-- Node33&#45;&gt;Node5 -->
<g id="edge42" class="edge"><title>Node33&#45;&gt;Node5</title>
<path fill="none" stroke="midnightblue" d="M457.657,-340.389C465.3,-331.582 477.15,-317.339 486,-304 500.258,-282.509 513.989,-256.081 522.454,-238.904"/>
<polygon fill="midnightblue" stroke="midnightblue" points="525.786,-240.056 527.002,-229.531 519.488,-237 525.786,-240.056"/>
</g>
<!-- Node33&#45;&gt;Node9 -->
<g id="edge43" class="edge"><title>Node33&#45;&gt;Node9</title>
<path fill="none" stroke="midnightblue" d="M482.237,-340.403C521.919,-329.822 589.399,-311.827 633.074,-300.18"/>
<polygon fill="midnightblue" stroke="midnightblue" points="634.062,-303.539 642.823,-297.581 632.259,-296.775 634.062,-303.539"/>
</g>
<!-- Node33&#45;&gt;Node21 -->
<g id="edge41" class="edge"><title>Node33&#45;&gt;Node21</title>
<path fill="none" stroke="midnightblue" d="M462.627,-340.403C494.334,-318.815 577.567,-262.146 616.871,-235.386"/>
<polygon fill="midnightblue" stroke="midnightblue" points="619.132,-238.081 625.428,-229.56 615.192,-232.295 619.132,-238.081"/>
</g>
<!-- Node33&#45;&gt;Node34 -->
<g id="edge44" class="edge"><title>Node33&#45;&gt;Node34</title>
<path fill="none" stroke="midnightblue" d="M423.781,-340.403C396.705,-331.526 353.718,-317.432 319.598,-306.245"/>
<polygon fill="midnightblue" stroke="midnightblue" points="320.37,-302.815 309.777,-303.025 318.189,-309.467 320.37,-302.815"/>
</g>
<!-- Node39 -->
<g id="node39" class="node"><title>Node39</title>
<g id="a_node39"><a xlink:href="../../df/d71/MCLabel_8h.html" target="_top" xlink:title="TOFSimulation/MCLabel.h">
<polygon fill="none" stroke="black" points="345,-278.5 345,-297.5 477,-297.5 477,-278.5 345,-278.5"/>
<text text-anchor="middle" x="411" y="-285.5" font-family="Helvetica,sans-Serif" font-size="10.00">TOFSimulation/MCLabel.h</text>
</a>
</g>
</g>
<!-- Node33&#45;&gt;Node39 -->
<g id="edge50" class="edge"><title>Node33&#45;&gt;Node39</title>
<path fill="none" stroke="midnightblue" d="M444.412,-340.403C438.62,-331.493 429.411,-317.325 422.126,-306.118"/>
<polygon fill="midnightblue" stroke="midnightblue" points="424.962,-304.058 416.577,-297.581 419.093,-307.873 424.962,-304.058"/>
</g>
<!-- Node34&#45;&gt;Node19 -->
<g id="edge49" class="edge"><title>Node34&#45;&gt;Node19</title>
<path fill="none" stroke="midnightblue" d="M277.112,-272.845C290.714,-254.701 316.509,-223.29 345,-204 372.325,-185.5 407.343,-172.255 434.149,-163.907"/>
<polygon fill="midnightblue" stroke="midnightblue" points="435.42,-167.18 443.988,-160.946 433.403,-160.476 435.42,-167.18"/>
</g>
<!-- Node35 -->
<g id="node35" class="node"><title>Node35</title>
<polygon fill="none" stroke="#bfbfbf" points="236,-210.5 236,-229.5 298,-229.5 298,-210.5 236,-210.5"/>
<text text-anchor="middle" x="267" y="-217.5" font-family="Helvetica,sans-Serif" font-size="10.00">TNamed.h</text>
</g>
<!-- Node34&#45;&gt;Node35 -->
<g id="edge45" class="edge"><title>Node34&#45;&gt;Node35</title>
<path fill="none" stroke="midnightblue" d="M267,-272.679C267,-263.101 267,-250.394 267,-239.977"/>
<polygon fill="midnightblue" stroke="midnightblue" points="270.5,-239.828 267,-229.828 263.5,-239.828 270.5,-239.828"/>
</g>
<!-- Node36 -->
<g id="node36" class="node"><title>Node36</title>
<polygon fill="none" stroke="#bfbfbf" points="28.5,-210.5 28.5,-229.5 77.5,-229.5 77.5,-210.5 28.5,-210.5"/>
<text text-anchor="middle" x="53" y="-217.5" font-family="Helvetica,sans-Serif" font-size="10.00">cassert</text>
</g>
<!-- Node34&#45;&gt;Node36 -->
<g id="edge46" class="edge"><title>Node34&#45;&gt;Node36</title>
<path fill="none" stroke="midnightblue" d="M209.635,-273.218C173.685,-263.999 126.625,-250.859 86,-236 84.0939,-235.303 82.1444,-234.543 80.1925,-233.748"/>
<polygon fill="midnightblue" stroke="midnightblue" points="81.1729,-230.359 70.6053,-229.599 78.3929,-236.783 81.1729,-230.359"/>
</g>
<!-- Node37 -->
<g id="node37" class="node"><title>Node37</title>
<polygon fill="none" stroke="#bfbfbf" points="95.5,-210.5 95.5,-229.5 154.5,-229.5 154.5,-210.5 95.5,-210.5"/>
<text text-anchor="middle" x="125" y="-217.5" font-family="Helvetica,sans-Serif" font-size="10.00">stdexcept</text>
</g>
<!-- Node34&#45;&gt;Node37 -->
<g id="edge47" class="edge"><title>Node34&#45;&gt;Node37</title>
<path fill="none" stroke="midnightblue" d="M236.537,-272.841C211.755,-261.323 177.064,-245.199 152.978,-234.004"/>
<polygon fill="midnightblue" stroke="midnightblue" points="154.223,-230.723 143.679,-229.682 151.272,-237.071 154.223,-230.723"/>
</g>
<!-- Node38 -->
<g id="node38" class="node"><title>Node38</title>
<polygon fill="none" stroke="#bfbfbf" points="172.5,-210.5 172.5,-229.5 217.5,-229.5 217.5,-210.5 172.5,-210.5"/>
<text text-anchor="middle" x="195" y="-217.5" font-family="Helvetica,sans-Serif" font-size="10.00">gsl/gsl</text>
</g>
<!-- Node34&#45;&gt;Node38 -->
<g id="edge48" class="edge"><title>Node34&#45;&gt;Node38</title>
<path fill="none" stroke="midnightblue" d="M251.377,-272.679C239.817,-262.082 224.078,-247.655 212.167,-236.736"/>
<polygon fill="midnightblue" stroke="midnightblue" points="214.367,-234.006 204.631,-229.828 209.637,-239.166 214.367,-234.006"/>
</g>
<!-- Node40 -->
<g id="node40" class="node"><title>Node40</title>
<g id="a_node40"><a xlink:href="../../d7/dcd/MCCompLabel_8h.html" target="_top" xlink:title="SimulationDataFormat\l/MCCompLabel.h">
<polygon fill="none" stroke="black" points="354,-205 354,-235 468,-235 468,-205 354,-205"/>
<text text-anchor="start" x="362" y="-223" font-family="Helvetica,sans-Serif" font-size="10.00">SimulationDataFormat</text>
<text text-anchor="middle" x="411" y="-212" font-family="Helvetica,sans-Serif" font-size="10.00">/MCCompLabel.h</text>
</a>
</g>
</g>
<!-- Node39&#45;&gt;Node40 -->
<g id="edge51" class="edge"><title>Node39&#45;&gt;Node40</title>
<path fill="none" stroke="midnightblue" d="M411,-278.372C411,-269.971 411,-256.811 411,-245.213"/>
<polygon fill="midnightblue" stroke="midnightblue" points="414.5,-245.181 411,-235.181 407.5,-245.181 414.5,-245.181"/>
</g>
<!-- Node40&#45;&gt;Node4 -->
<g id="edge52" class="edge"><title>Node40&#45;&gt;Node4</title>
<path fill="none" stroke="midnightblue" d="M353.878,-210.772C255.056,-196.521 62.5952,-168.689 62,-168 4.53517,-101.527 182.009,-88.2496 263.441,-85.6287"/>
<polygon fill="midnightblue" stroke="midnightblue" points="263.901,-89.1172 273.798,-85.3363 263.703,-82.12 263.901,-89.1172"/>
</g>
<!-- Node42 -->
<g id="node42" class="node"><title>Node42</title>
<polygon fill="none" stroke="#bfbfbf" points="1670,-340.5 1670,-359.5 1708,-359.5 1708,-340.5 1670,-340.5"/>
<text text-anchor="middle" x="1689" y="-347.5" font-family="Helvetica,sans-Serif" font-size="10.00">array</text>
</g>
<!-- Node41&#45;&gt;Node42 -->
<g id="edge55" class="edge"><title>Node41&#45;&gt;Node42</title>
<path fill="none" stroke="midnightblue" d="M1498.85,-396.497C1540.53,-388.149 1604.87,-374.577 1660,-360 1660.1,-359.974 1660.2,-359.948 1660.3,-359.921"/>
<polygon fill="midnightblue" stroke="midnightblue" points="1661.07,-363.341 1669.72,-357.233 1659.15,-356.61 1661.07,-363.341"/>
</g>
<!-- Node43 -->
<g id="node43" class="node"><title>Node43</title>
<polygon fill="none" stroke="#bfbfbf" points="1410,-340.5 1410,-359.5 1454,-359.5 1454,-340.5 1410,-340.5"/>
<text text-anchor="middle" x="1432" y="-347.5" font-family="Helvetica,sans-Serif" font-size="10.00">cmath</text>
</g>
<!-- Node41&#45;&gt;Node43 -->
<g id="edge56" class="edge"><title>Node41&#45;&gt;Node43</title>
<path fill="none" stroke="midnightblue" d="M1451.2,-396.083C1448.09,-388.77 1443.58,-378.181 1439.71,-369.103"/>
<polygon fill="midnightblue" stroke="midnightblue" points="1442.87,-367.58 1435.73,-359.751 1436.43,-370.323 1442.87,-367.58"/>
</g>
<!-- Node44 -->
<g id="node44" class="node"><title>Node44</title>
<g id="a_node44"><a xlink:href="../../d6/d84/MathConstants_8h.html" target="_top" xlink:title="useful math constants ">
<polygon fill="none" stroke="black" points="1472.5,-340.5 1472.5,-359.5 1651.5,-359.5 1651.5,-340.5 1472.5,-340.5"/>
<text text-anchor="middle" x="1562" y="-347.5" font-family="Helvetica,sans-Serif" font-size="10.00">CommonConstants/MathConstants.h</text>
</a>
</g>
</g>
<!-- Node41&#45;&gt;Node44 -->
<g id="edge57" class="edge"><title>Node41&#45;&gt;Node44</title>
<path fill="none" stroke="midnightblue" d="M1472.19,-396.324C1489.35,-387.664 1515.95,-374.242 1535.75,-364.249"/>
<polygon fill="midnightblue" stroke="midnightblue" points="1537.5,-367.285 1544.85,-359.655 1534.35,-361.035 1537.5,-367.285"/>
</g>
</g>
</svg>
