<?xml version="1.0" encoding="UTF-8" standalone="no"?>
<!DOCTYPE svg PUBLIC "-//W3C//DTD SVG 1.1//EN"
 "http://www.w3.org/Graphics/SVG/1.1/DTD/svg11.dtd">
<!-- Generated by graphviz version 2.36.0 (20140111.2315)
 -->
<!-- Title: /home/travis/build/AliceO2Group/AliceO2/Detectors/MUON/MID/Tracking/test/testTracker.cxx Pages: 1 -->
<svg width="1978pt" height="402pt"
 viewBox="0.00 0.00 1978.00 402.00" xmlns="http://www.w3.org/2000/svg" xmlns:xlink="http://www.w3.org/1999/xlink">
<g id="graph0" class="graph" transform="scale(1 1) rotate(0) translate(4 398)">
<title>/home/travis/build/AliceO2Group/AliceO2/Detectors/MUON/MID/Tracking/test/testTracker.cxx</title>
<!-- Node1 -->
<g id="node1" class="node"><title>Node1</title>
<polygon fill="#bfbfbf" stroke="black" points="703,-341 703,-393 861,-393 861,-341 703,-341"/>
<text text-anchor="start" x="711" y="-381" font-family="Helvetica,sans-Serif" font-size="10.00">/home/travis/build</text>
<text text-anchor="start" x="711" y="-370" font-family="Helvetica,sans-Serif" font-size="10.00">/AliceO2Group/AliceO2</text>
<text text-anchor="start" x="711" y="-359" font-family="Helvetica,sans-Serif" font-size="10.00">/Detectors/MUON/MID/Tracking</text>
<text text-anchor="middle" x="782" y="-348" font-family="Helvetica,sans-Serif" font-size="10.00">/test/testTracker.cxx</text>
</g>
<!-- Node2 -->
<g id="node2" class="node"><title>Node2</title>
<polygon fill="none" stroke="#bfbfbf" points="-0.5,-278.5 -0.5,-297.5 118.5,-297.5 118.5,-278.5 -0.5,-278.5"/>
<text text-anchor="middle" x="59" y="-285.5" font-family="Helvetica,sans-Serif" font-size="10.00">boost/test/unit_test.hpp</text>
</g>
<!-- Node1&#45;&gt;Node2 -->
<g id="edge1" class="edge"><title>Node1&#45;&gt;Node2</title>
<path fill="none" stroke="midnightblue" d="M702.967,-361.66C579.475,-354.174 333.499,-336.423 127,-304 119.443,-302.813 111.468,-301.297 103.743,-299.687"/>
<polygon fill="midnightblue" stroke="midnightblue" points="104.301,-296.226 93.787,-297.535 102.822,-303.068 104.301,-296.226"/>
</g>
<!-- Node3 -->
<g id="node3" class="node"><title>Node3</title>
<polygon fill="none" stroke="#bfbfbf" points="136.5,-273 136.5,-303 279.5,-303 279.5,-273 136.5,-273"/>
<text text-anchor="start" x="144.5" y="-291" font-family="Helvetica,sans-Serif" font-size="10.00">boost/test/data/monomorphic</text>
<text text-anchor="middle" x="208" y="-280" font-family="Helvetica,sans-Serif" font-size="10.00">/generators/xrange.hpp</text>
</g>
<!-- Node1&#45;&gt;Node3 -->
<g id="edge2" class="edge"><title>Node1&#45;&gt;Node3</title>
<path fill="none" stroke="midnightblue" d="M702.652,-357.538C606.988,-346.999 441.136,-327.653 289.865,-304.246"/>
<polygon fill="midnightblue" stroke="midnightblue" points="290.342,-300.778 279.923,-302.698 289.265,-307.695 290.342,-300.778"/>
</g>
<!-- Node4 -->
<g id="node4" class="node"><title>Node4</title>
<polygon fill="none" stroke="#bfbfbf" points="297.5,-273 297.5,-303 398.5,-303 398.5,-273 297.5,-273"/>
<text text-anchor="start" x="305.5" y="-291" font-family="Helvetica,sans-Serif" font-size="10.00">boost/test/data/test</text>
<text text-anchor="middle" x="348" y="-280" font-family="Helvetica,sans-Serif" font-size="10.00">_case.hpp</text>
</g>
<!-- Node1&#45;&gt;Node4 -->
<g id="edge3" class="edge"><title>Node1&#45;&gt;Node4</title>
<path fill="none" stroke="midnightblue" d="M702.928,-354.128C628.038,-342.55 512.545,-323.83 413,-304 411.545,-303.71 410.072,-303.412 408.588,-303.106"/>
<polygon fill="midnightblue" stroke="midnightblue" points="409.187,-299.655 398.678,-301.006 407.735,-306.503 409.187,-299.655"/>
</g>
<!-- Node5 -->
<g id="node5" class="node"><title>Node5</title>
<polygon fill="none" stroke="#bfbfbf" points="410,-210.5 410,-229.5 456,-229.5 456,-210.5 410,-210.5"/>
<text text-anchor="middle" x="433" y="-217.5" font-family="Helvetica,sans-Serif" font-size="10.00">cstdint</text>
</g>
<!-- Node1&#45;&gt;Node5 -->
<g id="edge4" class="edge"><title>Node1&#45;&gt;Node5</title>
<path fill="none" stroke="midnightblue" d="M702.898,-361.745C614.994,-355.296 480.804,-339.761 446,-304 429.58,-287.129 428.698,-258.535 430.288,-239.709"/>
<polygon fill="midnightblue" stroke="midnightblue" points="433.776,-240.014 431.446,-229.679 426.822,-239.212 433.776,-240.014"/>
</g>
<!-- Node6 -->
<g id="node6" class="node"><title>Node6</title>
<polygon fill="none" stroke="#bfbfbf" points="621,-278.5 621,-297.5 673,-297.5 673,-278.5 621,-278.5"/>
<text text-anchor="middle" x="647" y="-285.5" font-family="Helvetica,sans-Serif" font-size="10.00">sstream</text>
</g>
<!-- Node1&#45;&gt;Node6 -->
<g id="edge5" class="edge"><title>Node1&#45;&gt;Node6</title>
<path fill="none" stroke="midnightblue" d="M737.796,-340.787C715.532,-328.088 689.413,-313.191 670.919,-302.643"/>
<polygon fill="midnightblue" stroke="midnightblue" points="672.424,-299.472 662.004,-297.558 668.956,-305.552 672.424,-299.472"/>
</g>
<!-- Node7 -->
<g id="node7" class="node"><title>Node7</title>
<polygon fill="none" stroke="#bfbfbf" points="810,-210.5 810,-229.5 854,-229.5 854,-210.5 810,-210.5"/>
<text text-anchor="middle" x="832" y="-217.5" font-family="Helvetica,sans-Serif" font-size="10.00">vector</text>
</g>
<!-- Node1&#45;&gt;Node7 -->
<g id="edge6" class="edge"><title>Node1&#45;&gt;Node7</title>
<path fill="none" stroke="midnightblue" d="M815.652,-340.859C826.507,-330.742 837.221,-318.114 843,-304 851.666,-282.835 845.524,-256.332 839.503,-239.049"/>
<polygon fill="midnightblue" stroke="midnightblue" points="842.737,-237.706 835.903,-229.609 836.196,-240.2 842.737,-237.706"/>
</g>
<!-- Node8 -->
<g id="node8" class="node"><title>Node8</title>
<polygon fill="none" stroke="#bfbfbf" points="872.5,-210.5 872.5,-229.5 921.5,-229.5 921.5,-210.5 872.5,-210.5"/>
<text text-anchor="middle" x="897" y="-217.5" font-family="Helvetica,sans-Serif" font-size="10.00">random</text>
</g>
<!-- Node1&#45;&gt;Node8 -->
<g id="edge7" class="edge"><title>Node1&#45;&gt;Node8</title>
<path fill="none" stroke="midnightblue" d="M820.005,-340.985C833.561,-330.715 848.146,-317.953 859,-304 874.391,-284.214 885.27,-257.193 891.336,-239.43"/>
<polygon fill="midnightblue" stroke="midnightblue" points="894.732,-240.307 894.489,-229.715 888.073,-238.146 894.732,-240.307"/>
</g>
<!-- Node9 -->
<g id="node9" class="node"><title>Node9</title>
<g id="a_node9"><a xlink:href="../../d6/d31/Cluster2D_8h.html" target="_top" xlink:title="Reconstructed cluster per RPC. ">
<polygon fill="none" stroke="black" points="455,-278.5 455,-297.5 603,-297.5 603,-278.5 455,-278.5"/>
<text text-anchor="middle" x="529" y="-285.5" font-family="Helvetica,sans-Serif" font-size="10.00">DataFormatsMID/Cluster2D.h</text>
</a>
</g>
</g>
<!-- Node1&#45;&gt;Node9 -->
<g id="edge8" class="edge"><title>Node1&#45;&gt;Node9</title>
<path fill="none" stroke="midnightblue" d="M702.99,-341.953C657.533,-328.119 602.506,-311.371 566.674,-300.466"/>
<polygon fill="midnightblue" stroke="midnightblue" points="567.686,-297.116 557.101,-297.552 565.648,-303.812 567.686,-297.116"/>
</g>
<!-- Node11 -->
<g id="node11" class="node"><title>Node11</title>
<g id="a_node11"><a xlink:href="../../d4/d54/DataFormats_2Detectors_2MUON_2MID_2include_2DataFormatsMID_2Track_8h.html" target="_top" xlink:title="Reconstructed MID track. ">
<polygon fill="none" stroke="black" points="1110,-210.5 1110,-229.5 1238,-229.5 1238,-210.5 1110,-210.5"/>
<text text-anchor="middle" x="1174" y="-217.5" font-family="Helvetica,sans-Serif" font-size="10.00">DataFormatsMID/Track.h</text>
</a>
</g>
</g>
<!-- Node1&#45;&gt;Node11 -->
<g id="edge11" class="edge"><title>Node1&#45;&gt;Node11</title>
<path fill="none" stroke="midnightblue" d="M861.033,-356.88C915.403,-348.4 988.14,-332.599 1047,-304 1067.48,-294.05 1068.24,-284.902 1087,-272 1107.08,-258.187 1131.05,-244.315 1148.74,-234.533"/>
<polygon fill="midnightblue" stroke="midnightblue" points="1150.77,-237.416 1157.86,-229.546 1147.41,-231.274 1150.77,-237.416"/>
</g>
<!-- Node28 -->
<g id="node28" class="node"><title>Node28</title>
<g id="a_node28"><a xlink:href="../../d4/d73/MID_2Base_2include_2MIDBase_2Mapping_8h.html" target="_top" xlink:title="Mapping for MID. ">
<polygon fill="none" stroke="black" points="729,-278.5 729,-297.5 835,-297.5 835,-278.5 729,-278.5"/>
<text text-anchor="middle" x="782" y="-285.5" font-family="Helvetica,sans-Serif" font-size="10.00">MIDBase/Mapping.h</text>
</a>
</g>
</g>
<!-- Node1&#45;&gt;Node28 -->
<g id="edge28" class="edge"><title>Node1&#45;&gt;Node28</title>
<path fill="none" stroke="midnightblue" d="M782,-340.787C782,-330.069 782,-317.785 782,-307.871"/>
<polygon fill="midnightblue" stroke="midnightblue" points="785.5,-307.558 782,-297.558 778.5,-307.558 785.5,-307.558"/>
</g>
<!-- Node29 -->
<g id="node29" class="node"><title>Node29</title>
<g id="a_node29"><a xlink:href="../../d7/d0a/MpArea_8h.html" target="_top" xlink:title="Mapping area for MID. ">
<polygon fill="none" stroke="black" points="650.5,-210.5 650.5,-229.5 753.5,-229.5 753.5,-210.5 650.5,-210.5"/>
<text text-anchor="middle" x="702" y="-217.5" font-family="Helvetica,sans-Serif" font-size="10.00">MIDBase/MpArea.h</text>
</a>
</g>
</g>
<!-- Node1&#45;&gt;Node29 -->
<g id="edge33" class="edge"><title>Node1&#45;&gt;Node29</title>
<path fill="none" stroke="midnightblue" d="M750.081,-340.782C739.013,-330.488 727.51,-317.764 720,-304 708.935,-283.72 704.672,-257.174 703.029,-239.628"/>
<polygon fill="midnightblue" stroke="midnightblue" points="706.512,-239.268 702.283,-229.554 699.531,-239.785 706.512,-239.268"/>
</g>
<!-- Node30 -->
<g id="node30" class="node"><title>Node30</title>
<g id="a_node30"><a xlink:href="../../d7/d40/HitFinder_8h.html" target="_top" xlink:title="Hit finder for MID. ">
<polygon fill="none" stroke="black" points="1095.5,-278.5 1095.5,-297.5 1204.5,-297.5 1204.5,-278.5 1095.5,-278.5"/>
<text text-anchor="middle" x="1150" y="-285.5" font-family="Helvetica,sans-Serif" font-size="10.00">MIDBase/HitFinder.h</text>
</a>
</g>
</g>
<!-- Node1&#45;&gt;Node30 -->
<g id="edge34" class="edge"><title>Node1&#45;&gt;Node30</title>
<path fill="none" stroke="midnightblue" d="M861.049,-349.824C921.35,-337.432 1006.45,-319.831 1081,-304 1087.53,-302.614 1094.4,-301.14 1101.17,-299.677"/>
<polygon fill="midnightblue" stroke="midnightblue" points="1101.94,-303.091 1110.97,-297.553 1100.45,-296.25 1101.94,-303.091"/>
</g>
<!-- Node33 -->
<g id="node33" class="node"><title>Node33</title>
<g id="a_node33"><a xlink:href="../../d3/d93/TrackGenerator_8h.html" target="_top" xlink:title="Fast track generator for MID. ">
<polygon fill="none" stroke="black" points="929.5,-273 929.5,-303 1038.5,-303 1038.5,-273 929.5,-273"/>
<text text-anchor="start" x="937.5" y="-291" font-family="Helvetica,sans-Serif" font-size="10.00">MIDTestingSimTools</text>
<text text-anchor="middle" x="984" y="-280" font-family="Helvetica,sans-Serif" font-size="10.00">/TrackGenerator.h</text>
</a>
</g>
</g>
<!-- Node1&#45;&gt;Node33 -->
<g id="edge42" class="edge"><title>Node1&#45;&gt;Node33</title>
<path fill="none" stroke="midnightblue" d="M847.863,-340.894C877.189,-329.715 911.03,-316.815 937.636,-306.673"/>
<polygon fill="midnightblue" stroke="midnightblue" points="938.991,-309.903 947.089,-303.07 936.498,-303.362 938.991,-309.903"/>
</g>
<!-- Node34 -->
<g id="node34" class="node"><title>Node34</title>
<polygon fill="none" stroke="#bfbfbf" points="1223,-278.5 1223,-297.5 1281,-297.5 1281,-278.5 1223,-278.5"/>
<text text-anchor="middle" x="1252" y="-285.5" font-family="Helvetica,sans-Serif" font-size="10.00">Tracker.h</text>
</g>
<!-- Node1&#45;&gt;Node34 -->
<g id="edge47" class="edge"><title>Node1&#45;&gt;Node34</title>
<path fill="none" stroke="midnightblue" d="M861.306,-359.959C948.58,-352.076 1092.48,-335.419 1213,-304 1216.23,-303.158 1219.56,-302.135 1222.84,-301.022"/>
<polygon fill="midnightblue" stroke="midnightblue" points="1224.25,-304.232 1232.44,-297.508 1221.85,-297.659 1224.25,-304.232"/>
</g>
<!-- Node35 -->
<g id="node35" class="node"><title>Node35</title>
<polygon fill="none" stroke="#bfbfbf" points="1299.5,-278.5 1299.5,-297.5 1370.5,-297.5 1370.5,-278.5 1299.5,-278.5"/>
<text text-anchor="middle" x="1335" y="-285.5" font-family="Helvetica,sans-Serif" font-size="10.00">FairLogger.h</text>
</g>
<!-- Node1&#45;&gt;Node35 -->
<g id="edge48" class="edge"><title>Node1&#45;&gt;Node35</title>
<path fill="none" stroke="midnightblue" d="M861.405,-361.063C961.901,-353.728 1139.88,-337.102 1289,-304 1293.24,-303.058 1297.65,-301.884 1301.98,-300.61"/>
<polygon fill="midnightblue" stroke="midnightblue" points="1303.35,-303.851 1311.84,-297.519 1301.25,-297.171 1303.35,-303.851"/>
</g>
<!-- Node9&#45;&gt;Node5 -->
<g id="edge10" class="edge"><title>Node9&#45;&gt;Node5</title>
<path fill="none" stroke="midnightblue" d="M516.45,-278.372C500.567,-267.452 472.984,-248.489 453.9,-235.369"/>
<polygon fill="midnightblue" stroke="midnightblue" points="455.777,-232.412 445.553,-229.63 451.811,-238.18 455.777,-232.412"/>
</g>
<!-- Node10 -->
<g id="node10" class="node"><title>Node10</title>
<polygon fill="none" stroke="#bfbfbf" points="481.5,-205 481.5,-235 576.5,-235 576.5,-205 481.5,-205"/>
<text text-anchor="start" x="489.5" y="-223" font-family="Helvetica,sans-Serif" font-size="10.00">boost/serialization</text>
<text text-anchor="middle" x="529" y="-212" font-family="Helvetica,sans-Serif" font-size="10.00">/access.hpp</text>
</g>
<!-- Node9&#45;&gt;Node10 -->
<g id="edge9" class="edge"><title>Node9&#45;&gt;Node10</title>
<path fill="none" stroke="midnightblue" d="M529,-278.372C529,-269.971 529,-256.811 529,-245.213"/>
<polygon fill="midnightblue" stroke="midnightblue" points="532.5,-245.181 529,-235.181 525.5,-245.181 532.5,-245.181"/>
</g>
<!-- Node12 -->
<g id="node12" class="node"><title>Node12</title>
<polygon fill="none" stroke="#bfbfbf" points="948,-142.5 948,-161.5 986,-161.5 986,-142.5 948,-142.5"/>
<text text-anchor="middle" x="967" y="-149.5" font-family="Helvetica,sans-Serif" font-size="10.00">array</text>
</g>
<!-- Node11&#45;&gt;Node12 -->
<g id="edge12" class="edge"><title>Node11&#45;&gt;Node12</title>
<path fill="none" stroke="midnightblue" d="M1146.94,-210.372C1107.82,-197.9 1035.8,-174.935 995.755,-162.168"/>
<polygon fill="midnightblue" stroke="midnightblue" points="996.659,-158.783 986.068,-159.08 994.533,-165.452 996.659,-158.783"/>
</g>
<!-- Node13 -->
<g id="node13" class="node"><title>Node13</title>
<polygon fill="none" stroke="#bfbfbf" points="1038,-142.5 1038,-161.5 1090,-161.5 1090,-142.5 1038,-142.5"/>
<text text-anchor="middle" x="1064" y="-149.5" font-family="Helvetica,sans-Serif" font-size="10.00">ostream</text>
</g>
<!-- Node11&#45;&gt;Node13 -->
<g id="edge13" class="edge"><title>Node11&#45;&gt;Node13</title>
<path fill="none" stroke="midnightblue" d="M1159.62,-210.372C1141.17,-199.304 1108.95,-179.972 1087.06,-166.838"/>
<polygon fill="midnightblue" stroke="midnightblue" points="1088.76,-163.774 1078.38,-161.63 1085.16,-169.777 1088.76,-163.774"/>
</g>
<!-- Node14 -->
<g id="node14" class="node"><title>Node14</title>
<polygon fill="none" stroke="#bfbfbf" points="1108.5,-137 1108.5,-167 1205.5,-167 1205.5,-137 1108.5,-137"/>
<text text-anchor="start" x="1116.5" y="-155" font-family="Helvetica,sans-Serif" font-size="10.00">boost/serialization</text>
<text text-anchor="middle" x="1157" y="-144" font-family="Helvetica,sans-Serif" font-size="10.00">/split_member.hpp</text>
</g>
<!-- Node11&#45;&gt;Node14 -->
<g id="edge14" class="edge"><title>Node11&#45;&gt;Node14</title>
<path fill="none" stroke="midnightblue" d="M1171.78,-210.372C1169.61,-201.971 1166.22,-188.811 1163.24,-177.213"/>
<polygon fill="midnightblue" stroke="midnightblue" points="1166.54,-175.992 1160.65,-167.181 1159.76,-177.738 1166.54,-175.992"/>
</g>
<!-- Node15 -->
<g id="node15" class="node"><title>Node15</title>
<polygon fill="none" stroke="#bfbfbf" points="1223.5,-137 1223.5,-167 1318.5,-167 1318.5,-137 1223.5,-137"/>
<text text-anchor="start" x="1231.5" y="-155" font-family="Helvetica,sans-Serif" font-size="10.00">boost/serialization</text>
<text text-anchor="middle" x="1271" y="-144" font-family="Helvetica,sans-Serif" font-size="10.00">/array.hpp</text>
</g>
<!-- Node11&#45;&gt;Node15 -->
<g id="edge15" class="edge"><title>Node11&#45;&gt;Node15</title>
<path fill="none" stroke="midnightblue" d="M1186.68,-210.372C1200.54,-200.943 1223.21,-185.517 1241.56,-173.034"/>
<polygon fill="midnightblue" stroke="midnightblue" points="1243.86,-175.701 1250.16,-167.181 1239.92,-169.913 1243.86,-175.701"/>
</g>
<!-- Node16 -->
<g id="node16" class="node"><title>Node16</title>
<g id="a_node16"><a xlink:href="../../dd/d76/Cartesian3D_8h.html" target="_top" xlink:title="MathUtils/Cartesian3D.h">
<polygon fill="none" stroke="black" points="1336.5,-142.5 1336.5,-161.5 1461.5,-161.5 1461.5,-142.5 1336.5,-142.5"/>
<text text-anchor="middle" x="1399" y="-149.5" font-family="Helvetica,sans-Serif" font-size="10.00">MathUtils/Cartesian3D.h</text>
</a>
</g>
</g>
<!-- Node11&#45;&gt;Node16 -->
<g id="edge16" class="edge"><title>Node11&#45;&gt;Node16</title>
<path fill="none" stroke="midnightblue" d="M1203.41,-210.372C1243.61,-198.58 1315.79,-177.407 1360.33,-164.343"/>
<polygon fill="midnightblue" stroke="midnightblue" points="1361.32,-167.699 1369.93,-161.526 1359.35,-160.982 1361.32,-167.699"/>
</g>
<!-- Node17 -->
<g id="node17" class="node"><title>Node17</title>
<polygon fill="none" stroke="#bfbfbf" points="614.5,-69 614.5,-99 765.5,-99 765.5,-69 614.5,-69"/>
<text text-anchor="start" x="622.5" y="-87" font-family="Helvetica,sans-Serif" font-size="10.00">Math/GenVector/Displacement</text>
<text text-anchor="middle" x="690" y="-76" font-family="Helvetica,sans-Serif" font-size="10.00">Vector3D.h</text>
</g>
<!-- Node16&#45;&gt;Node17 -->
<g id="edge17" class="edge"><title>Node16&#45;&gt;Node17</title>
<path fill="none" stroke="midnightblue" d="M1362.91,-142.448C1351.49,-140.019 1338.77,-137.601 1327,-136 1086.72,-103.3 1020.88,-128.692 776.217,-100.048"/>
<polygon fill="midnightblue" stroke="midnightblue" points="776.282,-96.5314 765.939,-98.8257 775.455,-103.482 776.282,-96.5314"/>
</g>
<!-- Node18 -->
<g id="node18" class="node"><title>Node18</title>
<polygon fill="none" stroke="#bfbfbf" points="784,-74.5 784,-93.5 960,-93.5 960,-74.5 784,-74.5"/>
<text text-anchor="middle" x="872" y="-81.5" font-family="Helvetica,sans-Serif" font-size="10.00">Math/GenVector/PositionVector3D.h</text>
</g>
<!-- Node16&#45;&gt;Node18 -->
<g id="edge18" class="edge"><title>Node16&#45;&gt;Node18</title>
<path fill="none" stroke="midnightblue" d="M1361.77,-142.465C1350.63,-140.122 1338.36,-137.749 1327,-136 1168.95,-111.659 1127.63,-120.226 969,-100 957.626,-98.5497 945.529,-96.8255 933.876,-95.0715"/>
<polygon fill="midnightblue" stroke="midnightblue" points="934.193,-91.5794 923.779,-93.5287 933.135,-98.4991 934.193,-91.5794"/>
</g>
<!-- Node19 -->
<g id="node19" class="node"><title>Node19</title>
<polygon fill="none" stroke="#bfbfbf" points="977.5,-74.5 977.5,-93.5 1126.5,-93.5 1126.5,-74.5 977.5,-74.5"/>
<text text-anchor="middle" x="1052" y="-81.5" font-family="Helvetica,sans-Serif" font-size="10.00">Math/GenVector/Rotation3D.h</text>
</g>
<!-- Node16&#45;&gt;Node19 -->
<g id="edge19" class="edge"><title>Node16&#45;&gt;Node19</title>
<path fill="none" stroke="midnightblue" d="M1358.67,-142.434C1348.35,-140.288 1337.27,-138.022 1327,-136 1252.1,-121.254 1165.48,-105.385 1109.78,-95.3343"/>
<polygon fill="midnightblue" stroke="midnightblue" points="1110.22,-91.8559 1099.75,-93.5268 1108.97,-98.7449 1110.22,-91.8559"/>
</g>
<!-- Node20 -->
<g id="node20" class="node"><title>Node20</title>
<polygon fill="none" stroke="#bfbfbf" points="1145,-74.5 1145,-93.5 1301,-93.5 1301,-74.5 1145,-74.5"/>
<text text-anchor="middle" x="1223" y="-81.5" font-family="Helvetica,sans-Serif" font-size="10.00">Math/GenVector/Transform3D.h</text>
</g>
<!-- Node16&#45;&gt;Node20 -->
<g id="edge20" class="edge"><title>Node16&#45;&gt;Node20</title>
<path fill="none" stroke="midnightblue" d="M1375.99,-142.372C1345.21,-130.827 1290.45,-110.293 1255.47,-97.1772"/>
<polygon fill="midnightblue" stroke="midnightblue" points="1256.33,-93.76 1245.74,-93.5259 1253.87,-100.314 1256.33,-93.76"/>
</g>
<!-- Node21 -->
<g id="node21" class="node"><title>Node21</title>
<polygon fill="none" stroke="#bfbfbf" points="1319,-74.5 1319,-93.5 1479,-93.5 1479,-74.5 1319,-74.5"/>
<text text-anchor="middle" x="1399" y="-81.5" font-family="Helvetica,sans-Serif" font-size="10.00">Math/GenVector/Translation3D.h</text>
</g>
<!-- Node16&#45;&gt;Node21 -->
<g id="edge21" class="edge"><title>Node16&#45;&gt;Node21</title>
<path fill="none" stroke="midnightblue" d="M1399,-142.372C1399,-132.643 1399,-116.528 1399,-103.85"/>
<polygon fill="midnightblue" stroke="midnightblue" points="1402.5,-103.841 1399,-93.8411 1395.5,-103.841 1402.5,-103.841"/>
</g>
<!-- Node22 -->
<g id="node22" class="node"><title>Node22</title>
<polygon fill="none" stroke="#bfbfbf" points="1497,-74.5 1497,-93.5 1553,-93.5 1553,-74.5 1497,-74.5"/>
<text text-anchor="middle" x="1525" y="-81.5" font-family="Helvetica,sans-Serif" font-size="10.00">Rtypes.h</text>
</g>
<!-- Node16&#45;&gt;Node22 -->
<g id="edge22" class="edge"><title>Node16&#45;&gt;Node22</title>
<path fill="none" stroke="midnightblue" d="M1415.47,-142.372C1436.88,-131.156 1474.5,-111.453 1499.58,-98.3136"/>
<polygon fill="midnightblue" stroke="midnightblue" points="1501.29,-101.371 1508.52,-93.6305 1498.04,-95.1702 1501.29,-101.371"/>
</g>
<!-- Node23 -->
<g id="node23" class="node"><title>Node23</title>
<polygon fill="none" stroke="#bfbfbf" points="1571,-74.5 1571,-93.5 1647,-93.5 1647,-74.5 1571,-74.5"/>
<text text-anchor="middle" x="1609" y="-81.5" font-family="Helvetica,sans-Serif" font-size="10.00">TGeoMatrix.h</text>
</g>
<!-- Node16&#45;&gt;Node23 -->
<g id="edge23" class="edge"><title>Node16&#45;&gt;Node23</title>
<path fill="none" stroke="midnightblue" d="M1426.45,-142.372C1463.74,-130.654 1530.49,-109.674 1572.12,-96.5912"/>
<polygon fill="midnightblue" stroke="midnightblue" points="1573.38,-99.8632 1581.87,-93.5259 1571.28,-93.1852 1573.38,-99.8632"/>
</g>
<!-- Node24 -->
<g id="node24" class="node"><title>Node24</title>
<polygon fill="none" stroke="#bfbfbf" points="1665.5,-74.5 1665.5,-93.5 1710.5,-93.5 1710.5,-74.5 1665.5,-74.5"/>
<text text-anchor="middle" x="1688" y="-81.5" font-family="Helvetica,sans-Serif" font-size="10.00">iosfwd</text>
</g>
<!-- Node16&#45;&gt;Node24 -->
<g id="edge24" class="edge"><title>Node16&#45;&gt;Node24</title>
<path fill="none" stroke="midnightblue" d="M1461.62,-142.914C1514.34,-135.083 1591.28,-121.241 1656,-100 1658.13,-99.3005 1660.31,-98.4948 1662.47,-97.6275"/>
<polygon fill="midnightblue" stroke="midnightblue" points="1663.96,-100.798 1671.7,-93.5696 1661.14,-94.3892 1663.96,-100.798"/>
</g>
<!-- Node25 -->
<g id="node25" class="node"><title>Node25</title>
<g id="a_node25"><a xlink:href="../../d2/dd0/Cartesian2D_8h.html" target="_top" xlink:title="MathUtils/Cartesian2D.h">
<polygon fill="none" stroke="black" points="1728.5,-74.5 1728.5,-93.5 1853.5,-93.5 1853.5,-74.5 1728.5,-74.5"/>
<text text-anchor="middle" x="1791" y="-81.5" font-family="Helvetica,sans-Serif" font-size="10.00">MathUtils/Cartesian2D.h</text>
</a>
</g>
</g>
<!-- Node16&#45;&gt;Node25 -->
<g id="edge25" class="edge"><title>Node16&#45;&gt;Node25</title>
<path fill="none" stroke="midnightblue" d="M1457.83,-142.478C1522.13,-132.964 1628.12,-116.699 1719,-100 1726.42,-98.6362 1734.25,-97.1026 1741.91,-95.5504"/>
<polygon fill="midnightblue" stroke="midnightblue" points="1742.74,-98.9537 1751.83,-93.5117 1741.33,-92.097 1742.74,-98.9537"/>
</g>
<!-- Node26 -->
<g id="node26" class="node"><title>Node26</title>
<polygon fill="none" stroke="#bfbfbf" points="1624.5,-1 1624.5,-31 1775.5,-31 1775.5,-1 1624.5,-1"/>
<text text-anchor="start" x="1632.5" y="-19" font-family="Helvetica,sans-Serif" font-size="10.00">Math/GenVector/Displacement</text>
<text text-anchor="middle" x="1700" y="-8" font-family="Helvetica,sans-Serif" font-size="10.00">Vector2D.h</text>
</g>
<!-- Node25&#45;&gt;Node26 -->
<g id="edge26" class="edge"><title>Node25&#45;&gt;Node26</title>
<path fill="none" stroke="midnightblue" d="M1779.1,-74.3717C1766.22,-65.0286 1745.22,-49.7966 1728.09,-37.375"/>
<polygon fill="midnightblue" stroke="midnightblue" points="1729.7,-34.2194 1719.55,-31.1815 1725.59,-39.8859 1729.7,-34.2194"/>
</g>
<!-- Node27 -->
<g id="node27" class="node"><title>Node27</title>
<polygon fill="none" stroke="#bfbfbf" points="1794,-6.5 1794,-25.5 1970,-25.5 1970,-6.5 1794,-6.5"/>
<text text-anchor="middle" x="1882" y="-13.5" font-family="Helvetica,sans-Serif" font-size="10.00">Math/GenVector/PositionVector2D.h</text>
</g>
<!-- Node25&#45;&gt;Node27 -->
<g id="edge27" class="edge"><title>Node25&#45;&gt;Node27</title>
<path fill="none" stroke="midnightblue" d="M1802.9,-74.3717C1817.88,-63.5015 1843.86,-44.6602 1861.94,-31.5474"/>
<polygon fill="midnightblue" stroke="midnightblue" points="1864.06,-34.3349 1870.1,-25.6305 1859.95,-28.6684 1864.06,-34.3349"/>
</g>
<!-- Node28&#45;&gt;Node7 -->
<g id="edge30" class="edge"><title>Node28&#45;&gt;Node7</title>
<path fill="none" stroke="midnightblue" d="M788.537,-278.372C796.279,-268.151 809.361,-250.884 819.154,-237.957"/>
<polygon fill="midnightblue" stroke="midnightblue" points="822.053,-239.926 825.302,-229.841 816.474,-235.699 822.053,-239.926"/>
</g>
<!-- Node28&#45;&gt;Node12 -->
<g id="edge29" class="edge"><title>Node28&#45;&gt;Node12</title>
<path fill="none" stroke="midnightblue" d="M781.368,-278.449C780.632,-261.84 781.476,-225.005 801,-204 836.682,-165.612 900.45,-155.842 937.706,-153.525"/>
<polygon fill="midnightblue" stroke="midnightblue" points="938.09,-157.011 947.912,-153.037 937.756,-150.019 938.09,-157.011"/>
</g>
<!-- Node28&#45;&gt;Node29 -->
<g id="edge31" class="edge"><title>Node28&#45;&gt;Node29</title>
<path fill="none" stroke="midnightblue" d="M771.541,-278.372C758.605,-267.699 736.355,-249.343 720.507,-236.268"/>
<polygon fill="midnightblue" stroke="midnightblue" points="722.402,-233.295 712.461,-229.63 717.948,-238.694 722.402,-233.295"/>
</g>
<!-- Node29&#45;&gt;Node12 -->
<g id="edge32" class="edge"><title>Node29&#45;&gt;Node12</title>
<path fill="none" stroke="midnightblue" d="M736.372,-210.439C788.952,-197.344 888.434,-172.567 937.758,-160.283"/>
<polygon fill="midnightblue" stroke="midnightblue" points="938.909,-163.603 947.766,-157.79 937.217,-156.811 938.909,-163.603"/>
</g>
<!-- Node30&#45;&gt;Node11 -->
<g id="edge36" class="edge"><title>Node30&#45;&gt;Node11</title>
<path fill="none" stroke="midnightblue" d="M1153.14,-278.372C1156.71,-268.544 1162.65,-252.202 1167.28,-239.467"/>
<polygon fill="midnightblue" stroke="midnightblue" points="1170.66,-240.435 1170.79,-229.841 1164.08,-238.043 1170.66,-240.435"/>
</g>
<!-- Node30&#45;&gt;Node16 -->
<g id="edge35" class="edge"><title>Node30&#45;&gt;Node16</title>
<path fill="none" stroke="midnightblue" d="M1184.45,-278.496C1194,-276.258 1204.38,-273.931 1214,-272 1261.5,-262.468 1397.7,-272.975 1429,-236 1445.33,-216.704 1428.15,-187.802 1413.87,-169.692"/>
<polygon fill="midnightblue" stroke="midnightblue" points="1416.34,-167.196 1407.25,-161.759 1410.97,-171.68 1416.34,-167.196"/>
</g>
<!-- Node31 -->
<g id="node31" class="node"><title>Node31</title>
<g id="a_node31"><a xlink:href="../../de/d0c/GeometryTransformer_8h.html" target="_top" xlink:title="Geometry transformer for MID. ">
<polygon fill="none" stroke="black" points="1256,-210.5 1256,-229.5 1420,-229.5 1420,-210.5 1256,-210.5"/>
<text text-anchor="middle" x="1338" y="-217.5" font-family="Helvetica,sans-Serif" font-size="10.00">MIDBase/GeometryTransformer.h</text>
</a>
</g>
</g>
<!-- Node30&#45;&gt;Node31 -->
<g id="edge37" class="edge"><title>Node30&#45;&gt;Node31</title>
<path fill="none" stroke="midnightblue" d="M1174.58,-278.372C1207.74,-266.728 1266.96,-245.939 1304.27,-232.841"/>
<polygon fill="midnightblue" stroke="midnightblue" points="1305.44,-236.141 1313.71,-229.526 1303.12,-229.536 1305.44,-236.141"/>
</g>
<!-- Node32 -->
<g id="node32" class="node"><title>Node32</title>
<g id="a_node32"><a xlink:href="../../dd/df0/Detectors_2MUON_2MID_2Base_2include_2MIDBase_2Constants_8h.html" target="_top" xlink:title="Useful constants for MID. ">
<polygon fill="none" stroke="black" points="978,-210.5 978,-229.5 1092,-229.5 1092,-210.5 978,-210.5"/>
<text text-anchor="middle" x="1035" y="-217.5" font-family="Helvetica,sans-Serif" font-size="10.00">MIDBase/Constants.h</text>
</a>
</g>
</g>
<!-- Node30&#45;&gt;Node32 -->
<g id="edge40" class="edge"><title>Node30&#45;&gt;Node32</title>
<path fill="none" stroke="midnightblue" d="M1134.97,-278.372C1115.59,-267.254 1081.7,-247.8 1058.81,-234.662"/>
<polygon fill="midnightblue" stroke="midnightblue" points="1060.45,-231.573 1050.04,-229.63 1056.97,-237.644 1060.45,-231.573"/>
</g>
<!-- Node31&#45;&gt;Node12 -->
<g id="edge38" class="edge"><title>Node31&#45;&gt;Node12</title>
<path fill="none" stroke="midnightblue" d="M1286.25,-210.472C1198.69,-196.039 1030.58,-168.32 1029,-168 1018.17,-165.8 1006.37,-163.037 995.998,-160.484"/>
<polygon fill="midnightblue" stroke="midnightblue" points="996.739,-157.062 986.188,-158.029 995.039,-163.852 996.739,-157.062"/>
</g>
<!-- Node31&#45;&gt;Node16 -->
<g id="edge39" class="edge"><title>Node31&#45;&gt;Node16</title>
<path fill="none" stroke="midnightblue" d="M1345.97,-210.372C1355.6,-199.955 1372,-182.217 1384.01,-169.216"/>
<polygon fill="midnightblue" stroke="midnightblue" points="1386.61,-171.561 1390.83,-161.841 1381.47,-166.809 1386.61,-171.561"/>
</g>
<!-- Node32&#45;&gt;Node12 -->
<g id="edge41" class="edge"><title>Node32&#45;&gt;Node12</title>
<path fill="none" stroke="midnightblue" d="M1026.11,-210.372C1015.28,-199.856 996.757,-181.882 983.33,-168.85"/>
<polygon fill="midnightblue" stroke="midnightblue" points="985.723,-166.294 976.109,-161.841 980.847,-171.317 985.723,-166.294"/>
</g>
<!-- Node33&#45;&gt;Node7 -->
<g id="edge44" class="edge"><title>Node33&#45;&gt;Node7</title>
<path fill="none" stroke="midnightblue" d="M949.977,-272.929C925.875,-262.866 892.832,-248.879 864,-236 862.421,-235.295 860.802,-234.563 859.17,-233.819"/>
<polygon fill="midnightblue" stroke="midnightblue" points="860.433,-230.546 849.887,-229.525 857.494,-236.9 860.433,-230.546"/>
</g>
<!-- Node33&#45;&gt;Node8 -->
<g id="edge45" class="edge"><title>Node33&#45;&gt;Node8</title>
<path fill="none" stroke="midnightblue" d="M965.122,-272.679C950.886,-261.879 931.402,-247.098 916.918,-236.11"/>
<polygon fill="midnightblue" stroke="midnightblue" points="918.72,-233.084 908.637,-229.828 914.489,-238.661 918.72,-233.084"/>
</g>
<!-- Node33&#45;&gt;Node11 -->
<g id="edge46" class="edge"><title>Node33&#45;&gt;Node11</title>
<path fill="none" stroke="midnightblue" d="M1024.76,-272.841C1059.05,-260.93 1107.52,-244.094 1139.81,-232.876"/>
<polygon fill="midnightblue" stroke="midnightblue" points="1140.98,-236.174 1149.28,-229.587 1138.69,-229.562 1140.98,-236.174"/>
</g>
<!-- Node33&#45;&gt;Node12 -->
<g id="edge43" class="edge"><title>Node33&#45;&gt;Node12</title>
<path fill="none" stroke="midnightblue" d="M978.781,-272.939C975.295,-262.822 970.996,-248.766 969,-236 965.599,-214.247 965.545,-188.903 966.054,-171.998"/>
<polygon fill="midnightblue" stroke="midnightblue" points="969.56,-171.922 966.462,-161.79 962.565,-171.643 969.56,-171.922"/>
</g>
</g>
</svg>
