<?xml version="1.0" encoding="UTF-8" standalone="no"?>
<!DOCTYPE svg PUBLIC "-//W3C//DTD SVG 1.1//EN"
 "http://www.w3.org/Graphics/SVG/1.1/DTD/svg11.dtd">
<!-- Generated by graphviz version 2.36.0 (20140111.2315)
 -->
<!-- Title: /home/travis/build/AliceO2Group/AliceO2/Framework/Core/include/Framework/CallbackRegistry.h Pages: 1 -->
<svg width="328pt" height="174pt"
 viewBox="0.00 0.00 328.00 174.00" xmlns="http://www.w3.org/2000/svg" xmlns:xlink="http://www.w3.org/1999/xlink">
<g id="graph0" class="graph" transform="scale(1 1) rotate(0) translate(4 170)">
<title>/home/travis/build/AliceO2Group/AliceO2/Framework/Core/include/Framework/CallbackRegistry.h</title>
<!-- Node1 -->
<g id="node1" class="node"><title>Node1</title>
<polygon fill="#bfbfbf" stroke="black" points="120.5,-113 120.5,-165 275.5,-165 275.5,-113 120.5,-113"/>
<text text-anchor="start" x="128.5" y="-153" font-family="Helvetica,sans-Serif" font-size="10.00">/home/travis/build</text>
<text text-anchor="start" x="128.5" y="-142" font-family="Helvetica,sans-Serif" font-size="10.00">/AliceO2Group/AliceO2</text>
<text text-anchor="start" x="128.5" y="-131" font-family="Helvetica,sans-Serif" font-size="10.00">/Framework/Core/include</text>
<text text-anchor="middle" x="198" y="-120" font-family="Helvetica,sans-Serif" font-size="10.00">/Framework/CallbackRegistry.h</text>
</g>
<!-- Node2 -->
<g id="node2" class="node"><title>Node2</title>
<g id="a_node2"><a xlink:href="../../d0/d95/TypeTraits_8h.html" target="_top" xlink:title="Framework/TypeTraits.h">
<polygon fill="none" stroke="black" points="4.5,-56.5 4.5,-75.5 127.5,-75.5 127.5,-56.5 4.5,-56.5"/>
<text text-anchor="middle" x="66" y="-63.5" font-family="Helvetica,sans-Serif" font-size="10.00">Framework/TypeTraits.h</text>
</a>
</g>
</g>
<!-- Node1&#45;&gt;Node2 -->
<g id="edge1" class="edge"><title>Node1&#45;&gt;Node2</title>
<path fill="none" stroke="midnightblue" d="M151.462,-112.968C131.234,-102.088 108.328,-89.7673 91.325,-80.6218"/>
<polygon fill="midnightblue" stroke="midnightblue" points="92.5259,-77.2936 82.061,-75.6389 89.2099,-83.4584 92.5259,-77.2936"/>
</g>
<!-- Node5 -->
<g id="node5" class="node"><title>Node5</title>
<polygon fill="none" stroke="#bfbfbf" points="146,-56.5 146,-75.5 184,-75.5 184,-56.5 146,-56.5"/>
<text text-anchor="middle" x="165" y="-63.5" font-family="Helvetica,sans-Serif" font-size="10.00">tuple</text>
</g>
<!-- Node1&#45;&gt;Node5 -->
<g id="edge4" class="edge"><title>Node1&#45;&gt;Node5</title>
<path fill="none" stroke="midnightblue" d="M186.273,-112.768C182.005,-103.587 177.272,-93.4034 173.356,-84.9775"/>
<polygon fill="midnightblue" stroke="midnightblue" points="176.459,-83.3503 169.07,-75.7572 170.111,-86.3007 176.459,-83.3503"/>
</g>
<!-- Node6 -->
<g id="node6" class="node"><title>Node6</title>
<polygon fill="none" stroke="#bfbfbf" points="202.5,-56.5 202.5,-75.5 261.5,-75.5 261.5,-56.5 202.5,-56.5"/>
<text text-anchor="middle" x="232" y="-63.5" font-family="Helvetica,sans-Serif" font-size="10.00">stdexcept</text>
</g>
<!-- Node1&#45;&gt;Node6 -->
<g id="edge5" class="edge"><title>Node1&#45;&gt;Node6</title>
<path fill="none" stroke="midnightblue" d="M210.083,-112.768C214.479,-103.587 219.356,-93.4034 223.391,-84.9775"/>
<polygon fill="midnightblue" stroke="midnightblue" points="226.644,-86.288 227.806,-75.7572 220.331,-83.2647 226.644,-86.288"/>
</g>
<!-- Node7 -->
<g id="node7" class="node"><title>Node7</title>
<polygon fill="none" stroke="#bfbfbf" points="280,-56.5 280,-75.5 320,-75.5 320,-56.5 280,-56.5"/>
<text text-anchor="middle" x="300" y="-63.5" font-family="Helvetica,sans-Serif" font-size="10.00">utility</text>
</g>
<!-- Node1&#45;&gt;Node7 -->
<g id="edge6" class="edge"><title>Node1&#45;&gt;Node7</title>
<path fill="none" stroke="midnightblue" d="M233.961,-112.968C249.06,-102.458 266.091,-90.6034 279.075,-81.5655"/>
<polygon fill="midnightblue" stroke="midnightblue" points="281.136,-84.3952 287.344,-75.8095 277.137,-78.65 281.136,-84.3952"/>
</g>
<!-- Node3 -->
<g id="node3" class="node"><title>Node3</title>
<polygon fill="none" stroke="#bfbfbf" points="0,-0.5 0,-19.5 62,-19.5 62,-0.5 0,-0.5"/>
<text text-anchor="middle" x="31" y="-7.5" font-family="Helvetica,sans-Serif" font-size="10.00">type_traits</text>
</g>
<!-- Node2&#45;&gt;Node3 -->
<g id="edge2" class="edge"><title>Node2&#45;&gt;Node3</title>
<path fill="none" stroke="midnightblue" d="M60.2205,-56.083C55.3276,-48.5341 48.1726,-37.4948 42.1674,-28.2298"/>
<polygon fill="midnightblue" stroke="midnightblue" points="45.048,-26.239 36.672,-19.7511 39.174,-30.0463 45.048,-26.239"/>
</g>
<!-- Node4 -->
<g id="node4" class="node"><title>Node4</title>
<polygon fill="none" stroke="#bfbfbf" points="80,-0.5 80,-19.5 124,-19.5 124,-0.5 80,-0.5"/>
<text text-anchor="middle" x="102" y="-7.5" font-family="Helvetica,sans-Serif" font-size="10.00">vector</text>
</g>
<!-- Node2&#45;&gt;Node4 -->
<g id="edge3" class="edge"><title>Node2&#45;&gt;Node4</title>
<path fill="none" stroke="midnightblue" d="M71.9447,-56.083C76.9773,-48.5341 84.3368,-37.4948 90.5135,-28.2298"/>
<polygon fill="midnightblue" stroke="midnightblue" points="93.5311,-30.0131 96.1659,-19.7511 87.7067,-26.1301 93.5311,-30.0131"/>
</g>
</g>
</svg>
