<?xml version="1.0" encoding="UTF-8" standalone="no"?>
<!DOCTYPE svg PUBLIC "-//W3C//DTD SVG 1.1//EN"
 "http://www.w3.org/Graphics/SVG/1.1/DTD/svg11.dtd">
<!-- Generated by graphviz version 2.36.0 (20140111.2315)
 -->
<!-- Title: /home/travis/build/AliceO2Group/AliceO2/Detectors/EMCAL/testsimulation/drawEMCALgeometry.C Pages: 1 -->
<!--zoomable 434 -->
<svg id="main" version="1.1" xmlns="http://www.w3.org/2000/svg" xmlns:xlink="http://www.w3.org/1999/xlink" xml:space="preserve" onload="init(evt)">
<style type="text/css"><![CDATA[
.edge:hover path { stroke: red; }
.edge:hover polygon { stroke: red; fill: red; }
]]></style>
<script type="text/javascript"><![CDATA[
var edges = document.getElementsByTagName('g');
if (edges && edges.length) {
  for (var i=0;i<edges.length;i++) {
    if (edges[i].id.substr(0,4)=='edge') {
      edges[i].setAttribute('class','edge');
    }
  }
}
]]></script>
        <defs>
                <circle id="rim" cx="0" cy="0" r="7"/>
                <circle id="rim2" cx="0" cy="0" r="3.5"/>
                <g id="zoomPlus">
                        <use xlink:href="#rim" fill="#404040">
                                <set attributeName="fill" to="#808080" begin="zoomplus.mouseover" end="zoomplus.mouseout"/>
                        </use>
                        <path d="M-4,0h8M0,-4v8" fill="none" stroke="white" stroke-width="1.5" pointer-events="none"/>
                </g>
                <g id="zoomMin">
                        <use xlink:href="#rim" fill="#404040">
                                <set attributeName="fill" to="#808080" begin="zoomminus.mouseover" end="zoomminus.mouseout"/>
                        </use>
                        <path d="M-4,0h8" fill="none" stroke="white" stroke-width="1.5" pointer-events="none"/>
                </g>
                <g id="dirArrow">
                        <path fill="none" stroke="white" stroke-width="1.5" d="M0,-3.0v7 M-2.5,-0.5L0,-3.0L2.5,-0.5"/>
                </g>
               <g id="resetDef">
                       <use xlink:href="#rim2" fill="#404040">
                               <set attributeName="fill" to="#808080" begin="reset.mouseover" end="reset.mouseout"/>
                       </use>
               </g>
        </defs>

<script type="text/javascript">
var viewWidth = 1964;
var viewHeight = 434;
var sectionId = 'dynsection-0';
</script>
<script xlink:href="../../svgpan.js"/>
<svg id="graph" class="graph">
<g id="viewport">
<title>/home/travis/build/AliceO2Group/AliceO2/Detectors/EMCAL/testsimulation/drawEMCALgeometry.C</title>
<!-- Node1 -->
<g id="node1" class="node"><title>Node1</title>
<polygon fill="#bfbfbf" stroke="black" points="1311,-373 1311,-425 1475,-425 1475,-373 1311,-373"/>
<text text-anchor="start" x="1319" y="-413" font-family="Helvetica,sans-Serif" font-size="10.00">/home/travis/build</text>
<text text-anchor="start" x="1319" y="-402" font-family="Helvetica,sans-Serif" font-size="10.00">/AliceO2Group/AliceO2</text>
<text text-anchor="start" x="1319" y="-391" font-family="Helvetica,sans-Serif" font-size="10.00">/Detectors/EMCAL/testsimulation</text>
<text text-anchor="middle" x="1393" y="-380" font-family="Helvetica,sans-Serif" font-size="10.00">/drawEMCALgeometry.C</text>
</g>
<!-- Node2 -->
<g id="node2" class="node"><title>Node2</title>
<g id="a_node2"><a xlink:href="../../d9/d6d/Cave_8h.html" target="_top" xlink:title="DetectorsPassive/Cave.h">
<polygon fill="none" stroke="black" points="72.5,-260.5 72.5,-279.5 201.5,-279.5 201.5,-260.5 72.5,-260.5"/>
<text text-anchor="middle" x="137" y="-267.5" font-family="Helvetica,sans-Serif" font-size="10.00">DetectorsPassive/Cave.h</text>
</a>
</g>
</g>
<!-- Node1&#45;&gt;Node2 -->
<g id="edge1" class="edge"><title>Node1&#45;&gt;Node2</title>
<path fill="none" stroke="midnightblue" d="M1310.98,-391.232C1182.1,-380.453 924.314,-358.318 706,-336 528.732,-317.878 320.797,-293.273 212.012,-280.144"/>
<polygon fill="midnightblue" stroke="midnightblue" points="212.146,-276.634 201.799,-278.909 211.307,-283.584 212.146,-276.634"/>
</g>
<!-- Node7 -->
<g id="node7" class="node"><title>Node7</title>
<g id="a_node7"><a xlink:href="../../d2/d69/FrameStructure_8h.html" target="_top" xlink:title="DetectorsPassive/FrameStructure.h">
<polygon fill="none" stroke="black" points="879.5,-316.5 879.5,-335.5 1052.5,-335.5 1052.5,-316.5 879.5,-316.5"/>
<text text-anchor="middle" x="966" y="-323.5" font-family="Helvetica,sans-Serif" font-size="10.00">DetectorsPassive/FrameStructure.h</text>
</a>
</g>
</g>
<!-- Node1&#45;&gt;Node7 -->
<g id="edge6" class="edge"><title>Node1&#45;&gt;Node7</title>
<path fill="none" stroke="midnightblue" d="M1310.92,-384.353C1228.09,-370.58 1102.07,-349.625 1027.48,-337.222"/>
<polygon fill="midnightblue" stroke="midnightblue" points="1027.74,-333.718 1017.3,-335.531 1026.6,-340.624 1027.74,-333.718"/>
</g>
<!-- Node9 -->
<g id="node9" class="node"><title>Node9</title>
<g id="a_node9"><a xlink:href="../../d8/d3d/EMCAL_2simulation_2include_2EMCALSimulation_2Detector_8h.html" target="_top" xlink:title="EMCALSimulation/Detector.h">
<polygon fill="none" stroke="black" points="715,-316.5 715,-335.5 861,-335.5 861,-316.5 715,-316.5"/>
<text text-anchor="middle" x="788" y="-323.5" font-family="Helvetica,sans-Serif" font-size="10.00">EMCALSimulation/Detector.h</text>
</a>
</g>
</g>
<!-- Node1&#45;&gt;Node9 -->
<g id="edge8" class="edge"><title>Node1&#45;&gt;Node9</title>
<path fill="none" stroke="midnightblue" d="M1310.78,-388.351C1195.37,-374.807 986.523,-350.298 870.801,-336.717"/>
<polygon fill="midnightblue" stroke="midnightblue" points="870.922,-333.207 860.583,-335.518 870.106,-340.16 870.922,-333.207"/>
</g>
<!-- Node33 -->
<g id="node33" class="node"><title>Node33</title>
<polygon fill="none" stroke="#bfbfbf" points="1070.5,-316.5 1070.5,-335.5 1147.5,-335.5 1147.5,-316.5 1070.5,-316.5"/>
<text text-anchor="middle" x="1109" y="-323.5" font-family="Helvetica,sans-Serif" font-size="10.00">FairRunSim.h</text>
</g>
<!-- Node1&#45;&gt;Node33 -->
<g id="edge41" class="edge"><title>Node1&#45;&gt;Node33</title>
<path fill="none" stroke="midnightblue" d="M1310.86,-377.464C1259.4,-364.6 1195.11,-348.527 1153.1,-338.024"/>
<polygon fill="midnightblue" stroke="midnightblue" points="1153.73,-334.574 1143.18,-335.544 1152.03,-341.365 1153.73,-334.574"/>
</g>
<!-- Node34 -->
<g id="node34" class="node"><title>Node34</title>
<polygon fill="none" stroke="#bfbfbf" points="1166,-316.5 1166,-335.5 1252,-335.5 1252,-316.5 1166,-316.5"/>
<text text-anchor="middle" x="1209" y="-323.5" font-family="Helvetica,sans-Serif" font-size="10.00">TGeoManager.h</text>
</g>
<!-- Node1&#45;&gt;Node34 -->
<g id="edge42" class="edge"><title>Node1&#45;&gt;Node34</title>
<path fill="none" stroke="midnightblue" d="M1328.13,-372.968C1298.61,-361.58 1265.01,-348.613 1241.03,-339.361"/>
<polygon fill="midnightblue" stroke="midnightblue" points="1241.98,-335.974 1231.39,-335.639 1239.46,-342.504 1241.98,-335.974"/>
</g>
<!-- Node35 -->
<g id="node35" class="node"><title>Node35</title>
<polygon fill="none" stroke="#bfbfbf" points="1270.5,-316.5 1270.5,-335.5 1339.5,-335.5 1339.5,-316.5 1270.5,-316.5"/>
<text text-anchor="middle" x="1305" y="-323.5" font-family="Helvetica,sans-Serif" font-size="10.00">TObjArray.h</text>
</g>
<!-- Node1&#45;&gt;Node35 -->
<g id="edge43" class="edge"><title>Node1&#45;&gt;Node35</title>
<path fill="none" stroke="midnightblue" d="M1361.73,-372.768C1349.1,-362.578 1334.94,-351.153 1323.92,-342.267"/>
<polygon fill="midnightblue" stroke="midnightblue" points="1325.83,-339.312 1315.85,-335.757 1321.44,-344.76 1325.83,-339.312"/>
</g>
<!-- Node36 -->
<g id="node36" class="node"><title>Node36</title>
<polygon fill="none" stroke="#bfbfbf" points="1357.5,-316.5 1357.5,-335.5 1428.5,-335.5 1428.5,-316.5 1357.5,-316.5"/>
<text text-anchor="middle" x="1393" y="-323.5" font-family="Helvetica,sans-Serif" font-size="10.00">TObjString.h</text>
</g>
<!-- Node1&#45;&gt;Node36 -->
<g id="edge44" class="edge"><title>Node1&#45;&gt;Node36</title>
<path fill="none" stroke="midnightblue" d="M1393,-372.768C1393,-363.89 1393,-354.074 1393,-345.816"/>
<polygon fill="midnightblue" stroke="midnightblue" points="1396.5,-345.757 1393,-335.757 1389.5,-345.757 1396.5,-345.757"/>
</g>
<!-- Node37 -->
<g id="node37" class="node"><title>Node37</title>
<polygon fill="none" stroke="#bfbfbf" points="1446.5,-316.5 1446.5,-335.5 1505.5,-335.5 1505.5,-316.5 1446.5,-316.5"/>
<text text-anchor="middle" x="1476" y="-323.5" font-family="Helvetica,sans-Serif" font-size="10.00">TROOT.h</text>
</g>
<!-- Node1&#45;&gt;Node37 -->
<g id="edge45" class="edge"><title>Node1&#45;&gt;Node37</title>
<path fill="none" stroke="midnightblue" d="M1422.5,-372.768C1434.41,-362.578 1447.76,-351.153 1458.15,-342.267"/>
<polygon fill="midnightblue" stroke="midnightblue" points="1460.44,-344.917 1465.76,-335.757 1455.89,-339.598 1460.44,-344.917"/>
</g>
<!-- Node38 -->
<g id="node38" class="node"><title>Node38</title>
<polygon fill="none" stroke="#bfbfbf" points="1524,-316.5 1524,-335.5 1580,-335.5 1580,-316.5 1524,-316.5"/>
<text text-anchor="middle" x="1552" y="-323.5" font-family="Helvetica,sans-Serif" font-size="10.00">TString.h</text>
</g>
<!-- Node1&#45;&gt;Node38 -->
<g id="edge46" class="edge"><title>Node1&#45;&gt;Node38</title>
<path fill="none" stroke="midnightblue" d="M1449.06,-372.968C1474.22,-361.732 1502.82,-348.96 1523.48,-339.735"/>
<polygon fill="midnightblue" stroke="midnightblue" points="1524.95,-342.912 1532.65,-335.639 1522.1,-336.52 1524.95,-342.912"/>
</g>
<!-- Node39 -->
<g id="node39" class="node"><title>Node39</title>
<polygon fill="none" stroke="#bfbfbf" points="1598.5,-316.5 1598.5,-335.5 1663.5,-335.5 1663.5,-316.5 1598.5,-316.5"/>
<text text-anchor="middle" x="1631" y="-323.5" font-family="Helvetica,sans-Serif" font-size="10.00">TSystem.h</text>
</g>
<!-- Node1&#45;&gt;Node39 -->
<g id="edge47" class="edge"><title>Node1&#45;&gt;Node39</title>
<path fill="none" stroke="midnightblue" d="M1475.24,-373.466C1515.13,-361.567 1561.13,-347.845 1592.74,-338.414"/>
<polygon fill="midnightblue" stroke="midnightblue" points="1593.89,-341.724 1602.47,-335.511 1591.89,-335.016 1593.89,-341.724"/>
</g>
<!-- Node40 -->
<g id="node40" class="node"><title>Node40</title>
<polygon fill="none" stroke="#bfbfbf" points="1682,-316.5 1682,-335.5 1816,-335.5 1816,-316.5 1682,-316.5"/>
<text text-anchor="middle" x="1749" y="-323.5" font-family="Helvetica,sans-Serif" font-size="10.00">boost/program_options.hpp</text>
</g>
<!-- Node1&#45;&gt;Node40 -->
<g id="edge48" class="edge"><title>Node1&#45;&gt;Node40</title>
<path fill="none" stroke="midnightblue" d="M1475.12,-381.622C1543.11,-368.062 1637.71,-349.195 1696.06,-337.558"/>
<polygon fill="midnightblue" stroke="midnightblue" points="1697.05,-340.931 1706.17,-335.542 1695.68,-334.066 1697.05,-340.931"/>
</g>
<!-- Node41 -->
<g id="node41" class="node"><title>Node41</title>
<polygon fill="none" stroke="#bfbfbf" points="1834,-316.5 1834,-335.5 1884,-335.5 1884,-316.5 1834,-316.5"/>
<text text-anchor="middle" x="1859" y="-323.5" font-family="Helvetica,sans-Serif" font-size="10.00">iomanip</text>
</g>
<!-- Node1&#45;&gt;Node41 -->
<g id="edge49" class="edge"><title>Node1&#45;&gt;Node41</title>
<path fill="none" stroke="midnightblue" d="M1475.1,-389.097C1560.15,-379.221 1697,-361.506 1823.93,-336.02"/>
<polygon fill="midnightblue" stroke="midnightblue" points="1824.72,-339.43 1833.83,-334.012 1823.33,-332.57 1824.72,-339.43"/>
</g>
<!-- Node42 -->
<g id="node42" class="node"><title>Node42</title>
<polygon fill="none" stroke="#bfbfbf" points="1902,-316.5 1902,-335.5 1956,-335.5 1956,-316.5 1902,-316.5"/>
<text text-anchor="middle" x="1929" y="-323.5" font-family="Helvetica,sans-Serif" font-size="10.00">iostream</text>
</g>
<!-- Node1&#45;&gt;Node42 -->
<g id="edge50" class="edge"><title>Node1&#45;&gt;Node42</title>
<path fill="none" stroke="midnightblue" d="M1475.32,-390.889C1572.66,-381.783 1739.66,-363.978 1891.94,-335.995"/>
<polygon fill="midnightblue" stroke="midnightblue" points="1892.76,-339.404 1901.95,-334.137 1891.48,-332.521 1892.76,-339.404"/>
</g>
<!-- Node3 -->
<g id="node3" class="node"><title>Node3</title>
<polygon fill="none" stroke="#bfbfbf" points="176.5,-198.5 176.5,-217.5 255.5,-217.5 255.5,-198.5 176.5,-198.5"/>
<text text-anchor="middle" x="216" y="-205.5" font-family="Helvetica,sans-Serif" font-size="10.00">FairDetector.h</text>
</g>
<!-- Node2&#45;&gt;Node3 -->
<g id="edge2" class="edge"><title>Node2&#45;&gt;Node3</title>
<path fill="none" stroke="midnightblue" d="M148.319,-260.403C160.873,-250.869 181.351,-235.315 196.499,-223.811"/>
<polygon fill="midnightblue" stroke="midnightblue" points="198.856,-226.416 204.702,-217.581 194.622,-220.842 198.856,-226.416"/>
</g>
<!-- Node4 -->
<g id="node4" class="node"><title>Node4</title>
<polygon fill="none" stroke="#bfbfbf" points="445,-74.5 445,-93.5 501,-93.5 501,-74.5 445,-74.5"/>
<text text-anchor="middle" x="473" y="-81.5" font-family="Helvetica,sans-Serif" font-size="10.00">Rtypes.h</text>
</g>
<!-- Node2&#45;&gt;Node4 -->
<g id="edge3" class="edge"><title>Node2&#45;&gt;Node4</title>
<path fill="none" stroke="midnightblue" d="M128.159,-260.175C114.082,-245.04 89.7435,-213.673 106,-192 145.997,-138.676 349.183,-103.156 434.837,-90.3304"/>
<polygon fill="midnightblue" stroke="midnightblue" points="435.538,-93.7649 444.921,-88.8444 434.518,-86.8397 435.538,-93.7649"/>
</g>
<!-- Node5 -->
<g id="node5" class="node"><title>Node5</title>
<polygon fill="none" stroke="#bfbfbf" points="-0.5,-198.5 -0.5,-217.5 58.5,-217.5 58.5,-198.5 -0.5,-198.5"/>
<text text-anchor="middle" x="29" y="-205.5" font-family="Helvetica,sans-Serif" font-size="10.00">functional</text>
</g>
<!-- Node2&#45;&gt;Node5 -->
<g id="edge4" class="edge"><title>Node2&#45;&gt;Node5</title>
<path fill="none" stroke="midnightblue" d="M121.526,-260.403C103.722,-250.512 74.2595,-234.144 53.368,-222.538"/>
<polygon fill="midnightblue" stroke="midnightblue" points="54.8864,-219.378 44.4451,-217.581 51.4869,-225.497 54.8864,-219.378"/>
</g>
<!-- Node6 -->
<g id="node6" class="node"><title>Node6</title>
<polygon fill="none" stroke="#bfbfbf" points="115,-198.5 115,-217.5 159,-217.5 159,-198.5 115,-198.5"/>
<text text-anchor="middle" x="137" y="-205.5" font-family="Helvetica,sans-Serif" font-size="10.00">vector</text>
</g>
<!-- Node2&#45;&gt;Node6 -->
<g id="edge5" class="edge"><title>Node2&#45;&gt;Node6</title>
<path fill="none" stroke="midnightblue" d="M137,-260.403C137,-251.938 137,-238.728 137,-227.82"/>
<polygon fill="midnightblue" stroke="midnightblue" points="140.5,-227.581 137,-217.581 133.5,-227.581 140.5,-227.581"/>
</g>
<!-- Node8 -->
<g id="node8" class="node"><title>Node8</title>
<polygon fill="none" stroke="#bfbfbf" points="1194.5,-260.5 1194.5,-279.5 1267.5,-279.5 1267.5,-260.5 1194.5,-260.5"/>
<text text-anchor="middle" x="1231" y="-267.5" font-family="Helvetica,sans-Serif" font-size="10.00">FairModule.h</text>
</g>
<!-- Node7&#45;&gt;Node8 -->
<g id="edge7" class="edge"><title>Node7&#45;&gt;Node8</title>
<path fill="none" stroke="midnightblue" d="M1007.99,-316.444C1056.05,-306.65 1134.54,-290.655 1184.44,-280.488"/>
<polygon fill="midnightblue" stroke="midnightblue" points="1185.23,-283.899 1194.33,-278.473 1183.83,-277.04 1185.23,-283.899"/>
</g>
<!-- Node9&#45;&gt;Node4 -->
<g id="edge39" class="edge"><title>Node9&#45;&gt;Node4</title>
<path fill="none" stroke="midnightblue" d="M827.3,-316.497C900.169,-298.992 1044.28,-255.201 992,-192 852.993,-23.9516 719.177,-161.711 510,-100 507.195,-99.1726 504.31,-98.2105 501.447,-97.1806"/>
<polygon fill="midnightblue" stroke="midnightblue" points="502.538,-93.8501 491.949,-93.5151 500.018,-100.381 502.538,-93.8501"/>
</g>
<!-- Node9&#45;&gt;Node6 -->
<g id="edge40" class="edge"><title>Node9&#45;&gt;Node6</title>
<path fill="none" stroke="midnightblue" d="M714.961,-319.58C635.182,-312.992 503.842,-300.183 392,-280 290.587,-261.699 263.668,-259.703 167,-224 165.348,-223.39 163.667,-222.714 161.987,-221.997"/>
<polygon fill="midnightblue" stroke="midnightblue" points="163.133,-218.67 152.592,-217.607 160.17,-225.012 163.133,-218.67"/>
</g>
<!-- Node10 -->
<g id="node10" class="node"><title>Node10</title>
<g id="a_node10"><a xlink:href="../../d1/d3a/Base_2include_2DetectorsBase_2Detector_8h.html" target="_top" xlink:title="DetectorsBase/Detector.h">
<polygon fill="none" stroke="black" points="499.5,-260.5 499.5,-279.5 630.5,-279.5 630.5,-260.5 499.5,-260.5"/>
<text text-anchor="middle" x="565" y="-267.5" font-family="Helvetica,sans-Serif" font-size="10.00">DetectorsBase/Detector.h</text>
</a>
</g>
</g>
<!-- Node9&#45;&gt;Node10 -->
<g id="edge9" class="edge"><title>Node9&#45;&gt;Node10</title>
<path fill="none" stroke="midnightblue" d="M752.665,-316.444C714.089,-307.102 652.215,-292.119 610.147,-281.933"/>
<polygon fill="midnightblue" stroke="midnightblue" points="610.713,-278.468 600.17,-279.516 609.065,-285.272 610.713,-278.468"/>
</g>
<!-- Node19 -->
<g id="node19" class="node"><title>Node19</title>
<g id="a_node19"><a xlink:href="../../d5/d8b/EMCAL_2base_2include_2EMCALBase_2Hit_8h.html" target="_top" xlink:title="EMCALBase/Hit.h">
<polygon fill="none" stroke="black" points="1078,-260.5 1078,-279.5 1176,-279.5 1176,-260.5 1078,-260.5"/>
<text text-anchor="middle" x="1127" y="-267.5" font-family="Helvetica,sans-Serif" font-size="10.00">EMCALBase/Hit.h</text>
</a>
</g>
</g>
<!-- Node9&#45;&gt;Node19 -->
<g id="edge23" class="edge"><title>Node9&#45;&gt;Node19</title>
<path fill="none" stroke="midnightblue" d="M841.716,-316.444C903.387,-306.62 1004.23,-290.556 1068.03,-280.394"/>
<polygon fill="midnightblue" stroke="midnightblue" points="1068.61,-283.845 1077.94,-278.815 1067.51,-276.932 1068.61,-283.845"/>
</g>
<!-- Node21 -->
<g id="node21" class="node"><title>Node21</title>
<g id="a_node21"><a xlink:href="../../dd/d76/Cartesian3D_8h.html" target="_top" xlink:title="MathUtils/Cartesian3D.h">
<polygon fill="none" stroke="black" points="1071.5,-136.5 1071.5,-155.5 1196.5,-155.5 1196.5,-136.5 1071.5,-136.5"/>
<text text-anchor="middle" x="1134" y="-143.5" font-family="Helvetica,sans-Serif" font-size="10.00">MathUtils/Cartesian3D.h</text>
</a>
</g>
</g>
<!-- Node9&#45;&gt;Node21 -->
<g id="edge37" class="edge"><title>Node9&#45;&gt;Node21</title>
<path fill="none" stroke="midnightblue" d="M848.35,-316.457C914.139,-306.696 1011.98,-290.695 1026,-280 1060.61,-253.601 1040.63,-225.015 1069,-192 1079.87,-179.351 1095.06,-168.572 1108.03,-160.737"/>
<polygon fill="midnightblue" stroke="midnightblue" points="1110.07,-163.599 1116.98,-155.568 1106.57,-157.537 1110.07,-163.599"/>
</g>
<!-- Node32 -->
<g id="node32" class="node"><title>Node32</title>
<polygon fill="none" stroke="#bfbfbf" points="401,-260.5 401,-279.5 481,-279.5 481,-260.5 401,-260.5"/>
<text text-anchor="middle" x="441" y="-267.5" font-family="Helvetica,sans-Serif" font-size="10.00">RStringView.h</text>
</g>
<!-- Node9&#45;&gt;Node32 -->
<g id="edge38" class="edge"><title>Node9&#45;&gt;Node32</title>
<path fill="none" stroke="midnightblue" d="M727.696,-316.467C669.613,-308.119 579.02,-294.758 490.981,-280.122"/>
<polygon fill="midnightblue" stroke="midnightblue" points="491.533,-276.666 481.093,-278.471 490.38,-283.57 491.533,-276.666"/>
</g>
<!-- Node10&#45;&gt;Node3 -->
<g id="edge13" class="edge"><title>Node10&#45;&gt;Node3</title>
<path fill="none" stroke="midnightblue" d="M500.631,-260.484C426.28,-250.446 308.594,-233.885 265,-224 260.486,-222.976 255.782,-221.749 251.153,-220.444"/>
<polygon fill="midnightblue" stroke="midnightblue" points="251.822,-216.991 241.24,-217.508 249.834,-223.703 251.822,-216.991"/>
</g>
<!-- Node10&#45;&gt;Node4 -->
<g id="edge18" class="edge"><title>Node10&#45;&gt;Node4</title>
<path fill="none" stroke="midnightblue" d="M554.481,-260.34C544.86,-251.932 530.822,-238.364 522,-224 497.754,-184.524 483.294,-131.359 476.906,-103.614"/>
<polygon fill="midnightblue" stroke="midnightblue" points="480.29,-102.709 474.72,-93.6959 473.454,-104.215 480.29,-102.709"/>
</g>
<!-- Node10&#45;&gt;Node6 -->
<g id="edge11" class="edge"><title>Node10&#45;&gt;Node6</title>
<path fill="none" stroke="midnightblue" d="M499.154,-261.067C496.06,-260.704 492.996,-260.347 490,-260 346.513,-243.395 305.523,-264.933 167,-224 165.032,-223.418 163.036,-222.712 161.059,-221.928"/>
<polygon fill="midnightblue" stroke="midnightblue" points="162.078,-218.544 151.53,-217.554 159.159,-224.906 162.078,-218.544"/>
</g>
<!-- Node11 -->
<g id="node11" class="node"><title>Node11</title>
<polygon fill="none" stroke="#bfbfbf" points="585.5,-136.5 585.5,-155.5 620.5,-155.5 620.5,-136.5 585.5,-136.5"/>
<text text-anchor="middle" x="603" y="-143.5" font-family="Helvetica,sans-Serif" font-size="10.00">map</text>
</g>
<!-- Node10&#45;&gt;Node11 -->
<g id="edge10" class="edge"><title>Node10&#45;&gt;Node11</title>
<path fill="none" stroke="midnightblue" d="M555.38,-260.244C540.647,-245.732 515.547,-215.925 529,-192 538.98,-174.251 559.109,-162.688 575.856,-155.732"/>
<polygon fill="midnightblue" stroke="midnightblue" points="577.129,-158.993 585.224,-152.158 574.634,-152.453 577.129,-158.993"/>
</g>
<!-- Node12 -->
<g id="node12" class="node"><title>Node12</title>
<polygon fill="none" stroke="#bfbfbf" points="274,-198.5 274,-217.5 326,-217.5 326,-198.5 274,-198.5"/>
<text text-anchor="middle" x="300" y="-205.5" font-family="Helvetica,sans-Serif" font-size="10.00">memory</text>
</g>
<!-- Node10&#45;&gt;Node12 -->
<g id="edge12" class="edge"><title>Node10&#45;&gt;Node12</title>
<path fill="none" stroke="midnightblue" d="M502.622,-260.457C455.851,-253.174 390.601,-241.142 335,-224 332.512,-223.233 329.962,-222.347 327.427,-221.397"/>
<polygon fill="midnightblue" stroke="midnightblue" points="328.474,-218.045 317.892,-217.531 325.844,-224.532 328.474,-218.045"/>
</g>
<!-- Node13 -->
<g id="node13" class="node"><title>Node13</title>
<polygon fill="none" stroke="#bfbfbf" points="344,-198.5 344,-217.5 444,-217.5 444,-198.5 344,-198.5"/>
<text text-anchor="middle" x="394" y="-205.5" font-family="Helvetica,sans-Serif" font-size="10.00">FairRootManager.h</text>
</g>
<!-- Node10&#45;&gt;Node13 -->
<g id="edge14" class="edge"><title>Node10&#45;&gt;Node13</title>
<path fill="none" stroke="midnightblue" d="M540.5,-260.403C511.04,-250.067 461.421,-232.656 428.198,-220.999"/>
<polygon fill="midnightblue" stroke="midnightblue" points="429.05,-217.589 418.455,-217.581 426.732,-224.194 429.05,-217.589"/>
</g>
<!-- Node14 -->
<g id="node14" class="node"><title>Node14</title>
<g id="a_node14"><a xlink:href="../../d0/d9a/MaterialManager_8h.html" target="_top" xlink:title="DetectorsBase/MaterialManager.h">
<polygon fill="none" stroke="black" points="818.5,-198.5 818.5,-217.5 983.5,-217.5 983.5,-198.5 818.5,-198.5"/>
<text text-anchor="middle" x="901" y="-205.5" font-family="Helvetica,sans-Serif" font-size="10.00">DetectorsBase/MaterialManager.h</text>
</a>
</g>
</g>
<!-- Node10&#45;&gt;Node14 -->
<g id="edge15" class="edge"><title>Node10&#45;&gt;Node14</title>
<path fill="none" stroke="midnightblue" d="M612.784,-260.467C673.492,-249.626 778.182,-230.932 843.285,-219.306"/>
<polygon fill="midnightblue" stroke="midnightblue" points="844.152,-222.707 853.381,-217.503 842.921,-215.816 844.152,-222.707"/>
</g>
<!-- Node15 -->
<g id="node15" class="node"><title>Node15</title>
<polygon fill="none" stroke="#bfbfbf" points="538.5,-198.5 538.5,-217.5 591.5,-217.5 591.5,-198.5 538.5,-198.5"/>
<text text-anchor="middle" x="565" y="-205.5" font-family="Helvetica,sans-Serif" font-size="10.00">cxxabi.h</text>
</g>
<!-- Node10&#45;&gt;Node15 -->
<g id="edge19" class="edge"><title>Node10&#45;&gt;Node15</title>
<path fill="none" stroke="midnightblue" d="M565,-260.403C565,-251.938 565,-238.728 565,-227.82"/>
<polygon fill="midnightblue" stroke="midnightblue" points="568.5,-227.581 565,-217.581 561.5,-227.581 568.5,-227.581"/>
</g>
<!-- Node16 -->
<g id="node16" class="node"><title>Node16</title>
<polygon fill="none" stroke="#bfbfbf" points="609.5,-198.5 609.5,-217.5 660.5,-217.5 660.5,-198.5 609.5,-198.5"/>
<text text-anchor="middle" x="635" y="-205.5" font-family="Helvetica,sans-Serif" font-size="10.00">typeinfo</text>
</g>
<!-- Node10&#45;&gt;Node16 -->
<g id="edge20" class="edge"><title>Node10&#45;&gt;Node16</title>
<path fill="none" stroke="midnightblue" d="M575.029,-260.403C586.049,-250.958 603.96,-235.606 617.343,-224.134"/>
<polygon fill="midnightblue" stroke="midnightblue" points="619.675,-226.746 624.989,-217.581 615.119,-221.431 619.675,-226.746"/>
</g>
<!-- Node17 -->
<g id="node17" class="node"><title>Node17</title>
<polygon fill="none" stroke="#bfbfbf" points="679,-198.5 679,-217.5 741,-217.5 741,-198.5 679,-198.5"/>
<text text-anchor="middle" x="710" y="-205.5" font-family="Helvetica,sans-Serif" font-size="10.00">type_traits</text>
</g>
<!-- Node10&#45;&gt;Node17 -->
<g id="edge21" class="edge"><title>Node10&#45;&gt;Node17</title>
<path fill="none" stroke="midnightblue" d="M585.775,-260.403C610.432,-250.2 651.745,-233.105 679.902,-221.454"/>
<polygon fill="midnightblue" stroke="midnightblue" points="681.362,-224.638 689.264,-217.581 678.685,-218.17 681.362,-224.638"/>
</g>
<!-- Node18 -->
<g id="node18" class="node"><title>Node18</title>
<polygon fill="none" stroke="#bfbfbf" points="759.5,-198.5 759.5,-217.5 800.5,-217.5 800.5,-198.5 759.5,-198.5"/>
<text text-anchor="middle" x="780" y="-205.5" font-family="Helvetica,sans-Serif" font-size="10.00">string</text>
</g>
<!-- Node10&#45;&gt;Node18 -->
<g id="edge22" class="edge"><title>Node10&#45;&gt;Node18</title>
<path fill="none" stroke="midnightblue" d="M611.542,-260.449C649.226,-252.854 703.356,-240.417 749,-224 750.857,-223.332 752.75,-222.587 754.639,-221.796"/>
<polygon fill="midnightblue" stroke="midnightblue" points="756.213,-224.926 763.867,-217.601 753.316,-218.553 756.213,-224.926"/>
</g>
<!-- Node14&#45;&gt;Node4 -->
<g id="edge16" class="edge"><title>Node14&#45;&gt;Node4</title>
<path fill="none" stroke="midnightblue" d="M867.873,-198.473C786.424,-177.423 578.085,-123.027 510,-100 507.441,-99.1346 504.804,-98.1851 502.172,-97.1972"/>
<polygon fill="midnightblue" stroke="midnightblue" points="503.396,-93.9178 492.808,-93.5323 500.845,-100.436 503.396,-93.9178"/>
</g>
<!-- Node14&#45;&gt;Node11 -->
<g id="edge17" class="edge"><title>Node14&#45;&gt;Node11</title>
<path fill="none" stroke="midnightblue" d="M858.62,-198.467C796.533,-185.966 682.579,-163.023 630.4,-152.517"/>
<polygon fill="midnightblue" stroke="midnightblue" points="631.026,-149.073 620.532,-150.53 629.644,-155.935 631.026,-149.073"/>
</g>
<!-- Node20 -->
<g id="node20" class="node"><title>Node20</title>
<g id="a_node20"><a xlink:href="../../d4/d25/BaseHits_8h.html" target="_top" xlink:title="SimulationDataFormat\l/BaseHits.h">
<polygon fill="none" stroke="black" points="1078,-193 1078,-223 1192,-223 1192,-193 1078,-193"/>
<text text-anchor="start" x="1086" y="-211" font-family="Helvetica,sans-Serif" font-size="10.00">SimulationDataFormat</text>
<text text-anchor="middle" x="1135" y="-200" font-family="Helvetica,sans-Serif" font-size="10.00">/BaseHits.h</text>
</a>
</g>
</g>
<!-- Node19&#45;&gt;Node20 -->
<g id="edge24" class="edge"><title>Node19&#45;&gt;Node20</title>
<path fill="none" stroke="midnightblue" d="M1128.15,-260.403C1129.1,-253.265 1130.5,-242.752 1131.79,-233.09"/>
<polygon fill="midnightblue" stroke="midnightblue" points="1135.26,-233.516 1133.11,-223.141 1128.32,-232.59 1135.26,-233.516"/>
</g>
<!-- Node20&#45;&gt;Node21 -->
<g id="edge25" class="edge"><title>Node20&#45;&gt;Node21</title>
<path fill="none" stroke="midnightblue" d="M1134.76,-192.781C1134.63,-184.781 1134.46,-174.689 1134.32,-166.017"/>
<polygon fill="midnightblue" stroke="midnightblue" points="1137.81,-165.671 1134.15,-155.731 1130.81,-165.788 1137.81,-165.671"/>
</g>
<!-- Node21&#45;&gt;Node4 -->
<g id="edge31" class="edge"><title>Node21&#45;&gt;Node4</title>
<path fill="none" stroke="midnightblue" d="M1071.48,-139.646C1056.58,-138.409 1040.73,-137.127 1026,-136 796.78,-118.454 733.972,-151.829 510,-100 506.925,-99.2885 503.774,-98.3556 500.67,-97.3025"/>
<polygon fill="midnightblue" stroke="midnightblue" points="501.663,-93.9355 491.072,-93.6533 499.175,-100.479 501.663,-93.9355"/>
</g>
<!-- Node22 -->
<g id="node22" class="node"><title>Node22</title>
<polygon fill="none" stroke="#bfbfbf" points="1532.5,-69 1532.5,-99 1683.5,-99 1683.5,-69 1532.5,-69"/>
<text text-anchor="start" x="1540.5" y="-87" font-family="Helvetica,sans-Serif" font-size="10.00">Math/GenVector/Displacement</text>
<text text-anchor="middle" x="1608" y="-76" font-family="Helvetica,sans-Serif" font-size="10.00">Vector3D.h</text>
</g>
<!-- Node21&#45;&gt;Node22 -->
<g id="edge26" class="edge"><title>Node21&#45;&gt;Node22</title>
<path fill="none" stroke="midnightblue" d="M1196.81,-138.896C1271.73,-131.355 1400.99,-117.522 1522.28,-100.047"/>
<polygon fill="midnightblue" stroke="midnightblue" points="1523.1,-103.466 1532.49,-98.5649 1522.09,-96.5382 1523.1,-103.466"/>
</g>
<!-- Node23 -->
<g id="node23" class="node"><title>Node23</title>
<polygon fill="none" stroke="#bfbfbf" points="519,-74.5 519,-93.5 695,-93.5 695,-74.5 519,-74.5"/>
<text text-anchor="middle" x="607" y="-81.5" font-family="Helvetica,sans-Serif" font-size="10.00">Math/GenVector/PositionVector3D.h</text>
</g>
<!-- Node21&#45;&gt;Node23 -->
<g id="edge27" class="edge"><title>Node21&#45;&gt;Node23</title>
<path fill="none" stroke="midnightblue" d="M1071.43,-139.475C987.462,-131.831 833.742,-117.028 703,-100 691.744,-98.534 679.773,-96.8023 668.24,-95.046"/>
<polygon fill="midnightblue" stroke="midnightblue" points="668.664,-91.57 658.247,-93.5022 667.595,-98.488 668.664,-91.57"/>
</g>
<!-- Node24 -->
<g id="node24" class="node"><title>Node24</title>
<polygon fill="none" stroke="#bfbfbf" points="712.5,-74.5 712.5,-93.5 861.5,-93.5 861.5,-74.5 712.5,-74.5"/>
<text text-anchor="middle" x="787" y="-81.5" font-family="Helvetica,sans-Serif" font-size="10.00">Math/GenVector/Rotation3D.h</text>
</g>
<!-- Node21&#45;&gt;Node24 -->
<g id="edge28" class="edge"><title>Node21&#45;&gt;Node24</title>
<path fill="none" stroke="midnightblue" d="M1083.56,-136.482C1030.61,-127.512 944.922,-112.924 871,-100 862.412,-98.4985 853.333,-96.8946 844.443,-95.3148"/>
<polygon fill="midnightblue" stroke="midnightblue" points="844.981,-91.8557 834.523,-93.5481 843.754,-98.7472 844.981,-91.8557"/>
</g>
<!-- Node25 -->
<g id="node25" class="node"><title>Node25</title>
<polygon fill="none" stroke="#bfbfbf" points="880,-74.5 880,-93.5 1036,-93.5 1036,-74.5 880,-74.5"/>
<text text-anchor="middle" x="958" y="-81.5" font-family="Helvetica,sans-Serif" font-size="10.00">Math/GenVector/Transform3D.h</text>
</g>
<!-- Node21&#45;&gt;Node25 -->
<g id="edge29" class="edge"><title>Node21&#45;&gt;Node25</title>
<path fill="none" stroke="midnightblue" d="M1108.78,-136.403C1078.33,-126.022 1026.95,-108.506 992.757,-96.849"/>
<polygon fill="midnightblue" stroke="midnightblue" points="993.764,-93.4946 983.17,-93.5806 991.505,-100.12 993.764,-93.4946"/>
</g>
<!-- Node26 -->
<g id="node26" class="node"><title>Node26</title>
<polygon fill="none" stroke="#bfbfbf" points="1054,-74.5 1054,-93.5 1214,-93.5 1214,-74.5 1054,-74.5"/>
<text text-anchor="middle" x="1134" y="-81.5" font-family="Helvetica,sans-Serif" font-size="10.00">Math/GenVector/Translation3D.h</text>
</g>
<!-- Node21&#45;&gt;Node26 -->
<g id="edge30" class="edge"><title>Node21&#45;&gt;Node26</title>
<path fill="none" stroke="midnightblue" d="M1134,-136.403C1134,-127.938 1134,-114.728 1134,-103.82"/>
<polygon fill="midnightblue" stroke="midnightblue" points="1137.5,-103.581 1134,-93.5806 1130.5,-103.581 1137.5,-103.581"/>
</g>
<!-- Node27 -->
<g id="node27" class="node"><title>Node27</title>
<polygon fill="none" stroke="#bfbfbf" points="1232,-74.5 1232,-93.5 1308,-93.5 1308,-74.5 1232,-74.5"/>
<text text-anchor="middle" x="1270" y="-81.5" font-family="Helvetica,sans-Serif" font-size="10.00">TGeoMatrix.h</text>
</g>
<!-- Node21&#45;&gt;Node27 -->
<g id="edge32" class="edge"><title>Node21&#45;&gt;Node27</title>
<path fill="none" stroke="midnightblue" d="M1153.49,-136.403C1176.41,-126.29 1214.69,-109.404 1241.08,-97.761"/>
<polygon fill="midnightblue" stroke="midnightblue" points="1242.81,-100.819 1250.55,-93.5806 1239.99,-94.4148 1242.81,-100.819"/>
</g>
<!-- Node28 -->
<g id="node28" class="node"><title>Node28</title>
<polygon fill="none" stroke="#bfbfbf" points="1326.5,-74.5 1326.5,-93.5 1371.5,-93.5 1371.5,-74.5 1326.5,-74.5"/>
<text text-anchor="middle" x="1349" y="-81.5" font-family="Helvetica,sans-Serif" font-size="10.00">iosfwd</text>
</g>
<!-- Node21&#45;&gt;Node28 -->
<g id="edge33" class="edge"><title>Node21&#45;&gt;Node28</title>
<path fill="none" stroke="midnightblue" d="M1179.47,-136.424C1216.95,-128.739 1271.19,-116.19 1317,-100 1318.91,-99.3253 1320.86,-98.5753 1322.8,-97.7806"/>
<polygon fill="midnightblue" stroke="midnightblue" points="1324.59,-100.819 1332.32,-93.5766 1321.76,-94.4156 1324.59,-100.819"/>
</g>
<!-- Node29 -->
<g id="node29" class="node"><title>Node29</title>
<g id="a_node29"><a xlink:href="../../d2/dd0/Cartesian2D_8h.html" target="_top" xlink:title="MathUtils/Cartesian2D.h">
<polygon fill="none" stroke="black" points="1389.5,-74.5 1389.5,-93.5 1514.5,-93.5 1514.5,-74.5 1389.5,-74.5"/>
<text text-anchor="middle" x="1452" y="-81.5" font-family="Helvetica,sans-Serif" font-size="10.00">MathUtils/Cartesian2D.h</text>
</a>
</g>
</g>
<!-- Node21&#45;&gt;Node29 -->
<g id="edge34" class="edge"><title>Node21&#45;&gt;Node29</title>
<path fill="none" stroke="midnightblue" d="M1182.61,-136.47C1232.28,-127.668 1311.61,-113.377 1380,-100 1387.15,-98.6014 1394.69,-97.081 1402.09,-95.5626"/>
<polygon fill="midnightblue" stroke="midnightblue" points="1402.96,-98.9566 1412.05,-93.505 1401.55,-92.1015 1402.96,-98.9566"/>
</g>
<!-- Node30 -->
<g id="node30" class="node"><title>Node30</title>
<polygon fill="none" stroke="#bfbfbf" points="1285.5,-1 1285.5,-31 1436.5,-31 1436.5,-1 1285.5,-1"/>
<text text-anchor="start" x="1293.5" y="-19" font-family="Helvetica,sans-Serif" font-size="10.00">Math/GenVector/Displacement</text>
<text text-anchor="middle" x="1361" y="-8" font-family="Helvetica,sans-Serif" font-size="10.00">Vector2D.h</text>
</g>
<!-- Node29&#45;&gt;Node30 -->
<g id="edge35" class="edge"><title>Node29&#45;&gt;Node30</title>
<path fill="none" stroke="midnightblue" d="M1440.1,-74.3717C1427.22,-65.0286 1406.22,-49.7966 1389.09,-37.375"/>
<polygon fill="midnightblue" stroke="midnightblue" points="1390.7,-34.2194 1380.55,-31.1815 1386.59,-39.8859 1390.7,-34.2194"/>
</g>
<!-- Node31 -->
<g id="node31" class="node"><title>Node31</title>
<polygon fill="none" stroke="#bfbfbf" points="1455,-6.5 1455,-25.5 1631,-25.5 1631,-6.5 1455,-6.5"/>
<text text-anchor="middle" x="1543" y="-13.5" font-family="Helvetica,sans-Serif" font-size="10.00">Math/GenVector/PositionVector2D.h</text>
</g>
<!-- Node29&#45;&gt;Node31 -->
<g id="edge36" class="edge"><title>Node29&#45;&gt;Node31</title>
<path fill="none" stroke="midnightblue" d="M1463.9,-74.3717C1478.88,-63.5015 1504.86,-44.6602 1522.94,-31.5474"/>
<polygon fill="midnightblue" stroke="midnightblue" points="1525.06,-34.3349 1531.1,-25.6305 1520.95,-28.6684 1525.06,-34.3349"/>
</g>
</g>
</svg>
        <g id="navigator" transform="translate(0 0)" fill="#404254">
                <rect fill="#f2f5e9" fill-opacity="0.5" stroke="#606060" stroke-width=".5" x="0" y="0" width="60" height="60"/>
                <use id="zoomplus" xlink:href="#zoomPlus" x="17" y="9" onmousedown="handleZoom(evt,'in')"/>
                <use id="zoomminus" xlink:href="#zoomMin" x="42" y="9" onmousedown="handleZoom(evt,'out')"/>
                <use id="reset" xlink:href="#resetDef" x="30" y="36" onmousedown="handleReset()"/>
                <g id="arrowUp" xlink:href="#dirArrow" transform="translate(30 24)" onmousedown="handlePan(0,-1)">
                  <use xlink:href="#rim" fill="#404040">
                        <set attributeName="fill" to="#808080" begin="arrowUp.mouseover" end="arrowUp.mouseout"/>
                  </use>
                  <path fill="none" stroke="white" stroke-width="1.5" d="M0,-3.0v7 M-2.5,-0.5L0,-3.0L2.5,-0.5"/>
                </g>
                <g id="arrowRight" xlink:href="#dirArrow" transform="rotate(90) translate(36 -43)" onmousedown="handlePan(1,0)">
                  <use xlink:href="#rim" fill="#404040">
                        <set attributeName="fill" to="#808080" begin="arrowRight.mouseover" end="arrowRight.mouseout"/>
                  </use>
                  <path fill="none" stroke="white" stroke-width="1.5" d="M0,-3.0v7 M-2.5,-0.5L0,-3.0L2.5,-0.5"/>
                </g>
                <g id="arrowDown" xlink:href="#dirArrow" transform="rotate(180) translate(-30 -48)" onmousedown="handlePan(0,1)">
                  <use xlink:href="#rim" fill="#404040">
                        <set attributeName="fill" to="#808080" begin="arrowDown.mouseover" end="arrowDown.mouseout"/>
                  </use>
                  <path fill="none" stroke="white" stroke-width="1.5" d="M0,-3.0v7 M-2.5,-0.5L0,-3.0L2.5,-0.5"/>
                </g>
                <g id="arrowLeft" xlink:href="#dirArrow" transform="rotate(270) translate(-36 17)" onmousedown="handlePan(-1,0)">
                  <use xlink:href="#rim" fill="#404040">
                        <set attributeName="fill" to="#808080" begin="arrowLeft.mouseover" end="arrowLeft.mouseout"/>
                  </use>
                  <path fill="none" stroke="white" stroke-width="1.5" d="M0,-3.0v7 M-2.5,-0.5L0,-3.0L2.5,-0.5"/>
                </g>
        </g>
        <svg viewBox="0 0 15 15" width="100%" height="30px" preserveAspectRatio="xMaxYMin meet">
         <g id="arrow_out" transform="scale(0.3 0.3)">
          <a xlink:href="drawEMCALgeometry_8C__incl_org.svg" target="_base">
           <rect id="button" ry="5" rx="5" y="6" x="6" height="38" width="38"
                fill="#f2f5e9" fill-opacity="0.5" stroke="#606060" stroke-width="1.0"/>
           <path id="arrow"
             d="M 11.500037,31.436501 C 11.940474,20.09759 22.043105,11.32322 32.158766,21.979434 L 37.068811,17.246167 C 37.068811,17.246167 37.088388,32 37.088388,32 L 22.160133,31.978069 C 22.160133,31.978069 26.997745,27.140456 26.997745,27.140456 C 18.528582,18.264221 13.291696,25.230495 11.500037,31.436501 z"
             style="fill:#404040;"/>
          </a>
         </g>
        </svg>
</svg>
