<?xml version="1.0" encoding="UTF-8" standalone="no"?>
<!DOCTYPE svg PUBLIC "-//W3C//DTD SVG 1.1//EN"
 "http://www.w3.org/Graphics/SVG/1.1/DTD/svg11.dtd">
<!-- Generated by graphviz version 2.36.0 (20140111.2315)
 -->
<!-- Title: /home/travis/build/AliceO2Group/AliceO2/DataFormats/simulation/src/MCInteractionRecord.cxx Pages: 1 -->
<svg width="203pt" height="186pt"
 viewBox="0.00 0.00 203.00 186.00" xmlns="http://www.w3.org/2000/svg" xmlns:xlink="http://www.w3.org/1999/xlink">
<g id="graph0" class="graph" transform="scale(1 1) rotate(0) translate(4 182)">
<title>/home/travis/build/AliceO2Group/AliceO2/DataFormats/simulation/src/MCInteractionRecord.cxx</title>
<!-- Node1 -->
<g id="node1" class="node"><title>Node1</title>
<polygon fill="#bfbfbf" stroke="black" points="41,-125 41,-177 189,-177 189,-125 41,-125"/>
<text text-anchor="start" x="49" y="-165" font-family="Helvetica,sans-Serif" font-size="10.00">/home/travis/build</text>
<text text-anchor="start" x="49" y="-154" font-family="Helvetica,sans-Serif" font-size="10.00">/AliceO2Group/AliceO2</text>
<text text-anchor="start" x="49" y="-143" font-family="Helvetica,sans-Serif" font-size="10.00">/DataFormats/simulation</text>
<text text-anchor="middle" x="115" y="-132" font-family="Helvetica,sans-Serif" font-size="10.00">/src/MCInteractionRecord.cxx</text>
</g>
<!-- Node2 -->
<g id="node2" class="node"><title>Node2</title>
<g id="a_node2"><a xlink:href="../../d1/dbe/MCInteractionRecord_8h.html" target="_top" xlink:title="SimulationDataFormat\l/MCInteractionRecord.h">
<polygon fill="none" stroke="black" points="1.5,-57 1.5,-87 122.5,-87 122.5,-57 1.5,-57"/>
<text text-anchor="start" x="9.5" y="-75" font-family="Helvetica,sans-Serif" font-size="10.00">SimulationDataFormat</text>
<text text-anchor="middle" x="62" y="-64" font-family="Helvetica,sans-Serif" font-size="10.00">/MCInteractionRecord.h</text>
</a>
</g>
</g>
<!-- Node1&#45;&gt;Node2 -->
<g id="edge1" class="edge"><title>Node1&#45;&gt;Node2</title>
<path fill="none" stroke="midnightblue" d="M97.6458,-124.787C91.1485,-115.348 83.815,-104.694 77.4965,-95.5138"/>
<polygon fill="midnightblue" stroke="midnightblue" points="80.3628,-93.5049 71.8098,-87.252 74.5967,-97.4738 80.3628,-93.5049"/>
</g>
<!-- Node5 -->
<g id="node5" class="node"><title>Node5</title>
<polygon fill="none" stroke="#bfbfbf" points="141,-62.5 141,-81.5 195,-81.5 195,-62.5 141,-62.5"/>
<text text-anchor="middle" x="168" y="-69.5" font-family="Helvetica,sans-Serif" font-size="10.00">iostream</text>
</g>
<!-- Node1&#45;&gt;Node5 -->
<g id="edge4" class="edge"><title>Node1&#45;&gt;Node5</title>
<path fill="none" stroke="midnightblue" d="M132.354,-124.787C140.213,-113.37 149.295,-100.176 156.325,-89.9625"/>
<polygon fill="midnightblue" stroke="midnightblue" points="159.323,-91.7795 162.11,-81.5577 153.557,-87.8106 159.323,-91.7795"/>
</g>
<!-- Node3 -->
<g id="node3" class="node"><title>Node3</title>
<polygon fill="none" stroke="#bfbfbf" points="0,-0.5 0,-19.5 56,-19.5 56,-0.5 0,-0.5"/>
<text text-anchor="middle" x="28" y="-7.5" font-family="Helvetica,sans-Serif" font-size="10.00">Rtypes.h</text>
</g>
<!-- Node2&#45;&gt;Node3 -->
<g id="edge2" class="edge"><title>Node2&#45;&gt;Node3</title>
<path fill="none" stroke="midnightblue" d="M53.9425,-56.7808C49.1547,-48.3318 43.0439,-37.5481 37.9559,-28.5693"/>
<polygon fill="midnightblue" stroke="midnightblue" points="40.9226,-26.7052 32.9473,-19.7305 34.8324,-30.1563 40.9226,-26.7052"/>
</g>
<!-- Node4 -->
<g id="node4" class="node"><title>Node4</title>
<polygon fill="none" stroke="#bfbfbf" points="74.5,-0.5 74.5,-19.5 119.5,-19.5 119.5,-0.5 74.5,-0.5"/>
<text text-anchor="middle" x="97" y="-7.5" font-family="Helvetica,sans-Serif" font-size="10.00">iosfwd</text>
</g>
<!-- Node2&#45;&gt;Node4 -->
<g id="edge3" class="edge"><title>Node2&#45;&gt;Node4</title>
<path fill="none" stroke="midnightblue" d="M70.2945,-56.7808C75.2231,-48.3318 81.5136,-37.5481 86.7512,-28.5693"/>
<polygon fill="midnightblue" stroke="midnightblue" points="89.8917,-30.1319 91.9072,-19.7305 83.8452,-26.6048 89.8917,-30.1319"/>
</g>
</g>
</svg>
