<?xml version="1.0" encoding="UTF-8" standalone="no"?>
<!DOCTYPE svg PUBLIC "-//W3C//DTD SVG 1.1//EN"
 "http://www.w3.org/Graphics/SVG/1.1/DTD/svg11.dtd">
<!-- Generated by graphviz version 2.36.0 (20140111.2315)
 -->
<!-- Title: /home/travis/build/AliceO2Group/AliceO2/DataFormats/Detectors/ITSMFT/common/include/DataFormatsITSMFT/TopologyDictionary.h Pages: 1 -->
<svg width="418pt" height="128pt"
 viewBox="0.00 0.00 418.00 128.00" xmlns="http://www.w3.org/2000/svg" xmlns:xlink="http://www.w3.org/1999/xlink">
<g id="graph0" class="graph" transform="scale(1 1) rotate(0) translate(4 124)">
<title>/home/travis/build/AliceO2Group/AliceO2/DataFormats/Detectors/ITSMFT/common/include/DataFormatsITSMFT/TopologyDictionary.h</title>
<!-- Node1 -->
<g id="node1" class="node"><title>Node1</title>
<polygon fill="#bfbfbf" stroke="black" points="91,-56.5 91,-119.5 299,-119.5 299,-56.5 91,-56.5"/>
<text text-anchor="start" x="99" y="-107.5" font-family="Helvetica,sans-Serif" font-size="10.00">/home/travis/build</text>
<text text-anchor="start" x="99" y="-96.5" font-family="Helvetica,sans-Serif" font-size="10.00">/AliceO2Group/AliceO2</text>
<text text-anchor="start" x="99" y="-85.5" font-family="Helvetica,sans-Serif" font-size="10.00">/DataFormats/Detectors</text>
<text text-anchor="start" x="99" y="-74.5" font-family="Helvetica,sans-Serif" font-size="10.00">/ITSMFT/common/include</text>
<text text-anchor="middle" x="195" y="-63.5" font-family="Helvetica,sans-Serif" font-size="10.00">/DataFormatsITSMFT/TopologyDictionary.h</text>
</g>
<!-- Node2 -->
<g id="node2" class="node"><title>Node2</title>
<polygon fill="none" stroke="#bfbfbf" points="0,-0.5 0,-19.5 56,-19.5 56,-0.5 0,-0.5"/>
<text text-anchor="middle" x="28" y="-7.5" font-family="Helvetica,sans-Serif" font-size="10.00">Rtypes.h</text>
</g>
<!-- Node1&#45;&gt;Node2 -->
<g id="edge1" class="edge"><title>Node1&#45;&gt;Node2</title>
<path fill="none" stroke="midnightblue" d="M127.556,-56.307C102.62,-44.9588 75.6987,-32.7072 56.1462,-23.809"/>
<polygon fill="midnightblue" stroke="midnightblue" points="57.4637,-20.5633 46.9121,-19.6067 54.5641,-26.9345 57.4637,-20.5633"/>
</g>
<!-- Node3 -->
<g id="node3" class="node"><title>Node3</title>
<polygon fill="none" stroke="#bfbfbf" points="74,-0.5 74,-19.5 124,-19.5 124,-0.5 74,-0.5"/>
<text text-anchor="middle" x="99" y="-7.5" font-family="Helvetica,sans-Serif" font-size="10.00">fstream</text>
</g>
<!-- Node1&#45;&gt;Node3 -->
<g id="edge2" class="edge"><title>Node1&#45;&gt;Node3</title>
<path fill="none" stroke="midnightblue" d="M156.23,-56.307C143.09,-45.9047 128.992,-34.7434 118.076,-26.1016"/>
<polygon fill="midnightblue" stroke="midnightblue" points="120.096,-23.2367 110.083,-19.7738 115.751,-28.7251 120.096,-23.2367"/>
</g>
<!-- Node4 -->
<g id="node4" class="node"><title>Node4</title>
<polygon fill="none" stroke="#bfbfbf" points="142.5,-0.5 142.5,-19.5 187.5,-19.5 187.5,-0.5 142.5,-0.5"/>
<text text-anchor="middle" x="165" y="-7.5" font-family="Helvetica,sans-Serif" font-size="10.00">iosfwd</text>
</g>
<!-- Node1&#45;&gt;Node4 -->
<g id="edge3" class="edge"><title>Node1&#45;&gt;Node4</title>
<path fill="none" stroke="midnightblue" d="M182.798,-56.0879C179.188,-46.9441 175.355,-37.2326 172.174,-29.1737"/>
<polygon fill="midnightblue" stroke="midnightblue" points="175.369,-27.7346 168.441,-19.7182 168.858,-30.3048 175.369,-27.7346"/>
</g>
<!-- Node5 -->
<g id="node5" class="node"><title>Node5</title>
<polygon fill="none" stroke="#bfbfbf" points="205.5,-0.5 205.5,-19.5 246.5,-19.5 246.5,-0.5 205.5,-0.5"/>
<text text-anchor="middle" x="226" y="-7.5" font-family="Helvetica,sans-Serif" font-size="10.00">string</text>
</g>
<!-- Node1&#45;&gt;Node5 -->
<g id="edge4" class="edge"><title>Node1&#45;&gt;Node5</title>
<path fill="none" stroke="midnightblue" d="M207.609,-56.0879C211.339,-46.9441 215.3,-37.2326 218.587,-29.1737"/>
<polygon fill="midnightblue" stroke="midnightblue" points="221.908,-30.2994 222.444,-19.7182 215.426,-27.6556 221.908,-30.2994"/>
</g>
<!-- Node6 -->
<g id="node6" class="node"><title>Node6</title>
<polygon fill="none" stroke="#bfbfbf" points="264.5,-0.5 264.5,-19.5 347.5,-19.5 347.5,-0.5 264.5,-0.5"/>
<text text-anchor="middle" x="306" y="-7.5" font-family="Helvetica,sans-Serif" font-size="10.00">unordered_map</text>
</g>
<!-- Node1&#45;&gt;Node6 -->
<g id="edge5" class="edge"><title>Node1&#45;&gt;Node6</title>
<path fill="none" stroke="midnightblue" d="M239.828,-56.307C255.322,-45.6988 271.968,-34.3011 284.689,-25.5912"/>
<polygon fill="midnightblue" stroke="midnightblue" points="286.912,-28.3113 293.186,-19.7738 282.957,-22.5354 286.912,-28.3113"/>
</g>
<!-- Node7 -->
<g id="node7" class="node"><title>Node7</title>
<polygon fill="none" stroke="#bfbfbf" points="366,-0.5 366,-19.5 410,-19.5 410,-0.5 366,-0.5"/>
<text text-anchor="middle" x="388" y="-7.5" font-family="Helvetica,sans-Serif" font-size="10.00">vector</text>
</g>
<!-- Node1&#45;&gt;Node7 -->
<g id="edge6" class="edge"><title>Node1&#45;&gt;Node7</title>
<path fill="none" stroke="midnightblue" d="M272.666,-56.4164C302.046,-44.847 333.85,-32.3233 356.604,-23.3631"/>
<polygon fill="midnightblue" stroke="midnightblue" points="358.052,-26.5547 366.074,-19.6341 355.487,-20.0415 358.052,-26.5547"/>
</g>
</g>
</svg>
