<?xml version="1.0" encoding="UTF-8" standalone="no"?>
<!DOCTYPE svg PUBLIC "-//W3C//DTD SVG 1.1//EN"
 "http://www.w3.org/Graphics/SVG/1.1/DTD/svg11.dtd">
<!-- Generated by graphviz version 2.36.0 (20140111.2315)
 -->
<!-- Title: /home/travis/build/AliceO2Group/AliceO2/Detectors/ITSMFT/MFT/reconstruction/src/ClustererTask.cxx Pages: 1 -->
<svg width="2065pt" height="594pt"
 viewBox="0.00 0.00 2065.00 594.00" xmlns="http://www.w3.org/2000/svg" xmlns:xlink="http://www.w3.org/1999/xlink">
<g id="graph0" class="graph" transform="scale(1 1) rotate(0) translate(4 590)">
<title>/home/travis/build/AliceO2Group/AliceO2/Detectors/ITSMFT/MFT/reconstruction/src/ClustererTask.cxx</title>
<!-- Node1 -->
<g id="node1" class="node"><title>Node1</title>
<polygon fill="#bfbfbf" stroke="black" points="1557.5,-533 1557.5,-585 1738.5,-585 1738.5,-533 1557.5,-533"/>
<text text-anchor="start" x="1565.5" y="-573" font-family="Helvetica,sans-Serif" font-size="10.00">/home/travis/build</text>
<text text-anchor="start" x="1565.5" y="-562" font-family="Helvetica,sans-Serif" font-size="10.00">/AliceO2Group/AliceO2</text>
<text text-anchor="start" x="1565.5" y="-551" font-family="Helvetica,sans-Serif" font-size="10.00">/Detectors/ITSMFT/MFT</text>
<text text-anchor="middle" x="1648" y="-540" font-family="Helvetica,sans-Serif" font-size="10.00">/reconstruction/src/ClustererTask.cxx</text>
</g>
<!-- Node2 -->
<g id="node2" class="node"><title>Node2</title>
<g id="a_node2"><a xlink:href="../../db/d12/ITSMFT_2MFT_2reconstruction_2include_2MFTReconstruction_2ClustererTask_8h.html" target="_top" xlink:title="MFTReconstruction/Clusterer\lTask.h">
<polygon fill="none" stroke="black" points="186,-465 186,-495 332,-495 332,-465 186,-465"/>
<text text-anchor="start" x="194" y="-483" font-family="Helvetica,sans-Serif" font-size="10.00">MFTReconstruction/Clusterer</text>
<text text-anchor="middle" x="259" y="-472" font-family="Helvetica,sans-Serif" font-size="10.00">Task.h</text>
</a>
</g>
</g>
<!-- Node1&#45;&gt;Node2 -->
<g id="edge1" class="edge"><title>Node1&#45;&gt;Node2</title>
<path fill="none" stroke="midnightblue" d="M1557.3,-556.933C1346.12,-553.732 805.366,-541.399 356,-496 351.54,-495.549 346.973,-495.033 342.367,-494.469"/>
<polygon fill="midnightblue" stroke="midnightblue" points="342.615,-490.972 332.25,-493.166 341.721,-497.915 342.615,-490.972"/>
</g>
<!-- Node8 -->
<g id="node8" class="node"><title>Node8</title>
<g id="a_node8"><a xlink:href="../../d7/dcd/MCCompLabel_8h.html" target="_top" xlink:title="SimulationDataFormat\l/MCCompLabel.h">
<polygon fill="none" stroke="black" points="2,-137 2,-167 116,-167 116,-137 2,-137"/>
<text text-anchor="start" x="10" y="-155" font-family="Helvetica,sans-Serif" font-size="10.00">SimulationDataFormat</text>
<text text-anchor="middle" x="59" y="-144" font-family="Helvetica,sans-Serif" font-size="10.00">/MCCompLabel.h</text>
</a>
</g>
</g>
<!-- Node1&#45;&gt;Node8 -->
<g id="edge62" class="edge"><title>Node1&#45;&gt;Node8</title>
<path fill="none" stroke="midnightblue" d="M1557.46,-558.471C1279.56,-559.243 441.627,-556.364 177,-496 92.2896,-476.677 0,-499.886 0,-413 0,-413 0,-413 0,-287 0,-244.934 24.6551,-201.258 42.0893,-175.632"/>
<polygon fill="midnightblue" stroke="midnightblue" points="45.0205,-177.548 47.9026,-167.353 39.2917,-173.526 45.0205,-177.548"/>
</g>
<!-- Node17 -->
<g id="node17" class="node"><title>Node17</title>
<polygon fill="none" stroke="#bfbfbf" points="1612.5,-142.5 1612.5,-161.5 1683.5,-161.5 1683.5,-142.5 1612.5,-142.5"/>
<text text-anchor="middle" x="1648" y="-149.5" font-family="Helvetica,sans-Serif" font-size="10.00">FairLogger.h</text>
</g>
<!-- Node1&#45;&gt;Node17 -->
<g id="edge69" class="edge"><title>Node1&#45;&gt;Node17</title>
<path fill="none" stroke="midnightblue" d="M1648,-532.853C1648,-503.936 1648,-455.04 1648,-413 1648,-413 1648,-413 1648,-287 1648,-246.046 1648,-198.052 1648,-172.066"/>
<polygon fill="midnightblue" stroke="midnightblue" points="1651.5,-171.78 1648,-161.78 1644.5,-171.78 1651.5,-171.78"/>
</g>
<!-- Node43 -->
<g id="node43" class="node"><title>Node43</title>
<g id="a_node43"><a xlink:href="../../dc/de5/Detectors_2ITSMFT_2MFT_2base_2include_2MFTBase_2Constants_8h.html" target="_top" xlink:title="MFTBase/Constants.h">
<polygon fill="none" stroke="black" points="312,-340.5 312,-359.5 428,-359.5 428,-340.5 312,-340.5"/>
<text text-anchor="middle" x="370" y="-347.5" font-family="Helvetica,sans-Serif" font-size="10.00">MFTBase/Constants.h</text>
</a>
</g>
</g>
<!-- Node1&#45;&gt;Node43 -->
<g id="edge58" class="edge"><title>Node1&#45;&gt;Node43</title>
<path fill="none" stroke="midnightblue" d="M1557.48,-554.592C1283.57,-543.472 476.924,-504.477 389,-428 372.56,-413.7 369.184,-387.656 369.004,-369.851"/>
<polygon fill="midnightblue" stroke="midnightblue" points="372.505,-369.854 369.229,-359.778 365.506,-369.698 372.505,-369.854"/>
</g>
<!-- Node44 -->
<g id="node44" class="node"><title>Node44</title>
<g id="a_node44"><a xlink:href="../../d6/d2e/ITSMFT_2MFT_2base_2include_2MFTBase_2Geometry_8h.html" target="_top" xlink:title="MFTBase/Geometry.h">
<polygon fill="none" stroke="black" points="1825.5,-470.5 1825.5,-489.5 1938.5,-489.5 1938.5,-470.5 1825.5,-470.5"/>
<text text-anchor="middle" x="1882" y="-477.5" font-family="Helvetica,sans-Serif" font-size="10.00">MFTBase/Geometry.h</text>
</a>
</g>
</g>
<!-- Node1&#45;&gt;Node44 -->
<g id="edge60" class="edge"><title>Node1&#45;&gt;Node44</title>
<path fill="none" stroke="midnightblue" d="M1724.3,-532.894C1765.21,-519.429 1813.72,-503.468 1846.03,-492.837"/>
<polygon fill="midnightblue" stroke="midnightblue" points="1847.51,-496.033 1855.92,-489.583 1845.32,-489.384 1847.51,-496.033"/>
</g>
<!-- Node46 -->
<g id="node46" class="node"><title>Node46</title>
<g id="a_node46"><a xlink:href="../../db/d14/MCTruthContainer_8h.html" target="_top" xlink:title="Definition of a container to keep Monte Carlo truth external to simulation objects. ">
<polygon fill="none" stroke="black" points="1693,-465 1693,-495 1807,-495 1807,-465 1693,-465"/>
<text text-anchor="start" x="1701" y="-483" font-family="Helvetica,sans-Serif" font-size="10.00">SimulationDataFormat</text>
<text text-anchor="middle" x="1750" y="-472" font-family="Helvetica,sans-Serif" font-size="10.00">/MCTruthContainer.h</text>
</a>
</g>
</g>
<!-- Node1&#45;&gt;Node46 -->
<g id="edge63" class="edge"><title>Node1&#45;&gt;Node46</title>
<path fill="none" stroke="midnightblue" d="M1681.4,-532.787C1695.03,-522.497 1710.57,-510.764 1723.41,-501.07"/>
<polygon fill="midnightblue" stroke="midnightblue" points="1725.54,-503.849 1731.41,-495.031 1721.32,-498.262 1725.54,-503.849"/>
</g>
<!-- Node49 -->
<g id="node49" class="node"><title>Node49</title>
<polygon fill="none" stroke="#bfbfbf" points="1957,-470.5 1957,-489.5 2057,-489.5 2057,-470.5 1957,-470.5"/>
<text text-anchor="middle" x="2007" y="-477.5" font-family="Helvetica,sans-Serif" font-size="10.00">FairRootManager.h</text>
</g>
<!-- Node1&#45;&gt;Node49 -->
<g id="edge70" class="edge"><title>Node1&#45;&gt;Node49</title>
<path fill="none" stroke="midnightblue" d="M1738.82,-540.163C1798.19,-528.257 1877.36,-511.918 1947,-496 1952.43,-494.759 1958.12,-493.405 1963.75,-492.034"/>
<polygon fill="midnightblue" stroke="midnightblue" points="1964.86,-495.365 1973.73,-489.571 1963.19,-488.568 1964.86,-495.365"/>
</g>
<!-- Node3 -->
<g id="node3" class="node"><title>Node3</title>
<polygon fill="none" stroke="#bfbfbf" points="227.5,-402.5 227.5,-421.5 290.5,-421.5 290.5,-402.5 227.5,-402.5"/>
<text text-anchor="middle" x="259" y="-409.5" font-family="Helvetica,sans-Serif" font-size="10.00">FairTask.h</text>
</g>
<!-- Node2&#45;&gt;Node3 -->
<g id="edge2" class="edge"><title>Node2&#45;&gt;Node3</title>
<path fill="none" stroke="midnightblue" d="M259,-464.679C259,-455.101 259,-442.394 259,-431.977"/>
<polygon fill="midnightblue" stroke="midnightblue" points="262.5,-431.828 259,-421.828 255.5,-431.828 262.5,-431.828"/>
</g>
<!-- Node4 -->
<g id="node4" class="node"><title>Node4</title>
<polygon fill="none" stroke="#bfbfbf" points="28.5,-402.5 28.5,-421.5 165.5,-421.5 165.5,-402.5 28.5,-402.5"/>
<text text-anchor="middle" x="97" y="-409.5" font-family="Helvetica,sans-Serif" font-size="10.00">MFTBase/GeometryTGeo.h</text>
</g>
<!-- Node2&#45;&gt;Node4 -->
<g id="edge3" class="edge"><title>Node2&#45;&gt;Node4</title>
<path fill="none" stroke="midnightblue" d="M224.247,-464.841C195.597,-453.169 155.34,-436.768 127.825,-425.558"/>
<polygon fill="midnightblue" stroke="midnightblue" points="128.892,-422.214 118.31,-421.682 126.25,-428.696 128.892,-422.214"/>
</g>
<!-- Node5 -->
<g id="node5" class="node"><title>Node5</title>
<g id="a_node5"><a xlink:href="../../df/d2e/PixelReader_8h.html" target="_top" xlink:title="Definition of the ITS pixel reader. ">
<polygon fill="none" stroke="black" points="128.5,-273 128.5,-303 247.5,-303 247.5,-273 128.5,-273"/>
<text text-anchor="start" x="136.5" y="-291" font-family="Helvetica,sans-Serif" font-size="10.00">ITSMFTReconstruction</text>
<text text-anchor="middle" x="188" y="-280" font-family="Helvetica,sans-Serif" font-size="10.00">/PixelReader.h</text>
</a>
</g>
</g>
<!-- Node2&#45;&gt;Node5 -->
<g id="edge4" class="edge"><title>Node2&#45;&gt;Node5</title>
<path fill="none" stroke="midnightblue" d="M244.404,-464.654C235.477,-455.071 224.551,-441.742 218,-428 200.087,-390.424 192.756,-342.045 189.839,-313.395"/>
<polygon fill="midnightblue" stroke="midnightblue" points="193.293,-312.74 188.896,-303.101 186.322,-313.378 193.293,-312.74"/>
</g>
<!-- Node10 -->
<g id="node10" class="node"><title>Node10</title>
<g id="a_node10"><a xlink:href="../../d6/d04/ITSMFT_2common_2reconstruction_2include_2ITSMFTReconstruction_2Clusterer_8h.html" target="_top" xlink:title="ITSMFTReconstruction\l/Clusterer.h">
<polygon fill="none" stroke="black" points="398.5,-397 398.5,-427 517.5,-427 517.5,-397 398.5,-397"/>
<text text-anchor="start" x="406.5" y="-415" font-family="Helvetica,sans-Serif" font-size="10.00">ITSMFTReconstruction</text>
<text text-anchor="middle" x="458" y="-404" font-family="Helvetica,sans-Serif" font-size="10.00">/Clusterer.h</text>
</a>
</g>
</g>
<!-- Node2&#45;&gt;Node10 -->
<g id="edge13" class="edge"><title>Node2&#45;&gt;Node10</title>
<path fill="none" stroke="midnightblue" d="M301.69,-464.841C332.222,-454.715 373.487,-441.03 405.951,-430.262"/>
<polygon fill="midnightblue" stroke="midnightblue" points="407.332,-433.492 415.722,-427.022 405.129,-426.848 407.332,-433.492"/>
</g>
<!-- Node6 -->
<g id="node6" class="node"><title>Node6</title>
<polygon fill="none" stroke="#bfbfbf" points="116,-74.5 116,-93.5 172,-93.5 172,-74.5 116,-74.5"/>
<text text-anchor="middle" x="144" y="-81.5" font-family="Helvetica,sans-Serif" font-size="10.00">Rtypes.h</text>
</g>
<!-- Node5&#45;&gt;Node6 -->
<g id="edge5" class="edge"><title>Node5&#45;&gt;Node6</title>
<path fill="none" stroke="midnightblue" d="M225.569,-272.825C286.768,-247.66 396.782,-192.492 351,-136 302.374,-75.9986 254.852,-122.596 181,-100 178.357,-99.1913 175.64,-98.2707 172.935,-97.2925"/>
<polygon fill="midnightblue" stroke="midnightblue" points="173.943,-93.93 163.354,-93.5955 171.423,-100.461 173.943,-93.93"/>
</g>
<!-- Node7 -->
<g id="node7" class="node"><title>Node7</title>
<g id="a_node7"><a xlink:href="../../d0/d06/ITSMFT_2common_2base_2include_2ITSMFTBase_2Digit_8h.html" target="_top" xlink:title="ITSMFTBase/Digit.h">
<polygon fill="none" stroke="black" points="112.5,-210.5 112.5,-229.5 219.5,-229.5 219.5,-210.5 112.5,-210.5"/>
<text text-anchor="middle" x="166" y="-217.5" font-family="Helvetica,sans-Serif" font-size="10.00">ITSMFTBase/Digit.h</text>
</a>
</g>
</g>
<!-- Node5&#45;&gt;Node7 -->
<g id="edge6" class="edge"><title>Node5&#45;&gt;Node7</title>
<path fill="none" stroke="midnightblue" d="M183.226,-272.679C180,-262.999 175.708,-250.123 172.215,-239.645"/>
<polygon fill="midnightblue" stroke="midnightblue" points="175.426,-238.208 168.943,-229.828 168.785,-240.422 175.426,-238.208"/>
</g>
<!-- Node5&#45;&gt;Node8 -->
<g id="edge12" class="edge"><title>Node5&#45;&gt;Node8</title>
<path fill="none" stroke="midnightblue" d="M155.635,-272.865C138.416,-264.134 117.803,-251.609 103,-236 86.6938,-218.806 74.7238,-194.394 67.4204,-176.495"/>
<polygon fill="midnightblue" stroke="midnightblue" points="70.6387,-175.114 63.7536,-167.061 64.1142,-177.65 70.6387,-175.114"/>
</g>
<!-- Node7&#45;&gt;Node6 -->
<g id="edge7" class="edge"><title>Node7&#45;&gt;Node6</title>
<path fill="none" stroke="midnightblue" d="M164.557,-210.208C161.029,-188.722 151.908,-133.167 147.089,-103.814"/>
<polygon fill="midnightblue" stroke="midnightblue" points="150.494,-102.951 145.42,-93.6503 143.587,-104.085 150.494,-102.951"/>
</g>
<!-- Node7&#45;&gt;Node8 -->
<g id="edge8" class="edge"><title>Node7&#45;&gt;Node8</title>
<path fill="none" stroke="midnightblue" d="M152.012,-210.372C136.517,-200.814 111.033,-185.095 90.6538,-172.525"/>
<polygon fill="midnightblue" stroke="midnightblue" points="92.3397,-169.452 81.9911,-167.181 88.6648,-175.41 92.3397,-169.452"/>
</g>
<!-- Node9 -->
<g id="node9" class="node"><title>Node9</title>
<g id="a_node9"><a xlink:href="../../df/d5d/common_2include_2CommonDataFormat_2TimeStamp_8h.html" target="_top" xlink:title="CommonDataFormat/TimeStamp.h">
<polygon fill="none" stroke="black" points="172,-142.5 172,-161.5 342,-161.5 342,-142.5 172,-142.5"/>
<text text-anchor="middle" x="257" y="-149.5" font-family="Helvetica,sans-Serif" font-size="10.00">CommonDataFormat/TimeStamp.h</text>
</a>
</g>
</g>
<!-- Node7&#45;&gt;Node9 -->
<g id="edge10" class="edge"><title>Node7&#45;&gt;Node9</title>
<path fill="none" stroke="midnightblue" d="M177.897,-210.372C192.884,-199.502 218.862,-180.66 236.942,-167.547"/>
<polygon fill="midnightblue" stroke="midnightblue" points="239.06,-170.335 245.1,-161.63 234.95,-164.668 239.06,-170.335"/>
</g>
<!-- Node8&#45;&gt;Node6 -->
<g id="edge9" class="edge"><title>Node8&#45;&gt;Node6</title>
<path fill="none" stroke="midnightblue" d="M77.4437,-136.679C91.3532,-125.879 110.389,-111.098 124.54,-100.11"/>
<polygon fill="midnightblue" stroke="midnightblue" points="126.878,-102.726 132.63,-93.8283 122.585,-97.1968 126.878,-102.726"/>
</g>
<!-- Node9&#45;&gt;Node6 -->
<g id="edge11" class="edge"><title>Node9&#45;&gt;Node6</title>
<path fill="none" stroke="midnightblue" d="M242.227,-142.372C223.278,-131.304 190.18,-111.972 167.692,-98.838"/>
<polygon fill="midnightblue" stroke="midnightblue" points="169.177,-95.6517 158.776,-93.6305 165.646,-101.696 169.177,-95.6517"/>
</g>
<!-- Node10&#45;&gt;Node5 -->
<g id="edge56" class="edge"><title>Node10&#45;&gt;Node5</title>
<path fill="none" stroke="midnightblue" d="M405.157,-396.973C374.627,-388.047 335.877,-375.297 303,-360 271.824,-345.494 238.656,-324.33 215.993,-308.883"/>
<polygon fill="midnightblue" stroke="midnightblue" points="217.772,-305.859 207.553,-303.063 213.798,-311.621 217.772,-305.859"/>
</g>
<!-- Node10&#45;&gt;Node6 -->
<g id="edge57" class="edge"><title>Node10&#45;&gt;Node6</title>
<path fill="none" stroke="midnightblue" d="M458.543,-396.867C459.463,-351.101 455.651,-205.893 375,-136 308.729,-78.5684 265.174,-124.599 181,-100 178.193,-99.1798 175.307,-98.2225 172.443,-97.1957"/>
<polygon fill="midnightblue" stroke="midnightblue" points="173.533,-93.8648 162.943,-93.5344 171.015,-100.397 173.533,-93.8648"/>
</g>
<!-- Node11 -->
<g id="node11" class="node"><title>Node11</title>
<polygon fill="none" stroke="#bfbfbf" points="216,-340.5 216,-359.5 256,-359.5 256,-340.5 216,-340.5"/>
<text text-anchor="middle" x="236" y="-347.5" font-family="Helvetica,sans-Serif" font-size="10.00">utility</text>
</g>
<!-- Node10&#45;&gt;Node11 -->
<g id="edge14" class="edge"><title>Node10&#45;&gt;Node11</title>
<path fill="none" stroke="midnightblue" d="M405.951,-396.933C362.443,-385.174 301.913,-368.814 266.062,-359.125"/>
<polygon fill="midnightblue" stroke="midnightblue" points="266.774,-355.692 256.207,-356.461 264.948,-362.449 266.774,-355.692"/>
</g>
<!-- Node12 -->
<g id="node12" class="node"><title>Node12</title>
<polygon fill="none" stroke="#bfbfbf" points="504,-142.5 504,-161.5 548,-161.5 548,-142.5 504,-142.5"/>
<text text-anchor="middle" x="526" y="-149.5" font-family="Helvetica,sans-Serif" font-size="10.00">vector</text>
</g>
<!-- Node10&#45;&gt;Node12 -->
<g id="edge15" class="edge"><title>Node10&#45;&gt;Node12</title>
<path fill="none" stroke="midnightblue" d="M461.753,-396.761C473.299,-352.953 508.289,-220.196 521.172,-171.319"/>
<polygon fill="midnightblue" stroke="midnightblue" points="524.594,-172.067 523.758,-161.505 517.825,-170.283 524.594,-172.067"/>
</g>
<!-- Node13 -->
<g id="node13" class="node"><title>Node13</title>
<g id="a_node13"><a xlink:href="../../d0/d2d/common_2base_2include_2ITSMFTBase_2GeometryTGeo_8h.html" target="_top" xlink:title="ITSMFTBase/GeometryTGeo.h">
<polygon fill="none" stroke="black" points="522.5,-340.5 522.5,-359.5 675.5,-359.5 675.5,-340.5 522.5,-340.5"/>
<text text-anchor="middle" x="599" y="-347.5" font-family="Helvetica,sans-Serif" font-size="10.00">ITSMFTBase/GeometryTGeo.h</text>
</a>
</g>
</g>
<!-- Node10&#45;&gt;Node13 -->
<g id="edge16" class="edge"><title>Node10&#45;&gt;Node13</title>
<path fill="none" stroke="midnightblue" d="M491.058,-396.933C514.847,-386.81 546.647,-373.278 569.562,-363.527"/>
<polygon fill="midnightblue" stroke="midnightblue" points="570.959,-366.736 578.79,-359.6 568.218,-360.295 570.959,-366.736"/>
</g>
<!-- Node38 -->
<g id="node38" class="node"><title>Node38</title>
<g id="a_node38"><a xlink:href="../../d1/d62/DataFormats_2Detectors_2ITSMFT_2common_2include_2DataFormatsITSMFT_2Cluster_8h.html" target="_top" xlink:title="DataFormatsITSMFT/Cluster.h">
<polygon fill="none" stroke="black" points="694,-340.5 694,-359.5 846,-359.5 846,-340.5 694,-340.5"/>
<text text-anchor="middle" x="770" y="-347.5" font-family="Helvetica,sans-Serif" font-size="10.00">DataFormatsITSMFT/Cluster.h</text>
</a>
</g>
</g>
<!-- Node10&#45;&gt;Node38 -->
<g id="edge47" class="edge"><title>Node10&#45;&gt;Node38</title>
<path fill="none" stroke="midnightblue" d="M517.788,-399.502C574.923,-388.515 660.307,-372.095 715.583,-361.465"/>
<polygon fill="midnightblue" stroke="midnightblue" points="716.382,-364.875 725.541,-359.55 715.06,-358.001 716.382,-364.875"/>
</g>
<!-- Node14 -->
<g id="node14" class="node"><title>Node14</title>
<polygon fill="none" stroke="#bfbfbf" points="529.5,-278.5 529.5,-297.5 598.5,-297.5 598.5,-278.5 529.5,-278.5"/>
<text text-anchor="middle" x="564" y="-285.5" font-family="Helvetica,sans-Serif" font-size="10.00">TObjArray.h</text>
</g>
<!-- Node13&#45;&gt;Node14 -->
<g id="edge17" class="edge"><title>Node13&#45;&gt;Node14</title>
<path fill="none" stroke="midnightblue" d="M593.985,-340.403C588.839,-331.582 580.688,-317.608 574.182,-306.455"/>
<polygon fill="midnightblue" stroke="midnightblue" points="577.067,-304.455 569.005,-297.581 571.021,-307.982 577.067,-304.455"/>
</g>
<!-- Node15 -->
<g id="node15" class="node"><title>Node15</title>
<polygon fill="none" stroke="#bfbfbf" points="616.5,-278.5 616.5,-297.5 657.5,-297.5 657.5,-278.5 616.5,-278.5"/>
<text text-anchor="middle" x="637" y="-285.5" font-family="Helvetica,sans-Serif" font-size="10.00">string</text>
</g>
<!-- Node13&#45;&gt;Node15 -->
<g id="edge18" class="edge"><title>Node13&#45;&gt;Node15</title>
<path fill="none" stroke="midnightblue" d="M604.444,-340.403C610.088,-331.493 619.061,-317.325 626.159,-306.118"/>
<polygon fill="midnightblue" stroke="midnightblue" points="629.172,-307.901 631.566,-297.581 623.258,-304.156 629.172,-307.901"/>
</g>
<!-- Node16 -->
<g id="node16" class="node"><title>Node16</title>
<g id="a_node16"><a xlink:href="../../d4/d20/DetMatrixCache_8h.html" target="_top" xlink:title="DetectorsCommonDataFormats\l/DetMatrixCache.h">
<polygon fill="none" stroke="black" points="883,-205 883,-235 1039,-235 1039,-205 883,-205"/>
<text text-anchor="start" x="891" y="-223" font-family="Helvetica,sans-Serif" font-size="10.00">DetectorsCommonDataFormats</text>
<text text-anchor="middle" x="961" y="-212" font-family="Helvetica,sans-Serif" font-size="10.00">/DetMatrixCache.h</text>
</a>
</g>
</g>
<!-- Node13&#45;&gt;Node16 -->
<g id="edge19" class="edge"><title>Node13&#45;&gt;Node16</title>
<path fill="none" stroke="midnightblue" d="M655.779,-340.492C713.857,-331.344 799.851,-316.438 831,-304 870.152,-288.367 910.315,-260.57 935.438,-241.484"/>
<polygon fill="midnightblue" stroke="midnightblue" points="937.893,-244.011 943.671,-235.13 933.616,-238.469 937.893,-244.011"/>
</g>
<!-- Node16&#45;&gt;Node6 -->
<g id="edge46" class="edge"><title>Node16&#45;&gt;Node6</title>
<path fill="none" stroke="midnightblue" d="M882.835,-205.113C829.056,-195.33 756.049,-181.6 692,-168 631.259,-155.102 617.268,-146.101 556,-136 390.797,-108.763 343.617,-139.87 181,-100 177.935,-99.2485 174.79,-98.2898 171.69,-97.2214"/>
<polygon fill="midnightblue" stroke="midnightblue" points="172.686,-93.8554 162.095,-93.5541 170.187,-100.394 172.686,-93.8554"/>
</g>
<!-- Node16&#45;&gt;Node12 -->
<g id="edge22" class="edge"><title>Node16&#45;&gt;Node12</title>
<path fill="none" stroke="midnightblue" d="M882.852,-209.228C809.797,-199.785 697.758,-184.516 601,-168 586.953,-165.602 571.504,-162.579 558.297,-159.876"/>
<polygon fill="midnightblue" stroke="midnightblue" points="558.757,-156.397 548.255,-157.795 557.336,-163.251 558.757,-156.397"/>
</g>
<!-- Node16&#45;&gt;Node17 -->
<g id="edge20" class="edge"><title>Node16&#45;&gt;Node17</title>
<path fill="none" stroke="midnightblue" d="M1039.17,-218.045C1160,-215.382 1399.01,-205.378 1598,-168 1603.1,-167.042 1608.42,-165.761 1613.61,-164.351"/>
<polygon fill="midnightblue" stroke="midnightblue" points="1614.7,-167.678 1623.33,-161.529 1612.75,-160.956 1614.7,-167.678"/>
</g>
<!-- Node18 -->
<g id="node18" class="node"><title>Node18</title>
<polygon fill="none" stroke="#bfbfbf" points="1532,-6.5 1532,-25.5 1570,-25.5 1570,-6.5 1532,-6.5"/>
<text text-anchor="middle" x="1551" y="-13.5" font-family="Helvetica,sans-Serif" font-size="10.00">array</text>
</g>
<!-- Node16&#45;&gt;Node18 -->
<g id="edge21" class="edge"><title>Node16&#45;&gt;Node18</title>
<path fill="none" stroke="midnightblue" d="M1039.27,-218.939C1180.89,-217.759 1473.46,-210.112 1565,-168 1574.78,-163.501 1629.84,-109.93 1634,-100 1639.49,-86.8803 1640.94,-80.413 1634,-68 1622.47,-47.3851 1598.82,-34.0845 1579.7,-26.253"/>
<polygon fill="midnightblue" stroke="midnightblue" points="1580.8,-22.9254 1570.21,-22.6463 1578.31,-29.4692 1580.8,-22.9254"/>
</g>
<!-- Node19 -->
<g id="node19" class="node"><title>Node19</title>
<g id="a_node19"><a xlink:href="../../d6/d31/DetID_8h.html" target="_top" xlink:title="DetectorsCommonDataFormats\l/DetID.h">
<polygon fill="none" stroke="black" points="1400,-137 1400,-167 1556,-167 1556,-137 1400,-137"/>
<text text-anchor="start" x="1408" y="-155" font-family="Helvetica,sans-Serif" font-size="10.00">DetectorsCommonDataFormats</text>
<text text-anchor="middle" x="1478" y="-144" font-family="Helvetica,sans-Serif" font-size="10.00">/DetID.h</text>
</a>
</g>
</g>
<!-- Node16&#45;&gt;Node19 -->
<g id="edge23" class="edge"><title>Node16&#45;&gt;Node19</title>
<path fill="none" stroke="midnightblue" d="M1039.24,-209.012C1133.53,-196.975 1291.54,-176.804 1389.99,-164.235"/>
<polygon fill="midnightblue" stroke="midnightblue" points="1390.44,-167.706 1399.92,-162.968 1389.56,-160.762 1390.44,-167.706"/>
</g>
<!-- Node27 -->
<g id="node27" class="node"><title>Node27</title>
<g id="a_node27"><a xlink:href="../../dd/d76/Cartesian3D_8h.html" target="_top" xlink:title="MathUtils/Cartesian3D.h">
<polygon fill="none" stroke="black" points="701.5,-142.5 701.5,-161.5 826.5,-161.5 826.5,-142.5 701.5,-142.5"/>
<text text-anchor="middle" x="764" y="-149.5" font-family="Helvetica,sans-Serif" font-size="10.00">MathUtils/Cartesian3D.h</text>
</a>
</g>
</g>
<!-- Node16&#45;&gt;Node27 -->
<g id="edge34" class="edge"><title>Node16&#45;&gt;Node27</title>
<path fill="none" stroke="midnightblue" d="M918.739,-204.841C883.186,-192.93 832.933,-176.094 799.449,-164.876"/>
<polygon fill="midnightblue" stroke="midnightblue" points="800.224,-161.445 789.63,-161.587 798.001,-168.082 800.224,-161.445"/>
</g>
<!-- Node19&#45;&gt;Node6 -->
<g id="edge24" class="edge"><title>Node19&#45;&gt;Node6</title>
<path fill="none" stroke="midnightblue" d="M1399.8,-149.495C1137.63,-144.231 299.682,-125.573 181,-100 177.748,-99.2992 174.414,-98.3338 171.144,-97.2278"/>
<polygon fill="midnightblue" stroke="midnightblue" points="172.261,-93.9078 161.67,-93.6114 169.764,-100.448 172.261,-93.9078"/>
</g>
<!-- Node19&#45;&gt;Node18 -->
<g id="edge25" class="edge"><title>Node19&#45;&gt;Node18</title>
<path fill="none" stroke="midnightblue" d="M1498.05,-136.885C1509.67,-127.675 1523.61,-114.664 1532,-100 1543.5,-79.8946 1548.04,-53.3092 1549.83,-35.7068"/>
<polygon fill="midnightblue" stroke="midnightblue" points="1553.33,-35.8471 1550.66,-25.5951 1546.35,-35.2767 1553.33,-35.8471"/>
</g>
<!-- Node20 -->
<g id="node20" class="node"><title>Node20</title>
<polygon fill="none" stroke="#bfbfbf" points="1373.5,-74.5 1373.5,-93.5 1414.5,-93.5 1414.5,-74.5 1373.5,-74.5"/>
<text text-anchor="middle" x="1394" y="-81.5" font-family="Helvetica,sans-Serif" font-size="10.00">bitset</text>
</g>
<!-- Node19&#45;&gt;Node20 -->
<g id="edge26" class="edge"><title>Node19&#45;&gt;Node20</title>
<path fill="none" stroke="midnightblue" d="M1459.77,-136.679C1446.03,-125.879 1427.22,-111.098 1413.23,-100.11"/>
<polygon fill="midnightblue" stroke="midnightblue" points="1415.26,-97.2544 1405.24,-93.8283 1410.94,-102.759 1415.26,-97.2544"/>
</g>
<!-- Node21 -->
<g id="node21" class="node"><title>Node21</title>
<polygon fill="none" stroke="#bfbfbf" points="1681.5,-74.5 1681.5,-93.5 1730.5,-93.5 1730.5,-74.5 1681.5,-74.5"/>
<text text-anchor="middle" x="1706" y="-81.5" font-family="Helvetica,sans-Serif" font-size="10.00">cassert</text>
</g>
<!-- Node19&#45;&gt;Node21 -->
<g id="edge27" class="edge"><title>Node19&#45;&gt;Node21</title>
<path fill="none" stroke="midnightblue" d="M1526.63,-136.922C1570.21,-124.307 1633.04,-106.12 1671.61,-94.9564"/>
<polygon fill="midnightblue" stroke="midnightblue" points="1672.7,-98.2836 1681.33,-92.141 1670.75,-91.5596 1672.7,-98.2836"/>
</g>
<!-- Node22 -->
<g id="node22" class="node"><title>Node22</title>
<polygon fill="none" stroke="#bfbfbf" points="1579,-74.5 1579,-93.5 1625,-93.5 1625,-74.5 1579,-74.5"/>
<text text-anchor="middle" x="1602" y="-81.5" font-family="Helvetica,sans-Serif" font-size="10.00">cstdint</text>
</g>
<!-- Node19&#45;&gt;Node22 -->
<g id="edge28" class="edge"><title>Node19&#45;&gt;Node22</title>
<path fill="none" stroke="midnightblue" d="M1504.6,-136.841C1525.95,-125.476 1555.73,-109.628 1576.72,-98.454"/>
<polygon fill="midnightblue" stroke="midnightblue" points="1578.51,-101.47 1585.69,-93.6819 1575.22,-95.2908 1578.51,-101.47"/>
</g>
<!-- Node23 -->
<g id="node23" class="node"><title>Node23</title>
<polygon fill="none" stroke="#bfbfbf" points="1749,-74.5 1749,-93.5 1811,-93.5 1811,-74.5 1749,-74.5"/>
<text text-anchor="middle" x="1780" y="-81.5" font-family="Helvetica,sans-Serif" font-size="10.00">type_traits</text>
</g>
<!-- Node19&#45;&gt;Node23 -->
<g id="edge29" class="edge"><title>Node19&#45;&gt;Node23</title>
<path fill="none" stroke="midnightblue" d="M1556.12,-139.05C1608.38,-130.249 1678.4,-116.891 1739,-100 1742.21,-99.1045 1745.53,-98.0737 1748.83,-96.9806"/>
<polygon fill="midnightblue" stroke="midnightblue" points="1750.23,-100.199 1758.5,-93.5873 1747.91,-93.5933 1750.23,-100.199"/>
</g>
<!-- Node24 -->
<g id="node24" class="node"><title>Node24</title>
<g id="a_node24"><a xlink:href="../../d9/d52/Common_2MathUtils_2include_2MathUtils_2Utils_8h.html" target="_top" xlink:title="MathUtils/Utils.h">
<polygon fill="none" stroke="black" points="1433,-74.5 1433,-93.5 1523,-93.5 1523,-74.5 1433,-74.5"/>
<text text-anchor="middle" x="1478" y="-81.5" font-family="Helvetica,sans-Serif" font-size="10.00">MathUtils/Utils.h</text>
</a>
</g>
</g>
<!-- Node19&#45;&gt;Node24 -->
<g id="edge30" class="edge"><title>Node19&#45;&gt;Node24</title>
<path fill="none" stroke="midnightblue" d="M1478,-136.679C1478,-127.101 1478,-114.394 1478,-103.977"/>
<polygon fill="midnightblue" stroke="midnightblue" points="1481.5,-103.828 1478,-93.8283 1474.5,-103.828 1481.5,-103.828"/>
</g>
<!-- Node24&#45;&gt;Node18 -->
<g id="edge31" class="edge"><title>Node24&#45;&gt;Node18</title>
<path fill="none" stroke="midnightblue" d="M1487.54,-74.3717C1499.17,-63.8564 1519.05,-45.8819 1533.47,-32.8496"/>
<polygon fill="midnightblue" stroke="midnightblue" points="1536.15,-35.1438 1541.22,-25.8411 1531.46,-29.9514 1536.15,-35.1438"/>
</g>
<!-- Node25 -->
<g id="node25" class="node"><title>Node25</title>
<polygon fill="none" stroke="#bfbfbf" points="1463,-6.5 1463,-25.5 1507,-25.5 1507,-6.5 1463,-6.5"/>
<text text-anchor="middle" x="1485" y="-13.5" font-family="Helvetica,sans-Serif" font-size="10.00">cmath</text>
</g>
<!-- Node24&#45;&gt;Node25 -->
<g id="edge32" class="edge"><title>Node24&#45;&gt;Node25</title>
<path fill="none" stroke="midnightblue" d="M1478.92,-74.3717C1479.95,-64.6426 1481.66,-48.528 1483,-35.8504"/>
<polygon fill="midnightblue" stroke="midnightblue" points="1486.49,-36.1545 1484.06,-25.8411 1479.53,-35.4162 1486.49,-36.1545"/>
</g>
<!-- Node26 -->
<g id="node26" class="node"><title>Node26</title>
<g id="a_node26"><a xlink:href="../../d6/d84/MathConstants_8h.html" target="_top" xlink:title="useful math constants ">
<polygon fill="none" stroke="black" points="1265.5,-6.5 1265.5,-25.5 1444.5,-25.5 1444.5,-6.5 1265.5,-6.5"/>
<text text-anchor="middle" x="1355" y="-13.5" font-family="Helvetica,sans-Serif" font-size="10.00">CommonConstants/MathConstants.h</text>
</a>
</g>
</g>
<!-- Node24&#45;&gt;Node26 -->
<g id="edge33" class="edge"><title>Node24&#45;&gt;Node26</title>
<path fill="none" stroke="midnightblue" d="M1461.92,-74.3717C1441.11,-63.2051 1404.62,-43.6266 1380.14,-30.4876"/>
<polygon fill="midnightblue" stroke="midnightblue" points="1381.55,-27.2746 1371.08,-25.6305 1378.24,-33.4428 1381.55,-27.2746"/>
</g>
<!-- Node27&#45;&gt;Node6 -->
<g id="edge40" class="edge"><title>Node27&#45;&gt;Node6</title>
<path fill="none" stroke="midnightblue" d="M701.195,-143.62C678.466,-141.055 652.592,-138.258 629,-136 430.156,-116.968 375.37,-146.059 181,-100 177.929,-99.2723 174.78,-98.329 171.678,-97.2697"/>
<polygon fill="midnightblue" stroke="midnightblue" points="172.672,-93.9031 162.081,-93.6132 170.18,-100.444 172.672,-93.9031"/>
</g>
<!-- Node28 -->
<g id="node28" class="node"><title>Node28</title>
<polygon fill="none" stroke="#bfbfbf" points="843.5,-69 843.5,-99 994.5,-99 994.5,-69 843.5,-69"/>
<text text-anchor="start" x="851.5" y="-87" font-family="Helvetica,sans-Serif" font-size="10.00">Math/GenVector/Displacement</text>
<text text-anchor="middle" x="919" y="-76" font-family="Helvetica,sans-Serif" font-size="10.00">Vector3D.h</text>
</g>
<!-- Node27&#45;&gt;Node28 -->
<g id="edge35" class="edge"><title>Node27&#45;&gt;Node28</title>
<path fill="none" stroke="midnightblue" d="M784.264,-142.372C807.588,-132.44 846.54,-115.854 876.58,-103.063"/>
<polygon fill="midnightblue" stroke="midnightblue" points="878.16,-106.194 885.989,-99.0562 875.417,-99.7537 878.16,-106.194"/>
</g>
<!-- Node29 -->
<g id="node29" class="node"><title>Node29</title>
<polygon fill="none" stroke="#bfbfbf" points="1013,-74.5 1013,-93.5 1189,-93.5 1189,-74.5 1013,-74.5"/>
<text text-anchor="middle" x="1101" y="-81.5" font-family="Helvetica,sans-Serif" font-size="10.00">Math/GenVector/PositionVector3D.h</text>
</g>
<!-- Node27&#45;&gt;Node29 -->
<g id="edge36" class="edge"><title>Node27&#45;&gt;Node29</title>
<path fill="none" stroke="midnightblue" d="M807.711,-142.439C869.203,-130.396 981.137,-108.475 1047.52,-95.4745"/>
<polygon fill="midnightblue" stroke="midnightblue" points="1048.23,-98.9023 1057.37,-93.5455 1046.88,-92.0328 1048.23,-98.9023"/>
</g>
<!-- Node30 -->
<g id="node30" class="node"><title>Node30</title>
<polygon fill="none" stroke="#bfbfbf" points="1206.5,-74.5 1206.5,-93.5 1355.5,-93.5 1355.5,-74.5 1206.5,-74.5"/>
<text text-anchor="middle" x="1281" y="-81.5" font-family="Helvetica,sans-Serif" font-size="10.00">Math/GenVector/Rotation3D.h</text>
</g>
<!-- Node27&#45;&gt;Node30 -->
<g id="edge37" class="edge"><title>Node27&#45;&gt;Node30</title>
<path fill="none" stroke="midnightblue" d="M804.243,-142.439C816.049,-140.123 829.009,-137.77 841,-136 998.324,-112.772 1039.5,-121.994 1197,-100 1206.58,-98.6619 1216.74,-97.0302 1226.56,-95.3418"/>
<polygon fill="midnightblue" stroke="midnightblue" points="1227.39,-98.75 1236.63,-93.5718 1226.18,-91.8557 1227.39,-98.75"/>
</g>
<!-- Node31 -->
<g id="node31" class="node"><title>Node31</title>
<polygon fill="none" stroke="#bfbfbf" points="254,-74.5 254,-93.5 410,-93.5 410,-74.5 254,-74.5"/>
<text text-anchor="middle" x="332" y="-81.5" font-family="Helvetica,sans-Serif" font-size="10.00">Math/GenVector/Transform3D.h</text>
</g>
<!-- Node27&#45;&gt;Node31 -->
<g id="edge38" class="edge"><title>Node27&#45;&gt;Node31</title>
<path fill="none" stroke="midnightblue" d="M722.521,-142.455C711.04,-140.217 698.557,-137.9 687,-136 568.411,-116.502 537.793,-118.213 419,-100 409.555,-98.5519 399.55,-96.9195 389.819,-95.2785"/>
<polygon fill="midnightblue" stroke="midnightblue" points="390.258,-91.8029 379.812,-93.5726 389.082,-98.7033 390.258,-91.8029"/>
</g>
<!-- Node32 -->
<g id="node32" class="node"><title>Node32</title>
<polygon fill="none" stroke="#bfbfbf" points="428,-74.5 428,-93.5 588,-93.5 588,-74.5 428,-74.5"/>
<text text-anchor="middle" x="508" y="-81.5" font-family="Helvetica,sans-Serif" font-size="10.00">Math/GenVector/Translation3D.h</text>
</g>
<!-- Node27&#45;&gt;Node32 -->
<g id="edge39" class="edge"><title>Node27&#45;&gt;Node32</title>
<path fill="none" stroke="midnightblue" d="M730.795,-142.439C684.851,-130.594 601.836,-109.192 551.141,-96.1223"/>
<polygon fill="midnightblue" stroke="midnightblue" points="551.703,-92.6529 541.146,-93.5455 549.956,-99.4313 551.703,-92.6529"/>
</g>
<!-- Node33 -->
<g id="node33" class="node"><title>Node33</title>
<polygon fill="none" stroke="#bfbfbf" points="606,-74.5 606,-93.5 682,-93.5 682,-74.5 606,-74.5"/>
<text text-anchor="middle" x="644" y="-81.5" font-family="Helvetica,sans-Serif" font-size="10.00">TGeoMatrix.h</text>
</g>
<!-- Node27&#45;&gt;Node33 -->
<g id="edge41" class="edge"><title>Node27&#45;&gt;Node33</title>
<path fill="none" stroke="midnightblue" d="M748.312,-142.372C728.009,-131.205 692.412,-111.627 668.523,-98.4876"/>
<polygon fill="midnightblue" stroke="midnightblue" points="670.141,-95.3829 659.692,-93.6305 666.767,-101.516 670.141,-95.3829"/>
</g>
<!-- Node34 -->
<g id="node34" class="node"><title>Node34</title>
<polygon fill="none" stroke="#bfbfbf" points="190.5,-74.5 190.5,-93.5 235.5,-93.5 235.5,-74.5 190.5,-74.5"/>
<text text-anchor="middle" x="213" y="-81.5" font-family="Helvetica,sans-Serif" font-size="10.00">iosfwd</text>
</g>
<!-- Node27&#45;&gt;Node34 -->
<g id="edge42" class="edge"><title>Node27&#45;&gt;Node34</title>
<path fill="none" stroke="midnightblue" d="M724.573,-142.445C712.556,-140.075 699.278,-137.691 687,-136 491.747,-109.115 435.481,-150.632 245,-100 242.648,-99.3749 240.258,-98.5836 237.896,-97.6925"/>
<polygon fill="midnightblue" stroke="midnightblue" points="239.096,-94.3983 228.529,-93.6381 236.316,-100.822 239.096,-94.3983"/>
</g>
<!-- Node35 -->
<g id="node35" class="node"><title>Node35</title>
<g id="a_node35"><a xlink:href="../../d2/dd0/Cartesian2D_8h.html" target="_top" xlink:title="MathUtils/Cartesian2D.h">
<polygon fill="none" stroke="black" points="700.5,-74.5 700.5,-93.5 825.5,-93.5 825.5,-74.5 700.5,-74.5"/>
<text text-anchor="middle" x="763" y="-81.5" font-family="Helvetica,sans-Serif" font-size="10.00">MathUtils/Cartesian2D.h</text>
</a>
</g>
</g>
<!-- Node27&#45;&gt;Node35 -->
<g id="edge43" class="edge"><title>Node27&#45;&gt;Node35</title>
<path fill="none" stroke="midnightblue" d="M763.869,-142.372C763.722,-132.643 763.478,-116.528 763.286,-103.85"/>
<polygon fill="midnightblue" stroke="midnightblue" points="766.785,-103.787 763.134,-93.8411 759.786,-103.893 766.785,-103.787"/>
</g>
<!-- Node36 -->
<g id="node36" class="node"><title>Node36</title>
<polygon fill="none" stroke="#bfbfbf" points="596.5,-1 596.5,-31 747.5,-31 747.5,-1 596.5,-1"/>
<text text-anchor="start" x="604.5" y="-19" font-family="Helvetica,sans-Serif" font-size="10.00">Math/GenVector/Displacement</text>
<text text-anchor="middle" x="672" y="-8" font-family="Helvetica,sans-Serif" font-size="10.00">Vector2D.h</text>
</g>
<!-- Node35&#45;&gt;Node36 -->
<g id="edge44" class="edge"><title>Node35&#45;&gt;Node36</title>
<path fill="none" stroke="midnightblue" d="M751.103,-74.3717C738.221,-65.0286 717.22,-49.7966 700.093,-37.375"/>
<polygon fill="midnightblue" stroke="midnightblue" points="701.703,-34.2194 691.553,-31.1815 697.593,-39.8859 701.703,-34.2194"/>
</g>
<!-- Node37 -->
<g id="node37" class="node"><title>Node37</title>
<polygon fill="none" stroke="#bfbfbf" points="766,-6.5 766,-25.5 942,-25.5 942,-6.5 766,-6.5"/>
<text text-anchor="middle" x="854" y="-13.5" font-family="Helvetica,sans-Serif" font-size="10.00">Math/GenVector/PositionVector2D.h</text>
</g>
<!-- Node35&#45;&gt;Node37 -->
<g id="edge45" class="edge"><title>Node35&#45;&gt;Node37</title>
<path fill="none" stroke="midnightblue" d="M774.897,-74.3717C789.884,-63.5015 815.862,-44.6602 833.942,-31.5474"/>
<polygon fill="midnightblue" stroke="midnightblue" points="836.06,-34.3349 842.1,-25.6305 831.95,-28.6684 836.06,-34.3349"/>
</g>
<!-- Node39 -->
<g id="node39" class="node"><title>Node39</title>
<g id="a_node39"><a xlink:href="../../d4/de2/BaseCluster_8h.html" target="_top" xlink:title="ReconstructionDataFormats\l/BaseCluster.h">
<polygon fill="none" stroke="black" points="682,-273 682,-303 822,-303 822,-273 682,-273"/>
<text text-anchor="start" x="690" y="-291" font-family="Helvetica,sans-Serif" font-size="10.00">ReconstructionDataFormats</text>
<text text-anchor="middle" x="752" y="-280" font-family="Helvetica,sans-Serif" font-size="10.00">/BaseCluster.h</text>
</a>
</g>
</g>
<!-- Node38&#45;&gt;Node39 -->
<g id="edge48" class="edge"><title>Node38&#45;&gt;Node39</title>
<path fill="none" stroke="midnightblue" d="M767.421,-340.403C765.257,-333.189 762.058,-322.528 759.135,-312.782"/>
<polygon fill="midnightblue" stroke="midnightblue" points="762.468,-311.713 756.242,-303.141 755.763,-313.725 762.468,-311.713"/>
</g>
<!-- Node39&#45;&gt;Node16 -->
<g id="edge54" class="edge"><title>Node39&#45;&gt;Node16</title>
<path fill="none" stroke="midnightblue" d="M796.579,-272.922C828.768,-262.757 872.413,-248.975 906.646,-238.164"/>
<polygon fill="midnightblue" stroke="midnightblue" points="908.007,-241.405 916.489,-235.056 905.899,-234.73 908.007,-241.405"/>
</g>
<!-- Node39&#45;&gt;Node20 -->
<g id="edge50" class="edge"><title>Node39&#45;&gt;Node20</title>
<path fill="none" stroke="midnightblue" d="M768.146,-272.933C790.417,-254.289 832.53,-221.693 874,-204 1078.77,-116.634 1153.85,-173.487 1364,-100 1365.86,-99.3513 1367.74,-98.6129 1369.62,-97.8198"/>
<polygon fill="midnightblue" stroke="midnightblue" points="1371.17,-100.958 1378.76,-93.5596 1368.21,-94.6141 1371.17,-100.958"/>
</g>
<!-- Node39&#45;&gt;Node27 -->
<g id="edge55" class="edge"><title>Node39&#45;&gt;Node27</title>
<path fill="none" stroke="midnightblue" d="M753.284,-272.66C755.464,-248.32 759.887,-198.933 762.313,-171.837"/>
<polygon fill="midnightblue" stroke="midnightblue" points="765.812,-172 763.218,-161.728 758.84,-171.375 765.812,-172"/>
</g>
<!-- Node39&#45;&gt;Node34 -->
<g id="edge53" class="edge"><title>Node39&#45;&gt;Node34</title>
<path fill="none" stroke="midnightblue" d="M747.35,-272.891C740.748,-254.797 727.069,-223.438 706,-204 652.202,-154.365 626.537,-155.555 556,-136 421.912,-98.8276 378.849,-138.024 245,-100 242.659,-99.3351 240.276,-98.5162 237.92,-97.6071"/>
<polygon fill="midnightblue" stroke="midnightblue" points="239.125,-94.3146 228.56,-93.5246 236.327,-100.731 239.125,-94.3146"/>
</g>
<!-- Node40 -->
<g id="node40" class="node"><title>Node40</title>
<polygon fill="none" stroke="#bfbfbf" points="522.5,-210.5 522.5,-229.5 581.5,-229.5 581.5,-210.5 522.5,-210.5"/>
<text text-anchor="middle" x="552" y="-217.5" font-family="Helvetica,sans-Serif" font-size="10.00">TObject.h</text>
</g>
<!-- Node39&#45;&gt;Node40 -->
<g id="edge49" class="edge"><title>Node39&#45;&gt;Node40</title>
<path fill="none" stroke="midnightblue" d="M704.903,-272.902C672.67,-263.053 629.048,-249.329 591,-236 588.456,-235.109 585.829,-234.16 583.197,-233.19"/>
<polygon fill="midnightblue" stroke="midnightblue" points="584.37,-229.892 573.779,-229.643 581.903,-236.443 584.37,-229.892"/>
</g>
<!-- Node41 -->
<g id="node41" class="node"><title>Node41</title>
<polygon fill="none" stroke="#bfbfbf" points="600,-210.5 600,-229.5 650,-229.5 650,-210.5 600,-210.5"/>
<text text-anchor="middle" x="625" y="-217.5" font-family="Helvetica,sans-Serif" font-size="10.00">iomanip</text>
</g>
<!-- Node39&#45;&gt;Node41 -->
<g id="edge51" class="edge"><title>Node39&#45;&gt;Node41</title>
<path fill="none" stroke="midnightblue" d="M724.755,-272.841C702.788,-261.425 672.115,-245.485 650.599,-234.303"/>
<polygon fill="midnightblue" stroke="midnightblue" points="652.193,-231.188 641.706,-229.682 648.965,-237.399 652.193,-231.188"/>
</g>
<!-- Node42 -->
<g id="node42" class="node"><title>Node42</title>
<polygon fill="none" stroke="#bfbfbf" points="668.5,-210.5 668.5,-229.5 697.5,-229.5 697.5,-210.5 668.5,-210.5"/>
<text text-anchor="middle" x="683" y="-217.5" font-family="Helvetica,sans-Serif" font-size="10.00">ios</text>
</g>
<!-- Node39&#45;&gt;Node42 -->
<g id="edge52" class="edge"><title>Node39&#45;&gt;Node42</title>
<path fill="none" stroke="midnightblue" d="M737.028,-272.679C726.056,-262.184 711.156,-247.932 699.782,-237.052"/>
<polygon fill="midnightblue" stroke="midnightblue" points="701.875,-234.211 692.23,-229.828 697.037,-239.27 701.875,-234.211"/>
</g>
<!-- Node43&#45;&gt;Node6 -->
<g id="edge59" class="edge"><title>Node43&#45;&gt;Node6</title>
<path fill="none" stroke="midnightblue" d="M372.418,-340.316C380.721,-308.435 404.703,-196.551 351,-136 299.754,-78.2203 254.852,-122.596 181,-100 178.357,-99.1913 175.64,-98.2707 172.935,-97.2925"/>
<polygon fill="midnightblue" stroke="midnightblue" points="173.943,-93.93 163.354,-93.5955 171.423,-100.461 173.943,-93.93"/>
</g>
<!-- Node45 -->
<g id="node45" class="node"><title>Node45</title>
<polygon fill="none" stroke="#bfbfbf" points="1919,-402.5 1919,-421.5 1981,-421.5 1981,-402.5 1919,-402.5"/>
<text text-anchor="middle" x="1950" y="-409.5" font-family="Helvetica,sans-Serif" font-size="10.00">TNamed.h</text>
</g>
<!-- Node44&#45;&gt;Node45 -->
<g id="edge61" class="edge"><title>Node44&#45;&gt;Node45</title>
<path fill="none" stroke="midnightblue" d="M1890.89,-470.372C1901.72,-459.856 1920.24,-441.882 1933.67,-428.85"/>
<polygon fill="midnightblue" stroke="midnightblue" points="1936.15,-431.317 1940.89,-421.841 1931.28,-426.294 1936.15,-431.317"/>
</g>
<!-- Node46&#45;&gt;Node21 -->
<g id="edge65" class="edge"><title>Node46&#45;&gt;Node21</title>
<path fill="none" stroke="midnightblue" d="M1742.85,-464.82C1731.84,-441.633 1712,-393.885 1712,-351 1712,-351 1712,-351 1712,-219 1712,-178.005 1709.16,-130.027 1707.39,-104.054"/>
<polygon fill="midnightblue" stroke="midnightblue" points="1710.86,-103.503 1706.67,-93.7737 1703.88,-103.995 1710.86,-103.503"/>
</g>
<!-- Node46&#45;&gt;Node23 -->
<g id="edge68" class="edge"><title>Node46&#45;&gt;Node23</title>
<path fill="none" stroke="midnightblue" d="M1750,-464.794C1750,-441.174 1750,-392.333 1750,-351 1750,-351 1750,-351 1750,-219 1750,-176.655 1764.44,-128.561 1773.29,-103.082"/>
<polygon fill="midnightblue" stroke="midnightblue" points="1776.59,-104.224 1776.67,-93.6295 1770.01,-101.862 1776.59,-104.224"/>
</g>
<!-- Node46&#45;&gt;Node45 -->
<g id="edge64" class="edge"><title>Node46&#45;&gt;Node45</title>
<path fill="none" stroke="midnightblue" d="M1795.39,-464.975C1827.29,-454.99 1870.89,-441.079 1909,-428 1911.76,-427.054 1914.61,-426.055 1917.47,-425.038"/>
<polygon fill="midnightblue" stroke="midnightblue" points="1918.85,-428.259 1927.07,-421.573 1916.48,-421.674 1918.85,-428.259"/>
</g>
<!-- Node47 -->
<g id="node47" class="node"><title>Node47</title>
<polygon fill="none" stroke="#bfbfbf" points="1778.5,-402.5 1778.5,-421.5 1837.5,-421.5 1837.5,-402.5 1778.5,-402.5"/>
<text text-anchor="middle" x="1808" y="-409.5" font-family="Helvetica,sans-Serif" font-size="10.00">stdexcept</text>
</g>
<!-- Node46&#45;&gt;Node47 -->
<g id="edge66" class="edge"><title>Node46&#45;&gt;Node47</title>
<path fill="none" stroke="midnightblue" d="M1762.59,-464.679C1771.72,-454.286 1784.09,-440.208 1793.61,-429.37"/>
<polygon fill="midnightblue" stroke="midnightblue" points="1796.27,-431.65 1800.24,-421.828 1791.01,-427.03 1796.27,-431.65"/>
</g>
<!-- Node48 -->
<g id="node48" class="node"><title>Node48</title>
<polygon fill="none" stroke="#bfbfbf" points="1855.5,-402.5 1855.5,-421.5 1900.5,-421.5 1900.5,-402.5 1855.5,-402.5"/>
<text text-anchor="middle" x="1878" y="-409.5" font-family="Helvetica,sans-Serif" font-size="10.00">gsl/gsl</text>
</g>
<!-- Node46&#45;&gt;Node48 -->
<g id="edge67" class="edge"><title>Node46&#45;&gt;Node48</title>
<path fill="none" stroke="midnightblue" d="M1777.46,-464.841C1799.6,-453.425 1830.51,-437.485 1852.2,-426.303"/>
<polygon fill="midnightblue" stroke="midnightblue" points="1853.88,-429.376 1861.16,-421.682 1850.67,-423.154 1853.88,-429.376"/>
</g>
</g>
</svg>
