<?xml version="1.0" encoding="UTF-8" standalone="no"?>
<!DOCTYPE svg PUBLIC "-//W3C//DTD SVG 1.1//EN"
 "http://www.w3.org/Graphics/SVG/1.1/DTD/svg11.dtd">
<!-- Generated by graphviz version 2.36.0 (20140111.2315)
 -->
<!-- Title: o2::TPC::ClusterNativeAccessFullTPC Pages: 1 -->
<!--zoomable 674 -->
<svg id="main" version="1.1" xmlns="http://www.w3.org/2000/svg" xmlns:xlink="http://www.w3.org/1999/xlink" xml:space="preserve" onload="init(evt)">
<style type="text/css"><![CDATA[
.edge:hover path { stroke: red; }
.edge:hover polygon { stroke: red; fill: red; }
]]></style>
<script type="text/javascript"><![CDATA[
var edges = document.getElementsByTagName('g');
if (edges && edges.length) {
  for (var i=0;i<edges.length;i++) {
    if (edges[i].id.substr(0,4)=='edge') {
      edges[i].setAttribute('class','edge');
    }
  }
}
]]></script>
        <defs>
                <circle id="rim" cx="0" cy="0" r="7"/>
                <circle id="rim2" cx="0" cy="0" r="3.5"/>
                <g id="zoomPlus">
                        <use xlink:href="#rim" fill="#404040">
                                <set attributeName="fill" to="#808080" begin="zoomplus.mouseover" end="zoomplus.mouseout"/>
                        </use>
                        <path d="M-4,0h8M0,-4v8" fill="none" stroke="white" stroke-width="1.5" pointer-events="none"/>
                </g>
                <g id="zoomMin">
                        <use xlink:href="#rim" fill="#404040">
                                <set attributeName="fill" to="#808080" begin="zoomminus.mouseover" end="zoomminus.mouseout"/>
                        </use>
                        <path d="M-4,0h8" fill="none" stroke="white" stroke-width="1.5" pointer-events="none"/>
                </g>
                <g id="dirArrow">
                        <path fill="none" stroke="white" stroke-width="1.5" d="M0,-3.0v7 M-2.5,-0.5L0,-3.0L2.5,-0.5"/>
                </g>
               <g id="resetDef">
                       <use xlink:href="#rim2" fill="#404040">
                               <set attributeName="fill" to="#808080" begin="reset.mouseover" end="reset.mouseout"/>
                       </use>
               </g>
        </defs>

<script type="text/javascript">
var viewWidth = 587;
var viewHeight = 674;
var sectionId = 'dynsection-0';
</script>
<script xlink:href="../../svgpan.js"/>
<svg id="graph" class="graph">
<g id="viewport">
<title>o2::TPC::ClusterNativeAccessFullTPC</title>
<!-- Node1 -->
<g id="node1" class="node"><title>Node1</title>
<polygon fill="#bfbfbf" stroke="black" points="246,-1 246,-69 398,-69 398,-1 246,-1"/>
<text text-anchor="start" x="254" y="-57" font-family="Helvetica,sans-Serif" font-size="10.00">o2::TPC::ClusterNativeAccess</text>
<text text-anchor="middle" x="322" y="-46" font-family="Helvetica,sans-Serif" font-size="10.00">FullTPC</text>
<polyline fill="none" stroke="black" points="246,-39 398,-39 "/>
<text text-anchor="middle" x="322" y="-27" font-family="Helvetica,sans-Serif" font-size="10.00"> </text>
<polyline fill="none" stroke="black" points="246,-20 398,-20 "/>
<text text-anchor="start" x="254" y="-8" font-family="Helvetica,sans-Serif" font-size="10.00">+ addFlatBuffer()</text>
</g>
<!-- Node2 -->
<g id="node2" class="node"><title>Node2</title>
<g id="a_node2"><a xlink:href="../../d9/d08/structo2_1_1TPC_1_1ClusterNative.html" target="_top" xlink:title="{o2::TPC::ClusterNative\n||+ getFlags()\l+ getTimePacked()\l+ setTimePackedFlags()\l+ setTimePacked()\l+ setFlags()\l+ getTime()\l+ setTime()\l+ setTimeFlags()\l+ getPad()\l+ setPad()\l+ getSigmaTime()\l+ setSigmaTime()\l+ getSigmaPad()\l+ setSigmaPad()\l}">
<polygon fill="none" stroke="black" points="149,-135 149,-335 273,-335 273,-135 149,-135"/>
<text text-anchor="middle" x="211" y="-323" font-family="Helvetica,sans-Serif" font-size="10.00">o2::TPC::ClusterNative</text>
<polyline fill="none" stroke="black" points="149,-316 273,-316 "/>
<text text-anchor="middle" x="211" y="-304" font-family="Helvetica,sans-Serif" font-size="10.00"> </text>
<polyline fill="none" stroke="black" points="149,-297 273,-297 "/>
<text text-anchor="start" x="157" y="-285" font-family="Helvetica,sans-Serif" font-size="10.00">+ getFlags()</text>
<text text-anchor="start" x="157" y="-274" font-family="Helvetica,sans-Serif" font-size="10.00">+ getTimePacked()</text>
<text text-anchor="start" x="157" y="-263" font-family="Helvetica,sans-Serif" font-size="10.00">+ setTimePackedFlags()</text>
<text text-anchor="start" x="157" y="-252" font-family="Helvetica,sans-Serif" font-size="10.00">+ setTimePacked()</text>
<text text-anchor="start" x="157" y="-241" font-family="Helvetica,sans-Serif" font-size="10.00">+ setFlags()</text>
<text text-anchor="start" x="157" y="-230" font-family="Helvetica,sans-Serif" font-size="10.00">+ getTime()</text>
<text text-anchor="start" x="157" y="-219" font-family="Helvetica,sans-Serif" font-size="10.00">+ setTime()</text>
<text text-anchor="start" x="157" y="-208" font-family="Helvetica,sans-Serif" font-size="10.00">+ setTimeFlags()</text>
<text text-anchor="start" x="157" y="-197" font-family="Helvetica,sans-Serif" font-size="10.00">+ getPad()</text>
<text text-anchor="start" x="157" y="-186" font-family="Helvetica,sans-Serif" font-size="10.00">+ setPad()</text>
<text text-anchor="start" x="157" y="-175" font-family="Helvetica,sans-Serif" font-size="10.00">+ getSigmaTime()</text>
<text text-anchor="start" x="157" y="-164" font-family="Helvetica,sans-Serif" font-size="10.00">+ setSigmaTime()</text>
<text text-anchor="start" x="157" y="-153" font-family="Helvetica,sans-Serif" font-size="10.00">+ getSigmaPad()</text>
<text text-anchor="start" x="157" y="-142" font-family="Helvetica,sans-Serif" font-size="10.00">+ setSigmaPad()</text>
</a>
</g>
</g>
<!-- Node2&#45;&gt;Node1 -->
<g id="edge1" class="edge"><title>Node2&#45;&gt;Node1</title>
<path fill="none" stroke="#404040" d="M248.451,-134.652C256.029,-118.571 264.597,-102.466 274,-88 276.109,-84.7552 278.426,-81.5216 280.868,-78.3456"/>
<polygon fill="none" stroke="#404040" points="280.885,-78.3247 281.588,-71.1479 288.483,-69.0367 287.78,-76.2135 280.885,-78.3247"/>
<text text-anchor="middle" x="296" y="-91.5" font-family="Helvetica,sans-Serif" font-size="10.00"> +clusters</text>
</g>
<!-- Node3 -->
<g id="node3" class="node"><title>Node3</title>
<polygon fill="none" stroke="#bfbfbf" points="-0.5,-520.5 -0.5,-577.5 50.5,-577.5 50.5,-520.5 -0.5,-520.5"/>
<text text-anchor="middle" x="25" y="-565.5" font-family="Helvetica,sans-Serif" font-size="10.00">uint32_t</text>
<polyline fill="none" stroke="#bfbfbf" points="-0.5,-558.5 50.5,-558.5 "/>
<text text-anchor="middle" x="25" y="-546.5" font-family="Helvetica,sans-Serif" font-size="10.00"> </text>
<polyline fill="none" stroke="#bfbfbf" points="-0.5,-539.5 50.5,-539.5 "/>
<text text-anchor="middle" x="25" y="-527.5" font-family="Helvetica,sans-Serif" font-size="10.00"> </text>
</g>
<!-- Node3&#45;&gt;Node2 -->
<g id="edge2" class="edge"><title>Node3&#45;&gt;Node2</title>
<path fill="none" stroke="#404040" d="M23.8007,-520.47C23.4133,-483.767 27.0366,-417.879 54,-370 74.2303,-334.077 107.986,-303.378 139.025,-280.464"/>
<polygon fill="none" stroke="#404040" points="139.244,-280.307 141.78,-273.556 148.986,-273.301 146.45,-280.051 139.244,-280.307"/>
<text text-anchor="middle" x="96.5" y="-389.5" font-family="Helvetica,sans-Serif" font-size="10.00"> +timeFlagsPacked</text>
</g>
<!-- Node4 -->
<g id="node4" class="node"><title>Node4</title>
<polygon fill="none" stroke="#bfbfbf" points="107.5,-520.5 107.5,-577.5 158.5,-577.5 158.5,-520.5 107.5,-520.5"/>
<text text-anchor="middle" x="133" y="-565.5" font-family="Helvetica,sans-Serif" font-size="10.00">uint16_t</text>
<polyline fill="none" stroke="#bfbfbf" points="107.5,-558.5 158.5,-558.5 "/>
<text text-anchor="middle" x="133" y="-546.5" font-family="Helvetica,sans-Serif" font-size="10.00"> </text>
<polyline fill="none" stroke="#bfbfbf" points="107.5,-539.5 158.5,-539.5 "/>
<text text-anchor="middle" x="133" y="-527.5" font-family="Helvetica,sans-Serif" font-size="10.00"> </text>
</g>
<!-- Node4&#45;&gt;Node2 -->
<g id="edge3" class="edge"><title>Node4&#45;&gt;Node2</title>
<path fill="none" stroke="#404040" d="M133.329,-520.383C134.342,-484.976 138.149,-421.951 152,-370 154.068,-362.244 156.523,-354.363 159.239,-346.505"/>
<polygon fill="none" stroke="#404040" points="159.309,-346.311 157.588,-339.308 163.39,-335.026 165.111,-342.029 159.309,-346.311"/>
<text text-anchor="middle" x="179.5" y="-400.5" font-family="Helvetica,sans-Serif" font-size="10.00"> +qTot</text>
<text text-anchor="middle" x="179.5" y="-389.5" font-family="Helvetica,sans-Serif" font-size="10.00">+padPacked</text>
<text text-anchor="middle" x="179.5" y="-378.5" font-family="Helvetica,sans-Serif" font-size="10.00">+qMax</text>
</g>
<!-- Node5 -->
<g id="node5" class="node"><title>Node5</title>
<polygon fill="none" stroke="#bfbfbf" points="188,-520.5 188,-577.5 234,-577.5 234,-520.5 188,-520.5"/>
<text text-anchor="middle" x="211" y="-565.5" font-family="Helvetica,sans-Serif" font-size="10.00">uint8_t</text>
<polyline fill="none" stroke="#bfbfbf" points="188,-558.5 234,-558.5 "/>
<text text-anchor="middle" x="211" y="-546.5" font-family="Helvetica,sans-Serif" font-size="10.00"> </text>
<polyline fill="none" stroke="#bfbfbf" points="188,-539.5 234,-539.5 "/>
<text text-anchor="middle" x="211" y="-527.5" font-family="Helvetica,sans-Serif" font-size="10.00"> </text>
</g>
<!-- Node5&#45;&gt;Node2 -->
<g id="edge4" class="edge"><title>Node5&#45;&gt;Node2</title>
<path fill="none" stroke="#404040" d="M211,-520.312C211,-481.723 211,-409.524 211,-347.542"/>
<polygon fill="none" stroke="#404040" points="211,-347.295 207,-341.295 211,-335.295 215,-341.295 211,-347.295"/>
<text text-anchor="middle" x="256.5" y="-395" font-family="Helvetica,sans-Serif" font-size="10.00"> +sigmaTimePacked</text>
<text text-anchor="middle" x="256.5" y="-384" font-family="Helvetica,sans-Serif" font-size="10.00">+sigmaPadPacked</text>
</g>
<!-- Node6 -->
<g id="node6" class="node"><title>Node6</title>
<polygon fill="none" stroke="#bfbfbf" points="310.5,-520.5 310.5,-577.5 339.5,-577.5 339.5,-520.5 310.5,-520.5"/>
<text text-anchor="middle" x="325" y="-565.5" font-family="Helvetica,sans-Serif" font-size="10.00">int</text>
<polyline fill="none" stroke="#bfbfbf" points="310.5,-558.5 339.5,-558.5 "/>
<text text-anchor="middle" x="325" y="-546.5" font-family="Helvetica,sans-Serif" font-size="10.00"> </text>
<polyline fill="none" stroke="#bfbfbf" points="310.5,-539.5 339.5,-539.5 "/>
<text text-anchor="middle" x="325" y="-527.5" font-family="Helvetica,sans-Serif" font-size="10.00"> </text>
</g>
<!-- Node6&#45;&gt;Node2 -->
<g id="edge5" class="edge"><title>Node6&#45;&gt;Node2</title>
<path fill="none" stroke="#404040" d="M326.979,-520.211C328.4,-483.794 326.839,-418.827 303,-370 298.036,-359.833 292.084,-360.821 285,-352 283.102,-349.637 281.211,-347.223 279.33,-344.77"/>
<polygon fill="none" stroke="#404040" points="279.313,-344.747 272.518,-342.332 272.134,-335.131 278.929,-337.546 279.313,-344.747"/>
<text text-anchor="middle" x="374" y="-406" font-family="Helvetica,sans-Serif" font-size="10.00"> +scaleTimePacked</text>
<text text-anchor="middle" x="374" y="-395" font-family="Helvetica,sans-Serif" font-size="10.00">+scaleSigmaPadPacked</text>
<text text-anchor="middle" x="374" y="-384" font-family="Helvetica,sans-Serif" font-size="10.00">+scaleSigmaTimePacked</text>
<text text-anchor="middle" x="374" y="-373" font-family="Helvetica,sans-Serif" font-size="10.00">+scalePadPacked</text>
</g>
<!-- Node7 -->
<g id="node7" class="node"><title>Node7</title>
<polygon fill="none" stroke="#bfbfbf" points="294,-206.5 294,-263.5 350,-263.5 350,-206.5 294,-206.5"/>
<text text-anchor="middle" x="322" y="-251.5" font-family="Helvetica,sans-Serif" font-size="10.00">unsigned</text>
<polyline fill="none" stroke="#bfbfbf" points="294,-244.5 350,-244.5 "/>
<text text-anchor="middle" x="322" y="-232.5" font-family="Helvetica,sans-Serif" font-size="10.00"> </text>
<polyline fill="none" stroke="#bfbfbf" points="294,-225.5 350,-225.5 "/>
<text text-anchor="middle" x="322" y="-213.5" font-family="Helvetica,sans-Serif" font-size="10.00"> </text>
</g>
<!-- Node7&#45;&gt;Node1 -->
<g id="edge6" class="edge"><title>Node7&#45;&gt;Node1</title>
<path fill="none" stroke="#404040" d="M322,-206.469C322,-174.131 322,-120.008 322,-81.4231"/>
<polygon fill="none" stroke="#404040" points="322,-81.2384 318,-75.2384 322,-69.2384 326,-75.2384 322,-81.2384"/>
<text text-anchor="middle" x="348" y="-91.5" font-family="Helvetica,sans-Serif" font-size="10.00"> +nClusters</text>
</g>
<!-- Node8 -->
<g id="node8" class="node"><title>Node8</title>
<g id="a_node8"><a xlink:href="../../dc/daa/classo2_1_1dataformats_1_1MCTruthContainer.html" target="_top" xlink:title="{o2::dataformats::MCTruth\lContainer\&lt; o2::o2::MCCompLabel \&gt;\n||+ MCTruthContainer()\l+ MCTruthContainer()\l+ ~MCTruthContainer()\l+ operator=()\l+ getMCTruthHeader()\l+ getElement()\l+ getIndexedSize()\l+ getNElements()\l+ getLabels()\l+ getLabels()\l+ clear()\l+ addElement()\l+ addElements()\l+ addElements()\l+ addElementRandomAccess()\l+ ClassDefNV()\l}">
<polygon fill="none" stroke="black" points="370.5,-118.5 370.5,-351.5 545.5,-351.5 545.5,-118.5 370.5,-118.5"/>
<text text-anchor="start" x="378.5" y="-339.5" font-family="Helvetica,sans-Serif" font-size="10.00">o2::dataformats::MCTruth</text>
<text text-anchor="middle" x="458" y="-328.5" font-family="Helvetica,sans-Serif" font-size="10.00">Container&lt; o2::o2::MCCompLabel &gt;</text>
<polyline fill="none" stroke="black" points="370.5,-321.5 545.5,-321.5 "/>
<text text-anchor="middle" x="458" y="-309.5" font-family="Helvetica,sans-Serif" font-size="10.00"> </text>
<polyline fill="none" stroke="black" points="370.5,-302.5 545.5,-302.5 "/>
<text text-anchor="start" x="378.5" y="-290.5" font-family="Helvetica,sans-Serif" font-size="10.00">+ MCTruthContainer()</text>
<text text-anchor="start" x="378.5" y="-279.5" font-family="Helvetica,sans-Serif" font-size="10.00">+ MCTruthContainer()</text>
<text text-anchor="start" x="378.5" y="-268.5" font-family="Helvetica,sans-Serif" font-size="10.00">+ ~MCTruthContainer()</text>
<text text-anchor="start" x="378.5" y="-257.5" font-family="Helvetica,sans-Serif" font-size="10.00">+ operator=()</text>
<text text-anchor="start" x="378.5" y="-246.5" font-family="Helvetica,sans-Serif" font-size="10.00">+ getMCTruthHeader()</text>
<text text-anchor="start" x="378.5" y="-235.5" font-family="Helvetica,sans-Serif" font-size="10.00">+ getElement()</text>
<text text-anchor="start" x="378.5" y="-224.5" font-family="Helvetica,sans-Serif" font-size="10.00">+ getIndexedSize()</text>
<text text-anchor="start" x="378.5" y="-213.5" font-family="Helvetica,sans-Serif" font-size="10.00">+ getNElements()</text>
<text text-anchor="start" x="378.5" y="-202.5" font-family="Helvetica,sans-Serif" font-size="10.00">+ getLabels()</text>
<text text-anchor="start" x="378.5" y="-191.5" font-family="Helvetica,sans-Serif" font-size="10.00">+ getLabels()</text>
<text text-anchor="start" x="378.5" y="-180.5" font-family="Helvetica,sans-Serif" font-size="10.00">+ clear()</text>
<text text-anchor="start" x="378.5" y="-169.5" font-family="Helvetica,sans-Serif" font-size="10.00">+ addElement()</text>
<text text-anchor="start" x="378.5" y="-158.5" font-family="Helvetica,sans-Serif" font-size="10.00">+ addElements()</text>
<text text-anchor="start" x="378.5" y="-147.5" font-family="Helvetica,sans-Serif" font-size="10.00">+ addElements()</text>
<text text-anchor="start" x="378.5" y="-136.5" font-family="Helvetica,sans-Serif" font-size="10.00">+ addElementRandomAccess()</text>
<text text-anchor="start" x="378.5" y="-125.5" font-family="Helvetica,sans-Serif" font-size="10.00">+ ClassDefNV()</text>
</a>
</g>
</g>
<!-- Node8&#45;&gt;Node1 -->
<g id="edge7" class="edge"><title>Node8&#45;&gt;Node1</title>
<path fill="none" stroke="#404040" d="M399.151,-118.196C392.456,-107.693 385.372,-97.4622 378,-88 375.393,-84.6541 372.564,-81.333 369.609,-78.0826"/>
<polygon fill="none" stroke="#404040" points="369.34,-77.8023 362.299,-76.2459 361.028,-69.1477 368.069,-70.7041 369.34,-77.8023"/>
<text text-anchor="middle" x="428" y="-91.5" font-family="Helvetica,sans-Serif" font-size="10.00"> +clustersMCTruth</text>
</g>
<!-- Node9 -->
<g id="node9" class="node"><title>Node9</title>
<g id="a_node9"><a xlink:href="../../dc/daa/classo2_1_1dataformats_1_1MCTruthContainer.html" target="_top" xlink:title="{o2::dataformats::MCTruth\lContainer\&lt; T \&gt;\n||+ MCTruthContainer()\l+ ~MCTruthContainer()\l+ MCTruthContainer()\l+ operator=()\l+ getMCTruthHeader()\l+ getElement()\l+ getIndexedSize()\l+ getNElements()\l+ getLabels()\l+ getLabels()\l+ clear()\l+ addElement()\l+ addElements()\l+ addElements()\l+ addElementRandomAccess()\l+ ClassDefNV()\l}">
<polygon fill="none" stroke="black" points="383.5,-432.5 383.5,-665.5 536.5,-665.5 536.5,-432.5 383.5,-432.5"/>
<text text-anchor="start" x="391.5" y="-653.5" font-family="Helvetica,sans-Serif" font-size="10.00">o2::dataformats::MCTruth</text>
<text text-anchor="middle" x="460" y="-642.5" font-family="Helvetica,sans-Serif" font-size="10.00">Container&lt; T &gt;</text>
<polyline fill="none" stroke="black" points="383.5,-635.5 536.5,-635.5 "/>
<text text-anchor="middle" x="460" y="-623.5" font-family="Helvetica,sans-Serif" font-size="10.00"> </text>
<polyline fill="none" stroke="black" points="383.5,-616.5 536.5,-616.5 "/>
<text text-anchor="start" x="391.5" y="-604.5" font-family="Helvetica,sans-Serif" font-size="10.00">+ MCTruthContainer()</text>
<text text-anchor="start" x="391.5" y="-593.5" font-family="Helvetica,sans-Serif" font-size="10.00">+ ~MCTruthContainer()</text>
<text text-anchor="start" x="391.5" y="-582.5" font-family="Helvetica,sans-Serif" font-size="10.00">+ MCTruthContainer()</text>
<text text-anchor="start" x="391.5" y="-571.5" font-family="Helvetica,sans-Serif" font-size="10.00">+ operator=()</text>
<text text-anchor="start" x="391.5" y="-560.5" font-family="Helvetica,sans-Serif" font-size="10.00">+ getMCTruthHeader()</text>
<text text-anchor="start" x="391.5" y="-549.5" font-family="Helvetica,sans-Serif" font-size="10.00">+ getElement()</text>
<text text-anchor="start" x="391.5" y="-538.5" font-family="Helvetica,sans-Serif" font-size="10.00">+ getIndexedSize()</text>
<text text-anchor="start" x="391.5" y="-527.5" font-family="Helvetica,sans-Serif" font-size="10.00">+ getNElements()</text>
<text text-anchor="start" x="391.5" y="-516.5" font-family="Helvetica,sans-Serif" font-size="10.00">+ getLabels()</text>
<text text-anchor="start" x="391.5" y="-505.5" font-family="Helvetica,sans-Serif" font-size="10.00">+ getLabels()</text>
<text text-anchor="start" x="391.5" y="-494.5" font-family="Helvetica,sans-Serif" font-size="10.00">+ clear()</text>
<text text-anchor="start" x="391.5" y="-483.5" font-family="Helvetica,sans-Serif" font-size="10.00">+ addElement()</text>
<text text-anchor="start" x="391.5" y="-472.5" font-family="Helvetica,sans-Serif" font-size="10.00">+ addElements()</text>
<text text-anchor="start" x="391.5" y="-461.5" font-family="Helvetica,sans-Serif" font-size="10.00">+ addElements()</text>
<text text-anchor="start" x="391.5" y="-450.5" font-family="Helvetica,sans-Serif" font-size="10.00">+ addElementRandomAccess()</text>
<text text-anchor="start" x="391.5" y="-439.5" font-family="Helvetica,sans-Serif" font-size="10.00">+ ClassDefNV()</text>
</a>
</g>
</g>
<!-- Node9&#45;&gt;Node8 -->
<g id="edge8" class="edge"><title>Node9&#45;&gt;Node8</title>
<path fill="none" stroke="orange" d="M459.192,-421.997C459.043,-398.713 458.888,-374.502 458.741,-351.547"/>
<polygon fill="orange" stroke="orange" points="455.694,-422.289 459.258,-432.266 462.694,-422.244 455.694,-422.289"/>
<text text-anchor="middle" x="519" y="-389.5" font-family="Helvetica,sans-Serif" font-size="10.00"> &lt; o2::o2::MCCompLabel &gt;</text>
</g>
</g>
</svg>
        <g id="navigator" transform="translate(0 0)" fill="#404254">
                <rect fill="#f2f5e9" fill-opacity="0.5" stroke="#606060" stroke-width=".5" x="0" y="0" width="60" height="60"/>
                <use id="zoomplus" xlink:href="#zoomPlus" x="17" y="9" onmousedown="handleZoom(evt,'in')"/>
                <use id="zoomminus" xlink:href="#zoomMin" x="42" y="9" onmousedown="handleZoom(evt,'out')"/>
                <use id="reset" xlink:href="#resetDef" x="30" y="36" onmousedown="handleReset()"/>
                <g id="arrowUp" xlink:href="#dirArrow" transform="translate(30 24)" onmousedown="handlePan(0,-1)">
                  <use xlink:href="#rim" fill="#404040">
                        <set attributeName="fill" to="#808080" begin="arrowUp.mouseover" end="arrowUp.mouseout"/>
                  </use>
                  <path fill="none" stroke="white" stroke-width="1.5" d="M0,-3.0v7 M-2.5,-0.5L0,-3.0L2.5,-0.5"/>
                </g>
                <g id="arrowRight" xlink:href="#dirArrow" transform="rotate(90) translate(36 -43)" onmousedown="handlePan(1,0)">
                  <use xlink:href="#rim" fill="#404040">
                        <set attributeName="fill" to="#808080" begin="arrowRight.mouseover" end="arrowRight.mouseout"/>
                  </use>
                  <path fill="none" stroke="white" stroke-width="1.5" d="M0,-3.0v7 M-2.5,-0.5L0,-3.0L2.5,-0.5"/>
                </g>
                <g id="arrowDown" xlink:href="#dirArrow" transform="rotate(180) translate(-30 -48)" onmousedown="handlePan(0,1)">
                  <use xlink:href="#rim" fill="#404040">
                        <set attributeName="fill" to="#808080" begin="arrowDown.mouseover" end="arrowDown.mouseout"/>
                  </use>
                  <path fill="none" stroke="white" stroke-width="1.5" d="M0,-3.0v7 M-2.5,-0.5L0,-3.0L2.5,-0.5"/>
                </g>
                <g id="arrowLeft" xlink:href="#dirArrow" transform="rotate(270) translate(-36 17)" onmousedown="handlePan(-1,0)">
                  <use xlink:href="#rim" fill="#404040">
                        <set attributeName="fill" to="#808080" begin="arrowLeft.mouseover" end="arrowLeft.mouseout"/>
                  </use>
                  <path fill="none" stroke="white" stroke-width="1.5" d="M0,-3.0v7 M-2.5,-0.5L0,-3.0L2.5,-0.5"/>
                </g>
        </g>
        <svg viewBox="0 0 15 15" width="100%" height="30px" preserveAspectRatio="xMaxYMin meet">
         <g id="arrow_out" transform="scale(0.3 0.3)">
          <a xlink:href="structo2_1_1TPC_1_1ClusterNativeAccessFullTPC__coll__graph_org.svg" target="_base">
           <rect id="button" ry="5" rx="5" y="6" x="6" height="38" width="38"
                fill="#f2f5e9" fill-opacity="0.5" stroke="#606060" stroke-width="1.0"/>
           <path id="arrow"
             d="M 11.500037,31.436501 C 11.940474,20.09759 22.043105,11.32322 32.158766,21.979434 L 37.068811,17.246167 C 37.068811,17.246167 37.088388,32 37.088388,32 L 22.160133,31.978069 C 22.160133,31.978069 26.997745,27.140456 26.997745,27.140456 C 18.528582,18.264221 13.291696,25.230495 11.500037,31.436501 z"
             style="fill:#404040;"/>
          </a>
         </g>
        </svg>
</svg>
