<?xml version="1.0" encoding="UTF-8" standalone="no"?>
<!DOCTYPE svg PUBLIC "-//W3C//DTD SVG 1.1//EN"
 "http://www.w3.org/Graphics/SVG/1.1/DTD/svg11.dtd">
<!-- Generated by graphviz version 2.36.0 (20140111.2315)
 -->
<!-- Title: /home/travis/build/AliceO2Group/AliceO2/Framework/Core/include/Framework/RootTreeReader.h Pages: 1 -->
<svg width="1067pt" height="230pt"
 viewBox="0.00 0.00 1067.00 230.00" xmlns="http://www.w3.org/2000/svg" xmlns:xlink="http://www.w3.org/1999/xlink">
<g id="graph0" class="graph" transform="scale(1 1) rotate(0) translate(4 226)">
<title>/home/travis/build/AliceO2Group/AliceO2/Framework/Core/include/Framework/RootTreeReader.h</title>
<!-- Node1 -->
<g id="node1" class="node"><title>Node1</title>
<polygon fill="#bfbfbf" stroke="black" points="574,-169 574,-221 726,-221 726,-169 574,-169"/>
<text text-anchor="start" x="582" y="-209" font-family="Helvetica,sans-Serif" font-size="10.00">/home/travis/build</text>
<text text-anchor="start" x="582" y="-198" font-family="Helvetica,sans-Serif" font-size="10.00">/AliceO2Group/AliceO2</text>
<text text-anchor="start" x="582" y="-187" font-family="Helvetica,sans-Serif" font-size="10.00">/Framework/Core/include</text>
<text text-anchor="middle" x="650" y="-176" font-family="Helvetica,sans-Serif" font-size="10.00">/Framework/RootTreeReader.h</text>
</g>
<!-- Node2 -->
<g id="node2" class="node"><title>Node2</title>
<g id="a_node2"><a xlink:href="../../d3/ddf/Output_8h.html" target="_top" xlink:title="Framework/Output.h">
<polygon fill="none" stroke="black" points="201,-112.5 201,-131.5 307,-131.5 307,-112.5 201,-112.5"/>
<text text-anchor="middle" x="254" y="-119.5" font-family="Helvetica,sans-Serif" font-size="10.00">Framework/Output.h</text>
</a>
</g>
</g>
<!-- Node1&#45;&gt;Node2 -->
<g id="edge1" class="edge"><title>Node1&#45;&gt;Node2</title>
<path fill="none" stroke="midnightblue" d="M573.647,-180.31C496.958,-166.561 380.516,-145.684 311.369,-133.286"/>
<polygon fill="midnightblue" stroke="midnightblue" points="311.982,-129.84 301.521,-131.52 310.746,-136.73 311.982,-129.84"/>
</g>
<!-- Node5 -->
<g id="node5" class="node"><title>Node5</title>
<polygon fill="none" stroke="#bfbfbf" points="274,-0.5 274,-19.5 326,-19.5 326,-0.5 274,-0.5"/>
<text text-anchor="middle" x="300" y="-7.5" font-family="Helvetica,sans-Serif" font-size="10.00">memory</text>
</g>
<!-- Node1&#45;&gt;Node5 -->
<g id="edge17" class="edge"><title>Node1&#45;&gt;Node5</title>
<path fill="none" stroke="midnightblue" d="M573.855,-185.633C498.584,-176.023 390.023,-158.138 357,-132 348.33,-125.138 321.008,-61.5055 307.588,-29.3779"/>
<polygon fill="midnightblue" stroke="midnightblue" points="310.686,-27.7102 303.617,-19.8177 304.221,-30.3954 310.686,-27.7102"/>
</g>
<!-- Node10 -->
<g id="node10" class="node"><title>Node10</title>
<polygon fill="none" stroke="#bfbfbf" points="366,-112.5 366,-131.5 422,-131.5 422,-112.5 366,-112.5"/>
<text text-anchor="middle" x="394" y="-119.5" font-family="Helvetica,sans-Serif" font-size="10.00">TChain.h</text>
</g>
<!-- Node1&#45;&gt;Node10 -->
<g id="edge9" class="edge"><title>Node1&#45;&gt;Node10</title>
<path fill="none" stroke="midnightblue" d="M573.885,-172.89C527.137,-159.925 469.274,-143.877 432.009,-133.541"/>
<polygon fill="midnightblue" stroke="midnightblue" points="432.642,-130.085 422.07,-130.785 430.771,-136.83 432.642,-130.085"/>
</g>
<!-- Node11 -->
<g id="node11" class="node"><title>Node11</title>
<polygon fill="none" stroke="#bfbfbf" points="440,-112.5 440,-131.5 490,-131.5 490,-112.5 440,-112.5"/>
<text text-anchor="middle" x="465" y="-119.5" font-family="Helvetica,sans-Serif" font-size="10.00">TTree.h</text>
</g>
<!-- Node1&#45;&gt;Node11 -->
<g id="edge10" class="edge"><title>Node1&#45;&gt;Node11</title>
<path fill="none" stroke="midnightblue" d="M584.776,-168.968C554.969,-157.529 521.013,-144.497 496.886,-135.237"/>
<polygon fill="midnightblue" stroke="midnightblue" points="498.1,-131.954 487.51,-131.639 495.592,-138.49 498.1,-131.954"/>
</g>
<!-- Node12 -->
<g id="node12" class="node"><title>Node12</title>
<polygon fill="none" stroke="#bfbfbf" points="508,-112.5 508,-131.5 570,-131.5 570,-112.5 508,-112.5"/>
<text text-anchor="middle" x="539" y="-119.5" font-family="Helvetica,sans-Serif" font-size="10.00">TBranch.h</text>
</g>
<!-- Node1&#45;&gt;Node12 -->
<g id="edge11" class="edge"><title>Node1&#45;&gt;Node12</title>
<path fill="none" stroke="midnightblue" d="M610.866,-168.968C594.174,-158.291 575.313,-146.227 561.103,-137.138"/>
<polygon fill="midnightblue" stroke="midnightblue" points="562.816,-134.079 552.506,-131.639 559.044,-139.976 562.816,-134.079"/>
</g>
<!-- Node13 -->
<g id="node13" class="node"><title>Node13</title>
<polygon fill="none" stroke="#bfbfbf" points="588,-112.5 588,-131.5 644,-131.5 644,-112.5 588,-112.5"/>
<text text-anchor="middle" x="616" y="-119.5" font-family="Helvetica,sans-Serif" font-size="10.00">TClass.h</text>
</g>
<!-- Node1&#45;&gt;Node13 -->
<g id="edge12" class="edge"><title>Node1&#45;&gt;Node13</title>
<path fill="none" stroke="midnightblue" d="M637.917,-168.768C633.521,-159.587 628.644,-149.403 624.609,-140.978"/>
<polygon fill="midnightblue" stroke="midnightblue" points="627.669,-139.265 620.194,-131.757 621.356,-142.288 627.669,-139.265"/>
</g>
<!-- Node14 -->
<g id="node14" class="node"><title>Node14</title>
<polygon fill="none" stroke="#bfbfbf" points="662,-112.5 662,-131.5 706,-131.5 706,-112.5 662,-112.5"/>
<text text-anchor="middle" x="684" y="-119.5" font-family="Helvetica,sans-Serif" font-size="10.00">vector</text>
</g>
<!-- Node1&#45;&gt;Node14 -->
<g id="edge13" class="edge"><title>Node1&#45;&gt;Node14</title>
<path fill="none" stroke="midnightblue" d="M662.083,-168.768C666.479,-159.587 671.356,-149.403 675.391,-140.978"/>
<polygon fill="midnightblue" stroke="midnightblue" points="678.644,-142.288 679.806,-131.757 672.331,-139.265 678.644,-142.288"/>
</g>
<!-- Node15 -->
<g id="node15" class="node"><title>Node15</title>
<polygon fill="none" stroke="#bfbfbf" points="724.5,-112.5 724.5,-131.5 765.5,-131.5 765.5,-112.5 724.5,-112.5"/>
<text text-anchor="middle" x="745" y="-119.5" font-family="Helvetica,sans-Serif" font-size="10.00">string</text>
</g>
<!-- Node1&#45;&gt;Node15 -->
<g id="edge14" class="edge"><title>Node1&#45;&gt;Node15</title>
<path fill="none" stroke="midnightblue" d="M683.493,-168.968C697.421,-158.559 713.113,-146.831 725.161,-137.827"/>
<polygon fill="midnightblue" stroke="midnightblue" points="727.298,-140.6 733.213,-131.81 723.107,-134.993 727.298,-140.6"/>
</g>
<!-- Node16 -->
<g id="node16" class="node"><title>Node16</title>
<polygon fill="none" stroke="#bfbfbf" points="783.5,-112.5 783.5,-131.5 842.5,-131.5 842.5,-112.5 783.5,-112.5"/>
<text text-anchor="middle" x="813" y="-119.5" font-family="Helvetica,sans-Serif" font-size="10.00">stdexcept</text>
</g>
<!-- Node1&#45;&gt;Node16 -->
<g id="edge15" class="edge"><title>Node1&#45;&gt;Node16</title>
<path fill="none" stroke="midnightblue" d="M707.468,-168.968C733.263,-157.732 762.585,-144.96 783.764,-135.735"/>
<polygon fill="midnightblue" stroke="midnightblue" points="785.397,-138.841 793.167,-131.639 782.601,-132.424 785.397,-138.841"/>
</g>
<!-- Node17 -->
<g id="node17" class="node"><title>Node17</title>
<polygon fill="none" stroke="#bfbfbf" points="861,-112.5 861,-131.5 923,-131.5 923,-112.5 861,-112.5"/>
<text text-anchor="middle" x="892" y="-119.5" font-family="Helvetica,sans-Serif" font-size="10.00">type_traits</text>
</g>
<!-- Node1&#45;&gt;Node17 -->
<g id="edge16" class="edge"><title>Node1&#45;&gt;Node17</title>
<path fill="none" stroke="midnightblue" d="M726.238,-171.633C768.299,-159.292 818.761,-144.487 852.872,-134.48"/>
<polygon fill="midnightblue" stroke="midnightblue" points="854.296,-137.709 862.906,-131.536 852.326,-130.993 854.296,-137.709"/>
</g>
<!-- Node18 -->
<g id="node18" class="node"><title>Node18</title>
<polygon fill="none" stroke="#bfbfbf" points="941.5,-112.5 941.5,-131.5 1000.5,-131.5 1000.5,-112.5 941.5,-112.5"/>
<text text-anchor="middle" x="971" y="-119.5" font-family="Helvetica,sans-Serif" font-size="10.00">functional</text>
</g>
<!-- Node1&#45;&gt;Node18 -->
<g id="edge18" class="edge"><title>Node1&#45;&gt;Node18</title>
<path fill="none" stroke="midnightblue" d="M726.05,-177.31C782.596,-164.878 861.636,-147.456 931,-132 931.104,-131.977 931.209,-131.954 931.313,-131.93"/>
<polygon fill="midnightblue" stroke="midnightblue" points="932.301,-135.296 941.296,-129.698 930.773,-128.465 932.301,-135.296"/>
</g>
<!-- Node19 -->
<g id="node19" class="node"><title>Node19</title>
<polygon fill="none" stroke="#bfbfbf" points="1019,-112.5 1019,-131.5 1059,-131.5 1059,-112.5 1019,-112.5"/>
<text text-anchor="middle" x="1039" y="-119.5" font-family="Helvetica,sans-Serif" font-size="10.00">utility</text>
</g>
<!-- Node1&#45;&gt;Node19 -->
<g id="edge19" class="edge"><title>Node1&#45;&gt;Node19</title>
<path fill="none" stroke="midnightblue" d="M726.176,-183.565C799.216,-172.921 912.342,-154.758 1009,-132 1009.1,-131.977 1009.2,-131.953 1009.3,-131.929"/>
<polygon fill="midnightblue" stroke="midnightblue" points="1009.98,-135.369 1018.76,-129.434 1008.19,-128.601 1009.98,-135.369"/>
</g>
<!-- Node3 -->
<g id="node3" class="node"><title>Node3</title>
<g id="a_node3"><a xlink:href="../../dc/dcd/DataHeader_8h.html" target="_top" xlink:title="Headers/DataHeader.h">
<polygon fill="none" stroke="black" points="63.5,-56.5 63.5,-75.5 180.5,-75.5 180.5,-56.5 63.5,-56.5"/>
<text text-anchor="middle" x="122" y="-63.5" font-family="Helvetica,sans-Serif" font-size="10.00">Headers/DataHeader.h</text>
</a>
</g>
</g>
<!-- Node2&#45;&gt;Node3 -->
<g id="edge2" class="edge"><title>Node2&#45;&gt;Node3</title>
<path fill="none" stroke="midnightblue" d="M233.084,-112.444C211.264,-103.517 176.85,-89.4387 152.108,-79.3168"/>
<polygon fill="midnightblue" stroke="midnightblue" points="153.399,-76.0634 142.818,-75.5164 150.748,-82.5422 153.399,-76.0634"/>
</g>
<!-- Node9 -->
<g id="node9" class="node"><title>Node9</title>
<g id="a_node9"><a xlink:href="../../dc/dca/Lifetime_8h.html" target="_top" xlink:title="Framework/Lifetime.h">
<polygon fill="none" stroke="black" points="198.5,-56.5 198.5,-75.5 309.5,-75.5 309.5,-56.5 198.5,-56.5"/>
<text text-anchor="middle" x="254" y="-63.5" font-family="Helvetica,sans-Serif" font-size="10.00">Framework/Lifetime.h</text>
</a>
</g>
</g>
<!-- Node2&#45;&gt;Node9 -->
<g id="edge8" class="edge"><title>Node2&#45;&gt;Node9</title>
<path fill="none" stroke="midnightblue" d="M254,-112.083C254,-105.006 254,-94.8611 254,-85.9865"/>
<polygon fill="midnightblue" stroke="midnightblue" points="257.5,-85.751 254,-75.7511 250.5,-85.7511 257.5,-85.751"/>
</g>
<!-- Node4 -->
<g id="node4" class="node"><title>Node4</title>
<polygon fill="none" stroke="#bfbfbf" points="0,-0.5 0,-19.5 46,-19.5 46,-0.5 0,-0.5"/>
<text text-anchor="middle" x="23" y="-7.5" font-family="Helvetica,sans-Serif" font-size="10.00">cstdint</text>
</g>
<!-- Node3&#45;&gt;Node4 -->
<g id="edge3" class="edge"><title>Node3&#45;&gt;Node4</title>
<path fill="none" stroke="midnightblue" d="M106.094,-56.324C90.3618,-47.7428 66.0577,-34.486 47.7911,-24.5224"/>
<polygon fill="midnightblue" stroke="midnightblue" points="49.3216,-21.3704 38.8666,-19.6545 45.9696,-27.5157 49.3216,-21.3704"/>
</g>
<!-- Node3&#45;&gt;Node5 -->
<g id="edge4" class="edge"><title>Node3&#45;&gt;Node5</title>
<path fill="none" stroke="midnightblue" d="M150.205,-56.4435C181.032,-47.0914 230.5,-32.0844 264.081,-21.8969"/>
<polygon fill="midnightblue" stroke="midnightblue" points="265.401,-25.1539 273.954,-18.9015 263.369,-18.4554 265.401,-25.1539"/>
</g>
<!-- Node6 -->
<g id="node6" class="node"><title>Node6</title>
<polygon fill="none" stroke="#bfbfbf" points="64.5,-0.5 64.5,-19.5 113.5,-19.5 113.5,-0.5 64.5,-0.5"/>
<text text-anchor="middle" x="89" y="-7.5" font-family="Helvetica,sans-Serif" font-size="10.00">cassert</text>
</g>
<!-- Node3&#45;&gt;Node6 -->
<g id="edge5" class="edge"><title>Node3&#45;&gt;Node6</title>
<path fill="none" stroke="midnightblue" d="M116.551,-56.083C111.986,-48.6127 105.332,-37.7244 99.7066,-28.5199"/>
<polygon fill="midnightblue" stroke="midnightblue" points="102.549,-26.4588 94.3479,-19.7511 96.5759,-30.109 102.549,-26.4588"/>
</g>
<!-- Node7 -->
<g id="node7" class="node"><title>Node7</title>
<polygon fill="none" stroke="#bfbfbf" points="132,-0.5 132,-19.5 178,-19.5 178,-0.5 132,-0.5"/>
<text text-anchor="middle" x="155" y="-7.5" font-family="Helvetica,sans-Serif" font-size="10.00">cstring</text>
</g>
<!-- Node3&#45;&gt;Node7 -->
<g id="edge6" class="edge"><title>Node3&#45;&gt;Node7</title>
<path fill="none" stroke="midnightblue" d="M127.449,-56.083C132.014,-48.6127 138.668,-37.7244 144.293,-28.5199"/>
<polygon fill="midnightblue" stroke="midnightblue" points="147.424,-30.109 149.652,-19.7511 141.451,-26.4588 147.424,-30.109"/>
</g>
<!-- Node8 -->
<g id="node8" class="node"><title>Node8</title>
<polygon fill="none" stroke="#bfbfbf" points="196,-0.5 196,-19.5 252,-19.5 252,-0.5 196,-0.5"/>
<text text-anchor="middle" x="224" y="-7.5" font-family="Helvetica,sans-Serif" font-size="10.00">algorithm</text>
</g>
<!-- Node3&#45;&gt;Node8 -->
<g id="edge7" class="edge"><title>Node3&#45;&gt;Node8</title>
<path fill="none" stroke="midnightblue" d="M138.388,-56.324C154.671,-47.7034 179.867,-34.3643 198.716,-24.3855"/>
<polygon fill="midnightblue" stroke="midnightblue" points="200.452,-27.4267 207.653,-19.6545 197.177,-21.2402 200.452,-27.4267"/>
</g>
</g>
</svg>
