<?xml version="1.0" encoding="UTF-8" standalone="no"?>
<!DOCTYPE svg PUBLIC "-//W3C//DTD SVG 1.1//EN"
 "http://www.w3.org/Graphics/SVG/1.1/DTD/svg11.dtd">
<!-- Generated by graphviz version 2.36.0 (20140111.2315)
 -->
<!-- Title: o2::framework::OutputRoute Pages: 1 -->
<svg width="784pt" height="450pt"
 viewBox="0.00 0.00 784.00 450.00" xmlns="http://www.w3.org/2000/svg" xmlns:xlink="http://www.w3.org/1999/xlink">
<g id="graph0" class="graph" transform="scale(1 1) rotate(0) translate(4 446)">
<title>o2::framework::OutputRoute</title>
<!-- Node1 -->
<g id="node1" class="node"><title>Node1</title>
<polygon fill="#bfbfbf" stroke="black" points="605,-0.5 605,-57.5 745,-57.5 745,-0.5 605,-0.5"/>
<text text-anchor="middle" x="675" y="-45.5" font-family="Helvetica,sans-Serif" font-size="10.00">o2::framework::OutputRoute</text>
<polyline fill="none" stroke="black" points="605,-38.5 745,-38.5 "/>
<text text-anchor="middle" x="675" y="-26.5" font-family="Helvetica,sans-Serif" font-size="10.00"> </text>
<polyline fill="none" stroke="black" points="605,-19.5 745,-19.5 "/>
<text text-anchor="middle" x="675" y="-7.5" font-family="Helvetica,sans-Serif" font-size="10.00"> </text>
</g>
<!-- Node2 -->
<g id="node2" class="node"><title>Node2</title>
<g id="a_node2"><a xlink:href="../../d8/dc3/structo2_1_1framework_1_1OutputSpec.html" target="_top" xlink:title="{o2::framework::OutputSpec\n||+ OutputSpec()\l+ OutputSpec()\l+ OutputSpec()\l+ OutputSpec()\l+ operator==()\l}">
<polygon fill="none" stroke="black" points="333.5,-116.5 333.5,-217.5 470.5,-217.5 470.5,-116.5 333.5,-116.5"/>
<text text-anchor="middle" x="402" y="-205.5" font-family="Helvetica,sans-Serif" font-size="10.00">o2::framework::OutputSpec</text>
<polyline fill="none" stroke="black" points="333.5,-198.5 470.5,-198.5 "/>
<text text-anchor="middle" x="402" y="-186.5" font-family="Helvetica,sans-Serif" font-size="10.00"> </text>
<polyline fill="none" stroke="black" points="333.5,-179.5 470.5,-179.5 "/>
<text text-anchor="start" x="341.5" y="-167.5" font-family="Helvetica,sans-Serif" font-size="10.00">+ OutputSpec()</text>
<text text-anchor="start" x="341.5" y="-156.5" font-family="Helvetica,sans-Serif" font-size="10.00">+ OutputSpec()</text>
<text text-anchor="start" x="341.5" y="-145.5" font-family="Helvetica,sans-Serif" font-size="10.00">+ OutputSpec()</text>
<text text-anchor="start" x="341.5" y="-134.5" font-family="Helvetica,sans-Serif" font-size="10.00">+ OutputSpec()</text>
<text text-anchor="start" x="341.5" y="-123.5" font-family="Helvetica,sans-Serif" font-size="10.00">+ operator==()</text>
</a>
</g>
</g>
<!-- Node2&#45;&gt;Node1 -->
<g id="edge1" class="edge"><title>Node2&#45;&gt;Node1</title>
<path fill="none" stroke="#404040" d="M470.537,-131.857C512.874,-110.766 566.921,-83.8415 608.814,-62.9719"/>
<polygon fill="none" stroke="#404040" points="608.995,-62.8815 612.582,-56.6257 619.736,-57.5306 616.15,-63.7864 608.995,-62.8815"/>
<text text-anchor="middle" x="601.5" y="-84.5" font-family="Helvetica,sans-Serif" font-size="10.00"> +matcher</text>
</g>
<!-- Node3 -->
<g id="node3" class="node"><title>Node3</title>
<polygon fill="none" stroke="#bfbfbf" points="440.5,-272.5 440.5,-329.5 491.5,-329.5 491.5,-272.5 440.5,-272.5"/>
<text text-anchor="middle" x="466" y="-317.5" font-family="Helvetica,sans-Serif" font-size="10.00">uint64_t</text>
<polyline fill="none" stroke="#bfbfbf" points="440.5,-310.5 491.5,-310.5 "/>
<text text-anchor="middle" x="466" y="-298.5" font-family="Helvetica,sans-Serif" font-size="10.00"> </text>
<polyline fill="none" stroke="#bfbfbf" points="440.5,-291.5 491.5,-291.5 "/>
<text text-anchor="middle" x="466" y="-279.5" font-family="Helvetica,sans-Serif" font-size="10.00"> </text>
</g>
<!-- Node3&#45;&gt;Node2 -->
<g id="edge2" class="edge"><title>Node3&#45;&gt;Node2</title>
<path fill="none" stroke="#404040" d="M452.584,-272.328C446.39,-259.553 438.774,-243.846 431.35,-228.535"/>
<polygon fill="none" stroke="#404040" points="431.237,-228.3 425.02,-224.647 426.001,-217.503 432.218,-221.156 431.237,-228.3"/>
<text text-anchor="middle" x="464" y="-239.5" font-family="Helvetica,sans-Serif" font-size="10.00"> +subSpec</text>
</g>
<!-- Node4 -->
<g id="node4" class="node"><title>Node4</title>
<polygon fill="none" stroke="#bfbfbf" points="0,-267 0,-335 142,-335 142,-267 0,-267"/>
<text text-anchor="start" x="8" y="-323" font-family="Helvetica,sans-Serif" font-size="10.00">Descriptor&lt; gSizeDataOrigin</text>
<text text-anchor="middle" x="71" y="-312" font-family="Helvetica,sans-Serif" font-size="10.00">String, printDataOrigin &gt;</text>
<polyline fill="none" stroke="#bfbfbf" points="0,-305 142,-305 "/>
<text text-anchor="middle" x="71" y="-293" font-family="Helvetica,sans-Serif" font-size="10.00"> </text>
<polyline fill="none" stroke="#bfbfbf" points="0,-286 142,-286 "/>
<text text-anchor="middle" x="71" y="-274" font-family="Helvetica,sans-Serif" font-size="10.00"> </text>
</g>
<!-- Node4&#45;&gt;Node2 -->
<g id="edge3" class="edge"><title>Node4&#45;&gt;Node2</title>
<path fill="none" stroke="#404040" d="M142.054,-269.673C145.074,-268.425 148.065,-267.196 151,-266 207.968,-242.779 272.642,-217.554 322.073,-198.512"/>
<polygon fill="none" stroke="#404040" points="322.136,-198.488 326.299,-192.6 333.335,-194.179 329.172,-200.067 322.136,-198.488"/>
<text text-anchor="middle" x="236.5" y="-239.5" font-family="Helvetica,sans-Serif" font-size="10.00"> +origin</text>
</g>
<!-- Node5 -->
<g id="node5" class="node"><title>Node5</title>
<polygon fill="none" stroke="#bfbfbf" points="160,-272.5 160,-329.5 238,-329.5 238,-272.5 160,-272.5"/>
<text text-anchor="middle" x="199" y="-317.5" font-family="Helvetica,sans-Serif" font-size="10.00">enum Lifetime</text>
<polyline fill="none" stroke="#bfbfbf" points="160,-310.5 238,-310.5 "/>
<text text-anchor="middle" x="199" y="-298.5" font-family="Helvetica,sans-Serif" font-size="10.00"> </text>
<polyline fill="none" stroke="#bfbfbf" points="160,-291.5 238,-291.5 "/>
<text text-anchor="middle" x="199" y="-279.5" font-family="Helvetica,sans-Serif" font-size="10.00"> </text>
</g>
<!-- Node5&#45;&gt;Node2 -->
<g id="edge4" class="edge"><title>Node5&#45;&gt;Node2</title>
<path fill="none" stroke="#404040" d="M237.651,-272.36C240.8,-270.188 243.945,-268.046 247,-266 271.42,-249.648 298.383,-232.345 322.88,-216.905"/>
<polygon fill="none" stroke="#404040" points="323.054,-216.796 326.005,-210.216 333.213,-210.41 330.262,-216.989 323.054,-216.796"/>
<text text-anchor="middle" x="310.5" y="-239.5" font-family="Helvetica,sans-Serif" font-size="10.00"> +lifetime</text>
</g>
<!-- Node6 -->
<g id="node6" class="node"><title>Node6</title>
<polygon fill="none" stroke="#bfbfbf" points="256,-267 256,-335 422,-335 422,-267 256,-267"/>
<text text-anchor="start" x="264" y="-323" font-family="Helvetica,sans-Serif" font-size="10.00">Descriptor&lt; gSizeDataDescription</text>
<text text-anchor="middle" x="339" y="-312" font-family="Helvetica,sans-Serif" font-size="10.00">String, printDataDescription &gt;</text>
<polyline fill="none" stroke="#bfbfbf" points="256,-305 422,-305 "/>
<text text-anchor="middle" x="339" y="-293" font-family="Helvetica,sans-Serif" font-size="10.00"> </text>
<polyline fill="none" stroke="#bfbfbf" points="256,-286 422,-286 "/>
<text text-anchor="middle" x="339" y="-274" font-family="Helvetica,sans-Serif" font-size="10.00"> </text>
</g>
<!-- Node6&#45;&gt;Node2 -->
<g id="edge5" class="edge"><title>Node6&#45;&gt;Node2</title>
<path fill="none" stroke="#404040" d="M354.898,-266.691C360.451,-255.056 366.869,-241.607 373.147,-228.454"/>
<polygon fill="none" stroke="#404040" points="373.196,-228.351 372.17,-221.214 378.365,-217.522 379.39,-224.659 373.196,-228.351"/>
<text text-anchor="middle" x="397.5" y="-239.5" font-family="Helvetica,sans-Serif" font-size="10.00"> +description</text>
</g>
<!-- Node7 -->
<g id="node7" class="node"><title>Node7</title>
<g id="a_node7"><a xlink:href="../../de/d1b/structo2_1_1framework_1_1OutputLabel.html" target="_top" xlink:title="{o2::framework::OutputLabel\n||}">
<polygon fill="none" stroke="black" points="509.5,-272.5 509.5,-329.5 646.5,-329.5 646.5,-272.5 509.5,-272.5"/>
<text text-anchor="middle" x="578" y="-317.5" font-family="Helvetica,sans-Serif" font-size="10.00">o2::framework::OutputLabel</text>
<polyline fill="none" stroke="black" points="509.5,-310.5 646.5,-310.5 "/>
<text text-anchor="middle" x="578" y="-298.5" font-family="Helvetica,sans-Serif" font-size="10.00"> </text>
<polyline fill="none" stroke="black" points="509.5,-291.5 646.5,-291.5 "/>
<text text-anchor="middle" x="578" y="-279.5" font-family="Helvetica,sans-Serif" font-size="10.00"> </text>
</a>
</g>
</g>
<!-- Node7&#45;&gt;Node2 -->
<g id="edge6" class="edge"><title>Node7&#45;&gt;Node2</title>
<path fill="none" stroke="#404040" d="M541.105,-272.328C522.666,-258.499 499.645,-241.234 477.672,-224.754"/>
<polygon fill="none" stroke="#404040" points="477.603,-224.703 470.403,-224.303 468.003,-217.503 475.203,-217.903 477.603,-224.703"/>
<text text-anchor="middle" x="526" y="-239.5" font-family="Helvetica,sans-Serif" font-size="10.00"> +binding</text>
</g>
<!-- Node8 -->
<g id="node8" class="node"><title>Node8</title>
<polygon fill="none" stroke="#bfbfbf" points="624.5,-384.5 624.5,-441.5 653.5,-441.5 653.5,-384.5 624.5,-384.5"/>
<text text-anchor="middle" x="639" y="-429.5" font-family="Helvetica,sans-Serif" font-size="10.00">int</text>
<polyline fill="none" stroke="#bfbfbf" points="624.5,-422.5 653.5,-422.5 "/>
<text text-anchor="middle" x="639" y="-410.5" font-family="Helvetica,sans-Serif" font-size="10.00"> </text>
<polyline fill="none" stroke="#bfbfbf" points="624.5,-403.5 653.5,-403.5 "/>
<text text-anchor="middle" x="639" y="-391.5" font-family="Helvetica,sans-Serif" font-size="10.00"> </text>
</g>
<!-- Node8&#45;&gt;Node1 -->
<g id="edge9" class="edge"><title>Node8&#45;&gt;Node1</title>
<path fill="none" stroke="#404040" d="M646.091,-384.407C649.447,-370.072 653.125,-352.207 655,-336 666.009,-240.862 671.422,-128.329 673.667,-69.8279"/>
<polygon fill="none" stroke="#404040" points="673.679,-69.5044 669.904,-63.3605 674.123,-57.5127 677.898,-63.6566 673.679,-69.5044"/>
<text text-anchor="middle" x="686.5" y="-239.5" font-family="Helvetica,sans-Serif" font-size="10.00"> +channel</text>
</g>
<!-- Node8&#45;&gt;Node7 -->
<g id="edge7" class="edge"><title>Node8&#45;&gt;Node7</title>
<path fill="none" stroke="#404040" d="M624.389,-385.652C616.845,-372.048 607.501,-355.198 599.18,-340.194"/>
<polygon fill="none" stroke="#404040" points="599.163,-340.162 592.755,-336.855 593.343,-329.668 599.751,-332.975 599.163,-340.162"/>
<text text-anchor="middle" x="629.5" y="-357.5" font-family="Helvetica,sans-Serif" font-size="10.00"> +value</text>
</g>
<!-- Node9 -->
<g id="node9" class="node"><title>Node9</title>
<polygon fill="none" stroke="#bfbfbf" points="703.5,-138.5 703.5,-195.5 746.5,-195.5 746.5,-138.5 703.5,-138.5"/>
<text text-anchor="middle" x="725" y="-183.5" font-family="Helvetica,sans-Serif" font-size="10.00">size_t</text>
<polyline fill="none" stroke="#bfbfbf" points="703.5,-176.5 746.5,-176.5 "/>
<text text-anchor="middle" x="725" y="-164.5" font-family="Helvetica,sans-Serif" font-size="10.00"> </text>
<polyline fill="none" stroke="#bfbfbf" points="703.5,-157.5 746.5,-157.5 "/>
<text text-anchor="middle" x="725" y="-145.5" font-family="Helvetica,sans-Serif" font-size="10.00"> </text>
</g>
<!-- Node9&#45;&gt;Node1 -->
<g id="edge8" class="edge"><title>Node9&#45;&gt;Node1</title>
<path fill="none" stroke="#404040" d="M714.882,-138.478C707.577,-118.609 697.607,-91.4906 689.463,-69.3389"/>
<polygon fill="none" stroke="#404040" points="689.416,-69.2104 683.591,-64.9592 685.275,-57.9475 691.1,-62.1987 689.416,-69.2104"/>
<text text-anchor="middle" x="738" y="-90" font-family="Helvetica,sans-Serif" font-size="10.00"> +maxTimeslices</text>
<text text-anchor="middle" x="738" y="-79" font-family="Helvetica,sans-Serif" font-size="10.00">+timeslice</text>
</g>
</g>
</svg>
