<?xml version="1.0" encoding="UTF-8" standalone="no"?>
<!DOCTYPE svg PUBLIC "-//W3C//DTD SVG 1.1//EN"
 "http://www.w3.org/Graphics/SVG/1.1/DTD/svg11.dtd">
<!-- Generated by graphviz version 2.36.0 (20140111.2315)
 -->
<!-- Title: /home/travis/build/AliceO2Group/AliceO2/Detectors/TOF/simulation/include/TOFSimulation/DigitizerTask.h Pages: 1 -->
<svg width="2158pt" height="468pt"
 viewBox="0.00 0.00 2158.30 468.00" xmlns="http://www.w3.org/2000/svg" xmlns:xlink="http://www.w3.org/1999/xlink">
<g id="graph0" class="graph" transform="scale(1 1) rotate(0) translate(4 464)">
<title>/home/travis/build/AliceO2Group/AliceO2/Detectors/TOF/simulation/include/TOFSimulation/DigitizerTask.h</title>
<!-- Node1 -->
<g id="node1" class="node"><title>Node1</title>
<polygon fill="#bfbfbf" stroke="black" points="1258,-396.5 1258,-459.5 1416,-459.5 1416,-396.5 1258,-396.5"/>
<text text-anchor="start" x="1266" y="-447.5" font-family="Helvetica,sans-Serif" font-size="10.00">/home/travis/build</text>
<text text-anchor="start" x="1266" y="-436.5" font-family="Helvetica,sans-Serif" font-size="10.00">/AliceO2Group/AliceO2</text>
<text text-anchor="start" x="1266" y="-425.5" font-family="Helvetica,sans-Serif" font-size="10.00">/Detectors/TOF/simulation</text>
<text text-anchor="start" x="1266" y="-414.5" font-family="Helvetica,sans-Serif" font-size="10.00">/include/TOFSimulation/Digitizer</text>
<text text-anchor="middle" x="1337" y="-403.5" font-family="Helvetica,sans-Serif" font-size="10.00">Task.h</text>
</g>
<!-- Node2 -->
<g id="node2" class="node"><title>Node2</title>
<polygon fill="none" stroke="#bfbfbf" points="713.5,-340.5 713.5,-359.5 776.5,-359.5 776.5,-340.5 713.5,-340.5"/>
<text text-anchor="middle" x="745" y="-347.5" font-family="Helvetica,sans-Serif" font-size="10.00">FairTask.h</text>
</g>
<!-- Node1&#45;&gt;Node2 -->
<g id="edge1" class="edge"><title>Node1&#45;&gt;Node2</title>
<path fill="none" stroke="midnightblue" d="M1257.63,-419.05C1151.15,-407.976 956.293,-386.277 791,-360 789.543,-359.768 788.062,-359.525 786.568,-359.271"/>
<polygon fill="midnightblue" stroke="midnightblue" points="787.081,-355.808 776.621,-357.494 785.849,-362.698 787.081,-355.808"/>
</g>
<!-- Node3 -->
<g id="node3" class="node"><title>Node3</title>
<polygon fill="none" stroke="#bfbfbf" points="1193,-74.5 1193,-93.5 1249,-93.5 1249,-74.5 1193,-74.5"/>
<text text-anchor="middle" x="1221" y="-81.5" font-family="Helvetica,sans-Serif" font-size="10.00">Rtypes.h</text>
</g>
<!-- Node1&#45;&gt;Node3 -->
<g id="edge2" class="edge"><title>Node1&#45;&gt;Node3</title>
<path fill="none" stroke="midnightblue" d="M1257.93,-422.886C1109.73,-413.001 805,-381.436 805,-289 805,-289 805,-289 805,-219 805,-174.25 823.626,-159.021 862,-136 985.108,-62.1468 1043.69,-134.658 1183,-100 1186.07,-99.237 1189.22,-98.2851 1192.33,-97.2332"/>
<polygon fill="midnightblue" stroke="midnightblue" points="1193.84,-100.407 1201.99,-93.6412 1191.4,-93.8454 1193.84,-100.407"/>
</g>
<!-- Node4 -->
<g id="node4" class="node"><title>Node4</title>
<g id="a_node4"><a xlink:href="../../df/d9c/TOF_2base_2include_2TOFBase_2Digit_8h.html" target="_top" xlink:title="TOFBase/Digit.h">
<polygon fill="none" stroke="black" points="1095,-210.5 1095,-229.5 1185,-229.5 1185,-210.5 1095,-210.5"/>
<text text-anchor="middle" x="1140" y="-217.5" font-family="Helvetica,sans-Serif" font-size="10.00">TOFBase/Digit.h</text>
</a>
</g>
</g>
<!-- Node1&#45;&gt;Node4 -->
<g id="edge3" class="edge"><title>Node1&#45;&gt;Node4</title>
<path fill="none" stroke="midnightblue" d="M1307.51,-396.16C1264.98,-351.686 1187.95,-271.143 1155.3,-236.994"/>
<polygon fill="midnightblue" stroke="midnightblue" points="1157.78,-234.526 1148.34,-229.718 1152.72,-239.364 1157.78,-234.526"/>
</g>
<!-- Node8 -->
<g id="node8" class="node"><title>Node8</title>
<g id="a_node8"><a xlink:href="../../d5/d3c/TOF_2simulation_2include_2TOFSimulation_2Detector_8h.html" target="_top" xlink:title="TOFSimulation/Detector.h">
<polygon fill="none" stroke="black" points="1398.5,-278.5 1398.5,-297.5 1529.5,-297.5 1529.5,-278.5 1398.5,-278.5"/>
<text text-anchor="middle" x="1464" y="-285.5" font-family="Helvetica,sans-Serif" font-size="10.00">TOFSimulation/Detector.h</text>
</a>
</g>
</g>
<!-- Node1&#45;&gt;Node8 -->
<g id="edge9" class="edge"><title>Node1&#45;&gt;Node8</title>
<path fill="none" stroke="midnightblue" d="M1365.19,-396.373C1391.1,-368.209 1428.53,-327.538 1449.09,-305.204"/>
<polygon fill="midnightblue" stroke="midnightblue" points="1451.88,-307.335 1456.08,-297.606 1446.73,-302.595 1451.88,-307.335"/>
</g>
<!-- Node32 -->
<g id="node32" class="node"><title>Node32</title>
<g id="a_node32"><a xlink:href="../../d0/d85/TOF_2simulation_2include_2TOFSimulation_2Digitizer_8h.html" target="_top" xlink:title="TOFSimulation/Digitizer.h">
<polygon fill="none" stroke="black" points="1512.5,-340.5 1512.5,-359.5 1641.5,-359.5 1641.5,-340.5 1512.5,-340.5"/>
<text text-anchor="middle" x="1577" y="-347.5" font-family="Helvetica,sans-Serif" font-size="10.00">TOFSimulation/Digitizer.h</text>
</a>
</g>
</g>
<!-- Node1&#45;&gt;Node32 -->
<g id="edge39" class="edge"><title>Node1&#45;&gt;Node32</title>
<path fill="none" stroke="midnightblue" d="M1416.25,-401.904C1458.07,-388.66 1507.39,-373.043 1540.26,-362.633"/>
<polygon fill="midnightblue" stroke="midnightblue" points="1541.44,-365.934 1549.91,-359.578 1539.32,-359.26 1541.44,-365.934"/>
</g>
<!-- Node33 -->
<g id="node33" class="node"><title>Node33</title>
<g id="a_node33"><a xlink:href="../../db/d14/MCTruthContainer_8h.html" target="_top" xlink:title="Definition of a container to keep Monte Carlo truth external to simulation objects. ">
<polygon fill="none" stroke="black" points="1838,-273 1838,-303 1952,-303 1952,-273 1838,-273"/>
<text text-anchor="start" x="1846" y="-291" font-family="Helvetica,sans-Serif" font-size="10.00">SimulationDataFormat</text>
<text text-anchor="middle" x="1895" y="-280" font-family="Helvetica,sans-Serif" font-size="10.00">/MCTruthContainer.h</text>
</a>
</g>
</g>
<!-- Node1&#45;&gt;Node33 -->
<g id="edge52" class="edge"><title>Node1&#45;&gt;Node33</title>
<path fill="none" stroke="midnightblue" d="M1416.15,-411.679C1479.64,-398.999 1570.91,-379.897 1650,-360 1715.89,-343.422 1790.81,-321.212 1840.26,-306.076"/>
<polygon fill="midnightblue" stroke="midnightblue" points="1841.57,-309.334 1850.11,-303.053 1839.52,-302.642 1841.57,-309.334"/>
</g>
<!-- Node4&#45;&gt;Node3 -->
<g id="edge7" class="edge"><title>Node4&#45;&gt;Node3</title>
<path fill="none" stroke="midnightblue" d="M1145.31,-210.208C1158.53,-188.342 1193.08,-131.19 1210.55,-102.28"/>
<polygon fill="midnightblue" stroke="midnightblue" points="1213.59,-104.019 1215.77,-93.6503 1207.6,-100.398 1213.59,-104.019"/>
</g>
<!-- Node5 -->
<g id="node5" class="node"><title>Node5</title>
<g id="a_node5"><a xlink:href="../../df/d5d/common_2include_2CommonDataFormat_2TimeStamp_8h.html" target="_top" xlink:title="CommonDataFormat/TimeStamp.h">
<polygon fill="none" stroke="black" points="985,-142.5 985,-161.5 1155,-161.5 1155,-142.5 985,-142.5"/>
<text text-anchor="middle" x="1070" y="-149.5" font-family="Helvetica,sans-Serif" font-size="10.00">CommonDataFormat/TimeStamp.h</text>
</a>
</g>
</g>
<!-- Node4&#45;&gt;Node5 -->
<g id="edge4" class="edge"><title>Node4&#45;&gt;Node5</title>
<path fill="none" stroke="midnightblue" d="M1130.85,-210.372C1119.7,-199.856 1100.63,-181.882 1086.81,-168.85"/>
<polygon fill="midnightblue" stroke="midnightblue" points="1089.05,-166.155 1079.38,-161.841 1084.25,-171.248 1089.05,-166.155"/>
</g>
<!-- Node6 -->
<g id="node6" class="node"><title>Node6</title>
<polygon fill="none" stroke="#bfbfbf" points="1129.5,-74.5 1129.5,-93.5 1174.5,-93.5 1174.5,-74.5 1129.5,-74.5"/>
<text text-anchor="middle" x="1152" y="-81.5" font-family="Helvetica,sans-Serif" font-size="10.00">iosfwd</text>
</g>
<!-- Node4&#45;&gt;Node6 -->
<g id="edge6" class="edge"><title>Node4&#45;&gt;Node6</title>
<path fill="none" stroke="midnightblue" d="M1095,-213.902C1020.15,-204.968 876.783,-185.742 862,-168 852.896,-157.074 852.664,-146.729 862,-136 900,-92.3295 1064.5,-116.47 1120,-100 1122.28,-99.3225 1124.61,-98.5056 1126.91,-97.6072"/>
<polygon fill="midnightblue" stroke="midnightblue" points="1128.32,-100.81 1136.09,-93.6034 1125.53,-94.3942 1128.32,-100.81"/>
</g>
<!-- Node7 -->
<g id="node7" class="node"><title>Node7</title>
<polygon fill="none" stroke="#bfbfbf" points="871.5,-137 871.5,-167 966.5,-167 966.5,-137 871.5,-137"/>
<text text-anchor="start" x="879.5" y="-155" font-family="Helvetica,sans-Serif" font-size="10.00">boost/serialization</text>
<text text-anchor="middle" x="919" y="-144" font-family="Helvetica,sans-Serif" font-size="10.00">/base_object.hpp</text>
</g>
<!-- Node4&#45;&gt;Node7 -->
<g id="edge8" class="edge"><title>Node4&#45;&gt;Node7</title>
<path fill="none" stroke="midnightblue" d="M1111.11,-210.372C1076.92,-200.16 1019.17,-182.915 975.898,-169.992"/>
<polygon fill="midnightblue" stroke="midnightblue" points="976.65,-166.564 966.067,-167.056 974.647,-173.271 976.65,-166.564"/>
</g>
<!-- Node5&#45;&gt;Node3 -->
<g id="edge5" class="edge"><title>Node5&#45;&gt;Node3</title>
<path fill="none" stroke="midnightblue" d="M1089.74,-142.372C1115.74,-131.007 1161.67,-110.931 1191.72,-97.7961"/>
<polygon fill="midnightblue" stroke="midnightblue" points="1193.49,-100.843 1201.25,-93.6305 1190.69,-94.4285 1193.49,-100.843"/>
</g>
<!-- Node9 -->
<g id="node9" class="node"><title>Node9</title>
<g id="a_node9"><a xlink:href="../../d1/d3a/Base_2include_2DetectorsBase_2Detector_8h.html" target="_top" xlink:title="DetectorsBase/Detector.h">
<polygon fill="none" stroke="black" points="1402.5,-210.5 1402.5,-229.5 1533.5,-229.5 1533.5,-210.5 1402.5,-210.5"/>
<text text-anchor="middle" x="1468" y="-217.5" font-family="Helvetica,sans-Serif" font-size="10.00">DetectorsBase/Detector.h</text>
</a>
</g>
</g>
<!-- Node8&#45;&gt;Node9 -->
<g id="edge10" class="edge"><title>Node8&#45;&gt;Node9</title>
<path fill="none" stroke="midnightblue" d="M1464.52,-278.372C1465.11,-268.643 1466.09,-252.528 1466.86,-239.85"/>
<polygon fill="midnightblue" stroke="midnightblue" points="1470.35,-240.035 1467.46,-229.841 1463.37,-239.611 1470.35,-240.035"/>
</g>
<!-- Node20 -->
<g id="node20" class="node"><title>Node20</title>
<g id="a_node20"><a xlink:href="../../d4/d54/Geo_8h.html" target="_top" xlink:title="TOFBase/Geo.h">
<polygon fill="none" stroke="black" points="1552,-210.5 1552,-229.5 1640,-229.5 1640,-210.5 1552,-210.5"/>
<text text-anchor="middle" x="1596" y="-217.5" font-family="Helvetica,sans-Serif" font-size="10.00">TOFBase/Geo.h</text>
</a>
</g>
</g>
<!-- Node8&#45;&gt;Node20 -->
<g id="edge24" class="edge"><title>Node8&#45;&gt;Node20</title>
<path fill="none" stroke="midnightblue" d="M1481.26,-278.372C1503.79,-267.106 1543.44,-247.279 1569.72,-234.14"/>
<polygon fill="midnightblue" stroke="midnightblue" points="1571.36,-237.233 1578.74,-229.63 1568.23,-230.972 1571.36,-237.233"/>
</g>
<!-- Node21 -->
<g id="node21" class="node"><title>Node21</title>
<g id="a_node21"><a xlink:href="../../d4/d25/BaseHits_8h.html" target="_top" xlink:title="SimulationDataFormat\l/BaseHits.h">
<polygon fill="none" stroke="black" points="877,-205 877,-235 991,-235 991,-205 877,-205"/>
<text text-anchor="start" x="885" y="-223" font-family="Helvetica,sans-Serif" font-size="10.00">SimulationDataFormat</text>
<text text-anchor="middle" x="934" y="-212" font-family="Helvetica,sans-Serif" font-size="10.00">/BaseHits.h</text>
</a>
</g>
</g>
<!-- Node8&#45;&gt;Node21 -->
<g id="edge26" class="edge"><title>Node8&#45;&gt;Node21</title>
<path fill="none" stroke="midnightblue" d="M1398.48,-278.841C1297.27,-266.237 1103.9,-242.158 1001.5,-229.406"/>
<polygon fill="midnightblue" stroke="midnightblue" points="1001.64,-225.896 991.28,-228.133 1000.77,-232.842 1001.64,-225.896"/>
</g>
<!-- Node9&#45;&gt;Node3 -->
<g id="edge19" class="edge"><title>Node9&#45;&gt;Node3</title>
<path fill="none" stroke="midnightblue" d="M1402.49,-212.13C1343.47,-204.597 1262.61,-190.495 1240,-168 1223.09,-151.17 1219.95,-122.566 1219.94,-103.726"/>
<polygon fill="midnightblue" stroke="midnightblue" points="1223.44,-103.784 1220.23,-93.6876 1216.44,-103.583 1223.44,-103.784"/>
</g>
<!-- Node10 -->
<g id="node10" class="node"><title>Node10</title>
<polygon fill="none" stroke="#bfbfbf" points="1955.5,-74.5 1955.5,-93.5 1990.5,-93.5 1990.5,-74.5 1955.5,-74.5"/>
<text text-anchor="middle" x="1973" y="-81.5" font-family="Helvetica,sans-Serif" font-size="10.00">map</text>
</g>
<!-- Node9&#45;&gt;Node10 -->
<g id="edge11" class="edge"><title>Node9&#45;&gt;Node10</title>
<path fill="none" stroke="midnightblue" d="M1506,-210.477C1517.81,-208.079 1530.9,-205.671 1543,-204 1594.44,-196.895 1973.72,-206.109 2009,-168 2026.86,-148.709 2005.98,-119.166 1989.38,-101.021"/>
<polygon fill="midnightblue" stroke="midnightblue" points="1991.66,-98.3463 1982.21,-93.5642 1986.62,-103.198 1991.66,-98.3463"/>
</g>
<!-- Node11 -->
<g id="node11" class="node"><title>Node11</title>
<polygon fill="none" stroke="#bfbfbf" points="1249,-142.5 1249,-161.5 1293,-161.5 1293,-142.5 1249,-142.5"/>
<text text-anchor="middle" x="1271" y="-149.5" font-family="Helvetica,sans-Serif" font-size="10.00">vector</text>
</g>
<!-- Node9&#45;&gt;Node11 -->
<g id="edge12" class="edge"><title>Node9&#45;&gt;Node11</title>
<path fill="none" stroke="midnightblue" d="M1435.05,-210.476C1401.19,-201.346 1347.18,-185.75 1302,-168 1300.35,-167.354 1298.68,-166.657 1296.99,-165.929"/>
<polygon fill="midnightblue" stroke="midnightblue" points="1298.07,-162.572 1287.52,-161.571 1295.15,-168.931 1298.07,-162.572"/>
</g>
<!-- Node12 -->
<g id="node12" class="node"><title>Node12</title>
<polygon fill="none" stroke="#bfbfbf" points="1311,-142.5 1311,-161.5 1363,-161.5 1363,-142.5 1311,-142.5"/>
<text text-anchor="middle" x="1337" y="-149.5" font-family="Helvetica,sans-Serif" font-size="10.00">memory</text>
</g>
<!-- Node9&#45;&gt;Node12 -->
<g id="edge13" class="edge"><title>Node9&#45;&gt;Node12</title>
<path fill="none" stroke="midnightblue" d="M1450.87,-210.372C1428.51,-199.106 1389.16,-179.279 1363.08,-166.14"/>
<polygon fill="midnightblue" stroke="midnightblue" points="1364.64,-163.004 1354.13,-161.63 1361.49,-169.256 1364.64,-163.004"/>
</g>
<!-- Node13 -->
<g id="node13" class="node"><title>Node13</title>
<polygon fill="none" stroke="#bfbfbf" points="1381.5,-142.5 1381.5,-161.5 1460.5,-161.5 1460.5,-142.5 1381.5,-142.5"/>
<text text-anchor="middle" x="1421" y="-149.5" font-family="Helvetica,sans-Serif" font-size="10.00">FairDetector.h</text>
</g>
<!-- Node9&#45;&gt;Node13 -->
<g id="edge14" class="edge"><title>Node9&#45;&gt;Node13</title>
<path fill="none" stroke="midnightblue" d="M1461.86,-210.372C1454.65,-200.25 1442.52,-183.215 1433.34,-170.331"/>
<polygon fill="midnightblue" stroke="midnightblue" points="1435.95,-167.957 1427.3,-161.841 1430.25,-172.017 1435.95,-167.957"/>
</g>
<!-- Node14 -->
<g id="node14" class="node"><title>Node14</title>
<polygon fill="none" stroke="#bfbfbf" points="1479,-142.5 1479,-161.5 1579,-161.5 1579,-142.5 1479,-142.5"/>
<text text-anchor="middle" x="1529" y="-149.5" font-family="Helvetica,sans-Serif" font-size="10.00">FairRootManager.h</text>
</g>
<!-- Node9&#45;&gt;Node14 -->
<g id="edge15" class="edge"><title>Node9&#45;&gt;Node14</title>
<path fill="none" stroke="midnightblue" d="M1475.97,-210.372C1485.6,-199.955 1502,-182.217 1514.01,-169.216"/>
<polygon fill="midnightblue" stroke="midnightblue" points="1516.61,-171.561 1520.83,-161.841 1511.47,-166.809 1516.61,-171.561"/>
</g>
<!-- Node15 -->
<g id="node15" class="node"><title>Node15</title>
<g id="a_node15"><a xlink:href="../../d0/d9a/MaterialManager_8h.html" target="_top" xlink:title="DetectorsBase/MaterialManager.h">
<polygon fill="none" stroke="black" points="1835.5,-142.5 1835.5,-161.5 2000.5,-161.5 2000.5,-142.5 1835.5,-142.5"/>
<text text-anchor="middle" x="1918" y="-149.5" font-family="Helvetica,sans-Serif" font-size="10.00">DetectorsBase/MaterialManager.h</text>
</a>
</g>
</g>
<!-- Node9&#45;&gt;Node15 -->
<g id="edge16" class="edge"><title>Node9&#45;&gt;Node15</title>
<path fill="none" stroke="midnightblue" d="M1508.4,-210.442C1519.58,-208.203 1531.74,-205.89 1543,-204 1643.15,-187.191 1759.06,-172.089 1835.2,-162.759"/>
<polygon fill="midnightblue" stroke="midnightblue" points="1835.7,-166.224 1845.21,-161.538 1834.86,-159.275 1835.7,-166.224"/>
</g>
<!-- Node16 -->
<g id="node16" class="node"><title>Node16</title>
<polygon fill="none" stroke="#bfbfbf" points="1597.5,-142.5 1597.5,-161.5 1650.5,-161.5 1650.5,-142.5 1597.5,-142.5"/>
<text text-anchor="middle" x="1624" y="-149.5" font-family="Helvetica,sans-Serif" font-size="10.00">cxxabi.h</text>
</g>
<!-- Node9&#45;&gt;Node16 -->
<g id="edge20" class="edge"><title>Node9&#45;&gt;Node16</title>
<path fill="none" stroke="midnightblue" d="M1488.39,-210.372C1515.37,-198.958 1563.12,-178.756 1594.16,-165.625"/>
<polygon fill="midnightblue" stroke="midnightblue" points="1595.75,-168.75 1603.6,-161.63 1593.03,-162.304 1595.75,-168.75"/>
</g>
<!-- Node17 -->
<g id="node17" class="node"><title>Node17</title>
<polygon fill="none" stroke="#bfbfbf" points="1668.5,-142.5 1668.5,-161.5 1719.5,-161.5 1719.5,-142.5 1668.5,-142.5"/>
<text text-anchor="middle" x="1694" y="-149.5" font-family="Helvetica,sans-Serif" font-size="10.00">typeinfo</text>
</g>
<!-- Node9&#45;&gt;Node17 -->
<g id="edge21" class="edge"><title>Node9&#45;&gt;Node17</title>
<path fill="none" stroke="midnightblue" d="M1506.54,-210.434C1545.47,-201.381 1607.1,-185.946 1659,-168 1661.27,-167.216 1663.59,-166.353 1665.92,-165.449"/>
<polygon fill="midnightblue" stroke="midnightblue" points="1667.38,-168.633 1675.3,-161.601 1664.72,-162.157 1667.38,-168.633"/>
</g>
<!-- Node18 -->
<g id="node18" class="node"><title>Node18</title>
<polygon fill="none" stroke="#bfbfbf" points="2057,-142.5 2057,-161.5 2119,-161.5 2119,-142.5 2057,-142.5"/>
<text text-anchor="middle" x="2088" y="-149.5" font-family="Helvetica,sans-Serif" font-size="10.00">type_traits</text>
</g>
<!-- Node9&#45;&gt;Node18 -->
<g id="edge22" class="edge"><title>Node9&#45;&gt;Node18</title>
<path fill="none" stroke="midnightblue" d="M1506,-210.438C1517.8,-208.038 1530.89,-205.64 1543,-204 1763.78,-174.094 1824.5,-211.567 2043,-168 2047.27,-167.149 2051.7,-166.009 2056.03,-164.736"/>
<polygon fill="midnightblue" stroke="midnightblue" points="2057.4,-167.973 2065.87,-161.599 2055.28,-161.304 2057.4,-167.973"/>
</g>
<!-- Node19 -->
<g id="node19" class="node"><title>Node19</title>
<polygon fill="none" stroke="#bfbfbf" points="1737.5,-142.5 1737.5,-161.5 1778.5,-161.5 1778.5,-142.5 1737.5,-142.5"/>
<text text-anchor="middle" x="1758" y="-149.5" font-family="Helvetica,sans-Serif" font-size="10.00">string</text>
</g>
<!-- Node9&#45;&gt;Node19 -->
<g id="edge23" class="edge"><title>Node9&#45;&gt;Node19</title>
<path fill="none" stroke="midnightblue" d="M1510.43,-210.473C1521.06,-208.348 1532.45,-206.082 1543,-204 1625.18,-187.786 1648.7,-194.978 1728,-168 1729.86,-167.367 1731.75,-166.64 1733.63,-165.855"/>
<polygon fill="midnightblue" stroke="midnightblue" points="1735.18,-168.997 1742.78,-161.613 1732.23,-162.648 1735.18,-168.997"/>
</g>
<!-- Node15&#45;&gt;Node3 -->
<g id="edge17" class="edge"><title>Node15&#45;&gt;Node3</title>
<path fill="none" stroke="midnightblue" d="M1867.24,-142.479C1852.37,-140.164 1836.06,-137.802 1821,-136 1609.39,-110.676 1354.32,-93.3434 1259.2,-87.3336"/>
<polygon fill="midnightblue" stroke="midnightblue" points="1259.38,-83.8385 1249.19,-86.7056 1258.95,-90.8248 1259.38,-83.8385"/>
</g>
<!-- Node15&#45;&gt;Node10 -->
<g id="edge18" class="edge"><title>Node15&#45;&gt;Node10</title>
<path fill="none" stroke="midnightblue" d="M1925.19,-142.372C1933.79,-132.053 1948.37,-114.551 1959.18,-101.585"/>
<polygon fill="midnightblue" stroke="midnightblue" points="1961.92,-103.764 1965.63,-93.8411 1956.54,-99.2827 1961.92,-103.764"/>
</g>
<!-- Node20&#45;&gt;Node3 -->
<g id="edge25" class="edge"><title>Node20&#45;&gt;Node3</title>
<path fill="none" stroke="midnightblue" d="M1625.68,-210.483C1633.28,-208.336 1641.43,-206.058 1649,-204 1714.98,-186.059 1833.13,-186.471 1787,-136 1751.46,-97.1182 1381.34,-87.6165 1259.59,-85.5345"/>
<polygon fill="midnightblue" stroke="midnightblue" points="1259.31,-82.0296 1249.26,-85.3657 1259.2,-89.0287 1259.31,-82.0296"/>
</g>
<!-- Node22 -->
<g id="node22" class="node"><title>Node22</title>
<g id="a_node22"><a xlink:href="../../dd/d76/Cartesian3D_8h.html" target="_top" xlink:title="MathUtils/Cartesian3D.h">
<polygon fill="none" stroke="black" points="636.5,-142.5 636.5,-161.5 761.5,-161.5 761.5,-142.5 636.5,-142.5"/>
<text text-anchor="middle" x="699" y="-149.5" font-family="Helvetica,sans-Serif" font-size="10.00">MathUtils/Cartesian3D.h</text>
</a>
</g>
</g>
<!-- Node21&#45;&gt;Node22 -->
<g id="edge27" class="edge"><title>Node21&#45;&gt;Node22</title>
<path fill="none" stroke="midnightblue" d="M883.875,-204.922C840.63,-192.777 778.994,-175.466 738.993,-164.232"/>
<polygon fill="midnightblue" stroke="midnightblue" points="739.888,-160.848 729.314,-161.514 737.995,-167.587 739.888,-160.848"/>
</g>
<!-- Node22&#45;&gt;Node3 -->
<g id="edge33" class="edge"><title>Node22&#45;&gt;Node3</title>
<path fill="none" stroke="midnightblue" d="M747.608,-142.422C761.587,-140.133 776.873,-137.798 791,-136 964.555,-113.91 1012.8,-140.528 1183,-100 1186.24,-99.2278 1189.58,-98.2335 1192.86,-97.1248"/>
<polygon fill="midnightblue" stroke="midnightblue" points="1194.25,-100.339 1202.4,-93.5626 1191.81,-93.7808 1194.25,-100.339"/>
</g>
<!-- Node22&#45;&gt;Node6 -->
<g id="edge35" class="edge"><title>Node22&#45;&gt;Node6</title>
<path fill="none" stroke="midnightblue" d="M748.584,-142.425C762.302,-140.186 777.21,-137.877 791,-136 936.751,-116.158 978.379,-139.754 1120,-100 1122.34,-99.3424 1124.73,-98.5286 1127.08,-97.6228"/>
<polygon fill="midnightblue" stroke="midnightblue" points="1128.68,-100.748 1136.45,-93.5454 1125.88,-94.33 1128.68,-100.748"/>
</g>
<!-- Node23 -->
<g id="node23" class="node"><title>Node23</title>
<polygon fill="none" stroke="#bfbfbf" points="246.5,-69 246.5,-99 397.5,-99 397.5,-69 246.5,-69"/>
<text text-anchor="start" x="254.5" y="-87" font-family="Helvetica,sans-Serif" font-size="10.00">Math/GenVector/Displacement</text>
<text text-anchor="middle" x="322" y="-76" font-family="Helvetica,sans-Serif" font-size="10.00">Vector3D.h</text>
</g>
<!-- Node22&#45;&gt;Node23 -->
<g id="edge28" class="edge"><title>Node22&#45;&gt;Node23</title>
<path fill="none" stroke="midnightblue" d="M650.172,-142.499C594.221,-132.752 499.489,-116.23 407.576,-100.099"/>
<polygon fill="midnightblue" stroke="midnightblue" points="407.997,-96.6199 397.543,-98.3381 406.787,-103.514 407.997,-96.6199"/>
</g>
<!-- Node24 -->
<g id="node24" class="node"><title>Node24</title>
<polygon fill="none" stroke="#bfbfbf" points="416,-74.5 416,-93.5 592,-93.5 592,-74.5 416,-74.5"/>
<text text-anchor="middle" x="504" y="-81.5" font-family="Helvetica,sans-Serif" font-size="10.00">Math/GenVector/PositionVector3D.h</text>
</g>
<!-- Node22&#45;&gt;Node24 -->
<g id="edge29" class="edge"><title>Node22&#45;&gt;Node24</title>
<path fill="none" stroke="midnightblue" d="M673.507,-142.372C639.106,-130.728 577.685,-109.939 538.985,-96.8411"/>
<polygon fill="midnightblue" stroke="midnightblue" points="539.784,-93.4166 529.19,-93.5259 537.54,-100.047 539.784,-93.4166"/>
</g>
<!-- Node25 -->
<g id="node25" class="node"><title>Node25</title>
<polygon fill="none" stroke="#bfbfbf" points="609.5,-74.5 609.5,-93.5 758.5,-93.5 758.5,-74.5 609.5,-74.5"/>
<text text-anchor="middle" x="684" y="-81.5" font-family="Helvetica,sans-Serif" font-size="10.00">Math/GenVector/Rotation3D.h</text>
</g>
<!-- Node22&#45;&gt;Node25 -->
<g id="edge30" class="edge"><title>Node22&#45;&gt;Node25</title>
<path fill="none" stroke="midnightblue" d="M697.039,-142.372C694.828,-132.643 691.165,-116.528 688.284,-103.85"/>
<polygon fill="midnightblue" stroke="midnightblue" points="691.639,-102.817 686.009,-93.8411 684.813,-104.368 691.639,-102.817"/>
</g>
<!-- Node26 -->
<g id="node26" class="node"><title>Node26</title>
<polygon fill="none" stroke="#bfbfbf" points="777,-74.5 777,-93.5 933,-93.5 933,-74.5 777,-74.5"/>
<text text-anchor="middle" x="855" y="-81.5" font-family="Helvetica,sans-Serif" font-size="10.00">Math/GenVector/Transform3D.h</text>
</g>
<!-- Node22&#45;&gt;Node26 -->
<g id="edge31" class="edge"><title>Node22&#45;&gt;Node26</title>
<path fill="none" stroke="midnightblue" d="M719.394,-142.372C746.372,-130.958 794.122,-110.756 825.159,-97.6252"/>
<polygon fill="midnightblue" stroke="midnightblue" points="826.755,-100.75 834.601,-93.6305 824.027,-94.3035 826.755,-100.75"/>
</g>
<!-- Node27 -->
<g id="node27" class="node"><title>Node27</title>
<polygon fill="none" stroke="#bfbfbf" points="951,-74.5 951,-93.5 1111,-93.5 1111,-74.5 951,-74.5"/>
<text text-anchor="middle" x="1031" y="-81.5" font-family="Helvetica,sans-Serif" font-size="10.00">Math/GenVector/Translation3D.h</text>
</g>
<!-- Node22&#45;&gt;Node27 -->
<g id="edge32" class="edge"><title>Node22&#45;&gt;Node27</title>
<path fill="none" stroke="midnightblue" d="M742.063,-142.439C802.517,-130.421 912.463,-108.565 977.907,-95.5547"/>
<polygon fill="midnightblue" stroke="midnightblue" points="978.888,-98.9282 988.013,-93.5455 977.523,-92.0626 978.888,-98.9282"/>
</g>
<!-- Node28 -->
<g id="node28" class="node"><title>Node28</title>
<polygon fill="none" stroke="#bfbfbf" points="9,-74.5 9,-93.5 85,-93.5 85,-74.5 9,-74.5"/>
<text text-anchor="middle" x="47" y="-81.5" font-family="Helvetica,sans-Serif" font-size="10.00">TGeoMatrix.h</text>
</g>
<!-- Node22&#45;&gt;Node28 -->
<g id="edge34" class="edge"><title>Node22&#45;&gt;Node28</title>
<path fill="none" stroke="midnightblue" d="M636.081,-150.333C525.407,-148.134 289.127,-138.847 94,-100 89.4349,-99.0912 84.6901,-97.8922 80.0474,-96.5674"/>
<polygon fill="midnightblue" stroke="midnightblue" points="80.7437,-93.1199 70.1568,-93.5294 78.6884,-99.8114 80.7437,-93.1199"/>
</g>
<!-- Node29 -->
<g id="node29" class="node"><title>Node29</title>
<g id="a_node29"><a xlink:href="../../d2/dd0/Cartesian2D_8h.html" target="_top" xlink:title="MathUtils/Cartesian2D.h">
<polygon fill="none" stroke="black" points="103.5,-74.5 103.5,-93.5 228.5,-93.5 228.5,-74.5 103.5,-74.5"/>
<text text-anchor="middle" x="166" y="-81.5" font-family="Helvetica,sans-Serif" font-size="10.00">MathUtils/Cartesian2D.h</text>
</a>
</g>
</g>
<!-- Node22&#45;&gt;Node29 -->
<g id="edge36" class="edge"><title>Node22&#45;&gt;Node29</title>
<path fill="none" stroke="midnightblue" d="M636.341,-146.05C547.254,-138.566 379.024,-122.785 237,-100 229.216,-98.7512 220.994,-97.2165 213.015,-95.6105"/>
<polygon fill="midnightblue" stroke="midnightblue" points="213.591,-92.1555 203.089,-93.5541 212.171,-99.01 213.591,-92.1555"/>
</g>
<!-- Node30 -->
<g id="node30" class="node"><title>Node30</title>
<polygon fill="none" stroke="#bfbfbf" points="-0.5,-1 -0.5,-31 150.5,-31 150.5,-1 -0.5,-1"/>
<text text-anchor="start" x="7.5" y="-19" font-family="Helvetica,sans-Serif" font-size="10.00">Math/GenVector/Displacement</text>
<text text-anchor="middle" x="75" y="-8" font-family="Helvetica,sans-Serif" font-size="10.00">Vector2D.h</text>
</g>
<!-- Node29&#45;&gt;Node30 -->
<g id="edge37" class="edge"><title>Node29&#45;&gt;Node30</title>
<path fill="none" stroke="midnightblue" d="M154.103,-74.3717C141.221,-65.0286 120.22,-49.7966 103.093,-37.375"/>
<polygon fill="midnightblue" stroke="midnightblue" points="104.703,-34.2194 94.5532,-31.1815 100.593,-39.8859 104.703,-34.2194"/>
</g>
<!-- Node31 -->
<g id="node31" class="node"><title>Node31</title>
<polygon fill="none" stroke="#bfbfbf" points="169,-6.5 169,-25.5 345,-25.5 345,-6.5 169,-6.5"/>
<text text-anchor="middle" x="257" y="-13.5" font-family="Helvetica,sans-Serif" font-size="10.00">Math/GenVector/PositionVector2D.h</text>
</g>
<!-- Node29&#45;&gt;Node31 -->
<g id="edge38" class="edge"><title>Node29&#45;&gt;Node31</title>
<path fill="none" stroke="midnightblue" d="M177.897,-74.3717C192.884,-63.5015 218.862,-44.6602 236.942,-31.5474"/>
<polygon fill="midnightblue" stroke="midnightblue" points="239.06,-34.3349 245.1,-25.6305 234.95,-28.6684 239.06,-34.3349"/>
</g>
<!-- Node32&#45;&gt;Node4 -->
<g id="edge41" class="edge"><title>Node32&#45;&gt;Node4</title>
<path fill="none" stroke="midnightblue" d="M1575.31,-340.08C1571.69,-323.609 1561.5,-288.593 1538,-272 1510.52,-252.603 1298.01,-233.449 1195.27,-225.209"/>
<polygon fill="midnightblue" stroke="midnightblue" points="1195.33,-221.703 1185.09,-224.399 1194.78,-228.681 1195.33,-221.703"/>
</g>
<!-- Node32&#45;&gt;Node8 -->
<g id="edge42" class="edge"><title>Node32&#45;&gt;Node8</title>
<path fill="none" stroke="midnightblue" d="M1560.81,-340.403C1542.1,-330.468 1511.08,-313.997 1489.2,-302.381"/>
<polygon fill="midnightblue" stroke="midnightblue" points="1490.63,-299.179 1480.16,-297.581 1487.35,-305.362 1490.63,-299.179"/>
</g>
<!-- Node32&#45;&gt;Node20 -->
<g id="edge40" class="edge"><title>Node32&#45;&gt;Node20</title>
<path fill="none" stroke="midnightblue" d="M1578.31,-340.202C1581.37,-319.551 1589.08,-267.606 1593.24,-239.594"/>
<polygon fill="midnightblue" stroke="midnightblue" points="1596.73,-239.928 1594.73,-229.522 1589.8,-238.9 1596.73,-239.928"/>
</g>
<!-- Node32&#45;&gt;Node33 -->
<g id="edge43" class="edge"><title>Node32&#45;&gt;Node33</title>
<path fill="none" stroke="midnightblue" d="M1622.22,-340.467C1675.91,-330.338 1765.93,-313.353 1827.78,-301.684"/>
<polygon fill="midnightblue" stroke="midnightblue" points="1828.66,-305.08 1837.83,-299.786 1827.36,-298.201 1828.66,-305.08"/>
</g>
<!-- Node38 -->
<g id="node38" class="node"><title>Node38</title>
<g id="a_node38"><a xlink:href="../../df/d71/MCLabel_8h.html" target="_top" xlink:title="TOFSimulation/MCLabel.h">
<polygon fill="none" stroke="black" points="1637,-278.5 1637,-297.5 1769,-297.5 1769,-278.5 1637,-278.5"/>
<text text-anchor="middle" x="1703" y="-285.5" font-family="Helvetica,sans-Serif" font-size="10.00">TOFSimulation/MCLabel.h</text>
</a>
</g>
</g>
<!-- Node32&#45;&gt;Node38 -->
<g id="edge49" class="edge"><title>Node32&#45;&gt;Node38</title>
<path fill="none" stroke="midnightblue" d="M1595.05,-340.403C1616.2,-330.334 1651.44,-313.552 1675.88,-301.915"/>
<polygon fill="midnightblue" stroke="midnightblue" points="1677.46,-305.04 1684.98,-297.581 1674.45,-298.72 1677.46,-305.04"/>
</g>
<!-- Node33&#45;&gt;Node18 -->
<g id="edge48" class="edge"><title>Node33&#45;&gt;Node18</title>
<path fill="none" stroke="midnightblue" d="M1952.4,-284.441C1990.28,-279.686 2038.22,-267.313 2068,-236 2084.41,-218.744 2088.1,-190.458 2088.57,-171.782"/>
<polygon fill="midnightblue" stroke="midnightblue" points="2092.07,-171.568 2088.54,-161.58 2085.07,-171.593 2092.07,-171.568"/>
</g>
<!-- Node34 -->
<g id="node34" class="node"><title>Node34</title>
<polygon fill="none" stroke="#bfbfbf" points="1790,-210.5 1790,-229.5 1852,-229.5 1852,-210.5 1790,-210.5"/>
<text text-anchor="middle" x="1821" y="-217.5" font-family="Helvetica,sans-Serif" font-size="10.00">TNamed.h</text>
</g>
<!-- Node33&#45;&gt;Node34 -->
<g id="edge44" class="edge"><title>Node33&#45;&gt;Node34</title>
<path fill="none" stroke="midnightblue" d="M1878.94,-272.679C1867.06,-262.082 1850.89,-247.655 1838.64,-236.736"/>
<polygon fill="midnightblue" stroke="midnightblue" points="1840.69,-233.872 1830.9,-229.828 1836.03,-239.097 1840.69,-233.872"/>
</g>
<!-- Node35 -->
<g id="node35" class="node"><title>Node35</title>
<polygon fill="none" stroke="#bfbfbf" points="1870.5,-210.5 1870.5,-229.5 1919.5,-229.5 1919.5,-210.5 1870.5,-210.5"/>
<text text-anchor="middle" x="1895" y="-217.5" font-family="Helvetica,sans-Serif" font-size="10.00">cassert</text>
</g>
<!-- Node33&#45;&gt;Node35 -->
<g id="edge45" class="edge"><title>Node33&#45;&gt;Node35</title>
<path fill="none" stroke="midnightblue" d="M1895,-272.679C1895,-263.101 1895,-250.394 1895,-239.977"/>
<polygon fill="midnightblue" stroke="midnightblue" points="1898.5,-239.828 1895,-229.828 1891.5,-239.828 1898.5,-239.828"/>
</g>
<!-- Node36 -->
<g id="node36" class="node"><title>Node36</title>
<polygon fill="none" stroke="#bfbfbf" points="1937.5,-210.5 1937.5,-229.5 1996.5,-229.5 1996.5,-210.5 1937.5,-210.5"/>
<text text-anchor="middle" x="1967" y="-217.5" font-family="Helvetica,sans-Serif" font-size="10.00">stdexcept</text>
</g>
<!-- Node33&#45;&gt;Node36 -->
<g id="edge46" class="edge"><title>Node33&#45;&gt;Node36</title>
<path fill="none" stroke="midnightblue" d="M1910.62,-272.679C1922.18,-262.082 1937.92,-247.655 1949.83,-236.736"/>
<polygon fill="midnightblue" stroke="midnightblue" points="1952.36,-239.166 1957.37,-229.828 1947.63,-234.006 1952.36,-239.166"/>
</g>
<!-- Node37 -->
<g id="node37" class="node"><title>Node37</title>
<polygon fill="none" stroke="#bfbfbf" points="2014.5,-210.5 2014.5,-229.5 2059.5,-229.5 2059.5,-210.5 2014.5,-210.5"/>
<text text-anchor="middle" x="2037" y="-217.5" font-family="Helvetica,sans-Serif" font-size="10.00">gsl/gsl</text>
</g>
<!-- Node33&#45;&gt;Node37 -->
<g id="edge47" class="edge"><title>Node33&#45;&gt;Node37</title>
<path fill="none" stroke="midnightblue" d="M1925.36,-272.964C1947.46,-262.739 1978.1,-248.541 2005,-236 2006.39,-235.352 2007.81,-234.687 2009.25,-234.016"/>
<polygon fill="midnightblue" stroke="midnightblue" points="2011.16,-236.989 2018.73,-229.58 2008.19,-230.649 2011.16,-236.989"/>
</g>
<!-- Node39 -->
<g id="node39" class="node"><title>Node39</title>
<g id="a_node39"><a xlink:href="../../d7/dcd/MCCompLabel_8h.html" target="_top" xlink:title="SimulationDataFormat\l/MCCompLabel.h">
<polygon fill="none" stroke="black" points="1658,-205 1658,-235 1772,-235 1772,-205 1658,-205"/>
<text text-anchor="start" x="1666" y="-223" font-family="Helvetica,sans-Serif" font-size="10.00">SimulationDataFormat</text>
<text text-anchor="middle" x="1715" y="-212" font-family="Helvetica,sans-Serif" font-size="10.00">/MCCompLabel.h</text>
</a>
</g>
</g>
<!-- Node38&#45;&gt;Node39 -->
<g id="edge50" class="edge"><title>Node38&#45;&gt;Node39</title>
<path fill="none" stroke="midnightblue" d="M1704.57,-278.372C1706.1,-269.971 1708.49,-256.811 1710.6,-245.213"/>
<polygon fill="midnightblue" stroke="midnightblue" points="1714.08,-245.646 1712.42,-235.181 1707.19,-244.394 1714.08,-245.646"/>
</g>
<!-- Node39&#45;&gt;Node3 -->
<g id="edge51" class="edge"><title>Node39&#45;&gt;Node3</title>
<path fill="none" stroke="midnightblue" d="M1772.15,-205.57C1775.14,-205.006 1778.1,-204.478 1781,-204 1935.63,-178.479 2234.66,-249.889 2127,-136 2096.74,-103.987 1427.55,-88.979 1259.18,-85.7018"/>
<polygon fill="midnightblue" stroke="midnightblue" points="1259.11,-82.2 1249.05,-85.5071 1258.98,-89.1987 1259.11,-82.2"/>
</g>
</g>
</svg>
