<?xml version="1.0" encoding="UTF-8" standalone="no"?>
<!DOCTYPE svg PUBLIC "-//W3C//DTD SVG 1.1//EN"
 "http://www.w3.org/Graphics/SVG/1.1/DTD/svg11.dtd">
<!-- Generated by graphviz version 2.36.0 (20140111.2315)
 -->
<!-- Title: /home/travis/build/AliceO2Group/AliceO2/Framework/Core/include/Framework/DataProcessingHeader.h Pages: 1 -->
<svg width="335pt" height="174pt"
 viewBox="0.00 0.00 335.00 174.00" xmlns="http://www.w3.org/2000/svg" xmlns:xlink="http://www.w3.org/1999/xlink">
<g id="graph0" class="graph" transform="scale(1 1) rotate(0) translate(4 170)">
<title>/home/travis/build/AliceO2Group/AliceO2/Framework/Core/include/Framework/DataProcessingHeader.h</title>
<!-- Node1 -->
<g id="node1" class="node"><title>Node1</title>
<polygon fill="#bfbfbf" stroke="black" points="78.5,-113 78.5,-165 259.5,-165 259.5,-113 78.5,-113"/>
<text text-anchor="start" x="86.5" y="-153" font-family="Helvetica,sans-Serif" font-size="10.00">/home/travis/build</text>
<text text-anchor="start" x="86.5" y="-142" font-family="Helvetica,sans-Serif" font-size="10.00">/AliceO2Group/AliceO2</text>
<text text-anchor="start" x="86.5" y="-131" font-family="Helvetica,sans-Serif" font-size="10.00">/Framework/Core/include</text>
<text text-anchor="middle" x="169" y="-120" font-family="Helvetica,sans-Serif" font-size="10.00">/Framework/DataProcessingHeader.h</text>
</g>
<!-- Node2 -->
<g id="node2" class="node"><title>Node2</title>
<g id="a_node2"><a xlink:href="../../dc/dcd/DataHeader_8h.html" target="_top" xlink:title="Headers/DataHeader.h">
<polygon fill="none" stroke="black" points="110.5,-56.5 110.5,-75.5 227.5,-75.5 227.5,-56.5 110.5,-56.5"/>
<text text-anchor="middle" x="169" y="-63.5" font-family="Helvetica,sans-Serif" font-size="10.00">Headers/DataHeader.h</text>
</a>
</g>
</g>
<!-- Node1&#45;&gt;Node2 -->
<g id="edge1" class="edge"><title>Node1&#45;&gt;Node2</title>
<path fill="none" stroke="midnightblue" d="M169,-112.768C169,-103.89 169,-94.0737 169,-85.8165"/>
<polygon fill="midnightblue" stroke="midnightblue" points="172.5,-85.7571 169,-75.7572 165.5,-85.7572 172.5,-85.7571"/>
</g>
<!-- Node3 -->
<g id="node3" class="node"><title>Node3</title>
<polygon fill="none" stroke="#bfbfbf" points="0,-0.5 0,-19.5 46,-19.5 46,-0.5 0,-0.5"/>
<text text-anchor="middle" x="23" y="-7.5" font-family="Helvetica,sans-Serif" font-size="10.00">cstdint</text>
</g>
<!-- Node1&#45;&gt;Node3 -->
<g id="edge7" class="edge"><title>Node1&#45;&gt;Node3</title>
<path fill="none" stroke="midnightblue" d="M135.821,-112.708C121.758,-101.713 105.34,-88.5073 91,-76 72.4805,-59.8478 52.2392,-40.2274 38.6982,-26.796"/>
<polygon fill="midnightblue" stroke="midnightblue" points="41.1141,-24.2622 31.5634,-19.6759 36.1695,-29.2171 41.1141,-24.2622"/>
</g>
<!-- Node4 -->
<g id="node4" class="node"><title>Node4</title>
<polygon fill="none" stroke="#bfbfbf" points="64,-0.5 64,-19.5 116,-19.5 116,-0.5 64,-0.5"/>
<text text-anchor="middle" x="90" y="-7.5" font-family="Helvetica,sans-Serif" font-size="10.00">memory</text>
</g>
<!-- Node1&#45;&gt;Node4 -->
<g id="edge9" class="edge"><title>Node1&#45;&gt;Node4</title>
<path fill="none" stroke="midnightblue" d="M132.903,-112.914C120.945,-102.802 108.73,-90.1637 101,-76 93.204,-61.7153 90.6747,-43.2467 89.9666,-29.6485"/>
<polygon fill="midnightblue" stroke="midnightblue" points="93.4638,-29.4834 89.7246,-19.5703 86.4658,-29.6515 93.4638,-29.4834"/>
</g>
<!-- Node5 -->
<g id="node5" class="node"><title>Node5</title>
<polygon fill="none" stroke="#bfbfbf" points="272.5,-0.5 272.5,-19.5 321.5,-19.5 321.5,-0.5 272.5,-0.5"/>
<text text-anchor="middle" x="297" y="-7.5" font-family="Helvetica,sans-Serif" font-size="10.00">cassert</text>
</g>
<!-- Node1&#45;&gt;Node5 -->
<g id="edge10" class="edge"><title>Node1&#45;&gt;Node5</title>
<path fill="none" stroke="midnightblue" d="M197.121,-112.79C209.263,-101.698 223.517,-88.3954 236,-76 252.369,-59.7453 270.357,-40.3821 282.529,-27.0415"/>
<polygon fill="midnightblue" stroke="midnightblue" points="285.159,-29.3515 289.29,-19.595 279.976,-24.6462 285.159,-29.3515"/>
</g>
<!-- Node8 -->
<g id="node8" class="node"><title>Node8</title>
<polygon fill="none" stroke="#bfbfbf" points="284.5,-56.5 284.5,-75.5 327.5,-75.5 327.5,-56.5 284.5,-56.5"/>
<text text-anchor="middle" x="306" y="-63.5" font-family="Helvetica,sans-Serif" font-size="10.00">cstdio</text>
</g>
<!-- Node1&#45;&gt;Node8 -->
<g id="edge8" class="edge"><title>Node1&#45;&gt;Node8</title>
<path fill="none" stroke="midnightblue" d="M217.301,-112.968C238.491,-101.986 262.513,-89.5369 280.209,-80.3662"/>
<polygon fill="midnightblue" stroke="midnightblue" points="282.063,-83.3477 289.331,-75.6389 278.842,-77.1327 282.063,-83.3477"/>
</g>
<!-- Node2&#45;&gt;Node3 -->
<g id="edge2" class="edge"><title>Node2&#45;&gt;Node3</title>
<path fill="none" stroke="midnightblue" d="M145.866,-56.4435C121.518,-47.4381 82.9929,-33.1891 55.577,-23.049"/>
<polygon fill="midnightblue" stroke="midnightblue" points="56.6191,-19.7028 46.0259,-19.5164 54.1908,-26.2681 56.6191,-19.7028"/>
</g>
<!-- Node2&#45;&gt;Node4 -->
<g id="edge3" class="edge"><title>Node2&#45;&gt;Node4</title>
<path fill="none" stroke="midnightblue" d="M156.307,-56.324C144.099,-47.979 125.422,-35.2122 110.997,-25.3524"/>
<polygon fill="midnightblue" stroke="midnightblue" points="112.892,-22.4082 102.661,-19.6545 108.942,-28.1871 112.892,-22.4082"/>
</g>
<!-- Node2&#45;&gt;Node5 -->
<g id="edge4" class="edge"><title>Node2&#45;&gt;Node5</title>
<path fill="none" stroke="midnightblue" d="M189.282,-56.4435C210.347,-47.5566 243.517,-33.5632 267.486,-23.4514"/>
<polygon fill="midnightblue" stroke="midnightblue" points="268.96,-26.6283 276.813,-19.5164 266.239,-20.1787 268.96,-26.6283"/>
</g>
<!-- Node6 -->
<g id="node6" class="node"><title>Node6</title>
<polygon fill="none" stroke="#bfbfbf" points="208,-0.5 208,-19.5 254,-19.5 254,-0.5 208,-0.5"/>
<text text-anchor="middle" x="231" y="-7.5" font-family="Helvetica,sans-Serif" font-size="10.00">cstring</text>
</g>
<!-- Node2&#45;&gt;Node6 -->
<g id="edge5" class="edge"><title>Node2&#45;&gt;Node6</title>
<path fill="none" stroke="midnightblue" d="M178.961,-56.324C188.127,-48.3414 201.937,-36.3128 213.028,-26.6529"/>
<polygon fill="midnightblue" stroke="midnightblue" points="215.615,-29.041 220.857,-19.8339 211.018,-23.7624 215.615,-29.041"/>
</g>
<!-- Node7 -->
<g id="node7" class="node"><title>Node7</title>
<polygon fill="none" stroke="#bfbfbf" points="134,-0.5 134,-19.5 190,-19.5 190,-0.5 134,-0.5"/>
<text text-anchor="middle" x="162" y="-7.5" font-family="Helvetica,sans-Serif" font-size="10.00">algorithm</text>
</g>
<!-- Node2&#45;&gt;Node7 -->
<g id="edge6" class="edge"><title>Node2&#45;&gt;Node7</title>
<path fill="none" stroke="midnightblue" d="M167.844,-56.083C166.916,-48.9272 165.582,-38.6353 164.423,-29.6911"/>
<polygon fill="midnightblue" stroke="midnightblue" points="167.891,-29.2181 163.134,-19.7511 160.949,-30.1181 167.891,-29.2181"/>
</g>
</g>
</svg>
