<?xml version="1.0" encoding="UTF-8" standalone="no"?>
<!DOCTYPE svg PUBLIC "-//W3C//DTD SVG 1.1//EN"
 "http://www.w3.org/Graphics/SVG/1.1/DTD/svg11.dtd">
<!-- Generated by graphviz version 2.36.0 (20140111.2315)
 -->
<!-- Title: /home/travis/build/AliceO2Group/AliceO2/Utilities/DataFlow/src/TimeframeValidatorDevice.cxx Pages: 1 -->
<svg width="892pt" height="298pt"
 viewBox="0.00 0.00 892.00 298.00" xmlns="http://www.w3.org/2000/svg" xmlns:xlink="http://www.w3.org/1999/xlink">
<g id="graph0" class="graph" transform="scale(1 1) rotate(0) translate(4 294)">
<title>/home/travis/build/AliceO2Group/AliceO2/Utilities/DataFlow/src/TimeframeValidatorDevice.cxx</title>
<!-- Node1 -->
<g id="node1" class="node"><title>Node1</title>
<polygon fill="#bfbfbf" stroke="black" points="365,-237 365,-289 519,-289 519,-237 365,-237"/>
<text text-anchor="start" x="373" y="-277" font-family="Helvetica,sans-Serif" font-size="10.00">/home/travis/build</text>
<text text-anchor="start" x="373" y="-266" font-family="Helvetica,sans-Serif" font-size="10.00">/AliceO2Group/AliceO2</text>
<text text-anchor="start" x="373" y="-255" font-family="Helvetica,sans-Serif" font-size="10.00">/Utilities/DataFlow/src</text>
<text text-anchor="middle" x="442" y="-244" font-family="Helvetica,sans-Serif" font-size="10.00">/TimeframeValidatorDevice.cxx</text>
</g>
<!-- Node2 -->
<g id="node2" class="node"><title>Node2</title>
<polygon fill="none" stroke="#bfbfbf" points="168,-174.5 168,-193.5 212,-193.5 212,-174.5 168,-174.5"/>
<text text-anchor="middle" x="190" y="-181.5" font-family="Helvetica,sans-Serif" font-size="10.00">thread</text>
</g>
<!-- Node1&#45;&gt;Node2 -->
<g id="edge1" class="edge"><title>Node1&#45;&gt;Node2</title>
<path fill="none" stroke="midnightblue" d="M364.849,-242.176C323.338,-230.929 271.47,-215.939 226,-200 223.596,-199.157 221.121,-198.238 218.648,-197.284"/>
<polygon fill="midnightblue" stroke="midnightblue" points="219.855,-193.997 209.272,-193.511 217.242,-200.491 219.855,-193.997"/>
</g>
<!-- Node3 -->
<g id="node3" class="node"><title>Node3</title>
<polygon fill="none" stroke="#bfbfbf" points="653,-56.5 653,-75.5 699,-75.5 699,-56.5 653,-56.5"/>
<text text-anchor="middle" x="676" y="-63.5" font-family="Helvetica,sans-Serif" font-size="10.00">chrono</text>
</g>
<!-- Node1&#45;&gt;Node3 -->
<g id="edge2" class="edge"><title>Node1&#45;&gt;Node3</title>
<path fill="none" stroke="midnightblue" d="M448.528,-236.807C458.89,-198.684 479.891,-128.975 499,-112 548.321,-68.1883 579.174,-92.6798 643,-76 643.101,-75.9737 643.201,-75.9474 643.302,-75.921"/>
<polygon fill="midnightblue" stroke="midnightblue" points="644.174,-79.3108 652.938,-73.3568 642.374,-72.5462 644.174,-79.3108"/>
</g>
<!-- Node4 -->
<g id="node4" class="node"><title>Node4</title>
<g id="a_node4"><a xlink:href="../../d3/da5/TimeframeValidatorDevice_8h.html" target="_top" xlink:title="DataFlow/TimeframeValidator\lDevice.h">
<polygon fill="none" stroke="black" points="268,-169 268,-199 414,-199 414,-169 268,-169"/>
<text text-anchor="start" x="276" y="-187" font-family="Helvetica,sans-Serif" font-size="10.00">DataFlow/TimeframeValidator</text>
<text text-anchor="middle" x="341" y="-176" font-family="Helvetica,sans-Serif" font-size="10.00">Device.h</text>
</a>
</g>
</g>
<!-- Node1&#45;&gt;Node4 -->
<g id="edge3" class="edge"><title>Node1&#45;&gt;Node4</title>
<path fill="none" stroke="midnightblue" d="M408.929,-236.787C395.56,-226.595 380.334,-214.987 367.69,-205.348"/>
<polygon fill="midnightblue" stroke="midnightblue" points="369.478,-202.31 359.404,-199.031 365.234,-207.877 369.478,-202.31"/>
</g>
<!-- Node7 -->
<g id="node7" class="node"><title>Node7</title>
<polygon fill="none" stroke="#bfbfbf" points="0,-56.5 0,-75.5 146,-75.5 146,-56.5 0,-56.5"/>
<text text-anchor="middle" x="73" y="-63.5" font-family="Helvetica,sans-Serif" font-size="10.00">options/FairMQProgOptions.h</text>
</g>
<!-- Node1&#45;&gt;Node7 -->
<g id="edge26" class="edge"><title>Node1&#45;&gt;Node7</title>
<path fill="none" stroke="midnightblue" d="M364.611,-242.53C330.979,-232.386 291.846,-218.239 259,-200 239.398,-189.115 237.923,-181.472 220,-168 176.671,-135.432 123.863,-100.177 94.8004,-81.1392"/>
<polygon fill="midnightblue" stroke="midnightblue" points="96.5279,-78.0872 86.2409,-75.5518 92.7015,-83.9489 96.5279,-78.0872"/>
</g>
<!-- Node8 -->
<g id="node8" class="node"><title>Node8</title>
<g id="a_node8"><a xlink:href="../../dc/dcd/DataHeader_8h.html" target="_top" xlink:title="Headers/DataHeader.h">
<polygon fill="none" stroke="black" points="517.5,-56.5 517.5,-75.5 634.5,-75.5 634.5,-56.5 517.5,-56.5"/>
<text text-anchor="middle" x="576" y="-63.5" font-family="Helvetica,sans-Serif" font-size="10.00">Headers/DataHeader.h</text>
</a>
</g>
</g>
<!-- Node1&#45;&gt;Node8 -->
<g id="edge25" class="edge"><title>Node1&#45;&gt;Node8</title>
<path fill="none" stroke="midnightblue" d="M439.032,-236.755C436.644,-204.328 437.483,-147.953 466,-112 478.943,-95.6815 498.783,-85.2355 518.067,-78.568"/>
<polygon fill="midnightblue" stroke="midnightblue" points="519.279,-81.8555 527.758,-75.502 517.168,-75.1815 519.279,-81.8555"/>
</g>
<!-- Node16 -->
<g id="node16" class="node"><title>Node16</title>
<g id="a_node16"><a xlink:href="../../de/dfa/TimeFrame_8h.html" target="_top" xlink:title="TimeFrame/TimeFrame.h">
<polygon fill="none" stroke="black" points="536.5,-174.5 536.5,-193.5 663.5,-193.5 663.5,-174.5 536.5,-174.5"/>
<text text-anchor="middle" x="600" y="-181.5" font-family="Helvetica,sans-Serif" font-size="10.00">TimeFrame/TimeFrame.h</text>
</a>
</g>
</g>
<!-- Node1&#45;&gt;Node16 -->
<g id="edge15" class="edge"><title>Node1&#45;&gt;Node16</title>
<path fill="none" stroke="midnightblue" d="M493.735,-236.787C520.271,-223.855 551.484,-208.644 573.188,-198.067"/>
<polygon fill="midnightblue" stroke="midnightblue" points="574.984,-201.085 582.44,-193.558 571.917,-194.792 574.984,-201.085"/>
</g>
<!-- Node21 -->
<g id="node21" class="node"><title>Node21</title>
<g id="a_node21"><a xlink:href="../../d2/d1b/SubframeMetadata_8h.html" target="_top" xlink:title="Headers/SubframeMetadata.h">
<polygon fill="none" stroke="black" points="736.5,-174.5 736.5,-193.5 883.5,-193.5 883.5,-174.5 736.5,-174.5"/>
<text text-anchor="middle" x="810" y="-181.5" font-family="Helvetica,sans-Serif" font-size="10.00">Headers/SubframeMetadata.h</text>
</a>
</g>
</g>
<!-- Node1&#45;&gt;Node21 -->
<g id="edge23" class="edge"><title>Node1&#45;&gt;Node21</title>
<path fill="none" stroke="midnightblue" d="M519.145,-245.858C591.217,-230.778 696.762,-208.694 758.917,-195.689"/>
<polygon fill="midnightblue" stroke="midnightblue" points="759.809,-199.078 768.88,-193.604 758.376,-192.226 759.809,-199.078"/>
</g>
<!-- Node5 -->
<g id="node5" class="node"><title>Node5</title>
<g id="a_node5"><a xlink:href="../../d2/dee/O2Device_8h.html" target="_top" xlink:title="O2Device/O2Device.h">
<polygon fill="none" stroke="black" points="290.5,-112.5 290.5,-131.5 405.5,-131.5 405.5,-112.5 290.5,-112.5"/>
<text text-anchor="middle" x="348" y="-119.5" font-family="Helvetica,sans-Serif" font-size="10.00">O2Device/O2Device.h</text>
</a>
</g>
</g>
<!-- Node4&#45;&gt;Node5 -->
<g id="edge4" class="edge"><title>Node4&#45;&gt;Node5</title>
<path fill="none" stroke="midnightblue" d="M342.659,-168.781C343.603,-160.691 344.796,-150.462 345.815,-141.725"/>
<polygon fill="midnightblue" stroke="midnightblue" points="349.299,-142.069 346.981,-131.731 342.346,-141.258 349.299,-142.069"/>
</g>
<!-- Node6 -->
<g id="node6" class="node"><title>Node6</title>
<polygon fill="none" stroke="#bfbfbf" points="411,-56.5 411,-75.5 499,-75.5 499,-56.5 411,-56.5"/>
<text text-anchor="middle" x="455" y="-63.5" font-family="Helvetica,sans-Serif" font-size="10.00">FairMQDevice.h</text>
</g>
<!-- Node5&#45;&gt;Node6 -->
<g id="edge5" class="edge"><title>Node5&#45;&gt;Node6</title>
<path fill="none" stroke="midnightblue" d="M365.191,-112.324C382.351,-103.664 408.946,-90.2424 428.747,-80.249"/>
<polygon fill="midnightblue" stroke="midnightblue" points="430.501,-83.2847 437.851,-75.6545 427.347,-77.0354 430.501,-83.2847"/>
</g>
<!-- Node5&#45;&gt;Node7 -->
<g id="edge6" class="edge"><title>Node5&#45;&gt;Node7</title>
<path fill="none" stroke="midnightblue" d="M304.425,-112.444C256.151,-102.964 178.288,-87.6747 126.388,-77.4835"/>
<polygon fill="midnightblue" stroke="midnightblue" points="126.858,-74.0089 116.371,-75.5164 125.509,-80.8778 126.858,-74.0089"/>
</g>
<!-- Node5&#45;&gt;Node8 -->
<g id="edge7" class="edge"><title>Node5&#45;&gt;Node8</title>
<path fill="none" stroke="midnightblue" d="M384.127,-112.444C423.651,-103.083 487.097,-88.0561 530.113,-77.868"/>
<polygon fill="midnightblue" stroke="midnightblue" points="531.118,-81.2269 540.042,-75.5164 529.504,-74.4154 531.118,-81.2269"/>
</g>
<!-- Node14 -->
<g id="node14" class="node"><title>Node14</title>
<polygon fill="none" stroke="#bfbfbf" points="164.5,-56.5 164.5,-75.5 315.5,-75.5 315.5,-56.5 164.5,-56.5"/>
<text text-anchor="middle" x="240" y="-63.5" font-family="Helvetica,sans-Serif" font-size="10.00">Monitoring/MonitoringFactory.h</text>
</g>
<!-- Node5&#45;&gt;Node14 -->
<g id="edge13" class="edge"><title>Node5&#45;&gt;Node14</title>
<path fill="none" stroke="midnightblue" d="M330.648,-112.324C313.328,-103.664 286.485,-90.2424 266.498,-80.249"/>
<polygon fill="midnightblue" stroke="midnightblue" points="267.819,-76.9962 257.309,-75.6545 264.688,-83.2572 267.819,-76.9962"/>
</g>
<!-- Node15 -->
<g id="node15" class="node"><title>Node15</title>
<polygon fill="none" stroke="#bfbfbf" points="333.5,-56.5 333.5,-75.5 392.5,-75.5 392.5,-56.5 333.5,-56.5"/>
<text text-anchor="middle" x="363" y="-63.5" font-family="Helvetica,sans-Serif" font-size="10.00">stdexcept</text>
</g>
<!-- Node5&#45;&gt;Node15 -->
<g id="edge14" class="edge"><title>Node5&#45;&gt;Node15</title>
<path fill="none" stroke="midnightblue" d="M350.477,-112.083C352.486,-104.849 355.386,-94.4087 357.89,-85.3968"/>
<polygon fill="midnightblue" stroke="midnightblue" points="361.265,-86.323 360.569,-75.7511 354.52,-84.4495 361.265,-86.323"/>
</g>
<!-- Node9 -->
<g id="node9" class="node"><title>Node9</title>
<polygon fill="none" stroke="#bfbfbf" points="491,-0.5 491,-19.5 537,-19.5 537,-0.5 491,-0.5"/>
<text text-anchor="middle" x="514" y="-7.5" font-family="Helvetica,sans-Serif" font-size="10.00">cstdint</text>
</g>
<!-- Node8&#45;&gt;Node9 -->
<g id="edge8" class="edge"><title>Node8&#45;&gt;Node9</title>
<path fill="none" stroke="midnightblue" d="M566.039,-56.324C556.873,-48.3414 543.063,-36.3128 531.972,-26.6529"/>
<polygon fill="midnightblue" stroke="midnightblue" points="533.982,-23.7624 524.143,-19.8339 529.385,-29.041 533.982,-23.7624"/>
</g>
<!-- Node10 -->
<g id="node10" class="node"><title>Node10</title>
<polygon fill="none" stroke="#bfbfbf" points="555,-0.5 555,-19.5 607,-19.5 607,-0.5 555,-0.5"/>
<text text-anchor="middle" x="581" y="-7.5" font-family="Helvetica,sans-Serif" font-size="10.00">memory</text>
</g>
<!-- Node8&#45;&gt;Node10 -->
<g id="edge9" class="edge"><title>Node8&#45;&gt;Node10</title>
<path fill="none" stroke="midnightblue" d="M576.826,-56.083C577.481,-49.0059 578.42,-38.8611 579.242,-29.9865"/>
<polygon fill="midnightblue" stroke="midnightblue" points="582.753,-30.0312 580.19,-19.7511 575.783,-29.3858 582.753,-30.0312"/>
</g>
<!-- Node11 -->
<g id="node11" class="node"><title>Node11</title>
<polygon fill="none" stroke="#bfbfbf" points="693.5,-0.5 693.5,-19.5 742.5,-19.5 742.5,-0.5 693.5,-0.5"/>
<text text-anchor="middle" x="718" y="-7.5" font-family="Helvetica,sans-Serif" font-size="10.00">cassert</text>
</g>
<!-- Node8&#45;&gt;Node11 -->
<g id="edge10" class="edge"><title>Node8&#45;&gt;Node11</title>
<path fill="none" stroke="midnightblue" d="M598.5,-56.4435C622.077,-47.4776 659.322,-33.314 685.964,-23.1827"/>
<polygon fill="midnightblue" stroke="midnightblue" points="687.502,-26.3424 695.605,-19.5164 685.014,-19.7995 687.502,-26.3424"/>
</g>
<!-- Node12 -->
<g id="node12" class="node"><title>Node12</title>
<polygon fill="none" stroke="#bfbfbf" points="625,-0.5 625,-19.5 671,-19.5 671,-0.5 625,-0.5"/>
<text text-anchor="middle" x="648" y="-7.5" font-family="Helvetica,sans-Serif" font-size="10.00">cstring</text>
</g>
<!-- Node8&#45;&gt;Node12 -->
<g id="edge11" class="edge"><title>Node8&#45;&gt;Node12</title>
<path fill="none" stroke="midnightblue" d="M587.568,-56.324C598.42,-48.1849 614.881,-35.8395 627.883,-26.0874"/>
<polygon fill="midnightblue" stroke="midnightblue" points="630.321,-28.6339 636.221,-19.8339 626.121,-23.0339 630.321,-28.6339"/>
</g>
<!-- Node13 -->
<g id="node13" class="node"><title>Node13</title>
<polygon fill="none" stroke="#bfbfbf" points="417,-0.5 417,-19.5 473,-19.5 473,-0.5 417,-0.5"/>
<text text-anchor="middle" x="445" y="-7.5" font-family="Helvetica,sans-Serif" font-size="10.00">algorithm</text>
</g>
<!-- Node8&#45;&gt;Node13 -->
<g id="edge12" class="edge"><title>Node8&#45;&gt;Node13</title>
<path fill="none" stroke="midnightblue" d="M555.243,-56.4435C533.684,-47.5566 499.737,-33.5632 475.206,-23.4514"/>
<polygon fill="midnightblue" stroke="midnightblue" points="476.239,-20.0917 465.66,-19.5164 473.572,-26.5634 476.239,-20.0917"/>
</g>
<!-- Node17 -->
<g id="node17" class="node"><title>Node17</title>
<polygon fill="none" stroke="#bfbfbf" points="508,-112.5 508,-131.5 588,-131.5 588,-112.5 508,-112.5"/>
<text text-anchor="middle" x="548" y="-119.5" font-family="Helvetica,sans-Serif" font-size="10.00">FairMQParts.h</text>
</g>
<!-- Node16&#45;&gt;Node17 -->
<g id="edge16" class="edge"><title>Node16&#45;&gt;Node17</title>
<path fill="none" stroke="midnightblue" d="M592.55,-174.403C584.672,-165.314 572.055,-150.756 562.256,-139.449"/>
<polygon fill="midnightblue" stroke="midnightblue" points="564.631,-136.845 555.437,-131.581 559.341,-141.43 564.631,-136.845"/>
</g>
<!-- Node18 -->
<g id="node18" class="node"><title>Node18</title>
<polygon fill="none" stroke="#bfbfbf" points="606.5,-112.5 606.5,-131.5 665.5,-131.5 665.5,-112.5 606.5,-112.5"/>
<text text-anchor="middle" x="636" y="-119.5" font-family="Helvetica,sans-Serif" font-size="10.00">TObject.h</text>
</g>
<!-- Node16&#45;&gt;Node18 -->
<g id="edge17" class="edge"><title>Node16&#45;&gt;Node18</title>
<path fill="none" stroke="midnightblue" d="M605.158,-174.403C610.451,-165.582 618.835,-151.608 625.527,-140.455"/>
<polygon fill="midnightblue" stroke="midnightblue" points="628.708,-141.956 630.852,-131.581 622.705,-138.355 628.708,-141.956"/>
</g>
<!-- Node19 -->
<g id="node19" class="node"><title>Node19</title>
<g id="a_node19"><a xlink:href="../../d6/d90/Headers_2include_2Headers_2TimeStamp_8h.html" target="_top" xlink:title="Headers/TimeStamp.h">
<polygon fill="none" stroke="black" points="683.5,-112.5 683.5,-131.5 798.5,-131.5 798.5,-112.5 683.5,-112.5"/>
<text text-anchor="middle" x="741" y="-119.5" font-family="Helvetica,sans-Serif" font-size="10.00">Headers/TimeStamp.h</text>
</a>
</g>
</g>
<!-- Node16&#45;&gt;Node19 -->
<g id="edge18" class="edge"><title>Node16&#45;&gt;Node19</title>
<path fill="none" stroke="midnightblue" d="M620.202,-174.403C644.074,-164.245 684.002,-147.255 711.373,-135.607"/>
<polygon fill="midnightblue" stroke="midnightblue" points="713.005,-138.717 720.836,-131.581 710.264,-132.276 713.005,-138.717"/>
</g>
<!-- Node19&#45;&gt;Node3 -->
<g id="edge20" class="edge"><title>Node19&#45;&gt;Node3</title>
<path fill="none" stroke="midnightblue" d="M730.557,-112.324C720.854,-104.263 706.185,-92.0765 694.5,-82.3695"/>
<polygon fill="midnightblue" stroke="midnightblue" points="696.562,-79.532 686.633,-75.8339 692.089,-84.9163 696.562,-79.532"/>
</g>
<!-- Node19&#45;&gt;Node8 -->
<g id="edge19" class="edge"><title>Node19&#45;&gt;Node8</title>
<path fill="none" stroke="midnightblue" d="M714.855,-112.444C686.977,-103.32 642.652,-88.8133 611.6,-78.6509"/>
<polygon fill="midnightblue" stroke="midnightblue" points="612.615,-75.3005 602.022,-75.5164 610.438,-81.9533 612.615,-75.3005"/>
</g>
<!-- Node19&#45;&gt;Node11 -->
<g id="edge21" class="edge"><title>Node19&#45;&gt;Node11</title>
<path fill="none" stroke="midnightblue" d="M739.195,-112.368C735.484,-94.617 726.921,-53.6664 721.889,-29.5974"/>
<polygon fill="midnightblue" stroke="midnightblue" points="725.269,-28.6634 719.796,-19.5914 718.417,-30.0961 725.269,-28.6634"/>
</g>
<!-- Node20 -->
<g id="node20" class="node"><title>Node20</title>
<polygon fill="none" stroke="#bfbfbf" points="755,-56.5 755,-75.5 817,-75.5 817,-56.5 755,-56.5"/>
<text text-anchor="middle" x="786" y="-63.5" font-family="Helvetica,sans-Serif" font-size="10.00">type_traits</text>
</g>
<!-- Node19&#45;&gt;Node20 -->
<g id="edge22" class="edge"><title>Node19&#45;&gt;Node20</title>
<path fill="none" stroke="midnightblue" d="M748.431,-112.083C754.853,-104.377 764.306,-93.0333 772.122,-83.6531"/>
<polygon fill="midnightblue" stroke="midnightblue" points="774.994,-85.674 778.707,-75.7511 769.617,-81.1927 774.994,-85.674"/>
</g>
<!-- Node22 -->
<g id="node22" class="node"><title>Node22</title>
<polygon fill="none" stroke="#bfbfbf" points="816,-112.5 816,-131.5 860,-131.5 860,-112.5 816,-112.5"/>
<text text-anchor="middle" x="838" y="-119.5" font-family="Helvetica,sans-Serif" font-size="10.00">vector</text>
</g>
<!-- Node21&#45;&gt;Node22 -->
<g id="edge24" class="edge"><title>Node21&#45;&gt;Node22</title>
<path fill="none" stroke="midnightblue" d="M814.012,-174.403C818.087,-165.671 824.518,-151.889 829.696,-140.794"/>
<polygon fill="midnightblue" stroke="midnightblue" points="832.938,-142.123 833.996,-131.581 826.595,-139.162 832.938,-142.123"/>
</g>
</g>
</svg>
