<?xml version="1.0" encoding="UTF-8" standalone="no"?>
<!DOCTYPE svg PUBLIC "-//W3C//DTD SVG 1.1//EN"
 "http://www.w3.org/Graphics/SVG/1.1/DTD/svg11.dtd">
<!-- Generated by graphviz version 2.36.0 (20140111.2315)
 -->
<!-- Title: /home/travis/build/AliceO2Group/AliceO2/Detectors/gconfig/src/G3Config.cxx Pages: 1 -->
<svg width="1661pt" height="378pt"
 viewBox="0.00 0.00 1661.00 378.00" xmlns="http://www.w3.org/2000/svg" xmlns:xlink="http://www.w3.org/1999/xlink">
<g id="graph0" class="graph" transform="scale(1 1) rotate(0) translate(4 374)">
<title>/home/travis/build/AliceO2Group/AliceO2/Detectors/gconfig/src/G3Config.cxx</title>
<!-- Node1 -->
<g id="node1" class="node"><title>Node1</title>
<polygon fill="#bfbfbf" stroke="black" points="956,-317 956,-369 1074,-369 1074,-317 956,-317"/>
<text text-anchor="start" x="964" y="-357" font-family="Helvetica,sans-Serif" font-size="10.00">/home/travis/build</text>
<text text-anchor="start" x="964" y="-346" font-family="Helvetica,sans-Serif" font-size="10.00">/AliceO2Group/AliceO2</text>
<text text-anchor="start" x="964" y="-335" font-family="Helvetica,sans-Serif" font-size="10.00">/Detectors/gconfig/src</text>
<text text-anchor="middle" x="1015" y="-324" font-family="Helvetica,sans-Serif" font-size="10.00">/G3Config.cxx</text>
</g>
<!-- Node2 -->
<g id="node2" class="node"><title>Node2</title>
<polygon fill="none" stroke="#bfbfbf" points="395.5,-254.5 395.5,-273.5 472.5,-273.5 472.5,-254.5 395.5,-254.5"/>
<text text-anchor="middle" x="434" y="-261.5" font-family="Helvetica,sans-Serif" font-size="10.00">FairRunSim.h</text>
</g>
<!-- Node1&#45;&gt;Node2 -->
<g id="edge1" class="edge"><title>Node1&#45;&gt;Node2</title>
<path fill="none" stroke="midnightblue" d="M955.657,-338.731C856.608,-332.466 651.72,-316.058 482,-280 477.458,-279.035 472.731,-277.823 468.092,-276.51"/>
<polygon fill="midnightblue" stroke="midnightblue" points="468.769,-273.058 458.185,-273.525 466.75,-279.761 468.769,-273.058"/>
</g>
<!-- Node3 -->
<g id="node3" class="node"><title>Node3</title>
<polygon fill="none" stroke="#bfbfbf" points="491,-254.5 491,-273.5 553,-273.5 553,-254.5 491,-254.5"/>
<text text-anchor="middle" x="522" y="-261.5" font-family="Helvetica,sans-Serif" font-size="10.00">TGeant3.h</text>
</g>
<!-- Node1&#45;&gt;Node3 -->
<g id="edge2" class="edge"><title>Node1&#45;&gt;Node3</title>
<path fill="none" stroke="midnightblue" d="M955.922,-338.13C868.675,-331.472 700.724,-315.038 562,-280 558.589,-279.138 555.068,-278.081 551.596,-276.93"/>
<polygon fill="midnightblue" stroke="midnightblue" points="552.665,-273.595 542.07,-273.523 550.307,-280.186 552.665,-273.595"/>
</g>
<!-- Node4 -->
<g id="node4" class="node"><title>Node4</title>
<polygon fill="none" stroke="#bfbfbf" points="571,-254.5 571,-273.5 657,-273.5 657,-254.5 571,-254.5"/>
<text text-anchor="middle" x="614" y="-261.5" font-family="Helvetica,sans-Serif" font-size="10.00">TGeant3TGeo.h</text>
</g>
<!-- Node1&#45;&gt;Node4 -->
<g id="edge3" class="edge"><title>Node1&#45;&gt;Node4</title>
<path fill="none" stroke="midnightblue" d="M955.954,-333.448C886.242,-322.905 767.002,-303.471 666,-280 661.272,-278.901 656.335,-277.635 651.466,-276.314"/>
<polygon fill="midnightblue" stroke="midnightblue" points="652.229,-272.893 641.655,-273.561 650.337,-279.633 652.229,-272.893"/>
</g>
<!-- Node5 -->
<g id="node5" class="node"><title>Node5</title>
<g id="a_node5"><a xlink:href="../../dc/db6/Stack_8h.html" target="_top" xlink:title="Definition of the Stack class. ">
<polygon fill="none" stroke="black" points="675,-249 675,-279 789,-279 789,-249 675,-249"/>
<text text-anchor="start" x="683" y="-267" font-family="Helvetica,sans-Serif" font-size="10.00">SimulationDataFormat</text>
<text text-anchor="middle" x="732" y="-256" font-family="Helvetica,sans-Serif" font-size="10.00">/Stack.h</text>
</a>
</g>
</g>
<!-- Node1&#45;&gt;Node5 -->
<g id="edge4" class="edge"><title>Node1&#45;&gt;Node5</title>
<path fill="none" stroke="midnightblue" d="M955.674,-325.858C908.061,-312.904 841.453,-294.78 793.32,-281.684"/>
<polygon fill="midnightblue" stroke="midnightblue" points="794.215,-278.301 783.647,-279.052 792.377,-285.055 794.215,-278.301"/>
</g>
<!-- Node36 -->
<g id="node36" class="node"><title>Node36</title>
<polygon fill="none" stroke="#bfbfbf" points="907,-254.5 907,-273.5 961,-273.5 961,-254.5 907,-254.5"/>
<text text-anchor="middle" x="934" y="-261.5" font-family="Helvetica,sans-Serif" font-size="10.00">iostream</text>
</g>
<!-- Node1&#45;&gt;Node36 -->
<g id="edge44" class="edge"><title>Node1&#45;&gt;Node36</title>
<path fill="none" stroke="midnightblue" d="M988.478,-316.787C975.977,-304.904 961.451,-291.096 950.544,-280.727"/>
<polygon fill="midnightblue" stroke="midnightblue" points="952.662,-277.911 943.002,-273.558 947.839,-282.984 952.662,-277.911"/>
</g>
<!-- Node37 -->
<g id="node37" class="node"><title>Node37</title>
<polygon fill="none" stroke="#bfbfbf" points="979.5,-254.5 979.5,-273.5 1050.5,-273.5 1050.5,-254.5 979.5,-254.5"/>
<text text-anchor="middle" x="1015" y="-261.5" font-family="Helvetica,sans-Serif" font-size="10.00">FairLogger.h</text>
</g>
<!-- Node1&#45;&gt;Node37 -->
<g id="edge45" class="edge"><title>Node1&#45;&gt;Node37</title>
<path fill="none" stroke="midnightblue" d="M1015,-316.787C1015,-306.069 1015,-293.785 1015,-283.871"/>
<polygon fill="midnightblue" stroke="midnightblue" points="1018.5,-283.558 1015,-273.558 1011.5,-283.558 1018.5,-283.558"/>
</g>
<!-- Node38 -->
<g id="node38" class="node"><title>Node38</title>
<polygon fill="none" stroke="#bfbfbf" points="1068.5,-254.5 1068.5,-273.5 1141.5,-273.5 1141.5,-254.5 1068.5,-254.5"/>
<text text-anchor="middle" x="1105" y="-261.5" font-family="Helvetica,sans-Serif" font-size="10.00">FairModule.h</text>
</g>
<!-- Node1&#45;&gt;Node38 -->
<g id="edge46" class="edge"><title>Node1&#45;&gt;Node38</title>
<path fill="none" stroke="midnightblue" d="M1044.47,-316.787C1058.63,-304.671 1075.13,-290.553 1087.33,-280.121"/>
<polygon fill="midnightblue" stroke="midnightblue" points="1089.67,-282.718 1095,-273.558 1085.12,-277.399 1089.67,-282.718"/>
</g>
<!-- Node39 -->
<g id="node39" class="node"><title>Node39</title>
<g id="a_node39"><a xlink:href="../../d9/d6d/Cave_8h.html" target="_top" xlink:title="DetectorsPassive/Cave.h">
<polygon fill="none" stroke="black" points="1209.5,-254.5 1209.5,-273.5 1338.5,-273.5 1338.5,-254.5 1209.5,-254.5"/>
<text text-anchor="middle" x="1274" y="-261.5" font-family="Helvetica,sans-Serif" font-size="10.00">DetectorsPassive/Cave.h</text>
</a>
</g>
</g>
<!-- Node1&#45;&gt;Node39 -->
<g id="edge47" class="edge"><title>Node1&#45;&gt;Node39</title>
<path fill="none" stroke="midnightblue" d="M1074.1,-324.431C1123.58,-309.72 1192.76,-289.151 1235.41,-276.473"/>
<polygon fill="midnightblue" stroke="midnightblue" points="1236.54,-279.788 1245.13,-273.583 1234.55,-273.078 1236.54,-279.788"/>
</g>
<!-- Node43 -->
<g id="node43" class="node"><title>Node43</title>
<g id="a_node43"><a xlink:href="../../df/d35/SimSetup_8h.html" target="_top" xlink:title="SimSetup/SimSetup.h">
<polygon fill="none" stroke="black" points="1356.5,-254.5 1356.5,-273.5 1469.5,-273.5 1469.5,-254.5 1356.5,-254.5"/>
<text text-anchor="middle" x="1413" y="-261.5" font-family="Helvetica,sans-Serif" font-size="10.00">SimSetup/SimSetup.h</text>
</a>
</g>
</g>
<!-- Node1&#45;&gt;Node43 -->
<g id="edge52" class="edge"><title>Node1&#45;&gt;Node43</title>
<path fill="none" stroke="midnightblue" d="M1074.21,-331.659C1140.72,-319.876 1251.83,-299.694 1347,-280 1353.34,-278.687 1360.01,-277.245 1366.58,-275.789"/>
<polygon fill="midnightblue" stroke="midnightblue" points="1367.75,-279.112 1376.74,-273.506 1366.22,-272.282 1367.75,-279.112"/>
</g>
<!-- Node44 -->
<g id="node44" class="node"><title>Node44</title>
<g id="a_node44"><a xlink:href="../../d7/d91/g3Config_8C.html" target="_top" xlink:title="../g3Config.C">
<polygon fill="none" stroke="black" points="1487.5,-254.5 1487.5,-273.5 1562.5,-273.5 1562.5,-254.5 1487.5,-254.5"/>
<text text-anchor="middle" x="1525" y="-261.5" font-family="Helvetica,sans-Serif" font-size="10.00">../g3Config.C</text>
</a>
</g>
</g>
<!-- Node1&#45;&gt;Node44 -->
<g id="edge53" class="edge"><title>Node1&#45;&gt;Node44</title>
<path fill="none" stroke="midnightblue" d="M1074.06,-337.44C1162.63,-329.849 1334.78,-312.181 1478,-280 1482.23,-279.049 1486.63,-277.888 1490.96,-276.637"/>
<polygon fill="midnightblue" stroke="midnightblue" points="1492.29,-279.887 1500.83,-273.61 1490.24,-273.194 1492.29,-279.887"/>
</g>
<!-- Node46 -->
<g id="node46" class="node"><title>Node46</title>
<g id="a_node46"><a xlink:href="../../d7/d21/SetCuts_8C.html" target="_top" xlink:title="../SetCuts.C">
<polygon fill="none" stroke="black" points="1581,-254.5 1581,-273.5 1653,-273.5 1653,-254.5 1581,-254.5"/>
<text text-anchor="middle" x="1617" y="-261.5" font-family="Helvetica,sans-Serif" font-size="10.00">../SetCuts.C</text>
</a>
</g>
</g>
<!-- Node1&#45;&gt;Node46 -->
<g id="edge55" class="edge"><title>Node1&#45;&gt;Node46</title>
<path fill="none" stroke="midnightblue" d="M1074.07,-339.376C1176.34,-333.956 1392.53,-318.624 1571,-280 1575.25,-279.081 1579.66,-277.92 1583.99,-276.653"/>
<polygon fill="midnightblue" stroke="midnightblue" points="1585.35,-279.895 1593.85,-273.568 1583.26,-273.214 1585.35,-279.895"/>
</g>
<!-- Node6 -->
<g id="node6" class="node"><title>Node6</title>
<g id="a_node6"><a xlink:href="../../d6/d31/DetID_8h.html" target="_top" xlink:title="DetectorsCommonDataFormats\l/DetID.h">
<polygon fill="none" stroke="black" points="360,-113 360,-143 516,-143 516,-113 360,-113"/>
<text text-anchor="start" x="368" y="-131" font-family="Helvetica,sans-Serif" font-size="10.00">DetectorsCommonDataFormats</text>
<text text-anchor="middle" x="438" y="-120" font-family="Helvetica,sans-Serif" font-size="10.00">/DetID.h</text>
</a>
</g>
</g>
<!-- Node5&#45;&gt;Node6 -->
<g id="edge5" class="edge"><title>Node5&#45;&gt;Node6</title>
<path fill="none" stroke="midnightblue" d="M715.496,-248.982C687.722,-225.399 634.584,-180.303 634,-180 600.765,-162.755 561.266,-151.033 526.464,-143.222"/>
<polygon fill="midnightblue" stroke="midnightblue" points="526.82,-139.718 516.306,-141.021 525.338,-146.559 526.82,-139.718"/>
</g>
<!-- Node7 -->
<g id="node7" class="node"><title>Node7</title>
<polygon fill="none" stroke="#bfbfbf" points="638,-56.5 638,-75.5 694,-75.5 694,-56.5 638,-56.5"/>
<text text-anchor="middle" x="666" y="-63.5" font-family="Helvetica,sans-Serif" font-size="10.00">Rtypes.h</text>
</g>
<!-- Node5&#45;&gt;Node7 -->
<g id="edge38" class="edge"><title>Node5&#45;&gt;Node7</title>
<path fill="none" stroke="midnightblue" d="M754.387,-248.782C777.742,-232.156 808.674,-203.87 791,-180 758.372,-135.933 707.591,-186.543 673,-144 659.801,-127.767 660.079,-102.759 662.317,-85.6775"/>
<polygon fill="midnightblue" stroke="midnightblue" points="665.777,-86.2049 663.948,-75.7691 658.87,-85.0678 665.777,-86.2049"/>
</g>
<!-- Node16 -->
<g id="node16" class="node"><title>Node16</title>
<polygon fill="none" stroke="#bfbfbf" points="681.5,-186.5 681.5,-205.5 782.5,-205.5 782.5,-186.5 681.5,-186.5"/>
<text text-anchor="middle" x="732" y="-193.5" font-family="Helvetica,sans-Serif" font-size="10.00">FairGenericStack.h</text>
</g>
<!-- Node5&#45;&gt;Node16 -->
<g id="edge16" class="edge"><title>Node5&#45;&gt;Node16</title>
<path fill="none" stroke="midnightblue" d="M732,-248.679C732,-239.101 732,-226.394 732,-215.977"/>
<polygon fill="midnightblue" stroke="midnightblue" points="735.5,-215.828 732,-205.828 728.5,-215.828 735.5,-215.828"/>
</g>
<!-- Node17 -->
<g id="node17" class="node"><title>Node17</title>
<g id="a_node17"><a xlink:href="../../d2/de2/MCTrack_8h.html" target="_top" xlink:title="Definition of the MCTrack class. ">
<polygon fill="none" stroke="black" points="849,-181 849,-211 963,-211 963,-181 849,-181"/>
<text text-anchor="start" x="857" y="-199" font-family="Helvetica,sans-Serif" font-size="10.00">SimulationDataFormat</text>
<text text-anchor="middle" x="906" y="-188" font-family="Helvetica,sans-Serif" font-size="10.00">/MCTrack.h</text>
</a>
</g>
</g>
<!-- Node5&#45;&gt;Node17 -->
<g id="edge17" class="edge"><title>Node5&#45;&gt;Node17</title>
<path fill="none" stroke="midnightblue" d="M769.327,-248.841C795.678,-238.846 831.172,-225.383 859.385,-214.682"/>
<polygon fill="midnightblue" stroke="midnightblue" points="860.925,-217.841 869.033,-211.022 858.442,-211.296 860.925,-217.841"/>
</g>
<!-- Node22 -->
<g id="node22" class="node"><title>Node22</title>
<polygon fill="none" stroke="#bfbfbf" points="1233,-118.5 1233,-137.5 1297,-137.5 1297,-118.5 1233,-118.5"/>
<text text-anchor="middle" x="1265" y="-125.5" font-family="Helvetica,sans-Serif" font-size="10.00">TParticle.h</text>
</g>
<!-- Node5&#45;&gt;Node22 -->
<g id="edge39" class="edge"><title>Node5&#45;&gt;Node22</title>
<path fill="none" stroke="midnightblue" d="M789.466,-251.908C838.24,-242.227 909.977,-227.357 972,-212 1064.52,-189.093 1172.04,-157.287 1227.55,-140.476"/>
<polygon fill="midnightblue" stroke="midnightblue" points="1228.74,-143.772 1237.29,-137.518 1226.7,-137.074 1228.74,-143.772"/>
</g>
<!-- Node25 -->
<g id="node25" class="node"><title>Node25</title>
<g id="a_node25"><a xlink:href="../../db/d14/MCTruthContainer_8h.html" target="_top" xlink:title="Definition of a container to keep Monte Carlo truth external to simulation objects. ">
<polygon fill="none" stroke="black" points="66,-113 66,-143 180,-143 180,-113 66,-113"/>
<text text-anchor="start" x="74" y="-131" font-family="Helvetica,sans-Serif" font-size="10.00">SimulationDataFormat</text>
<text text-anchor="middle" x="123" y="-120" font-family="Helvetica,sans-Serif" font-size="10.00">/MCTruthContainer.h</text>
</a>
</g>
</g>
<!-- Node5&#45;&gt;Node25 -->
<g id="edge27" class="edge"><title>Node5&#45;&gt;Node25</title>
<path fill="none" stroke="midnightblue" d="M674.854,-249.516C671.867,-248.967 668.902,-248.456 666,-248 487.046,-219.862 432.151,-268.394 260,-212 217.737,-198.155 174.813,-169.218 148.548,-149.447"/>
<polygon fill="midnightblue" stroke="midnightblue" points="150.37,-146.434 140.304,-143.129 146.112,-151.99 150.37,-146.434"/>
</g>
<!-- Node29 -->
<g id="node29" class="node"><title>Node29</title>
<g id="a_node29"><a xlink:href="../../d5/dbe/TrackReference_8h.html" target="_top" xlink:title="SimulationDataFormat\l/TrackReference.h">
<polygon fill="none" stroke="black" points="269,-181 269,-211 383,-211 383,-181 269,-181"/>
<text text-anchor="start" x="277" y="-199" font-family="Helvetica,sans-Serif" font-size="10.00">SimulationDataFormat</text>
<text text-anchor="middle" x="326" y="-188" font-family="Helvetica,sans-Serif" font-size="10.00">/TrackReference.h</text>
</a>
</g>
</g>
<!-- Node5&#45;&gt;Node29 -->
<g id="edge33" class="edge"><title>Node5&#45;&gt;Node29</title>
<path fill="none" stroke="midnightblue" d="M674.829,-249.665C671.848,-249.077 668.892,-248.517 666,-248 548.284,-226.937 514.663,-233.27 393.233,-212.115"/>
<polygon fill="midnightblue" stroke="midnightblue" points="393.628,-208.631 383.171,-210.335 392.408,-215.524 393.628,-208.631"/>
</g>
<!-- Node32 -->
<g id="node32" class="node"><title>Node32</title>
<polygon fill="none" stroke="#bfbfbf" points="401.5,-186.5 401.5,-205.5 436.5,-205.5 436.5,-186.5 401.5,-186.5"/>
<text text-anchor="middle" x="419" y="-193.5" font-family="Helvetica,sans-Serif" font-size="10.00">map</text>
</g>
<!-- Node5&#45;&gt;Node32 -->
<g id="edge40" class="edge"><title>Node5&#45;&gt;Node32</title>
<path fill="none" stroke="midnightblue" d="M674.808,-249.776C671.833,-249.159 668.883,-248.563 666,-248 568.758,-229.012 539.582,-244.541 446,-212 444.544,-211.494 443.074,-210.912 441.613,-210.278"/>
<polygon fill="midnightblue" stroke="midnightblue" points="442.813,-206.964 432.308,-205.586 439.661,-213.214 442.813,-206.964"/>
</g>
<!-- Node33 -->
<g id="node33" class="node"><title>Node33</title>
<polygon fill="none" stroke="#bfbfbf" points="455,-186.5 455,-205.5 507,-205.5 507,-186.5 455,-186.5"/>
<text text-anchor="middle" x="481" y="-193.5" font-family="Helvetica,sans-Serif" font-size="10.00">memory</text>
</g>
<!-- Node5&#45;&gt;Node33 -->
<g id="edge41" class="edge"><title>Node5&#45;&gt;Node33</title>
<path fill="none" stroke="midnightblue" d="M674.877,-249.771C613.499,-235.517 523.651,-214.522 516,-212 513.583,-211.203 511.101,-210.307 508.629,-209.359"/>
<polygon fill="midnightblue" stroke="midnightblue" points="509.879,-206.089 499.298,-205.548 507.232,-212.569 509.879,-206.089"/>
</g>
<!-- Node34 -->
<g id="node34" class="node"><title>Node34</title>
<polygon fill="none" stroke="#bfbfbf" points="525.5,-186.5 525.5,-205.5 566.5,-205.5 566.5,-186.5 525.5,-186.5"/>
<text text-anchor="middle" x="546" y="-193.5" font-family="Helvetica,sans-Serif" font-size="10.00">stack</text>
</g>
<!-- Node5&#45;&gt;Node34 -->
<g id="edge42" class="edge"><title>Node5&#45;&gt;Node34</title>
<path fill="none" stroke="midnightblue" d="M682.845,-248.967C651.791,-239.604 611.054,-226.401 576,-212 574.408,-211.346 572.783,-210.643 571.155,-209.911"/>
<polygon fill="midnightblue" stroke="midnightblue" points="572.523,-206.685 561.99,-205.541 569.51,-213.004 572.523,-206.685"/>
</g>
<!-- Node35 -->
<g id="node35" class="node"><title>Node35</title>
<polygon fill="none" stroke="#bfbfbf" points="585,-186.5 585,-205.5 625,-205.5 625,-186.5 585,-186.5"/>
<text text-anchor="middle" x="605" y="-193.5" font-family="Helvetica,sans-Serif" font-size="10.00">utility</text>
</g>
<!-- Node5&#45;&gt;Node35 -->
<g id="edge43" class="edge"><title>Node5&#45;&gt;Node35</title>
<path fill="none" stroke="midnightblue" d="M704.755,-248.841C682.788,-237.425 652.115,-221.485 630.599,-210.303"/>
<polygon fill="midnightblue" stroke="midnightblue" points="632.193,-207.188 621.706,-205.682 628.965,-213.399 632.193,-207.188"/>
</g>
<!-- Node6&#45;&gt;Node7 -->
<g id="edge6" class="edge"><title>Node6&#45;&gt;Node7</title>
<path fill="none" stroke="midnightblue" d="M491.456,-112.933C533.324,-101.915 590.54,-86.8579 627.873,-77.0334"/>
<polygon fill="midnightblue" stroke="midnightblue" points="629.066,-80.3386 637.846,-74.4089 627.285,-73.5691 629.066,-80.3386"/>
</g>
<!-- Node8 -->
<g id="node8" class="node"><title>Node8</title>
<polygon fill="none" stroke="#bfbfbf" points="394,-0.5 394,-19.5 432,-19.5 432,-0.5 394,-0.5"/>
<text text-anchor="middle" x="413" y="-7.5" font-family="Helvetica,sans-Serif" font-size="10.00">array</text>
</g>
<!-- Node6&#45;&gt;Node8 -->
<g id="edge7" class="edge"><title>Node6&#45;&gt;Node8</title>
<path fill="none" stroke="midnightblue" d="M421.966,-112.651C412.726,-103.262 401.981,-90.1447 397,-76 391.463,-60.2766 397.154,-41.7669 403.229,-28.5294"/>
<polygon fill="midnightblue" stroke="midnightblue" points="406.372,-30.07 407.77,-19.5678 400.128,-26.9061 406.372,-30.07"/>
</g>
<!-- Node9 -->
<g id="node9" class="node"><title>Node9</title>
<polygon fill="none" stroke="#bfbfbf" points="406.5,-56.5 406.5,-75.5 447.5,-75.5 447.5,-56.5 406.5,-56.5"/>
<text text-anchor="middle" x="427" y="-63.5" font-family="Helvetica,sans-Serif" font-size="10.00">bitset</text>
</g>
<!-- Node6&#45;&gt;Node9 -->
<g id="edge8" class="edge"><title>Node6&#45;&gt;Node9</title>
<path fill="none" stroke="midnightblue" d="M435.393,-112.781C433.91,-104.691 432.035,-94.4617 430.433,-85.725"/>
<polygon fill="midnightblue" stroke="midnightblue" points="433.847,-84.9354 428.601,-75.7305 426.961,-86.1978 433.847,-84.9354"/>
</g>
<!-- Node10 -->
<g id="node10" class="node"><title>Node10</title>
<polygon fill="none" stroke="#bfbfbf" points="220.5,-56.5 220.5,-75.5 269.5,-75.5 269.5,-56.5 220.5,-56.5"/>
<text text-anchor="middle" x="245" y="-63.5" font-family="Helvetica,sans-Serif" font-size="10.00">cassert</text>
</g>
<!-- Node6&#45;&gt;Node10 -->
<g id="edge9" class="edge"><title>Node6&#45;&gt;Node10</title>
<path fill="none" stroke="midnightblue" d="M392.75,-112.933C358.065,-102.15 310.937,-87.4984 279.319,-77.6692"/>
<polygon fill="midnightblue" stroke="midnightblue" points="280.223,-74.2848 269.634,-74.6583 278.144,-80.9693 280.223,-74.2848"/>
</g>
<!-- Node11 -->
<g id="node11" class="node"><title>Node11</title>
<polygon fill="none" stroke="#bfbfbf" points="466,-56.5 466,-75.5 512,-75.5 512,-56.5 466,-56.5"/>
<text text-anchor="middle" x="489" y="-63.5" font-family="Helvetica,sans-Serif" font-size="10.00">cstdint</text>
</g>
<!-- Node6&#45;&gt;Node11 -->
<g id="edge10" class="edge"><title>Node6&#45;&gt;Node11</title>
<path fill="none" stroke="midnightblue" d="M450.086,-112.781C457.574,-103.972 467.218,-92.6262 475.032,-83.4332"/>
<polygon fill="midnightblue" stroke="midnightblue" points="477.769,-85.6167 481.579,-75.7305 472.436,-81.0832 477.769,-85.6167"/>
</g>
<!-- Node12 -->
<g id="node12" class="node"><title>Node12</title>
<polygon fill="none" stroke="#bfbfbf" points="288,-56.5 288,-75.5 350,-75.5 350,-56.5 288,-56.5"/>
<text text-anchor="middle" x="319" y="-63.5" font-family="Helvetica,sans-Serif" font-size="10.00">type_traits</text>
</g>
<!-- Node6&#45;&gt;Node12 -->
<g id="edge11" class="edge"><title>Node6&#45;&gt;Node12</title>
<path fill="none" stroke="midnightblue" d="M410.1,-112.933C390.471,-103.036 364.379,-89.8803 345.151,-80.1852"/>
<polygon fill="midnightblue" stroke="midnightblue" points="346.562,-76.977 336.057,-75.6 343.41,-83.2274 346.562,-76.977"/>
</g>
<!-- Node13 -->
<g id="node13" class="node"><title>Node13</title>
<g id="a_node13"><a xlink:href="../../d9/d52/Common_2MathUtils_2include_2MathUtils_2Utils_8h.html" target="_top" xlink:title="MathUtils/Utils.h">
<polygon fill="none" stroke="black" points="530,-56.5 530,-75.5 620,-75.5 620,-56.5 530,-56.5"/>
<text text-anchor="middle" x="575" y="-63.5" font-family="Helvetica,sans-Serif" font-size="10.00">MathUtils/Utils.h</text>
</a>
</g>
</g>
<!-- Node6&#45;&gt;Node13 -->
<g id="edge12" class="edge"><title>Node6&#45;&gt;Node13</title>
<path fill="none" stroke="midnightblue" d="M470.12,-112.933C493.131,-102.855 523.856,-89.3986 546.099,-79.6575"/>
<polygon fill="midnightblue" stroke="midnightblue" points="547.607,-82.8178 555.363,-75.6 544.799,-76.4058 547.607,-82.8178"/>
</g>
<!-- Node13&#45;&gt;Node8 -->
<g id="edge13" class="edge"><title>Node13&#45;&gt;Node8</title>
<path fill="none" stroke="midnightblue" d="M549.331,-56.4435C520.154,-46.7178 472.629,-30.8764 442.099,-20.6997"/>
<polygon fill="midnightblue" stroke="midnightblue" points="443.042,-17.3246 432.448,-17.4826 440.828,-23.9654 443.042,-17.3246"/>
</g>
<!-- Node14 -->
<g id="node14" class="node"><title>Node14</title>
<polygon fill="none" stroke="#bfbfbf" points="665,-0.5 665,-19.5 709,-19.5 709,-0.5 665,-0.5"/>
<text text-anchor="middle" x="687" y="-7.5" font-family="Helvetica,sans-Serif" font-size="10.00">cmath</text>
</g>
<!-- Node13&#45;&gt;Node14 -->
<g id="edge14" class="edge"><title>Node13&#45;&gt;Node14</title>
<path fill="none" stroke="midnightblue" d="M592.995,-56.324C611.038,-47.6247 639.047,-34.1202 659.803,-24.113"/>
<polygon fill="midnightblue" stroke="midnightblue" points="661.562,-27.1502 669.05,-19.6545 658.522,-20.8449 661.562,-27.1502"/>
</g>
<!-- Node15 -->
<g id="node15" class="node"><title>Node15</title>
<g id="a_node15"><a xlink:href="../../d6/d84/MathConstants_8h.html" target="_top" xlink:title="useful math constants ">
<polygon fill="none" stroke="black" points="467.5,-0.5 467.5,-19.5 646.5,-19.5 646.5,-0.5 467.5,-0.5"/>
<text text-anchor="middle" x="557" y="-7.5" font-family="Helvetica,sans-Serif" font-size="10.00">CommonConstants/MathConstants.h</text>
</a>
</g>
</g>
<!-- Node13&#45;&gt;Node15 -->
<g id="edge15" class="edge"><title>Node13&#45;&gt;Node15</title>
<path fill="none" stroke="midnightblue" d="M572.028,-56.083C569.616,-48.8486 566.136,-38.4087 563.132,-29.3968"/>
<polygon fill="midnightblue" stroke="midnightblue" points="566.4,-28.1311 559.917,-19.7511 559.759,-30.3447 566.4,-28.1311"/>
</g>
<!-- Node17&#45;&gt;Node6 -->
<g id="edge18" class="edge"><title>Node17&#45;&gt;Node6</title>
<path fill="none" stroke="midnightblue" d="M848.614,-186.907C768.073,-175.549 620.794,-154.779 526.254,-141.446"/>
<polygon fill="midnightblue" stroke="midnightblue" points="526.526,-137.95 516.135,-140.019 525.548,-144.881 526.526,-137.95"/>
</g>
<!-- Node17&#45;&gt;Node7 -->
<g id="edge19" class="edge"><title>Node17&#45;&gt;Node7</title>
<path fill="none" stroke="midnightblue" d="M963.034,-188.488C1040.47,-179.064 1170.91,-160.9 1185,-144 1194.11,-133.077 1194.61,-122.482 1185,-112 1152.66,-76.7312 819.065,-69.0212 704.432,-67.4083"/>
<polygon fill="midnightblue" stroke="midnightblue" points="704.398,-63.9076 694.352,-67.2744 704.305,-70.907 704.398,-63.9076"/>
</g>
<!-- Node18 -->
<g id="node18" class="node"><title>Node18</title>
<polygon fill="none" stroke="#bfbfbf" points="869.5,-118.5 869.5,-137.5 964.5,-137.5 964.5,-118.5 869.5,-118.5"/>
<text text-anchor="middle" x="917" y="-125.5" font-family="Helvetica,sans-Serif" font-size="10.00">TDatabasePDG.h</text>
</g>
<!-- Node17&#45;&gt;Node18 -->
<g id="edge20" class="edge"><title>Node17&#45;&gt;Node18</title>
<path fill="none" stroke="midnightblue" d="M908.387,-180.679C909.983,-171.101 912.101,-158.394 913.837,-147.977"/>
<polygon fill="midnightblue" stroke="midnightblue" points="917.337,-148.268 915.529,-137.828 910.432,-147.117 917.337,-148.268"/>
</g>
<!-- Node19 -->
<g id="node19" class="node"><title>Node19</title>
<polygon fill="none" stroke="#bfbfbf" points="983,-118.5 983,-137.5 1075,-137.5 1075,-118.5 983,-118.5"/>
<text text-anchor="middle" x="1029" y="-125.5" font-family="Helvetica,sans-Serif" font-size="10.00">TLorentzVector.h</text>
</g>
<!-- Node17&#45;&gt;Node19 -->
<g id="edge21" class="edge"><title>Node17&#45;&gt;Node19</title>
<path fill="none" stroke="midnightblue" d="M932.387,-180.841C953.567,-169.476 983.102,-153.628 1003.93,-142.454"/>
<polygon fill="midnightblue" stroke="midnightblue" points="1005.66,-145.494 1012.82,-137.682 1002.35,-139.326 1005.66,-145.494"/>
</g>
<!-- Node20 -->
<g id="node20" class="node"><title>Node20</title>
<polygon fill="none" stroke="#bfbfbf" points="1093.5,-118.5 1093.5,-137.5 1176.5,-137.5 1176.5,-118.5 1093.5,-118.5"/>
<text text-anchor="middle" x="1135" y="-125.5" font-family="Helvetica,sans-Serif" font-size="10.00">TMCProcess.h</text>
</g>
<!-- Node17&#45;&gt;Node20 -->
<g id="edge22" class="edge"><title>Node17&#45;&gt;Node20</title>
<path fill="none" stroke="midnightblue" d="M955.517,-180.913C991.245,-170.724 1040.63,-156.592 1084,-144 1088.04,-142.828 1092.25,-141.597 1096.46,-140.367"/>
<polygon fill="midnightblue" stroke="midnightblue" points="1097.54,-143.697 1106.15,-137.523 1095.57,-136.98 1097.54,-143.697"/>
</g>
<!-- Node21 -->
<g id="node21" class="node"><title>Node21</title>
<polygon fill="none" stroke="#bfbfbf" points="572.5,-118.5 572.5,-137.5 625.5,-137.5 625.5,-118.5 572.5,-118.5"/>
<text text-anchor="middle" x="599" y="-125.5" font-family="Helvetica,sans-Serif" font-size="10.00">TMath.h</text>
</g>
<!-- Node17&#45;&gt;Node21 -->
<g id="edge23" class="edge"><title>Node17&#45;&gt;Node21</title>
<path fill="none" stroke="midnightblue" d="M848.975,-182.741C786.55,-169.32 688.326,-148.204 635.508,-136.849"/>
<polygon fill="midnightblue" stroke="midnightblue" points="636.086,-133.393 625.574,-134.713 634.615,-140.237 636.086,-133.393"/>
</g>
<!-- Node17&#45;&gt;Node22 -->
<g id="edge24" class="edge"><title>Node17&#45;&gt;Node22</title>
<path fill="none" stroke="midnightblue" d="M963.07,-188.38C1026.22,-180.436 1130.72,-165.45 1219,-144 1222.93,-143.046 1227.01,-141.92 1231.04,-140.721"/>
<polygon fill="midnightblue" stroke="midnightblue" points="1232.35,-143.976 1240.85,-137.646 1230.26,-137.296 1232.35,-143.976"/>
</g>
<!-- Node23 -->
<g id="node23" class="node"><title>Node23</title>
<polygon fill="none" stroke="#bfbfbf" points="682,-118.5 682,-137.5 768,-137.5 768,-118.5 682,-118.5"/>
<text text-anchor="middle" x="725" y="-125.5" font-family="Helvetica,sans-Serif" font-size="10.00">TParticlePDG.h</text>
</g>
<!-- Node17&#45;&gt;Node23 -->
<g id="edge25" class="edge"><title>Node17&#45;&gt;Node23</title>
<path fill="none" stroke="midnightblue" d="M867.171,-180.841C834.646,-168.982 788.732,-152.239 757.968,-141.022"/>
<polygon fill="midnightblue" stroke="midnightblue" points="759.143,-137.724 748.549,-137.587 756.745,-144.301 759.143,-137.724"/>
</g>
<!-- Node24 -->
<g id="node24" class="node"><title>Node24</title>
<polygon fill="none" stroke="#bfbfbf" points="786.5,-118.5 786.5,-137.5 851.5,-137.5 851.5,-118.5 786.5,-118.5"/>
<text text-anchor="middle" x="819" y="-125.5" font-family="Helvetica,sans-Serif" font-size="10.00">TVector3.h</text>
</g>
<!-- Node17&#45;&gt;Node24 -->
<g id="edge26" class="edge"><title>Node17&#45;&gt;Node24</title>
<path fill="none" stroke="midnightblue" d="M887.122,-180.679C872.886,-169.879 853.402,-155.098 838.918,-144.11"/>
<polygon fill="midnightblue" stroke="midnightblue" points="840.72,-141.084 830.637,-137.828 836.489,-146.661 840.72,-141.084"/>
</g>
<!-- Node25&#45;&gt;Node10 -->
<g id="edge29" class="edge"><title>Node25&#45;&gt;Node10</title>
<path fill="none" stroke="midnightblue" d="M151.604,-112.933C171.819,-102.991 198.721,-89.7601 218.46,-80.0526"/>
<polygon fill="midnightblue" stroke="midnightblue" points="220.084,-83.154 227.513,-75.6 216.995,-76.8726 220.084,-83.154"/>
</g>
<!-- Node25&#45;&gt;Node12 -->
<g id="edge32" class="edge"><title>Node25&#45;&gt;Node12</title>
<path fill="none" stroke="midnightblue" d="M168.953,-112.933C203.156,-102.462 249.275,-88.3445 281.316,-78.5358"/>
<polygon fill="midnightblue" stroke="midnightblue" points="282.654,-81.7866 291.192,-75.5127 280.605,-75.0932 282.654,-81.7866"/>
</g>
<!-- Node26 -->
<g id="node26" class="node"><title>Node26</title>
<polygon fill="none" stroke="#bfbfbf" points="140,-56.5 140,-75.5 202,-75.5 202,-56.5 140,-56.5"/>
<text text-anchor="middle" x="171" y="-63.5" font-family="Helvetica,sans-Serif" font-size="10.00">TNamed.h</text>
</g>
<!-- Node25&#45;&gt;Node26 -->
<g id="edge28" class="edge"><title>Node25&#45;&gt;Node26</title>
<path fill="none" stroke="midnightblue" d="M134.375,-112.781C141.35,-104.062 150.314,-92.8574 157.628,-83.7153"/>
<polygon fill="midnightblue" stroke="midnightblue" points="160.502,-85.7257 164.016,-75.7305 155.036,-81.3528 160.502,-85.7257"/>
</g>
<!-- Node27 -->
<g id="node27" class="node"><title>Node27</title>
<polygon fill="none" stroke="#bfbfbf" points="-0.5,-56.5 -0.5,-75.5 58.5,-75.5 58.5,-56.5 -0.5,-56.5"/>
<text text-anchor="middle" x="29" y="-63.5" font-family="Helvetica,sans-Serif" font-size="10.00">stdexcept</text>
</g>
<!-- Node25&#45;&gt;Node27 -->
<g id="edge30" class="edge"><title>Node25&#45;&gt;Node27</title>
<path fill="none" stroke="midnightblue" d="M100.723,-112.781C85.7067,-103.196 65.983,-90.6062 51.0204,-81.0555"/>
<polygon fill="midnightblue" stroke="midnightblue" points="52.7163,-77.9859 42.4039,-75.5557 48.95,-83.8863 52.7163,-77.9859"/>
</g>
<!-- Node28 -->
<g id="node28" class="node"><title>Node28</title>
<polygon fill="none" stroke="#bfbfbf" points="76.5,-56.5 76.5,-75.5 121.5,-75.5 121.5,-56.5 76.5,-56.5"/>
<text text-anchor="middle" x="99" y="-63.5" font-family="Helvetica,sans-Serif" font-size="10.00">gsl/gsl</text>
</g>
<!-- Node25&#45;&gt;Node28 -->
<g id="edge31" class="edge"><title>Node25&#45;&gt;Node28</title>
<path fill="none" stroke="midnightblue" d="M117.312,-112.781C114.005,-104.512 109.802,-94.006 106.258,-85.1448"/>
<polygon fill="midnightblue" stroke="midnightblue" points="109.456,-83.7154 102.492,-75.7305 102.957,-86.3152 109.456,-83.7154"/>
</g>
<!-- Node29&#45;&gt;Node7 -->
<g id="edge36" class="edge"><title>Node29&#45;&gt;Node7</title>
<path fill="none" stroke="midnightblue" d="M383.107,-181.738C437.286,-168.933 512.276,-150.55 525,-144 544.631,-133.895 544.245,-123.651 563,-112 584.51,-98.6371 610.678,-87.259 631.256,-79.2869"/>
<polygon fill="midnightblue" stroke="midnightblue" points="632.748,-82.4645 640.863,-75.6532 630.272,-75.9171 632.748,-82.4645"/>
</g>
<!-- Node29&#45;&gt;Node21 -->
<g id="edge37" class="edge"><title>Node29&#45;&gt;Node21</title>
<path fill="none" stroke="midnightblue" d="M383.23,-181.957C386.195,-181.292 389.132,-180.637 392,-180 465.698,-163.634 485.492,-165.018 558,-144 561.203,-143.071 564.516,-142.019 567.807,-140.913"/>
<polygon fill="midnightblue" stroke="midnightblue" points="569.213,-144.128 577.48,-137.502 566.885,-137.527 569.213,-144.128"/>
</g>
<!-- Node30 -->
<g id="node30" class="node"><title>Node30</title>
<polygon fill="none" stroke="#bfbfbf" points="268,-118.5 268,-137.5 342,-137.5 342,-118.5 268,-118.5"/>
<text text-anchor="middle" x="305" y="-125.5" font-family="Helvetica,sans-Serif" font-size="10.00">TVirtualMC.h</text>
</g>
<!-- Node29&#45;&gt;Node30 -->
<g id="edge34" class="edge"><title>Node29&#45;&gt;Node30</title>
<path fill="none" stroke="midnightblue" d="M321.443,-180.679C318.363,-170.999 314.266,-158.123 310.932,-147.645"/>
<polygon fill="midnightblue" stroke="midnightblue" points="314.176,-146.296 307.809,-137.828 307.506,-148.419 314.176,-146.296"/>
</g>
<!-- Node31 -->
<g id="node31" class="node"><title>Node31</title>
<polygon fill="none" stroke="#bfbfbf" points="198,-118.5 198,-137.5 250,-137.5 250,-118.5 198,-118.5"/>
<text text-anchor="middle" x="224" y="-125.5" font-family="Helvetica,sans-Serif" font-size="10.00">ostream</text>
</g>
<!-- Node29&#45;&gt;Node31 -->
<g id="edge35" class="edge"><title>Node29&#45;&gt;Node31</title>
<path fill="none" stroke="midnightblue" d="M304.118,-180.841C287.029,-169.784 263.38,-154.481 246.208,-143.37"/>
<polygon fill="midnightblue" stroke="midnightblue" points="247.715,-140.176 237.417,-137.682 243.912,-146.053 247.715,-140.176"/>
</g>
<!-- Node39&#45;&gt;Node7 -->
<g id="edge49" class="edge"><title>Node39&#45;&gt;Node7</title>
<path fill="none" stroke="midnightblue" d="M1275.86,-254.213C1279.14,-238.993 1286.32,-206.787 1294,-180 1298.65,-163.787 1303.3,-160.648 1306,-144 1308.28,-129.961 1315.7,-122.403 1306,-112 1264.91,-67.9232 836.014,-66.2084 704.273,-66.7329"/>
<polygon fill="midnightblue" stroke="midnightblue" points="704.221,-63.233 694.238,-66.7797 704.254,-70.233 704.221,-63.233"/>
</g>
<!-- Node40 -->
<g id="node40" class="node"><title>Node40</title>
<polygon fill="none" stroke="#bfbfbf" points="1302.5,-186.5 1302.5,-205.5 1381.5,-205.5 1381.5,-186.5 1302.5,-186.5"/>
<text text-anchor="middle" x="1342" y="-193.5" font-family="Helvetica,sans-Serif" font-size="10.00">FairDetector.h</text>
</g>
<!-- Node39&#45;&gt;Node40 -->
<g id="edge48" class="edge"><title>Node39&#45;&gt;Node40</title>
<path fill="none" stroke="midnightblue" d="M1282.89,-254.372C1293.72,-243.856 1312.24,-225.882 1325.67,-212.85"/>
<polygon fill="midnightblue" stroke="midnightblue" points="1328.15,-215.317 1332.89,-205.841 1323.28,-210.294 1328.15,-215.317"/>
</g>
<!-- Node41 -->
<g id="node41" class="node"><title>Node41</title>
<polygon fill="none" stroke="#bfbfbf" points="1399.5,-186.5 1399.5,-205.5 1458.5,-205.5 1458.5,-186.5 1399.5,-186.5"/>
<text text-anchor="middle" x="1429" y="-193.5" font-family="Helvetica,sans-Serif" font-size="10.00">functional</text>
</g>
<!-- Node39&#45;&gt;Node41 -->
<g id="edge50" class="edge"><title>Node39&#45;&gt;Node41</title>
<path fill="none" stroke="midnightblue" d="M1294.26,-254.372C1321.07,-242.958 1368.51,-222.756 1399.35,-209.625"/>
<polygon fill="midnightblue" stroke="midnightblue" points="1400.9,-212.768 1408.73,-205.63 1398.16,-206.328 1400.9,-212.768"/>
</g>
<!-- Node42 -->
<g id="node42" class="node"><title>Node42</title>
<polygon fill="none" stroke="#bfbfbf" points="1477,-186.5 1477,-205.5 1521,-205.5 1521,-186.5 1477,-186.5"/>
<text text-anchor="middle" x="1499" y="-193.5" font-family="Helvetica,sans-Serif" font-size="10.00">vector</text>
</g>
<!-- Node39&#45;&gt;Node42 -->
<g id="edge51" class="edge"><title>Node39&#45;&gt;Node42</title>
<path fill="none" stroke="midnightblue" d="M1314.94,-254.434C1354.46,-245.642 1415.69,-230.632 1467,-212 1468.9,-211.309 1470.85,-210.547 1472.79,-209.743"/>
<polygon fill="midnightblue" stroke="midnightblue" points="1474.58,-212.777 1482.3,-205.52 1471.74,-206.38 1474.58,-212.777"/>
</g>
<!-- Node45 -->
<g id="node45" class="node"><title>Node45</title>
<g id="a_node45"><a xlink:href="../../d1/ddc/commonConfig_8C.html" target="_top" xlink:title="commonConfig.C">
<polygon fill="none" stroke="black" points="1538.5,-186.5 1538.5,-205.5 1631.5,-205.5 1631.5,-186.5 1538.5,-186.5"/>
<text text-anchor="middle" x="1585" y="-193.5" font-family="Helvetica,sans-Serif" font-size="10.00">commonConfig.C</text>
</a>
</g>
</g>
<!-- Node44&#45;&gt;Node45 -->
<g id="edge54" class="edge"><title>Node44&#45;&gt;Node45</title>
<path fill="none" stroke="midnightblue" d="M1532.84,-254.372C1542.22,-244.053 1558.14,-226.551 1569.92,-213.585"/>
<polygon fill="midnightblue" stroke="midnightblue" points="1572.83,-215.595 1576.96,-205.841 1567.65,-210.886 1572.83,-215.595"/>
</g>
</g>
</svg>
