<?xml version="1.0" encoding="UTF-8" standalone="no"?>
<!DOCTYPE svg PUBLIC "-//W3C//DTD SVG 1.1//EN"
 "http://www.w3.org/Graphics/SVG/1.1/DTD/svg11.dtd">
<!-- Generated by graphviz version 2.36.0 (20140111.2315)
 -->
<!-- Title: /home/travis/build/AliceO2Group/AliceO2/Detectors/gconfig/src/G4Config.cxx Pages: 1 -->
<svg width="1690pt" height="378pt"
 viewBox="0.00 0.00 1690.00 378.00" xmlns="http://www.w3.org/2000/svg" xmlns:xlink="http://www.w3.org/1999/xlink">
<g id="graph0" class="graph" transform="scale(1 1) rotate(0) translate(4 374)">
<title>/home/travis/build/AliceO2Group/AliceO2/Detectors/gconfig/src/G4Config.cxx</title>
<!-- Node1 -->
<g id="node1" class="node"><title>Node1</title>
<polygon fill="#bfbfbf" stroke="black" points="982,-317 982,-369 1100,-369 1100,-317 982,-317"/>
<text text-anchor="start" x="990" y="-357" font-family="Helvetica,sans-Serif" font-size="10.00">/home/travis/build</text>
<text text-anchor="start" x="990" y="-346" font-family="Helvetica,sans-Serif" font-size="10.00">/AliceO2Group/AliceO2</text>
<text text-anchor="start" x="990" y="-335" font-family="Helvetica,sans-Serif" font-size="10.00">/Detectors/gconfig/src</text>
<text text-anchor="middle" x="1041" y="-324" font-family="Helvetica,sans-Serif" font-size="10.00">/G4Config.cxx</text>
</g>
<!-- Node2 -->
<g id="node2" class="node"><title>Node2</title>
<polygon fill="none" stroke="#bfbfbf" points="455.5,-254.5 455.5,-273.5 532.5,-273.5 532.5,-254.5 455.5,-254.5"/>
<text text-anchor="middle" x="494" y="-261.5" font-family="Helvetica,sans-Serif" font-size="10.00">FairRunSim.h</text>
</g>
<!-- Node1&#45;&gt;Node2 -->
<g id="edge1" class="edge"><title>Node1&#45;&gt;Node2</title>
<path fill="none" stroke="midnightblue" d="M981.659,-338.085C887.577,-331.105 698.777,-313.949 542,-280 537.56,-279.039 532.942,-277.848 528.402,-276.562"/>
<polygon fill="midnightblue" stroke="midnightblue" points="529.27,-273.168 518.686,-273.644 527.257,-279.873 529.27,-273.168"/>
</g>
<!-- Node3 -->
<g id="node3" class="node"><title>Node3</title>
<g id="a_node3"><a xlink:href="../../dc/db6/Stack_8h.html" target="_top" xlink:title="Definition of the Stack class. ">
<polygon fill="none" stroke="black" points="551,-249 551,-279 665,-279 665,-249 551,-249"/>
<text text-anchor="start" x="559" y="-267" font-family="Helvetica,sans-Serif" font-size="10.00">SimulationDataFormat</text>
<text text-anchor="middle" x="608" y="-256" font-family="Helvetica,sans-Serif" font-size="10.00">/Stack.h</text>
</a>
</g>
</g>
<!-- Node1&#45;&gt;Node3 -->
<g id="edge2" class="edge"><title>Node1&#45;&gt;Node3</title>
<path fill="none" stroke="midnightblue" d="M981.701,-331.455C901.576,-317.206 759.125,-291.874 675.149,-276.941"/>
<polygon fill="midnightblue" stroke="midnightblue" points="675.664,-273.478 665.206,-275.173 674.439,-280.37 675.664,-273.478"/>
</g>
<!-- Node34 -->
<g id="node34" class="node"><title>Node34</title>
<polygon fill="none" stroke="#bfbfbf" points="739,-254.5 739,-273.5 793,-273.5 793,-254.5 739,-254.5"/>
<text text-anchor="middle" x="766" y="-261.5" font-family="Helvetica,sans-Serif" font-size="10.00">iostream</text>
</g>
<!-- Node1&#45;&gt;Node34 -->
<g id="edge42" class="edge"><title>Node1&#45;&gt;Node34</title>
<path fill="none" stroke="midnightblue" d="M981.882,-329.114C933.096,-317.898 862.338,-300.284 802,-280 799.585,-279.188 797.103,-278.291 794.624,-277.351"/>
<polygon fill="midnightblue" stroke="midnightblue" points="795.825,-274.062 785.24,-273.604 793.229,-280.563 795.825,-274.062"/>
</g>
<!-- Node35 -->
<g id="node35" class="node"><title>Node35</title>
<polygon fill="none" stroke="#bfbfbf" points="811.5,-254.5 811.5,-273.5 882.5,-273.5 882.5,-254.5 811.5,-254.5"/>
<text text-anchor="middle" x="847" y="-261.5" font-family="Helvetica,sans-Serif" font-size="10.00">FairLogger.h</text>
</g>
<!-- Node1&#45;&gt;Node35 -->
<g id="edge43" class="edge"><title>Node1&#45;&gt;Node35</title>
<path fill="none" stroke="midnightblue" d="M981.739,-318.479C947.6,-304.929 906.072,-288.446 878.222,-277.392"/>
<polygon fill="midnightblue" stroke="midnightblue" points="879.205,-274.017 868.619,-273.581 876.623,-280.523 879.205,-274.017"/>
</g>
<!-- Node36 -->
<g id="node36" class="node"><title>Node36</title>
<polygon fill="none" stroke="#bfbfbf" points="901,-254.5 901,-273.5 963,-273.5 963,-254.5 901,-254.5"/>
<text text-anchor="middle" x="932" y="-261.5" font-family="Helvetica,sans-Serif" font-size="10.00">TGeant4.h</text>
</g>
<!-- Node1&#45;&gt;Node36 -->
<g id="edge44" class="edge"><title>Node1&#45;&gt;Node36</title>
<path fill="none" stroke="midnightblue" d="M1005.31,-316.787C987.828,-304.438 967.403,-290.01 952.559,-279.523"/>
<polygon fill="midnightblue" stroke="midnightblue" points="954.301,-276.469 944.114,-273.558 950.262,-282.186 954.301,-276.469"/>
</g>
<!-- Node37 -->
<g id="node37" class="node"><title>Node37</title>
<polygon fill="none" stroke="#bfbfbf" points="981.5,-254.5 981.5,-273.5 1100.5,-273.5 1100.5,-254.5 981.5,-254.5"/>
<text text-anchor="middle" x="1041" y="-261.5" font-family="Helvetica,sans-Serif" font-size="10.00">TG4RunConfiguration.h</text>
</g>
<!-- Node1&#45;&gt;Node37 -->
<g id="edge45" class="edge"><title>Node1&#45;&gt;Node37</title>
<path fill="none" stroke="midnightblue" d="M1041,-316.787C1041,-306.069 1041,-293.785 1041,-283.871"/>
<polygon fill="midnightblue" stroke="midnightblue" points="1044.5,-283.558 1041,-273.558 1037.5,-283.558 1044.5,-283.558"/>
</g>
<!-- Node38 -->
<g id="node38" class="node"><title>Node38</title>
<polygon fill="none" stroke="#bfbfbf" points="1118.5,-254.5 1118.5,-273.5 1219.5,-273.5 1219.5,-254.5 1118.5,-254.5"/>
<text text-anchor="middle" x="1169" y="-261.5" font-family="Helvetica,sans-Serif" font-size="10.00">TPythia6Decayer.h</text>
</g>
<!-- Node1&#45;&gt;Node38 -->
<g id="edge46" class="edge"><title>Node1&#45;&gt;Node38</title>
<path fill="none" stroke="midnightblue" d="M1082.91,-316.787C1103.83,-304.205 1128.33,-289.464 1145.84,-278.934"/>
<polygon fill="midnightblue" stroke="midnightblue" points="1148.01,-281.712 1154.77,-273.558 1144.4,-275.713 1148.01,-281.712"/>
</g>
<!-- Node39 -->
<g id="node39" class="node"><title>Node39</title>
<polygon fill="none" stroke="#bfbfbf" points="1237.5,-254.5 1237.5,-273.5 1310.5,-273.5 1310.5,-254.5 1237.5,-254.5"/>
<text text-anchor="middle" x="1274" y="-261.5" font-family="Helvetica,sans-Serif" font-size="10.00">FairModule.h</text>
</g>
<!-- Node1&#45;&gt;Node39 -->
<g id="edge47" class="edge"><title>Node1&#45;&gt;Node39</title>
<path fill="none" stroke="midnightblue" d="M1100.1,-322.47C1143.72,-308.053 1201.66,-288.905 1238.4,-276.764"/>
<polygon fill="midnightblue" stroke="midnightblue" points="1239.78,-279.996 1248.17,-273.535 1237.58,-273.349 1239.78,-279.996"/>
</g>
<!-- Node40 -->
<g id="node40" class="node"><title>Node40</title>
<g id="a_node40"><a xlink:href="../../d9/d6d/Cave_8h.html" target="_top" xlink:title="DetectorsPassive/Cave.h">
<polygon fill="none" stroke="black" points="1328.5,-254.5 1328.5,-273.5 1457.5,-273.5 1457.5,-254.5 1328.5,-254.5"/>
<text text-anchor="middle" x="1393" y="-261.5" font-family="Helvetica,sans-Serif" font-size="10.00">DetectorsPassive/Cave.h</text>
</a>
</g>
</g>
<!-- Node1&#45;&gt;Node40 -->
<g id="edge48" class="edge"><title>Node1&#45;&gt;Node40</title>
<path fill="none" stroke="midnightblue" d="M1100.31,-329.025C1168.76,-314.053 1280.04,-289.709 1343.86,-275.75"/>
<polygon fill="midnightblue" stroke="midnightblue" points="1344.66,-279.158 1353.68,-273.602 1343.16,-272.32 1344.66,-279.158"/>
</g>
<!-- Node44 -->
<g id="node44" class="node"><title>Node44</title>
<g id="a_node44"><a xlink:href="../../da/d40/g4Config_8C.html" target="_top" xlink:title="../g4Config.C">
<polygon fill="none" stroke="black" points="1475.5,-254.5 1475.5,-273.5 1550.5,-273.5 1550.5,-254.5 1475.5,-254.5"/>
<text text-anchor="middle" x="1513" y="-261.5" font-family="Helvetica,sans-Serif" font-size="10.00">../g4Config.C</text>
</a>
</g>
</g>
<!-- Node1&#45;&gt;Node44 -->
<g id="edge53" class="edge"><title>Node1&#45;&gt;Node44</title>
<path fill="none" stroke="midnightblue" d="M1100,-336.485C1182.59,-328.066 1337.04,-309.774 1466,-280 1470.22,-279.025 1474.62,-277.848 1478.94,-276.589"/>
<polygon fill="midnightblue" stroke="midnightblue" points="1480.29,-279.838 1488.82,-273.554 1478.23,-273.147 1480.29,-279.838"/>
</g>
<!-- Node46 -->
<g id="node46" class="node"><title>Node46</title>
<g id="a_node46"><a xlink:href="../../d7/d21/SetCuts_8C.html" target="_top" xlink:title="../SetCuts.C">
<polygon fill="none" stroke="black" points="1569,-254.5 1569,-273.5 1641,-273.5 1641,-254.5 1569,-254.5"/>
<text text-anchor="middle" x="1605" y="-261.5" font-family="Helvetica,sans-Serif" font-size="10.00">../SetCuts.C</text>
</a>
</g>
</g>
<!-- Node1&#45;&gt;Node46 -->
<g id="edge55" class="edge"><title>Node1&#45;&gt;Node46</title>
<path fill="none" stroke="midnightblue" d="M1100.28,-338.695C1197.19,-332.448 1395.16,-316.152 1559,-280 1563.24,-279.063 1567.65,-277.892 1571.99,-276.62"/>
<polygon fill="midnightblue" stroke="midnightblue" points="1573.35,-279.861 1581.84,-273.531 1571.25,-273.182 1573.35,-279.861"/>
</g>
<!-- Node4 -->
<g id="node4" class="node"><title>Node4</title>
<g id="a_node4"><a xlink:href="../../d6/d31/DetID_8h.html" target="_top" xlink:title="DetectorsCommonDataFormats\l/DetID.h">
<polygon fill="none" stroke="black" points="360,-113 360,-143 516,-143 516,-113 360,-113"/>
<text text-anchor="start" x="368" y="-131" font-family="Helvetica,sans-Serif" font-size="10.00">DetectorsCommonDataFormats</text>
<text text-anchor="middle" x="438" y="-120" font-family="Helvetica,sans-Serif" font-size="10.00">/DetID.h</text>
</a>
</g>
</g>
<!-- Node3&#45;&gt;Node4 -->
<g id="edge3" class="edge"><title>Node3&#45;&gt;Node4</title>
<path fill="none" stroke="midnightblue" d="M608.71,-248.781C608.828,-230.567 606.25,-199.08 589,-180 572.446,-161.689 549.093,-149.947 525.689,-142.419"/>
<polygon fill="midnightblue" stroke="midnightblue" points="526.614,-139.043 516.031,-139.541 524.615,-145.751 526.614,-139.043"/>
</g>
<!-- Node5 -->
<g id="node5" class="node"><title>Node5</title>
<polygon fill="none" stroke="#bfbfbf" points="638,-56.5 638,-75.5 694,-75.5 694,-56.5 638,-56.5"/>
<text text-anchor="middle" x="666" y="-63.5" font-family="Helvetica,sans-Serif" font-size="10.00">Rtypes.h</text>
</g>
<!-- Node3&#45;&gt;Node5 -->
<g id="edge36" class="edge"><title>Node3&#45;&gt;Node5</title>
<path fill="none" stroke="midnightblue" d="M665.09,-257.184C694.422,-250.972 727.752,-238.199 746,-212 754.129,-200.33 753.51,-192.078 746,-180 726.897,-149.28 693.475,-173.823 673,-144 661.271,-126.917 661.143,-102.436 662.889,-85.6924"/>
<polygon fill="midnightblue" stroke="midnightblue" points="666.392,-85.9041 664.277,-75.5224 659.456,-84.9569 666.392,-85.9041"/>
</g>
<!-- Node14 -->
<g id="node14" class="node"><title>Node14</title>
<polygon fill="none" stroke="#bfbfbf" points="636.5,-186.5 636.5,-205.5 737.5,-205.5 737.5,-186.5 636.5,-186.5"/>
<text text-anchor="middle" x="687" y="-193.5" font-family="Helvetica,sans-Serif" font-size="10.00">FairGenericStack.h</text>
</g>
<!-- Node3&#45;&gt;Node14 -->
<g id="edge14" class="edge"><title>Node3&#45;&gt;Node14</title>
<path fill="none" stroke="midnightblue" d="M625.142,-248.679C637.947,-237.981 655.428,-223.377 668.54,-212.422"/>
<polygon fill="midnightblue" stroke="midnightblue" points="671.003,-214.926 676.433,-205.828 666.515,-209.554 671.003,-214.926"/>
</g>
<!-- Node15 -->
<g id="node15" class="node"><title>Node15</title>
<g id="a_node15"><a xlink:href="../../d2/de2/MCTrack_8h.html" target="_top" xlink:title="Definition of the MCTrack class. ">
<polygon fill="none" stroke="black" points="815,-181 815,-211 929,-211 929,-181 815,-181"/>
<text text-anchor="start" x="823" y="-199" font-family="Helvetica,sans-Serif" font-size="10.00">SimulationDataFormat</text>
<text text-anchor="middle" x="872" y="-188" font-family="Helvetica,sans-Serif" font-size="10.00">/MCTrack.h</text>
</a>
</g>
</g>
<!-- Node3&#45;&gt;Node15 -->
<g id="edge15" class="edge"><title>Node3&#45;&gt;Node15</title>
<path fill="none" stroke="midnightblue" d="M664.311,-248.922C705.755,-238.561 762.235,-224.441 805.835,-213.541"/>
<polygon fill="midnightblue" stroke="midnightblue" points="806.923,-216.877 815.776,-211.056 805.225,-210.086 806.923,-216.877"/>
</g>
<!-- Node20 -->
<g id="node20" class="node"><title>Node20</title>
<polygon fill="none" stroke="#bfbfbf" points="1233,-118.5 1233,-137.5 1297,-137.5 1297,-118.5 1233,-118.5"/>
<text text-anchor="middle" x="1265" y="-125.5" font-family="Helvetica,sans-Serif" font-size="10.00">TParticle.h</text>
</g>
<!-- Node3&#45;&gt;Node20 -->
<g id="edge37" class="edge"><title>Node3&#45;&gt;Node20</title>
<path fill="none" stroke="midnightblue" d="M665.229,-255.839C731.273,-247.187 842.993,-231.353 938,-212 1042.93,-190.626 1164.76,-157.45 1225.84,-140.229"/>
<polygon fill="midnightblue" stroke="midnightblue" points="1226.79,-143.597 1235.46,-137.506 1224.89,-136.862 1226.79,-143.597"/>
</g>
<!-- Node23 -->
<g id="node23" class="node"><title>Node23</title>
<g id="a_node23"><a xlink:href="../../db/d14/MCTruthContainer_8h.html" target="_top" xlink:title="Definition of a container to keep Monte Carlo truth external to simulation objects. ">
<polygon fill="none" stroke="black" points="66,-113 66,-143 180,-143 180,-113 66,-113"/>
<text text-anchor="start" x="74" y="-131" font-family="Helvetica,sans-Serif" font-size="10.00">SimulationDataFormat</text>
<text text-anchor="middle" x="123" y="-120" font-family="Helvetica,sans-Serif" font-size="10.00">/MCTruthContainer.h</text>
</a>
</g>
</g>
<!-- Node3&#45;&gt;Node23 -->
<g id="edge25" class="edge"><title>Node3&#45;&gt;Node23</title>
<path fill="none" stroke="midnightblue" d="M550.699,-249.735C547.425,-249.113 544.175,-248.529 541,-248 397.213,-224.04 347.982,-271.705 215,-212 184.435,-198.277 157.008,-170.53 140.214,-150.903"/>
<polygon fill="midnightblue" stroke="midnightblue" points="142.773,-148.506 133.689,-143.053 137.389,-152.98 142.773,-148.506"/>
</g>
<!-- Node27 -->
<g id="node27" class="node"><title>Node27</title>
<g id="a_node27"><a xlink:href="../../d5/dbe/TrackReference_8h.html" target="_top" xlink:title="SimulationDataFormat\l/TrackReference.h">
<polygon fill="none" stroke="black" points="224,-181 224,-211 338,-211 338,-181 224,-181"/>
<text text-anchor="start" x="232" y="-199" font-family="Helvetica,sans-Serif" font-size="10.00">SimulationDataFormat</text>
<text text-anchor="middle" x="281" y="-188" font-family="Helvetica,sans-Serif" font-size="10.00">/TrackReference.h</text>
</a>
</g>
</g>
<!-- Node3&#45;&gt;Node27 -->
<g id="edge31" class="edge"><title>Node3&#45;&gt;Node27</title>
<path fill="none" stroke="midnightblue" d="M550.648,-250.014C547.386,-249.321 544.153,-248.645 541,-248 458.191,-231.053 434.573,-229.793 348.193,-212.198"/>
<polygon fill="midnightblue" stroke="midnightblue" points="348.707,-208.731 338.207,-210.149 347.299,-215.588 348.707,-208.731"/>
</g>
<!-- Node30 -->
<g id="node30" class="node"><title>Node30</title>
<polygon fill="none" stroke="#bfbfbf" points="356.5,-186.5 356.5,-205.5 391.5,-205.5 391.5,-186.5 356.5,-186.5"/>
<text text-anchor="middle" x="374" y="-193.5" font-family="Helvetica,sans-Serif" font-size="10.00">map</text>
</g>
<!-- Node3&#45;&gt;Node30 -->
<g id="edge38" class="edge"><title>Node3&#45;&gt;Node30</title>
<path fill="none" stroke="midnightblue" d="M550.932,-249.76C494.629,-236.565 414.995,-217.498 401,-212 399.596,-211.449 398.175,-210.837 396.757,-210.186"/>
<polygon fill="midnightblue" stroke="midnightblue" points="398.163,-206.973 387.669,-205.516 394.964,-213.199 398.163,-206.973"/>
</g>
<!-- Node31 -->
<g id="node31" class="node"><title>Node31</title>
<polygon fill="none" stroke="#bfbfbf" points="410,-186.5 410,-205.5 462,-205.5 462,-186.5 410,-186.5"/>
<text text-anchor="middle" x="436" y="-193.5" font-family="Helvetica,sans-Serif" font-size="10.00">memory</text>
</g>
<!-- Node3&#45;&gt;Node31 -->
<g id="edge39" class="edge"><title>Node3&#45;&gt;Node31</title>
<path fill="none" stroke="midnightblue" d="M568.832,-248.991C541.327,-239.015 503.752,-225.106 471,-212 469.113,-211.245 467.174,-210.455 465.223,-209.649"/>
<polygon fill="midnightblue" stroke="midnightblue" points="466.127,-206.232 455.552,-205.578 463.411,-212.683 466.127,-206.232"/>
</g>
<!-- Node32 -->
<g id="node32" class="node"><title>Node32</title>
<polygon fill="none" stroke="#bfbfbf" points="480.5,-186.5 480.5,-205.5 521.5,-205.5 521.5,-186.5 480.5,-186.5"/>
<text text-anchor="middle" x="501" y="-193.5" font-family="Helvetica,sans-Serif" font-size="10.00">stack</text>
</g>
<!-- Node3&#45;&gt;Node32 -->
<g id="edge40" class="edge"><title>Node3&#45;&gt;Node32</title>
<path fill="none" stroke="midnightblue" d="M585.046,-248.841C566.953,-237.681 541.851,-222.198 523.798,-211.063"/>
<polygon fill="midnightblue" stroke="midnightblue" points="525.424,-207.953 515.075,-205.682 521.749,-213.911 525.424,-207.953"/>
</g>
<!-- Node33 -->
<g id="node33" class="node"><title>Node33</title>
<polygon fill="none" stroke="#bfbfbf" points="540,-186.5 540,-205.5 580,-205.5 580,-186.5 540,-186.5"/>
<text text-anchor="middle" x="560" y="-193.5" font-family="Helvetica,sans-Serif" font-size="10.00">utility</text>
</g>
<!-- Node3&#45;&gt;Node33 -->
<g id="edge41" class="edge"><title>Node3&#45;&gt;Node33</title>
<path fill="none" stroke="midnightblue" d="M597.585,-248.679C590.175,-238.49 580.188,-224.759 572.372,-214.011"/>
<polygon fill="midnightblue" stroke="midnightblue" points="575.133,-211.857 566.421,-205.828 569.472,-215.974 575.133,-211.857"/>
</g>
<!-- Node4&#45;&gt;Node5 -->
<g id="edge4" class="edge"><title>Node4&#45;&gt;Node5</title>
<path fill="none" stroke="midnightblue" d="M491.456,-112.933C533.324,-101.915 590.54,-86.8579 627.873,-77.0334"/>
<polygon fill="midnightblue" stroke="midnightblue" points="629.066,-80.3386 637.846,-74.4089 627.285,-73.5691 629.066,-80.3386"/>
</g>
<!-- Node6 -->
<g id="node6" class="node"><title>Node6</title>
<polygon fill="none" stroke="#bfbfbf" points="394,-0.5 394,-19.5 432,-19.5 432,-0.5 394,-0.5"/>
<text text-anchor="middle" x="413" y="-7.5" font-family="Helvetica,sans-Serif" font-size="10.00">array</text>
</g>
<!-- Node4&#45;&gt;Node6 -->
<g id="edge5" class="edge"><title>Node4&#45;&gt;Node6</title>
<path fill="none" stroke="midnightblue" d="M421.966,-112.651C412.726,-103.262 401.981,-90.1447 397,-76 391.463,-60.2766 397.154,-41.7669 403.229,-28.5294"/>
<polygon fill="midnightblue" stroke="midnightblue" points="406.372,-30.07 407.77,-19.5678 400.128,-26.9061 406.372,-30.07"/>
</g>
<!-- Node7 -->
<g id="node7" class="node"><title>Node7</title>
<polygon fill="none" stroke="#bfbfbf" points="406.5,-56.5 406.5,-75.5 447.5,-75.5 447.5,-56.5 406.5,-56.5"/>
<text text-anchor="middle" x="427" y="-63.5" font-family="Helvetica,sans-Serif" font-size="10.00">bitset</text>
</g>
<!-- Node4&#45;&gt;Node7 -->
<g id="edge6" class="edge"><title>Node4&#45;&gt;Node7</title>
<path fill="none" stroke="midnightblue" d="M435.393,-112.781C433.91,-104.691 432.035,-94.4617 430.433,-85.725"/>
<polygon fill="midnightblue" stroke="midnightblue" points="433.847,-84.9354 428.601,-75.7305 426.961,-86.1978 433.847,-84.9354"/>
</g>
<!-- Node8 -->
<g id="node8" class="node"><title>Node8</title>
<polygon fill="none" stroke="#bfbfbf" points="220.5,-56.5 220.5,-75.5 269.5,-75.5 269.5,-56.5 220.5,-56.5"/>
<text text-anchor="middle" x="245" y="-63.5" font-family="Helvetica,sans-Serif" font-size="10.00">cassert</text>
</g>
<!-- Node4&#45;&gt;Node8 -->
<g id="edge7" class="edge"><title>Node4&#45;&gt;Node8</title>
<path fill="none" stroke="midnightblue" d="M392.75,-112.933C358.065,-102.15 310.937,-87.4984 279.319,-77.6692"/>
<polygon fill="midnightblue" stroke="midnightblue" points="280.223,-74.2848 269.634,-74.6583 278.144,-80.9693 280.223,-74.2848"/>
</g>
<!-- Node9 -->
<g id="node9" class="node"><title>Node9</title>
<polygon fill="none" stroke="#bfbfbf" points="466,-56.5 466,-75.5 512,-75.5 512,-56.5 466,-56.5"/>
<text text-anchor="middle" x="489" y="-63.5" font-family="Helvetica,sans-Serif" font-size="10.00">cstdint</text>
</g>
<!-- Node4&#45;&gt;Node9 -->
<g id="edge8" class="edge"><title>Node4&#45;&gt;Node9</title>
<path fill="none" stroke="midnightblue" d="M450.086,-112.781C457.574,-103.972 467.218,-92.6262 475.032,-83.4332"/>
<polygon fill="midnightblue" stroke="midnightblue" points="477.769,-85.6167 481.579,-75.7305 472.436,-81.0832 477.769,-85.6167"/>
</g>
<!-- Node10 -->
<g id="node10" class="node"><title>Node10</title>
<polygon fill="none" stroke="#bfbfbf" points="288,-56.5 288,-75.5 350,-75.5 350,-56.5 288,-56.5"/>
<text text-anchor="middle" x="319" y="-63.5" font-family="Helvetica,sans-Serif" font-size="10.00">type_traits</text>
</g>
<!-- Node4&#45;&gt;Node10 -->
<g id="edge9" class="edge"><title>Node4&#45;&gt;Node10</title>
<path fill="none" stroke="midnightblue" d="M410.1,-112.933C390.471,-103.036 364.379,-89.8803 345.151,-80.1852"/>
<polygon fill="midnightblue" stroke="midnightblue" points="346.562,-76.977 336.057,-75.6 343.41,-83.2274 346.562,-76.977"/>
</g>
<!-- Node11 -->
<g id="node11" class="node"><title>Node11</title>
<g id="a_node11"><a xlink:href="../../d9/d52/Common_2MathUtils_2include_2MathUtils_2Utils_8h.html" target="_top" xlink:title="MathUtils/Utils.h">
<polygon fill="none" stroke="black" points="530,-56.5 530,-75.5 620,-75.5 620,-56.5 530,-56.5"/>
<text text-anchor="middle" x="575" y="-63.5" font-family="Helvetica,sans-Serif" font-size="10.00">MathUtils/Utils.h</text>
</a>
</g>
</g>
<!-- Node4&#45;&gt;Node11 -->
<g id="edge10" class="edge"><title>Node4&#45;&gt;Node11</title>
<path fill="none" stroke="midnightblue" d="M470.12,-112.933C493.131,-102.855 523.856,-89.3986 546.099,-79.6575"/>
<polygon fill="midnightblue" stroke="midnightblue" points="547.607,-82.8178 555.363,-75.6 544.799,-76.4058 547.607,-82.8178"/>
</g>
<!-- Node11&#45;&gt;Node6 -->
<g id="edge11" class="edge"><title>Node11&#45;&gt;Node6</title>
<path fill="none" stroke="midnightblue" d="M549.331,-56.4435C520.154,-46.7178 472.629,-30.8764 442.099,-20.6997"/>
<polygon fill="midnightblue" stroke="midnightblue" points="443.042,-17.3246 432.448,-17.4826 440.828,-23.9654 443.042,-17.3246"/>
</g>
<!-- Node12 -->
<g id="node12" class="node"><title>Node12</title>
<polygon fill="none" stroke="#bfbfbf" points="665,-0.5 665,-19.5 709,-19.5 709,-0.5 665,-0.5"/>
<text text-anchor="middle" x="687" y="-7.5" font-family="Helvetica,sans-Serif" font-size="10.00">cmath</text>
</g>
<!-- Node11&#45;&gt;Node12 -->
<g id="edge12" class="edge"><title>Node11&#45;&gt;Node12</title>
<path fill="none" stroke="midnightblue" d="M592.995,-56.324C611.038,-47.6247 639.047,-34.1202 659.803,-24.113"/>
<polygon fill="midnightblue" stroke="midnightblue" points="661.562,-27.1502 669.05,-19.6545 658.522,-20.8449 661.562,-27.1502"/>
</g>
<!-- Node13 -->
<g id="node13" class="node"><title>Node13</title>
<g id="a_node13"><a xlink:href="../../d6/d84/MathConstants_8h.html" target="_top" xlink:title="useful math constants ">
<polygon fill="none" stroke="black" points="467.5,-0.5 467.5,-19.5 646.5,-19.5 646.5,-0.5 467.5,-0.5"/>
<text text-anchor="middle" x="557" y="-7.5" font-family="Helvetica,sans-Serif" font-size="10.00">CommonConstants/MathConstants.h</text>
</a>
</g>
</g>
<!-- Node11&#45;&gt;Node13 -->
<g id="edge13" class="edge"><title>Node11&#45;&gt;Node13</title>
<path fill="none" stroke="midnightblue" d="M572.028,-56.083C569.616,-48.8486 566.136,-38.4087 563.132,-29.3968"/>
<polygon fill="midnightblue" stroke="midnightblue" points="566.4,-28.1311 559.917,-19.7511 559.759,-30.3447 566.4,-28.1311"/>
</g>
<!-- Node15&#45;&gt;Node4 -->
<g id="edge16" class="edge"><title>Node15&#45;&gt;Node4</title>
<path fill="none" stroke="midnightblue" d="M814.816,-186.304C741.197,-175.108 612.512,-155.539 526.285,-142.426"/>
<polygon fill="midnightblue" stroke="midnightblue" points="526.662,-138.943 516.249,-140.9 525.609,-145.863 526.662,-138.943"/>
</g>
<!-- Node15&#45;&gt;Node5 -->
<g id="edge17" class="edge"><title>Node15&#45;&gt;Node5</title>
<path fill="none" stroke="midnightblue" d="M929.216,-194.187C1010.41,-191.683 1152.81,-181.855 1185,-144 1194.21,-133.165 1194.61,-122.482 1185,-112 1152.66,-76.7312 819.065,-69.0212 704.432,-67.4083"/>
<polygon fill="midnightblue" stroke="midnightblue" points="704.398,-63.9076 694.352,-67.2744 704.305,-70.907 704.398,-63.9076"/>
</g>
<!-- Node16 -->
<g id="node16" class="node"><title>Node16</title>
<polygon fill="none" stroke="#bfbfbf" points="869.5,-118.5 869.5,-137.5 964.5,-137.5 964.5,-118.5 869.5,-118.5"/>
<text text-anchor="middle" x="917" y="-125.5" font-family="Helvetica,sans-Serif" font-size="10.00">TDatabasePDG.h</text>
</g>
<!-- Node15&#45;&gt;Node16 -->
<g id="edge18" class="edge"><title>Node15&#45;&gt;Node16</title>
<path fill="none" stroke="midnightblue" d="M881.764,-180.679C888.642,-170.592 897.887,-157.033 905.181,-146.335"/>
<polygon fill="midnightblue" stroke="midnightblue" points="908.239,-148.062 910.981,-137.828 902.455,-144.119 908.239,-148.062"/>
</g>
<!-- Node17 -->
<g id="node17" class="node"><title>Node17</title>
<polygon fill="none" stroke="#bfbfbf" points="983,-118.5 983,-137.5 1075,-137.5 1075,-118.5 983,-118.5"/>
<text text-anchor="middle" x="1029" y="-125.5" font-family="Helvetica,sans-Serif" font-size="10.00">TLorentzVector.h</text>
</g>
<!-- Node15&#45;&gt;Node17 -->
<g id="edge19" class="edge"><title>Node15&#45;&gt;Node17</title>
<path fill="none" stroke="midnightblue" d="M905.68,-180.841C933.446,-169.169 972.461,-152.768 999.126,-141.558"/>
<polygon fill="midnightblue" stroke="midnightblue" points="1000.49,-144.784 1008.35,-137.682 997.773,-138.331 1000.49,-144.784"/>
</g>
<!-- Node18 -->
<g id="node18" class="node"><title>Node18</title>
<polygon fill="none" stroke="#bfbfbf" points="1093.5,-118.5 1093.5,-137.5 1176.5,-137.5 1176.5,-118.5 1093.5,-118.5"/>
<text text-anchor="middle" x="1135" y="-125.5" font-family="Helvetica,sans-Serif" font-size="10.00">TMCProcess.h</text>
</g>
<!-- Node15&#45;&gt;Node18 -->
<g id="edge20" class="edge"><title>Node15&#45;&gt;Node18</title>
<path fill="none" stroke="midnightblue" d="M929.332,-182.025C972.1,-172.149 1031.88,-157.924 1084,-144 1088.33,-142.843 1092.85,-141.585 1097.34,-140.307"/>
<polygon fill="midnightblue" stroke="midnightblue" points="1098.38,-143.649 1107.01,-137.505 1096.43,-136.925 1098.38,-143.649"/>
</g>
<!-- Node19 -->
<g id="node19" class="node"><title>Node19</title>
<polygon fill="none" stroke="#bfbfbf" points="572.5,-118.5 572.5,-137.5 625.5,-137.5 625.5,-118.5 572.5,-118.5"/>
<text text-anchor="middle" x="599" y="-125.5" font-family="Helvetica,sans-Serif" font-size="10.00">TMath.h</text>
</g>
<!-- Node15&#45;&gt;Node19 -->
<g id="edge21" class="edge"><title>Node15&#45;&gt;Node19</title>
<path fill="none" stroke="midnightblue" d="M814.77,-181.164C760.697,-168.092 681.225,-148.879 635.339,-137.785"/>
<polygon fill="midnightblue" stroke="midnightblue" points="636.072,-134.362 625.529,-135.414 634.427,-141.166 636.072,-134.362"/>
</g>
<!-- Node15&#45;&gt;Node20 -->
<g id="edge22" class="edge"><title>Node15&#45;&gt;Node20</title>
<path fill="none" stroke="midnightblue" d="M929.052,-189.61C998.273,-182.384 1118.23,-167.656 1219,-144 1223.14,-143.028 1227.44,-141.854 1231.68,-140.596"/>
<polygon fill="midnightblue" stroke="midnightblue" points="1232.85,-143.897 1241.34,-137.562 1230.75,-137.218 1232.85,-143.897"/>
</g>
<!-- Node21 -->
<g id="node21" class="node"><title>Node21</title>
<polygon fill="none" stroke="#bfbfbf" points="682,-118.5 682,-137.5 768,-137.5 768,-118.5 682,-118.5"/>
<text text-anchor="middle" x="725" y="-125.5" font-family="Helvetica,sans-Serif" font-size="10.00">TParticlePDG.h</text>
</g>
<!-- Node15&#45;&gt;Node21 -->
<g id="edge23" class="edge"><title>Node15&#45;&gt;Node21</title>
<path fill="none" stroke="midnightblue" d="M840.465,-180.841C814.696,-169.272 778.578,-153.055 753.631,-141.855"/>
<polygon fill="midnightblue" stroke="midnightblue" points="754.893,-138.585 744.337,-137.682 752.026,-144.971 754.893,-138.585"/>
</g>
<!-- Node22 -->
<g id="node22" class="node"><title>Node22</title>
<polygon fill="none" stroke="#bfbfbf" points="786.5,-118.5 786.5,-137.5 851.5,-137.5 851.5,-118.5 786.5,-118.5"/>
<text text-anchor="middle" x="819" y="-125.5" font-family="Helvetica,sans-Serif" font-size="10.00">TVector3.h</text>
</g>
<!-- Node15&#45;&gt;Node22 -->
<g id="edge24" class="edge"><title>Node15&#45;&gt;Node22</title>
<path fill="none" stroke="midnightblue" d="M860.5,-180.679C852.236,-170.388 841.07,-156.484 832.402,-145.69"/>
<polygon fill="midnightblue" stroke="midnightblue" points="835.08,-143.434 826.089,-137.828 829.622,-147.817 835.08,-143.434"/>
</g>
<!-- Node23&#45;&gt;Node8 -->
<g id="edge27" class="edge"><title>Node23&#45;&gt;Node8</title>
<path fill="none" stroke="midnightblue" d="M151.604,-112.933C171.819,-102.991 198.721,-89.7601 218.46,-80.0526"/>
<polygon fill="midnightblue" stroke="midnightblue" points="220.084,-83.154 227.513,-75.6 216.995,-76.8726 220.084,-83.154"/>
</g>
<!-- Node23&#45;&gt;Node10 -->
<g id="edge30" class="edge"><title>Node23&#45;&gt;Node10</title>
<path fill="none" stroke="midnightblue" d="M168.953,-112.933C203.156,-102.462 249.275,-88.3445 281.316,-78.5358"/>
<polygon fill="midnightblue" stroke="midnightblue" points="282.654,-81.7866 291.192,-75.5127 280.605,-75.0932 282.654,-81.7866"/>
</g>
<!-- Node24 -->
<g id="node24" class="node"><title>Node24</title>
<polygon fill="none" stroke="#bfbfbf" points="140,-56.5 140,-75.5 202,-75.5 202,-56.5 140,-56.5"/>
<text text-anchor="middle" x="171" y="-63.5" font-family="Helvetica,sans-Serif" font-size="10.00">TNamed.h</text>
</g>
<!-- Node23&#45;&gt;Node24 -->
<g id="edge26" class="edge"><title>Node23&#45;&gt;Node24</title>
<path fill="none" stroke="midnightblue" d="M134.375,-112.781C141.35,-104.062 150.314,-92.8574 157.628,-83.7153"/>
<polygon fill="midnightblue" stroke="midnightblue" points="160.502,-85.7257 164.016,-75.7305 155.036,-81.3528 160.502,-85.7257"/>
</g>
<!-- Node25 -->
<g id="node25" class="node"><title>Node25</title>
<polygon fill="none" stroke="#bfbfbf" points="-0.5,-56.5 -0.5,-75.5 58.5,-75.5 58.5,-56.5 -0.5,-56.5"/>
<text text-anchor="middle" x="29" y="-63.5" font-family="Helvetica,sans-Serif" font-size="10.00">stdexcept</text>
</g>
<!-- Node23&#45;&gt;Node25 -->
<g id="edge28" class="edge"><title>Node23&#45;&gt;Node25</title>
<path fill="none" stroke="midnightblue" d="M100.723,-112.781C85.7067,-103.196 65.983,-90.6062 51.0204,-81.0555"/>
<polygon fill="midnightblue" stroke="midnightblue" points="52.7163,-77.9859 42.4039,-75.5557 48.95,-83.8863 52.7163,-77.9859"/>
</g>
<!-- Node26 -->
<g id="node26" class="node"><title>Node26</title>
<polygon fill="none" stroke="#bfbfbf" points="76.5,-56.5 76.5,-75.5 121.5,-75.5 121.5,-56.5 76.5,-56.5"/>
<text text-anchor="middle" x="99" y="-63.5" font-family="Helvetica,sans-Serif" font-size="10.00">gsl/gsl</text>
</g>
<!-- Node23&#45;&gt;Node26 -->
<g id="edge29" class="edge"><title>Node23&#45;&gt;Node26</title>
<path fill="none" stroke="midnightblue" d="M117.312,-112.781C114.005,-104.512 109.802,-94.006 106.258,-85.1448"/>
<polygon fill="midnightblue" stroke="midnightblue" points="109.456,-83.7154 102.492,-75.7305 102.957,-86.3152 109.456,-83.7154"/>
</g>
<!-- Node27&#45;&gt;Node5 -->
<g id="edge34" class="edge"><title>Node27&#45;&gt;Node5</title>
<path fill="none" stroke="midnightblue" d="M338.219,-181.908C341.187,-181.256 344.128,-180.617 347,-180 425.914,-163.055 452.313,-179.087 525,-144 544.884,-134.402 544.245,-123.651 563,-112 584.51,-98.6371 610.678,-87.259 631.256,-79.2869"/>
<polygon fill="midnightblue" stroke="midnightblue" points="632.748,-82.4645 640.863,-75.6532 630.272,-75.9171 632.748,-82.4645"/>
</g>
<!-- Node27&#45;&gt;Node19 -->
<g id="edge35" class="edge"><title>Node27&#45;&gt;Node19</title>
<path fill="none" stroke="midnightblue" d="M338.197,-181.8C341.171,-181.177 344.119,-180.573 347,-180 440.307,-161.451 466.061,-168.444 558,-144 561.399,-143.096 564.913,-142.027 568.389,-140.883"/>
<polygon fill="midnightblue" stroke="midnightblue" points="569.675,-144.141 577.955,-137.531 567.36,-137.534 569.675,-144.141"/>
</g>
<!-- Node28 -->
<g id="node28" class="node"><title>Node28</title>
<polygon fill="none" stroke="#bfbfbf" points="268,-118.5 268,-137.5 342,-137.5 342,-118.5 268,-118.5"/>
<text text-anchor="middle" x="305" y="-125.5" font-family="Helvetica,sans-Serif" font-size="10.00">TVirtualMC.h</text>
</g>
<!-- Node27&#45;&gt;Node28 -->
<g id="edge32" class="edge"><title>Node27&#45;&gt;Node28</title>
<path fill="none" stroke="midnightblue" d="M286.208,-180.679C289.765,-170.898 294.509,-157.852 298.34,-147.315"/>
<polygon fill="midnightblue" stroke="midnightblue" points="301.661,-148.422 301.79,-137.828 295.083,-146.03 301.661,-148.422"/>
</g>
<!-- Node29 -->
<g id="node29" class="node"><title>Node29</title>
<polygon fill="none" stroke="#bfbfbf" points="198,-118.5 198,-137.5 250,-137.5 250,-118.5 198,-118.5"/>
<text text-anchor="middle" x="224" y="-125.5" font-family="Helvetica,sans-Serif" font-size="10.00">ostream</text>
</g>
<!-- Node27&#45;&gt;Node29 -->
<g id="edge33" class="edge"><title>Node27&#45;&gt;Node29</title>
<path fill="none" stroke="midnightblue" d="M268.632,-180.679C259.744,-170.388 247.736,-156.484 238.414,-145.69"/>
<polygon fill="midnightblue" stroke="midnightblue" points="240.81,-143.109 231.624,-137.828 235.512,-147.684 240.81,-143.109"/>
</g>
<!-- Node40&#45;&gt;Node5 -->
<g id="edge50" class="edge"><title>Node40&#45;&gt;Node5</title>
<path fill="none" stroke="midnightblue" d="M1382.59,-254.157C1371.95,-244.652 1355.52,-228.652 1345,-212 1319.52,-171.67 1344.42,-140.281 1306,-112 1257.58,-76.354 835.513,-68.8258 704.572,-67.3424"/>
<polygon fill="midnightblue" stroke="midnightblue" points="704.271,-63.839 694.234,-67.2311 704.196,-70.8386 704.271,-63.839"/>
</g>
<!-- Node41 -->
<g id="node41" class="node"><title>Node41</title>
<polygon fill="none" stroke="#bfbfbf" points="1353.5,-186.5 1353.5,-205.5 1432.5,-205.5 1432.5,-186.5 1353.5,-186.5"/>
<text text-anchor="middle" x="1393" y="-193.5" font-family="Helvetica,sans-Serif" font-size="10.00">FairDetector.h</text>
</g>
<!-- Node40&#45;&gt;Node41 -->
<g id="edge49" class="edge"><title>Node40&#45;&gt;Node41</title>
<path fill="none" stroke="midnightblue" d="M1393,-254.372C1393,-244.643 1393,-228.528 1393,-215.85"/>
<polygon fill="midnightblue" stroke="midnightblue" points="1396.5,-215.841 1393,-205.841 1389.5,-215.841 1396.5,-215.841"/>
</g>
<!-- Node42 -->
<g id="node42" class="node"><title>Node42</title>
<polygon fill="none" stroke="#bfbfbf" points="1450.5,-186.5 1450.5,-205.5 1509.5,-205.5 1509.5,-186.5 1450.5,-186.5"/>
<text text-anchor="middle" x="1480" y="-193.5" font-family="Helvetica,sans-Serif" font-size="10.00">functional</text>
</g>
<!-- Node40&#45;&gt;Node42 -->
<g id="edge51" class="edge"><title>Node40&#45;&gt;Node42</title>
<path fill="none" stroke="midnightblue" d="M1404.37,-254.372C1418.57,-243.6 1443.09,-225.002 1460.35,-211.906"/>
<polygon fill="midnightblue" stroke="midnightblue" points="1462.77,-214.463 1468.62,-205.63 1458.54,-208.886 1462.77,-214.463"/>
</g>
<!-- Node43 -->
<g id="node43" class="node"><title>Node43</title>
<polygon fill="none" stroke="#bfbfbf" points="1528,-186.5 1528,-205.5 1572,-205.5 1572,-186.5 1528,-186.5"/>
<text text-anchor="middle" x="1550" y="-193.5" font-family="Helvetica,sans-Serif" font-size="10.00">vector</text>
</g>
<!-- Node40&#45;&gt;Node43 -->
<g id="edge52" class="edge"><title>Node40&#45;&gt;Node43</title>
<path fill="none" stroke="midnightblue" d="M1414.82,-254.488C1439.88,-244.623 1482.15,-227.705 1518,-212 1519.58,-211.306 1521.21,-210.583 1522.84,-209.846"/>
<polygon fill="midnightblue" stroke="midnightblue" points="1524.51,-212.931 1532.13,-205.571 1521.59,-206.571 1524.51,-212.931"/>
</g>
<!-- Node45 -->
<g id="node45" class="node"><title>Node45</title>
<g id="a_node45"><a xlink:href="../../d1/ddc/commonConfig_8C.html" target="_top" xlink:title="commonConfig.C">
<polygon fill="none" stroke="black" points="1589.5,-186.5 1589.5,-205.5 1682.5,-205.5 1682.5,-186.5 1589.5,-186.5"/>
<text text-anchor="middle" x="1636" y="-193.5" font-family="Helvetica,sans-Serif" font-size="10.00">commonConfig.C</text>
</a>
</g>
</g>
<!-- Node44&#45;&gt;Node45 -->
<g id="edge54" class="edge"><title>Node44&#45;&gt;Node45</title>
<path fill="none" stroke="midnightblue" d="M1529.08,-254.372C1549.89,-243.205 1586.38,-223.627 1610.86,-210.488"/>
<polygon fill="midnightblue" stroke="midnightblue" points="1612.76,-213.443 1619.92,-205.63 1609.45,-207.275 1612.76,-213.443"/>
</g>
</g>
</svg>
