<?xml version="1.0" encoding="UTF-8" standalone="no"?>
<!DOCTYPE svg PUBLIC "-//W3C//DTD SVG 1.1//EN"
 "http://www.w3.org/Graphics/SVG/1.1/DTD/svg11.dtd">
<!-- Generated by graphviz version 2.36.0 (20140111.2315)
 -->
<!-- Title: /home/travis/build/AliceO2Group/AliceO2/Steer/include/Steer/HitProcessingManager.h Pages: 1 -->
<!--zoomable 242 -->
<svg id="main" version="1.1" xmlns="http://www.w3.org/2000/svg" xmlns:xlink="http://www.w3.org/1999/xlink" xml:space="preserve" onload="init(evt)">
<style type="text/css"><![CDATA[
.edge:hover path { stroke: red; }
.edge:hover polygon { stroke: red; fill: red; }
]]></style>
<script type="text/javascript"><![CDATA[
var edges = document.getElementsByTagName('g');
if (edges && edges.length) {
  for (var i=0;i<edges.length;i++) {
    if (edges[i].id.substr(0,4)=='edge') {
      edges[i].setAttribute('class','edge');
    }
  }
}
]]></script>
        <defs>
                <circle id="rim" cx="0" cy="0" r="7"/>
                <circle id="rim2" cx="0" cy="0" r="3.5"/>
                <g id="zoomPlus">
                        <use xlink:href="#rim" fill="#404040">
                                <set attributeName="fill" to="#808080" begin="zoomplus.mouseover" end="zoomplus.mouseout"/>
                        </use>
                        <path d="M-4,0h8M0,-4v8" fill="none" stroke="white" stroke-width="1.5" pointer-events="none"/>
                </g>
                <g id="zoomMin">
                        <use xlink:href="#rim" fill="#404040">
                                <set attributeName="fill" to="#808080" begin="zoomminus.mouseover" end="zoomminus.mouseout"/>
                        </use>
                        <path d="M-4,0h8" fill="none" stroke="white" stroke-width="1.5" pointer-events="none"/>
                </g>
                <g id="dirArrow">
                        <path fill="none" stroke="white" stroke-width="1.5" d="M0,-3.0v7 M-2.5,-0.5L0,-3.0L2.5,-0.5"/>
                </g>
               <g id="resetDef">
                       <use xlink:href="#rim2" fill="#404040">
                               <set attributeName="fill" to="#808080" begin="reset.mouseover" end="reset.mouseout"/>
                       </use>
               </g>
        </defs>

<script type="text/javascript">
var viewWidth = 727;
var viewHeight = 242;
var sectionId = 'dynsection-0';
</script>
<script xlink:href="../../svgpan.js"/>
<svg id="graph" class="graph">
<g id="viewport">
<title>/home/travis/build/AliceO2Group/AliceO2/Steer/include/Steer/HitProcessingManager.h</title>
<!-- Node1 -->
<g id="node1" class="node"><title>Node1</title>
<polygon fill="#bfbfbf" stroke="black" points="410.767,-181 410.767,-233 577.767,-233 577.767,-181 410.767,-181"/>
<text text-anchor="start" x="418.767" y="-221" font-family="Helvetica,sans-Serif" font-size="10.00">/home/travis/build</text>
<text text-anchor="start" x="418.767" y="-210" font-family="Helvetica,sans-Serif" font-size="10.00">/AliceO2Group/AliceO2</text>
<text text-anchor="start" x="418.767" y="-199" font-family="Helvetica,sans-Serif" font-size="10.00">/Steer/include/Steer/HitProcessing</text>
<text text-anchor="middle" x="494.267" y="-188" font-family="Helvetica,sans-Serif" font-size="10.00">Manager.h</text>
</g>
<!-- Node2 -->
<g id="node2" class="node"><title>Node2</title>
<g id="a_node2"><a xlink:href="../../df/dff/InteractionSampler_8h.html" target="_top" xlink:title="Steer/InteractionSampler.h">
<polygon fill="none" stroke="black" points="127.767,-124.5 127.767,-143.5 260.767,-143.5 260.767,-124.5 127.767,-124.5"/>
<text text-anchor="middle" x="194.267" y="-131.5" font-family="Helvetica,sans-Serif" font-size="10.00">Steer/InteractionSampler.h</text>
</a>
</g>
</g>
<!-- Node1&#45;&gt;Node2 -->
<g id="edge1" class="edge"><title>Node1&#45;&gt;Node2</title>
<path fill="none" stroke="midnightblue" d="M410.7,-186.223C355.575,-173.176 285.45,-156.58 240.213,-145.874"/>
<polygon fill="midnightblue" stroke="midnightblue" points="240.931,-142.447 230.393,-143.55 239.318,-149.259 240.931,-142.447"/>
</g>
<!-- Node7 -->
<g id="node7" class="node"><title>Node7</title>
<polygon fill="none" stroke="#bfbfbf" points="371.267,-62.5 371.267,-81.5 415.267,-81.5 415.267,-62.5 371.267,-62.5"/>
<text text-anchor="middle" x="393.267" y="-69.5" font-family="Helvetica,sans-Serif" font-size="10.00">vector</text>
</g>
<!-- Node1&#45;&gt;Node7 -->
<g id="edge12" class="edge"><title>Node1&#45;&gt;Node7</title>
<path fill="none" stroke="midnightblue" d="M410.482,-184.54C390.716,-175.361 372.001,-162.359 360.267,-144 348.902,-126.219 363.458,-103.892 376.676,-89.0728"/>
<polygon fill="midnightblue" stroke="midnightblue" points="379.346,-91.3439 383.708,-81.6886 374.277,-86.5164 379.346,-91.3439"/>
</g>
<!-- Node10 -->
<g id="node10" class="node"><title>Node10</title>
<polygon fill="none" stroke="#bfbfbf" points="369.267,-124.5 369.267,-143.5 455.267,-143.5 455.267,-124.5 369.267,-124.5"/>
<text text-anchor="middle" x="412.267" y="-131.5" font-family="Helvetica,sans-Serif" font-size="10.00">TGeoManager.h</text>
</g>
<!-- Node1&#45;&gt;Node10 -->
<g id="edge10" class="edge"><title>Node1&#45;&gt;Node10</title>
<path fill="none" stroke="midnightblue" d="M465.126,-180.768C453.474,-170.679 440.423,-159.379 430.205,-150.532"/>
<polygon fill="midnightblue" stroke="midnightblue" points="432.232,-147.657 422.381,-143.757 427.65,-152.949 432.232,-147.657"/>
</g>
<!-- Node11 -->
<g id="node11" class="node"><title>Node11</title>
<polygon fill="none" stroke="#bfbfbf" points="473.767,-124.5 473.767,-143.5 514.767,-143.5 514.767,-124.5 473.767,-124.5"/>
<text text-anchor="middle" x="494.267" y="-131.5" font-family="Helvetica,sans-Serif" font-size="10.00">string</text>
</g>
<!-- Node1&#45;&gt;Node11 -->
<g id="edge11" class="edge"><title>Node1&#45;&gt;Node11</title>
<path fill="none" stroke="midnightblue" d="M494.267,-180.768C494.267,-171.89 494.267,-162.074 494.267,-153.816"/>
<polygon fill="midnightblue" stroke="midnightblue" points="497.767,-153.757 494.267,-143.757 490.767,-153.757 497.767,-153.757"/>
</g>
<!-- Node12 -->
<g id="node12" class="node"><title>Node12</title>
<polygon fill="none" stroke="#bfbfbf" points="532.767,-124.5 532.767,-143.5 567.767,-143.5 567.767,-124.5 532.767,-124.5"/>
<text text-anchor="middle" x="550.267" y="-131.5" font-family="Helvetica,sans-Serif" font-size="10.00">map</text>
</g>
<!-- Node1&#45;&gt;Node12 -->
<g id="edge13" class="edge"><title>Node1&#45;&gt;Node12</title>
<path fill="none" stroke="midnightblue" d="M514.168,-180.768C521.728,-171.183 530.149,-160.506 536.956,-151.877"/>
<polygon fill="midnightblue" stroke="midnightblue" points="539.915,-153.776 543.36,-143.757 534.419,-149.441 539.915,-153.776"/>
</g>
<!-- Node13 -->
<g id="node13" class="node"><title>Node13</title>
<polygon fill="none" stroke="#bfbfbf" points="585.767,-124.5 585.767,-143.5 644.767,-143.5 644.767,-124.5 585.767,-124.5"/>
<text text-anchor="middle" x="615.267" y="-131.5" font-family="Helvetica,sans-Serif" font-size="10.00">functional</text>
</g>
<!-- Node1&#45;&gt;Node13 -->
<g id="edge14" class="edge"><title>Node1&#45;&gt;Node13</title>
<path fill="none" stroke="midnightblue" d="M536.927,-180.968C555.296,-170.19 576.074,-157.997 591.614,-148.879"/>
<polygon fill="midnightblue" stroke="midnightblue" points="593.691,-151.718 600.544,-143.639 590.148,-145.681 593.691,-151.718"/>
</g>
<!-- Node14 -->
<g id="node14" class="node"><title>Node14</title>
<polygon fill="none" stroke="#bfbfbf" points="663.267,-124.5 663.267,-143.5 719.267,-143.5 719.267,-124.5 663.267,-124.5"/>
<text text-anchor="middle" x="691.267" y="-131.5" font-family="Helvetica,sans-Serif" font-size="10.00">TChain.h</text>
</g>
<!-- Node1&#45;&gt;Node14 -->
<g id="edge15" class="edge"><title>Node1&#45;&gt;Node14</title>
<path fill="none" stroke="midnightblue" d="M563.722,-180.968C595.603,-169.478 631.942,-156.381 657.655,-147.114"/>
<polygon fill="midnightblue" stroke="midnightblue" points="659.076,-150.322 667.297,-143.639 656.703,-143.737 659.076,-150.322"/>
</g>
<!-- Node3 -->
<g id="node3" class="node"><title>Node3</title>
<polygon fill="none" stroke="#bfbfbf" points="78.267,-0.5 78.267,-19.5 134.267,-19.5 134.267,-0.5 78.267,-0.5"/>
<text text-anchor="middle" x="106.267" y="-7.5" font-family="Helvetica,sans-Serif" font-size="10.00">Rtypes.h</text>
</g>
<!-- Node2&#45;&gt;Node3 -->
<g id="edge2" class="edge"><title>Node2&#45;&gt;Node3</title>
<path fill="none" stroke="midnightblue" d="M127.383,-125.73C79.649,-119.003 21.337,-107.103 6.267,-88 -2.54168,-76.834 -1.45525,-67.9431 6.267,-56 19.8925,-34.927 45.9981,-23.6245 68.1197,-17.6177"/>
<polygon fill="midnightblue" stroke="midnightblue" points="69.0622,-20.9904 77.9441,-15.2145 67.3989,-14.1909 69.0622,-20.9904"/>
</g>
<!-- Node4 -->
<g id="node4" class="node"><title>Node4</title>
<polygon fill="none" stroke="#bfbfbf" points="15.767,-62.5 15.767,-81.5 68.767,-81.5 68.767,-62.5 15.767,-62.5"/>
<text text-anchor="middle" x="42.267" y="-69.5" font-family="Helvetica,sans-Serif" font-size="10.00">TMath.h</text>
</g>
<!-- Node2&#45;&gt;Node4 -->
<g id="edge3" class="edge"><title>Node2&#45;&gt;Node4</title>
<path fill="none" stroke="midnightblue" d="M171.53,-124.37C148.095,-115.431 110.533,-100.978 78.267,-88 76.3825,-87.242 74.4453,-86.4557 72.4936,-85.658"/>
<polygon fill="midnightblue" stroke="midnightblue" points="73.3706,-82.2337 62.7916,-81.6548 70.7006,-88.7045 73.3706,-82.2337"/>
</g>
<!-- Node5 -->
<g id="node5" class="node"><title>Node5</title>
<polygon fill="none" stroke="#bfbfbf" points="87.267,-62.5 87.267,-81.5 155.267,-81.5 155.267,-62.5 87.267,-62.5"/>
<text text-anchor="middle" x="121.267" y="-69.5" font-family="Helvetica,sans-Serif" font-size="10.00">TRandom.h</text>
</g>
<!-- Node2&#45;&gt;Node5 -->
<g id="edge4" class="edge"><title>Node2&#45;&gt;Node5</title>
<path fill="none" stroke="midnightblue" d="M183.808,-124.403C172.316,-114.958 153.637,-99.6056 139.68,-88.1342"/>
<polygon fill="midnightblue" stroke="midnightblue" points="141.655,-85.2264 131.707,-81.5806 137.21,-90.6342 141.655,-85.2264"/>
</g>
<!-- Node6 -->
<g id="node6" class="node"><title>Node6</title>
<polygon fill="none" stroke="#bfbfbf" points="173.767,-62.5 173.767,-81.5 214.767,-81.5 214.767,-62.5 173.767,-62.5"/>
<text text-anchor="middle" x="194.267" y="-69.5" font-family="Helvetica,sans-Serif" font-size="10.00">bitset</text>
</g>
<!-- Node2&#45;&gt;Node6 -->
<g id="edge5" class="edge"><title>Node2&#45;&gt;Node6</title>
<path fill="none" stroke="midnightblue" d="M194.267,-124.403C194.267,-115.938 194.267,-102.728 194.267,-91.8199"/>
<polygon fill="midnightblue" stroke="midnightblue" points="197.767,-91.5806 194.267,-81.5806 190.767,-91.5806 197.767,-91.5806"/>
</g>
<!-- Node2&#45;&gt;Node7 -->
<g id="edge6" class="edge"><title>Node2&#45;&gt;Node7</title>
<path fill="none" stroke="midnightblue" d="M234.647,-124.445C269.099,-116.613 319.676,-103.846 362.267,-88 364.116,-87.312 366.004,-86.5521 367.889,-85.7503"/>
<polygon fill="midnightblue" stroke="midnightblue" points="369.472,-88.8749 377.109,-81.5308 366.559,-82.5098 369.472,-88.8749"/>
</g>
<!-- Node8 -->
<g id="node8" class="node"><title>Node8</title>
<g id="a_node8"><a xlink:href="../../d1/dbe/MCInteractionRecord_8h.html" target="_top" xlink:title="SimulationDataFormat\l/MCInteractionRecord.h">
<polygon fill="none" stroke="black" points="232.767,-57 232.767,-87 353.767,-87 353.767,-57 232.767,-57"/>
<text text-anchor="start" x="240.767" y="-75" font-family="Helvetica,sans-Serif" font-size="10.00">SimulationDataFormat</text>
<text text-anchor="middle" x="293.267" y="-64" font-family="Helvetica,sans-Serif" font-size="10.00">/MCInteractionRecord.h</text>
</a>
</g>
</g>
<!-- Node2&#45;&gt;Node8 -->
<g id="edge7" class="edge"><title>Node2&#45;&gt;Node8</title>
<path fill="none" stroke="midnightblue" d="M208.451,-124.403C222.11,-116.125 243.254,-103.311 261.014,-92.5474"/>
<polygon fill="midnightblue" stroke="midnightblue" points="263.197,-95.3171 269.935,-87.1408 259.569,-89.3307 263.197,-95.3171"/>
</g>
<!-- Node8&#45;&gt;Node3 -->
<g id="edge8" class="edge"><title>Node8&#45;&gt;Node3</title>
<path fill="none" stroke="midnightblue" d="M249.424,-56.9327C216.933,-46.5077 173.172,-32.4667 142.618,-22.6635"/>
<polygon fill="midnightblue" stroke="midnightblue" points="143.389,-19.2353 132.798,-19.5127 141.251,-25.9006 143.389,-19.2353"/>
</g>
<!-- Node9 -->
<g id="node9" class="node"><title>Node9</title>
<polygon fill="none" stroke="#bfbfbf" points="270.767,-0.5 270.767,-19.5 315.767,-19.5 315.767,-0.5 270.767,-0.5"/>
<text text-anchor="middle" x="293.267" y="-7.5" font-family="Helvetica,sans-Serif" font-size="10.00">iosfwd</text>
</g>
<!-- Node8&#45;&gt;Node9 -->
<g id="edge9" class="edge"><title>Node8&#45;&gt;Node9</title>
<path fill="none" stroke="midnightblue" d="M293.267,-56.7808C293.267,-48.7812 293.267,-38.6887 293.267,-30.0168"/>
<polygon fill="midnightblue" stroke="midnightblue" points="296.767,-29.7305 293.267,-19.7305 289.767,-29.7306 296.767,-29.7305"/>
</g>
</g>
</svg>
        <g id="navigator" transform="translate(0 0)" fill="#404254">
                <rect fill="#f2f5e9" fill-opacity="0.5" stroke="#606060" stroke-width=".5" x="0" y="0" width="60" height="60"/>
                <use id="zoomplus" xlink:href="#zoomPlus" x="17" y="9" onmousedown="handleZoom(evt,'in')"/>
                <use id="zoomminus" xlink:href="#zoomMin" x="42" y="9" onmousedown="handleZoom(evt,'out')"/>
                <use id="reset" xlink:href="#resetDef" x="30" y="36" onmousedown="handleReset()"/>
                <g id="arrowUp" xlink:href="#dirArrow" transform="translate(30 24)" onmousedown="handlePan(0,-1)">
                  <use xlink:href="#rim" fill="#404040">
                        <set attributeName="fill" to="#808080" begin="arrowUp.mouseover" end="arrowUp.mouseout"/>
                  </use>
                  <path fill="none" stroke="white" stroke-width="1.5" d="M0,-3.0v7 M-2.5,-0.5L0,-3.0L2.5,-0.5"/>
                </g>
                <g id="arrowRight" xlink:href="#dirArrow" transform="rotate(90) translate(36 -43)" onmousedown="handlePan(1,0)">
                  <use xlink:href="#rim" fill="#404040">
                        <set attributeName="fill" to="#808080" begin="arrowRight.mouseover" end="arrowRight.mouseout"/>
                  </use>
                  <path fill="none" stroke="white" stroke-width="1.5" d="M0,-3.0v7 M-2.5,-0.5L0,-3.0L2.5,-0.5"/>
                </g>
                <g id="arrowDown" xlink:href="#dirArrow" transform="rotate(180) translate(-30 -48)" onmousedown="handlePan(0,1)">
                  <use xlink:href="#rim" fill="#404040">
                        <set attributeName="fill" to="#808080" begin="arrowDown.mouseover" end="arrowDown.mouseout"/>
                  </use>
                  <path fill="none" stroke="white" stroke-width="1.5" d="M0,-3.0v7 M-2.5,-0.5L0,-3.0L2.5,-0.5"/>
                </g>
                <g id="arrowLeft" xlink:href="#dirArrow" transform="rotate(270) translate(-36 17)" onmousedown="handlePan(-1,0)">
                  <use xlink:href="#rim" fill="#404040">
                        <set attributeName="fill" to="#808080" begin="arrowLeft.mouseover" end="arrowLeft.mouseout"/>
                  </use>
                  <path fill="none" stroke="white" stroke-width="1.5" d="M0,-3.0v7 M-2.5,-0.5L0,-3.0L2.5,-0.5"/>
                </g>
        </g>
        <svg viewBox="0 0 15 15" width="100%" height="30px" preserveAspectRatio="xMaxYMin meet">
         <g id="arrow_out" transform="scale(0.3 0.3)">
          <a xlink:href="HitProcessingManager_8h__incl_org.svg" target="_base">
           <rect id="button" ry="5" rx="5" y="6" x="6" height="38" width="38"
                fill="#f2f5e9" fill-opacity="0.5" stroke="#606060" stroke-width="1.0"/>
           <path id="arrow"
             d="M 11.500037,31.436501 C 11.940474,20.09759 22.043105,11.32322 32.158766,21.979434 L 37.068811,17.246167 C 37.068811,17.246167 37.088388,32 37.088388,32 L 22.160133,31.978069 C 22.160133,31.978069 26.997745,27.140456 26.997745,27.140456 C 18.528582,18.264221 13.291696,25.230495 11.500037,31.436501 z"
             style="fill:#404040;"/>
          </a>
         </g>
        </svg>
</svg>
