<?xml version="1.0" encoding="UTF-8" standalone="no"?>
<!DOCTYPE svg PUBLIC "-//W3C//DTD SVG 1.1//EN"
 "http://www.w3.org/Graphics/SVG/1.1/DTD/svg11.dtd">
<!-- Generated by graphviz version 2.36.0 (20140111.2315)
 -->
<!-- Title: /home/travis/build/AliceO2Group/AliceO2/Detectors/PHOS/testsimulation/drawPHOSgeometry.C Pages: 1 -->
<!--zoomable 434 -->
<svg id="main" version="1.1" xmlns="http://www.w3.org/2000/svg" xmlns:xlink="http://www.w3.org/1999/xlink" xml:space="preserve" onload="init(evt)">
<style type="text/css"><![CDATA[
.edge:hover path { stroke: red; }
.edge:hover polygon { stroke: red; fill: red; }
]]></style>
<script type="text/javascript"><![CDATA[
var edges = document.getElementsByTagName('g');
if (edges && edges.length) {
  for (var i=0;i<edges.length;i++) {
    if (edges[i].id.substr(0,4)=='edge') {
      edges[i].setAttribute('class','edge');
    }
  }
}
]]></script>
        <defs>
                <circle id="rim" cx="0" cy="0" r="7"/>
                <circle id="rim2" cx="0" cy="0" r="3.5"/>
                <g id="zoomPlus">
                        <use xlink:href="#rim" fill="#404040">
                                <set attributeName="fill" to="#808080" begin="zoomplus.mouseover" end="zoomplus.mouseout"/>
                        </use>
                        <path d="M-4,0h8M0,-4v8" fill="none" stroke="white" stroke-width="1.5" pointer-events="none"/>
                </g>
                <g id="zoomMin">
                        <use xlink:href="#rim" fill="#404040">
                                <set attributeName="fill" to="#808080" begin="zoomminus.mouseover" end="zoomminus.mouseout"/>
                        </use>
                        <path d="M-4,0h8" fill="none" stroke="white" stroke-width="1.5" pointer-events="none"/>
                </g>
                <g id="dirArrow">
                        <path fill="none" stroke="white" stroke-width="1.5" d="M0,-3.0v7 M-2.5,-0.5L0,-3.0L2.5,-0.5"/>
                </g>
               <g id="resetDef">
                       <use xlink:href="#rim2" fill="#404040">
                               <set attributeName="fill" to="#808080" begin="reset.mouseover" end="reset.mouseout"/>
                       </use>
               </g>
        </defs>

<script type="text/javascript">
var viewWidth = 1715;
var viewHeight = 434;
var sectionId = 'dynsection-0';
</script>
<script xlink:href="../../svgpan.js"/>
<svg id="graph" class="graph">
<g id="viewport">
<title>/home/travis/build/AliceO2Group/AliceO2/Detectors/PHOS/testsimulation/drawPHOSgeometry.C</title>
<!-- Node1 -->
<g id="node1" class="node"><title>Node1</title>
<polygon fill="#bfbfbf" stroke="black" points="1124.91,-373 1124.91,-425 1282.91,-425 1282.91,-373 1124.91,-373"/>
<text text-anchor="start" x="1132.91" y="-413" font-family="Helvetica,sans-Serif" font-size="10.00">/home/travis/build</text>
<text text-anchor="start" x="1132.91" y="-402" font-family="Helvetica,sans-Serif" font-size="10.00">/AliceO2Group/AliceO2</text>
<text text-anchor="start" x="1132.91" y="-391" font-family="Helvetica,sans-Serif" font-size="10.00">/Detectors/PHOS/testsimulation</text>
<text text-anchor="middle" x="1203.91" y="-380" font-family="Helvetica,sans-Serif" font-size="10.00">/drawPHOSgeometry.C</text>
</g>
<!-- Node2 -->
<g id="node2" class="node"><title>Node2</title>
<g id="a_node2"><a xlink:href="../../d9/d6d/Cave_8h.html" target="_top" xlink:title="DetectorsPassive/Cave.h">
<polygon fill="none" stroke="black" points="106.412,-260.5 106.412,-279.5 235.412,-279.5 235.412,-260.5 106.412,-260.5"/>
<text text-anchor="middle" x="170.912" y="-267.5" font-family="Helvetica,sans-Serif" font-size="10.00">DetectorsPassive/Cave.h</text>
</a>
</g>
</g>
<!-- Node1&#45;&gt;Node2 -->
<g id="edge1" class="edge"><title>Node1&#45;&gt;Node2</title>
<path fill="none" stroke="midnightblue" d="M1124.86,-390.677C1011.86,-379.98 797.711,-358.853 615.912,-336 479.733,-318.882 320.747,-294.624 234.488,-281.103"/>
<polygon fill="midnightblue" stroke="midnightblue" points="235.012,-277.642 224.59,-279.549 233.926,-284.558 235.012,-277.642"/>
</g>
<!-- Node7 -->
<g id="node7" class="node"><title>Node7</title>
<g id="a_node7"><a xlink:href="../../d2/d69/FrameStructure_8h.html" target="_top" xlink:title="DetectorsPassive/FrameStructure.h">
<polygon fill="none" stroke="black" points="783.412,-316.5 783.412,-335.5 956.412,-335.5 956.412,-316.5 783.412,-316.5"/>
<text text-anchor="middle" x="869.912" y="-323.5" font-family="Helvetica,sans-Serif" font-size="10.00">DetectorsPassive/FrameStructure.h</text>
</a>
</g>
</g>
<!-- Node1&#45;&gt;Node7 -->
<g id="edge6" class="edge"><title>Node1&#45;&gt;Node7</title>
<path fill="none" stroke="midnightblue" d="M1124.76,-381.174C1061.33,-367.69 974.264,-349.183 920.081,-337.665"/>
<polygon fill="midnightblue" stroke="midnightblue" points="920.539,-334.184 910.03,-335.528 919.083,-341.031 920.539,-334.184"/>
</g>
<!-- Node9 -->
<g id="node9" class="node"><title>Node9</title>
<polygon fill="none" stroke="#bfbfbf" points="974.412,-316.5 974.412,-335.5 1051.41,-335.5 1051.41,-316.5 974.412,-316.5"/>
<text text-anchor="middle" x="1012.91" y="-323.5" font-family="Helvetica,sans-Serif" font-size="10.00">FairRunSim.h</text>
</g>
<!-- Node1&#45;&gt;Node9 -->
<g id="edge8" class="edge"><title>Node1&#45;&gt;Node9</title>
<path fill="none" stroke="midnightblue" d="M1136.57,-372.968C1105.8,-361.529 1070.74,-348.497 1045.83,-339.237"/>
<polygon fill="midnightblue" stroke="midnightblue" points="1046.75,-335.843 1036.15,-335.639 1044.31,-342.404 1046.75,-335.843"/>
</g>
<!-- Node10 -->
<g id="node10" class="node"><title>Node10</title>
<polygon fill="none" stroke="#bfbfbf" points="1069.91,-316.5 1069.91,-335.5 1155.91,-335.5 1155.91,-316.5 1069.91,-316.5"/>
<text text-anchor="middle" x="1112.91" y="-323.5" font-family="Helvetica,sans-Serif" font-size="10.00">TGeoManager.h</text>
</g>
<!-- Node1&#45;&gt;Node10 -->
<g id="edge9" class="edge"><title>Node1&#45;&gt;Node10</title>
<path fill="none" stroke="midnightblue" d="M1171.83,-372.968C1158.62,-362.66 1143.75,-351.059 1132.25,-342.09"/>
<polygon fill="midnightblue" stroke="midnightblue" points="1134.24,-339.202 1124.2,-335.81 1129.93,-344.72 1134.24,-339.202"/>
</g>
<!-- Node11 -->
<g id="node11" class="node"><title>Node11</title>
<g id="a_node11"><a xlink:href="../../d4/dd8/PHOS_2simulation_2include_2PHOSSimulation_2Detector_8h.html" target="_top" xlink:title="PHOSSimulation/Detector.h">
<polygon fill="none" stroke="black" points="624.912,-316.5 624.912,-335.5 764.912,-335.5 764.912,-316.5 624.912,-316.5"/>
<text text-anchor="middle" x="694.912" y="-323.5" font-family="Helvetica,sans-Serif" font-size="10.00">PHOSSimulation/Detector.h</text>
</a>
</g>
</g>
<!-- Node1&#45;&gt;Node11 -->
<g id="edge10" class="edge"><title>Node1&#45;&gt;Node11</title>
<path fill="none" stroke="midnightblue" d="M1124.66,-386.945C1026.39,-373.238 860.362,-350.078 766.023,-336.919"/>
<polygon fill="midnightblue" stroke="midnightblue" points="766.391,-333.437 756.003,-335.521 765.424,-340.37 766.391,-333.437"/>
</g>
<!-- Node35 -->
<g id="node35" class="node"><title>Node35</title>
<polygon fill="none" stroke="#bfbfbf" points="1174.41,-316.5 1174.41,-335.5 1233.41,-335.5 1233.41,-316.5 1174.41,-316.5"/>
<text text-anchor="middle" x="1203.91" y="-323.5" font-family="Helvetica,sans-Serif" font-size="10.00">TROOT.h</text>
</g>
<!-- Node1&#45;&gt;Node35 -->
<g id="edge44" class="edge"><title>Node1&#45;&gt;Node35</title>
<path fill="none" stroke="midnightblue" d="M1203.91,-372.768C1203.91,-363.89 1203.91,-354.074 1203.91,-345.816"/>
<polygon fill="midnightblue" stroke="midnightblue" points="1207.41,-345.757 1203.91,-335.757 1200.41,-345.757 1207.41,-345.757"/>
</g>
<!-- Node36 -->
<g id="node36" class="node"><title>Node36</title>
<polygon fill="none" stroke="#bfbfbf" points="1251.91,-316.5 1251.91,-335.5 1307.91,-335.5 1307.91,-316.5 1251.91,-316.5"/>
<text text-anchor="middle" x="1279.91" y="-323.5" font-family="Helvetica,sans-Serif" font-size="10.00">TString.h</text>
</g>
<!-- Node1&#45;&gt;Node36 -->
<g id="edge45" class="edge"><title>Node1&#45;&gt;Node36</title>
<path fill="none" stroke="midnightblue" d="M1230.92,-372.768C1241.61,-362.78 1253.57,-351.605 1263,-342.798"/>
<polygon fill="midnightblue" stroke="midnightblue" points="1265.62,-345.141 1270.54,-335.757 1260.84,-340.026 1265.62,-345.141"/>
</g>
<!-- Node37 -->
<g id="node37" class="node"><title>Node37</title>
<polygon fill="none" stroke="#bfbfbf" points="1326.41,-316.5 1326.41,-335.5 1391.41,-335.5 1391.41,-316.5 1326.41,-316.5"/>
<text text-anchor="middle" x="1358.91" y="-323.5" font-family="Helvetica,sans-Serif" font-size="10.00">TSystem.h</text>
</g>
<!-- Node1&#45;&gt;Node37 -->
<g id="edge46" class="edge"><title>Node1&#45;&gt;Node37</title>
<path fill="none" stroke="midnightblue" d="M1258.56,-372.968C1282.98,-361.783 1310.72,-349.075 1330.84,-339.86"/>
<polygon fill="midnightblue" stroke="midnightblue" points="1332.42,-342.986 1340.05,-335.639 1329.5,-336.621 1332.42,-342.986"/>
</g>
<!-- Node38 -->
<g id="node38" class="node"><title>Node38</title>
<polygon fill="none" stroke="#bfbfbf" points="1409.91,-316.5 1409.91,-335.5 1543.91,-335.5 1543.91,-316.5 1409.91,-316.5"/>
<text text-anchor="middle" x="1476.91" y="-323.5" font-family="Helvetica,sans-Serif" font-size="10.00">boost/program_options.hpp</text>
</g>
<!-- Node1&#45;&gt;Node38 -->
<g id="edge47" class="edge"><title>Node1&#45;&gt;Node38</title>
<path fill="none" stroke="midnightblue" d="M1283.24,-377.368C1332.59,-364.535 1394.1,-348.538 1434.38,-338.06"/>
<polygon fill="midnightblue" stroke="midnightblue" points="1435.35,-341.425 1444.15,-335.521 1433.59,-334.65 1435.35,-341.425"/>
</g>
<!-- Node39 -->
<g id="node39" class="node"><title>Node39</title>
<polygon fill="none" stroke="#bfbfbf" points="1561.91,-316.5 1561.91,-335.5 1611.91,-335.5 1611.91,-316.5 1561.91,-316.5"/>
<text text-anchor="middle" x="1586.91" y="-323.5" font-family="Helvetica,sans-Serif" font-size="10.00">iomanip</text>
</g>
<!-- Node1&#45;&gt;Node39 -->
<g id="edge48" class="edge"><title>Node1&#45;&gt;Node39</title>
<path fill="none" stroke="midnightblue" d="M1282.94,-385.88C1351.63,-374.905 1453.97,-357.498 1551.95,-336.072"/>
<polygon fill="midnightblue" stroke="midnightblue" points="1552.71,-339.488 1561.72,-333.918 1551.2,-332.653 1552.71,-339.488"/>
</g>
<!-- Node40 -->
<g id="node40" class="node"><title>Node40</title>
<polygon fill="none" stroke="#bfbfbf" points="1629.91,-316.5 1629.91,-335.5 1683.91,-335.5 1683.91,-316.5 1629.91,-316.5"/>
<text text-anchor="middle" x="1656.91" y="-323.5" font-family="Helvetica,sans-Serif" font-size="10.00">iostream</text>
</g>
<!-- Node1&#45;&gt;Node40 -->
<g id="edge49" class="edge"><title>Node1&#45;&gt;Node40</title>
<path fill="none" stroke="midnightblue" d="M1283.09,-388.561C1365.04,-378.262 1496.9,-360.215 1619.88,-336.043"/>
<polygon fill="midnightblue" stroke="midnightblue" points="1620.72,-339.444 1629.85,-334.066 1619.36,-332.578 1620.72,-339.444"/>
</g>
<!-- Node3 -->
<g id="node3" class="node"><title>Node3</title>
<polygon fill="none" stroke="#bfbfbf" points="131.412,-198.5 131.412,-217.5 210.412,-217.5 210.412,-198.5 131.412,-198.5"/>
<text text-anchor="middle" x="170.912" y="-205.5" font-family="Helvetica,sans-Serif" font-size="10.00">FairDetector.h</text>
</g>
<!-- Node2&#45;&gt;Node3 -->
<g id="edge2" class="edge"><title>Node2&#45;&gt;Node3</title>
<path fill="none" stroke="midnightblue" d="M170.912,-260.403C170.912,-251.938 170.912,-238.728 170.912,-227.82"/>
<polygon fill="midnightblue" stroke="midnightblue" points="174.413,-227.581 170.912,-217.581 167.413,-227.581 174.413,-227.581"/>
</g>
<!-- Node4 -->
<g id="node4" class="node"><title>Node4</title>
<polygon fill="none" stroke="#bfbfbf" points="468.912,-74.5 468.912,-93.5 524.912,-93.5 524.912,-74.5 468.912,-74.5"/>
<text text-anchor="middle" x="496.912" y="-81.5" font-family="Helvetica,sans-Serif" font-size="10.00">Rtypes.h</text>
</g>
<!-- Node2&#45;&gt;Node4 -->
<g id="edge3" class="edge"><title>Node2&#45;&gt;Node4</title>
<path fill="none" stroke="midnightblue" d="M156.251,-260.402C144.506,-252.585 128.881,-239.862 121.912,-224 116.192,-210.979 113.346,-203.353 121.912,-192 163.01,-137.536 371.851,-102.506 458.821,-90.07"/>
<polygon fill="midnightblue" stroke="midnightblue" points="459.389,-93.5247 468.803,-88.6656 458.413,-86.593 459.389,-93.5247"/>
</g>
<!-- Node5 -->
<g id="node5" class="node"><title>Node5</title>
<polygon fill="none" stroke="#bfbfbf" points="15.4125,-198.5 15.4125,-217.5 74.4125,-217.5 74.4125,-198.5 15.4125,-198.5"/>
<text text-anchor="middle" x="44.9125" y="-205.5" font-family="Helvetica,sans-Serif" font-size="10.00">functional</text>
</g>
<!-- Node2&#45;&gt;Node5 -->
<g id="edge4" class="edge"><title>Node2&#45;&gt;Node5</title>
<path fill="none" stroke="midnightblue" d="M152.86,-260.403C131.714,-250.334 96.4721,-233.552 72.0343,-221.915"/>
<polygon fill="midnightblue" stroke="midnightblue" points="73.4651,-218.72 62.9317,-217.581 70.4556,-225.04 73.4651,-218.72"/>
</g>
<!-- Node6 -->
<g id="node6" class="node"><title>Node6</title>
<polygon fill="none" stroke="#bfbfbf" points="227.912,-198.5 227.912,-217.5 271.912,-217.5 271.912,-198.5 227.912,-198.5"/>
<text text-anchor="middle" x="249.912" y="-205.5" font-family="Helvetica,sans-Serif" font-size="10.00">vector</text>
</g>
<!-- Node2&#45;&gt;Node6 -->
<g id="edge5" class="edge"><title>Node2&#45;&gt;Node6</title>
<path fill="none" stroke="midnightblue" d="M182.231,-260.403C194.785,-250.869 215.264,-235.315 230.412,-223.811"/>
<polygon fill="midnightblue" stroke="midnightblue" points="232.768,-226.416 238.615,-217.581 228.534,-220.842 232.768,-226.416"/>
</g>
<!-- Node8 -->
<g id="node8" class="node"><title>Node8</title>
<polygon fill="none" stroke="#bfbfbf" points="1226.41,-260.5 1226.41,-279.5 1299.41,-279.5 1299.41,-260.5 1226.41,-260.5"/>
<text text-anchor="middle" x="1262.91" y="-267.5" font-family="Helvetica,sans-Serif" font-size="10.00">FairModule.h</text>
</g>
<!-- Node7&#45;&gt;Node8 -->
<g id="edge7" class="edge"><title>Node7&#45;&gt;Node8</title>
<path fill="none" stroke="midnightblue" d="M941.77,-316.474C1011.07,-308.034 1118.84,-294.329 1211.91,-280 1213.36,-279.778 1214.82,-279.547 1216.3,-279.311"/>
<polygon fill="midnightblue" stroke="midnightblue" points="1216.88,-282.764 1226.17,-277.682 1215.74,-275.857 1216.88,-282.764"/>
</g>
<!-- Node11&#45;&gt;Node4 -->
<g id="edge41" class="edge"><title>Node11&#45;&gt;Node4</title>
<path fill="none" stroke="midnightblue" d="M624.897,-323.866C488.762,-320.985 193.293,-311.233 96.9125,-280 51.7363,-265.36 29.0778,-265.456 5.91249,-224 -1.02514,-211.585 -2.44368,-203.509 5.91249,-192 59.4345,-118.287 352.36,-93.6342 458.494,-87.0517"/>
<polygon fill="midnightblue" stroke="midnightblue" points="458.979,-90.5291 468.751,-86.4362 458.56,-83.5416 458.979,-90.5291"/>
</g>
<!-- Node11&#45;&gt;Node6 -->
<g id="edge43" class="edge"><title>Node11&#45;&gt;Node6</title>
<path fill="none" stroke="midnightblue" d="M645.49,-316.45C566.847,-302.071 409.021,-270.035 280.912,-224 279.056,-223.333 277.162,-222.588 275.273,-221.798"/>
<polygon fill="midnightblue" stroke="midnightblue" points="276.596,-218.555 266.044,-217.602 273.699,-224.927 276.596,-218.555"/>
</g>
<!-- Node12 -->
<g id="node12" class="node"><title>Node12</title>
<g id="a_node12"><a xlink:href="../../d1/d3a/Base_2include_2DetectorsBase_2Detector_8h.html" target="_top" xlink:title="DetectorsBase/Detector.h">
<polygon fill="none" stroke="black" points="629.412,-260.5 629.412,-279.5 760.412,-279.5 760.412,-260.5 629.412,-260.5"/>
<text text-anchor="middle" x="694.912" y="-267.5" font-family="Helvetica,sans-Serif" font-size="10.00">DetectorsBase/Detector.h</text>
</a>
</g>
</g>
<!-- Node11&#45;&gt;Node12 -->
<g id="edge11" class="edge"><title>Node11&#45;&gt;Node12</title>
<path fill="none" stroke="midnightblue" d="M694.912,-316.083C694.912,-309.006 694.912,-298.861 694.912,-289.986"/>
<polygon fill="midnightblue" stroke="midnightblue" points="698.413,-289.751 694.912,-279.751 691.413,-289.751 698.413,-289.751"/>
</g>
<!-- Node13 -->
<g id="node13" class="node"><title>Node13</title>
<polygon fill="none" stroke="#bfbfbf" points="934.412,-136.5 934.412,-155.5 969.412,-155.5 969.412,-136.5 934.412,-136.5"/>
<text text-anchor="middle" x="951.912" y="-143.5" font-family="Helvetica,sans-Serif" font-size="10.00">map</text>
</g>
<!-- Node11&#45;&gt;Node13 -->
<g id="edge42" class="edge"><title>Node11&#45;&gt;Node13</title>
<path fill="none" stroke="midnightblue" d="M730.362,-316.476C795.188,-300.093 928.624,-262.415 954.912,-224 966.688,-206.792 963.013,-181.996 958.336,-165.23"/>
<polygon fill="midnightblue" stroke="midnightblue" points="961.622,-164.012 955.27,-155.532 954.948,-166.122 961.622,-164.012"/>
</g>
<!-- Node21 -->
<g id="node21" class="node"><title>Node21</title>
<g id="a_node21"><a xlink:href="../../dd/d76/Cartesian3D_8h.html" target="_top" xlink:title="MathUtils/Cartesian3D.h">
<polygon fill="none" stroke="black" points="1095.41,-136.5 1095.41,-155.5 1220.41,-155.5 1220.41,-136.5 1095.41,-136.5"/>
<text text-anchor="middle" x="1157.91" y="-143.5" font-family="Helvetica,sans-Serif" font-size="10.00">MathUtils/Cartesian3D.h</text>
</a>
</g>
</g>
<!-- Node11&#45;&gt;Node21 -->
<g id="edge25" class="edge"><title>Node11&#45;&gt;Node21</title>
<path fill="none" stroke="midnightblue" d="M765.117,-316.941C768.088,-316.619 771.03,-316.304 773.912,-316 856.066,-307.324 1073.68,-323.503 1143.91,-280 1179.69,-257.835 1188.03,-233.092 1178.91,-192 1176.79,-182.426 1172.41,-172.476 1168.19,-164.374"/>
<polygon fill="midnightblue" stroke="midnightblue" points="1171.21,-162.601 1163.3,-155.557 1165.09,-165.999 1171.21,-162.601"/>
</g>
<!-- Node32 -->
<g id="node32" class="node"><title>Node32</title>
<g id="a_node32"><a xlink:href="../../d1/def/PHOS_2base_2include_2PHOSBase_2Hit_8h.html" target="_top" xlink:title="PHOSBase/Hit.h">
<polygon fill="none" stroke="black" points="1042.91,-260.5 1042.91,-279.5 1134.91,-279.5 1134.91,-260.5 1042.91,-260.5"/>
<text text-anchor="middle" x="1088.91" y="-267.5" font-family="Helvetica,sans-Serif" font-size="10.00">PHOSBase/Hit.h</text>
</a>
</g>
</g>
<!-- Node11&#45;&gt;Node32 -->
<g id="edge37" class="edge"><title>Node11&#45;&gt;Node32</title>
<path fill="none" stroke="midnightblue" d="M757.343,-316.444C833.193,-306.048 960.024,-288.665 1032.87,-278.681"/>
<polygon fill="midnightblue" stroke="midnightblue" points="1033.35,-282.149 1042.78,-277.323 1032.4,-275.213 1033.35,-282.149"/>
</g>
<!-- Node34 -->
<g id="node34" class="node"><title>Node34</title>
<polygon fill="none" stroke="#bfbfbf" points="530.912,-260.5 530.912,-279.5 610.912,-279.5 610.912,-260.5 530.912,-260.5"/>
<text text-anchor="middle" x="570.912" y="-267.5" font-family="Helvetica,sans-Serif" font-size="10.00">RStringView.h</text>
</g>
<!-- Node11&#45;&gt;Node34 -->
<g id="edge40" class="edge"><title>Node11&#45;&gt;Node34</title>
<path fill="none" stroke="midnightblue" d="M675.264,-316.444C654.948,-307.596 623.01,-293.687 599.815,-283.586"/>
<polygon fill="midnightblue" stroke="midnightblue" points="601.035,-280.3 590.469,-279.516 598.24,-286.718 601.035,-280.3"/>
</g>
<!-- Node12&#45;&gt;Node3 -->
<g id="edge15" class="edge"><title>Node12&#45;&gt;Node3</title>
<path fill="none" stroke="midnightblue" d="M629.075,-260.987C625.979,-260.645 622.912,-260.315 619.912,-260 441.949,-241.338 394.418,-258.885 218.912,-224 214.358,-223.095 209.624,-221.918 204.982,-220.622"/>
<polygon fill="midnightblue" stroke="midnightblue" points="205.655,-217.17 195.071,-217.653 203.646,-223.875 205.655,-217.17"/>
</g>
<!-- Node12&#45;&gt;Node4 -->
<g id="edge20" class="edge"><title>Node12&#45;&gt;Node4</title>
<path fill="none" stroke="midnightblue" d="M760.459,-265.207C827.698,-260.026 926.377,-248.429 954.912,-224 985.622,-197.711 1005.32,-165.717 977.912,-136 944.358,-99.6148 582.07,-111.43 533.912,-100 530.842,-99.2712 527.693,-98.3272 524.591,-97.2675"/>
<polygon fill="midnightblue" stroke="midnightblue" points="525.585,-93.9009 514.994,-93.6104 523.092,-100.442 525.585,-93.9009"/>
</g>
<!-- Node12&#45;&gt;Node6 -->
<g id="edge13" class="edge"><title>Node12&#45;&gt;Node6</title>
<path fill="none" stroke="midnightblue" d="M629.068,-261.047C625.974,-260.69 622.91,-260.339 619.912,-260 469.358,-242.974 426.6,-265.614 280.912,-224 278.717,-223.373 276.487,-222.599 274.281,-221.736"/>
<polygon fill="midnightblue" stroke="midnightblue" points="275.508,-218.451 264.951,-217.564 272.651,-224.841 275.508,-218.451"/>
</g>
<!-- Node12&#45;&gt;Node13 -->
<g id="edge12" class="edge"><title>Node12&#45;&gt;Node13</title>
<path fill="none" stroke="midnightblue" d="M760.444,-264.339C821.794,-258.635 907.561,-246.784 931.912,-224 947.797,-209.138 951.707,-183.418 952.363,-165.825"/>
<polygon fill="midnightblue" stroke="midnightblue" points="955.864,-165.653 952.418,-155.634 948.864,-165.615 955.864,-165.653"/>
</g>
<!-- Node14 -->
<g id="node14" class="node"><title>Node14</title>
<polygon fill="none" stroke="#bfbfbf" points="289.912,-198.5 289.912,-217.5 341.912,-217.5 341.912,-198.5 289.912,-198.5"/>
<text text-anchor="middle" x="315.912" y="-205.5" font-family="Helvetica,sans-Serif" font-size="10.00">memory</text>
</g>
<!-- Node12&#45;&gt;Node14 -->
<g id="edge14" class="edge"><title>Node12&#45;&gt;Node14</title>
<path fill="none" stroke="midnightblue" d="M629.403,-260.9C533.347,-248.955 364.164,-227.632 350.912,-224 348.255,-223.272 345.534,-222.383 342.842,-221.405"/>
<polygon fill="midnightblue" stroke="midnightblue" points="343.963,-218.083 333.379,-217.601 341.352,-224.578 343.963,-218.083"/>
</g>
<!-- Node15 -->
<g id="node15" class="node"><title>Node15</title>
<polygon fill="none" stroke="#bfbfbf" points="359.912,-198.5 359.912,-217.5 459.912,-217.5 459.912,-198.5 359.912,-198.5"/>
<text text-anchor="middle" x="409.912" y="-205.5" font-family="Helvetica,sans-Serif" font-size="10.00">FairRootManager.h</text>
</g>
<!-- Node12&#45;&gt;Node15 -->
<g id="edge16" class="edge"><title>Node12&#45;&gt;Node15</title>
<path fill="none" stroke="midnightblue" d="M648.449,-260.486C602.653,-251.92 530.756,-238.008 468.912,-224 463.501,-222.774 457.828,-221.42 452.227,-220.042"/>
<polygon fill="midnightblue" stroke="midnightblue" points="452.849,-216.59 442.298,-217.559 451.15,-223.381 452.849,-216.59"/>
</g>
<!-- Node16 -->
<g id="node16" class="node"><title>Node16</title>
<g id="a_node16"><a xlink:href="../../d0/d9a/MaterialManager_8h.html" target="_top" xlink:title="DetectorsBase/MaterialManager.h">
<polygon fill="none" stroke="black" points="549.412,-198.5 549.412,-217.5 714.412,-217.5 714.412,-198.5 549.412,-198.5"/>
<text text-anchor="middle" x="631.912" y="-205.5" font-family="Helvetica,sans-Serif" font-size="10.00">DetectorsBase/MaterialManager.h</text>
</a>
</g>
</g>
<!-- Node12&#45;&gt;Node16 -->
<g id="edge17" class="edge"><title>Node12&#45;&gt;Node16</title>
<path fill="none" stroke="midnightblue" d="M685.886,-260.403C676.155,-251.136 660.454,-236.183 648.489,-224.788"/>
<polygon fill="midnightblue" stroke="midnightblue" points="650.577,-221.943 640.922,-217.581 645.75,-227.012 650.577,-221.943"/>
</g>
<!-- Node17 -->
<g id="node17" class="node"><title>Node17</title>
<polygon fill="none" stroke="#bfbfbf" points="478.412,-198.5 478.412,-217.5 531.412,-217.5 531.412,-198.5 478.412,-198.5"/>
<text text-anchor="middle" x="504.912" y="-205.5" font-family="Helvetica,sans-Serif" font-size="10.00">cxxabi.h</text>
</g>
<!-- Node12&#45;&gt;Node17 -->
<g id="edge21" class="edge"><title>Node12&#45;&gt;Node17</title>
<path fill="none" stroke="midnightblue" d="M660.971,-260.428C629.312,-252.132 580.936,-238.684 539.912,-224 537.654,-223.192 535.333,-222.311 533.012,-221.395"/>
<polygon fill="midnightblue" stroke="midnightblue" points="534.214,-218.105 523.635,-217.524 531.543,-224.575 534.214,-218.105"/>
</g>
<!-- Node18 -->
<g id="node18" class="node"><title>Node18</title>
<polygon fill="none" stroke="#bfbfbf" points="732.412,-198.5 732.412,-217.5 783.412,-217.5 783.412,-198.5 732.412,-198.5"/>
<text text-anchor="middle" x="757.912" y="-205.5" font-family="Helvetica,sans-Serif" font-size="10.00">typeinfo</text>
</g>
<!-- Node12&#45;&gt;Node18 -->
<g id="edge22" class="edge"><title>Node12&#45;&gt;Node18</title>
<path fill="none" stroke="midnightblue" d="M703.939,-260.403C713.67,-251.136 729.371,-236.183 741.336,-224.788"/>
<polygon fill="midnightblue" stroke="midnightblue" points="744.075,-227.012 748.903,-217.581 739.248,-221.943 744.075,-227.012"/>
</g>
<!-- Node19 -->
<g id="node19" class="node"><title>Node19</title>
<polygon fill="none" stroke="#bfbfbf" points="801.912,-198.5 801.912,-217.5 863.912,-217.5 863.912,-198.5 801.912,-198.5"/>
<text text-anchor="middle" x="832.912" y="-205.5" font-family="Helvetica,sans-Serif" font-size="10.00">type_traits</text>
</g>
<!-- Node12&#45;&gt;Node19 -->
<g id="edge23" class="edge"><title>Node12&#45;&gt;Node19</title>
<path fill="none" stroke="midnightblue" d="M714.685,-260.403C738.049,-250.245 777.127,-233.255 803.915,-221.607"/>
<polygon fill="midnightblue" stroke="midnightblue" points="805.402,-224.778 813.177,-217.581 802.611,-218.358 805.402,-224.778"/>
</g>
<!-- Node20 -->
<g id="node20" class="node"><title>Node20</title>
<polygon fill="none" stroke="#bfbfbf" points="882.412,-198.5 882.412,-217.5 923.412,-217.5 923.412,-198.5 882.412,-198.5"/>
<text text-anchor="middle" x="902.912" y="-205.5" font-family="Helvetica,sans-Serif" font-size="10.00">string</text>
</g>
<!-- Node12&#45;&gt;Node20 -->
<g id="edge24" class="edge"><title>Node12&#45;&gt;Node20</title>
<path fill="none" stroke="midnightblue" d="M738.568,-260.473C774.851,-252.779 827.531,-240.191 871.912,-224 873.766,-223.324 875.657,-222.573 877.544,-221.777"/>
<polygon fill="midnightblue" stroke="midnightblue" points="879.122,-224.904 886.769,-217.571 876.218,-218.535 879.122,-224.904"/>
</g>
<!-- Node16&#45;&gt;Node4 -->
<g id="edge18" class="edge"><title>Node16&#45;&gt;Node4</title>
<path fill="none" stroke="midnightblue" d="M622.204,-198.226C599.533,-177.739 542.864,-126.527 514.157,-100.584"/>
<polygon fill="midnightblue" stroke="midnightblue" points="516.299,-97.8025 506.533,-93.6944 511.606,-102.996 516.299,-97.8025"/>
</g>
<!-- Node16&#45;&gt;Node13 -->
<g id="edge19" class="edge"><title>Node16&#45;&gt;Node13</title>
<path fill="none" stroke="midnightblue" d="M677.421,-198.467C744.716,-185.849 868.755,-162.592 924.047,-152.225"/>
<polygon fill="midnightblue" stroke="midnightblue" points="924.968,-155.613 934.152,-150.33 923.678,-148.733 924.968,-155.613"/>
</g>
<!-- Node21&#45;&gt;Node4 -->
<g id="edge31" class="edge"><title>Node21&#45;&gt;Node4</title>
<path fill="none" stroke="midnightblue" d="M1095.31,-140.066C1078.01,-138.723 1059.24,-137.286 1041.91,-136 816.189,-119.246 754.401,-151.15 533.912,-100 530.838,-99.2868 527.687,-98.3528 524.584,-97.2991"/>
<polygon fill="midnightblue" stroke="midnightblue" points="525.576,-93.9321 514.985,-93.6491 523.088,-100.475 525.576,-93.9321"/>
</g>
<!-- Node22 -->
<g id="node22" class="node"><title>Node22</title>
<polygon fill="none" stroke="#bfbfbf" points="1556.41,-69 1556.41,-99 1707.41,-99 1707.41,-69 1556.41,-69"/>
<text text-anchor="start" x="1564.41" y="-87" font-family="Helvetica,sans-Serif" font-size="10.00">Math/GenVector/Displacement</text>
<text text-anchor="middle" x="1631.91" y="-76" font-family="Helvetica,sans-Serif" font-size="10.00">Vector3D.h</text>
</g>
<!-- Node21&#45;&gt;Node22 -->
<g id="edge26" class="edge"><title>Node21&#45;&gt;Node22</title>
<path fill="none" stroke="midnightblue" d="M1220.72,-138.896C1295.64,-131.355 1424.9,-117.522 1546.2,-100.047"/>
<polygon fill="midnightblue" stroke="midnightblue" points="1547.01,-103.466 1556.41,-98.5649 1546.01,-96.5382 1547.01,-103.466"/>
</g>
<!-- Node23 -->
<g id="node23" class="node"><title>Node23</title>
<polygon fill="none" stroke="#bfbfbf" points="542.912,-74.5 542.912,-93.5 718.912,-93.5 718.912,-74.5 542.912,-74.5"/>
<text text-anchor="middle" x="630.912" y="-81.5" font-family="Helvetica,sans-Serif" font-size="10.00">Math/GenVector/PositionVector3D.h</text>
</g>
<!-- Node21&#45;&gt;Node23 -->
<g id="edge27" class="edge"><title>Node21&#45;&gt;Node23</title>
<path fill="none" stroke="midnightblue" d="M1095.34,-139.475C1011.37,-131.831 857.654,-117.028 726.912,-100 715.657,-98.534 703.685,-96.8023 692.152,-95.046"/>
<polygon fill="midnightblue" stroke="midnightblue" points="692.577,-91.57 682.159,-93.5022 691.508,-98.488 692.577,-91.57"/>
</g>
<!-- Node24 -->
<g id="node24" class="node"><title>Node24</title>
<polygon fill="none" stroke="#bfbfbf" points="736.412,-74.5 736.412,-93.5 885.412,-93.5 885.412,-74.5 736.412,-74.5"/>
<text text-anchor="middle" x="810.912" y="-81.5" font-family="Helvetica,sans-Serif" font-size="10.00">Math/GenVector/Rotation3D.h</text>
</g>
<!-- Node21&#45;&gt;Node24 -->
<g id="edge28" class="edge"><title>Node21&#45;&gt;Node24</title>
<path fill="none" stroke="midnightblue" d="M1107.47,-136.482C1054.52,-127.512 968.835,-112.924 894.912,-100 886.324,-98.4985 877.246,-96.8946 868.356,-95.3148"/>
<polygon fill="midnightblue" stroke="midnightblue" points="868.894,-91.8557 858.435,-93.5481 867.667,-98.7472 868.894,-91.8557"/>
</g>
<!-- Node25 -->
<g id="node25" class="node"><title>Node25</title>
<polygon fill="none" stroke="#bfbfbf" points="903.912,-74.5 903.912,-93.5 1059.91,-93.5 1059.91,-74.5 903.912,-74.5"/>
<text text-anchor="middle" x="981.912" y="-81.5" font-family="Helvetica,sans-Serif" font-size="10.00">Math/GenVector/Transform3D.h</text>
</g>
<!-- Node21&#45;&gt;Node25 -->
<g id="edge29" class="edge"><title>Node21&#45;&gt;Node25</title>
<path fill="none" stroke="midnightblue" d="M1132.7,-136.403C1102.24,-126.022 1050.86,-108.506 1016.67,-96.849"/>
<polygon fill="midnightblue" stroke="midnightblue" points="1017.68,-93.4946 1007.08,-93.5806 1015.42,-100.12 1017.68,-93.4946"/>
</g>
<!-- Node26 -->
<g id="node26" class="node"><title>Node26</title>
<polygon fill="none" stroke="#bfbfbf" points="1077.91,-74.5 1077.91,-93.5 1237.91,-93.5 1237.91,-74.5 1077.91,-74.5"/>
<text text-anchor="middle" x="1157.91" y="-81.5" font-family="Helvetica,sans-Serif" font-size="10.00">Math/GenVector/Translation3D.h</text>
</g>
<!-- Node21&#45;&gt;Node26 -->
<g id="edge30" class="edge"><title>Node21&#45;&gt;Node26</title>
<path fill="none" stroke="midnightblue" d="M1157.91,-136.403C1157.91,-127.938 1157.91,-114.728 1157.91,-103.82"/>
<polygon fill="midnightblue" stroke="midnightblue" points="1161.41,-103.581 1157.91,-93.5806 1154.41,-103.581 1161.41,-103.581"/>
</g>
<!-- Node27 -->
<g id="node27" class="node"><title>Node27</title>
<polygon fill="none" stroke="#bfbfbf" points="1255.91,-74.5 1255.91,-93.5 1331.91,-93.5 1331.91,-74.5 1255.91,-74.5"/>
<text text-anchor="middle" x="1293.91" y="-81.5" font-family="Helvetica,sans-Serif" font-size="10.00">TGeoMatrix.h</text>
</g>
<!-- Node21&#45;&gt;Node27 -->
<g id="edge32" class="edge"><title>Node21&#45;&gt;Node27</title>
<path fill="none" stroke="midnightblue" d="M1177.4,-136.403C1200.32,-126.29 1238.6,-109.404 1264.99,-97.761"/>
<polygon fill="midnightblue" stroke="midnightblue" points="1266.73,-100.819 1274.46,-93.5806 1263.9,-94.4148 1266.73,-100.819"/>
</g>
<!-- Node28 -->
<g id="node28" class="node"><title>Node28</title>
<polygon fill="none" stroke="#bfbfbf" points="1350.41,-74.5 1350.41,-93.5 1395.41,-93.5 1395.41,-74.5 1350.41,-74.5"/>
<text text-anchor="middle" x="1372.91" y="-81.5" font-family="Helvetica,sans-Serif" font-size="10.00">iosfwd</text>
</g>
<!-- Node21&#45;&gt;Node28 -->
<g id="edge33" class="edge"><title>Node21&#45;&gt;Node28</title>
<path fill="none" stroke="midnightblue" d="M1203.39,-136.424C1240.86,-128.739 1295.1,-116.19 1340.91,-100 1342.82,-99.3253 1344.77,-98.5753 1346.72,-97.7806"/>
<polygon fill="midnightblue" stroke="midnightblue" points="1348.5,-100.819 1356.23,-93.5766 1345.67,-94.4156 1348.5,-100.819"/>
</g>
<!-- Node29 -->
<g id="node29" class="node"><title>Node29</title>
<g id="a_node29"><a xlink:href="../../d2/dd0/Cartesian2D_8h.html" target="_top" xlink:title="MathUtils/Cartesian2D.h">
<polygon fill="none" stroke="black" points="1413.41,-74.5 1413.41,-93.5 1538.41,-93.5 1538.41,-74.5 1413.41,-74.5"/>
<text text-anchor="middle" x="1475.91" y="-81.5" font-family="Helvetica,sans-Serif" font-size="10.00">MathUtils/Cartesian2D.h</text>
</a>
</g>
</g>
<!-- Node21&#45;&gt;Node29 -->
<g id="edge34" class="edge"><title>Node21&#45;&gt;Node29</title>
<path fill="none" stroke="midnightblue" d="M1206.52,-136.47C1256.19,-127.668 1335.52,-113.377 1403.91,-100 1411.06,-98.6014 1418.6,-97.081 1426,-95.5626"/>
<polygon fill="midnightblue" stroke="midnightblue" points="1426.87,-98.9566 1435.96,-93.505 1425.46,-92.1015 1426.87,-98.9566"/>
</g>
<!-- Node30 -->
<g id="node30" class="node"><title>Node30</title>
<polygon fill="none" stroke="#bfbfbf" points="1309.41,-1 1309.41,-31 1460.41,-31 1460.41,-1 1309.41,-1"/>
<text text-anchor="start" x="1317.41" y="-19" font-family="Helvetica,sans-Serif" font-size="10.00">Math/GenVector/Displacement</text>
<text text-anchor="middle" x="1384.91" y="-8" font-family="Helvetica,sans-Serif" font-size="10.00">Vector2D.h</text>
</g>
<!-- Node29&#45;&gt;Node30 -->
<g id="edge35" class="edge"><title>Node29&#45;&gt;Node30</title>
<path fill="none" stroke="midnightblue" d="M1464.02,-74.3717C1451.13,-65.0286 1430.13,-49.7966 1413.01,-37.375"/>
<polygon fill="midnightblue" stroke="midnightblue" points="1414.62,-34.2194 1404.47,-31.1815 1410.51,-39.8859 1414.62,-34.2194"/>
</g>
<!-- Node31 -->
<g id="node31" class="node"><title>Node31</title>
<polygon fill="none" stroke="#bfbfbf" points="1478.91,-6.5 1478.91,-25.5 1654.91,-25.5 1654.91,-6.5 1478.91,-6.5"/>
<text text-anchor="middle" x="1566.91" y="-13.5" font-family="Helvetica,sans-Serif" font-size="10.00">Math/GenVector/PositionVector2D.h</text>
</g>
<!-- Node29&#45;&gt;Node31 -->
<g id="edge36" class="edge"><title>Node29&#45;&gt;Node31</title>
<path fill="none" stroke="midnightblue" d="M1487.81,-74.3717C1502.8,-63.5015 1528.77,-44.6602 1546.85,-31.5474"/>
<polygon fill="midnightblue" stroke="midnightblue" points="1548.97,-34.3349 1555.01,-25.6305 1544.86,-28.6684 1548.97,-34.3349"/>
</g>
<!-- Node33 -->
<g id="node33" class="node"><title>Node33</title>
<g id="a_node33"><a xlink:href="../../d4/d25/BaseHits_8h.html" target="_top" xlink:title="SimulationDataFormat\l/BaseHits.h">
<polygon fill="none" stroke="black" points="1055.91,-193 1055.91,-223 1169.91,-223 1169.91,-193 1055.91,-193"/>
<text text-anchor="start" x="1063.91" y="-211" font-family="Helvetica,sans-Serif" font-size="10.00">SimulationDataFormat</text>
<text text-anchor="middle" x="1112.91" y="-200" font-family="Helvetica,sans-Serif" font-size="10.00">/BaseHits.h</text>
</a>
</g>
</g>
<!-- Node32&#45;&gt;Node33 -->
<g id="edge38" class="edge"><title>Node32&#45;&gt;Node33</title>
<path fill="none" stroke="midnightblue" d="M1092.35,-260.403C1095.27,-253.113 1099.59,-242.303 1103.52,-232.475"/>
<polygon fill="midnightblue" stroke="midnightblue" points="1106.79,-233.725 1107.26,-223.141 1100.29,-231.126 1106.79,-233.725"/>
</g>
<!-- Node33&#45;&gt;Node21 -->
<g id="edge39" class="edge"><title>Node33&#45;&gt;Node21</title>
<path fill="none" stroke="midnightblue" d="M1123.58,-192.781C1130.05,-184.152 1138.35,-173.088 1145.16,-163.999"/>
<polygon fill="midnightblue" stroke="midnightblue" points="1148.16,-165.831 1151.36,-155.731 1142.56,-161.631 1148.16,-165.831"/>
</g>
</g>
</svg>
        <g id="navigator" transform="translate(0 0)" fill="#404254">
                <rect fill="#f2f5e9" fill-opacity="0.5" stroke="#606060" stroke-width=".5" x="0" y="0" width="60" height="60"/>
                <use id="zoomplus" xlink:href="#zoomPlus" x="17" y="9" onmousedown="handleZoom(evt,'in')"/>
                <use id="zoomminus" xlink:href="#zoomMin" x="42" y="9" onmousedown="handleZoom(evt,'out')"/>
                <use id="reset" xlink:href="#resetDef" x="30" y="36" onmousedown="handleReset()"/>
                <g id="arrowUp" xlink:href="#dirArrow" transform="translate(30 24)" onmousedown="handlePan(0,-1)">
                  <use xlink:href="#rim" fill="#404040">
                        <set attributeName="fill" to="#808080" begin="arrowUp.mouseover" end="arrowUp.mouseout"/>
                  </use>
                  <path fill="none" stroke="white" stroke-width="1.5" d="M0,-3.0v7 M-2.5,-0.5L0,-3.0L2.5,-0.5"/>
                </g>
                <g id="arrowRight" xlink:href="#dirArrow" transform="rotate(90) translate(36 -43)" onmousedown="handlePan(1,0)">
                  <use xlink:href="#rim" fill="#404040">
                        <set attributeName="fill" to="#808080" begin="arrowRight.mouseover" end="arrowRight.mouseout"/>
                  </use>
                  <path fill="none" stroke="white" stroke-width="1.5" d="M0,-3.0v7 M-2.5,-0.5L0,-3.0L2.5,-0.5"/>
                </g>
                <g id="arrowDown" xlink:href="#dirArrow" transform="rotate(180) translate(-30 -48)" onmousedown="handlePan(0,1)">
                  <use xlink:href="#rim" fill="#404040">
                        <set attributeName="fill" to="#808080" begin="arrowDown.mouseover" end="arrowDown.mouseout"/>
                  </use>
                  <path fill="none" stroke="white" stroke-width="1.5" d="M0,-3.0v7 M-2.5,-0.5L0,-3.0L2.5,-0.5"/>
                </g>
                <g id="arrowLeft" xlink:href="#dirArrow" transform="rotate(270) translate(-36 17)" onmousedown="handlePan(-1,0)">
                  <use xlink:href="#rim" fill="#404040">
                        <set attributeName="fill" to="#808080" begin="arrowLeft.mouseover" end="arrowLeft.mouseout"/>
                  </use>
                  <path fill="none" stroke="white" stroke-width="1.5" d="M0,-3.0v7 M-2.5,-0.5L0,-3.0L2.5,-0.5"/>
                </g>
        </g>
        <svg viewBox="0 0 15 15" width="100%" height="30px" preserveAspectRatio="xMaxYMin meet">
         <g id="arrow_out" transform="scale(0.3 0.3)">
          <a xlink:href="drawPHOSgeometry_8C__incl_org.svg" target="_base">
           <rect id="button" ry="5" rx="5" y="6" x="6" height="38" width="38"
                fill="#f2f5e9" fill-opacity="0.5" stroke="#606060" stroke-width="1.0"/>
           <path id="arrow"
             d="M 11.500037,31.436501 C 11.940474,20.09759 22.043105,11.32322 32.158766,21.979434 L 37.068811,17.246167 C 37.068811,17.246167 37.088388,32 37.088388,32 L 22.160133,31.978069 C 22.160133,31.978069 26.997745,27.140456 26.997745,27.140456 C 18.528582,18.264221 13.291696,25.230495 11.500037,31.436501 z"
             style="fill:#404040;"/>
          </a>
         </g>
        </svg>
</svg>
