<?xml version="1.0" encoding="UTF-8" standalone="no"?>
<!DOCTYPE svg PUBLIC "-//W3C//DTD SVG 1.1//EN"
 "http://www.w3.org/Graphics/SVG/1.1/DTD/svg11.dtd">
<!-- Generated by graphviz version 2.36.0 (20140111.2315)
 -->
<!-- Title: o2::TPC::ClusterHardwareContainer Pages: 1 -->
<svg width="407pt" height="466pt"
 viewBox="0.00 0.00 406.86 466.00" xmlns="http://www.w3.org/2000/svg" xmlns:xlink="http://www.w3.org/1999/xlink">
<g id="graph0" class="graph" transform="scale(1 1) rotate(0) translate(4 462)">
<title>o2::TPC::ClusterHardwareContainer</title>
<!-- Node1 -->
<g id="node1" class="node"><title>Node1</title>
<polygon fill="#bfbfbf" stroke="black" points="181.365,-1 181.365,-69 314.365,-69 314.365,-1 181.365,-1"/>
<text text-anchor="start" x="189.365" y="-57" font-family="Helvetica,sans-Serif" font-size="10.00">o2::TPC::ClusterHardware</text>
<text text-anchor="middle" x="247.865" y="-46" font-family="Helvetica,sans-Serif" font-size="10.00">Container</text>
<polyline fill="none" stroke="black" points="181.365,-39 314.365,-39 "/>
<text text-anchor="middle" x="247.865" y="-27" font-family="Helvetica,sans-Serif" font-size="10.00"> </text>
<polyline fill="none" stroke="black" points="181.365,-20 314.365,-20 "/>
<text text-anchor="middle" x="247.865" y="-8" font-family="Helvetica,sans-Serif" font-size="10.00"> </text>
</g>
<!-- Node2 -->
<g id="node2" class="node"><title>Node2</title>
<polygon fill="none" stroke="#bfbfbf" points="38.3646,-400.5 38.3646,-457.5 89.3646,-457.5 89.3646,-400.5 38.3646,-400.5"/>
<text text-anchor="middle" x="63.8646" y="-445.5" font-family="Helvetica,sans-Serif" font-size="10.00">uint32_t</text>
<polyline fill="none" stroke="#bfbfbf" points="38.3646,-438.5 89.3646,-438.5 "/>
<text text-anchor="middle" x="63.8646" y="-426.5" font-family="Helvetica,sans-Serif" font-size="10.00"> </text>
<polyline fill="none" stroke="#bfbfbf" points="38.3646,-419.5 89.3646,-419.5 "/>
<text text-anchor="middle" x="63.8646" y="-407.5" font-family="Helvetica,sans-Serif" font-size="10.00"> </text>
</g>
<!-- Node2&#45;&gt;Node1 -->
<g id="edge1" class="edge"><title>Node2&#45;&gt;Node1</title>
<path fill="none" stroke="#404040" d="M49.1612,-400.387C21.3457,-343.962 -31.2957,-213.562 25.8646,-128 57.6723,-80.3876 119.183,-57.384 169.406,-46.2877"/>
<polygon fill="none" stroke="#404040" points="169.494,-46.2696 174.561,-41.1385 181.246,-43.842 176.179,-48.9731 169.494,-46.2696"/>
<text text-anchor="middle" x="60.8646" y="-215.5" font-family="Helvetica,sans-Serif" font-size="10.00"> +timeBinOffset</text>
</g>
<!-- Node5 -->
<g id="node5" class="node"><title>Node5</title>
<g id="a_node5"><a xlink:href="../../db/d62/structo2_1_1TPC_1_1ClusterHardware.html" target="_top" xlink:title="{o2::TPC::ClusterHardware\n||+ getQTotFloat()\l+ getQTot()\l+ getQMax()\l+ getRow()\l+ getFlags()\l+ getPadPre()\l+ getPad()\l+ getTimeLocalPre()\l+ getTimeLocal()\l+ getSigmaPad2()\l+ getSigmaTime2()\l+ setCluster()\l}">
<polygon fill="none" stroke="black" points="105.365,-129 105.365,-307 238.365,-307 238.365,-129 105.365,-129"/>
<text text-anchor="middle" x="171.865" y="-295" font-family="Helvetica,sans-Serif" font-size="10.00">o2::TPC::ClusterHardware</text>
<polyline fill="none" stroke="black" points="105.365,-288 238.365,-288 "/>
<text text-anchor="middle" x="171.865" y="-276" font-family="Helvetica,sans-Serif" font-size="10.00"> </text>
<polyline fill="none" stroke="black" points="105.365,-269 238.365,-269 "/>
<text text-anchor="start" x="113.365" y="-257" font-family="Helvetica,sans-Serif" font-size="10.00">+ getQTotFloat()</text>
<text text-anchor="start" x="113.365" y="-246" font-family="Helvetica,sans-Serif" font-size="10.00">+ getQTot()</text>
<text text-anchor="start" x="113.365" y="-235" font-family="Helvetica,sans-Serif" font-size="10.00">+ getQMax()</text>
<text text-anchor="start" x="113.365" y="-224" font-family="Helvetica,sans-Serif" font-size="10.00">+ getRow()</text>
<text text-anchor="start" x="113.365" y="-213" font-family="Helvetica,sans-Serif" font-size="10.00">+ getFlags()</text>
<text text-anchor="start" x="113.365" y="-202" font-family="Helvetica,sans-Serif" font-size="10.00">+ getPadPre()</text>
<text text-anchor="start" x="113.365" y="-191" font-family="Helvetica,sans-Serif" font-size="10.00">+ getPad()</text>
<text text-anchor="start" x="113.365" y="-180" font-family="Helvetica,sans-Serif" font-size="10.00">+ getTimeLocalPre()</text>
<text text-anchor="start" x="113.365" y="-169" font-family="Helvetica,sans-Serif" font-size="10.00">+ getTimeLocal()</text>
<text text-anchor="start" x="113.365" y="-158" font-family="Helvetica,sans-Serif" font-size="10.00">+ getSigmaPad2()</text>
<text text-anchor="start" x="113.365" y="-147" font-family="Helvetica,sans-Serif" font-size="10.00">+ getSigmaTime2()</text>
<text text-anchor="start" x="113.365" y="-136" font-family="Helvetica,sans-Serif" font-size="10.00">+ setCluster()</text>
</a>
</g>
</g>
<!-- Node2&#45;&gt;Node5 -->
<g id="edge5" class="edge"><title>Node2&#45;&gt;Node5</title>
<path fill="none" stroke="#404040" d="M78.2062,-400.246C89.1934,-378.984 105.062,-348.275 120.625,-318.158"/>
<polygon fill="none" stroke="#404040" points="120.826,-317.769 120.027,-310.602 126.335,-307.108 127.134,-314.275 120.826,-317.769"/>
<text text-anchor="middle" x="132.865" y="-373.5" font-family="Helvetica,sans-Serif" font-size="10.00"> +word0</text>
<text text-anchor="middle" x="132.865" y="-362.5" font-family="Helvetica,sans-Serif" font-size="10.00">+word1</text>
<text text-anchor="middle" x="132.865" y="-351.5" font-family="Helvetica,sans-Serif" font-size="10.00">+word2</text>
<text text-anchor="middle" x="132.865" y="-340.5" font-family="Helvetica,sans-Serif" font-size="10.00">+word3</text>
<text text-anchor="middle" x="132.865" y="-329.5" font-family="Helvetica,sans-Serif" font-size="10.00">+word4</text>
</g>
<!-- Node3 -->
<g id="node3" class="node"><title>Node3</title>
<polygon fill="none" stroke="#bfbfbf" points="256.365,-189.5 256.365,-246.5 307.365,-246.5 307.365,-189.5 256.365,-189.5"/>
<text text-anchor="middle" x="281.865" y="-234.5" font-family="Helvetica,sans-Serif" font-size="10.00">uint64_t</text>
<polyline fill="none" stroke="#bfbfbf" points="256.365,-227.5 307.365,-227.5 "/>
<text text-anchor="middle" x="281.865" y="-215.5" font-family="Helvetica,sans-Serif" font-size="10.00"> </text>
<polyline fill="none" stroke="#bfbfbf" points="256.365,-208.5 307.365,-208.5 "/>
<text text-anchor="middle" x="281.865" y="-196.5" font-family="Helvetica,sans-Serif" font-size="10.00"> </text>
</g>
<!-- Node3&#45;&gt;Node1 -->
<g id="edge2" class="edge"><title>Node3&#45;&gt;Node1</title>
<path fill="none" stroke="#404040" d="M276.627,-189.115C271.218,-160.324 262.695,-114.948 256.328,-81.0557"/>
<polygon fill="none" stroke="#404040" points="256.305,-80.9343 251.266,-75.776 254.09,-69.1406 259.129,-74.299 256.305,-80.9343"/>
<text text-anchor="middle" x="277.365" y="-96.5" font-family="Helvetica,sans-Serif" font-size="10.00"> +mDH</text>
</g>
<!-- Node4 -->
<g id="node4" class="node"><title>Node4</title>
<polygon fill="none" stroke="#bfbfbf" points="325.365,-189.5 325.365,-246.5 376.365,-246.5 376.365,-189.5 325.365,-189.5"/>
<text text-anchor="middle" x="350.865" y="-234.5" font-family="Helvetica,sans-Serif" font-size="10.00">uint16_t</text>
<polyline fill="none" stroke="#bfbfbf" points="325.365,-227.5 376.365,-227.5 "/>
<text text-anchor="middle" x="350.865" y="-215.5" font-family="Helvetica,sans-Serif" font-size="10.00"> </text>
<polyline fill="none" stroke="#bfbfbf" points="325.365,-208.5 376.365,-208.5 "/>
<text text-anchor="middle" x="350.865" y="-196.5" font-family="Helvetica,sans-Serif" font-size="10.00"> </text>
</g>
<!-- Node4&#45;&gt;Node1 -->
<g id="edge3" class="edge"><title>Node4&#45;&gt;Node1</title>
<path fill="none" stroke="#404040" d="M343.167,-189.468C334.741,-162.199 319.489,-119.997 297.865,-88 295.691,-84.7833 293.31,-81.5831 290.805,-78.4426"/>
<polygon fill="none" stroke="#404040" points="290.762,-78.392 283.829,-76.4062 282.996,-69.2434 289.928,-71.2292 290.762,-78.392"/>
<text text-anchor="middle" x="354.365" y="-102" font-family="Helvetica,sans-Serif" font-size="10.00"> +numberOfClusters</text>
<text text-anchor="middle" x="354.365" y="-91" font-family="Helvetica,sans-Serif" font-size="10.00">+CRU</text>
</g>
<!-- Node5&#45;&gt;Node1 -->
<g id="edge4" class="edge"><title>Node5&#45;&gt;Node1</title>
<path fill="none" stroke="#404040" d="M194.337,-128.787C199.076,-114.845 204.58,-100.814 210.865,-88 212.28,-85.1152 213.849,-82.2166 215.519,-79.3445"/>
<polygon fill="none" stroke="#404040" points="215.546,-79.3016 215.341,-72.0934 221.915,-69.1315 222.121,-76.3397 215.546,-79.3016"/>
<text text-anchor="middle" x="232.865" y="-96.5" font-family="Helvetica,sans-Serif" font-size="10.00"> +clusters</text>
</g>
</g>
</svg>
