<?xml version="1.0" encoding="UTF-8" standalone="no"?>
<!DOCTYPE svg PUBLIC "-//W3C//DTD SVG 1.1//EN"
 "http://www.w3.org/Graphics/SVG/1.1/DTD/svg11.dtd">
<!-- Generated by graphviz version 2.36.0 (20140111.2315)
 -->
<!-- Title: /home/travis/build/AliceO2Group/AliceO2/CCDB/include/CCDB/TObjectWrapper.h Pages: 1 -->
<svg width="2884pt" height="518pt"
 viewBox="0.00 0.00 2884.00 518.00" xmlns="http://www.w3.org/2000/svg" xmlns:xlink="http://www.w3.org/1999/xlink">
<g id="graph0" class="graph" transform="scale(1 1) rotate(0) translate(4 514)">
<title>/home/travis/build/AliceO2Group/AliceO2/CCDB/include/CCDB/TObjectWrapper.h</title>
<!-- Node1 -->
<g id="node1" class="node"><title>Node1</title>
<polygon fill="#bfbfbf" stroke="black" points="1189.5,-468.5 1189.5,-509.5 1386.5,-509.5 1386.5,-468.5 1189.5,-468.5"/>
<text text-anchor="start" x="1197.5" y="-497.5" font-family="Helvetica,sans-Serif" font-size="10.00">/home/travis/build</text>
<text text-anchor="start" x="1197.5" y="-486.5" font-family="Helvetica,sans-Serif" font-size="10.00">/AliceO2Group/AliceO2</text>
<text text-anchor="middle" x="1288" y="-475.5" font-family="Helvetica,sans-Serif" font-size="10.00">/CCDB/include/CCDB/TObjectWrapper.h</text>
</g>
<!-- Node2 -->
<g id="node2" class="node"><title>Node2</title>
<g id="a_node2"><a xlink:href="../../da/d6a/Condition_8h.html" target="_top" xlink:title="Definition of the Condition class (CDB object) containing the condition and its metadata. ">
<polygon fill="none" stroke="black" points="554.5,-390.5 554.5,-431.5 721.5,-431.5 721.5,-390.5 554.5,-390.5"/>
<text text-anchor="start" x="562.5" y="-419.5" font-family="Helvetica,sans-Serif" font-size="10.00">/home/travis/build</text>
<text text-anchor="start" x="562.5" y="-408.5" font-family="Helvetica,sans-Serif" font-size="10.00">/AliceO2Group/AliceO2</text>
<text text-anchor="middle" x="638" y="-397.5" font-family="Helvetica,sans-Serif" font-size="10.00">/CCDB/include/CCDB/Condition.h</text>
</a>
</g>
</g>
<!-- Node1&#45;&gt;Node2 -->
<g id="edge1" class="edge"><title>Node1&#45;&gt;Node2</title>
<path fill="none" stroke="midnightblue" d="M1178.99,-475.254C1050.06,-460.18 838.275,-435.417 721.607,-421.776"/>
<polygon fill="midnightblue" stroke="midnightblue" points="1178.94,-478.772 1189.28,-476.457 1179.75,-471.82 1178.94,-478.772"/>
</g>
<!-- Node12 -->
<g id="node12" class="node"><title>Node12</title>
<g id="a_node12"><a xlink:href="../../d2/d37/testWriteReadAny_8cxx.html" target="_top" xlink:title="/home/travis/build\l/AliceO2Group/AliceO2\l/CCDB/test/testWriteReadAny.cxx">
<polygon fill="none" stroke="black" points="863,-301.5 863,-342.5 1033,-342.5 1033,-301.5 863,-301.5"/>
<text text-anchor="start" x="871" y="-330.5" font-family="Helvetica,sans-Serif" font-size="10.00">/home/travis/build</text>
<text text-anchor="start" x="871" y="-319.5" font-family="Helvetica,sans-Serif" font-size="10.00">/AliceO2Group/AliceO2</text>
<text text-anchor="middle" x="948" y="-308.5" font-family="Helvetica,sans-Serif" font-size="10.00">/CCDB/test/testWriteReadAny.cxx</text>
</a>
</g>
</g>
<!-- Node1&#45;&gt;Node12 -->
<g id="edge48" class="edge"><title>Node1&#45;&gt;Node12</title>
<path fill="none" stroke="midnightblue" d="M1238.47,-463.965C1170.81,-431.126 1050.75,-372.864 988.285,-342.55"/>
<polygon fill="midnightblue" stroke="midnightblue" points="1237.14,-467.207 1247.66,-468.424 1240.19,-460.91 1237.14,-467.207"/>
</g>
<!-- Node16 -->
<g id="node16" class="node"><title>Node16</title>
<g id="a_node16"><a xlink:href="../../d1/da0/Manager_8h.html" target="_top" xlink:title="/home/travis/build\l/AliceO2Group/AliceO2\l/CCDB/include/CCDB/Manager.h">
<polygon fill="none" stroke="black" points="1356,-390.5 1356,-431.5 1520,-431.5 1520,-390.5 1356,-390.5"/>
<text text-anchor="start" x="1364" y="-419.5" font-family="Helvetica,sans-Serif" font-size="10.00">/home/travis/build</text>
<text text-anchor="start" x="1364" y="-408.5" font-family="Helvetica,sans-Serif" font-size="10.00">/AliceO2Group/AliceO2</text>
<text text-anchor="middle" x="1438" y="-397.5" font-family="Helvetica,sans-Serif" font-size="10.00">/CCDB/include/CCDB/Manager.h</text>
</a>
</g>
</g>
<!-- Node1&#45;&gt;Node16 -->
<g id="edge15" class="edge"><title>Node1&#45;&gt;Node16</title>
<path fill="none" stroke="midnightblue" d="M1335.55,-463.908C1356.17,-453.458 1380.01,-441.38 1399.5,-431.506"/>
<polygon fill="midnightblue" stroke="midnightblue" points="1333.97,-460.786 1326.63,-468.428 1337.13,-467.031 1333.97,-460.786"/>
</g>
<!-- Node33 -->
<g id="node33" class="node"><title>Node33</title>
<g id="a_node33"><a xlink:href="../../d9/d0b/TObjectWrapper_8cxx.html" target="_top" xlink:title="/home/travis/build\l/AliceO2Group/AliceO2\l/CCDB/src/TObjectWrapper.cxx">
<polygon fill="none" stroke="black" points="1538,-390.5 1538,-431.5 1696,-431.5 1696,-390.5 1538,-390.5"/>
<text text-anchor="start" x="1546" y="-419.5" font-family="Helvetica,sans-Serif" font-size="10.00">/home/travis/build</text>
<text text-anchor="start" x="1546" y="-408.5" font-family="Helvetica,sans-Serif" font-size="10.00">/AliceO2Group/AliceO2</text>
<text text-anchor="middle" x="1617" y="-397.5" font-family="Helvetica,sans-Serif" font-size="10.00">/CCDB/src/TObjectWrapper.cxx</text>
</a>
</g>
</g>
<!-- Node1&#45;&gt;Node33 -->
<g id="edge47" class="edge"><title>Node1&#45;&gt;Node33</title>
<path fill="none" stroke="midnightblue" d="M1382.73,-466.116C1431.9,-454.76 1491.26,-441.046 1537.93,-430.265"/>
<polygon fill="midnightblue" stroke="midnightblue" points="1381.68,-462.767 1372.73,-468.428 1383.26,-469.587 1381.68,-462.767"/>
</g>
<!-- Node3 -->
<g id="node3" class="node"><title>Node3</title>
<g id="a_node3"><a xlink:href="../../d4/de8/BackendOCDB_8cxx.html" target="_top" xlink:title="Implementation of the BackendOCDB class. ">
<polygon fill="none" stroke="black" points="435.5,-301.5 435.5,-342.5 590.5,-342.5 590.5,-301.5 435.5,-301.5"/>
<text text-anchor="start" x="443.5" y="-330.5" font-family="Helvetica,sans-Serif" font-size="10.00">/home/travis/build</text>
<text text-anchor="start" x="443.5" y="-319.5" font-family="Helvetica,sans-Serif" font-size="10.00">/AliceO2Group/AliceO2</text>
<text text-anchor="middle" x="513" y="-308.5" font-family="Helvetica,sans-Serif" font-size="10.00">/CCDB/src/BackendOCDB.cxx</text>
</a>
</g>
</g>
<!-- Node2&#45;&gt;Node3 -->
<g id="edge2" class="edge"><title>Node2&#45;&gt;Node3</title>
<path fill="none" stroke="midnightblue" d="M601.716,-384.746C582.509,-371.378 559.267,-355.202 541.391,-342.76"/>
<polygon fill="midnightblue" stroke="midnightblue" points="599.74,-387.636 609.948,-390.476 603.739,-381.89 599.74,-387.636"/>
</g>
<!-- Node4 -->
<g id="node4" class="node"><title>Node4</title>
<g id="a_node4"><a xlink:href="../../d2/d1c/Condition_8cxx.html" target="_top" xlink:title="/home/travis/build\l/AliceO2Group/AliceO2\l/CCDB/src/Condition.cxx">
<polygon fill="none" stroke="black" points="289,-301.5 289,-342.5 417,-342.5 417,-301.5 289,-301.5"/>
<text text-anchor="start" x="297" y="-330.5" font-family="Helvetica,sans-Serif" font-size="10.00">/home/travis/build</text>
<text text-anchor="start" x="297" y="-319.5" font-family="Helvetica,sans-Serif" font-size="10.00">/AliceO2Group/AliceO2</text>
<text text-anchor="middle" x="353" y="-308.5" font-family="Helvetica,sans-Serif" font-size="10.00">/CCDB/src/Condition.cxx</text>
</a>
</g>
</g>
<!-- Node2&#45;&gt;Node4 -->
<g id="edge3" class="edge"><title>Node2&#45;&gt;Node4</title>
<path fill="none" stroke="midnightblue" d="M544.529,-388.384C507.291,-378.978 464.268,-367.104 426,-354 416.23,-350.655 405.919,-346.609 396.223,-342.56"/>
<polygon fill="midnightblue" stroke="midnightblue" points="543.815,-391.814 554.366,-390.846 545.515,-385.023 543.815,-391.814"/>
</g>
<!-- Node5 -->
<g id="node5" class="node"><title>Node5</title>
<g id="a_node5"><a xlink:href="../../da/dd3/ConditionsMQServer_8cxx.html" target="_top" xlink:title="/home/travis/build\l/AliceO2Group/AliceO2\l/CCDB/src/ConditionsMQServer.cxx">
<polygon fill="none" stroke="black" points="1427,-201.5 1427,-242.5 1605,-242.5 1605,-201.5 1427,-201.5"/>
<text text-anchor="start" x="1435" y="-230.5" font-family="Helvetica,sans-Serif" font-size="10.00">/home/travis/build</text>
<text text-anchor="start" x="1435" y="-219.5" font-family="Helvetica,sans-Serif" font-size="10.00">/AliceO2Group/AliceO2</text>
<text text-anchor="middle" x="1516" y="-208.5" font-family="Helvetica,sans-Serif" font-size="10.00">/CCDB/src/ConditionsMQServer.cxx</text>
</a>
</g>
</g>
<!-- Node2&#45;&gt;Node5 -->
<g id="edge4" class="edge"><title>Node2&#45;&gt;Node5</title>
<path fill="none" stroke="midnightblue" d="M658.26,-381.896C664.435,-373.071 671.137,-363.224 677,-354 694.626,-326.272 685.974,-307.147 714,-290 780.243,-249.47 1335.47,-267.185 1412,-254 1427.6,-251.313 1444.15,-247.052 1459.36,-242.538"/>
<polygon fill="midnightblue" stroke="midnightblue" points="655.222,-380.131 652.312,-390.318 660.939,-384.169 655.222,-380.131"/>
</g>
<!-- Node6 -->
<g id="node6" class="node"><title>Node6</title>
<g id="a_node6"><a xlink:href="../../d8/d9a/FileStorage_8cxx.html" target="_top" xlink:title="/home/travis/build\l/AliceO2Group/AliceO2\l/CCDB/src/FileStorage.cxx">
<polygon fill="none" stroke="black" points="316.5,-201.5 316.5,-242.5 453.5,-242.5 453.5,-201.5 316.5,-201.5"/>
<text text-anchor="start" x="324.5" y="-230.5" font-family="Helvetica,sans-Serif" font-size="10.00">/home/travis/build</text>
<text text-anchor="start" x="324.5" y="-219.5" font-family="Helvetica,sans-Serif" font-size="10.00">/AliceO2Group/AliceO2</text>
<text text-anchor="middle" x="385" y="-208.5" font-family="Helvetica,sans-Serif" font-size="10.00">/CCDB/src/FileStorage.cxx</text>
</a>
</g>
</g>
<!-- Node2&#45;&gt;Node6 -->
<g id="edge5" class="edge"><title>Node2&#45;&gt;Node6</title>
<path fill="none" stroke="midnightblue" d="M544.292,-407.814C387.15,-403.171 84.4138,-389.659 52,-354 32.8673,-332.952 33.9792,-312.008 52,-290 68.6488,-269.668 223.557,-245.167 316.117,-232.16"/>
<polygon fill="midnightblue" stroke="midnightblue" points="544.331,-411.317 554.428,-408.108 544.533,-404.32 544.331,-411.317"/>
</g>
<!-- Node7 -->
<g id="node7" class="node"><title>Node7</title>
<g id="a_node7"><a xlink:href="../../d7/df1/GridStorage_8cxx.html" target="_top" xlink:title="/home/travis/build\l/AliceO2Group/AliceO2\l/CCDB/src/GridStorage.cxx">
<polygon fill="none" stroke="black" points="835.5,-201.5 835.5,-242.5 974.5,-242.5 974.5,-201.5 835.5,-201.5"/>
<text text-anchor="start" x="843.5" y="-230.5" font-family="Helvetica,sans-Serif" font-size="10.00">/home/travis/build</text>
<text text-anchor="start" x="843.5" y="-219.5" font-family="Helvetica,sans-Serif" font-size="10.00">/AliceO2Group/AliceO2</text>
<text text-anchor="middle" x="905" y="-208.5" font-family="Helvetica,sans-Serif" font-size="10.00">/CCDB/src/GridStorage.cxx</text>
</a>
</g>
</g>
<!-- Node2&#45;&gt;Node7 -->
<g id="edge6" class="edge"><title>Node2&#45;&gt;Node7</title>
<path fill="none" stroke="midnightblue" d="M630.169,-380.166C625.095,-353.551 622.718,-315.028 643,-290 667.017,-260.363 766.111,-241.355 835.292,-231.424"/>
<polygon fill="midnightblue" stroke="midnightblue" points="626.774,-381.028 632.285,-390.076 633.619,-379.566 626.774,-381.028"/>
</g>
<!-- Node8 -->
<g id="node8" class="node"><title>Node8</title>
<g id="a_node8"><a xlink:href="../../da/d92/LocalStorage_8cxx.html" target="_top" xlink:title="/home/travis/build\l/AliceO2Group/AliceO2\l/CCDB/src/LocalStorage.cxx">
<polygon fill="none" stroke="black" points="0,-201.5 0,-242.5 144,-242.5 144,-201.5 0,-201.5"/>
<text text-anchor="start" x="8" y="-230.5" font-family="Helvetica,sans-Serif" font-size="10.00">/home/travis/build</text>
<text text-anchor="start" x="8" y="-219.5" font-family="Helvetica,sans-Serif" font-size="10.00">/AliceO2Group/AliceO2</text>
<text text-anchor="middle" x="72" y="-208.5" font-family="Helvetica,sans-Serif" font-size="10.00">/CCDB/src/LocalStorage.cxx</text>
</a>
</g>
</g>
<!-- Node2&#45;&gt;Node8 -->
<g id="edge7" class="edge"><title>Node2&#45;&gt;Node8</title>
<path fill="none" stroke="midnightblue" d="M544.086,-408.085C383.134,-403.822 68.5679,-390.83 35,-354 6.50403,-322.735 35.9474,-271.145 56.2375,-242.939"/>
<polygon fill="midnightblue" stroke="midnightblue" points="544.374,-411.593 554.461,-408.353 544.555,-404.596 544.374,-411.593"/>
</g>
<!-- Node9 -->
<g id="node9" class="node"><title>Node9</title>
<g id="a_node9"><a xlink:href="../../d0/da4/Manager_8cxx.html" target="_top" xlink:title="/home/travis/build\l/AliceO2Group/AliceO2\l/CCDB/src/Manager.cxx">
<polygon fill="none" stroke="black" points="1278.5,-201.5 1278.5,-242.5 1403.5,-242.5 1403.5,-201.5 1278.5,-201.5"/>
<text text-anchor="start" x="1286.5" y="-230.5" font-family="Helvetica,sans-Serif" font-size="10.00">/home/travis/build</text>
<text text-anchor="start" x="1286.5" y="-219.5" font-family="Helvetica,sans-Serif" font-size="10.00">/AliceO2Group/AliceO2</text>
<text text-anchor="middle" x="1341" y="-208.5" font-family="Helvetica,sans-Serif" font-size="10.00">/CCDB/src/Manager.cxx</text>
</a>
</g>
</g>
<!-- Node2&#45;&gt;Node9 -->
<g id="edge8" class="edge"><title>Node2&#45;&gt;Node9</title>
<path fill="none" stroke="midnightblue" d="M639.984,-380.093C643.557,-352.123 653.49,-311.525 681,-290 692.721,-280.829 1115.99,-242.771 1278.42,-228.467"/>
<polygon fill="midnightblue" stroke="midnightblue" points="636.494,-379.811 638.903,-390.129 643.454,-380.561 636.494,-379.811"/>
</g>
<!-- Node10 -->
<g id="node10" class="node"><title>Node10</title>
<g id="a_node10"><a xlink:href="../../db/d03/Storage_8cxx.html" target="_top" xlink:title="/home/travis/build\l/AliceO2Group/AliceO2\l/CCDB/src/Storage.cxx">
<polygon fill="none" stroke="black" points="723.5,-301.5 723.5,-342.5 844.5,-342.5 844.5,-301.5 723.5,-301.5"/>
<text text-anchor="start" x="731.5" y="-330.5" font-family="Helvetica,sans-Serif" font-size="10.00">/home/travis/build</text>
<text text-anchor="start" x="731.5" y="-319.5" font-family="Helvetica,sans-Serif" font-size="10.00">/AliceO2Group/AliceO2</text>
<text text-anchor="middle" x="784" y="-308.5" font-family="Helvetica,sans-Serif" font-size="10.00">/CCDB/src/Storage.cxx</text>
</a>
</g>
</g>
<!-- Node2&#45;&gt;Node10 -->
<g id="edge9" class="edge"><title>Node2&#45;&gt;Node10</title>
<path fill="none" stroke="midnightblue" d="M679.509,-385.265C702.198,-371.745 729.909,-355.232 751.092,-342.61"/>
<polygon fill="midnightblue" stroke="midnightblue" points="677.564,-382.35 670.765,-390.476 681.147,-388.363 677.564,-382.35"/>
</g>
<!-- Node11 -->
<g id="node11" class="node"><title>Node11</title>
<g id="a_node11"><a xlink:href="../../d7/d65/testQueryServerStandalone_8cxx.html" target="_top" xlink:title="/home/travis/build\l/AliceO2Group/AliceO2\l/CCDB/test/testQueryServerStandalone.cxx">
<polygon fill="none" stroke="black" points="61,-301.5 61,-342.5 271,-342.5 271,-301.5 61,-301.5"/>
<text text-anchor="start" x="69" y="-330.5" font-family="Helvetica,sans-Serif" font-size="10.00">/home/travis/build</text>
<text text-anchor="start" x="69" y="-319.5" font-family="Helvetica,sans-Serif" font-size="10.00">/AliceO2Group/AliceO2</text>
<text text-anchor="middle" x="166" y="-308.5" font-family="Helvetica,sans-Serif" font-size="10.00">/CCDB/test/testQueryServerStandalone.cxx</text>
</a>
</g>
</g>
<!-- Node2&#45;&gt;Node11 -->
<g id="edge10" class="edge"><title>Node2&#45;&gt;Node11</title>
<path fill="none" stroke="midnightblue" d="M544.305,-398.225C471.777,-388.417 369.019,-373.005 280,-354 264.655,-350.724 248.302,-346.638 232.912,-342.518"/>
<polygon fill="midnightblue" stroke="midnightblue" points="543.957,-401.71 554.334,-399.572 544.889,-394.772 543.957,-401.71"/>
</g>
<!-- Node2&#45;&gt;Node12 -->
<g id="edge11" class="edge"><title>Node2&#45;&gt;Node12</title>
<path fill="none" stroke="midnightblue" d="M727.398,-388.006C766.156,-378.138 811.967,-366.027 853,-354 864.987,-350.487 877.746,-346.497 889.894,-342.578"/>
<polygon fill="midnightblue" stroke="midnightblue" points="726.536,-384.614 717.704,-390.465 728.257,-391.399 726.536,-384.614"/>
</g>
<!-- Node13 -->
<g id="node13" class="node"><title>Node13</title>
<g id="a_node13"><a xlink:href="../../dc/df2/CDBInterface_8h.html" target="_top" xlink:title="Simple interface to the CDB manager. ">
<polygon fill="none" stroke="black" points="1863.5,-296 1863.5,-348 2006.5,-348 2006.5,-296 1863.5,-296"/>
<text text-anchor="start" x="1871.5" y="-336" font-family="Helvetica,sans-Serif" font-size="10.00">/home/travis/build</text>
<text text-anchor="start" x="1871.5" y="-325" font-family="Helvetica,sans-Serif" font-size="10.00">/AliceO2Group/AliceO2</text>
<text text-anchor="start" x="1871.5" y="-314" font-family="Helvetica,sans-Serif" font-size="10.00">/Detectors/TPC/base/include</text>
<text text-anchor="middle" x="1935" y="-303" font-family="Helvetica,sans-Serif" font-size="10.00">/TPCBase/CDBInterface.h</text>
</a>
</g>
</g>
<!-- Node2&#45;&gt;Node13 -->
<g id="edge12" class="edge"><title>Node2&#45;&gt;Node13</title>
<path fill="none" stroke="midnightblue" d="M731.907,-407.4C998.116,-399.786 1745.49,-376.648 1854,-354 1861.22,-352.493 1868.65,-350.426 1875.93,-348.071"/>
<polygon fill="midnightblue" stroke="midnightblue" points="731.775,-403.902 721.879,-407.686 731.974,-410.899 731.775,-403.902"/>
</g>
<!-- Node14 -->
<g id="node14" class="node"><title>Node14</title>
<g id="a_node14"><a xlink:href="../../dc/d71/CDBInterface_8cxx.html" target="_top" xlink:title="/home/travis/build\l/AliceO2Group/AliceO2\l/Detectors/TPC/base/src\l/CDBInterface.cxx">
<polygon fill="none" stroke="black" points="1823,-196 1823,-248 1949,-248 1949,-196 1823,-196"/>
<text text-anchor="start" x="1831" y="-236" font-family="Helvetica,sans-Serif" font-size="10.00">/home/travis/build</text>
<text text-anchor="start" x="1831" y="-225" font-family="Helvetica,sans-Serif" font-size="10.00">/AliceO2Group/AliceO2</text>
<text text-anchor="start" x="1831" y="-214" font-family="Helvetica,sans-Serif" font-size="10.00">/Detectors/TPC/base/src</text>
<text text-anchor="middle" x="1886" y="-203" font-family="Helvetica,sans-Serif" font-size="10.00">/CDBInterface.cxx</text>
</a>
</g>
</g>
<!-- Node13&#45;&gt;Node14 -->
<g id="edge13" class="edge"><title>Node13&#45;&gt;Node14</title>
<path fill="none" stroke="midnightblue" d="M1917.91,-286.818C1911.55,-274.101 1904.46,-259.914 1898.58,-248.152"/>
<polygon fill="midnightblue" stroke="midnightblue" points="1914.78,-288.384 1922.38,-295.763 1921.04,-285.253 1914.78,-288.384"/>
</g>
<!-- Node15 -->
<g id="node15" class="node"><title>Node15</title>
<g id="a_node15"><a xlink:href="../../d1/d8a/testTPCCDBInterface_8cxx.html" target="_top" xlink:title="/home/travis/build\l/AliceO2Group/AliceO2\l/Detectors/TPC/base/test\l/testTPCCDBInterface.cxx">
<polygon fill="none" stroke="black" points="1967.5,-196 1967.5,-248 2102.5,-248 2102.5,-196 1967.5,-196"/>
<text text-anchor="start" x="1975.5" y="-236" font-family="Helvetica,sans-Serif" font-size="10.00">/home/travis/build</text>
<text text-anchor="start" x="1975.5" y="-225" font-family="Helvetica,sans-Serif" font-size="10.00">/AliceO2Group/AliceO2</text>
<text text-anchor="start" x="1975.5" y="-214" font-family="Helvetica,sans-Serif" font-size="10.00">/Detectors/TPC/base/test</text>
<text text-anchor="middle" x="2035" y="-203" font-family="Helvetica,sans-Serif" font-size="10.00">/testTPCCDBInterface.cxx</text>
</a>
</g>
</g>
<!-- Node13&#45;&gt;Node15 -->
<g id="edge14" class="edge"><title>Node13&#45;&gt;Node15</title>
<path fill="none" stroke="midnightblue" d="M1968,-288.659C1981.44,-275.484 1996.75,-260.485 2009.33,-248.152"/>
<polygon fill="midnightblue" stroke="midnightblue" points="1965.44,-286.263 1960.75,-295.763 1970.34,-291.263 1965.44,-286.263"/>
</g>
<!-- Node16&#45;&gt;Node9 -->
<g id="edge28" class="edge"><title>Node16&#45;&gt;Node9</title>
<path fill="none" stroke="midnightblue" d="M1529.97,-388.863C1577.16,-377.091 1626.2,-363.031 1633,-354 1650.11,-331.28 1651.38,-311.711 1633,-290 1601.7,-253.025 1464.63,-267.123 1418,-254 1407.04,-250.916 1395.51,-246.783 1384.81,-242.543"/>
<polygon fill="midnightblue" stroke="midnightblue" points="1529.13,-385.466 1520.26,-391.261 1530.8,-392.262 1529.13,-385.466"/>
</g>
<!-- Node16&#45;&gt;Node10 -->
<g id="edge29" class="edge"><title>Node16&#45;&gt;Node10</title>
<path fill="none" stroke="midnightblue" d="M1345.49,-410.212C1228.98,-408.425 1023.52,-398.417 854,-354 843.329,-351.204 832.219,-346.962 822.076,-342.506"/>
<polygon fill="midnightblue" stroke="midnightblue" points="1345.74,-413.716 1355.79,-410.353 1345.84,-406.717 1345.74,-413.716"/>
</g>
<!-- Node16&#45;&gt;Node12 -->
<g id="edge30" class="edge"><title>Node16&#45;&gt;Node12</title>
<path fill="none" stroke="midnightblue" d="M1345.53,-401.631C1264.73,-393.203 1144.61,-377.973 1042,-354 1028.78,-350.911 1014.77,-346.777 1001.71,-342.536"/>
<polygon fill="midnightblue" stroke="midnightblue" points="1345.38,-405.133 1355.68,-402.675 1346.09,-398.17 1345.38,-405.133"/>
</g>
<!-- Node16&#45;&gt;Node13 -->
<g id="edge31" class="edge"><title>Node16&#45;&gt;Node13</title>
<path fill="none" stroke="midnightblue" d="M1530.35,-389.886C1674.26,-367.324 1715.94,-387.482 1854,-354 1860.73,-352.368 1867.66,-350.321 1874.49,-348.062"/>
<polygon fill="midnightblue" stroke="midnightblue" points="1529.58,-386.465 1520.26,-391.51 1530.69,-393.376 1529.58,-386.465"/>
</g>
<!-- Node16&#45;&gt;Node15 -->
<g id="edge32" class="edge"><title>Node16&#45;&gt;Node15</title>
<path fill="none" stroke="midnightblue" d="M1530.32,-390.259C1616.41,-382.837 1977,-389.159 2015,-354 2043.79,-327.359 2043.1,-278.096 2039.43,-248.162"/>
<polygon fill="midnightblue" stroke="midnightblue" points="1529.8,-386.795 1520.24,-391.375 1530.57,-393.752 1529.8,-386.795"/>
</g>
<!-- Node17 -->
<g id="node17" class="node"><title>Node17</title>
<g id="a_node17"><a xlink:href="../../d7/dc8/ConditionsMQServer_8h.html" target="_top" xlink:title="/home/travis/build\l/AliceO2Group/AliceO2\l/CCDB/include/CCDB/Conditions\lMQServer.h">
<polygon fill="none" stroke="black" points="1681,-296 1681,-348 1845,-348 1845,-296 1681,-296"/>
<text text-anchor="start" x="1689" y="-336" font-family="Helvetica,sans-Serif" font-size="10.00">/home/travis/build</text>
<text text-anchor="start" x="1689" y="-325" font-family="Helvetica,sans-Serif" font-size="10.00">/AliceO2Group/AliceO2</text>
<text text-anchor="start" x="1689" y="-314" font-family="Helvetica,sans-Serif" font-size="10.00">/CCDB/include/CCDB/Conditions</text>
<text text-anchor="middle" x="1763" y="-303" font-family="Helvetica,sans-Serif" font-size="10.00">MQServer.h</text>
</a>
</g>
</g>
<!-- Node16&#45;&gt;Node17 -->
<g id="edge16" class="edge"><title>Node16&#45;&gt;Node17</title>
<path fill="none" stroke="midnightblue" d="M1530.17,-389.07C1572.11,-379.136 1622.25,-366.679 1667,-354 1673.57,-352.138 1680.37,-350.124 1687.17,-348.047"/>
<polygon fill="midnightblue" stroke="midnightblue" points="1529.18,-385.708 1520.25,-391.41 1530.79,-392.521 1529.18,-385.708"/>
</g>
<!-- Node19 -->
<g id="node19" class="node"><title>Node19</title>
<g id="a_node19"><a xlink:href="../../df/d0e/FileStorage_8h.html" target="_top" xlink:title="/home/travis/build\l/AliceO2Group/AliceO2\l/CCDB/include/CCDB/FileStorage.h">
<polygon fill="none" stroke="black" points="1253,-301.5 1253,-342.5 1429,-342.5 1429,-301.5 1253,-301.5"/>
<text text-anchor="start" x="1261" y="-330.5" font-family="Helvetica,sans-Serif" font-size="10.00">/home/travis/build</text>
<text text-anchor="start" x="1261" y="-319.5" font-family="Helvetica,sans-Serif" font-size="10.00">/AliceO2Group/AliceO2</text>
<text text-anchor="middle" x="1341" y="-308.5" font-family="Helvetica,sans-Serif" font-size="10.00">/CCDB/include/CCDB/FileStorage.h</text>
</a>
</g>
</g>
<!-- Node16&#45;&gt;Node19 -->
<g id="edge19" class="edge"><title>Node16&#45;&gt;Node19</title>
<path fill="none" stroke="midnightblue" d="M1408.19,-383.263C1393.58,-370.16 1376.3,-354.662 1362.92,-342.664"/>
<polygon fill="midnightblue" stroke="midnightblue" points="1406.21,-386.187 1415.99,-390.258 1410.88,-380.976 1406.21,-386.187"/>
</g>
<!-- Node20 -->
<g id="node20" class="node"><title>Node20</title>
<g id="a_node20"><a xlink:href="../../d6/d01/GridStorage_8h.html" target="_top" xlink:title="/home/travis/build\l/AliceO2Group/AliceO2\l/CCDB/include/CCDB/GridStorage.h">
<polygon fill="none" stroke="black" points="1447,-301.5 1447,-342.5 1625,-342.5 1625,-301.5 1447,-301.5"/>
<text text-anchor="start" x="1455" y="-330.5" font-family="Helvetica,sans-Serif" font-size="10.00">/home/travis/build</text>
<text text-anchor="start" x="1455" y="-319.5" font-family="Helvetica,sans-Serif" font-size="10.00">/AliceO2Group/AliceO2</text>
<text text-anchor="middle" x="1536" y="-308.5" font-family="Helvetica,sans-Serif" font-size="10.00">/CCDB/include/CCDB/GridStorage.h</text>
</a>
</g>
</g>
<!-- Node16&#45;&gt;Node20 -->
<g id="edge22" class="edge"><title>Node16&#45;&gt;Node20</title>
<path fill="none" stroke="midnightblue" d="M1468.12,-383.263C1482.88,-370.16 1500.34,-354.662 1513.85,-342.664"/>
<polygon fill="midnightblue" stroke="midnightblue" points="1465.39,-381.002 1460.24,-390.258 1470.04,-386.237 1465.39,-381.002"/>
</g>
<!-- Node21 -->
<g id="node21" class="node"><title>Node21</title>
<g id="a_node21"><a xlink:href="../../d8/d9b/LocalStorage_8h.html" target="_top" xlink:title="/home/travis/build\l/AliceO2Group/AliceO2\l/CCDB/include/CCDB/LocalStorage.h">
<polygon fill="none" stroke="black" points="1051.5,-301.5 1051.5,-342.5 1234.5,-342.5 1234.5,-301.5 1051.5,-301.5"/>
<text text-anchor="start" x="1059.5" y="-330.5" font-family="Helvetica,sans-Serif" font-size="10.00">/home/travis/build</text>
<text text-anchor="start" x="1059.5" y="-319.5" font-family="Helvetica,sans-Serif" font-size="10.00">/AliceO2Group/AliceO2</text>
<text text-anchor="middle" x="1143" y="-308.5" font-family="Helvetica,sans-Serif" font-size="10.00">/CCDB/include/CCDB/LocalStorage.h</text>
</a>
</g>
</g>
<!-- Node16&#45;&gt;Node21 -->
<g id="edge25" class="edge"><title>Node16&#45;&gt;Node21</title>
<path fill="none" stroke="midnightblue" d="M1359.46,-387.653C1324.13,-377.516 1281.93,-365.294 1244,-354 1231.69,-350.336 1218.57,-346.358 1205.99,-342.511"/>
<polygon fill="midnightblue" stroke="midnightblue" points="1358.66,-391.063 1369.23,-390.454 1360.58,-384.334 1358.66,-391.063"/>
</g>
<!-- Node22 -->
<g id="node22" class="node"><title>Node22</title>
<g id="a_node22"><a xlink:href="../../d8/d25/EventManager_8h.html" target="_top" xlink:title="/home/travis/build\l/AliceO2Group/AliceO2\l/EventVisualisation/Base\l/include/EventVisualisationBase\l/EventManager.h">
<polygon fill="none" stroke="black" points="2310.5,-290.5 2310.5,-353.5 2467.5,-353.5 2467.5,-290.5 2310.5,-290.5"/>
<text text-anchor="start" x="2318.5" y="-341.5" font-family="Helvetica,sans-Serif" font-size="10.00">/home/travis/build</text>
<text text-anchor="start" x="2318.5" y="-330.5" font-family="Helvetica,sans-Serif" font-size="10.00">/AliceO2Group/AliceO2</text>
<text text-anchor="start" x="2318.5" y="-319.5" font-family="Helvetica,sans-Serif" font-size="10.00">/EventVisualisation/Base</text>
<text text-anchor="start" x="2318.5" y="-308.5" font-family="Helvetica,sans-Serif" font-size="10.00">/include/EventVisualisationBase</text>
<text text-anchor="middle" x="2389" y="-297.5" font-family="Helvetica,sans-Serif" font-size="10.00">/EventManager.h</text>
</a>
</g>
</g>
<!-- Node16&#45;&gt;Node22 -->
<g id="edge33" class="edge"><title>Node16&#45;&gt;Node22</title>
<path fill="none" stroke="midnightblue" d="M1530.25,-389.929C1760.04,-357.478 1821.35,-372.256 2049,-354 2138.66,-346.81 2241.49,-337.251 2310.38,-330.658"/>
<polygon fill="midnightblue" stroke="midnightblue" points="1529.65,-386.479 1520.24,-391.357 1530.63,-393.409 1529.65,-386.479"/>
</g>
<!-- Node17&#45;&gt;Node5 -->
<g id="edge17" class="edge"><title>Node17&#45;&gt;Node5</title>
<path fill="none" stroke="midnightblue" d="M1690.23,-292.128C1650.06,-276.19 1601.23,-256.814 1565.49,-242.636"/>
<polygon fill="midnightblue" stroke="midnightblue" points="1689.13,-295.455 1699.71,-295.89 1691.71,-288.949 1689.13,-295.455"/>
</g>
<!-- Node18 -->
<g id="node18" class="node"><title>Node18</title>
<g id="a_node18"><a xlink:href="../../d1/d85/runConditionsServer_8cxx.html" target="_top" xlink:title="/home/travis/build\l/AliceO2Group/AliceO2\l/CCDB/src/runConditionsServer.cxx">
<polygon fill="none" stroke="black" points="1629,-201.5 1629,-242.5 1805,-242.5 1805,-201.5 1629,-201.5"/>
<text text-anchor="start" x="1637" y="-230.5" font-family="Helvetica,sans-Serif" font-size="10.00">/home/travis/build</text>
<text text-anchor="start" x="1637" y="-219.5" font-family="Helvetica,sans-Serif" font-size="10.00">/AliceO2Group/AliceO2</text>
<text text-anchor="middle" x="1717" y="-208.5" font-family="Helvetica,sans-Serif" font-size="10.00">/CCDB/src/runConditionsServer.cxx</text>
</a>
</g>
</g>
<!-- Node17&#45;&gt;Node18 -->
<g id="edge18" class="edge"><title>Node17&#45;&gt;Node18</title>
<path fill="none" stroke="midnightblue" d="M1746.78,-286.436C1739.87,-271.73 1732.08,-255.119 1726.19,-242.585"/>
<polygon fill="midnightblue" stroke="midnightblue" points="1743.74,-288.197 1751.15,-295.763 1750.07,-285.223 1743.74,-288.197"/>
</g>
<!-- Node19&#45;&gt;Node6 -->
<g id="edge20" class="edge"><title>Node19&#45;&gt;Node6</title>
<path fill="none" stroke="midnightblue" d="M1277.13,-298.494C1265.87,-295.191 1254.18,-292.174 1243,-290 1204.46,-282.501 650.489,-242.127 453.72,-227.936"/>
<polygon fill="midnightblue" stroke="midnightblue" points="1276.3,-301.901 1286.89,-301.458 1278.34,-295.203 1276.3,-301.901"/>
</g>
<!-- Node19&#45;&gt;Node9 -->
<g id="edge21" class="edge"><title>Node19&#45;&gt;Node9</title>
<path fill="none" stroke="midnightblue" d="M1341,-290.925C1341,-275.286 1341,-256.61 1341,-242.802"/>
<polygon fill="midnightblue" stroke="midnightblue" points="1337.5,-291.168 1341,-301.168 1344.5,-291.168 1337.5,-291.168"/>
</g>
<!-- Node20&#45;&gt;Node7 -->
<g id="edge23" class="edge"><title>Node20&#45;&gt;Node7</title>
<path fill="none" stroke="midnightblue" d="M1469.8,-298.489C1458.93,-295.308 1447.71,-292.332 1437,-290 1273.27,-254.354 1076.77,-235.711 974.533,-227.784"/>
<polygon fill="midnightblue" stroke="midnightblue" points="1469.08,-301.927 1479.66,-301.456 1471.1,-295.224 1469.08,-301.927"/>
</g>
<!-- Node20&#45;&gt;Node9 -->
<g id="edge24" class="edge"><title>Node20&#45;&gt;Node9</title>
<path fill="none" stroke="midnightblue" d="M1487.92,-296.839C1454.67,-280.128 1410.99,-258.177 1379.92,-242.562"/>
<polygon fill="midnightblue" stroke="midnightblue" points="1486.5,-300.041 1497.01,-301.404 1489.64,-293.786 1486.5,-300.041"/>
</g>
<!-- Node21&#45;&gt;Node8 -->
<g id="edge26" class="edge"><title>Node21&#45;&gt;Node8</title>
<path fill="none" stroke="midnightblue" d="M1078.18,-298.512C1066.27,-295.125 1053.86,-292.076 1042,-290 719.845,-233.581 632.733,-283.411 307,-254 252.182,-249.05 190.498,-240.811 144.085,-234.07"/>
<polygon fill="midnightblue" stroke="midnightblue" points="1077.46,-301.948 1088.04,-301.422 1079.44,-295.234 1077.46,-301.948"/>
</g>
<!-- Node21&#45;&gt;Node9 -->
<g id="edge27" class="edge"><title>Node21&#45;&gt;Node9</title>
<path fill="none" stroke="midnightblue" d="M1191.82,-296.839C1225.58,-280.128 1269.93,-258.177 1301.48,-242.562"/>
<polygon fill="midnightblue" stroke="midnightblue" points="1190,-293.831 1182.59,-301.404 1193.11,-300.105 1190,-293.831"/>
</g>
<!-- Node23 -->
<g id="node23" class="node"><title>Node23</title>
<g id="a_node23"><a xlink:href="../../dd/dbf/DataInterpreter_8h.html" target="_top" xlink:title="/home/travis/build\l/AliceO2Group/AliceO2\l/EventVisualisation/Base\l/include/EventVisualisationBase\l/DataInterpreter.h">
<polygon fill="none" stroke="black" points="2120.5,-190.5 2120.5,-253.5 2277.5,-253.5 2277.5,-190.5 2120.5,-190.5"/>
<text text-anchor="start" x="2128.5" y="-241.5" font-family="Helvetica,sans-Serif" font-size="10.00">/home/travis/build</text>
<text text-anchor="start" x="2128.5" y="-230.5" font-family="Helvetica,sans-Serif" font-size="10.00">/AliceO2Group/AliceO2</text>
<text text-anchor="start" x="2128.5" y="-219.5" font-family="Helvetica,sans-Serif" font-size="10.00">/EventVisualisation/Base</text>
<text text-anchor="start" x="2128.5" y="-208.5" font-family="Helvetica,sans-Serif" font-size="10.00">/include/EventVisualisationBase</text>
<text text-anchor="middle" x="2199" y="-197.5" font-family="Helvetica,sans-Serif" font-size="10.00">/DataInterpreter.h</text>
</a>
</g>
</g>
<!-- Node22&#45;&gt;Node23 -->
<g id="edge34" class="edge"><title>Node22&#45;&gt;Node23</title>
<path fill="none" stroke="midnightblue" d="M2320.72,-285.781C2300.27,-275.234 2278.03,-263.76 2258.21,-253.541"/>
<polygon fill="midnightblue" stroke="midnightblue" points="2319.17,-288.922 2329.66,-290.395 2322.38,-282.701 2319.17,-288.922"/>
</g>
<!-- Node25 -->
<g id="node25" class="node"><title>Node25</title>
<g id="a_node25"><a xlink:href="../../d0/d5f/DataInterpreterRND_8h.html" target="_top" xlink:title="/home/travis/build\l/AliceO2Group/AliceO2\l/EventVisualisation/Detectors\l/include/EventVisualisationDetectors\l/DataInterpreterRND.h">
<polygon fill="none" stroke="black" points="2139.5,-90.5 2139.5,-153.5 2316.5,-153.5 2316.5,-90.5 2139.5,-90.5"/>
<text text-anchor="start" x="2147.5" y="-141.5" font-family="Helvetica,sans-Serif" font-size="10.00">/home/travis/build</text>
<text text-anchor="start" x="2147.5" y="-130.5" font-family="Helvetica,sans-Serif" font-size="10.00">/AliceO2Group/AliceO2</text>
<text text-anchor="start" x="2147.5" y="-119.5" font-family="Helvetica,sans-Serif" font-size="10.00">/EventVisualisation/Detectors</text>
<text text-anchor="start" x="2147.5" y="-108.5" font-family="Helvetica,sans-Serif" font-size="10.00">/include/EventVisualisationDetectors</text>
<text text-anchor="middle" x="2228" y="-97.5" font-family="Helvetica,sans-Serif" font-size="10.00">/DataInterpreterRND.h</text>
</a>
</g>
</g>
<!-- Node22&#45;&gt;Node25 -->
<g id="edge41" class="edge"><title>Node22&#45;&gt;Node25</title>
<path fill="none" stroke="midnightblue" d="M2353.91,-282.743C2345.84,-273.511 2337.44,-263.55 2330,-254 2308.78,-226.776 2307.11,-217.313 2286,-190 2276.59,-177.826 2265.68,-164.94 2255.88,-153.755"/>
<polygon fill="midnightblue" stroke="midnightblue" points="2351.35,-285.124 2360.59,-290.301 2356.59,-280.489 2351.35,-285.124"/>
</g>
<!-- Node27 -->
<g id="node27" class="node"><title>Node27</title>
<g id="a_node27"><a xlink:href="../../da/d7a/MultiView_8cxx.html" target="_top" xlink:title="/home/travis/build\l/AliceO2Group/AliceO2\l/EventVisualisation/View\l/src/MultiView.cxx">
<polygon fill="none" stroke="black" points="2281.5,-1 2281.5,-53 2406.5,-53 2406.5,-1 2281.5,-1"/>
<text text-anchor="start" x="2289.5" y="-41" font-family="Helvetica,sans-Serif" font-size="10.00">/home/travis/build</text>
<text text-anchor="start" x="2289.5" y="-30" font-family="Helvetica,sans-Serif" font-size="10.00">/AliceO2Group/AliceO2</text>
<text text-anchor="start" x="2289.5" y="-19" font-family="Helvetica,sans-Serif" font-size="10.00">/EventVisualisation/View</text>
<text text-anchor="middle" x="2344" y="-8" font-family="Helvetica,sans-Serif" font-size="10.00">/src/MultiView.cxx</text>
</a>
</g>
</g>
<!-- Node22&#45;&gt;Node27 -->
<g id="edge46" class="edge"><title>Node22&#45;&gt;Node27</title>
<path fill="none" stroke="midnightblue" d="M2371.23,-280.719C2368.02,-272.049 2365.04,-262.833 2363,-254 2346.47,-182.451 2343.94,-95.2049 2343.79,-53.1065"/>
<polygon fill="midnightblue" stroke="midnightblue" points="2368.04,-282.174 2374.93,-290.226 2374.57,-279.637 2368.04,-282.174"/>
</g>
<!-- Node28 -->
<g id="node28" class="node"><title>Node28</title>
<g id="a_node28"><a xlink:href="../../dd/d21/EventManager_8cxx.html" target="_top" xlink:title="/home/travis/build\l/AliceO2Group/AliceO2\l/EventVisualisation/Base\l/src/EventManager.cxx">
<polygon fill="none" stroke="black" points="2372,-196 2372,-248 2498,-248 2498,-196 2372,-196"/>
<text text-anchor="start" x="2380" y="-236" font-family="Helvetica,sans-Serif" font-size="10.00">/home/travis/build</text>
<text text-anchor="start" x="2380" y="-225" font-family="Helvetica,sans-Serif" font-size="10.00">/AliceO2Group/AliceO2</text>
<text text-anchor="start" x="2380" y="-214" font-family="Helvetica,sans-Serif" font-size="10.00">/EventVisualisation/Base</text>
<text text-anchor="middle" x="2435" y="-203" font-family="Helvetica,sans-Serif" font-size="10.00">/src/EventManager.cxx</text>
</a>
</g>
</g>
<!-- Node22&#45;&gt;Node28 -->
<g id="edge39" class="edge"><title>Node22&#45;&gt;Node28</title>
<path fill="none" stroke="midnightblue" d="M2407.74,-281.086C2412.98,-269.917 2418.53,-258.096 2423.24,-248.054"/>
<polygon fill="midnightblue" stroke="midnightblue" points="2404.51,-279.721 2403.43,-290.261 2410.85,-282.696 2404.51,-279.721"/>
</g>
<!-- Node29 -->
<g id="node29" class="node"><title>Node29</title>
<g id="a_node29"><a xlink:href="../../d4/d1d/EventVisualisation_2Base_2src_2Track_8cxx.html" target="_top" xlink:title="/home/travis/build\l/AliceO2Group/AliceO2\l/EventVisualisation/Base\l/src/Track.cxx">
<polygon fill="none" stroke="black" points="2516,-196 2516,-248 2642,-248 2642,-196 2516,-196"/>
<text text-anchor="start" x="2524" y="-236" font-family="Helvetica,sans-Serif" font-size="10.00">/home/travis/build</text>
<text text-anchor="start" x="2524" y="-225" font-family="Helvetica,sans-Serif" font-size="10.00">/AliceO2Group/AliceO2</text>
<text text-anchor="start" x="2524" y="-214" font-family="Helvetica,sans-Serif" font-size="10.00">/EventVisualisation/Base</text>
<text text-anchor="middle" x="2579" y="-203" font-family="Helvetica,sans-Serif" font-size="10.00">/src/Track.cxx</text>
</a>
</g>
</g>
<!-- Node22&#45;&gt;Node29 -->
<g id="edge40" class="edge"><title>Node22&#45;&gt;Node29</title>
<path fill="none" stroke="midnightblue" d="M2457.44,-285.699C2481.55,-273.262 2508.15,-259.545 2530.3,-248.121"/>
<polygon fill="midnightblue" stroke="midnightblue" points="2455.62,-282.701 2448.34,-290.395 2458.83,-288.922 2455.62,-282.701"/>
</g>
<!-- Node30 -->
<g id="node30" class="node"><title>Node30</title>
<g id="a_node30"><a xlink:href="../../d8/df3/Initializer_8h.html" target="_top" xlink:title="/home/travis/build\l/AliceO2Group/AliceO2\l/EventVisualisation/View\l/include/EventVisualisationView\l/Initializer.h">
<polygon fill="none" stroke="black" points="2698,-190.5 2698,-253.5 2854,-253.5 2854,-190.5 2698,-190.5"/>
<text text-anchor="start" x="2706" y="-241.5" font-family="Helvetica,sans-Serif" font-size="10.00">/home/travis/build</text>
<text text-anchor="start" x="2706" y="-230.5" font-family="Helvetica,sans-Serif" font-size="10.00">/AliceO2Group/AliceO2</text>
<text text-anchor="start" x="2706" y="-219.5" font-family="Helvetica,sans-Serif" font-size="10.00">/EventVisualisation/View</text>
<text text-anchor="start" x="2706" y="-208.5" font-family="Helvetica,sans-Serif" font-size="10.00">/include/EventVisualisationView</text>
<text text-anchor="middle" x="2776" y="-197.5" font-family="Helvetica,sans-Serif" font-size="10.00">/Initializer.h</text>
</a>
</g>
</g>
<!-- Node22&#45;&gt;Node30 -->
<g id="edge42" class="edge"><title>Node22&#45;&gt;Node30</title>
<path fill="none" stroke="midnightblue" d="M2477.82,-303.289C2536.69,-290.949 2615.42,-273.289 2684,-254 2688.54,-252.722 2693.19,-251.353 2697.87,-249.928"/>
<polygon fill="midnightblue" stroke="midnightblue" points="2476.88,-299.909 2467.81,-305.377 2478.31,-306.762 2476.88,-299.909"/>
</g>
<!-- Node31 -->
<g id="node31" class="node"><title>Node31</title>
<g id="a_node31"><a xlink:href="../../df/d2a/Initializer_8cxx.html" target="_top" xlink:title="/home/travis/build\l/AliceO2Group/AliceO2\l/EventVisualisation/View\l/src/Initializer.cxx">
<polygon fill="none" stroke="black" points="2607.5,-96 2607.5,-148 2732.5,-148 2732.5,-96 2607.5,-96"/>
<text text-anchor="start" x="2615.5" y="-136" font-family="Helvetica,sans-Serif" font-size="10.00">/home/travis/build</text>
<text text-anchor="start" x="2615.5" y="-125" font-family="Helvetica,sans-Serif" font-size="10.00">/AliceO2Group/AliceO2</text>
<text text-anchor="start" x="2615.5" y="-114" font-family="Helvetica,sans-Serif" font-size="10.00">/EventVisualisation/View</text>
<text text-anchor="middle" x="2670" y="-103" font-family="Helvetica,sans-Serif" font-size="10.00">/src/Initializer.cxx</text>
</a>
</g>
</g>
<!-- Node22&#45;&gt;Node31 -->
<g id="edge45" class="edge"><title>Node22&#45;&gt;Node31</title>
<path fill="none" stroke="midnightblue" d="M2477.91,-308.958C2544.48,-298.053 2627.86,-279.738 2651,-254 2676.96,-225.117 2676.93,-177.278 2673.9,-148.098"/>
<polygon fill="midnightblue" stroke="midnightblue" points="2477.13,-305.539 2467.81,-310.578 2478.23,-312.451 2477.13,-305.539"/>
</g>
<!-- Node24 -->
<g id="node24" class="node"><title>Node24</title>
<g id="a_node24"><a xlink:href="../../d5/d0c/DataInterpreter_8cxx.html" target="_top" xlink:title="/home/travis/build\l/AliceO2Group/AliceO2\l/EventVisualisation/Base\l/src/DataInterpreter.cxx">
<polygon fill="none" stroke="black" points="1995,-96 1995,-148 2121,-148 2121,-96 1995,-96"/>
<text text-anchor="start" x="2003" y="-136" font-family="Helvetica,sans-Serif" font-size="10.00">/home/travis/build</text>
<text text-anchor="start" x="2003" y="-125" font-family="Helvetica,sans-Serif" font-size="10.00">/AliceO2Group/AliceO2</text>
<text text-anchor="start" x="2003" y="-114" font-family="Helvetica,sans-Serif" font-size="10.00">/EventVisualisation/Base</text>
<text text-anchor="middle" x="2058" y="-103" font-family="Helvetica,sans-Serif" font-size="10.00">/src/DataInterpreter.cxx</text>
</a>
</g>
</g>
<!-- Node23&#45;&gt;Node24 -->
<g id="edge35" class="edge"><title>Node23&#45;&gt;Node24</title>
<path fill="none" stroke="midnightblue" d="M2146.36,-184.415C2128.93,-172.299 2109.94,-159.1 2094.05,-148.054"/>
<polygon fill="midnightblue" stroke="midnightblue" points="2144.56,-187.428 2154.77,-190.261 2148.56,-181.68 2144.56,-187.428"/>
</g>
<!-- Node23&#45;&gt;Node25 -->
<g id="edge36" class="edge"><title>Node23&#45;&gt;Node25</title>
<path fill="none" stroke="midnightblue" d="M2211.02,-180.387C2213.67,-171.439 2216.43,-162.106 2218.94,-153.63"/>
<polygon fill="midnightblue" stroke="midnightblue" points="2207.58,-179.679 2208.1,-190.261 2214.29,-181.665 2207.58,-179.679"/>
</g>
<!-- Node26 -->
<g id="node26" class="node"><title>Node26</title>
<g id="a_node26"><a xlink:href="../../db/dd2/DataInterpreterRND_8cxx.html" target="_top" xlink:title="/home/travis/build\l/AliceO2Group/AliceO2\l/EventVisualisation/Detectors\l/src/DataInterpreterRND.cxx">
<polygon fill="none" stroke="black" points="2117,-1 2117,-53 2263,-53 2263,-1 2117,-1"/>
<text text-anchor="start" x="2125" y="-41" font-family="Helvetica,sans-Serif" font-size="10.00">/home/travis/build</text>
<text text-anchor="start" x="2125" y="-30" font-family="Helvetica,sans-Serif" font-size="10.00">/AliceO2Group/AliceO2</text>
<text text-anchor="start" x="2125" y="-19" font-family="Helvetica,sans-Serif" font-size="10.00">/EventVisualisation/Detectors</text>
<text text-anchor="middle" x="2190" y="-8" font-family="Helvetica,sans-Serif" font-size="10.00">/src/DataInterpreterRND.cxx</text>
</a>
</g>
</g>
<!-- Node25&#45;&gt;Node26 -->
<g id="edge37" class="edge"><title>Node25&#45;&gt;Node26</title>
<path fill="none" stroke="midnightblue" d="M2211.66,-81.0014C2207.79,-71.5302 2203.77,-61.6919 2200.26,-53.1001"/>
<polygon fill="midnightblue" stroke="midnightblue" points="2208.43,-82.3574 2215.45,-90.2906 2214.91,-79.7096 2208.43,-82.3574"/>
</g>
<!-- Node25&#45;&gt;Node27 -->
<g id="edge38" class="edge"><title>Node25&#45;&gt;Node27</title>
<path fill="none" stroke="midnightblue" d="M2274.22,-83.9474C2287.13,-73.5934 2300.86,-62.5868 2312.69,-53.1001"/>
<polygon fill="midnightblue" stroke="midnightblue" points="2271.92,-81.3046 2266.3,-90.2906 2276.3,-86.7661 2271.92,-81.3046"/>
</g>
<!-- Node30&#45;&gt;Node31 -->
<g id="edge43" class="edge"><title>Node30&#45;&gt;Node31</title>
<path fill="none" stroke="midnightblue" d="M2735.35,-183.421C2722.55,-171.581 2708.72,-158.799 2697.1,-148.054"/>
<polygon fill="midnightblue" stroke="midnightblue" points="2733.03,-186.042 2742.75,-190.261 2737.79,-180.903 2733.03,-186.042"/>
</g>
<!-- Node32 -->
<g id="node32" class="node"><title>Node32</title>
<g id="a_node32"><a xlink:href="../../d7/dfc/EventVisualisation_2View_2src_2main_8cxx.html" target="_top" xlink:title="/home/travis/build\l/AliceO2Group/AliceO2\l/EventVisualisation/View\l/src/main.cxx">
<polygon fill="none" stroke="black" points="2750.5,-96 2750.5,-148 2875.5,-148 2875.5,-96 2750.5,-96"/>
<text text-anchor="start" x="2758.5" y="-136" font-family="Helvetica,sans-Serif" font-size="10.00">/home/travis/build</text>
<text text-anchor="start" x="2758.5" y="-125" font-family="Helvetica,sans-Serif" font-size="10.00">/AliceO2Group/AliceO2</text>
<text text-anchor="start" x="2758.5" y="-114" font-family="Helvetica,sans-Serif" font-size="10.00">/EventVisualisation/View</text>
<text text-anchor="middle" x="2813" y="-103" font-family="Helvetica,sans-Serif" font-size="10.00">/src/main.cxx</text>
</a>
</g>
</g>
<!-- Node30&#45;&gt;Node32 -->
<g id="edge44" class="edge"><title>Node30&#45;&gt;Node32</title>
<path fill="none" stroke="midnightblue" d="M2791.2,-180.751C2795.38,-169.681 2799.79,-157.995 2803.54,-148.054"/>
<polygon fill="midnightblue" stroke="midnightblue" points="2787.86,-179.669 2787.61,-190.261 2794.41,-182.142 2787.86,-179.669"/>
</g>
</g>
</svg>
