<?xml version="1.0" encoding="UTF-8" standalone="no"?>
<!DOCTYPE svg PUBLIC "-//W3C//DTD SVG 1.1//EN"
 "http://www.w3.org/Graphics/SVG/1.1/DTD/svg11.dtd">
<!-- Generated by graphviz version 2.36.0 (20140111.2315)
 -->
<!-- Title: o2::DataFlow::SubframeBuilderDevice Pages: 1 -->
<svg width="637pt" height="466pt"
 viewBox="0.00 0.00 637.00 466.00" xmlns="http://www.w3.org/2000/svg" xmlns:xlink="http://www.w3.org/1999/xlink">
<g id="graph0" class="graph" transform="scale(1 1) rotate(0) translate(4 462)">
<title>o2::DataFlow::SubframeBuilderDevice</title>
<!-- Node1 -->
<g id="node1" class="node"><title>Node1</title>
<polygon fill="#bfbfbf" stroke="black" points="197.5,-1 197.5,-113 350.5,-113 350.5,-1 197.5,-1"/>
<text text-anchor="start" x="205.5" y="-101" font-family="Helvetica,sans-Serif" font-size="10.00">o2::DataFlow::SubframeBuilder</text>
<text text-anchor="middle" x="274" y="-90" font-family="Helvetica,sans-Serif" font-size="10.00">Device</text>
<polyline fill="none" stroke="black" points="197.5,-83 350.5,-83 "/>
<text text-anchor="middle" x="274" y="-71" font-family="Helvetica,sans-Serif" font-size="10.00"> </text>
<polyline fill="none" stroke="black" points="197.5,-64 350.5,-64 "/>
<text text-anchor="start" x="205.5" y="-52" font-family="Helvetica,sans-Serif" font-size="10.00">+ SubframeBuilderDevice()</text>
<text text-anchor="start" x="205.5" y="-41" font-family="Helvetica,sans-Serif" font-size="10.00">+ ~SubframeBuilderDevice()</text>
<text text-anchor="start" x="205.5" y="-30" font-family="Helvetica,sans-Serif" font-size="10.00"># InitTask()</text>
<text text-anchor="start" x="205.5" y="-19" font-family="Helvetica,sans-Serif" font-size="10.00"># HandleData()</text>
<text text-anchor="start" x="205.5" y="-8" font-family="Helvetica,sans-Serif" font-size="10.00"># BuildAndSendFrame()</text>
</g>
<!-- Node2 -->
<g id="node2" class="node"><title>Node2</title>
<g id="a_node2"><a xlink:href="../../da/df6/classo2_1_1Base_1_1O2Device.html" target="_top" xlink:title="{o2::Base::O2Device\n||+ ~O2Device()\l+ GetMonitoring()\l+ Init()\l+ AddMessage()\l+ ForEach()\l}">
<polygon fill="none" stroke="black" points="49.5,-238.5 49.5,-339.5 154.5,-339.5 154.5,-238.5 49.5,-238.5"/>
<text text-anchor="middle" x="102" y="-327.5" font-family="Helvetica,sans-Serif" font-size="10.00">o2::Base::O2Device</text>
<polyline fill="none" stroke="black" points="49.5,-320.5 154.5,-320.5 "/>
<text text-anchor="middle" x="102" y="-308.5" font-family="Helvetica,sans-Serif" font-size="10.00"> </text>
<polyline fill="none" stroke="black" points="49.5,-301.5 154.5,-301.5 "/>
<text text-anchor="start" x="57.5" y="-289.5" font-family="Helvetica,sans-Serif" font-size="10.00">+ ~O2Device()</text>
<text text-anchor="start" x="57.5" y="-278.5" font-family="Helvetica,sans-Serif" font-size="10.00">+ GetMonitoring()</text>
<text text-anchor="start" x="57.5" y="-267.5" font-family="Helvetica,sans-Serif" font-size="10.00">+ Init()</text>
<text text-anchor="start" x="57.5" y="-256.5" font-family="Helvetica,sans-Serif" font-size="10.00">+ AddMessage()</text>
<text text-anchor="start" x="57.5" y="-245.5" font-family="Helvetica,sans-Serif" font-size="10.00">+ ForEach()</text>
</a>
</g>
</g>
<!-- Node2&#45;&gt;Node1 -->
<g id="edge1" class="edge"><title>Node2&#45;&gt;Node1</title>
<path fill="none" stroke="midnightblue" d="M125.747,-228.846C139.736,-198.131 159.335,-161.056 183,-132 188.272,-125.527 194.19,-119.229 200.411,-113.216"/>
<polygon fill="none" stroke="midnightblue" points="122.471,-227.6 121.588,-238.159 128.862,-230.455 122.471,-227.6"/>
</g>
<!-- Node3 -->
<g id="node3" class="node"><title>Node3</title>
<g id="a_node3"><a xlink:href="../../db/dfe/classFairMQDevice.html" target="_top" xlink:title="{FairMQDevice\n||}">
<polygon fill="none" stroke="black" points="0,-394.5 0,-451.5 80,-451.5 80,-394.5 0,-394.5"/>
<text text-anchor="middle" x="40" y="-439.5" font-family="Helvetica,sans-Serif" font-size="10.00">FairMQDevice</text>
<polyline fill="none" stroke="black" points="0,-432.5 80,-432.5 "/>
<text text-anchor="middle" x="40" y="-420.5" font-family="Helvetica,sans-Serif" font-size="10.00"> </text>
<polyline fill="none" stroke="black" points="0,-413.5 80,-413.5 "/>
<text text-anchor="middle" x="40" y="-401.5" font-family="Helvetica,sans-Serif" font-size="10.00"> </text>
</a>
</g>
</g>
<!-- Node3&#45;&gt;Node2 -->
<g id="edge2" class="edge"><title>Node3&#45;&gt;Node2</title>
<path fill="none" stroke="midnightblue" d="M57.3962,-384.963C64.0172,-370.867 71.6709,-354.572 78.7488,-339.503"/>
<polygon fill="none" stroke="midnightblue" points="54.0807,-383.789 52.9972,-394.328 60.4166,-386.765 54.0807,-383.789"/>
</g>
<!-- Node4 -->
<g id="node4" class="node"><title>Node4</title>
<polygon fill="none" stroke="#bfbfbf" points="98,-389 98,-457 230,-457 230,-389 98,-389"/>
<text text-anchor="start" x="106" y="-445" font-family="Helvetica,sans-Serif" font-size="10.00">unique_ptr&lt; o2::monitoring</text>
<text text-anchor="middle" x="164" y="-434" font-family="Helvetica,sans-Serif" font-size="10.00">::Monitoring &gt;</text>
<polyline fill="none" stroke="#bfbfbf" points="98,-427 230,-427 "/>
<text text-anchor="middle" x="164" y="-415" font-family="Helvetica,sans-Serif" font-size="10.00"> </text>
<polyline fill="none" stroke="#bfbfbf" points="98,-408 230,-408 "/>
<text text-anchor="middle" x="164" y="-396" font-family="Helvetica,sans-Serif" font-size="10.00"> </text>
</g>
<!-- Node4&#45;&gt;Node2 -->
<g id="edge3" class="edge"><title>Node4&#45;&gt;Node2</title>
<path fill="none" stroke="#404040" d="M148.355,-388.691C142.89,-377.056 136.573,-363.607 130.395,-350.454"/>
<polygon fill="none" stroke="#404040" points="130.362,-350.383 124.19,-346.653 125.26,-339.522 131.432,-343.252 130.362,-350.383"/>
<text text-anchor="middle" x="166.5" y="-361.5" font-family="Helvetica,sans-Serif" font-size="10.00"> +monitoring</text>
</g>
<!-- Node5 -->
<g id="node5" class="node"><title>Node5</title>
<polygon fill="none" stroke="#bfbfbf" points="172.5,-260.5 172.5,-317.5 223.5,-317.5 223.5,-260.5 172.5,-260.5"/>
<text text-anchor="middle" x="198" y="-305.5" font-family="Helvetica,sans-Serif" font-size="10.00">uint32_t</text>
<polyline fill="none" stroke="#bfbfbf" points="172.5,-298.5 223.5,-298.5 "/>
<text text-anchor="middle" x="198" y="-286.5" font-family="Helvetica,sans-Serif" font-size="10.00"> </text>
<polyline fill="none" stroke="#bfbfbf" points="172.5,-279.5 223.5,-279.5 "/>
<text text-anchor="middle" x="198" y="-267.5" font-family="Helvetica,sans-Serif" font-size="10.00"> </text>
</g>
<!-- Node5&#45;&gt;Node1 -->
<g id="edge4" class="edge"><title>Node5&#45;&gt;Node1</title>
<path fill="none" stroke="#404040" d="M192.003,-260.233C186.409,-228.005 181.312,-173.922 199,-132 200.213,-129.124 201.598,-126.303 203.126,-123.543"/>
<polygon fill="none" stroke="#404040" points="203.252,-123.343 203.081,-116.134 209.669,-113.203 209.841,-120.412 203.252,-123.343"/>
<text text-anchor="middle" x="263.5" y="-179" font-family="Helvetica,sans-Serif" font-size="10.00"> +DefaultOrbitsPerTimeframe</text>
<text text-anchor="middle" x="263.5" y="-168" font-family="Helvetica,sans-Serif" font-size="10.00">+DefaultOrbitDuration</text>
</g>
<!-- Node6 -->
<g id="node6" class="node"><title>Node6</title>
<polygon fill="none" stroke="#bfbfbf" points="324.5,-260.5 324.5,-317.5 375.5,-317.5 375.5,-260.5 324.5,-260.5"/>
<text text-anchor="middle" x="350" y="-305.5" font-family="Helvetica,sans-Serif" font-size="10.00">uint64_t</text>
<polyline fill="none" stroke="#bfbfbf" points="324.5,-298.5 375.5,-298.5 "/>
<text text-anchor="middle" x="350" y="-286.5" font-family="Helvetica,sans-Serif" font-size="10.00"> </text>
<polyline fill="none" stroke="#bfbfbf" points="324.5,-279.5 375.5,-279.5 "/>
<text text-anchor="middle" x="350" y="-267.5" font-family="Helvetica,sans-Serif" font-size="10.00"> </text>
</g>
<!-- Node6&#45;&gt;Node1 -->
<g id="edge5" class="edge"><title>Node6&#45;&gt;Node1</title>
<path fill="none" stroke="#404040" d="M350.11,-260.467C349.346,-228.459 345.268,-174.582 328,-132 326.916,-129.326 325.714,-126.66 324.417,-124.013"/>
<polygon fill="none" stroke="#404040" points="324.317,-123.829 317.943,-120.457 318.604,-113.276 324.978,-116.648 324.317,-123.829"/>
<text text-anchor="middle" x="399.5" y="-173.5" font-family="Helvetica,sans-Serif" font-size="10.00"> +DefaultHeartbeatStart</text>
</g>
<!-- Node7 -->
<g id="node7" class="node"><title>Node7</title>
<polygon fill="none" stroke="#bfbfbf" points="460.5,-260.5 460.5,-317.5 495.5,-317.5 495.5,-260.5 460.5,-260.5"/>
<text text-anchor="middle" x="478" y="-305.5" font-family="Helvetica,sans-Serif" font-size="10.00">char</text>
<polyline fill="none" stroke="#bfbfbf" points="460.5,-298.5 495.5,-298.5 "/>
<text text-anchor="middle" x="478" y="-286.5" font-family="Helvetica,sans-Serif" font-size="10.00"> </text>
<polyline fill="none" stroke="#bfbfbf" points="460.5,-279.5 495.5,-279.5 "/>
<text text-anchor="middle" x="478" y="-267.5" font-family="Helvetica,sans-Serif" font-size="10.00"> </text>
</g>
<!-- Node7&#45;&gt;Node1 -->
<g id="edge6" class="edge"><title>Node7&#45;&gt;Node1</title>
<path fill="none" stroke="#404040" d="M481.82,-260.321C484.917,-226.43 484.847,-168.989 456,-132 433.102,-102.64 396.64,-84.8634 362.345,-74.1304"/>
<polygon fill="none" stroke="#404040" points="362.336,-74.1279 355.454,-76.2796 350.82,-70.754 357.703,-68.6023 362.336,-74.1279"/>
<text text-anchor="middle" x="555.5" y="-212" font-family="Helvetica,sans-Serif" font-size="10.00"> +OptionKeyOutputChannelName</text>
<text text-anchor="middle" x="555.5" y="-201" font-family="Helvetica,sans-Serif" font-size="10.00">+OptionKeyOrbitsPerTimeframe</text>
<text text-anchor="middle" x="555.5" y="-190" font-family="Helvetica,sans-Serif" font-size="10.00">+OptionKeyInDataFile</text>
<text text-anchor="middle" x="555.5" y="-179" font-family="Helvetica,sans-Serif" font-size="10.00">+OptionKeyStripHBF</text>
<text text-anchor="middle" x="555.5" y="-168" font-family="Helvetica,sans-Serif" font-size="10.00">+OptionKeyOrbitDuration</text>
<text text-anchor="middle" x="555.5" y="-157" font-family="Helvetica,sans-Serif" font-size="10.00">+OptionKeyFLPId</text>
<text text-anchor="middle" x="555.5" y="-146" font-family="Helvetica,sans-Serif" font-size="10.00">+OptionKeyDetector</text>
<text text-anchor="middle" x="555.5" y="-135" font-family="Helvetica,sans-Serif" font-size="10.00">+OptionKeyInputChannelName</text>
</g>
</g>
</svg>
