<?xml version="1.0" encoding="UTF-8" standalone="no"?>
<!DOCTYPE svg PUBLIC "-//W3C//DTD SVG 1.1//EN"
 "http://www.w3.org/Graphics/SVG/1.1/DTD/svg11.dtd">
<!-- Generated by graphviz version 2.36.0 (20140111.2315)
 -->
<!-- Title: o2::DataFlow::SubframeBuilderDevice Pages: 1 -->
<!--zoomable 466 -->
<svg id="main" version="1.1" xmlns="http://www.w3.org/2000/svg" xmlns:xlink="http://www.w3.org/1999/xlink" xml:space="preserve" onload="init(evt)">
<style type="text/css"><![CDATA[
.edge:hover path { stroke: red; }
.edge:hover polygon { stroke: red; fill: red; }
]]></style>
<script type="text/javascript"><![CDATA[
var edges = document.getElementsByTagName('g');
if (edges && edges.length) {
  for (var i=0;i<edges.length;i++) {
    if (edges[i].id.substr(0,4)=='edge') {
      edges[i].setAttribute('class','edge');
    }
  }
}
]]></script>
        <defs>
                <circle id="rim" cx="0" cy="0" r="7"/>
                <circle id="rim2" cx="0" cy="0" r="3.5"/>
                <g id="zoomPlus">
                        <use xlink:href="#rim" fill="#404040">
                                <set attributeName="fill" to="#808080" begin="zoomplus.mouseover" end="zoomplus.mouseout"/>
                        </use>
                        <path d="M-4,0h8M0,-4v8" fill="none" stroke="white" stroke-width="1.5" pointer-events="none"/>
                </g>
                <g id="zoomMin">
                        <use xlink:href="#rim" fill="#404040">
                                <set attributeName="fill" to="#808080" begin="zoomminus.mouseover" end="zoomminus.mouseout"/>
                        </use>
                        <path d="M-4,0h8" fill="none" stroke="white" stroke-width="1.5" pointer-events="none"/>
                </g>
                <g id="dirArrow">
                        <path fill="none" stroke="white" stroke-width="1.5" d="M0,-3.0v7 M-2.5,-0.5L0,-3.0L2.5,-0.5"/>
                </g>
               <g id="resetDef">
                       <use xlink:href="#rim2" fill="#404040">
                               <set attributeName="fill" to="#808080" begin="reset.mouseover" end="reset.mouseout"/>
                       </use>
               </g>
        </defs>

<script type="text/javascript">
var viewWidth = 637;
var viewHeight = 466;
var sectionId = 'dynsection-1';
</script>
<script xlink:href="../../svgpan.js"/>
<svg id="graph" class="graph">
<g id="viewport">
<title>o2::DataFlow::SubframeBuilderDevice</title>
<!-- Node1 -->
<g id="node1" class="node"><title>Node1</title>
<polygon fill="#bfbfbf" stroke="black" points="197.5,-1 197.5,-113 350.5,-113 350.5,-1 197.5,-1"/>
<text text-anchor="start" x="205.5" y="-101" font-family="Helvetica,sans-Serif" font-size="10.00">o2::DataFlow::SubframeBuilder</text>
<text text-anchor="middle" x="274" y="-90" font-family="Helvetica,sans-Serif" font-size="10.00">Device</text>
<polyline fill="none" stroke="black" points="197.5,-83 350.5,-83 "/>
<text text-anchor="middle" x="274" y="-71" font-family="Helvetica,sans-Serif" font-size="10.00"> </text>
<polyline fill="none" stroke="black" points="197.5,-64 350.5,-64 "/>
<text text-anchor="start" x="205.5" y="-52" font-family="Helvetica,sans-Serif" font-size="10.00">+ SubframeBuilderDevice()</text>
<text text-anchor="start" x="205.5" y="-41" font-family="Helvetica,sans-Serif" font-size="10.00">+ ~SubframeBuilderDevice()</text>
<text text-anchor="start" x="205.5" y="-30" font-family="Helvetica,sans-Serif" font-size="10.00"># InitTask()</text>
<text text-anchor="start" x="205.5" y="-19" font-family="Helvetica,sans-Serif" font-size="10.00"># HandleData()</text>
<text text-anchor="start" x="205.5" y="-8" font-family="Helvetica,sans-Serif" font-size="10.00"># BuildAndSendFrame()</text>
</g>
<!-- Node2 -->
<g id="node2" class="node"><title>Node2</title>
<g id="a_node2"><a xlink:href="../../da/df6/classo2_1_1Base_1_1O2Device.html" target="_top" xlink:title="{o2::Base::O2Device\n||+ ~O2Device()\l+ GetMonitoring()\l+ Init()\l+ AddMessage()\l+ ForEach()\l}">
<polygon fill="none" stroke="black" points="49.5,-238.5 49.5,-339.5 154.5,-339.5 154.5,-238.5 49.5,-238.5"/>
<text text-anchor="middle" x="102" y="-327.5" font-family="Helvetica,sans-Serif" font-size="10.00">o2::Base::O2Device</text>
<polyline fill="none" stroke="black" points="49.5,-320.5 154.5,-320.5 "/>
<text text-anchor="middle" x="102" y="-308.5" font-family="Helvetica,sans-Serif" font-size="10.00"> </text>
<polyline fill="none" stroke="black" points="49.5,-301.5 154.5,-301.5 "/>
<text text-anchor="start" x="57.5" y="-289.5" font-family="Helvetica,sans-Serif" font-size="10.00">+ ~O2Device()</text>
<text text-anchor="start" x="57.5" y="-278.5" font-family="Helvetica,sans-Serif" font-size="10.00">+ GetMonitoring()</text>
<text text-anchor="start" x="57.5" y="-267.5" font-family="Helvetica,sans-Serif" font-size="10.00">+ Init()</text>
<text text-anchor="start" x="57.5" y="-256.5" font-family="Helvetica,sans-Serif" font-size="10.00">+ AddMessage()</text>
<text text-anchor="start" x="57.5" y="-245.5" font-family="Helvetica,sans-Serif" font-size="10.00">+ ForEach()</text>
</a>
</g>
</g>
<!-- Node2&#45;&gt;Node1 -->
<g id="edge1" class="edge"><title>Node2&#45;&gt;Node1</title>
<path fill="none" stroke="midnightblue" d="M125.747,-228.846C139.736,-198.131 159.335,-161.056 183,-132 188.272,-125.527 194.19,-119.229 200.411,-113.216"/>
<polygon fill="none" stroke="midnightblue" points="122.471,-227.6 121.588,-238.159 128.862,-230.455 122.471,-227.6"/>
</g>
<!-- Node3 -->
<g id="node3" class="node"><title>Node3</title>
<g id="a_node3"><a xlink:href="../../db/dfe/classFairMQDevice.html" target="_top" xlink:title="{FairMQDevice\n||}">
<polygon fill="none" stroke="black" points="0,-394.5 0,-451.5 80,-451.5 80,-394.5 0,-394.5"/>
<text text-anchor="middle" x="40" y="-439.5" font-family="Helvetica,sans-Serif" font-size="10.00">FairMQDevice</text>
<polyline fill="none" stroke="black" points="0,-432.5 80,-432.5 "/>
<text text-anchor="middle" x="40" y="-420.5" font-family="Helvetica,sans-Serif" font-size="10.00"> </text>
<polyline fill="none" stroke="black" points="0,-413.5 80,-413.5 "/>
<text text-anchor="middle" x="40" y="-401.5" font-family="Helvetica,sans-Serif" font-size="10.00"> </text>
</a>
</g>
</g>
<!-- Node3&#45;&gt;Node2 -->
<g id="edge2" class="edge"><title>Node3&#45;&gt;Node2</title>
<path fill="none" stroke="midnightblue" d="M57.3962,-384.963C64.0172,-370.867 71.6709,-354.572 78.7488,-339.503"/>
<polygon fill="none" stroke="midnightblue" points="54.0807,-383.789 52.9972,-394.328 60.4166,-386.765 54.0807,-383.789"/>
</g>
<!-- Node4 -->
<g id="node4" class="node"><title>Node4</title>
<polygon fill="none" stroke="#bfbfbf" points="98,-389 98,-457 230,-457 230,-389 98,-389"/>
<text text-anchor="start" x="106" y="-445" font-family="Helvetica,sans-Serif" font-size="10.00">unique_ptr&lt; o2::monitoring</text>
<text text-anchor="middle" x="164" y="-434" font-family="Helvetica,sans-Serif" font-size="10.00">::Monitoring &gt;</text>
<polyline fill="none" stroke="#bfbfbf" points="98,-427 230,-427 "/>
<text text-anchor="middle" x="164" y="-415" font-family="Helvetica,sans-Serif" font-size="10.00"> </text>
<polyline fill="none" stroke="#bfbfbf" points="98,-408 230,-408 "/>
<text text-anchor="middle" x="164" y="-396" font-family="Helvetica,sans-Serif" font-size="10.00"> </text>
</g>
<!-- Node4&#45;&gt;Node2 -->
<g id="edge3" class="edge"><title>Node4&#45;&gt;Node2</title>
<path fill="none" stroke="#404040" d="M148.355,-388.691C142.89,-377.056 136.573,-363.607 130.395,-350.454"/>
<polygon fill="none" stroke="#404040" points="130.362,-350.383 124.19,-346.653 125.26,-339.522 131.432,-343.252 130.362,-350.383"/>
<text text-anchor="middle" x="166.5" y="-361.5" font-family="Helvetica,sans-Serif" font-size="10.00"> +monitoring</text>
</g>
<!-- Node5 -->
<g id="node5" class="node"><title>Node5</title>
<polygon fill="none" stroke="#bfbfbf" points="172.5,-260.5 172.5,-317.5 223.5,-317.5 223.5,-260.5 172.5,-260.5"/>
<text text-anchor="middle" x="198" y="-305.5" font-family="Helvetica,sans-Serif" font-size="10.00">uint32_t</text>
<polyline fill="none" stroke="#bfbfbf" points="172.5,-298.5 223.5,-298.5 "/>
<text text-anchor="middle" x="198" y="-286.5" font-family="Helvetica,sans-Serif" font-size="10.00"> </text>
<polyline fill="none" stroke="#bfbfbf" points="172.5,-279.5 223.5,-279.5 "/>
<text text-anchor="middle" x="198" y="-267.5" font-family="Helvetica,sans-Serif" font-size="10.00"> </text>
</g>
<!-- Node5&#45;&gt;Node1 -->
<g id="edge4" class="edge"><title>Node5&#45;&gt;Node1</title>
<path fill="none" stroke="#404040" d="M192.003,-260.233C186.409,-228.005 181.312,-173.922 199,-132 200.213,-129.124 201.598,-126.303 203.126,-123.543"/>
<polygon fill="none" stroke="#404040" points="203.252,-123.343 203.081,-116.134 209.669,-113.203 209.841,-120.412 203.252,-123.343"/>
<text text-anchor="middle" x="263.5" y="-179" font-family="Helvetica,sans-Serif" font-size="10.00"> +DefaultOrbitsPerTimeframe</text>
<text text-anchor="middle" x="263.5" y="-168" font-family="Helvetica,sans-Serif" font-size="10.00">+DefaultOrbitDuration</text>
</g>
<!-- Node6 -->
<g id="node6" class="node"><title>Node6</title>
<polygon fill="none" stroke="#bfbfbf" points="324.5,-260.5 324.5,-317.5 375.5,-317.5 375.5,-260.5 324.5,-260.5"/>
<text text-anchor="middle" x="350" y="-305.5" font-family="Helvetica,sans-Serif" font-size="10.00">uint64_t</text>
<polyline fill="none" stroke="#bfbfbf" points="324.5,-298.5 375.5,-298.5 "/>
<text text-anchor="middle" x="350" y="-286.5" font-family="Helvetica,sans-Serif" font-size="10.00"> </text>
<polyline fill="none" stroke="#bfbfbf" points="324.5,-279.5 375.5,-279.5 "/>
<text text-anchor="middle" x="350" y="-267.5" font-family="Helvetica,sans-Serif" font-size="10.00"> </text>
</g>
<!-- Node6&#45;&gt;Node1 -->
<g id="edge5" class="edge"><title>Node6&#45;&gt;Node1</title>
<path fill="none" stroke="#404040" d="M350.11,-260.467C349.346,-228.459 345.268,-174.582 328,-132 326.916,-129.326 325.714,-126.66 324.417,-124.013"/>
<polygon fill="none" stroke="#404040" points="324.317,-123.829 317.943,-120.457 318.604,-113.276 324.978,-116.648 324.317,-123.829"/>
<text text-anchor="middle" x="399.5" y="-173.5" font-family="Helvetica,sans-Serif" font-size="10.00"> +DefaultHeartbeatStart</text>
</g>
<!-- Node7 -->
<g id="node7" class="node"><title>Node7</title>
<polygon fill="none" stroke="#bfbfbf" points="460.5,-260.5 460.5,-317.5 495.5,-317.5 495.5,-260.5 460.5,-260.5"/>
<text text-anchor="middle" x="478" y="-305.5" font-family="Helvetica,sans-Serif" font-size="10.00">char</text>
<polyline fill="none" stroke="#bfbfbf" points="460.5,-298.5 495.5,-298.5 "/>
<text text-anchor="middle" x="478" y="-286.5" font-family="Helvetica,sans-Serif" font-size="10.00"> </text>
<polyline fill="none" stroke="#bfbfbf" points="460.5,-279.5 495.5,-279.5 "/>
<text text-anchor="middle" x="478" y="-267.5" font-family="Helvetica,sans-Serif" font-size="10.00"> </text>
</g>
<!-- Node7&#45;&gt;Node1 -->
<g id="edge6" class="edge"><title>Node7&#45;&gt;Node1</title>
<path fill="none" stroke="#404040" d="M481.82,-260.321C484.917,-226.43 484.847,-168.989 456,-132 433.102,-102.64 396.64,-84.8634 362.345,-74.1304"/>
<polygon fill="none" stroke="#404040" points="362.336,-74.1279 355.454,-76.2796 350.82,-70.754 357.703,-68.6023 362.336,-74.1279"/>
<text text-anchor="middle" x="555.5" y="-212" font-family="Helvetica,sans-Serif" font-size="10.00"> +OptionKeyOutputChannelName</text>
<text text-anchor="middle" x="555.5" y="-201" font-family="Helvetica,sans-Serif" font-size="10.00">+OptionKeyOrbitsPerTimeframe</text>
<text text-anchor="middle" x="555.5" y="-190" font-family="Helvetica,sans-Serif" font-size="10.00">+OptionKeyInDataFile</text>
<text text-anchor="middle" x="555.5" y="-179" font-family="Helvetica,sans-Serif" font-size="10.00">+OptionKeyStripHBF</text>
<text text-anchor="middle" x="555.5" y="-168" font-family="Helvetica,sans-Serif" font-size="10.00">+OptionKeyOrbitDuration</text>
<text text-anchor="middle" x="555.5" y="-157" font-family="Helvetica,sans-Serif" font-size="10.00">+OptionKeyFLPId</text>
<text text-anchor="middle" x="555.5" y="-146" font-family="Helvetica,sans-Serif" font-size="10.00">+OptionKeyDetector</text>
<text text-anchor="middle" x="555.5" y="-135" font-family="Helvetica,sans-Serif" font-size="10.00">+OptionKeyInputChannelName</text>
</g>
</g>
</svg>
        <g id="navigator" transform="translate(0 0)" fill="#404254">
                <rect fill="#f2f5e9" fill-opacity="0.5" stroke="#606060" stroke-width=".5" x="0" y="0" width="60" height="60"/>
                <use id="zoomplus" xlink:href="#zoomPlus" x="17" y="9" onmousedown="handleZoom(evt,'in')"/>
                <use id="zoomminus" xlink:href="#zoomMin" x="42" y="9" onmousedown="handleZoom(evt,'out')"/>
                <use id="reset" xlink:href="#resetDef" x="30" y="36" onmousedown="handleReset()"/>
                <g id="arrowUp" xlink:href="#dirArrow" transform="translate(30 24)" onmousedown="handlePan(0,-1)">
                  <use xlink:href="#rim" fill="#404040">
                        <set attributeName="fill" to="#808080" begin="arrowUp.mouseover" end="arrowUp.mouseout"/>
                  </use>
                  <path fill="none" stroke="white" stroke-width="1.5" d="M0,-3.0v7 M-2.5,-0.5L0,-3.0L2.5,-0.5"/>
                </g>
                <g id="arrowRight" xlink:href="#dirArrow" transform="rotate(90) translate(36 -43)" onmousedown="handlePan(1,0)">
                  <use xlink:href="#rim" fill="#404040">
                        <set attributeName="fill" to="#808080" begin="arrowRight.mouseover" end="arrowRight.mouseout"/>
                  </use>
                  <path fill="none" stroke="white" stroke-width="1.5" d="M0,-3.0v7 M-2.5,-0.5L0,-3.0L2.5,-0.5"/>
                </g>
                <g id="arrowDown" xlink:href="#dirArrow" transform="rotate(180) translate(-30 -48)" onmousedown="handlePan(0,1)">
                  <use xlink:href="#rim" fill="#404040">
                        <set attributeName="fill" to="#808080" begin="arrowDown.mouseover" end="arrowDown.mouseout"/>
                  </use>
                  <path fill="none" stroke="white" stroke-width="1.5" d="M0,-3.0v7 M-2.5,-0.5L0,-3.0L2.5,-0.5"/>
                </g>
                <g id="arrowLeft" xlink:href="#dirArrow" transform="rotate(270) translate(-36 17)" onmousedown="handlePan(-1,0)">
                  <use xlink:href="#rim" fill="#404040">
                        <set attributeName="fill" to="#808080" begin="arrowLeft.mouseover" end="arrowLeft.mouseout"/>
                  </use>
                  <path fill="none" stroke="white" stroke-width="1.5" d="M0,-3.0v7 M-2.5,-0.5L0,-3.0L2.5,-0.5"/>
                </g>
        </g>
        <svg viewBox="0 0 15 15" width="100%" height="30px" preserveAspectRatio="xMaxYMin meet">
         <g id="arrow_out" transform="scale(0.3 0.3)">
          <a xlink:href="classo2_1_1DataFlow_1_1SubframeBuilderDevice__coll__graph_org.svg" target="_base">
           <rect id="button" ry="5" rx="5" y="6" x="6" height="38" width="38"
                fill="#f2f5e9" fill-opacity="0.5" stroke="#606060" stroke-width="1.0"/>
           <path id="arrow"
             d="M 11.500037,31.436501 C 11.940474,20.09759 22.043105,11.32322 32.158766,21.979434 L 37.068811,17.246167 C 37.068811,17.246167 37.088388,32 37.088388,32 L 22.160133,31.978069 C 22.160133,31.978069 26.997745,27.140456 26.997745,27.140456 C 18.528582,18.264221 13.291696,25.230495 11.500037,31.436501 z"
             style="fill:#404040;"/>
          </a>
         </g>
        </svg>
</svg>
