<?xml version="1.0" encoding="UTF-8" standalone="no"?>
<!DOCTYPE svg PUBLIC "-//W3C//DTD SVG 1.1//EN"
 "http://www.w3.org/Graphics/SVG/1.1/DTD/svg11.dtd">
<!-- Generated by graphviz version 2.36.0 (20140111.2315)
 -->
<!-- Title: /home/travis/build/AliceO2Group/AliceO2/Utilities/DataFlow/src/SubframeBuilderDevice.cxx Pages: 1 -->
<svg width="1306pt" height="354pt"
 viewBox="0.00 0.00 1306.25 354.00" xmlns="http://www.w3.org/2000/svg" xmlns:xlink="http://www.w3.org/1999/xlink">
<g id="graph0" class="graph" transform="scale(1 1) rotate(0) translate(4 350)">
<title>/home/travis/build/AliceO2Group/AliceO2/Utilities/DataFlow/src/SubframeBuilderDevice.cxx</title>
<!-- Node1 -->
<g id="node1" class="node"><title>Node1</title>
<polygon fill="#bfbfbf" stroke="black" points="850.5,-293 850.5,-345 991.5,-345 991.5,-293 850.5,-293"/>
<text text-anchor="start" x="858.5" y="-333" font-family="Helvetica,sans-Serif" font-size="10.00">/home/travis/build</text>
<text text-anchor="start" x="858.5" y="-322" font-family="Helvetica,sans-Serif" font-size="10.00">/AliceO2Group/AliceO2</text>
<text text-anchor="start" x="858.5" y="-311" font-family="Helvetica,sans-Serif" font-size="10.00">/Utilities/DataFlow/src</text>
<text text-anchor="middle" x="921" y="-300" font-family="Helvetica,sans-Serif" font-size="10.00">/SubframeBuilderDevice.cxx</text>
</g>
<!-- Node2 -->
<g id="node2" class="node"><title>Node2</title>
<polygon fill="none" stroke="#bfbfbf" points="0,-230.5 0,-249.5 44,-249.5 44,-230.5 0,-230.5"/>
<text text-anchor="middle" x="22" y="-237.5" font-family="Helvetica,sans-Serif" font-size="10.00">thread</text>
</g>
<!-- Node1&#45;&gt;Node2 -->
<g id="edge1" class="edge"><title>Node1&#45;&gt;Node2</title>
<path fill="none" stroke="midnightblue" d="M850.176,-316.382C670.924,-311.736 202.885,-296.031 53,-256 50.6606,-255.375 48.2854,-254.573 45.9445,-253.664"/>
<polygon fill="midnightblue" stroke="midnightblue" points="47.2499,-250.414 36.6929,-249.518 44.3872,-256.802 47.2499,-250.414"/>
</g>
<!-- Node3 -->
<g id="node3" class="node"><title>Node3</title>
<polygon fill="none" stroke="#bfbfbf" points="62,-230.5 62,-249.5 108,-249.5 108,-230.5 62,-230.5"/>
<text text-anchor="middle" x="85" y="-237.5" font-family="Helvetica,sans-Serif" font-size="10.00">chrono</text>
</g>
<!-- Node1&#45;&gt;Node3 -->
<g id="edge2" class="edge"><title>Node1&#45;&gt;Node3</title>
<path fill="none" stroke="midnightblue" d="M850.427,-315.304C681.847,-308.415 259.543,-288.393 122,-256 118.928,-255.277 115.778,-254.336 112.676,-253.278"/>
<polygon fill="midnightblue" stroke="midnightblue" points="113.67,-249.912 103.079,-249.624 111.179,-256.453 113.67,-249.912"/>
</g>
<!-- Node4 -->
<g id="node4" class="node"><title>Node4</title>
<polygon fill="none" stroke="#bfbfbf" points="240.5,-56.5 240.5,-75.5 299.5,-75.5 299.5,-56.5 240.5,-56.5"/>
<text text-anchor="middle" x="270" y="-63.5" font-family="Helvetica,sans-Serif" font-size="10.00">functional</text>
</g>
<!-- Node1&#45;&gt;Node4 -->
<g id="edge3" class="edge"><title>Node1&#45;&gt;Node4</title>
<path fill="none" stroke="midnightblue" d="M850.457,-311.793C681.97,-295.251 264.781,-243.551 193,-132 178.667,-109.726 208.222,-91.0624 234.765,-79.5302"/>
<polygon fill="midnightblue" stroke="midnightblue" points="236.397,-82.6438 244.321,-75.6106 233.74,-76.1674 236.397,-82.6438"/>
</g>
<!-- Node5 -->
<g id="node5" class="node"><title>Node5</title>
<g id="a_node5"><a xlink:href="../../d0/d82/SubframeBuilderDevice_8h.html" target="_top" xlink:title="Demonstrator device for a subframe builder. ">
<polygon fill="none" stroke="black" points="732,-225 732,-255 866,-255 866,-225 732,-225"/>
<text text-anchor="start" x="740" y="-243" font-family="Helvetica,sans-Serif" font-size="10.00">DataFlow/SubframeBuilder</text>
<text text-anchor="middle" x="799" y="-232" font-family="Helvetica,sans-Serif" font-size="10.00">Device.h</text>
</a>
</g>
</g>
<!-- Node1&#45;&gt;Node5 -->
<g id="edge4" class="edge"><title>Node1&#45;&gt;Node5</title>
<path fill="none" stroke="midnightblue" d="M881.053,-292.787C864.438,-282.301 845.449,-270.316 829.926,-260.519"/>
<polygon fill="midnightblue" stroke="midnightblue" points="831.555,-257.408 821.23,-255.031 827.819,-263.328 831.555,-257.408"/>
</g>
<!-- Node6 -->
<g id="node6" class="node"><title>Node6</title>
<g id="a_node6"><a xlink:href="../../dc/dcd/DataHeader_8h.html" target="_top" xlink:title="Headers/DataHeader.h">
<polygon fill="none" stroke="black" points="958.5,-56.5 958.5,-75.5 1075.5,-75.5 1075.5,-56.5 958.5,-56.5"/>
<text text-anchor="middle" x="1017" y="-63.5" font-family="Helvetica,sans-Serif" font-size="10.00">Headers/DataHeader.h</text>
</a>
</g>
</g>
<!-- Node1&#45;&gt;Node6 -->
<g id="edge39" class="edge"><title>Node1&#45;&gt;Node6</title>
<path fill="none" stroke="midnightblue" d="M991.73,-316.273C1079.11,-309.877 1224.59,-284.373 1293,-188 1308.58,-166.05 1285.29,-123.695 1271,-112 1243.29,-89.3161 1151.05,-77.4113 1085.74,-71.6712"/>
<polygon fill="midnightblue" stroke="midnightblue" points="1085.76,-68.1607 1075.5,-70.8022 1085.17,-75.1356 1085.76,-68.1607"/>
</g>
<!-- Node12 -->
<g id="node12" class="node"><title>Node12</title>
<g id="a_node12"><a xlink:href="../../d2/d09/HeartbeatFrame_8h.html" target="_top" xlink:title="Headers/HeartbeatFrame.h">
<polygon fill="none" stroke="black" points="949.5,-112.5 949.5,-131.5 1084.5,-131.5 1084.5,-112.5 949.5,-112.5"/>
<text text-anchor="middle" x="1017" y="-119.5" font-family="Helvetica,sans-Serif" font-size="10.00">Headers/HeartbeatFrame.h</text>
</a>
</g>
</g>
<!-- Node1&#45;&gt;Node12 -->
<g id="edge38" class="edge"><title>Node1&#45;&gt;Node12</title>
<path fill="none" stroke="midnightblue" d="M927.597,-292.896C936.341,-262.083 953.564,-208.893 978,-168 984.284,-157.484 993.107,-147.061 1000.77,-138.899"/>
<polygon fill="midnightblue" stroke="midnightblue" points="1003.44,-141.175 1007.91,-131.57 998.428,-136.289 1003.44,-141.175"/>
</g>
<!-- Node17 -->
<g id="node17" class="node"><title>Node17</title>
<polygon fill="none" stroke="#bfbfbf" points="785,-112.5 785,-131.5 931,-131.5 931,-112.5 785,-112.5"/>
<text text-anchor="middle" x="858" y="-119.5" font-family="Helvetica,sans-Serif" font-size="10.00">options/FairMQProgOptions.h</text>
</g>
<!-- Node1&#45;&gt;Node17 -->
<g id="edge40" class="edge"><title>Node1&#45;&gt;Node17</title>
<path fill="none" stroke="midnightblue" d="M912.893,-292.906C900.058,-253.18 875.353,-176.713 863.988,-141.536"/>
<polygon fill="midnightblue" stroke="midnightblue" points="867.204,-140.104 860.799,-131.664 860.543,-142.256 867.204,-140.104"/>
</g>
<!-- Node22 -->
<g id="node22" class="node"><title>Node22</title>
<g id="a_node22"><a xlink:href="../../d2/de2/SubframeUtils_8h.html" target="_top" xlink:title="DataFlow/SubframeUtils.h">
<polygon fill="none" stroke="black" points="987,-168.5 987,-187.5 1119,-187.5 1119,-168.5 987,-168.5"/>
<text text-anchor="middle" x="1053" y="-175.5" font-family="Helvetica,sans-Serif" font-size="10.00">DataFlow/SubframeUtils.h</text>
</a>
</g>
</g>
<!-- Node1&#45;&gt;Node22 -->
<g id="edge35" class="edge"><title>Node1&#45;&gt;Node22</title>
<path fill="none" stroke="midnightblue" d="M944.904,-292.828C971.886,-264.415 1014.98,-219.037 1037.75,-195.059"/>
<polygon fill="midnightblue" stroke="midnightblue" points="1040.55,-197.194 1044.9,-187.532 1035.47,-192.373 1040.55,-197.194"/>
</g>
<!-- Node25 -->
<g id="node25" class="node"><title>Node25</title>
<g id="a_node25"><a xlink:href="../../d2/d1b/SubframeMetadata_8h.html" target="_top" xlink:title="Headers/SubframeMetadata.h">
<polygon fill="none" stroke="black" points="1137.5,-168.5 1137.5,-187.5 1284.5,-187.5 1284.5,-168.5 1137.5,-168.5"/>
<text text-anchor="middle" x="1211" y="-175.5" font-family="Helvetica,sans-Serif" font-size="10.00">Headers/SubframeMetadata.h</text>
</a>
</g>
</g>
<!-- Node1&#45;&gt;Node25 -->
<g id="edge36" class="edge"><title>Node1&#45;&gt;Node25</title>
<path fill="none" stroke="midnightblue" d="M973.181,-292.989C1035.12,-263.301 1136.04,-214.927 1184.02,-191.931"/>
<polygon fill="midnightblue" stroke="midnightblue" points="1185.65,-195.032 1193.15,-187.554 1182.62,-188.72 1185.65,-195.032"/>
</g>
<!-- Node5&#45;&gt;Node6 -->
<g id="edge5" class="edge"><title>Node5&#45;&gt;Node6</title>
<path fill="none" stroke="midnightblue" d="M832.369,-224.903C868.111,-210.006 926.635,-186.198 978,-168 1028.48,-150.114 1061.29,-175.158 1093,-132 1108.82,-110.474 1078.17,-91.3434 1051.2,-79.5048"/>
<polygon fill="midnightblue" stroke="midnightblue" points="1052.47,-76.2429 1041.89,-75.6295 1049.78,-82.705 1052.47,-76.2429"/>
</g>
<!-- Node10 -->
<g id="node10" class="node"><title>Node10</title>
<polygon fill="none" stroke="#bfbfbf" points="189,-0.5 189,-19.5 235,-19.5 235,-0.5 189,-0.5"/>
<text text-anchor="middle" x="212" y="-7.5" font-family="Helvetica,sans-Serif" font-size="10.00">cstring</text>
</g>
<!-- Node5&#45;&gt;Node10 -->
<g id="edge33" class="edge"><title>Node5&#45;&gt;Node10</title>
<path fill="none" stroke="midnightblue" d="M731.737,-238.67C637.253,-236.693 460.599,-227.431 316,-188 258.05,-172.197 225.503,-182.512 193,-132 172.47,-100.095 189.785,-53.8886 202.166,-28.8125"/>
<polygon fill="midnightblue" stroke="midnightblue" points="205.374,-30.2295 206.89,-19.7437 199.166,-26.9953 205.374,-30.2295"/>
</g>
<!-- Node5&#45;&gt;Node12 -->
<g id="edge11" class="edge"><title>Node5&#45;&gt;Node12</title>
<path fill="none" stroke="midnightblue" d="M809.306,-224.933C821.745,-208.922 844.115,-183.047 869,-168 896.136,-151.592 929.726,-140.747 958.043,-133.823"/>
<polygon fill="midnightblue" stroke="midnightblue" points="958.88,-137.222 967.82,-131.535 957.285,-130.406 958.88,-137.222"/>
</g>
<!-- Node13 -->
<g id="node13" class="node"><title>Node13</title>
<polygon fill="none" stroke="#bfbfbf" points="501.5,-56.5 501.5,-75.5 536.5,-75.5 536.5,-56.5 501.5,-56.5"/>
<text text-anchor="middle" x="519" y="-63.5" font-family="Helvetica,sans-Serif" font-size="10.00">map</text>
</g>
<!-- Node5&#45;&gt;Node13 -->
<g id="edge34" class="edge"><title>Node5&#45;&gt;Node13</title>
<path fill="none" stroke="midnightblue" d="M731.692,-231.511C625.594,-218.165 427.158,-186.439 385,-132 379.558,-124.972 379.811,-119.217 385,-112 385.203,-111.717 452.611,-89.1701 491.731,-76.1034"/>
<polygon fill="midnightblue" stroke="midnightblue" points="492.864,-79.415 501.24,-72.9275 490.647,-72.7754 492.864,-79.415"/>
</g>
<!-- Node15 -->
<g id="node15" class="node"><title>Node15</title>
<g id="a_node15"><a xlink:href="../../d2/dee/O2Device_8h.html" target="_top" xlink:title="O2Device/O2Device.h">
<polygon fill="none" stroke="black" points="641.5,-168.5 641.5,-187.5 756.5,-187.5 756.5,-168.5 641.5,-168.5"/>
<text text-anchor="middle" x="699" y="-175.5" font-family="Helvetica,sans-Serif" font-size="10.00">O2Device/O2Device.h</text>
</a>
</g>
</g>
<!-- Node5&#45;&gt;Node15 -->
<g id="edge16" class="edge"><title>Node5&#45;&gt;Node15</title>
<path fill="none" stroke="midnightblue" d="M775.554,-224.933C759.436,-215.262 738.132,-202.479 722.091,-192.855"/>
<polygon fill="midnightblue" stroke="midnightblue" points="723.709,-189.744 713.333,-187.6 720.108,-195.746 723.709,-189.744"/>
</g>
<!-- Node20 -->
<g id="node20" class="node"><title>Node20</title>
<g id="a_node20"><a xlink:href="../../d3/d95/PayloadMerger_8h.html" target="_top" xlink:title="DataFlow/PayloadMerger.h">
<polygon fill="none" stroke="black" points="202.5,-112.5 202.5,-131.5 337.5,-131.5 337.5,-112.5 202.5,-112.5"/>
<text text-anchor="middle" x="270" y="-119.5" font-family="Helvetica,sans-Serif" font-size="10.00">DataFlow/PayloadMerger.h</text>
</a>
</g>
</g>
<!-- Node5&#45;&gt;Node20 -->
<g id="edge22" class="edge"><title>Node5&#45;&gt;Node20</title>
<path fill="none" stroke="midnightblue" d="M731.638,-235.846C624.129,-230.058 419.042,-215.709 352,-188 325.122,-176.891 299.793,-154.256 284.586,-138.855"/>
<polygon fill="midnightblue" stroke="midnightblue" points="287.046,-136.364 277.602,-131.561 281.99,-141.205 287.046,-136.364"/>
</g>
<!-- Node5&#45;&gt;Node22 -->
<g id="edge29" class="edge"><title>Node5&#45;&gt;Node22</title>
<path fill="none" stroke="midnightblue" d="M858.552,-224.933C903.931,-214.213 965.496,-199.67 1007.1,-189.843"/>
<polygon fill="midnightblue" stroke="midnightblue" points="1008.04,-193.218 1016.96,-187.513 1006.43,-186.405 1008.04,-193.218"/>
</g>
<!-- Node7 -->
<g id="node7" class="node"><title>Node7</title>
<polygon fill="none" stroke="#bfbfbf" points="581,-0.5 581,-19.5 627,-19.5 627,-0.5 581,-0.5"/>
<text text-anchor="middle" x="604" y="-7.5" font-family="Helvetica,sans-Serif" font-size="10.00">cstdint</text>
</g>
<!-- Node6&#45;&gt;Node7 -->
<g id="edge6" class="edge"><title>Node6&#45;&gt;Node7</title>
<path fill="none" stroke="midnightblue" d="M958.266,-57.3205C870.358,-45.8265 707.425,-24.5229 637.403,-15.3675"/>
<polygon fill="midnightblue" stroke="midnightblue" points="637.746,-11.8826 627.377,-14.0565 636.839,-18.8236 637.746,-11.8826"/>
</g>
<!-- Node8 -->
<g id="node8" class="node"><title>Node8</title>
<polygon fill="none" stroke="#bfbfbf" points="922,-0.5 922,-19.5 974,-19.5 974,-0.5 922,-0.5"/>
<text text-anchor="middle" x="948" y="-7.5" font-family="Helvetica,sans-Serif" font-size="10.00">memory</text>
</g>
<!-- Node6&#45;&gt;Node8 -->
<g id="edge7" class="edge"><title>Node6&#45;&gt;Node8</title>
<path fill="none" stroke="midnightblue" d="M1005.91,-56.324C995.514,-48.1849 979.739,-35.8395 967.278,-26.0874"/>
<polygon fill="midnightblue" stroke="midnightblue" points="969.32,-23.2407 959.288,-19.8339 965.006,-28.7533 969.32,-23.2407"/>
</g>
<!-- Node9 -->
<g id="node9" class="node"><title>Node9</title>
<polygon fill="none" stroke="#bfbfbf" points="992.5,-0.5 992.5,-19.5 1041.5,-19.5 1041.5,-0.5 992.5,-0.5"/>
<text text-anchor="middle" x="1017" y="-7.5" font-family="Helvetica,sans-Serif" font-size="10.00">cassert</text>
</g>
<!-- Node6&#45;&gt;Node9 -->
<g id="edge8" class="edge"><title>Node6&#45;&gt;Node9</title>
<path fill="none" stroke="midnightblue" d="M1017,-56.083C1017,-49.0059 1017,-38.8611 1017,-29.9865"/>
<polygon fill="midnightblue" stroke="midnightblue" points="1020.5,-29.751 1017,-19.7511 1013.5,-29.7511 1020.5,-29.751"/>
</g>
<!-- Node6&#45;&gt;Node10 -->
<g id="edge9" class="edge"><title>Node6&#45;&gt;Node10</title>
<path fill="none" stroke="midnightblue" d="M958.308,-57.0661C954.823,-56.6815 951.367,-56.3222 948,-56 677.534,-30.1234 349.652,-16.223 245.457,-12.2269"/>
<polygon fill="midnightblue" stroke="midnightblue" points="245.374,-8.72126 235.248,-11.8397 245.108,-15.7162 245.374,-8.72126"/>
</g>
<!-- Node11 -->
<g id="node11" class="node"><title>Node11</title>
<polygon fill="none" stroke="#bfbfbf" points="1060,-0.5 1060,-19.5 1116,-19.5 1116,-0.5 1060,-0.5"/>
<text text-anchor="middle" x="1088" y="-7.5" font-family="Helvetica,sans-Serif" font-size="10.00">algorithm</text>
</g>
<!-- Node6&#45;&gt;Node11 -->
<g id="edge10" class="edge"><title>Node6&#45;&gt;Node11</title>
<path fill="none" stroke="midnightblue" d="M1028.41,-56.324C1039.11,-48.1849 1055.34,-35.8395 1068.16,-26.0874"/>
<polygon fill="midnightblue" stroke="midnightblue" points="1070.54,-28.6734 1076.39,-19.8339 1066.31,-23.1018 1070.54,-28.6734"/>
</g>
<!-- Node12&#45;&gt;Node4 -->
<g id="edge13" class="edge"><title>Node12&#45;&gt;Node4</title>
<path fill="none" stroke="midnightblue" d="M949.416,-112.885C946.234,-112.571 943.083,-112.274 940,-112 676.992,-88.6643 610.008,-99.3357 347,-76 334.868,-74.9236 321.692,-73.4836 309.726,-72.0716"/>
<polygon fill="midnightblue" stroke="midnightblue" points="309.925,-68.5703 299.578,-70.8478 309.087,-75.52 309.925,-68.5703"/>
</g>
<!-- Node12&#45;&gt;Node6 -->
<g id="edge12" class="edge"><title>Node12&#45;&gt;Node6</title>
<path fill="none" stroke="midnightblue" d="M1017,-112.083C1017,-105.006 1017,-94.8611 1017,-85.9865"/>
<polygon fill="midnightblue" stroke="midnightblue" points="1020.5,-85.751 1017,-75.7511 1013.5,-85.7511 1020.5,-85.751"/>
</g>
<!-- Node12&#45;&gt;Node13 -->
<g id="edge14" class="edge"><title>Node12&#45;&gt;Node13</title>
<path fill="none" stroke="midnightblue" d="M949.398,-113.06C946.222,-112.699 943.076,-112.344 940,-112 791.915,-95.4318 614.372,-76.8863 546.879,-69.8838"/>
<polygon fill="midnightblue" stroke="midnightblue" points="546.961,-66.3737 536.654,-68.8239 546.24,-73.3364 546.961,-66.3737"/>
</g>
<!-- Node14 -->
<g id="node14" class="node"><title>Node14</title>
<polygon fill="none" stroke="#bfbfbf" points="896,-56.5 896,-75.5 940,-75.5 940,-56.5 896,-56.5"/>
<text text-anchor="middle" x="918" y="-63.5" font-family="Helvetica,sans-Serif" font-size="10.00">vector</text>
</g>
<!-- Node12&#45;&gt;Node14 -->
<g id="edge15" class="edge"><title>Node12&#45;&gt;Node14</title>
<path fill="none" stroke="midnightblue" d="M1001.09,-112.324C985.362,-103.743 961.058,-90.486 942.791,-80.5224"/>
<polygon fill="midnightblue" stroke="midnightblue" points="944.322,-77.3704 933.867,-75.6545 940.97,-83.5157 944.322,-77.3704"/>
</g>
<!-- Node15&#45;&gt;Node6 -->
<g id="edge19" class="edge"><title>Node15&#45;&gt;Node6</title>
<path fill="none" stroke="midnightblue" d="M706.528,-168.206C719.274,-153.938 746.599,-125.943 776,-112 791.866,-104.475 887.427,-87.9516 953.34,-77.1583"/>
<polygon fill="midnightblue" stroke="midnightblue" points="953.936,-80.6075 963.242,-75.5434 952.809,-73.6988 953.936,-80.6075"/>
</g>
<!-- Node16 -->
<g id="node16" class="node"><title>Node16</title>
<polygon fill="none" stroke="#bfbfbf" points="641,-112.5 641,-131.5 729,-131.5 729,-112.5 641,-112.5"/>
<text text-anchor="middle" x="685" y="-119.5" font-family="Helvetica,sans-Serif" font-size="10.00">FairMQDevice.h</text>
</g>
<!-- Node15&#45;&gt;Node16 -->
<g id="edge17" class="edge"><title>Node15&#45;&gt;Node16</title>
<path fill="none" stroke="midnightblue" d="M696.688,-168.083C694.833,-160.927 692.165,-150.635 689.846,-141.691"/>
<polygon fill="midnightblue" stroke="midnightblue" points="693.166,-140.553 687.269,-131.751 686.391,-142.309 693.166,-140.553"/>
</g>
<!-- Node15&#45;&gt;Node17 -->
<g id="edge18" class="edge"><title>Node15&#45;&gt;Node17</title>
<path fill="none" stroke="midnightblue" d="M724.194,-168.444C750.943,-159.359 793.403,-144.939 823.305,-134.783"/>
<polygon fill="midnightblue" stroke="midnightblue" points="824.581,-138.046 832.924,-131.516 822.329,-131.418 824.581,-138.046"/>
</g>
<!-- Node18 -->
<g id="node18" class="node"><title>Node18</title>
<polygon fill="none" stroke="#bfbfbf" points="394.5,-112.5 394.5,-131.5 545.5,-131.5 545.5,-112.5 394.5,-112.5"/>
<text text-anchor="middle" x="470" y="-119.5" font-family="Helvetica,sans-Serif" font-size="10.00">Monitoring/MonitoringFactory.h</text>
</g>
<!-- Node15&#45;&gt;Node18 -->
<g id="edge20" class="edge"><title>Node15&#45;&gt;Node18</title>
<path fill="none" stroke="midnightblue" d="M662.714,-168.444C623.017,-159.083 559.293,-144.056 516.088,-133.868"/>
<polygon fill="midnightblue" stroke="midnightblue" points="516.652,-130.405 506.116,-131.516 515.046,-137.218 516.652,-130.405"/>
</g>
<!-- Node19 -->
<g id="node19" class="node"><title>Node19</title>
<polygon fill="none" stroke="#bfbfbf" points="563.5,-112.5 563.5,-131.5 622.5,-131.5 622.5,-112.5 563.5,-112.5"/>
<text text-anchor="middle" x="593" y="-119.5" font-family="Helvetica,sans-Serif" font-size="10.00">stdexcept</text>
</g>
<!-- Node15&#45;&gt;Node19 -->
<g id="edge21" class="edge"><title>Node15&#45;&gt;Node19</title>
<path fill="none" stroke="midnightblue" d="M681.969,-168.324C664.97,-159.664 638.624,-146.242 619.007,-136.249"/>
<polygon fill="midnightblue" stroke="midnightblue" points="620.488,-133.075 609.988,-131.655 617.31,-139.312 620.488,-133.075"/>
</g>
<!-- Node20&#45;&gt;Node4 -->
<g id="edge26" class="edge"><title>Node20&#45;&gt;Node4</title>
<path fill="none" stroke="midnightblue" d="M270,-112.083C270,-105.006 270,-94.8611 270,-85.9865"/>
<polygon fill="midnightblue" stroke="midnightblue" points="273.5,-85.751 270,-75.7511 266.5,-85.7511 273.5,-85.751"/>
</g>
<!-- Node20&#45;&gt;Node7 -->
<g id="edge24" class="edge"><title>Node20&#45;&gt;Node7</title>
<path fill="none" stroke="midnightblue" d="M277.511,-112.168C290.231,-97.8478 317.521,-69.7778 347,-56 421.706,-21.0835 520.129,-13.0706 570.756,-11.3549"/>
<polygon fill="midnightblue" stroke="midnightblue" points="570.909,-14.8521 580.808,-11.0769 570.715,-7.85474 570.909,-14.8521"/>
</g>
<!-- Node20&#45;&gt;Node10 -->
<g id="edge27" class="edge"><title>Node20&#45;&gt;Node10</title>
<path fill="none" stroke="midnightblue" d="M260.331,-112.247C251.514,-103.772 238.721,-90.1592 231,-76 223.085,-61.4847 218.132,-43.3027 215.276,-29.8624"/>
<polygon fill="midnightblue" stroke="midnightblue" points="218.68,-29.0293 213.351,-19.8723 211.806,-30.354 218.68,-29.0293"/>
</g>
<!-- Node20&#45;&gt;Node13 -->
<g id="edge23" class="edge"><title>Node20&#45;&gt;Node13</title>
<path fill="none" stroke="midnightblue" d="M321.107,-112.466C364.159,-104.866 427.501,-92.7264 491.514,-75.8533"/>
<polygon fill="midnightblue" stroke="midnightblue" points="492.618,-79.1812 501.375,-73.2174 490.81,-72.4187 492.618,-79.1812"/>
</g>
<!-- Node20&#45;&gt;Node14 -->
<g id="edge25" class="edge"><title>Node20&#45;&gt;Node14</title>
<path fill="none" stroke="midnightblue" d="M337.514,-115.374C475.442,-103.88 785.027,-78.0811 885.7,-69.6916"/>
<polygon fill="midnightblue" stroke="midnightblue" points="886.18,-73.1639 895.855,-68.8454 885.599,-66.1881 886.18,-73.1639"/>
</g>
<!-- Node21 -->
<g id="node21" class="node"><title>Node21</title>
<polygon fill="none" stroke="#bfbfbf" points="356.5,-56.5 356.5,-75.5 483.5,-75.5 483.5,-56.5 356.5,-56.5"/>
<text text-anchor="middle" x="420" y="-63.5" font-family="Helvetica,sans-Serif" font-size="10.00">fairmq/FairMQMessage.h</text>
</g>
<!-- Node20&#45;&gt;Node21 -->
<g id="edge28" class="edge"><title>Node20&#45;&gt;Node21</title>
<path fill="none" stroke="midnightblue" d="M293.768,-112.444C318.893,-103.399 358.711,-89.064 386.9,-78.9158"/>
<polygon fill="midnightblue" stroke="midnightblue" points="388.12,-82.1968 396.343,-75.5164 385.749,-75.6106 388.12,-82.1968"/>
</g>
<!-- Node22&#45;&gt;Node12 -->
<g id="edge32" class="edge"><title>Node22&#45;&gt;Node12</title>
<path fill="none" stroke="midnightblue" d="M1047.06,-168.083C1042.02,-160.534 1034.66,-149.495 1028.49,-140.23"/>
<polygon fill="midnightblue" stroke="midnightblue" points="1031.29,-138.13 1022.83,-131.751 1025.47,-142.013 1031.29,-138.13"/>
</g>
<!-- Node23 -->
<g id="node23" class="node"><title>Node23</title>
<polygon fill="none" stroke="#bfbfbf" points="1141,-112.5 1141,-131.5 1179,-131.5 1179,-112.5 1141,-112.5"/>
<text text-anchor="middle" x="1160" y="-119.5" font-family="Helvetica,sans-Serif" font-size="10.00">tuple</text>
</g>
<!-- Node22&#45;&gt;Node23 -->
<g id="edge30" class="edge"><title>Node22&#45;&gt;Node23</title>
<path fill="none" stroke="midnightblue" d="M1070.19,-168.324C1087.35,-159.664 1113.95,-146.242 1133.75,-136.249"/>
<polygon fill="midnightblue" stroke="midnightblue" points="1135.5,-139.285 1142.85,-131.655 1132.35,-133.035 1135.5,-139.285"/>
</g>
<!-- Node24 -->
<g id="node24" class="node"><title>Node24</title>
<polygon fill="none" stroke="#bfbfbf" points="1197.5,-112.5 1197.5,-131.5 1246.5,-131.5 1246.5,-112.5 1197.5,-112.5"/>
<text text-anchor="middle" x="1222" y="-119.5" font-family="Helvetica,sans-Serif" font-size="10.00">cstddef</text>
</g>
<!-- Node22&#45;&gt;Node24 -->
<g id="edge31" class="edge"><title>Node22&#45;&gt;Node24</title>
<path fill="none" stroke="midnightblue" d="M1079.78,-168.444C1108.92,-159.132 1155.61,-144.214 1187.48,-134.029"/>
<polygon fill="midnightblue" stroke="midnightblue" points="1188.81,-137.279 1197.27,-130.902 1186.68,-130.611 1188.81,-137.279"/>
</g>
<!-- Node25&#45;&gt;Node14 -->
<g id="edge37" class="edge"><title>Node25&#45;&gt;Node14</title>
<path fill="none" stroke="midnightblue" d="M1224.03,-168.493C1242.29,-155.57 1271.48,-130.537 1255,-112 1211.52,-63.0833 1032.5,-87.0925 950.273,-75.4438"/>
<polygon fill="midnightblue" stroke="midnightblue" points="950.717,-71.969 940.272,-73.745 949.544,-78.8702 950.717,-71.969"/>
</g>
</g>
</svg>
