<?xml version="1.0" encoding="UTF-8" standalone="no"?>
<!DOCTYPE svg PUBLIC "-//W3C//DTD SVG 1.1//EN"
 "http://www.w3.org/Graphics/SVG/1.1/DTD/svg11.dtd">
<!-- Generated by graphviz version 2.36.0 (20140111.2315)
 -->
<!-- Title: /home/travis/build/AliceO2Group/AliceO2/Framework/Core/include/Framework/ForwardRoute.h Pages: 1 -->
<svg width="488pt" height="230pt"
 viewBox="0.00 0.00 488.00 230.00" xmlns="http://www.w3.org/2000/svg" xmlns:xlink="http://www.w3.org/1999/xlink">
<g id="graph0" class="graph" transform="scale(1 1) rotate(0) translate(4 226)">
<title>/home/travis/build/AliceO2Group/AliceO2/Framework/Core/include/Framework/ForwardRoute.h</title>
<!-- Node1 -->
<g id="node1" class="node"><title>Node1</title>
<polygon fill="#bfbfbf" stroke="black" points="38.5,-169 38.5,-221 179.5,-221 179.5,-169 38.5,-169"/>
<text text-anchor="start" x="46.5" y="-209" font-family="Helvetica,sans-Serif" font-size="10.00">/home/travis/build</text>
<text text-anchor="start" x="46.5" y="-198" font-family="Helvetica,sans-Serif" font-size="10.00">/AliceO2Group/AliceO2</text>
<text text-anchor="start" x="46.5" y="-187" font-family="Helvetica,sans-Serif" font-size="10.00">/Framework/Core/include</text>
<text text-anchor="middle" x="109" y="-176" font-family="Helvetica,sans-Serif" font-size="10.00">/Framework/ForwardRoute.h</text>
</g>
<!-- Node2 -->
<g id="node2" class="node"><title>Node2</title>
<g id="a_node2"><a xlink:href="../../d5/d3f/InputSpec_8h.html" target="_top" xlink:title="Framework/InputSpec.h">
<polygon fill="none" stroke="black" points="48.5,-112.5 48.5,-131.5 169.5,-131.5 169.5,-112.5 48.5,-112.5"/>
<text text-anchor="middle" x="109" y="-119.5" font-family="Helvetica,sans-Serif" font-size="10.00">Framework/InputSpec.h</text>
</a>
</g>
</g>
<!-- Node1&#45;&gt;Node2 -->
<g id="edge1" class="edge"><title>Node1&#45;&gt;Node2</title>
<path fill="none" stroke="midnightblue" d="M109,-168.768C109,-159.89 109,-150.074 109,-141.816"/>
<polygon fill="midnightblue" stroke="midnightblue" points="112.5,-141.757 109,-131.757 105.5,-141.757 112.5,-141.757"/>
</g>
<!-- Node3 -->
<g id="node3" class="node"><title>Node3</title>
<polygon fill="none" stroke="#bfbfbf" points="-0.5,-56.5 -0.5,-75.5 40.5,-75.5 40.5,-56.5 -0.5,-56.5"/>
<text text-anchor="middle" x="20" y="-63.5" font-family="Helvetica,sans-Serif" font-size="10.00">string</text>
</g>
<!-- Node1&#45;&gt;Node3 -->
<g id="edge12" class="edge"><title>Node1&#45;&gt;Node3</title>
<path fill="none" stroke="midnightblue" d="M73.1101,-168.866C60.7821,-158.667 47.8681,-145.984 39,-132 30.0473,-117.882 25.1783,-99.3953 22.6184,-85.7477"/>
<polygon fill="midnightblue" stroke="midnightblue" points="26.032,-84.9326 20.9724,-75.624 19.1227,-86.0561 26.032,-84.9326"/>
</g>
<!-- Node12 -->
<g id="node12" class="node"><title>Node12</title>
<polygon fill="none" stroke="#bfbfbf" points="187.5,-112.5 187.5,-131.5 236.5,-131.5 236.5,-112.5 187.5,-112.5"/>
<text text-anchor="middle" x="212" y="-119.5" font-family="Helvetica,sans-Serif" font-size="10.00">cstddef</text>
</g>
<!-- Node1&#45;&gt;Node12 -->
<g id="edge11" class="edge"><title>Node1&#45;&gt;Node12</title>
<path fill="none" stroke="midnightblue" d="M145.314,-168.968C160.561,-158.458 177.758,-146.603 190.87,-137.565"/>
<polygon fill="midnightblue" stroke="midnightblue" points="192.973,-140.367 199.22,-131.81 189,-134.603 192.973,-140.367"/>
</g>
<!-- Node2&#45;&gt;Node3 -->
<g id="edge2" class="edge"><title>Node2&#45;&gt;Node3</title>
<path fill="none" stroke="midnightblue" d="M94.7006,-112.324C80.8171,-103.9 59.5076,-90.9709 43.1963,-81.0741"/>
<polygon fill="midnightblue" stroke="midnightblue" points="44.6289,-77.8495 34.2639,-75.6545 40.9978,-83.8341 44.6289,-77.8495"/>
</g>
<!-- Node4 -->
<g id="node4" class="node"><title>Node4</title>
<polygon fill="none" stroke="#bfbfbf" points="59,-56.5 59,-75.5 111,-75.5 111,-56.5 59,-56.5"/>
<text text-anchor="middle" x="85" y="-63.5" font-family="Helvetica,sans-Serif" font-size="10.00">ostream</text>
</g>
<!-- Node2&#45;&gt;Node4 -->
<g id="edge3" class="edge"><title>Node2&#45;&gt;Node4</title>
<path fill="none" stroke="midnightblue" d="M105.037,-112.083C101.787,-104.77 97.0806,-94.1814 93.046,-85.1034"/>
<polygon fill="midnightblue" stroke="midnightblue" points="96.1492,-83.4677 88.8894,-75.7511 89.7525,-86.3107 96.1492,-83.4677"/>
</g>
<!-- Node5 -->
<g id="node5" class="node"><title>Node5</title>
<g id="a_node5"><a xlink:href="../../dc/dca/Lifetime_8h.html" target="_top" xlink:title="Framework/Lifetime.h">
<polygon fill="none" stroke="black" points="129.5,-56.5 129.5,-75.5 240.5,-75.5 240.5,-56.5 129.5,-56.5"/>
<text text-anchor="middle" x="185" y="-63.5" font-family="Helvetica,sans-Serif" font-size="10.00">Framework/Lifetime.h</text>
</a>
</g>
</g>
<!-- Node2&#45;&gt;Node5 -->
<g id="edge4" class="edge"><title>Node2&#45;&gt;Node5</title>
<path fill="none" stroke="midnightblue" d="M121.211,-112.324C132.776,-104.107 150.375,-91.6017 164.161,-81.8069"/>
<polygon fill="midnightblue" stroke="midnightblue" points="166.443,-84.4791 172.567,-75.8339 162.388,-78.7729 166.443,-84.4791"/>
</g>
<!-- Node6 -->
<g id="node6" class="node"><title>Node6</title>
<g id="a_node6"><a xlink:href="../../dc/dcd/DataHeader_8h.html" target="_top" xlink:title="Headers/DataHeader.h">
<polygon fill="none" stroke="black" points="258.5,-56.5 258.5,-75.5 375.5,-75.5 375.5,-56.5 258.5,-56.5"/>
<text text-anchor="middle" x="317" y="-63.5" font-family="Helvetica,sans-Serif" font-size="10.00">Headers/DataHeader.h</text>
</a>
</g>
</g>
<!-- Node2&#45;&gt;Node6 -->
<g id="edge5" class="edge"><title>Node2&#45;&gt;Node6</title>
<path fill="none" stroke="midnightblue" d="M141.958,-112.444C177.787,-103.142 235.163,-88.246 274.391,-78.062"/>
<polygon fill="midnightblue" stroke="midnightblue" points="275.396,-81.4171 284.196,-75.5164 273.637,-74.6417 275.396,-81.4171"/>
</g>
<!-- Node7 -->
<g id="node7" class="node"><title>Node7</title>
<polygon fill="none" stroke="#bfbfbf" points="158,-0.5 158,-19.5 204,-19.5 204,-0.5 158,-0.5"/>
<text text-anchor="middle" x="181" y="-7.5" font-family="Helvetica,sans-Serif" font-size="10.00">cstdint</text>
</g>
<!-- Node6&#45;&gt;Node7 -->
<g id="edge6" class="edge"><title>Node6&#45;&gt;Node7</title>
<path fill="none" stroke="midnightblue" d="M295.45,-56.4435C272.969,-47.5171 237.512,-33.4387 212.02,-23.3168"/>
<polygon fill="midnightblue" stroke="midnightblue" points="213.035,-19.9539 202.449,-19.5164 210.451,-26.4598 213.035,-19.9539"/>
</g>
<!-- Node8 -->
<g id="node8" class="node"><title>Node8</title>
<polygon fill="none" stroke="#bfbfbf" points="222,-0.5 222,-19.5 274,-19.5 274,-0.5 222,-0.5"/>
<text text-anchor="middle" x="248" y="-7.5" font-family="Helvetica,sans-Serif" font-size="10.00">memory</text>
</g>
<!-- Node6&#45;&gt;Node8 -->
<g id="edge7" class="edge"><title>Node6&#45;&gt;Node8</title>
<path fill="none" stroke="midnightblue" d="M305.914,-56.324C295.514,-48.1849 279.739,-35.8395 267.278,-26.0874"/>
<polygon fill="midnightblue" stroke="midnightblue" points="269.32,-23.2407 259.288,-19.8339 265.006,-28.7533 269.32,-23.2407"/>
</g>
<!-- Node9 -->
<g id="node9" class="node"><title>Node9</title>
<polygon fill="none" stroke="#bfbfbf" points="292.5,-0.5 292.5,-19.5 341.5,-19.5 341.5,-0.5 292.5,-0.5"/>
<text text-anchor="middle" x="317" y="-7.5" font-family="Helvetica,sans-Serif" font-size="10.00">cassert</text>
</g>
<!-- Node6&#45;&gt;Node9 -->
<g id="edge8" class="edge"><title>Node6&#45;&gt;Node9</title>
<path fill="none" stroke="midnightblue" d="M317,-56.083C317,-49.0059 317,-38.8611 317,-29.9865"/>
<polygon fill="midnightblue" stroke="midnightblue" points="320.5,-29.751 317,-19.7511 313.5,-29.7511 320.5,-29.751"/>
</g>
<!-- Node10 -->
<g id="node10" class="node"><title>Node10</title>
<polygon fill="none" stroke="#bfbfbf" points="360,-0.5 360,-19.5 406,-19.5 406,-0.5 360,-0.5"/>
<text text-anchor="middle" x="383" y="-7.5" font-family="Helvetica,sans-Serif" font-size="10.00">cstring</text>
</g>
<!-- Node6&#45;&gt;Node10 -->
<g id="edge9" class="edge"><title>Node6&#45;&gt;Node10</title>
<path fill="none" stroke="midnightblue" d="M327.604,-56.324C337.456,-48.2631 352.351,-36.0765 364.215,-26.3695"/>
<polygon fill="midnightblue" stroke="midnightblue" points="366.68,-28.8752 372.203,-19.8339 362.247,-23.4575 366.68,-28.8752"/>
</g>
<!-- Node11 -->
<g id="node11" class="node"><title>Node11</title>
<polygon fill="none" stroke="#bfbfbf" points="424,-0.5 424,-19.5 480,-19.5 480,-0.5 424,-0.5"/>
<text text-anchor="middle" x="452" y="-7.5" font-family="Helvetica,sans-Serif" font-size="10.00">algorithm</text>
</g>
<!-- Node6&#45;&gt;Node11 -->
<g id="edge10" class="edge"><title>Node6&#45;&gt;Node11</title>
<path fill="none" stroke="midnightblue" d="M338.391,-56.4435C360.707,-47.5171 395.903,-33.4387 421.208,-23.3168"/>
<polygon fill="midnightblue" stroke="midnightblue" points="422.724,-26.4801 430.709,-19.5164 420.124,-19.9807 422.724,-26.4801"/>
</g>
</g>
</svg>
