<?xml version="1.0" encoding="UTF-8" standalone="no"?>
<!DOCTYPE svg PUBLIC "-//W3C//DTD SVG 1.1//EN"
 "http://www.w3.org/Graphics/SVG/1.1/DTD/svg11.dtd">
<!-- Generated by graphviz version 2.36.0 (20140111.2315)
 -->
<!-- Title: /home/travis/build/AliceO2Group/AliceO2/Detectors/ITSMFT/common/simulation/include/ITSMFTSimulation/Hit.h Pages: 1 -->
<svg width="1407pt" height="334pt"
 viewBox="0.00 0.00 1407.00 334.00" xmlns="http://www.w3.org/2000/svg" xmlns:xlink="http://www.w3.org/1999/xlink">
<g id="graph0" class="graph" transform="scale(1 1) rotate(0) translate(4 330)">
<title>/home/travis/build/AliceO2Group/AliceO2/Detectors/ITSMFT/common/simulation/include/ITSMFTSimulation/Hit.h</title>
<!-- Node1 -->
<g id="node1" class="node"><title>Node1</title>
<polygon fill="#bfbfbf" stroke="black" points="1154,-273 1154,-325 1360,-325 1360,-273 1154,-273"/>
<text text-anchor="start" x="1162" y="-313" font-family="Helvetica,sans-Serif" font-size="10.00">/home/travis/build</text>
<text text-anchor="start" x="1162" y="-302" font-family="Helvetica,sans-Serif" font-size="10.00">/AliceO2Group/AliceO2</text>
<text text-anchor="start" x="1162" y="-291" font-family="Helvetica,sans-Serif" font-size="10.00">/Detectors/ITSMFT/common</text>
<text text-anchor="middle" x="1257" y="-280" font-family="Helvetica,sans-Serif" font-size="10.00">/simulation/include/ITSMFTSimulation/Hit.h</text>
</g>
<!-- Node2 -->
<g id="node2" class="node"><title>Node2</title>
<g id="a_node2"><a xlink:href="../../d4/d25/BaseHits_8h.html" target="_top" xlink:title="SimulationDataFormat\l/BaseHits.h">
<polygon fill="none" stroke="black" points="938,-205 938,-235 1052,-235 1052,-205 938,-205"/>
<text text-anchor="start" x="946" y="-223" font-family="Helvetica,sans-Serif" font-size="10.00">SimulationDataFormat</text>
<text text-anchor="middle" x="995" y="-212" font-family="Helvetica,sans-Serif" font-size="10.00">/BaseHits.h</text>
</a>
</g>
</g>
<!-- Node1&#45;&gt;Node2 -->
<g id="edge1" class="edge"><title>Node1&#45;&gt;Node2</title>
<path fill="none" stroke="midnightblue" d="M1171.57,-272.894C1132.7,-261.47 1087.72,-248.249 1052.88,-238.01"/>
<polygon fill="midnightblue" stroke="midnightblue" points="1053.46,-234.532 1042.88,-235.07 1051.48,-241.248 1053.46,-234.532"/>
</g>
<!-- Node9 -->
<g id="node9" class="node"><title>Node9</title>
<polygon fill="none" stroke="#bfbfbf" points="1287,-74.5 1287,-93.5 1343,-93.5 1343,-74.5 1287,-74.5"/>
<text text-anchor="middle" x="1315" y="-81.5" font-family="Helvetica,sans-Serif" font-size="10.00">Rtypes.h</text>
</g>
<!-- Node1&#45;&gt;Node9 -->
<g id="edge16" class="edge"><title>Node1&#45;&gt;Node9</title>
<path fill="none" stroke="midnightblue" d="M1255.91,-272.841C1255.37,-240.097 1257.5,-181.67 1276,-136 1281.24,-123.055 1290.7,-110.565 1298.98,-101.185"/>
<polygon fill="midnightblue" stroke="midnightblue" points="1301.59,-103.519 1305.83,-93.8092 1296.46,-98.7572 1301.59,-103.519"/>
</g>
<!-- Node11 -->
<g id="node11" class="node"><title>Node11</title>
<polygon fill="none" stroke="#bfbfbf" points="1223.5,-74.5 1223.5,-93.5 1268.5,-93.5 1268.5,-74.5 1223.5,-74.5"/>
<text text-anchor="middle" x="1246" y="-81.5" font-family="Helvetica,sans-Serif" font-size="10.00">iosfwd</text>
</g>
<!-- Node1&#45;&gt;Node11 -->
<g id="edge18" class="edge"><title>Node1&#45;&gt;Node11</title>
<path fill="none" stroke="midnightblue" d="M1249.99,-272.877C1247.22,-261.686 1244.37,-248.283 1243,-236 1238.07,-191.829 1241.69,-180.425 1243,-136 1243.31,-125.295 1244,-113.342 1244.64,-103.7"/>
<polygon fill="midnightblue" stroke="midnightblue" points="1248.13,-103.875 1245.34,-93.6561 1241.15,-103.389 1248.13,-103.875"/>
</g>
<!-- Node15 -->
<g id="node15" class="node"><title>Node15</title>
<g id="a_node15"><a xlink:href="../../d7/dcd/MCCompLabel_8h.html" target="_top" xlink:title="SimulationDataFormat\l/MCCompLabel.h">
<polygon fill="none" stroke="black" points="1285,-137 1285,-167 1399,-167 1399,-137 1285,-137"/>
<text text-anchor="start" x="1293" y="-155" font-family="Helvetica,sans-Serif" font-size="10.00">SimulationDataFormat</text>
<text text-anchor="middle" x="1342" y="-144" font-family="Helvetica,sans-Serif" font-size="10.00">/MCCompLabel.h</text>
</a>
</g>
</g>
<!-- Node1&#45;&gt;Node15 -->
<g id="edge14" class="edge"><title>Node1&#45;&gt;Node15</title>
<path fill="none" stroke="midnightblue" d="M1271.81,-272.743C1287.82,-245.427 1313.12,-202.262 1328.58,-175.901"/>
<polygon fill="midnightblue" stroke="midnightblue" points="1331.75,-177.407 1333.79,-167.01 1325.71,-173.867 1331.75,-177.407"/>
</g>
<!-- Node16 -->
<g id="node16" class="node"><title>Node16</title>
<polygon fill="none" stroke="#bfbfbf" points="1323.5,-210.5 1323.5,-229.5 1388.5,-229.5 1388.5,-210.5 1323.5,-210.5"/>
<text text-anchor="middle" x="1356" y="-217.5" font-family="Helvetica,sans-Serif" font-size="10.00">TVector3.h</text>
</g>
<!-- Node1&#45;&gt;Node16 -->
<g id="edge17" class="edge"><title>Node1&#45;&gt;Node16</title>
<path fill="none" stroke="midnightblue" d="M1289.42,-272.787C1305.14,-260.554 1323.5,-246.282 1336.94,-235.821"/>
<polygon fill="midnightblue" stroke="midnightblue" points="1339.25,-238.46 1345,-229.558 1334.95,-232.934 1339.25,-238.46"/>
</g>
<!-- Node3 -->
<g id="node3" class="node"><title>Node3</title>
<g id="a_node3"><a xlink:href="../../dd/d76/Cartesian3D_8h.html" target="_top" xlink:title="MathUtils/Cartesian3D.h">
<polygon fill="none" stroke="black" points="862.5,-142.5 862.5,-161.5 987.5,-161.5 987.5,-142.5 862.5,-142.5"/>
<text text-anchor="middle" x="925" y="-149.5" font-family="Helvetica,sans-Serif" font-size="10.00">MathUtils/Cartesian3D.h</text>
</a>
</g>
</g>
<!-- Node2&#45;&gt;Node3 -->
<g id="edge2" class="edge"><title>Node2&#45;&gt;Node3</title>
<path fill="none" stroke="midnightblue" d="M979.811,-204.679C968.572,-194.082 953.27,-179.655 941.69,-168.736"/>
<polygon fill="midnightblue" stroke="midnightblue" points="944.04,-166.142 934.363,-161.828 939.238,-171.235 944.04,-166.142"/>
</g>
<!-- Node4 -->
<g id="node4" class="node"><title>Node4</title>
<polygon fill="none" stroke="#bfbfbf" points="246.5,-69 246.5,-99 397.5,-99 397.5,-69 246.5,-69"/>
<text text-anchor="start" x="254.5" y="-87" font-family="Helvetica,sans-Serif" font-size="10.00">Math/GenVector/Displacement</text>
<text text-anchor="middle" x="322" y="-76" font-family="Helvetica,sans-Serif" font-size="10.00">Vector3D.h</text>
</g>
<!-- Node3&#45;&gt;Node4 -->
<g id="edge3" class="edge"><title>Node3&#45;&gt;Node4</title>
<path fill="none" stroke="midnightblue" d="M862.225,-146.379C766.51,-138.988 578.15,-123.093 408.095,-100.084"/>
<polygon fill="midnightblue" stroke="midnightblue" points="408.336,-96.5847 397.955,-98.7006 407.39,-103.52 408.336,-96.5847"/>
</g>
<!-- Node5 -->
<g id="node5" class="node"><title>Node5</title>
<polygon fill="none" stroke="#bfbfbf" points="416,-74.5 416,-93.5 592,-93.5 592,-74.5 416,-74.5"/>
<text text-anchor="middle" x="504" y="-81.5" font-family="Helvetica,sans-Serif" font-size="10.00">Math/GenVector/PositionVector3D.h</text>
</g>
<!-- Node3&#45;&gt;Node5 -->
<g id="edge4" class="edge"><title>Node3&#45;&gt;Node5</title>
<path fill="none" stroke="midnightblue" d="M870.393,-142.439C792.865,-130.285 651.15,-108.069 568.531,-95.1164"/>
<polygon fill="midnightblue" stroke="midnightblue" points="568.931,-91.6366 558.51,-93.5455 567.847,-98.5521 568.931,-91.6366"/>
</g>
<!-- Node6 -->
<g id="node6" class="node"><title>Node6</title>
<polygon fill="none" stroke="#bfbfbf" points="609.5,-74.5 609.5,-93.5 758.5,-93.5 758.5,-74.5 609.5,-74.5"/>
<text text-anchor="middle" x="684" y="-81.5" font-family="Helvetica,sans-Serif" font-size="10.00">Math/GenVector/Rotation3D.h</text>
</g>
<!-- Node3&#45;&gt;Node6 -->
<g id="edge5" class="edge"><title>Node3&#45;&gt;Node6</title>
<path fill="none" stroke="midnightblue" d="M893.493,-142.372C850.254,-130.53 772.473,-109.229 724.82,-96.179"/>
<polygon fill="midnightblue" stroke="midnightblue" points="725.702,-92.7916 715.132,-93.5259 723.853,-99.543 725.702,-92.7916"/>
</g>
<!-- Node7 -->
<g id="node7" class="node"><title>Node7</title>
<polygon fill="none" stroke="#bfbfbf" points="777,-74.5 777,-93.5 933,-93.5 933,-74.5 777,-74.5"/>
<text text-anchor="middle" x="855" y="-81.5" font-family="Helvetica,sans-Serif" font-size="10.00">Math/GenVector/Transform3D.h</text>
</g>
<!-- Node3&#45;&gt;Node7 -->
<g id="edge6" class="edge"><title>Node3&#45;&gt;Node7</title>
<path fill="none" stroke="midnightblue" d="M915.849,-142.372C904.696,-131.856 885.632,-113.882 871.81,-100.85"/>
<polygon fill="midnightblue" stroke="midnightblue" points="874.054,-98.1547 864.377,-93.8411 869.252,-103.248 874.054,-98.1547"/>
</g>
<!-- Node8 -->
<g id="node8" class="node"><title>Node8</title>
<polygon fill="none" stroke="#bfbfbf" points="951,-74.5 951,-93.5 1111,-93.5 1111,-74.5 951,-74.5"/>
<text text-anchor="middle" x="1031" y="-81.5" font-family="Helvetica,sans-Serif" font-size="10.00">Math/GenVector/Translation3D.h</text>
</g>
<!-- Node3&#45;&gt;Node8 -->
<g id="edge7" class="edge"><title>Node3&#45;&gt;Node8</title>
<path fill="none" stroke="midnightblue" d="M938.858,-142.372C956.554,-131.353 987.404,-112.145 1008.49,-99.0142"/>
<polygon fill="midnightblue" stroke="midnightblue" points="1010.5,-101.887 1017.14,-93.6305 1006.8,-95.945 1010.5,-101.887"/>
</g>
<!-- Node3&#45;&gt;Node9 -->
<g id="edge8" class="edge"><title>Node3&#45;&gt;Node9</title>
<path fill="none" stroke="midnightblue" d="M987.555,-146.347C1058.63,-140.049 1177.64,-126.423 1277,-100 1280.05,-99.1877 1283.2,-98.2037 1286.3,-97.1323"/>
<polygon fill="midnightblue" stroke="midnightblue" points="1287.82,-100.301 1295.96,-93.5159 1285.37,-93.7459 1287.82,-100.301"/>
</g>
<!-- Node10 -->
<g id="node10" class="node"><title>Node10</title>
<polygon fill="none" stroke="#bfbfbf" points="1129,-74.5 1129,-93.5 1205,-93.5 1205,-74.5 1129,-74.5"/>
<text text-anchor="middle" x="1167" y="-81.5" font-family="Helvetica,sans-Serif" font-size="10.00">TGeoMatrix.h</text>
</g>
<!-- Node3&#45;&gt;Node10 -->
<g id="edge9" class="edge"><title>Node3&#45;&gt;Node10</title>
<path fill="none" stroke="midnightblue" d="M960.026,-142.435C999.176,-132.724 1064.38,-116.136 1120,-100 1123.78,-98.9037 1127.71,-97.7178 1131.63,-96.5098"/>
<polygon fill="midnightblue" stroke="midnightblue" points="1132.73,-99.8346 1141.22,-93.5 1130.63,-93.1559 1132.73,-99.8346"/>
</g>
<!-- Node3&#45;&gt;Node11 -->
<g id="edge10" class="edge"><title>Node3&#45;&gt;Node11</title>
<path fill="none" stroke="midnightblue" d="M987.585,-144.779C1046.9,-137.761 1137.98,-124.058 1214,-100 1216.14,-99.3231 1218.32,-98.5336 1220.49,-97.6775"/>
<polygon fill="midnightblue" stroke="midnightblue" points="1221.96,-100.852 1229.73,-93.64 1219.16,-94.4373 1221.96,-100.852"/>
</g>
<!-- Node12 -->
<g id="node12" class="node"><title>Node12</title>
<g id="a_node12"><a xlink:href="../../d2/dd0/Cartesian2D_8h.html" target="_top" xlink:title="MathUtils/Cartesian2D.h">
<polygon fill="none" stroke="black" points="103.5,-74.5 103.5,-93.5 228.5,-93.5 228.5,-74.5 103.5,-74.5"/>
<text text-anchor="middle" x="166" y="-81.5" font-family="Helvetica,sans-Serif" font-size="10.00">MathUtils/Cartesian2D.h</text>
</a>
</g>
</g>
<!-- Node3&#45;&gt;Node12 -->
<g id="edge11" class="edge"><title>Node3&#45;&gt;Node12</title>
<path fill="none" stroke="midnightblue" d="M862.089,-149.161C740.685,-144.987 465.863,-132.508 237,-100 228.842,-98.8412 220.218,-97.2953 211.898,-95.6359"/>
<polygon fill="midnightblue" stroke="midnightblue" points="212.456,-92.1771 201.953,-93.5738 211.034,-99.0313 212.456,-92.1771"/>
</g>
<!-- Node13 -->
<g id="node13" class="node"><title>Node13</title>
<polygon fill="none" stroke="#bfbfbf" points="-0.5,-1 -0.5,-31 150.5,-31 150.5,-1 -0.5,-1"/>
<text text-anchor="start" x="7.5" y="-19" font-family="Helvetica,sans-Serif" font-size="10.00">Math/GenVector/Displacement</text>
<text text-anchor="middle" x="75" y="-8" font-family="Helvetica,sans-Serif" font-size="10.00">Vector2D.h</text>
</g>
<!-- Node12&#45;&gt;Node13 -->
<g id="edge12" class="edge"><title>Node12&#45;&gt;Node13</title>
<path fill="none" stroke="midnightblue" d="M154.103,-74.3717C141.221,-65.0286 120.22,-49.7966 103.093,-37.375"/>
<polygon fill="midnightblue" stroke="midnightblue" points="104.703,-34.2194 94.5532,-31.1815 100.593,-39.8859 104.703,-34.2194"/>
</g>
<!-- Node14 -->
<g id="node14" class="node"><title>Node14</title>
<polygon fill="none" stroke="#bfbfbf" points="169,-6.5 169,-25.5 345,-25.5 345,-6.5 169,-6.5"/>
<text text-anchor="middle" x="257" y="-13.5" font-family="Helvetica,sans-Serif" font-size="10.00">Math/GenVector/PositionVector2D.h</text>
</g>
<!-- Node12&#45;&gt;Node14 -->
<g id="edge13" class="edge"><title>Node12&#45;&gt;Node14</title>
<path fill="none" stroke="midnightblue" d="M177.897,-74.3717C192.884,-63.5015 218.862,-44.6602 236.942,-31.5474"/>
<polygon fill="midnightblue" stroke="midnightblue" points="239.06,-34.3349 245.1,-25.6305 234.95,-28.6684 239.06,-34.3349"/>
</g>
<!-- Node15&#45;&gt;Node9 -->
<g id="edge15" class="edge"><title>Node15&#45;&gt;Node9</title>
<path fill="none" stroke="midnightblue" d="M1336.14,-136.679C1332.14,-126.898 1326.8,-113.852 1322.49,-103.315"/>
<polygon fill="midnightblue" stroke="midnightblue" points="1325.64,-101.759 1318.61,-93.8283 1319.16,-104.409 1325.64,-101.759"/>
</g>
</g>
</svg>
