<?xml version="1.0" encoding="UTF-8" standalone="no"?>
<!DOCTYPE svg PUBLIC "-//W3C//DTD SVG 1.1//EN"
 "http://www.w3.org/Graphics/SVG/1.1/DTD/svg11.dtd">
<!-- Generated by graphviz version 2.36.0 (20140111.2315)
 -->
<!-- Title: /home/travis/build/AliceO2Group/AliceO2/Utilities/DataFlow/src/runTimeframeValidatorDevice.cxx Pages: 1 -->
<svg width="641pt" height="298pt"
 viewBox="0.00 0.00 641.00 298.00" xmlns="http://www.w3.org/2000/svg" xmlns:xlink="http://www.w3.org/1999/xlink">
<g id="graph0" class="graph" transform="scale(1 1) rotate(0) translate(4 294)">
<title>/home/travis/build/AliceO2Group/AliceO2/Utilities/DataFlow/src/runTimeframeValidatorDevice.cxx</title>
<!-- Node1 -->
<g id="node1" class="node"><title>Node1</title>
<polygon fill="#bfbfbf" stroke="black" points="174.5,-237 174.5,-289 341.5,-289 341.5,-237 174.5,-237"/>
<text text-anchor="start" x="182.5" y="-277" font-family="Helvetica,sans-Serif" font-size="10.00">/home/travis/build</text>
<text text-anchor="start" x="182.5" y="-266" font-family="Helvetica,sans-Serif" font-size="10.00">/AliceO2Group/AliceO2</text>
<text text-anchor="start" x="182.5" y="-255" font-family="Helvetica,sans-Serif" font-size="10.00">/Utilities/DataFlow/src</text>
<text text-anchor="middle" x="258" y="-244" font-family="Helvetica,sans-Serif" font-size="10.00">/runTimeframeValidatorDevice.cxx</text>
</g>
<!-- Node2 -->
<g id="node2" class="node"><title>Node2</title>
<polygon fill="none" stroke="#bfbfbf" points="136.5,-174.5 136.5,-193.5 237.5,-193.5 237.5,-174.5 136.5,-174.5"/>
<text text-anchor="middle" x="187" y="-181.5" font-family="Helvetica,sans-Serif" font-size="10.00">runFairMQDevice.h</text>
</g>
<!-- Node1&#45;&gt;Node2 -->
<g id="edge1" class="edge"><title>Node1&#45;&gt;Node2</title>
<path fill="none" stroke="midnightblue" d="M234.752,-236.787C223.902,-225.02 211.312,-211.366 201.784,-201.033"/>
<polygon fill="midnightblue" stroke="midnightblue" points="204.243,-198.537 194.891,-193.558 199.097,-203.282 204.243,-198.537"/>
</g>
<!-- Node3 -->
<g id="node3" class="node"><title>Node3</title>
<g id="a_node3"><a xlink:href="../../d3/da5/TimeframeValidatorDevice_8h.html" target="_top" xlink:title="DataFlow/TimeframeValidator\lDevice.h">
<polygon fill="none" stroke="black" points="256,-169 256,-199 402,-199 402,-169 256,-169"/>
<text text-anchor="start" x="264" y="-187" font-family="Helvetica,sans-Serif" font-size="10.00">DataFlow/TimeframeValidator</text>
<text text-anchor="middle" x="329" y="-176" font-family="Helvetica,sans-Serif" font-size="10.00">Device.h</text>
</a>
</g>
</g>
<!-- Node1&#45;&gt;Node3 -->
<g id="edge2" class="edge"><title>Node1&#45;&gt;Node3</title>
<path fill="none" stroke="midnightblue" d="M281.248,-236.787C290.221,-227.056 300.385,-216.033 309.022,-206.666"/>
<polygon fill="midnightblue" stroke="midnightblue" points="311.653,-208.976 315.859,-199.252 306.507,-204.231 311.653,-208.976"/>
</g>
<!-- Node4 -->
<g id="node4" class="node"><title>Node4</title>
<g id="a_node4"><a xlink:href="../../d2/dee/O2Device_8h.html" target="_top" xlink:title="O2Device/O2Device.h">
<polygon fill="none" stroke="black" points="271.5,-112.5 271.5,-131.5 386.5,-131.5 386.5,-112.5 271.5,-112.5"/>
<text text-anchor="middle" x="329" y="-119.5" font-family="Helvetica,sans-Serif" font-size="10.00">O2Device/O2Device.h</text>
</a>
</g>
</g>
<!-- Node3&#45;&gt;Node4 -->
<g id="edge3" class="edge"><title>Node3&#45;&gt;Node4</title>
<path fill="none" stroke="midnightblue" d="M329,-168.781C329,-160.781 329,-150.689 329,-142.017"/>
<polygon fill="midnightblue" stroke="midnightblue" points="332.5,-141.73 329,-131.731 325.5,-141.731 332.5,-141.73"/>
</g>
<!-- Node5 -->
<g id="node5" class="node"><title>Node5</title>
<polygon fill="none" stroke="#bfbfbf" points="0,-56.5 0,-75.5 88,-75.5 88,-56.5 0,-56.5"/>
<text text-anchor="middle" x="44" y="-63.5" font-family="Helvetica,sans-Serif" font-size="10.00">FairMQDevice.h</text>
</g>
<!-- Node4&#45;&gt;Node5 -->
<g id="edge4" class="edge"><title>Node4&#45;&gt;Node5</title>
<path fill="none" stroke="midnightblue" d="M283.841,-112.444C233.412,-102.889 151.827,-87.4304 98.0473,-77.2405"/>
<polygon fill="midnightblue" stroke="midnightblue" points="98.4881,-73.7619 88.0113,-75.339 97.1849,-80.6395 98.4881,-73.7619"/>
</g>
<!-- Node6 -->
<g id="node6" class="node"><title>Node6</title>
<polygon fill="none" stroke="#bfbfbf" points="106,-56.5 106,-75.5 252,-75.5 252,-56.5 106,-56.5"/>
<text text-anchor="middle" x="179" y="-63.5" font-family="Helvetica,sans-Serif" font-size="10.00">options/FairMQProgOptions.h</text>
</g>
<!-- Node4&#45;&gt;Node6 -->
<g id="edge5" class="edge"><title>Node4&#45;&gt;Node6</title>
<path fill="none" stroke="midnightblue" d="M305.232,-112.444C280.107,-103.399 240.289,-89.064 212.1,-78.9158"/>
<polygon fill="midnightblue" stroke="midnightblue" points="213.251,-75.6106 202.657,-75.5164 210.88,-82.1968 213.251,-75.6106"/>
</g>
<!-- Node7 -->
<g id="node7" class="node"><title>Node7</title>
<g id="a_node7"><a xlink:href="../../dc/dcd/DataHeader_8h.html" target="_top" xlink:title="Headers/DataHeader.h">
<polygon fill="none" stroke="black" points="270.5,-56.5 270.5,-75.5 387.5,-75.5 387.5,-56.5 270.5,-56.5"/>
<text text-anchor="middle" x="329" y="-63.5" font-family="Helvetica,sans-Serif" font-size="10.00">Headers/DataHeader.h</text>
</a>
</g>
</g>
<!-- Node4&#45;&gt;Node7 -->
<g id="edge6" class="edge"><title>Node4&#45;&gt;Node7</title>
<path fill="none" stroke="midnightblue" d="M329,-112.083C329,-105.006 329,-94.8611 329,-85.9865"/>
<polygon fill="midnightblue" stroke="midnightblue" points="332.5,-85.751 329,-75.7511 325.5,-85.7511 332.5,-85.751"/>
</g>
<!-- Node13 -->
<g id="node13" class="node"><title>Node13</title>
<polygon fill="none" stroke="#bfbfbf" points="405.5,-56.5 405.5,-75.5 556.5,-75.5 556.5,-56.5 405.5,-56.5"/>
<text text-anchor="middle" x="481" y="-63.5" font-family="Helvetica,sans-Serif" font-size="10.00">Monitoring/MonitoringFactory.h</text>
</g>
<!-- Node4&#45;&gt;Node13 -->
<g id="edge12" class="edge"><title>Node4&#45;&gt;Node13</title>
<path fill="none" stroke="midnightblue" d="M353.085,-112.444C378.545,-103.399 418.894,-89.064 447.459,-78.9158"/>
<polygon fill="midnightblue" stroke="midnightblue" points="448.777,-82.1622 457.028,-75.5164 446.433,-75.5661 448.777,-82.1622"/>
</g>
<!-- Node14 -->
<g id="node14" class="node"><title>Node14</title>
<polygon fill="none" stroke="#bfbfbf" points="574.5,-56.5 574.5,-75.5 633.5,-75.5 633.5,-56.5 574.5,-56.5"/>
<text text-anchor="middle" x="604" y="-63.5" font-family="Helvetica,sans-Serif" font-size="10.00">stdexcept</text>
</g>
<!-- Node4&#45;&gt;Node14 -->
<g id="edge13" class="edge"><title>Node4&#45;&gt;Node14</title>
<path fill="none" stroke="midnightblue" d="M376.57,-112.483C422.164,-104.196 493.165,-90.968 564.195,-76.105"/>
<polygon fill="midnightblue" stroke="midnightblue" points="565.15,-79.4808 574.216,-73.9972 563.709,-72.6307 565.15,-79.4808"/>
</g>
<!-- Node8 -->
<g id="node8" class="node"><title>Node8</title>
<polygon fill="none" stroke="#bfbfbf" points="170,-0.5 170,-19.5 216,-19.5 216,-0.5 170,-0.5"/>
<text text-anchor="middle" x="193" y="-7.5" font-family="Helvetica,sans-Serif" font-size="10.00">cstdint</text>
</g>
<!-- Node7&#45;&gt;Node8 -->
<g id="edge7" class="edge"><title>Node7&#45;&gt;Node8</title>
<path fill="none" stroke="midnightblue" d="M307.45,-56.4435C284.969,-47.5171 249.512,-33.4387 224.02,-23.3168"/>
<polygon fill="midnightblue" stroke="midnightblue" points="225.035,-19.9539 214.449,-19.5164 222.451,-26.4598 225.035,-19.9539"/>
</g>
<!-- Node9 -->
<g id="node9" class="node"><title>Node9</title>
<polygon fill="none" stroke="#bfbfbf" points="234,-0.5 234,-19.5 286,-19.5 286,-0.5 234,-0.5"/>
<text text-anchor="middle" x="260" y="-7.5" font-family="Helvetica,sans-Serif" font-size="10.00">memory</text>
</g>
<!-- Node7&#45;&gt;Node9 -->
<g id="edge8" class="edge"><title>Node7&#45;&gt;Node9</title>
<path fill="none" stroke="midnightblue" d="M317.914,-56.324C307.514,-48.1849 291.739,-35.8395 279.278,-26.0874"/>
<polygon fill="midnightblue" stroke="midnightblue" points="281.32,-23.2407 271.288,-19.8339 277.006,-28.7533 281.32,-23.2407"/>
</g>
<!-- Node10 -->
<g id="node10" class="node"><title>Node10</title>
<polygon fill="none" stroke="#bfbfbf" points="304.5,-0.5 304.5,-19.5 353.5,-19.5 353.5,-0.5 304.5,-0.5"/>
<text text-anchor="middle" x="329" y="-7.5" font-family="Helvetica,sans-Serif" font-size="10.00">cassert</text>
</g>
<!-- Node7&#45;&gt;Node10 -->
<g id="edge9" class="edge"><title>Node7&#45;&gt;Node10</title>
<path fill="none" stroke="midnightblue" d="M329,-56.083C329,-49.0059 329,-38.8611 329,-29.9865"/>
<polygon fill="midnightblue" stroke="midnightblue" points="332.5,-29.751 329,-19.7511 325.5,-29.7511 332.5,-29.751"/>
</g>
<!-- Node11 -->
<g id="node11" class="node"><title>Node11</title>
<polygon fill="none" stroke="#bfbfbf" points="372,-0.5 372,-19.5 418,-19.5 418,-0.5 372,-0.5"/>
<text text-anchor="middle" x="395" y="-7.5" font-family="Helvetica,sans-Serif" font-size="10.00">cstring</text>
</g>
<!-- Node7&#45;&gt;Node11 -->
<g id="edge10" class="edge"><title>Node7&#45;&gt;Node11</title>
<path fill="none" stroke="midnightblue" d="M339.604,-56.324C349.456,-48.2631 364.351,-36.0765 376.215,-26.3695"/>
<polygon fill="midnightblue" stroke="midnightblue" points="378.68,-28.8752 384.203,-19.8339 374.247,-23.4575 378.68,-28.8752"/>
</g>
<!-- Node12 -->
<g id="node12" class="node"><title>Node12</title>
<polygon fill="none" stroke="#bfbfbf" points="436,-0.5 436,-19.5 492,-19.5 492,-0.5 436,-0.5"/>
<text text-anchor="middle" x="464" y="-7.5" font-family="Helvetica,sans-Serif" font-size="10.00">algorithm</text>
</g>
<!-- Node7&#45;&gt;Node12 -->
<g id="edge11" class="edge"><title>Node7&#45;&gt;Node12</title>
<path fill="none" stroke="midnightblue" d="M350.391,-56.4435C372.707,-47.5171 407.903,-33.4387 433.208,-23.3168"/>
<polygon fill="midnightblue" stroke="midnightblue" points="434.724,-26.4801 442.709,-19.5164 432.124,-19.9807 434.724,-26.4801"/>
</g>
</g>
</svg>
