<?xml version="1.0" encoding="UTF-8" standalone="no"?>
<!DOCTYPE svg PUBLIC "-//W3C//DTD SVG 1.1//EN"
 "http://www.w3.org/Graphics/SVG/1.1/DTD/svg11.dtd">
<!-- Generated by graphviz version 2.36.0 (20140111.2315)
 -->
<!-- Title: /home/travis/build/AliceO2Group/AliceO2/Framework/Core/src/DataRelayer.cxx Pages: 1 -->
<svg width="2087pt" height="342pt"
 viewBox="0.00 0.00 2087.00 342.00" xmlns="http://www.w3.org/2000/svg" xmlns:xlink="http://www.w3.org/1999/xlink">
<g id="graph0" class="graph" transform="scale(1 1) rotate(0) translate(4 338)">
<title>/home/travis/build/AliceO2Group/AliceO2/Framework/Core/src/DataRelayer.cxx</title>
<!-- Node1 -->
<g id="node1" class="node"><title>Node1</title>
<polygon fill="#bfbfbf" stroke="black" points="753.5,-292.5 753.5,-333.5 938.5,-333.5 938.5,-292.5 753.5,-292.5"/>
<text text-anchor="start" x="761.5" y="-321.5" font-family="Helvetica,sans-Serif" font-size="10.00">/home/travis/build</text>
<text text-anchor="start" x="761.5" y="-310.5" font-family="Helvetica,sans-Serif" font-size="10.00">/AliceO2Group/AliceO2</text>
<text text-anchor="middle" x="846" y="-299.5" font-family="Helvetica,sans-Serif" font-size="10.00">/Framework/Core/src/DataRelayer.cxx</text>
</g>
<!-- Node2 -->
<g id="node2" class="node"><title>Node2</title>
<g id="a_node2"><a xlink:href="../../df/d59/DataRelayer_8h.html" target="_top" xlink:title="Framework/DataRelayer.h">
<polygon fill="none" stroke="black" points="328.5,-236.5 328.5,-255.5 459.5,-255.5 459.5,-236.5 328.5,-236.5"/>
<text text-anchor="middle" x="394" y="-243.5" font-family="Helvetica,sans-Serif" font-size="10.00">Framework/DataRelayer.h</text>
</a>
</g>
</g>
<!-- Node1&#45;&gt;Node2 -->
<g id="edge1" class="edge"><title>Node1&#45;&gt;Node2</title>
<path fill="none" stroke="midnightblue" d="M753.44,-298.689C667.422,-286.319 541.221,-268.171 463.511,-256.996"/>
<polygon fill="midnightblue" stroke="midnightblue" points="463.742,-253.493 453.345,-255.534 462.745,-260.422 463.742,-253.493"/>
</g>
<!-- Node18 -->
<g id="node18" class="node"><title>Node18</title>
<g id="a_node18"><a xlink:href="../../d6/d68/DataSpecUtils_8h.html" target="_top" xlink:title="Framework/DataSpecUtils.h">
<polygon fill="none" stroke="black" points="604,-180.5 604,-199.5 744,-199.5 744,-180.5 604,-180.5"/>
<text text-anchor="middle" x="674" y="-187.5" font-family="Helvetica,sans-Serif" font-size="10.00">Framework/DataSpecUtils.h</text>
</a>
</g>
</g>
<!-- Node1&#45;&gt;Node18 -->
<g id="edge22" class="edge"><title>Node1&#45;&gt;Node18</title>
<path fill="none" stroke="midnightblue" d="M817.982,-292.29C783.327,-267.91 725.157,-226.988 694.435,-205.376"/>
<polygon fill="midnightblue" stroke="midnightblue" points="696.382,-202.466 686.189,-199.575 692.354,-208.191 696.382,-202.466"/>
</g>
<!-- Node20 -->
<g id="node20" class="node"><title>Node20</title>
<g id="a_node20"><a xlink:href="../../d3/d26/MetricsService_8h.html" target="_top" xlink:title="Framework/MetricsService.h">
<polygon fill="none" stroke="black" points="14,-118.5 14,-137.5 156,-137.5 156,-118.5 14,-118.5"/>
<text text-anchor="middle" x="85" y="-125.5" font-family="Helvetica,sans-Serif" font-size="10.00">Framework/MetricsService.h</text>
</a>
</g>
</g>
<!-- Node1&#45;&gt;Node20 -->
<g id="edge28" class="edge"><title>Node1&#45;&gt;Node20</title>
<path fill="none" stroke="midnightblue" d="M753.414,-309.248C647.224,-304.467 468.513,-291.431 319,-256 250.162,-239.687 231.121,-235.623 170,-200 143.405,-184.5 116.831,-160.619 100.653,-144.902"/>
<polygon fill="midnightblue" stroke="midnightblue" points="102.763,-142.065 93.1952,-137.514 97.8365,-147.039 102.763,-142.065"/>
</g>
<!-- Node28 -->
<g id="node28" class="node"><title>Node28</title>
<g id="a_node28"><a xlink:href="../../d6/dc9/DataProcessingHeader_8h.html" target="_top" xlink:title="Framework/DataProcessing\lHeader.h">
<polygon fill="none" stroke="black" points="718,-113 718,-143 856,-143 856,-113 718,-113"/>
<text text-anchor="start" x="726" y="-131" font-family="Helvetica,sans-Serif" font-size="10.00">Framework/DataProcessing</text>
<text text-anchor="middle" x="787" y="-120" font-family="Helvetica,sans-Serif" font-size="10.00">Header.h</text>
</a>
</g>
</g>
<!-- Node1&#45;&gt;Node28 -->
<g id="edge40" class="edge"><title>Node1&#45;&gt;Node28</title>
<path fill="none" stroke="midnightblue" d="M839.686,-292.416C828.809,-258.68 806.572,-189.708 794.766,-153.089"/>
<polygon fill="midnightblue" stroke="midnightblue" points="797.996,-151.699 791.596,-143.255 791.333,-153.847 797.996,-151.699"/>
</g>
<!-- Node30 -->
<g id="node30" class="node"><title>Node30</title>
<g id="a_node30"><a xlink:href="../../d5/dfb/DataRef_8h.html" target="_top" xlink:title="Framework/DataRef.h">
<polygon fill="none" stroke="black" points="1836.5,-118.5 1836.5,-137.5 1949.5,-137.5 1949.5,-118.5 1836.5,-118.5"/>
<text text-anchor="middle" x="1893" y="-125.5" font-family="Helvetica,sans-Serif" font-size="10.00">Framework/DataRef.h</text>
</a>
</g>
</g>
<!-- Node1&#45;&gt;Node30 -->
<g id="edge46" class="edge"><title>Node1&#45;&gt;Node30</title>
<path fill="none" stroke="midnightblue" d="M938.608,-305.933C1095.16,-294.298 1421.32,-264.1 1690,-200 1753.31,-184.896 1824.53,-157.439 1863.53,-141.457"/>
<polygon fill="midnightblue" stroke="midnightblue" points="1865.05,-144.615 1872.95,-137.56 1862.38,-138.147 1865.05,-144.615"/>
</g>
<!-- Node31 -->
<g id="node31" class="node"><title>Node31</title>
<g id="a_node31"><a xlink:href="../../d6/d5c/InputRecord_8h.html" target="_top" xlink:title="Framework/InputRecord.h">
<polygon fill="none" stroke="black" points="1040,-236.5 1040,-255.5 1170,-255.5 1170,-236.5 1040,-236.5"/>
<text text-anchor="middle" x="1105" y="-243.5" font-family="Helvetica,sans-Serif" font-size="10.00">Framework/InputRecord.h</text>
</a>
</g>
</g>
<!-- Node1&#45;&gt;Node31 -->
<g id="edge47" class="edge"><title>Node1&#45;&gt;Node31</title>
<path fill="none" stroke="midnightblue" d="M923.709,-292.498C968.518,-281.252 1023.23,-267.521 1060.76,-258.103"/>
<polygon fill="midnightblue" stroke="midnightblue" points="1062.02,-261.396 1070.86,-255.567 1060.31,-254.607 1062.02,-261.396"/>
</g>
<!-- Node48 -->
<g id="node48" class="node"><title>Node48</title>
<polygon fill="none" stroke="#bfbfbf" points="1963,-236.5 1963,-255.5 2079,-255.5 2079,-236.5 1963,-236.5"/>
<text text-anchor="middle" x="2021" y="-243.5" font-family="Helvetica,sans-Serif" font-size="10.00">fairmq/FairMQLogger.h</text>
</g>
<!-- Node1&#45;&gt;Node48 -->
<g id="edge85" class="edge"><title>Node1&#45;&gt;Node48</title>
<path fill="none" stroke="midnightblue" d="M938.762,-309.597C1128.67,-304.169 1575.35,-288.794 1949,-256 1950.27,-255.888 1951.55,-255.772 1952.85,-255.65"/>
<polygon fill="midnightblue" stroke="midnightblue" points="1953.28,-259.124 1962.88,-254.638 1952.58,-252.159 1953.28,-259.124"/>
</g>
<!-- Node3 -->
<g id="node3" class="node"><title>Node3</title>
<polygon fill="none" stroke="#bfbfbf" points="1026.5,-56.5 1026.5,-75.5 1153.5,-75.5 1153.5,-56.5 1026.5,-56.5"/>
<text text-anchor="middle" x="1090" y="-63.5" font-family="Helvetica,sans-Serif" font-size="10.00">fairmq/FairMQMessage.h</text>
</g>
<!-- Node2&#45;&gt;Node3 -->
<g id="edge2" class="edge"><title>Node2&#45;&gt;Node3</title>
<path fill="none" stroke="midnightblue" d="M459.773,-241.716C532.476,-236.945 652.586,-225.671 753,-200 873.148,-169.283 1008.12,-106.991 1063.82,-79.9797"/>
<polygon fill="midnightblue" stroke="midnightblue" points="1065.52,-83.0427 1072.97,-75.5103 1062.45,-76.7524 1065.52,-83.0427"/>
</g>
<!-- Node4 -->
<g id="node4" class="node"><title>Node4</title>
<g id="a_node4"><a xlink:href="../../d5/d19/InputRoute_8h.html" target="_top" xlink:title="Framework/InputRoute.h">
<polygon fill="none" stroke="black" points="406.5,-180.5 406.5,-199.5 531.5,-199.5 531.5,-180.5 406.5,-180.5"/>
<text text-anchor="middle" x="469" y="-187.5" font-family="Helvetica,sans-Serif" font-size="10.00">Framework/InputRoute.h</text>
</a>
</g>
</g>
<!-- Node2&#45;&gt;Node4 -->
<g id="edge3" class="edge"><title>Node2&#45;&gt;Node4</title>
<path fill="none" stroke="midnightblue" d="M406.05,-236.324C417.463,-228.107 434.831,-215.602 448.435,-205.807"/>
<polygon fill="midnightblue" stroke="midnightblue" points="450.66,-208.517 456.731,-199.834 446.57,-202.837 450.66,-208.517"/>
</g>
<!-- Node15 -->
<g id="node15" class="node"><title>Node15</title>
<polygon fill="none" stroke="#bfbfbf" points="250.5,-118.5 250.5,-137.5 299.5,-137.5 299.5,-118.5 250.5,-118.5"/>
<text text-anchor="middle" x="275" y="-125.5" font-family="Helvetica,sans-Serif" font-size="10.00">cstddef</text>
</g>
<!-- Node2&#45;&gt;Node15 -->
<g id="edge20" class="edge"><title>Node2&#45;&gt;Node15</title>
<path fill="none" stroke="midnightblue" d="M341.838,-236.49C302.494,-228.882 253.275,-216.405 241,-200 228.171,-182.854 243.783,-160.099 257.827,-145.024"/>
<polygon fill="midnightblue" stroke="midnightblue" points="260.321,-147.48 264.869,-137.911 255.346,-142.555 260.321,-147.48"/>
</g>
<!-- Node16 -->
<g id="node16" class="node"><title>Node16</title>
<g id="a_node16"><a xlink:href="../../d7/d12/ForwardRoute_8h.html" target="_top" xlink:title="Framework/ForwardRoute.h">
<polygon fill="none" stroke="black" points="250,-180.5 250,-199.5 388,-199.5 388,-180.5 250,-180.5"/>
<text text-anchor="middle" x="319" y="-187.5" font-family="Helvetica,sans-Serif" font-size="10.00">Framework/ForwardRoute.h</text>
</a>
</g>
</g>
<!-- Node2&#45;&gt;Node16 -->
<g id="edge16" class="edge"><title>Node2&#45;&gt;Node16</title>
<path fill="none" stroke="midnightblue" d="M381.95,-236.324C370.537,-228.107 353.169,-215.602 339.565,-205.807"/>
<polygon fill="midnightblue" stroke="midnightblue" points="341.43,-202.837 331.269,-199.834 337.34,-208.517 341.43,-202.837"/>
</g>
<!-- Node17 -->
<g id="node17" class="node"><title>Node17</title>
<polygon fill="none" stroke="#bfbfbf" points="794,-0.5 794,-19.5 838,-19.5 838,-0.5 794,-0.5"/>
<text text-anchor="middle" x="816" y="-7.5" font-family="Helvetica,sans-Serif" font-size="10.00">vector</text>
</g>
<!-- Node2&#45;&gt;Node17 -->
<g id="edge21" class="edge"><title>Node2&#45;&gt;Node17</title>
<path fill="none" stroke="midnightblue" d="M337.545,-236.499C296.501,-229.042 245.957,-216.762 233,-200 190.597,-145.144 229.356,-83.5058 293,-56 390.68,-13.7842 660.912,-37.5191 783.749,-19.4953"/>
<polygon fill="midnightblue" stroke="midnightblue" points="784.441,-22.9289 793.752,-17.8738 783.321,-16.0191 784.441,-22.9289"/>
</g>
<!-- Node5 -->
<g id="node5" class="node"><title>Node5</title>
<g id="a_node5"><a xlink:href="../../d5/d3f/InputSpec_8h.html" target="_top" xlink:title="Framework/InputSpec.h">
<polygon fill="none" stroke="black" points="394.5,-118.5 394.5,-137.5 515.5,-137.5 515.5,-118.5 394.5,-118.5"/>
<text text-anchor="middle" x="455" y="-125.5" font-family="Helvetica,sans-Serif" font-size="10.00">Framework/InputSpec.h</text>
</a>
</g>
</g>
<!-- Node4&#45;&gt;Node5 -->
<g id="edge4" class="edge"><title>Node4&#45;&gt;Node5</title>
<path fill="none" stroke="midnightblue" d="M466.994,-180.403C464.998,-171.849 461.872,-158.45 459.311,-147.476"/>
<polygon fill="midnightblue" stroke="midnightblue" points="462.683,-146.524 457.002,-137.581 455.866,-148.114 462.683,-146.524"/>
</g>
<!-- Node6 -->
<g id="node6" class="node"><title>Node6</title>
<polygon fill="none" stroke="#bfbfbf" points="302.5,-56.5 302.5,-75.5 343.5,-75.5 343.5,-56.5 302.5,-56.5"/>
<text text-anchor="middle" x="323" y="-63.5" font-family="Helvetica,sans-Serif" font-size="10.00">string</text>
</g>
<!-- Node4&#45;&gt;Node6 -->
<g id="edge15" class="edge"><title>Node4&#45;&gt;Node6</title>
<path fill="none" stroke="midnightblue" d="M422.058,-180.484C398.383,-174.034 370.785,-162.917 352,-144 336.229,-128.119 328.9,-102.835 325.587,-85.6058"/>
<polygon fill="midnightblue" stroke="midnightblue" points="329.022,-84.9242 323.941,-75.6271 322.115,-86.0634 329.022,-84.9242"/>
</g>
<!-- Node4&#45;&gt;Node15 -->
<g id="edge14" class="edge"><title>Node4&#45;&gt;Node15</title>
<path fill="none" stroke="midnightblue" d="M436.693,-180.478C405.166,-171.961 355.957,-158.131 314,-144 311.383,-143.119 308.682,-142.168 305.98,-141.188"/>
<polygon fill="midnightblue" stroke="midnightblue" points="306.93,-137.806 296.338,-137.581 304.478,-144.363 306.93,-137.806"/>
</g>
<!-- Node5&#45;&gt;Node6 -->
<g id="edge5" class="edge"><title>Node5&#45;&gt;Node6</title>
<path fill="none" stroke="midnightblue" d="M436.088,-118.403C413.837,-108.29 376.688,-91.4036 351.074,-79.761"/>
<polygon fill="midnightblue" stroke="midnightblue" points="352.429,-76.5324 341.877,-75.5806 349.533,-82.905 352.429,-76.5324"/>
</g>
<!-- Node7 -->
<g id="node7" class="node"><title>Node7</title>
<polygon fill="none" stroke="#bfbfbf" points="362,-56.5 362,-75.5 414,-75.5 414,-56.5 362,-56.5"/>
<text text-anchor="middle" x="388" y="-63.5" font-family="Helvetica,sans-Serif" font-size="10.00">ostream</text>
</g>
<!-- Node5&#45;&gt;Node7 -->
<g id="edge6" class="edge"><title>Node5&#45;&gt;Node7</title>
<path fill="none" stroke="midnightblue" d="M445.401,-118.403C434.952,-109.047 418.032,-93.8948 405.264,-82.4599"/>
<polygon fill="midnightblue" stroke="midnightblue" points="407.366,-79.6445 397.582,-75.5806 402.696,-84.8592 407.366,-79.6445"/>
</g>
<!-- Node8 -->
<g id="node8" class="node"><title>Node8</title>
<g id="a_node8"><a xlink:href="../../dc/dca/Lifetime_8h.html" target="_top" xlink:title="Framework/Lifetime.h">
<polygon fill="none" stroke="black" points="432.5,-56.5 432.5,-75.5 543.5,-75.5 543.5,-56.5 432.5,-56.5"/>
<text text-anchor="middle" x="488" y="-63.5" font-family="Helvetica,sans-Serif" font-size="10.00">Framework/Lifetime.h</text>
</a>
</g>
</g>
<!-- Node5&#45;&gt;Node8 -->
<g id="edge7" class="edge"><title>Node5&#45;&gt;Node8</title>
<path fill="none" stroke="midnightblue" d="M459.728,-118.403C464.58,-109.582 472.266,-95.6075 478.4,-84.4548"/>
<polygon fill="midnightblue" stroke="midnightblue" points="481.528,-86.0295 483.281,-75.5806 475.395,-82.656 481.528,-86.0295"/>
</g>
<!-- Node9 -->
<g id="node9" class="node"><title>Node9</title>
<g id="a_node9"><a xlink:href="../../dc/dcd/DataHeader_8h.html" target="_top" xlink:title="Headers/DataHeader.h">
<polygon fill="none" stroke="black" points="600.5,-56.5 600.5,-75.5 717.5,-75.5 717.5,-56.5 600.5,-56.5"/>
<text text-anchor="middle" x="659" y="-63.5" font-family="Helvetica,sans-Serif" font-size="10.00">Headers/DataHeader.h</text>
</a>
</g>
</g>
<!-- Node5&#45;&gt;Node9 -->
<g id="edge8" class="edge"><title>Node5&#45;&gt;Node9</title>
<path fill="none" stroke="midnightblue" d="M484.228,-118.403C519.903,-107.911 580.36,-90.1295 619.982,-78.4758"/>
<polygon fill="midnightblue" stroke="midnightblue" points="621.22,-81.7601 629.826,-75.5806 619.245,-75.0445 621.22,-81.7601"/>
</g>
<!-- Node10 -->
<g id="node10" class="node"><title>Node10</title>
<polygon fill="none" stroke="#bfbfbf" points="514,-0.5 514,-19.5 560,-19.5 560,-0.5 514,-0.5"/>
<text text-anchor="middle" x="537" y="-7.5" font-family="Helvetica,sans-Serif" font-size="10.00">cstdint</text>
</g>
<!-- Node9&#45;&gt;Node10 -->
<g id="edge9" class="edge"><title>Node9&#45;&gt;Node10</title>
<path fill="none" stroke="midnightblue" d="M639.669,-56.4435C619.68,-47.5961 588.257,-33.6875 565.436,-23.5865"/>
<polygon fill="midnightblue" stroke="midnightblue" points="566.802,-20.3635 556.241,-19.5164 563.968,-26.7645 566.802,-20.3635"/>
</g>
<!-- Node11 -->
<g id="node11" class="node"><title>Node11</title>
<polygon fill="none" stroke="#bfbfbf" points="940,-0.5 940,-19.5 992,-19.5 992,-0.5 940,-0.5"/>
<text text-anchor="middle" x="966" y="-7.5" font-family="Helvetica,sans-Serif" font-size="10.00">memory</text>
</g>
<!-- Node9&#45;&gt;Node11 -->
<g id="edge10" class="edge"><title>Node9&#45;&gt;Node11</title>
<path fill="none" stroke="midnightblue" d="M707.645,-56.4435C769.433,-45.5754 874.638,-27.0702 929.803,-17.3669"/>
<polygon fill="midnightblue" stroke="midnightblue" points="930.578,-20.7844 939.82,-15.6049 929.365,-13.8903 930.578,-20.7844"/>
</g>
<!-- Node12 -->
<g id="node12" class="node"><title>Node12</title>
<polygon fill="none" stroke="#bfbfbf" points="856.5,-0.5 856.5,-19.5 905.5,-19.5 905.5,-0.5 856.5,-0.5"/>
<text text-anchor="middle" x="881" y="-7.5" font-family="Helvetica,sans-Serif" font-size="10.00">cassert</text>
</g>
<!-- Node9&#45;&gt;Node12 -->
<g id="edge11" class="edge"><title>Node9&#45;&gt;Node12</title>
<path fill="none" stroke="midnightblue" d="M695.239,-56.4555C732.941,-47.5247 793.668,-33.0242 846,-20 846.103,-19.9744 846.206,-19.9488 846.309,-19.9231"/>
<polygon fill="midnightblue" stroke="midnightblue" points="847.316,-23.2788 856.156,-17.4392 845.604,-16.4914 847.316,-23.2788"/>
</g>
<!-- Node13 -->
<g id="node13" class="node"><title>Node13</title>
<polygon fill="none" stroke="#bfbfbf" points="652,-0.5 652,-19.5 698,-19.5 698,-0.5 652,-0.5"/>
<text text-anchor="middle" x="675" y="-7.5" font-family="Helvetica,sans-Serif" font-size="10.00">cstring</text>
</g>
<!-- Node9&#45;&gt;Node13 -->
<g id="edge12" class="edge"><title>Node9&#45;&gt;Node13</title>
<path fill="none" stroke="midnightblue" d="M661.642,-56.083C663.786,-48.8486 666.879,-38.4087 669.549,-29.3968"/>
<polygon fill="midnightblue" stroke="midnightblue" points="672.922,-30.3334 672.407,-19.7511 666.21,-28.3447 672.922,-30.3334"/>
</g>
<!-- Node14 -->
<g id="node14" class="node"><title>Node14</title>
<polygon fill="none" stroke="#bfbfbf" points="578,-0.5 578,-19.5 634,-19.5 634,-0.5 578,-0.5"/>
<text text-anchor="middle" x="606" y="-7.5" font-family="Helvetica,sans-Serif" font-size="10.00">algorithm</text>
</g>
<!-- Node9&#45;&gt;Node14 -->
<g id="edge13" class="edge"><title>Node9&#45;&gt;Node14</title>
<path fill="none" stroke="midnightblue" d="M650.248,-56.083C642.53,-48.2195 631.095,-36.5688 621.783,-27.0813"/>
<polygon fill="midnightblue" stroke="midnightblue" points="624.092,-24.4363 614.589,-19.7511 619.096,-29.3396 624.092,-24.4363"/>
</g>
<!-- Node16&#45;&gt;Node5 -->
<g id="edge17" class="edge"><title>Node16&#45;&gt;Node5</title>
<path fill="none" stroke="midnightblue" d="M338.485,-180.403C361.41,-170.29 399.685,-153.404 426.075,-141.761"/>
<polygon fill="midnightblue" stroke="midnightblue" points="427.814,-144.819 435.551,-137.581 424.989,-138.415 427.814,-144.819"/>
</g>
<!-- Node16&#45;&gt;Node6 -->
<g id="edge19" class="edge"><title>Node16&#45;&gt;Node6</title>
<path fill="none" stroke="midnightblue" d="M289.879,-180.441C272.357,-173.62 251.477,-162.141 241,-144 233.887,-131.684 233.756,-124.239 241,-112 252.148,-93.1657 274.286,-81.69 292.752,-75.0452"/>
<polygon fill="midnightblue" stroke="midnightblue" points="293.862,-78.3648 302.268,-71.9159 291.675,-71.7152 293.862,-78.3648"/>
</g>
<!-- Node16&#45;&gt;Node15 -->
<g id="edge18" class="edge"><title>Node16&#45;&gt;Node15</title>
<path fill="none" stroke="midnightblue" d="M312.696,-180.403C306.096,-171.403 295.563,-157.041 287.307,-145.782"/>
<polygon fill="midnightblue" stroke="midnightblue" points="290.029,-143.575 281.292,-137.581 284.384,-147.714 290.029,-143.575"/>
</g>
<!-- Node18&#45;&gt;Node5 -->
<g id="edge26" class="edge"><title>Node18&#45;&gt;Node5</title>
<path fill="none" stroke="midnightblue" d="M642.623,-180.403C604.081,-169.844 538.595,-151.903 496.076,-140.254"/>
<polygon fill="midnightblue" stroke="midnightblue" points="496.889,-136.847 486.319,-137.581 495.039,-143.599 496.889,-136.847"/>
</g>
<!-- Node18&#45;&gt;Node9 -->
<g id="edge27" class="edge"><title>Node18&#45;&gt;Node9</title>
<path fill="none" stroke="midnightblue" d="M674.283,-180.396C674.614,-166.104 674.713,-136.605 671,-112 669.656,-103.096 667.21,-93.4216 664.876,-85.3331"/>
<polygon fill="midnightblue" stroke="midnightblue" points="668.143,-84.0489 661.875,-75.5072 661.449,-86.0935 668.143,-84.0489"/>
</g>
<!-- Node19 -->
<g id="node19" class="node"><title>Node19</title>
<g id="a_node19"><a xlink:href="../../db/d2d/OutputSpec_8h.html" target="_top" xlink:title="Framework/OutputSpec.h">
<polygon fill="none" stroke="black" points="534,-118.5 534,-137.5 662,-137.5 662,-118.5 534,-118.5"/>
<text text-anchor="middle" x="598" y="-125.5" font-family="Helvetica,sans-Serif" font-size="10.00">Framework/OutputSpec.h</text>
</a>
</g>
</g>
<!-- Node18&#45;&gt;Node19 -->
<g id="edge23" class="edge"><title>Node18&#45;&gt;Node19</title>
<path fill="none" stroke="midnightblue" d="M663.111,-180.403C651.034,-170.869 631.333,-155.315 616.76,-143.811"/>
<polygon fill="midnightblue" stroke="midnightblue" points="618.886,-141.03 608.869,-137.581 614.549,-146.524 618.886,-141.03"/>
</g>
<!-- Node19&#45;&gt;Node8 -->
<g id="edge25" class="edge"><title>Node19&#45;&gt;Node8</title>
<path fill="none" stroke="midnightblue" d="M582.24,-118.403C564.024,-108.468 533.827,-91.9966 512.532,-80.3812"/>
<polygon fill="midnightblue" stroke="midnightblue" points="514.186,-77.2965 503.731,-75.5806 510.834,-83.4418 514.186,-77.2965"/>
</g>
<!-- Node19&#45;&gt;Node9 -->
<g id="edge24" class="edge"><title>Node19&#45;&gt;Node9</title>
<path fill="none" stroke="midnightblue" d="M606.74,-118.403C616.162,-109.136 631.364,-94.1828 642.949,-82.7876"/>
<polygon fill="midnightblue" stroke="midnightblue" points="645.601,-85.0883 650.276,-75.5806 640.693,-80.0978 645.601,-85.0883"/>
</g>
<!-- Node20&#45;&gt;Node6 -->
<g id="edge38" class="edge"><title>Node20&#45;&gt;Node6</title>
<path fill="none" stroke="midnightblue" d="M118.847,-118.467C165.183,-106.786 247.69,-85.9856 292.312,-74.7365"/>
<polygon fill="midnightblue" stroke="midnightblue" points="293.434,-78.0632 302.275,-72.2248 291.723,-71.2755 293.434,-78.0632"/>
</g>
<!-- Node20&#45;&gt;Node17 -->
<g id="edge39" class="edge"><title>Node20&#45;&gt;Node17</title>
<path fill="none" stroke="midnightblue" d="M104.558,-118.392C127.461,-108.297 166.527,-91.0293 200,-76 219.596,-67.2013 223.169,-61.2436 244,-56 474.067,1.91277 545.013,-59.0677 783.731,-19.5931"/>
<polygon fill="midnightblue" stroke="midnightblue" points="784.482,-23.0159 793.756,-17.8931 783.311,-16.1145 784.482,-23.0159"/>
</g>
<!-- Node21 -->
<g id="node21" class="node"><title>Node21</title>
<g id="a_node21"><a xlink:href="../../de/d56/Variant_8h.html" target="_top" xlink:title="Framework/Variant.h">
<polygon fill="none" stroke="black" points="31.5,-56.5 31.5,-75.5 138.5,-75.5 138.5,-56.5 31.5,-56.5"/>
<text text-anchor="middle" x="85" y="-63.5" font-family="Helvetica,sans-Serif" font-size="10.00">Framework/Variant.h</text>
</a>
</g>
</g>
<!-- Node20&#45;&gt;Node21 -->
<g id="edge29" class="edge"><title>Node20&#45;&gt;Node21</title>
<path fill="none" stroke="midnightblue" d="M85,-118.403C85,-109.938 85,-96.7283 85,-85.8199"/>
<polygon fill="midnightblue" stroke="midnightblue" points="88.5001,-85.5806 85,-75.5806 81.5001,-85.5806 88.5001,-85.5806"/>
</g>
<!-- Node27 -->
<g id="node27" class="node"><title>Node27</title>
<polygon fill="none" stroke="#bfbfbf" points="156.5,-56.5 156.5,-75.5 191.5,-75.5 191.5,-56.5 156.5,-56.5"/>
<text text-anchor="middle" x="174" y="-63.5" font-family="Helvetica,sans-Serif" font-size="10.00">map</text>
</g>
<!-- Node20&#45;&gt;Node27 -->
<g id="edge37" class="edge"><title>Node20&#45;&gt;Node27</title>
<path fill="none" stroke="midnightblue" d="M97.7515,-118.403C112.027,-108.78 135.397,-93.0242 152.508,-81.4891"/>
<polygon fill="midnightblue" stroke="midnightblue" points="154.937,-84.0727 161.272,-75.5806 151.024,-78.2684 154.937,-84.0727"/>
</g>
<!-- Node21&#45;&gt;Node10 -->
<g id="edge32" class="edge"><title>Node21&#45;&gt;Node10</title>
<path fill="none" stroke="midnightblue" d="M138.755,-57.0986C141.543,-56.7196 144.304,-56.3512 147,-56 278.838,-38.8289 436.196,-21.6986 503.638,-14.5164"/>
<polygon fill="midnightblue" stroke="midnightblue" points="504.098,-17.9873 513.673,-13.4507 503.359,-11.0265 504.098,-17.9873"/>
</g>
<!-- Node21&#45;&gt;Node13 -->
<g id="edge31" class="edge"><title>Node21&#45;&gt;Node13</title>
<path fill="none" stroke="midnightblue" d="M138.739,-56.9592C141.53,-56.6166 144.297,-56.2941 147,-56 363.075,-32.4904 422.835,-56.4701 641.817,-19.6408"/>
<polygon fill="midnightblue" stroke="midnightblue" points="642.42,-23.0885 651.69,-17.9576 641.243,-16.1881 642.42,-23.0885"/>
</g>
<!-- Node22 -->
<g id="node22" class="node"><title>Node22</title>
<polygon fill="none" stroke="#bfbfbf" points="1885,-0.5 1885,-19.5 1947,-19.5 1947,-0.5 1885,-0.5"/>
<text text-anchor="middle" x="1916" y="-7.5" font-family="Helvetica,sans-Serif" font-size="10.00">type_traits</text>
</g>
<!-- Node21&#45;&gt;Node22 -->
<g id="edge30" class="edge"><title>Node21&#45;&gt;Node22</title>
<path fill="none" stroke="midnightblue" d="M138.723,-56.8033C141.519,-56.5014 144.291,-56.2303 147,-56 498.413,-26.1309 1642.4,-13.6425 1874.64,-11.3841"/>
<polygon fill="midnightblue" stroke="midnightblue" points="1874.73,-14.8835 1884.7,-11.2872 1874.66,-7.88385 1874.73,-14.8835"/>
</g>
<!-- Node23 -->
<g id="node23" class="node"><title>Node23</title>
<polygon fill="none" stroke="#bfbfbf" points="-0.5,-0.5 -0.5,-19.5 44.5,-19.5 44.5,-0.5 -0.5,-0.5"/>
<text text-anchor="middle" x="22" y="-7.5" font-family="Helvetica,sans-Serif" font-size="10.00">cstdlib</text>
</g>
<!-- Node21&#45;&gt;Node23 -->
<g id="edge33" class="edge"><title>Node21&#45;&gt;Node23</title>
<path fill="none" stroke="midnightblue" d="M74.878,-56.324C65.4736,-48.2631 51.2559,-36.0765 39.931,-26.3695"/>
<polygon fill="midnightblue" stroke="midnightblue" points="42.1766,-23.6844 32.3062,-19.8339 37.621,-28.9993 42.1766,-23.6844"/>
</g>
<!-- Node24 -->
<g id="node24" class="node"><title>Node24</title>
<polygon fill="none" stroke="#bfbfbf" points="716.5,-0.5 716.5,-19.5 775.5,-19.5 775.5,-0.5 716.5,-0.5"/>
<text text-anchor="middle" x="746" y="-7.5" font-family="Helvetica,sans-Serif" font-size="10.00">stdexcept</text>
</g>
<!-- Node21&#45;&gt;Node24 -->
<g id="edge34" class="edge"><title>Node21&#45;&gt;Node24</title>
<path fill="none" stroke="midnightblue" d="M138.736,-56.9314C141.528,-56.5961 144.296,-56.2828 147,-56 391.78,-30.4071 458.482,-55.4807 706.256,-19.8429"/>
<polygon fill="midnightblue" stroke="midnightblue" points="706.893,-23.287 716.284,-18.3818 705.884,-16.3602 706.893,-23.287"/>
</g>
<!-- Node25 -->
<g id="node25" class="node"><title>Node25</title>
<polygon fill="none" stroke="#bfbfbf" points="62.5,-0.5 62.5,-19.5 107.5,-19.5 107.5,-0.5 62.5,-0.5"/>
<text text-anchor="middle" x="85" y="-7.5" font-family="Helvetica,sans-Serif" font-size="10.00">iosfwd</text>
</g>
<!-- Node21&#45;&gt;Node25 -->
<g id="edge35" class="edge"><title>Node21&#45;&gt;Node25</title>
<path fill="none" stroke="midnightblue" d="M85,-56.083C85,-49.0059 85,-38.8611 85,-29.9865"/>
<polygon fill="midnightblue" stroke="midnightblue" points="88.5001,-29.751 85,-19.7511 81.5001,-29.7511 88.5001,-29.751"/>
</g>
<!-- Node26 -->
<g id="node26" class="node"><title>Node26</title>
<polygon fill="none" stroke="#bfbfbf" points="125.5,-0.5 125.5,-19.5 198.5,-19.5 198.5,-0.5 125.5,-0.5"/>
<text text-anchor="middle" x="162" y="-7.5" font-family="Helvetica,sans-Serif" font-size="10.00">initializer_list</text>
</g>
<!-- Node21&#45;&gt;Node26 -->
<g id="edge36" class="edge"><title>Node21&#45;&gt;Node26</title>
<path fill="none" stroke="midnightblue" d="M97.3714,-56.324C109.158,-48.0577 127.132,-35.4527 141.136,-25.6322"/>
<polygon fill="midnightblue" stroke="midnightblue" points="143.482,-28.2619 149.659,-19.6545 139.462,-22.5307 143.482,-28.2619"/>
</g>
<!-- Node28&#45;&gt;Node9 -->
<g id="edge41" class="edge"><title>Node28&#45;&gt;Node9</title>
<path fill="none" stroke="midnightblue" d="M756.99,-112.933C735.684,-102.946 707.298,-89.6397 686.564,-79.9205"/>
<polygon fill="midnightblue" stroke="midnightblue" points="687.887,-76.6753 677.347,-75.6 684.916,-83.0135 687.887,-76.6753"/>
</g>
<!-- Node28&#45;&gt;Node10 -->
<g id="edge42" class="edge"><title>Node28&#45;&gt;Node10</title>
<path fill="none" stroke="midnightblue" d="M717.952,-119.681C678.369,-112.987 629.134,-100.232 591,-76 572.107,-63.9948 556.553,-43.2103 547.068,-28.3761"/>
<polygon fill="midnightblue" stroke="midnightblue" points="549.934,-26.3533 541.738,-19.6393 543.959,-29.999 549.934,-26.3533"/>
</g>
<!-- Node28&#45;&gt;Node11 -->
<g id="edge44" class="edge"><title>Node28&#45;&gt;Node11</title>
<path fill="none" stroke="midnightblue" d="M808.949,-112.776C843.399,-90.4507 909.774,-47.4368 944.158,-25.1544"/>
<polygon fill="midnightblue" stroke="midnightblue" points="946.076,-28.0826 952.564,-19.707 942.269,-22.2082 946.076,-28.0826"/>
</g>
<!-- Node28&#45;&gt;Node12 -->
<g id="edge45" class="edge"><title>Node28&#45;&gt;Node12</title>
<path fill="none" stroke="midnightblue" d="M775.886,-112.848C765.435,-97.6897 753.044,-73.4626 765,-56 769.908,-48.8322 814.448,-32.9048 846.877,-22.0562"/>
<polygon fill="midnightblue" stroke="midnightblue" points="848.104,-25.3368 856.495,-18.8678 845.902,-18.6923 848.104,-25.3368"/>
</g>
<!-- Node29 -->
<g id="node29" class="node"><title>Node29</title>
<polygon fill="none" stroke="#bfbfbf" points="774.5,-56.5 774.5,-75.5 817.5,-75.5 817.5,-56.5 774.5,-56.5"/>
<text text-anchor="middle" x="796" y="-63.5" font-family="Helvetica,sans-Serif" font-size="10.00">cstdio</text>
</g>
<!-- Node28&#45;&gt;Node29 -->
<g id="edge43" class="edge"><title>Node28&#45;&gt;Node29</title>
<path fill="none" stroke="midnightblue" d="M789.133,-112.781C790.346,-104.691 791.881,-94.4617 793.191,-85.725"/>
<polygon fill="midnightblue" stroke="midnightblue" points="796.668,-86.1391 794.69,-75.7305 789.746,-85.1007 796.668,-86.1391"/>
</g>
<!-- Node31&#45;&gt;Node3 -->
<g id="edge74" class="edge"><title>Node31&#45;&gt;Node3</title>
<path fill="none" stroke="midnightblue" d="M1104.28,-236.415C1101.99,-209.227 1094.85,-124.563 1091.62,-86.2169"/>
<polygon fill="midnightblue" stroke="midnightblue" points="1095.08,-85.5892 1090.75,-75.9185 1088.1,-86.1771 1095.08,-85.5892"/>
</g>
<!-- Node31&#45;&gt;Node4 -->
<g id="edge72" class="edge"><title>Node31&#45;&gt;Node4</title>
<path fill="none" stroke="midnightblue" d="M1039.95,-240.527C935.636,-233.183 724.524,-217.613 546,-200 544.535,-199.855 543.055,-199.707 541.563,-199.555"/>
<polygon fill="midnightblue" stroke="midnightblue" points="541.906,-196.072 531.595,-198.507 541.174,-203.033 541.906,-196.072"/>
</g>
<!-- Node31&#45;&gt;Node6 -->
<g id="edge78" class="edge"><title>Node31&#45;&gt;Node6</title>
<path fill="none" stroke="midnightblue" d="M1039.77,-244.651C941.974,-242.919 752.062,-234.856 595,-200 569.607,-194.365 564.936,-187.4 540,-180 472.2,-159.879 444.899,-181.6 385,-144 372.52,-136.166 348.89,-104.202 334.681,-84.0004"/>
<polygon fill="midnightblue" stroke="midnightblue" points="337.473,-81.8854 328.889,-75.6753 331.727,-85.8831 337.473,-81.8854"/>
</g>
<!-- Node31&#45;&gt;Node11 -->
<g id="edge83" class="edge"><title>Node31&#45;&gt;Node11</title>
<path fill="none" stroke="midnightblue" d="M1099.89,-236.394C1079.59,-202.216 1004.4,-75.6436 976.505,-28.6843"/>
<polygon fill="midnightblue" stroke="midnightblue" points="979.423,-26.744 971.307,-19.9339 973.405,-30.319 979.423,-26.744"/>
</g>
<!-- Node31&#45;&gt;Node12 -->
<g id="edge81" class="edge"><title>Node31&#45;&gt;Node12</title>
<path fill="none" stroke="midnightblue" d="M1096.88,-236.44C1088.36,-227.436 1074.63,-212.821 1063,-200 1005.66,-136.802 997.447,-115.213 936,-56 924.924,-45.327 911.592,-34.3769 900.828,-25.9509"/>
<polygon fill="midnightblue" stroke="midnightblue" points="902.894,-23.1243 892.838,-19.7881 898.619,-28.667 902.894,-23.1243"/>
</g>
<!-- Node31&#45;&gt;Node13 -->
<g id="edge80" class="edge"><title>Node31&#45;&gt;Node13</title>
<path fill="none" stroke="midnightblue" d="M1086.18,-236.383C1068.21,-227.901 1040.61,-214.191 1018,-200 927.65,-143.302 921.266,-103.981 826,-56 820.6,-53.2803 750.619,-32.8485 707.847,-20.4703"/>
<polygon fill="midnightblue" stroke="midnightblue" points="708.711,-17.0768 698.133,-17.6619 706.767,-23.8014 708.711,-17.0768"/>
</g>
<!-- Node31&#45;&gt;Node17 -->
<g id="edge79" class="edge"><title>Node31&#45;&gt;Node17</title>
<path fill="none" stroke="midnightblue" d="M1091.74,-236.464C1078.66,-227.827 1058.31,-213.814 1042,-200 972.939,-141.497 970.4,-110.317 898,-56 881.278,-43.4544 860.638,-32.147 844.249,-24.0049"/>
<polygon fill="midnightblue" stroke="midnightblue" points="845.677,-20.8077 835.153,-19.5913 842.622,-27.1055 845.677,-20.8077"/>
</g>
<!-- Node31&#45;&gt;Node22 -->
<g id="edge84" class="edge"><title>Node31&#45;&gt;Node22</title>
<path fill="none" stroke="midnightblue" d="M1170.03,-243.178C1321.52,-238.565 1694.34,-224.976 1817,-200 1890.42,-185.051 1932.71,-205.147 1976,-144 2003.19,-105.592 1959.32,-52.885 1933.2,-26.8607"/>
<polygon fill="midnightblue" stroke="midnightblue" points="1935.39,-24.1108 1925.77,-19.6862 1930.53,-29.1484 1935.39,-24.1108"/>
</g>
<!-- Node31&#45;&gt;Node30 -->
<g id="edge48" class="edge"><title>Node31&#45;&gt;Node30</title>
<path fill="none" stroke="midnightblue" d="M1170.4,-243.204C1270.5,-239.604 1467.44,-229.162 1632,-200 1714.19,-185.435 1808.08,-156.865 1857.79,-140.762"/>
<polygon fill="midnightblue" stroke="midnightblue" points="1859,-144.05 1867.42,-137.62 1856.83,-137.395 1859,-144.05"/>
</g>
<!-- Node32 -->
<g id="node32" class="node"><title>Node32</title>
<g id="a_node32"><a xlink:href="../../d5/db8/DataRefUtils_8h.html" target="_top" xlink:title="Framework/DataRefUtils.h">
<polygon fill="none" stroke="black" points="1347,-180.5 1347,-199.5 1481,-199.5 1481,-180.5 1347,-180.5"/>
<text text-anchor="middle" x="1414" y="-187.5" font-family="Helvetica,sans-Serif" font-size="10.00">Framework/DataRefUtils.h</text>
</a>
</g>
</g>
<!-- Node31&#45;&gt;Node32 -->
<g id="edge49" class="edge"><title>Node31&#45;&gt;Node32</title>
<path fill="none" stroke="midnightblue" d="M1153.96,-236.444C1208.54,-226.905 1296.79,-211.483 1355.1,-201.293"/>
<polygon fill="midnightblue" stroke="midnightblue" points="1356.02,-204.686 1365.27,-199.516 1354.81,-197.79 1356.02,-204.686"/>
</g>
<!-- Node33 -->
<g id="node33" class="node"><title>Node33</title>
<g id="a_node33"><a xlink:href="../../d8/d3c/TMessageSerializer_8h.html" target="_top" xlink:title="Framework/TMessageSerializer.h">
<polygon fill="none" stroke="black" points="1222.5,-118.5 1222.5,-137.5 1385.5,-137.5 1385.5,-118.5 1222.5,-118.5"/>
<text text-anchor="middle" x="1304" y="-125.5" font-family="Helvetica,sans-Serif" font-size="10.00">Framework/TMessageSerializer.h</text>
</a>
</g>
</g>
<!-- Node31&#45;&gt;Node33 -->
<g id="edge75" class="edge"><title>Node31&#45;&gt;Node33</title>
<path fill="none" stroke="midnightblue" d="M1119.63,-236.47C1153.77,-216.569 1238.94,-166.922 1280.48,-142.711"/>
<polygon fill="midnightblue" stroke="midnightblue" points="1282.47,-145.602 1289.35,-137.542 1278.94,-139.555 1282.47,-145.602"/>
</g>
<!-- Node42 -->
<g id="node42" class="node"><title>Node42</title>
<g id="a_node42"><a xlink:href="../../d0/d95/TypeTraits_8h.html" target="_top" xlink:title="Framework/TypeTraits.h">
<polygon fill="none" stroke="black" points="1809.5,-56.5 1809.5,-75.5 1932.5,-75.5 1932.5,-56.5 1809.5,-56.5"/>
<text text-anchor="middle" x="1871" y="-63.5" font-family="Helvetica,sans-Serif" font-size="10.00">Framework/TypeTraits.h</text>
</a>
</g>
</g>
<!-- Node31&#45;&gt;Node42 -->
<g id="edge73" class="edge"><title>Node31&#45;&gt;Node42</title>
<path fill="none" stroke="midnightblue" d="M1170.21,-242.394C1361.08,-234.075 1908.39,-205.047 1958,-144 1966.97,-132.963 1965.39,-124.149 1958,-112 1948.54,-96.4569 1931.79,-86.0455 1915.5,-79.1913"/>
<polygon fill="midnightblue" stroke="midnightblue" points="1916.6,-75.8676 1906.01,-75.5548 1914.1,-82.4035 1916.6,-75.8676"/>
</g>
<!-- Node43 -->
<g id="node43" class="node"><title>Node43</title>
<polygon fill="none" stroke="#bfbfbf" points="1110,-118.5 1110,-137.5 1166,-137.5 1166,-118.5 1110,-118.5"/>
<text text-anchor="middle" x="1138" y="-125.5" font-family="Helvetica,sans-Serif" font-size="10.00">TClass.h</text>
</g>
<!-- Node31&#45;&gt;Node43 -->
<g id="edge76" class="edge"><title>Node31&#45;&gt;Node43</title>
<path fill="none" stroke="midnightblue" d="M1107.48,-236.281C1112.83,-217.463 1125.57,-172.697 1132.78,-147.34"/>
<polygon fill="midnightblue" stroke="midnightblue" points="1136.21,-148.081 1135.58,-137.505 1129.48,-146.165 1136.21,-148.081"/>
</g>
<!-- Node46 -->
<g id="node46" class="node"><title>Node46</title>
<polygon fill="none" stroke="#bfbfbf" points="1499.5,-180.5 1499.5,-199.5 1546.5,-199.5 1546.5,-180.5 1499.5,-180.5"/>
<text text-anchor="middle" x="1523" y="-187.5" font-family="Helvetica,sans-Serif" font-size="10.00">iterator</text>
</g>
<!-- Node31&#45;&gt;Node46 -->
<g id="edge77" class="edge"><title>Node31&#45;&gt;Node46</title>
<path fill="none" stroke="midnightblue" d="M1170.17,-240.379C1245,-234.402 1371.52,-222.249 1489.39,-199.833"/>
<polygon fill="midnightblue" stroke="midnightblue" points="1490.15,-203.251 1499.31,-197.918 1488.82,-196.377 1490.15,-203.251"/>
</g>
<!-- Node47 -->
<g id="node47" class="node"><title>Node47</title>
<polygon fill="none" stroke="#bfbfbf" points="1564.5,-180.5 1564.5,-199.5 1623.5,-199.5 1623.5,-180.5 1564.5,-180.5"/>
<text text-anchor="middle" x="1594" y="-187.5" font-family="Helvetica,sans-Serif" font-size="10.00">exception</text>
</g>
<!-- Node31&#45;&gt;Node47 -->
<g id="edge82" class="edge"><title>Node31&#45;&gt;Node47</title>
<path fill="none" stroke="midnightblue" d="M1170.17,-241.092C1255.95,-235.369 1411.53,-222.991 1554.03,-199.949"/>
<polygon fill="midnightblue" stroke="midnightblue" points="1554.96,-203.343 1564.27,-198.272 1553.83,-196.435 1554.96,-203.343"/>
</g>
<!-- Node32&#45;&gt;Node9 -->
<g id="edge51" class="edge"><title>Node32&#45;&gt;Node9</title>
<path fill="none" stroke="midnightblue" d="M1346.69,-181.906C1306.36,-175.747 1254.95,-164.453 1213,-144 1192.85,-134.173 1194.76,-120.465 1174,-112 1171.44,-110.957 867.638,-84.8531 727.902,-72.8902"/>
<polygon fill="midnightblue" stroke="midnightblue" points="727.989,-69.385 717.727,-72.0193 727.392,-76.3595 727.989,-69.385"/>
</g>
<!-- Node32&#45;&gt;Node22 -->
<g id="edge70" class="edge"><title>Node32&#45;&gt;Node22</title>
<path fill="none" stroke="midnightblue" d="M1481.28,-180.987C1588.97,-168.153 1788.12,-144.381 1789,-144 1809.25,-135.206 1807.65,-122.641 1827,-112 1873.55,-86.3922 1909.59,-118.856 1941,-76 1951.77,-61.3019 1941.19,-41.3803 1930.67,-27.4805"/>
<polygon fill="midnightblue" stroke="midnightblue" points="1933.36,-25.2343 1924.32,-19.7046 1927.94,-29.6632 1933.36,-25.2343"/>
</g>
<!-- Node32&#45;&gt;Node24 -->
<g id="edge68" class="edge"><title>Node32&#45;&gt;Node24</title>
<path fill="none" stroke="midnightblue" d="M1413.24,-180.234C1412.37,-164.019 1413.11,-129.414 1433,-112 1544.27,-14.5859 1863.63,-162.482 1761,-56 1724.71,-18.3439 901.606,-26.4597 785.681,-19.3356"/>
<polygon fill="midnightblue" stroke="midnightblue" points="785.97,-15.8476 775.704,-18.4669 785.363,-22.8212 785.97,-15.8476"/>
</g>
<!-- Node32&#45;&gt;Node30 -->
<g id="edge50" class="edge"><title>Node32&#45;&gt;Node30</title>
<path fill="none" stroke="midnightblue" d="M1481.13,-181.014C1484.13,-180.669 1487.1,-180.329 1490,-180 1637.47,-163.273 1675.43,-167.369 1822,-144 1829.79,-142.759 1838.01,-141.228 1845.99,-139.623"/>
<polygon fill="midnightblue" stroke="midnightblue" points="1846.83,-143.023 1855.91,-137.568 1845.41,-136.168 1846.83,-143.023"/>
</g>
<!-- Node32&#45;&gt;Node33 -->
<g id="edge52" class="edge"><title>Node32&#45;&gt;Node33</title>
<path fill="none" stroke="midnightblue" d="M1398.24,-180.403C1380.02,-170.468 1349.83,-153.997 1328.53,-142.381"/>
<polygon fill="midnightblue" stroke="midnightblue" points="1330.19,-139.297 1319.73,-137.581 1326.83,-145.442 1330.19,-139.297"/>
</g>
<!-- Node41 -->
<g id="node41" class="node"><title>Node41</title>
<g id="a_node41"><a xlink:href="../../d1/d53/SerializationMethods_8h.html" target="_top" xlink:title="Type wrappers for enfording a specific serialization method. ">
<polygon fill="none" stroke="black" points="1613.5,-118.5 1613.5,-137.5 1780.5,-137.5 1780.5,-118.5 1613.5,-118.5"/>
<text text-anchor="middle" x="1697" y="-125.5" font-family="Helvetica,sans-Serif" font-size="10.00">Framework/SerializationMethods.h</text>
</a>
</g>
</g>
<!-- Node32&#45;&gt;Node41 -->
<g id="edge62" class="edge"><title>Node32&#45;&gt;Node41</title>
<path fill="none" stroke="midnightblue" d="M1454.25,-180.467C1504.96,-169.716 1592.11,-151.239 1647.03,-139.595"/>
<polygon fill="midnightblue" stroke="midnightblue" points="1647.84,-143.001 1656.89,-137.503 1646.38,-136.154 1647.84,-143.001"/>
</g>
<!-- Node32&#45;&gt;Node42 -->
<g id="edge66" class="edge"><title>Node32&#45;&gt;Node42</title>
<path fill="none" stroke="midnightblue" d="M1460.48,-180.455C1491.6,-173.504 1532.8,-161.873 1566,-144 1585.44,-133.534 1583.96,-121.273 1604,-112 1621.57,-103.868 1727.11,-87.5656 1800.11,-76.9767"/>
<polygon fill="midnightblue" stroke="midnightblue" points="1800.79,-80.4155 1810.19,-75.5219 1799.79,-73.4874 1800.79,-80.4155"/>
</g>
<!-- Node32&#45;&gt;Node43 -->
<g id="edge67" class="edge"><title>Node32&#45;&gt;Node43</title>
<path fill="none" stroke="midnightblue" d="M1356.7,-180.495C1308.98,-172.815 1239.46,-160.234 1180,-144 1176.61,-143.075 1173.1,-142.006 1169.63,-140.874"/>
<polygon fill="midnightblue" stroke="midnightblue" points="1170.63,-137.517 1160.03,-137.583 1168.35,-144.138 1170.63,-137.517"/>
</g>
<!-- Node44 -->
<g id="node44" class="node"><title>Node44</title>
<polygon fill="none" stroke="#bfbfbf" points="1442,-118.5 1442,-137.5 1494,-137.5 1494,-118.5 1442,-118.5"/>
<text text-anchor="middle" x="1468" y="-125.5" font-family="Helvetica,sans-Serif" font-size="10.00">sstream</text>
</g>
<!-- Node32&#45;&gt;Node44 -->
<g id="edge69" class="edge"><title>Node32&#45;&gt;Node44</title>
<path fill="none" stroke="midnightblue" d="M1421.74,-180.403C1430,-171.225 1443.28,-156.47 1453.49,-145.117"/>
<polygon fill="midnightblue" stroke="midnightblue" points="1456.19,-147.355 1460.28,-137.581 1450.99,-142.672 1456.19,-147.355"/>
</g>
<!-- Node45 -->
<g id="node45" class="node"><title>Node45</title>
<polygon fill="none" stroke="#bfbfbf" points="1512.5,-118.5 1512.5,-137.5 1557.5,-137.5 1557.5,-118.5 1512.5,-118.5"/>
<text text-anchor="middle" x="1535" y="-125.5" font-family="Helvetica,sans-Serif" font-size="10.00">gsl/gsl</text>
</g>
<!-- Node32&#45;&gt;Node45 -->
<g id="edge71" class="edge"><title>Node32&#45;&gt;Node45</title>
<path fill="none" stroke="midnightblue" d="M1431.34,-180.403C1451.55,-170.379 1485.19,-153.701 1508.64,-142.07"/>
<polygon fill="midnightblue" stroke="midnightblue" points="1510.29,-145.159 1517.7,-137.581 1507.18,-138.887 1510.29,-145.159"/>
</g>
<!-- Node33&#45;&gt;Node3 -->
<g id="edge53" class="edge"><title>Node33&#45;&gt;Node3</title>
<path fill="none" stroke="midnightblue" d="M1273.34,-118.403C1235.76,-107.866 1171.96,-89.9783 1130.4,-78.3276"/>
<polygon fill="midnightblue" stroke="midnightblue" points="1131.18,-74.9103 1120.6,-75.5806 1129.29,-81.6503 1131.18,-74.9103"/>
</g>
<!-- Node33&#45;&gt;Node11 -->
<g id="edge60" class="edge"><title>Node33&#45;&gt;Node11</title>
<path fill="none" stroke="midnightblue" d="M1286.47,-118.412C1265.94,-108.336 1230.94,-91.0863 1201,-76 1183.6,-67.2335 1180.3,-62.6752 1162,-56 1107.95,-36.2864 1042.28,-23.3072 1002.34,-16.5603"/>
<polygon fill="midnightblue" stroke="midnightblue" points="1002.71,-13.0744 992.275,-14.9005 1001.57,-19.9811 1002.71,-13.0744"/>
</g>
<!-- Node34 -->
<g id="node34" class="node"><title>Node34</title>
<polygon fill="none" stroke="#bfbfbf" points="1272.5,-56.5 1272.5,-75.5 1319.5,-75.5 1319.5,-56.5 1272.5,-56.5"/>
<text text-anchor="middle" x="1296" y="-63.5" font-family="Helvetica,sans-Serif" font-size="10.00">TList.h</text>
</g>
<!-- Node33&#45;&gt;Node34 -->
<g id="edge54" class="edge"><title>Node33&#45;&gt;Node34</title>
<path fill="none" stroke="midnightblue" d="M1302.85,-118.403C1301.73,-109.938 1299.96,-96.7283 1298.51,-85.8199"/>
<polygon fill="midnightblue" stroke="midnightblue" points="1301.94,-85.0303 1297.14,-75.5806 1295,-85.9555 1301.94,-85.0303"/>
</g>
<!-- Node35 -->
<g id="node35" class="node"><title>Node35</title>
<polygon fill="none" stroke="#bfbfbf" points="1337.5,-56.5 1337.5,-75.5 1408.5,-75.5 1408.5,-56.5 1337.5,-56.5"/>
<text text-anchor="middle" x="1373" y="-63.5" font-family="Helvetica,sans-Serif" font-size="10.00">TMessage.h</text>
</g>
<!-- Node33&#45;&gt;Node35 -->
<g id="edge55" class="edge"><title>Node33&#45;&gt;Node35</title>
<path fill="none" stroke="midnightblue" d="M1313.89,-118.403C1324.65,-109.047 1342.07,-93.8948 1355.22,-82.4599"/>
<polygon fill="midnightblue" stroke="midnightblue" points="1357.88,-84.7835 1363.13,-75.5806 1353.29,-79.5013 1357.88,-84.7835"/>
</g>
<!-- Node36 -->
<g id="node36" class="node"><title>Node36</title>
<polygon fill="none" stroke="#bfbfbf" points="1426.5,-56.5 1426.5,-75.5 1495.5,-75.5 1495.5,-56.5 1426.5,-56.5"/>
<text text-anchor="middle" x="1461" y="-63.5" font-family="Helvetica,sans-Serif" font-size="10.00">TObjArray.h</text>
</g>
<!-- Node33&#45;&gt;Node36 -->
<g id="edge56" class="edge"><title>Node33&#45;&gt;Node36</title>
<path fill="none" stroke="midnightblue" d="M1326.49,-118.403C1353.31,-108.156 1398.32,-90.9561 1428.81,-79.3021"/>
<polygon fill="midnightblue" stroke="midnightblue" points="1430.46,-82.4199 1438.55,-75.5806 1427.96,-75.8811 1430.46,-82.4199"/>
</g>
<!-- Node37 -->
<g id="node37" class="node"><title>Node37</title>
<polygon fill="none" stroke="#bfbfbf" points="1513.5,-56.5 1513.5,-75.5 1600.5,-75.5 1600.5,-56.5 1513.5,-56.5"/>
<text text-anchor="middle" x="1557" y="-63.5" font-family="Helvetica,sans-Serif" font-size="10.00">TStreamerInfo.h</text>
</g>
<!-- Node33&#45;&gt;Node37 -->
<g id="edge57" class="edge"><title>Node33&#45;&gt;Node37</title>
<path fill="none" stroke="midnightblue" d="M1339.98,-118.467C1385.03,-107.783 1462.26,-89.4687 1511.41,-77.8129"/>
<polygon fill="midnightblue" stroke="midnightblue" points="1512.22,-81.2165 1521.14,-75.5034 1510.61,-74.4055 1512.22,-81.2165"/>
</g>
<!-- Node38 -->
<g id="node38" class="node"><title>Node38</title>
<polygon fill="none" stroke="#bfbfbf" points="1618.5,-56.5 1618.5,-75.5 1681.5,-75.5 1681.5,-56.5 1618.5,-56.5"/>
<text text-anchor="middle" x="1650" y="-63.5" font-family="Helvetica,sans-Serif" font-size="10.00">gsl/gsl_util</text>
</g>
<!-- Node33&#45;&gt;Node38 -->
<g id="edge58" class="edge"><title>Node33&#45;&gt;Node38</title>
<path fill="none" stroke="midnightblue" d="M1357.07,-118.458C1427.09,-107.133 1547.64,-87.436 1608.34,-76.0287"/>
<polygon fill="midnightblue" stroke="midnightblue" points="1609.08,-79.4495 1618.25,-74.1354 1607.77,-72.5738 1609.08,-79.4495"/>
</g>
<!-- Node39 -->
<g id="node39" class="node"><title>Node39</title>
<polygon fill="none" stroke="#bfbfbf" points="1699.5,-56.5 1699.5,-75.5 1752.5,-75.5 1752.5,-56.5 1699.5,-56.5"/>
<text text-anchor="middle" x="1726" y="-63.5" font-family="Helvetica,sans-Serif" font-size="10.00">gsl/span</text>
</g>
<!-- Node33&#45;&gt;Node39 -->
<g id="edge59" class="edge"><title>Node33&#45;&gt;Node39</title>
<path fill="none" stroke="midnightblue" d="M1356.77,-118.449C1370.81,-116.258 1385.97,-113.967 1400,-112 1525.48,-94.4128 1560.62,-99.5239 1689.49,-75.8775"/>
<polygon fill="midnightblue" stroke="midnightblue" points="1690.15,-79.3147 1699.34,-74.0475 1688.87,-72.4324 1690.15,-79.3147"/>
</g>
<!-- Node40 -->
<g id="node40" class="node"><title>Node40</title>
<polygon fill="none" stroke="#bfbfbf" points="1210,-56.5 1210,-75.5 1254,-75.5 1254,-56.5 1210,-56.5"/>
<text text-anchor="middle" x="1232" y="-63.5" font-family="Helvetica,sans-Serif" font-size="10.00">mutex</text>
</g>
<!-- Node33&#45;&gt;Node40 -->
<g id="edge61" class="edge"><title>Node33&#45;&gt;Node40</title>
<path fill="none" stroke="midnightblue" d="M1293.68,-118.403C1282.35,-108.958 1263.93,-93.6056 1250.16,-82.1342"/>
<polygon fill="midnightblue" stroke="midnightblue" points="1252.22,-79.2937 1242.3,-75.5806 1247.74,-84.6713 1252.22,-79.2937"/>
</g>
<!-- Node41&#45;&gt;Node42 -->
<g id="edge63" class="edge"><title>Node41&#45;&gt;Node42</title>
<path fill="none" stroke="midnightblue" d="M1721.93,-118.403C1752.04,-108.022 1802.83,-90.5062 1836.64,-78.849"/>
<polygon fill="midnightblue" stroke="midnightblue" points="1837.8,-82.1494 1846.12,-75.5806 1835.52,-75.5318 1837.8,-82.1494"/>
</g>
<!-- Node42&#45;&gt;Node17 -->
<g id="edge65" class="edge"><title>Node42&#45;&gt;Node17</title>
<path fill="none" stroke="midnightblue" d="M1809.24,-57.2679C1804.43,-56.7932 1799.64,-56.362 1795,-56 1377.93,-23.4381 1264.99,-86.2853 848.107,-19.7469"/>
<polygon fill="midnightblue" stroke="midnightblue" points="848.631,-16.2864 838.202,-18.151 847.518,-23.1973 848.631,-16.2864"/>
</g>
<!-- Node42&#45;&gt;Node22 -->
<g id="edge64" class="edge"><title>Node42&#45;&gt;Node22</title>
<path fill="none" stroke="midnightblue" d="M1878.43,-56.083C1884.85,-48.3768 1894.31,-37.0333 1902.12,-27.6531"/>
<polygon fill="midnightblue" stroke="midnightblue" points="1904.99,-29.674 1908.71,-19.7511 1899.62,-25.1927 1904.99,-29.674"/>
</g>
</g>
</svg>
