<?xml version="1.0" encoding="UTF-8" standalone="no"?>
<!DOCTYPE svg PUBLIC "-//W3C//DTD SVG 1.1//EN"
 "http://www.w3.org/Graphics/SVG/1.1/DTD/svg11.dtd">
<!-- Generated by graphviz version 2.36.0 (20140111.2315)
 -->
<!-- Title: /home/travis/build/AliceO2Group/AliceO2/Detectors/ITSMFT/common/reconstruction/src/Clusterer.cxx Pages: 1 -->
<!--zoomable 526 -->
<svg id="main" version="1.1" xmlns="http://www.w3.org/2000/svg" xmlns:xlink="http://www.w3.org/1999/xlink" xml:space="preserve" onload="init(evt)">
<style type="text/css"><![CDATA[
.edge:hover path { stroke: red; }
.edge:hover polygon { stroke: red; fill: red; }
]]></style>
<script type="text/javascript"><![CDATA[
var edges = document.getElementsByTagName('g');
if (edges && edges.length) {
  for (var i=0;i<edges.length;i++) {
    if (edges[i].id.substr(0,4)=='edge') {
      edges[i].setAttribute('class','edge');
    }
  }
}
]]></script>
        <defs>
                <circle id="rim" cx="0" cy="0" r="7"/>
                <circle id="rim2" cx="0" cy="0" r="3.5"/>
                <g id="zoomPlus">
                        <use xlink:href="#rim" fill="#404040">
                                <set attributeName="fill" to="#808080" begin="zoomplus.mouseover" end="zoomplus.mouseout"/>
                        </use>
                        <path d="M-4,0h8M0,-4v8" fill="none" stroke="white" stroke-width="1.5" pointer-events="none"/>
                </g>
                <g id="zoomMin">
                        <use xlink:href="#rim" fill="#404040">
                                <set attributeName="fill" to="#808080" begin="zoomminus.mouseover" end="zoomminus.mouseout"/>
                        </use>
                        <path d="M-4,0h8" fill="none" stroke="white" stroke-width="1.5" pointer-events="none"/>
                </g>
                <g id="dirArrow">
                        <path fill="none" stroke="white" stroke-width="1.5" d="M0,-3.0v7 M-2.5,-0.5L0,-3.0L2.5,-0.5"/>
                </g>
               <g id="resetDef">
                       <use xlink:href="#rim2" fill="#404040">
                               <set attributeName="fill" to="#808080" begin="reset.mouseover" end="reset.mouseout"/>
                       </use>
               </g>
        </defs>

<script type="text/javascript">
var viewWidth = 2132;
var viewHeight = 526;
var sectionId = 'dynsection-0';
</script>
<script xlink:href="../../svgpan.js"/>
<svg id="graph" class="graph">
<g id="viewport">
<title>/home/travis/build/AliceO2Group/AliceO2/Detectors/ITSMFT/common/reconstruction/src/Clusterer.cxx</title>
<!-- Node1 -->
<g id="node1" class="node"><title>Node1</title>
<polygon fill="#bfbfbf" stroke="black" points="1493.5,-465 1493.5,-517 1652.5,-517 1652.5,-465 1493.5,-465"/>
<text text-anchor="start" x="1501.5" y="-505" font-family="Helvetica,sans-Serif" font-size="10.00">/home/travis/build</text>
<text text-anchor="start" x="1501.5" y="-494" font-family="Helvetica,sans-Serif" font-size="10.00">/AliceO2Group/AliceO2</text>
<text text-anchor="start" x="1501.5" y="-483" font-family="Helvetica,sans-Serif" font-size="10.00">/Detectors/ITSMFT/common</text>
<text text-anchor="middle" x="1573" y="-472" font-family="Helvetica,sans-Serif" font-size="10.00">/reconstruction/src/Clusterer.cxx</text>
</g>
<!-- Node2 -->
<g id="node2" class="node"><title>Node2</title>
<polygon fill="none" stroke="#bfbfbf" points="732,-402.5 732,-421.5 788,-421.5 788,-402.5 732,-402.5"/>
<text text-anchor="middle" x="760" y="-409.5" font-family="Helvetica,sans-Serif" font-size="10.00">algorithm</text>
</g>
<!-- Node1&#45;&gt;Node2 -->
<g id="edge1" class="edge"><title>Node1&#45;&gt;Node2</title>
<path fill="none" stroke="midnightblue" d="M1493.48,-490.439C1352.53,-489.711 1050.3,-481.348 802,-428 798.109,-427.164 794.086,-426.059 790.143,-424.826"/>
<polygon fill="midnightblue" stroke="midnightblue" points="791.216,-421.495 780.622,-421.581 788.958,-428.12 791.216,-421.495"/>
</g>
<!-- Node3 -->
<g id="node3" class="node"><title>Node3</title>
<polygon fill="none" stroke="#bfbfbf" points="831.5,-142.5 831.5,-161.5 902.5,-161.5 902.5,-142.5 831.5,-142.5"/>
<text text-anchor="middle" x="867" y="-149.5" font-family="Helvetica,sans-Serif" font-size="10.00">FairLogger.h</text>
</g>
<!-- Node1&#45;&gt;Node3 -->
<g id="edge2" class="edge"><title>Node1&#45;&gt;Node3</title>
<path fill="none" stroke="midnightblue" d="M1493.42,-483.681C1299.06,-467.185 816,-419.314 816,-351 816,-351 816,-351 816,-287 816,-242.611 840.747,-195.041 855.764,-170.262"/>
<polygon fill="midnightblue" stroke="midnightblue" points="858.81,-171.993 861.15,-161.66 852.877,-168.279 858.81,-171.993"/>
</g>
<!-- Node4 -->
<g id="node4" class="node"><title>Node4</title>
<g id="a_node4"><a xlink:href="../../d3/dba/SegmentationAlpide_8h.html" target="_top" xlink:title="Definition of the SegmentationAlpide class. ">
<polygon fill="none" stroke="black" points="1844.5,-402.5 1844.5,-421.5 2017.5,-421.5 2017.5,-402.5 1844.5,-402.5"/>
<text text-anchor="middle" x="1931" y="-409.5" font-family="Helvetica,sans-Serif" font-size="10.00">ITSMFTBase/SegmentationAlpide.h</text>
</a>
</g>
</g>
<!-- Node1&#45;&gt;Node4 -->
<g id="edge3" class="edge"><title>Node1&#45;&gt;Node4</title>
<path fill="none" stroke="midnightblue" d="M1652.9,-472.816C1722.83,-457.774 1822.24,-436.393 1881.32,-423.685"/>
<polygon fill="midnightblue" stroke="midnightblue" points="1882.12,-427.094 1891.16,-421.569 1880.65,-420.25 1882.12,-427.094"/>
</g>
<!-- Node6 -->
<g id="node6" class="node"><title>Node6</title>
<g id="a_node6"><a xlink:href="../../d1/d62/DataFormats_2Detectors_2ITSMFT_2common_2include_2DataFormatsITSMFT_2Cluster_8h.html" target="_top" xlink:title="DataFormatsITSMFT/Cluster.h">
<polygon fill="none" stroke="black" points="1187,-340.5 1187,-359.5 1339,-359.5 1339,-340.5 1187,-340.5"/>
<text text-anchor="middle" x="1263" y="-347.5" font-family="Helvetica,sans-Serif" font-size="10.00">DataFormatsITSMFT/Cluster.h</text>
</a>
</g>
</g>
<!-- Node1&#45;&gt;Node6 -->
<g id="edge5" class="edge"><title>Node1&#45;&gt;Node6</title>
<path fill="none" stroke="midnightblue" d="M1517.22,-464.989C1450.87,-435.239 1342.67,-386.725 1291.52,-363.787"/>
<polygon fill="midnightblue" stroke="midnightblue" points="1292.63,-360.452 1282.08,-359.554 1289.77,-366.839 1292.63,-360.452"/>
</g>
<!-- Node33 -->
<g id="node33" class="node"><title>Node33</title>
<g id="a_node33"><a xlink:href="../../d6/d04/ITSMFT_2common_2reconstruction_2include_2ITSMFTReconstruction_2Clusterer_8h.html" target="_top" xlink:title="ITSMFTReconstruction\l/Clusterer.h">
<polygon fill="none" stroke="black" points="1513.5,-397 1513.5,-427 1632.5,-427 1632.5,-397 1513.5,-397"/>
<text text-anchor="start" x="1521.5" y="-415" font-family="Helvetica,sans-Serif" font-size="10.00">ITSMFTReconstruction</text>
<text text-anchor="middle" x="1573" y="-404" font-family="Helvetica,sans-Serif" font-size="10.00">/Clusterer.h</text>
</a>
</g>
</g>
<!-- Node1&#45;&gt;Node33 -->
<g id="edge41" class="edge"><title>Node1&#45;&gt;Node33</title>
<path fill="none" stroke="midnightblue" d="M1573,-464.787C1573,-456.029 1573,-446.225 1573,-437.523"/>
<polygon fill="midnightblue" stroke="midnightblue" points="1576.5,-437.252 1573,-427.252 1569.5,-437.252 1576.5,-437.252"/>
</g>
<!-- Node40 -->
<g id="node40" class="node"><title>Node40</title>
<g id="a_node40"><a xlink:href="../../d7/dcd/MCCompLabel_8h.html" target="_top" xlink:title="SimulationDataFormat\l/MCCompLabel.h">
<polygon fill="none" stroke="black" points="1713,-137 1713,-167 1827,-167 1827,-137 1713,-137"/>
<text text-anchor="start" x="1721" y="-155" font-family="Helvetica,sans-Serif" font-size="10.00">SimulationDataFormat</text>
<text text-anchor="middle" x="1770" y="-144" font-family="Helvetica,sans-Serif" font-size="10.00">/MCCompLabel.h</text>
</a>
</g>
</g>
<!-- Node1&#45;&gt;Node40 -->
<g id="edge59" class="edge"><title>Node1&#45;&gt;Node40</title>
<path fill="none" stroke="midnightblue" d="M1646.43,-464.916C1712.36,-437.485 1802.68,-386.136 1829,-304 1843.93,-257.406 1811.38,-204.463 1788.94,-175.279"/>
<polygon fill="midnightblue" stroke="midnightblue" points="1791.61,-173.012 1782.65,-167.36 1786.13,-177.367 1791.61,-173.012"/>
</g>
<!-- Node42 -->
<g id="node42" class="node"><title>Node42</title>
<g id="a_node42"><a xlink:href="../../db/d14/MCTruthContainer_8h.html" target="_top" xlink:title="Definition of a container to keep Monte Carlo truth external to simulation objects. ">
<polygon fill="none" stroke="black" points="1959,-137 1959,-167 2073,-167 2073,-137 1959,-137"/>
<text text-anchor="start" x="1967" y="-155" font-family="Helvetica,sans-Serif" font-size="10.00">SimulationDataFormat</text>
<text text-anchor="middle" x="2016" y="-144" font-family="Helvetica,sans-Serif" font-size="10.00">/MCTruthContainer.h</text>
</a>
</g>
</g>
<!-- Node1&#45;&gt;Node42 -->
<g id="edge60" class="edge"><title>Node1&#45;&gt;Node42</title>
<path fill="none" stroke="midnightblue" d="M1652.56,-489.449C1767.52,-486.98 1972.22,-475.777 2026,-428 2052.43,-404.517 2046,-386.358 2046,-351 2046,-351 2046,-351 2046,-287 2046,-247.644 2033.52,-203.322 2024.66,-176.806"/>
<polygon fill="midnightblue" stroke="midnightblue" points="2027.93,-175.552 2021.36,-167.241 2021.32,-177.835 2027.93,-175.552"/>
</g>
<!-- Node5 -->
<g id="node5" class="node"><title>Node5</title>
<polygon fill="none" stroke="#bfbfbf" points="1582,-74.5 1582,-93.5 1638,-93.5 1638,-74.5 1582,-74.5"/>
<text text-anchor="middle" x="1610" y="-81.5" font-family="Helvetica,sans-Serif" font-size="10.00">Rtypes.h</text>
</g>
<!-- Node4&#45;&gt;Node5 -->
<g id="edge4" class="edge"><title>Node4&#45;&gt;Node5</title>
<path fill="none" stroke="midnightblue" d="M1931,-402.421C1931,-382.502 1931,-331.573 1931,-289 1931,-289 1931,-289 1931,-219 1931,-173.482 1909.46,-160.339 1871,-136 1796.9,-89.1082 1762.91,-117.582 1677,-100 1667.65,-98.087 1657.6,-95.9037 1648.2,-93.8063"/>
<polygon fill="midnightblue" stroke="midnightblue" points="1648.84,-90.363 1638.31,-91.5809 1647.3,-97.192 1648.84,-90.363"/>
</g>
<!-- Node7 -->
<g id="node7" class="node"><title>Node7</title>
<g id="a_node7"><a xlink:href="../../d4/de2/BaseCluster_8h.html" target="_top" xlink:title="ReconstructionDataFormats\l/BaseCluster.h">
<polygon fill="none" stroke="black" points="1025,-273 1025,-303 1165,-303 1165,-273 1025,-273"/>
<text text-anchor="start" x="1033" y="-291" font-family="Helvetica,sans-Serif" font-size="10.00">ReconstructionDataFormats</text>
<text text-anchor="middle" x="1095" y="-280" font-family="Helvetica,sans-Serif" font-size="10.00">/BaseCluster.h</text>
</a>
</g>
</g>
<!-- Node6&#45;&gt;Node7 -->
<g id="edge6" class="edge"><title>Node6&#45;&gt;Node7</title>
<path fill="none" stroke="midnightblue" d="M1238.93,-340.403C1214.18,-331.564 1174.95,-317.553 1143.69,-306.39"/>
<polygon fill="midnightblue" stroke="midnightblue" points="1144.87,-303.093 1134.27,-303.025 1142.51,-309.685 1144.87,-303.093"/>
</g>
<!-- Node8 -->
<g id="node8" class="node"><title>Node8</title>
<polygon fill="none" stroke="#bfbfbf" points="1149.5,-210.5 1149.5,-229.5 1208.5,-229.5 1208.5,-210.5 1149.5,-210.5"/>
<text text-anchor="middle" x="1179" y="-217.5" font-family="Helvetica,sans-Serif" font-size="10.00">TObject.h</text>
</g>
<!-- Node7&#45;&gt;Node8 -->
<g id="edge7" class="edge"><title>Node7&#45;&gt;Node8</title>
<path fill="none" stroke="midnightblue" d="M1113.23,-272.679C1126.97,-261.879 1145.78,-247.098 1159.77,-236.11"/>
<polygon fill="midnightblue" stroke="midnightblue" points="1162.06,-238.759 1167.76,-229.828 1157.74,-233.254 1162.06,-238.759"/>
</g>
<!-- Node9 -->
<g id="node9" class="node"><title>Node9</title>
<polygon fill="none" stroke="#bfbfbf" points="1221.5,-74.5 1221.5,-93.5 1262.5,-93.5 1262.5,-74.5 1221.5,-74.5"/>
<text text-anchor="middle" x="1242" y="-81.5" font-family="Helvetica,sans-Serif" font-size="10.00">bitset</text>
</g>
<!-- Node7&#45;&gt;Node9 -->
<g id="edge8" class="edge"><title>Node7&#45;&gt;Node9</title>
<path fill="none" stroke="midnightblue" d="M1090.95,-272.971C1086.8,-255.782 1082.31,-226.211 1093,-204 1117.9,-152.242 1177.49,-115.982 1213.31,-97.9856"/>
<polygon fill="midnightblue" stroke="midnightblue" points="1214.84,-101.13 1222.3,-93.6006 1211.78,-94.838 1214.84,-101.13"/>
</g>
<!-- Node10 -->
<g id="node10" class="node"><title>Node10</title>
<polygon fill="none" stroke="#bfbfbf" points="958,-210.5 958,-229.5 1008,-229.5 1008,-210.5 958,-210.5"/>
<text text-anchor="middle" x="983" y="-217.5" font-family="Helvetica,sans-Serif" font-size="10.00">iomanip</text>
</g>
<!-- Node7&#45;&gt;Node10 -->
<g id="edge9" class="edge"><title>Node7&#45;&gt;Node10</title>
<path fill="none" stroke="midnightblue" d="M1070.97,-272.841C1051.95,-261.63 1025.52,-246.056 1006.6,-234.91"/>
<polygon fill="midnightblue" stroke="midnightblue" points="1008.13,-231.743 997.733,-229.682 1004.57,-237.774 1008.13,-231.743"/>
</g>
<!-- Node11 -->
<g id="node11" class="node"><title>Node11</title>
<polygon fill="none" stroke="#bfbfbf" points="1102.5,-210.5 1102.5,-229.5 1131.5,-229.5 1131.5,-210.5 1102.5,-210.5"/>
<text text-anchor="middle" x="1117" y="-217.5" font-family="Helvetica,sans-Serif" font-size="10.00">ios</text>
</g>
<!-- Node7&#45;&gt;Node11 -->
<g id="edge10" class="edge"><title>Node7&#45;&gt;Node11</title>
<path fill="none" stroke="midnightblue" d="M1099.77,-272.679C1103,-262.999 1107.29,-250.123 1110.79,-239.645"/>
<polygon fill="midnightblue" stroke="midnightblue" points="1114.22,-240.422 1114.06,-229.828 1107.57,-238.208 1114.22,-240.422"/>
</g>
<!-- Node12 -->
<g id="node12" class="node"><title>Node12</title>
<polygon fill="none" stroke="#bfbfbf" points="-0.5,-74.5 -0.5,-93.5 44.5,-93.5 44.5,-74.5 -0.5,-74.5"/>
<text text-anchor="middle" x="22" y="-81.5" font-family="Helvetica,sans-Serif" font-size="10.00">iosfwd</text>
</g>
<!-- Node7&#45;&gt;Node12 -->
<g id="edge11" class="edge"><title>Node7&#45;&gt;Node12</title>
<path fill="none" stroke="midnightblue" d="M1024.82,-281.067C854.586,-265.257 407.625,-215.208 53,-100 51.0809,-99.3765 49.1289,-98.6567 47.1862,-97.8769"/>
<polygon fill="midnightblue" stroke="midnightblue" points="48.3009,-94.541 37.744,-93.6445 45.4376,-100.929 48.3009,-94.541"/>
</g>
<!-- Node13 -->
<g id="node13" class="node"><title>Node13</title>
<g id="a_node13"><a xlink:href="../../d4/d20/DetMatrixCache_8h.html" target="_top" xlink:title="DetectorsCommonDataFormats\l/DetMatrixCache.h">
<polygon fill="none" stroke="black" points="1227,-205 1227,-235 1383,-235 1383,-205 1227,-205"/>
<text text-anchor="start" x="1235" y="-223" font-family="Helvetica,sans-Serif" font-size="10.00">DetectorsCommonDataFormats</text>
<text text-anchor="middle" x="1305" y="-212" font-family="Helvetica,sans-Serif" font-size="10.00">/DetMatrixCache.h</text>
</a>
</g>
</g>
<!-- Node7&#45;&gt;Node13 -->
<g id="edge12" class="edge"><title>Node7&#45;&gt;Node13</title>
<path fill="none" stroke="midnightblue" d="M1139.79,-272.922C1172.14,-262.757 1215.99,-248.975 1250.39,-238.164"/>
<polygon fill="midnightblue" stroke="midnightblue" points="1251.79,-241.393 1260.28,-235.056 1249.69,-234.715 1251.79,-241.393"/>
</g>
<!-- Node23 -->
<g id="node23" class="node"><title>Node23</title>
<g id="a_node23"><a xlink:href="../../dd/d76/Cartesian3D_8h.html" target="_top" xlink:title="MathUtils/Cartesian3D.h">
<polygon fill="none" stroke="black" points="920.5,-142.5 920.5,-161.5 1045.5,-161.5 1045.5,-142.5 920.5,-142.5"/>
<text text-anchor="middle" x="983" y="-149.5" font-family="Helvetica,sans-Serif" font-size="10.00">MathUtils/Cartesian3D.h</text>
</a>
</g>
</g>
<!-- Node7&#45;&gt;Node23 -->
<g id="edge40" class="edge"><title>Node7&#45;&gt;Node23</title>
<path fill="none" stroke="midnightblue" d="M1083.01,-272.66C1062.13,-247.668 1019.17,-196.269 996.966,-169.709"/>
<polygon fill="midnightblue" stroke="midnightblue" points="999.393,-167.156 990.295,-161.728 994.022,-171.645 999.393,-167.156"/>
</g>
<!-- Node13&#45;&gt;Node3 -->
<g id="edge13" class="edge"><title>Node13&#45;&gt;Node3</title>
<path fill="none" stroke="midnightblue" d="M1226.82,-205.459C1223.51,-204.952 1220.22,-204.464 1217,-204 1081.46,-184.489 1044.55,-198.262 911,-168 907.04,-167.103 902.937,-165.979 898.9,-164.752"/>
<polygon fill="midnightblue" stroke="midnightblue" points="899.713,-161.336 889.121,-161.56 897.542,-167.99 899.713,-161.336"/>
</g>
<!-- Node13&#45;&gt;Node5 -->
<g id="edge39" class="edge"><title>Node13&#45;&gt;Node5</title>
<path fill="none" stroke="midnightblue" d="M1326.13,-204.98C1340.9,-194.999 1360.96,-181.088 1378,-168 1395.51,-154.553 1396.4,-146.166 1416,-136 1466.48,-109.818 1531.49,-96.287 1571.96,-89.9203"/>
<polygon fill="midnightblue" stroke="midnightblue" points="1572.57,-93.3669 1581.94,-88.4169 1571.53,-86.445 1572.57,-93.3669"/>
</g>
<!-- Node14 -->
<g id="node14" class="node"><title>Node14</title>
<polygon fill="none" stroke="#bfbfbf" points="1272,-6.5 1272,-25.5 1310,-25.5 1310,-6.5 1272,-6.5"/>
<text text-anchor="middle" x="1291" y="-13.5" font-family="Helvetica,sans-Serif" font-size="10.00">array</text>
</g>
<!-- Node13&#45;&gt;Node14 -->
<g id="edge14" class="edge"><title>Node13&#45;&gt;Node14</title>
<path fill="none" stroke="midnightblue" d="M1252.05,-204.925C1233.56,-197.191 1214.76,-185.483 1204,-168 1193.67,-151.21 1202.22,-83.6867 1212,-68 1223.66,-49.2963 1244.99,-36.1365 1262.55,-27.8749"/>
<polygon fill="midnightblue" stroke="midnightblue" points="1264.09,-31.0198 1271.83,-23.7849 1261.27,-24.614 1264.09,-31.0198"/>
</g>
<!-- Node15 -->
<g id="node15" class="node"><title>Node15</title>
<polygon fill="none" stroke="#bfbfbf" points="1425,-142.5 1425,-161.5 1469,-161.5 1469,-142.5 1425,-142.5"/>
<text text-anchor="middle" x="1447" y="-149.5" font-family="Helvetica,sans-Serif" font-size="10.00">vector</text>
</g>
<!-- Node13&#45;&gt;Node15 -->
<g id="edge15" class="edge"><title>Node13&#45;&gt;Node15</title>
<path fill="none" stroke="midnightblue" d="M1335.46,-204.841C1360.24,-193.323 1394.94,-177.199 1419.02,-166.004"/>
<polygon fill="midnightblue" stroke="midnightblue" points="1420.73,-169.071 1428.32,-161.682 1417.78,-162.723 1420.73,-169.071"/>
</g>
<!-- Node16 -->
<g id="node16" class="node"><title>Node16</title>
<g id="a_node16"><a xlink:href="../../d6/d31/DetID_8h.html" target="_top" xlink:title="DetectorsCommonDataFormats\l/DetID.h">
<polygon fill="none" stroke="black" points="1213,-137 1213,-167 1369,-167 1369,-137 1213,-137"/>
<text text-anchor="start" x="1221" y="-155" font-family="Helvetica,sans-Serif" font-size="10.00">DetectorsCommonDataFormats</text>
<text text-anchor="middle" x="1291" y="-144" font-family="Helvetica,sans-Serif" font-size="10.00">/DetID.h</text>
</a>
</g>
</g>
<!-- Node13&#45;&gt;Node16 -->
<g id="edge16" class="edge"><title>Node13&#45;&gt;Node16</title>
<path fill="none" stroke="midnightblue" d="M1301.96,-204.679C1300.26,-196.636 1298.08,-186.385 1296.12,-177.137"/>
<polygon fill="midnightblue" stroke="midnightblue" points="1299.53,-176.349 1294.03,-167.293 1292.68,-177.802 1299.53,-176.349"/>
</g>
<!-- Node13&#45;&gt;Node23 -->
<g id="edge27" class="edge"><title>Node13&#45;&gt;Node23</title>
<path fill="none" stroke="midnightblue" d="M1236.32,-204.922C1175.81,-192.52 1089.02,-174.731 1034.36,-163.526"/>
<polygon fill="midnightblue" stroke="midnightblue" points="1035.04,-160.093 1024.54,-161.514 1033.63,-166.951 1035.04,-160.093"/>
</g>
<!-- Node16&#45;&gt;Node5 -->
<g id="edge17" class="edge"><title>Node16&#45;&gt;Node5</title>
<path fill="none" stroke="midnightblue" d="M1359.04,-136.922C1423.89,-123.506 1519.19,-103.788 1571.73,-92.9187"/>
<polygon fill="midnightblue" stroke="midnightblue" points="1572.56,-96.3208 1581.64,-90.8673 1571.14,-89.466 1572.56,-96.3208"/>
</g>
<!-- Node16&#45;&gt;Node9 -->
<g id="edge19" class="edge"><title>Node16&#45;&gt;Node9</title>
<path fill="none" stroke="midnightblue" d="M1280.37,-136.679C1272.8,-126.49 1262.61,-112.759 1254.63,-102.011"/>
<polygon fill="midnightblue" stroke="midnightblue" points="1257.33,-99.7711 1248.55,-93.8283 1251.71,-103.944 1257.33,-99.7711"/>
</g>
<!-- Node16&#45;&gt;Node14 -->
<g id="edge18" class="edge"><title>Node16&#45;&gt;Node14</title>
<path fill="none" stroke="midnightblue" d="M1291,-136.66C1291,-112.32 1291,-62.9332 1291,-35.8373"/>
<polygon fill="midnightblue" stroke="midnightblue" points="1294.5,-35.7275 1291,-25.7275 1287.5,-35.7276 1294.5,-35.7275"/>
</g>
<!-- Node17 -->
<g id="node17" class="node"><title>Node17</title>
<polygon fill="none" stroke="#bfbfbf" points="1686.5,-74.5 1686.5,-93.5 1735.5,-93.5 1735.5,-74.5 1686.5,-74.5"/>
<text text-anchor="middle" x="1711" y="-81.5" font-family="Helvetica,sans-Serif" font-size="10.00">cassert</text>
</g>
<!-- Node16&#45;&gt;Node17 -->
<g id="edge20" class="edge"><title>Node16&#45;&gt;Node17</title>
<path fill="none" stroke="midnightblue" d="M1369.22,-141.683C1441.36,-132.637 1551.28,-117.7 1646,-100 1655.97,-98.1369 1666.73,-95.793 1676.56,-93.5153"/>
<polygon fill="midnightblue" stroke="midnightblue" points="1677.48,-96.8944 1686.41,-91.1887 1675.87,-90.082 1677.48,-96.8944"/>
</g>
<!-- Node18 -->
<g id="node18" class="node"><title>Node18</title>
<polygon fill="none" stroke="#bfbfbf" points="1427,-74.5 1427,-93.5 1473,-93.5 1473,-74.5 1427,-74.5"/>
<text text-anchor="middle" x="1450" y="-81.5" font-family="Helvetica,sans-Serif" font-size="10.00">cstdint</text>
</g>
<!-- Node16&#45;&gt;Node18 -->
<g id="edge21" class="edge"><title>Node16&#45;&gt;Node18</title>
<path fill="none" stroke="midnightblue" d="M1327.63,-136.923C1353.12,-126.972 1387.82,-113.12 1418,-100 1419.59,-99.3105 1421.21,-98.5909 1422.85,-97.8563"/>
<polygon fill="midnightblue" stroke="midnightblue" points="1424.51,-100.942 1432.14,-93.5888 1421.59,-94.5807 1424.51,-100.942"/>
</g>
<!-- Node19 -->
<g id="node19" class="node"><title>Node19</title>
<polygon fill="none" stroke="#bfbfbf" points="1812,-74.5 1812,-93.5 1874,-93.5 1874,-74.5 1812,-74.5"/>
<text text-anchor="middle" x="1843" y="-81.5" font-family="Helvetica,sans-Serif" font-size="10.00">type_traits</text>
</g>
<!-- Node16&#45;&gt;Node19 -->
<g id="edge22" class="edge"><title>Node16&#45;&gt;Node19</title>
<path fill="none" stroke="midnightblue" d="M1369,-141.516C1384.57,-139.659 1400.8,-137.746 1416,-136 1561.7,-119.263 1598.58,-118.989 1744,-100 1763.02,-97.5163 1784.04,-94.3869 1801.8,-91.6299"/>
<polygon fill="midnightblue" stroke="midnightblue" points="1802.5,-95.0628 1811.83,-90.0573 1801.41,-88.1471 1802.5,-95.0628"/>
</g>
<!-- Node20 -->
<g id="node20" class="node"><title>Node20</title>
<g id="a_node20"><a xlink:href="../../d9/d52/Common_2MathUtils_2include_2MathUtils_2Utils_8h.html" target="_top" xlink:title="MathUtils/Utils.h">
<polygon fill="none" stroke="black" points="1319,-74.5 1319,-93.5 1409,-93.5 1409,-74.5 1319,-74.5"/>
<text text-anchor="middle" x="1364" y="-81.5" font-family="Helvetica,sans-Serif" font-size="10.00">MathUtils/Utils.h</text>
</a>
</g>
</g>
<!-- Node16&#45;&gt;Node20 -->
<g id="edge23" class="edge"><title>Node16&#45;&gt;Node20</title>
<path fill="none" stroke="midnightblue" d="M1306.84,-136.679C1318.56,-126.082 1334.52,-111.655 1346.59,-100.736"/>
<polygon fill="midnightblue" stroke="midnightblue" points="1349.16,-103.131 1354.24,-93.8283 1344.47,-97.9386 1349.16,-103.131"/>
</g>
<!-- Node20&#45;&gt;Node14 -->
<g id="edge24" class="edge"><title>Node20&#45;&gt;Node14</title>
<path fill="none" stroke="midnightblue" d="M1354.46,-74.3717C1342.83,-63.8564 1322.95,-45.8819 1308.53,-32.8496"/>
<polygon fill="midnightblue" stroke="midnightblue" points="1310.54,-29.9514 1300.78,-25.8411 1305.85,-35.1438 1310.54,-29.9514"/>
</g>
<!-- Node21 -->
<g id="node21" class="node"><title>Node21</title>
<polygon fill="none" stroke="#bfbfbf" points="1335,-6.5 1335,-25.5 1379,-25.5 1379,-6.5 1335,-6.5"/>
<text text-anchor="middle" x="1357" y="-13.5" font-family="Helvetica,sans-Serif" font-size="10.00">cmath</text>
</g>
<!-- Node20&#45;&gt;Node21 -->
<g id="edge25" class="edge"><title>Node20&#45;&gt;Node21</title>
<path fill="none" stroke="midnightblue" d="M1363.08,-74.3717C1362.05,-64.6426 1360.34,-48.528 1359,-35.8504"/>
<polygon fill="midnightblue" stroke="midnightblue" points="1362.47,-35.4162 1357.94,-25.8411 1355.51,-36.1545 1362.47,-35.4162"/>
</g>
<!-- Node22 -->
<g id="node22" class="node"><title>Node22</title>
<g id="a_node22"><a xlink:href="../../d6/d84/MathConstants_8h.html" target="_top" xlink:title="useful math constants ">
<polygon fill="none" stroke="black" points="1397.5,-6.5 1397.5,-25.5 1576.5,-25.5 1576.5,-6.5 1397.5,-6.5"/>
<text text-anchor="middle" x="1487" y="-13.5" font-family="Helvetica,sans-Serif" font-size="10.00">CommonConstants/MathConstants.h</text>
</a>
</g>
</g>
<!-- Node20&#45;&gt;Node22 -->
<g id="edge26" class="edge"><title>Node20&#45;&gt;Node22</title>
<path fill="none" stroke="midnightblue" d="M1380.08,-74.3717C1400.89,-63.2051 1437.38,-43.6266 1461.86,-30.4876"/>
<polygon fill="midnightblue" stroke="midnightblue" points="1463.76,-33.4428 1470.92,-25.6305 1460.45,-27.2746 1463.76,-33.4428"/>
</g>
<!-- Node23&#45;&gt;Node5 -->
<g id="edge33" class="edge"><title>Node23&#45;&gt;Node5</title>
<path fill="none" stroke="midnightblue" d="M1045.66,-144.897C1140.24,-135.615 1325.1,-117.21 1482,-100 1512.2,-96.6872 1546.38,-92.6685 1571.81,-89.6248"/>
<polygon fill="midnightblue" stroke="midnightblue" points="1572.28,-93.0934 1581.8,-88.4266 1571.45,-86.1433 1572.28,-93.0934"/>
</g>
<!-- Node23&#45;&gt;Node12 -->
<g id="edge35" class="edge"><title>Node23&#45;&gt;Node12</title>
<path fill="none" stroke="midnightblue" d="M947.67,-142.439C936.056,-139.948 923.037,-137.496 911,-136 721.623,-112.461 238.075,-146.528 53,-100 50.6516,-99.4096 48.2704,-98.6306 45.9255,-97.7374"/>
<polygon fill="midnightblue" stroke="midnightblue" points="47.2271,-94.4857 36.6682,-93.6139 44.3788,-100.88 47.2271,-94.4857"/>
</g>
<!-- Node24 -->
<g id="node24" class="node"><title>Node24</title>
<polygon fill="none" stroke="#bfbfbf" points="62.5,-69 62.5,-99 213.5,-99 213.5,-69 62.5,-69"/>
<text text-anchor="start" x="70.5" y="-87" font-family="Helvetica,sans-Serif" font-size="10.00">Math/GenVector/Displacement</text>
<text text-anchor="middle" x="138" y="-76" font-family="Helvetica,sans-Serif" font-size="10.00">Vector3D.h</text>
</g>
<!-- Node23&#45;&gt;Node24 -->
<g id="edge28" class="edge"><title>Node23&#45;&gt;Node24</title>
<path fill="none" stroke="midnightblue" d="M947.293,-142.435C935.772,-139.974 922.903,-137.542 911,-136 610.604,-97.0824 528.974,-133.863 223.949,-100.003"/>
<polygon fill="midnightblue" stroke="midnightblue" points="224.262,-96.5159 213.933,-98.8744 223.478,-103.472 224.262,-96.5159"/>
</g>
<!-- Node25 -->
<g id="node25" class="node"><title>Node25</title>
<polygon fill="none" stroke="#bfbfbf" points="232,-74.5 232,-93.5 408,-93.5 408,-74.5 232,-74.5"/>
<text text-anchor="middle" x="320" y="-81.5" font-family="Helvetica,sans-Serif" font-size="10.00">Math/GenVector/PositionVector3D.h</text>
</g>
<!-- Node23&#45;&gt;Node25 -->
<g id="edge29" class="edge"><title>Node23&#45;&gt;Node25</title>
<path fill="none" stroke="midnightblue" d="M946.536,-142.423C935.204,-140.023 922.634,-137.628 911,-136 692.546,-105.438 635.154,-125.048 416,-100 404.216,-98.6532 391.663,-96.9146 379.652,-95.1011"/>
<polygon fill="midnightblue" stroke="midnightblue" points="380.137,-91.6346 369.72,-93.5671 379.069,-98.5525 380.137,-91.6346"/>
</g>
<!-- Node26 -->
<g id="node26" class="node"><title>Node26</title>
<polygon fill="none" stroke="#bfbfbf" points="425.5,-74.5 425.5,-93.5 574.5,-93.5 574.5,-74.5 425.5,-74.5"/>
<text text-anchor="middle" x="500" y="-81.5" font-family="Helvetica,sans-Serif" font-size="10.00">Math/GenVector/Rotation3D.h</text>
</g>
<!-- Node23&#45;&gt;Node26 -->
<g id="edge30" class="edge"><title>Node23&#45;&gt;Node26</title>
<path fill="none" stroke="midnightblue" d="M945.384,-142.454C934.345,-140.139 922.223,-137.783 911,-136 766.599,-113.064 728.715,-120.863 584,-100 574.532,-98.6351 564.497,-97.0044 554.782,-95.3289"/>
<polygon fill="midnightblue" stroke="midnightblue" points="555.267,-91.8605 544.812,-93.5759 554.054,-98.7548 555.267,-91.8605"/>
</g>
<!-- Node27 -->
<g id="node27" class="node"><title>Node27</title>
<polygon fill="none" stroke="#bfbfbf" points="593,-74.5 593,-93.5 749,-93.5 749,-74.5 593,-74.5"/>
<text text-anchor="middle" x="671" y="-81.5" font-family="Helvetica,sans-Serif" font-size="10.00">Math/GenVector/Transform3D.h</text>
</g>
<!-- Node23&#45;&gt;Node27 -->
<g id="edge31" class="edge"><title>Node23&#45;&gt;Node27</title>
<path fill="none" stroke="midnightblue" d="M942.531,-142.439C885.835,-130.446 782.821,-108.654 721.275,-95.6351"/>
<polygon fill="midnightblue" stroke="midnightblue" points="721.905,-92.191 711.397,-93.5455 720.456,-99.0394 721.905,-92.191"/>
</g>
<!-- Node28 -->
<g id="node28" class="node"><title>Node28</title>
<polygon fill="none" stroke="#bfbfbf" points="767,-74.5 767,-93.5 927,-93.5 927,-74.5 767,-74.5"/>
<text text-anchor="middle" x="847" y="-81.5" font-family="Helvetica,sans-Serif" font-size="10.00">Math/GenVector/Translation3D.h</text>
</g>
<!-- Node23&#45;&gt;Node28 -->
<g id="edge32" class="edge"><title>Node23&#45;&gt;Node28</title>
<path fill="none" stroke="midnightblue" d="M965.22,-142.372C942.007,-131.106 901.151,-111.279 874.077,-98.1403"/>
<polygon fill="midnightblue" stroke="midnightblue" points="875.309,-94.8477 864.784,-93.6305 872.252,-101.145 875.309,-94.8477"/>
</g>
<!-- Node29 -->
<g id="node29" class="node"><title>Node29</title>
<polygon fill="none" stroke="#bfbfbf" points="945,-74.5 945,-93.5 1021,-93.5 1021,-74.5 945,-74.5"/>
<text text-anchor="middle" x="983" y="-81.5" font-family="Helvetica,sans-Serif" font-size="10.00">TGeoMatrix.h</text>
</g>
<!-- Node23&#45;&gt;Node29 -->
<g id="edge34" class="edge"><title>Node23&#45;&gt;Node29</title>
<path fill="none" stroke="midnightblue" d="M983,-142.372C983,-132.643 983,-116.528 983,-103.85"/>
<polygon fill="midnightblue" stroke="midnightblue" points="986.5,-103.841 983,-93.8411 979.5,-103.841 986.5,-103.841"/>
</g>
<!-- Node30 -->
<g id="node30" class="node"><title>Node30</title>
<g id="a_node30"><a xlink:href="../../d2/dd0/Cartesian2D_8h.html" target="_top" xlink:title="MathUtils/Cartesian2D.h">
<polygon fill="none" stroke="black" points="1039.5,-74.5 1039.5,-93.5 1164.5,-93.5 1164.5,-74.5 1039.5,-74.5"/>
<text text-anchor="middle" x="1102" y="-81.5" font-family="Helvetica,sans-Serif" font-size="10.00">MathUtils/Cartesian2D.h</text>
</a>
</g>
</g>
<!-- Node23&#45;&gt;Node30 -->
<g id="edge36" class="edge"><title>Node23&#45;&gt;Node30</title>
<path fill="none" stroke="midnightblue" d="M998.557,-142.372C1018.69,-131.205 1053.99,-111.627 1077.68,-98.4876"/>
<polygon fill="midnightblue" stroke="midnightblue" points="1079.39,-101.541 1086.44,-93.6305 1076,-95.4199 1079.39,-101.541"/>
</g>
<!-- Node31 -->
<g id="node31" class="node"><title>Node31</title>
<polygon fill="none" stroke="#bfbfbf" points="876.5,-1 876.5,-31 1027.5,-31 1027.5,-1 876.5,-1"/>
<text text-anchor="start" x="884.5" y="-19" font-family="Helvetica,sans-Serif" font-size="10.00">Math/GenVector/Displacement</text>
<text text-anchor="middle" x="952" y="-8" font-family="Helvetica,sans-Serif" font-size="10.00">Vector2D.h</text>
</g>
<!-- Node30&#45;&gt;Node31 -->
<g id="edge37" class="edge"><title>Node30&#45;&gt;Node31</title>
<path fill="none" stroke="midnightblue" d="M1082.39,-74.3717C1059.92,-64.4829 1022.45,-47.9973 993.429,-35.2289"/>
<polygon fill="midnightblue" stroke="midnightblue" points="994.509,-31.8801 983.946,-31.0562 991.69,-38.2873 994.509,-31.8801"/>
</g>
<!-- Node32 -->
<g id="node32" class="node"><title>Node32</title>
<polygon fill="none" stroke="#bfbfbf" points="1046,-6.5 1046,-25.5 1222,-25.5 1222,-6.5 1046,-6.5"/>
<text text-anchor="middle" x="1134" y="-13.5" font-family="Helvetica,sans-Serif" font-size="10.00">Math/GenVector/PositionVector2D.h</text>
</g>
<!-- Node30&#45;&gt;Node32 -->
<g id="edge38" class="edge"><title>Node30&#45;&gt;Node32</title>
<path fill="none" stroke="midnightblue" d="M1106.18,-74.3717C1111,-64.4461 1119.03,-47.8743 1125.23,-35.0864"/>
<polygon fill="midnightblue" stroke="midnightblue" points="1128.5,-36.3662 1129.71,-25.8411 1122.2,-33.3123 1128.5,-36.3662"/>
</g>
<!-- Node33&#45;&gt;Node5 -->
<g id="edge58" class="edge"><title>Node33&#45;&gt;Node5</title>
<path fill="none" stroke="midnightblue" d="M1632.68,-402.552C1691.74,-390.926 1780.2,-364.118 1829,-304 1867.79,-256.222 1849.2,-229.265 1855,-168 1856.34,-153.841 1864,-147.008 1855,-136 1803.9,-73.5261 1755.94,-116.818 1677,-100 1667.58,-97.9937 1657.44,-95.7599 1647.96,-93.6421"/>
<polygon fill="midnightblue" stroke="midnightblue" points="1648.53,-90.183 1638.01,-91.4058 1647,-97.0127 1648.53,-90.183"/>
</g>
<!-- Node33&#45;&gt;Node6 -->
<g id="edge48" class="edge"><title>Node33&#45;&gt;Node6</title>
<path fill="none" stroke="midnightblue" d="M1513.23,-399.431C1456.42,-388.435 1371.74,-372.046 1316.94,-361.439"/>
<polygon fill="midnightblue" stroke="midnightblue" points="1317.55,-357.993 1307.07,-359.529 1316.22,-364.865 1317.55,-357.993"/>
</g>
<!-- Node33&#45;&gt;Node15 -->
<g id="edge43" class="edge"><title>Node33&#45;&gt;Node15</title>
<path fill="none" stroke="midnightblue" d="M1577.03,-396.763C1580.46,-382.164 1583.98,-358.973 1578,-340 1555.12,-267.473 1492.96,-198.625 1463.24,-168.677"/>
<polygon fill="midnightblue" stroke="midnightblue" points="1465.67,-166.157 1456.11,-161.606 1460.75,-171.13 1465.67,-166.157"/>
</g>
<!-- Node34 -->
<g id="node34" class="node"><title>Node34</title>
<polygon fill="none" stroke="#bfbfbf" points="1529,-340.5 1529,-359.5 1569,-359.5 1569,-340.5 1529,-340.5"/>
<text text-anchor="middle" x="1549" y="-347.5" font-family="Helvetica,sans-Serif" font-size="10.00">utility</text>
</g>
<!-- Node33&#45;&gt;Node34 -->
<g id="edge42" class="edge"><title>Node33&#45;&gt;Node34</title>
<path fill="none" stroke="midnightblue" d="M1567.31,-396.781C1564,-388.512 1559.8,-378.006 1556.26,-369.145"/>
<polygon fill="midnightblue" stroke="midnightblue" points="1559.46,-367.715 1552.49,-359.731 1552.96,-370.315 1559.46,-367.715"/>
</g>
<!-- Node35 -->
<g id="node35" class="node"><title>Node35</title>
<g id="a_node35"><a xlink:href="../../d0/d2d/common_2base_2include_2ITSMFTBase_2GeometryTGeo_8h.html" target="_top" xlink:title="ITSMFTBase/GeometryTGeo.h">
<polygon fill="none" stroke="black" points="1357.5,-340.5 1357.5,-359.5 1510.5,-359.5 1510.5,-340.5 1357.5,-340.5"/>
<text text-anchor="middle" x="1434" y="-347.5" font-family="Helvetica,sans-Serif" font-size="10.00">ITSMFTBase/GeometryTGeo.h</text>
</a>
</g>
</g>
<!-- Node33&#45;&gt;Node35 -->
<g id="edge44" class="edge"><title>Node33&#45;&gt;Node35</title>
<path fill="none" stroke="midnightblue" d="M1540.41,-396.933C1517.06,-386.855 1485.89,-373.399 1463.32,-363.657"/>
<polygon fill="midnightblue" stroke="midnightblue" points="1464.49,-360.35 1453.92,-359.6 1461.72,-366.777 1464.49,-360.35"/>
</g>
<!-- Node38 -->
<g id="node38" class="node"><title>Node38</title>
<g id="a_node38"><a xlink:href="../../df/d2e/PixelReader_8h.html" target="_top" xlink:title="Definition of the ITS pixel reader. ">
<polygon fill="none" stroke="black" points="1701.5,-273 1701.5,-303 1820.5,-303 1820.5,-273 1701.5,-273"/>
<text text-anchor="start" x="1709.5" y="-291" font-family="Helvetica,sans-Serif" font-size="10.00">ITSMFTReconstruction</text>
<text text-anchor="middle" x="1761" y="-280" font-family="Helvetica,sans-Serif" font-size="10.00">/PixelReader.h</text>
</a>
</g>
</g>
<!-- Node33&#45;&gt;Node38 -->
<g id="edge49" class="edge"><title>Node33&#45;&gt;Node38</title>
<path fill="none" stroke="midnightblue" d="M1594.93,-396.766C1628.47,-375.003 1692.59,-333.391 1730.6,-308.729"/>
<polygon fill="midnightblue" stroke="midnightblue" points="1732.72,-311.523 1739.21,-303.143 1728.91,-305.651 1732.72,-311.523"/>
</g>
<!-- Node35&#45;&gt;Node13 -->
<g id="edge47" class="edge"><title>Node35&#45;&gt;Node13</title>
<path fill="none" stroke="midnightblue" d="M1418.01,-340.344C1403.71,-332.135 1382.64,-318.871 1367,-304 1347.91,-285.845 1330.37,-261.294 1318.85,-243.61"/>
<polygon fill="midnightblue" stroke="midnightblue" points="1321.73,-241.611 1313.4,-235.058 1315.83,-245.372 1321.73,-241.611"/>
</g>
<!-- Node36 -->
<g id="node36" class="node"><title>Node36</title>
<polygon fill="none" stroke="#bfbfbf" points="1435.5,-278.5 1435.5,-297.5 1504.5,-297.5 1504.5,-278.5 1435.5,-278.5"/>
<text text-anchor="middle" x="1470" y="-285.5" font-family="Helvetica,sans-Serif" font-size="10.00">TObjArray.h</text>
</g>
<!-- Node35&#45;&gt;Node36 -->
<g id="edge45" class="edge"><title>Node35&#45;&gt;Node36</title>
<path fill="none" stroke="midnightblue" d="M1439.16,-340.403C1444.45,-331.582 1452.84,-317.608 1459.53,-306.455"/>
<polygon fill="midnightblue" stroke="midnightblue" points="1462.71,-307.956 1464.85,-297.581 1456.71,-304.355 1462.71,-307.956"/>
</g>
<!-- Node37 -->
<g id="node37" class="node"><title>Node37</title>
<polygon fill="none" stroke="#bfbfbf" points="1376.5,-278.5 1376.5,-297.5 1417.5,-297.5 1417.5,-278.5 1376.5,-278.5"/>
<text text-anchor="middle" x="1397" y="-285.5" font-family="Helvetica,sans-Serif" font-size="10.00">string</text>
</g>
<!-- Node35&#45;&gt;Node37 -->
<g id="edge46" class="edge"><title>Node35&#45;&gt;Node37</title>
<path fill="none" stroke="midnightblue" d="M1428.7,-340.403C1423.2,-331.493 1414.47,-317.325 1407.56,-306.118"/>
<polygon fill="midnightblue" stroke="midnightblue" points="1410.52,-304.255 1402.29,-297.581 1404.56,-307.929 1410.52,-304.255"/>
</g>
<!-- Node38&#45;&gt;Node5 -->
<g id="edge50" class="edge"><title>Node38&#45;&gt;Node5</title>
<path fill="none" stroke="midnightblue" d="M1777.82,-272.959C1809.47,-244.859 1871.64,-180.582 1836,-136 1835.81,-135.768 1712.24,-107.972 1647.92,-93.5191"/>
<polygon fill="midnightblue" stroke="midnightblue" points="1648.66,-90.0979 1638.14,-91.3203 1647.13,-96.9276 1648.66,-90.0979"/>
</g>
<!-- Node39 -->
<g id="node39" class="node"><title>Node39</title>
<g id="a_node39"><a xlink:href="../../d0/d06/ITSMFT_2common_2base_2include_2ITSMFTBase_2Digit_8h.html" target="_top" xlink:title="ITSMFTBase/Digit.h">
<polygon fill="none" stroke="black" points="1628.5,-210.5 1628.5,-229.5 1735.5,-229.5 1735.5,-210.5 1628.5,-210.5"/>
<text text-anchor="middle" x="1682" y="-217.5" font-family="Helvetica,sans-Serif" font-size="10.00">ITSMFTBase/Digit.h</text>
</a>
</g>
</g>
<!-- Node38&#45;&gt;Node39 -->
<g id="edge51" class="edge"><title>Node38&#45;&gt;Node39</title>
<path fill="none" stroke="midnightblue" d="M1743.86,-272.679C1731.05,-261.981 1713.57,-247.377 1700.46,-236.422"/>
<polygon fill="midnightblue" stroke="midnightblue" points="1702.49,-233.554 1692.57,-229.828 1698,-238.926 1702.49,-233.554"/>
</g>
<!-- Node38&#45;&gt;Node40 -->
<g id="edge57" class="edge"><title>Node38&#45;&gt;Node40</title>
<path fill="none" stroke="midnightblue" d="M1761.96,-272.66C1763.49,-249.891 1766.49,-205.203 1768.36,-177.349"/>
<polygon fill="midnightblue" stroke="midnightblue" points="1771.87,-177.449 1769.04,-167.237 1764.88,-176.98 1771.87,-177.449"/>
</g>
<!-- Node39&#45;&gt;Node5 -->
<g id="edge52" class="edge"><title>Node39&#45;&gt;Node5</title>
<path fill="none" stroke="midnightblue" d="M1646.6,-210.493C1600.25,-199.002 1523.93,-178.73 1516,-168 1507.55,-156.562 1508.73,-148.222 1516,-136 1528.21,-115.477 1551.89,-102.703 1572.42,-95.0711"/>
<polygon fill="midnightblue" stroke="midnightblue" points="1573.56,-98.3803 1581.88,-91.8218 1571.28,-91.7599 1573.56,-98.3803"/>
</g>
<!-- Node39&#45;&gt;Node40 -->
<g id="edge53" class="edge"><title>Node39&#45;&gt;Node40</title>
<path fill="none" stroke="midnightblue" d="M1693.5,-210.372C1705.96,-201.029 1726.27,-185.797 1742.83,-173.375"/>
<polygon fill="midnightblue" stroke="midnightblue" points="1745.19,-175.981 1751.09,-167.181 1740.99,-170.381 1745.19,-175.981"/>
</g>
<!-- Node41 -->
<g id="node41" class="node"><title>Node41</title>
<g id="a_node41"><a xlink:href="../../df/d5d/common_2include_2CommonDataFormat_2TimeStamp_8h.html" target="_top" xlink:title="CommonDataFormat/TimeStamp.h">
<polygon fill="none" stroke="black" points="1525,-142.5 1525,-161.5 1695,-161.5 1695,-142.5 1525,-142.5"/>
<text text-anchor="middle" x="1610" y="-149.5" font-family="Helvetica,sans-Serif" font-size="10.00">CommonDataFormat/TimeStamp.h</text>
</a>
</g>
</g>
<!-- Node39&#45;&gt;Node41 -->
<g id="edge55" class="edge"><title>Node39&#45;&gt;Node41</title>
<path fill="none" stroke="midnightblue" d="M1672.59,-210.372C1661.12,-199.856 1641.51,-181.882 1627.29,-168.85"/>
<polygon fill="midnightblue" stroke="midnightblue" points="1629.38,-166.018 1619.64,-161.841 1624.65,-171.178 1629.38,-166.018"/>
</g>
<!-- Node40&#45;&gt;Node5 -->
<g id="edge54" class="edge"><title>Node40&#45;&gt;Node5</title>
<path fill="none" stroke="midnightblue" d="M1735.68,-136.841C1707.38,-125.169 1667.62,-108.768 1640.44,-97.5585"/>
<polygon fill="midnightblue" stroke="midnightblue" points="1641.63,-94.2597 1631.05,-93.6819 1638.96,-100.731 1641.63,-94.2597"/>
</g>
<!-- Node41&#45;&gt;Node5 -->
<g id="edge56" class="edge"><title>Node41&#45;&gt;Node5</title>
<path fill="none" stroke="midnightblue" d="M1610,-142.372C1610,-132.643 1610,-116.528 1610,-103.85"/>
<polygon fill="midnightblue" stroke="midnightblue" points="1613.5,-103.841 1610,-93.8411 1606.5,-103.841 1613.5,-103.841"/>
</g>
<!-- Node42&#45;&gt;Node17 -->
<g id="edge62" class="edge"><title>Node42&#45;&gt;Node17</title>
<path fill="none" stroke="midnightblue" d="M1958.99,-138.663C1896.4,-125.12 1797.91,-103.807 1745.88,-92.5488"/>
<polygon fill="midnightblue" stroke="midnightblue" points="1746.33,-89.0651 1735.82,-90.3709 1744.85,-95.9068 1746.33,-89.0651"/>
</g>
<!-- Node42&#45;&gt;Node19 -->
<g id="edge65" class="edge"><title>Node42&#45;&gt;Node19</title>
<path fill="none" stroke="midnightblue" d="M1978.89,-136.841C1948.02,-125.067 1904.55,-108.48 1875.15,-97.2647"/>
<polygon fill="midnightblue" stroke="midnightblue" points="1876.35,-93.9763 1865.76,-93.6819 1873.85,-100.517 1876.35,-93.9763"/>
</g>
<!-- Node43 -->
<g id="node43" class="node"><title>Node43</title>
<polygon fill="none" stroke="#bfbfbf" points="1985,-74.5 1985,-93.5 2047,-93.5 2047,-74.5 1985,-74.5"/>
<text text-anchor="middle" x="2016" y="-81.5" font-family="Helvetica,sans-Serif" font-size="10.00">TNamed.h</text>
</g>
<!-- Node42&#45;&gt;Node43 -->
<g id="edge61" class="edge"><title>Node42&#45;&gt;Node43</title>
<path fill="none" stroke="midnightblue" d="M2016,-136.679C2016,-127.101 2016,-114.394 2016,-103.977"/>
<polygon fill="midnightblue" stroke="midnightblue" points="2019.5,-103.828 2016,-93.8283 2012.5,-103.828 2019.5,-103.828"/>
</g>
<!-- Node44 -->
<g id="node44" class="node"><title>Node44</title>
<polygon fill="none" stroke="#bfbfbf" points="2065.5,-74.5 2065.5,-93.5 2124.5,-93.5 2124.5,-74.5 2065.5,-74.5"/>
<text text-anchor="middle" x="2095" y="-81.5" font-family="Helvetica,sans-Serif" font-size="10.00">stdexcept</text>
</g>
<!-- Node42&#45;&gt;Node44 -->
<g id="edge63" class="edge"><title>Node42&#45;&gt;Node44</title>
<path fill="none" stroke="midnightblue" d="M2033.14,-136.679C2045.95,-125.981 2063.43,-111.377 2076.54,-100.422"/>
<polygon fill="midnightblue" stroke="midnightblue" points="2079,-102.926 2084.43,-93.8283 2074.51,-97.5537 2079,-102.926"/>
</g>
<!-- Node45 -->
<g id="node45" class="node"><title>Node45</title>
<polygon fill="none" stroke="#bfbfbf" points="1921.5,-74.5 1921.5,-93.5 1966.5,-93.5 1966.5,-74.5 1921.5,-74.5"/>
<text text-anchor="middle" x="1944" y="-81.5" font-family="Helvetica,sans-Serif" font-size="10.00">gsl/gsl</text>
</g>
<!-- Node42&#45;&gt;Node45 -->
<g id="edge64" class="edge"><title>Node42&#45;&gt;Node45</title>
<path fill="none" stroke="midnightblue" d="M2000.38,-136.679C1988.82,-126.082 1973.08,-111.655 1961.17,-100.736"/>
<polygon fill="midnightblue" stroke="midnightblue" points="1963.37,-98.0055 1953.63,-93.8283 1958.64,-103.166 1963.37,-98.0055"/>
</g>
</g>
</svg>
        <g id="navigator" transform="translate(0 0)" fill="#404254">
                <rect fill="#f2f5e9" fill-opacity="0.5" stroke="#606060" stroke-width=".5" x="0" y="0" width="60" height="60"/>
                <use id="zoomplus" xlink:href="#zoomPlus" x="17" y="9" onmousedown="handleZoom(evt,'in')"/>
                <use id="zoomminus" xlink:href="#zoomMin" x="42" y="9" onmousedown="handleZoom(evt,'out')"/>
                <use id="reset" xlink:href="#resetDef" x="30" y="36" onmousedown="handleReset()"/>
                <g id="arrowUp" xlink:href="#dirArrow" transform="translate(30 24)" onmousedown="handlePan(0,-1)">
                  <use xlink:href="#rim" fill="#404040">
                        <set attributeName="fill" to="#808080" begin="arrowUp.mouseover" end="arrowUp.mouseout"/>
                  </use>
                  <path fill="none" stroke="white" stroke-width="1.5" d="M0,-3.0v7 M-2.5,-0.5L0,-3.0L2.5,-0.5"/>
                </g>
                <g id="arrowRight" xlink:href="#dirArrow" transform="rotate(90) translate(36 -43)" onmousedown="handlePan(1,0)">
                  <use xlink:href="#rim" fill="#404040">
                        <set attributeName="fill" to="#808080" begin="arrowRight.mouseover" end="arrowRight.mouseout"/>
                  </use>
                  <path fill="none" stroke="white" stroke-width="1.5" d="M0,-3.0v7 M-2.5,-0.5L0,-3.0L2.5,-0.5"/>
                </g>
                <g id="arrowDown" xlink:href="#dirArrow" transform="rotate(180) translate(-30 -48)" onmousedown="handlePan(0,1)">
                  <use xlink:href="#rim" fill="#404040">
                        <set attributeName="fill" to="#808080" begin="arrowDown.mouseover" end="arrowDown.mouseout"/>
                  </use>
                  <path fill="none" stroke="white" stroke-width="1.5" d="M0,-3.0v7 M-2.5,-0.5L0,-3.0L2.5,-0.5"/>
                </g>
                <g id="arrowLeft" xlink:href="#dirArrow" transform="rotate(270) translate(-36 17)" onmousedown="handlePan(-1,0)">
                  <use xlink:href="#rim" fill="#404040">
                        <set attributeName="fill" to="#808080" begin="arrowLeft.mouseover" end="arrowLeft.mouseout"/>
                  </use>
                  <path fill="none" stroke="white" stroke-width="1.5" d="M0,-3.0v7 M-2.5,-0.5L0,-3.0L2.5,-0.5"/>
                </g>
        </g>
        <svg viewBox="0 0 15 15" width="100%" height="30px" preserveAspectRatio="xMaxYMin meet">
         <g id="arrow_out" transform="scale(0.3 0.3)">
          <a xlink:href="Clusterer_8cxx__incl_org.svg" target="_base">
           <rect id="button" ry="5" rx="5" y="6" x="6" height="38" width="38"
                fill="#f2f5e9" fill-opacity="0.5" stroke="#606060" stroke-width="1.0"/>
           <path id="arrow"
             d="M 11.500037,31.436501 C 11.940474,20.09759 22.043105,11.32322 32.158766,21.979434 L 37.068811,17.246167 C 37.068811,17.246167 37.088388,32 37.088388,32 L 22.160133,31.978069 C 22.160133,31.978069 26.997745,27.140456 26.997745,27.140456 C 18.528582,18.264221 13.291696,25.230495 11.500037,31.436501 z"
             style="fill:#404040;"/>
          </a>
         </g>
        </svg>
</svg>
