<?xml version="1.0" encoding="UTF-8" standalone="no"?>
<!DOCTYPE svg PUBLIC "-//W3C//DTD SVG 1.1//EN"
 "http://www.w3.org/Graphics/SVG/1.1/DTD/svg11.dtd">
<!-- Generated by graphviz version 2.36.0 (20140111.2315)
 -->
<!-- Title: /home/travis/build/AliceO2Group/AliceO2/Utilities/DataFlow/src/EPNReceiverDevice.cxx Pages: 1 -->
<svg width="1137pt" height="286pt"
 viewBox="0.00 0.00 1137.00 286.00" xmlns="http://www.w3.org/2000/svg" xmlns:xlink="http://www.w3.org/1999/xlink">
<g id="graph0" class="graph" transform="scale(1 1) rotate(0) translate(4 282)">
<title>/home/travis/build/AliceO2Group/AliceO2/Utilities/DataFlow/src/EPNReceiverDevice.cxx</title>
<!-- Node1 -->
<g id="node1" class="node"><title>Node1</title>
<polygon fill="#bfbfbf" stroke="black" points="418.5,-225 418.5,-277 547.5,-277 547.5,-225 418.5,-225"/>
<text text-anchor="start" x="426.5" y="-265" font-family="Helvetica,sans-Serif" font-size="10.00">/home/travis/build</text>
<text text-anchor="start" x="426.5" y="-254" font-family="Helvetica,sans-Serif" font-size="10.00">/AliceO2Group/AliceO2</text>
<text text-anchor="start" x="426.5" y="-243" font-family="Helvetica,sans-Serif" font-size="10.00">/Utilities/DataFlow/src</text>
<text text-anchor="middle" x="483" y="-232" font-family="Helvetica,sans-Serif" font-size="10.00">/EPNReceiverDevice.cxx</text>
</g>
<!-- Node2 -->
<g id="node2" class="node"><title>Node2</title>
<polygon fill="none" stroke="#bfbfbf" points="-0.5,-168.5 -0.5,-187.5 48.5,-187.5 48.5,-168.5 -0.5,-168.5"/>
<text text-anchor="middle" x="24" y="-175.5" font-family="Helvetica,sans-Serif" font-size="10.00">cstddef</text>
</g>
<!-- Node1&#45;&gt;Node2 -->
<g id="edge1" class="edge"><title>Node1&#45;&gt;Node2</title>
<path fill="none" stroke="midnightblue" d="M418.161,-242.871C336.515,-233.374 191.843,-214.829 58.7726,-187.949"/>
<polygon fill="midnightblue" stroke="midnightblue" points="59.3031,-184.485 48.8053,-185.915 57.9037,-191.344 59.3031,-184.485"/>
</g>
<!-- Node3 -->
<g id="node3" class="node"><title>Node3</title>
<polygon fill="none" stroke="#bfbfbf" points="67,-168.5 67,-187.5 117,-187.5 117,-168.5 67,-168.5"/>
<text text-anchor="middle" x="92" y="-175.5" font-family="Helvetica,sans-Serif" font-size="10.00">fstream</text>
</g>
<!-- Node1&#45;&gt;Node3 -->
<g id="edge2" class="edge"><title>Node1&#45;&gt;Node3</title>
<path fill="none" stroke="midnightblue" d="M418.254,-239.642C347.493,-228.078 230.877,-208.306 131,-188 129.736,-187.743 128.45,-187.476 127.153,-187.202"/>
<polygon fill="midnightblue" stroke="midnightblue" points="127.651,-183.728 117.133,-185.004 126.151,-190.565 127.651,-183.728"/>
</g>
<!-- Node4 -->
<g id="node4" class="node"><title>Node4</title>
<polygon fill="none" stroke="#bfbfbf" points="200,-0.5 200,-19.5 246,-19.5 246,-0.5 200,-0.5"/>
<text text-anchor="middle" x="223" y="-7.5" font-family="Helvetica,sans-Serif" font-size="10.00">cstring</text>
</g>
<!-- Node1&#45;&gt;Node4 -->
<g id="edge3" class="edge"><title>Node1&#45;&gt;Node4</title>
<path fill="none" stroke="midnightblue" d="M418.459,-246.392C364.562,-240.65 287.8,-225.877 232,-188 206.693,-170.822 201.334,-161.127 192,-132 180.361,-95.6802 199.346,-52.1545 212.37,-28.4663"/>
<polygon fill="midnightblue" stroke="midnightblue" points="215.515,-30.0186 217.48,-19.6076 209.452,-26.5208 215.515,-30.0186"/>
</g>
<!-- Node5 -->
<g id="node5" class="node"><title>Node5</title>
<polygon fill="none" stroke="#bfbfbf" points="646,-168.5 646,-187.5 696,-187.5 696,-168.5 646,-168.5"/>
<text text-anchor="middle" x="671" y="-175.5" font-family="Helvetica,sans-Serif" font-size="10.00">iomanip</text>
</g>
<!-- Node1&#45;&gt;Node5 -->
<g id="edge4" class="edge"><title>Node1&#45;&gt;Node5</title>
<path fill="none" stroke="midnightblue" d="M547.699,-225.566C578.319,-214.002 613.547,-200.698 638.487,-191.279"/>
<polygon fill="midnightblue" stroke="midnightblue" points="640.052,-194.429 648.171,-187.622 637.579,-187.881 640.052,-194.429"/>
</g>
<!-- Node6 -->
<g id="node6" class="node"><title>Node6</title>
<polygon fill="none" stroke="#bfbfbf" points="714,-168.5 714,-187.5 800,-187.5 800,-168.5 714,-168.5"/>
<text text-anchor="middle" x="757" y="-175.5" font-family="Helvetica,sans-Serif" font-size="10.00">FairMQLogger.h</text>
</g>
<!-- Node1&#45;&gt;Node6 -->
<g id="edge5" class="edge"><title>Node1&#45;&gt;Node6</title>
<path fill="none" stroke="midnightblue" d="M547.587,-233.264C598.961,-219.952 669.399,-201.7 714.058,-190.127"/>
<polygon fill="midnightblue" stroke="midnightblue" points="715.201,-193.447 724.003,-187.55 713.445,-186.671 715.201,-193.447"/>
</g>
<!-- Node7 -->
<g id="node7" class="node"><title>Node7</title>
<polygon fill="none" stroke="#bfbfbf" points="818,-168.5 818,-187.5 964,-187.5 964,-168.5 818,-168.5"/>
<text text-anchor="middle" x="891" y="-175.5" font-family="Helvetica,sans-Serif" font-size="10.00">options/FairMQProgOptions.h</text>
</g>
<!-- Node1&#45;&gt;Node7 -->
<g id="edge6" class="edge"><title>Node1&#45;&gt;Node7</title>
<path fill="none" stroke="midnightblue" d="M547.649,-238.75C625.764,-225.156 756.098,-202.476 831.723,-189.315"/>
<polygon fill="midnightblue" stroke="midnightblue" points="832.768,-192.686 842.02,-187.523 831.568,-185.79 832.768,-192.686"/>
</g>
<!-- Node8 -->
<g id="node8" class="node"><title>Node8</title>
<g id="a_node8"><a xlink:href="../../d2/d37/EPNReceiverDevice_8h.html" target="_top" xlink:title="DataFlow/EPNReceiverDevice.h">
<polygon fill="none" stroke="black" points="321.5,-168.5 321.5,-187.5 482.5,-187.5 482.5,-168.5 321.5,-168.5"/>
<text text-anchor="middle" x="402" y="-175.5" font-family="Helvetica,sans-Serif" font-size="10.00">DataFlow/EPNReceiverDevice.h</text>
</a>
</g>
</g>
<!-- Node1&#45;&gt;Node8 -->
<g id="edge7" class="edge"><title>Node1&#45;&gt;Node8</title>
<path fill="none" stroke="midnightblue" d="M454.214,-224.768C442.704,-214.679 429.813,-203.379 419.719,-194.532"/>
<polygon fill="midnightblue" stroke="midnightblue" points="421.818,-191.717 411.991,-187.757 417.204,-196.981 421.818,-191.717"/>
</g>
<!-- Node14 -->
<g id="node14" class="node"><title>Node14</title>
<g id="a_node14"><a xlink:href="../../dc/dcd/DataHeader_8h.html" target="_top" xlink:title="Headers/DataHeader.h">
<polygon fill="none" stroke="black" points="334.5,-56.5 334.5,-75.5 451.5,-75.5 451.5,-56.5 334.5,-56.5"/>
<text text-anchor="middle" x="393" y="-63.5" font-family="Helvetica,sans-Serif" font-size="10.00">Headers/DataHeader.h</text>
</a>
</g>
</g>
<!-- Node1&#45;&gt;Node14 -->
<g id="edge13" class="edge"><title>Node1&#45;&gt;Node14</title>
<path fill="none" stroke="midnightblue" d="M418.402,-243.992C350.546,-233.768 247.491,-206.205 202,-132 172.093,-83.2154 258.135,-70.2242 324.322,-67.2101"/>
<polygon fill="midnightblue" stroke="midnightblue" points="324.483,-70.7066 334.339,-66.8213 324.211,-63.7118 324.483,-70.7066"/>
</g>
<!-- Node19 -->
<g id="node19" class="node"><title>Node19</title>
<g id="a_node19"><a xlink:href="../../d2/d1b/SubframeMetadata_8h.html" target="_top" xlink:title="Headers/SubframeMetadata.h">
<polygon fill="none" stroke="black" points="982.5,-168.5 982.5,-187.5 1129.5,-187.5 1129.5,-168.5 982.5,-168.5"/>
<text text-anchor="middle" x="1056" y="-175.5" font-family="Helvetica,sans-Serif" font-size="10.00">Headers/SubframeMetadata.h</text>
</a>
</g>
</g>
<!-- Node1&#45;&gt;Node19 -->
<g id="edge19" class="edge"><title>Node1&#45;&gt;Node19</title>
<path fill="none" stroke="midnightblue" d="M547.617,-241.993C653.305,-228.898 862.792,-202.94 977.093,-188.777"/>
<polygon fill="midnightblue" stroke="midnightblue" points="977.683,-192.231 987.177,-187.528 976.822,-185.284 977.683,-192.231"/>
</g>
<!-- Node21 -->
<g id="node21" class="node"><title>Node21</title>
<g id="a_node21"><a xlink:href="../../de/dfa/TimeFrame_8h.html" target="_top" xlink:title="TimeFrame/TimeFrame.h">
<polygon fill="none" stroke="black" points="500.5,-168.5 500.5,-187.5 627.5,-187.5 627.5,-168.5 500.5,-168.5"/>
<text text-anchor="middle" x="564" y="-175.5" font-family="Helvetica,sans-Serif" font-size="10.00">TimeFrame/TimeFrame.h</text>
</a>
</g>
</g>
<!-- Node1&#45;&gt;Node21 -->
<g id="edge21" class="edge"><title>Node1&#45;&gt;Node21</title>
<path fill="none" stroke="midnightblue" d="M511.786,-224.768C523.296,-214.679 536.187,-203.379 546.281,-194.532"/>
<polygon fill="midnightblue" stroke="midnightblue" points="548.796,-196.981 554.009,-187.757 544.182,-191.717 548.796,-196.981"/>
</g>
<!-- Node9 -->
<g id="node9" class="node"><title>Node9</title>
<polygon fill="none" stroke="#bfbfbf" points="553.5,-112.5 553.5,-131.5 594.5,-131.5 594.5,-112.5 553.5,-112.5"/>
<text text-anchor="middle" x="574" y="-119.5" font-family="Helvetica,sans-Serif" font-size="10.00">string</text>
</g>
<!-- Node8&#45;&gt;Node9 -->
<g id="edge8" class="edge"><title>Node8&#45;&gt;Node9</title>
<path fill="none" stroke="midnightblue" d="M429.254,-168.444C460.367,-158.676 511.129,-142.738 543.527,-132.567"/>
<polygon fill="midnightblue" stroke="midnightblue" points="544.859,-135.817 553.352,-129.483 542.762,-129.139 544.859,-135.817"/>
</g>
<!-- Node10 -->
<g id="node10" class="node"><title>Node10</title>
<polygon fill="none" stroke="#bfbfbf" points="211.5,-112.5 211.5,-131.5 294.5,-131.5 294.5,-112.5 211.5,-112.5"/>
<text text-anchor="middle" x="253" y="-119.5" font-family="Helvetica,sans-Serif" font-size="10.00">unordered_map</text>
</g>
<!-- Node8&#45;&gt;Node10 -->
<g id="edge9" class="edge"><title>Node8&#45;&gt;Node10</title>
<path fill="none" stroke="midnightblue" d="M378.391,-168.444C353.542,-159.438 314.226,-145.189 286.246,-135.049"/>
<polygon fill="midnightblue" stroke="midnightblue" points="287.093,-131.633 276.499,-131.516 284.708,-138.214 287.093,-131.633"/>
</g>
<!-- Node11 -->
<g id="node11" class="node"><title>Node11</title>
<polygon fill="none" stroke="#bfbfbf" points="313,-112.5 313,-131.5 391,-131.5 391,-112.5 313,-112.5"/>
<text text-anchor="middle" x="352" y="-119.5" font-family="Helvetica,sans-Serif" font-size="10.00">unordered_set</text>
</g>
<!-- Node8&#45;&gt;Node11 -->
<g id="edge10" class="edge"><title>Node8&#45;&gt;Node11</title>
<path fill="none" stroke="midnightblue" d="M393.744,-168.083C386.535,-160.298 375.89,-148.801 367.154,-139.367"/>
<polygon fill="midnightblue" stroke="midnightblue" points="369.465,-136.711 360.103,-131.751 364.329,-141.467 369.465,-136.711"/>
</g>
<!-- Node12 -->
<g id="node12" class="node"><title>Node12</title>
<polygon fill="none" stroke="#bfbfbf" points="509,-56.5 509,-75.5 555,-75.5 555,-56.5 509,-56.5"/>
<text text-anchor="middle" x="532" y="-63.5" font-family="Helvetica,sans-Serif" font-size="10.00">chrono</text>
</g>
<!-- Node8&#45;&gt;Node12 -->
<g id="edge11" class="edge"><title>Node8&#45;&gt;Node12</title>
<path fill="none" stroke="midnightblue" d="M438.384,-168.491C460.132,-161.769 486.952,-150.379 505,-132 517.43,-119.341 524.446,-100.134 528.19,-85.8778"/>
<polygon fill="midnightblue" stroke="midnightblue" points="531.694,-86.2566 530.532,-75.7257 524.874,-84.6827 531.694,-86.2566"/>
</g>
<!-- Node13 -->
<g id="node13" class="node"><title>Node13</title>
<polygon fill="none" stroke="#bfbfbf" points="409,-112.5 409,-131.5 497,-131.5 497,-112.5 409,-112.5"/>
<text text-anchor="middle" x="453" y="-119.5" font-family="Helvetica,sans-Serif" font-size="10.00">FairMQDevice.h</text>
</g>
<!-- Node8&#45;&gt;Node13 -->
<g id="edge12" class="edge"><title>Node8&#45;&gt;Node13</title>
<path fill="none" stroke="midnightblue" d="M410.422,-168.083C417.848,-160.22 428.852,-148.569 437.812,-139.081"/>
<polygon fill="midnightblue" stroke="midnightblue" points="440.413,-141.424 444.735,-131.751 435.324,-136.618 440.413,-141.424"/>
</g>
<!-- Node14&#45;&gt;Node4 -->
<g id="edge17" class="edge"><title>Node14&#45;&gt;Node4</title>
<path fill="none" stroke="midnightblue" d="M366.063,-56.4435C336.241,-46.9707 288.154,-31.6961 256.071,-21.5048"/>
<polygon fill="midnightblue" stroke="midnightblue" points="256.85,-18.0801 246.26,-18.3884 254.731,-24.7516 256.85,-18.0801"/>
</g>
<!-- Node15 -->
<g id="node15" class="node"><title>Node15</title>
<polygon fill="none" stroke="#bfbfbf" points="303,-0.5 303,-19.5 349,-19.5 349,-0.5 303,-0.5"/>
<text text-anchor="middle" x="326" y="-7.5" font-family="Helvetica,sans-Serif" font-size="10.00">cstdint</text>
</g>
<!-- Node14&#45;&gt;Node15 -->
<g id="edge14" class="edge"><title>Node14&#45;&gt;Node15</title>
<path fill="none" stroke="midnightblue" d="M382.235,-56.324C372.234,-48.2631 357.113,-36.0765 345.07,-26.3695"/>
<polygon fill="midnightblue" stroke="midnightblue" points="346.943,-23.3841 336.961,-19.8339 342.55,-28.8343 346.943,-23.3841"/>
</g>
<!-- Node16 -->
<g id="node16" class="node"><title>Node16</title>
<polygon fill="none" stroke="#bfbfbf" points="367,-0.5 367,-19.5 419,-19.5 419,-0.5 367,-0.5"/>
<text text-anchor="middle" x="393" y="-7.5" font-family="Helvetica,sans-Serif" font-size="10.00">memory</text>
</g>
<!-- Node14&#45;&gt;Node16 -->
<g id="edge15" class="edge"><title>Node14&#45;&gt;Node16</title>
<path fill="none" stroke="midnightblue" d="M393,-56.083C393,-49.0059 393,-38.8611 393,-29.9865"/>
<polygon fill="midnightblue" stroke="midnightblue" points="396.5,-29.751 393,-19.7511 389.5,-29.7511 396.5,-29.751"/>
</g>
<!-- Node17 -->
<g id="node17" class="node"><title>Node17</title>
<polygon fill="none" stroke="#bfbfbf" points="578.5,-0.5 578.5,-19.5 627.5,-19.5 627.5,-0.5 578.5,-0.5"/>
<text text-anchor="middle" x="603" y="-7.5" font-family="Helvetica,sans-Serif" font-size="10.00">cassert</text>
</g>
<!-- Node14&#45;&gt;Node17 -->
<g id="edge16" class="edge"><title>Node14&#45;&gt;Node17</title>
<path fill="none" stroke="midnightblue" d="M426.275,-56.4435C465.132,-46.4518 529.091,-30.0051 568.476,-19.8775"/>
<polygon fill="midnightblue" stroke="midnightblue" points="569.597,-23.2032 578.411,-17.323 567.854,-16.4237 569.597,-23.2032"/>
</g>
<!-- Node18 -->
<g id="node18" class="node"><title>Node18</title>
<polygon fill="none" stroke="#bfbfbf" points="437,-0.5 437,-19.5 493,-19.5 493,-0.5 437,-0.5"/>
<text text-anchor="middle" x="465" y="-7.5" font-family="Helvetica,sans-Serif" font-size="10.00">algorithm</text>
</g>
<!-- Node14&#45;&gt;Node18 -->
<g id="edge18" class="edge"><title>Node14&#45;&gt;Node18</title>
<path fill="none" stroke="midnightblue" d="M404.568,-56.324C415.42,-48.1849 431.881,-35.8395 444.883,-26.0874"/>
<polygon fill="midnightblue" stroke="midnightblue" points="447.321,-28.6339 453.221,-19.8339 443.121,-23.0339 447.321,-28.6339"/>
</g>
<!-- Node20 -->
<g id="node20" class="node"><title>Node20</title>
<polygon fill="none" stroke="#bfbfbf" points="1034,-112.5 1034,-131.5 1078,-131.5 1078,-112.5 1034,-112.5"/>
<text text-anchor="middle" x="1056" y="-119.5" font-family="Helvetica,sans-Serif" font-size="10.00">vector</text>
</g>
<!-- Node19&#45;&gt;Node20 -->
<g id="edge20" class="edge"><title>Node19&#45;&gt;Node20</title>
<path fill="none" stroke="midnightblue" d="M1056,-168.083C1056,-161.006 1056,-150.861 1056,-141.986"/>
<polygon fill="midnightblue" stroke="midnightblue" points="1059.5,-141.751 1056,-131.751 1052.5,-141.751 1059.5,-141.751"/>
</g>
<!-- Node22 -->
<g id="node22" class="node"><title>Node22</title>
<polygon fill="none" stroke="#bfbfbf" points="746,-112.5 746,-131.5 826,-131.5 826,-112.5 746,-112.5"/>
<text text-anchor="middle" x="786" y="-119.5" font-family="Helvetica,sans-Serif" font-size="10.00">FairMQParts.h</text>
</g>
<!-- Node21&#45;&gt;Node22 -->
<g id="edge22" class="edge"><title>Node21&#45;&gt;Node22</title>
<path fill="none" stroke="midnightblue" d="M599.177,-168.444C637.579,-159.102 699.176,-144.119 741.055,-133.933"/>
<polygon fill="midnightblue" stroke="midnightblue" points="742.099,-137.281 750.988,-131.516 740.444,-130.479 742.099,-137.281"/>
</g>
<!-- Node23 -->
<g id="node23" class="node"><title>Node23</title>
<polygon fill="none" stroke="#bfbfbf" points="844.5,-112.5 844.5,-131.5 903.5,-131.5 903.5,-112.5 844.5,-112.5"/>
<text text-anchor="middle" x="874" y="-119.5" font-family="Helvetica,sans-Serif" font-size="10.00">TObject.h</text>
</g>
<!-- Node21&#45;&gt;Node23 -->
<g id="edge23" class="edge"><title>Node21&#45;&gt;Node23</title>
<path fill="none" stroke="midnightblue" d="M621.812,-168.467C674.552,-160.442 754.865,-147.618 834.075,-132.079"/>
<polygon fill="midnightblue" stroke="midnightblue" points="835.1,-135.445 844.231,-130.071 833.741,-128.578 835.1,-135.445"/>
</g>
<!-- Node24 -->
<g id="node24" class="node"><title>Node24</title>
<g id="a_node24"><a xlink:href="../../d6/d90/Headers_2include_2Headers_2TimeStamp_8h.html" target="_top" xlink:title="Headers/TimeStamp.h">
<polygon fill="none" stroke="black" points="612.5,-112.5 612.5,-131.5 727.5,-131.5 727.5,-112.5 612.5,-112.5"/>
<text text-anchor="middle" x="670" y="-119.5" font-family="Helvetica,sans-Serif" font-size="10.00">Headers/TimeStamp.h</text>
</a>
</g>
</g>
<!-- Node21&#45;&gt;Node24 -->
<g id="edge24" class="edge"><title>Node21&#45;&gt;Node24</title>
<path fill="none" stroke="midnightblue" d="M581.031,-168.324C598.03,-159.664 624.376,-146.242 643.993,-136.249"/>
<polygon fill="midnightblue" stroke="midnightblue" points="645.69,-139.312 653.012,-131.655 642.512,-133.075 645.69,-139.312"/>
</g>
<!-- Node24&#45;&gt;Node12 -->
<g id="edge26" class="edge"><title>Node24&#45;&gt;Node12</title>
<path fill="none" stroke="midnightblue" d="M648.133,-112.444C625.221,-103.478 589.025,-89.314 563.134,-79.1827"/>
<polygon fill="midnightblue" stroke="midnightblue" points="564.352,-75.9011 553.764,-75.5164 561.801,-82.4198 564.352,-75.9011"/>
</g>
<!-- Node24&#45;&gt;Node14 -->
<g id="edge25" class="edge"><title>Node24&#45;&gt;Node14</title>
<path fill="none" stroke="midnightblue" d="M626.109,-112.444C577.483,-102.964 499.054,-87.6747 446.776,-77.4835"/>
<polygon fill="midnightblue" stroke="midnightblue" points="447.171,-73.9946 436.686,-75.5164 445.832,-80.8653 447.171,-73.9946"/>
</g>
<!-- Node24&#45;&gt;Node17 -->
<g id="edge27" class="edge"><title>Node24&#45;&gt;Node17</title>
<path fill="none" stroke="midnightblue" d="M668.781,-112.43C666.632,-99.4257 661.283,-74.2877 650,-56 642.935,-44.5487 632.27,-34.0119 622.884,-26.0175"/>
<polygon fill="midnightblue" stroke="midnightblue" points="625.057,-23.2737 615.088,-19.6875 620.645,-28.708 625.057,-23.2737"/>
</g>
<!-- Node25 -->
<g id="node25" class="node"><title>Node25</title>
<polygon fill="none" stroke="#bfbfbf" points="580,-56.5 580,-75.5 642,-75.5 642,-56.5 580,-56.5"/>
<text text-anchor="middle" x="611" y="-63.5" font-family="Helvetica,sans-Serif" font-size="10.00">type_traits</text>
</g>
<!-- Node24&#45;&gt;Node25 -->
<g id="edge28" class="edge"><title>Node24&#45;&gt;Node25</title>
<path fill="none" stroke="midnightblue" d="M660.521,-112.324C651.799,-104.341 638.657,-92.3128 628.102,-82.6529"/>
<polygon fill="midnightblue" stroke="midnightblue" points="630.392,-80.0036 620.652,-75.8339 625.666,-85.1674 630.392,-80.0036"/>
</g>
</g>
</svg>
