<?xml version="1.0" encoding="UTF-8" standalone="no"?>
<!DOCTYPE svg PUBLIC "-//W3C//DTD SVG 1.1//EN"
 "http://www.w3.org/Graphics/SVG/1.1/DTD/svg11.dtd">
<!-- Generated by graphviz version 2.36.0 (20140111.2315)
 -->
<!-- Title: /home/travis/build/AliceO2Group/AliceO2/Framework/Core/include/Framework/RemoteMetricsService.h Pages: 1 -->
<svg width="525pt" height="230pt"
 viewBox="0.00 0.00 525.00 230.00" xmlns="http://www.w3.org/2000/svg" xmlns:xlink="http://www.w3.org/1999/xlink">
<g id="graph0" class="graph" transform="scale(1 1) rotate(0) translate(4 226)">
<title>/home/travis/build/AliceO2Group/AliceO2/Framework/Core/include/Framework/RemoteMetricsService.h</title>
<!-- Node1 -->
<g id="node1" class="node"><title>Node1</title>
<polygon fill="#bfbfbf" stroke="black" points="274.5,-169 274.5,-221 453.5,-221 453.5,-169 274.5,-169"/>
<text text-anchor="start" x="282.5" y="-209" font-family="Helvetica,sans-Serif" font-size="10.00">/home/travis/build</text>
<text text-anchor="start" x="282.5" y="-198" font-family="Helvetica,sans-Serif" font-size="10.00">/AliceO2Group/AliceO2</text>
<text text-anchor="start" x="282.5" y="-187" font-family="Helvetica,sans-Serif" font-size="10.00">/Framework/Core/include</text>
<text text-anchor="middle" x="364" y="-176" font-family="Helvetica,sans-Serif" font-size="10.00">/Framework/RemoteMetricsService.h</text>
</g>
<!-- Node2 -->
<g id="node2" class="node"><title>Node2</title>
<g id="a_node2"><a xlink:href="../../d3/d26/MetricsService_8h.html" target="_top" xlink:title="Framework/MetricsService.h">
<polygon fill="none" stroke="black" points="293,-112.5 293,-131.5 435,-131.5 435,-112.5 293,-112.5"/>
<text text-anchor="middle" x="364" y="-119.5" font-family="Helvetica,sans-Serif" font-size="10.00">Framework/MetricsService.h</text>
</a>
</g>
</g>
<!-- Node1&#45;&gt;Node2 -->
<g id="edge1" class="edge"><title>Node1&#45;&gt;Node2</title>
<path fill="none" stroke="midnightblue" d="M364,-168.768C364,-159.89 364,-150.074 364,-141.816"/>
<polygon fill="midnightblue" stroke="midnightblue" points="367.5,-141.757 364,-131.757 360.5,-141.757 367.5,-141.757"/>
</g>
<!-- Node3 -->
<g id="node3" class="node"><title>Node3</title>
<g id="a_node3"><a xlink:href="../../de/d56/Variant_8h.html" target="_top" xlink:title="Framework/Variant.h">
<polygon fill="none" stroke="black" points="177.5,-56.5 177.5,-75.5 284.5,-75.5 284.5,-56.5 177.5,-56.5"/>
<text text-anchor="middle" x="231" y="-63.5" font-family="Helvetica,sans-Serif" font-size="10.00">Framework/Variant.h</text>
</a>
</g>
</g>
<!-- Node1&#45;&gt;Node3 -->
<g id="edge13" class="edge"><title>Node1&#45;&gt;Node3</title>
<path fill="none" stroke="midnightblue" d="M323.809,-168.988C308.6,-158.54 291.675,-145.656 278,-132 263.429,-117.449 250.009,-98.0203 241.272,-84.204"/>
<polygon fill="midnightblue" stroke="midnightblue" points="244.238,-82.3455 236.016,-75.6645 238.277,-86.0151 244.238,-82.3455"/>
</g>
<!-- Node11 -->
<g id="node11" class="node"><title>Node11</title>
<polygon fill="none" stroke="#bfbfbf" points="310.5,-56.5 310.5,-75.5 345.5,-75.5 345.5,-56.5 310.5,-56.5"/>
<text text-anchor="middle" x="328" y="-63.5" font-family="Helvetica,sans-Serif" font-size="10.00">map</text>
</g>
<!-- Node1&#45;&gt;Node11 -->
<g id="edge14" class="edge"><title>Node1&#45;&gt;Node11</title>
<path fill="none" stroke="midnightblue" d="M317.171,-168.757C303.987,-159.13 291.27,-146.831 284,-132 275.043,-113.726 291.511,-94.652 306.787,-81.9305"/>
<polygon fill="midnightblue" stroke="midnightblue" points="309.234,-84.4617 314.983,-75.562 304.939,-78.9343 309.234,-84.4617"/>
</g>
<!-- Node12 -->
<g id="node12" class="node"><title>Node12</title>
<polygon fill="none" stroke="#bfbfbf" points="380.5,-56.5 380.5,-75.5 421.5,-75.5 421.5,-56.5 380.5,-56.5"/>
<text text-anchor="middle" x="401" y="-63.5" font-family="Helvetica,sans-Serif" font-size="10.00">string</text>
</g>
<!-- Node1&#45;&gt;Node12 -->
<g id="edge15" class="edge"><title>Node1&#45;&gt;Node12</title>
<path fill="none" stroke="midnightblue" d="M410.829,-168.757C424.013,-159.13 436.73,-146.831 444,-132 452.894,-113.855 436.777,-94.7599 421.803,-81.9979"/>
<polygon fill="midnightblue" stroke="midnightblue" points="423.773,-79.0926 413.769,-75.6058 419.415,-84.5706 423.773,-79.0926"/>
</g>
<!-- Node13 -->
<g id="node13" class="node"><title>Node13</title>
<polygon fill="none" stroke="#bfbfbf" points="474,-56.5 474,-75.5 518,-75.5 518,-56.5 474,-56.5"/>
<text text-anchor="middle" x="496" y="-63.5" font-family="Helvetica,sans-Serif" font-size="10.00">vector</text>
</g>
<!-- Node1&#45;&gt;Node13 -->
<g id="edge16" class="edge"><title>Node1&#45;&gt;Node13</title>
<path fill="none" stroke="midnightblue" d="M412.901,-168.838C429.193,-158.874 446.589,-146.351 460,-132 472.774,-118.331 482.629,-99.2877 488.772,-85.3466"/>
<polygon fill="midnightblue" stroke="midnightblue" points="492.112,-86.4305 492.733,-75.8539 485.652,-83.7348 492.112,-86.4305"/>
</g>
<!-- Node2&#45;&gt;Node3 -->
<g id="edge2" class="edge"><title>Node2&#45;&gt;Node3</title>
<path fill="none" stroke="midnightblue" d="M342.926,-112.444C320.94,-103.517 286.266,-89.4387 261.336,-79.3168"/>
<polygon fill="midnightblue" stroke="midnightblue" points="262.558,-76.0355 251.976,-75.5164 259.924,-82.5213 262.558,-76.0355"/>
</g>
<!-- Node2&#45;&gt;Node11 -->
<g id="edge10" class="edge"><title>Node2&#45;&gt;Node11</title>
<path fill="none" stroke="midnightblue" d="M358.055,-112.083C353.023,-104.534 345.663,-93.4948 339.487,-84.2298"/>
<polygon fill="midnightblue" stroke="midnightblue" points="342.293,-82.1301 333.834,-75.7511 336.469,-86.0131 342.293,-82.1301"/>
</g>
<!-- Node2&#45;&gt;Node12 -->
<g id="edge11" class="edge"><title>Node2&#45;&gt;Node12</title>
<path fill="none" stroke="midnightblue" d="M370.11,-112.083C375.282,-104.534 382.846,-93.4948 389.194,-84.2298"/>
<polygon fill="midnightblue" stroke="midnightblue" points="392.239,-85.9787 395.004,-75.7511 386.464,-82.0221 392.239,-85.9787"/>
</g>
<!-- Node2&#45;&gt;Node13 -->
<g id="edge12" class="edge"><title>Node2&#45;&gt;Node13</title>
<path fill="none" stroke="midnightblue" d="M384.916,-112.444C406.736,-103.517 441.15,-89.4387 465.892,-79.3168"/>
<polygon fill="midnightblue" stroke="midnightblue" points="467.252,-82.5422 475.182,-75.5164 464.601,-76.0634 467.252,-82.5422"/>
</g>
<!-- Node4 -->
<g id="node4" class="node"><title>Node4</title>
<polygon fill="none" stroke="#bfbfbf" points="0,-0.5 0,-19.5 62,-19.5 62,-0.5 0,-0.5"/>
<text text-anchor="middle" x="31" y="-7.5" font-family="Helvetica,sans-Serif" font-size="10.00">type_traits</text>
</g>
<!-- Node3&#45;&gt;Node4 -->
<g id="edge3" class="edge"><title>Node3&#45;&gt;Node4</title>
<path fill="none" stroke="midnightblue" d="M199.309,-56.4435C164.831,-47.1343 109.599,-32.2218 71.8787,-22.0372"/>
<polygon fill="midnightblue" stroke="midnightblue" points="72.7798,-18.6553 62.2131,-19.4275 70.955,-25.4133 72.7798,-18.6553"/>
</g>
<!-- Node5 -->
<g id="node5" class="node"><title>Node5</title>
<polygon fill="none" stroke="#bfbfbf" points="80,-0.5 80,-19.5 126,-19.5 126,-0.5 80,-0.5"/>
<text text-anchor="middle" x="103" y="-7.5" font-family="Helvetica,sans-Serif" font-size="10.00">cstring</text>
</g>
<!-- Node3&#45;&gt;Node5 -->
<g id="edge4" class="edge"><title>Node3&#45;&gt;Node5</title>
<path fill="none" stroke="midnightblue" d="M210.718,-56.4435C189.653,-47.5566 156.483,-33.5632 132.514,-23.4514"/>
<polygon fill="midnightblue" stroke="midnightblue" points="133.761,-20.1787 123.187,-19.5164 131.04,-26.6283 133.761,-20.1787"/>
</g>
<!-- Node6 -->
<g id="node6" class="node"><title>Node6</title>
<polygon fill="none" stroke="#bfbfbf" points="144,-0.5 144,-19.5 190,-19.5 190,-0.5 144,-0.5"/>
<text text-anchor="middle" x="167" y="-7.5" font-family="Helvetica,sans-Serif" font-size="10.00">cstdint</text>
</g>
<!-- Node3&#45;&gt;Node6 -->
<g id="edge5" class="edge"><title>Node3&#45;&gt;Node6</title>
<path fill="none" stroke="midnightblue" d="M220.717,-56.324C211.164,-48.2631 196.72,-36.0765 185.216,-26.3695"/>
<polygon fill="midnightblue" stroke="midnightblue" points="187.37,-23.6076 177.47,-19.8339 182.856,-28.9577 187.37,-23.6076"/>
</g>
<!-- Node7 -->
<g id="node7" class="node"><title>Node7</title>
<polygon fill="none" stroke="#bfbfbf" points="208.5,-0.5 208.5,-19.5 253.5,-19.5 253.5,-0.5 208.5,-0.5"/>
<text text-anchor="middle" x="231" y="-7.5" font-family="Helvetica,sans-Serif" font-size="10.00">cstdlib</text>
</g>
<!-- Node3&#45;&gt;Node7 -->
<g id="edge6" class="edge"><title>Node3&#45;&gt;Node7</title>
<path fill="none" stroke="midnightblue" d="M231,-56.083C231,-49.0059 231,-38.8611 231,-29.9865"/>
<polygon fill="midnightblue" stroke="midnightblue" points="234.5,-29.751 231,-19.7511 227.5,-29.7511 234.5,-29.751"/>
</g>
<!-- Node8 -->
<g id="node8" class="node"><title>Node8</title>
<polygon fill="none" stroke="#bfbfbf" points="271.5,-0.5 271.5,-19.5 330.5,-19.5 330.5,-0.5 271.5,-0.5"/>
<text text-anchor="middle" x="301" y="-7.5" font-family="Helvetica,sans-Serif" font-size="10.00">stdexcept</text>
</g>
<!-- Node3&#45;&gt;Node8 -->
<g id="edge7" class="edge"><title>Node3&#45;&gt;Node8</title>
<path fill="none" stroke="midnightblue" d="M242.247,-56.324C252.797,-48.1849 268.801,-35.8395 281.442,-26.0874"/>
<polygon fill="midnightblue" stroke="midnightblue" points="283.769,-28.7132 289.549,-19.8339 279.493,-23.1707 283.769,-28.7132"/>
</g>
<!-- Node9 -->
<g id="node9" class="node"><title>Node9</title>
<polygon fill="none" stroke="#bfbfbf" points="348.5,-0.5 348.5,-19.5 393.5,-19.5 393.5,-0.5 348.5,-0.5"/>
<text text-anchor="middle" x="371" y="-7.5" font-family="Helvetica,sans-Serif" font-size="10.00">iosfwd</text>
</g>
<!-- Node3&#45;&gt;Node9 -->
<g id="edge8" class="edge"><title>Node3&#45;&gt;Node9</title>
<path fill="none" stroke="midnightblue" d="M253.183,-56.4435C276.428,-47.4776 313.149,-33.314 339.415,-23.1827"/>
<polygon fill="midnightblue" stroke="midnightblue" points="340.85,-26.3807 348.92,-19.5164 338.331,-19.8497 340.85,-26.3807"/>
</g>
<!-- Node10 -->
<g id="node10" class="node"><title>Node10</title>
<polygon fill="none" stroke="#bfbfbf" points="411.5,-0.5 411.5,-19.5 484.5,-19.5 484.5,-0.5 411.5,-0.5"/>
<text text-anchor="middle" x="448" y="-7.5" font-family="Helvetica,sans-Serif" font-size="10.00">initializer_list</text>
</g>
<!-- Node3&#45;&gt;Node10 -->
<g id="edge9" class="edge"><title>Node3&#45;&gt;Node10</title>
<path fill="none" stroke="midnightblue" d="M265.384,-56.4435C302.922,-47.1024 363.131,-32.1194 404.067,-21.9326"/>
<polygon fill="midnightblue" stroke="midnightblue" points="404.918,-25.3278 413.777,-19.5164 403.227,-18.5349 404.918,-25.3278"/>
</g>
</g>
</svg>
