<?xml version="1.0" encoding="UTF-8" standalone="no"?>
<!DOCTYPE svg PUBLIC "-//W3C//DTD SVG 1.1//EN"
 "http://www.w3.org/Graphics/SVG/1.1/DTD/svg11.dtd">
<!-- Generated by graphviz version 2.36.0 (20140111.2315)
 -->
<!-- Title: /home/travis/build/AliceO2Group/AliceO2/Steer/include/Steer/InteractionSampler.h Pages: 1 -->
<svg width="423pt" height="186pt"
 viewBox="0.00 0.00 423.10 186.00" xmlns="http://www.w3.org/2000/svg" xmlns:xlink="http://www.w3.org/1999/xlink">
<g id="graph0" class="graph" transform="scale(1 1) rotate(0) translate(4 182)">
<title>/home/travis/build/AliceO2Group/AliceO2/Steer/include/Steer/InteractionSampler.h</title>
<!-- Node1 -->
<g id="node1" class="node"><title>Node1</title>
<polygon fill="#bfbfbf" stroke="black" points="81.1046,-125 81.1046,-177 233.105,-177 233.105,-125 81.1046,-125"/>
<text text-anchor="start" x="89.1046" y="-165" font-family="Helvetica,sans-Serif" font-size="10.00">/home/travis/build</text>
<text text-anchor="start" x="89.1046" y="-154" font-family="Helvetica,sans-Serif" font-size="10.00">/AliceO2Group/AliceO2</text>
<text text-anchor="start" x="89.1046" y="-143" font-family="Helvetica,sans-Serif" font-size="10.00">/Steer/include/Steer/Interaction</text>
<text text-anchor="middle" x="157.105" y="-132" font-family="Helvetica,sans-Serif" font-size="10.00">Sampler.h</text>
</g>
<!-- Node2 -->
<g id="node2" class="node"><title>Node2</title>
<polygon fill="none" stroke="#bfbfbf" points="108.105,-0.5 108.105,-19.5 164.105,-19.5 164.105,-0.5 108.105,-0.5"/>
<text text-anchor="middle" x="136.105" y="-7.5" font-family="Helvetica,sans-Serif" font-size="10.00">Rtypes.h</text>
</g>
<!-- Node1&#45;&gt;Node2 -->
<g id="edge1" class="edge"><title>Node1&#45;&gt;Node2</title>
<path fill="none" stroke="midnightblue" d="M80.747,-137.16C52.4124,-128.289 23.0689,-113.304 6.10465,-88 -1.81507,-76.1869 -2.14479,-67.5853 6.10465,-56 26.7376,-27.0236 67.3654,-16.532 97.7382,-12.8246"/>
<polygon fill="midnightblue" stroke="midnightblue" points="98.4112,-16.2742 108.004,-11.777 97.7005,-9.31035 98.4112,-16.2742"/>
</g>
<!-- Node3 -->
<g id="node3" class="node"><title>Node3</title>
<polygon fill="none" stroke="#bfbfbf" points="15.6046,-62.5 15.6046,-81.5 68.6046,-81.5 68.6046,-62.5 15.6046,-62.5"/>
<text text-anchor="middle" x="42.1046" y="-69.5" font-family="Helvetica,sans-Serif" font-size="10.00">TMath.h</text>
</g>
<!-- Node1&#45;&gt;Node3 -->
<g id="edge2" class="edge"><title>Node1&#45;&gt;Node3</title>
<path fill="none" stroke="midnightblue" d="M119.449,-124.787C100.831,-112.321 79.0497,-97.7371 63.3539,-87.2278"/>
<polygon fill="midnightblue" stroke="midnightblue" points="65.1423,-84.2131 54.8856,-81.5577 61.2477,-90.0297 65.1423,-84.2131"/>
</g>
<!-- Node4 -->
<g id="node4" class="node"><title>Node4</title>
<polygon fill="none" stroke="#bfbfbf" points="87.1046,-62.5 87.1046,-81.5 155.105,-81.5 155.105,-62.5 87.1046,-62.5"/>
<text text-anchor="middle" x="121.105" y="-69.5" font-family="Helvetica,sans-Serif" font-size="10.00">TRandom.h</text>
</g>
<!-- Node1&#45;&gt;Node4 -->
<g id="edge3" class="edge"><title>Node1&#45;&gt;Node4</title>
<path fill="none" stroke="midnightblue" d="M145.317,-124.787C140.142,-113.719 134.187,-100.982 129.478,-90.9087"/>
<polygon fill="midnightblue" stroke="midnightblue" points="132.512,-89.1342 125.106,-81.5577 126.17,-92.0989 132.512,-89.1342"/>
</g>
<!-- Node5 -->
<g id="node5" class="node"><title>Node5</title>
<polygon fill="none" stroke="#bfbfbf" points="173.605,-62.5 173.605,-81.5 214.605,-81.5 214.605,-62.5 173.605,-62.5"/>
<text text-anchor="middle" x="194.105" y="-69.5" font-family="Helvetica,sans-Serif" font-size="10.00">bitset</text>
</g>
<!-- Node1&#45;&gt;Node5 -->
<g id="edge4" class="edge"><title>Node1&#45;&gt;Node5</title>
<path fill="none" stroke="midnightblue" d="M169.22,-124.787C174.594,-113.603 180.788,-100.713 185.652,-90.5914"/>
<polygon fill="midnightblue" stroke="midnightblue" points="188.816,-92.087 189.993,-81.5577 182.507,-89.0552 188.816,-92.087"/>
</g>
<!-- Node6 -->
<g id="node6" class="node"><title>Node6</title>
<polygon fill="none" stroke="#bfbfbf" points="233.105,-62.5 233.105,-81.5 277.105,-81.5 277.105,-62.5 233.105,-62.5"/>
<text text-anchor="middle" x="255.105" y="-69.5" font-family="Helvetica,sans-Serif" font-size="10.00">vector</text>
</g>
<!-- Node1&#45;&gt;Node6 -->
<g id="edge5" class="edge"><title>Node1&#45;&gt;Node6</title>
<path fill="none" stroke="midnightblue" d="M189.194,-124.787C204.763,-112.554 222.928,-98.2816 236.241,-87.8213"/>
<polygon fill="midnightblue" stroke="midnightblue" points="238.512,-90.4881 244.213,-81.5577 234.187,-84.9838 238.512,-90.4881"/>
</g>
<!-- Node7 -->
<g id="node7" class="node"><title>Node7</title>
<g id="a_node7"><a xlink:href="../../d1/dbe/MCInteractionRecord_8h.html" target="_top" xlink:title="SimulationDataFormat\l/MCInteractionRecord.h">
<polygon fill="none" stroke="black" points="294.605,-57 294.605,-87 415.605,-87 415.605,-57 294.605,-57"/>
<text text-anchor="start" x="302.605" y="-75" font-family="Helvetica,sans-Serif" font-size="10.00">SimulationDataFormat</text>
<text text-anchor="middle" x="355.105" y="-64" font-family="Helvetica,sans-Serif" font-size="10.00">/MCInteractionRecord.h</text>
</a>
</g>
</g>
<!-- Node1&#45;&gt;Node7 -->
<g id="edge6" class="edge"><title>Node1&#45;&gt;Node7</title>
<path fill="none" stroke="midnightblue" d="M221.663,-124.894C250.283,-113.764 283.289,-100.928 309.315,-90.8071"/>
<polygon fill="midnightblue" stroke="midnightblue" points="310.873,-93.9567 318.924,-87.0702 308.336,-87.4327 310.873,-93.9567"/>
</g>
<!-- Node7&#45;&gt;Node2 -->
<g id="edge7" class="edge"><title>Node7&#45;&gt;Node2</title>
<path fill="none" stroke="midnightblue" d="M303.759,-56.9327C264.176,-46.088 210.31,-31.3303 174.432,-21.5006"/>
<polygon fill="midnightblue" stroke="midnightblue" points="174.933,-18.009 164.364,-18.7422 173.083,-24.7602 174.933,-18.009"/>
</g>
<!-- Node8 -->
<g id="node8" class="node"><title>Node8</title>
<polygon fill="none" stroke="#bfbfbf" points="332.605,-0.5 332.605,-19.5 377.605,-19.5 377.605,-0.5 332.605,-0.5"/>
<text text-anchor="middle" x="355.105" y="-7.5" font-family="Helvetica,sans-Serif" font-size="10.00">iosfwd</text>
</g>
<!-- Node7&#45;&gt;Node8 -->
<g id="edge8" class="edge"><title>Node7&#45;&gt;Node8</title>
<path fill="none" stroke="midnightblue" d="M355.105,-56.7808C355.105,-48.7812 355.105,-38.6887 355.105,-30.0168"/>
<polygon fill="midnightblue" stroke="midnightblue" points="358.605,-29.7305 355.105,-19.7305 351.605,-29.7306 358.605,-29.7305"/>
</g>
</g>
</svg>
