<?xml version="1.0" encoding="UTF-8" standalone="no"?>
<!DOCTYPE svg PUBLIC "-//W3C//DTD SVG 1.1//EN"
 "http://www.w3.org/Graphics/SVG/1.1/DTD/svg11.dtd">
<!-- Generated by graphviz version 2.36.0 (20140111.2315)
 -->
<!-- Title: /home/travis/build/AliceO2Group/AliceO2/DataFormats/Detectors/TPC/src/Helpers.cxx Pages: 1 -->
<!--zoomable 310 -->
<svg id="main" version="1.1" xmlns="http://www.w3.org/2000/svg" xmlns:xlink="http://www.w3.org/1999/xlink" xml:space="preserve" onload="init(evt)">
<style type="text/css"><![CDATA[
.edge:hover path { stroke: red; }
.edge:hover polygon { stroke: red; fill: red; }
]]></style>
<script type="text/javascript"><![CDATA[
var edges = document.getElementsByTagName('g');
if (edges && edges.length) {
  for (var i=0;i<edges.length;i++) {
    if (edges[i].id.substr(0,4)=='edge') {
      edges[i].setAttribute('class','edge');
    }
  }
}
]]></script>
        <defs>
                <circle id="rim" cx="0" cy="0" r="7"/>
                <circle id="rim2" cx="0" cy="0" r="3.5"/>
                <g id="zoomPlus">
                        <use xlink:href="#rim" fill="#404040">
                                <set attributeName="fill" to="#808080" begin="zoomplus.mouseover" end="zoomplus.mouseout"/>
                        </use>
                        <path d="M-4,0h8M0,-4v8" fill="none" stroke="white" stroke-width="1.5" pointer-events="none"/>
                </g>
                <g id="zoomMin">
                        <use xlink:href="#rim" fill="#404040">
                                <set attributeName="fill" to="#808080" begin="zoomminus.mouseover" end="zoomminus.mouseout"/>
                        </use>
                        <path d="M-4,0h8" fill="none" stroke="white" stroke-width="1.5" pointer-events="none"/>
                </g>
                <g id="dirArrow">
                        <path fill="none" stroke="white" stroke-width="1.5" d="M0,-3.0v7 M-2.5,-0.5L0,-3.0L2.5,-0.5"/>
                </g>
               <g id="resetDef">
                       <use xlink:href="#rim2" fill="#404040">
                               <set attributeName="fill" to="#808080" begin="reset.mouseover" end="reset.mouseout"/>
                       </use>
               </g>
        </defs>

<script type="text/javascript">
var viewWidth = 914;
var viewHeight = 310;
var sectionId = 'dynsection-0';
</script>
<script xlink:href="../../svgpan.js"/>
<svg id="graph" class="graph">
<g id="viewport">
<title>/home/travis/build/AliceO2Group/AliceO2/DataFormats/Detectors/TPC/src/Helpers.cxx</title>
<!-- Node1 -->
<g id="node1" class="node"><title>Node1</title>
<polygon fill="#bfbfbf" stroke="black" points="637,-249 637,-301 759,-301 759,-249 637,-249"/>
<text text-anchor="start" x="645" y="-289" font-family="Helvetica,sans-Serif" font-size="10.00">/home/travis/build</text>
<text text-anchor="start" x="645" y="-278" font-family="Helvetica,sans-Serif" font-size="10.00">/AliceO2Group/AliceO2</text>
<text text-anchor="start" x="645" y="-267" font-family="Helvetica,sans-Serif" font-size="10.00">/DataFormats/Detectors</text>
<text text-anchor="middle" x="698" y="-256" font-family="Helvetica,sans-Serif" font-size="10.00">/TPC/src/Helpers.cxx</text>
</g>
<!-- Node2 -->
<g id="node2" class="node"><title>Node2</title>
<g id="a_node2"><a xlink:href="../../db/df1/Helpers_8h.html" target="_top" xlink:title="Helper class for memory management of TPC Data Formats, external from the actual data type classes to...">
<polygon fill="none" stroke="black" points="199.5,-186.5 199.5,-205.5 338.5,-205.5 338.5,-186.5 199.5,-186.5"/>
<text text-anchor="middle" x="269" y="-193.5" font-family="Helvetica,sans-Serif" font-size="10.00">DataFormatsTPC/Helpers.h</text>
</a>
</g>
</g>
<!-- Node1&#45;&gt;Node2 -->
<g id="edge1" class="edge"><title>Node1&#45;&gt;Node2</title>
<path fill="none" stroke="midnightblue" d="M636.99,-263.05C554.245,-248.198 407.504,-221.86 326.574,-207.334"/>
<polygon fill="midnightblue" stroke="midnightblue" points="327.023,-203.858 316.562,-205.537 325.786,-210.748 327.023,-203.858"/>
</g>
<!-- Node10 -->
<g id="node10" class="node"><title>Node10</title>
<g id="a_node10"><a xlink:href="../../d0/dda/DataFormats_2Detectors_2TPC_2include_2DataFormatsTPC_2Constants_8h.html" target="_top" xlink:title="DataFormatsTPC/Constants.h">
<polygon fill="none" stroke="black" points="651,-62.5 651,-81.5 801,-81.5 801,-62.5 651,-62.5"/>
<text text-anchor="middle" x="726" y="-69.5" font-family="Helvetica,sans-Serif" font-size="10.00">DataFormatsTPC/Constants.h</text>
</a>
</g>
</g>
<!-- Node1&#45;&gt;Node10 -->
<g id="edge21" class="edge"><title>Node1&#45;&gt;Node10</title>
<path fill="none" stroke="midnightblue" d="M709.82,-248.794C721.169,-223.096 737.518,-181.753 744,-144 747.152,-125.645 740.806,-105.054 734.799,-90.7933"/>
<polygon fill="midnightblue" stroke="midnightblue" points="737.961,-89.2934 730.624,-81.6501 731.594,-92.2005 737.961,-89.2934"/>
</g>
<!-- Node12 -->
<g id="node12" class="node"><title>Node12</title>
<g id="a_node12"><a xlink:href="../../d7/dcd/MCCompLabel_8h.html" target="_top" xlink:title="SimulationDataFormat\l/MCCompLabel.h">
<polygon fill="none" stroke="black" points="792,-181 792,-211 906,-211 906,-181 792,-181"/>
<text text-anchor="start" x="800" y="-199" font-family="Helvetica,sans-Serif" font-size="10.00">SimulationDataFormat</text>
<text text-anchor="middle" x="849" y="-188" font-family="Helvetica,sans-Serif" font-size="10.00">/MCCompLabel.h</text>
</a>
</g>
</g>
<!-- Node1&#45;&gt;Node12 -->
<g id="edge13" class="edge"><title>Node1&#45;&gt;Node12</title>
<path fill="none" stroke="midnightblue" d="M747.443,-248.787C768.583,-238.007 792.83,-225.643 812.329,-215.7"/>
<polygon fill="midnightblue" stroke="midnightblue" points="814.167,-218.692 821.485,-211.031 810.987,-212.455 814.167,-218.692"/>
</g>
<!-- Node14 -->
<g id="node14" class="node"><title>Node14</title>
<g id="a_node14"><a xlink:href="../../db/d14/MCTruthContainer_8h.html" target="_top" xlink:title="Definition of a container to keep Monte Carlo truth external to simulation objects. ">
<polygon fill="none" stroke="black" points="543,-181 543,-211 657,-211 657,-181 543,-181"/>
<text text-anchor="start" x="551" y="-199" font-family="Helvetica,sans-Serif" font-size="10.00">SimulationDataFormat</text>
<text text-anchor="middle" x="600" y="-188" font-family="Helvetica,sans-Serif" font-size="10.00">/MCTruthContainer.h</text>
</a>
</g>
</g>
<!-- Node1&#45;&gt;Node14 -->
<g id="edge15" class="edge"><title>Node1&#45;&gt;Node14</title>
<path fill="none" stroke="midnightblue" d="M665.911,-248.787C652.939,-238.595 638.166,-226.987 625.897,-217.348"/>
<polygon fill="midnightblue" stroke="midnightblue" points="627.883,-214.457 617.857,-211.031 623.558,-219.961 627.883,-214.457"/>
</g>
<!-- Node3 -->
<g id="node3" class="node"><title>Node3</title>
<polygon fill="none" stroke="#bfbfbf" points="133,-124.5 133,-143.5 185,-143.5 185,-124.5 133,-124.5"/>
<text text-anchor="middle" x="159" y="-131.5" font-family="Helvetica,sans-Serif" font-size="10.00">memory</text>
</g>
<!-- Node2&#45;&gt;Node3 -->
<g id="edge2" class="edge"><title>Node2&#45;&gt;Node3</title>
<path fill="none" stroke="midnightblue" d="M253.24,-186.403C235.024,-176.468 204.827,-159.997 183.532,-148.381"/>
<polygon fill="midnightblue" stroke="midnightblue" points="185.186,-145.297 174.731,-143.581 181.834,-151.442 185.186,-145.297"/>
</g>
<!-- Node4 -->
<g id="node4" class="node"><title>Node4</title>
<g id="a_node4"><a xlink:href="../../d3/dc4/ClusterHardware_8h.html" target="_top" xlink:title="Class of a TPC cluster as produced by the hardware cluster finder (needs a postprocessing step to con...">
<polygon fill="none" stroke="black" points="-0.5,-62.5 -0.5,-81.5 178.5,-81.5 178.5,-62.5 -0.5,-62.5"/>
<text text-anchor="middle" x="89" y="-69.5" font-family="Helvetica,sans-Serif" font-size="10.00">DataFormatsTPC/ClusterHardware.h</text>
</a>
</g>
</g>
<!-- Node2&#45;&gt;Node4 -->
<g id="edge3" class="edge"><title>Node2&#45;&gt;Node4</title>
<path fill="none" stroke="midnightblue" d="M261.396,-186.233C248.592,-171.855 221.429,-142.97 194,-124 171.018,-108.105 142.333,-94.5376 120.754,-85.4013"/>
<polygon fill="midnightblue" stroke="midnightblue" points="121.964,-82.1143 111.386,-81.5229 119.287,-88.5819 121.964,-82.1143"/>
</g>
<!-- Node6 -->
<g id="node6" class="node"><title>Node6</title>
<g id="a_node6"><a xlink:href="../../de/dcd/ClusterNative_8h.html" target="_top" xlink:title="Class of a TPC cluster in TPC&#45;native coordinates (row, time) ">
<polygon fill="none" stroke="black" points="241.5,-124.5 241.5,-143.5 406.5,-143.5 406.5,-124.5 241.5,-124.5"/>
<text text-anchor="middle" x="324" y="-131.5" font-family="Helvetica,sans-Serif" font-size="10.00">DataFormatsTPC/ClusterNative.h</text>
</a>
</g>
</g>
<!-- Node2&#45;&gt;Node6 -->
<g id="edge5" class="edge"><title>Node2&#45;&gt;Node6</title>
<path fill="none" stroke="midnightblue" d="M276.88,-186.403C285.294,-177.225 298.819,-162.47 309.226,-151.117"/>
<polygon fill="midnightblue" stroke="midnightblue" points="311.957,-153.317 316.134,-143.581 306.797,-148.587 311.957,-153.317"/>
</g>
<!-- Node5 -->
<g id="node5" class="node"><title>Node5</title>
<polygon fill="none" stroke="#bfbfbf" points="251,-0.5 251,-19.5 297,-19.5 297,-0.5 251,-0.5"/>
<text text-anchor="middle" x="274" y="-7.5" font-family="Helvetica,sans-Serif" font-size="10.00">cstdint</text>
</g>
<!-- Node4&#45;&gt;Node5 -->
<g id="edge4" class="edge"><title>Node4&#45;&gt;Node5</title>
<path fill="none" stroke="midnightblue" d="M115.506,-62.4035C148.657,-51.6519 205.404,-33.2473 241.242,-21.6243"/>
<polygon fill="midnightblue" stroke="midnightblue" points="242.326,-24.9522 250.758,-18.5378 240.166,-18.2936 242.326,-24.9522"/>
</g>
<!-- Node6&#45;&gt;Node5 -->
<g id="edge6" class="edge"><title>Node6&#45;&gt;Node5</title>
<path fill="none" stroke="midnightblue" d="M316.552,-124.275C309.515,-115.608 299.147,-101.671 293,-88 284.548,-69.2045 279.485,-46.0664 276.736,-30.0884"/>
<polygon fill="midnightblue" stroke="midnightblue" points="280.142,-29.2174 275.129,-19.8838 273.228,-30.3066 280.142,-29.2174"/>
</g>
<!-- Node7 -->
<g id="node7" class="node"><title>Node7</title>
<polygon fill="none" stroke="#bfbfbf" points="302,-62.5 302,-81.5 346,-81.5 346,-62.5 302,-62.5"/>
<text text-anchor="middle" x="324" y="-69.5" font-family="Helvetica,sans-Serif" font-size="10.00">vector</text>
</g>
<!-- Node6&#45;&gt;Node7 -->
<g id="edge7" class="edge"><title>Node6&#45;&gt;Node7</title>
<path fill="none" stroke="midnightblue" d="M324,-124.403C324,-115.938 324,-102.728 324,-91.8199"/>
<polygon fill="midnightblue" stroke="midnightblue" points="327.5,-91.5806 324,-81.5806 320.5,-91.5806 327.5,-91.5806"/>
</g>
<!-- Node8 -->
<g id="node8" class="node"><title>Node8</title>
<polygon fill="none" stroke="#bfbfbf" points="196.5,-62.5 196.5,-81.5 245.5,-81.5 245.5,-62.5 196.5,-62.5"/>
<text text-anchor="middle" x="221" y="-69.5" font-family="Helvetica,sans-Serif" font-size="10.00">cstddef</text>
</g>
<!-- Node6&#45;&gt;Node8 -->
<g id="edge8" class="edge"><title>Node6&#45;&gt;Node8</title>
<path fill="none" stroke="midnightblue" d="M309.243,-124.403C292.339,-114.557 264.417,-98.2915 244.51,-86.6949"/>
<polygon fill="midnightblue" stroke="midnightblue" points="246.133,-83.5898 235.73,-81.5806 242.609,-89.6384 246.133,-83.5898"/>
</g>
<!-- Node9 -->
<g id="node9" class="node"><title>Node9</title>
<polygon fill="none" stroke="#bfbfbf" points="537.5,-62.5 537.5,-81.5 596.5,-81.5 596.5,-62.5 537.5,-62.5"/>
<text text-anchor="middle" x="567" y="-69.5" font-family="Helvetica,sans-Serif" font-size="10.00">stdexcept</text>
</g>
<!-- Node6&#45;&gt;Node9 -->
<g id="edge9" class="edge"><title>Node6&#45;&gt;Node9</title>
<path fill="none" stroke="midnightblue" d="M372.336,-124.459C414.004,-116.595 475.556,-103.773 528,-88 530.961,-87.1094 534.017,-86.0996 537.055,-85.0349"/>
<polygon fill="midnightblue" stroke="midnightblue" points="538.388,-88.2739 546.555,-81.5258 535.962,-81.7075 538.388,-88.2739"/>
</g>
<!-- Node6&#45;&gt;Node10 -->
<g id="edge10" class="edge"><title>Node6&#45;&gt;Node10</title>
<path fill="none" stroke="midnightblue" d="M381.17,-124.467C454.401,-113.537 581.122,-94.6236 658.862,-83.0206"/>
<polygon fill="midnightblue" stroke="midnightblue" points="659.654,-86.4413 669.027,-81.5034 658.62,-79.518 659.654,-86.4413"/>
</g>
<!-- Node11 -->
<g id="node11" class="node"><title>Node11</title>
<g id="a_node11"><a xlink:href="../../d8/dc8/ClusterGroupAttribute_8h.html" target="_top" xlink:title="Meta data for a group describing it by sector number and global padrow. ">
<polygon fill="none" stroke="black" points="364.5,-57 364.5,-87 519.5,-87 519.5,-57 364.5,-57"/>
<text text-anchor="start" x="372.5" y="-75" font-family="Helvetica,sans-Serif" font-size="10.00">DataFormatsTPC/ClusterGroup</text>
<text text-anchor="middle" x="442" y="-64" font-family="Helvetica,sans-Serif" font-size="10.00">Attribute.h</text>
</a>
</g>
</g>
<!-- Node6&#45;&gt;Node11 -->
<g id="edge11" class="edge"><title>Node6&#45;&gt;Node11</title>
<path fill="none" stroke="midnightblue" d="M340.907,-124.403C357.56,-115.936 383.55,-102.72 405.007,-91.8101"/>
<polygon fill="midnightblue" stroke="midnightblue" points="406.862,-94.7932 414.19,-87.1408 403.689,-88.5535 406.862,-94.7932"/>
</g>
<!-- Node11&#45;&gt;Node5 -->
<g id="edge12" class="edge"><title>Node11&#45;&gt;Node5</title>
<path fill="none" stroke="midnightblue" d="M402.611,-56.9327C373.416,-46.5058 334.092,-32.4616 306.643,-22.6581"/>
<polygon fill="midnightblue" stroke="midnightblue" points="307.702,-19.3201 297.108,-19.2527 305.348,-25.9123 307.702,-19.3201"/>
</g>
<!-- Node13 -->
<g id="node13" class="node"><title>Node13</title>
<polygon fill="none" stroke="#bfbfbf" points="821,-124.5 821,-143.5 877,-143.5 877,-124.5 821,-124.5"/>
<text text-anchor="middle" x="849" y="-131.5" font-family="Helvetica,sans-Serif" font-size="10.00">Rtypes.h</text>
</g>
<!-- Node12&#45;&gt;Node13 -->
<g id="edge14" class="edge"><title>Node12&#45;&gt;Node13</title>
<path fill="none" stroke="midnightblue" d="M849,-180.781C849,-172.781 849,-162.689 849,-154.017"/>
<polygon fill="midnightblue" stroke="midnightblue" points="852.5,-153.73 849,-143.731 845.5,-153.731 852.5,-153.73"/>
</g>
<!-- Node14&#45;&gt;Node9 -->
<g id="edge18" class="edge"><title>Node14&#45;&gt;Node9</title>
<path fill="none" stroke="midnightblue" d="M542.659,-190.651C510.966,-184.971 474.05,-172.242 454,-144 448.854,-136.752 449.178,-131.467 454,-124 458.775,-116.606 503.585,-97.8382 535.317,-85.2509"/>
<polygon fill="midnightblue" stroke="midnightblue" points="536.664,-88.4823 544.686,-81.5623 534.099,-81.9689 536.664,-88.4823"/>
</g>
<!-- Node15 -->
<g id="node15" class="node"><title>Node15</title>
<polygon fill="none" stroke="#bfbfbf" points="463,-124.5 463,-143.5 525,-143.5 525,-124.5 463,-124.5"/>
<text text-anchor="middle" x="494" y="-131.5" font-family="Helvetica,sans-Serif" font-size="10.00">TNamed.h</text>
</g>
<!-- Node14&#45;&gt;Node15 -->
<g id="edge16" class="edge"><title>Node14&#45;&gt;Node15</title>
<path fill="none" stroke="midnightblue" d="M575.148,-180.933C557.903,-171.171 535.058,-158.24 518.001,-148.586"/>
<polygon fill="midnightblue" stroke="midnightblue" points="519.62,-145.48 509.193,-143.6 516.172,-151.572 519.62,-145.48"/>
</g>
<!-- Node16 -->
<g id="node16" class="node"><title>Node16</title>
<polygon fill="none" stroke="#bfbfbf" points="543.5,-124.5 543.5,-143.5 592.5,-143.5 592.5,-124.5 543.5,-124.5"/>
<text text-anchor="middle" x="568" y="-131.5" font-family="Helvetica,sans-Serif" font-size="10.00">cassert</text>
</g>
<!-- Node14&#45;&gt;Node16 -->
<g id="edge17" class="edge"><title>Node14&#45;&gt;Node16</title>
<path fill="none" stroke="midnightblue" d="M592.416,-180.781C587.91,-172.332 582.159,-161.548 577.37,-152.569"/>
<polygon fill="midnightblue" stroke="midnightblue" points="580.45,-150.907 572.656,-143.731 574.274,-154.201 580.45,-150.907"/>
</g>
<!-- Node17 -->
<g id="node17" class="node"><title>Node17</title>
<polygon fill="none" stroke="#bfbfbf" points="610.5,-124.5 610.5,-143.5 655.5,-143.5 655.5,-124.5 610.5,-124.5"/>
<text text-anchor="middle" x="633" y="-131.5" font-family="Helvetica,sans-Serif" font-size="10.00">gsl/gsl</text>
</g>
<!-- Node14&#45;&gt;Node17 -->
<g id="edge19" class="edge"><title>Node14&#45;&gt;Node17</title>
<path fill="none" stroke="midnightblue" d="M607.821,-180.781C612.468,-172.332 618.399,-161.548 623.337,-152.569"/>
<polygon fill="midnightblue" stroke="midnightblue" points="626.446,-154.179 628.198,-143.731 620.312,-150.806 626.446,-154.179"/>
</g>
<!-- Node18 -->
<g id="node18" class="node"><title>Node18</title>
<polygon fill="none" stroke="#bfbfbf" points="674,-124.5 674,-143.5 736,-143.5 736,-124.5 674,-124.5"/>
<text text-anchor="middle" x="705" y="-131.5" font-family="Helvetica,sans-Serif" font-size="10.00">type_traits</text>
</g>
<!-- Node14&#45;&gt;Node18 -->
<g id="edge20" class="edge"><title>Node14&#45;&gt;Node18</title>
<path fill="none" stroke="midnightblue" d="M624.618,-180.933C641.7,-171.171 664.33,-158.24 681.225,-148.586"/>
<polygon fill="midnightblue" stroke="midnightblue" points="683.004,-151.6 689.95,-143.6 679.531,-145.523 683.004,-151.6"/>
</g>
</g>
</svg>
        <g id="navigator" transform="translate(0 0)" fill="#404254">
                <rect fill="#f2f5e9" fill-opacity="0.5" stroke="#606060" stroke-width=".5" x="0" y="0" width="60" height="60"/>
                <use id="zoomplus" xlink:href="#zoomPlus" x="17" y="9" onmousedown="handleZoom(evt,'in')"/>
                <use id="zoomminus" xlink:href="#zoomMin" x="42" y="9" onmousedown="handleZoom(evt,'out')"/>
                <use id="reset" xlink:href="#resetDef" x="30" y="36" onmousedown="handleReset()"/>
                <g id="arrowUp" xlink:href="#dirArrow" transform="translate(30 24)" onmousedown="handlePan(0,-1)">
                  <use xlink:href="#rim" fill="#404040">
                        <set attributeName="fill" to="#808080" begin="arrowUp.mouseover" end="arrowUp.mouseout"/>
                  </use>
                  <path fill="none" stroke="white" stroke-width="1.5" d="M0,-3.0v7 M-2.5,-0.5L0,-3.0L2.5,-0.5"/>
                </g>
                <g id="arrowRight" xlink:href="#dirArrow" transform="rotate(90) translate(36 -43)" onmousedown="handlePan(1,0)">
                  <use xlink:href="#rim" fill="#404040">
                        <set attributeName="fill" to="#808080" begin="arrowRight.mouseover" end="arrowRight.mouseout"/>
                  </use>
                  <path fill="none" stroke="white" stroke-width="1.5" d="M0,-3.0v7 M-2.5,-0.5L0,-3.0L2.5,-0.5"/>
                </g>
                <g id="arrowDown" xlink:href="#dirArrow" transform="rotate(180) translate(-30 -48)" onmousedown="handlePan(0,1)">
                  <use xlink:href="#rim" fill="#404040">
                        <set attributeName="fill" to="#808080" begin="arrowDown.mouseover" end="arrowDown.mouseout"/>
                  </use>
                  <path fill="none" stroke="white" stroke-width="1.5" d="M0,-3.0v7 M-2.5,-0.5L0,-3.0L2.5,-0.5"/>
                </g>
                <g id="arrowLeft" xlink:href="#dirArrow" transform="rotate(270) translate(-36 17)" onmousedown="handlePan(-1,0)">
                  <use xlink:href="#rim" fill="#404040">
                        <set attributeName="fill" to="#808080" begin="arrowLeft.mouseover" end="arrowLeft.mouseout"/>
                  </use>
                  <path fill="none" stroke="white" stroke-width="1.5" d="M0,-3.0v7 M-2.5,-0.5L0,-3.0L2.5,-0.5"/>
                </g>
        </g>
        <svg viewBox="0 0 15 15" width="100%" height="30px" preserveAspectRatio="xMaxYMin meet">
         <g id="arrow_out" transform="scale(0.3 0.3)">
          <a xlink:href="Helpers_8cxx__incl_org.svg" target="_base">
           <rect id="button" ry="5" rx="5" y="6" x="6" height="38" width="38"
                fill="#f2f5e9" fill-opacity="0.5" stroke="#606060" stroke-width="1.0"/>
           <path id="arrow"
             d="M 11.500037,31.436501 C 11.940474,20.09759 22.043105,11.32322 32.158766,21.979434 L 37.068811,17.246167 C 37.068811,17.246167 37.088388,32 37.088388,32 L 22.160133,31.978069 C 22.160133,31.978069 26.997745,27.140456 26.997745,27.140456 C 18.528582,18.264221 13.291696,25.230495 11.500037,31.436501 z"
             style="fill:#404040;"/>
          </a>
         </g>
        </svg>
</svg>
