<?xml version="1.0" encoding="UTF-8" standalone="no"?>
<!DOCTYPE svg PUBLIC "-//W3C//DTD SVG 1.1//EN"
 "http://www.w3.org/Graphics/SVG/1.1/DTD/svg11.dtd">
<!-- Generated by graphviz version 2.36.0 (20140111.2315)
 -->
<!-- Title: /home/travis/build/AliceO2Group/AliceO2/Steer/include/Steer/InteractionSampler.h Pages: 1 -->
<!--zoomable 510 -->
<svg id="main" version="1.1" xmlns="http://www.w3.org/2000/svg" xmlns:xlink="http://www.w3.org/1999/xlink" xml:space="preserve" onload="init(evt)">
<style type="text/css"><![CDATA[
.edge:hover path { stroke: red; }
.edge:hover polygon { stroke: red; fill: red; }
]]></style>
<script type="text/javascript"><![CDATA[
var edges = document.getElementsByTagName('g');
if (edges && edges.length) {
  for (var i=0;i<edges.length;i++) {
    if (edges[i].id.substr(0,4)=='edge') {
      edges[i].setAttribute('class','edge');
    }
  }
}
]]></script>
        <defs>
                <circle id="rim" cx="0" cy="0" r="7"/>
                <circle id="rim2" cx="0" cy="0" r="3.5"/>
                <g id="zoomPlus">
                        <use xlink:href="#rim" fill="#404040">
                                <set attributeName="fill" to="#808080" begin="zoomplus.mouseover" end="zoomplus.mouseout"/>
                        </use>
                        <path d="M-4,0h8M0,-4v8" fill="none" stroke="white" stroke-width="1.5" pointer-events="none"/>
                </g>
                <g id="zoomMin">
                        <use xlink:href="#rim" fill="#404040">
                                <set attributeName="fill" to="#808080" begin="zoomminus.mouseover" end="zoomminus.mouseout"/>
                        </use>
                        <path d="M-4,0h8" fill="none" stroke="white" stroke-width="1.5" pointer-events="none"/>
                </g>
                <g id="dirArrow">
                        <path fill="none" stroke="white" stroke-width="1.5" d="M0,-3.0v7 M-2.5,-0.5L0,-3.0L2.5,-0.5"/>
                </g>
               <g id="resetDef">
                       <use xlink:href="#rim2" fill="#404040">
                               <set attributeName="fill" to="#808080" begin="reset.mouseover" end="reset.mouseout"/>
                       </use>
               </g>
        </defs>

<script type="text/javascript">
var viewWidth = 967;
var viewHeight = 510;
var sectionId = 'dynsection-1';
</script>
<script xlink:href="../../svgpan.js"/>
<svg id="graph" class="graph">
<g id="viewport">
<title>/home/travis/build/AliceO2Group/AliceO2/Steer/include/Steer/InteractionSampler.h</title>
<!-- Node1 -->
<g id="node1" class="node"><title>Node1</title>
<polygon fill="#bfbfbf" stroke="black" points="509,-449 509,-501 661,-501 661,-449 509,-449"/>
<text text-anchor="start" x="517" y="-489" font-family="Helvetica,sans-Serif" font-size="10.00">/home/travis/build</text>
<text text-anchor="start" x="517" y="-478" font-family="Helvetica,sans-Serif" font-size="10.00">/AliceO2Group/AliceO2</text>
<text text-anchor="start" x="517" y="-467" font-family="Helvetica,sans-Serif" font-size="10.00">/Steer/include/Steer/Interaction</text>
<text text-anchor="middle" x="585" y="-456" font-family="Helvetica,sans-Serif" font-size="10.00">Sampler.h</text>
</g>
<!-- Node2 -->
<g id="node2" class="node"><title>Node2</title>
<g id="a_node2"><a xlink:href="../../d3/d87/CollisionTimePrinter_8cxx.html" target="_top" xlink:title="/home/travis/build\l/AliceO2Group/AliceO2\l/Steer/DigitizerWorkflow\l/src/CollisionTimePrinter.cxx">
<polygon fill="none" stroke="black" points="-0.5,-269 -0.5,-321 142.5,-321 142.5,-269 -0.5,-269"/>
<text text-anchor="start" x="7.5" y="-309" font-family="Helvetica,sans-Serif" font-size="10.00">/home/travis/build</text>
<text text-anchor="start" x="7.5" y="-298" font-family="Helvetica,sans-Serif" font-size="10.00">/AliceO2Group/AliceO2</text>
<text text-anchor="start" x="7.5" y="-287" font-family="Helvetica,sans-Serif" font-size="10.00">/Steer/DigitizerWorkflow</text>
<text text-anchor="middle" x="71" y="-276" font-family="Helvetica,sans-Serif" font-size="10.00">/src/CollisionTimePrinter.cxx</text>
</a>
</g>
</g>
<!-- Node1&#45;&gt;Node2 -->
<g id="edge1" class="edge"><title>Node1&#45;&gt;Node2</title>
<path fill="none" stroke="midnightblue" d="M500.189,-445.679C468.974,-435.188 433.352,-423.136 401,-412 311.279,-381.116 208.146,-344.719 141.397,-321.044"/>
<polygon fill="midnightblue" stroke="midnightblue" points="499.132,-449.016 509.726,-448.882 501.36,-442.38 499.132,-449.016"/>
</g>
<!-- Node3 -->
<g id="node3" class="node"><title>Node3</title>
<g id="a_node3"><a xlink:href="../../dd/d40/HitProcessingManager_8h.html" target="_top" xlink:title="/home/travis/build\l/AliceO2Group/AliceO2\l/Steer/include/Steer/HitProcessing\lManager.h">
<polygon fill="none" stroke="black" points="410.5,-359 410.5,-411 577.5,-411 577.5,-359 410.5,-359"/>
<text text-anchor="start" x="418.5" y="-399" font-family="Helvetica,sans-Serif" font-size="10.00">/home/travis/build</text>
<text text-anchor="start" x="418.5" y="-388" font-family="Helvetica,sans-Serif" font-size="10.00">/AliceO2Group/AliceO2</text>
<text text-anchor="start" x="418.5" y="-377" font-family="Helvetica,sans-Serif" font-size="10.00">/Steer/include/Steer/HitProcessing</text>
<text text-anchor="middle" x="494" y="-366" font-family="Helvetica,sans-Serif" font-size="10.00">Manager.h</text>
</a>
</g>
</g>
<!-- Node1&#45;&gt;Node3 -->
<g id="edge2" class="edge"><title>Node1&#45;&gt;Node3</title>
<path fill="none" stroke="midnightblue" d="M551.32,-441.431C540.955,-431.407 529.71,-420.533 519.948,-411.092"/>
<polygon fill="midnightblue" stroke="midnightblue" points="549.057,-444.111 558.679,-448.547 553.923,-439.079 549.057,-444.111"/>
</g>
<!-- Node16 -->
<g id="node16" class="node"><title>Node16</title>
<g id="a_node16"><a xlink:href="../../de/d50/InteractionSampler_8cxx.html" target="_top" xlink:title="/home/travis/build\l/AliceO2Group/AliceO2\l/Steer/src/InteractionSampler.cxx">
<polygon fill="none" stroke="black" points="595.5,-364.5 595.5,-405.5 758.5,-405.5 758.5,-364.5 595.5,-364.5"/>
<text text-anchor="start" x="603.5" y="-393.5" font-family="Helvetica,sans-Serif" font-size="10.00">/home/travis/build</text>
<text text-anchor="start" x="603.5" y="-382.5" font-family="Helvetica,sans-Serif" font-size="10.00">/AliceO2Group/AliceO2</text>
<text text-anchor="middle" x="677" y="-371.5" font-family="Helvetica,sans-Serif" font-size="10.00">/Steer/src/InteractionSampler.cxx</text>
</a>
</g>
</g>
<!-- Node1&#45;&gt;Node16 -->
<g id="edge20" class="edge"><title>Node1&#45;&gt;Node16</title>
<path fill="none" stroke="midnightblue" d="M618.879,-441.594C631.537,-429.487 645.513,-416.118 656.588,-405.525"/>
<polygon fill="midnightblue" stroke="midnightblue" points="616.417,-439.105 611.61,-448.547 621.256,-444.164 616.417,-439.105"/>
</g>
<!-- Node17 -->
<g id="node17" class="node"><title>Node17</title>
<g id="a_node17"><a xlink:href="../../d6/d9e/testInteractionSampler_8cxx.html" target="_top" xlink:title="/home/travis/build\l/AliceO2Group/AliceO2\l/Steer/test/testInteractionSampler.cxx">
<polygon fill="none" stroke="black" points="777,-364.5 777,-405.5 959,-405.5 959,-364.5 777,-364.5"/>
<text text-anchor="start" x="785" y="-393.5" font-family="Helvetica,sans-Serif" font-size="10.00">/home/travis/build</text>
<text text-anchor="start" x="785" y="-382.5" font-family="Helvetica,sans-Serif" font-size="10.00">/AliceO2Group/AliceO2</text>
<text text-anchor="middle" x="868" y="-371.5" font-family="Helvetica,sans-Serif" font-size="10.00">/Steer/test/testInteractionSampler.cxx</text>
</a>
</g>
</g>
<!-- Node1&#45;&gt;Node17 -->
<g id="edge21" class="edge"><title>Node1&#45;&gt;Node17</title>
<path fill="none" stroke="midnightblue" d="M670.866,-447.299C714.083,-433.861 765.534,-417.862 805.035,-405.579"/>
<polygon fill="midnightblue" stroke="midnightblue" points="669.721,-443.99 661.211,-450.302 671.799,-450.675 669.721,-443.99"/>
</g>
<!-- Node3&#45;&gt;Node2 -->
<g id="edge15" class="edge"><title>Node3&#45;&gt;Node2</title>
<path fill="none" stroke="midnightblue" d="M400.122,-370.545C330.772,-359.756 234.34,-342.972 151,-322 148.309,-321.323 145.577,-320.603 142.825,-319.851"/>
<polygon fill="midnightblue" stroke="midnightblue" points="399.736,-374.026 410.153,-372.093 400.804,-367.108 399.736,-374.026"/>
</g>
<!-- Node4 -->
<g id="node4" class="node"><title>Node4</title>
<g id="a_node4"><a xlink:href="../../de/d92/TPC_2simulation_2include_2TPCSimulation_2Digitizer_8h.html" target="_top" xlink:title="/home/travis/build\l/AliceO2Group/AliceO2\l/Detectors/TPC/simulation\l/include/TPCSimulation/Digitizer.h">
<polygon fill="none" stroke="black" points="160.5,-269 160.5,-321 327.5,-321 327.5,-269 160.5,-269"/>
<text text-anchor="start" x="168.5" y="-309" font-family="Helvetica,sans-Serif" font-size="10.00">/home/travis/build</text>
<text text-anchor="start" x="168.5" y="-298" font-family="Helvetica,sans-Serif" font-size="10.00">/AliceO2Group/AliceO2</text>
<text text-anchor="start" x="168.5" y="-287" font-family="Helvetica,sans-Serif" font-size="10.00">/Detectors/TPC/simulation</text>
<text text-anchor="middle" x="244" y="-276" font-family="Helvetica,sans-Serif" font-size="10.00">/include/TPCSimulation/Digitizer.h</text>
</a>
</g>
</g>
<!-- Node3&#45;&gt;Node4 -->
<g id="edge3" class="edge"><title>Node3&#45;&gt;Node4</title>
<path fill="none" stroke="midnightblue" d="M413.079,-355.516C381.618,-344.442 345.886,-331.864 315.4,-321.133"/>
<polygon fill="midnightblue" stroke="midnightblue" points="412.1,-358.882 422.695,-358.901 414.424,-352.279 412.1,-358.882"/>
</g>
<!-- Node5 -->
<g id="node5" class="node"><title>Node5</title>
<g id="a_node5"><a xlink:href="../../dd/d4b/TPC_2simulation_2include_2TPCSimulation_2DigitizerTask_8h.html" target="_top" xlink:title="/home/travis/build\l/AliceO2Group/AliceO2\l/Detectors/TPC/simulation\l/include/TPCSimulation/Digitizer\lTask.h">
<polygon fill="none" stroke="black" points="482,-168.5 482,-231.5 640,-231.5 640,-168.5 482,-168.5"/>
<text text-anchor="start" x="490" y="-219.5" font-family="Helvetica,sans-Serif" font-size="10.00">/home/travis/build</text>
<text text-anchor="start" x="490" y="-208.5" font-family="Helvetica,sans-Serif" font-size="10.00">/AliceO2Group/AliceO2</text>
<text text-anchor="start" x="490" y="-197.5" font-family="Helvetica,sans-Serif" font-size="10.00">/Detectors/TPC/simulation</text>
<text text-anchor="start" x="490" y="-186.5" font-family="Helvetica,sans-Serif" font-size="10.00">/include/TPCSimulation/Digitizer</text>
<text text-anchor="middle" x="561" y="-175.5" font-family="Helvetica,sans-Serif" font-size="10.00">Task.h</text>
</a>
</g>
</g>
<!-- Node3&#45;&gt;Node5 -->
<g id="edge14" class="edge"><title>Node3&#45;&gt;Node5</title>
<path fill="none" stroke="midnightblue" d="M587.682,-358.077C657.192,-347.912 804.449,-362.945 840,-322 901.614,-251.038 742.661,-220.259 640.079,-208.091"/>
<polygon fill="midnightblue" stroke="midnightblue" points="586.858,-354.669 577.618,-359.853 588.074,-361.562 586.858,-354.669"/>
</g>
<!-- Node11 -->
<g id="node11" class="node"><title>Node11</title>
<g id="a_node11"><a xlink:href="../../db/df6/TPCDriftTimeDigitizerSpec_8cxx.html" target="_top" xlink:title="/home/travis/build\l/AliceO2Group/AliceO2\l/Steer/DigitizerWorkflow\l/src/TPCDriftTimeDigitizerSpec.cxx">
<polygon fill="none" stroke="black" points="774,-79 774,-131 948,-131 948,-79 774,-79"/>
<text text-anchor="start" x="782" y="-119" font-family="Helvetica,sans-Serif" font-size="10.00">/home/travis/build</text>
<text text-anchor="start" x="782" y="-108" font-family="Helvetica,sans-Serif" font-size="10.00">/AliceO2Group/AliceO2</text>
<text text-anchor="start" x="782" y="-97" font-family="Helvetica,sans-Serif" font-size="10.00">/Steer/DigitizerWorkflow</text>
<text text-anchor="middle" x="861" y="-86" font-family="Helvetica,sans-Serif" font-size="10.00">/src/TPCDriftTimeDigitizerSpec.cxx</text>
</a>
</g>
</g>
<!-- Node3&#45;&gt;Node11 -->
<g id="edge17" class="edge"><title>Node3&#45;&gt;Node11</title>
<path fill="none" stroke="midnightblue" d="M587.915,-358.05C662.101,-347.572 821.299,-365.913 860,-322 907.11,-268.546 884.842,-175.456 870.229,-131.009"/>
<polygon fill="midnightblue" stroke="midnightblue" points="586.875,-354.677 577.61,-359.816 588.058,-361.577 586.875,-354.677"/>
</g>
<!-- Node13 -->
<g id="node13" class="node"><title>Node13</title>
<g id="a_node13"><a xlink:href="../../d3/d13/SimReaderSpec_8cxx.html" target="_top" xlink:title="/home/travis/build\l/AliceO2Group/AliceO2\l/Steer/DigitizerWorkflow\l/src/SimReaderSpec.cxx">
<polygon fill="none" stroke="black" points="346,-269 346,-321 472,-321 472,-269 346,-269"/>
<text text-anchor="start" x="354" y="-309" font-family="Helvetica,sans-Serif" font-size="10.00">/home/travis/build</text>
<text text-anchor="start" x="354" y="-298" font-family="Helvetica,sans-Serif" font-size="10.00">/AliceO2Group/AliceO2</text>
<text text-anchor="start" x="354" y="-287" font-family="Helvetica,sans-Serif" font-size="10.00">/Steer/DigitizerWorkflow</text>
<text text-anchor="middle" x="409" y="-276" font-family="Helvetica,sans-Serif" font-size="10.00">/src/SimReaderSpec.cxx</text>
</a>
</g>
</g>
<!-- Node3&#45;&gt;Node13 -->
<g id="edge16" class="edge"><title>Node3&#45;&gt;Node13</title>
<path fill="none" stroke="midnightblue" d="M462.259,-351.139C452.655,-341.196 442.267,-330.441 433.237,-321.092"/>
<polygon fill="midnightblue" stroke="midnightblue" points="459.95,-353.786 469.414,-358.547 464.984,-348.923 459.95,-353.786"/>
</g>
<!-- Node14 -->
<g id="node14" class="node"><title>Node14</title>
<g id="a_node14"><a xlink:href="../../d6/d0b/HitProcessingManager_8cxx.html" target="_top" xlink:title="/home/travis/build\l/AliceO2Group/AliceO2\l/Steer/src/HitProcessingManager.cxx">
<polygon fill="none" stroke="black" points="490,-274.5 490,-315.5 670,-315.5 670,-274.5 490,-274.5"/>
<text text-anchor="start" x="498" y="-303.5" font-family="Helvetica,sans-Serif" font-size="10.00">/home/travis/build</text>
<text text-anchor="start" x="498" y="-292.5" font-family="Helvetica,sans-Serif" font-size="10.00">/AliceO2Group/AliceO2</text>
<text text-anchor="middle" x="580" y="-281.5" font-family="Helvetica,sans-Serif" font-size="10.00">/Steer/src/HitProcessingManager.cxx</text>
</a>
</g>
</g>
<!-- Node3&#45;&gt;Node14 -->
<g id="edge18" class="edge"><title>Node3&#45;&gt;Node14</title>
<path fill="none" stroke="midnightblue" d="M526.001,-351.254C537.746,-339.237 550.663,-326.019 560.919,-315.525"/>
<polygon fill="midnightblue" stroke="midnightblue" points="523.361,-348.949 518.875,-358.547 528.367,-353.841 523.361,-348.949"/>
</g>
<!-- Node15 -->
<g id="node15" class="node"><title>Node15</title>
<g id="a_node15"><a xlink:href="../../d7/d6d/testHitProcessingManager_8cxx.html" target="_top" xlink:title="/home/travis/build\l/AliceO2Group/AliceO2\l/Steer/test/testHitProcessing\lManager.cxx">
<polygon fill="none" stroke="black" points="688.5,-269 688.5,-321 831.5,-321 831.5,-269 688.5,-269"/>
<text text-anchor="start" x="696.5" y="-309" font-family="Helvetica,sans-Serif" font-size="10.00">/home/travis/build</text>
<text text-anchor="start" x="696.5" y="-298" font-family="Helvetica,sans-Serif" font-size="10.00">/AliceO2Group/AliceO2</text>
<text text-anchor="start" x="696.5" y="-287" font-family="Helvetica,sans-Serif" font-size="10.00">/Steer/test/testHitProcessing</text>
<text text-anchor="middle" x="760" y="-276" font-family="Helvetica,sans-Serif" font-size="10.00">Manager.cxx</text>
</a>
</g>
</g>
<!-- Node3&#45;&gt;Node15 -->
<g id="edge19" class="edge"><title>Node3&#45;&gt;Node15</title>
<path fill="none" stroke="midnightblue" d="M579.603,-355.68C614.622,-344.095 654.685,-330.841 688.147,-319.771"/>
<polygon fill="midnightblue" stroke="midnightblue" points="578.264,-352.437 569.869,-358.901 580.462,-359.082 578.264,-352.437"/>
</g>
<!-- Node4&#45;&gt;Node5 -->
<g id="edge4" class="edge"><title>Node4&#45;&gt;Node5</title>
<path fill="none" stroke="midnightblue" d="M337.352,-266.613C383.231,-253.153 437.928,-237.106 481.745,-224.251"/>
<polygon fill="midnightblue" stroke="midnightblue" points="336.313,-263.27 327.703,-269.444 338.284,-269.987 336.313,-263.27"/>
</g>
<!-- Node6 -->
<g id="node6" class="node"><title>Node6</title>
<g id="a_node6"><a xlink:href="../../df/d46/TPC_2simulation_2src_2DigitizerTask_8cxx.html" target="_top" xlink:title="/home/travis/build\l/AliceO2Group/AliceO2\l/Detectors/TPC/simulation\l/src/DigitizerTask.cxx">
<polygon fill="none" stroke="black" points="214.5,-79 214.5,-131 347.5,-131 347.5,-79 214.5,-79"/>
<text text-anchor="start" x="222.5" y="-119" font-family="Helvetica,sans-Serif" font-size="10.00">/home/travis/build</text>
<text text-anchor="start" x="222.5" y="-108" font-family="Helvetica,sans-Serif" font-size="10.00">/AliceO2Group/AliceO2</text>
<text text-anchor="start" x="222.5" y="-97" font-family="Helvetica,sans-Serif" font-size="10.00">/Detectors/TPC/simulation</text>
<text text-anchor="middle" x="281" y="-86" font-family="Helvetica,sans-Serif" font-size="10.00">/src/DigitizerTask.cxx</text>
</a>
</g>
</g>
<!-- Node4&#45;&gt;Node6 -->
<g id="edge12" class="edge"><title>Node4&#45;&gt;Node6</title>
<path fill="none" stroke="midnightblue" d="M254.342,-258.919C256.721,-250.172 259.105,-240.783 261,-232 268.475,-197.359 274.418,-156.801 277.825,-131.253"/>
<polygon fill="midnightblue" stroke="midnightblue" points="250.897,-258.244 251.583,-268.817 257.64,-260.124 250.897,-258.244"/>
</g>
<!-- Node4&#45;&gt;Node11 -->
<g id="edge13" class="edge"><title>Node4&#45;&gt;Node11</title>
<path fill="none" stroke="midnightblue" d="M337.603,-268.065C475.582,-242.792 519.217,-275.352 648,-232 717.223,-208.698 788.438,-160.78 828.473,-131.216"/>
<polygon fill="midnightblue" stroke="midnightblue" points="336.672,-264.679 327.503,-269.987 337.98,-271.556 336.672,-264.679"/>
</g>
<!-- Node12 -->
<g id="node12" class="node"><title>Node12</title>
<g id="a_node12"><a xlink:href="../../d7/d0a/TPC_2simulation_2src_2Digitizer_8cxx.html" target="_top" xlink:title="/home/travis/build\l/AliceO2Group/AliceO2\l/Detectors/TPC/simulation\l/src/Digitizer.cxx">
<polygon fill="none" stroke="black" points="119.5,-174 119.5,-226 252.5,-226 252.5,-174 119.5,-174"/>
<text text-anchor="start" x="127.5" y="-214" font-family="Helvetica,sans-Serif" font-size="10.00">/home/travis/build</text>
<text text-anchor="start" x="127.5" y="-203" font-family="Helvetica,sans-Serif" font-size="10.00">/AliceO2Group/AliceO2</text>
<text text-anchor="start" x="127.5" y="-192" font-family="Helvetica,sans-Serif" font-size="10.00">/Detectors/TPC/simulation</text>
<text text-anchor="middle" x="186" y="-181" font-family="Helvetica,sans-Serif" font-size="10.00">/src/Digitizer.cxx</text>
</a>
</g>
</g>
<!-- Node4&#45;&gt;Node12 -->
<g id="edge11" class="edge"><title>Node4&#45;&gt;Node12</title>
<path fill="none" stroke="midnightblue" d="M222.724,-259.884C215.741,-248.688 208.114,-236.458 201.629,-226.06"/>
<polygon fill="midnightblue" stroke="midnightblue" points="219.89,-261.954 228.151,-268.587 225.829,-258.25 219.89,-261.954"/>
</g>
<!-- Node5&#45;&gt;Node6 -->
<g id="edge5" class="edge"><title>Node5&#45;&gt;Node6</title>
<path fill="none" stroke="midnightblue" d="M472.043,-170.046C436.261,-158.332 394.638,-144.618 357,-132 353.959,-130.98 350.851,-129.934 347.712,-128.874"/>
<polygon fill="midnightblue" stroke="midnightblue" points="471.379,-173.512 481.972,-173.295 473.556,-166.859 471.379,-173.512"/>
</g>
<!-- Node7 -->
<g id="node7" class="node"><title>Node7</title>
<g id="a_node7"><a xlink:href="../../d1/d7a/run__digi_8C.html" target="_top" xlink:title="/home/travis/build\l/AliceO2Group/AliceO2\l/macro/run_digi.C">
<polygon fill="none" stroke="black" points="502,-84.5 502,-125.5 620,-125.5 620,-84.5 502,-84.5"/>
<text text-anchor="start" x="510" y="-113.5" font-family="Helvetica,sans-Serif" font-size="10.00">/home/travis/build</text>
<text text-anchor="start" x="510" y="-102.5" font-family="Helvetica,sans-Serif" font-size="10.00">/AliceO2Group/AliceO2</text>
<text text-anchor="middle" x="561" y="-91.5" font-family="Helvetica,sans-Serif" font-size="10.00">/macro/run_digi.C</text>
</a>
</g>
</g>
<!-- Node5&#45;&gt;Node7 -->
<g id="edge6" class="edge"><title>Node5&#45;&gt;Node7</title>
<path fill="none" stroke="midnightblue" d="M561,-158.112C561,-146.807 561,-135.052 561,-125.575"/>
<polygon fill="midnightblue" stroke="midnightblue" points="557.5,-158.291 561,-168.291 564.5,-158.291 557.5,-158.291"/>
</g>
<!-- Node8 -->
<g id="node8" class="node"><title>Node8</title>
<g id="a_node8"><a xlink:href="../../d9/de3/run__digi__all_8C.html" target="_top" xlink:title="/home/travis/build\l/AliceO2Group/AliceO2\l/macro/run_digi_all.C">
<polygon fill="none" stroke="black" points="638,-84.5 638,-125.5 756,-125.5 756,-84.5 638,-84.5"/>
<text text-anchor="start" x="646" y="-113.5" font-family="Helvetica,sans-Serif" font-size="10.00">/home/travis/build</text>
<text text-anchor="start" x="646" y="-102.5" font-family="Helvetica,sans-Serif" font-size="10.00">/AliceO2Group/AliceO2</text>
<text text-anchor="middle" x="697" y="-91.5" font-family="Helvetica,sans-Serif" font-size="10.00">/macro/run_digi_all.C</text>
</a>
</g>
</g>
<!-- Node5&#45;&gt;Node8 -->
<g id="edge7" class="edge"><title>Node5&#45;&gt;Node8</title>
<path fill="none" stroke="midnightblue" d="M614.257,-162.582C632.706,-149.966 652.676,-136.31 668.375,-125.575"/>
<polygon fill="midnightblue" stroke="midnightblue" points="612.187,-159.757 605.908,-168.291 616.139,-165.535 612.187,-159.757"/>
</g>
<!-- Node9 -->
<g id="node9" class="node"><title>Node9</title>
<g id="a_node9"><a xlink:href="../../d3/db7/run__digi__tpc_8C.html" target="_top" xlink:title="/home/travis/build\l/AliceO2Group/AliceO2\l/macro/run_digi_tpc.C">
<polygon fill="none" stroke="black" points="366,-84.5 366,-125.5 484,-125.5 484,-84.5 366,-84.5"/>
<text text-anchor="start" x="374" y="-113.5" font-family="Helvetica,sans-Serif" font-size="10.00">/home/travis/build</text>
<text text-anchor="start" x="374" y="-102.5" font-family="Helvetica,sans-Serif" font-size="10.00">/AliceO2Group/AliceO2</text>
<text text-anchor="middle" x="425" y="-91.5" font-family="Helvetica,sans-Serif" font-size="10.00">/macro/run_digi_tpc.C</text>
</a>
</g>
</g>
<!-- Node5&#45;&gt;Node9 -->
<g id="edge8" class="edge"><title>Node5&#45;&gt;Node9</title>
<path fill="none" stroke="midnightblue" d="M507.743,-162.582C489.294,-149.966 469.324,-136.31 453.625,-125.575"/>
<polygon fill="midnightblue" stroke="midnightblue" points="505.861,-165.535 516.092,-168.291 509.813,-159.757 505.861,-165.535"/>
</g>
<!-- Node5&#45;&gt;Node11 -->
<g id="edge10" class="edge"><title>Node5&#45;&gt;Node11</title>
<path fill="none" stroke="midnightblue" d="M649.998,-171.411C691.311,-158.604 740.066,-143.49 780.296,-131.018"/>
<polygon fill="midnightblue" stroke="midnightblue" points="648.729,-168.14 640.214,-174.444 650.802,-174.826 648.729,-168.14"/>
</g>
<!-- Node10 -->
<g id="node10" class="node"><title>Node10</title>
<g id="a_node10"><a xlink:href="../../d3/d56/runTPC_8cxx.html" target="_top" xlink:title="/home/travis/build\l/AliceO2Group/AliceO2\l/run/runTPC.cxx">
<polygon fill="none" stroke="black" points="366,-0.5 366,-41.5 484,-41.5 484,-0.5 366,-0.5"/>
<text text-anchor="start" x="374" y="-29.5" font-family="Helvetica,sans-Serif" font-size="10.00">/home/travis/build</text>
<text text-anchor="start" x="374" y="-18.5" font-family="Helvetica,sans-Serif" font-size="10.00">/AliceO2Group/AliceO2</text>
<text text-anchor="middle" x="425" y="-7.5" font-family="Helvetica,sans-Serif" font-size="10.00">/run/runTPC.cxx</text>
</a>
</g>
</g>
<!-- Node9&#45;&gt;Node10 -->
<g id="edge9" class="edge"><title>Node9&#45;&gt;Node10</title>
<path fill="none" stroke="midnightblue" d="M425,-73.881C425,-63.1328 425,-51.309 425,-41.6671"/>
<polygon fill="midnightblue" stroke="midnightblue" points="421.5,-74.1501 425,-84.1501 428.5,-74.1501 421.5,-74.1501"/>
</g>
</g>
</svg>
        <g id="navigator" transform="translate(0 0)" fill="#404254">
                <rect fill="#f2f5e9" fill-opacity="0.5" stroke="#606060" stroke-width=".5" x="0" y="0" width="60" height="60"/>
                <use id="zoomplus" xlink:href="#zoomPlus" x="17" y="9" onmousedown="handleZoom(evt,'in')"/>
                <use id="zoomminus" xlink:href="#zoomMin" x="42" y="9" onmousedown="handleZoom(evt,'out')"/>
                <use id="reset" xlink:href="#resetDef" x="30" y="36" onmousedown="handleReset()"/>
                <g id="arrowUp" xlink:href="#dirArrow" transform="translate(30 24)" onmousedown="handlePan(0,-1)">
                  <use xlink:href="#rim" fill="#404040">
                        <set attributeName="fill" to="#808080" begin="arrowUp.mouseover" end="arrowUp.mouseout"/>
                  </use>
                  <path fill="none" stroke="white" stroke-width="1.5" d="M0,-3.0v7 M-2.5,-0.5L0,-3.0L2.5,-0.5"/>
                </g>
                <g id="arrowRight" xlink:href="#dirArrow" transform="rotate(90) translate(36 -43)" onmousedown="handlePan(1,0)">
                  <use xlink:href="#rim" fill="#404040">
                        <set attributeName="fill" to="#808080" begin="arrowRight.mouseover" end="arrowRight.mouseout"/>
                  </use>
                  <path fill="none" stroke="white" stroke-width="1.5" d="M0,-3.0v7 M-2.5,-0.5L0,-3.0L2.5,-0.5"/>
                </g>
                <g id="arrowDown" xlink:href="#dirArrow" transform="rotate(180) translate(-30 -48)" onmousedown="handlePan(0,1)">
                  <use xlink:href="#rim" fill="#404040">
                        <set attributeName="fill" to="#808080" begin="arrowDown.mouseover" end="arrowDown.mouseout"/>
                  </use>
                  <path fill="none" stroke="white" stroke-width="1.5" d="M0,-3.0v7 M-2.5,-0.5L0,-3.0L2.5,-0.5"/>
                </g>
                <g id="arrowLeft" xlink:href="#dirArrow" transform="rotate(270) translate(-36 17)" onmousedown="handlePan(-1,0)">
                  <use xlink:href="#rim" fill="#404040">
                        <set attributeName="fill" to="#808080" begin="arrowLeft.mouseover" end="arrowLeft.mouseout"/>
                  </use>
                  <path fill="none" stroke="white" stroke-width="1.5" d="M0,-3.0v7 M-2.5,-0.5L0,-3.0L2.5,-0.5"/>
                </g>
        </g>
        <svg viewBox="0 0 15 15" width="100%" height="30px" preserveAspectRatio="xMaxYMin meet">
         <g id="arrow_out" transform="scale(0.3 0.3)">
          <a xlink:href="InteractionSampler_8h__dep__incl_org.svg" target="_base">
           <rect id="button" ry="5" rx="5" y="6" x="6" height="38" width="38"
                fill="#f2f5e9" fill-opacity="0.5" stroke="#606060" stroke-width="1.0"/>
           <path id="arrow"
             d="M 11.500037,31.436501 C 11.940474,20.09759 22.043105,11.32322 32.158766,21.979434 L 37.068811,17.246167 C 37.068811,17.246167 37.088388,32 37.088388,32 L 22.160133,31.978069 C 22.160133,31.978069 26.997745,27.140456 26.997745,27.140456 C 18.528582,18.264221 13.291696,25.230495 11.500037,31.436501 z"
             style="fill:#404040;"/>
          </a>
         </g>
        </svg>
</svg>
