<?xml version="1.0" encoding="UTF-8" standalone="no"?>
<!DOCTYPE svg PUBLIC "-//W3C//DTD SVG 1.1//EN"
 "http://www.w3.org/Graphics/SVG/1.1/DTD/svg11.dtd">
<!-- Generated by graphviz version 2.36.0 (20140111.2315)
 -->
<!-- Title: /home/travis/build/AliceO2Group/AliceO2/Detectors/TPC/simulation/include/TPCSimulation/Point.h Pages: 1 -->
<svg width="1623pt" height="420pt"
 viewBox="0.00 0.00 1623.00 420.00" xmlns="http://www.w3.org/2000/svg" xmlns:xlink="http://www.w3.org/1999/xlink">
<g id="graph0" class="graph" transform="scale(1 1) rotate(0) translate(4 416)">
<title>/home/travis/build/AliceO2Group/AliceO2/Detectors/TPC/simulation/include/TPCSimulation/Point.h</title>
<!-- Node1 -->
<g id="node1" class="node"><title>Node1</title>
<polygon fill="#bfbfbf" stroke="black" points="1052.5,-359 1052.5,-411 1205.5,-411 1205.5,-359 1052.5,-359"/>
<text text-anchor="start" x="1060.5" y="-399" font-family="Helvetica,sans-Serif" font-size="10.00">/home/travis/build</text>
<text text-anchor="start" x="1060.5" y="-388" font-family="Helvetica,sans-Serif" font-size="10.00">/AliceO2Group/AliceO2</text>
<text text-anchor="start" x="1060.5" y="-377" font-family="Helvetica,sans-Serif" font-size="10.00">/Detectors/TPC/simulation</text>
<text text-anchor="middle" x="1129" y="-366" font-family="Helvetica,sans-Serif" font-size="10.00">/include/TPCSimulation/Point.h</text>
</g>
<!-- Node2 -->
<g id="node2" class="node"><title>Node2</title>
<g id="a_node2"><a xlink:href="../../de/d5b/CheckClusterShape_8C.html" target="_top" xlink:title="/home/travis/build\l/AliceO2Group/AliceO2\l/Detectors/ITSMFT/ITS\l/macros/test/CheckClusterShape.C">
<polygon fill="none" stroke="black" points="381.5,-269 381.5,-321 554.5,-321 554.5,-269 381.5,-269"/>
<text text-anchor="start" x="389.5" y="-309" font-family="Helvetica,sans-Serif" font-size="10.00">/home/travis/build</text>
<text text-anchor="start" x="389.5" y="-298" font-family="Helvetica,sans-Serif" font-size="10.00">/AliceO2Group/AliceO2</text>
<text text-anchor="start" x="389.5" y="-287" font-family="Helvetica,sans-Serif" font-size="10.00">/Detectors/ITSMFT/ITS</text>
<text text-anchor="middle" x="468" y="-276" font-family="Helvetica,sans-Serif" font-size="10.00">/macros/test/CheckClusterShape.C</text>
</a>
</g>
</g>
<!-- Node1&#45;&gt;Node2 -->
<g id="edge1" class="edge"><title>Node1&#45;&gt;Node2</title>
<path fill="none" stroke="midnightblue" d="M1042.32,-378.231C931.79,-370 735.08,-352.412 569,-322 564.28,-321.136 559.455,-320.172 554.598,-319.138"/>
<polygon fill="midnightblue" stroke="midnightblue" points="1042.19,-381.73 1052.42,-378.974 1042.7,-374.749 1042.19,-381.73"/>
</g>
<!-- Node3 -->
<g id="node3" class="node"><title>Node3</title>
<g id="a_node3"><a xlink:href="../../da/d96/TPC_2simulation_2include_2TPCSimulation_2Detector_8h.html" target="_top" xlink:title="/home/travis/build\l/AliceO2Group/AliceO2\l/Detectors/TPC/simulation\l/include/TPCSimulation/Detector.h">
<polygon fill="none" stroke="black" points="611,-269 611,-321 779,-321 779,-269 611,-269"/>
<text text-anchor="start" x="619" y="-309" font-family="Helvetica,sans-Serif" font-size="10.00">/home/travis/build</text>
<text text-anchor="start" x="619" y="-298" font-family="Helvetica,sans-Serif" font-size="10.00">/AliceO2Group/AliceO2</text>
<text text-anchor="start" x="619" y="-287" font-family="Helvetica,sans-Serif" font-size="10.00">/Detectors/TPC/simulation</text>
<text text-anchor="middle" x="695" y="-276" font-family="Helvetica,sans-Serif" font-size="10.00">/include/TPCSimulation/Detector.h</text>
</a>
</g>
</g>
<!-- Node1&#45;&gt;Node3 -->
<g id="edge2" class="edge"><title>Node1&#45;&gt;Node3</title>
<path fill="none" stroke="midnightblue" d="M1042.32,-366.425C965.861,-350.921 855.109,-328.465 779.352,-313.104"/>
<polygon fill="midnightblue" stroke="midnightblue" points="1041.91,-369.913 1052.41,-368.47 1043.3,-363.052 1041.91,-369.913"/>
</g>
<!-- Node5 -->
<g id="node5" class="node"><title>Node5</title>
<g id="a_node5"><a xlink:href="../../d2/d2c/TPC_2simulation_2src_2Detector_8cxx.html" target="_top" xlink:title="/home/travis/build\l/AliceO2Group/AliceO2\l/Detectors/TPC/simulation\l/src/Detector.cxx">
<polygon fill="none" stroke="black" points="-0.5,-174 -0.5,-226 132.5,-226 132.5,-174 -0.5,-174"/>
<text text-anchor="start" x="7.5" y="-214" font-family="Helvetica,sans-Serif" font-size="10.00">/home/travis/build</text>
<text text-anchor="start" x="7.5" y="-203" font-family="Helvetica,sans-Serif" font-size="10.00">/AliceO2Group/AliceO2</text>
<text text-anchor="start" x="7.5" y="-192" font-family="Helvetica,sans-Serif" font-size="10.00">/Detectors/TPC/simulation</text>
<text text-anchor="middle" x="66" y="-181" font-family="Helvetica,sans-Serif" font-size="10.00">/src/Detector.cxx</text>
</a>
</g>
</g>
<!-- Node1&#45;&gt;Node5 -->
<g id="edge22" class="edge"><title>Node1&#45;&gt;Node5</title>
<path fill="none" stroke="midnightblue" d="M1042.18,-382.154C912.225,-378.006 674.598,-364.654 602,-322 576.475,-307.003 588.76,-282.589 563,-268 481.296,-221.727 233.288,-253.982 142,-232 135.489,-230.432 128.807,-228.395 122.236,-226.114"/>
<polygon fill="midnightblue" stroke="midnightblue" points="1042.4,-385.662 1052.5,-382.471 1042.61,-378.665 1042.4,-385.662"/>
</g>
<!-- Node12 -->
<g id="node12" class="node"><title>Node12</title>
<g id="a_node12"><a xlink:href="../../de/d92/TPC_2simulation_2include_2TPCSimulation_2Digitizer_8h.html" target="_top" xlink:title="/home/travis/build\l/AliceO2Group/AliceO2\l/Detectors/TPC/simulation\l/include/TPCSimulation/Digitizer.h">
<polygon fill="none" stroke="black" points="1045.5,-269 1045.5,-321 1212.5,-321 1212.5,-269 1045.5,-269"/>
<text text-anchor="start" x="1053.5" y="-309" font-family="Helvetica,sans-Serif" font-size="10.00">/home/travis/build</text>
<text text-anchor="start" x="1053.5" y="-298" font-family="Helvetica,sans-Serif" font-size="10.00">/AliceO2Group/AliceO2</text>
<text text-anchor="start" x="1053.5" y="-287" font-family="Helvetica,sans-Serif" font-size="10.00">/Detectors/TPC/simulation</text>
<text text-anchor="middle" x="1129" y="-276" font-family="Helvetica,sans-Serif" font-size="10.00">/include/TPCSimulation/Digitizer.h</text>
</a>
</g>
</g>
<!-- Node1&#45;&gt;Node12 -->
<g id="edge11" class="edge"><title>Node1&#45;&gt;Node12</title>
<path fill="none" stroke="midnightblue" d="M1129,-348.489C1129,-339.309 1129,-329.616 1129,-321.092"/>
<polygon fill="midnightblue" stroke="midnightblue" points="1125.5,-348.547 1129,-358.547 1132.5,-348.547 1125.5,-348.547"/>
</g>
<!-- Node14 -->
<g id="node14" class="node"><title>Node14</title>
<g id="a_node14"><a xlink:href="../../df/d46/TPC_2simulation_2src_2DigitizerTask_8cxx.html" target="_top" xlink:title="/home/travis/build\l/AliceO2Group/AliceO2\l/Detectors/TPC/simulation\l/src/DigitizerTask.cxx">
<polygon fill="none" stroke="black" points="832.5,-79 832.5,-131 965.5,-131 965.5,-79 832.5,-79"/>
<text text-anchor="start" x="840.5" y="-119" font-family="Helvetica,sans-Serif" font-size="10.00">/home/travis/build</text>
<text text-anchor="start" x="840.5" y="-108" font-family="Helvetica,sans-Serif" font-size="10.00">/AliceO2Group/AliceO2</text>
<text text-anchor="start" x="840.5" y="-97" font-family="Helvetica,sans-Serif" font-size="10.00">/Detectors/TPC/simulation</text>
<text text-anchor="middle" x="899" y="-86" font-family="Helvetica,sans-Serif" font-size="10.00">/src/DigitizerTask.cxx</text>
</a>
</g>
</g>
<!-- Node1&#45;&gt;Node14 -->
<g id="edge24" class="edge"><title>Node1&#45;&gt;Node14</title>
<path fill="none" stroke="midnightblue" d="M1074.34,-353.057C1060.94,-344.046 1047.24,-333.497 1036,-322 1005.66,-290.959 941.761,-181.358 913.254,-131.288"/>
<polygon fill="midnightblue" stroke="midnightblue" points="1072.78,-356.22 1083.07,-358.751 1076.61,-350.357 1072.78,-356.22"/>
</g>
<!-- Node18 -->
<g id="node18" class="node"><title>Node18</title>
<g id="a_node18"><a xlink:href="../../db/df6/TPCDriftTimeDigitizerSpec_8cxx.html" target="_top" xlink:title="/home/travis/build\l/AliceO2Group/AliceO2\l/Steer/DigitizerWorkflow\l/src/TPCDriftTimeDigitizerSpec.cxx">
<polygon fill="none" stroke="black" points="1392,-79 1392,-131 1566,-131 1566,-79 1392,-79"/>
<text text-anchor="start" x="1400" y="-119" font-family="Helvetica,sans-Serif" font-size="10.00">/home/travis/build</text>
<text text-anchor="start" x="1400" y="-108" font-family="Helvetica,sans-Serif" font-size="10.00">/AliceO2Group/AliceO2</text>
<text text-anchor="start" x="1400" y="-97" font-family="Helvetica,sans-Serif" font-size="10.00">/Steer/DigitizerWorkflow</text>
<text text-anchor="middle" x="1479" y="-86" font-family="Helvetica,sans-Serif" font-size="10.00">/src/TPCDriftTimeDigitizerSpec.cxx</text>
</a>
</g>
</g>
<!-- Node1&#45;&gt;Node18 -->
<g id="edge27" class="edge"><title>Node1&#45;&gt;Node18</title>
<path fill="none" stroke="midnightblue" d="M1187.22,-352.968C1199.64,-344.255 1211.78,-333.865 1221,-322 1265.58,-264.603 1223.43,-218.18 1276,-168 1280.58,-163.627 1338.8,-146.065 1391.72,-130.744"/>
<polygon fill="midnightblue" stroke="midnightblue" points="1184.97,-350.262 1178.6,-358.73 1188.86,-356.081 1184.97,-350.262"/>
</g>
<!-- Node19 -->
<g id="node19" class="node"><title>Node19</title>
<g id="a_node19"><a xlink:href="../../d7/d0a/TPC_2simulation_2src_2Digitizer_8cxx.html" target="_top" xlink:title="/home/travis/build\l/AliceO2Group/AliceO2\l/Detectors/TPC/simulation\l/src/Digitizer.cxx">
<polygon fill="none" stroke="black" points="1285.5,-174 1285.5,-226 1418.5,-226 1418.5,-174 1285.5,-174"/>
<text text-anchor="start" x="1293.5" y="-214" font-family="Helvetica,sans-Serif" font-size="10.00">/home/travis/build</text>
<text text-anchor="start" x="1293.5" y="-203" font-family="Helvetica,sans-Serif" font-size="10.00">/AliceO2Group/AliceO2</text>
<text text-anchor="start" x="1293.5" y="-192" font-family="Helvetica,sans-Serif" font-size="10.00">/Detectors/TPC/simulation</text>
<text text-anchor="middle" x="1352" y="-181" font-family="Helvetica,sans-Serif" font-size="10.00">/src/Digitizer.cxx</text>
</a>
</g>
</g>
<!-- Node1&#45;&gt;Node19 -->
<g id="edge23" class="edge"><title>Node1&#45;&gt;Node19</title>
<path fill="none" stroke="midnightblue" d="M1215.08,-355.757C1234.72,-346.87 1254.61,-335.703 1271,-322 1287.83,-307.935 1319.05,-257.356 1337.43,-226.218"/>
<polygon fill="midnightblue" stroke="midnightblue" points="1213.55,-352.605 1205.79,-359.809 1216.35,-359.022 1213.55,-352.605"/>
</g>
<!-- Node20 -->
<g id="node20" class="node"><title>Node20</title>
<g id="a_node20"><a xlink:href="../../d3/df4/Point_8cxx.html" target="_top" xlink:title="/home/travis/build\l/AliceO2Group/AliceO2\l/Detectors/TPC/simulation\l/src/Point.cxx">
<polygon fill="none" stroke="black" points="1323.5,-269 1323.5,-321 1456.5,-321 1456.5,-269 1323.5,-269"/>
<text text-anchor="start" x="1331.5" y="-309" font-family="Helvetica,sans-Serif" font-size="10.00">/home/travis/build</text>
<text text-anchor="start" x="1331.5" y="-298" font-family="Helvetica,sans-Serif" font-size="10.00">/AliceO2Group/AliceO2</text>
<text text-anchor="start" x="1331.5" y="-287" font-family="Helvetica,sans-Serif" font-size="10.00">/Detectors/TPC/simulation</text>
<text text-anchor="middle" x="1390" y="-276" font-family="Helvetica,sans-Serif" font-size="10.00">/src/Point.cxx</text>
</a>
</g>
</g>
<!-- Node1&#45;&gt;Node20 -->
<g id="edge25" class="edge"><title>Node1&#45;&gt;Node20</title>
<path fill="none" stroke="midnightblue" d="M1213.35,-355.559C1249.03,-343.531 1289.98,-329.722 1323.47,-318.431"/>
<polygon fill="midnightblue" stroke="midnightblue" points="1211.8,-352.389 1203.44,-358.901 1214.04,-359.022 1211.8,-352.389"/>
</g>
<!-- Node21 -->
<g id="node21" class="node"><title>Node21</title>
<g id="a_node21"><a xlink:href="../../dd/dd7/testTPCSimulation_8cxx.html" target="_top" xlink:title="This task tests several small components of the TPC simulation. ">
<polygon fill="none" stroke="black" points="1475,-269 1475,-321 1615,-321 1615,-269 1475,-269"/>
<text text-anchor="start" x="1483" y="-309" font-family="Helvetica,sans-Serif" font-size="10.00">/home/travis/build</text>
<text text-anchor="start" x="1483" y="-298" font-family="Helvetica,sans-Serif" font-size="10.00">/AliceO2Group/AliceO2</text>
<text text-anchor="start" x="1483" y="-287" font-family="Helvetica,sans-Serif" font-size="10.00">/Detectors/TPC/simulation</text>
<text text-anchor="middle" x="1545" y="-276" font-family="Helvetica,sans-Serif" font-size="10.00">/test/testTPCSimulation.cxx</text>
</a>
</g>
</g>
<!-- Node1&#45;&gt;Node21 -->
<g id="edge26" class="edge"><title>Node1&#45;&gt;Node21</title>
<path fill="none" stroke="midnightblue" d="M1215.96,-371.182C1284.2,-360.349 1381.32,-343.219 1465,-322 1468.26,-321.174 1471.57,-320.287 1474.91,-319.356"/>
<polygon fill="midnightblue" stroke="midnightblue" points="1215.02,-367.787 1205.68,-372.801 1216.11,-374.702 1215.02,-367.787"/>
</g>
<!-- Node4 -->
<g id="node4" class="node"><title>Node4</title>
<g id="a_node4"><a xlink:href="../../d3/d85/Detectors_2EMCAL_2testsimulation_2run__sim__emcal_8C.html" target="_top" xlink:title="/home/travis/build\l/AliceO2Group/AliceO2\l/Detectors/EMCAL/testsimulation\l/run_sim_emcal.C">
<polygon fill="none" stroke="black" points="151,-174 151,-226 315,-226 315,-174 151,-174"/>
<text text-anchor="start" x="159" y="-214" font-family="Helvetica,sans-Serif" font-size="10.00">/home/travis/build</text>
<text text-anchor="start" x="159" y="-203" font-family="Helvetica,sans-Serif" font-size="10.00">/AliceO2Group/AliceO2</text>
<text text-anchor="start" x="159" y="-192" font-family="Helvetica,sans-Serif" font-size="10.00">/Detectors/EMCAL/testsimulation</text>
<text text-anchor="middle" x="233" y="-181" font-family="Helvetica,sans-Serif" font-size="10.00">/run_sim_emcal.C</text>
</a>
</g>
</g>
<!-- Node3&#45;&gt;Node4 -->
<g id="edge3" class="edge"><title>Node3&#45;&gt;Node4</title>
<path fill="none" stroke="midnightblue" d="M600.884,-268.785C599.582,-268.516 598.287,-268.254 597,-268 476.941,-244.26 443.169,-259.867 324,-232 316.849,-230.328 309.468,-228.315 302.148,-226.127"/>
<polygon fill="midnightblue" stroke="midnightblue" points="600.453,-272.272 610.966,-270.96 601.929,-265.429 600.453,-272.272"/>
</g>
<!-- Node3&#45;&gt;Node5 -->
<g id="edge4" class="edge"><title>Node3&#45;&gt;Node5</title>
<path fill="none" stroke="midnightblue" d="M600.827,-268.676C599.545,-268.442 598.269,-268.217 597,-268 397.041,-233.852 339.367,-278.863 142,-232 135.345,-230.42 128.514,-228.342 121.806,-226.01"/>
<polygon fill="midnightblue" stroke="midnightblue" points="600.266,-272.132 610.752,-270.616 601.609,-265.262 600.266,-272.132"/>
</g>
<!-- Node6 -->
<g id="node6" class="node"><title>Node6</title>
<g id="a_node6"><a xlink:href="../../d7/d11/o2__sim__tpc_8cxx.html" target="_top" xlink:title="/home/travis/build\l/AliceO2Group/AliceO2\l/Framework/TestWorkflows\l/src/o2_sim_tpc.cxx">
<polygon fill="none" stroke="black" points="333.5,-174 333.5,-226 470.5,-226 470.5,-174 333.5,-174"/>
<text text-anchor="start" x="341.5" y="-214" font-family="Helvetica,sans-Serif" font-size="10.00">/home/travis/build</text>
<text text-anchor="start" x="341.5" y="-203" font-family="Helvetica,sans-Serif" font-size="10.00">/AliceO2Group/AliceO2</text>
<text text-anchor="start" x="341.5" y="-192" font-family="Helvetica,sans-Serif" font-size="10.00">/Framework/TestWorkflows</text>
<text text-anchor="middle" x="402" y="-181" font-family="Helvetica,sans-Serif" font-size="10.00">/src/o2_sim_tpc.cxx</text>
</a>
</g>
</g>
<!-- Node3&#45;&gt;Node6 -->
<g id="edge5" class="edge"><title>Node3&#45;&gt;Node6</title>
<path fill="none" stroke="midnightblue" d="M600.949,-269.024C563.108,-258.419 519.225,-245.415 480,-232 474.623,-230.161 469.074,-228.163 463.53,-226.097"/>
<polygon fill="midnightblue" stroke="midnightblue" points="600.368,-272.496 610.941,-271.808 602.247,-265.752 600.368,-272.496"/>
</g>
<!-- Node7 -->
<g id="node7" class="node"><title>Node7</title>
<g id="a_node7"><a xlink:href="../../d9/d71/run__sim_8C.html" target="_top" xlink:title="/home/travis/build\l/AliceO2Group/AliceO2\l/macro/run_sim.C">
<polygon fill="none" stroke="black" points="489,-179.5 489,-220.5 607,-220.5 607,-179.5 489,-179.5"/>
<text text-anchor="start" x="497" y="-208.5" font-family="Helvetica,sans-Serif" font-size="10.00">/home/travis/build</text>
<text text-anchor="start" x="497" y="-197.5" font-family="Helvetica,sans-Serif" font-size="10.00">/AliceO2Group/AliceO2</text>
<text text-anchor="middle" x="548" y="-186.5" font-family="Helvetica,sans-Serif" font-size="10.00">/macro/run_sim.C</text>
</a>
</g>
</g>
<!-- Node3&#45;&gt;Node7 -->
<g id="edge6" class="edge"><title>Node3&#45;&gt;Node7</title>
<path fill="none" stroke="midnightblue" d="M646.561,-263.355C624.297,-249.27 598.55,-232.98 578.955,-220.584"/>
<polygon fill="midnightblue" stroke="midnightblue" points="644.898,-266.444 655.22,-268.833 648.64,-260.529 644.898,-266.444"/>
</g>
<!-- Node8 -->
<g id="node8" class="node"><title>Node8</title>
<g id="a_node8"><a xlink:href="../../d3/dcc/run__sim__pythia8hi_8C.html" target="_top" xlink:title="/home/travis/build\l/AliceO2Group/AliceO2\l/macro/run_sim_pythia8hi.C">
<polygon fill="none" stroke="black" points="625.5,-179.5 625.5,-220.5 764.5,-220.5 764.5,-179.5 625.5,-179.5"/>
<text text-anchor="start" x="633.5" y="-208.5" font-family="Helvetica,sans-Serif" font-size="10.00">/home/travis/build</text>
<text text-anchor="start" x="633.5" y="-197.5" font-family="Helvetica,sans-Serif" font-size="10.00">/AliceO2Group/AliceO2</text>
<text text-anchor="middle" x="695" y="-186.5" font-family="Helvetica,sans-Serif" font-size="10.00">/macro/run_sim_pythia8hi.C</text>
</a>
</g>
</g>
<!-- Node3&#45;&gt;Node8 -->
<g id="edge7" class="edge"><title>Node3&#45;&gt;Node8</title>
<path fill="none" stroke="midnightblue" d="M695,-258.258C695,-245.535 695,-231.676 695,-220.78"/>
<polygon fill="midnightblue" stroke="midnightblue" points="691.5,-258.587 695,-268.587 698.5,-258.587 691.5,-258.587"/>
</g>
<!-- Node9 -->
<g id="node9" class="node"><title>Node9</title>
<g id="a_node9"><a xlink:href="../../dc/d6a/run__sim__tof_8C.html" target="_top" xlink:title="/home/travis/build\l/AliceO2Group/AliceO2\l/macro/run_sim_tof.C">
<polygon fill="none" stroke="black" points="783,-179.5 783,-220.5 901,-220.5 901,-179.5 783,-179.5"/>
<text text-anchor="start" x="791" y="-208.5" font-family="Helvetica,sans-Serif" font-size="10.00">/home/travis/build</text>
<text text-anchor="start" x="791" y="-197.5" font-family="Helvetica,sans-Serif" font-size="10.00">/AliceO2Group/AliceO2</text>
<text text-anchor="middle" x="842" y="-186.5" font-family="Helvetica,sans-Serif" font-size="10.00">/macro/run_sim_tof.C</text>
</a>
</g>
</g>
<!-- Node3&#45;&gt;Node9 -->
<g id="edge8" class="edge"><title>Node3&#45;&gt;Node9</title>
<path fill="none" stroke="midnightblue" d="M743.439,-263.355C765.703,-249.27 791.45,-232.98 811.045,-220.584"/>
<polygon fill="midnightblue" stroke="midnightblue" points="741.36,-260.529 734.78,-268.833 745.102,-266.444 741.36,-260.529"/>
</g>
<!-- Node10 -->
<g id="node10" class="node"><title>Node10</title>
<g id="a_node10"><a xlink:href="../../d7/d08/run__sim__tpc_8C.html" target="_top" xlink:title="/home/travis/build\l/AliceO2Group/AliceO2\l/macro/run_sim_tpc.C">
<polygon fill="none" stroke="black" points="696,-84.5 696,-125.5 814,-125.5 814,-84.5 696,-84.5"/>
<text text-anchor="start" x="704" y="-113.5" font-family="Helvetica,sans-Serif" font-size="10.00">/home/travis/build</text>
<text text-anchor="start" x="704" y="-102.5" font-family="Helvetica,sans-Serif" font-size="10.00">/AliceO2Group/AliceO2</text>
<text text-anchor="middle" x="755" y="-91.5" font-family="Helvetica,sans-Serif" font-size="10.00">/macro/run_sim_tpc.C</text>
</a>
</g>
</g>
<!-- Node3&#45;&gt;Node10 -->
<g id="edge9" class="edge"><title>Node3&#45;&gt;Node10</title>
<path fill="none" stroke="midnightblue" d="M789.131,-278.352C839.746,-267.813 894.837,-252.153 910,-232 927.101,-209.27 925.947,-191.554 910,-168 908.406,-165.645 850.469,-142.86 805.897,-125.589"/>
<polygon fill="midnightblue" stroke="midnightblue" points="788.184,-274.973 779.08,-280.392 789.577,-281.833 788.184,-274.973"/>
</g>
<!-- Node11 -->
<g id="node11" class="node"><title>Node11</title>
<g id="a_node11"><a xlink:href="../../d3/d56/runTPC_8cxx.html" target="_top" xlink:title="/home/travis/build\l/AliceO2Group/AliceO2\l/run/runTPC.cxx">
<polygon fill="none" stroke="black" points="840,-0.5 840,-41.5 958,-41.5 958,-0.5 840,-0.5"/>
<text text-anchor="start" x="848" y="-29.5" font-family="Helvetica,sans-Serif" font-size="10.00">/home/travis/build</text>
<text text-anchor="start" x="848" y="-18.5" font-family="Helvetica,sans-Serif" font-size="10.00">/AliceO2Group/AliceO2</text>
<text text-anchor="middle" x="899" y="-7.5" font-family="Helvetica,sans-Serif" font-size="10.00">/run/runTPC.cxx</text>
</a>
</g>
</g>
<!-- Node10&#45;&gt;Node11 -->
<g id="edge10" class="edge"><title>Node10&#45;&gt;Node11</title>
<path fill="none" stroke="midnightblue" d="M798.273,-79.3582C819.39,-67.3336 844.45,-53.0634 864.291,-41.765"/>
<polygon fill="midnightblue" stroke="midnightblue" points="796.449,-76.3691 789.492,-84.359 799.913,-82.452 796.449,-76.3691"/>
</g>
<!-- Node13 -->
<g id="node13" class="node"><title>Node13</title>
<g id="a_node13"><a xlink:href="../../dd/d4b/TPC_2simulation_2include_2TPCSimulation_2DigitizerTask_8h.html" target="_top" xlink:title="/home/travis/build\l/AliceO2Group/AliceO2\l/Detectors/TPC/simulation\l/include/TPCSimulation/Digitizer\lTask.h">
<polygon fill="none" stroke="black" points="1033,-168.5 1033,-231.5 1191,-231.5 1191,-168.5 1033,-168.5"/>
<text text-anchor="start" x="1041" y="-219.5" font-family="Helvetica,sans-Serif" font-size="10.00">/home/travis/build</text>
<text text-anchor="start" x="1041" y="-208.5" font-family="Helvetica,sans-Serif" font-size="10.00">/AliceO2Group/AliceO2</text>
<text text-anchor="start" x="1041" y="-197.5" font-family="Helvetica,sans-Serif" font-size="10.00">/Detectors/TPC/simulation</text>
<text text-anchor="start" x="1041" y="-186.5" font-family="Helvetica,sans-Serif" font-size="10.00">/include/TPCSimulation/Digitizer</text>
<text text-anchor="middle" x="1112" y="-175.5" font-family="Helvetica,sans-Serif" font-size="10.00">Task.h</text>
</a>
</g>
</g>
<!-- Node12&#45;&gt;Node13 -->
<g id="edge12" class="edge"><title>Node12&#45;&gt;Node13</title>
<path fill="none" stroke="midnightblue" d="M1122.52,-258.541C1120.9,-249.691 1119.18,-240.274 1117.61,-231.677"/>
<polygon fill="midnightblue" stroke="midnightblue" points="1119.11,-259.38 1124.35,-268.587 1126,-258.121 1119.11,-259.38"/>
</g>
<!-- Node12&#45;&gt;Node14 -->
<g id="edge20" class="edge"><title>Node12&#45;&gt;Node14</title>
<path fill="none" stroke="midnightblue" d="M1067.33,-263.766C1052.22,-254.751 1036.74,-244.023 1024,-232 999.074,-208.484 1004.55,-192.898 981,-168 968.124,-154.385 952.015,-141.508 937.492,-131.054"/>
<polygon fill="midnightblue" stroke="midnightblue" points="1065.76,-266.897 1076.16,-268.873 1069.26,-260.837 1065.76,-266.897"/>
</g>
<!-- Node12&#45;&gt;Node18 -->
<g id="edge21" class="edge"><title>Node12&#45;&gt;Node18</title>
<path fill="none" stroke="midnightblue" d="M1168.35,-262.146C1178.8,-252.902 1189.74,-242.466 1199,-232 1221.87,-206.143 1214.71,-187.777 1243,-168 1295.66,-131.19 1320.88,-148.398 1383,-132 1385.92,-131.229 1388.89,-130.441 1391.89,-129.644"/>
<polygon fill="midnightblue" stroke="midnightblue" points="1165.75,-259.766 1160.49,-268.963 1170.34,-265.054 1165.75,-259.766"/>
</g>
<!-- Node12&#45;&gt;Node19 -->
<g id="edge19" class="edge"><title>Node12&#45;&gt;Node19</title>
<path fill="none" stroke="midnightblue" d="M1198.58,-264.982C1228.47,-252.515 1263.07,-238.086 1291.84,-226.089"/>
<polygon fill="midnightblue" stroke="midnightblue" points="1196.94,-261.876 1189.05,-268.955 1199.63,-268.337 1196.94,-261.876"/>
</g>
<!-- Node13&#45;&gt;Node14 -->
<g id="edge13" class="edge"><title>Node13&#45;&gt;Node14</title>
<path fill="none" stroke="midnightblue" d="M1032.73,-164.388C1007.36,-153.312 979.782,-141.271 956.297,-131.017"/>
<polygon fill="midnightblue" stroke="midnightblue" points="1031.4,-167.626 1041.96,-168.42 1034.2,-161.21 1031.4,-167.626"/>
</g>
<!-- Node15 -->
<g id="node15" class="node"><title>Node15</title>
<g id="a_node15"><a xlink:href="../../d1/d7a/run__digi_8C.html" target="_top" xlink:title="/home/travis/build\l/AliceO2Group/AliceO2\l/macro/run_digi.C">
<polygon fill="none" stroke="black" points="1120,-84.5 1120,-125.5 1238,-125.5 1238,-84.5 1120,-84.5"/>
<text text-anchor="start" x="1128" y="-113.5" font-family="Helvetica,sans-Serif" font-size="10.00">/home/travis/build</text>
<text text-anchor="start" x="1128" y="-102.5" font-family="Helvetica,sans-Serif" font-size="10.00">/AliceO2Group/AliceO2</text>
<text text-anchor="middle" x="1179" y="-91.5" font-family="Helvetica,sans-Serif" font-size="10.00">/macro/run_digi.C</text>
</a>
</g>
</g>
<!-- Node13&#45;&gt;Node15 -->
<g id="edge14" class="edge"><title>Node13&#45;&gt;Node15</title>
<path fill="none" stroke="midnightblue" d="M1140.21,-159.839C1148.73,-148.012 1157.72,-135.536 1164.9,-125.575"/>
<polygon fill="midnightblue" stroke="midnightblue" points="1137.13,-158.131 1134.12,-168.291 1142.81,-162.223 1137.13,-158.131"/>
</g>
<!-- Node16 -->
<g id="node16" class="node"><title>Node16</title>
<g id="a_node16"><a xlink:href="../../d9/de3/run__digi__all_8C.html" target="_top" xlink:title="/home/travis/build\l/AliceO2Group/AliceO2\l/macro/run_digi_all.C">
<polygon fill="none" stroke="black" points="1256,-84.5 1256,-125.5 1374,-125.5 1374,-84.5 1256,-84.5"/>
<text text-anchor="start" x="1264" y="-113.5" font-family="Helvetica,sans-Serif" font-size="10.00">/home/travis/build</text>
<text text-anchor="start" x="1264" y="-102.5" font-family="Helvetica,sans-Serif" font-size="10.00">/AliceO2Group/AliceO2</text>
<text text-anchor="middle" x="1315" y="-91.5" font-family="Helvetica,sans-Serif" font-size="10.00">/macro/run_digi_all.C</text>
</a>
</g>
</g>
<!-- Node13&#45;&gt;Node16 -->
<g id="edge15" class="edge"><title>Node13&#45;&gt;Node16</title>
<path fill="none" stroke="midnightblue" d="M1187.88,-164.236C1216.36,-151.191 1247.71,-136.827 1272.15,-125.629"/>
<polygon fill="midnightblue" stroke="midnightblue" points="1186.38,-161.072 1178.75,-168.42 1189.3,-167.436 1186.38,-161.072"/>
</g>
<!-- Node17 -->
<g id="node17" class="node"><title>Node17</title>
<g id="a_node17"><a xlink:href="../../d3/db7/run__digi__tpc_8C.html" target="_top" xlink:title="/home/travis/build\l/AliceO2Group/AliceO2\l/macro/run_digi_tpc.C">
<polygon fill="none" stroke="black" points="984,-84.5 984,-125.5 1102,-125.5 1102,-84.5 984,-84.5"/>
<text text-anchor="start" x="992" y="-113.5" font-family="Helvetica,sans-Serif" font-size="10.00">/home/travis/build</text>
<text text-anchor="start" x="992" y="-102.5" font-family="Helvetica,sans-Serif" font-size="10.00">/AliceO2Group/AliceO2</text>
<text text-anchor="middle" x="1043" y="-91.5" font-family="Helvetica,sans-Serif" font-size="10.00">/macro/run_digi_tpc.C</text>
</a>
</g>
</g>
<!-- Node13&#45;&gt;Node17 -->
<g id="edge16" class="edge"><title>Node13&#45;&gt;Node17</title>
<path fill="none" stroke="midnightblue" d="M1083.2,-160.183C1074.35,-148.255 1064.99,-135.633 1057.52,-125.575"/>
<polygon fill="midnightblue" stroke="midnightblue" points="1080.45,-162.345 1089.22,-168.291 1086.07,-158.174 1080.45,-162.345"/>
</g>
<!-- Node13&#45;&gt;Node18 -->
<g id="edge18" class="edge"><title>Node13&#45;&gt;Node18</title>
<path fill="none" stroke="midnightblue" d="M1201.16,-169.04C1202.45,-168.686 1203.73,-168.339 1205,-168 1282.99,-147.199 1304.45,-150.56 1383,-132 1385.94,-131.305 1388.93,-130.584 1391.94,-129.843"/>
<polygon fill="midnightblue" stroke="midnightblue" points="1199.86,-165.772 1191.2,-171.879 1201.78,-172.504 1199.86,-165.772"/>
</g>
<!-- Node17&#45;&gt;Node11 -->
<g id="edge17" class="edge"><title>Node17&#45;&gt;Node11</title>
<path fill="none" stroke="midnightblue" d="M999.727,-79.3582C978.61,-67.3336 953.55,-53.0634 933.709,-41.765"/>
<polygon fill="midnightblue" stroke="midnightblue" points="998.087,-82.452 1008.51,-84.359 1001.55,-76.3691 998.087,-82.452"/>
</g>
</g>
</svg>
