<?xml version="1.0" encoding="UTF-8" standalone="no"?>
<!DOCTYPE svg PUBLIC "-//W3C//DTD SVG 1.1//EN"
 "http://www.w3.org/Graphics/SVG/1.1/DTD/svg11.dtd">
<!-- Generated by graphviz version 2.36.0 (20140111.2315)
 -->
<!-- Title: o2::utilities::DataPublisherDevice Pages: 1 -->
<svg width="170pt" height="420pt"
 viewBox="0.00 0.00 170.00 420.00" xmlns="http://www.w3.org/2000/svg" xmlns:xlink="http://www.w3.org/1999/xlink">
<g id="graph0" class="graph" transform="scale(1 1) rotate(0) translate(4 416)">
<title>o2::utilities::DataPublisherDevice</title>
<!-- Node1 -->
<g id="node1" class="node"><title>Node1</title>
<polygon fill="#bfbfbf" stroke="black" points="-0.5,-1 -0.5,-179 162.5,-179 162.5,-1 -0.5,-1"/>
<text text-anchor="start" x="7.5" y="-167" font-family="Helvetica,sans-Serif" font-size="10.00">o2::utilities::DataPublisher</text>
<text text-anchor="middle" x="81" y="-156" font-family="Helvetica,sans-Serif" font-size="10.00">Device</text>
<polyline fill="none" stroke="black" points="-0.5,-149 162.5,-149 "/>
<text text-anchor="start" x="7.5" y="-137" font-family="Helvetica,sans-Serif" font-size="10.00">+ OptionKeyInputChannelName</text>
<text text-anchor="start" x="7.5" y="-126" font-family="Helvetica,sans-Serif" font-size="10.00">+ OptionKeyOutputChannelName</text>
<text text-anchor="start" x="7.5" y="-115" font-family="Helvetica,sans-Serif" font-size="10.00">+ OptionKeyDataDescription</text>
<text text-anchor="start" x="7.5" y="-104" font-family="Helvetica,sans-Serif" font-size="10.00">+ OptionKeyDataOrigin</text>
<text text-anchor="start" x="7.5" y="-93" font-family="Helvetica,sans-Serif" font-size="10.00">+ OptionKeySubspecification</text>
<text text-anchor="start" x="7.5" y="-82" font-family="Helvetica,sans-Serif" font-size="10.00">+ OptionKeyFileName</text>
<polyline fill="none" stroke="black" points="-0.5,-75 162.5,-75 "/>
<text text-anchor="start" x="7.5" y="-63" font-family="Helvetica,sans-Serif" font-size="10.00">+ DataPublisherDevice()</text>
<text text-anchor="start" x="7.5" y="-52" font-family="Helvetica,sans-Serif" font-size="10.00">+ ~DataPublisherDevice()</text>
<text text-anchor="start" x="7.5" y="-41" font-family="Helvetica,sans-Serif" font-size="10.00"># InitTask()</text>
<text text-anchor="start" x="7.5" y="-30" font-family="Helvetica,sans-Serif" font-size="10.00"># HandleData()</text>
<text text-anchor="start" x="7.5" y="-19" font-family="Helvetica,sans-Serif" font-size="10.00"># HandleO2LogicalBlock()</text>
<text text-anchor="start" x="7.5" y="-8" font-family="Helvetica,sans-Serif" font-size="10.00"># AppendFile()</text>
</g>
<!-- Node2 -->
<g id="node2" class="node"><title>Node2</title>
<g id="a_node2"><a xlink:href="../../da/df6/classo2_1_1Base_1_1O2Device.html" target="_top" xlink:title="{o2::Base::O2Device\n|+ monitoring\l|+ ~O2Device()\l+ GetMonitoring()\l+ Init()\l+ AddMessage()\l+ ForEach()\l}">
<polygon fill="none" stroke="black" points="28.5,-216.5 28.5,-317.5 133.5,-317.5 133.5,-216.5 28.5,-216.5"/>
<text text-anchor="middle" x="81" y="-305.5" font-family="Helvetica,sans-Serif" font-size="10.00">o2::Base::O2Device</text>
<polyline fill="none" stroke="black" points="28.5,-298.5 133.5,-298.5 "/>
<text text-anchor="start" x="36.5" y="-286.5" font-family="Helvetica,sans-Serif" font-size="10.00">+ monitoring</text>
<polyline fill="none" stroke="black" points="28.5,-279.5 133.5,-279.5 "/>
<text text-anchor="start" x="36.5" y="-267.5" font-family="Helvetica,sans-Serif" font-size="10.00">+ ~O2Device()</text>
<text text-anchor="start" x="36.5" y="-256.5" font-family="Helvetica,sans-Serif" font-size="10.00">+ GetMonitoring()</text>
<text text-anchor="start" x="36.5" y="-245.5" font-family="Helvetica,sans-Serif" font-size="10.00">+ Init()</text>
<text text-anchor="start" x="36.5" y="-234.5" font-family="Helvetica,sans-Serif" font-size="10.00">+ AddMessage()</text>
<text text-anchor="start" x="36.5" y="-223.5" font-family="Helvetica,sans-Serif" font-size="10.00">+ ForEach()</text>
</a>
</g>
</g>
<!-- Node2&#45;&gt;Node1 -->
<g id="edge1" class="edge"><title>Node2&#45;&gt;Node1</title>
<path fill="none" stroke="midnightblue" d="M81,-206.278C81,-197.541 81,-188.392 81,-179.233"/>
<polygon fill="none" stroke="midnightblue" points="77.5001,-206.32 81,-216.32 84.5001,-206.32 77.5001,-206.32"/>
</g>
<!-- Node3 -->
<g id="node3" class="node"><title>Node3</title>
<g id="a_node3"><a xlink:href="../../db/dfe/classFairMQDevice.html" target="_top" xlink:title="{FairMQDevice\n||}">
<polygon fill="none" stroke="black" points="41,-354.5 41,-411.5 121,-411.5 121,-354.5 41,-354.5"/>
<text text-anchor="middle" x="81" y="-399.5" font-family="Helvetica,sans-Serif" font-size="10.00">FairMQDevice</text>
<polyline fill="none" stroke="black" points="41,-392.5 121,-392.5 "/>
<text text-anchor="middle" x="81" y="-380.5" font-family="Helvetica,sans-Serif" font-size="10.00"> </text>
<polyline fill="none" stroke="black" points="41,-373.5 121,-373.5 "/>
<text text-anchor="middle" x="81" y="-361.5" font-family="Helvetica,sans-Serif" font-size="10.00"> </text>
</a>
</g>
</g>
<!-- Node3&#45;&gt;Node2 -->
<g id="edge2" class="edge"><title>Node3&#45;&gt;Node2</title>
<path fill="none" stroke="midnightblue" d="M81,-344.354C81,-335.796 81,-326.578 81,-317.608"/>
<polygon fill="none" stroke="midnightblue" points="77.5001,-344.404 81,-354.404 84.5001,-344.404 77.5001,-344.404"/>
</g>
</g>
</svg>
