<?xml version="1.0" encoding="UTF-8" standalone="no"?>
<!DOCTYPE svg PUBLIC "-//W3C//DTD SVG 1.1//EN"
 "http://www.w3.org/Graphics/SVG/1.1/DTD/svg11.dtd">
<!-- Generated by graphviz version 2.36.0 (20140111.2315)
 -->
<!-- Title: o2::hmpid::Detector Pages: 1 -->
<svg width="237pt" height="848pt"
 viewBox="0.00 0.00 237.00 848.00" xmlns="http://www.w3.org/2000/svg" xmlns:xlink="http://www.w3.org/1999/xlink">
<g id="graph0" class="graph" transform="scale(1 1) rotate(0) translate(4 844)">
<title>o2::hmpid::Detector</title>
<!-- Node1 -->
<g id="node1" class="node"><title>Node1</title>
<polygon fill="#bfbfbf" stroke="black" points="33.5,-1 33.5,-179 170.5,-179 170.5,-1 33.5,-1"/>
<text text-anchor="middle" x="102" y="-167" font-family="Helvetica,sans-Serif" font-size="10.00">o2::hmpid::Detector</text>
<polyline fill="none" stroke="black" points="33.5,-160 170.5,-160 "/>
<text text-anchor="middle" x="102" y="-148" font-family="Helvetica,sans-Serif" font-size="10.00"> </text>
<polyline fill="none" stroke="black" points="33.5,-141 170.5,-141 "/>
<text text-anchor="start" x="41.5" y="-129" font-family="Helvetica,sans-Serif" font-size="10.00">+ Detector()</text>
<text text-anchor="start" x="41.5" y="-118" font-family="Helvetica,sans-Serif" font-size="10.00">+ ~Detector()</text>
<text text-anchor="start" x="41.5" y="-107" font-family="Helvetica,sans-Serif" font-size="10.00">+ getHits()</text>
<text text-anchor="start" x="41.5" y="-96" font-family="Helvetica,sans-Serif" font-size="10.00">+ ProcessHits()</text>
<text text-anchor="start" x="41.5" y="-85" font-family="Helvetica,sans-Serif" font-size="10.00">+ Register()</text>
<text text-anchor="start" x="41.5" y="-74" font-family="Helvetica,sans-Serif" font-size="10.00">+ Reset()</text>
<text text-anchor="start" x="41.5" y="-63" font-family="Helvetica,sans-Serif" font-size="10.00">+ Initialize()</text>
<text text-anchor="start" x="41.5" y="-52" font-family="Helvetica,sans-Serif" font-size="10.00">+ createMaterials()</text>
<text text-anchor="start" x="41.5" y="-41" font-family="Helvetica,sans-Serif" font-size="10.00">+ ConstructGeometry()</text>
<text text-anchor="start" x="41.5" y="-30" font-family="Helvetica,sans-Serif" font-size="10.00">+ defineSensitiveVolumes()</text>
<text text-anchor="start" x="41.5" y="-19" font-family="Helvetica,sans-Serif" font-size="10.00">+ EndOfEvent()</text>
<text text-anchor="start" x="41.5" y="-8" font-family="Helvetica,sans-Serif" font-size="10.00">+ createChamber()</text>
</g>
<!-- Node2 -->
<g id="node2" class="node"><title>Node2</title>
<g id="a_node2"><a xlink:href="../../d4/d8a/classo2_1_1Base_1_1DetImpl.html" target="_top" xlink:title="{o2::Base::DetImpl\&lt;\l Detector \&gt;\n||+ updateHitTrackIndices()\l}">
<polygon fill="none" stroke="black" points="37,-219 37,-287 167,-287 167,-219 37,-219"/>
<text text-anchor="start" x="45" y="-275" font-family="Helvetica,sans-Serif" font-size="10.00">o2::Base::DetImpl&lt;</text>
<text text-anchor="middle" x="102" y="-264" font-family="Helvetica,sans-Serif" font-size="10.00"> Detector &gt;</text>
<polyline fill="none" stroke="black" points="37,-257 167,-257 "/>
<text text-anchor="middle" x="102" y="-245" font-family="Helvetica,sans-Serif" font-size="10.00"> </text>
<polyline fill="none" stroke="black" points="37,-238 167,-238 "/>
<text text-anchor="start" x="45" y="-226" font-family="Helvetica,sans-Serif" font-size="10.00">+ updateHitTrackIndices()</text>
</a>
</g>
</g>
<!-- Node2&#45;&gt;Node1 -->
<g id="edge1" class="edge"><title>Node2&#45;&gt;Node1</title>
<path fill="none" stroke="midnightblue" d="M102,-208.621C102,-199.402 102,-189.351 102,-179.134"/>
<polygon fill="none" stroke="midnightblue" points="98.5001,-208.641 102,-218.641 105.5,-208.641 98.5001,-208.641"/>
</g>
<!-- Node3 -->
<g id="node3" class="node"><title>Node3</title>
<g id="a_node3"><a xlink:href="../../d7/d02/classo2_1_1Base_1_1Detector.html" target="_top" xlink:title="{o2::Base::Detector\n||+ Detector()\l+ Detector()\l+ ~Detector()\l+ Material()\l+ Mixture()\l+ Medium()\l+ Matrix()\l+ addAlignableVolumes()\l+ defineWrapperVolume()\l+ setNumberOfWrapperVolumes()\l+ defineLayer()\l+ defineLayerTurbo()\l+ getMaterialID()\l+ getMediumID()\l+ getMediumIDMappingAsVector()\l+ addNameTo()\l+ updateHitTrackIndices()\l+ GetCollection()\l+ setDensityFactor()\l+ getDensityFactor()\l+ initFieldTrackingParams()\l# Detector()\l# operator=()\l}">
<polygon fill="none" stroke="black" points="-0.5,-444.5 -0.5,-743.5 166.5,-743.5 166.5,-444.5 -0.5,-444.5"/>
<text text-anchor="middle" x="83" y="-731.5" font-family="Helvetica,sans-Serif" font-size="10.00">o2::Base::Detector</text>
<polyline fill="none" stroke="black" points="-0.5,-724.5 166.5,-724.5 "/>
<text text-anchor="middle" x="83" y="-712.5" font-family="Helvetica,sans-Serif" font-size="10.00"> </text>
<polyline fill="none" stroke="black" points="-0.5,-705.5 166.5,-705.5 "/>
<text text-anchor="start" x="7.5" y="-693.5" font-family="Helvetica,sans-Serif" font-size="10.00">+ Detector()</text>
<text text-anchor="start" x="7.5" y="-682.5" font-family="Helvetica,sans-Serif" font-size="10.00">+ Detector()</text>
<text text-anchor="start" x="7.5" y="-671.5" font-family="Helvetica,sans-Serif" font-size="10.00">+ ~Detector()</text>
<text text-anchor="start" x="7.5" y="-660.5" font-family="Helvetica,sans-Serif" font-size="10.00">+ Material()</text>
<text text-anchor="start" x="7.5" y="-649.5" font-family="Helvetica,sans-Serif" font-size="10.00">+ Mixture()</text>
<text text-anchor="start" x="7.5" y="-638.5" font-family="Helvetica,sans-Serif" font-size="10.00">+ Medium()</text>
<text text-anchor="start" x="7.5" y="-627.5" font-family="Helvetica,sans-Serif" font-size="10.00">+ Matrix()</text>
<text text-anchor="start" x="7.5" y="-616.5" font-family="Helvetica,sans-Serif" font-size="10.00">+ addAlignableVolumes()</text>
<text text-anchor="start" x="7.5" y="-605.5" font-family="Helvetica,sans-Serif" font-size="10.00">+ defineWrapperVolume()</text>
<text text-anchor="start" x="7.5" y="-594.5" font-family="Helvetica,sans-Serif" font-size="10.00">+ setNumberOfWrapperVolumes()</text>
<text text-anchor="start" x="7.5" y="-583.5" font-family="Helvetica,sans-Serif" font-size="10.00">+ defineLayer()</text>
<text text-anchor="start" x="7.5" y="-572.5" font-family="Helvetica,sans-Serif" font-size="10.00">+ defineLayerTurbo()</text>
<text text-anchor="start" x="7.5" y="-561.5" font-family="Helvetica,sans-Serif" font-size="10.00">+ getMaterialID()</text>
<text text-anchor="start" x="7.5" y="-550.5" font-family="Helvetica,sans-Serif" font-size="10.00">+ getMediumID()</text>
<text text-anchor="start" x="7.5" y="-539.5" font-family="Helvetica,sans-Serif" font-size="10.00">+ getMediumIDMappingAsVector()</text>
<text text-anchor="start" x="7.5" y="-528.5" font-family="Helvetica,sans-Serif" font-size="10.00">+ addNameTo()</text>
<text text-anchor="start" x="7.5" y="-517.5" font-family="Helvetica,sans-Serif" font-size="10.00">+ updateHitTrackIndices()</text>
<text text-anchor="start" x="7.5" y="-506.5" font-family="Helvetica,sans-Serif" font-size="10.00">+ GetCollection()</text>
<text text-anchor="start" x="7.5" y="-495.5" font-family="Helvetica,sans-Serif" font-size="10.00">+ setDensityFactor()</text>
<text text-anchor="start" x="7.5" y="-484.5" font-family="Helvetica,sans-Serif" font-size="10.00">+ getDensityFactor()</text>
<text text-anchor="start" x="7.5" y="-473.5" font-family="Helvetica,sans-Serif" font-size="10.00">+ initFieldTrackingParams()</text>
<text text-anchor="start" x="7.5" y="-462.5" font-family="Helvetica,sans-Serif" font-size="10.00"># Detector()</text>
<text text-anchor="start" x="7.5" y="-451.5" font-family="Helvetica,sans-Serif" font-size="10.00"># operator=()</text>
</a>
</g>
</g>
<!-- Node3&#45;&gt;Node2 -->
<g id="edge2" class="edge"><title>Node3&#45;&gt;Node2</title>
<path fill="none" stroke="midnightblue" d="M84.3882,-434.307C85.4969,-401.751 87.2553,-367.736 90,-336 91.4009,-319.802 93.9031,-301.927 96.2615,-287.012"/>
<polygon fill="none" stroke="midnightblue" points="80.8883,-434.253 84.0646,-444.36 87.8846,-434.478 80.8883,-434.253"/>
</g>
<!-- Node5 -->
<g id="node5" class="node"><title>Node5</title>
<g id="a_node5"><a xlink:href="../../d4/d8a/classo2_1_1Base_1_1DetImpl.html" target="_top" xlink:title="{o2::Base::DetImpl\&lt;\l Det \&gt;\n||+ updateHitTrackIndices()\l}">
<polygon fill="none" stroke="black" points="99,-337 99,-405 229,-405 229,-337 99,-337"/>
<text text-anchor="start" x="107" y="-393" font-family="Helvetica,sans-Serif" font-size="10.00">o2::Base::DetImpl&lt;</text>
<text text-anchor="middle" x="164" y="-382" font-family="Helvetica,sans-Serif" font-size="10.00"> Det &gt;</text>
<polyline fill="none" stroke="black" points="99,-375 229,-375 "/>
<text text-anchor="middle" x="164" y="-363" font-family="Helvetica,sans-Serif" font-size="10.00"> </text>
<polyline fill="none" stroke="black" points="99,-356 229,-356 "/>
<text text-anchor="start" x="107" y="-344" font-family="Helvetica,sans-Serif" font-size="10.00">+ updateHitTrackIndices()</text>
</a>
</g>
</g>
<!-- Node3&#45;&gt;Node5 -->
<g id="edge5" class="edge"><title>Node3&#45;&gt;Node5</title>
<path fill="none" stroke="midnightblue" d="M140.996,-434.763C144.926,-424.041 148.584,-414.06 151.775,-405.355"/>
<polygon fill="none" stroke="midnightblue" points="137.633,-433.77 137.478,-444.364 144.205,-436.179 137.633,-433.77"/>
</g>
<!-- Node4 -->
<g id="node4" class="node"><title>Node4</title>
<g id="a_node4"><a xlink:href="../../d6/d0c/classFairDetector.html" target="_top" xlink:title="{FairDetector\n||}">
<polygon fill="none" stroke="black" points="47.5,-782.5 47.5,-839.5 118.5,-839.5 118.5,-782.5 47.5,-782.5"/>
<text text-anchor="middle" x="83" y="-827.5" font-family="Helvetica,sans-Serif" font-size="10.00">FairDetector</text>
<polyline fill="none" stroke="black" points="47.5,-820.5 118.5,-820.5 "/>
<text text-anchor="middle" x="83" y="-808.5" font-family="Helvetica,sans-Serif" font-size="10.00"> </text>
<polyline fill="none" stroke="black" points="47.5,-801.5 118.5,-801.5 "/>
<text text-anchor="middle" x="83" y="-789.5" font-family="Helvetica,sans-Serif" font-size="10.00"> </text>
</a>
</g>
</g>
<!-- Node4&#45;&gt;Node3 -->
<g id="edge3" class="edge"><title>Node4&#45;&gt;Node3</title>
<path fill="none" stroke="midnightblue" d="M83,-772.122C83,-763.603 83,-754.059 83,-743.937"/>
<polygon fill="none" stroke="midnightblue" points="79.5001,-772.333 83,-782.333 86.5001,-772.333 79.5001,-772.333"/>
</g>
<!-- Node5&#45;&gt;Node2 -->
<g id="edge4" class="edge"><title>Node5&#45;&gt;Node2</title>
<path fill="none" stroke="orange" d="M141.42,-327.753C134.289,-314.411 126.515,-299.866 119.769,-287.246"/>
<polygon fill="orange" stroke="orange" points="138.433,-329.59 146.233,-336.759 144.606,-326.29 138.433,-329.59"/>
<text text-anchor="middle" x="163.5" y="-309.5" font-family="Helvetica,sans-Serif" font-size="10.00"> &lt; Detector &gt;</text>
</g>
</g>
</svg>
