<?xml version="1.0" encoding="UTF-8" standalone="no"?>
<!DOCTYPE svg PUBLIC "-//W3C//DTD SVG 1.1//EN"
 "http://www.w3.org/Graphics/SVG/1.1/DTD/svg11.dtd">
<!-- Generated by graphviz version 2.36.0 (20140111.2315)
 -->
<!-- Title: /home/travis/build/AliceO2Group/AliceO2/DataFormats/Detectors/TPC/include/DataFormatsTPC/ClusterHardware.h Pages: 1 -->
<svg width="1600pt" height="262pt"
 viewBox="0.00 0.00 1600.00 262.00" xmlns="http://www.w3.org/2000/svg" xmlns:xlink="http://www.w3.org/1999/xlink">
<g id="graph0" class="graph" transform="scale(1 1) rotate(0) translate(4 258)">
<title>/home/travis/build/AliceO2Group/AliceO2/DataFormats/Detectors/TPC/include/DataFormatsTPC/ClusterHardware.h</title>
<!-- Node1 -->
<g id="node1" class="node"><title>Node1</title>
<polygon fill="#bfbfbf" stroke="black" points="891,-190.5 891,-253.5 1045,-253.5 1045,-190.5 891,-190.5"/>
<text text-anchor="start" x="899" y="-241.5" font-family="Helvetica,sans-Serif" font-size="10.00">/home/travis/build</text>
<text text-anchor="start" x="899" y="-230.5" font-family="Helvetica,sans-Serif" font-size="10.00">/AliceO2Group/AliceO2</text>
<text text-anchor="start" x="899" y="-219.5" font-family="Helvetica,sans-Serif" font-size="10.00">/DataFormats/Detectors</text>
<text text-anchor="start" x="899" y="-208.5" font-family="Helvetica,sans-Serif" font-size="10.00">/TPC/include/DataFormatsTPC</text>
<text text-anchor="middle" x="968" y="-197.5" font-family="Helvetica,sans-Serif" font-size="10.00">/ClusterHardware.h</text>
</g>
<!-- Node2 -->
<g id="node2" class="node"><title>Node2</title>
<g id="a_node2"><a xlink:href="../../db/df1/Helpers_8h.html" target="_top" xlink:title="Helper class for memory management of TPC Data Formats, external from the actual data type classes to...">
<polygon fill="none" stroke="black" points="640,-90.5 640,-153.5 794,-153.5 794,-90.5 640,-90.5"/>
<text text-anchor="start" x="648" y="-141.5" font-family="Helvetica,sans-Serif" font-size="10.00">/home/travis/build</text>
<text text-anchor="start" x="648" y="-130.5" font-family="Helvetica,sans-Serif" font-size="10.00">/AliceO2Group/AliceO2</text>
<text text-anchor="start" x="648" y="-119.5" font-family="Helvetica,sans-Serif" font-size="10.00">/DataFormats/Detectors</text>
<text text-anchor="start" x="648" y="-108.5" font-family="Helvetica,sans-Serif" font-size="10.00">/TPC/include/DataFormatsTPC</text>
<text text-anchor="middle" x="717" y="-97.5" font-family="Helvetica,sans-Serif" font-size="10.00">/Helpers.h</text>
</a>
</g>
</g>
<!-- Node1&#45;&gt;Node2 -->
<g id="edge1" class="edge"><title>Node1&#45;&gt;Node2</title>
<path fill="none" stroke="midnightblue" d="M881.502,-187.228C853.174,-176.168 821.904,-163.958 794.301,-153.181"/>
<polygon fill="midnightblue" stroke="midnightblue" points="880.398,-190.554 890.986,-190.931 882.944,-184.033 880.398,-190.554"/>
</g>
<!-- Node6 -->
<g id="node6" class="node"><title>Node6</title>
<g id="a_node6"><a xlink:href="../../da/d65/ClusterConverterSpec_8cxx.html" target="_top" xlink:title="Processor spec for converter of TPC clusters to HW cluster raw data. ">
<polygon fill="none" stroke="black" points="0,-1 0,-53 152,-53 152,-1 0,-1"/>
<text text-anchor="start" x="8" y="-41" font-family="Helvetica,sans-Serif" font-size="10.00">/home/travis/build</text>
<text text-anchor="start" x="8" y="-30" font-family="Helvetica,sans-Serif" font-size="10.00">/AliceO2Group/AliceO2</text>
<text text-anchor="start" x="8" y="-19" font-family="Helvetica,sans-Serif" font-size="10.00">/Detectors/TPC/workflow</text>
<text text-anchor="middle" x="76" y="-8" font-family="Helvetica,sans-Serif" font-size="10.00">/src/ClusterConverterSpec.cxx</text>
</a>
</g>
</g>
<!-- Node1&#45;&gt;Node6 -->
<g id="edge13" class="edge"><title>Node1&#45;&gt;Node6</title>
<path fill="none" stroke="midnightblue" d="M880.94,-205.889C732.295,-179.443 420.457,-121.147 161,-54 158.161,-53.2654 155.276,-52.4966 152.366,-51.7028"/>
<polygon fill="midnightblue" stroke="midnightblue" points="880.467,-209.36 890.925,-207.661 881.69,-202.467 880.467,-209.36"/>
</g>
<!-- Node7 -->
<g id="node7" class="node"><title>Node7</title>
<g id="a_node7"><a xlink:href="../../d9/d7b/ClusterDecoderRawSpec_8cxx.html" target="_top" xlink:title="Processor spec for decoder of TPC raw cluster data. ">
<polygon fill="none" stroke="black" points="828,-1 828,-53 994,-53 994,-1 828,-1"/>
<text text-anchor="start" x="836" y="-41" font-family="Helvetica,sans-Serif" font-size="10.00">/home/travis/build</text>
<text text-anchor="start" x="836" y="-30" font-family="Helvetica,sans-Serif" font-size="10.00">/AliceO2Group/AliceO2</text>
<text text-anchor="start" x="836" y="-19" font-family="Helvetica,sans-Serif" font-size="10.00">/Detectors/TPC/workflow</text>
<text text-anchor="middle" x="911" y="-8" font-family="Helvetica,sans-Serif" font-size="10.00">/src/ClusterDecoderRawSpec.cxx</text>
</a>
</g>
</g>
<!-- Node1&#45;&gt;Node7 -->
<g id="edge14" class="edge"><title>Node1&#45;&gt;Node7</title>
<path fill="none" stroke="midnightblue" d="M946.199,-181.154C942.026,-172.393 938.022,-163.03 935,-154 923.622,-120.001 917.063,-78.9307 913.762,-53.1306"/>
<polygon fill="midnightblue" stroke="midnightblue" points="943.19,-182.965 950.756,-190.381 949.466,-179.865 943.19,-182.965"/>
</g>
<!-- Node8 -->
<g id="node8" class="node"><title>Node8</title>
<g id="a_node8"><a xlink:href="../../d7/d3d/convertClusterToClusterHardware_8C.html" target="_top" xlink:title="/home/travis/build\l/AliceO2Group/AliceO2\l/macro/convertClusterToCluster\lHardware.C">
<polygon fill="none" stroke="black" points="1012,-1 1012,-53 1168,-53 1168,-1 1012,-1"/>
<text text-anchor="start" x="1020" y="-41" font-family="Helvetica,sans-Serif" font-size="10.00">/home/travis/build</text>
<text text-anchor="start" x="1020" y="-30" font-family="Helvetica,sans-Serif" font-size="10.00">/AliceO2Group/AliceO2</text>
<text text-anchor="start" x="1020" y="-19" font-family="Helvetica,sans-Serif" font-size="10.00">/macro/convertClusterToCluster</text>
<text text-anchor="middle" x="1090" y="-8" font-family="Helvetica,sans-Serif" font-size="10.00">Hardware.C</text>
</a>
</g>
</g>
<!-- Node1&#45;&gt;Node8 -->
<g id="edge15" class="edge"><title>Node1&#45;&gt;Node8</title>
<path fill="none" stroke="midnightblue" d="M959.584,-180.309C956.146,-152.757 956.255,-116.66 973,-90 982.965,-74.1346 998.444,-62.0871 1014.91,-53.0346"/>
<polygon fill="midnightblue" stroke="midnightblue" points="956.15,-181.018 961.048,-190.413 963.078,-180.014 956.15,-181.018"/>
</g>
<!-- Node10 -->
<g id="node10" class="node"><title>Node10</title>
<g id="a_node10"><a xlink:href="../../dc/daf/runHardwareClusterDecoderRoot_8C.html" target="_top" xlink:title="/home/travis/build\l/AliceO2Group/AliceO2\l/macro/runHardwareClusterDecoder\lRoot.C">
<polygon fill="none" stroke="black" points="1186.5,-1 1186.5,-53 1359.5,-53 1359.5,-1 1186.5,-1"/>
<text text-anchor="start" x="1194.5" y="-41" font-family="Helvetica,sans-Serif" font-size="10.00">/home/travis/build</text>
<text text-anchor="start" x="1194.5" y="-30" font-family="Helvetica,sans-Serif" font-size="10.00">/AliceO2Group/AliceO2</text>
<text text-anchor="start" x="1194.5" y="-19" font-family="Helvetica,sans-Serif" font-size="10.00">/macro/runHardwareClusterDecoder</text>
<text text-anchor="middle" x="1273" y="-8" font-family="Helvetica,sans-Serif" font-size="10.00">Root.C</text>
</a>
</g>
</g>
<!-- Node1&#45;&gt;Node10 -->
<g id="edge16" class="edge"><title>Node1&#45;&gt;Node10</title>
<path fill="none" stroke="midnightblue" d="M969.543,-180.102C972.876,-150.92 982.145,-112.927 1007,-90 1063.77,-37.636 1101.92,-72.1017 1177,-54 1180.11,-53.2513 1183.26,-52.475 1186.45,-51.679"/>
<polygon fill="midnightblue" stroke="midnightblue" points="966.026,-180.125 968.566,-190.411 972.994,-180.786 966.026,-180.125"/>
</g>
<!-- Node11 -->
<g id="node11" class="node"><title>Node11</title>
<g id="a_node11"><a xlink:href="../../da/d04/testClusterHardware_8cxx.html" target="_top" xlink:title="Unit test for the TPC ClusterHardware data struct. ">
<polygon fill="none" stroke="black" points="1015.5,-96 1015.5,-148 1186.5,-148 1186.5,-96 1015.5,-96"/>
<text text-anchor="start" x="1023.5" y="-136" font-family="Helvetica,sans-Serif" font-size="10.00">/home/travis/build</text>
<text text-anchor="start" x="1023.5" y="-125" font-family="Helvetica,sans-Serif" font-size="10.00">/AliceO2Group/AliceO2</text>
<text text-anchor="start" x="1023.5" y="-114" font-family="Helvetica,sans-Serif" font-size="10.00">/DataFormats/Detectors</text>
<text text-anchor="middle" x="1101" y="-103" font-family="Helvetica,sans-Serif" font-size="10.00">/TPC/test/testClusterHardware.cxx</text>
</a>
</g>
</g>
<!-- Node1&#45;&gt;Node11 -->
<g id="edge10" class="edge"><title>Node1&#45;&gt;Node11</title>
<path fill="none" stroke="midnightblue" d="M1018.1,-184.084C1034.42,-172.06 1052.14,-159 1067,-148.054"/>
<polygon fill="midnightblue" stroke="midnightblue" points="1015.69,-181.511 1009.72,-190.261 1019.84,-187.147 1015.69,-181.511"/>
</g>
<!-- Node12 -->
<g id="node12" class="node"><title>Node12</title>
<g id="a_node12"><a xlink:href="../../d1/dfd/runHardwareClusterDecoderRaw_8C.html" target="_top" xlink:title="/home/travis/build\l/AliceO2Group/AliceO2\l/Detectors/TPC/reconstruction\l/macro/runHardwareClusterDecoderRaw.C">
<polygon fill="none" stroke="black" points="1205,-96 1205,-148 1409,-148 1409,-96 1205,-96"/>
<text text-anchor="start" x="1213" y="-136" font-family="Helvetica,sans-Serif" font-size="10.00">/home/travis/build</text>
<text text-anchor="start" x="1213" y="-125" font-family="Helvetica,sans-Serif" font-size="10.00">/AliceO2Group/AliceO2</text>
<text text-anchor="start" x="1213" y="-114" font-family="Helvetica,sans-Serif" font-size="10.00">/Detectors/TPC/reconstruction</text>
<text text-anchor="middle" x="1307" y="-103" font-family="Helvetica,sans-Serif" font-size="10.00">/macro/runHardwareClusterDecoderRaw.C</text>
</a>
</g>
</g>
<!-- Node1&#45;&gt;Node12 -->
<g id="edge11" class="edge"><title>Node1&#45;&gt;Node12</title>
<path fill="none" stroke="midnightblue" d="M1055,-195.849C1105.81,-181.16 1169.71,-162.689 1220.44,-148.023"/>
<polygon fill="midnightblue" stroke="midnightblue" points="1053.98,-192.5 1045.35,-198.64 1055.93,-199.225 1053.98,-192.5"/>
</g>
<!-- Node13 -->
<g id="node13" class="node"><title>Node13</title>
<g id="a_node13"><a xlink:href="../../d4/d7c/HardwareClusterDecoder_8cxx.html" target="_top" xlink:title="/home/travis/build\l/AliceO2Group/AliceO2\l/Detectors/TPC/reconstruction\l/src/HardwareClusterDecoder.cxx">
<polygon fill="none" stroke="black" points="1427.5,-96 1427.5,-148 1592.5,-148 1592.5,-96 1427.5,-96"/>
<text text-anchor="start" x="1435.5" y="-136" font-family="Helvetica,sans-Serif" font-size="10.00">/home/travis/build</text>
<text text-anchor="start" x="1435.5" y="-125" font-family="Helvetica,sans-Serif" font-size="10.00">/AliceO2Group/AliceO2</text>
<text text-anchor="start" x="1435.5" y="-114" font-family="Helvetica,sans-Serif" font-size="10.00">/Detectors/TPC/reconstruction</text>
<text text-anchor="middle" x="1510" y="-103" font-family="Helvetica,sans-Serif" font-size="10.00">/src/HardwareClusterDecoder.cxx</text>
</a>
</g>
</g>
<!-- Node1&#45;&gt;Node13 -->
<g id="edge12" class="edge"><title>Node1&#45;&gt;Node13</title>
<path fill="none" stroke="midnightblue" d="M1055.05,-212.543C1146.14,-202.641 1292.88,-183.709 1417,-154 1424.2,-152.277 1431.64,-150.244 1439.03,-148.057"/>
<polygon fill="midnightblue" stroke="midnightblue" points="1054.61,-209.069 1045.04,-213.618 1055.36,-216.029 1054.61,-209.069"/>
</g>
<!-- Node3 -->
<g id="node3" class="node"><title>Node3</title>
<g id="a_node3"><a xlink:href="../../dc/def/Helpers_8cxx.html" target="_top" xlink:title="/home/travis/build\l/AliceO2Group/AliceO2\l/DataFormats/Detectors\l/TPC/src/Helpers.cxx">
<polygon fill="none" stroke="black" points="170,-1 170,-53 292,-53 292,-1 170,-1"/>
<text text-anchor="start" x="178" y="-41" font-family="Helvetica,sans-Serif" font-size="10.00">/home/travis/build</text>
<text text-anchor="start" x="178" y="-30" font-family="Helvetica,sans-Serif" font-size="10.00">/AliceO2Group/AliceO2</text>
<text text-anchor="start" x="178" y="-19" font-family="Helvetica,sans-Serif" font-size="10.00">/DataFormats/Detectors</text>
<text text-anchor="middle" x="231" y="-8" font-family="Helvetica,sans-Serif" font-size="10.00">/TPC/src/Helpers.cxx</text>
</a>
</g>
</g>
<!-- Node2&#45;&gt;Node3 -->
<g id="edge2" class="edge"><title>Node2&#45;&gt;Node3</title>
<path fill="none" stroke="midnightblue" d="M629.655,-111.979C544.756,-102.032 412.649,-83.4215 301,-54 298.117,-53.2402 295.186,-52.4071 292.241,-51.5199"/>
<polygon fill="midnightblue" stroke="midnightblue" points="629.434,-115.476 639.77,-113.149 630.238,-108.523 629.434,-115.476"/>
</g>
<!-- Node4 -->
<g id="node4" class="node"><title>Node4</title>
<g id="a_node4"><a xlink:href="../../d7/d83/testTPCCATracking_8cxx.html" target="_top" xlink:title="This task tests the TPC CA Tracking library. ">
<polygon fill="none" stroke="black" points="310,-1 310,-53 460,-53 460,-1 310,-1"/>
<text text-anchor="start" x="318" y="-41" font-family="Helvetica,sans-Serif" font-size="10.00">/home/travis/build</text>
<text text-anchor="start" x="318" y="-30" font-family="Helvetica,sans-Serif" font-size="10.00">/AliceO2Group/AliceO2</text>
<text text-anchor="start" x="318" y="-19" font-family="Helvetica,sans-Serif" font-size="10.00">/Detectors/TPC/reconstruction</text>
<text text-anchor="middle" x="385" y="-8" font-family="Helvetica,sans-Serif" font-size="10.00">/test/testTPCCATracking.cxx</text>
</a>
</g>
</g>
<!-- Node2&#45;&gt;Node4 -->
<g id="edge3" class="edge"><title>Node2&#45;&gt;Node4</title>
<path fill="none" stroke="midnightblue" d="M630.318,-98.4073C582.603,-85.7638 522.402,-69.4725 469,-54 466.067,-53.1503 463.08,-52.2747 460.065,-51.3824"/>
<polygon fill="midnightblue" stroke="midnightblue" points="629.433,-101.794 639.995,-100.967 631.223,-95.0263 629.433,-101.794"/>
</g>
<!-- Node5 -->
<g id="node5" class="node"><title>Node5</title>
<g id="a_node5"><a xlink:href="../../da/d78/CATrackerSpec_8cxx.html" target="_top" xlink:title="Processor spec for running TPC CA tracking. ">
<polygon fill="none" stroke="black" points="478,-1 478,-53 606,-53 606,-1 478,-1"/>
<text text-anchor="start" x="486" y="-41" font-family="Helvetica,sans-Serif" font-size="10.00">/home/travis/build</text>
<text text-anchor="start" x="486" y="-30" font-family="Helvetica,sans-Serif" font-size="10.00">/AliceO2Group/AliceO2</text>
<text text-anchor="start" x="486" y="-19" font-family="Helvetica,sans-Serif" font-size="10.00">/Detectors/TPC/workflow</text>
<text text-anchor="middle" x="542" y="-8" font-family="Helvetica,sans-Serif" font-size="10.00">/src/CATrackerSpec.cxx</text>
</a>
</g>
</g>
<!-- Node2&#45;&gt;Node5 -->
<g id="edge4" class="edge"><title>Node2&#45;&gt;Node5</title>
<path fill="none" stroke="midnightblue" d="M650.3,-85.5536C629.951,-74.7396 608.009,-63.0791 589.231,-53.1001"/>
<polygon fill="midnightblue" stroke="midnightblue" points="648.74,-88.6884 659.213,-90.2906 652.025,-82.5071 648.74,-88.6884"/>
</g>
<!-- Node2&#45;&gt;Node6 -->
<g id="edge5" class="edge"><title>Node2&#45;&gt;Node6</title>
<path fill="none" stroke="midnightblue" d="M629.787,-115.286C519.643,-106.976 324.731,-88.6218 161,-54 158.131,-53.3934 155.22,-52.7337 152.289,-52.0319"/>
<polygon fill="midnightblue" stroke="midnightblue" points="629.619,-118.783 639.851,-116.035 630.138,-111.802 629.619,-118.783"/>
</g>
<!-- Node2&#45;&gt;Node7 -->
<g id="edge6" class="edge"><title>Node2&#45;&gt;Node7</title>
<path fill="none" stroke="midnightblue" d="M789.811,-86.0959C812.747,-75.1006 837.611,-63.1813 858.814,-53.0171"/>
<polygon fill="midnightblue" stroke="midnightblue" points="788.296,-82.9406 780.792,-90.4195 791.322,-89.2528 788.296,-82.9406"/>
</g>
<!-- Node2&#45;&gt;Node8 -->
<g id="edge7" class="edge"><title>Node2&#45;&gt;Node8</title>
<path fill="none" stroke="midnightblue" d="M804.118,-102.024C860.954,-89.2917 936.638,-71.6722 1003,-54 1005.89,-53.2292 1008.84,-52.4297 1011.81,-51.6098"/>
<polygon fill="midnightblue" stroke="midnightblue" points="803.087,-98.6678 794.091,-104.263 804.613,-105.499 803.087,-98.6678"/>
</g>
<!-- Node9 -->
<g id="node9" class="node"><title>Node9</title>
<g id="a_node9"><a xlink:href="../../d1/df0/runCATrackingClusterNative_8C.html" target="_top" xlink:title="/home/travis/build\l/AliceO2Group/AliceO2\l/macro/runCATrackingClusterNative.C">
<polygon fill="none" stroke="black" points="624.5,-6.5 624.5,-47.5 809.5,-47.5 809.5,-6.5 624.5,-6.5"/>
<text text-anchor="start" x="632.5" y="-35.5" font-family="Helvetica,sans-Serif" font-size="10.00">/home/travis/build</text>
<text text-anchor="start" x="632.5" y="-24.5" font-family="Helvetica,sans-Serif" font-size="10.00">/AliceO2Group/AliceO2</text>
<text text-anchor="middle" x="717" y="-13.5" font-family="Helvetica,sans-Serif" font-size="10.00">/macro/runCATrackingClusterNative.C</text>
</a>
</g>
</g>
<!-- Node2&#45;&gt;Node9 -->
<g id="edge8" class="edge"><title>Node2&#45;&gt;Node9</title>
<path fill="none" stroke="midnightblue" d="M717,-80.1125C717,-68.807 717,-57.0525 717,-47.5747"/>
<polygon fill="midnightblue" stroke="midnightblue" points="713.5,-80.2905 717,-90.2906 720.5,-80.2906 713.5,-80.2905"/>
</g>
<!-- Node2&#45;&gt;Node10 -->
<g id="edge9" class="edge"><title>Node2&#45;&gt;Node10</title>
<path fill="none" stroke="midnightblue" d="M804.201,-111.456C897.124,-100.552 1048.28,-80.7048 1177,-54 1180.04,-53.3686 1183.13,-52.6975 1186.25,-51.9953"/>
<polygon fill="midnightblue" stroke="midnightblue" points="803.528,-108.011 794,-112.645 804.338,-114.964 803.528,-108.011"/>
</g>
</g>
</svg>
