<?xml version="1.0" encoding="UTF-8" standalone="no"?>
<!DOCTYPE svg PUBLIC "-//W3C//DTD SVG 1.1//EN"
 "http://www.w3.org/Graphics/SVG/1.1/DTD/svg11.dtd">
<!-- Generated by graphviz version 2.36.0 (20140111.2315)
 -->
<!-- Title: o2::Base::O2Device Pages: 1 -->
<svg width="238pt" height="228pt"
 viewBox="0.00 0.00 238.00 228.00" xmlns="http://www.w3.org/2000/svg" xmlns:xlink="http://www.w3.org/1999/xlink">
<g id="graph0" class="graph" transform="scale(1 1) rotate(0) translate(4 224)">
<title>o2::Base::O2Device</title>
<!-- Node1 -->
<g id="node1" class="node"><title>Node1</title>
<polygon fill="#bfbfbf" stroke="black" points="49.5,-0.5 49.5,-101.5 154.5,-101.5 154.5,-0.5 49.5,-0.5"/>
<text text-anchor="middle" x="102" y="-89.5" font-family="Helvetica,sans-Serif" font-size="10.00">o2::Base::O2Device</text>
<polyline fill="none" stroke="black" points="49.5,-82.5 154.5,-82.5 "/>
<text text-anchor="middle" x="102" y="-70.5" font-family="Helvetica,sans-Serif" font-size="10.00"> </text>
<polyline fill="none" stroke="black" points="49.5,-63.5 154.5,-63.5 "/>
<text text-anchor="start" x="57.5" y="-51.5" font-family="Helvetica,sans-Serif" font-size="10.00">+ ~O2Device()</text>
<text text-anchor="start" x="57.5" y="-40.5" font-family="Helvetica,sans-Serif" font-size="10.00">+ GetMonitoring()</text>
<text text-anchor="start" x="57.5" y="-29.5" font-family="Helvetica,sans-Serif" font-size="10.00">+ Init()</text>
<text text-anchor="start" x="57.5" y="-18.5" font-family="Helvetica,sans-Serif" font-size="10.00">+ AddMessage()</text>
<text text-anchor="start" x="57.5" y="-7.5" font-family="Helvetica,sans-Serif" font-size="10.00">+ ForEach()</text>
</g>
<!-- Node2 -->
<g id="node2" class="node"><title>Node2</title>
<g id="a_node2"><a xlink:href="../../db/dfe/classFairMQDevice.html" target="_top" xlink:title="{FairMQDevice\n||}">
<polygon fill="none" stroke="black" points="0,-156.5 0,-213.5 80,-213.5 80,-156.5 0,-156.5"/>
<text text-anchor="middle" x="40" y="-201.5" font-family="Helvetica,sans-Serif" font-size="10.00">FairMQDevice</text>
<polyline fill="none" stroke="black" points="0,-194.5 80,-194.5 "/>
<text text-anchor="middle" x="40" y="-182.5" font-family="Helvetica,sans-Serif" font-size="10.00"> </text>
<polyline fill="none" stroke="black" points="0,-175.5 80,-175.5 "/>
<text text-anchor="middle" x="40" y="-163.5" font-family="Helvetica,sans-Serif" font-size="10.00"> </text>
</a>
</g>
</g>
<!-- Node2&#45;&gt;Node1 -->
<g id="edge1" class="edge"><title>Node2&#45;&gt;Node1</title>
<path fill="none" stroke="midnightblue" d="M57.3962,-146.963C64.0172,-132.867 71.6709,-116.572 78.7488,-101.503"/>
<polygon fill="none" stroke="midnightblue" points="54.0807,-145.789 52.9972,-156.328 60.4166,-148.765 54.0807,-145.789"/>
</g>
<!-- Node3 -->
<g id="node3" class="node"><title>Node3</title>
<polygon fill="none" stroke="#bfbfbf" points="98,-151 98,-219 230,-219 230,-151 98,-151"/>
<text text-anchor="start" x="106" y="-207" font-family="Helvetica,sans-Serif" font-size="10.00">unique_ptr&lt; o2::monitoring</text>
<text text-anchor="middle" x="164" y="-196" font-family="Helvetica,sans-Serif" font-size="10.00">::Monitoring &gt;</text>
<polyline fill="none" stroke="#bfbfbf" points="98,-189 230,-189 "/>
<text text-anchor="middle" x="164" y="-177" font-family="Helvetica,sans-Serif" font-size="10.00"> </text>
<polyline fill="none" stroke="#bfbfbf" points="98,-170 230,-170 "/>
<text text-anchor="middle" x="164" y="-158" font-family="Helvetica,sans-Serif" font-size="10.00"> </text>
</g>
<!-- Node3&#45;&gt;Node1 -->
<g id="edge2" class="edge"><title>Node3&#45;&gt;Node1</title>
<path fill="none" stroke="#404040" d="M148.355,-150.691C142.89,-139.056 136.573,-125.607 130.395,-112.454"/>
<polygon fill="none" stroke="#404040" points="130.362,-112.383 124.19,-108.653 125.26,-101.522 131.432,-105.252 130.362,-112.383"/>
<text text-anchor="middle" x="165.5" y="-123.5" font-family="Helvetica,sans-Serif" font-size="10.00"> +monitoring</text>
</g>
</g>
</svg>
