<?xml version="1.0" encoding="UTF-8" standalone="no"?>
<!DOCTYPE svg PUBLIC "-//W3C//DTD SVG 1.1//EN"
 "http://www.w3.org/Graphics/SVG/1.1/DTD/svg11.dtd">
<!-- Generated by graphviz version 2.36.0 (20140111.2315)
 -->
<!-- Title: /home/travis/build/AliceO2Group/AliceO2/macro/run_digi_mft.C Pages: 1 -->
<svg width="2309pt" height="502pt"
 viewBox="0.00 0.00 2309.00 502.00" xmlns="http://www.w3.org/2000/svg" xmlns:xlink="http://www.w3.org/1999/xlink">
<g id="graph0" class="graph" transform="scale(1 1) rotate(0) translate(4 498)">
<title>/home/travis/build/AliceO2Group/AliceO2/macro/run_digi_mft.C</title>
<!-- Node1 -->
<g id="node1" class="node"><title>Node1</title>
<polygon fill="#bfbfbf" stroke="black" points="293,-452.5 293,-493.5 411,-493.5 411,-452.5 293,-452.5"/>
<text text-anchor="start" x="301" y="-481.5" font-family="Helvetica,sans-Serif" font-size="10.00">/home/travis/build</text>
<text text-anchor="start" x="301" y="-470.5" font-family="Helvetica,sans-Serif" font-size="10.00">/AliceO2Group/AliceO2</text>
<text text-anchor="middle" x="352" y="-459.5" font-family="Helvetica,sans-Serif" font-size="10.00">/macro/run_digi_mft.C</text>
</g>
<!-- Node2 -->
<g id="node2" class="node"><title>Node2</title>
<polygon fill="none" stroke="#bfbfbf" points="66,-142.5 66,-161.5 118,-161.5 118,-142.5 66,-142.5"/>
<text text-anchor="middle" x="92" y="-149.5" font-family="Helvetica,sans-Serif" font-size="10.00">sstream</text>
</g>
<!-- Node1&#45;&gt;Node2 -->
<g id="edge1" class="edge"><title>Node1&#45;&gt;Node2</title>
<path fill="none" stroke="midnightblue" d="M292.793,-469.777C233.272,-465.426 140.358,-452.739 69,-416 31.5421,-396.715 0,-393.131 0,-351 0,-351 0,-351 0,-287 0,-236.328 45.2645,-190.813 72.2937,-168.151"/>
<polygon fill="midnightblue" stroke="midnightblue" points="74.7859,-170.637 80.3481,-161.619 70.3767,-165.2 74.7859,-170.637"/>
</g>
<!-- Node3 -->
<g id="node3" class="node"><title>Node3</title>
<polygon fill="none" stroke="#bfbfbf" points="78.5,-396.5 78.5,-415.5 155.5,-415.5 155.5,-396.5 78.5,-396.5"/>
<text text-anchor="middle" x="117" y="-403.5" font-family="Helvetica,sans-Serif" font-size="10.00">TStopwatch.h</text>
</g>
<!-- Node1&#45;&gt;Node3 -->
<g id="edge2" class="edge"><title>Node1&#45;&gt;Node3</title>
<path fill="none" stroke="midnightblue" d="M292.7,-455.598C250.567,-443.944 195.077,-428.596 157.831,-418.294"/>
<polygon fill="midnightblue" stroke="midnightblue" points="158.407,-414.822 147.835,-415.529 156.54,-421.568 158.407,-414.822"/>
</g>
<!-- Node4 -->
<g id="node4" class="node"><title>Node4</title>
<polygon fill="none" stroke="#bfbfbf" points="290.5,-142.5 290.5,-161.5 361.5,-161.5 361.5,-142.5 290.5,-142.5"/>
<text text-anchor="middle" x="326" y="-149.5" font-family="Helvetica,sans-Serif" font-size="10.00">FairLogger.h</text>
</g>
<!-- Node1&#45;&gt;Node4 -->
<g id="edge3" class="edge"><title>Node1&#45;&gt;Node4</title>
<path fill="none" stroke="midnightblue" d="M292.98,-465.889C260.679,-459.19 223.216,-445.195 203,-416 166.565,-363.383 178.02,-330.924 203,-272 223.179,-224.401 272.75,-186.532 302.436,-167.156"/>
<polygon fill="midnightblue" stroke="midnightblue" points="304.39,-170.061 310.956,-161.746 300.638,-164.151 304.39,-170.061"/>
</g>
<!-- Node5 -->
<g id="node5" class="node"><title>Node5</title>
<polygon fill="none" stroke="#bfbfbf" points="212.5,-396.5 212.5,-415.5 289.5,-415.5 289.5,-396.5 212.5,-396.5"/>
<text text-anchor="middle" x="251" y="-403.5" font-family="Helvetica,sans-Serif" font-size="10.00">FairRunAna.h</text>
</g>
<!-- Node1&#45;&gt;Node5 -->
<g id="edge4" class="edge"><title>Node1&#45;&gt;Node5</title>
<path fill="none" stroke="midnightblue" d="M321.697,-452.498C306.063,-442.436 287.336,-430.385 273.086,-421.214"/>
<polygon fill="midnightblue" stroke="midnightblue" points="274.748,-418.121 264.445,-415.652 270.96,-424.008 274.748,-418.121"/>
</g>
<!-- Node6 -->
<g id="node6" class="node"><title>Node6</title>
<polygon fill="none" stroke="#bfbfbf" points="308,-396.5 308,-415.5 396,-415.5 396,-396.5 308,-396.5"/>
<text text-anchor="middle" x="352" y="-403.5" font-family="Helvetica,sans-Serif" font-size="10.00">FairFileSource.h</text>
</g>
<!-- Node1&#45;&gt;Node6 -->
<g id="edge5" class="edge"><title>Node1&#45;&gt;Node6</title>
<path fill="none" stroke="midnightblue" d="M352,-452.498C352,-444.065 352,-434.235 352,-425.874"/>
<polygon fill="midnightblue" stroke="midnightblue" points="355.5,-425.652 352,-415.652 348.5,-425.653 355.5,-425.652"/>
</g>
<!-- Node7 -->
<g id="node7" class="node"><title>Node7</title>
<polygon fill="none" stroke="#bfbfbf" points="414.5,-396.5 414.5,-415.5 505.5,-415.5 505.5,-396.5 414.5,-396.5"/>
<text text-anchor="middle" x="460" y="-403.5" font-family="Helvetica,sans-Serif" font-size="10.00">FairRuntimeDb.h</text>
</g>
<!-- Node1&#45;&gt;Node7 -->
<g id="edge6" class="edge"><title>Node1&#45;&gt;Node7</title>
<path fill="none" stroke="midnightblue" d="M384.404,-452.498C401.28,-442.34 421.527,-430.155 436.818,-420.952"/>
<polygon fill="midnightblue" stroke="midnightblue" points="438.86,-423.808 445.624,-415.652 435.251,-417.81 438.86,-423.808"/>
</g>
<!-- Node8 -->
<g id="node8" class="node"><title>Node8</title>
<polygon fill="none" stroke="#bfbfbf" points="523.5,-396.5 523.5,-415.5 624.5,-415.5 624.5,-396.5 523.5,-396.5"/>
<text text-anchor="middle" x="574" y="-403.5" font-family="Helvetica,sans-Serif" font-size="10.00">FairParRootFileIo.h</text>
</g>
<!-- Node1&#45;&gt;Node8 -->
<g id="edge7" class="edge"><title>Node1&#45;&gt;Node8</title>
<path fill="none" stroke="midnightblue" d="M411.2,-454.667C450.481,-443.166 500.917,-428.398 535.169,-418.369"/>
<polygon fill="midnightblue" stroke="midnightblue" points="536.2,-421.715 544.813,-415.546 534.233,-414.997 536.2,-421.715"/>
</g>
<!-- Node9 -->
<g id="node9" class="node"><title>Node9</title>
<polygon fill="none" stroke="#bfbfbf" points="643,-396.5 643,-415.5 735,-415.5 735,-396.5 643,-396.5"/>
<text text-anchor="middle" x="689" y="-403.5" font-family="Helvetica,sans-Serif" font-size="10.00">FairSystemInfo.h</text>
</g>
<!-- Node1&#45;&gt;Node9 -->
<g id="edge8" class="edge"><title>Node1&#45;&gt;Node9</title>
<path fill="none" stroke="midnightblue" d="M411.087,-460.603C474.298,-448.411 573.702,-429.239 634.918,-417.431"/>
<polygon fill="midnightblue" stroke="midnightblue" points="635.618,-420.861 644.774,-415.53 634.292,-413.987 635.618,-420.861"/>
</g>
<!-- Node10 -->
<g id="node10" class="node"><title>Node10</title>
<g id="a_node10"><a xlink:href="../../dd/d11/ITSMFT_2MFT_2simulation_2include_2MFTSimulation_2DigitizerTask_8h.html" target="_top" xlink:title="MFTSimulation/DigitizerTask.h">
<polygon fill="none" stroke="black" points="1829,-396.5 1829,-415.5 1981,-415.5 1981,-396.5 1829,-396.5"/>
<text text-anchor="middle" x="1905" y="-403.5" font-family="Helvetica,sans-Serif" font-size="10.00">MFTSimulation/DigitizerTask.h</text>
</a>
</g>
</g>
<!-- Node1&#45;&gt;Node10 -->
<g id="edge9" class="edge"><title>Node1&#45;&gt;Node10</title>
<path fill="none" stroke="midnightblue" d="M411.455,-469.512C649.841,-459.534 1537.1,-422.398 1818.67,-410.613"/>
<polygon fill="midnightblue" stroke="midnightblue" points="1818.99,-414.103 1828.83,-410.188 1818.69,-407.109 1818.99,-414.103"/>
</g>
<!-- Node11 -->
<g id="node11" class="node"><title>Node11</title>
<polygon fill="none" stroke="#bfbfbf" points="2177.5,-340.5 2177.5,-359.5 2220.5,-359.5 2220.5,-340.5 2177.5,-340.5"/>
<text text-anchor="middle" x="2199" y="-347.5" font-family="Helvetica,sans-Serif" font-size="10.00">cstdio</text>
</g>
<!-- Node10&#45;&gt;Node11 -->
<g id="edge10" class="edge"><title>Node10&#45;&gt;Node11</title>
<path fill="none" stroke="midnightblue" d="M1960.58,-396.496C2012.98,-388.198 2093.61,-374.705 2163,-360 2164.46,-359.691 2165.95,-359.365 2167.45,-359.026"/>
<polygon fill="midnightblue" stroke="midnightblue" points="2168.43,-362.39 2177.36,-356.68 2166.82,-355.578 2168.43,-362.39"/>
</g>
<!-- Node12 -->
<g id="node12" class="node"><title>Node12</title>
<polygon fill="none" stroke="#bfbfbf" points="2238.5,-340.5 2238.5,-359.5 2301.5,-359.5 2301.5,-340.5 2238.5,-340.5"/>
<text text-anchor="middle" x="2270" y="-347.5" font-family="Helvetica,sans-Serif" font-size="10.00">FairTask.h</text>
</g>
<!-- Node10&#45;&gt;Node12 -->
<g id="edge11" class="edge"><title>Node10&#45;&gt;Node12</title>
<path fill="none" stroke="midnightblue" d="M1978.28,-396.479C2041.81,-388.714 2136.4,-376.243 2228.24,-360.012"/>
<polygon fill="midnightblue" stroke="midnightblue" points="2229.04,-363.425 2238.26,-358.223 2227.81,-356.534 2229.04,-363.425"/>
</g>
<!-- Node13 -->
<g id="node13" class="node"><title>Node13</title>
<polygon fill="none" stroke="#bfbfbf" points="425,-6.5 425,-25.5 481,-25.5 481,-6.5 425,-6.5"/>
<text text-anchor="middle" x="453" y="-13.5" font-family="Helvetica,sans-Serif" font-size="10.00">Rtypes.h</text>
</g>
<!-- Node10&#45;&gt;Node13 -->
<g id="edge12" class="edge"><title>Node10&#45;&gt;Node13</title>
<path fill="none" stroke="midnightblue" d="M1981.2,-400.088C2052.79,-390.846 2149,-364.399 2149,-289 2149,-289 2149,-289 2149,-219 2149,-181.055 2150.05,-167.573 2129,-136 2114.8,-114.697 2060.21,-76.3392 2036,-68 1960.71,-42.0612 725.082,-21.2999 491.079,-17.5907"/>
<polygon fill="midnightblue" stroke="midnightblue" points="491.062,-14.0901 481.008,-17.4318 490.951,-21.0892 491.062,-14.0901"/>
</g>
<!-- Node14 -->
<g id="node14" class="node"><title>Node14</title>
<g id="a_node14"><a xlink:href="../../df/d29/DigiParams_8h.html" target="_top" xlink:title="Simulation parameters for the ALIPIDE chip. ">
<polygon fill="none" stroke="black" points="212.5,-278.5 212.5,-297.5 373.5,-297.5 373.5,-278.5 212.5,-278.5"/>
<text text-anchor="middle" x="293" y="-285.5" font-family="Helvetica,sans-Serif" font-size="10.00">ITSMFTSimulation/DigiParams.h</text>
</a>
</g>
</g>
<!-- Node10&#45;&gt;Node14 -->
<g id="edge13" class="edge"><title>Node10&#45;&gt;Node14</title>
<path fill="none" stroke="midnightblue" d="M1828.62,-402.35C1605.98,-394.103 938.525,-365.662 388,-304 376.203,-302.679 363.632,-300.934 351.626,-299.104"/>
<polygon fill="midnightblue" stroke="midnightblue" points="352.124,-295.639 341.703,-297.554 351.043,-302.555 352.124,-295.639"/>
</g>
<!-- Node15 -->
<g id="node15" class="node"><title>Node15</title>
<g id="a_node15"><a xlink:href="../../d7/d9c/ITSMFT_2common_2simulation_2include_2ITSMFTSimulation_2Digitizer_8h.html" target="_top" xlink:title="ITSMFTSimulation/Digitizer.h">
<polygon fill="none" stroke="black" points="1589,-340.5 1589,-359.5 1735,-359.5 1735,-340.5 1589,-340.5"/>
<text text-anchor="middle" x="1662" y="-347.5" font-family="Helvetica,sans-Serif" font-size="10.00">ITSMFTSimulation/Digitizer.h</text>
</a>
</g>
</g>
<!-- Node10&#45;&gt;Node15 -->
<g id="edge15" class="edge"><title>Node10&#45;&gt;Node15</title>
<path fill="none" stroke="midnightblue" d="M1866.5,-396.444C1824.19,-387.043 1756.18,-371.929 1710.33,-361.739"/>
<polygon fill="midnightblue" stroke="midnightblue" points="1710.85,-358.269 1700.32,-359.516 1709.33,-365.102 1710.85,-358.269"/>
</g>
<!-- Node14&#45;&gt;Node13 -->
<g id="edge14" class="edge"><title>Node14&#45;&gt;Node13</title>
<path fill="none" stroke="midnightblue" d="M245.83,-278.453C189.618,-265.466 98.1387,-234.816 57,-168 33.6982,-130.154 27.6487,-101.374 57,-68 80.4683,-41.3155 320.43,-24.6572 414.993,-19.0845"/>
<polygon fill="midnightblue" stroke="midnightblue" points="415.215,-22.5776 424.995,-18.5046 414.81,-15.5893 415.215,-22.5776"/>
</g>
<!-- Node15&#45;&gt;Node13 -->
<g id="edge18" class="edge"><title>Node15&#45;&gt;Node13</title>
<path fill="none" stroke="midnightblue" d="M1613.16,-340.473C1393.32,-301.886 504.538,-143.618 464,-100 448.027,-82.8137 447.824,-54.3026 449.854,-35.5805"/>
<polygon fill="midnightblue" stroke="midnightblue" points="453.329,-36.0001 451.245,-25.6122 446.396,-35.0324 453.329,-36.0001"/>
</g>
<!-- Node15&#45;&gt;Node14 -->
<g id="edge53" class="edge"><title>Node15&#45;&gt;Node14</title>
<path fill="none" stroke="midnightblue" d="M1588.9,-349.513C1393.54,-350.216 843.196,-347.813 388,-304 375.541,-302.801 362.233,-301.018 349.641,-299.096"/>
<polygon fill="midnightblue" stroke="midnightblue" points="350.15,-295.633 339.727,-297.533 349.06,-302.547 350.15,-295.633"/>
</g>
<!-- Node16 -->
<g id="node16" class="node"><title>Node16</title>
<polygon fill="none" stroke="#bfbfbf" points="1941,-142.5 1941,-161.5 1985,-161.5 1985,-142.5 1941,-142.5"/>
<text text-anchor="middle" x="1963" y="-149.5" font-family="Helvetica,sans-Serif" font-size="10.00">vector</text>
</g>
<!-- Node15&#45;&gt;Node16 -->
<g id="edge16" class="edge"><title>Node15&#45;&gt;Node16</title>
<path fill="none" stroke="midnightblue" d="M1681.37,-340.474C1699.15,-332.259 1725.84,-318.906 1747,-304 1764.23,-291.86 1765.36,-284.942 1782,-272 1835.95,-230.031 1904.53,-187.671 1939.77,-166.631"/>
<polygon fill="midnightblue" stroke="midnightblue" points="1941.58,-169.631 1948.39,-161.517 1938,-163.612 1941.58,-169.631"/>
</g>
<!-- Node17 -->
<g id="node17" class="node"><title>Node17</title>
<polygon fill="none" stroke="#bfbfbf" points="1834,-278.5 1834,-297.5 1886,-297.5 1886,-278.5 1834,-278.5"/>
<text text-anchor="middle" x="1860" y="-285.5" font-family="Helvetica,sans-Serif" font-size="10.00">memory</text>
</g>
<!-- Node15&#45;&gt;Node17 -->
<g id="edge17" class="edge"><title>Node15&#45;&gt;Node17</title>
<path fill="none" stroke="midnightblue" d="M1694.92,-340.462C1727.04,-331.933 1777.2,-318.095 1820,-304 1822.77,-303.087 1825.64,-302.099 1828.51,-301.082"/>
<polygon fill="midnightblue" stroke="midnightblue" points="1829.91,-304.294 1838.11,-297.576 1827.51,-297.719 1829.91,-304.294"/>
</g>
<!-- Node18 -->
<g id="node18" class="node"><title>Node18</title>
<polygon fill="none" stroke="#bfbfbf" points="136.5,-142.5 136.5,-161.5 195.5,-161.5 195.5,-142.5 136.5,-142.5"/>
<text text-anchor="middle" x="166" y="-149.5" font-family="Helvetica,sans-Serif" font-size="10.00">TObject.h</text>
</g>
<!-- Node15&#45;&gt;Node18 -->
<g id="edge19" class="edge"><title>Node15&#45;&gt;Node18</title>
<path fill="none" stroke="midnightblue" d="M1588.62,-347.634C1330.33,-342.659 475.728,-324.705 421,-304 400.029,-296.066 401.324,-283.372 382,-272 344.515,-249.94 329.55,-256.14 291,-236 251.691,-215.464 209.382,-185.533 185.448,-167.786"/>
<polygon fill="midnightblue" stroke="midnightblue" points="187.322,-164.817 177.219,-161.626 183.127,-170.421 187.322,-164.817"/>
</g>
<!-- Node19 -->
<g id="node19" class="node"><title>Node19</title>
<g id="a_node19"><a xlink:href="../../d7/d9e/SimulationAlpide_8h.html" target="_top" xlink:title="Simulation of the ALIPIDE chip response. ">
<polygon fill="none" stroke="black" points="430.5,-273 430.5,-303 577.5,-303 577.5,-273 430.5,-273"/>
<text text-anchor="start" x="438.5" y="-291" font-family="Helvetica,sans-Serif" font-size="10.00">ITSMFTSimulation/Simulation</text>
<text text-anchor="middle" x="504" y="-280" font-family="Helvetica,sans-Serif" font-size="10.00">Alpide.h</text>
</a>
</g>
</g>
<!-- Node15&#45;&gt;Node19 -->
<g id="edge20" class="edge"><title>Node15&#45;&gt;Node19</title>
<path fill="none" stroke="midnightblue" d="M1588.79,-349.113C1415.21,-348.686 965.258,-343.5 592,-304 590.7,-303.862 589.389,-303.718 588.071,-303.566"/>
<polygon fill="midnightblue" stroke="midnightblue" points="588.205,-300.056 577.847,-302.286 587.335,-307.001 588.205,-300.056"/>
</g>
<!-- Node20 -->
<g id="node20" class="node"><title>Node20</title>
<g id="a_node20"><a xlink:href="../../dc/d1a/AlpideSimResponse_8h.html" target="_top" xlink:title="Definition of the ITSMFT Alpide simulated response parametrization. ">
<polygon fill="none" stroke="black" points="1899,-205 1899,-235 2045,-235 2045,-205 1899,-205"/>
<text text-anchor="start" x="1907" y="-223" font-family="Helvetica,sans-Serif" font-size="10.00">ITSMFTSimulation/AlpideSim</text>
<text text-anchor="middle" x="1972" y="-212" font-family="Helvetica,sans-Serif" font-size="10.00">Response.h</text>
</a>
</g>
</g>
<!-- Node15&#45;&gt;Node20 -->
<g id="edge52" class="edge"><title>Node15&#45;&gt;Node20</title>
<path fill="none" stroke="midnightblue" d="M1691.61,-340.463C1716.54,-332.683 1752.7,-319.979 1782,-304 1802.91,-292.594 1803.95,-283.145 1825,-272 1851.47,-257.987 1882.59,-246.545 1909.36,-238.076"/>
<polygon fill="midnightblue" stroke="midnightblue" points="1910.5,-241.389 1919.01,-235.091 1908.43,-234.702 1910.5,-241.389"/>
</g>
<!-- Node40 -->
<g id="node40" class="node"><title>Node40</title>
<g id="a_node40"><a xlink:href="../../d0/d2d/common_2base_2include_2ITSMFTBase_2GeometryTGeo_8h.html" target="_top" xlink:title="ITSMFTBase/GeometryTGeo.h">
<polygon fill="none" stroke="black" points="1585.5,-278.5 1585.5,-297.5 1738.5,-297.5 1738.5,-278.5 1585.5,-278.5"/>
<text text-anchor="middle" x="1662" y="-285.5" font-family="Helvetica,sans-Serif" font-size="10.00">ITSMFTBase/GeometryTGeo.h</text>
</a>
</g>
</g>
<!-- Node15&#45;&gt;Node40 -->
<g id="edge54" class="edge"><title>Node15&#45;&gt;Node40</title>
<path fill="none" stroke="midnightblue" d="M1662,-340.403C1662,-331.938 1662,-318.728 1662,-307.82"/>
<polygon fill="midnightblue" stroke="midnightblue" points="1665.5,-307.581 1662,-297.581 1658.5,-307.581 1665.5,-307.581"/>
</g>
<!-- Node19&#45;&gt;Node18 -->
<g id="edge21" class="edge"><title>Node19&#45;&gt;Node18</title>
<path fill="none" stroke="midnightblue" d="M468.467,-272.913C402.021,-246.571 260.002,-190.267 197.094,-165.327"/>
<polygon fill="midnightblue" stroke="midnightblue" points="198.287,-162.035 187.701,-161.603 195.707,-168.543 198.287,-162.035"/>
</g>
<!-- Node19&#45;&gt;Node20 -->
<g id="edge22" class="edge"><title>Node19&#45;&gt;Node20</title>
<path fill="none" stroke="midnightblue" d="M577.703,-284.656C770.312,-278.384 1304.56,-260.047 1749,-236 1795.26,-233.497 1846.89,-230.065 1888.8,-227.116"/>
<polygon fill="midnightblue" stroke="midnightblue" points="1889.23,-230.595 1898.96,-226.397 1888.74,-223.612 1889.23,-230.595"/>
</g>
<!-- Node23 -->
<g id="node23" class="node"><title>Node23</title>
<g id="a_node23"><a xlink:href="../../d9/d55/Chip_8h.html" target="_top" xlink:title="ITSMFTSimulation/Chip.h">
<polygon fill="none" stroke="black" points="421,-210.5 421,-229.5 551,-229.5 551,-210.5 421,-210.5"/>
<text text-anchor="middle" x="486" y="-217.5" font-family="Helvetica,sans-Serif" font-size="10.00">ITSMFTSimulation/Chip.h</text>
</a>
</g>
</g>
<!-- Node19&#45;&gt;Node23 -->
<g id="edge27" class="edge"><title>Node19&#45;&gt;Node23</title>
<path fill="none" stroke="midnightblue" d="M500.094,-272.679C497.454,-262.999 493.943,-250.123 491.085,-239.645"/>
<polygon fill="midnightblue" stroke="midnightblue" points="494.416,-238.555 488.408,-229.828 487.662,-240.397 494.416,-238.555"/>
</g>
<!-- Node20&#45;&gt;Node13 -->
<g id="edge26" class="edge"><title>Node20&#45;&gt;Node13</title>
<path fill="none" stroke="midnightblue" d="M1979.82,-204.843C1997.86,-171.255 2039.42,-88.0613 2020,-68 1992.57,-39.6646 729.94,-20.8276 491.589,-17.521"/>
<polygon fill="midnightblue" stroke="midnightblue" points="491.38,-14.0178 481.333,-17.3795 491.283,-21.0172 491.38,-14.0178"/>
</g>
<!-- Node20&#45;&gt;Node16 -->
<g id="edge25" class="edge"><title>Node20&#45;&gt;Node16</title>
<path fill="none" stroke="midnightblue" d="M1970.05,-204.679C1968.74,-195.101 1967.01,-182.394 1965.59,-171.977"/>
<polygon fill="midnightblue" stroke="midnightblue" points="1969.02,-171.264 1964.2,-161.828 1962.09,-172.21 1969.02,-171.264"/>
</g>
<!-- Node21 -->
<g id="node21" class="node"><title>Node21</title>
<polygon fill="none" stroke="#bfbfbf" points="2224,-6.5 2224,-25.5 2262,-25.5 2262,-6.5 2224,-6.5"/>
<text text-anchor="middle" x="2243" y="-13.5" font-family="Helvetica,sans-Serif" font-size="10.00">array</text>
</g>
<!-- Node20&#45;&gt;Node21 -->
<g id="edge23" class="edge"><title>Node20&#45;&gt;Node21</title>
<path fill="none" stroke="midnightblue" d="M1987.02,-204.715C2009.8,-183.354 2052.4,-144.663 2071,-136 2154.86,-96.9523 2216.51,-170.843 2276,-100 2292.45,-80.4054 2273.99,-51.5896 2258.78,-33.5792"/>
<polygon fill="midnightblue" stroke="midnightblue" points="2261.02,-30.8251 2251.75,-25.6936 2255.79,-35.4854 2261.02,-30.8251"/>
</g>
<!-- Node22 -->
<g id="node22" class="node"><title>Node22</title>
<polygon fill="none" stroke="#bfbfbf" points="2079.5,-142.5 2079.5,-161.5 2120.5,-161.5 2120.5,-142.5 2079.5,-142.5"/>
<text text-anchor="middle" x="2100" y="-149.5" font-family="Helvetica,sans-Serif" font-size="10.00">string</text>
</g>
<!-- Node20&#45;&gt;Node22 -->
<g id="edge24" class="edge"><title>Node20&#45;&gt;Node22</title>
<path fill="none" stroke="midnightblue" d="M1999.46,-204.841C2021.6,-193.425 2052.51,-177.485 2074.2,-166.303"/>
<polygon fill="midnightblue" stroke="midnightblue" points="2075.88,-169.376 2083.16,-161.682 2072.67,-163.154 2075.88,-169.376"/>
</g>
<!-- Node23&#45;&gt;Node2 -->
<g id="edge37" class="edge"><title>Node23&#45;&gt;Node2</title>
<path fill="none" stroke="midnightblue" d="M420.74,-214.917C347.976,-209.176 227.327,-196.091 127,-168 124.346,-167.257 121.628,-166.358 118.938,-165.374"/>
<polygon fill="midnightblue" stroke="midnightblue" points="120.061,-162.053 109.477,-161.562 117.444,-168.546 120.061,-162.053"/>
</g>
<!-- Node23&#45;&gt;Node16 -->
<g id="edge38" class="edge"><title>Node23&#45;&gt;Node16</title>
<path fill="none" stroke="midnightblue" d="M551.13,-218.179C791.568,-214.909 1629.01,-201.333 1894,-168 1906.11,-166.477 1919.23,-163.871 1930.75,-161.254"/>
<polygon fill="midnightblue" stroke="midnightblue" points="1931.87,-164.585 1940.8,-158.879 1930.26,-157.772 1931.87,-164.585"/>
</g>
<!-- Node23&#45;&gt;Node18 -->
<g id="edge34" class="edge"><title>Node23&#45;&gt;Node18</title>
<path fill="none" stroke="midnightblue" d="M420.771,-210.922C363.075,-202.901 276.971,-188.781 204,-168 201.026,-167.153 197.963,-166.16 194.928,-165.094"/>
<polygon fill="midnightblue" stroke="midnightblue" points="196.06,-161.781 185.468,-161.536 193.596,-168.333 196.06,-161.781"/>
</g>
<!-- Node24 -->
<g id="node24" class="node"><title>Node24</title>
<g id="a_node24"><a xlink:href="../../d0/d06/ITSMFT_2common_2base_2include_2ITSMFTBase_2Digit_8h.html" target="_top" xlink:title="ITSMFTBase/Digit.h">
<polygon fill="none" stroke="black" points="432.5,-142.5 432.5,-161.5 539.5,-161.5 539.5,-142.5 432.5,-142.5"/>
<text text-anchor="middle" x="486" y="-149.5" font-family="Helvetica,sans-Serif" font-size="10.00">ITSMFTBase/Digit.h</text>
</a>
</g>
</g>
<!-- Node23&#45;&gt;Node24 -->
<g id="edge28" class="edge"><title>Node23&#45;&gt;Node24</title>
<path fill="none" stroke="midnightblue" d="M486,-210.372C486,-200.643 486,-184.528 486,-171.85"/>
<polygon fill="midnightblue" stroke="midnightblue" points="489.5,-171.841 486,-161.841 482.5,-171.841 489.5,-171.841"/>
</g>
<!-- Node25 -->
<g id="node25" class="node"><title>Node25</title>
<g id="a_node25"><a xlink:href="../../d7/dcd/MCCompLabel_8h.html" target="_top" xlink:title="SimulationDataFormat\l/MCCompLabel.h">
<polygon fill="none" stroke="black" points="292,-69 292,-99 406,-99 406,-69 292,-69"/>
<text text-anchor="start" x="300" y="-87" font-family="Helvetica,sans-Serif" font-size="10.00">SimulationDataFormat</text>
<text text-anchor="middle" x="349" y="-76" font-family="Helvetica,sans-Serif" font-size="10.00">/MCCompLabel.h</text>
</a>
</g>
</g>
<!-- Node23&#45;&gt;Node25 -->
<g id="edge51" class="edge"><title>Node23&#45;&gt;Node25</title>
<path fill="none" stroke="midnightblue" d="M500.8,-210.439C525.115,-195.297 568.841,-162.856 548,-136 543.778,-130.559 472.193,-113.115 416.078,-100.134"/>
<polygon fill="midnightblue" stroke="midnightblue" points="416.686,-96.6827 406.155,-97.848 415.114,-103.504 416.686,-96.6827"/>
</g>
<!-- Node27 -->
<g id="node27" class="node"><title>Node27</title>
<polygon fill="none" stroke="#bfbfbf" points="213.5,-142.5 213.5,-161.5 272.5,-161.5 272.5,-142.5 213.5,-142.5"/>
<text text-anchor="middle" x="243" y="-149.5" font-family="Helvetica,sans-Serif" font-size="10.00">exception</text>
</g>
<!-- Node23&#45;&gt;Node27 -->
<g id="edge35" class="edge"><title>Node23&#45;&gt;Node27</title>
<path fill="none" stroke="midnightblue" d="M445.104,-210.498C403.405,-201.44 337.06,-185.951 281,-168 278.368,-167.157 275.656,-166.223 272.951,-165.246"/>
<polygon fill="midnightblue" stroke="midnightblue" points="273.922,-161.871 263.331,-161.598 271.44,-168.416 273.922,-161.871"/>
</g>
<!-- Node28 -->
<g id="node28" class="node"><title>Node28</title>
<polygon fill="none" stroke="#bfbfbf" points="379.5,-142.5 379.5,-161.5 414.5,-161.5 414.5,-142.5 379.5,-142.5"/>
<text text-anchor="middle" x="397" y="-149.5" font-family="Helvetica,sans-Serif" font-size="10.00">map</text>
</g>
<!-- Node23&#45;&gt;Node28 -->
<g id="edge36" class="edge"><title>Node23&#45;&gt;Node28</title>
<path fill="none" stroke="midnightblue" d="M474.365,-210.372C459.84,-199.6 434.76,-181.002 417.101,-167.906"/>
<polygon fill="midnightblue" stroke="midnightblue" points="418.755,-164.776 408.638,-161.63 414.586,-170.398 418.755,-164.776"/>
</g>
<!-- Node29 -->
<g id="node29" class="node"><title>Node29</title>
<g id="a_node29"><a xlink:href="../../dd/d76/Cartesian3D_8h.html" target="_top" xlink:title="MathUtils/Cartesian3D.h">
<polygon fill="none" stroke="black" points="938.5,-142.5 938.5,-161.5 1063.5,-161.5 1063.5,-142.5 938.5,-142.5"/>
<text text-anchor="middle" x="1001" y="-149.5" font-family="Helvetica,sans-Serif" font-size="10.00">MathUtils/Cartesian3D.h</text>
</a>
</g>
</g>
<!-- Node23&#45;&gt;Node29 -->
<g id="edge39" class="edge"><title>Node23&#45;&gt;Node29</title>
<path fill="none" stroke="midnightblue" d="M551.225,-210.641C647.653,-198.283 827.657,-175.215 928.24,-162.325"/>
<polygon fill="midnightblue" stroke="midnightblue" points="928.842,-165.776 938.316,-161.033 927.952,-158.833 928.842,-165.776"/>
</g>
<!-- Node24&#45;&gt;Node13 -->
<g id="edge29" class="edge"><title>Node24&#45;&gt;Node13</title>
<path fill="none" stroke="midnightblue" d="M450.918,-142.473C393.177,-128.399 284.313,-101.683 283,-100 245.196,-51.5238 353.548,-29.5644 414.544,-21.2606"/>
<polygon fill="midnightblue" stroke="midnightblue" points="415.151,-24.7113 424.617,-19.954 414.25,-17.7695 415.151,-24.7113"/>
</g>
<!-- Node24&#45;&gt;Node25 -->
<g id="edge30" class="edge"><title>Node24&#45;&gt;Node25</title>
<path fill="none" stroke="midnightblue" d="M468.09,-142.372C447.742,-132.569 413.937,-116.283 387.532,-103.563"/>
<polygon fill="midnightblue" stroke="midnightblue" points="388.705,-100.243 378.177,-99.0562 385.667,-106.55 388.705,-100.243"/>
</g>
<!-- Node26 -->
<g id="node26" class="node"><title>Node26</title>
<g id="a_node26"><a xlink:href="../../df/d5d/common_2include_2CommonDataFormat_2TimeStamp_8h.html" target="_top" xlink:title="CommonDataFormat/TimeStamp.h">
<polygon fill="none" stroke="black" points="66,-74.5 66,-93.5 236,-93.5 236,-74.5 66,-74.5"/>
<text text-anchor="middle" x="151" y="-81.5" font-family="Helvetica,sans-Serif" font-size="10.00">CommonDataFormat/TimeStamp.h</text>
</a>
</g>
</g>
<!-- Node24&#45;&gt;Node26 -->
<g id="edge32" class="edge"><title>Node24&#45;&gt;Node26</title>
<path fill="none" stroke="midnightblue" d="M451.408,-142.446C442.196,-140.255 432.238,-137.965 423,-136 350.003,-120.476 265.449,-105.014 210.238,-95.2549"/>
<polygon fill="midnightblue" stroke="midnightblue" points="210.736,-91.7887 200.28,-93.5003 209.521,-98.6825 210.736,-91.7887"/>
</g>
<!-- Node25&#45;&gt;Node13 -->
<g id="edge31" class="edge"><title>Node25&#45;&gt;Node13</title>
<path fill="none" stroke="midnightblue" d="M371.311,-68.8413C388.896,-57.6813 413.295,-42.1977 430.841,-31.0625"/>
<polygon fill="midnightblue" stroke="midnightblue" points="432.752,-33.9953 439.319,-25.6819 429.001,-28.085 432.752,-33.9953"/>
</g>
<!-- Node26&#45;&gt;Node13 -->
<g id="edge33" class="edge"><title>Node26&#45;&gt;Node13</title>
<path fill="none" stroke="midnightblue" d="M190.172,-74.4393C248.437,-61.7057 357.242,-37.9272 414.888,-25.3291"/>
<polygon fill="midnightblue" stroke="midnightblue" points="415.674,-28.74 424.696,-23.1856 414.18,-21.9014 415.674,-28.74"/>
</g>
<!-- Node29&#45;&gt;Node13 -->
<g id="edge45" class="edge"><title>Node29&#45;&gt;Node13</title>
<path fill="none" stroke="midnightblue" d="M938.389,-148.206C810.163,-141.989 526.699,-125.516 491,-100 469.875,-84.9009 460.225,-55.1308 456.015,-35.6538"/>
<polygon fill="midnightblue" stroke="midnightblue" points="459.406,-34.7458 454.119,-25.5642 452.526,-36.0386 459.406,-34.7458"/>
</g>
<!-- Node30 -->
<g id="node30" class="node"><title>Node30</title>
<polygon fill="none" stroke="#bfbfbf" points="563.5,-69 563.5,-99 714.5,-99 714.5,-69 563.5,-69"/>
<text text-anchor="start" x="571.5" y="-87" font-family="Helvetica,sans-Serif" font-size="10.00">Math/GenVector/Displacement</text>
<text text-anchor="middle" x="639" y="-76" font-family="Helvetica,sans-Serif" font-size="10.00">Vector3D.h</text>
</g>
<!-- Node29&#45;&gt;Node30 -->
<g id="edge40" class="edge"><title>Node29&#45;&gt;Node30</title>
<path fill="none" stroke="midnightblue" d="M954.046,-142.439C896.035,-131.863 796.23,-113.666 724.485,-100.586"/>
<polygon fill="midnightblue" stroke="midnightblue" points="725.021,-97.1257 714.555,-98.7753 723.765,-104.012 725.021,-97.1257"/>
</g>
<!-- Node31 -->
<g id="node31" class="node"><title>Node31</title>
<polygon fill="none" stroke="#bfbfbf" points="733,-74.5 733,-93.5 909,-93.5 909,-74.5 733,-74.5"/>
<text text-anchor="middle" x="821" y="-81.5" font-family="Helvetica,sans-Serif" font-size="10.00">Math/GenVector/PositionVector3D.h</text>
</g>
<!-- Node29&#45;&gt;Node31 -->
<g id="edge41" class="edge"><title>Node29&#45;&gt;Node31</title>
<path fill="none" stroke="midnightblue" d="M977.468,-142.372C945.849,-130.778 889.499,-110.116 853.751,-97.0087"/>
<polygon fill="midnightblue" stroke="midnightblue" points="854.846,-93.6824 844.252,-93.5259 852.436,-100.255 854.846,-93.6824"/>
</g>
<!-- Node32 -->
<g id="node32" class="node"><title>Node32</title>
<polygon fill="none" stroke="#bfbfbf" points="926.5,-74.5 926.5,-93.5 1075.5,-93.5 1075.5,-74.5 926.5,-74.5"/>
<text text-anchor="middle" x="1001" y="-81.5" font-family="Helvetica,sans-Serif" font-size="10.00">Math/GenVector/Rotation3D.h</text>
</g>
<!-- Node29&#45;&gt;Node32 -->
<g id="edge42" class="edge"><title>Node29&#45;&gt;Node32</title>
<path fill="none" stroke="midnightblue" d="M1001,-142.372C1001,-132.643 1001,-116.528 1001,-103.85"/>
<polygon fill="midnightblue" stroke="midnightblue" points="1004.5,-103.841 1001,-93.8411 997.5,-103.841 1004.5,-103.841"/>
</g>
<!-- Node33 -->
<g id="node33" class="node"><title>Node33</title>
<polygon fill="none" stroke="#bfbfbf" points="1094,-74.5 1094,-93.5 1250,-93.5 1250,-74.5 1094,-74.5"/>
<text text-anchor="middle" x="1172" y="-81.5" font-family="Helvetica,sans-Serif" font-size="10.00">Math/GenVector/Transform3D.h</text>
</g>
<!-- Node29&#45;&gt;Node33 -->
<g id="edge43" class="edge"><title>Node29&#45;&gt;Node33</title>
<path fill="none" stroke="midnightblue" d="M1023.36,-142.372C1053.27,-130.827 1106.47,-110.293 1140.45,-97.1772"/>
<polygon fill="midnightblue" stroke="midnightblue" points="1141.84,-100.392 1149.91,-93.5259 1139.32,-93.8615 1141.84,-100.392"/>
</g>
<!-- Node34 -->
<g id="node34" class="node"><title>Node34</title>
<polygon fill="none" stroke="#bfbfbf" points="1268,-74.5 1268,-93.5 1428,-93.5 1428,-74.5 1268,-74.5"/>
<text text-anchor="middle" x="1348" y="-81.5" font-family="Helvetica,sans-Serif" font-size="10.00">Math/GenVector/Translation3D.h</text>
</g>
<!-- Node29&#45;&gt;Node34 -->
<g id="edge44" class="edge"><title>Node29&#45;&gt;Node34</title>
<path fill="none" stroke="midnightblue" d="M1046.01,-142.439C1109.32,-130.396 1224.58,-108.475 1292.93,-95.4745"/>
<polygon fill="midnightblue" stroke="midnightblue" points="1293.9,-98.8525 1303.07,-93.5455 1292.59,-91.9758 1293.9,-98.8525"/>
</g>
<!-- Node35 -->
<g id="node35" class="node"><title>Node35</title>
<polygon fill="none" stroke="#bfbfbf" points="1446,-74.5 1446,-93.5 1522,-93.5 1522,-74.5 1446,-74.5"/>
<text text-anchor="middle" x="1484" y="-81.5" font-family="Helvetica,sans-Serif" font-size="10.00">TGeoMatrix.h</text>
</g>
<!-- Node29&#45;&gt;Node35 -->
<g id="edge46" class="edge"><title>Node29&#45;&gt;Node35</title>
<path fill="none" stroke="midnightblue" d="M1063.71,-147.466C1148.98,-141.801 1305.89,-128.313 1437,-100 1441.45,-99.0384 1446.08,-97.8288 1450.63,-96.5159"/>
<polygon fill="midnightblue" stroke="midnightblue" points="1451.8,-99.8171 1460.33,-93.5327 1449.74,-93.1262 1451.8,-99.8171"/>
</g>
<!-- Node36 -->
<g id="node36" class="node"><title>Node36</title>
<polygon fill="none" stroke="#bfbfbf" points="500.5,-74.5 500.5,-93.5 545.5,-93.5 545.5,-74.5 500.5,-74.5"/>
<text text-anchor="middle" x="523" y="-81.5" font-family="Helvetica,sans-Serif" font-size="10.00">iosfwd</text>
</g>
<!-- Node29&#45;&gt;Node36 -->
<g id="edge47" class="edge"><title>Node29&#45;&gt;Node36</title>
<path fill="none" stroke="midnightblue" d="M938.247,-150.443C850.558,-148.19 687.16,-138.598 554,-100 551.807,-99.3644 549.579,-98.5846 547.374,-97.7178"/>
<polygon fill="midnightblue" stroke="midnightblue" points="548.603,-94.4331 538.046,-93.5383 545.74,-100.821 548.603,-94.4331"/>
</g>
<!-- Node37 -->
<g id="node37" class="node"><title>Node37</title>
<g id="a_node37"><a xlink:href="../../d2/dd0/Cartesian2D_8h.html" target="_top" xlink:title="MathUtils/Cartesian2D.h">
<polygon fill="none" stroke="black" points="1616.5,-74.5 1616.5,-93.5 1741.5,-93.5 1741.5,-74.5 1616.5,-74.5"/>
<text text-anchor="middle" x="1679" y="-81.5" font-family="Helvetica,sans-Serif" font-size="10.00">MathUtils/Cartesian2D.h</text>
</a>
</g>
</g>
<!-- Node29&#45;&gt;Node37 -->
<g id="edge48" class="edge"><title>Node29&#45;&gt;Node37</title>
<path fill="none" stroke="midnightblue" d="M1063.83,-145.058C1163.08,-135.649 1362.2,-116.676 1531,-100 1555.51,-97.5785 1582.3,-94.8793 1606.27,-92.4454"/>
<polygon fill="midnightblue" stroke="midnightblue" points="1606.76,-95.9137 1616.36,-91.4201 1606.05,-88.9496 1606.76,-95.9137"/>
</g>
<!-- Node38 -->
<g id="node38" class="node"><title>Node38</title>
<polygon fill="none" stroke="#bfbfbf" points="1690.5,-1 1690.5,-31 1841.5,-31 1841.5,-1 1690.5,-1"/>
<text text-anchor="start" x="1698.5" y="-19" font-family="Helvetica,sans-Serif" font-size="10.00">Math/GenVector/Displacement</text>
<text text-anchor="middle" x="1766" y="-8" font-family="Helvetica,sans-Serif" font-size="10.00">Vector2D.h</text>
</g>
<!-- Node37&#45;&gt;Node38 -->
<g id="edge49" class="edge"><title>Node37&#45;&gt;Node38</title>
<path fill="none" stroke="midnightblue" d="M1690.37,-74.3717C1702.69,-65.0286 1722.77,-49.7966 1739.14,-37.375"/>
<polygon fill="midnightblue" stroke="midnightblue" points="1741.45,-40.0138 1747.31,-31.1815 1737.22,-34.4369 1741.45,-40.0138"/>
</g>
<!-- Node39 -->
<g id="node39" class="node"><title>Node39</title>
<polygon fill="none" stroke="#bfbfbf" points="1496,-6.5 1496,-25.5 1672,-25.5 1672,-6.5 1496,-6.5"/>
<text text-anchor="middle" x="1584" y="-13.5" font-family="Helvetica,sans-Serif" font-size="10.00">Math/GenVector/PositionVector2D.h</text>
</g>
<!-- Node37&#45;&gt;Node39 -->
<g id="edge50" class="edge"><title>Node37&#45;&gt;Node39</title>
<path fill="none" stroke="midnightblue" d="M1666.58,-74.3717C1650.86,-63.4521 1623.57,-44.4888 1604.68,-31.369"/>
<polygon fill="midnightblue" stroke="midnightblue" points="1606.63,-28.4617 1596.42,-25.6305 1602.64,-34.2105 1606.63,-28.4617"/>
</g>
<!-- Node40&#45;&gt;Node22 -->
<g id="edge56" class="edge"><title>Node40&#45;&gt;Node22</title>
<path fill="none" stroke="midnightblue" d="M1738.55,-278.83C1848.93,-266.791 2041.11,-244.766 2054,-236 2076.43,-220.754 2089.03,-190.797 2095.17,-171.352"/>
<polygon fill="midnightblue" stroke="midnightblue" points="2098.59,-172.128 2098,-161.549 2091.87,-170.185 2098.59,-172.128"/>
</g>
<!-- Node41 -->
<g id="node41" class="node"><title>Node41</title>
<polygon fill="none" stroke="#bfbfbf" points="1496.5,-210.5 1496.5,-229.5 1565.5,-229.5 1565.5,-210.5 1496.5,-210.5"/>
<text text-anchor="middle" x="1531" y="-217.5" font-family="Helvetica,sans-Serif" font-size="10.00">TObjArray.h</text>
</g>
<!-- Node40&#45;&gt;Node41 -->
<g id="edge55" class="edge"><title>Node40&#45;&gt;Node41</title>
<path fill="none" stroke="midnightblue" d="M1644.87,-278.372C1622.51,-267.106 1583.16,-247.279 1557.08,-234.14"/>
<polygon fill="midnightblue" stroke="midnightblue" points="1558.64,-231.004 1548.13,-229.63 1555.49,-237.256 1558.64,-231.004"/>
</g>
<!-- Node42 -->
<g id="node42" class="node"><title>Node42</title>
<g id="a_node42"><a xlink:href="../../d4/d20/DetMatrixCache_8h.html" target="_top" xlink:title="DetectorsCommonDataFormats\l/DetMatrixCache.h">
<polygon fill="none" stroke="black" points="1584,-205 1584,-235 1740,-235 1740,-205 1584,-205"/>
<text text-anchor="start" x="1592" y="-223" font-family="Helvetica,sans-Serif" font-size="10.00">DetectorsCommonDataFormats</text>
<text text-anchor="middle" x="1662" y="-212" font-family="Helvetica,sans-Serif" font-size="10.00">/DetMatrixCache.h</text>
</a>
</g>
</g>
<!-- Node40&#45;&gt;Node42 -->
<g id="edge57" class="edge"><title>Node40&#45;&gt;Node42</title>
<path fill="none" stroke="midnightblue" d="M1662,-278.372C1662,-269.971 1662,-256.811 1662,-245.213"/>
<polygon fill="midnightblue" stroke="midnightblue" points="1665.5,-245.181 1662,-235.181 1658.5,-245.181 1665.5,-245.181"/>
</g>
<!-- Node42&#45;&gt;Node4 -->
<g id="edge58" class="edge"><title>Node42&#45;&gt;Node4</title>
<path fill="none" stroke="midnightblue" d="M1583.87,-205.102C1580.54,-204.694 1577.24,-204.323 1574,-204 1307.65,-177.447 633.388,-215.717 370,-168 365.712,-167.223 361.275,-166.107 356.943,-164.828"/>
<polygon fill="midnightblue" stroke="midnightblue" points="357.736,-161.406 347.144,-161.635 355.568,-168.061 357.736,-161.406"/>
</g>
<!-- Node42&#45;&gt;Node13 -->
<g id="edge73" class="edge"><title>Node42&#45;&gt;Node13</title>
<path fill="none" stroke="midnightblue" d="M1650.8,-204.862C1622.11,-168.824 1547.08,-75.8023 1531,-68 1435.97,-21.8898 671.869,-17.4413 491.193,-17.0358"/>
<polygon fill="midnightblue" stroke="midnightblue" points="491.107,-13.5357 481.1,-17.016 491.094,-20.5357 491.107,-13.5357"/>
</g>
<!-- Node42&#45;&gt;Node16 -->
<g id="edge60" class="edge"><title>Node42&#45;&gt;Node16</title>
<path fill="none" stroke="midnightblue" d="M1740.15,-205.782C1805.3,-194.426 1892.79,-178.3 1927,-168 1929.64,-167.204 1932.36,-166.281 1935.06,-165.291"/>
<polygon fill="midnightblue" stroke="midnightblue" points="1936.57,-168.457 1944.58,-161.526 1933.99,-161.948 1936.57,-168.457"/>
</g>
<!-- Node42&#45;&gt;Node21 -->
<g id="edge59" class="edge"><title>Node42&#45;&gt;Node21</title>
<path fill="none" stroke="midnightblue" d="M1740.07,-211.369C1786.61,-204.541 1845.82,-191.757 1894,-168 1913.8,-158.235 1911.75,-144.802 1932,-136 1993.17,-109.408 2182.01,-146.331 2230,-100 2247.02,-83.5634 2247.69,-54.6225 2245.9,-35.6291"/>
<polygon fill="midnightblue" stroke="midnightblue" points="2249.35,-35.0106 2244.62,-25.527 2242.4,-35.8863 2249.35,-35.0106"/>
</g>
<!-- Node42&#45;&gt;Node29 -->
<g id="edge72" class="edge"><title>Node42&#45;&gt;Node29</title>
<path fill="none" stroke="midnightblue" d="M1583.84,-205.343C1580.52,-204.868 1577.23,-204.418 1574,-204 1395.05,-180.823 1183.29,-164.958 1074.16,-157.628"/>
<polygon fill="midnightblue" stroke="midnightblue" points="1074.13,-154.119 1063.92,-156.946 1073.67,-161.103 1074.13,-154.119"/>
</g>
<!-- Node43 -->
<g id="node43" class="node"><title>Node43</title>
<g id="a_node43"><a xlink:href="../../d6/d31/DetID_8h.html" target="_top" xlink:title="DetectorsCommonDataFormats\l/DetID.h">
<polygon fill="none" stroke="black" points="1729,-137 1729,-167 1885,-167 1885,-137 1729,-137"/>
<text text-anchor="start" x="1737" y="-155" font-family="Helvetica,sans-Serif" font-size="10.00">DetectorsCommonDataFormats</text>
<text text-anchor="middle" x="1807" y="-144" font-family="Helvetica,sans-Serif" font-size="10.00">/DetID.h</text>
</a>
</g>
</g>
<!-- Node42&#45;&gt;Node43 -->
<g id="edge61" class="edge"><title>Node42&#45;&gt;Node43</title>
<path fill="none" stroke="midnightblue" d="M1693.11,-204.841C1714.68,-195.021 1743.61,-181.852 1766.92,-171.245"/>
<polygon fill="midnightblue" stroke="midnightblue" points="1768.54,-174.35 1776.19,-167.022 1765.64,-167.979 1768.54,-174.35"/>
</g>
<!-- Node43&#45;&gt;Node13 -->
<g id="edge62" class="edge"><title>Node43&#45;&gt;Node13</title>
<path fill="none" stroke="midnightblue" d="M1728.58,-138.038C1690.95,-130.051 1645.92,-117.844 1608,-100 1586.12,-89.7041 1586.82,-76.0031 1564,-68 1461.11,-31.9131 674.873,-19.8035 491.258,-17.4533"/>
<polygon fill="midnightblue" stroke="midnightblue" points="491.056,-13.9506 481.012,-17.3244 490.967,-20.95 491.056,-13.9506"/>
</g>
<!-- Node43&#45;&gt;Node21 -->
<g id="edge63" class="edge"><title>Node43&#45;&gt;Node21</title>
<path fill="none" stroke="midnightblue" d="M1885.26,-137.997C1889.91,-137.301 1894.51,-136.629 1899,-136 1966.81,-126.489 2149.65,-140.298 2205,-100 2225.99,-84.7173 2235.68,-54.9985 2239.93,-35.5824"/>
<polygon fill="midnightblue" stroke="midnightblue" points="2243.42,-36.0072 2241.85,-25.528 2236.54,-34.6933 2243.42,-36.0072"/>
</g>
<!-- Node44 -->
<g id="node44" class="node"><title>Node44</title>
<polygon fill="none" stroke="#bfbfbf" points="1759.5,-74.5 1759.5,-93.5 1800.5,-93.5 1800.5,-74.5 1759.5,-74.5"/>
<text text-anchor="middle" x="1780" y="-81.5" font-family="Helvetica,sans-Serif" font-size="10.00">bitset</text>
</g>
<!-- Node43&#45;&gt;Node44 -->
<g id="edge64" class="edge"><title>Node43&#45;&gt;Node44</title>
<path fill="none" stroke="midnightblue" d="M1801.14,-136.679C1797.14,-126.898 1791.8,-113.852 1787.49,-103.315"/>
<polygon fill="midnightblue" stroke="midnightblue" points="1790.64,-101.759 1783.61,-93.8283 1784.16,-104.409 1790.64,-101.759"/>
</g>
<!-- Node45 -->
<g id="node45" class="node"><title>Node45</title>
<polygon fill="none" stroke="#bfbfbf" points="1818.5,-74.5 1818.5,-93.5 1867.5,-93.5 1867.5,-74.5 1818.5,-74.5"/>
<text text-anchor="middle" x="1843" y="-81.5" font-family="Helvetica,sans-Serif" font-size="10.00">cassert</text>
</g>
<!-- Node43&#45;&gt;Node45 -->
<g id="edge65" class="edge"><title>Node43&#45;&gt;Node45</title>
<path fill="none" stroke="midnightblue" d="M1814.81,-136.679C1820.26,-126.694 1827.56,-113.307 1833.37,-102.66"/>
<polygon fill="midnightblue" stroke="midnightblue" points="1836.47,-104.283 1838.18,-93.8283 1830.32,-100.931 1836.47,-104.283"/>
</g>
<!-- Node46 -->
<g id="node46" class="node"><title>Node46</title>
<polygon fill="none" stroke="#bfbfbf" points="1886,-74.5 1886,-93.5 1932,-93.5 1932,-74.5 1886,-74.5"/>
<text text-anchor="middle" x="1909" y="-81.5" font-family="Helvetica,sans-Serif" font-size="10.00">cstdint</text>
</g>
<!-- Node43&#45;&gt;Node46 -->
<g id="edge66" class="edge"><title>Node43&#45;&gt;Node46</title>
<path fill="none" stroke="midnightblue" d="M1828.88,-136.841C1845.97,-125.784 1869.62,-110.481 1886.79,-99.3701"/>
<polygon fill="midnightblue" stroke="midnightblue" points="1889.09,-102.053 1895.58,-93.6819 1885.29,-96.1759 1889.09,-102.053"/>
</g>
<!-- Node47 -->
<g id="node47" class="node"><title>Node47</title>
<polygon fill="none" stroke="#bfbfbf" points="1950,-74.5 1950,-93.5 2012,-93.5 2012,-74.5 1950,-74.5"/>
<text text-anchor="middle" x="1981" y="-81.5" font-family="Helvetica,sans-Serif" font-size="10.00">type_traits</text>
</g>
<!-- Node43&#45;&gt;Node47 -->
<g id="edge67" class="edge"><title>Node43&#45;&gt;Node47</title>
<path fill="none" stroke="midnightblue" d="M1844.33,-136.841C1875.46,-125.033 1919.35,-108.384 1948.92,-97.1676"/>
<polygon fill="midnightblue" stroke="midnightblue" points="1950.25,-100.406 1958.36,-93.5868 1947.77,-93.8609 1950.25,-100.406"/>
</g>
<!-- Node48 -->
<g id="node48" class="node"><title>Node48</title>
<g id="a_node48"><a xlink:href="../../d9/d52/Common_2MathUtils_2include_2MathUtils_2Utils_8h.html" target="_top" xlink:title="MathUtils/Utils.h">
<polygon fill="none" stroke="black" points="2106,-74.5 2106,-93.5 2196,-93.5 2196,-74.5 2106,-74.5"/>
<text text-anchor="middle" x="2151" y="-81.5" font-family="Helvetica,sans-Serif" font-size="10.00">MathUtils/Utils.h</text>
</a>
</g>
</g>
<!-- Node43&#45;&gt;Node48 -->
<g id="edge68" class="edge"><title>Node43&#45;&gt;Node48</title>
<path fill="none" stroke="midnightblue" d="M1880.37,-136.922C1945.15,-124.494 2038.12,-106.657 2096.5,-95.4568"/>
<polygon fill="midnightblue" stroke="midnightblue" points="2097.46,-98.8354 2106.63,-93.5138 2096.14,-91.9608 2097.46,-98.8354"/>
</g>
<!-- Node48&#45;&gt;Node21 -->
<g id="edge69" class="edge"><title>Node48&#45;&gt;Node21</title>
<path fill="none" stroke="midnightblue" d="M2163.03,-74.3717C2178.18,-63.5015 2204.44,-44.6602 2222.72,-31.5474"/>
<polygon fill="midnightblue" stroke="midnightblue" points="2224.88,-34.3035 2230.97,-25.6305 2220.8,-28.6157 2224.88,-34.3035"/>
</g>
<!-- Node49 -->
<g id="node49" class="node"><title>Node49</title>
<polygon fill="none" stroke="#bfbfbf" points="2145,-6.5 2145,-25.5 2189,-25.5 2189,-6.5 2145,-6.5"/>
<text text-anchor="middle" x="2167" y="-13.5" font-family="Helvetica,sans-Serif" font-size="10.00">cmath</text>
</g>
<!-- Node48&#45;&gt;Node49 -->
<g id="edge70" class="edge"><title>Node48&#45;&gt;Node49</title>
<path fill="none" stroke="midnightblue" d="M2153.09,-74.3717C2155.45,-64.6426 2159.36,-48.528 2162.43,-35.8504"/>
<polygon fill="midnightblue" stroke="midnightblue" points="2165.9,-36.3842 2164.86,-25.8411 2159.1,-34.735 2165.9,-36.3842"/>
</g>
<!-- Node50 -->
<g id="node50" class="node"><title>Node50</title>
<g id="a_node50"><a xlink:href="../../d6/d84/MathConstants_8h.html" target="_top" xlink:title="useful math constants ">
<polygon fill="none" stroke="black" points="1947.5,-6.5 1947.5,-25.5 2126.5,-25.5 2126.5,-6.5 1947.5,-6.5"/>
<text text-anchor="middle" x="2037" y="-13.5" font-family="Helvetica,sans-Serif" font-size="10.00">CommonConstants/MathConstants.h</text>
</a>
</g>
</g>
<!-- Node48&#45;&gt;Node50 -->
<g id="edge71" class="edge"><title>Node48&#45;&gt;Node50</title>
<path fill="none" stroke="midnightblue" d="M2136.1,-74.3717C2116.89,-63.2545 2083.29,-43.7997 2060.6,-30.6624"/>
<polygon fill="midnightblue" stroke="midnightblue" points="2062.32,-27.6119 2051.91,-25.6305 2058.81,-33.6699 2062.32,-27.6119"/>
</g>
</g>
</svg>
