<?xml version="1.0" encoding="UTF-8" standalone="no"?>
<!DOCTYPE svg PUBLIC "-//W3C//DTD SVG 1.1//EN"
 "http://www.w3.org/Graphics/SVG/1.1/DTD/svg11.dtd">
<!-- Generated by graphviz version 2.36.0 (20140111.2315)
 -->
<!-- Title: /home/travis/build/AliceO2Group/AliceO2/Detectors/TPC/simulation/src/ElectronTransport.cxx Pages: 1 -->
<svg width="1385pt" height="646pt"
 viewBox="0.00 0.00 1385.00 646.00" xmlns="http://www.w3.org/2000/svg" xmlns:xlink="http://www.w3.org/1999/xlink">
<g id="graph0" class="graph" transform="scale(1 1) rotate(0) translate(4 642)">
<title>/home/travis/build/AliceO2Group/AliceO2/Detectors/TPC/simulation/src/ElectronTransport.cxx</title>
<!-- Node1 -->
<g id="node1" class="node"><title>Node1</title>
<polygon fill="#bfbfbf" stroke="black" points="1081.5,-585 1081.5,-637 1214.5,-637 1214.5,-585 1081.5,-585"/>
<text text-anchor="start" x="1089.5" y="-625" font-family="Helvetica,sans-Serif" font-size="10.00">/home/travis/build</text>
<text text-anchor="start" x="1089.5" y="-614" font-family="Helvetica,sans-Serif" font-size="10.00">/AliceO2Group/AliceO2</text>
<text text-anchor="start" x="1089.5" y="-603" font-family="Helvetica,sans-Serif" font-size="10.00">/Detectors/TPC/simulation</text>
<text text-anchor="middle" x="1148" y="-592" font-family="Helvetica,sans-Serif" font-size="10.00">/src/ElectronTransport.cxx</text>
</g>
<!-- Node2 -->
<g id="node2" class="node"><title>Node2</title>
<g id="a_node2"><a xlink:href="../../d2/da8/ElectronTransport_8h.html" target="_top" xlink:title="Definition of the electron transport. ">
<polygon fill="none" stroke="black" points="929.5,-528.5 929.5,-547.5 1100.5,-547.5 1100.5,-528.5 929.5,-528.5"/>
<text text-anchor="middle" x="1015" y="-535.5" font-family="Helvetica,sans-Serif" font-size="10.00">TPCSimulation/ElectronTransport.h</text>
</a>
</g>
</g>
<!-- Node1&#45;&gt;Node2 -->
<g id="edge1" class="edge"><title>Node1&#45;&gt;Node2</title>
<path fill="none" stroke="midnightblue" d="M1101.11,-584.968C1080.54,-573.986 1057.22,-561.537 1040.04,-552.366"/>
<polygon fill="midnightblue" stroke="midnightblue" points="1041.65,-549.261 1031.18,-547.639 1038.36,-555.436 1041.65,-549.261"/>
</g>
<!-- Node10 -->
<g id="node10" class="node"><title>Node10</title>
<polygon fill="none" stroke="#bfbfbf" points="1068,-136.5 1068,-155.5 1112,-155.5 1112,-136.5 1068,-136.5"/>
<text text-anchor="middle" x="1090" y="-143.5" font-family="Helvetica,sans-Serif" font-size="10.00">cmath</text>
</g>
<!-- Node1&#45;&gt;Node10 -->
<g id="edge61" class="edge"><title>Node1&#45;&gt;Node10</title>
<path fill="none" stroke="midnightblue" d="M1202.5,-584.847C1239.6,-563.569 1282,-529.155 1282,-483 1282,-483 1282,-483 1282,-257 1282,-184.249 1176.93,-158.938 1122.24,-150.691"/>
<polygon fill="midnightblue" stroke="midnightblue" points="1122.41,-147.18 1112.02,-149.26 1121.44,-154.113 1122.41,-147.18"/>
</g>
<!-- Node3 -->
<g id="node3" class="node"><title>Node3</title>
<g id="a_node3"><a xlink:href="../../db/dad/ParameterDetector_8h.html" target="_top" xlink:title="Definition of the parameter class for the detector. ">
<polygon fill="none" stroke="black" points="1100.5,-472.5 1100.5,-491.5 1253.5,-491.5 1253.5,-472.5 1100.5,-472.5"/>
<text text-anchor="middle" x="1177" y="-479.5" font-family="Helvetica,sans-Serif" font-size="10.00">TPCBase/ParameterDetector.h</text>
</a>
</g>
</g>
<!-- Node2&#45;&gt;Node3 -->
<g id="edge2" class="edge"><title>Node2&#45;&gt;Node3</title>
<path fill="none" stroke="midnightblue" d="M1040.67,-528.444C1067.92,-519.359 1111.18,-504.939 1141.65,-494.783"/>
<polygon fill="midnightblue" stroke="midnightblue" points="1143.07,-497.999 1151.45,-491.516 1140.86,-491.358 1143.07,-497.999"/>
</g>
<!-- Node5 -->
<g id="node5" class="node"><title>Node5</title>
<g id="a_node5"><a xlink:href="../../db/d5b/ParameterGas_8h.html" target="_top" xlink:title="Definition of the parameter class for the detector gas. ">
<polygon fill="none" stroke="black" points="948,-472.5 948,-491.5 1082,-491.5 1082,-472.5 948,-472.5"/>
<text text-anchor="middle" x="1015" y="-479.5" font-family="Helvetica,sans-Serif" font-size="10.00">TPCBase/ParameterGas.h</text>
</a>
</g>
</g>
<!-- Node2&#45;&gt;Node5 -->
<g id="edge4" class="edge"><title>Node2&#45;&gt;Node5</title>
<path fill="none" stroke="midnightblue" d="M1015,-528.083C1015,-521.006 1015,-510.861 1015,-501.986"/>
<polygon fill="midnightblue" stroke="midnightblue" points="1018.5,-501.751 1015,-491.751 1011.5,-501.751 1018.5,-501.751"/>
</g>
<!-- Node6 -->
<g id="node6" class="node"><title>Node6</title>
<g id="a_node6"><a xlink:href="../../d7/d2c/Mapper_8h.html" target="_top" xlink:title="TPCBase/Mapper.h">
<polygon fill="none" stroke="black" points="805.5,-472.5 805.5,-491.5 908.5,-491.5 908.5,-472.5 805.5,-472.5"/>
<text text-anchor="middle" x="857" y="-479.5" font-family="Helvetica,sans-Serif" font-size="10.00">TPCBase/Mapper.h</text>
</a>
</g>
</g>
<!-- Node2&#45;&gt;Node6 -->
<g id="edge6" class="edge"><title>Node2&#45;&gt;Node6</title>
<path fill="none" stroke="midnightblue" d="M989.964,-528.444C963.384,-519.359 921.191,-504.939 891.477,-494.783"/>
<polygon fill="midnightblue" stroke="midnightblue" points="892.513,-491.439 881.918,-491.516 890.249,-498.062 892.513,-491.439"/>
</g>
<!-- Node35 -->
<g id="node35" class="node"><title>Node35</title>
<g id="a_node35"><a xlink:href="../../db/dac/RandomRing_8h.html" target="_top" xlink:title="TPCBase/RandomRing.h">
<polygon fill="none" stroke="black" points="164,-472.5 164,-491.5 292,-491.5 292,-472.5 164,-472.5"/>
<text text-anchor="middle" x="228" y="-479.5" font-family="Helvetica,sans-Serif" font-size="10.00">TPCBase/RandomRing.h</text>
</a>
</g>
</g>
<!-- Node2&#45;&gt;Node35 -->
<g id="edge55" class="edge"><title>Node2&#45;&gt;Node35</title>
<path fill="none" stroke="midnightblue" d="M929.279,-531.118C774.049,-520.467 448.929,-498.159 302.408,-488.105"/>
<polygon fill="midnightblue" stroke="midnightblue" points="302.388,-484.596 292.171,-487.403 301.908,-491.58 302.388,-484.596"/>
</g>
<!-- Node4 -->
<g id="node4" class="node"><title>Node4</title>
<polygon fill="none" stroke="#bfbfbf" points="1216,-416.5 1216,-435.5 1254,-435.5 1254,-416.5 1216,-416.5"/>
<text text-anchor="middle" x="1235" y="-423.5" font-family="Helvetica,sans-Serif" font-size="10.00">array</text>
</g>
<!-- Node3&#45;&gt;Node4 -->
<g id="edge3" class="edge"><title>Node3&#45;&gt;Node4</title>
<path fill="none" stroke="midnightblue" d="M1186.32,-472.324C1194.89,-464.341 1207.81,-452.313 1218.19,-442.653"/>
<polygon fill="midnightblue" stroke="midnightblue" points="1220.58,-445.21 1225.51,-435.834 1215.81,-440.086 1220.58,-445.21"/>
</g>
<!-- Node5&#45;&gt;Node4 -->
<g id="edge5" class="edge"><title>Node5&#45;&gt;Node4</title>
<path fill="none" stroke="midnightblue" d="M1051.98,-472.447C1089.76,-463.627 1150.09,-449.322 1202,-436 1203.26,-435.676 1204.55,-435.342 1205.85,-435.001"/>
<polygon fill="midnightblue" stroke="midnightblue" points="1207.07,-438.297 1215.83,-432.333 1205.27,-431.534 1207.07,-438.297"/>
</g>
<!-- Node6&#45;&gt;Node4 -->
<g id="edge9" class="edge"><title>Node6&#45;&gt;Node4</title>
<path fill="none" stroke="midnightblue" d="M908.586,-475.148C990.601,-465.697 1147.07,-447.019 1202,-436 1203.28,-435.744 1204.58,-435.465 1205.89,-435.17"/>
<polygon fill="midnightblue" stroke="midnightblue" points="1207.05,-438.489 1215.91,-432.681 1205.36,-431.695 1207.05,-438.489"/>
</g>
<!-- Node7 -->
<g id="node7" class="node"><title>Node7</title>
<polygon fill="none" stroke="#bfbfbf" points="1026.5,-416.5 1026.5,-435.5 1061.5,-435.5 1061.5,-416.5 1026.5,-416.5"/>
<text text-anchor="middle" x="1044" y="-423.5" font-family="Helvetica,sans-Serif" font-size="10.00">map</text>
</g>
<!-- Node6&#45;&gt;Node7 -->
<g id="edge7" class="edge"><title>Node6&#45;&gt;Node7</title>
<path fill="none" stroke="midnightblue" d="M889.006,-472.48C919.438,-464.272 966.703,-451.252 1016.64,-436.003"/>
<polygon fill="midnightblue" stroke="midnightblue" points="1017.79,-439.31 1026.32,-433.027 1015.73,-432.619 1017.79,-439.31"/>
</g>
<!-- Node8 -->
<g id="node8" class="node"><title>Node8</title>
<polygon fill="none" stroke="#bfbfbf" points="392,-360.5 392,-379.5 436,-379.5 436,-360.5 392,-360.5"/>
<text text-anchor="middle" x="414" y="-367.5" font-family="Helvetica,sans-Serif" font-size="10.00">vector</text>
</g>
<!-- Node6&#45;&gt;Node8 -->
<g id="edge8" class="edge"><title>Node6&#45;&gt;Node8</title>
<path fill="none" stroke="midnightblue" d="M805.358,-479.257C695.782,-475.055 447.795,-462.677 421,-436 409.078,-424.131 408.615,-404.217 410.338,-389.552"/>
<polygon fill="midnightblue" stroke="midnightblue" points="413.809,-390.008 411.928,-379.581 406.897,-388.905 413.809,-390.008"/>
</g>
<!-- Node9 -->
<g id="node9" class="node"><title>Node9</title>
<polygon fill="none" stroke="#bfbfbf" points="1118.5,-416.5 1118.5,-435.5 1159.5,-435.5 1159.5,-416.5 1118.5,-416.5"/>
<text text-anchor="middle" x="1139" y="-423.5" font-family="Helvetica,sans-Serif" font-size="10.00">string</text>
</g>
<!-- Node6&#45;&gt;Node9 -->
<g id="edge10" class="edge"><title>Node6&#45;&gt;Node9</title>
<path fill="none" stroke="midnightblue" d="M908.78,-472.674C958.905,-464.353 1036.94,-450.71 1104,-436 1105.46,-435.681 1106.94,-435.343 1108.44,-434.994"/>
<polygon fill="midnightblue" stroke="midnightblue" points="1109.45,-438.351 1118.33,-432.576 1107.79,-431.551 1109.45,-438.351"/>
</g>
<!-- Node6&#45;&gt;Node10 -->
<g id="edge11" class="edge"><title>Node6&#45;&gt;Node10</title>
<path fill="none" stroke="midnightblue" d="M908.687,-472.888C967.838,-463.171 1058.12,-446.85 1070,-436 1092.32,-415.614 1090,-401.225 1090,-371 1090,-371 1090,-371 1090,-257 1090,-224.948 1090,-187.643 1090,-165.749"/>
<polygon fill="midnightblue" stroke="midnightblue" points="1093.5,-165.558 1090,-155.558 1086.5,-165.558 1093.5,-165.558"/>
</g>
<!-- Node11 -->
<g id="node11" class="node"><title>Node11</title>
<g id="a_node11"><a xlink:href="../../d1/d73/Defs_8h.html" target="_top" xlink:title="Common definitions for 2D coordinates. ">
<polygon fill="none" stroke="black" points="640,-192.5 640,-211.5 766,-211.5 766,-192.5 640,-192.5"/>
<text text-anchor="middle" x="703" y="-199.5" font-family="Helvetica,sans-Serif" font-size="10.00">DataFormatsTPC/Defs.h</text>
</a>
</g>
</g>
<!-- Node6&#45;&gt;Node11 -->
<g id="edge12" class="edge"><title>Node6&#45;&gt;Node11</title>
<path fill="none" stroke="midnightblue" d="M805.435,-481.224C702.104,-480.813 473.937,-475.328 408,-436 378.039,-418.13 364,-405.885 364,-371 364,-371 364,-371 364,-313 364,-257.591 529.923,-225.872 629.608,-211.815"/>
<polygon fill="midnightblue" stroke="midnightblue" points="630.208,-215.265 639.634,-210.429 629.249,-208.331 630.208,-215.265"/>
</g>
<!-- Node24 -->
<g id="node24" class="node"><title>Node24</title>
<g id="a_node24"><a xlink:href="../../de/d41/PadPos_8h.html" target="_top" xlink:title="TPCBase/PadPos.h">
<polygon fill="none" stroke="black" points="563.5,-304.5 563.5,-323.5 668.5,-323.5 668.5,-304.5 563.5,-304.5"/>
<text text-anchor="middle" x="616" y="-311.5" font-family="Helvetica,sans-Serif" font-size="10.00">TPCBase/PadPos.h</text>
</a>
</g>
</g>
<!-- Node6&#45;&gt;Node24 -->
<g id="edge27" class="edge"><title>Node6&#45;&gt;Node24</title>
<path fill="none" stroke="midnightblue" d="M805.358,-476.719C747.906,-470.912 659.989,-458.573 636,-436 608.049,-409.7 609.544,-360.449 612.875,-333.605"/>
<polygon fill="midnightblue" stroke="midnightblue" points="616.354,-334.005 614.335,-323.605 609.427,-332.994 616.354,-334.005"/>
</g>
<!-- Node25 -->
<g id="node25" class="node"><title>Node25</title>
<g id="a_node25"><a xlink:href="../../dd/d0b/PadSecPos_8h.html" target="_top" xlink:title="TPCBase/PadSecPos.h">
<polygon fill="none" stroke="black" points="902,-360.5 902,-379.5 1024,-379.5 1024,-360.5 902,-360.5"/>
<text text-anchor="middle" x="963" y="-367.5" font-family="Helvetica,sans-Serif" font-size="10.00">TPCBase/PadSecPos.h</text>
</a>
</g>
</g>
<!-- Node6&#45;&gt;Node25 -->
<g id="edge28" class="edge"><title>Node6&#45;&gt;Node25</title>
<path fill="none" stroke="midnightblue" d="M851.167,-472.175C843.158,-458.836 831.033,-433.268 843,-416 854.546,-399.338 873.073,-388.837 892.149,-382.22"/>
<polygon fill="midnightblue" stroke="midnightblue" points="893.336,-385.516 901.834,-379.189 891.245,-378.836 893.336,-385.516"/>
</g>
<!-- Node26 -->
<g id="node26" class="node"><title>Node26</title>
<g id="a_node26"><a xlink:href="../../d3/dd6/Sector_8h.html" target="_top" xlink:title="TPCBase/Sector.h">
<polygon fill="none" stroke="black" points="841.5,-248.5 841.5,-267.5 940.5,-267.5 940.5,-248.5 841.5,-248.5"/>
<text text-anchor="middle" x="891" y="-255.5" font-family="Helvetica,sans-Serif" font-size="10.00">TPCBase/Sector.h</text>
</a>
</g>
</g>
<!-- Node6&#45;&gt;Node26 -->
<g id="edge54" class="edge"><title>Node6&#45;&gt;Node26</title>
<path fill="none" stroke="midnightblue" d="M856.916,-472.443C857.268,-458.516 860.088,-431 876,-416 928.091,-366.894 988.393,-435.993 1033,-380 1070.33,-333.138 979.566,-290.82 926.336,-270.949"/>
<polygon fill="midnightblue" stroke="midnightblue" points="927.468,-267.636 916.874,-267.504 925.073,-274.214 927.468,-267.636"/>
</g>
<!-- Node28 -->
<g id="node28" class="node"><title>Node28</title>
<g id="a_node28"><a xlink:href="../../da/d61/PadROCPos_8h.html" target="_top" xlink:title="TPCBase/PadROCPos.h">
<polygon fill="none" stroke="black" points="644,-360.5 644,-379.5 772,-379.5 772,-360.5 644,-360.5"/>
<text text-anchor="middle" x="708" y="-367.5" font-family="Helvetica,sans-Serif" font-size="10.00">TPCBase/PadROCPos.h</text>
</a>
</g>
</g>
<!-- Node6&#45;&gt;Node28 -->
<g id="edge33" class="edge"><title>Node6&#45;&gt;Node28</title>
<path fill="none" stroke="midnightblue" d="M845.308,-472.368C819.849,-453.573 759.159,-408.768 727.686,-385.533"/>
<polygon fill="midnightblue" stroke="midnightblue" points="729.761,-382.715 719.637,-379.591 725.604,-388.347 729.761,-382.715"/>
</g>
<!-- Node30 -->
<g id="node30" class="node"><title>Node30</title>
<g id="a_node30"><a xlink:href="../../d3/d54/DigitPos_8h.html" target="_top" xlink:title="TPCBase/DigitPos.h">
<polygon fill="none" stroke="black" points="645,-416.5 645,-435.5 753,-435.5 753,-416.5 645,-416.5"/>
<text text-anchor="middle" x="699" y="-423.5" font-family="Helvetica,sans-Serif" font-size="10.00">TPCBase/DigitPos.h</text>
</a>
</g>
</g>
<!-- Node6&#45;&gt;Node30 -->
<g id="edge39" class="edge"><title>Node6&#45;&gt;Node30</title>
<path fill="none" stroke="midnightblue" d="M831.964,-472.444C805.384,-463.359 763.191,-448.939 733.477,-438.783"/>
<polygon fill="midnightblue" stroke="midnightblue" points="734.513,-435.439 723.918,-435.516 732.249,-442.062 734.513,-435.439"/>
</g>
<!-- Node32 -->
<g id="node32" class="node"><title>Node32</title>
<g id="a_node32"><a xlink:href="../../d1/d1f/FECInfo_8h.html" target="_top" xlink:title="TPCBase/FECInfo.h">
<polygon fill="none" stroke="black" points="1140.5,-248.5 1140.5,-267.5 1247.5,-267.5 1247.5,-248.5 1140.5,-248.5"/>
<text text-anchor="middle" x="1194" y="-255.5" font-family="Helvetica,sans-Serif" font-size="10.00">TPCBase/FECInfo.h</text>
</a>
</g>
</g>
<!-- Node6&#45;&gt;Node32 -->
<g id="edge47" class="edge"><title>Node6&#45;&gt;Node32</title>
<path fill="none" stroke="midnightblue" d="M908.565,-475.158C994.584,-465.186 1158.9,-445.08 1168,-436 1210.65,-393.439 1203.59,-313.734 1197.67,-277.626"/>
<polygon fill="midnightblue" stroke="midnightblue" points="1201.07,-276.757 1195.85,-267.536 1194.18,-277.999 1201.07,-276.757"/>
</g>
<!-- Node33 -->
<g id="node33" class="node"><title>Node33</title>
<g id="a_node33"><a xlink:href="../../da/d9d/PadRegionInfo_8h.html" target="_top" xlink:title="TPCBase/PadRegionInfo.h">
<polygon fill="none" stroke="black" points="430.5,-416.5 430.5,-435.5 565.5,-435.5 565.5,-416.5 430.5,-416.5"/>
<text text-anchor="middle" x="498" y="-423.5" font-family="Helvetica,sans-Serif" font-size="10.00">TPCBase/PadRegionInfo.h</text>
</a>
</g>
</g>
<!-- Node6&#45;&gt;Node33 -->
<g id="edge49" class="edge"><title>Node6&#45;&gt;Node33</title>
<path fill="none" stroke="midnightblue" d="M805.182,-473.206C741.701,-463.657 634.048,-447.464 564.513,-437.005"/>
<polygon fill="midnightblue" stroke="midnightblue" points="564.95,-433.531 554.54,-435.505 563.909,-440.453 564.95,-433.531"/>
</g>
<!-- Node34 -->
<g id="node34" class="node"><title>Node34</title>
<g id="a_node34"><a xlink:href="../../d6/d42/PartitionInfo_8h.html" target="_top" xlink:title="TPCBase/PartitionInfo.h">
<polygon fill="none" stroke="black" points="885.5,-416.5 885.5,-435.5 1008.5,-435.5 1008.5,-416.5 885.5,-416.5"/>
<text text-anchor="middle" x="947" y="-423.5" font-family="Helvetica,sans-Serif" font-size="10.00">TPCBase/PartitionInfo.h</text>
</a>
</g>
</g>
<!-- Node6&#45;&gt;Node34 -->
<g id="edge53" class="edge"><title>Node6&#45;&gt;Node34</title>
<path fill="none" stroke="midnightblue" d="M871.46,-472.324C885.5,-463.9 907.048,-450.971 923.543,-441.074"/>
<polygon fill="midnightblue" stroke="midnightblue" points="925.802,-443.801 932.576,-435.655 922.2,-437.798 925.802,-443.801"/>
</g>
<!-- Node11&#45;&gt;Node10 -->
<g id="edge13" class="edge"><title>Node11&#45;&gt;Node10</title>
<path fill="none" stroke="midnightblue" d="M764.321,-192.444C847.501,-180.837 993.102,-160.521 1057.63,-151.516"/>
<polygon fill="midnightblue" stroke="midnightblue" points="1058.21,-154.97 1067.63,-150.121 1057.24,-148.037 1058.21,-154.97"/>
</g>
<!-- Node12 -->
<g id="node12" class="node"><title>Node12</title>
<g id="a_node12"><a xlink:href="../../d2/dd0/Cartesian2D_8h.html" target="_top" xlink:title="MathUtils/Cartesian2D.h">
<polygon fill="none" stroke="black" points="137.5,-74.5 137.5,-93.5 262.5,-93.5 262.5,-74.5 137.5,-74.5"/>
<text text-anchor="middle" x="200" y="-81.5" font-family="Helvetica,sans-Serif" font-size="10.00">MathUtils/Cartesian2D.h</text>
</a>
</g>
</g>
<!-- Node11&#45;&gt;Node12 -->
<g id="edge14" class="edge"><title>Node11&#45;&gt;Node12</title>
<path fill="none" stroke="midnightblue" d="M666.013,-192.47C576.082,-171.731 346.082,-118.689 246.797,-95.7921"/>
<polygon fill="midnightblue" stroke="midnightblue" points="247.572,-92.379 237.041,-93.5423 245.999,-99.2 247.572,-92.379"/>
</g>
<!-- Node15 -->
<g id="node15" class="node"><title>Node15</title>
<g id="a_node15"><a xlink:href="../../dd/d76/Cartesian3D_8h.html" target="_top" xlink:title="MathUtils/Cartesian3D.h">
<polygon fill="none" stroke="black" points="640.5,-136.5 640.5,-155.5 765.5,-155.5 765.5,-136.5 640.5,-136.5"/>
<text text-anchor="middle" x="703" y="-143.5" font-family="Helvetica,sans-Serif" font-size="10.00">MathUtils/Cartesian3D.h</text>
</a>
</g>
</g>
<!-- Node11&#45;&gt;Node15 -->
<g id="edge17" class="edge"><title>Node11&#45;&gt;Node15</title>
<path fill="none" stroke="midnightblue" d="M703,-192.083C703,-185.006 703,-174.861 703,-165.986"/>
<polygon fill="midnightblue" stroke="midnightblue" points="706.5,-165.751 703,-155.751 699.5,-165.751 706.5,-165.751"/>
</g>
<!-- Node13 -->
<g id="node13" class="node"><title>Node13</title>
<polygon fill="none" stroke="#bfbfbf" points="33.5,-1 33.5,-31 184.5,-31 184.5,-1 33.5,-1"/>
<text text-anchor="start" x="41.5" y="-19" font-family="Helvetica,sans-Serif" font-size="10.00">Math/GenVector/Displacement</text>
<text text-anchor="middle" x="109" y="-8" font-family="Helvetica,sans-Serif" font-size="10.00">Vector2D.h</text>
</g>
<!-- Node12&#45;&gt;Node13 -->
<g id="edge15" class="edge"><title>Node12&#45;&gt;Node13</title>
<path fill="none" stroke="midnightblue" d="M188.103,-74.3717C175.221,-65.0286 154.22,-49.7966 137.093,-37.375"/>
<polygon fill="midnightblue" stroke="midnightblue" points="138.703,-34.2194 128.553,-31.1815 134.593,-39.8859 138.703,-34.2194"/>
</g>
<!-- Node14 -->
<g id="node14" class="node"><title>Node14</title>
<polygon fill="none" stroke="#bfbfbf" points="203,-6.5 203,-25.5 379,-25.5 379,-6.5 203,-6.5"/>
<text text-anchor="middle" x="291" y="-13.5" font-family="Helvetica,sans-Serif" font-size="10.00">Math/GenVector/PositionVector2D.h</text>
</g>
<!-- Node12&#45;&gt;Node14 -->
<g id="edge16" class="edge"><title>Node12&#45;&gt;Node14</title>
<path fill="none" stroke="midnightblue" d="M211.897,-74.3717C226.884,-63.5015 252.862,-44.6602 270.942,-31.5474"/>
<polygon fill="midnightblue" stroke="midnightblue" points="273.06,-34.3349 279.1,-25.6305 268.95,-28.6684 273.06,-34.3349"/>
</g>
<!-- Node15&#45;&gt;Node12 -->
<g id="edge26" class="edge"><title>Node15&#45;&gt;Node12</title>
<path fill="none" stroke="midnightblue" d="M640.289,-140.457C556.165,-133.906 402.271,-120.317 272,-100 263.928,-98.7411 255.393,-97.1744 247.131,-95.5325"/>
<polygon fill="midnightblue" stroke="midnightblue" points="247.737,-92.0839 237.238,-93.508 246.333,-98.9418 247.737,-92.0839"/>
</g>
<!-- Node16 -->
<g id="node16" class="node"><title>Node16</title>
<polygon fill="none" stroke="#bfbfbf" points="627.5,-69 627.5,-99 778.5,-99 778.5,-69 627.5,-69"/>
<text text-anchor="start" x="635.5" y="-87" font-family="Helvetica,sans-Serif" font-size="10.00">Math/GenVector/Displacement</text>
<text text-anchor="middle" x="703" y="-76" font-family="Helvetica,sans-Serif" font-size="10.00">Vector3D.h</text>
</g>
<!-- Node15&#45;&gt;Node16 -->
<g id="edge18" class="edge"><title>Node15&#45;&gt;Node16</title>
<path fill="none" stroke="midnightblue" d="M703,-136.403C703,-129.341 703,-118.975 703,-109.399"/>
<polygon fill="midnightblue" stroke="midnightblue" points="706.5,-109.141 703,-99.1408 699.5,-109.141 706.5,-109.141"/>
</g>
<!-- Node17 -->
<g id="node17" class="node"><title>Node17</title>
<polygon fill="none" stroke="#bfbfbf" points="797,-74.5 797,-93.5 973,-93.5 973,-74.5 797,-74.5"/>
<text text-anchor="middle" x="885" y="-81.5" font-family="Helvetica,sans-Serif" font-size="10.00">Math/GenVector/PositionVector3D.h</text>
</g>
<!-- Node15&#45;&gt;Node17 -->
<g id="edge19" class="edge"><title>Node15&#45;&gt;Node17</title>
<path fill="none" stroke="midnightblue" d="M729.076,-136.403C760.566,-126.022 813.698,-108.506 849.058,-96.849"/>
<polygon fill="midnightblue" stroke="midnightblue" points="850.571,-100.036 858.972,-93.5806 848.379,-93.3876 850.571,-100.036"/>
</g>
<!-- Node18 -->
<g id="node18" class="node"><title>Node18</title>
<polygon fill="none" stroke="#bfbfbf" points="990.5,-74.5 990.5,-93.5 1139.5,-93.5 1139.5,-74.5 990.5,-74.5"/>
<text text-anchor="middle" x="1065" y="-81.5" font-family="Helvetica,sans-Serif" font-size="10.00">Math/GenVector/Rotation3D.h</text>
</g>
<!-- Node15&#45;&gt;Node18 -->
<g id="edge20" class="edge"><title>Node15&#45;&gt;Node18</title>
<path fill="none" stroke="midnightblue" d="M757.378,-136.465C813.451,-127.602 903.4,-113.208 981,-100 989.701,-98.519 998.901,-96.915 1007.9,-95.3253"/>
<polygon fill="midnightblue" stroke="midnightblue" points="1008.7,-98.7383 1017.93,-93.544 1007.47,-91.8461 1008.7,-98.7383"/>
</g>
<!-- Node19 -->
<g id="node19" class="node"><title>Node19</title>
<polygon fill="none" stroke="#bfbfbf" points="1158,-74.5 1158,-93.5 1314,-93.5 1314,-74.5 1158,-74.5"/>
<text text-anchor="middle" x="1236" y="-81.5" font-family="Helvetica,sans-Serif" font-size="10.00">Math/GenVector/Transform3D.h</text>
</g>
<!-- Node15&#45;&gt;Node19 -->
<g id="edge21" class="edge"><title>Node15&#45;&gt;Node19</title>
<path fill="none" stroke="midnightblue" d="M765.8,-140.005C852.12,-132.831 1012.19,-118.42 1148,-100 1158.24,-98.6109 1169.12,-96.9277 1179.61,-95.1978"/>
<polygon fill="midnightblue" stroke="midnightblue" points="1180.23,-98.6427 1189.51,-93.533 1179.07,-91.7396 1180.23,-98.6427"/>
</g>
<!-- Node20 -->
<g id="node20" class="node"><title>Node20</title>
<polygon fill="none" stroke="#bfbfbf" points="281,-74.5 281,-93.5 441,-93.5 441,-74.5 281,-74.5"/>
<text text-anchor="middle" x="361" y="-81.5" font-family="Helvetica,sans-Serif" font-size="10.00">Math/GenVector/Translation3D.h</text>
</g>
<!-- Node15&#45;&gt;Node20 -->
<g id="edge22" class="edge"><title>Node15&#45;&gt;Node20</title>
<path fill="none" stroke="midnightblue" d="M654.363,-136.467C592.443,-125.604 485.573,-106.855 419.337,-95.2346"/>
<polygon fill="midnightblue" stroke="midnightblue" points="419.924,-91.7841 409.469,-93.5034 418.714,-98.6788 419.924,-91.7841"/>
</g>
<!-- Node21 -->
<g id="node21" class="node"><title>Node21</title>
<polygon fill="none" stroke="#bfbfbf" points="459,-74.5 459,-93.5 515,-93.5 515,-74.5 459,-74.5"/>
<text text-anchor="middle" x="487" y="-81.5" font-family="Helvetica,sans-Serif" font-size="10.00">Rtypes.h</text>
</g>
<!-- Node15&#45;&gt;Node21 -->
<g id="edge23" class="edge"><title>Node15&#45;&gt;Node21</title>
<path fill="none" stroke="midnightblue" d="M662.378,-136.48C625.797,-128.409 570.755,-115.273 524,-100 521.432,-99.1613 518.789,-98.2304 516.153,-97.2547"/>
<polygon fill="midnightblue" stroke="midnightblue" points="517.371,-93.9732 506.782,-93.6103 514.834,-100.497 517.371,-93.9732"/>
</g>
<!-- Node22 -->
<g id="node22" class="node"><title>Node22</title>
<polygon fill="none" stroke="#bfbfbf" points="533,-74.5 533,-93.5 609,-93.5 609,-74.5 533,-74.5"/>
<text text-anchor="middle" x="571" y="-81.5" font-family="Helvetica,sans-Serif" font-size="10.00">TGeoMatrix.h</text>
</g>
<!-- Node15&#45;&gt;Node22 -->
<g id="edge24" class="edge"><title>Node15&#45;&gt;Node22</title>
<path fill="none" stroke="midnightblue" d="M684.088,-136.403C661.837,-126.29 624.688,-109.404 599.074,-97.761"/>
<polygon fill="midnightblue" stroke="midnightblue" points="600.429,-94.5324 589.877,-93.5806 597.533,-100.905 600.429,-94.5324"/>
</g>
<!-- Node23 -->
<g id="node23" class="node"><title>Node23</title>
<polygon fill="none" stroke="#bfbfbf" points="1332.5,-74.5 1332.5,-93.5 1377.5,-93.5 1377.5,-74.5 1332.5,-74.5"/>
<text text-anchor="middle" x="1355" y="-81.5" font-family="Helvetica,sans-Serif" font-size="10.00">iosfwd</text>
</g>
<!-- Node15&#45;&gt;Node23 -->
<g id="edge25" class="edge"><title>Node15&#45;&gt;Node23</title>
<path fill="none" stroke="midnightblue" d="M765.559,-143.351C901.292,-139.303 1218.97,-127.162 1323,-100 1325.49,-99.349 1328.03,-98.5078 1330.53,-97.5565"/>
<polygon fill="midnightblue" stroke="midnightblue" points="1332.04,-100.717 1339.8,-93.5101 1329.24,-94.3007 1332.04,-100.717"/>
</g>
<!-- Node25&#45;&gt;Node24 -->
<g id="edge32" class="edge"><title>Node25&#45;&gt;Node24</title>
<path fill="none" stroke="midnightblue" d="M908.017,-360.444C845.707,-350.747 744.33,-334.971 678.915,-324.791"/>
<polygon fill="midnightblue" stroke="midnightblue" points="679.156,-321.286 668.736,-323.207 678.079,-328.203 679.156,-321.286"/>
</g>
<!-- Node25&#45;&gt;Node26 -->
<g id="edge29" class="edge"><title>Node25&#45;&gt;Node26</title>
<path fill="none" stroke="midnightblue" d="M957.35,-360.368C945.468,-342.215 917.706,-299.802 902.121,-275.99"/>
<polygon fill="midnightblue" stroke="midnightblue" points="905.029,-274.042 896.623,-267.591 899.172,-277.875 905.029,-274.042"/>
</g>
<!-- Node26&#45;&gt;Node11 -->
<g id="edge31" class="edge"><title>Node26&#45;&gt;Node11</title>
<path fill="none" stroke="midnightblue" d="M861.211,-248.444C829.171,-239.241 778.067,-224.562 742.647,-214.388"/>
<polygon fill="midnightblue" stroke="midnightblue" points="743.227,-210.913 732.65,-211.516 741.295,-217.641 743.227,-210.913"/>
</g>
<!-- Node27 -->
<g id="node27" class="node"><title>Node27</title>
<g id="a_node27"><a xlink:href="../../d0/dda/DataFormats_2Detectors_2TPC_2include_2DataFormatsTPC_2Constants_8h.html" target="_top" xlink:title="DataFormatsTPC/Constants.h">
<polygon fill="none" stroke="black" points="816,-192.5 816,-211.5 966,-211.5 966,-192.5 816,-192.5"/>
<text text-anchor="middle" x="891" y="-199.5" font-family="Helvetica,sans-Serif" font-size="10.00">DataFormatsTPC/Constants.h</text>
</a>
</g>
</g>
<!-- Node26&#45;&gt;Node27 -->
<g id="edge30" class="edge"><title>Node26&#45;&gt;Node27</title>
<path fill="none" stroke="midnightblue" d="M891,-248.083C891,-241.006 891,-230.861 891,-221.986"/>
<polygon fill="midnightblue" stroke="midnightblue" points="894.5,-221.751 891,-211.751 887.5,-221.751 894.5,-221.751"/>
</g>
<!-- Node28&#45;&gt;Node11 -->
<g id="edge34" class="edge"><title>Node28&#45;&gt;Node11</title>
<path fill="none" stroke="midnightblue" d="M707.731,-360.075C706.944,-333.945 704.633,-257.211 703.56,-221.577"/>
<polygon fill="midnightblue" stroke="midnightblue" points="707.058,-221.458 703.258,-211.568 700.061,-221.669 707.058,-221.458"/>
</g>
<!-- Node28&#45;&gt;Node24 -->
<g id="edge38" class="edge"><title>Node28&#45;&gt;Node24</title>
<path fill="none" stroke="midnightblue" d="M693.219,-360.324C678.733,-351.822 656.427,-338.729 639.507,-328.797"/>
<polygon fill="midnightblue" stroke="midnightblue" points="641.141,-325.698 630.745,-323.655 637.597,-331.735 641.141,-325.698"/>
</g>
<!-- Node29 -->
<g id="node29" class="node"><title>Node29</title>
<g id="a_node29"><a xlink:href="../../dc/d14/ROC_8h.html" target="_top" xlink:title="TPCBase/ROC.h">
<polygon fill="none" stroke="black" points="769.5,-304.5 769.5,-323.5 862.5,-323.5 862.5,-304.5 769.5,-304.5"/>
<text text-anchor="middle" x="816" y="-311.5" font-family="Helvetica,sans-Serif" font-size="10.00">TPCBase/ROC.h</text>
</a>
</g>
</g>
<!-- Node28&#45;&gt;Node29 -->
<g id="edge35" class="edge"><title>Node28&#45;&gt;Node29</title>
<path fill="none" stroke="midnightblue" d="M725.352,-360.324C742.672,-351.664 769.515,-338.242 789.502,-328.249"/>
<polygon fill="midnightblue" stroke="midnightblue" points="791.312,-331.257 798.691,-323.655 788.181,-324.996 791.312,-331.257"/>
</g>
<!-- Node29&#45;&gt;Node11 -->
<g id="edge36" class="edge"><title>Node29&#45;&gt;Node11</title>
<path fill="none" stroke="midnightblue" d="M808.375,-304.317C797.086,-291.592 775.09,-267.296 755,-248 744.237,-237.662 731.587,-226.691 721.459,-218.17"/>
<polygon fill="midnightblue" stroke="midnightblue" points="723.564,-215.368 713.641,-211.656 719.083,-220.746 723.564,-215.368"/>
</g>
<!-- Node29&#45;&gt;Node26 -->
<g id="edge37" class="edge"><title>Node29&#45;&gt;Node26</title>
<path fill="none" stroke="midnightblue" d="M828.05,-304.324C839.463,-296.107 856.831,-283.602 870.435,-273.807"/>
<polygon fill="midnightblue" stroke="midnightblue" points="872.66,-276.517 878.731,-267.834 868.57,-270.837 872.66,-276.517"/>
</g>
<!-- Node30&#45;&gt;Node11 -->
<g id="edge40" class="edge"><title>Node30&#45;&gt;Node11</title>
<path fill="none" stroke="midnightblue" d="M670.423,-416.391C620.317,-399.661 524.587,-359.472 554,-304 577.953,-258.826 632.153,-230.139 668.151,-215.317"/>
<polygon fill="midnightblue" stroke="midnightblue" points="669.773,-218.439 677.782,-211.502 667.195,-211.931 669.773,-218.439"/>
</g>
<!-- Node30&#45;&gt;Node24 -->
<g id="edge45" class="edge"><title>Node30&#45;&gt;Node24</title>
<path fill="none" stroke="midnightblue" d="M680.686,-416.459C666.262,-408.833 646.7,-396.347 635,-380 625.271,-366.406 620.488,-347.861 618.158,-334.058"/>
<polygon fill="midnightblue" stroke="midnightblue" points="621.574,-333.211 616.723,-323.792 614.641,-334.18 621.574,-333.211"/>
</g>
<!-- Node30&#45;&gt;Node25 -->
<g id="edge46" class="edge"><title>Node30&#45;&gt;Node25</title>
<path fill="none" stroke="midnightblue" d="M740.832,-416.444C787.079,-406.984 861.612,-391.738 911.436,-381.547"/>
<polygon fill="midnightblue" stroke="midnightblue" points="912.268,-384.949 921.364,-379.516 910.866,-378.091 912.268,-384.949"/>
</g>
<!-- Node31 -->
<g id="node31" class="node"><title>Node31</title>
<g id="a_node31"><a xlink:href="../../df/d26/CRU_8h.html" target="_top" xlink:title="TPCBase/CRU.h">
<polygon fill="none" stroke="black" points="790.5,-360.5 790.5,-379.5 883.5,-379.5 883.5,-360.5 790.5,-360.5"/>
<text text-anchor="middle" x="837" y="-367.5" font-family="Helvetica,sans-Serif" font-size="10.00">TPCBase/CRU.h</text>
</a>
</g>
</g>
<!-- Node30&#45;&gt;Node31 -->
<g id="edge41" class="edge"><title>Node30&#45;&gt;Node31</title>
<path fill="none" stroke="midnightblue" d="M720.867,-416.444C743.779,-407.478 779.975,-393.314 805.866,-383.183"/>
<polygon fill="midnightblue" stroke="midnightblue" points="807.199,-386.42 815.236,-379.516 804.648,-379.901 807.199,-386.42"/>
</g>
<!-- Node31&#45;&gt;Node11 -->
<g id="edge42" class="edge"><title>Node31&#45;&gt;Node11</title>
<path fill="none" stroke="midnightblue" d="M815.02,-360.452C798.16,-352.969 775.261,-340.677 760,-324 745.34,-307.98 721.677,-250.783 709.99,-221.127"/>
<polygon fill="midnightblue" stroke="midnightblue" points="713.159,-219.619 706.265,-211.574 706.637,-222.162 713.159,-219.619"/>
</g>
<!-- Node31&#45;&gt;Node26 -->
<g id="edge43" class="edge"><title>Node31&#45;&gt;Node26</title>
<path fill="none" stroke="midnightblue" d="M845.036,-360.321C852.655,-351.687 863.955,-337.774 871,-324 878.56,-309.218 883.85,-291.062 887.082,-277.7"/>
<polygon fill="midnightblue" stroke="midnightblue" points="890.533,-278.307 889.317,-267.782 883.704,-276.768 890.533,-278.307"/>
</g>
<!-- Node31&#45;&gt;Node29 -->
<g id="edge44" class="edge"><title>Node31&#45;&gt;Node29</title>
<path fill="none" stroke="midnightblue" d="M833.532,-360.083C830.688,-352.77 826.571,-342.181 823.04,-333.103"/>
<polygon fill="midnightblue" stroke="midnightblue" points="826.29,-331.803 819.403,-323.751 819.766,-334.34 826.29,-331.803"/>
</g>
<!-- Node32&#45;&gt;Node23 -->
<g id="edge48" class="edge"><title>Node32&#45;&gt;Node23</title>
<path fill="none" stroke="midnightblue" d="M1202.21,-248.234C1227.83,-220.855 1306.65,-136.65 1339.93,-101.101"/>
<polygon fill="midnightblue" stroke="midnightblue" points="1342.72,-103.237 1347,-93.5442 1337.61,-98.4531 1342.72,-103.237"/>
</g>
<!-- Node33&#45;&gt;Node8 -->
<g id="edge50" class="edge"><title>Node33&#45;&gt;Node8</title>
<path fill="none" stroke="midnightblue" d="M484.504,-416.324C471.4,-407.9 451.288,-394.971 435.893,-385.074"/>
<polygon fill="midnightblue" stroke="midnightblue" points="437.767,-382.118 427.463,-379.655 433.982,-388.006 437.767,-382.118"/>
</g>
<!-- Node33&#45;&gt;Node11 -->
<g id="edge51" class="edge"><title>Node33&#45;&gt;Node11</title>
<path fill="none" stroke="midnightblue" d="M499.285,-416.364C504.048,-387.537 523.449,-293.867 580,-248 600.011,-231.77 626.405,-221.091 649.611,-214.229"/>
<polygon fill="midnightblue" stroke="midnightblue" points="650.642,-217.575 659.333,-211.517 648.761,-210.833 650.642,-217.575"/>
</g>
<!-- Node33&#45;&gt;Node24 -->
<g id="edge52" class="edge"><title>Node33&#45;&gt;Node24</title>
<path fill="none" stroke="midnightblue" d="M506.373,-416.408C518.743,-403.795 542.732,-379.638 564,-360 574.964,-349.876 587.619,-338.91 597.699,-330.338"/>
<polygon fill="midnightblue" stroke="midnightblue" points="600.09,-332.9 605.468,-323.771 595.571,-327.554 600.09,-332.9"/>
</g>
<!-- Node35&#45;&gt;Node8 -->
<g id="edge58" class="edge"><title>Node35&#45;&gt;Node8</title>
<path fill="none" stroke="midnightblue" d="M243.218,-472.499C259.18,-463.543 284.961,-448.967 307,-436 336.373,-418.717 369.905,-398.221 391.482,-384.932"/>
<polygon fill="midnightblue" stroke="midnightblue" points="393.551,-387.768 400.224,-379.539 389.875,-381.811 393.551,-387.768"/>
</g>
<!-- Node36 -->
<g id="node36" class="node"><title>Node36</title>
<polygon fill="none" stroke="#bfbfbf" points="0,-416.5 0,-435.5 90,-435.5 90,-416.5 0,-416.5"/>
<text text-anchor="middle" x="45" y="-423.5" font-family="Helvetica,sans-Serif" font-size="10.00">boost/format.hpp</text>
</g>
<!-- Node35&#45;&gt;Node36 -->
<g id="edge56" class="edge"><title>Node35&#45;&gt;Node36</title>
<path fill="none" stroke="midnightblue" d="M199.003,-472.444C167.815,-463.241 118.07,-448.562 83.5925,-438.388"/>
<polygon fill="midnightblue" stroke="midnightblue" points="84.443,-434.99 73.8612,-435.516 82.4618,-441.704 84.443,-434.99"/>
</g>
<!-- Node37 -->
<g id="node37" class="node"><title>Node37</title>
<polygon fill="none" stroke="#bfbfbf" points="108,-416.5 108,-435.5 152,-435.5 152,-416.5 108,-416.5"/>
<text text-anchor="middle" x="130" y="-423.5" font-family="Helvetica,sans-Serif" font-size="10.00">Vc/Vc</text>
</g>
<!-- Node35&#45;&gt;Node37 -->
<g id="edge57" class="edge"><title>Node35&#45;&gt;Node37</title>
<path fill="none" stroke="midnightblue" d="M212.255,-472.324C196.681,-463.743 172.623,-450.486 154.541,-440.522"/>
<polygon fill="midnightblue" stroke="midnightblue" points="156.154,-437.415 145.706,-435.655 152.776,-443.546 156.154,-437.415"/>
</g>
<!-- Node38 -->
<g id="node38" class="node"><title>Node38</title>
<polygon fill="none" stroke="#bfbfbf" points="170,-416.5 170,-435.5 212,-435.5 212,-416.5 170,-416.5"/>
<text text-anchor="middle" x="191" y="-423.5" font-family="Helvetica,sans-Serif" font-size="10.00">TF1.h</text>
</g>
<!-- Node35&#45;&gt;Node38 -->
<g id="edge59" class="edge"><title>Node35&#45;&gt;Node38</title>
<path fill="none" stroke="midnightblue" d="M221.89,-472.083C216.718,-464.534 209.154,-453.495 202.806,-444.23"/>
<polygon fill="midnightblue" stroke="midnightblue" points="205.536,-442.022 196.996,-435.751 199.761,-445.979 205.536,-442.022"/>
</g>
<!-- Node39 -->
<g id="node39" class="node"><title>Node39</title>
<polygon fill="none" stroke="#bfbfbf" points="230,-416.5 230,-435.5 298,-435.5 298,-416.5 230,-416.5"/>
<text text-anchor="middle" x="264" y="-423.5" font-family="Helvetica,sans-Serif" font-size="10.00">TRandom.h</text>
</g>
<!-- Node35&#45;&gt;Node39 -->
<g id="edge60" class="edge"><title>Node35&#45;&gt;Node39</title>
<path fill="none" stroke="midnightblue" d="M233.945,-472.083C238.977,-464.534 246.337,-453.495 252.513,-444.23"/>
<polygon fill="midnightblue" stroke="midnightblue" points="255.531,-446.013 258.166,-435.751 249.707,-442.13 255.531,-446.013"/>
</g>
</g>
</svg>
