<?xml version="1.0" encoding="UTF-8" standalone="no"?>
<!DOCTYPE svg PUBLIC "-//W3C//DTD SVG 1.1//EN"
 "http://www.w3.org/Graphics/SVG/1.1/DTD/svg11.dtd">
<!-- Generated by graphviz version 2.36.0 (20140111.2315)
 -->
<!-- Title: /home/travis/build/AliceO2Group/AliceO2/Common/Utils/test/testTreeStream.cxx Pages: 1 -->
<!--zoomable 458 -->
<svg id="main" version="1.1" xmlns="http://www.w3.org/2000/svg" xmlns:xlink="http://www.w3.org/1999/xlink" xml:space="preserve" onload="init(evt)">
<style type="text/css"><![CDATA[
.edge:hover path { stroke: red; }
.edge:hover polygon { stroke: red; fill: red; }
]]></style>
<script type="text/javascript"><![CDATA[
var edges = document.getElementsByTagName('g');
if (edges && edges.length) {
  for (var i=0;i<edges.length;i++) {
    if (edges[i].id.substr(0,4)=='edge') {
      edges[i].setAttribute('class','edge');
    }
  }
}
]]></script>
        <defs>
                <circle id="rim" cx="0" cy="0" r="7"/>
                <circle id="rim2" cx="0" cy="0" r="3.5"/>
                <g id="zoomPlus">
                        <use xlink:href="#rim" fill="#404040">
                                <set attributeName="fill" to="#808080" begin="zoomplus.mouseover" end="zoomplus.mouseout"/>
                        </use>
                        <path d="M-4,0h8M0,-4v8" fill="none" stroke="white" stroke-width="1.5" pointer-events="none"/>
                </g>
                <g id="zoomMin">
                        <use xlink:href="#rim" fill="#404040">
                                <set attributeName="fill" to="#808080" begin="zoomminus.mouseover" end="zoomminus.mouseout"/>
                        </use>
                        <path d="M-4,0h8" fill="none" stroke="white" stroke-width="1.5" pointer-events="none"/>
                </g>
                <g id="dirArrow">
                        <path fill="none" stroke="white" stroke-width="1.5" d="M0,-3.0v7 M-2.5,-0.5L0,-3.0L2.5,-0.5"/>
                </g>
               <g id="resetDef">
                       <use xlink:href="#rim2" fill="#404040">
                               <set attributeName="fill" to="#808080" begin="reset.mouseover" end="reset.mouseout"/>
                       </use>
               </g>
        </defs>

<script type="text/javascript">
var viewWidth = 2380;
var viewHeight = 458;
var sectionId = 'dynsection-0';
</script>
<script xlink:href="../../svgpan.js"/>
<svg id="graph" class="graph">
<g id="viewport">
<title>/home/travis/build/AliceO2Group/AliceO2/Common/Utils/test/testTreeStream.cxx</title>
<!-- Node1 -->
<g id="node1" class="node"><title>Node1</title>
<polygon fill="#bfbfbf" stroke="black" points="238.5,-408.5 238.5,-449.5 429.5,-449.5 429.5,-408.5 238.5,-408.5"/>
<text text-anchor="start" x="246.5" y="-437.5" font-family="Helvetica,sans-Serif" font-size="10.00">/home/travis/build</text>
<text text-anchor="start" x="246.5" y="-426.5" font-family="Helvetica,sans-Serif" font-size="10.00">/AliceO2Group/AliceO2</text>
<text text-anchor="middle" x="334" y="-415.5" font-family="Helvetica,sans-Serif" font-size="10.00">/Common/Utils/test/testTreeStream.cxx</text>
</g>
<!-- Node2 -->
<g id="node2" class="node"><title>Node2</title>
<polygon fill="none" stroke="#bfbfbf" points="-0.5,-346.5 -0.5,-365.5 46.5,-365.5 46.5,-346.5 -0.5,-346.5"/>
<text text-anchor="middle" x="23" y="-353.5" font-family="Helvetica,sans-Serif" font-size="10.00">TFile.h</text>
</g>
<!-- Node1&#45;&gt;Node2 -->
<g id="edge1" class="edge"><title>Node1&#45;&gt;Node2</title>
<path fill="none" stroke="midnightblue" d="M238.371,-414.27C184.106,-405.113 115.377,-391.197 56,-372 53.7264,-371.265 51.4013,-370.418 49.09,-369.508"/>
<polygon fill="midnightblue" stroke="midnightblue" points="50.4041,-366.264 39.8337,-365.544 47.648,-372.698 50.4041,-366.264"/>
</g>
<!-- Node3 -->
<g id="node3" class="node"><title>Node3</title>
<polygon fill="none" stroke="#bfbfbf" points="65,-346.5 65,-365.5 133,-365.5 133,-346.5 65,-346.5"/>
<text text-anchor="middle" x="99" y="-353.5" font-family="Helvetica,sans-Serif" font-size="10.00">TRandom.h</text>
</g>
<!-- Node1&#45;&gt;Node3 -->
<g id="edge2" class="edge"><title>Node1&#45;&gt;Node3</title>
<path fill="none" stroke="midnightblue" d="M268.17,-408.495C232.314,-397.818 187.184,-384.295 147,-372 143.407,-370.901 139.666,-369.747 135.928,-368.589"/>
<polygon fill="midnightblue" stroke="midnightblue" points="136.733,-365.174 126.144,-365.545 134.653,-371.858 136.733,-365.174"/>
</g>
<!-- Node4 -->
<g id="node4" class="node"><title>Node4</title>
<polygon fill="none" stroke="#bfbfbf" points="161,-210.5 161,-229.5 217,-229.5 217,-210.5 161,-210.5"/>
<text text-anchor="middle" x="189" y="-217.5" font-family="Helvetica,sans-Serif" font-size="10.00">TString.h</text>
</g>
<!-- Node1&#45;&gt;Node4 -->
<g id="edge3" class="edge"><title>Node1&#45;&gt;Node4</title>
<path fill="none" stroke="midnightblue" d="M238.228,-412.933C215.511,-404.634 193.873,-391.806 180,-372 151.832,-331.785 169.607,-269.774 181.243,-239.25"/>
<polygon fill="midnightblue" stroke="midnightblue" points="184.537,-240.438 185.017,-229.854 178.042,-237.829 184.537,-240.438"/>
</g>
<!-- Node5 -->
<g id="node5" class="node"><title>Node5</title>
<polygon fill="none" stroke="#bfbfbf" points="189.5,-346.5 189.5,-365.5 256.5,-365.5 256.5,-346.5 189.5,-346.5"/>
<text text-anchor="middle" x="223" y="-353.5" font-family="Helvetica,sans-Serif" font-size="10.00">TVectorD.h</text>
</g>
<!-- Node1&#45;&gt;Node5 -->
<g id="edge4" class="edge"><title>Node1&#45;&gt;Node5</title>
<path fill="none" stroke="midnightblue" d="M303.375,-408.411C284.858,-396.567 261.682,-381.743 244.982,-371.06"/>
<polygon fill="midnightblue" stroke="midnightblue" points="246.75,-368.037 236.44,-365.597 242.978,-373.934 246.75,-368.037"/>
</g>
<!-- Node6 -->
<g id="node6" class="node"><title>Node6</title>
<polygon fill="none" stroke="#bfbfbf" points="274.5,-346.5 274.5,-365.5 393.5,-365.5 393.5,-346.5 274.5,-346.5"/>
<text text-anchor="middle" x="334" y="-353.5" font-family="Helvetica,sans-Serif" font-size="10.00">boost/test/unit_test.hpp</text>
</g>
<!-- Node1&#45;&gt;Node6 -->
<g id="edge5" class="edge"><title>Node1&#45;&gt;Node6</title>
<path fill="none" stroke="midnightblue" d="M334,-408.223C334,-398.086 334,-385.807 334,-375.813"/>
<polygon fill="midnightblue" stroke="midnightblue" points="337.5,-375.735 334,-365.735 330.5,-375.735 337.5,-375.735"/>
</g>
<!-- Node7 -->
<g id="node7" class="node"><title>Node7</title>
<polygon fill="none" stroke="#bfbfbf" points="412,-346.5 412,-365.5 466,-365.5 466,-346.5 412,-346.5"/>
<text text-anchor="middle" x="439" y="-353.5" font-family="Helvetica,sans-Serif" font-size="10.00">iostream</text>
</g>
<!-- Node1&#45;&gt;Node7 -->
<g id="edge6" class="edge"><title>Node1&#45;&gt;Node7</title>
<path fill="none" stroke="midnightblue" d="M362.97,-408.411C380.324,-396.676 402.003,-382.017 417.766,-371.358"/>
<polygon fill="midnightblue" stroke="midnightblue" points="419.963,-374.098 426.286,-365.597 416.042,-368.299 419.963,-374.098"/>
</g>
<!-- Node8 -->
<g id="node8" class="node"><title>Node8</title>
<g id="a_node8"><a xlink:href="../../d2/dec/TreeStream_8h.html" target="_top" xlink:title="CommonUtils/TreeStream.h">
<polygon fill="none" stroke="black" points="218.5,-278.5 218.5,-297.5 357.5,-297.5 357.5,-278.5 218.5,-278.5"/>
<text text-anchor="middle" x="288" y="-285.5" font-family="Helvetica,sans-Serif" font-size="10.00">CommonUtils/TreeStream.h</text>
</a>
</g>
</g>
<!-- Node1&#45;&gt;Node8 -->
<g id="edge7" class="edge"><title>Node1&#45;&gt;Node8</title>
<path fill="none" stroke="midnightblue" d="M414.57,-408.354C458.141,-393.737 498.645,-370.958 475,-340 466.605,-329.008 391.869,-311.101 339.463,-299.693"/>
<polygon fill="midnightblue" stroke="midnightblue" points="340.146,-296.26 329.632,-297.572 338.669,-303.103 340.146,-296.26"/>
</g>
<!-- Node11 -->
<g id="node11" class="node"><title>Node11</title>
<g id="a_node11"><a xlink:href="../../d1/d22/TreeStreamRedirector_8h.html" target="_top" xlink:title="CommonUtils/TreeStreamRedirector.h">
<polygon fill="none" stroke="black" points="522,-346.5 522,-365.5 706,-365.5 706,-346.5 522,-346.5"/>
<text text-anchor="middle" x="614" y="-353.5" font-family="Helvetica,sans-Serif" font-size="10.00">CommonUtils/TreeStreamRedirector.h</text>
</a>
</g>
</g>
<!-- Node1&#45;&gt;Node11 -->
<g id="edge11" class="edge"><title>Node1&#45;&gt;Node11</title>
<path fill="none" stroke="midnightblue" d="M411.252,-408.411C462.654,-395.377 528.283,-378.735 570.721,-367.974"/>
<polygon fill="midnightblue" stroke="midnightblue" points="571.628,-371.355 580.461,-365.504 569.908,-364.57 571.628,-371.355"/>
</g>
<!-- Node14 -->
<g id="node14" class="node"><title>Node14</title>
<g id="a_node14"><a xlink:href="../../d7/d8b/DataFormats_2Reconstruction_2include_2ReconstructionDataFormats_2Track_8h.html" target="_top" xlink:title="ReconstructionDataFormats\l/Track.h">
<polygon fill="none" stroke="black" points="775,-341 775,-371 915,-371 915,-341 775,-341"/>
<text text-anchor="start" x="783" y="-359" font-family="Helvetica,sans-Serif" font-size="10.00">ReconstructionDataFormats</text>
<text text-anchor="middle" x="845" y="-348" font-family="Helvetica,sans-Serif" font-size="10.00">/Track.h</text>
</a>
</g>
</g>
<!-- Node1&#45;&gt;Node14 -->
<g id="edge15" class="edge"><title>Node1&#45;&gt;Node14</title>
<path fill="none" stroke="midnightblue" d="M429.516,-414.729C526.271,-401.285 674.245,-380.725 765.017,-368.113"/>
<polygon fill="midnightblue" stroke="midnightblue" points="765.556,-371.572 774.979,-366.729 764.592,-364.639 765.556,-371.572"/>
</g>
<!-- Node8&#45;&gt;Node4 -->
<g id="edge8" class="edge"><title>Node8&#45;&gt;Node4</title>
<path fill="none" stroke="midnightblue" d="M275.057,-278.372C258.604,-267.403 229.975,-248.317 210.287,-235.191"/>
<polygon fill="midnightblue" stroke="midnightblue" points="212.208,-232.265 201.946,-229.63 208.325,-238.09 212.208,-232.265"/>
</g>
<!-- Node9 -->
<g id="node9" class="node"><title>Node9</title>
<polygon fill="none" stroke="#bfbfbf" points="263,-210.5 263,-229.5 313,-229.5 313,-210.5 263,-210.5"/>
<text text-anchor="middle" x="288" y="-217.5" font-family="Helvetica,sans-Serif" font-size="10.00">TTree.h</text>
</g>
<!-- Node8&#45;&gt;Node9 -->
<g id="edge9" class="edge"><title>Node8&#45;&gt;Node9</title>
<path fill="none" stroke="midnightblue" d="M288,-278.372C288,-268.643 288,-252.528 288,-239.85"/>
<polygon fill="midnightblue" stroke="midnightblue" points="291.5,-239.841 288,-229.841 284.5,-239.841 291.5,-239.841"/>
</g>
<!-- Node10 -->
<g id="node10" class="node"><title>Node10</title>
<polygon fill="none" stroke="#bfbfbf" points="470,-142.5 470,-161.5 514,-161.5 514,-142.5 470,-142.5"/>
<text text-anchor="middle" x="492" y="-149.5" font-family="Helvetica,sans-Serif" font-size="10.00">vector</text>
</g>
<!-- Node8&#45;&gt;Node10 -->
<g id="edge10" class="edge"><title>Node8&#45;&gt;Node10</title>
<path fill="none" stroke="midnightblue" d="M301.071,-278.414C335.399,-255.865 428.366,-194.799 470.603,-167.055"/>
<polygon fill="midnightblue" stroke="midnightblue" points="472.601,-169.93 479.037,-161.515 468.758,-164.079 472.601,-169.93"/>
</g>
<!-- Node11&#45;&gt;Node8 -->
<g id="edge14" class="edge"><title>Node11&#45;&gt;Node8</title>
<path fill="none" stroke="midnightblue" d="M571.715,-346.439C512.353,-334.421 404.395,-312.565 340.134,-299.555"/>
<polygon fill="midnightblue" stroke="midnightblue" points="340.705,-296.099 330.21,-297.546 339.316,-302.96 340.705,-296.099"/>
</g>
<!-- Node12 -->
<g id="node12" class="node"><title>Node12</title>
<polygon fill="none" stroke="#bfbfbf" points="983,-74.5 983,-93.5 1039,-93.5 1039,-74.5 983,-74.5"/>
<text text-anchor="middle" x="1011" y="-81.5" font-family="Helvetica,sans-Serif" font-size="10.00">Rtypes.h</text>
</g>
<!-- Node11&#45;&gt;Node12 -->
<g id="edge12" class="edge"><title>Node11&#45;&gt;Node12</title>
<path fill="none" stroke="midnightblue" d="M614.544,-346.467C615.93,-330.516 620.735,-295.657 637,-272 665.806,-230.102 683.164,-226.008 729,-204 785.366,-176.936 810.565,-198.763 865,-168 882.786,-157.948 881.104,-147.485 898,-136 912.092,-126.421 951.978,-109.182 980.361,-97.4229"/>
<polygon fill="midnightblue" stroke="midnightblue" points="981.944,-100.556 989.859,-93.5135 979.28,-94.083 981.944,-100.556"/>
</g>
<!-- Node13 -->
<g id="node13" class="node"><title>Node13</title>
<polygon fill="none" stroke="#bfbfbf" points="375.5,-278.5 375.5,-297.5 446.5,-297.5 446.5,-278.5 375.5,-278.5"/>
<text text-anchor="middle" x="411" y="-285.5" font-family="Helvetica,sans-Serif" font-size="10.00">TDirectory.h</text>
</g>
<!-- Node11&#45;&gt;Node13 -->
<g id="edge13" class="edge"><title>Node11&#45;&gt;Node13</title>
<path fill="none" stroke="midnightblue" d="M587.461,-346.372C551.497,-334.679 487.163,-313.762 446.907,-300.674"/>
<polygon fill="midnightblue" stroke="midnightblue" points="447.816,-297.289 437.224,-297.526 445.651,-303.946 447.816,-297.289"/>
</g>
<!-- Node14&#45;&gt;Node12 -->
<g id="edge16" class="edge"><title>Node14&#45;&gt;Node12</title>
<path fill="none" stroke="midnightblue" d="M915.308,-350.835C983.105,-345.176 1078.76,-332.301 1102,-304 1154.93,-239.534 1067.1,-139.949 1028.14,-101.202"/>
<polygon fill="midnightblue" stroke="midnightblue" points="1030.24,-98.3638 1020.64,-93.8917 1025.36,-103.377 1030.24,-98.3638"/>
</g>
<!-- Node15 -->
<g id="node15" class="node"><title>Node15</title>
<polygon fill="none" stroke="#bfbfbf" points="1220,-278.5 1220,-297.5 1276,-297.5 1276,-278.5 1220,-278.5"/>
<text text-anchor="middle" x="1248" y="-285.5" font-family="Helvetica,sans-Serif" font-size="10.00">algorithm</text>
</g>
<!-- Node14&#45;&gt;Node15 -->
<g id="edge17" class="edge"><title>Node14&#45;&gt;Node15</title>
<path fill="none" stroke="midnightblue" d="M915.004,-349.348C988.323,-342.446 1106.44,-328.542 1206,-304 1209.59,-303.114 1213.31,-302.036 1216.98,-300.868"/>
<polygon fill="midnightblue" stroke="midnightblue" points="1218.12,-304.176 1226.46,-297.638 1215.86,-297.551 1218.12,-304.176"/>
</g>
<!-- Node16 -->
<g id="node16" class="node"><title>Node16</title>
<polygon fill="none" stroke="#bfbfbf" points="702,-6.5 702,-25.5 740,-25.5 740,-6.5 702,-6.5"/>
<text text-anchor="middle" x="721" y="-13.5" font-family="Helvetica,sans-Serif" font-size="10.00">array</text>
</g>
<!-- Node14&#45;&gt;Node16 -->
<g id="edge18" class="edge"><title>Node14&#45;&gt;Node16</title>
<path fill="none" stroke="midnightblue" d="M803.845,-340.992C783.117,-332.532 758.525,-320.221 740,-304 712.734,-280.126 709.141,-269.368 695,-236 665.404,-166.165 634.346,-137.378 665,-68 671.714,-52.8042 685.44,-40.186 697.621,-31.3022"/>
<polygon fill="midnightblue" stroke="midnightblue" points="699.815,-34.0421 706.096,-25.5098 695.865,-28.263 699.815,-34.0421"/>
</g>
<!-- Node17 -->
<g id="node17" class="node"><title>Node17</title>
<polygon fill="none" stroke="#bfbfbf" points="1332.5,-278.5 1332.5,-297.5 1373.5,-297.5 1373.5,-278.5 1332.5,-278.5"/>
<text text-anchor="middle" x="1353" y="-285.5" font-family="Helvetica,sans-Serif" font-size="10.00">cfloat</text>
</g>
<!-- Node14&#45;&gt;Node17 -->
<g id="edge19" class="edge"><title>Node14&#45;&gt;Node17</title>
<path fill="none" stroke="midnightblue" d="M915.1,-353.912C1008.48,-351.006 1178.18,-340.62 1318,-304 1320.82,-303.262 1323.7,-302.334 1326.55,-301.302"/>
<polygon fill="midnightblue" stroke="midnightblue" points="1327.95,-304.512 1335.91,-297.527 1325.33,-298.02 1327.95,-304.512"/>
</g>
<!-- Node18 -->
<g id="node18" class="node"><title>Node18</title>
<polygon fill="none" stroke="#bfbfbf" points="420,-6.5 420,-25.5 464,-25.5 464,-6.5 420,-6.5"/>
<text text-anchor="middle" x="442" y="-13.5" font-family="Helvetica,sans-Serif" font-size="10.00">cmath</text>
</g>
<!-- Node14&#45;&gt;Node18 -->
<g id="edge20" class="edge"><title>Node14&#45;&gt;Node18</title>
<path fill="none" stroke="midnightblue" d="M774.97,-347.629C705.221,-339.302 603.802,-324.228 570,-304 503.531,-264.223 491.194,-239.335 461,-168 442.088,-123.32 440.531,-65.0475 441.163,-35.6696"/>
<polygon fill="midnightblue" stroke="midnightblue" points="444.663,-35.707 441.494,-25.5972 437.667,-35.4766 444.663,-35.707"/>
</g>
<!-- Node19 -->
<g id="node19" class="node"><title>Node19</title>
<polygon fill="none" stroke="#bfbfbf" points="646,-278.5 646,-297.5 692,-297.5 692,-278.5 646,-278.5"/>
<text text-anchor="middle" x="669" y="-285.5" font-family="Helvetica,sans-Serif" font-size="10.00">cstring</text>
</g>
<!-- Node14&#45;&gt;Node19 -->
<g id="edge21" class="edge"><title>Node14&#45;&gt;Node19</title>
<path fill="none" stroke="midnightblue" d="M805.625,-340.95C777.722,-330.897 739.452,-316.914 706,-304 703.763,-303.136 701.455,-302.232 699.136,-301.315"/>
<polygon fill="midnightblue" stroke="midnightblue" points="700.279,-298.002 689.695,-297.532 697.676,-304.5 700.279,-298.002"/>
</g>
<!-- Node20 -->
<g id="node20" class="node"><title>Node20</title>
<polygon fill="none" stroke="#bfbfbf" points="1103.5,-74.5 1103.5,-93.5 1148.5,-93.5 1148.5,-74.5 1103.5,-74.5"/>
<text text-anchor="middle" x="1126" y="-81.5" font-family="Helvetica,sans-Serif" font-size="10.00">iosfwd</text>
</g>
<!-- Node14&#45;&gt;Node20 -->
<g id="edge22" class="edge"><title>Node14&#45;&gt;Node20</title>
<path fill="none" stroke="midnightblue" d="M915.326,-351.495C988.306,-346.285 1095.57,-333.686 1123,-304 1174.88,-247.858 1147.13,-144.838 1132.82,-103.188"/>
<polygon fill="midnightblue" stroke="midnightblue" points="1136.04,-101.802 1129.37,-93.5692 1129.45,-104.164 1136.04,-101.802"/>
</g>
<!-- Node21 -->
<g id="node21" class="node"><title>Node21</title>
<polygon fill="none" stroke="#bfbfbf" points="748.5,-278.5 748.5,-297.5 831.5,-297.5 831.5,-278.5 748.5,-278.5"/>
<text text-anchor="middle" x="790" y="-285.5" font-family="Helvetica,sans-Serif" font-size="10.00">Math/SMatrix.h</text>
</g>
<!-- Node14&#45;&gt;Node21 -->
<g id="edge23" class="edge"><title>Node14&#45;&gt;Node21</title>
<path fill="none" stroke="midnightblue" d="M833.066,-340.679C824.49,-330.388 812.903,-316.484 803.908,-305.69"/>
<polygon fill="midnightblue" stroke="midnightblue" points="806.448,-303.27 797.357,-297.828 801.07,-307.751 806.448,-303.27"/>
</g>
<!-- Node22 -->
<g id="node22" class="node"><title>Node22</title>
<polygon fill="none" stroke="#bfbfbf" points="849.5,-278.5 849.5,-297.5 934.5,-297.5 934.5,-278.5 849.5,-278.5"/>
<text text-anchor="middle" x="892" y="-285.5" font-family="Helvetica,sans-Serif" font-size="10.00">Math/SVector.h</text>
</g>
<!-- Node14&#45;&gt;Node22 -->
<g id="edge24" class="edge"><title>Node14&#45;&gt;Node22</title>
<path fill="none" stroke="midnightblue" d="M855.198,-340.679C862.454,-330.49 872.232,-316.759 879.886,-306.011"/>
<polygon fill="midnightblue" stroke="midnightblue" points="882.763,-308.004 885.713,-297.828 877.061,-303.944 882.763,-308.004"/>
</g>
<!-- Node23 -->
<g id="node23" class="node"><title>Node23</title>
<g id="a_node23"><a xlink:href="../../d6/d84/MathConstants_8h.html" target="_top" xlink:title="useful math constants ">
<polygon fill="none" stroke="black" points="482.5,-6.5 482.5,-25.5 661.5,-25.5 661.5,-6.5 482.5,-6.5"/>
<text text-anchor="middle" x="572" y="-13.5" font-family="Helvetica,sans-Serif" font-size="10.00">CommonConstants/MathConstants.h</text>
</a>
</g>
</g>
<!-- Node14&#45;&gt;Node23 -->
<g id="edge25" class="edge"><title>Node14&#45;&gt;Node23</title>
<path fill="none" stroke="midnightblue" d="M774.935,-347.127C714.257,-339.05 632.357,-324.726 607,-304 530.411,-241.397 538.204,-196.834 518,-100 515.095,-86.0776 512.37,-81.0606 518,-68 524.449,-53.0394 537.684,-40.4242 549.437,-31.4831"/>
<polygon fill="midnightblue" stroke="midnightblue" points="551.512,-34.3019 557.614,-25.6409 547.443,-28.6061 551.512,-34.3019"/>
</g>
<!-- Node24 -->
<g id="node24" class="node"><title>Node24</title>
<g id="a_node24"><a xlink:href="../../dd/d76/Cartesian3D_8h.html" target="_top" xlink:title="MathUtils/Cartesian3D.h">
<polygon fill="none" stroke="black" points="1301.5,-142.5 1301.5,-161.5 1426.5,-161.5 1426.5,-142.5 1301.5,-142.5"/>
<text text-anchor="middle" x="1364" y="-149.5" font-family="Helvetica,sans-Serif" font-size="10.00">MathUtils/Cartesian3D.h</text>
</a>
</g>
</g>
<!-- Node14&#45;&gt;Node24 -->
<g id="edge26" class="edge"><title>Node14&#45;&gt;Node24</title>
<path fill="none" stroke="midnightblue" d="M915.372,-354.628C1023.88,-352.779 1225.65,-343.89 1284,-304 1330.45,-272.25 1351.98,-204.677 1360.02,-171.778"/>
<polygon fill="midnightblue" stroke="midnightblue" points="1363.51,-172.231 1362.32,-161.703 1356.69,-170.673 1363.51,-172.231"/>
</g>
<!-- Node34 -->
<g id="node34" class="node"><title>Node34</title>
<g id="a_node34"><a xlink:href="../../d9/d52/Common_2MathUtils_2include_2MathUtils_2Utils_8h.html" target="_top" xlink:title="MathUtils/Utils.h">
<polygon fill="none" stroke="black" points="527,-74.5 527,-93.5 617,-93.5 617,-74.5 527,-74.5"/>
<text text-anchor="middle" x="572" y="-81.5" font-family="Helvetica,sans-Serif" font-size="10.00">MathUtils/Utils.h</text>
</a>
</g>
</g>
<!-- Node14&#45;&gt;Node34 -->
<g id="edge38" class="edge"><title>Node14&#45;&gt;Node34</title>
<path fill="none" stroke="midnightblue" d="M774.745,-345.39C722.429,-336.871 656.783,-322.854 637,-304 579.529,-249.227 572.193,-146.206 571.726,-103.884"/>
<polygon fill="midnightblue" stroke="midnightblue" points="575.226,-103.652 571.741,-93.6467 568.226,-103.642 575.226,-103.652"/>
</g>
<!-- Node35 -->
<g id="node35" class="node"><title>Node35</title>
<g id="a_node35"><a xlink:href="../../d4/de2/BaseCluster_8h.html" target="_top" xlink:title="ReconstructionDataFormats\l/BaseCluster.h">
<polygon fill="none" stroke="black" points="953,-273 953,-303 1093,-303 1093,-273 953,-273"/>
<text text-anchor="start" x="961" y="-291" font-family="Helvetica,sans-Serif" font-size="10.00">ReconstructionDataFormats</text>
<text text-anchor="middle" x="1023" y="-280" font-family="Helvetica,sans-Serif" font-size="10.00">/BaseCluster.h</text>
</a>
</g>
</g>
<!-- Node14&#45;&gt;Node35 -->
<g id="edge42" class="edge"><title>Node14&#45;&gt;Node35</title>
<path fill="none" stroke="midnightblue" d="M883.185,-340.841C910.26,-330.802 946.77,-317.265 975.691,-306.542"/>
<polygon fill="midnightblue" stroke="midnightblue" points="977.024,-309.78 985.184,-303.022 974.591,-303.217 977.024,-309.78"/>
</g>
<!-- Node24&#45;&gt;Node12 -->
<g id="edge32" class="edge"><title>Node24&#45;&gt;Node12</title>
<path fill="none" stroke="midnightblue" d="M1318.21,-142.439C1247.91,-129.296 1114.67,-104.384 1049.23,-92.1472"/>
<polygon fill="midnightblue" stroke="midnightblue" points="1049.8,-88.6934 1039.32,-90.2959 1048.51,-95.5742 1049.8,-88.6934"/>
</g>
<!-- Node24&#45;&gt;Node20 -->
<g id="edge34" class="edge"><title>Node24&#45;&gt;Node20</title>
<path fill="none" stroke="midnightblue" d="M1318.65,-142.438C1276.41,-133.84 1212,-119.134 1158,-100 1156.09,-99.3238 1154.14,-98.5727 1152.2,-97.7772"/>
<polygon fill="midnightblue" stroke="midnightblue" points="1153.24,-94.4123 1142.68,-93.5714 1150.41,-100.815 1153.24,-94.4123"/>
</g>
<!-- Node25 -->
<g id="node25" class="node"><title>Node25</title>
<polygon fill="none" stroke="#bfbfbf" points="1166.5,-69 1166.5,-99 1317.5,-99 1317.5,-69 1166.5,-69"/>
<text text-anchor="start" x="1174.5" y="-87" font-family="Helvetica,sans-Serif" font-size="10.00">Math/GenVector/Displacement</text>
<text text-anchor="middle" x="1242" y="-76" font-family="Helvetica,sans-Serif" font-size="10.00">Vector3D.h</text>
</g>
<!-- Node24&#45;&gt;Node25 -->
<g id="edge27" class="edge"><title>Node24&#45;&gt;Node25</title>
<path fill="none" stroke="midnightblue" d="M1348.05,-142.372C1330.15,-132.686 1300.54,-116.671 1277.16,-104.019"/>
<polygon fill="midnightblue" stroke="midnightblue" points="1278.68,-100.861 1268.21,-99.1815 1275.34,-107.018 1278.68,-100.861"/>
</g>
<!-- Node26 -->
<g id="node26" class="node"><title>Node26</title>
<polygon fill="none" stroke="#bfbfbf" points="1336,-74.5 1336,-93.5 1512,-93.5 1512,-74.5 1336,-74.5"/>
<text text-anchor="middle" x="1424" y="-81.5" font-family="Helvetica,sans-Serif" font-size="10.00">Math/GenVector/PositionVector3D.h</text>
</g>
<!-- Node24&#45;&gt;Node26 -->
<g id="edge28" class="edge"><title>Node24&#45;&gt;Node26</title>
<path fill="none" stroke="midnightblue" d="M1371.84,-142.372C1381.22,-132.053 1397.14,-114.551 1408.92,-101.585"/>
<polygon fill="midnightblue" stroke="midnightblue" points="1411.83,-103.595 1415.96,-93.8411 1406.65,-98.8862 1411.83,-103.595"/>
</g>
<!-- Node27 -->
<g id="node27" class="node"><title>Node27</title>
<polygon fill="none" stroke="#bfbfbf" points="1529.5,-74.5 1529.5,-93.5 1678.5,-93.5 1678.5,-74.5 1529.5,-74.5"/>
<text text-anchor="middle" x="1604" y="-81.5" font-family="Helvetica,sans-Serif" font-size="10.00">Math/GenVector/Rotation3D.h</text>
</g>
<!-- Node24&#45;&gt;Node27 -->
<g id="edge29" class="edge"><title>Node24&#45;&gt;Node27</title>
<path fill="none" stroke="midnightblue" d="M1395.38,-142.372C1438.44,-130.53 1515.89,-109.229 1563.35,-96.179"/>
<polygon fill="midnightblue" stroke="midnightblue" points="1564.28,-99.5522 1573,-93.5259 1562.43,-92.8028 1564.28,-99.5522"/>
</g>
<!-- Node28 -->
<g id="node28" class="node"><title>Node28</title>
<polygon fill="none" stroke="#bfbfbf" points="1697,-74.5 1697,-93.5 1853,-93.5 1853,-74.5 1697,-74.5"/>
<text text-anchor="middle" x="1775" y="-81.5" font-family="Helvetica,sans-Serif" font-size="10.00">Math/GenVector/Transform3D.h</text>
</g>
<!-- Node24&#45;&gt;Node28 -->
<g id="edge30" class="edge"><title>Node24&#45;&gt;Node28</title>
<path fill="none" stroke="midnightblue" d="M1419.19,-142.497C1483.52,-132.535 1593.02,-115.428 1687,-100 1696.31,-98.472 1706.16,-96.8228 1715.78,-95.1963"/>
<polygon fill="midnightblue" stroke="midnightblue" points="1716.41,-98.6396 1725.68,-93.5156 1715.24,-91.7383 1716.41,-98.6396"/>
</g>
<!-- Node29 -->
<g id="node29" class="node"><title>Node29</title>
<polygon fill="none" stroke="#bfbfbf" points="1871,-74.5 1871,-93.5 2031,-93.5 2031,-74.5 1871,-74.5"/>
<text text-anchor="middle" x="1951" y="-81.5" font-family="Helvetica,sans-Serif" font-size="10.00">Math/GenVector/Translation3D.h</text>
</g>
<!-- Node24&#45;&gt;Node29 -->
<g id="edge31" class="edge"><title>Node24&#45;&gt;Node29</title>
<path fill="none" stroke="midnightblue" d="M1426.65,-145.898C1521.2,-137.902 1705.9,-121.125 1862,-100 1872.36,-98.5987 1883.35,-96.9095 1893.96,-95.1776"/>
<polygon fill="midnightblue" stroke="midnightblue" points="1894.68,-98.6055 1903.97,-93.512 1893.54,-91.7003 1894.68,-98.6055"/>
</g>
<!-- Node30 -->
<g id="node30" class="node"><title>Node30</title>
<polygon fill="none" stroke="#bfbfbf" points="2049,-74.5 2049,-93.5 2125,-93.5 2125,-74.5 2049,-74.5"/>
<text text-anchor="middle" x="2087" y="-81.5" font-family="Helvetica,sans-Serif" font-size="10.00">TGeoMatrix.h</text>
</g>
<!-- Node24&#45;&gt;Node30 -->
<g id="edge33" class="edge"><title>Node24&#45;&gt;Node30</title>
<path fill="none" stroke="midnightblue" d="M1426.63,-151.131C1546.74,-150.316 1817.32,-143.315 2040,-100 2044.57,-99.1113 2049.32,-97.9239 2053.96,-96.6047"/>
<polygon fill="midnightblue" stroke="midnightblue" points="2055.32,-99.8495 2063.85,-93.5712 2053.26,-93.1571 2055.32,-99.8495"/>
</g>
<!-- Node31 -->
<g id="node31" class="node"><title>Node31</title>
<g id="a_node31"><a xlink:href="../../d2/dd0/Cartesian2D_8h.html" target="_top" xlink:title="MathUtils/Cartesian2D.h">
<polygon fill="none" stroke="black" points="2143.5,-74.5 2143.5,-93.5 2268.5,-93.5 2268.5,-74.5 2143.5,-74.5"/>
<text text-anchor="middle" x="2206" y="-81.5" font-family="Helvetica,sans-Serif" font-size="10.00">MathUtils/Cartesian2D.h</text>
</a>
</g>
</g>
<!-- Node24&#45;&gt;Node31 -->
<g id="edge35" class="edge"><title>Node24&#45;&gt;Node31</title>
<path fill="none" stroke="midnightblue" d="M1426.68,-149.802C1558.29,-146.639 1872.83,-135.677 2134,-100 2142.46,-98.8448 2151.41,-97.2702 2160.01,-95.574"/>
<polygon fill="midnightblue" stroke="midnightblue" points="2160.82,-98.9818 2169.91,-93.5448 2159.41,-92.1244 2160.82,-98.9818"/>
</g>
<!-- Node32 -->
<g id="node32" class="node"><title>Node32</title>
<polygon fill="none" stroke="#bfbfbf" points="2221.5,-1 2221.5,-31 2372.5,-31 2372.5,-1 2221.5,-1"/>
<text text-anchor="start" x="2229.5" y="-19" font-family="Helvetica,sans-Serif" font-size="10.00">Math/GenVector/Displacement</text>
<text text-anchor="middle" x="2297" y="-8" font-family="Helvetica,sans-Serif" font-size="10.00">Vector2D.h</text>
</g>
<!-- Node31&#45;&gt;Node32 -->
<g id="edge36" class="edge"><title>Node31&#45;&gt;Node32</title>
<path fill="none" stroke="midnightblue" d="M2217.9,-74.3717C2230.78,-65.0286 2251.78,-49.7966 2268.91,-37.375"/>
<polygon fill="midnightblue" stroke="midnightblue" points="2271.41,-39.8859 2277.45,-31.1815 2267.3,-34.2194 2271.41,-39.8859"/>
</g>
<!-- Node33 -->
<g id="node33" class="node"><title>Node33</title>
<polygon fill="none" stroke="#bfbfbf" points="2027,-6.5 2027,-25.5 2203,-25.5 2203,-6.5 2027,-6.5"/>
<text text-anchor="middle" x="2115" y="-13.5" font-family="Helvetica,sans-Serif" font-size="10.00">Math/GenVector/PositionVector2D.h</text>
</g>
<!-- Node31&#45;&gt;Node33 -->
<g id="edge37" class="edge"><title>Node31&#45;&gt;Node33</title>
<path fill="none" stroke="midnightblue" d="M2194.1,-74.3717C2179.12,-63.5015 2153.14,-44.6602 2135.06,-31.5474"/>
<polygon fill="midnightblue" stroke="midnightblue" points="2137.05,-28.6684 2126.9,-25.6305 2132.94,-34.3349 2137.05,-28.6684"/>
</g>
<!-- Node34&#45;&gt;Node16 -->
<g id="edge39" class="edge"><title>Node34&#45;&gt;Node16</title>
<path fill="none" stroke="midnightblue" d="M591.479,-74.3717C617.276,-62.9447 662.96,-42.7088 692.602,-29.5791"/>
<polygon fill="midnightblue" stroke="midnightblue" points="694.262,-32.672 701.987,-25.4218 691.426,-26.2717 694.262,-32.672"/>
</g>
<!-- Node34&#45;&gt;Node18 -->
<g id="edge40" class="edge"><title>Node34&#45;&gt;Node18</title>
<path fill="none" stroke="midnightblue" d="M555.005,-74.3717C532.913,-63.1557 494.105,-43.4532 468.224,-30.3136"/>
<polygon fill="midnightblue" stroke="midnightblue" points="469.501,-27.0366 458.999,-25.6305 466.332,-33.2783 469.501,-27.0366"/>
</g>
<!-- Node34&#45;&gt;Node23 -->
<g id="edge41" class="edge"><title>Node34&#45;&gt;Node23</title>
<path fill="none" stroke="midnightblue" d="M572,-74.3717C572,-64.6426 572,-48.528 572,-35.8504"/>
<polygon fill="midnightblue" stroke="midnightblue" points="575.5,-35.8411 572,-25.8411 568.5,-35.8412 575.5,-35.8411"/>
</g>
<!-- Node35&#45;&gt;Node20 -->
<g id="edge47" class="edge"><title>Node35&#45;&gt;Node20</title>
<path fill="none" stroke="midnightblue" d="M1053.22,-272.899C1068.34,-264.316 1085.6,-251.921 1096,-236 1123.09,-194.528 1126.68,-133.968 1126.6,-103.69"/>
<polygon fill="midnightblue" stroke="midnightblue" points="1130.1,-103.61 1126.43,-93.6709 1123.1,-103.729 1130.1,-103.61"/>
</g>
<!-- Node35&#45;&gt;Node24 -->
<g id="edge62" class="edge"><title>Node35&#45;&gt;Node24</title>
<path fill="none" stroke="midnightblue" d="M1058.85,-272.913C1125.88,-246.571 1269.16,-190.267 1332.63,-165.327"/>
<polygon fill="midnightblue" stroke="midnightblue" points="1334.08,-168.518 1342.11,-161.603 1331.52,-162.003 1334.08,-168.518"/>
</g>
<!-- Node36 -->
<g id="node36" class="node"><title>Node36</title>
<polygon fill="none" stroke="#bfbfbf" points="912.5,-210.5 912.5,-229.5 971.5,-229.5 971.5,-210.5 912.5,-210.5"/>
<text text-anchor="middle" x="942" y="-217.5" font-family="Helvetica,sans-Serif" font-size="10.00">TObject.h</text>
</g>
<!-- Node35&#45;&gt;Node36 -->
<g id="edge43" class="edge"><title>Node35&#45;&gt;Node36</title>
<path fill="none" stroke="midnightblue" d="M1005.42,-272.679C992.294,-261.981 974.372,-247.377 960.927,-236.422"/>
<polygon fill="midnightblue" stroke="midnightblue" points="962.798,-233.432 952.835,-229.828 958.376,-238.858 962.798,-233.432"/>
</g>
<!-- Node37 -->
<g id="node37" class="node"><title>Node37</title>
<polygon fill="none" stroke="#bfbfbf" points="673.5,-74.5 673.5,-93.5 714.5,-93.5 714.5,-74.5 673.5,-74.5"/>
<text text-anchor="middle" x="694" y="-81.5" font-family="Helvetica,sans-Serif" font-size="10.00">bitset</text>
</g>
<!-- Node35&#45;&gt;Node37 -->
<g id="edge44" class="edge"><title>Node35&#45;&gt;Node37</title>
<path fill="none" stroke="midnightblue" d="M952.773,-273.756C949.471,-273.157 946.2,-272.569 943,-272 848.043,-255.112 807.835,-291.562 729,-236 690.137,-208.61 689.603,-183.525 691,-136 691.315,-125.295 692,-113.342 692.636,-103.7"/>
<polygon fill="midnightblue" stroke="midnightblue" points="696.132,-103.875 693.335,-93.6561 689.149,-103.389 696.132,-103.875"/>
</g>
<!-- Node38 -->
<g id="node38" class="node"><title>Node38</title>
<polygon fill="none" stroke="#bfbfbf" points="990,-210.5 990,-229.5 1040,-229.5 1040,-210.5 990,-210.5"/>
<text text-anchor="middle" x="1015" y="-217.5" font-family="Helvetica,sans-Serif" font-size="10.00">iomanip</text>
</g>
<!-- Node35&#45;&gt;Node38 -->
<g id="edge45" class="edge"><title>Node35&#45;&gt;Node38</title>
<path fill="none" stroke="midnightblue" d="M1021.26,-272.679C1020.1,-263.101 1018.56,-250.394 1017.3,-239.977"/>
<polygon fill="midnightblue" stroke="midnightblue" points="1020.75,-239.334 1016.07,-229.828 1013.8,-240.177 1020.75,-239.334"/>
</g>
<!-- Node39 -->
<g id="node39" class="node"><title>Node39</title>
<polygon fill="none" stroke="#bfbfbf" points="1058.5,-210.5 1058.5,-229.5 1087.5,-229.5 1087.5,-210.5 1058.5,-210.5"/>
<text text-anchor="middle" x="1073" y="-217.5" font-family="Helvetica,sans-Serif" font-size="10.00">ios</text>
</g>
<!-- Node35&#45;&gt;Node39 -->
<g id="edge46" class="edge"><title>Node35&#45;&gt;Node39</title>
<path fill="none" stroke="midnightblue" d="M1033.85,-272.679C1041.57,-262.49 1051.97,-248.759 1060.11,-238.011"/>
<polygon fill="midnightblue" stroke="midnightblue" points="1063.06,-239.913 1066.31,-229.828 1057.48,-235.686 1063.06,-239.913"/>
</g>
<!-- Node40 -->
<g id="node40" class="node"><title>Node40</title>
<g id="a_node40"><a xlink:href="../../d4/d20/DetMatrixCache_8h.html" target="_top" xlink:title="DetectorsCommonDataFormats\l/DetMatrixCache.h">
<polygon fill="none" stroke="black" points="738,-205 738,-235 894,-235 894,-205 738,-205"/>
<text text-anchor="start" x="746" y="-223" font-family="Helvetica,sans-Serif" font-size="10.00">DetectorsCommonDataFormats</text>
<text text-anchor="middle" x="816" y="-212" font-family="Helvetica,sans-Serif" font-size="10.00">/DetMatrixCache.h</text>
</a>
</g>
</g>
<!-- Node35&#45;&gt;Node40 -->
<g id="edge48" class="edge"><title>Node35&#45;&gt;Node40</title>
<path fill="none" stroke="midnightblue" d="M978.847,-272.922C946.967,-262.757 903.739,-248.975 869.833,-238.164"/>
<polygon fill="midnightblue" stroke="midnightblue" points="870.676,-234.759 860.085,-235.056 868.549,-241.428 870.676,-234.759"/>
</g>
<!-- Node40&#45;&gt;Node10 -->
<g id="edge51" class="edge"><title>Node40&#45;&gt;Node10</title>
<path fill="none" stroke="midnightblue" d="M746.891,-204.922C678.212,-190.932 575.89,-170.089 524.267,-159.573"/>
<polygon fill="midnightblue" stroke="midnightblue" points="524.845,-156.119 514.347,-157.552 523.447,-162.978 524.845,-156.119"/>
</g>
<!-- Node40&#45;&gt;Node12 -->
<g id="edge61" class="edge"><title>Node40&#45;&gt;Node12</title>
<path fill="none" stroke="midnightblue" d="M839.634,-204.963C856.185,-194.974 878.701,-181.061 898,-168 907.266,-161.729 961.504,-121.657 991.341,-99.5675"/>
<polygon fill="midnightblue" stroke="midnightblue" points="993.443,-102.366 999.396,-93.6015 989.277,-96.7404 993.443,-102.366"/>
</g>
<!-- Node40&#45;&gt;Node16 -->
<g id="edge50" class="edge"><title>Node40&#45;&gt;Node16</title>
<path fill="none" stroke="midnightblue" d="M891.603,-204.962C949.05,-193.64 1019.88,-178.004 1030,-168 1062.05,-136.298 1076.31,-102.253 1047,-68 1008.92,-23.4952 823.645,-17.5494 750.646,-16.9582"/>
<polygon fill="midnightblue" stroke="midnightblue" points="750.344,-13.4567 740.326,-16.905 750.308,-20.4566 750.344,-13.4567"/>
</g>
<!-- Node40&#45;&gt;Node24 -->
<g id="edge60" class="edge"><title>Node40&#45;&gt;Node24</title>
<path fill="none" stroke="midnightblue" d="M894.173,-205.431C897.491,-204.933 900.777,-204.453 904,-204 1040.38,-184.834 1200.33,-168.471 1291.17,-159.749"/>
<polygon fill="midnightblue" stroke="midnightblue" points="1291.73,-163.211 1301.36,-158.775 1291.07,-156.243 1291.73,-163.211"/>
</g>
<!-- Node41 -->
<g id="node41" class="node"><title>Node41</title>
<polygon fill="none" stroke="#bfbfbf" points="950.5,-142.5 950.5,-161.5 1021.5,-161.5 1021.5,-142.5 950.5,-142.5"/>
<text text-anchor="middle" x="986" y="-149.5" font-family="Helvetica,sans-Serif" font-size="10.00">FairLogger.h</text>
</g>
<!-- Node40&#45;&gt;Node41 -->
<g id="edge49" class="edge"><title>Node40&#45;&gt;Node41</title>
<path fill="none" stroke="midnightblue" d="M852.469,-204.841C882.665,-193.118 925.15,-176.624 954.032,-165.411"/>
<polygon fill="midnightblue" stroke="midnightblue" points="955.582,-168.564 963.638,-161.682 953.049,-162.038 955.582,-168.564"/>
</g>
<!-- Node42 -->
<g id="node42" class="node"><title>Node42</title>
<g id="a_node42"><a xlink:href="../../d6/d31/DetID_8h.html" target="_top" xlink:title="DetectorsCommonDataFormats\l/DetID.h">
<polygon fill="none" stroke="black" points="700,-137 700,-167 856,-167 856,-137 700,-137"/>
<text text-anchor="start" x="708" y="-155" font-family="Helvetica,sans-Serif" font-size="10.00">DetectorsCommonDataFormats</text>
<text text-anchor="middle" x="778" y="-144" font-family="Helvetica,sans-Serif" font-size="10.00">/DetID.h</text>
</a>
</g>
</g>
<!-- Node40&#45;&gt;Node42 -->
<g id="edge52" class="edge"><title>Node40&#45;&gt;Node42</title>
<path fill="none" stroke="midnightblue" d="M807.755,-204.679C802.974,-196.376 796.839,-185.721 791.384,-176.245"/>
<polygon fill="midnightblue" stroke="midnightblue" points="794.252,-174.213 786.229,-167.293 788.186,-177.706 794.252,-174.213"/>
</g>
<!-- Node42&#45;&gt;Node12 -->
<g id="edge53" class="edge"><title>Node42&#45;&gt;Node12</title>
<path fill="none" stroke="midnightblue" d="M839.59,-136.901C878.24,-127.56 928.929,-114.404 973,-100 975.627,-99.1414 978.335,-98.1966 981.038,-97.2117"/>
<polygon fill="midnightblue" stroke="midnightblue" points="982.553,-100.38 990.654,-93.5521 980.063,-93.8379 982.553,-100.38"/>
</g>
<!-- Node42&#45;&gt;Node16 -->
<g id="edge54" class="edge"><title>Node42&#45;&gt;Node16</title>
<path fill="none" stroke="midnightblue" d="M771.9,-136.66C761.454,-112.103 740.163,-62.0493 728.706,-35.1169"/>
<polygon fill="midnightblue" stroke="midnightblue" points="731.848,-33.5596 724.712,-25.7275 725.406,-36.2996 731.848,-33.5596"/>
</g>
<!-- Node42&#45;&gt;Node34 -->
<g id="edge59" class="edge"><title>Node42&#45;&gt;Node34</title>
<path fill="none" stroke="midnightblue" d="M734.061,-136.922C696.634,-124.931 643.494,-107.906 608.404,-96.6635"/>
<polygon fill="midnightblue" stroke="midnightblue" points="609.164,-93.2318 598.573,-93.5138 607.029,-99.8981 609.164,-93.2318"/>
</g>
<!-- Node42&#45;&gt;Node37 -->
<g id="edge55" class="edge"><title>Node42&#45;&gt;Node37</title>
<path fill="none" stroke="midnightblue" d="M759.773,-136.679C746.027,-125.879 727.216,-111.098 713.231,-100.11"/>
<polygon fill="midnightblue" stroke="midnightblue" points="715.262,-97.2544 705.236,-93.8283 710.937,-102.759 715.262,-97.2544"/>
</g>
<!-- Node43 -->
<g id="node43" class="node"><title>Node43</title>
<polygon fill="none" stroke="#bfbfbf" points="771.5,-74.5 771.5,-93.5 820.5,-93.5 820.5,-74.5 771.5,-74.5"/>
<text text-anchor="middle" x="796" y="-81.5" font-family="Helvetica,sans-Serif" font-size="10.00">cassert</text>
</g>
<!-- Node42&#45;&gt;Node43 -->
<g id="edge56" class="edge"><title>Node42&#45;&gt;Node43</title>
<path fill="none" stroke="midnightblue" d="M781.906,-136.679C784.546,-126.999 788.057,-114.123 790.915,-103.645"/>
<polygon fill="midnightblue" stroke="midnightblue" points="794.338,-104.397 793.592,-93.8283 787.584,-102.555 794.338,-104.397"/>
</g>
<!-- Node44 -->
<g id="node44" class="node"><title>Node44</title>
<polygon fill="none" stroke="#bfbfbf" points="839,-74.5 839,-93.5 885,-93.5 885,-74.5 839,-74.5"/>
<text text-anchor="middle" x="862" y="-81.5" font-family="Helvetica,sans-Serif" font-size="10.00">cstdint</text>
</g>
<!-- Node42&#45;&gt;Node44 -->
<g id="edge57" class="edge"><title>Node42&#45;&gt;Node44</title>
<path fill="none" stroke="midnightblue" d="M796.227,-136.679C809.973,-125.879 828.784,-111.098 842.769,-100.11"/>
<polygon fill="midnightblue" stroke="midnightblue" points="845.063,-102.759 850.764,-93.8283 840.738,-97.2544 845.063,-102.759"/>
</g>
<!-- Node45 -->
<g id="node45" class="node"><title>Node45</title>
<polygon fill="none" stroke="#bfbfbf" points="903,-74.5 903,-93.5 965,-93.5 965,-74.5 903,-74.5"/>
<text text-anchor="middle" x="934" y="-81.5" font-family="Helvetica,sans-Serif" font-size="10.00">type_traits</text>
</g>
<!-- Node42&#45;&gt;Node45 -->
<g id="edge58" class="edge"><title>Node42&#45;&gt;Node45</title>
<path fill="none" stroke="midnightblue" d="M811.466,-136.841C838.933,-125.221 877.481,-108.912 903.967,-97.7063"/>
<polygon fill="midnightblue" stroke="midnightblue" points="905.633,-100.802 913.479,-93.6819 902.906,-94.355 905.633,-100.802"/>
</g>
</g>
</svg>
        <g id="navigator" transform="translate(0 0)" fill="#404254">
                <rect fill="#f2f5e9" fill-opacity="0.5" stroke="#606060" stroke-width=".5" x="0" y="0" width="60" height="60"/>
                <use id="zoomplus" xlink:href="#zoomPlus" x="17" y="9" onmousedown="handleZoom(evt,'in')"/>
                <use id="zoomminus" xlink:href="#zoomMin" x="42" y="9" onmousedown="handleZoom(evt,'out')"/>
                <use id="reset" xlink:href="#resetDef" x="30" y="36" onmousedown="handleReset()"/>
                <g id="arrowUp" xlink:href="#dirArrow" transform="translate(30 24)" onmousedown="handlePan(0,-1)">
                  <use xlink:href="#rim" fill="#404040">
                        <set attributeName="fill" to="#808080" begin="arrowUp.mouseover" end="arrowUp.mouseout"/>
                  </use>
                  <path fill="none" stroke="white" stroke-width="1.5" d="M0,-3.0v7 M-2.5,-0.5L0,-3.0L2.5,-0.5"/>
                </g>
                <g id="arrowRight" xlink:href="#dirArrow" transform="rotate(90) translate(36 -43)" onmousedown="handlePan(1,0)">
                  <use xlink:href="#rim" fill="#404040">
                        <set attributeName="fill" to="#808080" begin="arrowRight.mouseover" end="arrowRight.mouseout"/>
                  </use>
                  <path fill="none" stroke="white" stroke-width="1.5" d="M0,-3.0v7 M-2.5,-0.5L0,-3.0L2.5,-0.5"/>
                </g>
                <g id="arrowDown" xlink:href="#dirArrow" transform="rotate(180) translate(-30 -48)" onmousedown="handlePan(0,1)">
                  <use xlink:href="#rim" fill="#404040">
                        <set attributeName="fill" to="#808080" begin="arrowDown.mouseover" end="arrowDown.mouseout"/>
                  </use>
                  <path fill="none" stroke="white" stroke-width="1.5" d="M0,-3.0v7 M-2.5,-0.5L0,-3.0L2.5,-0.5"/>
                </g>
                <g id="arrowLeft" xlink:href="#dirArrow" transform="rotate(270) translate(-36 17)" onmousedown="handlePan(-1,0)">
                  <use xlink:href="#rim" fill="#404040">
                        <set attributeName="fill" to="#808080" begin="arrowLeft.mouseover" end="arrowLeft.mouseout"/>
                  </use>
                  <path fill="none" stroke="white" stroke-width="1.5" d="M0,-3.0v7 M-2.5,-0.5L0,-3.0L2.5,-0.5"/>
                </g>
        </g>
        <svg viewBox="0 0 15 15" width="100%" height="30px" preserveAspectRatio="xMaxYMin meet">
         <g id="arrow_out" transform="scale(0.3 0.3)">
          <a xlink:href="testTreeStream_8cxx__incl_org.svg" target="_base">
           <rect id="button" ry="5" rx="5" y="6" x="6" height="38" width="38"
                fill="#f2f5e9" fill-opacity="0.5" stroke="#606060" stroke-width="1.0"/>
           <path id="arrow"
             d="M 11.500037,31.436501 C 11.940474,20.09759 22.043105,11.32322 32.158766,21.979434 L 37.068811,17.246167 C 37.068811,17.246167 37.088388,32 37.088388,32 L 22.160133,31.978069 C 22.160133,31.978069 26.997745,27.140456 26.997745,27.140456 C 18.528582,18.264221 13.291696,25.230495 11.500037,31.436501 z"
             style="fill:#404040;"/>
          </a>
         </g>
        </svg>
</svg>
