<?xml version="1.0" encoding="UTF-8" standalone="no"?>
<!DOCTYPE svg PUBLIC "-//W3C//DTD SVG 1.1//EN"
 "http://www.w3.org/Graphics/SVG/1.1/DTD/svg11.dtd">
<!-- Generated by graphviz version 2.36.0 (20140111.2315)
 -->
<!-- Title: /home/travis/build/AliceO2Group/AliceO2/Detectors/TOF/simulation/src/Digitizer.cxx Pages: 1 -->
<!--zoomable 458 -->
<svg id="main" version="1.1" xmlns="http://www.w3.org/2000/svg" xmlns:xlink="http://www.w3.org/1999/xlink" xml:space="preserve" onload="init(evt)">
<style type="text/css"><![CDATA[
.edge:hover path { stroke: red; }
.edge:hover polygon { stroke: red; fill: red; }
]]></style>
<script type="text/javascript"><![CDATA[
var edges = document.getElementsByTagName('g');
if (edges && edges.length) {
  for (var i=0;i<edges.length;i++) {
    if (edges[i].id.substr(0,4)=='edge') {
      edges[i].setAttribute('class','edge');
    }
  }
}
]]></script>
        <defs>
                <circle id="rim" cx="0" cy="0" r="7"/>
                <circle id="rim2" cx="0" cy="0" r="3.5"/>
                <g id="zoomPlus">
                        <use xlink:href="#rim" fill="#404040">
                                <set attributeName="fill" to="#808080" begin="zoomplus.mouseover" end="zoomplus.mouseout"/>
                        </use>
                        <path d="M-4,0h8M0,-4v8" fill="none" stroke="white" stroke-width="1.5" pointer-events="none"/>
                </g>
                <g id="zoomMin">
                        <use xlink:href="#rim" fill="#404040">
                                <set attributeName="fill" to="#808080" begin="zoomminus.mouseover" end="zoomminus.mouseout"/>
                        </use>
                        <path d="M-4,0h8" fill="none" stroke="white" stroke-width="1.5" pointer-events="none"/>
                </g>
                <g id="dirArrow">
                        <path fill="none" stroke="white" stroke-width="1.5" d="M0,-3.0v7 M-2.5,-0.5L0,-3.0L2.5,-0.5"/>
                </g>
               <g id="resetDef">
                       <use xlink:href="#rim2" fill="#404040">
                               <set attributeName="fill" to="#808080" begin="reset.mouseover" end="reset.mouseout"/>
                       </use>
               </g>
        </defs>

<script type="text/javascript">
var viewWidth = 2424;
var viewHeight = 458;
var sectionId = 'dynsection-0';
</script>
<script xlink:href="../../svgpan.js"/>
<svg id="graph" class="graph">
<g id="viewport">
<title>/home/travis/build/AliceO2Group/AliceO2/Detectors/TOF/simulation/src/Digitizer.cxx</title>
<!-- Node1 -->
<g id="node1" class="node"><title>Node1</title>
<polygon fill="#bfbfbf" stroke="black" points="1936,-397 1936,-449 2068,-449 2068,-397 1936,-397"/>
<text text-anchor="start" x="1944" y="-437" font-family="Helvetica,sans-Serif" font-size="10.00">/home/travis/build</text>
<text text-anchor="start" x="1944" y="-426" font-family="Helvetica,sans-Serif" font-size="10.00">/AliceO2Group/AliceO2</text>
<text text-anchor="start" x="1944" y="-415" font-family="Helvetica,sans-Serif" font-size="10.00">/Detectors/TOF/simulation</text>
<text text-anchor="middle" x="2002" y="-404" font-family="Helvetica,sans-Serif" font-size="10.00">/src/Digitizer.cxx</text>
</g>
<!-- Node2 -->
<g id="node2" class="node"><title>Node2</title>
<g id="a_node2"><a xlink:href="../../d0/d85/TOF_2simulation_2include_2TOFSimulation_2Digitizer_8h.html" target="_top" xlink:title="TOFSimulation/Digitizer.h">
<polygon fill="none" stroke="black" points="1179.5,-340.5 1179.5,-359.5 1308.5,-359.5 1308.5,-340.5 1179.5,-340.5"/>
<text text-anchor="middle" x="1244" y="-347.5" font-family="Helvetica,sans-Serif" font-size="10.00">TOFSimulation/Digitizer.h</text>
</a>
</g>
</g>
<!-- Node1&#45;&gt;Node2 -->
<g id="edge1" class="edge"><title>Node1&#45;&gt;Node2</title>
<path fill="none" stroke="midnightblue" d="M1935.73,-415.792C1795,-402.61 1467.1,-371.897 1318.99,-358.024"/>
<polygon fill="midnightblue" stroke="midnightblue" points="1318.92,-354.503 1308.64,-357.055 1318.27,-361.472 1318.92,-354.503"/>
</g>
<!-- Node34 -->
<g id="node34" class="node"><title>Node34</title>
<polygon fill="none" stroke="#bfbfbf" points="1732.5,-210.5 1732.5,-229.5 1781.5,-229.5 1781.5,-210.5 1732.5,-210.5"/>
<text text-anchor="middle" x="1757" y="-217.5" font-family="Helvetica,sans-Serif" font-size="10.00">cassert</text>
</g>
<!-- Node1&#45;&gt;Node34 -->
<g id="edge57" class="edge"><title>Node1&#45;&gt;Node34</title>
<path fill="none" stroke="midnightblue" d="M1935.93,-414.842C1869.44,-406.115 1773.59,-388.847 1751,-360 1723.53,-324.924 1738.76,-268.24 1749.42,-239.29"/>
<polygon fill="midnightblue" stroke="midnightblue" points="1752.8,-240.244 1753.18,-229.656 1746.28,-237.697 1752.8,-240.244"/>
</g>
<!-- Node39 -->
<g id="node39" class="node"><title>Node39</title>
<polygon fill="none" stroke="#bfbfbf" points="1760.5,-340.5 1760.5,-359.5 1825.5,-359.5 1825.5,-340.5 1760.5,-340.5"/>
<text text-anchor="middle" x="1793" y="-347.5" font-family="Helvetica,sans-Serif" font-size="10.00">TCanvas.h</text>
</g>
<!-- Node1&#45;&gt;Node39 -->
<g id="edge48" class="edge"><title>Node1&#45;&gt;Node39</title>
<path fill="none" stroke="midnightblue" d="M1935.87,-399.535C1900.03,-387.361 1857.2,-372.811 1827.84,-362.837"/>
<polygon fill="midnightblue" stroke="midnightblue" points="1828.65,-359.414 1818.05,-359.511 1826.4,-366.042 1828.65,-359.414"/>
</g>
<!-- Node40 -->
<g id="node40" class="node"><title>Node40</title>
<polygon fill="none" stroke="#bfbfbf" points="1843.5,-340.5 1843.5,-359.5 1890.5,-359.5 1890.5,-340.5 1843.5,-340.5"/>
<text text-anchor="middle" x="1867" y="-347.5" font-family="Helvetica,sans-Serif" font-size="10.00">TFile.h</text>
</g>
<!-- Node1&#45;&gt;Node40 -->
<g id="edge49" class="edge"><title>Node1&#45;&gt;Node40</title>
<path fill="none" stroke="midnightblue" d="M1954.4,-396.968C1933.52,-385.986 1909.85,-373.537 1892.41,-364.366"/>
<polygon fill="midnightblue" stroke="midnightblue" points="1893.91,-361.196 1883.43,-359.639 1890.65,-367.391 1893.91,-361.196"/>
</g>
<!-- Node41 -->
<g id="node41" class="node"><title>Node41</title>
<polygon fill="none" stroke="#bfbfbf" points="1909,-340.5 1909,-359.5 1959,-359.5 1959,-340.5 1909,-340.5"/>
<text text-anchor="middle" x="1934" y="-347.5" font-family="Helvetica,sans-Serif" font-size="10.00">TH1F.h</text>
</g>
<!-- Node1&#45;&gt;Node41 -->
<g id="edge50" class="edge"><title>Node1&#45;&gt;Node41</title>
<path fill="none" stroke="midnightblue" d="M1977.83,-396.768C1968.36,-386.881 1957.78,-375.831 1949.39,-367.066"/>
<polygon fill="midnightblue" stroke="midnightblue" points="1951.83,-364.558 1942.39,-359.757 1946.78,-369.4 1951.83,-364.558"/>
</g>
<!-- Node42 -->
<g id="node42" class="node"><title>Node42</title>
<polygon fill="none" stroke="#bfbfbf" points="1977,-340.5 1977,-359.5 2027,-359.5 2027,-340.5 1977,-340.5"/>
<text text-anchor="middle" x="2002" y="-347.5" font-family="Helvetica,sans-Serif" font-size="10.00">TH2F.h</text>
</g>
<!-- Node1&#45;&gt;Node42 -->
<g id="edge51" class="edge"><title>Node1&#45;&gt;Node42</title>
<path fill="none" stroke="midnightblue" d="M2002,-396.768C2002,-387.89 2002,-378.074 2002,-369.816"/>
<polygon fill="midnightblue" stroke="midnightblue" points="2005.5,-369.757 2002,-359.757 1998.5,-369.757 2005.5,-369.757"/>
</g>
<!-- Node43 -->
<g id="node43" class="node"><title>Node43</title>
<polygon fill="none" stroke="#bfbfbf" points="2045,-340.5 2045,-359.5 2095,-359.5 2095,-340.5 2045,-340.5"/>
<text text-anchor="middle" x="2070" y="-347.5" font-family="Helvetica,sans-Serif" font-size="10.00">TLeaf.h</text>
</g>
<!-- Node1&#45;&gt;Node43 -->
<g id="edge52" class="edge"><title>Node1&#45;&gt;Node43</title>
<path fill="none" stroke="midnightblue" d="M2026.17,-396.768C2035.64,-386.881 2046.22,-375.831 2054.61,-367.066"/>
<polygon fill="midnightblue" stroke="midnightblue" points="2057.22,-369.4 2061.61,-359.757 2052.17,-364.558 2057.22,-369.4"/>
</g>
<!-- Node44 -->
<g id="node44" class="node"><title>Node44</title>
<polygon fill="none" stroke="#bfbfbf" points="2113.5,-340.5 2113.5,-359.5 2166.5,-359.5 2166.5,-340.5 2113.5,-340.5"/>
<text text-anchor="middle" x="2140" y="-347.5" font-family="Helvetica,sans-Serif" font-size="10.00">TMath.h</text>
</g>
<!-- Node1&#45;&gt;Node44 -->
<g id="edge53" class="edge"><title>Node1&#45;&gt;Node44</title>
<path fill="none" stroke="midnightblue" d="M2050.65,-396.968C2072,-385.986 2096.2,-373.537 2114.02,-364.366"/>
<polygon fill="midnightblue" stroke="midnightblue" points="2115.92,-367.326 2123.21,-359.639 2112.72,-361.102 2115.92,-367.326"/>
</g>
<!-- Node45 -->
<g id="node45" class="node"><title>Node45</title>
<polygon fill="none" stroke="#bfbfbf" points="2184.5,-340.5 2184.5,-359.5 2255.5,-359.5 2255.5,-340.5 2184.5,-340.5"/>
<text text-anchor="middle" x="2220" y="-347.5" font-family="Helvetica,sans-Serif" font-size="10.00">TProfile2D.h</text>
</g>
<!-- Node1&#45;&gt;Node45 -->
<g id="edge54" class="edge"><title>Node1&#45;&gt;Node45</title>
<path fill="none" stroke="midnightblue" d="M2068.3,-400.408C2106.39,-388.002 2152.75,-372.904 2184.11,-362.688"/>
<polygon fill="midnightblue" stroke="midnightblue" points="2185.32,-365.977 2193.74,-359.552 2183.15,-359.321 2185.32,-365.977"/>
</g>
<!-- Node46 -->
<g id="node46" class="node"><title>Node46</title>
<polygon fill="none" stroke="#bfbfbf" points="2274,-340.5 2274,-359.5 2342,-359.5 2342,-340.5 2274,-340.5"/>
<text text-anchor="middle" x="2308" y="-347.5" font-family="Helvetica,sans-Serif" font-size="10.00">TRandom.h</text>
</g>
<!-- Node1&#45;&gt;Node46 -->
<g id="edge55" class="edge"><title>Node1&#45;&gt;Node46</title>
<path fill="none" stroke="midnightblue" d="M2068.02,-406.681C2127.32,-392.923 2212.72,-373.109 2264.04,-361.2"/>
<polygon fill="midnightblue" stroke="midnightblue" points="2264.88,-364.598 2273.83,-358.928 2263.3,-357.779 2264.88,-364.598"/>
</g>
<!-- Node47 -->
<g id="node47" class="node"><title>Node47</title>
<polygon fill="none" stroke="#bfbfbf" points="2360,-340.5 2360,-359.5 2416,-359.5 2416,-340.5 2360,-340.5"/>
<text text-anchor="middle" x="2388" y="-347.5" font-family="Helvetica,sans-Serif" font-size="10.00">algorithm</text>
</g>
<!-- Node1&#45;&gt;Node47 -->
<g id="edge56" class="edge"><title>Node1&#45;&gt;Node47</title>
<path fill="none" stroke="midnightblue" d="M2068.17,-411.516C2136.34,-400.427 2245.88,-381.814 2349.73,-360.167"/>
<polygon fill="midnightblue" stroke="midnightblue" points="2350.69,-363.541 2359.76,-358.063 2349.25,-356.69 2350.69,-363.541"/>
</g>
<!-- Node3 -->
<g id="node3" class="node"><title>Node3</title>
<g id="a_node3"><a xlink:href="../../d4/d54/Geo_8h.html" target="_top" xlink:title="TOFBase/Geo.h">
<polygon fill="none" stroke="black" points="1153,-210.5 1153,-229.5 1241,-229.5 1241,-210.5 1153,-210.5"/>
<text text-anchor="middle" x="1197" y="-217.5" font-family="Helvetica,sans-Serif" font-size="10.00">TOFBase/Geo.h</text>
</a>
</g>
</g>
<!-- Node2&#45;&gt;Node3 -->
<g id="edge2" class="edge"><title>Node2&#45;&gt;Node3</title>
<path fill="none" stroke="midnightblue" d="M1251.7,-340.109C1263.45,-325.404 1283.25,-295.326 1271,-272 1262.02,-254.911 1244.44,-242.428 1228.66,-234.09"/>
<polygon fill="midnightblue" stroke="midnightblue" points="1230.18,-230.936 1219.66,-229.657 1227.09,-237.215 1230.18,-230.936"/>
</g>
<!-- Node5 -->
<g id="node5" class="node"><title>Node5</title>
<g id="a_node5"><a xlink:href="../../df/d9c/TOF_2base_2include_2TOFBase_2Digit_8h.html" target="_top" xlink:title="TOFBase/Digit.h">
<polygon fill="none" stroke="black" points="750,-210.5 750,-229.5 840,-229.5 840,-210.5 750,-210.5"/>
<text text-anchor="middle" x="795" y="-217.5" font-family="Helvetica,sans-Serif" font-size="10.00">TOFBase/Digit.h</text>
</a>
</g>
</g>
<!-- Node2&#45;&gt;Node5 -->
<g id="edge4" class="edge"><title>Node2&#45;&gt;Node5</title>
<path fill="none" stroke="midnightblue" d="M1179.37,-343.351C1123.52,-337.285 1041.13,-325.478 972,-304 914.475,-286.129 851.639,-253.144 818.505,-234.591"/>
<polygon fill="midnightblue" stroke="midnightblue" points="820.021,-231.428 809.594,-229.547 816.572,-237.519 820.021,-231.428"/>
</g>
<!-- Node9 -->
<g id="node9" class="node"><title>Node9</title>
<g id="a_node9"><a xlink:href="../../d5/d3c/TOF_2simulation_2include_2TOFSimulation_2Detector_8h.html" target="_top" xlink:title="TOFSimulation/Detector.h">
<polygon fill="none" stroke="black" points="1131.5,-278.5 1131.5,-297.5 1262.5,-297.5 1262.5,-278.5 1131.5,-278.5"/>
<text text-anchor="middle" x="1197" y="-285.5" font-family="Helvetica,sans-Serif" font-size="10.00">TOFSimulation/Detector.h</text>
</a>
</g>
</g>
<!-- Node2&#45;&gt;Node9 -->
<g id="edge10" class="edge"><title>Node2&#45;&gt;Node9</title>
<path fill="none" stroke="midnightblue" d="M1237.27,-340.403C1230.22,-331.403 1218.97,-317.041 1210.15,-305.782"/>
<polygon fill="midnightblue" stroke="midnightblue" points="1212.64,-303.295 1203.72,-297.581 1207.13,-307.611 1212.64,-303.295"/>
</g>
<!-- Node32 -->
<g id="node32" class="node"><title>Node32</title>
<g id="a_node32"><a xlink:href="../../db/d14/MCTruthContainer_8h.html" target="_top" xlink:title="Definition of a container to keep Monte Carlo truth external to simulation objects. ">
<polygon fill="none" stroke="black" points="1541,-273 1541,-303 1655,-303 1655,-273 1541,-273"/>
<text text-anchor="start" x="1549" y="-291" font-family="Helvetica,sans-Serif" font-size="10.00">SimulationDataFormat</text>
<text text-anchor="middle" x="1598" y="-280" font-family="Helvetica,sans-Serif" font-size="10.00">/MCTruthContainer.h</text>
</a>
</g>
</g>
<!-- Node2&#45;&gt;Node32 -->
<g id="edge39" class="edge"><title>Node2&#45;&gt;Node32</title>
<path fill="none" stroke="midnightblue" d="M1294.34,-340.467C1356.38,-329.952 1462.02,-312.047 1530.91,-300.372"/>
<polygon fill="midnightblue" stroke="midnightblue" points="1531.52,-303.818 1540.79,-298.696 1530.35,-296.917 1531.52,-303.818"/>
</g>
<!-- Node37 -->
<g id="node37" class="node"><title>Node37</title>
<g id="a_node37"><a xlink:href="../../df/d71/MCLabel_8h.html" target="_top" xlink:title="TOFSimulation/MCLabel.h">
<polygon fill="none" stroke="black" points="981,-278.5 981,-297.5 1113,-297.5 1113,-278.5 981,-278.5"/>
<text text-anchor="middle" x="1047" y="-285.5" font-family="Helvetica,sans-Serif" font-size="10.00">TOFSimulation/MCLabel.h</text>
</a>
</g>
</g>
<!-- Node2&#45;&gt;Node37 -->
<g id="edge45" class="edge"><title>Node2&#45;&gt;Node37</title>
<path fill="none" stroke="midnightblue" d="M1215.77,-340.403C1181.4,-329.933 1123.19,-312.205 1084.92,-300.55"/>
<polygon fill="midnightblue" stroke="midnightblue" points="1085.76,-297.146 1075.17,-297.581 1083.72,-303.842 1085.76,-297.146"/>
</g>
<!-- Node4 -->
<g id="node4" class="node"><title>Node4</title>
<polygon fill="none" stroke="#bfbfbf" points="1183,-74.5 1183,-93.5 1239,-93.5 1239,-74.5 1183,-74.5"/>
<text text-anchor="middle" x="1211" y="-81.5" font-family="Helvetica,sans-Serif" font-size="10.00">Rtypes.h</text>
</g>
<!-- Node3&#45;&gt;Node4 -->
<g id="edge3" class="edge"><title>Node3&#45;&gt;Node4</title>
<path fill="none" stroke="midnightblue" d="M1152.92,-211.307C1100.32,-200.15 1023.03,-176.282 1053,-136 1086.24,-91.327 1120.39,-118.238 1173,-100 1175.55,-99.1157 1178.18,-98.1628 1180.82,-97.1812"/>
<polygon fill="midnightblue" stroke="midnightblue" points="1182.13,-100.425 1190.21,-93.5721 1179.62,-93.8906 1182.13,-100.425"/>
</g>
<!-- Node5&#45;&gt;Node4 -->
<g id="edge8" class="edge"><title>Node5&#45;&gt;Node4</title>
<path fill="none" stroke="midnightblue" d="M819.371,-210.362C877.533,-189.758 1020.42,-139.193 1031,-136 1093.33,-117.18 1111.04,-119.993 1173,-100 1175.63,-99.1513 1178.34,-98.2133 1181.05,-97.2331"/>
<polygon fill="midnightblue" stroke="midnightblue" points="1182.56,-100.403 1190.66,-93.5809 1180.07,-93.8586 1182.56,-100.403"/>
</g>
<!-- Node6 -->
<g id="node6" class="node"><title>Node6</title>
<g id="a_node6"><a xlink:href="../../df/d5d/common_2include_2CommonDataFormat_2TimeStamp_8h.html" target="_top" xlink:title="CommonDataFormat/TimeStamp.h">
<polygon fill="none" stroke="black" points="760,-142.5 760,-161.5 930,-161.5 930,-142.5 760,-142.5"/>
<text text-anchor="middle" x="845" y="-149.5" font-family="Helvetica,sans-Serif" font-size="10.00">CommonDataFormat/TimeStamp.h</text>
</a>
</g>
</g>
<!-- Node5&#45;&gt;Node6 -->
<g id="edge5" class="edge"><title>Node5&#45;&gt;Node6</title>
<path fill="none" stroke="midnightblue" d="M801.537,-210.372C809.279,-200.151 822.361,-182.884 832.154,-169.957"/>
<polygon fill="midnightblue" stroke="midnightblue" points="835.053,-171.926 838.302,-161.841 829.474,-167.699 835.053,-171.926"/>
</g>
<!-- Node7 -->
<g id="node7" class="node"><title>Node7</title>
<polygon fill="none" stroke="#bfbfbf" points="-0.5,-74.5 -0.5,-93.5 44.5,-93.5 44.5,-74.5 -0.5,-74.5"/>
<text text-anchor="middle" x="22" y="-81.5" font-family="Helvetica,sans-Serif" font-size="10.00">iosfwd</text>
</g>
<!-- Node5&#45;&gt;Node7 -->
<g id="edge7" class="edge"><title>Node5&#45;&gt;Node7</title>
<path fill="none" stroke="midnightblue" d="M749.626,-216.329C632.031,-208.43 308.746,-180.47 53,-100 50.8684,-99.3293 48.6985,-98.5347 46.5468,-97.6667"/>
<polygon fill="midnightblue" stroke="midnightblue" points="47.9616,-94.4654 37.4066,-93.548 45.0858,-100.847 47.9616,-94.4654"/>
</g>
<!-- Node8 -->
<g id="node8" class="node"><title>Node8</title>
<polygon fill="none" stroke="#bfbfbf" points="503.5,-137 503.5,-167 598.5,-167 598.5,-137 503.5,-137"/>
<text text-anchor="start" x="511.5" y="-155" font-family="Helvetica,sans-Serif" font-size="10.00">boost/serialization</text>
<text text-anchor="middle" x="551" y="-144" font-family="Helvetica,sans-Serif" font-size="10.00">/base_object.hpp</text>
</g>
<!-- Node5&#45;&gt;Node8 -->
<g id="edge9" class="edge"><title>Node5&#45;&gt;Node8</title>
<path fill="none" stroke="midnightblue" d="M763.101,-210.372C723.945,-199.78 656.812,-181.621 608.551,-168.567"/>
<polygon fill="midnightblue" stroke="midnightblue" points="609.428,-165.179 598.861,-165.946 607.6,-171.936 609.428,-165.179"/>
</g>
<!-- Node6&#45;&gt;Node4 -->
<g id="edge6" class="edge"><title>Node6&#45;&gt;Node4</title>
<path fill="none" stroke="midnightblue" d="M900.75,-142.492C992.636,-128.447 1166.47,-101.774 1173,-100 1175.98,-99.1899 1179.05,-98.2207 1182.09,-97.1701"/>
<polygon fill="midnightblue" stroke="midnightblue" points="1183.42,-100.412 1191.56,-93.632 1180.97,-93.855 1183.42,-100.412"/>
</g>
<!-- Node9&#45;&gt;Node3 -->
<g id="edge25" class="edge"><title>Node9&#45;&gt;Node3</title>
<path fill="none" stroke="midnightblue" d="M1197,-278.372C1197,-268.643 1197,-252.528 1197,-239.85"/>
<polygon fill="midnightblue" stroke="midnightblue" points="1200.5,-239.841 1197,-229.841 1193.5,-239.841 1200.5,-239.841"/>
</g>
<!-- Node10 -->
<g id="node10" class="node"><title>Node10</title>
<g id="a_node10"><a xlink:href="../../d1/d3a/Base_2include_2DetectorsBase_2Detector_8h.html" target="_top" xlink:title="DetectorsBase/Detector.h">
<polygon fill="none" stroke="black" points="1324.5,-210.5 1324.5,-229.5 1455.5,-229.5 1455.5,-210.5 1324.5,-210.5"/>
<text text-anchor="middle" x="1390" y="-217.5" font-family="Helvetica,sans-Serif" font-size="10.00">DetectorsBase/Detector.h</text>
</a>
</g>
</g>
<!-- Node9&#45;&gt;Node10 -->
<g id="edge11" class="edge"><title>Node9&#45;&gt;Node10</title>
<path fill="none" stroke="midnightblue" d="M1222.23,-278.372C1256.28,-266.728 1317.07,-245.939 1355.37,-232.841"/>
<polygon fill="midnightblue" stroke="midnightblue" points="1356.74,-236.073 1365.07,-229.526 1354.47,-229.45 1356.74,-236.073"/>
</g>
<!-- Node21 -->
<g id="node21" class="node"><title>Node21</title>
<g id="a_node21"><a xlink:href="../../d4/d25/BaseHits_8h.html" target="_top" xlink:title="SimulationDataFormat\l/BaseHits.h">
<polygon fill="none" stroke="black" points="858,-205 858,-235 972,-235 972,-205 858,-205"/>
<text text-anchor="start" x="866" y="-223" font-family="Helvetica,sans-Serif" font-size="10.00">SimulationDataFormat</text>
<text text-anchor="middle" x="915" y="-212" font-family="Helvetica,sans-Serif" font-size="10.00">/BaseHits.h</text>
</a>
</g>
</g>
<!-- Node9&#45;&gt;Node21 -->
<g id="edge26" class="edge"><title>Node9&#45;&gt;Node21</title>
<path fill="none" stroke="midnightblue" d="M1160.42,-278.439C1115.29,-267.877 1037.7,-249.716 981.825,-236.64"/>
<polygon fill="midnightblue" stroke="midnightblue" points="982.542,-233.213 972.008,-234.342 980.947,-240.029 982.542,-233.213"/>
</g>
<!-- Node10&#45;&gt;Node4 -->
<g id="edge20" class="edge"><title>Node10&#45;&gt;Node4</title>
<path fill="none" stroke="midnightblue" d="M1390.49,-210.461C1390.96,-193.871 1389.57,-157.07 1370,-136 1338.85,-102.456 1285.63,-90.8895 1249.42,-86.9505"/>
<polygon fill="midnightblue" stroke="midnightblue" points="1249.52,-83.4442 1239.23,-85.9932 1248.86,-90.4135 1249.52,-83.4442"/>
</g>
<!-- Node11 -->
<g id="node11" class="node"><title>Node11</title>
<polygon fill="none" stroke="#bfbfbf" points="1767.5,-74.5 1767.5,-93.5 1802.5,-93.5 1802.5,-74.5 1767.5,-74.5"/>
<text text-anchor="middle" x="1785" y="-81.5" font-family="Helvetica,sans-Serif" font-size="10.00">map</text>
</g>
<!-- Node10&#45;&gt;Node11 -->
<g id="edge12" class="edge"><title>Node10&#45;&gt;Node11</title>
<path fill="none" stroke="midnightblue" d="M1428.28,-210.486C1439.73,-208.144 1452.34,-205.766 1464,-204 1542.84,-192.065 1767.52,-227.142 1821,-168 1838.54,-148.602 1818.04,-119.327 1801.56,-101.228"/>
<polygon fill="midnightblue" stroke="midnightblue" points="1803.86,-98.5763 1794.42,-93.7747 1798.81,-103.418 1803.86,-98.5763"/>
</g>
<!-- Node12 -->
<g id="node12" class="node"><title>Node12</title>
<polygon fill="none" stroke="#bfbfbf" points="1418,-142.5 1418,-161.5 1462,-161.5 1462,-142.5 1418,-142.5"/>
<text text-anchor="middle" x="1440" y="-149.5" font-family="Helvetica,sans-Serif" font-size="10.00">vector</text>
</g>
<!-- Node10&#45;&gt;Node12 -->
<g id="edge13" class="edge"><title>Node10&#45;&gt;Node12</title>
<path fill="none" stroke="midnightblue" d="M1396.54,-210.372C1404.28,-200.151 1417.36,-182.884 1427.15,-169.957"/>
<polygon fill="midnightblue" stroke="midnightblue" points="1430.05,-171.926 1433.3,-161.841 1424.47,-167.699 1430.05,-171.926"/>
</g>
<!-- Node13 -->
<g id="node13" class="node"><title>Node13</title>
<polygon fill="none" stroke="#bfbfbf" points="1480,-142.5 1480,-161.5 1532,-161.5 1532,-142.5 1480,-142.5"/>
<text text-anchor="middle" x="1506" y="-149.5" font-family="Helvetica,sans-Serif" font-size="10.00">memory</text>
</g>
<!-- Node10&#45;&gt;Node13 -->
<g id="edge14" class="edge"><title>Node10&#45;&gt;Node13</title>
<path fill="none" stroke="midnightblue" d="M1405.16,-210.372C1424.7,-199.254 1458.9,-179.8 1481.99,-166.662"/>
<polygon fill="midnightblue" stroke="midnightblue" points="1483.87,-169.618 1490.83,-161.63 1480.41,-163.534 1483.87,-169.618"/>
</g>
<!-- Node14 -->
<g id="node14" class="node"><title>Node14</title>
<polygon fill="none" stroke="#bfbfbf" points="1550.5,-142.5 1550.5,-161.5 1629.5,-161.5 1629.5,-142.5 1550.5,-142.5"/>
<text text-anchor="middle" x="1590" y="-149.5" font-family="Helvetica,sans-Serif" font-size="10.00">FairDetector.h</text>
</g>
<!-- Node10&#45;&gt;Node14 -->
<g id="edge15" class="edge"><title>Node10&#45;&gt;Node14</title>
<path fill="none" stroke="midnightblue" d="M1416.15,-210.372C1451.58,-198.679 1514.96,-177.762 1554.62,-164.674"/>
<polygon fill="midnightblue" stroke="midnightblue" points="1555.76,-167.983 1564.16,-161.526 1553.57,-161.336 1555.76,-167.983"/>
</g>
<!-- Node15 -->
<g id="node15" class="node"><title>Node15</title>
<polygon fill="none" stroke="#bfbfbf" points="1062,-142.5 1062,-161.5 1162,-161.5 1162,-142.5 1062,-142.5"/>
<text text-anchor="middle" x="1112" y="-149.5" font-family="Helvetica,sans-Serif" font-size="10.00">FairRootManager.h</text>
</g>
<!-- Node10&#45;&gt;Node15 -->
<g id="edge16" class="edge"><title>Node10&#45;&gt;Node15</title>
<path fill="none" stroke="midnightblue" d="M1352.36,-210.476C1308.68,-200.531 1234.53,-183.472 1171,-168 1165.74,-166.718 1160.22,-165.349 1154.75,-163.978"/>
<polygon fill="midnightblue" stroke="midnightblue" points="1155.6,-160.582 1145.05,-161.527 1153.89,-167.369 1155.6,-160.582"/>
</g>
<!-- Node16 -->
<g id="node16" class="node"><title>Node16</title>
<g id="a_node16"><a xlink:href="../../d0/d9a/MaterialManager_8h.html" target="_top" xlink:title="DetectorsBase/MaterialManager.h">
<polygon fill="none" stroke="black" points="1647.5,-142.5 1647.5,-161.5 1812.5,-161.5 1812.5,-142.5 1647.5,-142.5"/>
<text text-anchor="middle" x="1730" y="-149.5" font-family="Helvetica,sans-Serif" font-size="10.00">DetectorsBase/MaterialManager.h</text>
</a>
</g>
</g>
<!-- Node10&#45;&gt;Node16 -->
<g id="edge17" class="edge"><title>Node10&#45;&gt;Node16</title>
<path fill="none" stroke="midnightblue" d="M1431.86,-210.435C1442.35,-208.31 1453.58,-206.054 1464,-204 1536.81,-189.641 1620.95,-173.602 1674.77,-163.413"/>
<polygon fill="midnightblue" stroke="midnightblue" points="1675.61,-166.816 1684.79,-161.518 1674.31,-159.938 1675.61,-166.816"/>
</g>
<!-- Node17 -->
<g id="node17" class="node"><title>Node17</title>
<polygon fill="none" stroke="#bfbfbf" points="1180.5,-142.5 1180.5,-161.5 1233.5,-161.5 1233.5,-142.5 1180.5,-142.5"/>
<text text-anchor="middle" x="1207" y="-149.5" font-family="Helvetica,sans-Serif" font-size="10.00">cxxabi.h</text>
</g>
<!-- Node10&#45;&gt;Node17 -->
<g id="edge21" class="edge"><title>Node10&#45;&gt;Node17</title>
<path fill="none" stroke="midnightblue" d="M1363.32,-210.458C1333.52,-200.766 1283.96,-184.197 1242,-168 1239.9,-167.188 1237.73,-166.325 1235.56,-165.441"/>
<polygon fill="midnightblue" stroke="midnightblue" points="1236.73,-162.137 1226.15,-161.507 1234.03,-168.595 1236.73,-162.137"/>
</g>
<!-- Node18 -->
<g id="node18" class="node"><title>Node18</title>
<polygon fill="none" stroke="#bfbfbf" points="1251.5,-142.5 1251.5,-161.5 1302.5,-161.5 1302.5,-142.5 1251.5,-142.5"/>
<text text-anchor="middle" x="1277" y="-149.5" font-family="Helvetica,sans-Serif" font-size="10.00">typeinfo</text>
</g>
<!-- Node10&#45;&gt;Node18 -->
<g id="edge22" class="edge"><title>Node10&#45;&gt;Node18</title>
<path fill="none" stroke="midnightblue" d="M1375.23,-210.372C1356.28,-199.304 1323.18,-179.972 1300.69,-166.838"/>
<polygon fill="midnightblue" stroke="midnightblue" points="1302.18,-163.652 1291.78,-161.63 1298.65,-169.696 1302.18,-163.652"/>
</g>
<!-- Node19 -->
<g id="node19" class="node"><title>Node19</title>
<polygon fill="none" stroke="#bfbfbf" points="1869,-142.5 1869,-161.5 1931,-161.5 1931,-142.5 1869,-142.5"/>
<text text-anchor="middle" x="1900" y="-149.5" font-family="Helvetica,sans-Serif" font-size="10.00">type_traits</text>
</g>
<!-- Node10&#45;&gt;Node19 -->
<g id="edge23" class="edge"><title>Node10&#45;&gt;Node19</title>
<path fill="none" stroke="midnightblue" d="M1427.89,-210.5C1439.44,-208.131 1452.2,-205.734 1464,-204 1636.66,-178.628 1684.2,-203.829 1855,-168 1859.26,-167.106 1863.68,-165.941 1868.01,-164.656"/>
<polygon fill="midnightblue" stroke="midnightblue" points="1869.39,-167.891 1877.85,-161.509 1867.26,-161.224 1869.39,-167.891"/>
</g>
<!-- Node20 -->
<g id="node20" class="node"><title>Node20</title>
<polygon fill="none" stroke="#bfbfbf" points="1320.5,-142.5 1320.5,-161.5 1361.5,-161.5 1361.5,-142.5 1320.5,-142.5"/>
<text text-anchor="middle" x="1341" y="-149.5" font-family="Helvetica,sans-Serif" font-size="10.00">string</text>
</g>
<!-- Node10&#45;&gt;Node20 -->
<g id="edge24" class="edge"><title>Node10&#45;&gt;Node20</title>
<path fill="none" stroke="midnightblue" d="M1383.59,-210.372C1376.01,-200.151 1363.19,-182.884 1353.59,-169.957"/>
<polygon fill="midnightblue" stroke="midnightblue" points="1356.34,-167.784 1347.56,-161.841 1350.71,-171.957 1356.34,-167.784"/>
</g>
<!-- Node16&#45;&gt;Node4 -->
<g id="edge18" class="edge"><title>Node16&#45;&gt;Node4</title>
<path fill="none" stroke="midnightblue" d="M1679.92,-142.437C1666.34,-140.223 1651.62,-137.923 1638,-136 1494.97,-115.807 1324.23,-97.0049 1249.37,-89.0261"/>
<polygon fill="midnightblue" stroke="midnightblue" points="1249.34,-85.5043 1239.03,-87.9285 1248.61,-92.4651 1249.34,-85.5043"/>
</g>
<!-- Node16&#45;&gt;Node11 -->
<g id="edge19" class="edge"><title>Node16&#45;&gt;Node11</title>
<path fill="none" stroke="midnightblue" d="M1737.19,-142.372C1745.79,-132.053 1760.37,-114.551 1771.18,-101.585"/>
<polygon fill="midnightblue" stroke="midnightblue" points="1773.92,-103.764 1777.63,-93.8411 1768.54,-99.2827 1773.92,-103.764"/>
</g>
<!-- Node22 -->
<g id="node22" class="node"><title>Node22</title>
<g id="a_node22"><a xlink:href="../../dd/d76/Cartesian3D_8h.html" target="_top" xlink:title="MathUtils/Cartesian3D.h">
<polygon fill="none" stroke="black" points="616.5,-142.5 616.5,-161.5 741.5,-161.5 741.5,-142.5 616.5,-142.5"/>
<text text-anchor="middle" x="679" y="-149.5" font-family="Helvetica,sans-Serif" font-size="10.00">MathUtils/Cartesian3D.h</text>
</a>
</g>
</g>
<!-- Node21&#45;&gt;Node22 -->
<g id="edge27" class="edge"><title>Node21&#45;&gt;Node22</title>
<path fill="none" stroke="midnightblue" d="M864.662,-204.922C821.232,-192.777 759.335,-175.466 719.164,-164.232"/>
<polygon fill="midnightblue" stroke="midnightblue" points="720.016,-160.836 709.443,-161.514 718.131,-167.578 720.016,-160.836"/>
</g>
<!-- Node22&#45;&gt;Node4 -->
<g id="edge33" class="edge"><title>Node22&#45;&gt;Node4</title>
<path fill="none" stroke="midnightblue" d="M715.846,-142.435C727.082,-140.063 739.503,-137.682 751,-136 937.255,-108.755 989.743,-143.011 1173,-100 1176.25,-99.2383 1179.58,-98.2507 1182.86,-97.1458"/>
<polygon fill="midnightblue" stroke="midnightblue" points="1184.26,-100.361 1192.41,-93.5879 1181.81,-93.8016 1184.26,-100.361"/>
</g>
<!-- Node22&#45;&gt;Node7 -->
<g id="edge35" class="edge"><title>Node22&#45;&gt;Node7</title>
<path fill="none" stroke="midnightblue" d="M642.913,-142.446C631.486,-140.017 618.766,-137.6 607,-136 362.508,-102.756 291.589,-162.902 53,-100 50.6586,-99.3827 48.2821,-98.5853 45.9403,-97.6802"/>
<polygon fill="midnightblue" stroke="midnightblue" points="47.2448,-94.4295 36.6874,-93.5392 44.3853,-100.819 47.2448,-94.4295"/>
</g>
<!-- Node23 -->
<g id="node23" class="node"><title>Node23</title>
<polygon fill="none" stroke="#bfbfbf" points="819.5,-69 819.5,-99 970.5,-99 970.5,-69 819.5,-69"/>
<text text-anchor="start" x="827.5" y="-87" font-family="Helvetica,sans-Serif" font-size="10.00">Math/GenVector/Displacement</text>
<text text-anchor="middle" x="895" y="-76" font-family="Helvetica,sans-Serif" font-size="10.00">Vector3D.h</text>
</g>
<!-- Node22&#45;&gt;Node23 -->
<g id="edge28" class="edge"><title>Node22&#45;&gt;Node23</title>
<path fill="none" stroke="midnightblue" d="M707.238,-142.372C740.657,-132.16 797.096,-114.915 839.39,-101.992"/>
<polygon fill="midnightblue" stroke="midnightblue" points="840.457,-105.326 848.998,-99.0562 838.411,-98.6312 840.457,-105.326"/>
</g>
<!-- Node24 -->
<g id="node24" class="node"><title>Node24</title>
<polygon fill="none" stroke="#bfbfbf" points="989,-74.5 989,-93.5 1165,-93.5 1165,-74.5 989,-74.5"/>
<text text-anchor="middle" x="1077" y="-81.5" font-family="Helvetica,sans-Serif" font-size="10.00">Math/GenVector/PositionVector3D.h</text>
</g>
<!-- Node22&#45;&gt;Node24 -->
<g id="edge29" class="edge"><title>Node22&#45;&gt;Node24</title>
<path fill="none" stroke="midnightblue" d="M718.166,-142.468C728.798,-140.254 740.323,-137.946 751,-136 776.039,-131.436 923.415,-108.632 1011.21,-95.1108"/>
<polygon fill="midnightblue" stroke="midnightblue" points="1012,-98.5311 1021.35,-93.5501 1010.93,-91.6126 1012,-98.5311"/>
</g>
<!-- Node25 -->
<g id="node25" class="node"><title>Node25</title>
<polygon fill="none" stroke="#bfbfbf" points="62.5,-74.5 62.5,-93.5 211.5,-93.5 211.5,-74.5 62.5,-74.5"/>
<text text-anchor="middle" x="137" y="-81.5" font-family="Helvetica,sans-Serif" font-size="10.00">Math/GenVector/Rotation3D.h</text>
</g>
<!-- Node22&#45;&gt;Node25 -->
<g id="edge30" class="edge"><title>Node22&#45;&gt;Node25</title>
<path fill="none" stroke="midnightblue" d="M642.145,-142.491C630.909,-140.122 618.49,-137.727 607,-136 436.614,-110.389 391.736,-123.165 221,-100 211.201,-98.6706 200.802,-97.0146 190.781,-95.2928"/>
<polygon fill="midnightblue" stroke="midnightblue" points="191.377,-91.8441 180.922,-93.5587 190.165,-98.7382 191.377,-91.8441"/>
</g>
<!-- Node26 -->
<g id="node26" class="node"><title>Node26</title>
<polygon fill="none" stroke="#bfbfbf" points="230,-74.5 230,-93.5 386,-93.5 386,-74.5 230,-74.5"/>
<text text-anchor="middle" x="308" y="-81.5" font-family="Helvetica,sans-Serif" font-size="10.00">Math/GenVector/Transform3D.h</text>
</g>
<!-- Node22&#45;&gt;Node26 -->
<g id="edge31" class="edge"><title>Node22&#45;&gt;Node26</title>
<path fill="none" stroke="midnightblue" d="M639.441,-142.483C628.914,-140.292 617.539,-137.992 607,-136 513.092,-118.251 489.202,-116.119 395,-100 386.013,-98.4623 376.506,-96.8293 367.205,-95.2284"/>
<polygon fill="midnightblue" stroke="midnightblue" points="367.676,-91.7581 357.227,-93.5098 366.488,-98.6565 367.676,-91.7581"/>
</g>
<!-- Node27 -->
<g id="node27" class="node"><title>Node27</title>
<polygon fill="none" stroke="#bfbfbf" points="404,-74.5 404,-93.5 564,-93.5 564,-74.5 404,-74.5"/>
<text text-anchor="middle" x="484" y="-81.5" font-family="Helvetica,sans-Serif" font-size="10.00">Math/GenVector/Translation3D.h</text>
</g>
<!-- Node22&#45;&gt;Node27 -->
<g id="edge32" class="edge"><title>Node22&#45;&gt;Node27</title>
<path fill="none" stroke="midnightblue" d="M653.507,-142.372C619.106,-130.728 557.685,-109.939 518.985,-96.8411"/>
<polygon fill="midnightblue" stroke="midnightblue" points="519.784,-93.4166 509.19,-93.5259 517.54,-100.047 519.784,-93.4166"/>
</g>
<!-- Node28 -->
<g id="node28" class="node"><title>Node28</title>
<polygon fill="none" stroke="#bfbfbf" points="582,-74.5 582,-93.5 658,-93.5 658,-74.5 582,-74.5"/>
<text text-anchor="middle" x="620" y="-81.5" font-family="Helvetica,sans-Serif" font-size="10.00">TGeoMatrix.h</text>
</g>
<!-- Node22&#45;&gt;Node28 -->
<g id="edge34" class="edge"><title>Node22&#45;&gt;Node28</title>
<path fill="none" stroke="midnightblue" d="M671.287,-142.372C662.063,-132.053 646.417,-114.551 634.826,-101.585"/>
<polygon fill="midnightblue" stroke="midnightblue" points="637.177,-98.9639 627.903,-93.8411 631.959,-103.629 637.177,-98.9639"/>
</g>
<!-- Node29 -->
<g id="node29" class="node"><title>Node29</title>
<g id="a_node29"><a xlink:href="../../d2/dd0/Cartesian2D_8h.html" target="_top" xlink:title="MathUtils/Cartesian2D.h">
<polygon fill="none" stroke="black" points="676.5,-74.5 676.5,-93.5 801.5,-93.5 801.5,-74.5 676.5,-74.5"/>
<text text-anchor="middle" x="739" y="-81.5" font-family="Helvetica,sans-Serif" font-size="10.00">MathUtils/Cartesian2D.h</text>
</a>
</g>
</g>
<!-- Node22&#45;&gt;Node29 -->
<g id="edge36" class="edge"><title>Node22&#45;&gt;Node29</title>
<path fill="none" stroke="midnightblue" d="M686.844,-142.372C696.225,-132.053 712.135,-114.551 723.922,-101.585"/>
<polygon fill="midnightblue" stroke="midnightblue" points="726.826,-103.595 730.963,-93.8411 721.646,-98.8862 726.826,-103.595"/>
</g>
<!-- Node30 -->
<g id="node30" class="node"><title>Node30</title>
<polygon fill="none" stroke="#bfbfbf" points="572.5,-1 572.5,-31 723.5,-31 723.5,-1 572.5,-1"/>
<text text-anchor="start" x="580.5" y="-19" font-family="Helvetica,sans-Serif" font-size="10.00">Math/GenVector/Displacement</text>
<text text-anchor="middle" x="648" y="-8" font-family="Helvetica,sans-Serif" font-size="10.00">Vector2D.h</text>
</g>
<!-- Node29&#45;&gt;Node30 -->
<g id="edge37" class="edge"><title>Node29&#45;&gt;Node30</title>
<path fill="none" stroke="midnightblue" d="M727.103,-74.3717C714.221,-65.0286 693.22,-49.7966 676.093,-37.375"/>
<polygon fill="midnightblue" stroke="midnightblue" points="677.703,-34.2194 667.553,-31.1815 673.593,-39.8859 677.703,-34.2194"/>
</g>
<!-- Node31 -->
<g id="node31" class="node"><title>Node31</title>
<polygon fill="none" stroke="#bfbfbf" points="742,-6.5 742,-25.5 918,-25.5 918,-6.5 742,-6.5"/>
<text text-anchor="middle" x="830" y="-13.5" font-family="Helvetica,sans-Serif" font-size="10.00">Math/GenVector/PositionVector2D.h</text>
</g>
<!-- Node29&#45;&gt;Node31 -->
<g id="edge38" class="edge"><title>Node29&#45;&gt;Node31</title>
<path fill="none" stroke="midnightblue" d="M750.897,-74.3717C765.884,-63.5015 791.862,-44.6602 809.942,-31.5474"/>
<polygon fill="midnightblue" stroke="midnightblue" points="812.06,-34.3349 818.1,-25.6305 807.95,-28.6684 812.06,-34.3349"/>
</g>
<!-- Node32&#45;&gt;Node19 -->
<g id="edge44" class="edge"><title>Node32&#45;&gt;Node19</title>
<path fill="none" stroke="midnightblue" d="M1601.47,-272.989C1606.93,-254.098 1619.41,-220.883 1643,-204 1720.72,-148.385 1762.28,-191.179 1855,-168 1858.84,-167.039 1862.83,-165.909 1866.78,-164.708"/>
<polygon fill="midnightblue" stroke="midnightblue" points="1867.93,-168.016 1876.38,-161.63 1865.79,-161.35 1867.93,-168.016"/>
</g>
<!-- Node33 -->
<g id="node33" class="node"><title>Node33</title>
<polygon fill="none" stroke="#bfbfbf" points="1652,-210.5 1652,-229.5 1714,-229.5 1714,-210.5 1652,-210.5"/>
<text text-anchor="middle" x="1683" y="-217.5" font-family="Helvetica,sans-Serif" font-size="10.00">TNamed.h</text>
</g>
<!-- Node32&#45;&gt;Node33 -->
<g id="edge40" class="edge"><title>Node32&#45;&gt;Node33</title>
<path fill="none" stroke="midnightblue" d="M1616.44,-272.679C1630.35,-261.879 1649.39,-247.098 1663.54,-236.11"/>
<polygon fill="midnightblue" stroke="midnightblue" points="1665.88,-238.726 1671.63,-229.828 1661.59,-233.197 1665.88,-238.726"/>
</g>
<!-- Node32&#45;&gt;Node34 -->
<g id="edge41" class="edge"><title>Node32&#45;&gt;Node34</title>
<path fill="none" stroke="midnightblue" d="M1632.53,-272.956C1657.44,-262.787 1691.85,-248.662 1722,-236 1723.83,-235.232 1725.71,-234.438 1727.6,-233.635"/>
<polygon fill="midnightblue" stroke="midnightblue" points="1729.2,-236.758 1737.03,-229.618 1726.46,-230.318 1729.2,-236.758"/>
</g>
<!-- Node35 -->
<g id="node35" class="node"><title>Node35</title>
<polygon fill="none" stroke="#bfbfbf" points="1473.5,-210.5 1473.5,-229.5 1532.5,-229.5 1532.5,-210.5 1473.5,-210.5"/>
<text text-anchor="middle" x="1503" y="-217.5" font-family="Helvetica,sans-Serif" font-size="10.00">stdexcept</text>
</g>
<!-- Node32&#45;&gt;Node35 -->
<g id="edge42" class="edge"><title>Node32&#45;&gt;Node35</title>
<path fill="none" stroke="midnightblue" d="M1577.39,-272.679C1561.6,-261.713 1539.91,-246.645 1524.03,-235.609"/>
<polygon fill="midnightblue" stroke="midnightblue" points="1525.64,-232.469 1515.43,-229.638 1521.65,-238.218 1525.64,-232.469"/>
</g>
<!-- Node36 -->
<g id="node36" class="node"><title>Node36</title>
<polygon fill="none" stroke="#bfbfbf" points="1550.5,-210.5 1550.5,-229.5 1595.5,-229.5 1595.5,-210.5 1550.5,-210.5"/>
<text text-anchor="middle" x="1573" y="-217.5" font-family="Helvetica,sans-Serif" font-size="10.00">gsl/gsl</text>
</g>
<!-- Node32&#45;&gt;Node36 -->
<g id="edge43" class="edge"><title>Node32&#45;&gt;Node36</title>
<path fill="none" stroke="midnightblue" d="M1592.58,-272.679C1588.87,-262.898 1583.93,-249.852 1579.94,-239.315"/>
<polygon fill="midnightblue" stroke="midnightblue" points="1583.16,-237.94 1576.34,-229.828 1576.61,-240.42 1583.16,-237.94"/>
</g>
<!-- Node38 -->
<g id="node38" class="node"><title>Node38</title>
<g id="a_node38"><a xlink:href="../../d7/dcd/MCCompLabel_8h.html" target="_top" xlink:title="SimulationDataFormat\l/MCCompLabel.h">
<polygon fill="none" stroke="black" points="990,-205 990,-235 1104,-235 1104,-205 990,-205"/>
<text text-anchor="start" x="998" y="-223" font-family="Helvetica,sans-Serif" font-size="10.00">SimulationDataFormat</text>
<text text-anchor="middle" x="1047" y="-212" font-family="Helvetica,sans-Serif" font-size="10.00">/MCCompLabel.h</text>
</a>
</g>
</g>
<!-- Node37&#45;&gt;Node38 -->
<g id="edge46" class="edge"><title>Node37&#45;&gt;Node38</title>
<path fill="none" stroke="midnightblue" d="M1047,-278.372C1047,-269.971 1047,-256.811 1047,-245.213"/>
<polygon fill="midnightblue" stroke="midnightblue" points="1050.5,-245.181 1047,-235.181 1043.5,-245.181 1050.5,-245.181"/>
</g>
<!-- Node38&#45;&gt;Node4 -->
<g id="edge47" class="edge"><title>Node38&#45;&gt;Node4</title>
<path fill="none" stroke="midnightblue" d="M1041.25,-204.747C1035.03,-186.785 1027.89,-155.864 1043,-136 1079.3,-88.2847 1116.15,-119.033 1173,-100 1175.56,-99.143 1178.2,-98.2092 1180.84,-97.2404"/>
<polygon fill="midnightblue" stroke="midnightblue" points="1182.14,-100.488 1190.24,-93.6534 1179.65,-93.9473 1182.14,-100.488"/>
</g>
</g>
</svg>
        <g id="navigator" transform="translate(0 0)" fill="#404254">
                <rect fill="#f2f5e9" fill-opacity="0.5" stroke="#606060" stroke-width=".5" x="0" y="0" width="60" height="60"/>
                <use id="zoomplus" xlink:href="#zoomPlus" x="17" y="9" onmousedown="handleZoom(evt,'in')"/>
                <use id="zoomminus" xlink:href="#zoomMin" x="42" y="9" onmousedown="handleZoom(evt,'out')"/>
                <use id="reset" xlink:href="#resetDef" x="30" y="36" onmousedown="handleReset()"/>
                <g id="arrowUp" xlink:href="#dirArrow" transform="translate(30 24)" onmousedown="handlePan(0,-1)">
                  <use xlink:href="#rim" fill="#404040">
                        <set attributeName="fill" to="#808080" begin="arrowUp.mouseover" end="arrowUp.mouseout"/>
                  </use>
                  <path fill="none" stroke="white" stroke-width="1.5" d="M0,-3.0v7 M-2.5,-0.5L0,-3.0L2.5,-0.5"/>
                </g>
                <g id="arrowRight" xlink:href="#dirArrow" transform="rotate(90) translate(36 -43)" onmousedown="handlePan(1,0)">
                  <use xlink:href="#rim" fill="#404040">
                        <set attributeName="fill" to="#808080" begin="arrowRight.mouseover" end="arrowRight.mouseout"/>
                  </use>
                  <path fill="none" stroke="white" stroke-width="1.5" d="M0,-3.0v7 M-2.5,-0.5L0,-3.0L2.5,-0.5"/>
                </g>
                <g id="arrowDown" xlink:href="#dirArrow" transform="rotate(180) translate(-30 -48)" onmousedown="handlePan(0,1)">
                  <use xlink:href="#rim" fill="#404040">
                        <set attributeName="fill" to="#808080" begin="arrowDown.mouseover" end="arrowDown.mouseout"/>
                  </use>
                  <path fill="none" stroke="white" stroke-width="1.5" d="M0,-3.0v7 M-2.5,-0.5L0,-3.0L2.5,-0.5"/>
                </g>
                <g id="arrowLeft" xlink:href="#dirArrow" transform="rotate(270) translate(-36 17)" onmousedown="handlePan(-1,0)">
                  <use xlink:href="#rim" fill="#404040">
                        <set attributeName="fill" to="#808080" begin="arrowLeft.mouseover" end="arrowLeft.mouseout"/>
                  </use>
                  <path fill="none" stroke="white" stroke-width="1.5" d="M0,-3.0v7 M-2.5,-0.5L0,-3.0L2.5,-0.5"/>
                </g>
        </g>
        <svg viewBox="0 0 15 15" width="100%" height="30px" preserveAspectRatio="xMaxYMin meet">
         <g id="arrow_out" transform="scale(0.3 0.3)">
          <a xlink:href="TOF_2simulation_2src_2Digitizer_8cxx__incl_org.svg" target="_base">
           <rect id="button" ry="5" rx="5" y="6" x="6" height="38" width="38"
                fill="#f2f5e9" fill-opacity="0.5" stroke="#606060" stroke-width="1.0"/>
           <path id="arrow"
             d="M 11.500037,31.436501 C 11.940474,20.09759 22.043105,11.32322 32.158766,21.979434 L 37.068811,17.246167 C 37.068811,17.246167 37.088388,32 37.088388,32 L 22.160133,31.978069 C 22.160133,31.978069 26.997745,27.140456 26.997745,27.140456 C 18.528582,18.264221 13.291696,25.230495 11.500037,31.436501 z"
             style="fill:#404040;"/>
          </a>
         </g>
        </svg>
</svg>
